# This file uses centimeters as units for non-parametric coordinates.

v 2.462723 2.289442 0.012951
v 0.037277 2.289442 0.012951
v 0.037277 0.684419 0.012951
v 2.462723 0.684419 0.012951
v 0.037277 0.638405 0.012951
v 0.037277 0.236184 0.012951
v 2.462723 0.236184 0.012951
v 2.462723 0.638405 0.012951
v 2.537277 0.638405 0.012951
v 2.537277 0.236184 0.012951
v 4.962723 0.236184 0.012951
v 4.962723 0.638405 0.012951
v 4.962723 2.289442 0.012951
v 2.537277 2.289442 0.012951
v 2.537277 0.684419 0.012951
v 4.962723 0.684419 0.012951
v 2.537277 2.335456 0.012951
v 4.962723 2.335456 0.012951
v 4.962723 2.737678 0.012951
v 2.537277 2.737678 0.012951
v 0.037277 2.335456 0.012951
v 2.462723 2.335456 0.012951
v 2.462723 2.737678 0.012951
v 0.037277 2.737678 0.012951
vt 0.605258 0.087221
vt 0.509195 0.087221
vt 0.509195 0.025585
vt 0.605258 0.025585
vt 0.509195 0.023818
vt 0.509195 0.008372
vt 0.605258 0.008372
vt 0.605258 0.023818
vt 0.509195 0.023818
vt 0.509195 0.008372
vt 0.605258 0.008372
vt 0.605258 0.023818
vt 0.605258 0.087221
vt 0.509195 0.087221
vt 0.509195 0.025585
vt 0.605258 0.025585
vt 0.509195 0.088988
vt 0.605258 0.088988
vt 0.605258 0.104434
vt 0.509195 0.104434
vt 0.509195 0.088988
vt 0.605258 0.088988
vt 0.605258 0.104434
vt 0.509195 0.104434
vn 0.000000 0.000000 1.000000
vn 0.000000 0.000000 1.000000
vn 0.000000 0.000000 1.000000
vn 0.000000 0.000000 1.000000
vn 0.000000 0.000000 1.000000
vn 0.000000 0.000000 1.000000
vn 0.000000 0.000000 1.000000
vn 0.000000 0.000000 1.000000
vn 0.000000 0.000000 1.000000
vn 0.000000 0.000000 1.000000
vn 0.000000 0.000000 1.000000
vn 0.000000 0.000000 1.000000
vn 0.000000 0.000000 1.000000
vn 0.000000 0.000000 1.000000
vn 0.000000 0.000000 1.000000
vn 0.000000 0.000000 1.000000
vn 0.000000 0.000000 1.000000
vn 0.000000 0.000000 1.000000
vn 0.000000 0.000000 1.000000
vn 0.000000 0.000000 1.000000
vn 0.000000 0.000000 1.000000
vn 0.000000 0.000000 1.000000
vn 0.000000 0.000000 1.000000
vn 0.000000 0.000000 1.000000
s off
f 1/1/1 2/2/2 3/3/3 4/4/4
f 5/5/5 6/6/6 7/7/7 8/8/8
f 9/9/9 10/10/10 11/11/11 12/12/12
f 13/13/13 14/14/14 15/15/15 16/16/16
f 17/17/17 18/18/18 19/19/19 20/20/20
f 21/21/21 22/22/22 23/23/23 24/24/24
