# This file uses centimeters as units for non-parametric coordinates.

v 0.000000 -0.011190 0.429385
v 0.214691 -0.011190 0.429385
v 0.429382 -0.011190 0.429385
v 0.644073 -0.011190 0.429385
v 0.858765 -0.011190 0.429385
v 1.073471 -0.011190 0.429385
v 1.288162 -0.011190 0.429385
v 1.502853 -0.011190 0.429385
v 0.000000 -0.011190 0.214693
v 0.214691 -0.011190 0.214693
v 0.429382 -0.011190 0.214693
v 0.644073 -0.011190 0.214693
v 0.858765 -0.011190 0.214693
v 1.073471 -0.011190 0.214693
v 1.288162 -0.011190 0.214693
v 1.502853 -0.011190 0.214693
v 0.000000 -0.011190 0.000000
v 0.214691 -0.011190 0.000000
v 0.429382 -0.011190 0.000000
v 0.644073 -0.011190 0.000000
v 0.858765 -0.011190 0.000000
v 1.073471 -0.011190 0.000000
v 1.288162 -0.011190 0.000000
v 1.502853 -0.011190 0.000000
v 0.000000 -0.011190 -0.214693
v 0.214691 -0.011190 -0.214693
v 0.429382 -0.011190 -0.214693
v 0.644073 -0.011190 -0.214693
v 0.858765 -0.011190 -0.214693
v 1.073471 -0.011190 -0.214693
v 1.288162 -0.011190 -0.214693
v 1.502853 -0.011190 -0.214693
v 0.000000 -0.011190 -0.429385
v 0.214691 -0.011190 -0.429385
v 0.429382 -0.011190 -0.429385
v 0.644073 -0.011190 -0.429385
v 0.858765 -0.011190 -0.429385
v 1.073471 -0.011190 -0.429385
v 1.288162 -0.011190 -0.429385
v 1.502853 -0.011190 -0.429385
v 0.000000 0.011190 0.429385
v 0.214691 0.011190 0.429385
v 0.214691 0.011190 0.214693
v 0.000000 0.011190 0.214693
v 0.429382 0.011190 0.429385
v 0.429382 0.011190 0.214693
v 0.644073 0.011190 0.429385
v 0.644073 0.011190 0.214693
v 0.858765 0.011190 0.429385
v 0.858765 0.011190 0.214693
v 1.073471 0.011190 0.429385
v 1.073471 0.011190 0.214693
v 1.288162 0.011190 0.429385
v 1.288162 0.011190 0.214693
v 1.502853 0.011190 0.429385
v 1.502853 0.011190 0.214693
v 0.214691 0.011190 0.000000
v 0.000000 0.011190 0.000000
v 0.429382 0.011190 0.000000
v 0.644073 0.011190 0.000000
v 0.858765 0.011190 0.000000
v 1.073471 0.011190 0.000000
v 1.288162 0.011190 0.000000
v 1.502853 0.011190 0.000000
v 0.214691 0.011190 -0.214693
v 0.000000 0.011190 -0.214693
v 0.429382 0.011190 -0.214693
v 0.644073 0.011190 -0.214693
v 0.858765 0.011190 -0.214693
v 1.073471 0.011190 -0.214693
v 1.288162 0.011190 -0.214693
v 1.502853 0.011190 -0.214693
v 0.214691 0.011190 -0.429385
v 0.000000 0.011190 -0.429385
v 0.429382 0.011190 -0.429385
v 0.644073 0.011190 -0.429385
v 0.858765 0.011190 -0.429385
v 1.073471 0.011190 -0.429385
v 1.288162 0.011190 -0.429385
v 1.502853 0.011190 -0.429385
vt 0.710850 0.350849
vt 0.750231 0.350849
vt 0.789612 0.350849
vt 0.828992 0.350849
vt 0.868373 0.350849
vt 0.907754 0.350849
vt 0.947135 0.350849
vt 0.986515 0.350849
vt 0.710850 0.387168
vt 0.750231 0.387168
vt 0.789612 0.387168
vt 0.828992 0.387168
vt 0.868373 0.387168
vt 0.907754 0.387168
vt 0.947135 0.387168
vt 0.986515 0.387168
vt 0.710850 0.423488
vt 0.750231 0.423488
vt 0.789612 0.423488
vt 0.828992 0.423488
vt 0.868373 0.423488
vt 0.907754 0.423488
vt 0.947135 0.423488
vt 0.986515 0.423488
vt 0.710850 0.459807
vt 0.750231 0.459807
vt 0.789612 0.459807
vt 0.828992 0.459807
vt 0.868373 0.459807
vt 0.907754 0.459807
vt 0.947135 0.459807
vt 0.986515 0.459807
vt 0.710850 0.496127
vt 0.750231 0.496127
vt 0.789612 0.496127
vt 0.828992 0.496127
vt 0.868373 0.496127
vt 0.907754 0.496127
vt 0.947135 0.496127
vt 0.986515 0.496127
vt 0.710850 0.350849
vt 0.750231 0.350849
vt 0.750231 0.387168
vt 0.710850 0.387168
vt 0.789612 0.350849
vt 0.789612 0.387168
vt 0.828992 0.350849
vt 0.828992 0.387168
vt 0.868373 0.350849
vt 0.868373 0.387168
vt 0.907754 0.350849
vt 0.907754 0.387168
vt 0.947135 0.350849
vt 0.947135 0.387168
vt 0.986515 0.350849
vt 0.986515 0.387168
vt 0.750231 0.423488
vt 0.710850 0.423488
vt 0.789612 0.423488
vt 0.828992 0.423488
vt 0.868373 0.423488
vt 0.907754 0.423488
vt 0.947135 0.423488
vt 0.986515 0.423488
vt 0.750231 0.459807
vt 0.710850 0.459807
vt 0.789612 0.459807
vt 0.828992 0.459807
vt 0.868373 0.459807
vt 0.907754 0.459807
vt 0.947135 0.459807
vt 0.986515 0.459807
vt 0.750231 0.496127
vt 0.710850 0.496127
vt 0.789612 0.496127
vt 0.828992 0.496127
vt 0.868373 0.496127
vt 0.907754 0.496127
vt 0.947135 0.496127
vt 0.986515 0.496127
vt 0.710850 0.350849
vt 0.750231 0.350849
vt 0.710850 0.387168
vt 0.789612 0.350849
vt 0.828992 0.350849
vt 0.868373 0.350849
vt 0.907754 0.350849
vt 0.947135 0.350849
vt 0.986515 0.350849
vt 0.986515 0.387168
vt 0.710850 0.423488
vt 0.986515 0.423488
vt 0.710850 0.459807
vt 0.986515 0.459807
vt 0.750231 0.496127
vt 0.710850 0.496127
vt 0.789612 0.496127
vt 0.828992 0.496127
vt 0.868373 0.496127
vt 0.907754 0.496127
vt 0.947135 0.496127
vt 0.986515 0.496127
vn 0.000000 1.000000 0.000000
vn 0.000000 1.000000 0.000000
vn 0.000000 1.000000 0.000000
vn 0.000000 1.000000 0.000000
vn 0.000000 1.000000 0.000000
vn 0.000000 1.000000 0.000000
vn 0.000000 1.000000 0.000000
vn 0.000000 1.000000 0.000000
vn 0.000000 1.000000 0.000000
vn 0.000000 1.000000 0.000000
vn 0.000000 1.000000 0.000000
vn 0.000000 1.000000 0.000000
vn 0.000000 1.000000 0.000000
vn 0.000000 1.000000 0.000000
vn 0.000000 1.000000 0.000000
vn 0.000000 1.000000 0.000000
vn 0.000000 1.000000 0.000000
vn 0.000000 1.000000 0.000000
vn 0.000000 1.000000 0.000000
vn 0.000000 1.000000 0.000000
vn 0.000000 1.000000 0.000000
vn 0.000000 1.000000 0.000000
vn 0.000000 1.000000 0.000000
vn 0.000000 1.000000 0.000000
vn 0.000000 1.000000 0.000000
vn 0.000000 1.000000 0.000000
vn 0.000000 1.000000 0.000000
vn 0.000000 1.000000 0.000000
vn 0.000000 1.000000 0.000000
vn 0.000000 1.000000 0.000000
vn 0.000000 1.000000 0.000000
vn 0.000000 1.000000 0.000000
vn 0.000000 1.000000 0.000000
vn 0.000000 1.000000 0.000000
vn 0.000000 1.000000 0.000000
vn 0.000000 1.000000 0.000000
vn 0.000000 1.000000 0.000000
vn 0.000000 1.000000 0.000000
vn 0.000000 1.000000 0.000000
vn 0.000000 1.000000 0.000000
vn 0.000000 1.000000 0.000000
vn 0.000000 1.000000 0.000000
vn 0.000000 1.000000 0.000000
vn 0.000000 1.000000 0.000000
vn 0.000000 1.000000 0.000000
vn 0.000000 1.000000 0.000000
vn 0.000000 1.000000 0.000000
vn 0.000000 1.000000 0.000000
vn 0.000000 1.000000 0.000000
vn 0.000000 1.000000 0.000000
vn 0.000000 1.000000 0.000000
vn 0.000000 1.000000 0.000000
vn 0.000000 1.000000 0.000000
vn 0.000000 1.000000 0.000000
vn 0.000000 1.000000 0.000000
vn 0.000000 1.000000 0.000000
vn 0.000000 1.000000 0.000000
vn 0.000000 1.000000 0.000000
vn 0.000000 1.000000 0.000000
vn 0.000000 1.000000 0.000000
vn 0.000000 1.000000 0.000000
vn 0.000000 1.000000 0.000000
vn 0.000000 1.000000 0.000000
vn 0.000000 1.000000 0.000000
vn 0.000000 1.000000 0.000000
vn 0.000000 1.000000 0.000000
vn 0.000000 1.000000 0.000000
vn 0.000000 1.000000 0.000000
vn 0.000000 1.000000 0.000000
vn 0.000000 1.000000 0.000000
vn 0.000000 1.000000 0.000000
vn 0.000000 1.000000 0.000000
vn 0.000000 1.000000 0.000000
vn 0.000000 1.000000 0.000000
vn 0.000000 1.000000 0.000000
vn 0.000000 1.000000 0.000000
vn 0.000000 1.000000 0.000000
vn 0.000000 1.000000 0.000000
vn 0.000000 1.000000 0.000000
vn 0.000000 1.000000 0.000000
vn 0.000000 1.000000 0.000000
vn 0.000000 1.000000 0.000000
vn 0.000000 1.000000 0.000000
vn 0.000000 1.000000 0.000000
vn 0.000000 1.000000 0.000000
vn 0.000000 1.000000 0.000000
vn 0.000000 1.000000 0.000000
vn 0.000000 1.000000 0.000000
vn 0.000000 1.000000 0.000000
vn 0.000000 1.000000 0.000000
vn 0.000000 1.000000 0.000000
vn 0.000000 1.000000 0.000000
vn 0.000000 1.000000 0.000000
vn 0.000000 1.000000 0.000000
vn 0.000000 1.000000 0.000000
vn 0.000000 1.000000 0.000000
vn 0.000000 1.000000 0.000000
vn 0.000000 1.000000 0.000000
vn 0.000000 1.000000 0.000000
vn 0.000000 1.000000 0.000000
vn 0.000000 1.000000 0.000000
vn 0.000000 1.000000 0.000000
vn 0.000000 1.000000 0.000000
vn 0.000000 1.000000 0.000000
vn 0.000000 1.000000 0.000000
vn 0.000000 1.000000 0.000000
vn 0.000000 1.000000 0.000000
vn 0.000000 1.000000 0.000000
vn 0.000000 1.000000 0.000000
vn 0.000000 1.000000 0.000000
vn 0.000000 1.000000 0.000000
vn 0.000000 1.000000 0.000000
vn 0.000000 -1.000000 0.000000
vn 0.000000 -1.000000 0.000000
vn 0.000000 -1.000000 0.000000
vn 0.000000 -1.000000 0.000000
vn 0.000000 -1.000000 0.000000
vn 0.000000 -1.000000 0.000000
vn 0.000000 -1.000000 0.000000
vn 0.000000 -1.000000 0.000000
vn 0.000000 -1.000000 0.000000
vn 0.000000 -1.000000 0.000000
vn 0.000000 -1.000000 0.000000
vn 0.000000 -1.000000 0.000000
vn 0.000000 -1.000000 0.000000
vn 0.000000 -1.000000 0.000000
vn 0.000000 -1.000000 0.000000
vn 0.000000 -1.000000 0.000000
vn 0.000000 -1.000000 0.000000
vn 0.000000 -1.000000 0.000000
vn 0.000000 -1.000000 0.000000
vn 0.000000 -1.000000 0.000000
vn 0.000000 -1.000000 0.000000
vn 0.000000 -1.000000 0.000000
vn 0.000000 -1.000000 0.000000
vn 0.000000 -1.000000 0.000000
vn 0.000000 -1.000000 0.000000
vn 0.000000 -1.000000 0.000000
vn 0.000000 -1.000000 0.000000
vn 0.000000 -1.000000 0.000000
vn 0.000000 -1.000000 0.000000
vn 0.000000 -1.000000 0.000000
vn 0.000000 -1.000000 0.000000
vn 0.000000 -1.000000 0.000000
vn 0.000000 -1.000000 0.000000
vn 0.000000 -1.000000 0.000000
vn 0.000000 -1.000000 0.000000
vn 0.000000 -1.000000 0.000000
vn 0.000000 -1.000000 0.000000
vn 0.000000 -1.000000 0.000000
vn 0.000000 -1.000000 0.000000
vn 0.000000 -1.000000 0.000000
vn 0.000000 -1.000000 0.000000
vn 0.000000 -1.000000 0.000000
vn 0.000000 -1.000000 0.000000
vn 0.000000 -1.000000 0.000000
vn 0.000000 -1.000000 0.000000
vn 0.000000 -1.000000 0.000000
vn 0.000000 -1.000000 0.000000
vn 0.000000 -1.000000 0.000000
vn 0.000000 -1.000000 0.000000
vn 0.000000 -1.000000 0.000000
vn 0.000000 -1.000000 0.000000
vn 0.000000 -1.000000 0.000000
vn 0.000000 -1.000000 0.000000
vn 0.000000 -1.000000 0.000000
vn 0.000000 -1.000000 0.000000
vn 0.000000 -1.000000 0.000000
vn 0.000000 -1.000000 0.000000
vn 0.000000 -1.000000 0.000000
vn 0.000000 -1.000000 0.000000
vn 0.000000 -1.000000 0.000000
vn 0.000000 -1.000000 0.000000
vn 0.000000 -1.000000 0.000000
vn 0.000000 -1.000000 0.000000
vn 0.000000 -1.000000 0.000000
vn 0.000000 -1.000000 0.000000
vn 0.000000 -1.000000 0.000000
vn 0.000000 -1.000000 0.000000
vn 0.000000 -1.000000 0.000000
vn 0.000000 -1.000000 0.000000
vn 0.000000 -1.000000 0.000000
vn 0.000000 -1.000000 0.000000
vn 0.000000 -1.000000 0.000000
vn 0.000000 -1.000000 0.000000
vn 0.000000 -1.000000 0.000000
vn 0.000000 -1.000000 0.000000
vn 0.000000 -1.000000 0.000000
vn 0.000000 -1.000000 0.000000
vn 0.000000 -1.000000 0.000000
vn 0.000000 -1.000000 0.000000
vn 0.000000 -1.000000 0.000000
vn 0.000000 -1.000000 0.000000
vn 0.000000 -1.000000 0.000000
vn 0.000000 -1.000000 0.000000
vn 0.000000 -1.000000 0.000000
vn 0.000000 -1.000000 0.000000
vn 0.000000 -1.000000 0.000000
vn 0.000000 -1.000000 0.000000
vn 0.000000 -1.000000 0.000000
vn 0.000000 -1.000000 0.000000
vn 0.000000 -1.000000 0.000000
vn 0.000000 -1.000000 0.000000
vn 0.000000 -1.000000 0.000000
vn 0.000000 -1.000000 0.000000
vn 0.000000 -1.000000 0.000000
vn 0.000000 -1.000000 0.000000
vn 0.000000 -1.000000 0.000000
vn 0.000000 -1.000000 0.000000
vn 0.000000 -1.000000 0.000000
vn 0.000000 -1.000000 0.000000
vn 0.000000 -1.000000 0.000000
vn 0.000000 -1.000000 0.000000
vn 0.000000 -1.000000 0.000000
vn 0.000000 -1.000000 0.000000
vn 0.000000 -1.000000 0.000000
vn 0.000000 -1.000000 0.000000
vn 0.000000 -1.000000 0.000000
vn 0.000000 -1.000000 0.000000
vn 0.000000 -1.000000 0.000000
vn 0.000000 -1.000000 0.000000
vn 0.000000 -1.000000 0.000000
vn 0.000000 -1.000000 0.000000
vn 0.000000 -1.000000 0.000000
vn 0.000000 0.000000 1.000000
vn 0.000000 0.000000 1.000000
vn 0.000000 0.000000 1.000000
vn 0.000000 0.000000 1.000000
vn -1.000000 0.000000 0.000000
vn -1.000000 0.000000 0.000000
vn -1.000000 0.000000 0.000000
vn -1.000000 0.000000 0.000000
vn 0.000000 0.000000 1.000000
vn 0.000000 0.000000 1.000000
vn 0.000000 0.000000 1.000000
vn 0.000000 0.000000 1.000000
vn 0.000000 0.000000 1.000000
vn 0.000000 0.000000 1.000000
vn 0.000000 0.000000 1.000000
vn 0.000000 0.000000 1.000000
vn 0.000000 0.000000 1.000000
vn 0.000000 0.000000 1.000000
vn 0.000000 0.000000 1.000000
vn 0.000000 0.000000 1.000000
vn 0.000000 0.000000 1.000000
vn 0.000000 0.000000 1.000000
vn 0.000000 0.000000 1.000000
vn 0.000000 0.000000 1.000000
vn 0.000000 0.000000 1.000000
vn 0.000000 0.000000 1.000000
vn 0.000000 0.000000 1.000000
vn 0.000000 0.000000 1.000000
vn 0.000000 0.000000 1.000000
vn 0.000000 0.000000 1.000000
vn 0.000000 0.000000 1.000000
vn 0.000000 0.000000 1.000000
vn 1.000000 0.000000 0.000000
vn 1.000000 0.000000 0.000000
vn 1.000000 0.000000 0.000000
vn 1.000000 0.000000 0.000000
vn -1.000000 0.000000 0.000000
vn -1.000000 0.000000 0.000000
vn -1.000000 0.000000 0.000000
vn -1.000000 0.000000 0.000000
vn 1.000000 0.000000 0.000000
vn 1.000000 0.000000 0.000000
vn 1.000000 0.000000 0.000000
vn 1.000000 0.000000 0.000000
vn -1.000000 0.000000 0.000000
vn -1.000000 0.000000 0.000000
vn -1.000000 0.000000 0.000000
vn -1.000000 0.000000 0.000000
vn 1.000000 0.000000 0.000000
vn 1.000000 0.000000 0.000000
vn 1.000000 0.000000 0.000000
vn 1.000000 0.000000 0.000000
vn 0.000000 0.000000 -1.000000
vn 0.000000 0.000000 -1.000000
vn 0.000000 0.000000 -1.000000
vn 0.000000 0.000000 -1.000000
vn -1.000000 0.000000 0.000000
vn -1.000000 0.000000 0.000000
vn -1.000000 0.000000 0.000000
vn -1.000000 0.000000 0.000000
vn 0.000000 0.000000 -1.000000
vn 0.000000 0.000000 -1.000000
vn 0.000000 0.000000 -1.000000
vn 0.000000 0.000000 -1.000000
vn 0.000000 0.000000 -1.000000
vn 0.000000 0.000000 -1.000000
vn 0.000000 0.000000 -1.000000
vn 0.000000 0.000000 -1.000000
vn 0.000000 0.000000 -1.000000
vn 0.000000 0.000000 -1.000000
vn 0.000000 0.000000 -1.000000
vn 0.000000 0.000000 -1.000000
vn 0.000000 0.000000 -1.000000
vn 0.000000 0.000000 -1.000000
vn 0.000000 0.000000 -1.000000
vn 0.000000 0.000000 -1.000000
vn 0.000000 0.000000 -1.000000
vn 0.000000 0.000000 -1.000000
vn 0.000000 0.000000 -1.000000
vn 0.000000 0.000000 -1.000000
vn 1.000000 0.000000 0.000000
vn 1.000000 0.000000 0.000000
vn 1.000000 0.000000 0.000000
vn 1.000000 0.000000 0.000000
vn 0.000000 0.000000 -1.000000
vn 0.000000 0.000000 -1.000000
vn 0.000000 0.000000 -1.000000
vn 0.000000 0.000000 -1.000000
s off
f 41/81/1 42/82/2 43/10/3 44/83/4
f 42/82/5 45/84/6 46/11/7 43/10/8
f 45/84/9 47/85/10 48/12/11 46/11/12
f 47/85/13 49/86/14 50/13/15 48/12/16
f 49/86/17 51/87/18 52/14/19 50/13/20
f 51/87/21 53/88/22 54/15/23 52/14/24
f 53/88/25 55/89/26 56/90/27 54/15/28
f 44/83/29 43/10/30 57/18/31 58/91/32
f 43/10/33 46/11/34 59/19/35 57/18/36
f 46/11/37 48/12/38 60/20/39 59/19/40
f 48/12/41 50/13/42 61/21/43 60/20/44
f 50/13/45 52/14/46 62/22/47 61/21/48
f 52/14/49 54/15/50 63/23/51 62/22/52
f 54/15/53 56/90/54 64/92/55 63/23/56
f 58/91/57 57/18/58 65/26/59 66/93/60
f 57/18/61 59/19/62 67/27/63 65/26/64
f 59/19/65 60/20/66 68/28/67 67/27/68
f 60/20/69 61/21/70 69/29/71 68/28/72
f 61/21/73 62/22/74 70/30/75 69/29/76
f 62/22/77 63/23/78 71/31/79 70/30/80
f 63/23/81 64/92/82 72/94/83 71/31/84
f 66/93/85 65/26/86 73/95/87 74/96/88
f 65/26/89 67/27/90 75/97/91 73/95/92
f 67/27/93 68/28/94 76/98/95 75/97/96
f 68/28/97 69/29/98 77/99/99 76/98/100
f 69/29/101 70/30/102 78/100/103 77/99/104
f 70/30/105 71/31/106 79/101/107 78/100/108
f 71/31/109 72/94/110 80/102/111 79/101/112
f 1/41/113 9/44/114 10/43/115 2/42/116
f 2/42/117 10/43/118 11/46/119 3/45/120
f 3/45/121 11/46/122 12/48/123 4/47/124
f 4/47/125 12/48/126 13/50/127 5/49/128
f 5/49/129 13/50/130 14/52/131 6/51/132
f 6/51/133 14/52/134 15/54/135 7/53/136
f 7/53/137 15/54/138 16/56/139 8/55/140
f 9/44/141 17/58/142 18/57/143 10/43/144
f 10/43/145 18/57/146 19/59/147 11/46/148
f 11/46/149 19/59/150 20/60/151 12/48/152
f 12/48/153 20/60/154 21/61/155 13/50/156
f 13/50/157 21/61/158 22/62/159 14/52/160
f 14/52/161 22/62/162 23/63/163 15/54/164
f 15/54/165 23/63/166 24/64/167 16/56/168
f 17/58/169 25/66/170 26/65/171 18/57/172
f 18/57/173 26/65/174 27/67/175 19/59/176
f 19/59/177 27/67/178 28/68/179 20/60/180
f 20/60/181 28/68/182 29/69/183 21/61/184
f 21/61/185 29/69/186 30/70/187 22/62/188
f 22/62/189 30/70/190 31/71/191 23/63/192
f 23/63/193 31/71/194 32/72/195 24/64/196
f 25/66/197 33/74/198 34/73/199 26/65/200
f 26/65/201 34/73/202 35/75/203 27/67/204
f 27/67/205 35/75/206 36/76/207 28/68/208
f 28/68/209 36/76/210 37/77/211 29/69/212
f 29/69/213 37/77/214 38/78/215 30/70/216
f 30/70/217 38/78/218 39/79/219 31/71/220
f 31/71/221 39/79/222 40/80/223 32/72/224
f 1/1/225 2/2/226 42/82/227 41/81/228
f 9/9/229 1/1/230 41/81/231 44/83/232
f 2/2/233 3/3/234 45/84/235 42/82/236
f 3/3/237 4/4/238 47/85/239 45/84/240
f 4/4/241 5/5/242 49/86/243 47/85/244
f 5/5/245 6/6/246 51/87/247 49/86/248
f 6/6/249 7/7/250 53/88/251 51/87/252
f 7/7/253 8/8/254 55/89/255 53/88/256
f 8/8/257 16/16/258 56/90/259 55/89/260
f 17/17/261 9/9/262 44/83/263 58/91/264
f 16/16/265 24/24/266 64/92/267 56/90/268
f 25/25/269 17/17/270 58/91/271 66/93/272
f 24/24/273 32/32/274 72/94/275 64/92/276
f 34/34/277 33/33/278 74/96/279 73/95/280
f 33/33/281 25/25/282 66/93/283 74/96/284
f 35/35/285 34/34/286 73/95/287 75/97/288
f 36/36/289 35/35/290 75/97/291 76/98/292
f 37/37/293 36/36/294 76/98/295 77/99/296
f 38/38/297 37/37/298 77/99/299 78/100/300
f 39/39/301 38/38/302 78/100/303 79/101/304
f 32/32/305 40/40/306 80/102/307 72/94/308
f 40/40/309 39/39/310 79/101/311 80/102/312
