# This file uses centimeters as units for non-parametric coordinates.

v 5.000001 -0.445730 5.000000
v 0.000000 -0.445730 5.000000
v 5.000001 -0.445730 0.000000
v 0.000000 -0.445730 0.000000
v 4.891746 -0.445730 4.891746
v 0.108256 -0.445730 4.891746
v 0.108256 -0.445730 0.108257
v 4.891746 -0.445730 0.108257
v 4.805949 -0.399518 4.805949
v 0.194053 -0.399518 4.805949
v 0.194053 -0.399518 0.194054
v 4.805949 -0.399518 0.194054
v 4.702253 -0.399518 4.702252
v 0.297749 -0.399518 4.702252
v 0.297749 -0.399518 0.297749
v 4.702253 -0.399518 0.297749
v 4.143942 -0.265536 4.143941
v 0.856061 -0.265536 4.143941
v 0.856061 -0.265536 0.856059
v 4.143942 -0.265536 0.856059
v 4.054457 -0.265536 4.054456
v 0.945546 -0.265536 4.054456
v 0.945546 -0.265536 0.945544
v 4.054457 -0.265536 0.945544
v 4.054457 -0.171965 4.054456
v 0.945546 -0.171965 4.054456
v 0.945546 -0.171965 0.945544
v 4.054457 -0.171965 0.945544
v 3.969842 -0.171965 3.969839
v 1.030160 -0.171965 3.969839
v 1.030160 -0.171965 1.030159
v 3.969842 -0.171965 1.030159
v 3.969842 -0.071405 3.969839
v 1.030160 -0.071405 3.969839
v 1.030160 -0.071405 1.030159
v 3.969842 -0.071405 1.030159
v 4.661371 -0.314886 4.661370
v 0.338631 -0.314886 4.661370
v 0.806280 -0.210020 4.193721
v 4.193722 -0.210020 4.193721
v 0.338631 -0.314886 0.338631
v 0.806280 -0.210020 0.806279
v 4.661371 -0.314886 0.338631
v 4.193722 -0.210020 0.806279
v 5.000001 0.000000 5.000000
v 0.000000 0.000000 5.000000
v 5.000001 0.000000 0.000000
v 0.000000 0.000000 0.000000
vt 0.037028 0.378256
vt 0.037028 0.378256
vt 0.037028 0.378256
vt 0.037028 0.378256
vt 0.037028 0.378256
vt 0.037028 0.378256
vt 0.037028 0.378256
vt 0.037028 0.378256
vt 0.037028 0.378256
vt 0.037028 0.378256
vt 0.037028 0.378256
vt 0.037028 0.378256
vt 0.037028 0.378256
vt 0.037028 0.378256
vt 0.037028 0.378256
vt 0.037028 0.378256
vt 0.037028 0.378256
vt 0.037028 0.378256
vt 0.037028 0.378256
vt 0.037028 0.378256
vt 0.037028 0.378256
vt 0.037028 0.378256
vt 0.037028 0.378256
vt 0.037028 0.378256
vt 0.037028 0.378256
vt 0.037028 0.378256
vt 0.037028 0.378256
vt 0.037028 0.378256
vt 0.037028 0.378256
vt 0.037028 0.378256
vt 0.037028 0.378256
vt 0.037028 0.378256
vt 0.037028 0.378256
vt 0.037028 0.378256
vt 0.037028 0.378256
vt 0.037028 0.378256
vt 0.037028 0.378256
vt 0.037028 0.378256
vt 0.037028 0.378256
vt 0.037028 0.378256
vt 0.037028 0.378256
vt 0.037028 0.378256
vt 0.037028 0.378256
vt 0.037028 0.378256
vt 0.037028 0.378256
vt 0.037028 0.378256
vt 0.037028 0.378256
vt 0.037028 0.378256
vt 0.037028 0.378256
vt 0.037028 0.378256
vt 0.037028 0.378256
vt 0.037028 0.378256
vt 0.037028 0.378256
vt 0.037028 0.378256
vt 0.037028 0.378256
vt 0.037028 0.378256
vt 0.037028 0.378256
vt 0.037028 0.378256
vt 0.037028 0.378256
vt 0.037028 0.378256
vt 0.037028 0.378256
vt 0.037028 0.378256
vt 0.037028 0.378256
vt 0.037028 0.378256
vt 0.037028 0.378256
vt 0.037028 0.378256
vt 0.037028 0.378256
vt 0.037028 0.378256
vt 0.070143 0.378372
vt 0.070143 0.378372
vt 0.070143 0.378372
vt 0.070143 0.378372
vn 0.000000 -1.000000 0.000000
vn 0.000000 -1.000000 0.000000
vn 0.000000 -1.000000 0.000000
vn 0.000000 -1.000000 0.000000
vn 0.000000 -1.000000 -0.000000
vn 0.000000 -1.000000 -0.000000
vn 0.000000 -1.000000 -0.000000
vn 0.000000 -1.000000 -0.000000
vn 0.000000 -1.000000 0.000000
vn 0.000000 -1.000000 0.000000
vn 0.000000 -1.000000 0.000000
vn 0.000000 -1.000000 0.000000
vn 0.000000 -1.000000 0.000000
vn 0.000000 -1.000000 0.000000
vn 0.000000 -1.000000 0.000000
vn 0.000000 -1.000000 0.000000
vn 0.000000 -1.000000 0.000000
vn 0.000000 -1.000000 0.000000
vn 0.000000 -1.000000 0.000000
vn 0.000000 -1.000000 0.000000
vn 0.000000 -0.880410 -0.474212
vn 0.000000 -0.880410 -0.474212
vn 0.000000 -0.880411 -0.474212
vn 0.000000 -0.880411 -0.474212
vn 0.474212 -0.880410 0.000000
vn 0.474212 -0.880410 0.000000
vn 0.474213 -0.880410 0.000000
vn 0.474213 -0.880410 0.000000
vn 0.000000 -0.880410 0.474212
vn 0.000000 -0.880410 0.474212
vn 0.000000 -0.880411 0.474212
vn 0.000000 -0.880411 0.474212
vn -0.474213 -0.880410 0.000000
vn -0.474213 -0.880410 0.000000
vn -0.474213 -0.880410 0.000000
vn -0.474213 -0.880410 0.000000
vn 0.000000 -1.000000 0.000000
vn 0.000000 -1.000000 0.000000
vn 0.000000 -1.000000 0.000000
vn 0.000000 -1.000000 0.000000
vn 0.000000 -1.000000 0.000000
vn 0.000000 -1.000000 0.000000
vn 0.000000 -1.000000 0.000000
vn 0.000000 -1.000000 0.000000
vn 0.000000 -1.000000 0.000000
vn 0.000000 -1.000000 0.000000
vn 0.000000 -1.000000 0.000000
vn 0.000000 -1.000000 0.000000
vn 0.000000 -1.000000 0.000000
vn 0.000000 -1.000000 0.000000
vn 0.000000 -1.000000 0.000000
vn 0.000000 -1.000000 0.000000
vn 0.000000 -0.975768 -0.218807
vn 0.000000 -0.975768 -0.218807
vn 0.000000 -0.975768 -0.218807
vn 0.000000 -0.975768 -0.218807
vn 0.218807 -0.975768 0.000000
vn 0.218807 -0.975768 0.000000
vn 0.218807 -0.975768 0.000000
vn 0.218807 -0.975768 0.000000
vn 0.000000 -0.975768 0.218807
vn 0.000000 -0.975768 0.218807
vn 0.000000 -0.975768 0.218807
vn 0.000000 -0.975768 0.218807
vn -0.218807 -0.975768 0.000000
vn -0.218807 -0.975768 0.000000
vn -0.218807 -0.975768 0.000000
vn -0.218807 -0.975768 0.000000
vn 0.000000 -1.000000 -0.000000
vn 0.000000 -1.000000 -0.000000
vn 0.000000 -1.000000 -0.000000
vn 0.000000 -1.000000 -0.000000
vn 0.000000 -1.000000 0.000000
vn 0.000000 -1.000000 0.000000
vn 0.000000 -1.000000 0.000000
vn 0.000000 -1.000000 0.000000
vn 0.000000 -1.000000 0.000000
vn 0.000000 -1.000000 0.000000
vn 0.000000 -1.000000 0.000000
vn 0.000000 -1.000000 0.000000
vn 0.000000 -1.000000 0.000000
vn 0.000000 -1.000000 0.000000
vn 0.000000 -1.000000 0.000000
vn 0.000000 -1.000000 0.000000
vn 0.000000 0.000000 -1.000000
vn 0.000000 0.000000 -1.000000
vn 0.000000 0.000000 -1.000000
vn 0.000000 0.000000 -1.000000
vn 1.000000 0.000000 0.000000
vn 1.000000 0.000000 0.000000
vn 1.000000 0.000000 0.000000
vn 1.000000 0.000000 0.000000
vn 0.000000 0.000000 1.000000
vn 0.000000 0.000000 1.000000
vn 0.000000 0.000000 1.000000
vn 0.000000 0.000000 1.000000
vn -1.000000 0.000000 0.000000
vn -1.000000 0.000000 0.000000
vn -1.000000 0.000000 0.000000
vn -1.000000 0.000000 0.000000
vn 0.000000 -1.000000 0.000000
vn 0.000000 -1.000000 0.000000
vn 0.000000 -1.000000 0.000000
vn 0.000000 -1.000000 0.000000
vn 0.000000 -1.000000 0.000000
vn 0.000000 -1.000000 0.000000
vn 0.000000 -1.000000 0.000000
vn 0.000000 -1.000000 0.000000
vn 0.000000 -1.000000 -0.000000
vn 0.000000 -1.000000 -0.000000
vn 0.000000 -1.000000 -0.000000
vn 0.000000 -1.000000 -0.000000
vn 0.000000 -1.000000 0.000000
vn 0.000000 -1.000000 0.000000
vn 0.000000 -1.000000 0.000000
vn 0.000000 -1.000000 0.000000
vn 0.000000 0.000000 -1.000000
vn 0.000000 0.000000 -1.000000
vn 0.000000 0.000000 -1.000000
vn 0.000000 0.000000 -1.000000
vn 1.000000 0.000000 0.000000
vn 1.000000 0.000000 0.000000
vn 1.000000 0.000000 0.000000
vn 1.000000 0.000000 0.000000
vn 0.000000 0.000000 1.000000
vn 0.000000 0.000000 1.000000
vn 0.000000 0.000000 1.000000
vn 0.000000 0.000000 1.000000
vn -1.000000 0.000000 0.000000
vn -1.000000 0.000000 0.000000
vn -1.000000 0.000000 0.000000
vn -1.000000 0.000000 0.000000
vn 0.000000 -0.434967 -0.900446
vn 0.000000 -0.434967 -0.900446
vn 0.000000 -0.434967 -0.900446
vn 0.000000 -0.434968 -0.900446
vn 0.000000 -0.667595 0.744525
vn 0.000000 -0.667595 0.744525
vn 0.000000 -0.667595 0.744525
vn 0.000000 -0.667595 0.744525
vn 0.900448 -0.434963 0.000000
vn 0.900448 -0.434963 0.000000
vn 0.900448 -0.434963 0.000000
vn 0.900448 -0.434963 0.000000
vn -0.744522 -0.667598 0.000000
vn -0.744522 -0.667598 0.000000
vn -0.744522 -0.667598 0.000000
vn -0.744522 -0.667598 0.000000
vn 0.000000 -0.434967 0.900446
vn 0.000000 -0.434967 0.900446
vn 0.000000 -0.434968 0.900446
vn 0.000000 -0.434968 0.900446
vn 0.000000 -0.667595 -0.744525
vn 0.000000 -0.667595 -0.744525
vn 0.000000 -0.667595 -0.744525
vn 0.000000 -0.667595 -0.744525
vn -0.900448 -0.434964 0.000000
vn -0.900448 -0.434964 0.000000
vn -0.900448 -0.434964 0.000000
vn -0.900448 -0.434964 0.000000
vn 0.744525 -0.667595 0.000000
vn 0.744525 -0.667595 0.000000
vn 0.744525 -0.667595 0.000000
vn 0.744525 -0.667595 0.000000
vn 0.000000 0.000000 1.000000
vn 0.000000 0.000000 1.000000
vn 0.000000 0.000000 1.000000
vn 0.000000 0.000000 1.000000
vn 0.000000 0.000000 -1.000000
vn 0.000000 0.000000 -1.000000
vn 0.000000 0.000000 -1.000000
vn 0.000000 0.000000 -1.000000
vn 1.000000 0.000000 0.000000
vn 1.000000 0.000000 0.000000
vn 1.000000 0.000000 0.000000
vn 1.000000 0.000000 0.000000
vn -1.000000 0.000000 0.000000
vn -1.000000 0.000000 0.000000
vn -1.000000 0.000000 0.000000
vn -1.000000 0.000000 0.000000
vn 0.000000 1.000000 0.000000
vn 0.000000 1.000000 0.000000
vn 0.000000 1.000000 0.000000
vn 0.000000 1.000000 0.000000
s off
f 33/69/1 34/70/2 35/71/3 36/72/4
f 1/1/5 2/2/6 6/6/7 5/5/8
f 2/2/9 4/4/10 7/7/11 6/6/12
f 4/4/13 3/3/14 8/8/15 7/7/16
f 3/3/17 1/1/18 5/5/19 8/8/20
f 5/5/21 6/6/22 10/10/23 9/9/24
f 6/6/25 7/7/26 11/11/27 10/10/28
f 7/7/29 8/8/30 12/12/31 11/11/32
f 8/8/33 5/5/34 9/9/35 12/12/36
f 9/9/37 10/10/38 14/14/39 13/13/40
f 10/10/41 11/11/42 15/15/43 14/14/44
f 11/11/45 12/12/46 16/16/47 15/15/48
f 12/12/49 9/9/50 13/13/51 16/16/52
f 37/37/53 38/38/54 39/65/55 40/40/56
f 38/68/57 41/67/58 42/66/59 39/39/60
f 41/41/61 43/43/62 44/44/63 42/42/64
f 43/43/65 37/37/66 40/40/67 44/44/68
f 17/17/69 18/18/70 22/22/71 21/21/72
f 18/18/73 19/19/74 23/23/75 22/22/76
f 19/19/77 20/20/78 24/24/79 23/23/80
f 20/20/81 17/17/82 21/21/83 24/24/84
f 21/21/85 22/22/86 26/26/87 25/25/88
f 22/22/89 23/23/90 27/27/91 26/26/92
f 23/23/93 24/24/94 28/28/95 27/27/96
f 24/24/97 21/21/98 25/25/99 28/28/100
f 25/25/101 26/26/102 30/30/103 29/29/104
f 26/26/105 27/27/106 31/31/107 30/30/108
f 27/27/109 28/28/110 32/32/111 31/31/112
f 28/28/113 25/25/114 29/29/115 32/32/116
f 29/29/117 30/30/118 34/34/119 33/33/120
f 30/30/121 31/31/122 35/35/123 34/34/124
f 31/31/125 32/32/126 36/36/127 35/35/128
f 32/32/129 29/29/130 33/33/131 36/36/132
f 13/13/133 14/14/134 38/38/135 37/37/136
f 18/18/137 17/17/138 40/40/139 39/65/140
f 14/14/141 15/15/142 41/41/143 38/38/144
f 19/19/145 18/18/146 39/65/147 42/42/148
f 15/15/149 16/16/150 43/43/151 41/41/152
f 20/20/153 19/19/154 42/42/155 44/44/156
f 16/16/157 13/13/158 37/37/159 43/43/160
f 17/17/161 20/20/162 44/44/163 40/40/164
f 2/45/165 1/46/166 45/47/167 46/61/168
f 3/49/169 4/50/170 48/51/171 47/64/172
f 1/53/173 3/54/174 47/55/175 45/56/176
f 4/57/177 2/58/178 46/59/179 48/60/180
f 46/48/181 45/63/182 47/52/183 48/62/184
