# This file uses centimeters as units for non-parametric coordinates.

v -0.309155 0.193984 0.309155
v 0.309155 0.193984 0.309155
v -0.309155 3.000001 0.309155
v 0.309155 3.000001 0.309155
v -0.309155 3.000001 -0.309155
v -0.309155 0.193984 -0.309155
v -0.309155 1.596993 0.309155
v 0.309155 1.596993 0.309155
v -0.309155 1.596993 -0.309155
v -0.325989 0.216852 0.325993
v 0.325989 0.216852 0.325993
v 0.325989 1.574125 0.325993
v -0.325989 1.574125 0.325993
v -0.325989 1.574125 -0.325991
v -0.325989 0.216852 -0.325991
v -0.325989 1.619860 0.325993
v 0.325989 1.619860 0.325993
v 0.325989 2.977134 0.325993
v -0.325989 2.977134 0.325993
v -0.325989 2.977134 -0.325991
v -0.325989 1.619860 -0.325991
v -0.356834 0.139783 -0.356834
v 0.356834 0.139783 0.356834
v -0.356834 0.139783 0.356834
v -0.356834 0.000000 -0.356834
v 0.356834 0.000000 0.356834
v -0.356834 0.000000 0.356834
v 0.325989 1.574125 0.000000
v 0.325989 0.216852 0.000000
v 0.309155 0.193984 0.000000
v 0.356834 0.139783 0.000000
v 0.356834 0.000000 0.000000
v 0.309155 3.000001 0.000000
v 0.325989 2.977134 0.000000
v 0.325989 1.619860 0.000000
v 0.309155 1.596993 0.000000
v 0.000000 1.574125 -0.325991
v 0.000004 1.596993 -0.309155
v 0.000000 1.619860 -0.325991
v 0.000000 2.977134 -0.325991
v 0.000004 3.000001 -0.309155
v 0.000004 3.000001 0.000000
v 0.000004 0.000000 0.000000
v 0.000004 0.000000 -0.356834
v 0.000004 0.139783 -0.356834
v 0.000004 0.193984 -0.309155
v 0.000000 0.216852 -0.325991
v 0.000004 2.977134 0.000000
v 0.000004 1.619860 0.000000
v 0.000004 1.574125 0.000000
v 0.000004 0.216852 0.000000
v 0.000004 0.193984 0.000000
v 0.000004 1.596993 0.000000
v 0.000004 0.139783 0.000000
vt 0.023319 0.126693
vt 0.023319 0.126693
vt 0.023319 0.126693
vt 0.023319 0.126693
vt 0.023319 0.126693
vt 0.023319 0.126693
vt 0.023319 0.126693
vt 0.023319 0.126693
vt 0.023319 0.126693
vt 0.023319 0.126693
vt 0.032516 0.150397
vt 0.032516 0.150397
vt 0.032516 0.150397
vt 0.032516 0.150397
vt 0.032516 0.150397
vt 0.032516 0.150397
vt 0.032516 0.150397
vt 0.032516 0.150397
vt 0.032516 0.150397
vt 0.032516 0.150397
vt 0.032516 0.150397
vt 0.032516 0.150397
vt 0.032516 0.150397
vt 0.032516 0.150397
vt 0.032516 0.150397
vt 0.032516 0.150397
vt 0.032516 0.150397
vt 0.032516 0.150397
vt 0.032516 0.150397
vt 0.032516 0.150397
vt 0.023319 0.126693
vt 0.023319 0.126693
vt 0.023319 0.126693
vt 0.023319 0.126693
vt 0.023319 0.126693
vt 0.023319 0.126693
vt 0.023319 0.126693
vt 0.023319 0.126693
vt 0.023319 0.126693
vt 0.023319 0.126693
vt 0.032516 0.150397
vt 0.032516 0.150397
vt 0.032516 0.150397
vt 0.032516 0.150397
vt 0.032516 0.150397
vt 0.032516 0.150397
vt 0.032516 0.150397
vt 0.032516 0.150397
vt 0.032516 0.150397
vt 0.032516 0.150397
vt 0.032516 0.150397
vt 0.032516 0.150397
vt 0.032516 0.150397
vt 0.032516 0.150397
vt 0.032516 0.150397
vt 0.023319 0.126693
vt 0.023319 0.126693
vt 0.023319 0.126693
vt 0.023319 0.126693
vt 0.032516 0.150397
vn 0.000000 0.000000 1.000000
vn 0.000000 0.000000 1.000000
vn 0.000000 0.000000 1.000000
vn 0.000000 0.000000 1.000000
vn 1.000000 0.000000 -0.000012
vn 1.000000 0.000000 -0.000012
vn 1.000000 0.000000 -0.000012
vn 1.000000 0.000000 -0.000012
vn -1.000000 0.000000 0.000000
vn -1.000000 0.000000 0.000000
vn -1.000000 0.000000 0.000000
vn -1.000000 0.000000 0.000000
vn 0.000000 0.000000 1.000000
vn 0.000000 0.000000 1.000000
vn 0.000000 0.000000 1.000000
vn 0.000000 0.000000 1.000000
vn 1.000000 0.000000 -0.000012
vn 1.000000 0.000000 -0.000012
vn 1.000000 0.000000 -0.000012
vn 1.000000 0.000000 -0.000012
vn -1.000000 0.000000 0.000000
vn -1.000000 0.000000 0.000000
vn -1.000000 0.000000 0.000000
vn -1.000000 0.000000 0.000000
vn 0.000000 -0.592934 0.805251
vn 0.000000 -0.592934 0.805251
vn 0.000000 -0.592934 0.805251
vn 0.000000 -0.592934 0.805251
vn 0.000000 0.592940 0.805247
vn 0.000000 0.592940 0.805247
vn 0.000000 0.592940 0.805247
vn 0.000000 0.592940 0.805247
vn 1.000000 0.000081 -0.000006
vn 1.000000 0.000081 -0.000006
vn 1.000000 0.000081 -0.000006
vn 1.000000 0.000081 -0.000006
vn 1.000000 -0.000081 -0.000006
vn 1.000000 -0.000081 -0.000006
vn 1.000000 -0.000081 -0.000006
vn 1.000000 -0.000081 -0.000006
vn -0.805315 -0.592847 0.000000
vn -0.805315 -0.592847 0.000000
vn -0.805315 -0.592847 0.000000
vn -0.805315 -0.592847 0.000000
vn -0.805314 0.592849 0.000000
vn -0.805314 0.592849 0.000000
vn -0.805314 0.592849 0.000000
vn -0.805314 0.592849 0.000000
vn 0.000000 -0.592937 0.805249
vn 0.000000 -0.592937 0.805249
vn 0.000000 -0.592937 0.805249
vn 0.000000 -0.592937 0.805249
vn 0.000000 0.592934 0.805251
vn 0.000000 0.592934 0.805251
vn 0.000000 0.592934 0.805251
vn 0.000000 0.592934 0.805251
vn 1.000000 0.000081 -0.000006
vn 1.000000 0.000081 -0.000006
vn 1.000000 0.000081 -0.000006
vn 1.000000 0.000081 -0.000006
vn 1.000000 -0.000081 -0.000006
vn 1.000000 -0.000081 -0.000006
vn 1.000000 -0.000081 -0.000006
vn 1.000000 -0.000081 -0.000006
vn -0.805315 -0.592847 0.000000
vn -0.805315 -0.592847 0.000000
vn -0.805315 -0.592847 0.000000
vn -0.805315 -0.592847 0.000000
vn -0.805312 0.592851 0.000000
vn -0.805312 0.592851 0.000000
vn -0.805312 0.592851 0.000000
vn -0.805312 0.592851 0.000000
vn 1.000000 0.000000 0.000000
vn 1.000000 0.000000 0.000000
vn 1.000000 0.000000 0.000000
vn 1.000000 0.000000 0.000000
vn 0.000000 0.660495 0.750830
vn 0.000000 0.660495 0.750830
vn 0.000000 0.660495 0.750830
vn 0.000000 0.660495 0.750830
vn -0.750830 0.660495 0.000000
vn -0.750830 0.660495 0.000000
vn -0.750830 0.660495 0.000000
vn -0.750830 0.660495 0.000000
vn 1.000000 0.000000 0.000000
vn 1.000000 0.000000 0.000000
vn 1.000000 0.000000 0.000000
vn 1.000000 0.000000 0.000000
vn 0.000000 0.000000 1.000000
vn 0.000000 0.000000 1.000000
vn 0.000000 0.000000 1.000000
vn 0.000000 0.000000 1.000000
vn -1.000000 0.000000 0.000000
vn -1.000000 0.000000 0.000000
vn -1.000000 0.000000 0.000000
vn -1.000000 0.000000 0.000000
vn 1.000000 0.000000 0.000000
vn 1.000000 0.000000 0.000000
vn 1.000000 0.000000 0.000000
vn 1.000000 0.000000 0.000000
vn 0.805315 -0.592847 0.000000
vn 0.805315 -0.592847 0.000000
vn 0.805315 -0.592847 0.000000
vn 0.805315 -0.592847 0.000000
vn 0.750830 0.660495 0.000000
vn 0.750830 0.660495 0.000000
vn 0.750830 0.660495 0.000000
vn 0.750830 0.660495 0.000000
vn 1.000000 0.000000 0.000000
vn 1.000000 0.000000 0.000000
vn 1.000000 0.000000 0.000000
vn 1.000000 0.000000 0.000000
vn 0.000000 -1.000000 0.000000
vn 0.000000 -1.000000 0.000000
vn 0.000000 -1.000000 0.000000
vn 0.000000 -1.000000 0.000000
vn 0.000000 1.000000 0.000000
vn 0.000000 1.000000 0.000000
vn 0.000000 1.000000 0.000000
vn 0.000000 1.000000 0.000000
vn 0.805313 0.592851 0.000000
vn 0.805313 0.592851 0.000000
vn 0.805313 0.592851 0.000000
vn 0.805313 0.592851 0.000000
vn 1.000000 0.000000 0.000000
vn 1.000000 0.000000 0.000000
vn 1.000000 0.000000 0.000000
vn 1.000000 0.000000 0.000000
vn 0.805315 -0.592847 0.000000
vn 0.805315 -0.592847 0.000000
vn 0.805315 -0.592847 0.000000
vn 0.805315 -0.592847 0.000000
vn 0.805314 0.592848 0.000000
vn 0.805314 0.592848 0.000000
vn 0.805314 0.592848 0.000000
vn 0.805314 0.592848 0.000000
vn -0.000000 0.592894 -0.805281
vn -0.000000 0.592894 -0.805281
vn -0.000000 0.592894 -0.805281
vn -0.000000 0.592894 -0.805281
vn 0.000000 -0.592893 -0.805282
vn 0.000000 -0.592893 -0.805282
vn 0.000000 -0.592893 -0.805282
vn 0.000000 -0.592893 -0.805282
vn 0.000000 0.000000 -1.000000
vn 0.000000 0.000000 -1.000000
vn 0.000000 0.000000 -1.000000
vn 0.000000 0.000000 -1.000000
vn 0.000000 0.592892 -0.805282
vn 0.000000 0.592892 -0.805282
vn 0.000000 0.592892 -0.805282
vn 0.000000 0.592892 -0.805282
vn 0.000000 0.000000 -1.000000
vn 0.000000 0.000000 -1.000000
vn 0.000000 0.000000 -1.000000
vn 0.000000 0.000000 -1.000000
vn 0.000000 0.660495 -0.750830
vn 0.000000 0.660495 -0.750830
vn 0.000000 0.660495 -0.750830
vn 0.000000 0.660495 -0.750830
vn 0.000000 -0.592891 -0.805283
vn 0.000000 -0.592891 -0.805283
vn 0.000000 -0.592891 -0.805283
vn 0.000000 -0.592891 -0.805283
vn 0.000000 0.000000 -1.000000
vn 0.000000 0.000000 -1.000000
vn 0.000000 0.000000 -1.000000
vn 0.000000 0.000000 -1.000000
vn 0.000000 0.000000 -1.000000
vn 0.000000 0.000000 -1.000000
vn 0.000000 0.000000 -1.000000
vn 0.000000 0.000000 -1.000000
vn 0.000000 0.000000 -1.000000
vn 0.000000 0.000000 -1.000000
vn 0.000000 0.000000 -1.000000
vn 0.000000 0.000000 -1.000000
vn 0.000000 0.000000 -1.000000
vn 0.000000 0.000000 -1.000000
vn 0.000000 0.000000 -1.000000
vn 0.000000 0.000000 -1.000000
vn 0.000000 0.000000 -1.000000
vn 0.000000 0.000000 -1.000000
vn 0.000000 0.000000 -1.000000
vn 0.000000 0.000000 -1.000000
vn 0.000000 0.000000 -1.000000
vn 0.000000 0.000000 -1.000000
vn 0.000000 0.000000 -1.000000
vn 0.000000 0.000000 -1.000000
vn 0.000000 0.000000 -1.000000
vn 0.000000 0.000000 -1.000000
vn 0.000000 0.000000 -1.000000
vn 0.000000 0.000000 -1.000000
vn 0.000000 0.000000 -1.000000
vn 0.000000 0.000000 -1.000000
vn 0.000000 0.000000 -1.000000
vn 0.000000 0.000000 -1.000000
vn 0.000000 0.000000 -1.000000
vn 0.000000 0.000000 -1.000000
vn 0.000000 0.000000 -1.000000
vn 0.000000 0.000000 -1.000000
vn 0.000000 1.000000 0.000000
vn 0.000000 1.000000 0.000000
vn 0.000000 1.000000 0.000000
vn 0.000000 1.000000 0.000000
vn 0.000000 -1.000000 0.000000
vn 0.000000 -1.000000 0.000000
vn 0.000000 -1.000000 0.000000
vn 0.000000 -1.000000 0.000000
s off
f 17/1/1 18/2/2 19/3/3 16/4/4
f 48/5/5 49/6/6 39/7/7 40/8/8
f 20/9/9 21/10/10 16/4/11 19/3/12
f 11/11/13 12/12/14 13/13/15 10/14/16
f 50/15/17 51/16/18 47/17/19 37/18/20
f 14/19/21 15/20/22 10/14/23 13/13/24
f 2/21/25 11/11/26 10/14/27 1/22/28
f 12/12/29 8/23/30 7/24/31 13/13/32
f 51/16/33 52/25/34 46/26/35 47/17/36
f 38/27/37 53/28/38 50/15/39 37/18/40
f 15/20/41 6/29/42 1/22/43 10/14/44
f 9/30/45 14/19/46 13/13/47 7/24/48
f 8/31/49 17/1/50 16/4/51 7/32/52
f 18/2/53 4/33/54 3/34/55 19/3/56
f 49/6/57 53/35/58 38/36/59 39/7/60
f 41/37/61 42/38/62 48/5/63 40/8/64
f 21/10/65 9/39/66 7/32/67 16/4/68
f 5/40/69 20/9/70 19/3/71 3/34/72
f 46/26/73 52/25/74 54/41/75 45/42/76
f 23/43/77 2/21/78 1/22/79 24/44/80
f 6/29/81 22/45/82 24/44/83 1/22/84
f 45/42/85 54/41/86 43/46/87 44/47/88
f 26/48/89 23/43/90 24/44/91 27/49/92
f 22/45/93 25/50/94 27/49/95 24/44/96
f 11/11/97 29/51/98 28/52/99 12/12/100
f 2/21/101 30/53/102 29/51/103 11/11/104
f 31/54/105 30/53/106 2/21/107 23/43/108
f 32/55/109 31/54/110 23/43/111 26/48/112
f 43/46/113 27/49/114 25/50/115 44/47/116
f 3/34/117 42/38/118 41/37/119 5/40/120
f 34/56/121 33/57/122 4/33/123 18/2/124
f 17/1/125 35/58/126 34/56/127 18/2/128
f 8/31/129 36/59/130 35/58/131 17/1/132
f 28/52/133 36/60/134 8/23/135 12/12/136
f 9/30/137 38/27/138 37/18/139 14/19/140
f 39/7/141 38/36/142 9/39/143 21/10/144
f 20/9/145 40/8/146 39/7/147 21/10/148
f 5/40/149 41/37/150 40/8/151 20/9/152
f 22/45/153 45/42/154 44/47/155 25/50/156
f 6/29/157 46/26/158 45/42/159 22/45/160
f 47/17/161 46/26/162 6/29/163 15/20/164
f 14/19/165 37/18/166 47/17/167 15/20/168
f 34/56/169 35/58/170 49/6/171 48/5/172
f 28/52/173 29/51/174 51/16/175 50/15/176
f 29/51/177 30/53/178 52/25/179 51/16/180
f 36/60/181 28/52/182 50/15/183 53/28/184
f 35/58/185 36/59/186 53/35/187 49/6/188
f 33/57/189 34/56/190 48/5/191 42/38/192
f 30/53/193 31/54/194 54/41/195 52/25/196
f 31/54/197 32/55/198 43/46/199 54/41/200
f 4/33/201 33/57/202 42/38/203 3/34/204
f 43/46/205 32/55/206 26/48/207 27/49/208
