# This file uses centimeters as units for non-parametric coordinates.

v 5.000001 -0.222865 5.000002
v 0.000000 -0.222865 5.000002
v 5.000001 -0.222865 0.000000
v 0.000000 -0.222865 0.000000
v 4.891746 -0.222865 4.891746
v 0.108256 -0.222865 4.891746
v 0.108256 -0.222865 0.108257
v 4.891746 -0.222865 0.108257
v 4.805949 -0.199759 4.805949
v 0.194053 -0.199759 4.805949
v 0.194053 -0.199759 0.194054
v 4.805949 -0.199759 0.194054
v 4.702253 -0.199759 4.702252
v 0.297749 -0.199759 4.702252
v 0.297749 -0.199759 0.297749
v 4.702253 -0.199759 0.297749
v 4.143942 -0.132768 4.143941
v 0.856061 -0.132768 4.143941
v 0.856061 -0.132768 0.856059
v 4.143942 -0.132768 0.856059
v 4.054457 -0.154878 4.054456
v 0.945546 -0.154878 4.054456
v 0.945546 -0.154878 0.945544
v 4.054457 -0.154878 0.945544
v 4.054457 -0.117877 4.054456
v 0.945546 -0.117877 4.054456
v 0.945546 -0.117877 0.945544
v 4.054457 -0.117877 0.945544
v 3.969842 -0.117877 3.969841
v 1.030160 -0.117877 3.969841
v 1.030160 -0.117877 1.030159
v 3.969842 -0.117877 1.030159
v 3.969842 -0.078113 3.969841
v 1.030160 -0.078113 3.969841
v 1.030160 -0.078113 1.030159
v 3.969842 -0.078113 1.030159
v 4.661371 -0.157443 4.661370
v 0.338631 -0.157443 4.661370
v 0.806280 -0.105010 4.193721
v 4.193722 -0.105010 4.193721
v 0.338631 -0.157443 0.338631
v 0.806280 -0.105010 0.806279
v 4.661371 -0.157443 0.338631
v 4.193722 -0.105010 0.806279
v 5.000001 0.000000 5.000002
v 0.000000 0.000000 5.000002
v 5.000001 0.000000 0.000000
v 0.000000 0.000000 0.000000
vt 0.100767 0.301839
vt 0.100767 0.301839
vt 0.100767 0.301839
vt 0.100767 0.301839
vt 0.100767 0.301839
vt 0.100767 0.301839
vt 0.100767 0.301839
vt 0.100767 0.301839
vt 0.100767 0.301839
vt 0.100767 0.301839
vt 0.100767 0.301839
vt 0.100767 0.301839
vt 0.100767 0.301839
vt 0.100767 0.301839
vt 0.100767 0.301839
vt 0.100767 0.301839
vt 0.100767 0.301839
vt 0.100767 0.301839
vt 0.100767 0.301839
vt 0.100767 0.301839
vt 0.100767 0.301839
vt 0.100767 0.301839
vt 0.100767 0.301839
vt 0.100767 0.301839
vt 0.100767 0.301839
vt 0.100767 0.301839
vt 0.100767 0.301839
vt 0.100767 0.301839
vt 0.100767 0.301839
vt 0.100767 0.301839
vt 0.100767 0.301839
vt 0.100767 0.301839
vt 0.100767 0.301839
vt 0.100767 0.301839
vt 0.100767 0.301839
vt 0.100767 0.301839
vt 0.100767 0.279487
vt 0.100767 0.301839
vt 0.100767 0.279487
vt 0.100767 0.301839
vt 0.100767 0.301839
vt 0.100767 0.279487
vt 0.100767 0.301839
vt 0.100767 0.279487
vt 0.100767 0.301839
vt 0.100767 0.301839
vt 0.100767 0.301839
vt 0.100767 0.301839
vt 0.100767 0.301839
vt 0.100767 0.301839
vt 0.100767 0.301839
vt 0.100767 0.301839
vt 0.100767 0.301839
vt 0.100767 0.301839
vt 0.100767 0.301839
vt 0.100767 0.301839
vt 0.100767 0.301839
vt 0.100767 0.301839
vt 0.100767 0.301839
vt 0.100767 0.301839
vt 0.100767 0.279487
vt 0.100767 0.279487
vt 0.100767 0.279487
vt 0.100767 0.279487
vt 0.100767 0.326054
vt 0.100767 0.326054
vt 0.100767 0.326054
vt 0.100767 0.326054
vt 0.100767 0.279487
vt 0.100767 0.279487
vt 0.100767 0.279487
vt 0.100767 0.301839
vt 0.100767 0.279487
vt 0.100767 0.301839
vt 0.100767 0.279487
vt 0.100767 0.279487
vt 0.100767 0.301839
vt 0.100767 0.279487
vt 0.100767 0.301839
vt 0.100767 0.279487
vn 0.000000 -1.000000 0.000000
vn 0.000000 -1.000000 0.000000
vn 0.000000 -1.000000 0.000000
vn 0.000000 -1.000000 0.000000
vn 0.000000 -1.000000 -0.000000
vn 0.000000 -1.000000 -0.000000
vn 0.000000 -1.000000 -0.000000
vn 0.000000 -1.000000 -0.000000
vn 0.000000 -1.000000 0.000000
vn 0.000000 -1.000000 0.000000
vn 0.000000 -1.000000 0.000000
vn 0.000000 -1.000000 0.000000
vn 0.000000 -1.000000 0.000000
vn 0.000000 -1.000000 0.000000
vn 0.000000 -1.000000 0.000000
vn 0.000000 -1.000000 0.000000
vn 0.000000 -1.000000 0.000000
vn 0.000000 -1.000000 0.000000
vn 0.000000 -1.000000 0.000000
vn 0.000000 -1.000000 0.000000
vn 0.000000 -0.965597 -0.260043
vn 0.000000 -0.965597 -0.260043
vn 0.000000 -0.965597 -0.260043
vn 0.000000 -0.965597 -0.260043
vn 0.260043 -0.965597 0.000000
vn 0.260043 -0.965597 0.000000
vn 0.260043 -0.965597 0.000000
vn 0.260043 -0.965597 0.000000
vn 0.000000 -0.965597 0.260043
vn 0.000000 -0.965597 0.260043
vn 0.000000 -0.965597 0.260043
vn 0.000000 -0.965597 0.260043
vn -0.260043 -0.965597 0.000000
vn -0.260043 -0.965597 0.000000
vn -0.260043 -0.965597 0.000000
vn -0.260043 -0.965597 0.000000
vn 0.000000 -1.000000 0.000000
vn 0.000000 -1.000000 0.000000
vn 0.000000 -1.000000 0.000000
vn 0.000000 -1.000000 0.000000
vn 0.000000 -1.000000 0.000000
vn 0.000000 -1.000000 0.000000
vn 0.000000 -1.000000 0.000000
vn 0.000000 -1.000000 0.000000
vn 0.000000 -1.000000 0.000000
vn 0.000000 -1.000000 0.000000
vn 0.000000 -1.000000 0.000000
vn 0.000000 -1.000000 0.000000
vn 0.000000 -1.000000 0.000000
vn 0.000000 -1.000000 0.000000
vn 0.000000 -1.000000 0.000000
vn 0.000000 -1.000000 0.000000
vn 0.000000 -0.993773 -0.111422
vn 0.000000 -0.993773 -0.111422
vn 0.000000 -0.993773 -0.111422
vn 0.000000 -0.993773 -0.111422
vn 0.111422 -0.993773 0.000000
vn 0.111422 -0.993773 0.000000
vn 0.111422 -0.993773 0.000000
vn 0.111422 -0.993773 0.000000
vn 0.000000 -0.993773 0.111422
vn 0.000000 -0.993773 0.111422
vn 0.000000 -0.993773 0.111422
vn 0.000000 -0.993773 0.111422
vn -0.111422 -0.993773 0.000000
vn -0.111422 -0.993773 0.000000
vn -0.111422 -0.993773 0.000000
vn -0.111422 -0.993773 0.000000
vn 0.000000 -0.970806 0.239867
vn 0.000000 -0.970806 0.239867
vn 0.000000 -0.970806 0.239867
vn 0.000000 -0.970806 0.239867
vn -0.239866 -0.970806 0.000000
vn -0.239866 -0.970806 0.000000
vn -0.239866 -0.970806 0.000000
vn -0.239866 -0.970806 0.000000
vn 0.000000 -0.970806 -0.239867
vn 0.000000 -0.970806 -0.239867
vn 0.000000 -0.970806 -0.239867
vn 0.000000 -0.970806 -0.239867
vn 0.239867 -0.970806 0.000000
vn 0.239867 -0.970806 0.000000
vn 0.239867 -0.970806 0.000000
vn 0.239867 -0.970806 0.000000
vn 0.000000 0.000000 -1.000000
vn 0.000000 0.000000 -1.000000
vn 0.000000 0.000000 -1.000000
vn 0.000000 0.000000 -1.000000
vn 1.000000 0.000000 0.000000
vn 1.000000 0.000000 0.000000
vn 1.000000 0.000000 0.000000
vn 1.000000 0.000000 0.000000
vn 0.000000 0.000000 1.000000
vn 0.000000 0.000000 1.000000
vn 0.000000 0.000000 1.000000
vn 0.000000 0.000000 1.000000
vn -1.000000 0.000000 0.000000
vn -1.000000 0.000000 0.000000
vn -1.000000 0.000000 0.000000
vn -1.000000 0.000000 0.000000
vn 0.000000 -1.000000 0.000000
vn 0.000000 -1.000000 0.000000
vn 0.000000 -1.000000 0.000000
vn 0.000000 -1.000000 0.000000
vn 0.000000 -1.000000 0.000000
vn 0.000000 -1.000000 0.000000
vn 0.000000 -1.000000 0.000000
vn 0.000000 -1.000000 0.000000
vn 0.000000 -1.000000 -0.000000
vn 0.000000 -1.000000 -0.000000
vn 0.000000 -1.000000 -0.000000
vn 0.000000 -1.000000 -0.000000
vn 0.000000 -1.000000 0.000000
vn 0.000000 -1.000000 0.000000
vn 0.000000 -1.000000 0.000000
vn 0.000000 -1.000000 0.000000
vn 0.000000 0.000000 -1.000000
vn 0.000000 0.000000 -1.000000
vn 0.000000 0.000000 -1.000000
vn 0.000000 0.000000 -1.000000
vn 1.000000 0.000000 0.000000
vn 1.000000 0.000000 0.000000
vn 1.000000 0.000000 0.000000
vn 1.000000 0.000000 0.000000
vn 0.000000 0.000000 1.000000
vn 0.000000 0.000000 1.000000
vn 0.000000 0.000000 1.000000
vn 0.000000 0.000000 1.000000
vn -1.000000 0.000000 0.000000
vn -1.000000 0.000000 0.000000
vn -1.000000 0.000000 0.000000
vn -1.000000 0.000000 0.000000
vn 0.000000 -0.694813 -0.719190
vn 0.000000 -0.694813 -0.719190
vn 0.000000 -0.694813 -0.719190
vn 0.000000 -0.694813 -0.719190
vn 0.000000 -0.873392 0.487018
vn 0.000000 -0.873392 0.487018
vn 0.000000 -0.873392 0.487018
vn 0.000000 -0.873392 0.487018
vn 0.719194 -0.694809 0.000000
vn 0.719194 -0.694809 0.000000
vn 0.719194 -0.694809 0.000000
vn 0.719194 -0.694809 0.000000
vn -0.487015 -0.873394 0.000000
vn -0.487015 -0.873394 0.000000
vn -0.487015 -0.873394 0.000000
vn -0.487015 -0.873394 0.000000
vn 0.000000 -0.694813 0.719190
vn 0.000000 -0.694813 0.719190
vn 0.000000 -0.694813 0.719190
vn 0.000000 -0.694813 0.719190
vn 0.000000 -0.873392 -0.487018
vn 0.000000 -0.873392 -0.487018
vn 0.000000 -0.873392 -0.487018
vn 0.000000 -0.873392 -0.487018
vn -0.719193 -0.694810 0.000000
vn -0.719193 -0.694810 0.000000
vn -0.719193 -0.694810 0.000000
vn -0.719193 -0.694810 0.000000
vn 0.487018 -0.873392 0.000000
vn 0.487018 -0.873392 0.000000
vn 0.487018 -0.873392 0.000000
vn 0.487018 -0.873392 0.000000
vn 0.000000 0.000000 1.000000
vn 0.000000 0.000000 1.000000
vn 0.000000 0.000000 1.000000
vn 0.000000 0.000000 1.000000
vn 0.000000 0.000000 -1.000000
vn 0.000000 0.000000 -1.000000
vn 0.000000 0.000000 -1.000000
vn 0.000000 0.000000 -1.000000
vn 1.000000 0.000000 0.000000
vn 1.000000 0.000000 0.000000
vn 1.000000 0.000000 0.000000
vn 1.000000 0.000000 0.000000
vn -1.000000 0.000000 0.000000
vn -1.000000 0.000000 0.000000
vn -1.000000 0.000000 0.000000
vn -1.000000 0.000000 0.000000
s off
f 33/65/1 34/66/2 35/67/3 36/68/4
f 1/1/5 2/2/6 6/6/7 5/5/8
f 2/2/9 4/4/10 7/7/11 6/6/12
f 4/4/13 3/3/14 8/8/15 7/7/16
f 3/3/17 1/1/18 5/5/19 8/8/20
f 5/5/21 6/6/22 10/10/23 9/9/24
f 6/6/25 7/7/26 11/11/27 10/10/28
f 7/7/29 8/8/30 12/12/31 11/11/32
f 8/8/33 5/5/34 9/9/35 12/12/36
f 9/9/37 10/10/38 14/14/39 13/13/40
f 10/10/41 11/11/42 15/15/43 14/14/44
f 11/11/45 12/12/46 16/16/47 15/15/48
f 12/12/49 9/9/50 13/13/51 16/16/52
f 37/73/53 38/80/54 39/61/55 40/69/56
f 38/64/57 41/63/58 42/62/59 39/39/60
f 41/78/61 43/75/62 44/71/63 42/42/64
f 43/76/65 37/37/66 40/70/67 44/44/68
f 17/17/69 18/18/70 22/22/71 21/21/72
f 18/18/73 19/19/74 23/23/75 22/22/76
f 19/19/77 20/20/78 24/24/79 23/23/80
f 20/20/81 17/17/82 21/21/83 24/24/84
f 21/21/85 22/22/86 26/26/87 25/25/88
f 22/22/89 23/23/90 27/27/91 26/26/92
f 23/23/93 24/24/94 28/28/95 27/27/96
f 24/24/97 21/21/98 25/25/99 28/28/100
f 25/25/101 26/26/102 30/30/103 29/29/104
f 26/26/105 27/27/106 31/31/107 30/30/108
f 27/27/109 28/28/110 32/32/111 31/31/112
f 28/28/113 25/25/114 29/29/115 32/32/116
f 29/29/117 30/30/118 34/34/119 33/33/120
f 30/30/121 31/31/122 35/35/123 34/34/124
f 31/31/125 32/32/126 36/36/127 35/35/128
f 32/32/129 29/29/130 33/33/131 36/36/132
f 13/13/133 14/14/134 38/38/135 37/74/136
f 18/18/137 17/17/138 40/40/139 39/79/140
f 14/14/141 15/15/142 41/41/143 38/38/144
f 19/19/145 18/18/146 39/79/147 42/77/148
f 15/15/149 16/16/150 43/43/151 41/41/152
f 20/20/153 19/19/154 42/77/155 44/72/156
f 16/16/157 13/13/158 37/74/159 43/43/160
f 17/17/161 20/20/162 44/72/163 40/40/164
f 2/45/165 1/46/166 45/47/167 46/59/168
f 3/48/169 4/49/170 48/50/171 47/60/172
f 1/51/173 3/52/174 47/53/175 45/54/176
f 4/55/177 2/56/178 46/57/179 48/58/180
