# This file uses centimeters as units for non-parametric coordinates.

v 0.062927 -1.301398 0.062929
v 0.000000 -1.301398 0.088995
v -0.062931 -1.301398 0.062929
v -0.088995 -1.301398 -0.000000
v -0.062931 -1.301398 -0.062929
v 0.000000 -1.301398 -0.088995
v 0.062927 -1.301398 -0.062929
v 0.088995 -1.301398 -0.000000
v 0.062927 -1.364185 0.062929
v 0.000000 -1.364185 0.088995
v -0.062931 -1.364185 0.062929
v -0.088995 -1.364185 -0.000000
v -0.062931 -1.364185 -0.062929
v 0.000000 -1.364185 -0.088995
v 0.062927 -1.364185 -0.062929
v 0.088995 -1.364185 -0.000000
v 0.000000 -1.301398 -0.000000
v 0.206020 -1.596462 0.206020
v 0.000000 -1.596462 0.291356
v -0.206026 -1.596462 0.206020
v -0.291357 -1.596462 -0.000000
v -0.206026 -1.596462 -0.206020
v 0.000000 -1.596462 -0.291357
v 0.206020 -1.596462 -0.206020
v 0.291357 -1.596462 -0.000000
v 0.206020 -1.653830 0.206020
v 0.000000 -1.653830 0.291356
v -0.206026 -1.653830 0.206020
v -0.291357 -1.653830 -0.000000
v -0.206026 -1.653830 -0.206020
v 0.000000 -1.653830 -0.291357
v 0.206020 -1.653830 -0.206020
v 0.291357 -1.653830 -0.000000
v 0.157007 -1.653830 0.157004
v 0.000000 -1.653830 0.222037
v -0.157007 -1.653830 0.157004
v -0.222036 -1.653830 -0.000000
v -0.157007 -1.653830 -0.157004
v 0.000000 -1.653830 -0.222037
v 0.157007 -1.653830 -0.157004
v 0.222036 -1.653830 -0.000000
v 0.044504 -1.490506 0.044501
v 0.000002 -1.490506 0.062933
v -0.044500 -1.490506 0.044501
v -0.062931 -1.490506 -0.000000
v -0.044500 -1.490506 -0.044501
v 0.000002 -1.490506 -0.062933
v 0.044504 -1.490506 -0.044501
v 0.062935 -1.490506 -0.000000
v 0.044504 -1.761906 0.044501
v 0.000002 -1.761906 0.062933
v 0.000002 -1.761906 -0.000000
v -0.044500 -1.761906 0.044501
v -0.062931 -1.761906 -0.000000
v -0.044500 -1.761906 -0.044501
v 0.000002 -1.761906 -0.062933
v 0.044504 -1.761906 -0.044501
v 0.062935 -1.761906 -0.000000
v -0.276842 0.000000 -0.276839
v 0.276836 0.000000 -0.276839
v -0.276842 -0.090145 -0.276839
v 0.276836 -0.090145 -0.276839
v -0.276842 -0.090145 0.276838
v 0.276836 -0.090145 0.276838
v -0.276842 0.000000 0.276838
v 0.276836 0.000000 0.276838
v -0.134720 -0.117118 -0.134715
v 0.134714 -0.117118 -0.134715
v 0.134714 -0.117118 0.134714
v -0.134720 -0.117118 0.134714
v -0.134720 -0.190311 -0.134715
v 0.134714 -0.190311 -0.134715
v 0.134714 -0.190311 0.134714
v -0.134720 -0.190311 0.134714
v -0.022955 -0.227491 -0.022951
v 0.022949 -0.227491 -0.022951
v 0.022949 -0.227491 0.022951
v -0.022955 -0.227491 0.022951
v -0.022955 -1.301398 -0.022951
v 0.022949 -1.301398 -0.022951
v 0.022949 -1.301398 0.022951
v -0.022955 -1.301398 0.022951
v -0.059984 -1.301398 -0.059980
v 0.059980 -1.301398 -0.059980
v 0.059980 -1.301398 0.059980
v -0.059984 -1.301398 0.059980
vt 0.046663 0.302137
vt 0.046663 0.302137
vt 0.046663 0.302137
vt 0.046663 0.302137
vt 0.046663 0.302137
vt 0.046663 0.302137
vt 0.046663 0.302137
vt 0.046663 0.302137
vt 0.046663 0.302137
vt 0.046663 0.302137
vt 0.046663 0.302137
vt 0.046663 0.302137
vt 0.046663 0.302137
vt 0.046663 0.302137
vt 0.046663 0.302137
vt 0.046663 0.302137
vt 0.046663 0.302137
vt 0.046663 0.302137
vt 0.046663 0.302137
vt 0.046663 0.302137
vt 0.046663 0.302137
vt 0.046663 0.302137
vt 0.046663 0.302137
vt 0.046663 0.302137
vt 0.046663 0.302137
vt 0.046663 0.302137
vt 0.316021 0.033351
vt 0.316021 0.033351
vt 0.316021 0.033351
vt 0.316021 0.033351
vt 0.316021 0.033351
vt 0.316021 0.033351
vt 0.316021 0.033351
vt 0.316021 0.033351
vt 0.046663 0.302137
vt 0.316021 0.033351
vt 0.316021 0.033351
vt 0.316021 0.033351
vt 0.316021 0.033351
vt 0.316021 0.033351
vt 0.316021 0.033351
vt 0.316021 0.033351
vt 0.316021 0.033351
vt 0.316021 0.033351
vt 0.316021 0.033351
vt 0.316021 0.033351
vt 0.316021 0.033351
vt 0.316021 0.033351
vt 0.316021 0.033351
vt 0.316021 0.033351
vt 0.316021 0.033351
vt 0.316021 0.033351
vt 0.316021 0.033351
vt 0.316021 0.033351
vt 0.316021 0.033351
vt 0.316021 0.033351
vt 0.316021 0.033351
vt 0.316021 0.033351
vt 0.316021 0.033351
vt 0.316021 0.033351
vt 0.316021 0.033351
vt 0.316021 0.033351
vt 0.316021 0.033351
vt 0.316021 0.033351
vt 0.316021 0.033351
vt 0.316021 0.033351
vt 0.316021 0.033351
vt 0.316021 0.033351
vt 0.316021 0.033351
vt 0.316021 0.033351
vt 0.316021 0.033351
vt 0.316021 0.033351
vt 0.316021 0.033351
vt 0.316021 0.033351
vt 0.316021 0.033351
vt 0.316021 0.033351
vt 0.046663 0.302137
vt 0.046663 0.302137
vt 0.046663 0.302137
vt 0.046663 0.302137
vt 0.046663 0.302137
vt 0.046663 0.302137
vt 0.046663 0.302137
vt 0.046663 0.302137
vt 0.046663 0.302137
vt 0.046663 0.302137
vt 0.046663 0.302137
vt 0.046663 0.302137
vt 0.046663 0.302137
vt 0.046663 0.302137
vt 0.046663 0.302137
vt 0.046663 0.302137
vt 0.046663 0.302137
vt 0.046663 0.302137
vt 0.046663 0.302137
vt 0.046663 0.302137
vt 0.046663 0.302137
vt 0.046663 0.302137
vt 0.046663 0.302137
vt 0.046663 0.302137
vt 0.046663 0.302137
vt 0.046663 0.302137
vt 0.046663 0.302137
vt 0.046663 0.302137
vt 0.046663 0.302137
vt 0.046663 0.302137
vt 0.046663 0.302137
vt 0.046663 0.302137
vt 0.046663 0.302137
vt 0.046663 0.302137
vt 0.103064 0.227016
vt 0.103064 0.227016
vt 0.103064 0.227016
vt 0.103064 0.227016
vt 0.103064 0.227016
vt 0.103064 0.227016
vt 0.103064 0.227016
vt 0.103064 0.227016
vn 0.382691 0.000000 0.923876
vn 0.382691 0.000000 0.923876
vn 0.382691 0.000000 0.923876
vn 0.382691 0.000000 0.923876
vn -0.382672 0.000000 0.923884
vn -0.382672 0.000000 0.923884
vn -0.382672 0.000000 0.923884
vn -0.382672 0.000000 0.923884
vn -0.923890 0.000000 0.382657
vn -0.923890 0.000000 0.382657
vn -0.923890 0.000000 0.382657
vn -0.923890 0.000000 0.382657
vn -0.923890 0.000000 -0.382657
vn -0.923890 0.000000 -0.382657
vn -0.923890 0.000000 -0.382657
vn -0.923890 0.000000 -0.382657
vn -0.382670 0.000000 -0.923885
vn -0.382670 0.000000 -0.923885
vn -0.382670 0.000000 -0.923885
vn -0.382670 0.000000 -0.923885
vn 0.382689 0.000000 -0.923877
vn 0.382689 0.000000 -0.923877
vn 0.382689 0.000000 -0.923877
vn 0.382689 0.000000 -0.923877
vn 0.923870 0.000000 -0.382706
vn 0.923870 0.000000 -0.382706
vn 0.923870 0.000000 -0.382706
vn 0.923870 0.000000 -0.382706
vn 0.923870 0.000000 0.382706
vn 0.923870 0.000000 0.382706
vn 0.923870 0.000000 0.382706
vn 0.923870 0.000000 0.382706
vn 0.000000 1.000000 0.000000
vn 0.000000 1.000000 0.000000
vn 0.000000 1.000000 0.000000
vn 0.000000 1.000000 0.000001
vn 0.000000 1.000000 0.000000
vn 0.000000 1.000000 0.000000
vn 0.000000 1.000000 0.000000
vn 0.000000 1.000000 0.000001
vn 0.000000 1.000000 0.000000
vn 0.000000 1.000000 -0.000001
vn 0.000000 1.000000 0.000000
vn 0.000000 1.000000 0.000000
vn 0.000000 1.000000 0.000000
vn 0.000000 1.000000 -0.000001
vn 0.000000 1.000000 0.000000
vn 0.000000 1.000000 0.000001
vn 0.000000 1.000000 0.000000
vn 0.000000 1.000000 0.000000
vn 0.000000 1.000000 0.000001
vn 0.000000 1.000000 0.000001
vn 0.000000 1.000000 0.000000
vn 0.000000 1.000000 0.000000
vn 0.000000 1.000000 0.000001
vn 0.000000 1.000000 0.000000
vn 0.000000 -1.000000 0.000000
vn 0.000000 -1.000000 0.000000
vn 0.000000 -1.000000 0.000000
vn 0.000000 -1.000000 0.000000
vn 0.000000 -1.000000 0.000000
vn 0.000000 -1.000000 0.000000
vn 0.000000 -1.000000 0.000000
vn 0.000000 -1.000000 0.000000
vn 0.000000 -1.000000 0.000000
vn 0.000000 -1.000000 0.000000
vn 0.000000 -1.000000 0.000000
vn 0.000000 -1.000000 0.000000
vn 0.000000 -1.000000 0.000000
vn 0.000000 -1.000000 0.000000
vn 0.000000 -1.000000 0.000000
vn 0.000000 -1.000000 0.000000
vn 0.000000 -1.000000 0.000000
vn 0.000000 -1.000000 0.000000
vn 0.000000 -1.000000 0.000000
vn 0.000000 -1.000000 0.000000
vn 0.000000 -1.000000 0.000000
vn 0.000000 -1.000000 0.000000
vn 0.000000 -1.000000 0.000000
vn 0.000000 -1.000000 0.000000
vn 0.298113 0.627018 0.719707
vn 0.298113 0.627018 0.719707
vn 0.298113 0.627018 0.719707
vn 0.298113 0.627018 0.719707
vn -0.298104 0.627018 0.719710
vn -0.298104 0.627018 0.719710
vn -0.298104 0.627018 0.719710
vn -0.298104 0.627018 0.719710
vn -0.719712 0.627020 0.298095
vn -0.719712 0.627020 0.298095
vn -0.719712 0.627020 0.298095
vn -0.719712 0.627020 0.298094
vn -0.719712 0.627020 -0.298095
vn -0.719712 0.627020 -0.298095
vn -0.719712 0.627020 -0.298095
vn -0.719712 0.627020 -0.298095
vn -0.298104 0.627018 -0.719710
vn -0.298104 0.627018 -0.719710
vn -0.298104 0.627018 -0.719710
vn -0.298104 0.627018 -0.719710
vn 0.298114 0.627017 -0.719707
vn 0.298114 0.627017 -0.719707
vn 0.298114 0.627017 -0.719707
vn 0.298114 0.627017 -0.719707
vn 0.719704 0.627018 -0.298118
vn 0.719704 0.627018 -0.298118
vn 0.719704 0.627018 -0.298118
vn 0.719704 0.627018 -0.298118
vn 0.719704 0.627019 0.298117
vn 0.719704 0.627019 0.298117
vn 0.719704 0.627019 0.298117
vn 0.719704 0.627019 0.298117
vn 0.382683 0.000000 0.923880
vn 0.382683 0.000000 0.923880
vn 0.382683 0.000000 0.923880
vn 0.382683 0.000000 0.923880
vn -0.382674 0.000000 0.923883
vn -0.382674 0.000000 0.923883
vn -0.382674 0.000000 0.923883
vn -0.382674 0.000000 0.923883
vn -0.923888 0.000000 0.382663
vn -0.923888 0.000000 0.382663
vn -0.923888 0.000000 0.382663
vn -0.923888 0.000000 0.382663
vn -0.923888 0.000000 -0.382663
vn -0.923888 0.000000 -0.382663
vn -0.923888 0.000000 -0.382663
vn -0.923888 0.000000 -0.382663
vn -0.382675 0.000000 -0.923883
vn -0.382675 0.000000 -0.923883
vn -0.382675 0.000000 -0.923883
vn -0.382675 0.000000 -0.923883
vn 0.382684 0.000000 -0.923879
vn 0.382684 0.000000 -0.923879
vn 0.382684 0.000000 -0.923879
vn 0.382684 0.000000 -0.923879
vn 0.923879 0.000000 -0.382685
vn 0.923879 0.000000 -0.382685
vn 0.923879 0.000000 -0.382685
vn 0.923879 0.000000 -0.382685
vn 0.923879 0.000000 0.382684
vn 0.923879 0.000000 0.382684
vn 0.923879 0.000000 0.382684
vn 0.923879 0.000000 0.382684
vn 0.000000 -1.000000 -0.000001
vn 0.000000 -1.000000 -0.000001
vn 0.000000 -1.000000 -0.000001
vn 0.000000 -1.000000 -0.000001
vn 0.000000 -1.000000 0.000000
vn 0.000000 -1.000000 0.000000
vn 0.000000 -1.000000 0.000000
vn 0.000000 -1.000000 0.000000
vn 0.000000 -1.000000 0.000000
vn 0.000000 -1.000000 0.000000
vn 0.000000 -1.000000 0.000000
vn 0.000000 -1.000000 0.000000
vn 0.000000 -1.000000 0.000000
vn 0.000000 -1.000000 0.000000
vn 0.000000 -1.000000 0.000000
vn 0.000000 -1.000000 0.000000
vn 0.000000 -1.000000 0.000000
vn 0.000000 -1.000000 0.000000
vn 0.000000 -1.000000 0.000000
vn 0.000000 -1.000000 0.000000
vn 0.000000 -1.000000 0.000000
vn 0.000000 -1.000000 0.000000
vn 0.000000 -1.000000 0.000000
vn 0.000000 -1.000000 0.000000
vn 0.000000 -1.000000 0.000000
vn 0.000000 -1.000000 0.000000
vn 0.000000 -1.000000 0.000000
vn 0.000000 -1.000000 0.000000
vn 0.000000 -1.000000 0.000000
vn 0.000000 -1.000000 0.000000
vn 0.000000 -1.000000 0.000000
vn 0.000000 -1.000000 0.000000
vn -0.284440 -0.668965 -0.686716
vn -0.284440 -0.668965 -0.686716
vn -0.284440 -0.668966 -0.686716
vn -0.284440 -0.668966 -0.686716
vn 0.284438 -0.668969 -0.686714
vn 0.284438 -0.668969 -0.686714
vn 0.284438 -0.668969 -0.686714
vn 0.284438 -0.668969 -0.686714
vn 0.686715 -0.668972 -0.284425
vn 0.686715 -0.668972 -0.284425
vn 0.686715 -0.668972 -0.284425
vn 0.686715 -0.668972 -0.284425
vn 0.686715 -0.668973 0.284426
vn 0.686715 -0.668973 0.284426
vn 0.686715 -0.668973 0.284426
vn 0.686715 -0.668973 0.284426
vn 0.284440 -0.668969 0.686713
vn 0.284440 -0.668969 0.686713
vn 0.284440 -0.668969 0.686713
vn 0.284440 -0.668969 0.686713
vn -0.284442 -0.668966 0.686715
vn -0.284442 -0.668966 0.686715
vn -0.284442 -0.668966 0.686715
vn -0.284442 -0.668966 0.686715
vn -0.686722 -0.668964 0.284430
vn -0.686722 -0.668964 0.284430
vn -0.686722 -0.668964 0.284430
vn -0.686722 -0.668964 0.284430
vn -0.686723 -0.668964 -0.284428
vn -0.686723 -0.668964 -0.284428
vn -0.686723 -0.668964 -0.284428
vn -0.686723 -0.668964 -0.284428
vn 0.382669 0.000000 0.923886
vn 0.382669 0.000000 0.923886
vn 0.382669 0.000000 0.923886
vn 0.382669 0.000000 0.923886
vn -0.382669 0.000000 0.923886
vn -0.382669 0.000000 0.923886
vn -0.382669 0.000000 0.923886
vn -0.382669 0.000000 0.923886
vn -0.923896 0.000000 0.382645
vn -0.923896 0.000000 0.382645
vn -0.923896 0.000000 0.382645
vn -0.923896 0.000000 0.382645
vn -0.923894 0.000000 -0.382648
vn -0.923894 0.000000 -0.382648
vn -0.923894 0.000000 -0.382648
vn -0.923894 0.000000 -0.382648
vn -0.382672 0.000000 -0.923884
vn -0.382672 0.000000 -0.923884
vn -0.382672 0.000000 -0.923884
vn -0.382672 0.000000 -0.923884
vn 0.382672 0.000000 -0.923884
vn 0.382672 0.000000 -0.923884
vn 0.382672 0.000000 -0.923884
vn 0.382672 0.000000 -0.923884
vn 0.923894 0.000000 -0.382648
vn 0.923894 0.000000 -0.382648
vn 0.923894 0.000000 -0.382648
vn 0.923894 0.000000 -0.382648
vn 0.923896 0.000000 0.382645
vn 0.923896 0.000000 0.382645
vn 0.923896 0.000000 0.382645
vn 0.923896 0.000000 0.382645
vn 0.000000 0.000000 -1.000000
vn 0.000000 0.000000 -1.000000
vn 0.000000 0.000000 -1.000000
vn 0.000000 0.000000 -1.000000
vn 0.000000 0.000000 1.000000
vn 0.000000 0.000000 1.000000
vn 0.000000 0.000000 1.000000
vn 0.000000 0.000000 1.000000
vn 0.000000 1.000000 0.000000
vn 0.000000 1.000000 0.000000
vn 0.000000 1.000000 0.000000
vn 0.000000 1.000000 0.000000
vn 1.000000 0.000000 0.000000
vn 1.000000 0.000000 0.000000
vn 1.000000 0.000000 0.000000
vn 1.000000 0.000000 0.000000
vn -1.000000 0.000000 0.000000
vn -1.000000 0.000000 0.000000
vn -1.000000 0.000000 0.000000
vn -1.000000 0.000000 0.000000
vn 0.000000 -0.982462 -0.186461
vn 0.000000 -0.982462 -0.186461
vn 0.000000 -0.982462 -0.186461
vn 0.000000 -0.982462 -0.186461
vn 0.186464 -0.982462 0.000000
vn 0.186464 -0.982462 0.000000
vn 0.186464 -0.982462 0.000000
vn 0.186464 -0.982462 0.000000
vn 0.000000 -0.982462 0.186462
vn 0.000000 -0.982462 0.186462
vn 0.000000 -0.982462 0.186462
vn 0.000000 -0.982462 0.186462
vn -0.186464 -0.982462 0.000000
vn -0.186464 -0.982462 0.000000
vn -0.186464 -0.982462 0.000000
vn -0.186464 -0.982462 0.000000
vn 0.000000 0.000000 -1.000000
vn 0.000000 0.000000 -1.000000
vn 0.000000 0.000000 -1.000000
vn 0.000000 0.000000 -1.000000
vn 1.000000 0.000000 0.000000
vn 1.000000 0.000000 0.000000
vn 1.000000 0.000000 0.000000
vn 1.000000 0.000000 0.000000
vn 0.000000 0.000000 1.000000
vn 0.000000 0.000000 1.000000
vn 0.000000 0.000000 1.000000
vn 0.000000 0.000000 1.000000
vn -1.000000 0.000000 0.000000
vn -1.000000 0.000000 0.000000
vn -1.000000 0.000000 0.000000
vn -1.000000 0.000000 0.000000
vn 0.000000 -0.948874 -0.315654
vn 0.000000 -0.948874 -0.315654
vn 0.000000 -0.948874 -0.315654
vn 0.000000 -0.948874 -0.315654
vn 0.315650 -0.948876 0.000000
vn 0.315650 -0.948876 0.000000
vn 0.315650 -0.948876 0.000000
vn 0.315650 -0.948876 0.000000
vn 0.000000 -0.948875 0.315654
vn 0.000000 -0.948875 0.315654
vn 0.000000 -0.948875 0.315654
vn 0.000000 -0.948875 0.315654
vn -0.315650 -0.948876 0.000000
vn -0.315650 -0.948876 0.000000
vn -0.315650 -0.948876 0.000000
vn -0.315650 -0.948876 0.000000
vn 0.000000 0.000000 -1.000000
vn 0.000000 0.000000 -1.000000
vn 0.000000 0.000000 -1.000000
vn 0.000000 0.000000 -1.000000
vn 1.000000 0.000000 0.000000
vn 1.000000 0.000000 0.000000
vn 1.000000 0.000000 0.000000
vn 1.000000 0.000000 0.000000
vn 0.000000 0.000000 1.000000
vn 0.000000 0.000000 1.000000
vn 0.000000 0.000000 1.000000
vn 0.000000 0.000000 1.000000
vn -1.000000 0.000000 0.000000
vn -1.000000 0.000000 0.000000
vn -1.000000 0.000000 0.000000
vn -1.000000 0.000000 0.000000
vn 0.000000 1.000000 -0.000002
vn 0.000000 1.000000 -0.000002
vn 0.000000 1.000000 -0.000002
vn 0.000000 1.000000 -0.000002
vn 0.000000 1.000000 0.000000
vn 0.000000 1.000000 0.000000
vn 0.000000 1.000000 0.000000
vn 0.000000 1.000000 0.000000
vn 0.000000 1.000000 0.000000
vn 0.000000 1.000000 0.000000
vn 0.000000 1.000000 0.000000
vn 0.000000 1.000000 0.000000
vn 0.000000 1.000000 0.000000
vn 0.000000 1.000000 0.000000
vn 0.000000 1.000000 0.000000
vn 0.000000 1.000000 0.000000
s off
f 1/9/1 2/10/2 10/19/3 9/18/4
f 2/10/5 3/11/6 11/20/7 10/19/8
f 3/11/9 4/12/10 12/21/11 11/20/12
f 4/12/13 5/13/14 13/22/15 12/21/16
f 5/13/17 6/14/18 14/23/19 13/22/20
f 6/14/21 7/15/22 15/24/23 14/23/24
f 7/15/25 8/16/26 16/25/27 15/24/28
f 8/16/29 1/17/30 9/26/31 16/25/32
f 2/2/33 1/1/34 17/35/35
f 3/3/36 2/2/37 17/35/38
f 4/4/39 3/3/40 17/35/41
f 5/5/42 4/4/43 17/35/44
f 6/6/45 5/5/46 17/35/47
f 7/7/48 6/6/49 17/35/50
f 8/8/51 7/7/52 17/35/53
f 1/1/54 8/8/55 17/35/56
f 50/27/57 51/28/58 52/29/59
f 51/28/60 53/30/61 52/29/62
f 53/30/63 54/31/64 52/29/65
f 54/31/66 55/32/67 52/29/68
f 55/32/69 56/33/70 52/29/71
f 56/33/72 57/34/73 52/29/74
f 57/34/75 58/36/76 52/29/77
f 58/36/78 50/27/79 52/29/80
f 9/37/81 10/38/82 19/39/83 18/40/84
f 10/38/85 11/41/86 20/42/87 19/39/88
f 11/41/89 12/43/90 21/44/91 20/42/92
f 12/43/93 13/45/94 22/46/95 21/44/96
f 13/45/97 14/47/98 23/48/99 22/46/100
f 14/47/101 15/49/102 24/50/103 23/48/104
f 15/49/105 16/51/106 25/52/107 24/50/108
f 16/51/109 9/37/110 18/40/111 25/52/112
f 18/40/113 19/39/114 27/53/115 26/54/116
f 19/39/117 20/42/118 28/55/119 27/53/120
f 20/42/121 21/44/122 29/56/123 28/55/124
f 21/44/125 22/46/126 30/57/127 29/56/128
f 22/46/129 23/48/130 31/58/131 30/57/132
f 23/48/133 24/50/134 32/59/135 31/58/136
f 24/50/137 25/52/138 33/60/139 32/59/140
f 25/52/141 18/40/142 26/54/143 33/60/144
f 26/54/145 27/53/146 35/61/147 34/62/148
f 27/53/149 28/55/150 36/63/151 35/61/152
f 28/55/153 29/56/154 37/64/155 36/63/156
f 29/56/157 30/57/158 38/65/159 37/64/160
f 30/57/161 31/58/162 39/66/163 38/65/164
f 31/58/165 32/59/166 40/67/167 39/66/168
f 32/59/169 33/60/170 41/68/171 40/67/172
f 33/60/173 26/54/174 34/62/175 41/68/176
f 34/62/177 35/61/178 43/69/179 42/70/180
f 35/61/181 36/63/182 44/71/183 43/69/184
f 36/63/185 37/64/186 45/72/187 44/71/188
f 37/64/189 38/65/190 46/73/191 45/72/192
f 38/65/193 39/66/194 47/74/195 46/73/196
f 39/66/197 40/67/198 48/75/199 47/74/200
f 40/67/201 41/68/202 49/76/203 48/75/204
f 41/68/205 34/62/206 42/70/207 49/76/208
f 42/70/209 43/69/210 51/28/211 50/27/212
f 43/69/213 44/71/214 53/30/215 51/28/216
f 44/71/217 45/72/218 54/31/219 53/30/220
f 45/72/221 46/73/222 55/32/223 54/31/224
f 46/73/225 47/74/226 56/33/227 55/32/228
f 47/74/229 48/75/230 57/34/231 56/33/232
f 48/75/233 49/76/234 58/36/235 57/34/236
f 49/76/237 42/70/238 50/27/239 58/36/240
f 59/77/241 60/78/242 62/79/243 61/80/244
f 63/81/245 64/82/246 66/83/247 65/84/248
f 65/84/249 66/83/250 60/85/251 59/86/252
f 60/78/253 66/87/254 64/88/255 62/79/256
f 65/89/257 59/77/258 61/80/259 63/90/260
f 61/80/261 62/79/262 68/91/263 67/92/264
f 62/79/265 64/82/266 69/93/267 68/91/268
f 64/82/269 63/81/270 70/94/271 69/93/272
f 63/81/273 61/80/274 67/92/275 70/94/276
f 67/92/277 68/91/278 72/95/279 71/96/280
f 68/91/281 69/93/282 73/97/283 72/95/284
f 69/93/285 70/94/286 74/98/287 73/97/288
f 70/94/289 67/92/290 71/96/291 74/98/292
f 71/96/293 72/95/294 76/99/295 75/100/296
f 72/95/297 73/97/298 77/101/299 76/99/300
f 73/97/301 74/98/302 78/102/303 77/101/304
f 74/98/305 71/96/306 75/100/307 78/102/308
f 75/111/309 76/112/310 80/113/311 79/114/312
f 76/112/313 77/115/314 81/116/315 80/113/316
f 77/115/317 78/117/318 82/118/319 81/116/320
f 78/117/321 75/111/322 79/114/323 82/118/324
f 79/104/325 80/103/326 84/107/327 83/108/328
f 80/103/329 81/105/330 85/109/331 84/107/332
f 81/105/333 82/106/334 86/110/335 85/109/336
f 82/106/337 79/104/338 83/108/339 86/110/340
