# This file uses centimeters as units for non-parametric coordinates.

v 0.072909 0.167608 0.010056
v 2.425641 0.167608 0.010056
v 0.072909 1.022200 0.010056
v 2.425641 1.022200 0.010056
v 2.572908 0.167608 0.010056
v 4.925641 0.167608 0.010056
v 2.572908 1.022200 0.010056
v 4.925641 1.022200 0.010056
v 2.572908 1.022200 -0.010048
v 4.925641 1.022200 -0.010048
v 2.572908 0.167608 -0.010048
v 4.925641 0.167608 -0.010048
v 0.072909 1.022200 -0.010048
v 2.425641 1.022200 -0.010048
v 0.072909 0.167608 -0.010048
v 2.425641 0.167608 -0.010048
vt 0.510214 0.010652
vt 0.602651 0.010652
vt 0.602651 0.103088
vt 0.510214 0.103088
vt 0.510214 0.010652
vt 0.602651 0.010652
vt 0.602651 0.103088
vt 0.510214 0.103088
vt 0.510214 0.103088
vt 0.602651 0.103088
vt 0.602651 0.010652
vt 0.510214 0.010652
vt 0.510214 0.103088
vt 0.602651 0.103088
vt 0.602651 0.010652
vt 0.510214 0.010652
vn 0.000000 0.000000 1.000000
vn 0.000000 0.000000 1.000000
vn 0.000000 0.000000 1.000000
vn 0.000000 0.000000 1.000000
vn 0.000000 0.000000 1.000000
vn 0.000000 0.000000 1.000000
vn 0.000000 0.000000 1.000000
vn 0.000000 0.000000 1.000000
vn 0.000000 0.000000 -1.000000
vn 0.000000 0.000000 -1.000000
vn 0.000000 0.000000 -1.000000
vn 0.000000 0.000000 -1.000000
vn 0.000000 0.000000 -1.000000
vn 0.000000 0.000000 -1.000000
vn 0.000000 0.000000 -1.000000
vn 0.000000 0.000000 -1.000000
s off
f 1/1/1 2/2/2 4/3/3 3/4/4
f 5/5/5 6/6/6 8/7/7 7/8/8
f 9/9/9 10/10/10 12/11/11 11/12/12
f 13/13/13 14/14/14 16/15/15 15/16/16
