# This file uses centimeters as units for non-parametric coordinates.

v 0.703598 0.745759 0.020527
v 0.800102 0.745759 0.020527
v 0.703598 1.158872 0.020527
v 0.800102 1.158872 0.020527
v 0.703598 1.158872 -0.020527
v 0.800102 1.158872 -0.020527
v 0.703598 0.745759 -0.020527
v 0.800102 0.745759 -0.020527
v 0.684921 0.736893 0.000000
v 0.684921 1.167738 0.000000
v 0.818779 1.167738 0.000000
v 0.818779 0.736893 0.000000
v 0.000000 0.000000 0.053362
v 0.000000 2.236694 0.053362
v 0.066269 0.067312 0.053362
v 0.066269 2.169382 0.053362
v 0.968323 2.236694 0.053362
v 0.968323 0.000000 0.053362
v 0.923462 2.169382 0.053362
v 0.923462 0.067312 0.053362
v 0.968323 2.236694 0.026680
v 0.968323 0.000000 0.026680
v 1.000960 0.000000 0.026680
v 1.000960 2.236694 0.026680
v 0.000000 0.000000 -0.053362
v 0.000000 2.236694 -0.053362
v 0.066269 0.067312 -0.053362
v 0.066269 2.169382 -0.053362
v 0.968323 2.236694 -0.053362
v 0.968323 0.000000 -0.053362
v 0.923462 2.169382 -0.053362
v 0.923462 0.067312 -0.053362
v 0.968323 2.236694 -0.026680
v 0.968323 0.000000 -0.026680
v 1.000960 0.000000 -0.026680
v 1.000960 2.236694 -0.026680
vt 0.134604 0.353836
vt 0.134604 0.353836
vt 0.134604 0.353836
vt 0.134604 0.353836
vt 0.134604 0.353836
vt 0.134604 0.353836
vt 0.134604 0.353836
vt 0.134604 0.353836
vt 0.134604 0.353836
vt 0.134604 0.353836
vt 0.134604 0.353836
vt 0.134604 0.353836
vt 0.134604 0.353836
vt 0.134604 0.353836
vt 0.134604 0.353836
vt 0.134604 0.353836
vt 0.134604 0.353836
vt 0.134604 0.353836
vt 0.134604 0.353836
vt 0.134604 0.353836
vt 0.134604 0.353836
vt 0.134604 0.353836
vt 0.101446 0.252344
vt 0.101446 0.252344
vt 0.101446 0.252344
vt 0.101446 0.252344
vt 0.101446 0.252344
vt 0.101446 0.252344
vt 0.101446 0.252344
vt 0.101446 0.252344
vt 0.101446 0.252344
vt 0.101446 0.252344
vt 0.101446 0.252344
vt 0.101446 0.252344
vt 0.101446 0.252344
vt 0.101446 0.252344
vt 0.101446 0.252344
vt 0.101446 0.252344
vt 0.101446 0.252344
vt 0.101446 0.252344
vt 0.101446 0.252344
vt 0.101446 0.252344
vt 0.101446 0.252344
vt 0.101446 0.252344
vt 0.101446 0.252344
vt 0.101446 0.252344
vt 0.101446 0.252344
vt 0.101446 0.252344
vt 0.101446 0.252344
vt 0.101446 0.252344
vt 0.101446 0.252344
vt 0.101446 0.252344
vn 0.000000 0.000000 1.000000
vn 0.000000 0.000000 1.000000
vn 0.000000 0.000000 1.000000
vn 0.000000 0.000000 1.000000
vn 0.000000 0.918024 -0.396525
vn 0.000000 0.918024 -0.396525
vn 0.000000 0.918024 -0.396525
vn 0.000000 0.918024 -0.396525
vn 0.000000 0.000000 -1.000000
vn 0.000000 0.000000 -1.000000
vn 0.000000 0.000000 -1.000000
vn 0.000000 0.000000 -1.000000
vn 0.000000 -0.918023 -0.396526
vn 0.000000 -0.918023 -0.396526
vn 0.000000 -0.918023 -0.396526
vn 0.000000 -0.918023 -0.396526
vn 0.739654 0.000000 -0.672988
vn 0.739654 0.000000 -0.672988
vn 0.739654 0.000000 -0.672988
vn 0.739654 0.000000 -0.672988
vn -0.739654 0.000000 -0.672988
vn -0.739654 0.000000 -0.672988
vn -0.739654 0.000000 -0.672988
vn -0.739654 0.000000 -0.672988
vn -0.739654 0.000000 0.672988
vn -0.739654 0.000000 0.672988
vn -0.739654 0.000000 0.672988
vn -0.739654 0.000000 0.672988
vn 0.000000 0.918025 0.396523
vn 0.000000 0.918025 0.396523
vn 0.000000 0.918025 0.396523
vn 0.000000 0.918025 0.396523
vn 0.739654 0.000000 0.672988
vn 0.739654 0.000000 0.672988
vn 0.739654 0.000000 0.672988
vn 0.739654 0.000000 0.672988
vn 0.000000 -0.918023 0.396526
vn 0.000000 -0.918023 0.396526
vn 0.000000 -0.918023 0.396526
vn 0.000000 -0.918023 0.396526
vn -1.000000 0.000000 0.000000
vn -1.000000 0.000000 0.000000
vn -1.000000 0.000000 0.000000
vn -1.000000 0.000000 0.000000
vn -0.000000 0.000000 1.000000
vn -0.000000 0.000000 1.000000
vn -0.000000 0.000000 1.000000
vn -0.000000 0.000000 1.000000
vn -0.000000 0.000000 1.000000
vn -0.000000 0.000000 1.000000
vn -0.000000 0.000000 1.000000
vn -0.000000 0.000000 1.000000
vn 0.000000 0.000000 1.000000
vn 0.000000 0.000000 1.000000
vn 0.000000 0.000000 1.000000
vn 0.000000 0.000000 1.000000
vn 0.000000 0.000000 1.000000
vn 0.000000 0.000000 1.000000
vn 0.000000 0.000000 1.000000
vn 0.000000 0.000000 1.000000
vn 0.000000 -1.000000 0.000000
vn 0.000000 -1.000000 0.000000
vn 0.000000 -1.000000 0.000000
vn 0.000000 -1.000000 0.000000
vn 0.000000 -1.000000 0.000000
vn 0.000000 -1.000000 0.000000
vn -0.000000 1.000000 0.000000
vn -0.000000 1.000000 0.000000
vn -0.000000 1.000000 0.000000
vn -0.000000 1.000000 0.000000
vn -0.000000 1.000000 0.000000
vn -0.000000 1.000000 0.000000
vn -1.000000 0.000000 0.000000
vn -1.000000 0.000000 0.000000
vn -1.000000 0.000000 0.000000
vn -1.000000 0.000000 0.000000
vn 0.000000 -1.000000 0.000000
vn 0.000000 -1.000000 0.000000
vn 0.000000 -1.000000 0.000000
vn 0.000000 -1.000000 0.000000
vn 1.000000 0.000000 0.000000
vn 1.000000 0.000000 0.000000
vn 1.000000 0.000000 0.000000
vn 1.000000 0.000000 0.000000
vn 1.000000 0.000000 0.000000
vn 1.000000 0.000000 0.000000
vn 1.000000 0.000000 0.000000
vn 1.000000 0.000000 0.000000
vn 0.000000 0.000000 1.000000
vn 0.000000 0.000000 1.000000
vn 0.000000 0.000000 1.000000
vn 0.000000 0.000000 1.000000
vn 1.000000 0.000000 0.000000
vn 1.000000 0.000000 0.000000
vn 1.000000 0.000000 0.000000
vn 1.000000 0.000000 0.000000
vn 0.000000 0.000000 -1.000000
vn 0.000000 0.000000 -1.000000
vn 0.000000 0.000000 -1.000000
vn 0.000000 0.000000 -1.000000
vn 0.000000 0.000000 -1.000000
vn 0.000000 0.000000 -1.000000
vn 0.000000 0.000000 -1.000000
vn 0.000000 0.000000 -1.000000
vn 0.000000 0.000000 -1.000000
vn 0.000000 0.000000 -1.000000
vn 0.000000 0.000000 -1.000000
vn 0.000000 0.000000 -1.000000
vn 0.000000 0.000000 -1.000000
vn 0.000000 0.000000 -1.000000
vn 0.000000 0.000000 -1.000000
vn 0.000000 0.000000 -1.000000
vn 0.000000 1.000000 0.000000
vn 0.000000 1.000000 0.000000
vn 0.000000 1.000000 0.000000
vn 0.000000 1.000000 0.000000
vn 1.000000 0.000000 0.000000
vn 1.000000 0.000000 0.000000
vn 1.000000 0.000000 0.000000
vn 1.000000 0.000000 0.000000
vn 0.000000 0.000000 -1.000000
vn 0.000000 0.000000 -1.000000
vn 0.000000 0.000000 -1.000000
vn 0.000000 0.000000 -1.000000
vn 0.000000 1.000000 0.000000
vn 0.000000 1.000000 0.000000
vn 0.000000 1.000000 0.000000
vn 0.000000 1.000000 0.000000
vn 0.000000 -1.000000 0.000000
vn 0.000000 -1.000000 0.000000
vn 0.000000 -1.000000 0.000000
vn 0.000000 -1.000000 0.000000
s off
f 1/1/1 2/2/2 4/3/3 3/4/4
f 10/5/5 11/6/6 6/7/7 5/8/8
f 5/8/9 6/7/10 8/9/11 7/10/12
f 7/10/13 8/9/14 12/11/15 9/12/16
f 11/13/17 12/14/18 8/15/19 6/16/20
f 7/17/21 9/18/22 10/19/23 5/20/24
f 10/19/25 9/18/26 1/1/27 3/4/28
f 3/4/29 4/3/30 11/6/31 10/5/32
f 2/2/33 12/14/34 11/13/35 4/3/36
f 9/12/37 12/11/38 2/21/39 1/22/40
f 13/23/41 14/24/42 26/25/43 25/26/44
f 14/24/45 13/23/46 15/27/47 16/28/48
f 19/29/49 20/30/50 18/31/51 17/32/52
f 19/29/53 17/32/54 14/24/55 16/28/56
f 13/23/57 18/31/58 20/30/59 15/27/60
f 34/33/61 22/34/62 18/31/63 13/35/64 25/36/65 30/37/66
f 26/25/67 14/24/68 17/32/69 21/38/70 33/39/71 29/40/72
f 20/30/73 19/29/74 31/49/75 32/50/76
f 19/29/77 16/28/78 28/47/79 31/49/80
f 16/28/81 15/27/82 27/48/83 28/47/84
f 17/32/85 18/31/86 22/34/87 21/38/88
f 21/38/89 22/34/90 23/41/91 24/42/92
f 24/43/93 23/44/94 35/45/95 36/46/96
f 26/25/97 28/47/98 27/48/99 25/26/100
f 31/49/101 29/40/102 30/37/103 32/50/104
f 31/49/105 28/47/106 26/25/107 29/40/108
f 25/26/109 27/48/110 32/50/111 30/37/112
f 20/30/113 32/50/114 27/48/115 15/27/116
f 29/40/117 33/39/118 34/33/119 30/37/120
f 33/39/121 36/51/122 35/52/123 34/33/124
f 33/39/125 21/38/126 24/42/127 36/51/128
f 34/33/129 35/52/130 23/41/131 22/34/132
