# This file uses centimeters as units for non-parametric coordinates.

v -0.000002 0.000000 0.000000
v 4.999998 0.000000 0.000000
v -0.000002 0.000000 -5.000000
v 4.999998 0.000000 -5.000000
v -0.000002 0.905173 0.000000
v 4.999998 0.905173 0.000000
v 4.999998 0.905173 -5.000000
v -0.000002 0.905173 -5.000000
v -0.000002 0.905173 0.000000
v 4.999998 0.905173 0.000000
v -0.000002 0.905173 -5.000000
v 4.999998 0.905173 -5.000000
vt 0.019515 0.122928
vt 0.019515 0.122928
vt 0.019515 0.122928
vt 0.019515 0.122928
vt 0.020888 0.098596
vt 0.020888 0.098596
vt 0.020888 0.098596
vt 0.020888 0.098596
vt 0.020888 0.098596
vt 0.020888 0.098596
vt 0.020888 0.098596
vt 0.020888 0.098596
vt 0.020888 0.098596
vt 0.020888 0.098596
vt 0.020888 0.098596
vt 0.020888 0.098596
vt 0.020888 0.098596
vt 0.020888 0.098596
vt 0.020888 0.098596
vt 0.020888 0.098596
vt 0.020888 0.098596
vt 0.020888 0.098596
vt 0.020888 0.098596
vt 0.020888 0.098596
vn 0.000000 1.000000 0.000000
vn 0.000000 1.000000 0.000000
vn 0.000000 1.000000 0.000000
vn 0.000000 1.000000 0.000000
vn 0.000000 -1.000000 0.000000
vn 0.000000 -1.000000 0.000000
vn 0.000000 -1.000000 0.000000
vn 0.000000 -1.000000 0.000000
vn 0.000000 0.000000 1.000000
vn 0.000000 0.000000 1.000000
vn 0.000000 0.000000 1.000000
vn 0.000000 0.000000 1.000000
vn 0.000000 0.000000 -1.000000
vn 0.000000 0.000000 -1.000000
vn 0.000000 0.000000 -1.000000
vn 0.000000 0.000000 -1.000000
vn -1.000000 0.000000 0.000000
vn -1.000000 0.000000 0.000000
vn -1.000000 0.000000 0.000000
vn -1.000000 0.000000 0.000000
vn 1.000000 0.000000 0.000000
vn 1.000000 0.000000 0.000000
vn 1.000000 0.000000 0.000000
vn 1.000000 0.000000 0.000000
s off
f 5/5/1 6/6/2 7/7/3 8/8/4
f 3/1/5 4/2/6 2/3/7 1/4/8
f 1/9/9 2/10/10 10/11/11 9/12/12
f 4/13/13 3/14/14 11/15/15 12/16/16
f 3/17/17 1/18/18 9/19/19 11/20/20
f 2/21/21 4/22/22 12/23/23 10/24/24
