# This file uses centimeters as units for non-parametric coordinates.

v 5.000002 0.000000 4.999999
v 1.666670 1.000000 1.666666
v 1.666670 1.000000 4.999997
v 1.666670 0.000000 4.999997
v 1.666670 0.000000 1.666666
v 3.414141 0.500000 3.392411
v 3.333338 0.500000 4.999997
v 2.605864 0.750000 2.527994
v 2.500002 0.750000 4.999997
v 4.223112 0.250000 4.268756
v 4.166670 0.250000 4.999997
v 2.089586 0.875000 2.163317
v 2.083338 0.875000 4.999997
v 2.949472 0.625000 3.060717
v 2.916670 0.625000 4.999997
v 3.857557 0.375000 3.795239
v 3.750002 0.375000 4.999997
v 4.580221 0.125000 4.603932
v 4.583338 0.125000 4.999997
v 2.023947 0.991139 2.089197
v 2.039125 0.991139 4.999997
v 3.813341 0.491139 3.751027
v 3.705790 0.491139 4.999997
v 2.905260 0.741139 3.016500
v 2.872458 0.741139 4.999997
v 4.536009 0.241139 4.559720
v 4.539125 0.241139 4.999997
v 2.561651 0.866139 2.483782
v 2.455790 0.866139 4.999997
v 3.369928 0.616139 3.348199
v 3.289125 0.616139 4.999997
v 4.178900 0.366139 4.224542
v 4.122458 0.366139 4.999997
v 4.955790 0.116139 4.999997
v 4.955786 0.116139 4.955787
v 0.000002 1.000000 4.999997
v 0.000002 1.000000 -0.000002
v 0.000002 0.000000 -0.000002
v 0.000002 0.000000 4.999997
v 5.000002 1.000000 1.666666
v 5.000002 0.000000 1.666666
v 5.000002 0.500000 3.333333
v 5.000002 0.750000 2.499998
v 5.000002 0.250000 4.166667
v 5.000002 0.875000 2.083334
v 5.000002 0.625000 2.916666
v 5.000002 0.375000 3.749999
v 5.000002 0.125000 4.583333
v 5.000002 0.991139 2.039122
v 5.000002 0.491139 3.705787
v 5.000002 0.741139 2.872454
v 5.000002 0.241139 4.539121
v 5.000002 0.866139 2.455786
v 5.000002 0.616139 3.289122
v 5.000002 0.366139 4.122453
v 5.000002 0.116139 4.955787
v 5.000002 1.000000 -0.000002
v 5.000002 0.000000 -0.000002
v 4.583338 0.125000 4.805472
v 4.539125 0.241139 4.784831
v 4.115366 0.250000 4.591363
v 4.045450 0.366139 4.570720
v 3.749773 0.375000 4.447204
v 3.705561 0.491139 4.426562
v 3.384451 0.500000 4.186860
v 3.273767 0.616139 4.166219
v 2.888853 0.625000 4.128280
v 2.815496 0.741139 4.107636
v 2.448736 0.750000 3.610496
v 2.404524 0.866139 3.589854
v 2.041281 0.875000 3.638320
v 1.967134 0.991139 3.617679
v 1.666670 1.000000 3.443795
v 0.000002 1.000000 2.665693
v 0.000002 0.000000 2.665693
v 2.320097 0.000000 -0.000002
v 2.320097 1.000000 -0.000002
v 3.213400 1.000000 1.666666
v 3.314394 0.991140 1.985559
v 3.338091 0.875000 2.050112
v 3.636351 0.866139 2.455786
v 3.660051 0.750000 2.499998
v 3.697359 0.741139 2.839136
v 3.721056 0.625000 2.883352
v 4.083002 0.616139 3.289122
v 4.106699 0.500000 3.333333
v 4.290476 0.491139 3.643744
v 4.314177 0.375000 3.710835
v 4.529654 0.366139 4.122453
v 4.553350 0.250000 4.166667
v 4.752981 0.241139 4.495225
v 4.776678 0.125000 4.583333
vt 0.020645 0.099018
vt 0.020645 0.099018
vt 0.020645 0.099018
vt 0.020645 0.099018
vt 0.020645 0.099018
vt 0.020645 0.099018
vt 0.020645 0.099018
vt 0.020645 0.099018
vt 0.020645 0.099018
vt 0.020645 0.099018
vt 0.020645 0.099018
vt 0.020645 0.099018
vt 0.020645 0.099018
vt 0.020645 0.099018
vt 0.020645 0.099018
vt 0.020645 0.099018
vt 0.020645 0.099018
vt 0.020645 0.099018
vt 0.020645 0.099018
vt 0.020645 0.099018
vt 0.020645 0.099018
vt 0.020645 0.099018
vt 0.020645 0.099018
vt 0.020645 0.099018
vt 0.020645 0.099018
vt 0.020645 0.099018
vt 0.020645 0.099018
vt 0.020645 0.099018
vt 0.020645 0.099018
vt 0.020645 0.099018
vt 0.020645 0.099018
vt 0.020645 0.099018
vt 0.020645 0.099018
vt 0.020645 0.099018
vt 0.020645 0.099018
vt 0.020645 0.099018
vt 0.020645 0.099018
vt 0.020645 0.099018
vt 0.020645 0.099018
vt 0.020645 0.099018
vt 0.020645 0.099018
vt 0.020645 0.099018
vt 0.020645 0.099018
vt 0.020645 0.099018
vt 0.020645 0.099018
vt 0.020645 0.099018
vt 0.020645 0.099018
vt 0.020645 0.099018
vt 0.020645 0.099018
vt 0.020645 0.099018
vt 0.020645 0.099018
vt 0.020645 0.099018
vt 0.020645 0.099018
vt 0.020645 0.099018
vt 0.020645 0.099018
vt 0.020645 0.099018
vt 0.020645 0.099018
vt 0.020645 0.099018
vt 0.020645 0.099018
vt 0.020645 0.099018
vt 0.020645 0.099018
vt 0.020645 0.099018
vt 0.020645 0.099018
vt 0.020645 0.099018
vt 0.020645 0.099018
vt 0.020645 0.099018
vt 0.020645 0.099018
vt 0.020645 0.099018
vt 0.020645 0.099018
vt 0.020645 0.099018
vt 0.020645 0.099018
vt 0.020645 0.099018
vt 0.020645 0.099018
vt 0.020645 0.099018
vt 0.020645 0.099018
vt 0.020645 0.099018
vt 0.020645 0.099018
vt 0.020645 0.099018
vt 0.020645 0.099018
vt 0.020645 0.099018
vt 0.020645 0.099018
vt 0.020645 0.099018
vt 0.020645 0.099018
vt 0.020645 0.099018
vt 0.020645 0.099018
vt 0.020645 0.099018
vt 0.020645 0.099018
vt 0.020645 0.099018
vt 0.020645 0.099018
vt 0.020645 0.099018
vt 0.020645 0.099018
vt 0.020645 0.099018
vt 0.020645 0.099018
vt 0.020645 0.099018
vt 0.020645 0.099018
vt 0.020645 0.099018
vt 0.020645 0.099018
vt 0.020645 0.099018
vt 0.020645 0.099018
vt 0.020645 0.099018
vt 0.020645 0.099018
vt 0.020645 0.099018
vt 0.020645 0.099018
vt 0.020645 0.099018
vt 0.020645 0.099018
vt 0.020645 0.099018
vt 0.020645 0.099018
vt 0.020645 0.099018
vt 0.020645 0.099018
vt 0.020645 0.099018
vt 0.020645 0.099018
vt 0.020645 0.099018
vt 0.020645 0.099018
vt 0.020645 0.099018
vt 0.020645 0.099018
vt 0.020645 0.099018
vt 0.020645 0.099018
vt 0.020645 0.099018
vt 0.020645 0.099018
vt 0.020645 0.099018
vt 0.020645 0.099018
vt 0.020645 0.099018
vt 0.020645 0.099018
vt 0.020645 0.099018
vt 0.020645 0.099018
vt 0.020645 0.099018
vt 0.020645 0.099018
vt 0.020645 0.099018
vt 0.020645 0.099018
vt 0.020645 0.099018
vt 0.020645 0.099018
vt 0.020645 0.099018
vt 0.020645 0.099018
vt 0.020645 0.099018
vt 0.020645 0.099018
vt 0.020645 0.099018
vt 0.020645 0.099018
vt 0.020645 0.099018
vt 0.020645 0.099018
vt 0.020645 0.099018
vt 0.020645 0.099018
vt 0.020645 0.099018
vt 0.020645 0.099018
vt 0.020645 0.099018
vt 0.020645 0.099018
vt 0.020645 0.099018
vt 0.020645 0.099018
vt 0.020645 0.099018
vn 0.000000 1.000000 0.000000
vn 0.000000 1.000000 0.000000
vn 0.000000 1.000000 0.000000
vn 0.000000 1.000000 0.000000
vn 0.000000 -1.000000 0.000000
vn 0.000000 -1.000000 0.000000
vn 0.000000 -1.000000 0.000000
vn 0.000000 -1.000000 0.000000
vn 0.000000 0.000001 1.000000
vn 0.000000 0.000000 1.000000
vn 0.000000 0.000000 1.000000
vn 0.000000 0.000001 1.000000
vn 0.026503 0.999649 -0.000249
vn 0.026511 0.999649 0.000116
vn 0.026493 0.999649 -0.000649
vn 0.026493 0.999649 -0.000649
vn 0.000000 0.000002 1.000000
vn 0.000000 0.000002 1.000000
vn 0.000000 0.000002 1.000000
vn 0.000000 0.000002 1.000000
vn 0.000000 0.000002 1.000000
vn 0.000000 0.000002 1.000000
vn 0.000000 0.000002 1.000000
vn 0.000000 0.000002 1.000000
vn 0.000000 0.000001 1.000000
vn 0.000000 0.000001 1.000000
vn 0.000000 -1.000000 0.000000
vn 0.000000 -1.000000 0.000000
vn 0.000000 -1.000000 0.000000
vn 0.024345 0.999703 0.001367
vn 0.023496 0.999722 0.001795
vn 0.025223 0.999681 0.000926
vn 0.025223 0.999682 0.000926
vn 0.024309 0.999704 -0.000330
vn 0.023159 0.999730 0.001847
vn 0.024755 0.999693 -0.001174
vn 0.024755 0.999693 -0.001174
vn 0.022243 0.999753 0.000185
vn 0.021894 0.999759 0.001737
vn 0.022705 0.999740 -0.001867
vn 0.022705 0.999741 -0.001867
vn 0.022099 0.999756 0.000603
vn 0.022431 0.999748 0.000360
vn 0.024027 0.999711 -0.000809
vn 0.024027 0.999711 -0.000809
vn 0.022280 0.999752 0.000669
vn 0.022189 0.999754 0.000769
vn 0.023421 0.999726 -0.000593
vn 0.023421 0.999726 -0.000593
vn 0.025403 0.999676 0.001440
vn 0.024791 0.999689 0.002889
vn 0.026905 0.999636 -0.002116
vn 0.026905 0.999636 -0.002116
vn 0.023783 0.999717 -0.000000
vn 0.023804 0.999717 -0.000051
vn 0.023870 0.999715 -0.000215
vn 0.023783 0.999717 -0.000000
vn 0.873127 0.487472 -0.004482
vn 0.869202 0.494454 0.001911
vn 0.891713 0.451082 -0.037062
vn 0.891713 0.451082 -0.037062
vn 0.000000 0.000000 1.000000
vn 0.000000 0.000000 1.000000
vn 0.000000 0.000000 1.000000
vn 0.924825 0.372977 0.074741
vn 0.922623 0.375669 0.087402
vn 0.934584 0.355743 -0.000380
vn 0.934584 0.355743 -0.000380
vn 0.000000 0.000000 1.000000
vn 0.000000 0.000000 1.000000
vn 0.000000 0.000000 1.000000
vn 0.889388 0.457039 0.010204
vn 0.888484 0.458486 0.019680
vn 0.892929 0.448147 -0.042912
vn 0.892929 0.448147 -0.042912
vn 0.000000 0.000000 1.000000
vn 0.000000 0.000000 1.000000
vn 0.000000 0.000000 1.000000
vn 0.935131 0.354247 -0.006239
vn 0.935256 0.353888 -0.007694
vn 0.934571 0.355778 0.000000
vn 0.934571 0.355778 0.000000
vn 0.000000 0.000000 1.000000
vn 0.000000 0.000000 1.000000
vn 0.000000 0.000000 1.000000
vn 0.929739 0.366819 0.032093
vn 0.927924 0.369764 0.047252
vn 0.935031 0.352908 -0.034244
vn 0.935031 0.352908 -0.034244
vn 0.000000 0.000000 1.000000
vn 0.000000 0.000000 1.000000
vn 0.000000 0.000000 1.000000
vn 0.827040 0.560746 0.039615
vn 0.826482 0.561363 0.042412
vn 0.831103 0.555826 0.018044
vn 0.831102 0.555826 0.018044
vn 0.000000 0.000000 1.000000
vn 0.000000 0.000000 1.000000
vn 0.000000 0.000000 1.000000
vn 0.884060 0.464324 0.053310
vn 0.879760 0.468387 0.081460
vn 0.893828 0.427009 -0.136874
vn 0.893828 0.427009 -0.136874
vn 0.000000 0.000000 1.000000
vn 0.000000 0.000000 1.000000
vn 0.000000 0.000000 1.000000
vn 0.000000 0.000017 1.000000
vn 0.000000 0.000017 1.000000
vn 0.000000 0.000017 1.000000
vn 0.934572 0.355774 -0.000081
vn 0.934572 0.355774 -0.000081
vn 0.934572 0.355774 -0.000081
vn -1.000000 0.000000 0.000000
vn -1.000000 0.000000 0.000000
vn -1.000000 0.000000 0.000000
vn -1.000000 0.000000 0.000000
vn 0.000000 1.000000 0.000000
vn 0.000000 1.000000 0.000000
vn 0.000000 1.000000 0.000000
vn 0.000000 1.000000 0.000000
vn 0.000000 -1.000000 0.000000
vn 0.000000 -1.000000 0.000000
vn 0.000000 -1.000000 0.000000
vn 0.000000 -1.000000 0.000000
vn 1.000000 -0.000000 0.000000
vn 1.000000 -0.000000 0.000000
vn 1.000000 0.000000 0.000000
vn 1.000000 0.000000 0.000000
vn 0.000318 0.999703 0.024359
vn 0.000088 0.999693 0.024785
vn -0.000396 0.999670 0.025682
vn -0.000396 0.999670 0.025682
vn 1.000000 -0.000000 0.000000
vn 1.000000 -0.000000 0.000000
vn 1.000000 -0.000000 0.000000
vn 1.000000 -0.000000 0.000000
vn 1.000000 -0.000000 0.000000
vn 1.000000 -0.000000 0.000000
vn 1.000000 -0.000000 0.000000
vn 1.000000 -0.000000 0.000000
vn 1.000000 -0.000000 0.000000
vn 1.000000 -0.000000 0.000000
vn 0.000000 -1.000000 0.000000
vn 0.000000 -1.000000 0.000000
vn 0.000000 -1.000000 0.000000
vn 0.001661 0.999696 0.024588
vn 0.000372 0.999678 0.025372
vn -0.001015 0.999656 0.026215
vn -0.001015 0.999656 0.026215
vn 0.000957 0.999741 0.022739
vn 0.000867 0.999738 0.022892
vn -0.000314 0.999690 0.024912
vn -0.000314 0.999690 0.024912
vn 0.003622 0.999706 0.023966
vn 0.001268 0.999693 0.024759
vn -0.001629 0.999668 0.025735
vn -0.001629 0.999668 0.025735
vn 0.000799 0.999737 0.022900
vn 0.000161 0.999738 0.022878
vn -0.000251 0.999739 0.022864
vn -0.000251 0.999739 0.022864
vn 0.002102 0.999753 0.022111
vn 0.000501 0.999743 0.022644
vn -0.000348 0.999737 0.022927
vn -0.000348 0.999737 0.022927
vn 0.002292 0.999796 0.020090
vn 0.001067 0.999775 0.021177
vn -0.000773 0.999740 0.022808
vn -0.000773 0.999740 0.022808
vn 0.000000 0.999717 0.023783
vn 0.000000 0.999717 0.023783
vn 0.001349 0.999731 0.023135
vn 0.000294 0.999721 0.023642
vn 0.024578 0.478511 0.877738
vn 0.014789 0.467230 0.884012
vn -0.023496 0.421978 0.906301
vn -0.023496 0.421978 0.906301
vn 1.000000 -0.000004 0.000000
vn 1.000000 -0.000004 0.000000
vn 1.000000 -0.000004 0.000000
vn 0.046059 0.448097 0.892798
vn 0.024535 0.444233 0.895575
vn -0.065456 0.425763 0.902464
vn -0.065456 0.425763 0.902464
vn 1.000000 -0.000004 0.000000
vn 1.000000 -0.000004 0.000000
vn 1.000000 -0.000004 0.000000
vn 0.075382 0.376214 0.923461
vn 0.054365 0.371741 0.926743
vn -0.024135 0.353534 0.935110
vn -0.024135 0.353534 0.935110
vn 1.000000 -0.000004 0.000000
vn 1.000000 -0.000004 0.000000
vn 1.000000 -0.000004 0.000000
vn 0.051197 0.511161 0.857959
vn 0.029837 0.507896 0.860901
vn -0.081156 0.487085 0.869576
vn -0.081156 0.487085 0.869576
vn 1.000000 -0.000004 0.000000
vn 1.000000 -0.000004 0.000000
vn 1.000000 -0.000004 0.000000
vn 0.012254 0.358876 0.933305
vn 0.009425 0.358166 0.933611
vn 0.000000 0.355776 0.934571
vn 0.000000 0.355776 0.934571
vn 1.000000 -0.000004 0.000000
vn 1.000000 -0.000004 0.000000
vn 1.000000 -0.000004 0.000000
vn 0.038522 0.365324 0.930083
vn 0.030069 0.363276 0.931197
vn 0.000000 0.355769 0.934574
vn 0.000000 0.355769 0.934574
vn 1.000000 -0.000004 0.000000
vn 1.000000 -0.000004 0.000000
vn 1.000000 -0.000004 0.000000
vn 0.128848 0.385503 0.913666
vn 0.106550 0.380820 0.918490
vn 0.000000 0.355789 0.934566
vn 0.000000 0.355789 0.934566
vn 1.000000 -0.000004 0.000000
vn 1.000000 -0.000004 0.000000
vn 1.000000 -0.000004 0.000000
vn 1.000000 -0.000004 0.000000
vn 1.000000 -0.000004 0.000000
vn 1.000000 -0.000004 0.000000
vn 0.000000 0.355778 0.934571
vn 0.000000 0.355778 0.934571
vn 0.000000 0.355778 0.934571
vn 0.000000 0.000000 -1.000000
vn 0.000000 0.000000 -1.000000
vn 0.000000 0.000000 -1.000000
vn 0.000000 0.000000 -1.000000
vn 0.023870 0.999715 -0.000215
vn 0.023804 0.999717 -0.000051
vn 0.023933 0.999714 -0.000370
vn 0.935748 0.352405 -0.013671
vn 0.935748 0.352405 -0.013671
vn 0.935256 0.353888 -0.007694
vn 0.935131 0.354247 -0.006239
vn 0.021366 0.999763 0.004082
vn 0.021366 0.999763 0.004082
vn 0.021894 0.999759 0.001737
vn 0.022243 0.999753 0.000185
vn 0.821834 0.486560 0.296393
vn 0.821834 0.486560 0.296393
vn 0.879760 0.468387 0.081460
vn 0.884060 0.464324 0.053310
vn 0.023601 0.999705 0.005704
vn 0.023601 0.999705 0.005704
vn 0.024791 0.999689 0.002889
vn 0.025403 0.999676 0.001440
vn 0.909889 0.387649 0.147751
vn 0.909889 0.387649 0.147751
vn 0.922623 0.375669 0.087402
vn 0.924825 0.372977 0.074741
vn 0.022823 0.999737 0.002134
vn 0.022823 0.999737 0.002134
vn 0.023496 0.999722 0.001795
vn 0.024345 0.999703 0.001367
vn 0.821905 0.566001 0.064148
vn 0.821905 0.566001 0.064148
vn 0.826482 0.561363 0.042412
vn 0.827040 0.560746 0.039615
vn 0.021284 0.999772 0.001770
vn 0.021284 0.999772 0.001770
vn 0.022189 0.999754 0.000769
vn 0.022280 0.999752 0.000669
vn 0.883499 0.464373 0.061548
vn 0.883499 0.464373 0.061548
vn 0.888484 0.458486 0.019680
vn 0.889388 0.457039 0.010204
vn 0.022768 0.999738 0.002586
vn 0.022768 0.999738 0.002586
vn 0.023159 0.999730 0.001847
vn 0.024309 0.999704 -0.000330
vn 0.913759 0.384486 0.131206
vn 0.913759 0.384486 0.131206
vn 0.927924 0.369764 0.047252
vn 0.929739 0.366819 0.032093
vn 0.020675 0.999785 0.001646
vn 0.020675 0.999785 0.001646
vn 0.022431 0.999748 0.000360
vn 0.022099 0.999756 0.000603
vn 0.851016 0.524295 0.029784
vn 0.851016 0.524295 0.029784
vn 0.869202 0.494454 0.001911
vn 0.873127 0.487472 -0.004482
vn 0.026520 0.999648 0.000456
vn 0.026520 0.999648 0.000456
vn 0.026511 0.999649 0.000116
vn 0.026503 0.999649 -0.000249
vn 0.000000 1.000000 0.000000
vn 0.000000 1.000000 0.000000
vn 0.000000 1.000000 0.000000
vn 0.000000 1.000000 0.000000
vn -1.000000 0.000000 0.000000
vn -1.000000 0.000000 0.000000
vn -1.000000 0.000000 0.000000
vn -1.000000 0.000000 0.000000
vn 0.000000 -1.000000 0.000000
vn 0.000000 -1.000000 0.000000
vn 0.000000 -1.000000 0.000000
vn 0.000000 -1.000000 0.000000
vn 0.000000 -1.000000 0.000000
vn 0.000000 -1.000000 0.000000
vn 0.000000 0.000000 -1.000000
vn 0.000000 0.000000 -1.000000
vn 0.000000 0.000000 -1.000000
vn 0.000000 0.000000 -1.000000
vn 0.000000 1.000000 0.000000
vn 0.000000 1.000000 0.000000
vn 0.000000 1.000000 0.000000
vn 0.000000 1.000000 0.000000
vn 0.000854 0.999727 0.023367
vn 0.000088 0.999693 0.024785
vn 0.000318 0.999703 0.024359
vn 0.000854 0.999727 0.023367
vn 0.072078 0.531563 0.843947
vn 0.014789 0.467230 0.884012
vn 0.024578 0.478511 0.877738
vn 0.072078 0.531563 0.843947
vn 0.001393 0.999736 0.022920
vn 0.000161 0.999738 0.022878
vn 0.000799 0.999737 0.022900
vn 0.001393 0.999736 0.022920
vn 0.024510 0.361920 0.931887
vn 0.009425 0.358166 0.933611
vn 0.012254 0.358876 0.933305
vn 0.024510 0.361920 0.931887
vn 0.002278 0.999788 0.020480
vn 0.000867 0.999738 0.022892
vn 0.000957 0.999741 0.022739
vn 0.002278 0.999788 0.020480
vn 0.202799 0.399635 0.893960
vn 0.054365 0.371741 0.926743
vn 0.075382 0.376214 0.923461
vn 0.202799 0.399635 0.893960
vn 0.003450 0.999759 0.021662
vn 0.000501 0.999743 0.022644
vn 0.002102 0.999753 0.022111
vn 0.003450 0.999759 0.021662
vn 0.077669 0.374450 0.923988
vn 0.030069 0.363276 0.931197
vn 0.038522 0.365324 0.930083
vn 0.077669 0.374450 0.923988
vn 0.003351 0.999717 0.023560
vn 0.000372 0.999678 0.025372
vn 0.001661 0.999696 0.024588
vn 0.003351 0.999717 0.023560
vn 0.177813 0.467043 0.866171
vn 0.024535 0.444233 0.895575
vn 0.046059 0.448097 0.892798
vn 0.177813 0.467043 0.866172
vn 0.004241 0.999822 0.018362
vn 0.001067 0.999775 0.021177
vn 0.002292 0.999796 0.020090
vn 0.004241 0.999822 0.018362
vn 0.262032 0.409322 0.873953
vn 0.106550 0.380820 0.918490
vn 0.128848 0.385503 0.913666
vn 0.262032 0.409322 0.873953
vn 0.006954 0.999715 0.022843
vn 0.001268 0.999693 0.024759
vn 0.003622 0.999706 0.023966
vn 0.006954 0.999715 0.022843
vn 0.171579 0.525036 0.833605
vn 0.029837 0.507896 0.860901
vn 0.051197 0.511161 0.857959
vn 0.171579 0.525036 0.833605
vn 0.000294 0.999721 0.023642
vn 0.001349 0.999731 0.023135
vn 0.002374 0.999741 0.022642
s off
f 73/125/1 74/127/2 36/46/3 3/4/4
f 75/129/5 5/8/6 4/6/7 39/50/8
f 3/5/9 36/47/10 39/51/11 4/7/12
f 72/124/13 73/125/14 3/4/15 21/31/16
f 1/1/17 19/29/18 11/17/19 17/26/20 7/11/21 15/23/22 9/14/23 13/20/24 3/5/25 4/7/26
f 5/8/27 1/2/28 4/6/29
f 64/116/30 65/117/31 7/10/32 23/33/33
f 68/120/34 69/121/35 9/13/36 25/35/37
f 60/112/38 61/113/39 11/16/40 27/37/41
f 70/122/42 71/123/43 13/19/44 29/39/45
f 66/118/46 67/119/47 15/22/48 31/41/49
f 62/114/50 63/115/51 17/25/52 33/43/53
f 34/44/54 35/45/55 59/111/56 19/28/57
f 71/123/58 72/124/59 21/31/60 13/19/61
f 13/19/62 21/31/63 3/4/64
f 63/115/65 64/116/66 23/33/67 17/25/68
f 17/25/69 23/33/70 7/10/71
f 67/119/72 68/120/73 25/35/74 15/22/75
f 15/22/76 25/35/77 9/13/78
f 59/111/79 60/112/80 27/37/81 19/28/82
f 19/28/83 27/37/84 11/16/85
f 69/121/86 70/122/87 29/39/88 9/13/89
f 9/13/90 29/39/91 13/19/92
f 65/117/93 66/118/94 31/41/95 7/10/96
f 7/10/97 31/41/98 15/22/99
f 61/113/100 62/114/101 33/43/102 11/16/103
f 11/16/104 33/43/105 17/25/106
f 1/1/107 34/44/108 19/28/109
f 1/1/110 35/45/111 34/44/112
f 74/126/113 75/128/114 39/54/115 36/53/116
f 77/132/117 78/134/118 40/57/119 57/58/120
f 5/63/121 76/130/122 58/61/123 41/62/124
f 40/64/125 41/65/126 58/66/127 57/67/128
f 78/134/129 79/135/130 49/69/131 40/57/132
f 1/70/133 41/65/134 40/64/135 45/71/136 43/72/137 46/73/138 42/74/139 47/75/140 44/76/141 48/77/142
f 5/63/143 41/62/144 1/78/145
f 86/142/146 87/143/147 50/80/148 42/81/149
f 82/138/150 83/139/151 51/84/152 43/85/153
f 90/146/154 91/147/155 52/88/156 44/89/157
f 80/136/158 81/137/159 53/92/160 45/93/161
f 84/140/162 85/141/163 54/96/164 46/97/165
f 88/144/166 89/145/167 55/100/168 47/101/169
f 56/103/170 48/104/171 92/148/172 35/106/173
f 79/135/174 80/136/175 45/93/176 49/69/177
f 45/93/178 40/57/179 49/69/180
f 87/143/181 88/144/182 47/101/183 50/80/184
f 47/101/185 42/81/186 50/80/187
f 83/139/188 84/140/189 46/97/190 51/84/191
f 46/97/192 43/85/193 51/84/194
f 91/147/195 92/148/196 48/104/197 52/88/198
f 48/104/199 44/89/200 52/88/201
f 81/137/202 82/138/203 43/85/204 53/92/205
f 43/85/206 45/93/207 53/92/208
f 85/141/209 86/142/210 42/81/211 54/96/212
f 42/81/213 46/97/214 54/96/215
f 89/145/216 90/146/217 44/89/218 55/100/219
f 44/89/220 47/101/221 55/100/222
f 1/70/223 48/104/224 56/103/225
f 1/70/226 56/103/227 35/106/228
f 76/131/229 77/133/230 57/108/231 58/109/232
f 59/111/233 35/45/234 18/27/235
f 18/27/236 26/36/237 60/112/238 59/111/239
f 26/36/240 10/15/241 61/113/242 60/112/243
f 10/15/244 32/42/245 62/114/246 61/113/247
f 32/42/248 16/24/249 63/115/250 62/114/251
f 16/24/252 22/32/253 64/116/254 63/115/255
f 22/32/256 6/9/257 65/117/258 64/116/259
f 6/9/260 30/40/261 66/118/262 65/117/263
f 30/40/264 14/21/265 67/119/266 66/118/267
f 14/21/268 24/34/269 68/120/270 67/119/271
f 24/34/272 8/12/273 69/121/274 68/120/275
f 8/12/276 28/38/277 70/122/278 69/121/279
f 28/38/280 12/18/281 71/123/282 70/122/283
f 12/18/284 20/30/285 72/124/286 71/123/287
f 20/30/288 2/3/289 73/125/290 72/124/291
f 2/3/292 37/48/293 74/127/294 73/125/295
f 37/52/296 38/55/297 75/128/298 74/126/299
f 38/49/300 5/8/301 75/129/302
f 38/60/303 76/130/304 5/63/305
f 37/107/306 77/133/307 76/131/308 38/110/309
f 2/56/310 78/134/311 77/132/312 37/59/313
f 20/68/314 79/135/315 78/134/316 2/56/317
f 12/94/318 80/136/319 79/135/320 20/68/321
f 28/91/322 81/137/323 80/136/324 12/94/325
f 8/86/326 82/138/327 81/137/328 28/91/329
f 24/83/330 83/139/331 82/138/332 8/86/333
f 14/98/334 84/140/335 83/139/336 24/83/337
f 30/95/338 85/141/339 84/140/340 14/98/341
f 6/82/342 86/142/343 85/141/344 30/95/345
f 22/79/346 87/143/347 86/142/348 6/82/349
f 16/102/350 88/144/351 87/143/352 22/79/353
f 32/99/354 89/145/355 88/144/356 16/102/357
f 10/90/358 90/146/359 89/145/360 32/99/361
f 26/87/362 91/147/363 90/146/364 10/90/365
f 18/105/366 92/148/367 91/147/368 26/87/369
f 35/106/370 92/148/371 18/105/372
