# This file uses centimeters as units for non-parametric coordinates.

v 0.037277 2.335456 0.012951
v 2.462723 2.335456 0.012951
v 2.462723 2.737678 0.012951
v 0.037277 2.737678 0.012951
v 0.037277 0.684419 0.012951
v 2.462723 0.684419 0.012951
v 2.462723 2.289442 0.012951
v 0.037277 2.289442 0.012951
v 2.537277 0.684419 0.012951
v 4.962723 0.684419 0.012951
v 4.962723 2.289442 0.012951
v 2.537277 2.289442 0.012951
v 2.537277 2.335456 0.012951
v 4.962723 2.335456 0.012951
v 4.962723 2.737678 0.012951
v 2.537277 2.737678 0.012951
vt 0.510888 0.084826
vt 0.601792 0.084826
vt 0.601792 0.102633
vt 0.510888 0.102633
vt 0.510888 0.011729
vt 0.601792 0.011729
vt 0.601792 0.082788
vt 0.510888 0.082788
vt 0.510888 0.011729
vt 0.601792 0.011729
vt 0.601792 0.082788
vt 0.510888 0.082788
vt 0.510888 0.084826
vt 0.601792 0.084826
vt 0.601792 0.102633
vt 0.510888 0.102633
vn 0.000000 0.000000 1.000000
vn 0.000000 0.000000 1.000000
vn 0.000000 0.000000 1.000000
vn 0.000000 0.000000 1.000000
vn 0.000000 0.000000 1.000000
vn 0.000000 0.000000 1.000000
vn 0.000000 0.000000 1.000000
vn 0.000000 0.000000 1.000000
vn 0.000000 0.000000 1.000000
vn 0.000000 0.000000 1.000000
vn 0.000000 0.000000 1.000000
vn 0.000000 0.000000 1.000000
vn 0.000000 0.000000 1.000000
vn 0.000000 0.000000 1.000000
vn 0.000000 0.000000 1.000000
vn 0.000000 0.000000 1.000000
s off
f 1/1/1 2/2/2 3/3/3 4/4/4
f 5/5/5 6/6/6 7/7/7 8/8/8
f 9/9/9 10/10/10 11/11/11 12/12/12
f 13/13/13 14/14/14 15/15/15 16/16/16
