# This file uses centimeters as units for non-parametric coordinates.

v -0.309155 0.000000 0.309155
v -0.309155 3.000001 0.309155
v -0.309155 1.499945 0.309155
v -0.325993 0.024447 0.325991
v -0.325993 1.475498 0.325991
v -0.325993 1.524393 0.325991
v -0.325993 2.975443 0.325991
v -0.309155 3.000001 0.000000
v -0.325993 2.975443 0.000000
v -0.325993 1.524393 0.000000
v -0.309155 1.499945 0.000000
v -0.325993 1.475498 0.000000
v -0.325993 0.024447 0.000000
v -0.309155 0.000000 0.000000
v 0.000000 0.000000 0.000000
v 0.000000 0.024447 0.000000
v 0.000000 1.475498 0.000000
v 0.000000 1.499945 0.000000
v 0.000000 1.524393 0.000000
v 0.000000 2.975443 0.000000
v 0.000000 3.000001 0.000000
v 0.000000 3.000001 0.309155
v 0.000000 2.975443 0.325991
v 0.000000 1.524393 0.325991
v 0.000000 1.499945 0.309155
v 0.000000 1.475498 0.325991
v 0.000000 0.024447 0.325991
v 0.000000 0.000000 0.309155
vt 0.023319 0.126693
vt 0.023319 0.126693
vt 0.023319 0.126693
vt 0.023319 0.126693
vt 0.021928 0.094277
vt 0.021928 0.094277
vt 0.021928 0.094277
vt 0.021928 0.094277
vt 0.021928 0.094277
vt 0.021928 0.094277
vt 0.021928 0.094277
vt 0.021928 0.094277
vt 0.023319 0.126693
vt 0.023319 0.126693
vt 0.023319 0.126693
vt 0.023319 0.126693
vt 0.021928 0.094277
vt 0.021928 0.094277
vt 0.021928 0.094277
vt 0.021928 0.094277
vt 0.023319 0.126693
vt 0.023319 0.126693
vt 0.023319 0.126693
vt 0.023319 0.126693
vt 0.023319 0.126693
vt 0.023319 0.126693
vt 0.023319 0.126693
vt 0.023319 0.126693
vt 0.021928 0.094277
vt 0.021928 0.094277
vt 0.021928 0.094277
vt 0.021928 0.094277
vn -1.000000 0.000000 0.000000
vn -1.000000 0.000000 0.000000
vn -1.000000 0.000000 0.000000
vn -1.000000 0.000000 0.000000
vn -1.000000 0.000000 0.000000
vn -1.000000 0.000000 0.000000
vn -1.000000 0.000000 0.000000
vn -1.000000 0.000000 0.000000
vn -0.823562 -0.567226 0.000000
vn -0.823562 -0.567226 0.000000
vn -0.823562 -0.567226 0.000000
vn -0.823562 -0.567226 0.000000
vn -0.823561 0.567227 0.000000
vn -0.823561 0.567227 0.000000
vn -0.823561 0.567227 0.000000
vn -0.823561 0.567227 0.000000
vn -0.823561 -0.567227 0.000000
vn -0.823561 -0.567227 0.000000
vn -0.823561 -0.567227 0.000000
vn -0.823561 -0.567227 0.000000
vn -0.824748 0.565500 0.000000
vn -0.824748 0.565500 0.000000
vn -0.824748 0.565500 0.000000
vn -0.824748 0.565500 0.000000
vn 0.000000 0.000000 -1.000000
vn 0.000000 0.000000 -1.000000
vn 0.000000 0.000000 -1.000000
vn 0.000000 0.000000 -1.000000
vn 0.000000 0.000000 -1.000000
vn 0.000000 0.000000 -1.000000
vn 0.000000 0.000000 -1.000000
vn 0.000000 0.000000 -1.000000
vn 0.000000 0.000000 -1.000000
vn 0.000000 0.000000 -1.000000
vn 0.000000 0.000000 -1.000000
vn 0.000000 0.000000 -1.000000
vn 0.000000 0.000000 -1.000000
vn 0.000000 0.000000 -1.000000
vn 0.000000 0.000000 -1.000000
vn 0.000000 0.000000 -1.000000
vn 0.000000 0.000000 -1.000000
vn 0.000000 0.000000 -1.000000
vn 0.000000 0.000000 -1.000000
vn 0.000000 0.000000 -1.000000
vn 0.000000 0.000000 -1.000000
vn 0.000000 0.000000 -1.000000
vn 0.000000 0.000000 -1.000000
vn 0.000000 0.000000 -1.000000
vn 0.000000 1.000000 0.000000
vn 0.000000 1.000000 0.000000
vn 0.000000 1.000000 0.000000
vn 0.000000 1.000000 0.000000
vn 0.000000 0.565455 0.824779
vn 0.000000 0.565455 0.824779
vn 0.000000 0.565455 0.824779
vn 0.000000 0.565455 0.824779
vn 0.000000 0.000000 1.000000
vn 0.000000 0.000000 1.000000
vn 0.000000 0.000000 1.000000
vn 0.000000 0.000000 1.000000
vn 0.000000 -0.567184 0.823591
vn 0.000000 -0.567184 0.823591
vn 0.000000 -0.567184 0.823591
vn 0.000000 -0.567184 0.823591
vn 0.000000 0.567183 0.823592
vn 0.000000 0.567183 0.823592
vn 0.000000 0.567183 0.823592
vn 0.000000 0.567183 0.823592
vn 0.000000 0.000000 1.000000
vn 0.000000 0.000000 1.000000
vn 0.000000 0.000000 1.000000
vn 0.000000 0.000000 1.000000
vn 0.000000 -0.567182 0.823592
vn 0.000000 -0.567182 0.823592
vn 0.000000 -0.567182 0.823592
vn 0.000000 -0.567182 0.823592
vn 1.000000 0.000000 0.000000
vn 1.000000 0.000000 0.000000
vn 1.000000 0.000000 0.000000
vn 1.000000 0.000000 0.000000
vn 1.000000 0.000000 0.000000
vn 1.000000 0.000000 0.000000
vn 1.000000 0.000000 0.000000
vn 1.000000 0.000000 0.000000
vn 1.000000 0.000000 0.000000
vn 1.000000 0.000000 0.000000
vn 1.000000 0.000000 0.000000
vn 1.000000 0.000000 0.000000
vn 1.000000 0.000000 0.000000
vn 1.000000 0.000000 0.000000
vn 1.000000 0.000000 0.000000
vn 1.000000 0.000000 0.000000
vn 1.000000 0.000000 0.000000
vn 1.000000 0.000000 0.000000
vn 1.000000 0.000000 0.000000
vn 1.000000 0.000000 0.000000
vn 1.000000 0.000000 0.000000
vn 1.000000 0.000000 0.000000
vn 1.000000 0.000000 0.000000
vn 1.000000 0.000000 0.000000
vn 0.000000 -1.000000 0.000000
vn 0.000000 -1.000000 0.000000
vn 0.000000 -1.000000 0.000000
vn 0.000000 -1.000000 0.000000
s off
f 9/1/1 10/2/2 6/3/3 7/4/4
f 12/5/5 13/6/6 4/7/7 5/8/8
f 13/6/9 14/9/10 1/10/11 4/7/12
f 3/11/13 11/12/14 12/5/15 5/8/16
f 10/2/17 11/13/18 3/14/19 6/3/20
f 2/15/21 8/16/22 9/1/23 7/4/24
f 16/17/25 15/18/26 14/9/27 13/6/28
f 17/19/29 16/17/30 13/6/31 12/5/32
f 18/20/33 17/19/34 12/5/35 11/12/36
f 19/21/37 18/22/38 11/13/39 10/2/40
f 20/23/41 19/21/42 10/2/43 9/1/44
f 21/24/45 20/23/46 9/1/47 8/16/48
f 2/15/49 22/25/50 21/24/51 8/16/52
f 23/26/53 22/25/54 2/15/55 7/4/56
f 6/3/57 24/27/58 23/26/59 7/4/60
f 3/14/61 25/28/62 24/27/63 6/3/64
f 26/29/65 25/30/66 3/11/67 5/8/68
f 4/7/69 27/31/70 26/29/71 5/8/72
f 1/10/73 28/32/74 27/31/75 4/7/76
f 23/26/77 20/23/78 21/24/79 22/25/80
f 25/28/81 18/22/82 19/21/83 24/27/84
f 26/29/85 17/19/86 18/20/87 25/30/88
f 24/27/89 19/21/90 20/23/91 23/26/92
f 16/17/93 27/31/94 28/32/95 15/18/96
f 16/17/97 17/19/98 26/29/99 27/31/100
f 28/32/101 1/10/102 14/9/103 15/18/104
