# This file uses centimeters as units for non-parametric coordinates.

v 0.066269 0.067312 0.006212
v 0.923462 0.067312 0.006212
v 0.923462 2.169382 0.006212
v 0.066269 2.169382 0.006212
v 0.066269 0.067312 -0.006212
v 0.066269 2.169382 -0.006212
v 0.923462 2.169382 -0.006212
v 0.923462 0.067312 -0.006212
vt 0.504894 0.005330
vt 0.605420 0.005330
vt 0.605420 0.105857
vt 0.504894 0.105857
vt 0.504894 0.005330
vt 0.504894 0.105857
vt 0.605420 0.105857
vt 0.605420 0.005330
vn 0.000000 0.000000 1.000000
vn 0.000000 0.000000 1.000000
vn 0.000000 0.000000 1.000000
vn 0.000000 0.000000 1.000000
vn 0.000000 0.000000 -1.000000
vn 0.000000 0.000000 -1.000000
vn 0.000000 0.000000 -1.000000
vn 0.000000 0.000000 -1.000000
s off
f 1/1/1 2/2/2 3/3/3 4/4/4
f 5/5/5 6/6/6 7/7/7 8/8/8
