# This file uses centimeters as units for non-parametric coordinates.

v 0.766266 1.565519 0.020336
v 0.766266 1.141235 0.020336
v 1.250008 1.141235 0.020336
v 1.733742 1.141235 0.020336
v 1.733742 1.565519 0.020336
v 0.766266 2.280862 0.020336
v 0.766266 1.655027 0.020336
v 1.733742 1.655790 0.020336
v 1.733742 2.280862 0.020336
v 1.250008 2.280862 0.020336
v 3.266258 2.280862 0.020336
v 3.266258 1.655790 0.020336
v 4.233742 1.655027 0.020336
v 4.233742 2.280862 0.020336
v 3.750000 2.280862 0.020336
v 3.266258 1.565519 0.020336
v 3.266258 1.141235 0.020336
v 3.750000 1.141235 0.020336
v 4.233742 1.141235 0.020336
v 4.233742 1.565519 0.020336
vt 0.507184 0.105214
vt 0.507184 0.009025
vt 0.555279 0.009025
vt 0.603373 0.009025
vt 0.603373 0.105214
vt 0.507184 0.105214
vt 0.507184 0.009025
vt 0.603373 0.009142
vt 0.603373 0.105214
vt 0.555279 0.105214
vt 0.507185 0.105214
vt 0.507185 0.009142
vt 0.603373 0.009025
vt 0.603373 0.105214
vt 0.555279 0.105214
vt 0.507185 0.105214
vt 0.507185 0.009025
vt 0.555279 0.009025
vt 0.603373 0.009025
vt 0.603373 0.105214
vn 0.000000 0.000000 1.000000
vn 0.000000 0.000000 1.000000
vn 0.000000 0.000000 1.000000
vn 0.000000 0.000000 1.000000
vn 0.000000 0.000000 1.000000
vn 0.000000 0.000000 1.000000
vn 0.000000 0.000000 1.000000
vn 0.000000 0.000000 1.000000
vn 0.000000 0.000000 1.000000
vn 0.000000 0.000000 1.000000
vn 0.000000 0.000000 1.000000
vn 0.000000 0.000000 1.000000
vn 0.000000 0.000000 1.000000
vn 0.000000 0.000000 1.000000
vn 0.000000 0.000000 1.000000
vn 0.000000 0.000000 1.000000
vn 0.000000 0.000000 1.000000
vn 0.000000 0.000000 1.000000
vn 0.000000 0.000000 1.000000
vn 0.000000 0.000000 1.000000
s off
f 1/1/1 2/2/2 3/3/3 4/4/4 5/5/5
f 6/6/6 7/7/7 8/8/8 9/9/9 10/10/10
f 11/11/11 12/12/12 13/13/13 14/14/14 15/15/15
f 16/16/16 17/17/17 18/18/18 19/19/19 20/20/20
