# This file uses centimeters as units for non-parametric coordinates.

v 0.764664 2.493971 0.050756
v 4.235336 2.493971 0.050756
v 0.764664 2.590408 0.050756
v 4.235336 2.590408 0.050756
v 0.764664 2.590408 0.000000
v 4.235336 2.590408 0.000000
v 0.764664 2.493971 0.000000
v 4.235336 2.493971 0.000000
v 0.764664 0.422056 0.050756
v 4.235336 0.422056 0.050756
v 0.764664 0.518492 0.050756
v 4.235336 0.518492 0.050756
v 0.764664 0.518492 0.000000
v 4.235336 0.518492 0.000000
v 0.764664 0.422056 0.000000
v 4.235336 0.422056 0.000000
v -0.000004 1.498608 0.150000
v 0.000000 1.498608 0.000000
v 0.000000 2.997215 0.000000
v -0.000004 2.997215 0.150000
v 0.019913 2.969422 0.157774
v 0.019913 1.526400 0.157774
v 0.000000 0.000000 0.000000
v -0.000004 0.000000 0.150000
v 0.624992 1.498608 0.150000
v 0.624992 0.000000 0.150000
v 0.000000 0.027793 0.157774
v 0.605087 0.027793 0.157774
v 0.605087 1.470815 0.157774
v 0.000000 1.470815 0.157774
v 0.624992 1.526400 0.157774
v 0.624992 2.969422 0.157774
v 0.624992 2.997215 0.150000
v 0.624992 2.997215 0.000000
v 0.624992 0.000000 0.000000
v 0.764664 1.452158 0.076943
v 0.664909 0.000000 0.076943
v 0.624992 0.000000 0.000000
v 0.764664 1.452158 0.000000
v 0.764664 1.572850 0.076943
v 0.764664 1.572850 0.000000
v 0.664909 2.997215 0.076943
v 0.624992 2.997215 0.000000
v 0.664909 2.997215 0.150000
v 0.664909 2.997215 0.076943
v 0.664909 1.526400 0.150000
v 0.664909 1.526400 0.076943
v 0.664909 1.498608 0.150000
v 0.664909 1.498608 0.076943
v 0.664909 0.000000 0.150000
v 0.664909 0.000000 0.076943
v 0.764664 2.854778 0.076943
v 0.764664 2.854778 0.000000
v 0.764664 0.145216 0.076943
v 0.764664 0.145216 0.000000
v 2.419548 1.572850 0.076943
v 2.419548 1.452158 0.076943
v 2.419548 1.452158 0.000000
v 2.419548 1.572850 0.000000
v 2.500000 2.997216 0.076943
v 2.419548 2.854778 0.076943
v 2.419548 2.854778 0.000000
v 2.500000 2.997216 0.000001
v 2.419548 0.145216 0.076943
v 2.419548 0.145216 0.000000
v 2.500000 0.000000 0.076943
v 2.500000 0.000000 0.000001
v 5.000008 1.498608 0.150000
v 5.000000 1.498608 0.000000
v 5.000000 2.997215 0.000000
v 5.000008 2.997215 0.150000
v 4.980087 2.969422 0.157774
v 4.980087 1.526400 0.157774
v 5.000000 0.000000 0.000000
v 5.000008 0.000000 0.150000
v 4.375008 1.498608 0.150000
v 4.375008 0.000000 0.150000
v 5.000000 0.027793 0.157774
v 4.394913 0.027793 0.157774
v 4.394913 1.470815 0.157774
v 5.000000 1.470815 0.157774
v 4.375008 1.526400 0.157774
v 4.375008 2.969422 0.157774
v 4.375008 2.997215 0.150000
v 4.375008 2.997215 0.000000
v 4.375008 0.000000 0.000000
v 4.235336 1.452158 0.076943
v 4.335091 0.000000 0.076943
v 4.375008 0.000000 0.000000
v 4.235336 1.452158 0.000000
v 4.235336 1.572850 0.076943
v 4.235336 1.572850 0.000000
v 4.335091 2.997215 0.076943
v 4.375008 2.997215 0.000000
v 4.335091 2.997215 0.150000
v 4.335091 2.997215 0.076943
v 4.335091 1.526400 0.150000
v 4.335091 1.526400 0.076943
v 4.335091 1.498608 0.150000
v 4.335091 1.498608 0.076943
v 4.335091 0.000000 0.150000
v 4.335091 0.000000 0.076943
v 4.235336 2.854778 0.076943
v 4.235336 2.854778 0.000000
v 4.235336 0.145216 0.076943
v 4.235336 0.145216 0.000000
v 2.580452 1.572850 0.076943
v 2.580452 1.452158 0.076943
v 2.580452 1.452158 0.000000
v 2.580452 1.572850 0.000000
v 2.580452 2.854778 0.076943
v 2.580452 2.854778 0.000000
v 2.580452 0.145216 0.076943
v 2.580452 0.145216 0.000000
vt 0.099875 0.300195
vt 0.099875 0.300195
vt 0.099875 0.300195
vt 0.099875 0.300195
vt 0.099875 0.300195
vt 0.099875 0.300195
vt 0.099875 0.300195
vt 0.099875 0.300195
vt 0.099875 0.300195
vt 0.099875 0.300195
vt 0.099875 0.300195
vt 0.099875 0.300195
vt 0.099875 0.300195
vt 0.099875 0.300195
vt 0.099875 0.300195
vt 0.099875 0.300195
vt 0.099875 0.300195
vt 0.099875 0.300195
vt 0.099875 0.300195
vt 0.099875 0.300195
vt 0.021390 0.145172
vt 0.021390 0.145172
vt 0.021390 0.145172
vt 0.021390 0.145172
vt 0.021390 0.145172
vt 0.021390 0.145172
vt 0.021390 0.145172
vt 0.021330 0.122191
vt 0.021330 0.122191
vt 0.021330 0.122191
vt 0.021330 0.122191
vt 0.021330 0.122191
vt 0.021330 0.122191
vt 0.021330 0.122191
vt 0.021330 0.122191
vt 0.021390 0.145172
vt 0.101704 0.303207
vt 0.101704 0.303207
vt 0.101704 0.303207
vt 0.101704 0.303207
vt 0.021330 0.122191
vt 0.021330 0.122191
vt 0.021330 0.122191
vt 0.021330 0.122191
vt 0.022512 0.121988
vt 0.022512 0.121988
vt 0.022512 0.121988
vt 0.022512 0.121988
vt 0.101704 0.303207
vt 0.101704 0.303207
vt 0.101704 0.303207
vt 0.101704 0.303207
vt 0.101704 0.303207
vt 0.101704 0.303207
vt 0.101704 0.303207
vt 0.101704 0.303207
vt 0.022512 0.121988
vt 0.022512 0.121988
vt 0.022512 0.121988
vt 0.022512 0.121988
vt 0.021330 0.122191
vt 0.021330 0.122191
vt 0.101704 0.303207
vt 0.101704 0.303207
vt 0.101704 0.303207
vt 0.101704 0.303207
vt 0.101704 0.303207
vt 0.101704 0.303207
vt 0.101704 0.303207
vt 0.101704 0.303207
vt 0.101704 0.303207
vt 0.101704 0.303207
vt 0.101704 0.303207
vt 0.101704 0.303207
vt 0.101704 0.303207
vt 0.101704 0.303207
vt 0.101704 0.303207
vt 0.101704 0.303207
vt 0.100971 0.303207
vt 0.100971 0.303207
vt 0.100971 0.303207
vt 0.100971 0.303207
vt 0.100971 0.303207
vt 0.100971 0.303207
vt 0.100971 0.303207
vt 0.100971 0.303207
vt 0.100971 0.303207
vt 0.100971 0.303207
vt 0.100971 0.303207
vt 0.100971 0.303207
vt 0.100971 0.303207
vt 0.100971 0.303207
vt 0.100971 0.303207
vt 0.100971 0.303207
vt 0.100971 0.303207
vt 0.100971 0.303207
vt 0.100971 0.303207
vt 0.100971 0.303207
vt 0.100971 0.303207
vt 0.100971 0.303207
vt 0.100971 0.303207
vt 0.100971 0.303207
vt 0.019703 0.100505
vt 0.019703 0.100505
vt 0.019703 0.100505
vt 0.019703 0.100505
vt 0.019703 0.100505
vt 0.019703 0.100505
vt 0.019703 0.100505
vt 0.021330 0.122191
vt 0.021330 0.122191
vt 0.021330 0.122191
vt 0.021330 0.122191
vt 0.021330 0.122191
vt 0.021330 0.122191
vt 0.021330 0.122191
vt 0.021330 0.122191
vt 0.019703 0.100505
vt 0.101704 0.303207
vt 0.101704 0.303207
vt 0.101704 0.303207
vt 0.101704 0.303207
vt 0.021330 0.122191
vt 0.021330 0.122191
vt 0.021330 0.122191
vt 0.021330 0.122191
vt 0.022512 0.121988
vt 0.022512 0.121988
vt 0.022512 0.121988
vt 0.022512 0.121988
vt 0.101704 0.303207
vt 0.101704 0.303207
vt 0.101704 0.303207
vt 0.101704 0.303207
vt 0.101704 0.303207
vt 0.101704 0.303207
vt 0.101704 0.303207
vt 0.101704 0.303207
vt 0.022512 0.121988
vt 0.022512 0.121988
vt 0.022512 0.121988
vt 0.022512 0.121988
vt 0.021330 0.122191
vt 0.021330 0.122191
vt 0.101704 0.303207
vt 0.101704 0.303207
vt 0.101704 0.303207
vt 0.101704 0.303207
vt 0.101704 0.303207
vt 0.101704 0.303207
vt 0.101704 0.303207
vt 0.101704 0.303207
vt 0.101704 0.303207
vt 0.101704 0.303207
vt 0.101704 0.303207
vt 0.101704 0.303207
vt 0.101704 0.303207
vt 0.101704 0.303207
vt 0.101704 0.303207
vt 0.101704 0.303207
vt 0.100971 0.303207
vt 0.100971 0.303207
vt 0.100971 0.303207
vt 0.100971 0.303207
vt 0.100971 0.303207
vt 0.100971 0.303207
vt 0.100971 0.303207
vt 0.100971 0.303207
vt 0.100971 0.303207
vt 0.100971 0.303207
vt 0.100971 0.303207
vt 0.100971 0.303207
vt 0.100971 0.303207
vt 0.100971 0.303207
vt 0.100971 0.303207
vt 0.100971 0.303207
vt 0.100971 0.303207
vt 0.100971 0.303207
vt 0.100971 0.303207
vt 0.100971 0.303207
vn 0.000000 0.000000 1.000000
vn 0.000000 0.000000 1.000000
vn 0.000000 0.000000 1.000000
vn 0.000000 0.000000 1.000000
vn 0.000000 1.000000 0.000000
vn 0.000000 1.000000 0.000000
vn 0.000000 1.000000 0.000000
vn 0.000000 1.000000 0.000000
vn 0.000000 -1.000000 0.000000
vn 0.000000 -1.000000 0.000000
vn 0.000000 -1.000000 0.000000
vn 0.000000 -1.000000 0.000000
vn 0.000000 0.000000 1.000000
vn 0.000000 0.000000 1.000000
vn 0.000000 0.000000 1.000000
vn 0.000000 0.000000 1.000000
vn 0.000000 1.000000 0.000000
vn 0.000000 1.000000 0.000000
vn 0.000000 1.000000 0.000000
vn 0.000000 1.000000 0.000000
vn 0.000000 -1.000000 0.000000
vn 0.000000 -1.000000 0.000000
vn 0.000000 -1.000000 0.000000
vn 0.000000 -1.000000 0.000000
vn 0.000000 0.000000 1.000000
vn 0.000000 0.000000 1.000000
vn 0.000000 0.000000 1.000000
vn 0.000000 0.000000 1.000000
vn 0.000000 0.269384 0.963033
vn 0.000000 0.269384 0.963033
vn 0.000000 0.269384 0.963033
vn 0.000000 0.269384 0.963033
vn -0.363626 0.000000 0.931545
vn -0.363626 0.000000 0.931545
vn -0.363626 0.000000 0.931545
vn -0.363626 0.000000 0.931545
vn 0.000000 0.000000 1.000000
vn 0.000000 0.000000 1.000000
vn 0.000000 0.000000 1.000000
vn 0.000000 0.000000 1.000000
vn 0.000000 -0.269384 0.963033
vn 0.000000 -0.269384 0.963033
vn 0.000000 -0.269384 0.963033
vn 0.000000 -0.269384 0.963033
vn 0.363807 0.000000 0.931474
vn 0.363807 0.000000 0.931474
vn 0.363807 0.000000 0.931474
vn 0.363807 0.000000 0.931474
vn 0.000000 0.269383 0.963033
vn 0.000000 0.269383 0.963033
vn 0.000000 0.269383 0.963033
vn 0.000000 0.269383 0.963033
vn -1.000000 0.000000 0.000491
vn -1.000000 0.000000 0.000491
vn -1.000000 0.000000 0.000491
vn -1.000000 0.000000 0.000491
vn 0.000000 -0.269392 0.963031
vn 0.000000 -0.269394 0.963030
vn 0.000000 -0.269392 0.963031
vn 0.000000 -0.269392 0.963031
vn 0.000000 -0.269394 0.963030
vn 0.000000 -0.269394 0.963030
vn 1.000000 0.000000 0.000000
vn 1.000000 0.000000 0.000000
vn 1.000000 0.000000 0.000000
vn 1.000000 0.000000 0.000000
vn -1.000000 0.000000 -0.000025
vn -1.000000 0.000000 -0.000025
vn -1.000000 0.000000 -0.000025
vn -1.000000 0.000000 -0.000025
vn 0.000000 1.000000 -0.000000
vn 0.000000 1.000000 -0.000000
vn 0.000000 1.000000 -0.000000
vn 0.000000 1.000000 -0.000000
vn 1.000000 0.000000 0.000000
vn 1.000000 0.000000 0.000000
vn 1.000000 0.000000 0.000000
vn 1.000000 0.000000 0.000000
vn 1.000000 0.000000 0.000000
vn 1.000000 0.000000 0.000000
vn 1.000000 0.000000 0.000000
vn 1.000000 0.000000 0.000000
vn 1.000000 0.000000 0.000000
vn 1.000000 0.000000 0.000000
vn 1.000000 0.000000 0.000000
vn 1.000000 0.000000 0.000000
vn 0.000000 -1.000000 0.000000
vn 0.000000 -1.000000 0.000000
vn 0.000000 -1.000000 0.000000
vn 0.000000 -1.000000 0.000000
vn -1.000000 0.000000 -0.000025
vn -1.000000 0.000000 -0.000025
vn -1.000000 0.000000 -0.000025
vn -1.000000 0.000000 -0.000025
vn 0.000000 0.000000 1.000000
vn 0.000000 0.000000 1.000000
vn 0.000000 0.000000 1.000000
vn 0.000000 0.000000 1.000000
vn 0.000000 0.000000 0.000000
vn 0.000000 0.000000 0.000000
vn 0.000000 0.000000 0.000000
vn 0.000000 0.000000 0.000000
vn -0.000000 0.000000 1.000000
vn -0.000000 0.000000 1.000000
vn -0.000000 0.000000 1.000000
vn -0.000000 0.000000 1.000000
vn 0.000000 0.000000 1.000000
vn 0.000000 0.000000 1.000000
vn 0.000000 0.000000 0.000000
vn 0.000000 0.000000 0.000000
vn 0.000000 0.000000 0.000000
vn 0.000000 0.000000 0.000000
vn 0.000000 0.000000 0.000000
vn 0.000000 0.269384 0.963033
vn 0.000000 0.269384 0.963033
vn 0.000000 0.269384 0.963033
vn 0.000000 1.000000 0.000000
vn 0.000000 1.000000 0.000000
vn 0.000000 1.000000 0.000000
vn 0.000000 1.000000 0.000000
vn 0.191171 0.000000 0.981557
vn 0.191171 0.000000 0.981557
vn 0.191171 0.000000 0.981557
vn 0.191171 0.000000 0.981557
vn 0.095997 -0.137879 0.985786
vn 0.095997 -0.137879 0.985786
vn 0.095997 -0.137879 0.985786
vn 0.095997 -0.137879 0.985786
vn 0.000000 0.000000 1.000000
vn 0.000000 0.000000 1.000000
vn 0.000000 0.000000 1.000000
vn 0.000000 0.000000 1.000000
vn 0.000000 -1.000000 0.000000
vn 0.000000 -1.000000 0.000000
vn 0.000000 -1.000000 0.000000
vn 0.000000 -1.000000 0.000000
vn 0.000000 0.000000 1.000000
vn 0.000000 0.000000 1.000000
vn 0.000000 0.000000 1.000000
vn 0.000000 0.000000 1.000000
vn 1.000000 0.000000 0.000000
vn 1.000000 0.000000 0.000000
vn 1.000000 0.000000 0.000000
vn 1.000000 0.000000 0.000000
vn 0.000000 0.000000 1.000000
vn 0.000000 0.000000 1.000000
vn 0.000000 0.000000 0.000000
vn 0.000000 0.000000 1.000000
vn 0.000000 0.000000 1.000000
vn 0.000000 0.000000 1.000000
vn 0.000000 0.000000 1.000000
vn 0.000000 -1.000000 0.000000
vn 0.000000 -1.000000 0.000000
vn 0.000000 -1.000000 0.000000
vn 0.000000 -1.000000 0.000000
vn 0.000000 1.000000 0.000000
vn 0.000000 1.000000 0.000000
vn 0.000000 1.000000 0.000000
vn 0.000000 1.000000 0.000000
vn -0.000000 0.000000 1.000000
vn -0.000000 0.000000 1.000000
vn -0.000000 0.000000 1.000000
vn -0.000000 0.000000 1.000000
vn 0.000000 -1.000000 0.000000
vn 0.000000 -1.000000 0.000000
vn 0.000000 -1.000000 0.000000
vn 0.000000 -1.000000 0.000000
vn -0.000001 1.000000 0.000000
vn -0.000001 1.000000 0.000000
vn -0.000001 1.000000 0.000000
vn -0.000001 1.000000 0.000000
vn 0.000000 1.000000 0.000000
vn 0.000000 1.000000 0.000000
vn 0.000000 1.000000 0.000000
vn 0.000000 1.000000 0.000000
vn 0.000000 0.000000 1.000000
vn 0.000000 0.000000 1.000000
vn 0.000000 0.000000 1.000000
vn 0.000000 0.000000 1.000000
vn 0.000000 -1.000000 0.000000
vn 0.000000 -1.000000 0.000000
vn 0.000000 -1.000000 0.000000
vn 0.000000 -1.000000 0.000000
vn 0.000000 0.000000 1.000000
vn 0.000000 0.000000 1.000000
vn 0.000000 0.000000 1.000000
vn 0.000000 0.000000 1.000000
vn 0.000000 0.269383 0.963033
vn 0.000000 0.269383 0.963033
vn 0.000000 0.269383 0.963033
vn 0.000000 0.269383 0.963033
vn 0.363565 0.000000 0.931569
vn 0.363565 0.000000 0.931569
vn 0.363565 0.000000 0.931569
vn 0.363565 0.000000 0.931569
vn 0.000000 0.000000 1.000000
vn 0.000000 0.000000 1.000000
vn 0.000000 0.000000 1.000000
vn 0.000000 0.000000 1.000000
vn 0.000000 -0.269384 0.963033
vn 0.000000 -0.269384 0.963033
vn 0.000000 -0.269384 0.963033
vn 0.000000 -0.269384 0.963033
vn -0.363807 0.000000 0.931475
vn -0.363807 0.000000 0.931475
vn -0.363807 0.000000 0.931475
vn -0.363807 0.000000 0.931475
vn 0.000000 0.269384 0.963033
vn 0.000000 0.269384 0.963033
vn 0.000000 0.269384 0.963033
vn 0.000000 0.269384 0.963033
vn 1.000000 0.000000 0.000981
vn 1.000000 0.000000 0.000981
vn 1.000000 0.000000 0.000981
vn 1.000000 0.000000 0.000981
vn 0.000000 -0.269390 0.963031
vn 0.000000 -0.269391 0.963031
vn 0.000000 -0.269394 0.963030
vn 0.000000 -0.269391 0.963031
vn 0.000000 -0.269394 0.963030
vn 0.000000 -0.269394 0.963030
vn -1.000000 0.000000 0.000000
vn -1.000000 0.000000 0.000000
vn -1.000000 0.000000 0.000000
vn -1.000000 0.000000 0.000000
vn 1.000000 0.000000 -0.000051
vn 1.000000 0.000000 -0.000051
vn 1.000000 0.000000 -0.000051
vn 1.000000 0.000000 -0.000051
vn 0.000000 1.000000 0.000000
vn 0.000000 1.000000 0.000000
vn 0.000000 1.000000 0.000000
vn 0.000000 1.000000 0.000000
vn -1.000000 0.000000 0.000000
vn -1.000000 0.000000 0.000000
vn -1.000000 0.000000 0.000000
vn -1.000000 0.000000 0.000000
vn -1.000000 0.000000 0.000000
vn -1.000000 0.000000 0.000000
vn -1.000000 0.000000 0.000000
vn -1.000000 0.000000 0.000000
vn -1.000000 0.000000 0.000000
vn -1.000000 0.000000 0.000000
vn -1.000000 0.000000 0.000000
vn -1.000000 0.000000 0.000000
vn 0.000000 -1.000000 0.000000
vn 0.000000 -1.000000 0.000000
vn 0.000000 -1.000000 0.000000
vn 0.000000 -1.000000 0.000000
vn 1.000000 0.000000 -0.000051
vn 1.000000 0.000000 -0.000051
vn 1.000000 0.000000 -0.000051
vn 1.000000 0.000000 -0.000051
vn -0.000000 0.000000 1.000000
vn -0.000000 0.000000 1.000000
vn -0.000000 0.000000 1.000000
vn -0.000000 0.000000 1.000000
vn 0.000000 0.000000 0.000000
vn 0.000000 0.000000 0.000000
vn 0.000000 0.000000 0.000000
vn 0.000000 0.000000 0.000000
vn 0.000000 0.000000 1.000000
vn 0.000000 0.000000 1.000000
vn 0.000000 0.000000 1.000000
vn 0.000000 0.000000 1.000000
vn -0.000000 0.000000 1.000000
vn 0.000000 0.000000 0.000000
vn -0.000000 0.000000 1.000000
vn 0.000000 0.000000 0.000000
vn 0.000000 0.000000 0.000000
vn 0.000000 0.000000 0.000000
vn 0.000000 0.000000 0.000000
vn 0.000000 0.269387 0.963032
vn 0.000000 0.269387 0.963032
vn 0.000000 0.269387 0.963032
vn 0.000000 1.000000 0.000000
vn 0.000000 1.000000 0.000000
vn 0.000000 1.000000 0.000000
vn 0.000000 1.000000 0.000000
vn -0.191171 0.000000 0.981557
vn -0.191171 0.000000 0.981557
vn -0.191171 0.000000 0.981557
vn -0.191171 0.000000 0.981557
vn -0.095997 -0.137880 0.985786
vn -0.095997 -0.137880 0.985786
vn -0.095997 -0.137880 0.985786
vn -0.095997 -0.137880 0.985786
vn 0.000000 0.000000 1.000000
vn 0.000000 0.000000 1.000000
vn 0.000000 0.000000 1.000000
vn 0.000000 0.000000 1.000000
vn 0.000000 -1.000000 0.000000
vn 0.000000 -1.000000 0.000000
vn 0.000000 -1.000000 0.000000
vn 0.000000 -1.000000 0.000000
vn -0.000000 0.000000 1.000000
vn -0.000000 0.000000 1.000000
vn -0.000000 0.000000 1.000000
vn -0.000000 0.000000 1.000000
vn -1.000000 0.000000 0.000000
vn -1.000000 0.000000 0.000000
vn -1.000000 0.000000 0.000000
vn -1.000000 0.000000 0.000000
vn -0.000000 0.000000 1.000000
vn 0.000000 0.000000 0.000000
vn -0.000000 0.000000 1.000000
vn 0.000000 0.000000 1.000000
vn 0.000000 0.000000 1.000000
vn 0.000000 0.000000 1.000000
vn 0.000000 0.000000 1.000000
vn 0.000000 -1.000000 0.000000
vn 0.000000 -1.000000 0.000000
vn 0.000000 -1.000000 0.000000
vn 0.000000 -1.000000 0.000000
vn 0.000000 1.000000 0.000000
vn 0.000000 1.000000 0.000000
vn 0.000000 1.000000 0.000000
vn 0.000000 1.000000 0.000000
vn 0.000000 0.000000 1.000000
vn 0.000000 0.000000 1.000000
vn 0.000000 0.000000 1.000000
vn 0.000000 0.000000 1.000000
vn 0.000000 -1.000000 0.000000
vn 0.000000 -1.000000 0.000000
vn 0.000000 -1.000000 0.000000
vn 0.000000 -1.000000 0.000000
vn 0.000001 1.000000 0.000001
vn 0.000001 1.000000 0.000001
vn 0.000001 1.000000 0.000001
vn 0.000001 1.000000 0.000001
vn 0.000000 1.000000 0.000000
vn 0.000000 1.000000 0.000000
vn 0.000000 1.000000 0.000000
vn 0.000000 1.000000 0.000000
vn 0.000000 0.000000 1.000000
vn 0.000000 0.000000 1.000000
vn 0.000000 0.000000 1.000000
vn 0.000000 0.000000 1.000000
vn 0.000000 -1.000000 0.000000
vn 0.000000 -1.000000 0.000000
vn 0.000000 -1.000000 0.000000
vn 0.000000 -1.000000 0.000000
vn 0.000000 0.000000 1.000000
vn 0.000000 0.000000 1.000000
vn 0.000000 0.000000 1.000000
vn 0.000000 0.000000 1.000000
vn -1.000000 0.000000 0.000000
vn -1.000000 0.000000 0.000000
vn -1.000000 0.000000 0.000000
vn -1.000000 0.000000 0.000000
vn 0.000000 0.000000 1.000000
vn 0.000000 0.000000 1.000000
vn 0.000000 0.000000 1.000000
vn 0.000000 0.000000 1.000000
vn 1.000000 0.000000 0.000000
vn 1.000000 0.000000 0.000000
vn 1.000000 0.000000 0.000000
vn 1.000000 0.000000 0.000000
vn 1.000000 0.000000 0.000000
vn 1.000000 0.000000 0.000000
vn 1.000000 0.000000 0.000000
vn 1.000000 0.000000 0.000000
vn 0.000000 0.000000 1.000000
vn 0.000000 0.000000 1.000000
vn 0.000000 0.000000 1.000000
vn 0.000000 0.000000 1.000000
vn -1.000000 0.000000 0.000000
vn -1.000000 0.000000 0.000000
vn -1.000000 0.000000 0.000000
vn -1.000000 0.000000 0.000000
vn 0.000000 0.000000 1.000000
vn 0.000000 0.000000 1.000000
vn 0.000000 0.000000 1.000000
vn 0.000000 0.000000 1.000000
vn 0.000000 0.000000 1.000000
vn 0.000000 0.000000 1.000000
s off
f 1/1/1 2/2/2 4/4/3 3/3/4
f 3/3/5 4/4/6 6/6/7 5/5/8
f 7/7/9 8/8/10 2/10/11 1/9/12
f 9/11/13 10/12/14 12/13/15 11/14/16
f 11/14/17 12/13/18 14/15/19 13/16/20
f 15/18/21 16/17/22 10/19/23 9/20/24
f 21/21/25 22/22/26 31/23/27 32/24/28
f 21/21/29 32/24/30 33/25/31 20/26/32
f 20/26/33 17/27/34 22/22/35 21/21/36
f 27/28/37 28/29/38 29/30/39 30/31/40
f 24/32/41 26/33/42 28/29/43 27/28/44
f 26/33/45 25/34/46 29/30/47 28/29/48
f 25/34/49 17/35/50 30/31/51 29/30/52
f 17/35/53 24/32/54 27/28/55 30/31/56
f 17/27/57 25/36/58 22/22/59
f 22/22/60 25/36/61 31/23/62
f 36/37/63 54/38/64 55/39/65 39/40/66
f 19/41/67 18/42/68 17/43/69 20/44/70
f 20/45/71 33/46/72 34/47/73 19/48/74
f 44/49/75 46/50/76 47/51/77 45/52/78
f 46/50/79 48/53/80 49/54/81 47/51/82
f 48/53/83 50/55/84 51/56/85 49/54/86
f 24/57/87 23/58/88 35/59/89 26/60/90
f 18/61/91 23/62/92 24/32/93 17/35/94
f 49/54/95 51/56/96 54/38/97 36/37/98
f 51/56/99 35/63/100 38/64/101 37/65/102
f 47/51/103 49/54/104 36/37/105 40/66/106
f 45/52/107 52/67/108 42/68/109
f 34/69/110 45/52/111 42/68/112 43/70/113
f 33/71/114 32/72/115 44/49/116
f 34/73/117 33/71/118 44/49/119 45/52/120
f 32/72/121 31/74/122 46/50/123 44/49/124
f 31/74/125 25/75/126 48/53/127 46/50/128
f 25/75/129 26/76/130 50/55/131 48/53/132
f 26/76/133 35/63/134 51/56/135 50/55/136
f 45/52/137 47/51/138 40/66/139 52/67/140
f 53/77/141 52/67/142 40/66/143 41/78/144
f 54/38/145 51/56/146 37/65/147
f 40/79/148 36/80/149 57/81/150 56/82/151
f 36/80/152 39/83/153 58/84/154 57/81/155
f 41/85/156 40/79/157 56/82/158 59/86/159
f 42/87/160 52/88/161 61/89/162 60/90/163
f 52/88/164 53/91/165 62/92/166 61/89/167
f 43/93/168 42/87/169 60/90/170 63/94/171
f 55/95/172 54/96/173 64/97/174 65/98/175
f 54/96/176 37/99/177 66/100/178 64/97/179
f 37/99/180 38/101/181 67/102/182 66/100/183
f 72/103/184 83/104/185 82/105/186 73/106/187
f 72/103/188 71/107/189 84/108/190 83/104/191
f 71/107/192 72/103/193 73/106/194 68/109/195
f 78/110/196 81/111/197 80/112/198 79/113/199
f 75/114/200 78/110/201 79/113/202 77/115/203
f 77/115/204 79/113/205 80/112/206 76/116/207
f 76/116/208 80/112/209 81/111/210 68/117/211
f 68/117/212 81/111/213 78/110/214 75/114/215
f 68/109/216 73/106/217 76/118/218
f 73/106/219 82/105/220 76/118/221
f 87/119/222 90/120/223 106/121/224 105/122/225
f 70/123/226 71/124/227 68/125/228 69/126/229
f 71/127/230 70/128/231 85/129/232 84/130/233
f 95/131/234 96/132/235 98/133/236 97/134/237
f 97/134/238 98/133/239 100/135/240 99/136/241
f 99/136/242 100/135/243 102/137/244 101/138/245
f 75/139/246 77/140/247 86/141/248 74/142/249
f 69/143/250 68/117/251 75/114/252 74/144/253
f 100/135/254 87/119/255 105/122/256 102/137/257
f 102/137/258 88/145/259 89/146/260 86/147/261
f 98/133/262 91/148/263 87/119/264 100/135/265
f 96/132/266 93/149/267 103/150/268
f 85/151/269 94/152/270 93/149/271 96/132/272
f 84/153/273 95/131/274 83/154/275
f 85/155/276 96/132/277 95/131/278 84/153/279
f 83/154/280 95/131/281 97/134/282 82/156/283
f 82/156/284 97/134/285 99/136/286 76/157/287
f 76/157/288 99/136/289 101/138/290 77/158/291
f 77/158/292 101/138/293 102/137/294 86/147/295
f 96/132/296 103/150/297 91/148/298 98/133/299
f 104/159/300 92/160/301 91/148/302 103/150/303
f 105/122/304 88/145/305 102/137/306
f 91/161/307 107/162/308 108/163/309 87/164/310
f 87/164/311 108/163/312 109/165/313 90/166/314
f 92/168/315 110/167/316 107/162/317 91/161/318
f 93/169/319 60/90/320 111/170/321 103/171/322
f 103/171/323 111/170/324 112/172/325 104/173/326
f 94/174/327 63/94/328 60/90/329 93/169/330
f 106/175/331 114/176/332 113/177/333 105/178/334
f 105/178/335 113/177/336 66/100/337 88/179/338
f 88/179/339 66/100/340 67/102/341 89/180/342
f 57/81/343 108/163/344 107/162/345 56/82/346
f 59/86/347 56/82/348 61/89/349 62/92/350
f 56/82/351 107/162/352 111/170/353 61/89/354
f 107/162/355 110/167/356 112/172/357 111/170/358
f 109/165/359 108/163/360 113/177/361 114/176/362
f 108/163/363 57/81/364 64/97/365 113/177/366
f 57/81/367 58/84/368 65/98/369 64/97/370
f 66/100/371 113/177/372 64/97/373
f 61/89/374 111/170/375 60/90/376
