# This file uses centimeters as units for non-parametric coordinates.

v -0.309154 0.193984 0.309155
v 0.309154 0.193984 0.309155
v -0.309154 3.000001 0.309155
v 0.309154 3.000001 0.309155
v -0.309154 1.596993 0.309155
v 0.309154 1.596993 0.309155
v -0.325991 0.216852 0.325991
v 0.325991 0.216852 0.325991
v 0.325991 1.574125 0.325991
v -0.325991 1.574125 0.325991
v -0.325991 1.619860 0.325991
v 0.325991 1.619860 0.325991
v 0.325991 2.977134 0.325991
v -0.325991 2.977134 0.325991
v 0.356835 0.139783 0.356834
v -0.356835 0.139783 0.356834
v 0.356835 -0.000000 0.356834
v -0.356835 -0.000000 0.356834
v -0.356835 -0.000000 0.000000
v 0.356835 -0.000000 0.000000
v 0.356835 0.139783 0.000000
v 0.309154 0.193984 0.000000
v 0.325991 0.216852 0.000000
v 0.325991 1.574125 0.000000
v 0.309154 1.596993 0.000000
v 0.325991 1.619860 0.000000
v 0.325991 2.977134 0.000000
v 0.309154 3.000001 0.000000
v -0.309154 3.000001 0.000000
v -0.325991 2.977134 0.000000
v -0.325991 1.619860 0.000000
v -0.309154 1.596993 0.000000
v -0.325991 1.574125 0.000000
v -0.325991 0.216852 0.000000
v -0.309154 0.193984 0.000000
v -0.356835 0.139783 0.000000
vt 0.032340 0.139430
vt 0.032340 0.139430
vt 0.032340 0.139430
vt 0.032340 0.139430
vt 0.032340 0.139430
vt 0.032340 0.139430
vt 0.032340 0.139430
vt 0.032340 0.139430
vt 0.032340 0.139430
vt 0.032340 0.139430
vt 0.032340 0.139430
vt 0.032340 0.139430
vt 0.032340 0.139430
vt 0.032340 0.139430
vt 0.032340 0.139430
vt 0.032340 0.139430
vt 0.032340 0.139430
vt 0.032340 0.139430
vt 0.032340 0.139430
vt 0.032340 0.139430
vt 0.032340 0.139430
vt 0.032340 0.139430
vt 0.032340 0.139430
vt 0.032340 0.139430
vt 0.032340 0.139430
vt 0.032340 0.139430
vt 0.032340 0.139430
vt 0.032340 0.139430
vt 0.032340 0.139430
vt 0.032340 0.139430
vt 0.032340 0.139430
vt 0.032340 0.139430
vt 0.032340 0.139430
vt 0.032340 0.139430
vt 0.032340 0.139430
vt 0.032340 0.139430
vt 0.032340 0.139430
vt 0.032340 0.139430
vt 0.032340 0.139430
vt 0.032340 0.139430
vt 0.032340 0.139430
vt 0.032340 0.139430
vn 0.000000 0.000000 1.000000
vn 0.000000 0.000000 1.000000
vn 0.000000 0.000000 1.000000
vn 0.000000 0.000000 1.000000
vn 0.000000 1.000000 0.000000
vn 0.000000 1.000000 0.000000
vn 0.000000 1.000000 0.000000
vn 0.000000 1.000000 0.000000
vn 0.000000 -1.000000 0.000000
vn 0.000000 -1.000000 0.000000
vn 0.000000 -1.000000 0.000000
vn 0.000000 -1.000000 0.000000
vn 1.000000 0.000000 0.000000
vn 1.000000 0.000000 0.000000
vn 1.000000 0.000000 0.000000
vn 1.000000 0.000000 0.000000
vn -1.000000 0.000000 0.000000
vn -1.000000 0.000000 0.000000
vn -1.000000 0.000000 0.000000
vn -1.000000 0.000000 0.000000
vn 0.000000 0.000000 1.000000
vn 0.000000 0.000000 1.000000
vn 0.000000 0.000000 1.000000
vn 0.000000 0.000000 1.000000
vn 1.000000 0.000000 0.000000
vn 1.000000 0.000000 0.000000
vn 1.000000 0.000000 0.000000
vn 1.000000 0.000000 0.000000
vn -1.000000 0.000000 0.000000
vn -1.000000 0.000000 0.000000
vn -1.000000 0.000000 0.000000
vn -1.000000 0.000000 0.000000
vn 0.000000 -0.592890 0.805283
vn 0.000000 -0.592890 0.805283
vn 0.000000 -0.592890 0.805283
vn 0.000000 -0.592890 0.805283
vn 0.000000 0.592891 0.805283
vn 0.000000 0.592891 0.805283
vn 0.000000 0.592891 0.805283
vn 0.000000 0.592891 0.805283
vn 0.805271 -0.592907 0.000000
vn 0.805271 -0.592907 0.000000
vn 0.805271 -0.592907 0.000000
vn 0.805271 -0.592907 0.000000
vn 0.805270 0.592909 0.000000
vn 0.805270 0.592909 0.000000
vn 0.805270 0.592909 0.000000
vn 0.805270 0.592909 0.000000
vn -0.805271 -0.592907 0.000000
vn -0.805271 -0.592907 0.000000
vn -0.805271 -0.592907 0.000000
vn -0.805271 -0.592907 0.000000
vn -0.805270 0.592909 0.000000
vn -0.805270 0.592909 0.000000
vn -0.805270 0.592909 0.000000
vn -0.805270 0.592909 0.000000
vn 0.000000 -0.592891 0.805282
vn 0.000000 -0.592891 0.805282
vn 0.000000 -0.592891 0.805283
vn 0.000000 -0.592891 0.805283
vn 0.000000 0.592894 0.805281
vn 0.000000 0.592894 0.805281
vn 0.000000 0.592894 0.805281
vn 0.000000 0.592894 0.805281
vn 0.805271 -0.592907 0.000000
vn 0.805271 -0.592907 0.000000
vn 0.805271 -0.592907 0.000000
vn 0.805271 -0.592907 0.000000
vn 0.805268 0.592911 0.000000
vn 0.805268 0.592911 0.000000
vn 0.805268 0.592911 0.000000
vn 0.805268 0.592911 0.000000
vn -0.805271 -0.592907 0.000000
vn -0.805271 -0.592907 0.000000
vn -0.805271 -0.592907 0.000000
vn -0.805271 -0.592907 0.000000
vn -0.805268 0.592911 0.000000
vn -0.805268 0.592911 0.000000
vn -0.805268 0.592911 0.000000
vn -0.805268 0.592911 0.000000
vn 0.750822 0.660505 0.000000
vn 0.750822 0.660505 0.000000
vn 0.750822 0.660505 0.000000
vn 0.750822 0.660505 0.000000
vn 0.000000 0.660495 0.750830
vn 0.000000 0.660495 0.750830
vn 0.000000 0.660495 0.750830
vn 0.000000 0.660495 0.750830
vn -0.750822 0.660505 0.000000
vn -0.750822 0.660505 0.000000
vn -0.750822 0.660505 0.000000
vn -0.750822 0.660505 0.000000
vn 1.000000 0.000000 0.000000
vn 1.000000 0.000000 0.000000
vn 1.000000 0.000000 0.000000
vn 1.000000 0.000000 0.000000
vn 0.000000 0.000000 1.000000
vn 0.000000 0.000000 1.000000
vn 0.000000 0.000000 1.000000
vn 0.000000 0.000000 1.000000
vn -1.000000 0.000000 0.000000
vn -1.000000 0.000000 0.000000
vn -1.000000 0.000000 0.000000
vn -1.000000 0.000000 0.000000
vn 0.000000 0.000000 -1.000000
vn 0.000000 0.000000 -1.000000
vn 0.000000 0.000000 -1.000000
vn 0.000000 0.000000 -1.000000
vn 0.000000 0.000000 -1.000000
vn 0.000000 0.000000 -1.000000
vn 0.000000 0.000000 -1.000000
vn 0.000000 0.000000 -1.000000
vn 0.000000 0.000000 -1.000000
vn 0.000000 0.000000 -1.000000
vn 0.000000 0.000000 -1.000000
vn 0.000000 0.000000 -1.000000
vn 0.000000 0.000000 -1.000000
vn 0.000000 0.000000 -1.000000
vn 0.000000 0.000000 -1.000000
vn 0.000000 0.000000 -1.000000
vn 0.000000 0.000000 -1.000000
vn 0.000000 0.000000 -1.000000
vn 0.000000 0.000000 -1.000000
vn 0.000000 0.000000 -1.000000
vn 0.000000 0.000000 -1.000000
vn 0.000000 0.000000 -1.000000
vn 0.000000 0.000000 -1.000000
vn 0.000000 0.000000 -1.000000
vn 0.000000 0.000000 -1.000000
vn 0.000000 0.000000 -1.000000
vn 0.000000 0.000000 -1.000000
vn 0.000000 0.000000 -1.000000
vn 0.000000 0.000000 -1.000000
vn 0.000000 0.000000 -1.000000
vn 0.000000 0.000000 -1.000000
vn 0.000000 0.000000 -1.000000
s off
f 11/13/1 12/14/2 13/15/3 14/16/4
f 3/3/5 4/4/6 28/31/7 29/34/8
f 19/21/9 20/22/10 17/19/11 18/20/12
f 12/14/13 26/29/14 27/30/15 13/15/16
f 30/35/17 31/36/18 11/13/19 14/16/20
f 7/9/21 8/10/22 9/11/23 10/12/24
f 8/10/25 23/26/26 24/27/27 9/11/28
f 33/38/29 34/39/30 7/9/31 10/12/32
f 1/1/33 2/2/34 8/10/35 7/9/36
f 6/8/37 5/7/38 10/12/39 9/11/40
f 2/2/41 22/25/42 23/26/43 8/10/44
f 24/27/45 25/28/46 6/8/47 9/11/48
f 34/39/49 35/40/50 1/1/51 7/9/52
f 5/7/53 32/37/54 33/38/55 10/12/56
f 5/7/57 6/8/58 12/14/59 11/13/60
f 4/4/61 3/3/62 14/16/63 13/15/64
f 6/8/65 25/28/66 26/29/67 12/14/68
f 27/30/69 28/32/70 4/4/71 13/15/72
f 31/36/73 32/37/74 5/7/75 11/13/76
f 3/3/77 29/33/78 30/35/79 14/16/80
f 21/23/81 22/24/82 2/6/83 15/17/84
f 2/6/85 1/5/86 16/18/87 15/17/88
f 1/5/89 35/41/90 36/42/91 16/18/92
f 20/22/93 21/23/94 15/17/95 17/19/96
f 15/17/97 16/18/98 18/20/99 17/19/100
f 16/18/101 36/42/102 19/21/103 18/20/104
f 27/30/105 30/35/106 29/34/107 28/32/108
f 21/23/109 36/42/110 35/40/111 22/24/112
f 23/26/113 34/39/114 33/38/115 24/27/116
f 26/29/117 31/36/118 30/35/119 27/30/120
f 25/28/121 32/37/122 31/36/123 26/29/124
f 24/27/125 33/38/126 32/37/127 25/28/128
f 22/24/129 35/40/130 34/39/131 23/26/132
f 20/22/133 19/21/134 36/42/135 21/23/136
