# This file uses centimeters as units for non-parametric coordinates.

v 0.000000 -0.444385 5.000000
v 0.112632 -0.445057 5.000000
v 0.000000 -0.444385 4.887366
v 0.198428 -0.398845 5.000000
v 0.000000 -0.398172 4.801570
v 0.302125 -0.398845 5.000000
v 0.000000 -0.398172 4.697873
v 0.860436 -0.265536 5.000000
v 0.000000 -0.264191 4.139563
v 0.949922 -0.265536 5.000000
v 0.000000 -0.264191 4.050077
v 0.949922 -0.171965 5.000000
v 0.000000 -0.170620 4.050077
v 1.034536 -0.171965 5.000000
v 0.000000 -0.170620 3.965464
v 1.034537 -0.070061 5.000000
v 0.000000 -0.070061 3.965464
v 5.000000 -0.070061 0.000000
v 5.000000 -0.070061 5.000000
v 0.343007 -0.314886 5.000000
v 0.000000 -0.313541 4.656992
v 0.000000 -0.208674 4.189342
v 0.810657 -0.210020 5.000000
v 0.000000 -0.070061 0.000000
v 0.000000 0.000000 5.000000
v 5.000000 0.000000 5.000000
v 5.000000 0.000000 0.000000
v 0.000000 0.000000 0.000000
vt 0.037028 0.378256
vt 0.037028 0.378256
vt 0.037028 0.378256
vt 0.037028 0.378256
vt 0.037028 0.378256
vt 0.037028 0.378256
vt 0.037028 0.378256
vt 0.037028 0.378256
vt 0.037028 0.378256
vt 0.037028 0.378256
vt 0.037028 0.378256
vt 0.037028 0.378256
vt 0.037028 0.378256
vt 0.037028 0.378256
vt 0.037028 0.378256
vt 0.068583 0.378372
vt 0.037028 0.378256
vt 0.068583 0.378372
vt 0.068583 0.378372
vt 0.037028 0.378256
vt 0.037028 0.378256
vt 0.037028 0.378256
vt 0.037028 0.378256
vt 0.068583 0.378372
vt 0.068583 0.378372
vt 0.037028 0.378256
vt 0.037028 0.378256
vt 0.037028 0.378256
vt 0.037028 0.378256
vt 0.037028 0.378256
vt 0.037028 0.378256
vt 0.037028 0.378256
vt 0.037028 0.378256
vt 0.037028 0.378256
vt 0.037028 0.378256
vt 0.037028 0.378256
vt 0.037028 0.378256
vt 0.037028 0.378256
vt 0.037028 0.378256
vt 0.037028 0.378256
vt 0.037028 0.378256
vt 0.037028 0.378256
vt 0.037028 0.378256
vt 0.037028 0.378256
vt 0.037028 0.378256
vt 0.037028 0.378256
vt 0.037028 0.378256
vt 0.037028 0.378256
vt 0.037028 0.378256
vt 0.037028 0.378256
vt 0.037028 0.378256
vt 0.037028 0.378256
vt 0.037028 0.378256
vt 0.037028 0.378256
vt 0.037028 0.378256
vt 0.037028 0.378256
vt 0.037028 0.378256
vt 0.037028 0.378256
vt 0.037028 0.378256
vt 0.037028 0.378256
vt 0.037028 0.378256
vt 0.037028 0.378256
vt 0.037028 0.378256
vt 0.037028 0.378256
vt 0.037028 0.378256
vt 0.037028 0.378256
vt 0.037028 0.378256
vt 0.037028 0.378256
vt 0.037028 0.378256
vt 0.037028 0.378256
vt 0.037028 0.378256
vt 0.037028 0.378256
vt 0.037028 0.378256
vt 0.037028 0.378256
vt 0.037028 0.378256
vt 0.037028 0.378256
vt 0.037028 0.378256
vt 0.037028 0.378256
vt 0.037028 0.378256
vt 0.037028 0.378256
vt 0.037028 0.378256
vt 0.037028 0.378256
vt 0.037028 0.378256
vt 0.037028 0.378256
vt 0.037028 0.378256
vt 0.037028 0.378256
vt 0.037028 0.378256
vt 0.037028 0.378256
vt 0.037028 0.378256
vt 0.037028 0.378256
vt 0.037028 0.378256
vt 0.037028 0.378256
vt 0.037028 0.378256
vt 0.037028 0.378256
vn 0.000027 -1.000000 0.000156
vn -0.000106 -1.000000 0.000050
vn -0.000170 -1.000000 0.000000
vn -0.005969 -0.999982 0.000000
vn -0.005969 -0.999982 0.000000
vn -0.005969 -0.999982 0.000000
vn 0.426758 -0.795495 -0.430192
vn 0.426758 -0.795495 -0.430192
vn 0.426758 -0.795495 -0.430192
vn 0.426758 -0.795495 -0.430192
vn -0.001343 -0.999998 -0.001343
vn -0.001343 -0.999998 -0.001343
vn -0.001343 -0.999998 -0.001343
vn -0.001343 -0.999998 -0.001343
vn 0.212639 -0.953215 -0.214862
vn 0.212639 -0.953215 -0.214862
vn 0.212639 -0.953215 -0.214862
vn 0.212639 -0.953215 -0.214862
vn -0.000743 -1.000000 -0.000743
vn -0.000743 -0.999999 -0.000743
vn -0.000743 -1.000000 -0.000743
vn -0.000743 -1.000000 -0.000743
vn 0.707107 0.000000 -0.707106
vn 0.707107 0.000000 -0.707106
vn 0.707107 0.000000 -0.707107
vn 0.707107 0.000000 -0.707106
vn -0.000678 -1.000000 -0.000678
vn -0.000678 -1.000000 -0.000678
vn -0.000678 -1.000000 -0.000678
vn -0.000678 -1.000000 -0.000678
vn 0.707107 -0.000003 -0.707107
vn 0.707107 -0.000003 -0.707107
vn 0.707107 -0.000003 -0.707107
vn 0.707107 -0.000003 -0.707107
vn 0.668363 -0.324391 -0.669374
vn 0.668363 -0.324391 -0.669374
vn 0.668363 -0.324391 -0.669374
vn 0.668363 -0.324391 -0.669374
vn -0.597617 -0.535480 0.596754
vn -0.597617 -0.535480 0.596754
vn -0.597617 -0.535480 0.596754
vn -0.597617 -0.535480 0.596754
vn 0.000000 -1.000000 0.000000
vn 0.000000 -1.000000 0.000000
vn 0.000000 -1.000000 0.000000
vn 0.000027 -1.000000 0.000156
vn 0.000287 -1.000000 0.000362
vn -0.000106 -1.000000 0.000050
vn 0.000000 0.000000 1.000000
vn 0.000000 0.000000 1.000000
vn 0.000000 0.000000 1.000000
vn -1.000000 0.000000 0.000000
vn -1.000000 0.000000 0.000000
vn -1.000000 0.000000 0.000000
vn 0.000000 0.000000 1.000000
vn 0.000000 0.000000 1.000000
vn 0.000000 0.000000 1.000000
vn -1.000000 0.000000 0.000000
vn -1.000000 0.000000 0.000000
vn -1.000000 0.000000 0.000000
vn 0.000000 0.000000 1.000000
vn 0.000000 0.000000 1.000000
vn 0.000000 0.000000 1.000000
vn -1.000000 0.000000 0.000000
vn -1.000000 0.000000 0.000000
vn -1.000000 0.000000 0.000000
vn -1.000000 0.000000 0.000000
vn -1.000000 0.000000 0.000000
vn -1.000000 0.000000 0.000000
vn -1.000000 0.000000 0.000000
vn 0.000000 0.000000 1.000000
vn 0.000000 0.000000 1.000000
vn 0.000000 0.000000 1.000000
vn -1.000000 0.000000 0.000000
vn -1.000000 0.000000 0.000000
vn -1.000000 0.000000 0.000000
vn 0.000000 0.000000 1.000000
vn 0.000000 0.000000 1.000000
vn 0.000000 0.000000 1.000000
vn -1.000000 0.000000 0.000000
vn -1.000000 0.000000 0.000000
vn -1.000000 0.000000 0.000000
vn 1.000000 0.000000 0.000000
vn 1.000000 0.000000 0.000000
vn 1.000000 0.000000 0.000000
vn 1.000000 0.000000 0.000000
vn 0.000000 0.000000 1.000000
vn 0.000000 0.000000 1.000000
vn 0.000000 0.000000 1.000000
vn 0.000000 0.000000 1.000000
vn 0.000000 0.000000 1.000000
vn 0.000000 0.000000 1.000000
vn 0.000000 0.000000 1.000000
vn -1.000000 0.000000 0.000000
vn -1.000000 0.000000 0.000000
vn -1.000000 0.000000 0.000000
vn -1.000000 0.000000 0.000000
vn -1.000000 0.000000 0.000000
vn -1.000000 0.000000 0.000000
vn 0.000000 0.000000 1.000000
vn 0.000000 0.000000 1.000000
vn 0.000000 0.000000 1.000000
vn 0.000000 0.000000 1.000000
vn 0.000000 0.000000 1.000000
vn 0.000000 0.000000 1.000000
vn 0.000000 0.000000 1.000000
vn -1.000000 0.000000 0.000000
vn -1.000000 0.000000 0.000000
vn -1.000000 0.000000 0.000000
vn -1.000000 0.000000 0.000000
vn 0.000000 0.000000 -1.000000
vn 0.000000 0.000000 -1.000000
vn 0.000000 0.000000 -1.000000
vn 0.000000 0.000000 -1.000000
vn 0.000000 1.000000 0.000000
vn 0.000000 1.000000 0.000000
vn 0.000000 1.000000 0.000000
vn 0.000000 1.000000 0.000000
vn -1.000000 0.000000 0.000000
vn -1.000000 0.000000 0.000000
vn -1.000000 0.000000 0.000000
vn 0.000000 0.000000 1.000000
vn 0.000000 0.000000 1.000000
vn 0.000000 0.000000 1.000000
s off
f 16/16/1 18/18/2 19/19/3
f 1/1/4 3/3/5 2/2/6
f 2/2/7 3/3/8 5/5/9 4/4/10
f 4/4/11 5/5/12 7/7/13 6/6/14
f 20/20/15 21/21/16 22/22/17 23/23/18
f 8/8/19 9/9/20 11/11/21 10/10/22
f 10/10/23 11/11/24 13/13/25 12/12/26
f 12/12/27 13/13/28 15/15/29 14/14/30
f 14/14/31 15/15/32 17/17/33 16/28/34
f 6/6/35 7/7/36 21/21/37 20/20/38
f 9/9/39 8/8/40 23/23/41 22/22/42
f 18/18/43 17/24/44 24/25/45
f 16/16/46 17/24/47 18/18/48
f 1/29/49 2/30/50 25/31/51
f 3/32/52 1/33/53 25/34/54
f 2/35/55 4/36/56 25/37/57
f 5/38/58 3/39/59 25/40/60
f 4/41/61 6/42/62 25/43/63
f 7/44/64 5/45/65 25/46/66
f 22/80/67 13/51/68 11/48/69 9/79/70
f 12/53/71 14/54/72 25/55/73
f 15/56/74 13/57/75 25/58/76
f 14/59/77 16/60/78 25/61/79
f 17/62/80 15/63/81 25/64/82
f 19/65/83 18/66/84 27/67/85 26/68/86
f 16/69/87 19/70/88 26/71/89 25/72/90
f 6/73/91 20/74/92 25/75/93
f 21/76/94 7/77/95 25/78/96
f 22/81/97 21/82/98 25/83/99
f 12/50/100 23/84/101 8/47/102 10/49/103
f 20/86/104 23/87/105 25/88/106
f 24/89/107 17/90/108 25/91/109 28/92/110
f 18/93/111 24/94/112 28/27/113 27/26/114
f 27/26/115 28/92/116 25/72/117 26/68/118
f 25/52/119 13/51/120 22/80/121
f 25/85/122 23/84/123 12/50/124
