# This file uses centimeters as units for non-parametric coordinates.

v 0.187360 0.715928 0.187358
v 0.187360 0.715928 4.812641
v 4.812642 0.715928 0.187358
v 4.812642 0.715928 4.812641
v 0.187360 0.684913 0.187358
v 0.187360 0.684913 4.812641
v 4.812642 0.684913 0.187358
v 4.812642 0.684913 4.812641
vt 0.504360 0.107019
vt 0.504360 0.004298
vt 0.607082 0.004298
vt 0.607082 0.107019
vt 0.607082 0.107019
vt 0.607082 0.004298
vt 0.504360 0.004298
vt 0.504360 0.107019
vn 0.000000 1.000000 0.000000
vn 0.000000 1.000000 0.000000
vn 0.000000 1.000000 0.000000
vn 0.000000 1.000000 0.000000
vn 0.000000 -1.000000 0.000000
vn 0.000000 -1.000000 0.000000
vn 0.000000 -1.000000 0.000000
vn 0.000000 -1.000000 0.000000
s off
f 1/1/1 2/2/2 4/3/3 3/4/4
f 7/5/5 8/6/6 6/7/7 5/8/8
