# This file uses centimeters as units for non-parametric coordinates.

v 1.435478 2.289442 0.012953
v 0.037277 2.289442 0.012953
v 0.037277 0.684419 0.012953
v 1.435478 0.684419 0.012953
v 1.435478 2.737678 0.012953
v 0.037277 2.737678 0.012953
v 0.037277 2.335456 0.012953
v 1.435478 2.335456 0.012953
v 1.532318 2.737678 0.012953
v 1.532318 2.282709 0.012953
v 2.462715 2.282709 0.012953
v 2.462715 2.737678 0.012953
v 3.458488 2.737678 0.012953
v 2.537277 2.737678 0.012953
v 2.537277 2.282709 0.012953
v 3.458488 2.282709 0.012953
v 3.556198 2.737678 0.012953
v 3.556198 2.335456 0.012953
v 4.962715 2.335456 0.012953
v 4.962715 2.737678 0.012953
v 3.556198 2.289442 0.012953
v 3.556198 0.684419 0.012953
v 4.962715 0.684419 0.012953
v 4.962715 2.289442 0.012953
vt 0.605810 0.083678
vt 0.505622 0.083678
vt 0.505622 0.005361
vt 0.605810 0.005361
vt 0.605810 0.105550
vt 0.505622 0.105550
vt 0.505622 0.085923
vt 0.605810 0.085923
vt 0.505622 0.105549
vt 0.505622 0.005361
vt 0.554016 0.005361
vt 0.554016 0.105549
vt 0.605810 0.105549
vt 0.557894 0.105549
vt 0.557894 0.005361
vt 0.605810 0.005361
vt 0.505622 0.105550
vt 0.505622 0.085923
vt 0.605810 0.085923
vt 0.605810 0.105550
vt 0.505622 0.083678
vt 0.505622 0.005361
vt 0.605810 0.005361
vt 0.605810 0.083678
vn 0.000000 0.000000 1.000000
vn 0.000000 0.000000 1.000000
vn 0.000000 0.000000 1.000000
vn 0.000000 0.000000 1.000000
vn 0.000000 0.000000 1.000000
vn 0.000000 0.000000 1.000000
vn 0.000000 0.000000 1.000000
vn 0.000000 0.000000 1.000000
vn 0.000000 0.000000 1.000000
vn 0.000000 0.000000 1.000000
vn 0.000000 0.000000 1.000000
vn 0.000000 0.000000 1.000000
vn 0.000000 0.000000 1.000000
vn 0.000000 0.000000 1.000000
vn 0.000000 0.000000 1.000000
vn 0.000000 0.000000 1.000000
vn 0.000000 0.000000 1.000000
vn 0.000000 0.000000 1.000000
vn 0.000000 0.000000 1.000000
vn 0.000000 0.000000 1.000000
vn 0.000000 0.000000 1.000000
vn 0.000000 0.000000 1.000000
vn 0.000000 0.000000 1.000000
vn 0.000000 0.000000 1.000000
s off
f 1/1/1 2/2/2 3/3/3 4/4/4
f 5/5/5 6/6/6 7/7/7 8/8/8
f 9/9/9 10/10/10 11/11/11 12/12/12
f 13/13/13 14/14/14 15/15/15 16/16/16
f 17/17/17 18/18/18 19/19/19 20/20/20
f 21/21/21 22/22/22 23/23/23 24/24/24
