# This file uses centimeters as units for non-parametric coordinates.

v 5.000000 1.498607 0.149999
v 0.000000 1.498607 0.149999
v 4.999996 1.498607 -0.000001
v 0.000000 1.498607 -0.000001
v 2.500000 1.498607 -0.000001
v 2.500000 1.498607 0.149999
v 3.750000 1.498607 0.149999
v 1.250000 1.498607 0.149999
v 4.999996 2.997214 -0.000001
v 5.000000 2.997214 0.149999
v 0.000000 2.997214 0.149999
v 0.000000 2.997214 -0.000001
v 2.500000 2.997214 0.149999
v 2.500000 2.997214 -0.000001
v 3.750000 2.997214 0.149999
v 1.250000 2.997214 0.149999
v 2.480087 2.969421 0.157773
v 2.480087 1.526400 0.157773
v 1.269913 1.526400 0.157773
v 1.269913 2.969421 0.157773
v 4.980083 2.969421 0.157773
v 4.980083 1.526400 0.157773
v 3.769913 1.526400 0.157773
v 3.769913 2.969421 0.157773
v 3.730087 2.969421 0.157773
v 3.730087 1.526400 0.157773
v 2.519913 1.526400 0.157773
v 2.519913 2.969421 0.157773
v 1.230087 1.526400 0.157773
v 1.230087 2.969421 0.157773
v 0.019913 1.526400 0.157773
v 0.019913 2.969421 0.157773
v 4.999996 0.000000 0.000000
v 0.000000 0.000000 0.000000
v 2.500000 0.000000 0.000000
v 4.375000 1.498607 0.149999
v 3.125000 1.498607 0.149999
v 1.875000 1.498607 0.149999
v 0.625000 1.498607 0.149999
v 1.855087 1.470815 0.157773
v 0.644913 1.470815 0.157773
v 3.144913 1.470815 0.157773
v 4.355083 1.470815 0.157773
v 4.394909 1.470815 0.157773
v 4.999996 1.470815 0.157773
v 3.105087 1.470815 0.157773
v 1.894913 1.470815 0.157773
v 0.605087 1.470815 0.157773
v 0.000000 1.470815 0.157773
v 4.999996 0.749304 0.157773
v 4.394909 0.749304 0.157773
v 4.375000 0.749304 0.149999
v 4.355083 0.749304 0.157773
v 3.144913 0.749304 0.157773
v 3.125000 0.749304 0.149999
v 3.105087 0.749304 0.157773
v 1.894913 0.749304 0.157773
v 1.875000 0.749304 0.149999
v 1.855087 0.749304 0.157773
v 0.644913 0.749304 0.157773
v 0.625000 0.749304 0.149999
v 0.605087 0.749304 0.157773
v 0.000000 0.749304 0.157773
v 0.000000 0.749304 0.149999
v 0.000000 0.749304 -0.000001
v 2.500000 0.749304 -0.000001
v 4.999996 0.749304 -0.000001
v 5.000000 0.749304 0.149999
v 5.000000 0.705976 0.149999
v 4.999992 0.705976 -0.000002
v 2.500000 0.705976 -0.000001
v -0.000002 0.705976 -0.000002
v 0.000000 0.705976 0.149999
v 0.625000 0.707829 0.157773
v 1.875000 0.707829 0.157773
v 3.125000 0.707829 0.157773
v 4.374996 0.707829 0.157773
v 0.000000 0.689808 0.220608
v 0.646152 0.691576 0.228382
v 0.000000 0.000000 0.220608
v 0.646152 0.000000 0.228382
v 1.882050 0.691576 0.228382
v 1.882050 0.000000 0.228382
v 3.117950 0.000000 0.228382
v 3.117950 0.691576 0.228382
v 4.353848 0.000000 0.228382
v 4.353844 0.691576 0.228382
v 4.999996 0.000000 0.220608
v 4.999996 0.689808 0.220608
vt 0.021330 0.122191
vt 0.021330 0.122191
vt 0.022512 0.121988
vt 0.021330 0.122191
vt 0.022512 0.121988
vt 0.021330 0.122191
vt 0.021330 0.122191
vt 0.021330 0.122191
vt 0.022037 0.099790
vt 0.022037 0.099790
vt 0.022037 0.099790
vt 0.022037 0.099790
vt 0.021330 0.122191
vt 0.021330 0.122191
vt 0.021330 0.122191
vt 0.021330 0.122191
vt 0.021330 0.122191
vt 0.021330 0.122191
vt 0.021330 0.122191
vt 0.021330 0.122191
vt 0.021330 0.122191
vt 0.021330 0.122191
vt 0.021390 0.145172
vt 0.021390 0.145172
vt 0.021390 0.145172
vt 0.021390 0.145172
vt 0.021330 0.122191
vt 0.021330 0.122191
vt 0.022512 0.121988
vt 0.021330 0.122191
vt 0.022037 0.099790
vt 0.022037 0.099790
vt 0.022037 0.099790
vt 0.022512 0.121988
vt 0.021390 0.145172
vt 0.021390 0.145172
vt 0.021390 0.145172
vt 0.021390 0.145172
vt 0.021330 0.122191
vt 0.021330 0.122191
vt 0.021390 0.145172
vt 0.032394 0.150629
vt 0.021330 0.122191
vt 0.021330 0.122191
vt 0.032394 0.150629
vt 0.032394 0.150629
vt 0.021330 0.122191
vt 0.021330 0.122191
vt 0.021330 0.122191
vt 0.021330 0.122191
vt 0.022037 0.099790
vt 0.021330 0.122191
vt 0.022037 0.099790
vt 0.032394 0.150629
vt 0.032394 0.150629
vt 0.021390 0.145172
vt 0.032394 0.150629
vt 0.021330 0.122191
vt 0.021330 0.122191
vt 0.021330 0.122191
vt 0.032394 0.150629
vt 0.032394 0.150629
vt 0.021330 0.122191
vt 0.021330 0.122191
vt 0.032394 0.150629
vt 0.021330 0.122191
vt 0.021390 0.145172
vt 0.021390 0.145172
vt 0.032394 0.150629
vt 0.021390 0.145172
vt 0.032394 0.150629
vt 0.022037 0.099790
vt 0.022037 0.099790
vt 0.022037 0.099790
vt 0.021330 0.122191
vt 0.021330 0.122191
vt 0.021330 0.122191
vt 0.021330 0.122191
vt 0.021390 0.145172
vt 0.021330 0.122191
vt 0.022037 0.099790
vt 0.021330 0.122191
vt 0.032394 0.150629
vt 0.032394 0.150629
vt 0.032394 0.150629
vt 0.032394 0.150629
vt 0.032394 0.150629
vt 0.032394 0.150629
vt 0.032394 0.150629
vt 0.022037 0.099790
vt 0.022512 0.121988
vt 0.022512 0.121988
vt 0.022512 0.121988
vt 0.022512 0.121988
vt 0.021330 0.122191
vt 0.022512 0.121988
vt 0.021330 0.122191
vt 0.021330 0.122191
vt 0.022512 0.121988
vt 0.022512 0.121988
vt 0.021330 0.122191
vt 0.021330 0.122191
vt 0.021330 0.122191
vt 0.022037 0.099790
vt 0.022037 0.099790
vt 0.022037 0.099790
vt 0.021330 0.122191
vt 0.022037 0.099790
vt 0.021330 0.122191
vt 0.021330 0.122191
vt 0.021330 0.122191
vt 0.021390 0.145172
vt 0.021390 0.145172
vt 0.021390 0.145172
vt 0.021330 0.122191
vt 0.021390 0.145172
vt 0.021330 0.122191
vt 0.021330 0.122191
vt 0.021330 0.122191
vt 0.021330 0.122191
vt 0.021330 0.122191
vt 0.021330 0.122191
vt 0.021330 0.122191
vt 0.021330 0.122191
vt 0.021330 0.122191
vt 0.021330 0.122191
vt 0.021330 0.122191
vt 0.021330 0.122191
vt 0.021330 0.122191
vt 0.021330 0.122191
vt 0.021330 0.122191
vt 0.021330 0.122191
vt 0.021330 0.122191
vt 0.021390 0.145172
vt 0.021390 0.145172
vt 0.021330 0.122191
vt 0.021330 0.122191
vt 0.022037 0.099790
vt 0.022037 0.099790
vt 0.021330 0.122191
vt 0.032394 0.150629
vt 0.032394 0.150629
vt 0.032394 0.150629
vt 0.032394 0.150629
vt 0.032394 0.150629
vt 0.032394 0.150629
vt 0.021330 0.122191
vt 0.021330 0.122191
vt 0.021330 0.122191
vt 0.021330 0.122191
vt 0.021330 0.122191
vt 0.021330 0.122191
vt 0.021330 0.122191
vt 0.021330 0.122191
vt 0.021330 0.122191
vt 0.021330 0.122191
vt 0.021330 0.122191
vt 0.021330 0.122191
vt 0.021330 0.122191
vt 0.021330 0.122191
vt 0.021330 0.122191
vt 0.021330 0.122191
vt 0.021330 0.122191
vt 0.021330 0.122191
vt 0.021330 0.122191
vt 0.021330 0.122191
vt 0.022512 0.121988
vt 0.022512 0.121988
vt 0.021330 0.122191
vt 0.032394 0.150629
vt 0.032394 0.150629
vt 0.032394 0.150629
vt 0.032394 0.150629
vt 0.032394 0.150629
vn 1.000000 0.000000 -0.000025
vn 1.000000 0.000000 -0.000025
vn 1.000000 0.000000 -0.000025
vn 1.000000 0.000000 -0.000025
vn 0.000000 0.000000 1.000000
vn 0.000000 0.000000 1.000000
vn 0.000000 0.000000 1.000000
vn 0.000000 0.000000 1.000000
vn -1.000000 0.000000 0.000000
vn -1.000000 0.000000 0.000000
vn -1.000000 0.000000 0.000000
vn -1.000000 0.000000 0.000000
vn 0.000000 0.000000 -1.000000
vn 0.000000 0.000000 -1.000000
vn 0.000000 0.000000 -1.000000
vn 0.000000 0.000000 -1.000000
vn 0.000000 0.000000 1.000000
vn 0.000000 0.000000 1.000000
vn 0.000000 0.000000 1.000000
vn 0.000000 0.000000 1.000000
vn 0.000000 0.000000 -1.000000
vn 0.000000 0.000000 -1.000000
vn 0.000000 0.000000 -1.000000
vn 0.000000 0.000000 -1.000000
vn 0.000000 0.000000 1.000000
vn 0.000000 0.000000 1.000000
vn 0.000000 0.000000 1.000000
vn 0.000000 0.000000 1.000000
vn 0.000000 0.000000 1.000000
vn 0.000000 0.000000 1.000000
vn 0.000000 0.000000 1.000000
vn 0.000000 0.000000 1.000000
vn 0.000000 -0.269387 0.963032
vn 0.000000 -0.269387 0.963032
vn 0.000000 -0.269383 0.963033
vn -0.363686 0.000000 0.931522
vn -0.363686 0.000000 0.931522
vn -0.363686 0.000000 0.931522
vn -0.363686 0.000000 0.931522
vn -0.000000 0.269381 0.963034
vn -0.000000 0.269381 0.963034
vn -0.000000 0.269381 0.963034
vn -0.000000 0.269381 0.963034
vn 0.363686 0.000000 0.931522
vn 0.363686 0.000000 0.931522
vn 0.363686 0.000000 0.931522
vn 0.363686 0.000000 0.931522
vn 0.000000 -0.269387 0.963032
vn 0.000000 -0.269387 0.963032
vn 0.000000 -0.269384 0.963033
vn -0.363686 0.000000 0.931522
vn -0.363686 0.000000 0.931522
vn -0.363686 0.000000 0.931522
vn -0.363686 0.000000 0.931522
vn 0.000000 0.269384 0.963033
vn 0.000000 0.269384 0.963033
vn 0.000000 0.269384 0.963033
vn 0.000000 0.269384 0.963033
vn 0.363626 0.000000 0.931545
vn 0.363626 0.000000 0.931545
vn 0.363626 0.000000 0.931545
vn 0.363626 0.000000 0.931545
vn 0.363686 0.000000 0.931522
vn 0.363686 0.000000 0.931522
vn 0.363686 0.000000 0.931522
vn 0.363686 0.000000 0.931522
vn 0.000000 -0.269387 0.963032
vn 0.000000 -0.269387 0.963032
vn 0.000000 -0.269383 0.963033
vn 0.000000 0.269381 0.963034
vn 0.000000 0.269381 0.963034
vn 0.000000 0.269381 0.963034
vn 0.000000 0.269381 0.963034
vn -0.363686 0.000000 0.931522
vn -0.363686 0.000000 0.931522
vn -0.363686 0.000000 0.931522
vn -0.363686 0.000000 0.931522
vn 0.363686 0.000000 0.931522
vn 0.363686 0.000000 0.931522
vn 0.363686 0.000000 0.931522
vn 0.363686 0.000000 0.931522
vn 0.000000 -0.269387 0.963032
vn 0.000000 -0.269387 0.963032
vn 0.000000 -0.269383 0.963033
vn 0.000000 0.269385 0.963033
vn 0.000000 0.269385 0.963033
vn 0.000000 0.269385 0.963033
vn 0.000000 0.269385 0.963033
vn -0.363686 0.000000 0.931522
vn -0.363686 0.000000 0.931522
vn -0.363686 0.000000 0.931522
vn -0.363686 0.000000 0.931522
vn 0.000000 0.000000 1.000000
vn 0.000000 0.000000 1.000000
vn 0.000000 0.000000 1.000000
vn 0.000000 0.000000 1.000000
vn 0.000000 -0.000001 -1.000000
vn 0.000000 -0.000001 -1.000000
vn 0.000000 0.000001 -1.000000
vn 0.000000 0.000001 -1.000000
vn -1.000000 -0.000000 0.000012
vn -1.000000 0.000000 0.000012
vn -1.000000 0.000001 0.000000
vn -1.000000 0.000001 0.000000
vn 1.000000 -0.000001 -0.000049
vn 1.000000 0.000000 -0.000049
vn 1.000000 -0.000003 -0.000026
vn 1.000000 -0.000003 -0.000026
vn 0.000000 0.000000 1.000000
vn 0.000000 0.000000 1.000000
vn 0.000000 0.000000 1.000000
vn 0.000000 0.000000 1.000000
vn -0.000000 -0.000001 -1.000000
vn -0.000000 -0.000001 -1.000000
vn -0.000000 0.000001 -1.000000
vn -0.000000 0.000001 -1.000000
vn 0.006153 -0.092724 0.995673
vn 0.006153 -0.092724 0.995673
vn 0.000348 -0.005251 0.999986
vn 0.000441 -0.006641 0.999978
vn 0.000000 0.000000 1.000000
vn 0.000000 0.000000 1.000000
vn 0.000000 0.000000 1.000000
vn 0.000000 0.000000 1.000000
vn -0.000441 -0.006641 0.999978
vn -0.000348 -0.005251 0.999986
vn -0.006153 -0.092724 0.995673
vn -0.006153 -0.092724 0.995673
vn 0.363682 0.004590 0.931512
vn 0.363684 0.003549 0.931516
vn 0.358269 0.172010 0.917636
vn -0.358269 0.172010 0.917636
vn -0.363684 0.003549 0.931516
vn -0.363682 0.004590 0.931512
vn 0.000000 0.269389 0.963031
vn 0.000000 0.269389 0.963032
vn 0.000000 0.269393 0.963030
vn -0.358269 0.172010 0.917636
vn -0.363684 0.003549 0.931516
vn -0.363682 0.004590 0.931512
vn 0.000000 0.269389 0.963031
vn 0.000000 0.269389 0.963032
vn 0.000000 0.269393 0.963030
vn 0.363622 0.004589 0.931535
vn 0.363623 0.003549 0.931539
vn 0.358211 0.171983 0.917664
vn -0.358326 0.172038 0.917608
vn -0.363744 0.003550 0.931492
vn -0.363743 0.004591 0.931488
vn 0.000000 0.269391 0.963031
vn 0.000000 0.269391 0.963031
vn 0.000000 0.269391 0.963031
vn 0.000000 0.269391 0.963031
vn 1.000000 0.000000 0.000491
vn 1.000000 0.000000 0.000491
vn 1.000000 0.000000 0.000491
vn 0.363682 0.004590 0.931512
vn 0.363684 0.003549 0.931516
vn 0.358269 0.172010 0.917636
vn -0.358269 0.172010 0.917636
vn -0.363684 0.003549 0.931516
vn -0.363682 0.004590 0.931512
vn 0.000000 0.269389 0.963031
vn 0.000000 0.269389 0.963032
vn 0.000000 0.269393 0.963030
vn 0.363682 0.004590 0.931512
vn 0.363684 0.003549 0.931516
vn 0.358269 0.172010 0.917636
vn -1.000000 0.000000 0.000000
vn -1.000000 0.000000 0.000000
vn -1.000000 0.000000 0.000000
vn 0.000000 0.269391 0.963031
vn 0.000000 0.269391 0.963031
vn 0.000000 0.269391 0.963031
vn 0.000000 0.269391 0.963031
vn 0.000000 -0.269385 0.963033
vn 0.000000 -0.269385 0.963033
vn 0.000000 -0.269384 0.963033
vn 0.000000 -0.269385 0.963033
vn 0.000000 -0.269387 0.963032
vn 0.000000 -0.269384 0.963033
vn 0.000000 -0.269387 0.963032
vn 0.000000 -0.269387 0.963032
vn 0.000000 -0.269383 0.963033
vn 0.000000 -0.269387 0.963032
vn 0.000000 -0.269387 0.963032
vn 0.000000 -0.269383 0.963033
vn 0.000000 -0.269387 0.963032
vn 0.000000 -0.269387 0.963032
vn 0.000000 -0.269383 0.963033
vn 0.000000 -0.269387 0.963032
vn 0.000000 -0.269387 0.963032
vn 0.000000 -0.269383 0.963033
vn 0.000000 -0.269387 0.963032
vn 0.000000 -0.269387 0.963032
vn 0.000000 -0.269383 0.963033
vn 0.000000 -0.269387 0.963032
vn 0.000000 -0.269387 0.963032
vn 0.000000 -0.269383 0.963033
vn 0.000000 0.269389 0.963031
vn 0.000000 0.269393 0.963030
vn 0.000000 0.269389 0.963031
vn 0.000000 0.269389 0.963031
vn 0.000000 0.269389 0.963031
vn 0.000000 0.269393 0.963030
vn 0.000000 0.269393 0.963030
vn 0.000000 0.269389 0.963032
vn 0.000000 0.269389 0.963032
vn 0.000000 0.269389 0.963031
vn 0.000000 0.269393 0.963030
vn 0.000000 0.269389 0.963032
vn 0.000000 0.269393 0.963030
vn 0.000000 0.269389 0.963032
vn 0.000000 0.269389 0.963032
vn 0.000000 0.269389 0.963031
vn 0.000000 0.269393 0.963030
vn 0.000000 0.269389 0.963032
vn 0.000000 1.000000 -0.000001
vn 0.000000 1.000000 -0.000001
vn 0.000000 1.000000 -0.000001
vn 0.000000 1.000000 -0.000001
vn 0.000000 1.000000 -0.000001
vn 0.000000 1.000000 -0.000001
vn 0.000000 1.000000 -0.000001
vn 0.000000 1.000000 -0.000001
vn 0.000441 -0.006641 0.999978
vn 0.000348 -0.005251 0.999986
vn 0.000000 0.000000 1.000000
vn 0.000000 0.000000 1.000000
vn -0.363743 0.004591 0.931488
vn -0.363744 0.003550 0.931492
vn -0.363746 0.000000 0.931498
vn -0.363746 0.000000 0.931498
vn 0.363626 0.000000 0.931545
vn 0.363626 0.000000 0.931545
vn 0.363623 0.003549 0.931539
vn 0.363622 0.004589 0.931535
vn 0.000000 0.000000 1.000000
vn 0.000000 0.000000 1.000000
vn 0.000000 0.000000 1.000000
vn 0.000000 0.000000 1.000000
vn -0.363682 0.004590 0.931512
vn -0.363684 0.003549 0.931516
vn -0.363686 0.000000 0.931522
vn -0.363686 0.000000 0.931522
vn 0.363686 0.000000 0.931522
vn 0.363686 0.000000 0.931522
vn 0.363684 0.003549 0.931516
vn 0.363682 0.004590 0.931512
vn 0.000000 0.000000 1.000000
vn 0.000000 0.000000 1.000000
vn 0.000000 0.000000 1.000000
vn 0.000000 0.000000 1.000000
vn -0.363682 0.004590 0.931512
vn -0.363684 0.003549 0.931516
vn -0.363686 0.000000 0.931522
vn -0.363686 0.000000 0.931522
vn 0.363686 0.000000 0.931522
vn 0.363686 0.000000 0.931522
vn 0.363684 0.003549 0.931516
vn 0.363682 0.004590 0.931512
vn 0.000000 0.000000 1.000000
vn 0.000000 0.000000 1.000000
vn 0.000000 0.000000 1.000000
vn 0.000000 0.000000 1.000000
vn -0.363682 0.004590 0.931512
vn -0.363684 0.003549 0.931516
vn -0.363686 0.000000 0.931522
vn -0.363686 0.000000 0.931522
vn 0.363686 0.000000 0.931522
vn 0.363686 0.000000 0.931522
vn 0.363684 0.003549 0.931516
vn 0.363682 0.004590 0.931512
vn 0.000000 0.000000 1.000000
vn 0.000000 0.000000 1.000000
vn -0.000348 -0.005251 0.999986
vn -0.000441 -0.006641 0.999978
vn -1.000000 0.000000 0.000000
vn -1.000000 0.000000 0.000000
vn -1.000000 0.000000 0.000000
vn -1.000000 0.000000 0.000000
vn -1.000000 0.000001 0.000000
vn -1.000000 0.000001 0.000000
vn -1.000000 0.000000 0.000000
vn -1.000000 0.000000 0.000000
vn 0.000000 0.000001 -1.000000
vn 0.000000 0.000001 -1.000000
vn 0.000000 0.000000 -1.000000
vn 0.000000 0.000000 -1.000000
vn -0.000000 0.000001 -1.000000
vn -0.000000 0.000001 -1.000000
vn 0.000000 0.000000 -1.000000
vn 0.000000 0.000000 -1.000000
vn 1.000000 -0.000003 -0.000026
vn 1.000000 -0.000003 -0.000026
vn 1.000000 0.000000 -0.000025
vn 1.000000 0.000000 -0.000025
vn 1.000000 0.000000 0.000491
vn 1.000000 0.000000 0.000491
vn 1.000000 0.000000 0.000491
vn 1.000000 0.000000 0.000491
vn 1.000000 0.000006 -0.000051
vn 1.000000 0.000000 -0.000049
vn 1.000000 -0.000001 -0.000049
vn -0.000000 -0.000002 -1.000000
vn -0.000000 -0.000002 -1.000000
vn -0.000000 -0.000001 -1.000000
vn -0.000000 -0.000001 -1.000000
vn 0.000000 -0.000002 -1.000000
vn 0.000000 -0.000002 -1.000000
vn 0.000000 -0.000001 -1.000000
vn 0.000000 -0.000001 -1.000000
vn -1.000000 -0.000003 0.000013
vn -1.000000 0.000000 0.000012
vn -1.000000 -0.000000 0.000012
vn -0.012031 0.000000 0.999928
vn -0.012031 0.000000 0.999928
vn -0.012031 0.000000 0.999928
vn -0.012031 0.000000 0.999928
vn 0.000000 0.000000 1.000000
vn 0.000000 0.000000 1.000000
vn 0.000000 0.000000 1.000000
vn 0.000000 0.000000 1.000000
vn 0.000000 0.000000 1.000000
vn 0.000000 0.000000 1.000000
vn 0.000000 0.000000 1.000000
vn 0.000000 0.000000 1.000000
vn 0.000000 0.000000 1.000000
vn 0.000000 0.000000 1.000000
vn 0.000000 0.000000 1.000000
vn 0.000000 0.000000 1.000000
vn 0.012031 0.000000 0.999928
vn 0.012031 0.000000 0.999928
vn 0.012031 0.000000 0.999928
vn 0.012031 0.000000 0.999928
vn -0.005523 0.974447 0.224549
vn -0.005523 0.974447 0.224549
vn -0.005523 0.974447 0.224549
vn -0.005523 0.974447 0.224549
vn -1.000000 0.000000 0.000000
vn -1.000000 0.000000 0.000000
vn -1.000000 0.000000 0.000000
vn -1.000000 0.000000 0.000000
vn 0.000000 -1.000000 0.000000
vn 0.000000 -1.000000 0.000000
vn 0.000000 -1.000000 0.000000
vn 0.000000 0.974515 0.224324
vn 0.000000 0.974515 0.224324
vn 0.000000 0.974515 0.224324
vn 0.000000 0.974515 0.224324
vn 0.000000 -1.000000 0.000000
vn 0.000000 -1.000000 0.000000
vn 0.000000 -1.000000 0.000000
vn 0.000000 -1.000000 0.000000
vn 0.000000 0.974515 0.224324
vn 0.000000 0.974515 0.224324
vn 0.000000 0.974515 0.224324
vn 0.000000 0.974515 0.224324
vn 0.000000 -1.000000 0.000000
vn 0.000000 -1.000000 0.000000
vn 0.000000 -1.000000 0.000000
vn 0.000000 -1.000000 0.000000
vn 0.000000 -1.000000 0.000000
vn 0.000000 -1.000000 0.000000
vn 0.000000 -1.000000 0.000000
vn 0.000000 0.974515 0.224324
vn 0.000000 0.974515 0.224324
vn 0.000000 0.974515 0.224324
vn 0.000000 0.974515 0.224324
vn 1.000000 -0.000003 0.000013
vn 1.000000 -0.000003 0.000013
vn 1.000000 -0.000003 0.000013
vn 1.000000 -0.000003 0.000013
vn 0.005523 0.974447 0.224549
vn 0.005523 0.974447 0.224549
vn 0.005523 0.974447 0.224549
vn 0.005523 0.974447 0.224549
vn 0.000000 -1.000000 0.000000
vn 0.000000 -1.000000 0.000000
vn 0.000000 -1.000000 0.000000
s off
f 3/7/1 9/97/2 10/6/3 1/8/4
f 17/9/5 20/12/6 19/11/7 18/10/8
f 2/13/9 11/98/10 12/4/11 4/14/12
f 5/15/13 4/16/14 12/2/15 14/1/16
f 25/17/17 28/20/18 27/19/19 26/18/20
f 3/21/21 5/15/22 14/1/23 9/22/24
f 21/23/25 24/26/26 23/25/27 22/24/28
f 30/27/29 32/147/30 31/28/31 29/148/32
f 18/10/33 19/11/34 38/81/35
f 8/32/36 19/11/37 20/12/38 16/33/39
f 16/33/40 20/12/41 17/9/42 13/90/43
f 13/90/44 17/9/45 18/10/46 6/31/47
f 23/25/48 7/36/49 36/79/50
f 7/36/51 23/25/52 24/26/53 15/37/54
f 21/23/55 10/38/56 15/37/57 24/26/58
f 10/38/59 21/23/60 22/24/61 1/35/62
f 15/39/63 25/17/64 26/18/65 7/149/66
f 26/18/67 27/19/68 37/80/69
f 13/29/70 28/91/71 25/92/72 15/94/73
f 6/3/74 27/150/75 28/151/76 13/152/77
f 16/40/78 30/153/79 29/154/80 8/30/81
f 29/155/82 31/156/83 39/82/84
f 11/157/85 32/158/86 30/159/87 16/95/88
f 2/13/89 31/28/90 32/160/91 11/98/92
f 59/113/93 60/114/94 74/134/95 75/135/96
f 71/129/97 72/131/98 65/121/99 66/122/100
f 72/130/101 73/132/102 64/119/103 65/120/104
f 69/126/105 70/128/106 67/124/107 68/125/108
f 76/138/109 77/139/110 53/105/111 54/106/112
f 70/127/113 71/129/114 66/122/115 67/123/116
f 77/140/117 69/126/118 50/101/119 51/102/120
f 75/136/121 76/137/122 56/109/123 57/110/124
f 62/117/125 63/118/126 73/132/127 74/133/128
f 58/112/129 59/113/130 75/135/131
f 74/134/132 60/114/133 61/116/134
f 40/41/135 38/67/136 8/68/137
f 76/138/138 54/106/139 55/108/140
f 43/53/141 36/74/142 7/73/143
f 52/104/144 53/105/145 77/139/146
f 77/140/147 51/102/148 52/103/149
f 36/75/150 44/58/151 45/59/152 1/49/153
f 68/125/154 50/101/155 69/126/156
f 55/107/157 56/109/158 76/137/159
f 75/136/160 57/110/161 58/111/162
f 46/60/163 37/76/164 6/77/165
f 61/115/166 62/117/167 74/133/168
f 73/132/169 63/118/170 64/119/171
f 2/48/172 49/66/173 48/64/174 39/78/175
f 1/35/176 22/24/177 36/79/178
f 22/24/179 23/25/180 36/79/181
f 7/161/182 26/18/183 37/80/184
f 27/19/185 6/162/186 37/80/187
f 6/31/188 18/10/189 38/81/190
f 19/11/191 8/32/192 38/81/193
f 8/30/194 29/163/195 39/82/196
f 31/164/197 2/165/198 39/82/199
f 42/51/200 7/73/201 37/72/202
f 42/51/203 43/53/204 7/73/205
f 6/77/206 38/166/207 47/63/208
f 46/60/209 6/77/210 47/63/211
f 8/68/212 39/70/213 41/56/214
f 40/41/215 8/68/216 41/56/217
f 10/100/218 9/5/219 14/96/220 12/99/221 11/167/222 16/168/223 13/34/224 15/93/225
f 51/102/226 50/101/227 45/59/228 44/58/229
f 52/103/230 51/102/231 44/58/232 36/75/233
f 36/74/234 43/53/235 53/105/236 52/104/237
f 54/106/238 53/105/239 43/53/240 42/51/241
f 55/108/242 54/106/243 42/51/244 37/72/245
f 37/76/246 46/60/247 56/109/248 55/107/249
f 57/110/250 56/109/251 46/60/252 47/63/253
f 58/111/254 57/110/255 47/63/256 38/169/257
f 38/67/258 40/41/259 59/113/260 58/112/261
f 40/41/262 41/56/263 60/114/264 59/113/265
f 61/116/266 60/114/267 41/56/268 39/70/269
f 39/78/270 48/64/271 62/117/272 61/115/273
f 48/64/274 49/66/275 63/118/276 62/117/277
f 64/119/278 63/118/279 49/66/280 2/48/281
f 65/120/282 64/119/283 2/48/284 4/47/285
f 66/122/286 65/121/287 4/44/288 5/43/289
f 67/123/290 66/122/291 5/43/292 3/52/293
f 68/125/294 67/124/295 3/50/296 1/49/297
f 1/49/298 45/59/299 50/101/300 68/125/301
f 33/42/302 70/54/303 69/55/304
f 33/42/305 35/46/306 71/57/307 70/54/308
f 35/46/309 34/170/310 72/61/311 71/57/312
f 34/171/313 73/62/314 72/61/315
f 79/65/316 78/69/317 80/71/318 81/83/319
f 82/84/320 79/65/321 81/83/322 83/85/323
f 84/86/324 85/87/325 82/84/326 83/85/327
f 84/86/328 86/88/329 87/89/330 85/87/331
f 88/141/332 89/142/333 87/89/334 86/88/335
f 74/143/336 73/62/337 78/69/338 79/65/339
f 73/62/340 34/172/341 80/71/342 78/69/343
f 34/173/344 81/83/345 80/71/346
f 75/144/347 74/143/348 79/65/349 82/84/350
f 34/174/351 35/45/352 83/85/353 81/83/354
f 76/145/355 75/144/356 82/84/357 85/87/358
f 35/45/359 84/86/360 83/85/361
f 35/45/362 33/42/363 86/88/364 84/86/365
f 77/146/366 76/145/367 85/87/368 87/89/369
f 33/42/370 69/55/371 89/142/372 88/141/373
f 69/55/374 77/146/375 87/89/376 89/142/377
f 33/42/378 88/141/379 86/88/380
