# This file uses centimeters as units for non-parametric coordinates.

v 0.000000 0.000000 0.149998
v 5.000000 0.000000 0.149998
v 0.000000 0.000000 0.000000
v 5.000000 0.000000 0.000000
v 0.000000 0.684419 0.000000
v 0.000000 0.684419 0.149998
v 5.000000 0.684419 0.149998
v 5.000000 0.684419 0.000000
v 2.500000 0.684419 0.149998
v 2.500000 0.000000 0.149998
v 2.500000 0.000000 0.000000
v 2.500000 0.662614 0.163603
v 2.500000 0.021806 0.163603
v 5.000000 0.021806 0.163603
v 5.000000 0.662614 0.163603
v 0.000000 0.662614 0.163603
v 0.000000 0.021806 0.163603
v 0.000000 0.645602 0.163603
v 2.500000 0.645602 0.163603
v 5.000000 0.645602 0.163603
v 0.037277 0.684419 0.114496
v 2.462723 0.684419 0.114496
v 2.537277 0.684419 0.114496
v 4.962723 0.684419 0.114496
v 2.500000 0.684419 0.114496
v 0.000000 0.684419 0.114496
v 5.000000 0.684419 0.114496
v 0.037277 2.289442 0.114496
v 2.462715 2.289442 0.114496
v 2.537277 2.289442 0.114496
v 4.962715 2.289442 0.114496
v 2.500000 2.289442 0.114496
v 5.000000 2.312449 0.114496
v 5.000000 2.312449 0.000000
v 0.000000 2.312449 0.000000
v 0.000000 2.312449 0.114496
v 0.037277 2.335456 0.114496
v 2.462723 2.335456 0.114496
v 2.537277 2.335456 0.114496
v 4.962723 2.335456 0.114496
v 2.500000 2.335456 0.114496
v 0.037277 2.737678 0.114496
v 2.462723 2.737678 0.114496
v 2.537277 2.737678 0.114496
v 4.962723 2.737678 0.114496
v 2.500000 2.737678 0.114496
v 5.000000 3.000001 0.114496
v 5.000000 3.000001 0.000000
v 0.000000 3.000001 0.000000
v 0.000000 3.000000 0.114496
v 2.500000 3.000001 0.114496
v 2.500000 3.000001 0.000000
v 0.000000 3.000000 0.067604
v 0.037277 0.684419 0.000000
v 2.462723 0.684419 0.000000
v 2.462723 2.289442 0.000000
v 0.037277 2.289442 0.000000
v 2.537277 0.684419 0.000000
v 4.962723 0.684419 0.000000
v 4.962723 2.289442 0.000000
v 2.537277 2.289442 0.000000
v 0.037277 2.335456 0.000000
v 2.462723 2.335456 0.000000
v 2.462723 2.737678 0.000000
v 0.037277 2.737678 0.000000
v 2.537277 2.335456 0.000000
v 4.962723 2.335456 0.000000
v 4.962723 2.737678 0.000000
v 2.537277 2.737678 0.000000
vt 0.080463 0.280073
vt 0.080463 0.280073
vt 0.080463 0.280073
vt 0.080463 0.280073
vt 0.080463 0.280073
vt 0.080463 0.280073
vt 0.080463 0.280073
vt 0.080463 0.280073
vt 0.049180 0.209274
vt 0.049180 0.209274
vt 0.049181 0.209274
vt 0.049181 0.209274
vt 0.080463 0.280073
vt 0.080463 0.280073
vt 0.080463 0.280073
vt 0.049181 0.209274
vt 0.049181 0.209274
vt 0.080463 0.280073
vt 0.080463 0.280073
vt 0.080463 0.280073
vt 0.080463 0.280073
vt 0.080463 0.280073
vt 0.080463 0.280073
vt 0.080463 0.280073
vt 0.080463 0.280073
vt 0.080463 0.280073
vt 0.080463 0.280073
vt 0.080463 0.280073
vt 0.080463 0.280073
vt 0.080463 0.280073
vt 0.080463 0.280073
vt 0.080463 0.280073
vt 0.080463 0.280073
vt 0.080463 0.280073
vt 0.080463 0.280073
vt 0.080463 0.280073
vt 0.080463 0.280073
vt 0.080463 0.280073
vt 0.080463 0.280073
vt 0.080463 0.280073
vt 0.080463 0.280073
vt 0.080463 0.280073
vt 0.080463 0.280073
vt 0.080463 0.280073
vt 0.080463 0.280073
vt 0.080463 0.280073
vt 0.080463 0.280073
vt 0.080463 0.280073
vt 0.080463 0.280073
vt 0.080463 0.280073
vt 0.080463 0.280073
vt 0.080463 0.280073
vt 0.080463 0.280073
vt 0.080463 0.280073
vt 0.080463 0.280073
vt 0.080463 0.280073
vt 0.080463 0.280073
vt 0.080463 0.280073
vt 0.080463 0.280073
vt 0.080463 0.280073
vt 0.080463 0.280073
vt 0.080463 0.280073
vt 0.080463 0.280073
vt 0.080463 0.280073
vt 0.080463 0.280073
vt 0.080463 0.280073
vt 0.080463 0.280073
vt 0.080463 0.280073
vt 0.080463 0.280073
vt 0.080463 0.280073
vt 0.080463 0.280073
vt 0.080463 0.280073
vt 0.080463 0.280073
vt 0.080463 0.280073
vt 0.080463 0.280073
vt 0.080463 0.280073
vt 0.080463 0.280073
vt 0.080463 0.280073
vt 0.080463 0.280073
vt 0.080463 0.280073
vt 0.080463 0.280073
vt 0.080463 0.280073
vt 0.080463 0.280073
vt 0.080463 0.280073
vt 0.080463 0.280073
vt 0.080463 0.280073
vt 0.080463 0.280073
vt 0.080463 0.280073
vt 0.080463 0.280073
vt 0.080463 0.280073
vt 0.080463 0.280073
vt 0.080463 0.280073
vt 0.080463 0.280073
vt 0.080463 0.280073
vt 0.080463 0.280073
vt 0.080463 0.280073
vt 0.080463 0.280073
vn 0.000000 -1.000000 0.000000
vn 0.000000 -1.000000 0.000000
vn 0.000000 -1.000000 0.000000
vn 0.000000 -1.000000 0.000000
vn -1.000000 0.000000 0.000000
vn -1.000000 0.000000 0.000000
vn -1.000000 0.000000 0.000000
vn -1.000000 0.000000 0.000000
vn 0.000000 0.000000 1.000000
vn 0.000000 0.000000 1.000000
vn 0.000000 0.000000 1.000000
vn 0.000000 0.000000 1.000000
vn 1.000000 0.000000 0.000000
vn 1.000000 0.000000 0.000000
vn 1.000000 0.000000 0.000000
vn 0.000000 0.000000 1.000000
vn 0.000000 0.000000 1.000000
vn 0.000000 0.000000 1.000000
vn 0.000000 0.000000 1.000000
vn 0.000000 -1.000000 0.000000
vn 0.000000 -1.000000 0.000000
vn 0.000000 -1.000000 0.000000
vn 0.000000 -1.000000 0.000000
vn 0.000000 -0.529344 0.848407
vn 0.000000 -0.529344 0.848407
vn 0.000000 -0.529344 0.848407
vn 0.000000 -0.529344 0.848407
vn 0.000000 0.529343 0.848408
vn 0.000000 0.529343 0.848408
vn 0.000000 0.529343 0.848408
vn 0.000000 0.529343 0.848408
vn 0.000000 -0.529344 0.848407
vn 0.000000 -0.529344 0.848407
vn 0.000000 -0.529344 0.848407
vn 0.000000 -0.529344 0.848407
vn 0.000000 0.529343 0.848408
vn 0.000000 0.529343 0.848408
vn 0.000000 0.529343 0.848408
vn 0.000000 0.529343 0.848408
vn -1.000000 0.000000 0.000000
vn -1.000000 0.000000 0.000000
vn -1.000000 0.000000 0.000000
vn 1.000000 0.000000 0.000000
vn 1.000000 0.000000 0.000000
vn 1.000000 0.000000 0.000000
vn -1.000000 0.000000 0.000000
vn -1.000000 0.000000 0.000000
vn -1.000000 0.000000 0.000000
vn 0.000000 0.000000 1.000000
vn 0.000000 0.000000 1.000000
vn 0.000000 0.000000 1.000000
vn 0.000000 0.000000 1.000000
vn 0.000000 0.000000 1.000000
vn 0.000000 0.000000 1.000000
vn 0.000000 0.000000 1.000000
vn 0.000000 0.000000 1.000000
vn 1.000000 0.000000 0.000000
vn 1.000000 0.000000 0.000000
vn 1.000000 0.000000 0.000000
vn 1.000000 0.000000 0.000000
vn 1.000000 0.000000 0.000000
vn 1.000000 0.000000 0.000000
vn -1.000000 0.000000 0.000000
vn -1.000000 0.000000 0.000000
vn -1.000000 0.000000 0.000000
vn -0.000000 1.000000 0.000003
vn -0.000000 1.000000 0.000003
vn -0.000000 1.000000 0.000003
vn -0.000000 1.000000 0.000003
vn 0.000000 1.000000 0.000000
vn 0.000000 1.000000 0.000000
vn 0.000000 1.000000 0.000000
vn 0.000000 1.000000 0.000000
vn 0.000000 1.000000 0.000001
vn 0.000000 1.000000 0.000001
vn 0.000000 1.000000 0.000001
vn 0.000000 1.000000 0.000001
vn 0.000000 1.000000 0.000000
vn 0.000000 1.000000 0.000000
vn 0.000000 1.000000 0.000000
vn 0.000000 1.000000 0.000001
vn 0.000000 1.000000 0.000001
vn 0.000000 1.000000 0.000001
vn 0.000000 1.000000 0.000001
vn 0.000000 1.000000 0.000000
vn 0.000000 1.000000 0.000000
vn 0.000000 1.000000 0.000000
vn 0.000000 1.000000 0.000000
vn 0.000000 1.000000 0.000000
vn 0.000000 1.000000 0.000000
vn -0.000000 0.000000 0.000000
vn -1.000000 0.000000 0.000000
vn -0.000000 0.000000 0.000000
vn 0.000000 1.000000 0.000000
vn 0.000000 1.000000 0.000000
vn 0.000000 1.000000 0.000000
vn 1.000000 0.000000 0.000000
vn 1.000000 0.000000 0.000000
vn 1.000000 0.000000 0.000000
vn 1.000000 0.000000 0.000000
vn -1.000000 0.000000 0.000000
vn -1.000000 0.000000 0.000000
vn -1.000000 0.000000 0.000000
vn 0.000000 0.000000 1.000000
vn 0.000000 0.000000 1.000000
vn 0.000000 0.000000 1.000000
vn 0.000000 0.000000 1.000000
vn 0.000000 0.000000 1.000000
vn 0.000000 0.000000 1.000000
vn 0.000000 0.000000 1.000000
vn 0.000000 0.000000 1.000000
vn 0.000000 0.000000 1.000000
vn 0.000000 0.000000 1.000000
vn 0.000000 0.000000 1.000000
vn 0.000000 0.000000 1.000000
vn 1.000000 0.000000 0.000000
vn 1.000000 0.000000 0.000000
vn 1.000000 0.000000 0.000000
vn 1.000000 0.000000 0.000000
vn -1.000000 0.000000 0.000000
vn -1.000000 0.000000 0.000000
vn -1.000000 0.000000 0.000000
vn -1.000000 0.000000 0.000000
vn 0.000000 0.000000 1.000000
vn 0.000000 0.000000 1.000000
vn 0.000000 0.000000 1.000000
vn 0.000000 0.000000 1.000000
vn 0.000000 0.000000 1.000000
vn 0.000000 0.000000 1.000000
vn 0.000000 0.000000 1.000000
vn 0.000000 0.000000 1.000000
vn 1.000000 0.000000 0.000000
vn 1.000000 0.000000 0.000000
vn 1.000000 0.000000 0.000000
vn 1.000000 0.000000 0.000000
vn 0.000000 0.000000 1.000000
vn 0.000000 0.000000 1.000000
vn 0.000000 0.000000 1.000000
vn 0.000000 0.000000 1.000000
vn 1.000000 0.000000 0.000000
vn 1.000000 0.000000 0.000000
vn 1.000000 0.000000 0.000000
vn 1.000000 0.000000 0.000000
vn 0.000000 0.000000 1.000000
vn 0.000000 0.000000 1.000000
vn 0.000000 0.000000 1.000000
vn 0.000000 0.000000 1.000000
vn 0.000000 0.000000 1.000000
vn 0.000000 0.000000 1.000000
vn 0.000000 0.000000 1.000000
vn 0.000000 0.000000 1.000000
vn 0.000000 0.000000 1.000000
vn 0.000000 0.000000 1.000000
vn 0.000000 0.000000 1.000000
vn 0.000000 0.000000 1.000000
vn 0.000000 0.000000 1.000000
vn 0.000000 0.000000 1.000000
vn 0.000000 -1.000000 -0.000001
vn 0.000000 -1.000000 -0.000001
vn 0.000000 -1.000000 -0.000001
vn 0.000000 -1.000000 -0.000001
vn 0.000000 -1.000000 -0.000001
vn 0.000000 -1.000000 -0.000001
vn 0.000000 -1.000000 -0.000001
vn 0.000000 -1.000000 -0.000001
vn 0.000000 0.000000 1.000000
vn 0.000000 0.000000 1.000000
vn 0.000000 0.000000 1.000000
vn 0.000000 0.000000 1.000000
vn 0.000000 0.000000 1.000000
vn 0.000000 0.000000 1.000000
vn 0.000000 0.000000 1.000000
vn 0.000000 0.000000 1.000000
vn 0.000000 0.000000 1.000000
vn 0.000000 0.000000 1.000000
vn 0.000000 0.000000 1.000000
vn 0.000000 0.000000 1.000000
vn 1.000000 0.000000 0.000000
vn 1.000000 0.000000 0.000000
vn 1.000000 0.000000 0.000000
vn 1.000000 0.000000 0.000000
vn -1.000000 0.000000 0.000000
vn -1.000000 0.000000 0.000000
vn -1.000000 0.000000 0.000000
vn -1.000000 0.000000 0.000000
vn 0.000000 0.000000 1.000000
vn 0.000000 0.000000 1.000000
vn 0.000000 0.000000 1.000000
vn 0.000000 0.000000 1.000000
vn 0.000000 -1.000000 0.000000
vn 0.000000 -1.000000 0.000000
vn 0.000000 -1.000000 0.000000
vn 0.000000 -1.000000 0.000000
vn 1.000000 0.000000 0.000000
vn 1.000000 0.000000 0.000000
vn 1.000000 0.000000 0.000000
vn 1.000000 0.000000 0.000000
vn 0.000000 -1.000000 0.000000
vn 0.000000 -1.000000 0.000000
vn 0.000000 -1.000000 0.000000
vn 0.000000 -1.000000 0.000000
vn 1.000000 0.000000 0.000000
vn 1.000000 0.000000 0.000000
vn 1.000000 0.000000 0.000000
vn 1.000000 0.000000 0.000000
vn 0.000000 0.000000 1.000000
vn 0.000000 0.000000 1.000000
vn 0.000000 0.000000 1.000000
vn 0.000000 0.000000 1.000000
vn 0.000000 0.000000 1.000000
vn 0.000000 0.000000 1.000000
vn 0.000000 0.000000 1.000000
vn 0.000000 0.000000 1.000000
vn 0.000000 0.000000 1.000000
vn 0.000000 0.000000 1.000000
vn 0.000000 0.000000 1.000000
vn 0.000000 0.000000 1.000000
vn 0.000000 0.000000 1.000000
vn 0.000000 0.000000 1.000000
vn 0.000000 0.000000 0.000000
vn 0.000000 0.000000 0.000000
vn 1.000000 0.000000 0.000000
vn 0.000000 1.000000 0.000000
vn 0.000000 1.000000 0.000000
vn 0.000000 1.000000 0.000000
vn 0.000000 1.000000 0.000000
vn -1.000000 -0.000002 -0.000033
vn -1.000000 -0.000002 -0.000033
vn -1.000000 -0.000002 -0.000033
vn -1.000000 -0.000002 -0.000033
vn 0.000000 1.000000 0.000000
vn 0.000000 1.000000 0.000000
vn 0.000000 1.000000 0.000000
vn 0.000000 1.000000 0.000000
vn -1.000000 -0.000002 -0.000033
vn -1.000000 -0.000002 -0.000033
vn -1.000000 -0.000002 -0.000033
vn -1.000000 -0.000002 -0.000033
vn 0.000000 1.000000 0.000000
vn 0.000000 1.000000 0.000000
vn 0.000000 1.000000 0.000000
vn 0.000000 1.000000 0.000000
vn -1.000000 0.000000 0.000000
vn -1.000000 0.000000 0.000000
vn -1.000000 0.000000 0.000000
vn -1.000000 0.000000 0.000000
vn 0.000000 1.000000 0.000000
vn 0.000000 1.000000 0.000000
vn 0.000000 1.000000 0.000000
vn 0.000000 1.000000 0.000000
vn -1.000000 0.000000 0.000000
vn -1.000000 0.000000 0.000000
vn -1.000000 0.000000 0.000000
vn -1.000000 0.000000 0.000000
s off
f 10/1/1 11/2/2 4/3/3 2/4/4
f 3/5/5 1/6/6 6/7/7 26/8/8
f 12/9/9 19/10/10 20/11/11 15/12/12
f 27/13/13 4/14/14 8/15/15
f 16/16/16 18/17/17 19/10/18 12/9/19
f 1/6/20 3/5/21 11/2/22 10/1/23
f 10/1/24 2/4/25 14/18/26 13/19/27
f 7/20/28 9/21/29 12/22/30 15/23/31
f 1/6/32 10/1/33 13/19/34 17/24/35
f 9/25/36 6/7/37 16/26/38 12/22/39
f 6/7/40 18/27/41 16/26/42
f 20/28/43 7/20/44 15/23/45
f 6/7/46 1/6/47 18/27/48
f 19/29/49 18/27/50 17/24/51 13/19/52
f 20/28/53 19/29/54 13/19/55 14/18/56
f 2/30/57 20/28/58 14/18/59
f 2/30/60 7/20/61 20/28/62
f 18/27/63 1/6/64 17/24/65
f 50/31/66 51/32/67 52/33/68 49/34/69
f 52/35/70 51/36/71 47/37/72 48/38/73
f 6/7/74 9/21/75 22/39/76 21/40/77
f 21/40/78 26/8/79 6/7/80
f 9/21/81 7/20/82 24/41/83 23/42/84
f 9/21/85 25/43/86 22/39/87
f 23/42/88 25/43/89 9/21/90
f 49/34/91 53/44/92 50/45/93
f 7/20/94 27/13/95 24/41/96
f 2/30/97 4/14/98 27/13/99 7/20/100
f 3/5/101 26/8/102 5/46/103
f 22/39/104 25/43/105 32/47/106 29/48/107
f 25/43/108 23/42/109 30/49/110 32/47/111
f 24/41/112 27/13/113 33/50/114 31/51/115
f 27/13/116 8/15/117 34/52/118 33/50/119
f 5/46/120 26/8/121 36/53/122 35/54/123
f 26/8/124 21/40/125 28/55/126 36/53/127
f 38/56/128 37/57/129 28/55/130 29/48/131
f 28/55/132 21/40/133 54/83/134 57/85/135
f 40/58/136 39/59/137 30/49/138 31/51/139
f 30/49/140 23/42/141 58/87/142 61/89/143
f 29/48/144 32/47/145 41/60/146 38/56/147
f 32/47/148 30/49/149 39/59/150 41/60/151
f 31/51/152 33/50/153 40/58/154
f 36/53/155 28/55/156 37/57/157
f 29/48/158 28/55/159 57/85/160 56/84/161
f 31/51/162 30/49/163 61/89/164 60/88/165
f 38/56/166 41/60/167 46/61/168 43/62/169
f 41/60/170 39/59/171 44/63/172 46/61/173
f 40/58/174 33/50/175 47/64/176 45/65/177
f 33/50/178 34/52/179 48/66/180 47/64/181
f 35/54/182 36/53/183 50/45/184 49/67/185
f 36/53/186 37/57/187 42/68/188 50/45/189
f 43/72/190 42/73/191 65/93/192 64/92/193
f 42/73/194 37/74/195 62/91/196 65/93/197
f 45/78/198 44/79/199 69/97/200 68/96/201
f 44/79/202 39/80/203 66/95/204 69/97/205
f 42/73/206 43/72/207 51/32/208 50/31/209
f 44/79/210 45/78/211 47/37/212 51/36/213
f 43/62/214 46/61/215 51/81/216
f 46/61/217 44/63/218 51/81/219
f 49/67/220 50/45/221 53/44/222
f 22/39/223 55/82/224 54/83/225 21/40/226
f 29/48/227 56/84/228 55/82/229 22/39/230
f 24/41/231 59/86/232 58/87/233 23/42/234
f 31/51/235 60/88/236 59/86/237 24/41/238
f 38/70/239 63/90/240 62/91/241 37/69/242
f 43/72/243 64/92/244 63/90/245 38/71/246
f 40/76/247 67/94/248 66/95/249 39/75/250
f 45/78/251 68/96/252 67/94/253 40/77/254
