# This file uses centimeters as units for non-parametric coordinates.

v 0.011970 -0.021645 -0.106535
v 0.208827 0.003736 -0.081853
v 0.012019 -0.018563 -0.106538
v 0.206189 0.005308 -0.082113
v 0.023995 -0.018835 -0.198716
v 0.230062 -0.004872 -0.172570
v 0.023947 -0.021918 -0.198713
v 0.232701 -0.006444 -0.172308
v 0.141261 -0.016988 -0.183486
v 0.141213 -0.020070 -0.183484
v 0.129236 -0.019798 -0.091305
v 0.129285 -0.016716 -0.091308
v 0.187186 -0.009608 -0.175170
v 0.188886 -0.012169 -0.174942
v 0.170595 -0.006810 -0.085970
v 0.168896 -0.004248 -0.086198
v 0.034428 -0.019548 -0.295308
v 0.033035 -0.016838 -0.294849
v 0.059108 -0.008625 -0.384897
v 0.060501 -0.011334 -0.385356
v -0.003364 -0.032133 -0.398677
v -0.001041 -0.034153 -0.398514
v -0.021929 -0.050998 -0.309518
v -0.024251 -0.048979 -0.309681
v 0.023226 -0.012066 -0.386028
v 0.025567 -0.014065 -0.385857
v -0.002483 -0.027338 -0.300323
v -0.004823 -0.025340 -0.300494
v -0.234113 -0.059063 -0.211111
v -0.006263 -0.059063 -0.198076
v -0.234113 -0.020655 -0.211111
v -0.006263 -0.020655 -0.198076
v -0.228804 -0.020655 -0.303913
v -0.000955 -0.020655 -0.290878
v -0.228804 -0.059063 -0.303913
v -0.000955 -0.059063 -0.290878
v -0.231505 -0.059063 -0.311071
v -0.003284 -0.059063 -0.311071
v -0.231505 -0.020655 -0.311071
v -0.003284 -0.020655 -0.311071
v -0.231505 -0.020655 -0.404025
v -0.003284 -0.020655 -0.404025
v -0.231505 -0.059063 -0.404025
v -0.003284 -0.059063 -0.404025
v -0.216457 -0.059063 -0.094977
v 0.011655 -0.059063 -0.102033
v -0.216457 -0.031580 -0.094977
v 0.011655 -0.031580 -0.102033
v -0.219331 -0.031580 -0.187886
v 0.008781 -0.031580 -0.194942
v -0.219331 -0.059063 -0.187886
v 0.008781 -0.059063 -0.194942
v 0.020725 -0.059063 -0.310204
v 0.242146 -0.059063 -0.321778
v 0.020725 -0.020655 -0.310204
v 0.242146 -0.020655 -0.321778
v 0.016012 -0.020655 -0.403038
v 0.237432 -0.020655 -0.414612
v 0.016012 -0.059063 -0.403038
v 0.237432 -0.059063 -0.414612
v 0.008143 -0.059063 -0.201111
v 0.236365 -0.059063 -0.201111
v 0.008143 -0.013415 -0.201111
v 0.236365 -0.013415 -0.201111
v 0.008143 -0.013415 -0.294064
v 0.236365 -0.013415 -0.294064
v 0.008143 -0.059063 -0.294064
v 0.236365 -0.059063 -0.294064
v 0.017472 -0.059063 -0.098874
v 0.245694 -0.059063 -0.098874
v 0.017472 -0.020655 -0.098874
v 0.245694 -0.020655 -0.098874
v 0.017472 -0.020655 -0.191828
v 0.245694 -0.020655 -0.191828
v 0.017472 -0.059063 -0.191828
v 0.245694 -0.059063 -0.191828
v -0.246445 -0.084737 -0.422950
v -0.246445 -0.084737 -0.312348
v -0.246445 -0.084737 -0.201747
v -0.246445 -0.084737 -0.091146
v -0.246445 -0.057126 -0.422950
v -0.246445 -0.057126 -0.312348
v -0.246445 -0.057126 -0.201747
v -0.246445 -0.057126 -0.091146
v -0.003563 -0.057126 -0.422950
v -0.003563 -0.057126 -0.312348
v -0.003563 -0.057126 -0.201747
v -0.003563 -0.057126 -0.091146
v 0.239319 -0.057126 -0.422950
v 0.239319 -0.057126 -0.312348
v 0.239319 -0.057126 -0.201747
v 0.239319 -0.057126 -0.091146
v 0.239319 -0.084737 -0.422950
v 0.239319 -0.084737 -0.312348
v 0.239319 -0.084737 -0.201747
v 0.239319 -0.084737 -0.091146
v -0.003563 -0.084737 -0.422950
v -0.003563 -0.084737 -0.312348
v -0.003563 -0.084737 -0.201747
v -0.003563 -0.084737 -0.091146
vt 0.687684 0.400497
vt 0.687684 0.400497
vt 0.669340 0.400497
vt 0.669340 0.400497
vt 0.503749 0.373682
vt 0.563860 0.373682
vt 0.563860 0.434205
vt 0.503749 0.434205
vt 0.669340 0.400497
vt 0.669340 0.400497
vt 0.687684 0.400497
vt 0.687684 0.400497
vt 0.503749 0.434205
vt 0.563860 0.434205
vt 0.563860 0.373682
vt 0.503749 0.373682
vt 0.687684 0.400497
vt 0.687684 0.400497
vt 0.669340 0.400497
vt 0.669340 0.400497
vt 0.669340 0.400497
vt 0.687684 0.400497
vt 0.593915 0.434205
vt 0.593915 0.373682
vt 0.687684 0.400497
vt 0.669340 0.400497
vt 0.593915 0.373682
vt 0.593915 0.434205
vt 0.623970 0.434205
vt 0.623970 0.373682
vt 0.623970 0.373682
vt 0.623970 0.434205
vt 0.687684 0.400497
vt 0.687684 0.400497
vt 0.669340 0.400497
vt 0.669340 0.400497
vt 0.669340 0.400497
vt 0.669340 0.400497
vt 0.687684 0.400497
vt 0.687684 0.400497
vt 0.563860 0.373682
vt 0.563860 0.434205
vt 0.593915 0.434205
vt 0.593915 0.373682
vt 0.669340 0.400497
vt 0.687684 0.400497
vt 0.687684 0.400497
vt 0.669340 0.400497
vt 0.563860 0.434205
vt 0.563860 0.373682
vt 0.593915 0.373682
vt 0.593915 0.434205
vt 0.623970 0.434205
vt 0.623970 0.373682
vt 0.623970 0.373682
vt 0.623970 0.434205
vt 0.669081 0.407043
vt 0.669081 0.407042
vt 0.623575 0.407043
vt 0.623575 0.407043
vt 0.503749 0.373682
vt 0.623970 0.373682
vt 0.623970 0.434205
vt 0.503749 0.434205
vt 0.623575 0.407043
vt 0.623575 0.407043
vt 0.669081 0.407043
vt 0.669081 0.407043
vt 0.503749 0.434205
vt 0.623970 0.434205
vt 0.623970 0.373682
vt 0.503749 0.373682
vt 0.669081 0.407043
vt 0.669081 0.407042
vt 0.623575 0.407043
vt 0.623575 0.407043
vt 0.503749 0.373682
vt 0.623970 0.373682
vt 0.623970 0.434205
vt 0.503749 0.434205
vt 0.623575 0.407043
vt 0.623575 0.407043
vt 0.669081 0.407043
vt 0.669081 0.407043
vt 0.503749 0.434205
vt 0.623970 0.434205
vt 0.623970 0.373682
vt 0.503749 0.373682
vt 0.669081 0.407043
vt 0.669081 0.407042
vt 0.623575 0.407043
vt 0.623575 0.407043
vt 0.503749 0.373682
vt 0.623970 0.373682
vt 0.623970 0.434205
vt 0.503749 0.434205
vt 0.623575 0.407043
vt 0.623575 0.407043
vt 0.669081 0.407043
vt 0.669081 0.407043
vt 0.503749 0.434205
vt 0.623970 0.434205
vt 0.623970 0.373682
vt 0.503749 0.373682
vt 0.669081 0.407043
vt 0.669081 0.407042
vt 0.623575 0.407043
vt 0.623575 0.407043
vt 0.503749 0.373682
vt 0.623970 0.373682
vt 0.623970 0.434205
vt 0.503749 0.434205
vt 0.623575 0.407043
vt 0.623575 0.407043
vt 0.669081 0.407043
vt 0.669081 0.407043
vt 0.503749 0.434205
vt 0.623970 0.434205
vt 0.623970 0.373682
vt 0.503749 0.373682
vt 0.669081 0.407043
vt 0.669081 0.407042
vt 0.623575 0.407043
vt 0.623575 0.407043
vt 0.503749 0.373682
vt 0.623970 0.373682
vt 0.623970 0.434205
vt 0.503749 0.434205
vt 0.623575 0.407043
vt 0.623575 0.407043
vt 0.669081 0.407043
vt 0.669081 0.407043
vt 0.503749 0.434205
vt 0.623970 0.434205
vt 0.623970 0.373682
vt 0.503749 0.373682
vt 0.669081 0.407043
vt 0.669081 0.407042
vt 0.623575 0.407043
vt 0.623575 0.407043
vt 0.503749 0.373682
vt 0.623970 0.373682
vt 0.623970 0.434205
vt 0.503749 0.434205
vt 0.623575 0.407043
vt 0.623575 0.407043
vt 0.669081 0.407043
vt 0.669081 0.407043
vt 0.503749 0.434205
vt 0.623970 0.434205
vt 0.623970 0.373682
vt 0.503749 0.373682
vt 0.673534 0.384047
vt 0.673534 0.384047
vt 0.624311 0.384047
vt 0.624311 0.384047
vt 0.673534 0.384047
vt 0.624311 0.384047
vt 0.673534 0.384047
vt 0.624311 0.384047
vt 0.502098 0.435007
vt 0.502098 0.374042
vt 0.626061 0.374042
vt 0.626061 0.435007
vt 0.502098 0.435007
vt 0.502098 0.374042
vt 0.626061 0.374042
vt 0.626061 0.435007
vt 0.502098 0.435007
vt 0.502098 0.374042
vt 0.626061 0.374042
vt 0.626061 0.435007
vt 0.502098 0.435007
vt 0.502098 0.374042
vt 0.626061 0.374042
vt 0.626061 0.435007
vt 0.502098 0.435007
vt 0.502098 0.374042
vt 0.626061 0.374042
vt 0.626061 0.435007
vt 0.502098 0.435007
vt 0.502098 0.374042
vt 0.626061 0.374042
vt 0.626061 0.435007
vt 0.624311 0.430486
vt 0.624311 0.430486
vt 0.673534 0.430486
vt 0.673534 0.430486
vt 0.624311 0.430486
vt 0.673534 0.430486
vt 0.624311 0.430486
vt 0.673534 0.430486
vt 0.502098 0.435007
vt 0.502098 0.374042
vt 0.626061 0.374042
vt 0.626061 0.435007
vt 0.502098 0.435007
vt 0.502098 0.374042
vt 0.626061 0.374042
vt 0.626061 0.435007
vt 0.502098 0.435007
vt 0.502098 0.374042
vt 0.626061 0.374042
vt 0.626061 0.435007
vt 0.502098 0.435007
vt 0.502098 0.374042
vt 0.626061 0.374042
vt 0.626061 0.435007
vt 0.502098 0.435007
vt 0.502098 0.374042
vt 0.626061 0.374042
vt 0.626061 0.435007
vt 0.502098 0.435007
vt 0.502098 0.374042
vt 0.626061 0.374042
vt 0.626061 0.435007
vt 0.673534 0.407267
vt 0.624311 0.407267
vt 0.673534 0.407267
vt 0.624311 0.407267
vn -0.128836 0.002954 0.991662
vn -0.128839 0.002952 0.991661
vn -0.128841 0.002952 0.991661
vn -0.128836 0.002954 0.991661
vn -0.015113 0.999874 -0.004916
vn -0.069707 0.997333 -0.021634
vn -0.068431 0.997430 -0.021243
vn -0.015113 0.999874 -0.004916
vn 0.128836 -0.002934 -0.991662
vn 0.143058 0.001310 -0.989713
vn 0.140598 0.000575 -0.990067
vn 0.128836 -0.002934 -0.991662
vn 0.015113 -0.999874 0.004916
vn 0.070749 -0.997255 0.021857
vn 0.072015 -0.997155 0.022243
vn 0.015113 -0.999874 0.004916
vn 0.508531 0.860231 0.037400
vn 0.508531 0.860231 0.037400
vn 0.508531 0.860231 0.037400
vn 0.508531 0.860231 0.037400
vn -0.991541 0.015451 -0.128874
vn -0.991541 0.015451 -0.128874
vn -0.991541 0.015451 -0.128874
vn -0.991541 0.015451 -0.128874
vn 0.143058 0.001310 -0.989713
vn 0.144871 -0.005841 -0.989433
vn 0.114297 -0.022568 -0.993190
vn 0.140598 0.000575 -0.990067
vn 0.072015 -0.997155 0.022243
vn 0.070749 -0.997255 0.021857
vn 0.200638 -0.974852 0.096999
vn 0.202172 -0.974795 0.094352
vn -0.128841 0.002952 0.991661
vn -0.128839 0.002952 0.991661
vn -0.118032 0.003145 0.993005
vn -0.121935 0.003073 0.992533
vn -0.068431 0.997430 -0.021243
vn -0.069707 0.997333 -0.021634
vn -0.192218 0.976983 -0.092504
vn -0.189982 0.977182 -0.094984
vn 0.144871 -0.005841 -0.989433
vn 0.066046 -0.048756 -0.996625
vn 0.066046 -0.048756 -0.996625
vn 0.114297 -0.022568 -0.993190
vn 0.202172 -0.974795 0.094352
vn 0.200638 -0.974852 0.096999
vn 0.182851 -0.974851 0.127400
vn 0.182851 -0.974851 0.127400
vn -0.121935 0.003073 0.992533
vn -0.118032 0.003145 0.993005
vn -0.108837 0.003313 0.994054
vn -0.108837 0.003313 0.994054
vn -0.189982 0.977182 -0.094984
vn -0.192218 0.976983 -0.092504
vn -0.164180 0.978689 -0.123343
vn -0.164180 0.978689 -0.123343
vn 0.870487 0.398828 0.288425
vn 0.870487 0.398828 0.288425
vn 0.870487 0.398828 0.288425
vn 0.870487 0.398828 0.288425
vn 0.268244 0.233595 -0.934601
vn 0.201811 0.192055 -0.960410
vn 0.120352 0.140529 -0.982735
vn 0.268244 0.233595 -0.934601
vn 0.672046 -0.737986 0.061083
vn 0.672046 -0.737986 0.061083
vn 0.399429 -0.916643 -0.014944
vn 0.443674 -0.896181 -0.003520
vn -0.227566 -0.184556 0.956114
vn -0.227566 -0.184556 0.956114
vn -0.156175 -0.161685 0.974406
vn -0.181880 -0.169996 0.968515
vn -0.671980 0.738048 -0.061053
vn -0.671980 0.738048 -0.061053
vn -0.444785 0.895634 0.002428
vn -0.404066 0.914640 0.012833
vn 0.201811 0.192055 -0.960410
vn 0.016532 0.073966 -0.997124
vn 0.016532 0.073966 -0.997124
vn 0.120352 0.140529 -0.982735
vn 0.443674 -0.896181 -0.003520
vn 0.399429 -0.916643 -0.014944
vn 0.150084 -0.985871 -0.074384
vn 0.150084 -0.985871 -0.074384
vn -0.181880 -0.169996 0.968515
vn -0.156175 -0.161685 0.974406
vn -0.108364 -0.146002 0.983332
vn -0.108364 -0.146002 0.983332
vn -0.404066 0.914640 0.012833
vn -0.444785 0.895634 0.002428
vn -0.165699 0.983738 0.069309
vn -0.165699 0.983738 0.069309
vn -0.057115 0.000000 0.998368
vn -0.057115 0.000000 0.998368
vn -0.057115 0.000000 0.998368
vn -0.057115 0.000000 0.998368
vn 0.000000 1.000000 0.000000
vn 0.000000 1.000000 0.000000
vn 0.000000 1.000000 0.000000
vn 0.000000 1.000000 0.000000
vn 0.057115 0.000000 -0.998368
vn 0.057115 0.000000 -0.998368
vn 0.057115 0.000000 -0.998368
vn 0.057115 0.000000 -0.998368
vn 0.000000 -1.000000 0.000000
vn 0.000000 -1.000000 0.000000
vn 0.000000 -1.000000 0.000000
vn 0.000000 -1.000000 0.000000
vn 0.998368 0.000000 0.057111
vn 0.998368 0.000000 0.057111
vn 0.998368 0.000000 0.057111
vn 0.998368 0.000000 0.057111
vn -0.998368 0.000000 -0.057116
vn -0.998368 0.000000 -0.057116
vn -0.998368 0.000000 -0.057116
vn -0.998368 0.000000 -0.057116
vn 0.000000 0.000000 1.000000
vn 0.000000 0.000000 1.000000
vn 0.000000 0.000000 1.000000
vn 0.000000 0.000000 1.000000
vn 0.000000 1.000000 0.000000
vn 0.000000 1.000000 0.000000
vn 0.000000 1.000000 0.000000
vn 0.000000 1.000000 0.000000
vn 0.000000 0.000000 -1.000000
vn 0.000000 0.000000 -1.000000
vn 0.000000 0.000000 -1.000000
vn 0.000000 0.000000 -1.000000
vn 0.000000 -1.000000 0.000000
vn 0.000000 -1.000000 0.000000
vn 0.000000 -1.000000 0.000000
vn 0.000000 -1.000000 0.000000
vn 1.000000 0.000000 0.000000
vn 1.000000 0.000000 0.000000
vn 1.000000 0.000000 0.000000
vn 1.000000 0.000000 0.000000
vn -1.000000 0.000000 0.000000
vn -1.000000 0.000000 0.000000
vn -1.000000 0.000000 0.000000
vn -1.000000 0.000000 0.000000
vn 0.030916 0.000000 0.999522
vn 0.030916 0.000000 0.999522
vn 0.030916 0.000000 0.999522
vn 0.030916 0.000000 0.999522
vn 0.000000 1.000000 0.000000
vn 0.000000 1.000000 0.000000
vn 0.000000 1.000000 0.000000
vn 0.000000 1.000000 0.000000
vn -0.030918 0.000000 -0.999522
vn -0.030918 0.000000 -0.999522
vn -0.030918 0.000000 -0.999522
vn -0.030918 0.000000 -0.999522
vn 0.000000 -1.000000 0.000000
vn 0.000000 -1.000000 0.000000
vn 0.000000 -1.000000 0.000000
vn 0.000000 -1.000000 0.000000
vn 0.999522 0.000000 -0.030917
vn 0.999522 0.000000 -0.030917
vn 0.999522 0.000000 -0.030917
vn 0.999522 0.000000 -0.030917
vn -0.999522 0.000000 0.030918
vn -0.999522 0.000000 0.030918
vn -0.999522 0.000000 0.030918
vn -0.999522 0.000000 0.030918
vn 0.052199 0.000000 0.998637
vn 0.052199 0.000000 0.998637
vn 0.052199 0.000000 0.998637
vn 0.052199 0.000000 0.998637
vn 0.000000 1.000000 0.000000
vn 0.000000 1.000000 0.000000
vn 0.000000 1.000000 0.000000
vn 0.000000 1.000000 0.000000
vn -0.052199 0.000000 -0.998637
vn -0.052199 0.000000 -0.998637
vn -0.052199 0.000000 -0.998637
vn -0.052199 0.000000 -0.998637
vn 0.000000 -1.000000 -0.000000
vn 0.000000 -1.000000 -0.000000
vn 0.000000 -1.000000 -0.000000
vn 0.000000 -1.000000 -0.000000
vn 0.998713 0.000000 -0.050714
vn 0.998713 0.000000 -0.050714
vn 0.998713 0.000000 -0.050714
vn 0.998713 0.000000 -0.050714
vn -0.998714 0.000000 0.050704
vn -0.998714 0.000000 0.050704
vn -0.998714 0.000000 0.050704
vn -0.998714 0.000000 0.050704
vn 0.000000 0.000000 1.000000
vn 0.000000 0.000000 1.000000
vn 0.000000 0.000000 1.000000
vn 0.000000 0.000000 1.000000
vn 0.000000 1.000000 0.000000
vn 0.000000 1.000000 0.000000
vn 0.000000 1.000000 0.000000
vn 0.000000 1.000000 0.000000
vn 0.000000 0.000000 -1.000000
vn 0.000000 0.000000 -1.000000
vn 0.000000 0.000000 -1.000000
vn 0.000000 0.000000 -1.000000
vn 0.000000 -1.000000 0.000000
vn 0.000000 -1.000000 0.000000
vn 0.000000 -1.000000 0.000000
vn 0.000000 -1.000000 0.000000
vn 1.000000 0.000000 0.000000
vn 1.000000 0.000000 0.000000
vn 1.000000 0.000000 0.000000
vn 1.000000 0.000000 0.000000
vn -1.000000 0.000000 0.000000
vn -1.000000 0.000000 0.000000
vn -1.000000 0.000000 0.000000
vn -1.000000 0.000000 0.000000
vn 0.000000 0.000000 1.000000
vn 0.000000 0.000000 1.000000
vn 0.000000 0.000000 1.000000
vn 0.000000 0.000000 1.000000
vn 0.000000 1.000000 0.000000
vn 0.000000 1.000000 0.000000
vn 0.000000 1.000000 0.000000
vn 0.000000 1.000000 0.000000
vn 0.000000 0.000000 -1.000000
vn 0.000000 0.000000 -1.000000
vn 0.000000 0.000000 -1.000000
vn 0.000000 0.000000 -1.000000
vn 0.000000 -1.000000 0.000000
vn 0.000000 -1.000000 0.000000
vn 0.000000 -1.000000 0.000000
vn 0.000000 -1.000000 0.000000
vn 1.000000 0.000000 0.000000
vn 1.000000 0.000000 0.000000
vn 1.000000 0.000000 0.000000
vn 1.000000 0.000000 0.000000
vn -1.000000 0.000000 0.000000
vn -1.000000 0.000000 0.000000
vn -1.000000 0.000000 0.000000
vn -1.000000 0.000000 0.000000
vn -1.000000 0.000000 0.000000
vn -1.000000 0.000000 0.000000
vn -1.000000 0.000000 0.000000
vn -1.000000 0.000000 0.000000
vn -1.000000 0.000000 0.000000
vn -1.000000 0.000000 0.000000
vn -1.000000 0.000000 0.000000
vn -1.000000 0.000000 0.000000
vn -1.000000 0.000000 0.000000
vn -1.000000 0.000000 0.000000
vn -1.000000 0.000000 0.000000
vn -1.000000 0.000000 0.000000
vn 0.000000 1.000000 0.000000
vn 0.000000 1.000000 0.000000
vn 0.000000 1.000000 0.000000
vn 0.000000 1.000000 0.000000
vn 0.000000 1.000000 0.000000
vn 0.000000 1.000000 0.000000
vn 0.000000 1.000000 0.000000
vn 0.000000 1.000000 0.000000
vn 0.000000 1.000000 0.000000
vn 0.000000 1.000000 0.000000
vn 0.000000 1.000000 0.000000
vn 0.000000 1.000000 0.000000
vn 0.000000 1.000000 0.000000
vn 0.000000 1.000000 0.000000
vn 0.000000 1.000000 0.000000
vn 0.000000 1.000000 0.000000
vn 0.000000 1.000000 0.000000
vn 0.000000 1.000000 0.000000
vn 0.000000 1.000000 0.000000
vn 0.000000 1.000000 0.000000
vn 0.000000 1.000000 0.000000
vn 0.000000 1.000000 0.000000
vn 0.000000 1.000000 0.000000
vn 0.000000 1.000000 0.000000
vn 1.000000 0.000000 0.000000
vn 1.000000 0.000000 0.000000
vn 1.000000 0.000000 0.000000
vn 1.000000 0.000000 0.000000
vn 1.000000 0.000000 0.000000
vn 1.000000 0.000000 0.000000
vn 1.000000 0.000000 0.000000
vn 1.000000 0.000000 0.000000
vn 1.000000 0.000000 0.000000
vn 1.000000 0.000000 0.000000
vn 1.000000 0.000000 0.000000
vn 1.000000 0.000000 0.000000
vn 0.000000 -1.000000 0.000000
vn 0.000000 -1.000000 0.000000
vn 0.000000 -1.000000 0.000000
vn 0.000000 -1.000000 0.000000
vn 0.000000 -1.000000 0.000000
vn 0.000000 -1.000000 0.000000
vn 0.000000 -1.000000 0.000000
vn 0.000000 -1.000000 0.000000
vn 0.000000 -1.000000 0.000000
vn 0.000000 -1.000000 0.000000
vn 0.000000 -1.000000 0.000000
vn 0.000000 -1.000000 0.000000
vn 0.000000 -1.000000 0.000000
vn 0.000000 -1.000000 0.000000
vn 0.000000 -1.000000 0.000000
vn 0.000000 -1.000000 0.000000
vn 0.000000 -1.000000 0.000000
vn 0.000000 -1.000000 0.000000
vn 0.000000 -1.000000 0.000000
vn 0.000000 -1.000000 0.000000
vn 0.000000 -1.000000 0.000000
vn 0.000000 -1.000000 0.000000
vn 0.000000 -1.000000 0.000000
vn 0.000000 -1.000000 0.000000
vn 0.000000 0.000000 1.000000
vn 0.000000 0.000000 1.000000
vn 0.000000 0.000000 1.000000
vn 0.000000 0.000000 1.000000
vn 0.000000 0.000000 1.000000
vn 0.000000 0.000000 1.000000
vn 0.000000 0.000000 1.000000
vn 0.000000 0.000000 1.000000
vn 0.000000 0.000000 -1.000000
vn 0.000000 0.000000 -1.000000
vn 0.000000 0.000000 -1.000000
vn 0.000000 0.000000 -1.000000
vn 0.000000 0.000000 -1.000000
vn 0.000000 0.000000 -1.000000
vn 0.000000 0.000000 -1.000000
vn 0.000000 0.000000 -1.000000
s off
f 1/1/1 11/2/2 12/3/3 3/4/4
f 3/5/5 12/6/6 9/7/7 5/8/8
f 5/9/9 9/10/10 10/11/11 7/12/12
f 7/13/13 10/14/14 11/15/15 1/16/16
f 2/17/17 8/18/18 6/19/19 4/20/20
f 7/12/21 1/1/22 3/4/23 5/9/24
f 9/10/25 13/21/26 14/22/27 10/11/28
f 11/15/29 10/14/30 14/23/31 15/24/32
f 12/3/33 11/2/34 15/25/35 16/26/36
f 9/7/37 12/6/38 16/27/39 13/28/40
f 13/21/41 6/19/42 8/18/43 14/22/44
f 15/24/45 14/23/46 8/29/47 2/30/48
f 16/26/49 15/25/50 2/17/51 4/20/52
f 13/28/53 16/27/54 4/31/55 6/32/56
f 17/33/57 20/34/58 19/35/59 18/36/60
f 21/37/61 25/38/62 26/39/63 22/40/64
f 23/41/65 22/42/66 26/43/67 27/44/68
f 24/45/69 23/46/70 27/47/71 28/48/72
f 21/49/73 24/50/74 28/51/75 25/52/76
f 25/38/77 19/35/78 20/34/79 26/39/80
f 27/44/81 26/43/82 20/53/83 17/54/84
f 28/48/85 27/47/86 17/33/87 18/36/88
f 25/52/89 28/51/90 18/55/91 19/56/92
f 29/57/93 30/58/94 32/59/95 31/60/96
f 31/61/97 32/62/98 34/63/99 33/64/100
f 33/65/101 34/66/102 36/67/103 35/68/104
f 35/69/105 36/70/106 30/71/107 29/72/108
f 30/58/109 36/67/110 34/66/111 32/59/112
f 35/68/113 29/57/114 31/60/115 33/65/116
f 37/73/117 38/74/118 40/75/119 39/76/120
f 39/77/121 40/78/122 42/79/123 41/80/124
f 41/81/125 42/82/126 44/83/127 43/84/128
f 43/85/129 44/86/130 38/87/131 37/88/132
f 38/74/133 44/83/134 42/82/135 40/75/136
f 43/84/137 37/73/138 39/76/139 41/81/140
f 45/89/141 46/90/142 48/91/143 47/92/144
f 47/93/145 48/94/146 50/95/147 49/96/148
f 49/97/149 50/98/150 52/99/151 51/100/152
f 51/101/153 52/102/154 46/103/155 45/104/156
f 46/90/157 52/99/158 50/98/159 48/91/160
f 51/100/161 45/89/162 47/92/163 49/97/164
f 53/105/165 54/106/166 56/107/167 55/108/168
f 55/109/169 56/110/170 58/111/171 57/112/172
f 57/113/173 58/114/174 60/115/175 59/116/176
f 59/117/177 60/118/178 54/119/179 53/120/180
f 54/106/181 60/115/182 58/114/183 56/107/184
f 59/116/185 53/105/186 55/108/187 57/113/188
f 61/121/189 62/122/190 64/123/191 63/124/192
f 63/125/193 64/126/194 66/127/195 65/128/196
f 65/129/197 66/130/198 68/131/199 67/132/200
f 67/133/201 68/134/202 62/135/203 61/136/204
f 62/122/205 68/131/206 66/130/207 64/123/208
f 67/132/209 61/121/210 63/124/211 65/129/212
f 69/137/213 70/138/214 72/139/215 71/140/216
f 71/141/217 72/142/218 74/143/219 73/144/220
f 73/145/221 74/146/222 76/147/223 75/148/224
f 75/149/225 76/150/226 70/151/227 69/152/228
f 70/138/229 76/147/230 74/146/231 72/139/232
f 75/148/233 69/137/234 71/140/235 73/145/236
f 77/153/237 78/154/238 82/155/239 81/156/240
f 78/154/241 79/157/242 83/158/243 82/155/244
f 79/157/245 80/159/246 84/160/247 83/158/248
f 81/161/249 82/162/250 86/163/251 85/164/252
f 82/165/253 83/166/254 87/167/255 86/168/256
f 83/169/257 84/170/258 88/171/259 87/172/260
f 85/173/261 86/174/262 90/175/263 89/176/264
f 86/177/265 87/178/266 91/179/267 90/180/268
f 87/181/269 88/182/270 92/183/271 91/184/272
f 89/185/273 90/186/274 94/187/275 93/188/276
f 90/186/277 91/189/278 95/190/279 94/187/280
f 91/189/281 92/191/282 96/192/283 95/190/284
f 93/193/285 94/194/286 98/195/287 97/196/288
f 94/197/289 95/198/290 99/199/291 98/200/292
f 95/201/293 96/202/294 100/203/295 99/204/296
f 97/205/297 98/206/298 78/207/299 77/208/300
f 98/209/301 99/210/302 79/211/303 78/212/304
f 99/213/305 100/214/306 80/215/307 79/216/308
f 100/217/309 96/192/310 92/191/311 88/218/312
f 80/159/313 100/217/314 88/218/315 84/160/316
f 93/188/317 97/219/318 85/220/319 89/185/320
f 97/219/321 77/153/322 81/156/323 85/220/324
