# This file uses centimeters as units for non-parametric coordinates.

v -0.172181 -0.049168 -0.440190
v -0.082187 -0.049168 -0.440190
v -0.172181 -0.011018 -0.440190
v -0.082187 -0.011018 -0.440190
v -0.172181 -0.016234 -0.451763
v -0.082187 -0.016234 -0.451763
v -0.172181 -0.043953 -0.451763
v -0.082187 -0.043953 -0.451763
v 0.082187 -0.049168 -0.440190
v 0.172182 -0.049168 -0.440190
v 0.082187 -0.011018 -0.440190
v 0.172182 -0.011018 -0.440190
v 0.082187 -0.016234 -0.451763
v 0.172182 -0.016234 -0.451763
v 0.082187 -0.043953 -0.451763
v 0.172182 -0.043953 -0.451763
v -0.268071 -0.085073 -0.093714
v 0.268072 -0.085073 -0.093714
v -0.268071 -0.085073 -0.415271
v 0.268072 -0.085073 -0.415271
v -0.226814 -0.030093 -0.076729
v 0.226814 -0.030093 -0.076729
v 0.226814 -0.030093 -0.432256
v -0.226814 -0.030093 -0.432256
v -0.226814 -0.038628 -0.076729
v 0.226814 -0.038628 -0.076729
v 0.226814 -0.038628 -0.432256
v -0.226814 -0.038628 -0.432256
v -0.219929 -0.038628 -0.083899
v 0.219929 -0.038628 -0.083899
v 0.219929 -0.038628 -0.425088
v -0.219929 -0.038628 -0.425088
v -0.219929 -0.071076 -0.083899
v 0.219929 -0.071076 -0.083899
v 0.219929 -0.071076 -0.425088
v -0.219929 -0.071076 -0.425088
v -0.254177 -0.093145 -0.403465
v 0.254177 -0.093145 -0.403465
v 0.254177 -0.093145 -0.105519
v -0.254177 -0.093145 -0.105519
v -0.268071 -0.038628 -0.093714
v 0.268072 -0.038628 -0.093714
v 0.268072 -0.038628 -0.415271
v -0.268071 -0.038628 -0.415271
v -0.235824 -0.038628 -0.068795
v 0.235825 -0.038628 -0.068795
v 0.235825 -0.030093 -0.068795
v -0.235824 -0.030093 -0.068795
v -0.235824 -0.030093 -0.440190
v 0.235825 -0.030093 -0.440190
v 0.235825 -0.038628 -0.440190
v -0.235824 -0.038628 -0.440190
v -0.241264 -0.038628 -0.444473
v -0.241264 -0.085073 -0.444473
v -0.228759 -0.093145 -0.430524
v -0.228759 -0.093145 -0.078460
v -0.241264 -0.085073 -0.064512
v -0.241264 -0.038628 -0.064512
v 0.241264 -0.038628 -0.064511
v 0.241264 -0.085073 -0.064511
v 0.228760 -0.093145 -0.078460
v 0.228760 -0.093145 -0.430524
v 0.241264 -0.085073 -0.444473
v 0.241264 -0.038628 -0.444473
v 0.244365 -0.038628 -0.403465
v 0.252016 -0.038628 -0.403465
v 0.252016 -0.030093 -0.403465
v 0.262027 -0.030093 -0.403465
v 0.262027 -0.038628 -0.403465
v 0.228760 -0.098276 -0.403465
v -0.228759 -0.098276 -0.403465
v -0.262026 -0.038628 -0.403465
v -0.262026 -0.030093 -0.403465
v -0.252016 -0.030093 -0.403465
v -0.252016 -0.038628 -0.403465
v -0.244366 -0.038628 -0.403465
v -0.244366 -0.071076 -0.403465
v -0.219929 -0.071076 -0.403465
v 0.219929 -0.071076 -0.403465
v 0.244365 -0.071076 -0.403465
v 0.244365 -0.071076 -0.105519
v 0.219929 -0.071076 -0.105519
v -0.219929 -0.071076 -0.105519
v -0.244366 -0.071076 -0.105519
v -0.244366 -0.038628 -0.105519
v -0.252016 -0.038628 -0.105519
v -0.252016 -0.030093 -0.105519
v -0.262026 -0.030093 -0.105519
v -0.262026 -0.038628 -0.105519
v -0.228760 -0.098276 -0.105519
v 0.228760 -0.098276 -0.105519
v 0.262027 -0.038628 -0.105519
v 0.262027 -0.030093 -0.105519
v 0.252016 -0.030093 -0.105519
v 0.252016 -0.038628 -0.105519
v 0.244365 -0.038628 -0.105519
vt 0.101783 0.300208
vt 0.101783 0.300208
vt 0.101783 0.300208
vt 0.101783 0.300208
vt 0.101783 0.300208
vt 0.101783 0.300208
vt 0.101783 0.300208
vt 0.101783 0.300208
vt 0.101783 0.300208
vt 0.101783 0.300208
vt 0.101783 0.300208
vt 0.101783 0.300208
vt 0.101783 0.300208
vt 0.101783 0.300208
vt 0.101783 0.300208
vt 0.101783 0.300208
vt 0.101783 0.300208
vt 0.101783 0.300208
vt 0.101783 0.300208
vt 0.101783 0.300208
vt 0.101783 0.300208
vt 0.101783 0.300208
vt 0.101783 0.300208
vt 0.101783 0.300208
vt 0.101783 0.300208
vt 0.101783 0.300208
vt 0.101783 0.300208
vt 0.101783 0.300208
vt 0.102276 0.301194
vt 0.102276 0.301194
vt 0.102276 0.301194
vt 0.102276 0.301194
vt 0.102276 0.301194
vt 0.102276 0.301194
vt 0.102276 0.301194
vt 0.102276 0.301194
vt 0.102276 0.301194
vt 0.102276 0.301194
vt 0.102276 0.301194
vt 0.102276 0.301194
vt 0.102276 0.301194
vt 0.102276 0.301194
vt 0.102276 0.301194
vt 0.102276 0.301194
vt 0.101290 0.302180
vt 0.101290 0.302180
vt 0.101290 0.302180
vt 0.101290 0.302180
vt 0.101290 0.302180
vt 0.101290 0.302180
vt 0.101290 0.302180
vt 0.101290 0.302180
vt 0.088448 0.229060
vt 0.088448 0.229060
vt 0.088448 0.229060
vt 0.088448 0.229060
vt 0.088448 0.229060
vt 0.088448 0.229060
vt 0.088448 0.229060
vt 0.088448 0.229060
vt 0.088448 0.229060
vt 0.088448 0.229060
vt 0.088448 0.229060
vt 0.088448 0.229060
vt 0.088448 0.229060
vt 0.088448 0.229060
vt 0.088448 0.229060
vt 0.088448 0.229060
vt 0.088448 0.229060
vt 0.088448 0.229060
vt 0.088448 0.229060
vt 0.088448 0.229060
vt 0.088448 0.229060
vt 0.088448 0.229060
vt 0.088448 0.229060
vt 0.088448 0.229060
vt 0.102276 0.301194
vt 0.102276 0.301194
vt 0.102276 0.301194
vt 0.102276 0.301194
vt 0.102276 0.301194
vt 0.102276 0.301194
vt 0.102276 0.301194
vt 0.102276 0.301194
vt 0.102276 0.301194
vt 0.102276 0.301194
vt 0.102276 0.301194
vt 0.102276 0.301194
vt 0.102276 0.301194
vt 0.102276 0.301194
vt 0.088448 0.229060
vt 0.088448 0.229060
vt 0.088448 0.229060
vt 0.088448 0.229060
vt 0.088448 0.229060
vt 0.088448 0.229060
vt 0.088448 0.229060
vt 0.088448 0.229060
vt 0.088448 0.229060
vt 0.088448 0.229060
vt 0.088448 0.229060
vt 0.088448 0.229060
vt 0.088448 0.229060
vt 0.088448 0.229060
vt 0.088448 0.229060
vt 0.088448 0.229060
vt 0.088448 0.229060
vt 0.088448 0.229060
vt 0.102276 0.301194
vt 0.102276 0.301194
vt 0.102276 0.301194
vt 0.102276 0.301194
vt 0.102276 0.301194
vt 0.102276 0.301194
vt 0.102276 0.301194
vt 0.102276 0.301194
vt 0.102276 0.301194
vt 0.102276 0.301194
vt 0.101290 0.302180
vt 0.101290 0.302180
vt 0.101290 0.302180
vt 0.101290 0.302180
vt 0.088448 0.229060
vt 0.088448 0.229060
vt 0.088448 0.229060
vt 0.088448 0.229060
vt 0.088448 0.229060
vt 0.088448 0.229060
vt 0.088448 0.229060
vt 0.088448 0.229060
vt 0.088448 0.229060
vt 0.088448 0.229060
vt 0.088448 0.229060
vt 0.088448 0.229060
vt 0.101290 0.302180
vt 0.101290 0.302180
vt 0.101290 0.302180
vt 0.101290 0.302180
vt 0.088448 0.229060
vt 0.088448 0.229060
vn 0.000000 0.000000 1.000000
vn 0.000000 0.000000 1.000000
vn 0.000000 0.000000 1.000000
vn 0.000000 0.000000 1.000000
vn 0.000000 0.911701 -0.410855
vn 0.000000 0.911701 -0.410855
vn 0.000000 0.911701 -0.410855
vn 0.000000 0.911701 -0.410855
vn 0.000000 0.000000 -1.000000
vn 0.000000 0.000000 -1.000000
vn 0.000000 0.000000 -1.000000
vn 0.000000 0.000000 -1.000000
vn 0.000000 -0.911700 -0.410856
vn 0.000000 -0.911700 -0.410856
vn 0.000000 -0.911700 -0.410856
vn 0.000000 -0.911700 -0.410856
vn 1.000000 0.000000 0.000000
vn 1.000000 0.000000 0.000000
vn 1.000000 0.000000 0.000000
vn 1.000000 0.000000 0.000000
vn -1.000000 0.000000 0.000000
vn -1.000000 0.000000 0.000000
vn -1.000000 0.000000 0.000000
vn -1.000000 0.000000 0.000000
vn 0.000000 0.000000 1.000000
vn 0.000000 0.000000 1.000000
vn 0.000000 0.000000 1.000000
vn 0.000000 0.000000 1.000000
vn 0.000000 0.911701 -0.410855
vn 0.000000 0.911701 -0.410855
vn 0.000000 0.911701 -0.410855
vn 0.000000 0.911701 -0.410855
vn 0.000000 0.000000 -1.000000
vn 0.000000 0.000000 -1.000000
vn 0.000000 0.000000 -1.000000
vn 0.000000 0.000000 -1.000000
vn 0.000000 -0.911700 -0.410856
vn 0.000000 -0.911700 -0.410856
vn 0.000000 -0.911700 -0.410856
vn 0.000000 -0.911700 -0.410856
vn 1.000000 0.000000 0.000000
vn 1.000000 0.000000 0.000000
vn 1.000000 0.000000 0.000000
vn 1.000000 0.000000 0.000000
vn -1.000000 0.000000 0.000000
vn -1.000000 0.000000 0.000000
vn -1.000000 0.000000 0.000000
vn -1.000000 0.000000 0.000000
vn 1.000000 0.000000 0.000000
vn 1.000000 0.000000 0.000000
vn 1.000000 0.000000 0.000000
vn 1.000000 0.000000 0.000000
vn -1.000000 0.000000 0.000000
vn -1.000000 0.000000 0.000000
vn -1.000000 0.000000 0.000000
vn -1.000000 0.000000 0.000000
vn 0.000000 1.000000 0.000000
vn 0.000000 1.000000 0.000000
vn 0.000000 1.000000 0.000000
vn 0.000000 1.000000 0.000000
vn 0.000000 1.000000 0.000000
vn 0.000000 1.000000 0.000000
vn 0.000000 1.000000 0.000000
vn 0.000000 1.000000 0.000000
vn -1.000000 0.000000 0.000000
vn -1.000000 0.000000 0.000000
vn -1.000000 0.000000 0.000000
vn -1.000000 0.000000 0.000000
vn 1.000000 0.000000 0.000000
vn 1.000000 0.000000 0.000000
vn 1.000000 0.000000 0.000000
vn 1.000000 0.000000 0.000000
vn 0.000000 1.000000 0.000000
vn 0.000000 1.000000 0.000000
vn 0.000000 1.000000 0.000000
vn 0.000000 1.000000 0.000000
vn 0.000000 1.000000 0.000000
vn 0.000000 1.000000 0.000000
vn 0.000000 1.000000 0.000000
vn 0.000000 1.000000 0.000000
vn -1.000000 0.000000 0.000000
vn -1.000000 0.000000 0.000000
vn -1.000000 0.000000 0.000000
vn -1.000000 0.000000 0.000000
vn 1.000000 0.000000 0.000000
vn 1.000000 0.000000 0.000000
vn 1.000000 0.000000 0.000000
vn 1.000000 0.000000 0.000000
vn 0.502333 -0.864674 0.000000
vn 0.502333 -0.864674 0.000000
vn 0.502333 -0.864674 0.000000
vn 0.502333 -0.864674 0.000000
vn -0.502334 -0.864674 0.000000
vn -0.502334 -0.864674 0.000000
vn -0.502334 -0.864674 0.000000
vn -0.502334 -0.864674 0.000000
vn 1.000000 0.000000 0.000000
vn 1.000000 0.000000 0.000000
vn 1.000000 0.000000 0.000000
vn 1.000000 0.000000 0.000000
vn -1.000000 0.000000 0.000000
vn -1.000000 0.000000 0.000000
vn -1.000000 0.000000 0.000000
vn -1.000000 0.000000 0.000000
vn 0.000000 1.000000 0.000000
vn 0.000000 1.000000 0.000000
vn 0.000000 1.000000 0.000000
vn 0.000000 1.000000 0.000000
vn 0.000000 1.000000 0.000000
vn 0.000000 1.000000 0.000000
vn 0.000000 1.000000 0.000000
vn 0.000000 1.000000 0.000000
vn 0.000000 0.000000 1.000000
vn 0.000000 0.000000 1.000000
vn 0.000000 0.000000 1.000000
vn 0.000000 0.000000 1.000000
vn 0.000000 1.000000 -0.000000
vn 0.000000 1.000000 -0.000000
vn 0.000000 1.000000 -0.000000
vn 0.000000 1.000000 -0.000000
vn 0.000000 0.000000 -1.000000
vn 0.000000 0.000000 -1.000000
vn 0.000000 0.000000 -1.000000
vn 0.000000 0.000000 -1.000000
vn 0.000000 1.000000 0.000000
vn 0.000000 1.000000 0.000000
vn 0.000000 1.000000 0.000000
vn 0.000000 1.000000 0.000000
vn 0.000000 0.000000 -1.000000
vn 0.000000 0.000000 -1.000000
vn 0.000000 0.000000 -1.000000
vn 0.000000 0.000000 -1.000000
vn 0.000000 -0.865532 -0.500854
vn 0.000000 -0.865532 -0.500854
vn 0.000000 -0.865532 -0.500854
vn 0.000000 -0.865532 -0.500854
vn 0.000000 -1.000000 0.000000
vn 0.000000 -1.000000 0.000000
vn 0.000000 -1.000000 0.000000
vn 0.000000 -1.000000 0.000000
vn -0.000000 -0.865521 0.500873
vn -0.000000 -0.865521 0.500873
vn -0.000000 -0.865521 0.500873
vn -0.000000 -0.865521 0.500873
vn -0.000001 0.000000 1.000000
vn -0.000001 0.000000 1.000000
vn -0.000001 0.000000 1.000000
vn -0.000001 0.000000 1.000000
vn 0.000000 1.000000 -0.000000
vn 0.000000 1.000000 -0.000000
vn 0.000000 1.000000 -0.000000
vn 0.000000 1.000000 -0.000000
vn 0.000000 0.000000 1.000000
vn 0.000000 0.000000 1.000000
vn 0.000000 0.000000 1.000000
vn 0.000000 0.000000 1.000000
vn 0.000000 1.000000 0.000000
vn 0.000000 1.000000 0.000000
vn 0.000000 1.000000 0.000000
vn 0.000000 1.000000 0.000000
vn 0.000000 0.000000 -1.000000
vn 0.000000 0.000000 -1.000000
vn 0.000000 0.000000 -1.000000
vn 0.000000 0.000000 -1.000000
vn 0.000000 1.000000 0.000000
vn 0.000000 1.000000 0.000000
vn 0.000000 1.000000 0.000000
vn 0.000000 1.000000 0.000000
vn 0.000000 0.000000 -1.000000
vn 0.000000 0.000000 -1.000000
vn 0.000000 0.000000 -1.000000
vn 0.000000 0.000000 -1.000000
vn 0.000000 1.000000 0.000000
vn 0.000000 1.000000 0.000000
vn 0.000000 1.000000 0.000000
vn 0.000000 1.000000 0.000000
vn 0.000000 0.000000 1.000000
vn 0.000000 0.000000 1.000000
vn 0.000000 0.000000 1.000000
vn 0.000000 0.000000 1.000000
vn 0.000000 1.000000 -0.000000
vn 0.000000 1.000000 -0.000000
vn 0.000000 1.000000 -0.000000
vn 0.000000 1.000000 -0.000000
vn -0.736671 0.000000 -0.676251
vn -0.736671 0.000000 -0.676251
vn -0.736671 0.000000 -0.676251
vn -0.736671 0.000000 -0.676251
vn -0.293970 -0.916034 -0.272879
vn -0.293970 -0.916034 -0.272879
vn -0.293970 -0.916034 -0.272879
vn -0.293970 -0.916034 -0.272879
vn -0.197891 -0.980224 -0.000000
vn -0.197891 -0.980224 -0.000000
vn -0.197891 -0.980224 -0.000000
vn -0.197891 -0.980224 -0.000000
vn -0.293979 -0.916029 0.272887
vn -0.293979 -0.916029 0.272887
vn -0.293979 -0.916029 0.272887
vn -0.293979 -0.916029 0.272887
vn -0.736672 0.000000 0.676251
vn -0.736672 0.000000 0.676251
vn -0.736672 0.000000 0.676251
vn -0.736672 0.000000 0.676251
vn -0.000000 1.000000 -0.000000
vn -0.000000 1.000000 -0.000000
vn -0.000000 1.000000 -0.000000
vn -0.000000 1.000000 -0.000000
vn 0.000000 1.000000 0.000000
vn 0.000000 1.000000 0.000000
vn 0.000000 1.000000 0.000000
vn 0.000000 1.000000 0.000000
vn 0.000000 1.000000 0.000000
vn 0.000000 1.000000 0.000000
vn 0.000000 1.000000 0.000000
vn 0.000000 1.000000 0.000000
vn 0.736677 0.000000 0.676245
vn 0.736677 0.000000 0.676245
vn 0.736677 0.000000 0.676245
vn 0.736677 0.000000 0.676245
vn 0.293978 -0.916030 0.272884
vn 0.293978 -0.916030 0.272884
vn 0.293978 -0.916030 0.272884
vn 0.293978 -0.916030 0.272884
vn 0.197889 -0.980224 0.000000
vn 0.197889 -0.980224 0.000000
vn 0.197889 -0.980224 0.000000
vn 0.197889 -0.980224 0.000000
vn 0.293970 -0.916034 -0.272879
vn 0.293970 -0.916034 -0.272879
vn 0.293970 -0.916034 -0.272879
vn 0.293970 -0.916034 -0.272879
vn 0.736671 0.000000 -0.676251
vn 0.736671 0.000000 -0.676251
vn 0.736671 0.000000 -0.676251
vn 0.736671 0.000000 -0.676251
vn 0.000000 1.000000 0.000000
vn 0.000000 1.000000 0.000000
vn 0.000000 1.000000 0.000000
vn 0.000000 1.000000 0.000000
vn 0.000000 1.000000 0.000000
vn 0.000000 1.000000 0.000000
vn 0.000000 1.000000 0.000000
vn 0.000000 1.000000 0.000000
vn -0.752452 0.000000 0.658648
vn -0.752452 0.000000 0.658648
vn -0.752452 0.000000 0.658648
vn -0.752452 0.000000 0.658648
vn 0.000000 1.000000 -0.000000
vn 0.000000 1.000000 -0.000000
vn 0.000000 1.000000 -0.000000
vn 0.000000 1.000000 -0.000000
vn 0.814044 0.000000 -0.580803
vn 0.814044 0.000000 -0.580803
vn 0.814044 0.000000 -0.580803
vn 0.814044 0.000000 -0.580803
vn 0.194557 -0.963716 -0.182756
vn 0.194557 -0.963716 -0.182756
vn 0.194557 -0.963716 -0.182756
vn 0.000000 -0.982490 -0.186316
vn 0.000000 -0.982490 -0.186316
vn 0.000000 -0.982490 -0.186316
vn 0.000000 -0.982490 -0.186316
vn -0.194557 -0.963716 -0.182756
vn -0.194557 -0.963716 -0.182756
vn -0.194557 -0.963716 -0.182756
vn -0.000000 1.000000 0.000000
vn -0.000000 1.000000 0.000000
vn -0.000000 1.000000 0.000000
vn -0.000000 1.000000 0.000000
vn -0.814044 0.000000 -0.580803
vn -0.814044 0.000000 -0.580803
vn -0.814044 0.000000 -0.580803
vn -0.814044 0.000000 -0.580803
vn 0.000000 1.000000 0.000000
vn 0.000000 1.000000 0.000000
vn 0.000000 1.000000 0.000000
vn 0.000000 1.000000 0.000000
vn 0.752445 0.000000 0.658655
vn 0.752445 0.000000 0.658655
vn 0.752446 0.000000 0.658655
vn 0.752445 0.000000 0.658655
vn -0.000000 1.000000 0.000000
vn -0.000000 1.000000 0.000000
vn -0.000000 1.000000 0.000000
vn -0.000000 1.000000 0.000000
vn 0.662674 0.000000 0.748908
vn 0.662674 0.000000 0.748908
vn 0.662674 0.000000 0.748908
vn 0.662674 0.000000 0.748908
vn 0.000000 1.000000 0.000000
vn 0.000000 1.000000 0.000000
vn 0.000000 1.000000 0.000000
vn 0.000000 1.000000 0.000000
vn 0.000000 1.000000 0.000000
vn 0.000000 1.000000 0.000000
vn 0.000000 1.000000 0.000000
vn 0.000000 1.000000 0.000000
vn 0.000000 1.000000 0.000000
vn 0.000000 1.000000 0.000000
vn -0.662682 0.000000 0.748901
vn -0.662682 0.000000 0.748901
vn -0.662682 0.000000 0.748901
vn -0.662682 0.000000 0.748901
vn 0.000000 1.000000 0.000000
vn 0.000000 1.000000 0.000000
vn 0.000000 1.000000 0.000000
vn 0.000000 1.000000 0.000000
vn 0.000000 1.000000 0.000000
vn 0.000000 1.000000 0.000000
vn 0.000000 1.000000 0.000000
vn 0.000000 1.000000 0.000000
vn 0.000000 1.000000 0.000000
vn 0.000000 1.000000 0.000000
vn 0.662625 0.000000 -0.748951
vn 0.662625 0.000000 -0.748951
vn 0.662625 0.000000 -0.748951
vn 0.662625 0.000000 -0.748951
vn -0.000000 1.000000 -0.000000
vn -0.000000 1.000000 -0.000000
vn -0.000000 1.000000 -0.000000
vn -0.000000 1.000000 -0.000000
vn 0.752435 0.000000 -0.658667
vn 0.752435 0.000000 -0.658667
vn 0.752435 0.000000 -0.658667
vn 0.752435 0.000000 -0.658667
vn 0.000000 1.000000 0.000000
vn 0.000000 1.000000 0.000000
vn 0.000000 1.000000 0.000000
vn 0.000000 1.000000 0.000000
vn -0.814037 0.000000 0.580813
vn -0.814037 0.000000 0.580813
vn -0.814037 0.000000 0.580813
vn -0.814037 0.000000 0.580813
vn -0.194560 -0.963715 0.182759
vn -0.194560 -0.963715 0.182759
vn -0.194560 -0.963715 0.182759
vn 0.000000 -0.982490 0.186316
vn 0.000000 -0.982490 0.186316
vn 0.000000 -0.982490 0.186316
vn 0.000000 -0.982490 0.186316
vn 0.194557 -0.963716 0.182756
vn 0.194557 -0.963716 0.182756
vn 0.194557 -0.963716 0.182756
vn 0.000000 1.000000 0.000000
vn 0.000000 1.000000 0.000000
vn 0.000000 1.000000 0.000000
vn 0.000000 1.000000 0.000000
vn 0.814037 0.000000 0.580813
vn 0.814037 0.000000 0.580813
vn 0.814037 0.000000 0.580813
vn 0.814037 0.000000 0.580813
vn 0.000000 1.000000 0.000000
vn 0.000000 1.000000 0.000000
vn 0.000000 1.000000 0.000000
vn 0.000000 1.000000 0.000000
vn -0.752441 0.000000 -0.658660
vn -0.752441 0.000000 -0.658660
vn -0.752441 0.000000 -0.658660
vn -0.752441 0.000000 -0.658660
vn 0.000000 1.000000 -0.000000
vn 0.000000 1.000000 -0.000000
vn 0.000000 1.000000 -0.000000
vn 0.000000 1.000000 -0.000000
vn -0.662632 0.000000 -0.748945
vn -0.662632 0.000000 -0.748945
vn -0.662632 0.000000 -0.748945
vn -0.662632 0.000000 -0.748945
s off
f 1/1/1 2/2/2 4/3/3 3/4/4
f 3/4/5 4/3/6 6/5/7 5/6/8
f 5/6/9 6/5/10 8/7/11 7/8/12
f 7/8/13 8/7/14 2/9/15 1/10/16
f 2/2/17 8/11/18 6/12/19 4/3/20
f 7/13/21 1/1/22 3/4/23 5/14/24
f 9/15/25 10/16/26 12/17/27 11/18/28
f 11/18/29 12/17/30 14/19/31 13/20/32
f 13/20/33 14/19/34 16/21/35 15/22/36
f 15/22/37 16/21/38 10/23/39 9/24/40
f 10/16/41 16/25/42 14/26/43 12/17/44
f 15/27/45 9/15/46 11/18/47 13/28/48
f 68/29/49 93/30/50 92/31/51 69/32/52
f 89/33/53 88/34/54 73/35/55 72/36/56
f 67/37/57 94/38/58 93/30/59 68/29/60
f 73/35/61 88/34/62 87/39/63 74/40/64
f 66/41/65 95/42/66 94/38/67 67/37/68
f 74/40/69 87/39/70 86/43/71 75/44/72
f 65/45/73 96/46/74 95/47/75 66/48/76
f 75/49/77 86/50/78 85/51/79 76/52/80
f 80/53/81 81/54/82 96/55/83 65/56/84
f 76/57/85 85/58/86 84/59/87 77/60/88
f 18/61/89 39/62/90 38/63/91 20/64/92
f 40/65/93 17/66/94 19/67/95 37/68/96
f 43/69/97 42/70/98 18/71/99 20/72/100
f 17/73/101 41/74/102 44/75/103 19/76/104
f 69/32/105 92/31/106 42/77/107 43/78/108
f 41/79/109 89/33/110 72/36/111 44/80/112
f 23/81/113 24/82/114 28/83/115 27/84/116
f 50/85/117 49/86/118 24/82/119 23/81/120
f 52/87/121 49/86/122 50/85/123 51/88/124
f 53/89/125 52/87/126 51/88/127 64/90/128
f 63/91/129 54/92/130 53/93/131 64/94/132
f 62/95/133 55/96/134 54/92/135 63/91/136
f 90/97/137 71/98/138 70/99/139 91/100/140
f 60/101/141 57/102/142 56/103/143 61/104/144
f 59/105/145 58/106/146 57/107/147 60/108/148
f 46/109/149 45/110/150 58/111/151 59/112/152
f 47/113/153 48/114/154 45/110/155 46/109/156
f 22/115/157 21/116/158 48/114/159 47/113/160
f 26/117/161 25/118/162 21/116/163 22/115/164
f 30/119/165 29/120/166 25/121/167 26/122/168
f 34/123/169 33/124/170 29/125/171 30/126/172
f 79/127/173 78/128/174 83/129/175 82/130/176
f 31/131/177 32/132/178 36/133/179 35/134/180
f 27/135/181 28/136/182 32/137/183 31/138/184
f 44/139/185 53/93/186 54/92/187 19/67/188
f 19/67/189 54/92/190 55/96/191 37/68/192
f 90/97/193 40/65/194 37/68/195 71/98/196
f 57/102/197 17/66/198 40/65/199 56/103/200
f 17/73/201 57/107/202 58/106/203 41/74/204
f 45/110/205 89/33/206 41/79/207 58/111/208
f 77/60/209 84/59/210 83/129/211 78/128/212
f 82/130/213 81/54/214 80/53/215 79/127/216
f 60/108/217 18/71/218 42/70/219 59/105/220
f 18/61/221 60/101/222 61/104/223 39/62/224
f 39/62/225 91/100/226 70/99/227 38/63/228
f 63/91/229 20/64/230 38/63/231 62/95/232
f 64/94/233 43/140/234 20/64/235 63/91/236
f 51/88/237 69/32/238 43/78/239 64/90/240
f 66/48/241 27/135/242 31/138/243 65/45/244
f 67/37/245 23/81/246 27/84/247 66/41/248
f 68/29/249 50/85/250 23/81/251 67/37/252
f 69/32/253 51/88/254 50/85/255 68/29/256
f 62/95/257 38/63/258 70/99/259
f 70/99/260 71/98/261 55/96/262 62/95/263
f 37/68/264 55/96/265 71/98/266
f 52/87/267 53/89/268 44/80/269 72/36/270
f 52/87/271 72/36/272 73/35/273 49/86/274
f 49/86/275 73/35/276 74/40/277 24/82/278
f 24/82/279 74/40/280 75/44/281 28/83/282
f 28/136/283 75/49/284 76/52/285 32/137/286
f 32/132/287 76/57/288 77/60/289 36/133/290
f 78/128/291 36/133/292 77/60/293
f 35/134/294 36/133/295 78/128/296 79/127/297
f 80/53/298 35/134/299 79/127/300
f 65/56/301 31/131/302 35/134/303 80/53/304
f 34/123/305 81/54/306 82/130/307
f 82/130/308 83/129/309 33/124/310 34/123/311
f 33/124/312 83/129/313 84/59/314
f 85/58/315 29/125/316 33/124/317 84/59/318
f 86/50/319 25/121/320 29/120/321 85/51/322
f 87/39/323 21/116/324 25/118/325 86/43/326
f 88/34/327 48/114/328 21/116/329 87/39/330
f 89/33/331 45/110/332 48/114/333 88/34/334
f 90/97/335 56/103/336 40/65/337
f 61/104/338 56/103/339 90/97/340 91/100/341
f 39/62/342 61/104/343 91/100/344
f 46/109/345 59/112/346 42/77/347 92/31/348
f 46/109/349 92/31/350 93/30/351 47/113/352
f 47/113/353 93/30/354 94/38/355 22/115/356
f 22/115/357 94/38/358 95/42/359 26/117/360
f 26/122/361 95/47/362 96/46/363 30/119/364
f 30/126/365 96/55/366 81/54/367 34/123/368
