# This file uses centimeters as units for non-parametric coordinates.

v -0.137444 -0.051651 -0.145187
v -0.137444 -0.066544 0.129296
v -0.137444 0.207932 0.144200
v -0.137444 0.222839 -0.130283
v 0.137444 0.207932 0.144200
v 0.137444 0.222839 -0.130283
v 0.137444 -0.066544 0.129296
v 0.137444 -0.051651 -0.145187
v 0.034557 0.101547 0.138424
v -0.034844 0.101547 0.138424
v -0.137444 0.101547 0.138424
v -0.137444 0.116455 -0.136061
v 0.137444 0.116455 -0.136061
v 0.137444 0.101547 0.138424
v -0.034844 0.052170 0.135742
v -0.137444 0.052170 0.135742
v -0.137444 0.067062 -0.138741
v 0.137444 0.067062 -0.138741
v 0.137444 0.052170 0.135742
v 0.034557 0.052170 0.135742
v -0.082019 0.101547 0.138424
v -0.082019 0.052170 0.135742
v 0.081708 0.101547 0.138424
v 0.081708 0.052170 0.135742
v -0.034844 0.103027 0.111069
v -0.082019 0.103027 0.111069
v -0.034844 0.053650 0.108388
v -0.082019 0.053650 0.108388
v 0.034557 0.053650 0.108388
v 0.034557 0.103027 0.111069
v 0.081708 0.103027 0.111069
v 0.081708 0.053650 0.108388
v -0.093784 0.101547 0.138424
v -0.094190 0.052170 0.135742
v 0.096025 0.101547 0.138424
v 0.096430 0.052170 0.135742
v -0.093941 0.047302 0.135479
v 0.082290 0.046921 0.135458
v 0.084435 0.106613 0.138700
v 0.096712 0.047882 0.135510
vt 0.499142 0.638176
vt 0.342203 0.638176
vt 0.342203 0.798304
vt 0.499142 0.798304
vt 0.659915 0.798304
vt 0.503667 0.798304
vt 0.503668 0.638176
vt 0.659915 0.638176
vt 0.021948 0.798304
vt 0.182076 0.798304
vt 0.182076 0.638176
vt 0.021948 0.638176
vt 0.983179 0.798304
vt 0.823052 0.798304
vt 0.823052 0.638176
vt 0.983179 0.638176
vt 0.662690 0.637942
vt 0.662691 0.798070
vt 0.822818 0.798070
vt 0.822818 0.637942
vt 0.242010 0.737840
vt 0.282437 0.737840
vt 0.342203 0.736240
vt 0.499142 0.736240
vt 0.662691 0.736006
vt 0.021948 0.736240
vt 0.822818 0.736006
vt 0.182076 0.737840
vt 0.282437 0.705831
vt 0.342203 0.707431
vt 0.499142 0.707431
vt 0.662691 0.707197
vt 0.021948 0.707431
vt 0.822818 0.707197
vt 0.182076 0.705831
vt 0.242010 0.705831
vt 0.309917 0.737840
vt 0.309917 0.705831
vt 0.214543 0.737840
vt 0.214543 0.705831
vt 0.251603 0.714020
vt 0.251603 0.714020
vt 0.251603 0.714020
vt 0.251603 0.714020
vt 0.251603 0.714020
vt 0.251603 0.714020
vt 0.251603 0.714020
vt 0.251603 0.714020
vt 0.251603 0.714020
vt 0.251603 0.714020
vt 0.251603 0.714020
vt 0.251603 0.714020
vt 0.251603 0.714020
vt 0.251603 0.714020
vt 0.251603 0.714020
vt 0.251603 0.714020
vt 0.318366 0.737840
vt 0.318602 0.705831
vt 0.205805 0.737840
vt 0.205569 0.705831
vt 0.335491 0.720032
vt 0.335491 0.720032
vt 0.335491 0.720032
vt 0.335491 0.720032
vt 0.335491 0.720032
vt 0.335491 0.720032
vt 0.335491 0.720032
vt 0.335491 0.720032
vt 0.318127 0.703060
vt 0.214205 0.702845
vt 0.212953 0.740725
vt 0.205447 0.703393
vn -1.000000 0.000000 0.000000
vn -1.000000 0.000000 0.000000
vn -1.000000 0.000000 0.000000
vn -1.000000 0.000000 0.000000
vn 1.000000 0.000000 0.000000
vn 1.000000 0.000000 0.000000
vn 1.000000 0.000000 0.000000
vn 1.000000 0.000000 0.000000
vn -0.000000 0.998529 0.054219
vn -0.000000 0.998529 0.054219
vn -0.000000 0.998529 0.054219
vn -0.000000 0.998529 0.054219
vn 0.000000 0.054211 -0.998529
vn -0.000000 0.054219 -0.998529
vn -0.000000 0.054219 -0.998529
vn 0.000000 0.054211 -0.998529
vn 0.000000 -0.998529 -0.054219
vn 0.000000 -0.998529 -0.054219
vn 0.000000 -0.998529 -0.054219
vn 0.000000 -0.998529 -0.054219
vn 0.000000 -0.054219 0.998529
vn 0.000014 -0.054219 0.998529
vn 0.000007 -0.054220 0.998529
vn 0.000014 -0.054212 0.998529
vn -1.000000 -0.000000 0.000000
vn -1.000000 -0.000000 0.000000
vn -1.000000 0.000000 0.000000
vn -1.000000 0.000000 0.000000
vn -0.000000 0.054219 -0.998529
vn 0.000000 0.054217 -0.998529
vn 0.000000 0.054217 -0.998529
vn -0.000000 0.054219 -0.998529
vn 1.000000 0.000000 0.000000
vn 1.000000 0.000000 0.000000
vn 1.000000 0.000000 0.000000
vn 1.000000 0.000000 0.000000
vn 0.000000 -0.054225 0.998529
vn 0.000000 -0.054219 0.998529
vn 0.000000 -0.054224 0.998529
vn -1.000000 0.000000 0.000000
vn -1.000000 0.000000 0.000000
vn -1.000000 -0.000000 0.000000
vn -1.000000 -0.000000 0.000000
vn 0.000000 0.054217 -0.998529
vn 0.000000 0.054211 -0.998529
vn 0.000000 0.054211 -0.998529
vn 0.000000 0.054217 -0.998529
vn 1.000000 0.000000 0.000000
vn 1.000000 0.000000 0.000000
vn 1.000000 0.000000 0.000000
vn 1.000000 0.000000 0.000000
vn 0.000018 -0.054234 0.998528
vn 0.000007 -0.054220 0.998529
vn 0.000014 -0.054219 0.998529
vn 0.000000 -0.054224 0.998529
vn -0.000002 -0.054220 0.998529
vn -0.000002 -0.054220 0.998529
vn -0.000003 -0.054217 0.998529
vn -0.000003 -0.054217 0.998529
vn 0.000000 -0.054225 0.998529
vn -0.000001 -0.054224 0.998529
vn -0.000000 -0.054220 0.998529
vn -0.000003 -0.054216 0.998529
vn 0.000000 -0.998539 -0.054028
vn 0.000000 -0.998539 -0.054028
vn 0.000000 -0.998539 -0.054028
vn 0.000000 -0.998539 -0.054028
vn -1.000000 0.000000 0.000000
vn -1.000000 0.000000 0.000000
vn -1.000000 0.000000 0.000000
vn -1.000000 0.000000 0.000000
vn 0.000000 0.998539 0.054030
vn 0.000000 0.998539 0.054030
vn 0.000000 0.998539 0.054030
vn 0.000000 0.998539 0.054030
vn 1.000000 0.000000 0.000000
vn 1.000000 0.000000 0.000000
vn 1.000000 0.000000 0.000000
vn 1.000000 0.000000 0.000000
vn 1.000000 0.000000 0.000000
vn 1.000000 0.000000 0.000000
vn 1.000000 0.000000 0.000000
vn 1.000000 0.000000 0.000000
vn 0.000000 -0.998540 -0.054027
vn 0.000000 -0.998540 -0.054027
vn 0.000000 -0.998540 -0.054027
vn 0.000000 -0.998540 -0.054027
vn 0.000000 0.998539 0.054029
vn 0.000000 0.998539 0.054029
vn 0.000000 0.998539 0.054029
vn 0.000000 0.998539 0.054029
vn -1.000000 0.000000 0.000000
vn -1.000000 0.000000 0.000000
vn -1.000000 0.000000 0.000000
vn -1.000000 0.000000 0.000000
vn -0.000013 -0.054219 0.998529
vn -0.000001 -0.054224 0.998529
vn 0.000000 -0.054225 0.998529
vn 0.000000 -0.054224 0.998529
vn -0.000002 -0.054217 0.998529
vn -0.000002 -0.054219 0.998529
vn 0.000007 -0.054220 0.998529
vn 0.000018 -0.054234 0.998528
vn -0.000003 -0.054216 0.998529
vn 0.000000 -0.054219 0.998529
vn 0.000000 -0.054225 0.998529
vn 0.000000 -0.054219 0.998529
vn 0.000000 -0.054218 0.998529
vn -0.000001 -0.054224 0.998529
vn -0.000013 -0.054219 0.998529
vn 0.000000 -0.054219 0.998529
vn -0.000002 -0.054219 0.998529
vn -0.000002 -0.054219 0.998529
vn -0.000002 -0.054220 0.998529
vn -0.000002 -0.054220 0.998529
vn -0.000000 -0.054220 0.998529
vn 0.000000 -0.054219 0.998529
vn 0.000000 -0.054219 0.998529
vn -0.000000 -0.054220 0.998529
vn -0.000001 -0.054224 0.998529
vn 0.000000 -0.054218 0.998529
vn -0.000002 -0.054217 0.998529
vn 0.000000 -0.054218 0.998529
vn 0.000000 -0.054219 0.998529
vn 0.000000 -0.054219 0.998529
vn -0.000003 -0.054216 0.998529
vn -0.000003 -0.054217 0.998529
vn -0.000003 -0.054217 0.998529
vn -0.000002 -0.054217 0.998529
vn 0.000018 -0.054234 0.998528
vn 0.000000 -0.054219 0.998529
vn 0.000000 -0.054218 0.998529
vn 0.000000 -0.054219 0.998529
vn 0.000018 -0.054234 0.998528
vn 0.000000 -0.054224 0.998529
vn 0.000000 -0.054219 0.998529
vn 0.000014 -0.054212 0.998529
vn 0.000007 -0.054220 0.998529
vn -0.000002 -0.054219 0.998529
vn -0.000002 -0.054219 0.998529
s off
f 1/1/1 2/2/2 16/30/3 17/31/4
f 7/11/5 8/12/6 18/33/7 19/35/8
f 5/7/9 6/8/10 4/5/11 3/6/12
f 18/34/13 8/20/14 1/17/15 17/32/16
f 8/15/17 7/16/18 2/13/19 1/14/20
f 7/11/21 19/35/22 36/60/23 40/72/24
f 12/24/25 11/23/26 3/3/27 4/4/28
f 6/19/29 13/27/30 12/25/31 4/18/32
f 6/9/33 5/10/34 14/28/35 13/26/36
f 33/57/37 3/3/38 11/23/39
f 17/31/40 16/30/41 11/23/42 12/24/43
f 13/27/44 18/34/45 17/32/46 12/25/47
f 19/35/48 18/33/49 13/26/50 14/28/51
f 35/59/52 36/60/53 19/35/54 14/28/55
f 15/29/56 20/36/57 9/21/58 10/22/59
f 33/61/60 34/62/61 22/63/62 21/64/63
f 10/41/64 21/42/65 26/43/66 25/44/67
f 15/45/68 10/41/69 25/44/70 27/46/71
f 22/47/72 15/45/73 27/46/74 28/48/75
f 9/49/76 20/50/77 29/51/78 30/52/79
f 21/42/80 22/47/81 28/48/82 26/43/83
f 23/53/84 9/49/85 30/52/86 31/54/87
f 20/50/88 24/55/89 32/56/90 29/51/91
f 24/55/92 23/53/93 31/54/94 32/56/95
f 16/30/96 34/58/97 33/57/98 11/23/99
f 23/65/100 24/66/101 36/67/102 35/68/103
f 21/37/104 3/3/105 33/57/106
f 2/2/107 37/69/108 34/58/109 16/30/110
f 7/11/111 38/70/112 24/40/113 20/36/114 15/29/115 22/38/116 2/2/117
f 2/2/118 22/38/119 34/58/120 37/69/121
f 23/39/122 39/71/123 5/10/124 3/3/125 21/37/126 10/22/127 9/21/128
f 23/39/129 35/59/130 5/10/131 39/71/132
f 5/10/133 35/59/134 14/28/135
f 7/11/136 40/72/137 36/60/138 24/40/139 38/70/140
