# This file uses centimeters as units for non-parametric coordinates.

v -0.099061 0.110779 0.116221
v 0.099061 0.110779 0.116221
v -0.101426 0.161118 0.115638
v 0.101424 0.161118 0.115638
v -0.068795 0.161118 -0.156199
v 0.068797 0.161118 -0.156199
v -0.067193 0.110779 -0.152877
v 0.067193 0.110779 -0.152877
v -0.139390 0.110779 0.016368
v -0.142716 0.161118 0.017081
v 0.142716 0.161118 0.017081
v 0.139392 0.110779 0.016368
v 0.000001 0.110779 0.138479
v 0.000001 0.161118 0.138426
v 0.000001 0.161118 -0.165543
v 0.000001 0.110779 -0.162003
v -0.129075 0.161118 -0.102795
v -0.126065 0.110779 -0.100716
v 0.126067 0.110779 -0.100716
v 0.129073 0.161118 -0.102795
v -0.127034 0.168457 0.013715
v 0.000001 0.168457 -0.148845
v -0.061238 0.168457 -0.140527
v -0.114892 0.168457 -0.092990
v -0.090280 0.168457 0.101442
v 0.000001 0.168457 0.121726
v 0.090280 0.168457 0.101442
v 0.127035 0.168457 0.013715
v 0.114890 0.168457 -0.092990
v 0.061236 0.168457 -0.140527
v -0.112790 0.222748 0.010657
v 0.000001 0.273483 0.014899
v 0.000001 0.222748 -0.133677
v -0.054372 0.222748 -0.126290
v -0.102010 0.222748 -0.084084
v -0.080159 0.222748 0.088549
v 0.000001 0.222748 0.106558
v 0.080157 0.222748 0.088549
v 0.112792 0.222748 0.010657
v 0.102010 0.222748 -0.084084
v 0.054372 0.222748 -0.126290
v 0.071910 0.259125 -0.049506
v 0.038327 0.259125 -0.079259
v 0.000001 0.259125 -0.084466
v -0.038327 0.259125 -0.079259
v -0.071908 0.259125 -0.049506
v -0.079511 0.259125 0.017279
v -0.056504 0.259125 0.072187
v 0.000001 0.259125 0.084883
v 0.056506 0.259125 0.072187
v 0.079511 0.259125 0.017279
v -0.060464 0.105728 -0.138919
v 0.000001 0.105728 -0.147132
v 0.000001 0.111603 0.013370
v -0.125428 0.105728 0.013370
v -0.113439 0.105728 -0.091985
v 0.000001 0.111603 0.095211
v -0.093022 0.105728 0.075184
v 0.060462 0.105728 -0.138919
v 0.113437 0.105728 -0.091985
v 0.125427 0.105728 0.013370
v 0.093024 0.105728 0.075184
v 0.136648 0.121841 -0.034932
v 0.122958 0.116806 -0.032065
v -0.122956 0.116806 -0.032065
v -0.136647 0.121841 -0.034932
v -0.098203 0.108261 0.113056
v 0.000001 0.108261 0.133126
v 0.098203 0.108261 0.113056
v -0.098203 0.051971 0.112877
v 0.000001 0.042725 0.133037
v -0.093022 0.049454 0.086113
v 0.000001 0.040192 0.106140
v 0.098203 0.051971 0.112877
v 0.093024 0.049454 0.086113
v -0.047051 0.032883 0.127808
v -0.044570 0.030365 0.096127
v 0.047050 0.032883 0.127808
v 0.044568 0.030365 0.096127
v -0.070577 0.099838 0.117481
v -0.023524 0.099838 0.128053
v -0.070577 0.081787 0.119790
v -0.047051 0.071274 0.125075
v -0.023524 0.076202 0.130362
v 0.023524 0.099838 0.128053
v 0.070575 0.099838 0.117481
v 0.023524 0.076202 0.130362
v 0.047050 0.071274 0.125075
v 0.070575 0.081787 0.119790
v -0.070577 0.099838 0.064872
v -0.023524 0.099838 0.075443
v -0.070577 0.081787 0.070337
v -0.047051 0.071274 0.075623
v -0.023524 0.076202 0.080908
v 0.023524 0.099838 0.075443
v 0.070575 0.099838 0.064872
v 0.023524 0.076202 0.080908
v 0.047050 0.071274 0.075623
v 0.070575 0.081787 0.070337
vt 0.262684 0.383256
vt 0.262684 0.383256
vt 0.262684 0.383256
vt 0.262684 0.383256
vt 0.262684 0.383256
vt 0.262684 0.383256
vt 0.262684 0.383256
vt 0.262684 0.383256
vt 0.262684 0.383256
vt 0.262684 0.383256
vt 0.262684 0.383256
vt 0.262684 0.383256
vt 0.262684 0.383256
vt 0.262684 0.383256
vt 0.262684 0.383256
vt 0.262684 0.383256
vt 0.262684 0.383256
vt 0.262684 0.383256
vt 0.262684 0.383256
vt 0.262684 0.383256
vt 0.262684 0.383256
vt 0.262684 0.383256
vt 0.262684 0.383256
vt 0.262684 0.383256
vt 0.262684 0.383256
vt 0.262684 0.383256
vt 0.262684 0.383256
vt 0.262684 0.383256
vt 0.262684 0.383256
vt 0.262684 0.383256
vt 0.262684 0.383256
vt 0.262684 0.383256
vt 0.262684 0.383256
vt 0.262684 0.383256
vt 0.262684 0.383256
vt 0.262684 0.383256
vt 0.262684 0.383256
vt 0.262684 0.383256
vt 0.262684 0.383256
vt 0.262684 0.383256
vt 0.262684 0.383256
vt 0.262684 0.383256
vt 0.262684 0.383256
vt 0.262684 0.383256
vt 0.262684 0.383256
vt 0.262684 0.383256
vt 0.262684 0.383256
vt 0.262684 0.383256
vt 0.262684 0.383256
vt 0.262684 0.383256
vt 0.262684 0.383256
vt 0.262684 0.383256
vt 0.262684 0.383256
vt 0.262684 0.383256
vt 0.262684 0.383256
vt 0.262684 0.383256
vt 0.262684 0.383256
vt 0.262684 0.383256
vt 0.262684 0.383256
vt 0.262684 0.383256
vt 0.262684 0.383256
vt 0.262684 0.383256
vt 0.262684 0.383256
vt 0.262684 0.383256
vt 0.262684 0.383256
vt 0.262684 0.383256
vt 0.262684 0.383256
vt 0.262684 0.383256
vt 0.262684 0.383256
vt 0.115694 0.011298
vt 0.116460 0.011501
vt 0.115971 0.011544
vt 0.115317 0.011343
vt 0.113734 0.011071
vt 0.114782 0.011537
vt 0.114382 0.011578
vt 0.113447 0.011113
vt 0.117047 0.009976
vt 0.116472 0.010019
vt 0.116625 0.011046
vt 0.117089 0.011000
vt 0.113294 0.010086
vt 0.113692 0.010047
vt 0.115651 0.010021
vt 0.116690 0.010178
vt 0.116000 0.010201
vt 0.116767 0.010590
vt 0.116421 0.010840
vt 0.116076 0.010740
vt 0.115161 0.010218
vt 0.114174 0.010231
vt 0.115237 0.010757
vt 0.114744 0.010875
vt 0.114250 0.010643
vt 0.115996 0.010154
vt 0.115306 0.010177
vt 0.116073 0.010566
vt 0.115728 0.010816
vt 0.115382 0.010716
vt 0.114467 0.010195
vt 0.113480 0.010207
vt 0.114544 0.010734
vt 0.114050 0.010851
vt 0.113557 0.010620
vn -0.219214 0.001024 0.975676
vn -0.219214 0.001024 0.975676
vn -0.219214 0.001024 0.975676
vn -0.219214 0.001024 0.975676
vn -0.019426 0.989533 -0.142991
vn -0.019426 0.989533 -0.142991
vn -0.019426 0.989533 -0.142991
vn -0.134263 -0.069518 -0.988504
vn -0.134263 -0.069518 -0.988504
vn -0.134263 -0.069518 -0.988504
vn -0.134263 -0.069518 -0.988504
vn -0.017243 -0.997434 0.069480
vn -0.017243 -0.997434 0.069480
vn -0.017243 -0.997434 0.069480
vn -0.017243 -0.997434 0.069480
vn -0.017243 -0.997434 0.069480
vn 0.992871 -0.037923 -0.112998
vn 0.992871 -0.037923 -0.112998
vn 0.992871 -0.037923 -0.112998
vn 0.992871 -0.037923 -0.112998
vn 0.992871 -0.037923 -0.112998
vn -0.992870 -0.037976 -0.112989
vn -0.992870 -0.037976 -0.112989
vn -0.992870 -0.037976 -0.112989
vn -0.992870 -0.037976 -0.112989
vn -0.992870 -0.037976 -0.112989
vn -0.923523 -0.052700 0.379905
vn -0.923523 -0.052700 0.379905
vn -0.923523 -0.052700 0.379905
vn -0.923523 -0.052700 0.379905
vn -0.175103 0.981813 0.073368
vn -0.175103 0.981813 0.073368
vn -0.175103 0.981813 0.073368
vn 0.923519 -0.052665 0.379921
vn 0.923519 -0.052665 0.379921
vn 0.923518 -0.052665 0.379921
vn 0.923519 -0.052665 0.379921
vn 0.054833 -0.998419 -0.012369
vn 0.054833 -0.998419 -0.012369
vn 0.054833 -0.998419 -0.012369
vn 0.054833 -0.998419 -0.012369
vn 0.219220 0.001028 0.975675
vn 0.219220 0.001028 0.975675
vn 0.219220 0.001028 0.975675
vn 0.219220 0.001028 0.975675
vn 0.175107 0.981812 0.073364
vn 0.175107 0.981812 0.073364
vn 0.175107 0.981812 0.073364
vn 0.178266 0.983773 -0.020289
vn 0.178266 0.983773 -0.020289
vn 0.178266 0.983773 -0.020289
vn 0.134265 -0.069520 -0.988504
vn 0.134265 -0.069520 -0.988504
vn 0.134265 -0.069520 -0.988504
vn 0.134265 -0.069520 -0.988504
vn 0.017243 -0.997434 0.069480
vn 0.017243 -0.997434 0.069480
vn 0.017243 -0.997434 0.069480
vn 0.017243 -0.997434 0.069480
vn 0.017243 -0.997434 0.069480
vn -0.054834 -0.998419 -0.012368
vn -0.054834 -0.998419 -0.012368
vn -0.054834 -0.998419 -0.012368
vn -0.054834 -0.998419 -0.012368
vn -0.661502 -0.070362 -0.746635
vn -0.661502 -0.070362 -0.746635
vn -0.661502 -0.070362 -0.746635
vn -0.661502 -0.070362 -0.746635
vn 0.661508 -0.070349 -0.746631
vn 0.661508 -0.070349 -0.746631
vn 0.661508 -0.070349 -0.746631
vn 0.661508 -0.070349 -0.746631
vn -0.054570 0.914114 -0.401769
vn -0.054570 0.914114 -0.401768
vn -0.054570 0.914114 -0.401768
vn -0.054570 0.914114 -0.401768
vn -0.266237 0.915869 -0.300503
vn -0.266237 0.915869 -0.300503
vn -0.266237 0.915869 -0.300503
vn -0.266237 0.915869 -0.300503
vn -0.432016 0.900525 -0.049161
vn -0.432016 0.900525 -0.049161
vn -0.432016 0.900525 -0.049161
vn -0.432016 0.900525 -0.049161
vn -0.090030 0.911770 0.400713
vn -0.090030 0.911770 0.400713
vn -0.090030 0.911770 0.400713
vn -0.090030 0.911770 0.400712
vn -0.389262 0.906575 0.163084
vn -0.389262 0.906575 0.163084
vn -0.389262 0.906576 0.163084
vn -0.389262 0.906576 0.163084
vn 0.090034 0.911768 0.400716
vn 0.090034 0.911768 0.400716
vn 0.090034 0.911768 0.400716
vn 0.090034 0.911768 0.400716
vn 0.389285 0.906562 0.163100
vn 0.389285 0.906562 0.163100
vn 0.389285 0.906562 0.163100
vn 0.389285 0.906562 0.163100
vn 0.432025 0.900520 -0.049171
vn 0.432025 0.900520 -0.049171
vn 0.432025 0.900520 -0.049171
vn 0.432025 0.900520 -0.049171
vn 0.266225 0.915880 -0.300480
vn 0.266225 0.915880 -0.300480
vn 0.266225 0.915880 -0.300480
vn 0.266225 0.915880 -0.300480
vn 0.054571 0.914116 -0.401763
vn 0.054571 0.914116 -0.401763
vn 0.054571 0.914116 -0.401763
vn 0.054571 0.914116 -0.401763
vn -0.129720 0.266818 -0.954977
vn -0.129720 0.266818 -0.954977
vn -0.129719 0.266818 -0.954977
vn -0.129720 0.266818 -0.954977
vn -0.638567 0.269758 -0.720737
vn -0.638567 0.269758 -0.720737
vn -0.638567 0.269758 -0.720737
vn -0.638567 0.269758 -0.720737
vn -0.962937 0.246467 -0.109573
vn -0.962937 0.246467 -0.109573
vn -0.962937 0.246467 -0.109573
vn -0.962937 0.246467 -0.109573
vn -0.211494 0.262991 0.941332
vn -0.211494 0.262991 0.941332
vn -0.211494 0.262991 0.941332
vn -0.211494 0.262991 0.941332
vn -0.891836 0.255008 0.373631
vn -0.891836 0.255008 0.373631
vn -0.891836 0.255008 0.373631
vn -0.891836 0.255008 0.373631
vn 0.211500 0.262994 0.941330
vn 0.211500 0.262994 0.941330
vn 0.211500 0.262994 0.941330
vn 0.211500 0.262994 0.941330
vn 0.891824 0.255016 0.373652
vn 0.891824 0.255016 0.373652
vn 0.891824 0.255016 0.373652
vn 0.891824 0.255016 0.373652
vn 0.962940 0.246444 -0.109597
vn 0.962940 0.246444 -0.109597
vn 0.962940 0.246444 -0.109597
vn 0.962940 0.246444 -0.109597
vn 0.638571 0.269737 -0.720742
vn 0.638571 0.269737 -0.720742
vn 0.638571 0.269737 -0.720742
vn 0.638571 0.269737 -0.720742
vn 0.129726 0.266816 -0.954977
vn 0.129726 0.266816 -0.954977
vn 0.129726 0.266816 -0.954977
vn 0.129726 0.266816 -0.954977
vn -0.045111 0.978598 0.200776
vn -0.045111 0.978598 0.200776
vn -0.045111 0.978598 0.200776
vn 0.045111 0.978598 0.200776
vn 0.045111 0.978598 0.200776
vn 0.045111 0.978598 0.200776
vn 0.098200 0.988975 -0.110842
vn 0.098200 0.988975 -0.110842
vn 0.098200 0.988975 -0.110842
vn 0.019427 0.989533 -0.142991
vn 0.019427 0.989533 -0.142991
vn 0.019427 0.989533 -0.142991
vn -0.098203 0.988975 -0.110839
vn -0.098203 0.988975 -0.110839
vn -0.098203 0.988975 -0.110839
vn -0.178262 0.983774 -0.020293
vn -0.178262 0.983774 -0.020293
vn -0.178262 0.983774 -0.020293
vn 0.412210 0.783334 -0.465264
vn 0.412210 0.783334 -0.465264
vn 0.412210 0.783334 -0.465264
vn 0.412210 0.783334 -0.465264
vn 0.080494 0.801538 -0.592502
vn 0.080494 0.801538 -0.592502
vn 0.080494 0.801538 -0.592502
vn 0.080494 0.801538 -0.592502
vn -0.080491 0.801538 -0.592502
vn -0.080491 0.801538 -0.592502
vn -0.080491 0.801538 -0.592502
vn -0.080491 0.801538 -0.592502
vn -0.412213 0.783338 -0.465256
vn -0.412212 0.783338 -0.465256
vn -0.412212 0.783338 -0.465256
vn -0.412212 0.783338 -0.465256
vn -0.727713 0.680863 -0.082820
vn -0.727713 0.680863 -0.082820
vn -0.727713 0.680863 -0.082820
vn -0.727713 0.680863 -0.082820
vn -0.729549 0.611831 0.305649
vn -0.729549 0.611831 0.305649
vn -0.729549 0.611831 0.305649
vn -0.729549 0.611831 0.305649
vn -0.189512 0.502602 0.843491
vn -0.189512 0.502602 0.843491
vn -0.189512 0.502602 0.843491
vn -0.189512 0.502602 0.843491
vn 0.189518 0.502595 0.843494
vn 0.189518 0.502595 0.843494
vn 0.189518 0.502595 0.843494
vn 0.189518 0.502595 0.843494
vn 0.729555 0.611818 0.305662
vn 0.729555 0.611818 0.305662
vn 0.729555 0.611818 0.305662
vn 0.729555 0.611818 0.305662
vn 0.727713 0.680863 -0.082820
vn 0.727713 0.680863 -0.082820
vn 0.727713 0.680863 -0.082820
vn 0.727713 0.680863 -0.082820
vn -0.043637 -0.945982 -0.321268
vn -0.043637 -0.945982 -0.321268
vn -0.043637 -0.945982 -0.321268
vn -0.043637 -0.945982 -0.321268
vn -0.393529 -0.914066 0.098073
vn -0.393529 -0.914066 0.098073
vn -0.393529 -0.914066 0.098073
vn -0.393529 -0.914066 0.098073
vn -0.212774 -0.947129 -0.240154
vn -0.212774 -0.947129 -0.240154
vn -0.212774 -0.947129 -0.240154
vn -0.212774 -0.947129 -0.240154
vn -0.068071 -0.945899 0.317240
vn -0.068071 -0.945899 0.317240
vn -0.068071 -0.945899 0.317240
vn -0.068071 -0.945899 0.317240
vn -0.264690 -0.958460 0.106269
vn -0.264690 -0.958460 0.106269
vn -0.264690 -0.958460 0.106269
vn -0.264690 -0.958460 0.106269
vn -0.264690 -0.958460 0.106269
vn 0.043639 -0.945983 -0.321265
vn 0.043639 -0.945983 -0.321265
vn 0.043639 -0.945983 -0.321265
vn 0.043639 -0.945983 -0.321265
vn 0.212748 -0.947141 -0.240129
vn 0.212748 -0.947141 -0.240129
vn 0.212748 -0.947141 -0.240129
vn 0.212748 -0.947141 -0.240129
vn 0.393492 -0.914082 0.098073
vn 0.393492 -0.914082 0.098073
vn 0.393492 -0.914082 0.098073
vn 0.393492 -0.914082 0.098073
vn 0.264685 -0.958462 0.106267
vn 0.264685 -0.958462 0.106267
vn 0.264685 -0.958462 0.106267
vn 0.264685 -0.958462 0.106267
vn 0.264685 -0.958462 0.106267
vn 0.068072 -0.945899 0.317240
vn 0.068072 -0.945899 0.317240
vn 0.068072 -0.945899 0.317240
vn 0.068072 -0.945899 0.317240
vn 0.334618 -0.914519 -0.227347
vn 0.334618 -0.914519 -0.227347
vn 0.334618 -0.914519 -0.227347
vn 0.334618 -0.914519 -0.227347
vn -0.045484 -0.971099 -0.234301
vn -0.045484 -0.971099 -0.234301
vn -0.045484 -0.971099 -0.234301
vn 0.045483 -0.971100 -0.234299
vn 0.045483 -0.971100 -0.234299
vn 0.045483 -0.971100 -0.234299
vn -0.334638 -0.914510 -0.227352
vn -0.334638 -0.914510 -0.227352
vn -0.334638 -0.914510 -0.227352
vn -0.334638 -0.914510 -0.227352
vn 0.194263 -0.976585 0.092431
vn 0.194263 -0.976585 0.092431
vn 0.194263 -0.976585 0.092431
vn 0.194263 -0.976585 0.092431
vn 0.364756 -0.930541 0.032366
vn 0.364756 -0.930541 0.032366
vn 0.364756 -0.930541 0.032366
vn 0.364756 -0.930541 0.032366
vn -0.986165 -0.020323 -0.164517
vn -0.986165 -0.020323 -0.164517
vn -0.986165 -0.020323 -0.164517
vn -0.986165 -0.020323 -0.164517
vn 0.986175 -0.020316 -0.164458
vn 0.986175 -0.020316 -0.164458
vn 0.986175 -0.020316 -0.164458
vn 0.986175 -0.020316 -0.164458
vn -0.364771 -0.930535 0.032351
vn -0.364771 -0.930535 0.032351
vn -0.364771 -0.930535 0.032351
vn -0.364771 -0.930535 0.032351
vn -0.194279 -0.976582 0.092432
vn -0.194279 -0.976582 0.092432
vn -0.194279 -0.976582 0.092432
vn -0.194279 -0.976582 0.092432
vn -0.205614 -0.087576 0.974707
vn -0.205614 -0.087576 0.974707
vn -0.205614 -0.087576 0.974707
vn -0.205614 -0.087576 0.974707
vn -0.240325 0.109513 0.964495
vn -0.240325 0.109513 0.964495
vn -0.240325 0.109513 0.964495
vn -0.240325 0.109513 0.964495
vn -0.246164 0.040345 0.968388
vn -0.246164 0.040345 0.968388
vn -0.246164 0.040345 0.968388
vn -0.246164 0.040345 0.968388
vn -0.152325 0.024477 0.988027
vn -0.152325 0.024477 0.988027
vn -0.152325 0.024477 0.988027
vn -0.152325 0.024477 0.988027
vn -0.112512 0.094625 0.989135
vn -0.112512 0.094625 0.989135
vn -0.112512 0.094625 0.989135
vn -0.112512 0.094625 0.989135
vn 0.205618 -0.087623 0.974702
vn 0.205618 -0.087623 0.974702
vn 0.205618 -0.087623 0.974702
vn 0.205618 -0.087623 0.974702
vn 0.112519 0.094625 0.989134
vn 0.112519 0.094625 0.989134
vn 0.112519 0.094625 0.989134
vn 0.112519 0.094625 0.989134
vn 0.152334 0.024477 0.988026
vn 0.152334 0.024477 0.988026
vn 0.152334 0.024477 0.988026
vn 0.152334 0.024477 0.988026
vn 0.246157 0.040349 0.968390
vn 0.246156 0.040349 0.968390
vn 0.246156 0.040349 0.968390
vn 0.246157 0.040349 0.968390
vn 0.240310 0.109513 0.964499
vn 0.240310 0.109513 0.964499
vn 0.240310 0.109513 0.964499
vn 0.240310 0.109513 0.964499
vn 0.000000 -1.000000 0.000000
vn 0.000000 -1.000000 0.000000
vn 0.000000 -1.000000 0.000000
vn 0.000000 -1.000000 0.000000
vn 1.000000 0.000000 0.000000
vn 1.000000 0.000000 0.000000
vn 1.000000 0.000000 0.000000
vn 1.000000 0.000000 0.000000
vn 0.408006 0.912979 0.000000
vn 0.408006 0.912979 0.000000
vn 0.408006 0.912979 0.000000
vn 0.408006 0.912979 0.000000
vn -0.205034 0.978755 0.000000
vn -0.205034 0.978755 0.000000
vn -0.205034 0.978755 0.000000
vn -0.205034 0.978755 0.000000
vn -1.000000 0.000000 0.000000
vn -1.000000 0.000000 0.000000
vn -1.000000 0.000000 0.000000
vn -1.000000 0.000000 0.000000
vn 0.000000 -1.000000 0.000000
vn 0.000000 -1.000000 0.000000
vn 0.000000 -1.000000 0.000000
vn 0.000000 -1.000000 0.000000
vn 1.000000 0.000000 0.000000
vn 1.000000 0.000000 0.000000
vn 1.000000 0.000000 0.000000
vn 1.000000 0.000000 0.000000
vn 0.205050 0.978751 0.000000
vn 0.205050 0.978751 0.000000
vn 0.205050 0.978751 0.000000
vn 0.205050 0.978751 0.000000
vn -0.408006 0.912979 0.000000
vn -0.408006 0.912979 0.000000
vn -0.408006 0.912979 0.000000
vn -0.408006 0.912979 0.000000
vn -1.000000 -0.000000 0.000000
vn -1.000000 -0.000000 0.000000
vn -1.000000 -0.000000 0.000000
vn -1.000000 -0.000000 0.000000
s off
f 1/1/1 13/2/2 14/3/3 3/4/4
f 44/5/5 45/6/6 32/7/7
f 5/8/8 15/9/9 16/10/10 7/11/11
f 52/12/12 53/13/13 54/14/14 65/15/15 56/16/16
f 11/17/17 12/18/18 63/19/19 19/20/20 20/21/21
f 17/22/22 18/23/23 66/24/24 9/25/25 10/26/26
f 10/26/27 9/25/28 1/1/29 3/4/30
f 47/27/31 48/28/32 32/7/33
f 2/29/34 12/18/35 11/17/36 4/30/37
f 55/31/38 54/14/39 57/32/40 58/33/41
f 14/3/42 13/2/43 2/29/44 4/30/45
f 32/7/46 50/34/47 51/35/48
f 51/35/49 42/36/50 32/7/51
f 16/10/52 15/9/53 6/37/54 8/38/55
f 54/14/56 53/13/57 59/39/58 60/40/59 64/41/60
f 57/32/61 54/14/62 61/42/63 62/43/64
f 7/11/65 18/23/66 17/22/67 5/8/68
f 20/21/69 19/20/70 8/38/71 6/37/72
f 15/9/73 5/8/74 23/44/75 22/45/76
f 5/8/77 17/22/78 24/46/79 23/44/80
f 17/22/81 10/26/82 21/47/83 24/46/84
f 3/4/85 14/3/86 26/48/87 25/49/88
f 10/26/89 3/4/90 25/49/91 21/47/92
f 14/3/93 4/30/94 27/50/95 26/48/96
f 4/30/97 11/17/98 28/51/99 27/50/100
f 11/17/101 20/21/102 29/52/103 28/51/104
f 20/21/105 6/37/106 30/53/107 29/52/108
f 6/37/109 15/9/110 22/45/111 30/53/112
f 22/45/113 23/44/114 34/54/115 33/55/116
f 23/44/117 24/46/118 35/56/119 34/54/120
f 24/46/121 21/47/122 31/57/123 35/56/124
f 25/49/125 26/48/126 37/58/127 36/59/128
f 21/47/129 25/49/130 36/59/131 31/57/132
f 26/48/133 27/50/134 38/60/135 37/58/136
f 27/50/137 28/51/138 39/61/139 38/60/140
f 28/51/141 29/52/142 40/62/143 39/61/144
f 29/52/145 30/53/146 41/63/147 40/62/148
f 30/53/149 22/45/150 33/55/151 41/63/152
f 48/28/153 49/64/154 32/7/155
f 32/7/156 49/64/157 50/34/158
f 42/36/159 43/65/160 32/7/161
f 43/65/162 44/5/163 32/7/164
f 45/6/165 46/66/166 32/7/167
f 46/66/168 47/27/169 32/7/170
f 41/63/171 43/65/172 42/36/173 40/62/174
f 33/55/175 44/5/176 43/65/177 41/63/178
f 34/54/179 45/6/180 44/5/181 33/55/182
f 35/56/183 46/66/184 45/6/185 34/54/186
f 31/57/187 47/27/188 46/66/189 35/56/190
f 36/59/191 48/28/192 47/27/193 31/57/194
f 36/59/195 37/58/196 49/64/197 48/28/198
f 50/34/199 49/64/200 37/58/201 38/60/202
f 51/35/203 50/34/204 38/60/205 39/61/206
f 40/62/207 42/36/208 51/35/209 39/61/210
f 7/11/211 16/10/212 53/13/213 52/12/214
f 65/15/215 66/24/216 18/23/217 56/16/218
f 18/23/219 7/11/220 52/12/221 56/16/222
f 13/2/223 1/1/224 67/67/225 68/68/226
f 1/1/227 9/25/228 55/31/229 58/33/230 67/67/231
f 16/10/232 8/38/233 59/39/234 53/13/235
f 8/38/236 19/20/237 60/40/238 59/39/239
f 19/20/240 63/19/241 64/41/242 60/40/243
f 12/18/244 2/29/245 69/69/246 62/43/247 61/42/248
f 2/29/249 13/2/250 68/68/251 69/69/252
f 64/41/253 63/19/254 12/18/255 61/42/256
f 54/14/257 64/41/258 61/42/259
f 65/15/260 54/14/261 55/31/262
f 9/25/263 66/24/264 65/15/265 55/31/266
f 71/70/267 76/71/268 77/72/269 73/73/270
f 74/74/271 78/75/272 79/76/273 75/77/274
f 67/78/275 58/79/276 72/80/277 70/81/278
f 62/82/279 69/83/280 74/74/281 75/77/282
f 77/72/283 76/71/284 70/81/285 72/80/286
f 79/76/287 78/75/288 71/70/289 73/73/290
f 68/84/291 67/78/292 80/85/293 81/86/294
f 67/78/295 70/81/296 82/87/297 80/85/298
f 70/81/299 76/71/300 83/88/301 82/87/302
f 76/71/303 71/70/304 84/89/305 83/88/306
f 71/70/307 68/84/308 81/86/309 84/89/310
f 69/83/311 68/84/312 85/90/313 86/91/314
f 68/84/315 71/70/316 87/92/317 85/90/318
f 71/70/319 78/75/320 88/93/321 87/92/322
f 78/75/323 74/74/324 89/94/325 88/93/326
f 74/74/327 69/83/328 86/91/329 89/94/330
f 81/86/331 80/85/332 90/95/333 91/96/334
f 80/85/335 82/87/336 92/97/337 90/95/338
f 82/87/339 83/88/340 93/98/341 92/97/342
f 83/88/343 84/89/344 94/99/345 93/98/346
f 84/89/347 81/86/348 91/96/349 94/99/350
f 86/91/351 85/90/352 95/100/353 96/101/354
f 85/90/355 87/92/356 97/102/357 95/100/358
f 87/92/359 88/93/360 98/103/361 97/102/362
f 88/93/363 89/94/364 99/104/365 98/103/366
f 89/94/367 86/91/368 96/101/369 99/104/370
