# This file uses centimeters as units for non-parametric coordinates.

v -0.090714 0.107956 0.125657
v -0.094151 0.139771 0.103782
v 0.000000 0.103500 0.127468
v 0.000000 0.130066 0.115587
v -0.099883 0.096710 0.102660
v -0.105875 0.126144 0.101999
v -0.089371 0.133972 0.124269
v 0.000000 0.125381 0.125270
v 0.000000 0.094711 0.115067
v 0.090714 0.107956 0.125657
v 0.094151 0.139771 0.103782
v 0.099883 0.096710 0.102660
v 0.105875 0.126144 0.101999
v 0.089371 0.133972 0.124269
vt 0.050348 0.190749
vt 0.050348 0.190749
vt 0.050348 0.190749
vt 0.050348 0.190749
vt 0.050348 0.190749
vt 0.050348 0.190749
vt 0.050348 0.190749
vt 0.050348 0.190749
vt 0.050348 0.190749
vt 0.050348 0.190749
vt 0.050348 0.190749
vt 0.050348 0.190749
vt 0.050348 0.190749
vt 0.050348 0.190749
vt 0.050348 0.190749
vt 0.050348 0.190749
vt 0.050348 0.190749
vt 0.050348 0.190749
vt 0.050348 0.190749
vt 0.050348 0.190749
vt 0.050348 0.190749
vt 0.050348 0.190749
vt 0.050348 0.190749
vt 0.050348 0.190749
vt 0.050348 0.190749
vt 0.050348 0.190749
vt 0.050348 0.190749
vt 0.050348 0.190749
vt 0.050348 0.190749
vt 0.050348 0.190749
vt 0.050348 0.190749
vt 0.050348 0.190749
vt 0.050348 0.190749
vt 0.050348 0.190749
vt 0.050348 0.190749
vt 0.050348 0.190749
vt 0.050348 0.190749
vt 0.050348 0.190749
vn 0.072206 0.945715 0.316874
vn 0.072206 0.945715 0.316874
vn 0.072206 0.945715 0.316874
vn 0.072206 0.945715 0.316874
vn -0.734753 0.588297 0.337705
vn -0.734753 0.588297 0.337705
vn -0.734753 0.588297 0.337705
vn -0.858819 -0.053161 0.509513
vn -0.858819 -0.053161 0.509512
vn -0.858819 -0.053161 0.509512
vn -0.858819 -0.053161 0.509512
vn -0.010149 0.074944 0.997136
vn -0.010149 0.074944 0.997136
vn -0.010149 0.074944 0.997136
vn -0.010149 0.074944 0.997136
vn -0.066724 -0.860855 0.504457
vn -0.066724 -0.860855 0.504457
vn -0.066724 -0.860855 0.504457
vn -0.066724 -0.860855 0.504457
vn -0.072206 0.945715 0.316876
vn -0.072206 0.945714 0.316876
vn -0.072206 0.945715 0.316876
vn -0.072206 0.945715 0.316876
vn 0.734753 0.588297 0.337705
vn 0.734753 0.588297 0.337705
vn 0.734753 0.588297 0.337705
vn 0.858820 -0.053161 0.509512
vn 0.858820 -0.053161 0.509512
vn 0.858820 -0.053161 0.509512
vn 0.858820 -0.053161 0.509512
vn 0.010149 0.074943 0.997136
vn 0.010149 0.074943 0.997136
vn 0.010149 0.074943 0.997136
vn 0.010149 0.074943 0.997136
vn 0.066724 -0.860855 0.504457
vn 0.066724 -0.860855 0.504457
vn 0.066724 -0.860855 0.504457
vn 0.066724 -0.860855 0.504457
vn -0.124741 0.011595 -0.992122
vn -0.124870 0.011560 -0.992106
vn -0.142604 0.006800 -0.989757
vn 0.124870 0.011560 -0.992106
vn -0.000000 0.011748 -0.999931
vn -0.000000 0.011748 -0.999931
vn 0.124741 0.011595 -0.992122
vn -0.000000 0.011748 -0.999931
vn -0.000000 0.011748 -0.999931
vn -0.124870 0.011560 -0.992106
vn -0.124741 0.011595 -0.992122
vn 0.124870 0.011560 -0.992106
vn 0.124741 0.011595 -0.992122
vn 0.142603 0.006800 -0.989757
s off
f 7/1/1 8/2/2 4/3/3 2/4/4
f 6/5/5 7/6/6 2/7/7
f 1/8/8 7/9/9 6/10/10 5/11/11
f 1/12/12 3/13/13 8/14/14 7/15/15
f 3/16/16 1/17/17 5/18/18 9/19/19
f 14/20/20 11/21/21 4/22/22 8/23/23
f 13/24/24 11/25/25 14/26/26
f 10/27/27 12/28/28 13/29/29 14/30/30
f 10/31/31 14/32/32 8/33/33 3/34/34
f 3/35/35 9/36/36 12/37/37 10/38/38
f 12/37/39 11/25/40 13/29/41
f 2/4/42 4/22/43 9/19/44 5/11/45
f 9/19/46 4/22/47 11/25/48 12/37/49
f 2/4/50 5/11/51 6/5/52
