# This file uses centimeters as units for non-parametric coordinates.

v -0.043362 -0.088408 0.023125
v 0.043364 -0.088408 0.023125
v -0.043362 0.089643 0.023125
v 0.043364 0.089643 0.023125
v -0.043362 0.089643 -0.023127
v 0.043364 0.089643 -0.023127
v -0.043362 -0.088408 -0.023127
v 0.043364 -0.088408 -0.023127
v -0.054580 -0.067619 0.029108
v 0.054584 -0.067619 0.029108
v 0.054584 -0.067619 -0.029109
v -0.054580 -0.067619 -0.029109
v 0.054584 0.073350 -0.029109
v 0.054584 0.073350 0.029108
v -0.054580 0.073350 0.029108
v -0.054580 0.073350 -0.029109
v -0.033245 0.040265 0.029108
v 0.033248 0.040265 0.029108
v 0.033248 0.066453 0.029108
v -0.033245 0.066453 0.029108
v -0.041721 -0.054749 0.029108
v 0.041724 -0.054749 0.029108
v 0.041724 0.022326 0.029108
v -0.041721 0.022326 0.029108
v 0.000001 0.089643 0.023125
v 0.000001 0.089643 -0.023127
v -0.040724 0.089643 0.015906
v -0.010897 0.089643 0.015906
v -0.010897 0.089643 -0.015909
v -0.040724 0.089643 -0.015909
v -0.037657 0.097887 0.012635
v -0.013964 0.097887 0.012635
v -0.013964 0.097887 -0.012638
v -0.037657 0.097887 -0.012638
v -0.035466 0.097887 0.010299
v -0.016153 0.097887 0.010299
v -0.016153 0.097887 -0.010302
v -0.035466 0.097887 -0.010302
v -0.032112 0.229216 0.006721
v -0.019508 0.229216 0.006721
v -0.019508 0.229216 -0.006724
v -0.032112 0.229216 -0.006724
v -0.029175 0.233871 0.003587
v -0.022444 0.233871 0.003587
v -0.022444 0.233871 -0.003592
v -0.029175 0.233871 -0.003592
v 0.002181 0.095323 -0.020808
v 0.002181 0.095323 0.020802
v 0.041190 0.095323 0.020802
v 0.041190 0.095323 -0.020808
v 0.011250 0.095973 -0.011133
v 0.011250 0.095973 0.011129
v 0.032120 0.095973 0.011129
v 0.032120 0.095973 -0.011133
v 0.012981 0.110119 -0.009287
v 0.012981 0.110119 0.009283
v 0.030388 0.110119 0.009283
v 0.030388 0.110119 -0.009287
v -0.040103 0.054656 -0.029109
v 0.040107 0.054656 -0.029109
v 0.040107 -0.048924 -0.029109
v -0.040103 -0.048924 -0.029109
vt 0.113450 0.251327
vt 0.113450 0.251327
vt 0.113450 0.251327
vt 0.113450 0.251327
vt 0.113450 0.251327
vt 0.113450 0.251327
vt 0.113450 0.251327
vt 0.113450 0.251327
vt 0.113450 0.251327
vt 0.113450 0.251327
vt 0.113450 0.251327
vt 0.113450 0.251327
vt 0.113450 0.251327
vt 0.113450 0.251327
vt 0.113450 0.251327
vt 0.113450 0.251327
vt 0.113450 0.251327
vt 0.113450 0.251327
vt 0.113450 0.251327
vt 0.113450 0.251327
vt 0.113450 0.251327
vt 0.113450 0.251327
vt 0.113450 0.251327
vt 0.113450 0.251327
vt 0.113450 0.251327
vt 0.113450 0.251327
vt 0.113450 0.251327
vt 0.113450 0.251327
vt 0.113450 0.251327
vt 0.113450 0.251327
vt 0.187528 0.380143
vt 0.187528 0.380143
vt 0.187528 0.380143
vt 0.187528 0.380143
vt 0.113450 0.251327
vt 0.113450 0.251327
vt 0.113450 0.251327
vt 0.113450 0.251327
vt 0.079523 0.228024
vt 0.079523 0.228024
vt 0.079523 0.228024
vt 0.079523 0.228024
vt 0.113450 0.251327
vt 0.113450 0.251327
vt 0.113450 0.251327
vt 0.113450 0.251327
vt 0.113450 0.251327
vt 0.113450 0.251327
vt 0.113450 0.251327
vt 0.113450 0.251327
vt 0.113450 0.251327
vt 0.113450 0.251327
vt 0.113450 0.251327
vt 0.113450 0.251327
vt 0.113450 0.251327
vt 0.113450 0.251327
vt 0.113450 0.251327
vt 0.113450 0.251327
vt 0.113450 0.251327
vt 0.113450 0.251327
vt 0.113450 0.251327
vt 0.113450 0.251327
vt 0.113450 0.251327
vt 0.113450 0.251327
vt 0.113450 0.251327
vt 0.113450 0.251327
vt 0.113450 0.251327
vt 0.113450 0.251327
vt 0.113450 0.251327
vt 0.113450 0.251327
vt 0.113450 0.251327
vt 0.113450 0.251327
vt 0.422981 0.034569
vt 0.422981 0.034569
vt 0.422981 0.034569
vt 0.422981 0.034569
vt 0.422981 0.034569
vt 0.422981 0.034569
vt 0.422981 0.034569
vt 0.422981 0.034569
vt 0.113450 0.304489
vt 0.113450 0.251327
vt 0.113450 0.251327
vt 0.113450 0.251327
vt 0.113450 0.251327
vt 0.113450 0.304489
vt 0.113450 0.304489
vt 0.113450 0.304489
vn 0.000000 0.000000 1.000000
vn 0.000000 0.000000 1.000000
vn 0.000000 0.000000 1.000000
vn 0.000000 0.000000 1.000000
vn 0.000000 1.000000 0.000000
vn 0.000000 1.000000 0.000000
vn 0.000000 1.000000 0.000000
vn 0.000000 1.000000 0.000000
vn 0.000000 0.000000 -1.000000
vn 0.000000 0.000000 -1.000000
vn 0.000000 0.000000 -1.000000
vn 0.000000 0.000000 -1.000000
vn 0.000000 -1.000000 0.000000
vn 0.000000 -1.000000 0.000000
vn 0.000000 -1.000000 0.000000
vn 0.000000 -1.000000 0.000000
vn 0.998540 -0.054026 0.000000
vn 0.998539 -0.054027 0.000000
vn 0.998569 0.053469 0.000000
vn 0.998570 0.053467 0.000000
vn -0.998540 -0.054023 0.000000
vn -0.998540 -0.054021 0.000000
vn -0.998570 0.053462 0.000000
vn -0.998570 0.053465 0.000000
vn 0.000000 -0.276566 0.960995
vn 0.000000 -0.276566 0.960995
vn 0.000000 -0.276566 0.960995
vn 0.000000 -0.276566 0.960995
vn 0.880021 -0.474935 0.000000
vn 0.880021 -0.474935 0.000000
vn 0.998539 -0.054027 0.000000
vn 0.998540 -0.054026 0.000000
vn 0.000000 -0.276526 -0.961007
vn 0.000000 -0.276526 -0.961007
vn 0.000000 -0.276526 -0.961007
vn 0.000000 -0.276526 -0.961007
vn -0.880037 -0.474904 0.000000
vn -0.880037 -0.474904 0.000000
vn -0.998540 -0.054021 0.000000
vn -0.998540 -0.054023 0.000000
vn 0.998570 0.053467 0.000000
vn 0.998569 0.053469 0.000000
vn 0.823610 0.567156 0.000001
vn 0.823610 0.567156 0.000001
vn 0.000000 0.344704 0.938712
vn 0.000000 0.344704 0.938712
vn 0.000000 0.344704 0.938711
vn -0.998570 0.053465 0.000000
vn -0.998570 0.053462 0.000000
vn -0.823633 0.567123 0.000001
vn -0.823633 0.567123 0.000001
vn 0.000000 0.344660 -0.938728
vn 0.000000 0.344660 -0.938728
vn 0.000000 0.344660 -0.938728
vn 0.000000 0.000000 1.000000
vn 0.000000 0.000000 1.000000
vn 0.000000 0.000000 1.000000
vn 0.000000 0.000000 1.000000
vn 0.000000 0.000000 1.000000
vn 0.000000 0.000000 1.000000
vn 0.000000 0.000000 1.000000
vn 0.000000 0.000000 1.000000
vn 0.000000 0.000000 1.000000
vn 0.000000 0.000000 1.000000
vn 0.000000 0.000000 1.000000
vn 0.000000 0.000000 1.000000
vn 0.000000 0.000000 1.000000
vn 0.000000 0.000000 1.000000
vn 0.000000 0.000000 1.000000
vn 0.000000 0.000000 1.000000
vn 0.000000 0.000000 1.000000
vn 0.000000 0.000000 1.000000
vn 0.000000 0.000000 1.000000
vn 0.000000 0.000000 1.000000
vn 0.000000 0.000000 1.000000
vn 0.000000 0.000000 1.000000
vn 0.000000 0.000000 1.000000
vn 0.000000 0.000000 1.000000
vn 0.000000 0.000000 1.000000
vn 0.000000 0.000000 1.000000
vn 0.000000 0.000000 1.000000
vn 0.000000 0.000000 1.000000
vn 0.000000 0.344704 0.938712
vn 0.000000 0.344704 0.938712
vn 0.000000 0.344704 0.938712
vn 0.000000 0.344704 0.938712
vn 0.000000 0.344704 0.938712
vn 0.000000 0.344704 0.938712
vn 0.000000 0.344660 -0.938728
vn 0.000000 0.344660 -0.938728
vn 0.000000 0.344660 -0.938728
vn 0.000000 0.344660 -0.938728
vn 0.000000 0.344660 -0.938728
vn 0.000000 0.344660 -0.938728
vn 0.000000 1.000000 0.000000
vn 0.000000 1.000000 0.000000
vn 0.000000 1.000000 0.000000
vn 0.000000 1.000000 0.000000
vn 0.000000 1.000000 0.000001
vn 0.000000 1.000000 0.000001
vn 0.000000 1.000000 0.000001
vn 0.000000 1.000000 0.000001
vn 0.000000 1.000000 0.000000
vn 0.000000 1.000000 0.000000
vn 0.000000 1.000000 0.000000
vn 0.000000 1.000000 0.000000
vn 0.000000 1.000000 -0.000000
vn 0.000000 1.000000 -0.000000
vn 0.000000 1.000000 -0.000000
vn 0.000000 1.000000 -0.000000
vn 0.000000 1.000000 0.000000
vn 0.000000 1.000000 0.000000
vn 0.000000 1.000000 0.000000
vn 0.000000 1.000000 0.000000
vn 0.000000 0.368850 0.929489
vn 0.000000 0.368850 0.929489
vn 0.000000 0.368850 0.929489
vn 0.000000 0.368850 0.929489
vn 0.937263 0.348624 0.000000
vn 0.937263 0.348624 0.000000
vn 0.937263 0.348624 0.000000
vn 0.937263 0.348624 0.000000
vn 0.000000 0.368803 -0.929507
vn 0.000000 0.368803 -0.929507
vn 0.000000 0.368803 -0.929507
vn 0.000000 0.368803 -0.929507
vn -0.937227 0.348719 0.000000
vn -0.937227 0.348719 0.000000
vn -0.937227 0.348719 0.000000
vn -0.937227 0.348719 0.000000
vn 0.000000 1.000000 0.000005
vn 0.000000 1.000000 0.000005
vn 0.000000 1.000000 0.000005
vn 0.000000 1.000000 0.000005
vn 0.000000 1.000000 0.000000
vn 0.000000 1.000000 0.000000
vn 0.000000 1.000000 0.000000
vn 0.000000 1.000000 0.000000
vn 0.000000 1.000000 -0.000005
vn 0.000000 1.000000 -0.000005
vn 0.000000 1.000000 -0.000005
vn 0.000000 1.000000 -0.000005
vn 0.000000 1.000000 0.000000
vn 0.000000 1.000000 0.000000
vn 0.000000 1.000000 0.000000
vn 0.000000 1.000000 0.000000
vn 0.000000 0.027236 0.999629
vn 0.000000 0.027236 0.999629
vn 0.000000 0.027236 0.999629
vn 0.000000 0.027236 0.999629
vn 0.999674 0.025535 0.000000
vn 0.999674 0.025535 0.000000
vn 0.999674 0.025535 0.000000
vn 0.999674 0.025535 0.000000
vn 0.000000 0.027232 -0.999629
vn 0.000000 0.027232 -0.999629
vn 0.000000 0.027232 -0.999629
vn 0.000000 0.027232 -0.999629
vn -0.999674 0.025535 0.000000
vn -0.999674 0.025535 0.000000
vn -0.999674 0.025535 0.000000
vn -0.999674 0.025535 0.000000
vn 0.000000 0.558420 0.829558
vn 0.000000 0.558420 0.829558
vn 0.000000 0.558420 0.829558
vn 0.000000 0.558420 0.829558
vn 0.845808 0.533488 0.000000
vn 0.845808 0.533488 0.000000
vn 0.845808 0.533488 0.000000
vn 0.845808 0.533488 0.000000
vn 0.000000 0.558302 -0.829638
vn 0.000000 0.558302 -0.829638
vn 0.000000 0.558302 -0.829638
vn 0.000000 0.558302 -0.829638
vn -0.845730 0.533611 0.000000
vn -0.845730 0.533611 0.000000
vn -0.845730 0.533611 0.000000
vn -0.845730 0.533612 0.000000
vn -0.933641 0.358211 0.000000
vn -0.933641 0.358211 0.000000
vn -0.933641 0.358211 0.000000
vn -0.933641 0.358211 0.000000
vn 0.000000 0.378514 0.925596
vn 0.000000 0.378514 0.925596
vn 0.000000 0.378514 0.925596
vn 0.000000 0.378514 0.925596
vn 0.933903 0.357527 0.000000
vn 0.933903 0.357527 0.000000
vn 0.933903 0.357527 0.000000
vn 0.933903 0.357527 0.000000
vn 0.000000 0.378048 -0.925786
vn 0.000000 0.378048 -0.925786
vn 0.000000 0.378048 -0.925786
vn 0.000000 0.378048 -0.925786
vn -0.071504 0.997440 0.000000
vn -0.071504 0.997440 0.000000
vn -0.071504 0.997440 0.000000
vn -0.071504 0.997440 0.000000
vn 0.000000 0.997749 0.067060
vn 0.000000 0.997749 0.067060
vn 0.000000 0.997749 0.067060
vn 0.000000 0.997749 0.067060
vn 0.071500 0.997441 0.000000
vn 0.071500 0.997441 0.000000
vn 0.071500 0.997441 0.000000
vn 0.071500 0.997441 0.000000
vn 0.000000 0.997750 -0.067053
vn 0.000000 0.997749 -0.067053
vn 0.000000 0.997750 -0.067053
vn 0.000000 0.997749 -0.067053
vn -0.992597 0.121452 0.000000
vn -0.992597 0.121452 0.000000
vn -0.992597 0.121452 0.000000
vn -0.992597 0.121452 0.000000
vn 0.000000 0.129418 0.991590
vn 0.000000 0.129418 0.991590
vn 0.000000 0.129418 0.991590
vn 0.000000 0.129418 0.991590
vn 0.992593 0.121485 0.000000
vn 0.992593 0.121485 0.000000
vn 0.992593 0.121485 0.000000
vn 0.992593 0.121485 0.000000
vn 0.000000 0.129418 -0.991590
vn 0.000000 0.129418 -0.991590
vn 0.000000 0.129418 -0.991590
vn 0.000000 0.129418 -0.991590
vn 0.000000 0.000000 -1.000000
vn 0.000000 0.000000 -1.000000
vn 0.000000 0.000000 -1.000000
vn 0.000000 0.000000 -1.000000
vn -0.000000 0.000000 -1.000000
vn -0.000000 0.000000 -1.000000
vn -0.000000 0.000000 -1.000000
vn -0.000000 0.000000 -1.000000
vn 0.000000 0.000000 -1.000000
vn 0.000000 0.000000 -1.000000
vn 0.000000 0.000000 -1.000000
vn 0.000000 0.000000 -1.000000
vn 0.000000 0.000000 -1.000000
vn 0.000000 0.000000 -1.000000
vn 0.000000 0.000000 -1.000000
vn 0.000000 0.000000 -1.000000
s off
f 17/31/1 18/32/2 19/33/3 20/34/4
f 55/73/5 56/74/6 57/75/7 58/76/8
f 59/81/9 60/88/10 61/87/11 62/86/12
f 7/7/13 8/8/14 2/10/15 1/9/16
f 10/16/17 11/18/18 13/22/19 14/23/20
f 12/19/21 9/15/22 15/24/23 16/25/24
f 1/1/25 2/2/26 10/16/27 9/15/28
f 2/2/29 8/11/30 11/18/31 10/16/32
f 12/20/33 11/17/34 8/8/35 7/7/36
f 7/13/37 1/1/38 9/15/39 12/19/40
f 14/23/41 13/22/42 6/12/43 4/4/44
f 15/24/45 25/43/46 3/3/47
f 16/25/48 15/24/49 3/3/50 5/14/51
f 16/26/52 26/44/53 13/21/54
f 21/39/55 22/40/56 23/41/57 24/42/58
f 14/23/59 15/24/60 20/30/61 19/29/62
f 17/27/63 20/30/64 15/24/65 9/15/66 21/35/67 24/38/68
f 9/15/69 10/16/70 22/36/71 21/35/72
f 18/28/73 23/37/74 22/36/75 10/16/76 14/23/77 19/29/78
f 18/28/79 17/27/80 24/38/81 23/37/82
f 25/43/83 14/23/84 4/4/85
f 15/24/86 14/23/87 25/43/88
f 5/5/89 26/44/90 16/26/91
f 13/21/92 26/44/93 6/6/94
f 43/61/95 44/62/96 45/63/97 46/64/98
f 3/3/99 25/43/100 28/46/101 27/45/102
f 25/43/103 26/44/104 29/47/105 28/46/106
f 26/44/107 5/5/108 30/48/109 29/47/110
f 5/5/111 3/3/112 27/45/113 30/48/114
f 27/45/115 28/46/116 32/50/117 31/49/118
f 28/46/119 29/47/120 33/51/121 32/50/122
f 29/47/123 30/48/124 34/52/125 33/51/126
f 30/48/127 27/45/128 31/49/129 34/52/130
f 31/49/131 32/50/132 36/54/133 35/53/134
f 32/50/135 33/51/136 37/55/137 36/54/138
f 33/51/139 34/52/140 38/56/141 37/55/142
f 34/52/143 31/49/144 35/53/145 38/56/146
f 35/53/147 36/54/148 40/58/149 39/57/150
f 36/54/151 37/55/152 41/59/153 40/58/154
f 37/55/155 38/56/156 42/60/157 41/59/158
f 38/56/159 35/53/160 39/57/161 42/60/162
f 39/57/163 40/58/164 44/62/165 43/61/166
f 40/58/167 41/59/168 45/63/169 44/62/170
f 41/59/171 42/60/172 46/64/173 45/63/174
f 42/60/175 39/57/176 43/61/177 46/64/178
f 26/44/179 25/43/180 48/66/181 47/65/182
f 25/43/183 4/4/184 49/67/185 48/66/186
f 4/4/187 6/6/188 50/68/189 49/67/190
f 6/6/191 26/44/192 47/65/193 50/68/194
f 47/65/195 48/66/196 52/70/197 51/69/198
f 48/66/199 49/67/200 53/71/201 52/70/202
f 49/67/203 50/68/204 54/72/205 53/71/206
f 50/68/207 47/65/208 51/69/209 54/72/210
f 51/77/211 52/78/212 56/74/213 55/73/214
f 52/78/215 53/79/216 57/75/217 56/74/218
f 53/79/219 54/80/220 58/76/221 57/75/222
f 54/80/223 51/77/224 55/73/225 58/76/226
f 16/26/227 13/21/228 60/82/229 59/85/230
f 13/21/231 11/17/232 61/83/233 60/82/234
f 11/17/235 12/20/236 62/84/237 61/83/238
f 12/20/239 16/26/240 59/85/241 62/84/242
