# This file uses centimeters as units for non-parametric coordinates.

v -0.975964 0.000000 0.426743
v -0.938192 0.000000 0.426743
v -0.975964 0.429563 0.426743
v -0.938192 0.429563 0.426743
v -0.975964 0.429563 0.388972
v -0.938192 0.429563 0.388972
v -0.975964 0.000000 0.388972
v -0.938192 0.000000 0.388972
v -0.975964 0.000000 -0.390688
v -0.938192 0.000000 -0.390688
v -0.975964 0.429563 -0.390688
v -0.938192 0.429563 -0.390688
v -0.975964 0.429563 -0.428458
v -0.938192 0.429563 -0.428458
v -0.975964 0.000000 -0.428458
v -0.938192 0.000000 -0.428458
v 0.937555 0.000000 -0.390688
v 0.975325 0.000000 -0.390688
v 0.937555 0.429563 -0.390688
v 0.975325 0.429563 -0.390688
v 0.937555 0.429563 -0.428458
v 0.975325 0.429563 -0.428458
v 0.937555 0.000000 -0.428458
v 0.975325 0.000000 -0.428458
v 0.937555 0.000000 0.426743
v 0.975325 0.000000 0.426743
v 0.937555 0.429563 0.426743
v 0.975325 0.429563 0.426743
v 0.937555 0.429563 0.388972
v 0.975325 0.429563 0.388972
v 0.937555 0.000000 0.388972
v 0.975325 0.000000 0.388972
v -0.979027 0.429563 0.433374
v 0.979027 0.429563 0.433374
v -0.979027 0.866747 0.433374
v 0.979027 0.866747 0.433374
v -0.979027 0.866747 -0.433374
v 0.979027 0.866747 -0.433374
v -0.979027 0.429563 -0.433374
v 0.979027 0.429563 -0.433374
v -0.934492 0.811661 -0.433374
v 0.934492 0.811661 -0.433374
v 0.934492 0.429563 -0.433374
v -0.934492 0.429563 -0.433374
v 0.934492 0.429563 0.384057
v -0.934492 0.429563 0.384057
v 0.934492 0.823253 0.384057
v -0.934492 0.823253 0.384057
v -0.979027 0.811661 -0.433374
v -0.979027 0.811661 0.433374
v 0.979027 0.811661 0.433374
v 0.979027 0.811661 -0.433374
v 0.269081 0.429563 0.384057
v 0.269081 0.823253 0.384057
v 0.269081 0.796212 -0.401396
v 0.281904 0.850441 -0.391713
v 0.281904 0.866747 0.433374
v 0.281904 0.830586 0.433374
v 0.281904 0.429563 0.433374
v 0.281904 0.279265 0.433374
v 0.979027 0.279265 0.433374
v 0.269081 0.279265 0.384057
v 0.934492 0.279265 0.384057
v -0.979027 0.279265 0.433374
v -0.934492 0.279265 0.384057
vt 0.100988 0.229460
vt 0.100988 0.229460
vt 0.100988 0.229460
vt 0.100988 0.229460
vt 0.100988 0.229460
vt 0.100988 0.229460
vt 0.100988 0.229460
vt 0.100988 0.229460
vt 0.100988 0.229460
vt 0.100988 0.229460
vt 0.100988 0.229460
vt 0.100988 0.229460
vt 0.100988 0.229460
vt 0.100988 0.229460
vt 0.100988 0.229460
vt 0.100988 0.229460
vt 0.100988 0.229460
vt 0.100988 0.229460
vt 0.100988 0.229460
vt 0.100988 0.229460
vt 0.100988 0.229460
vt 0.100988 0.229460
vt 0.100988 0.229460
vt 0.100988 0.229460
vt 0.100988 0.229460
vt 0.100988 0.229460
vt 0.100988 0.229460
vt 0.100988 0.229460
vt 0.100988 0.229460
vt 0.100988 0.229460
vt 0.100988 0.229460
vt 0.100988 0.229460
vt 0.110660 0.138895
vt 0.110660 0.138895
vt 0.110660 0.138895
vt 0.110660 0.138895
vt 0.110660 0.138895
vt 0.110660 0.138895
vt 0.110660 0.138895
vt 0.110660 0.138895
vt 0.110660 0.138895
vt 0.110660 0.138895
vt 0.110660 0.138895
vt 0.110660 0.138895
vt 0.110660 0.138895
vt 0.110660 0.138895
vt 0.110660 0.138895
vt 0.110660 0.138895
vt 0.110660 0.138895
vt 0.110660 0.138895
vt 0.110660 0.138895
vt 0.110660 0.138895
vt 0.110660 0.138895
vt 0.110660 0.138895
vt 0.110660 0.138895
vt 0.110660 0.138895
vt 0.118214 0.138830
vt 0.118214 0.138830
vt 0.118214 0.138830
vt 0.118214 0.138830
vt 0.110660 0.138895
vt 0.110660 0.138895
vt 0.110660 0.138895
vt 0.110660 0.138895
vt 0.110660 0.138895
vt 0.110660 0.138895
vt 0.110660 0.138895
vt 0.110660 0.138895
vt 0.118214 0.138830
vt 0.118214 0.138830
vt 0.118214 0.138830
vt 0.118214 0.138830
vt 0.118214 0.138830
vt 0.118214 0.138830
vt 0.118214 0.138830
vt 0.118214 0.138830
vt 0.118214 0.138830
vt 0.118214 0.138830
vt 0.110660 0.138895
vt 0.110660 0.138895
vt 0.110660 0.138895
vt 0.110660 0.138895
vt 0.110660 0.138895
vt 0.110660 0.138895
vt 0.110660 0.138895
vt 0.110660 0.138895
vn 0.000000 0.000000 1.000000
vn 0.000000 0.000000 1.000000
vn 0.000000 0.000000 1.000000
vn 0.000000 0.000000 1.000000
vn 0.000000 0.000000 -1.000000
vn 0.000000 0.000000 -1.000000
vn 0.000000 0.000000 -1.000000
vn 0.000000 0.000000 -1.000000
vn 0.000000 -1.000000 0.000000
vn 0.000000 -1.000000 0.000000
vn 0.000000 -1.000000 0.000000
vn 0.000000 -1.000000 0.000000
vn 1.000000 0.000000 0.000000
vn 1.000000 0.000000 0.000000
vn 1.000000 0.000000 0.000000
vn 1.000000 0.000000 0.000000
vn -1.000000 0.000000 0.000000
vn -1.000000 0.000000 0.000000
vn -1.000000 0.000000 0.000000
vn -1.000000 0.000000 0.000000
vn 0.000000 0.000000 1.000000
vn 0.000000 0.000000 1.000000
vn 0.000000 0.000000 1.000000
vn 0.000000 0.000000 1.000000
vn 0.000000 0.000000 -1.000000
vn 0.000000 0.000000 -1.000000
vn 0.000000 0.000000 -1.000000
vn 0.000000 0.000000 -1.000000
vn 0.000000 -1.000000 0.000000
vn 0.000000 -1.000000 0.000000
vn 0.000000 -1.000000 0.000000
vn 0.000000 -1.000000 0.000000
vn 1.000000 0.000000 0.000000
vn 1.000000 0.000000 0.000000
vn 1.000000 0.000000 0.000000
vn 1.000000 0.000000 0.000000
vn -1.000000 0.000000 0.000000
vn -1.000000 0.000000 0.000000
vn -1.000000 0.000000 0.000000
vn -1.000000 0.000000 0.000000
vn 0.000000 0.000000 1.000000
vn 0.000000 0.000000 1.000000
vn 0.000000 0.000000 1.000000
vn 0.000000 0.000000 1.000000
vn 0.000000 0.000000 -1.000000
vn 0.000000 0.000000 -1.000000
vn 0.000000 0.000000 -1.000000
vn 0.000000 0.000000 -1.000000
vn 0.000000 -1.000000 0.000000
vn 0.000000 -1.000000 0.000000
vn 0.000000 -1.000000 0.000000
vn 0.000000 -1.000000 0.000000
vn 1.000000 0.000000 0.000000
vn 1.000000 0.000000 0.000000
vn 1.000000 0.000000 0.000000
vn 1.000000 0.000000 0.000000
vn -1.000000 0.000000 0.000000
vn -1.000000 0.000000 0.000000
vn -1.000000 0.000000 0.000000
vn -1.000000 0.000000 0.000000
vn 0.000000 0.000000 1.000000
vn 0.000000 0.000000 1.000000
vn 0.000000 0.000000 1.000000
vn 0.000000 0.000000 1.000000
vn 0.000000 0.000000 -1.000000
vn 0.000000 0.000000 -1.000000
vn 0.000000 0.000000 -1.000000
vn 0.000000 0.000000 -1.000000
vn 0.000000 -1.000000 0.000000
vn 0.000000 -1.000000 0.000000
vn 0.000000 -1.000000 0.000000
vn 0.000000 -1.000000 0.000000
vn 1.000000 0.000000 0.000000
vn 1.000000 0.000000 0.000000
vn 1.000000 0.000000 0.000000
vn 1.000000 0.000000 0.000000
vn -1.000000 0.000000 0.000000
vn -1.000000 0.000000 0.000000
vn -1.000000 0.000000 0.000000
vn -1.000000 0.000000 0.000000
vn 0.000000 0.000000 1.000000
vn -0.000000 0.000000 1.000000
vn 0.000000 0.000000 1.000000
vn 0.000000 0.000000 1.000000
vn -0.000070 0.999954 -0.009638
vn -0.000000 0.999954 -0.009638
vn -0.011982 0.999882 -0.009637
vn -0.011982 0.999882 -0.009637
vn 0.000000 -0.999710 0.024095
vn 0.000057 -0.999710 0.024095
vn 0.012183 -0.999636 0.024093
vn 0.012183 -0.999636 0.024093
vn 1.000000 0.000000 0.000000
vn 1.000000 0.000000 0.000000
vn 1.000000 0.000000 0.000000
vn 1.000000 0.000000 0.000000
vn -1.000000 0.000000 0.000000
vn -1.000000 0.000000 0.000000
vn -1.000000 0.000000 0.000000
vn -1.000000 0.000000 0.000000
vn 0.005697 0.103062 -0.994659
vn -0.006113 0.105821 -0.994366
vn -0.054912 0.114443 -0.991911
vn -0.042415 0.088397 -0.995182
vn -0.054912 0.114443 -0.991911
vn 0.000000 0.000000 -1.000000
vn -0.042415 0.088397 -0.995182
vn 0.026218 0.082191 -0.996272
vn 0.000000 0.000000 -1.000000
vn 0.030548 0.095764 -0.994935
vn 0.000000 -1.000000 0.000000
vn 0.000000 -1.000000 0.000000
vn 0.000000 -1.000000 0.000000
vn 0.000000 -1.000000 0.000000
vn 0.000000 -1.000000 -0.000000
vn 0.000000 -1.000000 -0.000000
vn 0.000000 -1.000000 -0.000000
vn 0.000000 -1.000000 -0.000000
vn 0.000000 -1.000000 0.000000
vn 0.000000 -1.000000 0.000000
vn 0.000000 -1.000000 0.000000
vn 0.000000 -1.000000 0.000000
vn 0.000000 0.000000 -1.000000
vn 0.000000 0.000000 -1.000000
vn 0.026218 0.082191 -0.996272
vn 0.000000 0.000000 -1.000000
vn -1.000000 0.000000 0.000000
vn -1.000000 0.000000 0.000000
vn -1.000000 0.000000 0.000000
vn -1.000000 0.000000 0.000000
vn -0.000000 0.000000 1.000000
vn -0.000000 0.000000 1.000000
vn -0.000000 0.000000 1.000000
vn 0.000000 0.000000 1.000000
vn 1.000000 0.000000 0.000000
vn 1.000000 0.000000 0.000000
vn 1.000000 0.000000 0.000000
vn 1.000000 0.000000 0.000000
vn -0.042415 0.088397 -0.995182
vn 0.000000 0.000000 -1.000000
vn 0.000000 0.000000 -1.000000
vn 0.000000 0.000000 -1.000000
vn -1.000000 0.000000 0.000000
vn -1.000000 0.000000 0.000000
vn -1.000000 0.000000 0.000000
vn -1.000000 0.000000 0.000000
vn 0.000000 0.000000 -1.000000
vn -0.000000 0.000000 -1.000000
vn -0.000000 0.000000 -1.000000
vn 0.000000 0.000000 -1.000000
vn 1.000000 0.000000 0.000000
vn 1.000000 0.000000 0.000000
vn 1.000000 0.000000 0.000000
vn 1.000000 0.000000 0.000000
vn -0.000000 0.000000 -1.000000
vn -0.000000 0.000000 -1.000000
vn -0.000000 0.000000 -1.000000
vn -0.000000 0.000000 -1.000000
vn -0.006736 -0.999687 0.024094
vn 0.000057 -0.999710 0.024095
vn 0.000000 -0.999710 0.024095
vn -0.006736 -0.999687 0.024094
vn 0.030548 0.095764 -0.994935
vn -0.006113 0.105821 -0.994366
vn 0.005697 0.103062 -0.994659
vn 0.026218 0.082191 -0.996272
vn 0.006625 0.999932 -0.009638
vn -0.000000 0.999954 -0.009638
vn -0.000070 0.999954 -0.009638
vn 0.006625 0.999932 -0.009638
vn -0.000000 0.000000 1.000000
vn -0.000000 0.000000 1.000000
vn 0.000000 0.000000 1.000000
vn -0.000000 0.000000 1.000000
vn 0.000000 0.000000 1.000000
vn -0.000000 0.000000 1.000000
vn -0.000000 0.000000 1.000000
vn -0.000000 0.000000 1.000000
vn 0.000000 -1.000000 -0.000000
vn 0.000000 -1.000000 -0.000000
vn 0.000000 -1.000000 0.000000
vn 0.000000 -1.000000 0.000000
vn 0.000000 0.000000 1.000000
vn 0.000000 0.000000 1.000000
vn 0.000000 0.000000 1.000000
vn 0.000000 0.000000 1.000000
vn 0.000000 0.000000 -1.000000
vn 0.000000 0.000000 -1.000000
vn 0.000000 0.000000 -1.000000
vn 0.000000 0.000000 -1.000000
vn 0.742178 0.000000 -0.670203
vn 0.742178 0.000000 -0.670203
vn 0.742178 0.000000 -0.670203
vn 0.742178 0.000000 -0.670203
vn 0.000000 0.000000 1.000000
vn 0.000000 0.000000 1.000000
vn 0.000000 0.000000 1.000000
vn 0.000000 0.000000 1.000000
vn -0.742178 0.000000 -0.670203
vn -0.742178 0.000000 -0.670203
vn -0.742178 0.000000 -0.670203
vn -0.742178 0.000000 -0.670203
vn 0.000000 0.000000 -1.000000
vn 0.000000 0.000000 -1.000000
vn 0.000000 0.000000 -1.000000
vn 0.000000 0.000000 -1.000000
s off
f 1/1/1 2/2/2 4/3/3 3/4/4
f 5/5/5 6/6/6 8/7/7 7/8/8
f 7/8/9 8/7/10 2/2/11 1/1/12
f 2/2/13 8/7/14 6/6/15 4/3/16
f 7/8/17 1/1/18 3/4/19 5/5/20
f 9/9/21 10/10/22 12/11/23 11/12/24
f 13/13/25 14/14/26 16/15/27 15/16/28
f 15/16/29 16/15/30 10/10/31 9/9/32
f 10/10/33 16/15/34 14/14/35 12/11/36
f 15/16/37 9/9/38 11/12/39 13/13/40
f 17/17/41 18/18/42 20/19/43 19/20/44
f 21/21/45 22/22/46 24/23/47 23/24/48
f 23/24/49 24/23/50 18/18/51 17/17/52
f 18/18/53 24/23/54 22/22/55 20/19/56
f 23/24/57 17/17/58 19/20/59 21/21/60
f 25/25/61 26/26/62 28/27/63 27/28/64
f 29/29/65 30/30/66 32/31/67 31/32/68
f 31/32/69 32/31/70 26/26/71 25/25/72
f 26/26/73 32/31/74 30/30/75 28/27/76
f 31/32/77 25/25/78 27/28/79 29/29/80
f 57/57/81 58/58/82 51/59/83 36/60/84
f 56/61/85 57/62/86 36/63/87 38/64/88
f 54/65/89 55/66/90 42/67/91 47/68/92
f 51/59/93 52/69/94 38/70/95 36/60/96
f 49/71/97 50/72/98 35/73/99 37/74/100
f 55/75/101 56/76/102 38/70/103 42/77/104
f 38/70/105 52/69/106 42/77/107
f 41/78/108 49/71/109 37/74/110
f 40/79/111 34/80/112 45/56/113 43/55/114
f 61/81/115 60/82/116 62/83/117 63/84/118
f 33/52/119 39/51/120 44/50/121 46/49/122
f 39/51/123 49/48/124 41/47/125 44/50/126
f 39/46/127 33/45/128 50/44/129 49/43/130
f 58/42/131 59/41/132 34/40/133 51/39/134
f 34/40/135 40/38/136 52/37/137 51/39/138
f 42/67/139 52/36/140 40/79/141 43/55/142
f 43/55/143 45/56/144 47/68/145 42/67/146
f 45/56/147 53/53/148 54/65/149 47/68/150
f 46/49/151 44/50/152 41/47/153 48/35/154
f 54/65/155 53/53/156 46/49/157 48/35/158
f 41/47/159 55/66/160 54/65/161 48/35/162
f 37/74/163 56/76/164 55/75/165 41/78/166
f 35/34/167 57/62/168 56/61/169 37/33/170
f 50/72/171 58/58/172 57/57/173 35/73/174
f 33/45/175 59/41/176 58/42/177 50/44/178
f 62/83/179 60/82/180 64/85/181 65/86/182
f 34/80/183 59/54/184 60/82/185 61/81/186
f 53/53/187 45/56/188 63/84/189 62/83/190
f 45/56/191 34/80/192 61/81/193 63/84/194
f 59/54/195 33/52/196 64/85/197 60/82/198
f 33/52/199 46/49/200 65/86/201 64/85/202
f 46/49/203 53/53/204 62/83/205 65/86/206
