# This file uses centimeters as units for non-parametric coordinates.

v -0.057269 0.069826 0.178383
v 0.057269 0.069826 0.178383
v 0.057269 0.069826 -0.178383
v -0.057269 0.069826 -0.178383
v 0.047680 0.069826 -0.189626
v 0.047680 0.069826 0.189626
v -0.047680 0.069826 0.189626
v -0.047680 0.069826 -0.189626
v 0.087907 0.000000 0.201595
v -0.087907 0.000000 0.201595
v -0.087907 0.000000 -0.201595
v 0.087907 0.000000 -0.201595
v -0.073188 0.000000 -0.217105
v -0.073188 0.000000 0.217105
v 0.073188 0.000000 0.217105
v 0.073188 0.000000 -0.217105
vt 0.049456 0.209481
vt 0.049456 0.209481
vt 0.049456 0.209481
vt 0.049456 0.209481
vt 0.049456 0.209481
vt 0.049456 0.209481
vt 0.049456 0.209481
vt 0.049456 0.209481
vt 0.049456 0.209481
vt 0.049456 0.209481
vt 0.049456 0.209481
vt 0.049456 0.209481
vt 0.049456 0.209481
vt 0.049456 0.209481
vt 0.049456 0.209481
vt 0.049456 0.209481
vt 0.049456 0.209481
vt 0.049456 0.209481
vt 0.049456 0.209481
vt 0.049456 0.209481
vt 0.049456 0.209481
vt 0.049456 0.209481
vt 0.049456 0.209481
vt 0.049456 0.209481
vt 0.049456 0.209481
vt 0.049456 0.209481
vt 0.049456 0.209481
vt 0.049456 0.209481
vn 0.000000 1.000000 0.000000
vn 0.000000 1.000000 0.000000
vn 0.000000 1.000000 0.000000
vn 0.000000 1.000000 0.000000
vn 0.000000 1.000000 0.000000
vn 0.000000 1.000000 0.000000
vn 0.000000 1.000000 0.000000
vn 0.000000 1.000000 0.000000
vn 0.000000 0.366200 0.930536
vn 0.000000 0.366200 0.930536
vn 0.000000 0.366200 0.930536
vn 0.000000 0.366200 0.930536
vn 0.000000 0.366200 -0.930536
vn 0.000000 0.366200 -0.930536
vn 0.000000 0.366200 -0.930536
vn 0.000000 0.366200 -0.930536
vn 0.000000 -1.000000 0.000000
vn 0.000000 -1.000000 0.000000
vn 0.000000 -1.000000 0.000000
vn 0.000000 -1.000000 0.000000
vn 0.000000 -1.000000 0.000000
vn 0.000000 -1.000000 0.000000
vn 0.000000 -1.000000 0.000000
vn 0.000000 -1.000000 0.000000
vn 0.915727 0.401801 0.000000
vn 0.915727 0.401801 0.000000
vn 0.915727 0.401801 0.000000
vn 0.915727 0.401801 0.000000
vn -0.915727 0.401801 0.000000
vn -0.915727 0.401801 0.000000
vn -0.915727 0.401801 0.000000
vn -0.915727 0.401801 0.000000
vn -0.650780 0.476276 0.591309
vn -0.650780 0.476276 0.591309
vn -0.650780 0.476276 0.591309
vn -0.650780 0.476276 0.591309
vn -0.650780 0.476276 -0.591310
vn -0.650780 0.476276 -0.591310
vn -0.650780 0.476276 -0.591310
vn -0.650780 0.476276 -0.591310
vn 0.650780 0.476275 0.591310
vn 0.650780 0.476275 0.591310
vn 0.650780 0.476275 0.591310
vn 0.650780 0.476275 0.591310
vn 0.650779 0.476275 -0.591310
vn 0.650779 0.476275 -0.591310
vn 0.650779 0.476275 -0.591310
vn 0.650779 0.476275 -0.591310
s off
f 3/6/1 5/9/2 8/14/3 4/7/4 1/1/5 7/13/6 6/11/7 2/4/8
f 7/12/9 14/16/10 15/15/11 6/10/12
f 5/9/13 16/17/14 13/18/15 8/14/16
f 9/19/17 15/20/18 14/21/19 10/22/20 11/23/21 13/18/22 16/17/23 12/24/24
f 2/3/25 9/25/26 12/26/27 3/5/28
f 4/8/29 11/27/30 10/28/31 1/2/32
f 1/2/33 10/28/34 14/16/35 7/12/36
f 13/18/37 11/27/38 4/8/39 8/14/40
f 15/15/41 9/25/42 2/3/43 6/10/44
f 3/5/45 12/26/46 16/17/47 5/9/48
