# This file uses centimeters as units for non-parametric coordinates.

v -0.208417 0.000000 0.292147
v -0.075865 0.000000 0.292147
v 0.056688 0.000000 0.292147
v 0.189240 0.000000 0.292147
v -0.208417 0.138643 0.292147
v -0.075865 0.138643 0.292147
v 0.056688 0.138643 0.292147
v 0.189240 0.138643 0.292147
v -0.208417 0.138643 0.001058
v -0.075865 0.138643 0.001058
v 0.056688 0.138643 0.001058
v 0.189240 0.138643 0.001058
v -0.208417 0.138643 -0.290031
v -0.075865 0.138643 -0.290031
v 0.056688 0.138643 -0.290031
v 0.189240 0.138643 -0.290031
v -0.208417 0.000000 -0.290031
v -0.075865 0.000000 -0.290031
v 0.056688 0.000000 -0.290031
v 0.189240 0.000000 -0.290031
v -0.208417 0.000000 0.001058
v -0.075865 0.000000 0.001058
v 0.056688 0.000000 0.001058
v 0.189240 0.000000 0.001058
v 0.174550 0.134093 0.123883
v 0.167274 0.043489 0.335607
v 0.063262 0.132151 0.119228
v 0.055707 0.049955 0.350808
v 0.057980 0.111142 0.254261
v 0.169268 0.113084 0.258916
v 0.058807 0.092080 0.309891
v 0.167733 0.089307 0.305524
v -0.060960 0.066125 -0.347888
v -0.025371 0.015958 -0.125840
v -0.170933 0.066788 -0.330113
v -0.131717 0.028517 -0.090446
v -0.149096 0.070954 -0.195173
v -0.039123 0.070290 -0.212948
v -0.137091 0.062350 -0.138244
v -0.031199 0.055478 -0.163371
v -0.051048 0.113074 0.157164
v -0.166016 0.090225 0.355530
v -0.146100 0.099957 0.100564
v -0.270288 0.091051 0.312555
v -0.217351 0.120243 0.215519
v -0.122300 0.133359 0.272120
v -0.244830 0.118986 0.267503
v -0.147825 0.124696 0.316992
v -0.155581 0.114609 -0.256630
v -0.066483 0.062094 -0.050736
v -0.258228 0.099475 -0.216071
v -0.163302 0.058619 0.007004
v -0.208286 0.101889 -0.088779
v -0.105639 0.117023 -0.129339
v -0.183197 0.093038 -0.036329
v -0.085308 0.101721 -0.083594
v 0.153948 0.084849 0.256593
v 0.055251 0.046652 0.051926
v 0.250391 0.045080 0.217507
v 0.148707 0.018928 -0.004797
v 0.202389 0.054211 0.089775
v 0.105946 0.093979 0.128860
v 0.175959 0.049432 0.037454
v 0.082662 0.082081 0.083513
v -0.272452 0.047295 0.168824
v -0.133886 0.012623 -0.011969
v -0.183446 0.059642 0.234673
v -0.036417 0.037897 0.038836
v -0.103690 0.072935 0.124376
v -0.192695 0.060588 0.058527
v -0.070698 0.068003 0.075941
v -0.161294 0.049266 0.018206
v 0.047728 0.102786 -0.077163
v 0.170415 0.068365 -0.269132
v 0.139167 0.086149 -0.015742
v 0.272452 0.064775 -0.221219
v 0.216720 0.099418 -0.127601
v 0.125281 0.116055 -0.189023
v 0.246487 0.095263 -0.178154
v 0.152362 0.104807 -0.232385
v 0.001723 0.119229 -0.119919
v 0.008376 0.056496 -0.341525
v 0.112941 0.114761 -0.115315
v 0.120102 0.062914 -0.355530
v 0.118453 0.111205 -0.251918
v 0.007235 0.115673 -0.256521
v 0.117543 0.099474 -0.309541
v 0.008567 0.098065 -0.305799
v -0.239755 0.022043 -0.086601
v -0.255888 0.022707 0.023624
v -0.120631 0.026872 0.043397
v -0.104497 0.026208 -0.066829
v 0.200776 0.022043 0.101474
v 0.230135 0.022707 -0.005988
v 0.098265 0.026872 -0.041989
v 0.068906 0.026208 0.065473
vt 0.673534 0.384047
vt 0.673534 0.384047
vt 0.624311 0.384047
vt 0.624311 0.384047
vt 0.673534 0.384047
vt 0.624311 0.384047
vt 0.673534 0.384047
vt 0.624311 0.384047
vt 0.626061 0.374042
vt 0.502098 0.435007
vt 0.502098 0.435007
vt 0.502098 0.374042
vt 0.624311 0.430486
vt 0.624311 0.430486
vt 0.673534 0.430486
vt 0.673534 0.430486
vt 0.624311 0.430486
vt 0.673534 0.430486
vt 0.624311 0.430486
vt 0.673534 0.430486
vt 0.502098 0.435007
vt 0.502098 0.435007
vt 0.502098 0.435007
vt 0.502098 0.374042
vt 0.626061 0.435007
vt 0.626061 0.435007
vt 0.626061 0.435007
vt 0.626061 0.374042
vt 0.673534 0.407267
vt 0.624311 0.407267
vt 0.673534 0.407267
vt 0.624311 0.407267
vt 0.626061 0.374042
vt 0.502098 0.374042
vt 0.626061 0.374042
vt 0.502098 0.374042
vt 0.502098 0.435007
vt 0.502098 0.374042
vt 0.626061 0.374042
vt 0.626061 0.435007
vt 0.502098 0.435007
vt 0.502098 0.374042
vt 0.626061 0.374042
vt 0.626061 0.435007
vt 0.626061 0.374042
vt 0.626061 0.435007
vt 0.502099 0.435007
vt 0.502098 0.374042
vt 0.626061 0.435007
vt 0.502099 0.435007
vt 0.502098 0.374042
vt 0.502098 0.374042
vt 0.626061 0.374042
vt 0.626061 0.435007
vt 0.626061 0.374042
vt 0.626061 0.435007
vt 0.502098 0.435007
vt 0.502098 0.374042
vt 0.626061 0.374042
vt 0.626061 0.435007
vt 0.502098 0.435007
vt 0.502098 0.374042
vt 0.626061 0.374042
vt 0.626061 0.435007
vt 0.502098 0.435007
vt 0.502098 0.374042
vt 0.626061 0.374042
vt 0.626061 0.435007
vt 0.503749 0.434205
vt 0.563860 0.434205
vt 0.563860 0.373682
vt 0.503749 0.373682
vt 0.593915 0.434205
vt 0.593915 0.373682
vt 0.623970 0.434205
vt 0.623970 0.373682
vt 0.503749 0.434205
vt 0.563860 0.434205
vt 0.563860 0.373682
vt 0.503749 0.373682
vt 0.593915 0.434205
vt 0.593915 0.373682
vt 0.623970 0.434205
vt 0.623970 0.373682
vt 0.503749 0.434205
vt 0.563860 0.434205
vt 0.563860 0.373682
vt 0.503749 0.373682
vt 0.593915 0.434205
vt 0.593915 0.373682
vt 0.623970 0.434205
vt 0.623970 0.373682
vt 0.503749 0.434205
vt 0.563860 0.434205
vt 0.563860 0.373682
vt 0.503749 0.373682
vt 0.593915 0.434205
vt 0.593915 0.373682
vt 0.623970 0.434205
vt 0.623970 0.373682
vt 0.503749 0.434205
vt 0.563860 0.434205
vt 0.563860 0.373682
vt 0.503749 0.373682
vt 0.593915 0.434205
vt 0.593915 0.373682
vt 0.623970 0.434205
vt 0.623970 0.373682
vt 0.503749 0.434205
vt 0.563860 0.434205
vt 0.563860 0.373682
vt 0.503749 0.373682
vt 0.593915 0.434205
vt 0.593915 0.373682
vt 0.623970 0.434205
vt 0.623970 0.373682
vt 0.503749 0.434205
vt 0.563860 0.434205
vt 0.563860 0.373682
vt 0.503749 0.373682
vt 0.593915 0.434205
vt 0.593915 0.373682
vt 0.623970 0.434205
vt 0.623970 0.373682
vt 0.503749 0.434205
vt 0.563860 0.434205
vt 0.563860 0.373682
vt 0.503749 0.373682
vt 0.593915 0.434205
vt 0.593915 0.373682
vt 0.623970 0.434205
vt 0.623970 0.373682
vt 0.503749 0.434205
vt 0.563860 0.434205
vt 0.563860 0.373682
vt 0.503749 0.373682
vt 0.503749 0.434205
vt 0.563860 0.434205
vt 0.563860 0.373682
vt 0.503749 0.373682
vn 0.000000 0.000000 1.000000
vn 0.000000 0.000000 1.000000
vn 0.000000 0.000000 1.000000
vn 0.000000 0.000000 1.000000
vn 0.000000 0.000000 1.000000
vn 0.000000 0.000000 1.000000
vn 0.000000 0.000000 1.000000
vn 0.000000 0.000000 1.000000
vn 0.000000 0.000000 1.000000
vn 0.000000 0.000000 1.000000
vn 0.000000 0.000000 1.000000
vn 0.000000 0.000000 1.000000
vn 0.000000 1.000000 0.000000
vn 0.000000 1.000000 0.000000
vn 0.000000 1.000000 0.000000
vn 0.000000 1.000000 0.000000
vn 0.000000 1.000000 0.000000
vn 0.000000 1.000000 0.000000
vn 0.000000 1.000000 0.000000
vn 0.000000 1.000000 0.000000
vn 0.000000 1.000000 0.000000
vn 0.000000 1.000000 0.000000
vn 0.000000 1.000000 0.000000
vn 0.000000 1.000000 0.000000
vn 0.000000 1.000000 0.000000
vn 0.000000 1.000000 0.000000
vn 0.000000 1.000000 0.000000
vn 0.000000 1.000000 0.000000
vn 0.000000 1.000000 0.000000
vn 0.000000 1.000000 0.000000
vn 0.000000 1.000000 0.000000
vn 0.000000 1.000000 0.000000
vn 0.000000 1.000000 0.000000
vn 0.000000 1.000000 0.000000
vn 0.000000 1.000000 0.000000
vn 0.000000 1.000000 0.000000
vn 0.000000 0.000000 -1.000000
vn 0.000000 0.000000 -1.000000
vn 0.000000 0.000000 -1.000000
vn 0.000000 0.000000 -1.000000
vn 0.000000 0.000000 -1.000000
vn 0.000000 0.000000 -1.000000
vn 0.000000 0.000000 -1.000000
vn 0.000000 0.000000 -1.000000
vn 0.000000 0.000000 -1.000000
vn 0.000000 0.000000 -1.000000
vn 0.000000 0.000000 -1.000000
vn 0.000000 0.000000 -1.000000
vn 0.000000 -1.000000 0.000000
vn 0.000000 -1.000000 0.000000
vn 0.000000 -1.000000 0.000000
vn 0.000000 -1.000000 0.000000
vn 0.000000 -1.000000 0.000000
vn 0.000000 -1.000000 0.000000
vn 0.000000 -1.000000 0.000000
vn 0.000000 -1.000000 0.000000
vn 0.000000 -1.000000 0.000000
vn 0.000000 -1.000000 0.000000
vn 0.000000 -1.000000 0.000000
vn 0.000000 -1.000000 0.000000
vn 0.000000 -1.000000 0.000000
vn 0.000000 -1.000000 0.000000
vn 0.000000 -1.000000 0.000000
vn 0.000000 -1.000000 0.000000
vn 0.000000 -1.000000 0.000000
vn 0.000000 -1.000000 0.000000
vn 0.000000 -1.000000 0.000000
vn 0.000000 -1.000000 0.000000
vn 0.000000 -1.000000 0.000000
vn 0.000000 -1.000000 0.000000
vn 0.000000 -1.000000 0.000000
vn 0.000000 -1.000000 0.000000
vn 1.000000 0.000000 0.000000
vn 1.000000 0.000000 0.000000
vn 1.000000 0.000000 0.000000
vn 1.000000 0.000000 0.000000
vn 1.000000 0.000000 0.000000
vn 1.000000 0.000000 0.000000
vn 1.000000 0.000000 0.000000
vn 1.000000 0.000000 0.000000
vn -1.000000 0.000000 0.000000
vn -1.000000 0.000000 0.000000
vn -1.000000 0.000000 0.000000
vn -1.000000 0.000000 0.000000
vn -1.000000 0.000000 0.000000
vn -1.000000 0.000000 0.000000
vn -1.000000 0.000000 0.000000
vn -1.000000 0.000000 0.000000
vn -0.023633 0.987976 0.152789
vn -0.016288 0.975481 0.219480
vn -0.016121 0.975146 0.220976
vn -0.023633 0.987976 0.152789
vn -0.016121 0.975146 0.220976
vn -0.016288 0.975481 0.219480
vn 0.052340 0.792294 0.607891
vn 0.050249 0.799136 0.599047
vn 0.050249 0.799136 0.599047
vn 0.052340 0.792294 0.607891
vn 0.095009 0.622999 0.776432
vn 0.095009 0.622999 0.776432
vn 0.001019 0.999518 -0.031018
vn 0.021572 0.999187 0.034059
vn 0.022036 0.999126 0.035529
vn 0.001019 0.999518 -0.031018
vn 0.022036 0.999126 0.035529
vn 0.021572 0.999187 0.034059
vn 0.167302 0.887957 0.428419
vn 0.163448 0.893131 0.419048
vn 0.163448 0.893131 0.419048
vn 0.167302 0.887957 0.428419
vn 0.243739 0.751034 0.613628
vn 0.243739 0.751034 0.613628
vn -0.023605 0.981905 -0.187898
vn -0.050257 0.990794 -0.125702
vn -0.050857 0.990942 -0.124289
vn -0.023605 0.981905 -0.187898
vn -0.050857 0.990942 -0.124289
vn -0.050257 0.990794 -0.125702
vn -0.190815 0.940035 0.282708
vn -0.187884 0.943680 0.272337
vn -0.187884 0.943680 0.272337
vn -0.190815 0.940035 0.282708
vn -0.246985 0.833888 0.493588
vn -0.246985 0.833888 0.493588
vn -0.132869 0.990573 0.033340
vn -0.098788 0.990803 0.092468
vn -0.098012 0.990755 0.093800
vn -0.132869 0.990573 0.033340
vn -0.098012 0.990755 0.093800
vn -0.098788 0.990803 0.092468
vn 0.142130 0.887009 0.439334
vn 0.135706 0.891926 0.431337
vn 0.135706 0.891926 0.431337
vn 0.142130 0.887009 0.439334
vn 0.273780 0.755545 0.595144
vn 0.273780 0.755545 0.595144
vn 0.356844 0.931722 -0.067500
vn 0.323751 0.937594 -0.126896
vn 0.322985 0.937677 -0.128233
vn 0.356844 0.931722 -0.067500
vn 0.322985 0.937677 -0.128233
vn 0.323751 0.937594 -0.126896
vn 0.065571 0.879185 -0.471948
vn 0.072950 0.882787 -0.464074
vn 0.072950 0.882787 -0.464074
vn 0.065571 0.879185 -0.471948
vn -0.092695 0.775808 -0.624123
vn -0.092695 0.775808 -0.624123
vn -0.146838 0.989075 0.013020
vn -0.115055 0.992233 -0.047292
vn -0.114330 0.992251 -0.048653
vn -0.146838 0.989075 0.013020
vn -0.114330 0.992251 -0.048653
vn -0.115055 0.992233 -0.047292
vn 0.076378 0.901028 -0.426984
vn 0.071787 0.905742 -0.417706
vn 0.071787 0.905742 -0.417706
vn 0.076378 0.901028 -0.426984
vn 0.171239 0.773430 -0.610314
vn 0.171239 0.773430 -0.610314
vn 0.068655 0.984013 0.164329
vn 0.098633 0.989749 0.103286
vn 0.099306 0.989826 0.101900
vn 0.068655 0.984014 0.164329
vn 0.099306 0.989826 0.101900
vn 0.098633 0.989749 0.103286
vn 0.255129 0.920329 -0.296487
vn 0.251923 0.924408 -0.286366
vn 0.251923 0.924408 -0.286366
vn 0.255129 0.920329 -0.296487
vn 0.315186 0.805571 -0.501711
vn 0.315186 0.805571 -0.501710
vn 0.041135 0.998857 -0.024337
vn 0.033868 0.995174 -0.092096
vn 0.033702 0.995037 -0.093623
vn 0.041135 0.998857 -0.024337
vn 0.033702 0.995037 -0.093623
vn 0.033868 0.995174 -0.092096
vn -0.036180 0.864692 -0.500998
vn -0.034011 0.870302 -0.491342
vn -0.034011 0.870302 -0.491342
vn -0.036180 0.864692 -0.500998
vn -0.080993 0.719245 -0.690020
vn -0.080993 0.719245 -0.690020
vn -0.029275 0.999518 -0.010304
vn -0.029275 0.999518 -0.010304
vn -0.029275 0.999518 -0.010304
vn -0.029275 0.999518 -0.010304
vn 0.027812 0.999518 0.013772
vn 0.027812 0.999518 0.013772
vn 0.027812 0.999518 0.013772
vn 0.027812 0.999518 0.013772
s off
f 1/1/1 2/2/2 6/3/3 5/4/4
f 2/2/5 3/5/6 7/6/7 6/3/8
f 3/5/9 4/7/10 8/8/11 7/6/12
f 5/37/13 6/38/14 10/39/15 9/40/16
f 6/41/17 7/42/18 11/43/19 10/44/20
f 7/45/21 8/46/22 12/47/23 11/48/24
f 9/9/25 10/49/26 14/50/27 13/51/28
f 10/10/29 11/52/30 15/53/31 14/54/32
f 11/11/33 12/12/34 16/55/35 15/56/36
f 13/13/37 14/14/38 18/15/39 17/16/40
f 14/14/41 15/17/42 19/18/43 18/15/44
f 15/17/45 16/19/46 20/20/47 19/18/48
f 17/57/49 18/58/50 22/59/51 21/60/52
f 18/61/53 19/62/54 23/63/55 22/64/56
f 19/65/57 20/66/58 24/67/59 23/68/60
f 21/21/61 22/36/62 2/35/63 1/25/64
f 22/22/65 23/34/66 3/33/67 2/26/68
f 23/23/69 24/24/70 4/28/71 3/27/72
f 24/29/73 20/20/74 16/19/75 12/30/76
f 4/7/77 24/29/78 12/30/79 8/8/80
f 17/16/81 21/31/82 9/32/83 13/13/84
f 21/31/85 1/1/86 5/4/87 9/32/88
f 27/69/89 29/70/90 30/71/91 25/72/92
f 30/71/93 29/70/94 31/73/95 32/74/96
f 32/74/97 31/73/98 28/75/99 26/76/100
f 35/77/101 37/78/102 38/79/103 33/80/104
f 38/79/105 37/78/106 39/81/107 40/82/108
f 40/82/109 39/81/110 36/83/111 34/84/112
f 43/85/113 45/86/114 46/87/115 41/88/116
f 46/87/117 45/86/118 47/89/119 48/90/120
f 48/90/121 47/89/122 44/91/123 42/92/124
f 51/93/125 53/94/126 54/95/127 49/96/128
f 54/95/129 53/94/130 55/97/131 56/98/132
f 56/98/133 55/97/134 52/99/135 50/100/136
f 59/101/137 61/102/138 62/103/139 57/104/140
f 62/103/141 61/102/142 63/105/143 64/106/144
f 64/106/145 63/105/146 60/107/147 58/108/148
f 67/109/149 69/110/150 70/111/151 65/112/152
f 70/111/153 69/110/154 71/113/155 72/114/156
f 72/114/157 71/113/158 68/115/159 66/116/160
f 75/117/161 77/118/162 78/119/163 73/120/164
f 78/119/165 77/118/166 79/121/167 80/122/168
f 80/122/169 79/121/170 76/123/171 74/124/172
f 83/125/173 85/126/174 86/127/175 81/128/176
f 86/127/177 85/126/178 87/129/179 88/130/180
f 88/130/181 87/129/182 84/131/183 82/132/184
f 90/133/185 91/134/186 92/135/187 89/136/188
f 94/137/189 95/138/190 96/139/191 93/140/192
