# This file uses centimeters as units for non-parametric coordinates.

v -0.383650 0.000000 0.459179
v -0.330750 0.000000 0.512079
v -0.383650 1.697663 0.459179
v -0.330750 1.697663 0.512079
v 0.383650 0.000000 0.459179
v 0.330750 0.000000 0.512079
v 0.330750 1.697663 0.512079
v 0.383650 1.697663 0.459179
v -0.330750 1.697663 -0.512079
v -0.383650 1.697663 -0.459179
v -0.383650 0.000000 -0.459179
v -0.330750 0.000000 -0.512079
v 0.383650 1.697663 -0.459179
v 0.330750 1.697663 -0.512079
v 0.383650 0.000000 -0.459179
v 0.330750 0.000000 -0.512079
v -0.383650 1.858853 0.459179
v -0.330750 1.812243 0.512079
v 0.383650 1.858853 0.459179
v 0.330750 1.858853 0.512079
v 0.330750 1.813718 -0.512079
v 0.383650 1.858853 -0.459179
v -0.383650 1.858853 -0.459179
v -0.330750 1.858853 -0.512079
v 0.330750 0.071671 0.512079
v 0.383650 0.071671 0.459179
v 0.383650 0.071671 -0.459179
v 0.330750 0.071671 -0.512079
v -0.330750 0.052543 -0.512079
v -0.383650 0.071671 -0.459179
v -0.383650 0.071671 0.459179
v -0.330750 0.054466 0.512079
v 0.330750 0.442227 0.512079
v 0.383650 0.442227 0.401836
v 0.383650 1.126087 -0.459179
v 0.301477 1.126087 -0.512079
v -0.330750 0.550879 -0.512079
v -0.383650 0.550879 -0.436899
v -0.383650 1.126087 0.459179
v -0.295209 1.126087 0.512079
v 0.383650 0.000000 0.094617
v 0.383650 0.091222 0.094617
v 0.383650 0.713700 0.060037
v 0.383650 1.676363 0.094617
v 0.383650 1.858853 0.094617
v -0.383650 1.858853 0.166930
v -0.383650 1.709059 0.166930
v -0.383650 0.943039 0.174020
v -0.383650 0.084304 0.166930
v -0.383650 0.000000 0.166930
v -0.311321 1.879339 0.481998
v -0.361113 1.879339 0.432206
v 0.311321 1.879339 0.481998
v 0.361113 1.879339 0.432206
v 0.361113 1.879339 0.089059
v 0.361113 1.879339 -0.432206
v 0.311321 1.879339 -0.481998
v -0.311321 1.879339 -0.481998
v -0.361113 1.879339 -0.432206
v -0.361113 1.879339 0.157124
vt 0.026821 0.280694
vt 0.025199 0.311773
vt 0.401722 0.490056
vt 0.401722 0.490056
vt 0.026821 0.280694
vt 0.025199 0.311773
vt 0.401722 0.490056
vt 0.401722 0.490056
vt 0.401722 0.490056
vt 0.401722 0.490056
vt 0.025199 0.311773
vt 0.026821 0.280694
vt 0.401722 0.490056
vt 0.401722 0.490056
vt 0.025199 0.311773
vt 0.026821 0.280694
vt 0.026821 0.280694
vt 0.025199 0.311773
vt 0.025199 0.311773
vt 0.026821 0.280694
vt 0.026821 0.280694
vt 0.025199 0.311773
vt 0.026821 0.280694
vt 0.025199 0.311773
vt 0.401722 0.490056
vt 0.401722 0.490056
vt 0.401722 0.490056
vt 0.401722 0.490056
vt 0.401722 0.490056
vt 0.401722 0.490056
vt 0.401722 0.490056
vt 0.401722 0.490056
vt 0.025199 0.311773
vt 0.025199 0.311773
vt 0.025199 0.311773
vt 0.025199 0.311773
vt 0.025199 0.311773
vt 0.025199 0.311773
vt 0.025199 0.311773
vt 0.025199 0.311773
vt 0.025199 0.311773
vt 0.025199 0.311773
vt 0.025199 0.311773
vt 0.025199 0.311773
vt 0.025199 0.311773
vt 0.025199 0.311773
vt 0.025199 0.311773
vt 0.025199 0.311773
vt 0.026821 0.280694
vt 0.026821 0.280694
vt 0.026821 0.280694
vt 0.026821 0.280694
vt 0.026821 0.280694
vt 0.026821 0.280694
vt 0.026821 0.280694
vt 0.026821 0.280694
vt 0.026821 0.280694
vt 0.025199 0.311773
vt 0.026821 0.280694
vt 0.025199 0.311773
vt 0.025199 0.311773
vt 0.401722 0.490056
vt 0.401722 0.490056
vt 0.401722 0.490056
vt 0.025199 0.311773
vt 0.401722 0.490056
vt 0.025199 0.311773
vt 0.025199 0.311773
vt 0.026821 0.280694
vt 0.026821 0.280694
vt 0.401722 0.490056
vt 0.401722 0.490056
vt 0.401722 0.490056
vt 0.401722 0.490056
vt 0.401722 0.490056
vt 0.401722 0.490056
vt 0.401722 0.490056
vt 0.401722 0.490056
vt 0.401722 0.490056
vt 0.401722 0.490056
vn 0.000000 -1.000000 0.000000
vn 0.000000 -1.000000 0.000000
vn 0.000000 -1.000000 0.000000
vn 0.000000 -1.000000 0.000000
vn 0.000000 -1.000000 0.000000
vn 0.000000 -1.000000 0.000000
vn 0.000000 -1.000000 0.000000
vn 0.000000 -1.000000 0.000000
vn 0.000000 -1.000000 0.000000
vn 0.000000 -1.000000 0.000000
vn 0.000000 1.000000 -0.000000
vn 0.000000 1.000000 -0.000000
vn 0.000000 1.000000 -0.000000
vn 0.000000 1.000000 -0.000000
vn 0.000000 1.000000 -0.000000
vn 0.000000 1.000000 -0.000000
vn 0.000000 1.000000 -0.000000
vn 0.000000 1.000000 -0.000000
vn 0.000000 1.000000 -0.000000
vn 0.000000 1.000000 -0.000000
vn -0.598746 0.000000 0.800939
vn -0.598743 0.000105 0.800941
vn -0.617942 -0.015560 0.786069
vn -0.618375 -0.015489 0.785731
vn -0.618375 -0.015489 0.785731
vn -0.617942 -0.015560 0.786069
vn -0.707106 0.000000 0.707107
vn -0.707106 0.000000 0.707107
vn 0.839015 -0.000000 0.544109
vn 0.839014 -0.000618 0.544109
vn 0.828786 -0.011349 0.559450
vn 0.828593 -0.011329 0.559737
vn 0.828593 -0.011329 0.559737
vn 0.828786 -0.011349 0.559450
vn 0.707106 0.000000 0.707107
vn 0.707106 0.000000 0.707107
vn -0.764131 -0.005494 -0.645037
vn -0.764184 -0.005499 -0.644975
vn -0.707106 0.000000 -0.707107
vn -0.707106 0.000000 -0.707107
vn -0.764184 -0.005499 -0.644975
vn -0.764131 -0.005494 -0.645037
vn -0.770658 0.000000 -0.637249
vn -0.770661 -0.000062 -0.637245
vn 0.633042 -0.013046 -0.774008
vn 0.632737 -0.013098 -0.774256
vn 0.707107 0.000000 -0.707107
vn 0.707107 0.000000 -0.707107
vn 0.632737 -0.013098 -0.774256
vn 0.633042 -0.013046 -0.774008
vn 0.616635 0.000000 -0.787249
vn 0.616635 0.000071 -0.787249
vn 0.000000 0.000000 1.000000
vn -0.000000 0.000000 1.000000
vn -0.000000 0.000000 1.000000
vn 0.000000 0.000000 1.000000
vn -0.000000 0.000000 -1.000000
vn -0.000000 0.000000 -1.000000
vn -0.000000 0.000000 -1.000000
vn -0.000000 0.000000 -1.000000
vn 1.000000 -0.000000 0.000000
vn 1.000000 0.000000 0.000000
vn 1.000000 -0.000000 0.000000
vn 1.000000 0.000000 0.000000
vn -1.000000 -0.000000 0.000000
vn -1.000000 -0.000000 0.000000
vn -1.000000 -0.000000 0.000000
vn -1.000000 -0.000000 0.000000
vn 0.000000 0.000000 1.000000
vn 0.000000 0.000000 1.000000
vn 0.000000 0.000000 1.000000
vn 0.000000 0.000000 1.000000
vn 1.000000 -0.000000 0.000000
vn 1.000000 0.000000 0.000000
vn 1.000000 0.000000 0.000000
vn 1.000000 0.000000 0.000000
vn -0.000000 0.000000 -1.000000
vn -0.000000 0.000000 -1.000000
vn 0.000000 0.000000 -1.000000
vn 0.000000 0.000000 -1.000000
vn -1.000000 -0.000000 0.000000
vn -1.000000 -0.000000 0.000000
vn -1.000000 0.000000 0.000000
vn -1.000000 0.000000 0.000000
vn 0.707106 0.000000 0.707107
vn 0.707106 0.000000 0.707107
vn 0.824276 0.037017 0.564977
vn 0.823416 0.036713 0.566250
vn 1.000000 -0.000000 0.000000
vn 1.000000 0.000000 0.000000
vn 1.000000 0.000000 0.000000
vn 1.000000 0.000000 0.000000
vn 0.621856 0.008089 -0.783090
vn 0.621918 0.008084 -0.783041
vn 0.707106 0.000000 -0.707107
vn 0.707106 0.000000 -0.707107
vn -0.000000 0.000000 -1.000000
vn -0.000000 0.000000 -1.000000
vn 0.000000 0.000000 -1.000000
vn 0.000000 0.000000 -1.000000
vn -0.765329 0.013449 -0.643498
vn -0.761663 0.012564 -0.647851
vn -0.707107 0.000000 -0.707107
vn -0.707107 0.000000 -0.707107
vn -1.000000 0.000000 0.000000
vn -1.000000 -0.000000 0.000000
vn -1.000000 0.000000 0.000000
vn -1.000000 0.000000 0.000000
vn -0.707107 0.000000 0.707107
vn -0.707107 0.000000 0.707107
vn -0.605530 0.009391 0.795767
vn -0.602597 0.009645 0.797988
vn -0.000000 0.000000 1.000000
vn -0.000000 0.000000 1.000000
vn 0.000000 0.000000 1.000000
vn 0.000000 0.000000 1.000000
vn 0.823416 0.036713 0.566250
vn 0.824276 0.037017 0.564977
vn 0.839014 -0.000618 0.544109
vn 0.839015 -0.000000 0.544109
vn 1.000000 -0.000000 0.000000
vn 1.000000 0.000000 0.000000
vn 1.000000 0.000000 0.000000
vn 1.000000 -0.000000 0.000000
vn 0.616635 0.000071 -0.787249
vn 0.616635 0.000000 -0.787249
vn 0.621918 0.008084 -0.783041
vn 0.621856 0.008089 -0.783090
vn -0.000000 0.000000 -1.000000
vn -0.000000 0.000000 -1.000000
vn -0.000000 0.000000 -1.000000
vn -0.000000 0.000000 -1.000000
vn -0.770661 -0.000062 -0.637245
vn -0.770658 0.000000 -0.637249
vn -0.761663 0.012564 -0.647851
vn -0.765329 0.013449 -0.643498
vn -1.000000 -0.000000 0.000000
vn -1.000000 -0.000000 0.000000
vn -1.000000 -0.000000 0.000000
vn -1.000000 0.000000 0.000000
vn -0.602597 0.009645 0.797988
vn -0.605530 0.009391 0.795767
vn -0.598743 0.000105 0.800941
vn -0.598746 0.000000 0.800939
vn -0.000000 0.000000 1.000000
vn -0.000000 0.000000 1.000000
vn -0.000000 0.000000 1.000000
vn -0.000000 0.000000 1.000000
vn 1.000000 -0.000000 0.000000
vn 1.000000 -0.000000 0.000000
vn 1.000000 0.000000 0.000000
vn 1.000000 0.000000 0.000000
vn 1.000000 0.000000 0.000000
vn 1.000000 -0.000000 0.000000
vn 1.000000 -0.000000 0.000000
vn 1.000000 -0.000000 0.000000
vn 1.000000 0.000000 0.000000
vn 1.000000 -0.000000 0.000000
vn 1.000000 0.000000 0.000000
vn 1.000000 0.000000 0.000000
vn 1.000000 0.000000 0.000000
vn 1.000000 0.000000 0.000000
vn 1.000000 0.000000 0.000000
vn 1.000000 0.000000 0.000000
vn -1.000000 0.000000 0.000000
vn -1.000000 -0.000000 0.000000
vn -1.000000 0.000000 0.000000
vn -1.000000 0.000000 0.000000
vn -1.000000 0.000000 0.000000
vn -1.000000 -0.000000 0.000000
vn -1.000000 -0.000000 0.000000
vn -1.000000 -0.000000 0.000000
vn -1.000000 -0.000000 0.000000
vn -1.000000 -0.000000 0.000000
vn -1.000000 -0.000000 0.000000
vn -1.000000 -0.000000 0.000000
vn -1.000000 0.000000 0.000000
vn -1.000000 -0.000000 0.000000
vn -1.000000 -0.000000 0.000000
vn -1.000000 0.000000 0.000000
vn -0.390293 0.626510 0.674653
vn -0.390293 0.626510 0.674653
vn -0.390293 0.626510 0.674653
vn -0.390293 0.626510 0.674653
vn -0.020547 0.566086 0.824090
vn -0.020547 0.566086 0.824090
vn -0.020547 0.566086 0.824090
vn -0.020547 0.566086 0.824090
vn 0.357124 0.863091 0.357121
vn 0.357124 0.863091 0.357121
vn 0.357124 0.863091 0.357121
vn 0.357124 0.863091 0.357121
vn 0.672637 0.739972 0.000000
vn 0.672637 0.739972 0.000000
vn 0.672637 0.739972 0.000000
vn 0.672637 0.739972 0.000000
vn 0.672637 0.739972 0.000000
vn 0.672638 0.739972 0.000000
vn 0.672638 0.739972 0.000000
vn 0.672637 0.739972 0.000000
vn 0.390222 0.633125 -0.668490
vn 0.390223 0.633125 -0.668490
vn 0.390222 0.633125 -0.668490
vn 0.390222 0.633125 -0.668490
vn 0.020127 0.572624 -0.819571
vn 0.020127 0.572624 -0.819571
vn 0.020127 0.572624 -0.819571
vn 0.020127 0.572624 -0.819571
vn -0.357124 0.863091 -0.357121
vn -0.357124 0.863091 -0.357121
vn -0.357124 0.863091 -0.357121
vn -0.357124 0.863091 -0.357121
vn -0.672638 0.739972 0.000000
vn -0.672638 0.739972 0.000000
vn -0.672638 0.739972 0.000000
vn -0.672638 0.739972 0.000000
vn -0.672638 0.739972 0.000000
vn -0.672638 0.739972 0.000000
vn -0.672638 0.739972 0.000000
vn -0.672638 0.739972 0.000000
s off
f 11/1/1 12/5/2 16/12/3 15/16/4 41/57/5 5/17/6 6/20/7 2/21/8 1/23/9 50/70/10
f 52/71/11 51/72/12 53/73/13 54/74/14 55/75/15 56/76/16 57/77/17 58/78/18 59/79/19 60/80/20
f 39/47/21 40/48/22 4/2/23 3/24/24
f 3/3/25 4/25/26 18/26/27 17/4/28
f 33/41/29 34/42/30 8/6/31 7/18/32
f 7/7/33 8/27/34 19/28/35 20/8/36
f 9/9/37 10/31/38 23/32/39 24/10/40
f 10/11/41 9/19/42 37/45/43 38/46/44
f 13/13/45 14/29/46 21/30/47 22/14/48
f 14/15/49 13/22/50 35/43/51 36/44/52
f 4/2/53 40/48/54 33/41/55 7/18/56
f 9/19/57 14/15/58 36/44/59 37/45/60
f 8/6/61 34/42/62 43/60/63 44/61/64
f 47/65/65 48/67/66 39/47/67 3/24/68
f 4/25/69 7/7/70 20/8/71 18/26/72
f 8/27/73 44/62/74 45/63/75 19/28/76
f 14/29/77 9/9/78 24/10/79 21/30/80
f 47/66/81 3/3/82 17/4/83 46/64/84
f 6/20/85 5/17/86 26/49/87 25/50/88
f 42/59/89 26/49/90 5/17/91 41/57/92
f 28/52/93 27/51/94 15/16/95 16/12/96
f 29/53/97 28/52/98 16/12/99 12/5/100
f 30/54/101 29/53/102 12/5/103 11/1/104
f 31/55/105 49/69/106 50/70/107 1/23/108
f 1/23/109 2/21/110 32/56/111 31/55/112
f 25/50/113 32/56/114 2/21/115 6/20/116
f 25/33/117 26/34/118 34/42/119 33/41/120
f 43/60/121 34/42/122 26/34/123 42/58/124
f 36/44/125 35/43/126 27/35/127 28/36/128
f 37/45/129 36/44/130 28/36/131 29/37/132
f 38/46/133 37/45/134 29/37/135 30/38/136
f 39/47/137 48/67/138 49/68/139 31/39/140
f 31/39/141 32/40/142 40/48/143 39/47/144
f 33/41/145 40/48/146 32/40/147 25/33/148
f 27/51/149 42/59/150 41/57/151 15/16/152
f 35/43/153 43/60/154 42/58/155 27/35/156
f 44/61/157 43/60/158 35/43/159 13/22/160
f 45/63/161 44/62/162 13/13/163 22/14/164
f 10/31/165 47/66/166 46/64/167 23/32/168
f 10/11/169 38/46/170 48/67/171 47/65/172
f 49/68/173 48/67/174 38/46/175 30/38/176
f 50/70/177 49/69/178 30/54/179 11/1/180
f 17/4/181 18/26/182 51/72/183 52/71/184
f 18/26/185 20/8/186 53/73/187 51/72/188
f 20/8/189 19/28/190 54/74/191 53/73/192
f 19/28/193 45/63/194 55/75/195 54/74/196
f 45/63/197 22/14/198 56/76/199 55/75/200
f 22/14/201 21/30/202 57/77/203 56/76/204
f 21/30/205 24/10/206 58/78/207 57/77/208
f 24/10/209 23/32/210 59/79/211 58/78/212
f 23/32/213 46/64/214 60/80/215 59/79/216
f 46/64/217 17/4/218 52/71/219 60/80/220
