# This file uses centimeters as units for non-parametric coordinates.

v -0.136759 -0.011875 0.055774
v 0.136759 -0.011875 0.055774
v -0.136759 0.035840 0.055774
v 0.136759 0.035840 0.055774
v -0.136759 0.035840 -0.055628
v 0.136759 0.035840 -0.055628
v -0.136759 -0.011875 -0.055628
v 0.136759 -0.011875 -0.055628
v 0.000000 0.013656 -0.048331
v 0.000000 -0.032375 -0.048331
v 0.000000 -0.032375 0.048478
v 0.000000 0.013656 0.048478
v -0.023040 -0.035840 0.056044
v 0.015297 -0.035840 0.056044
v -0.023040 0.022513 0.056044
v 0.015297 0.022513 0.056044
v -0.023040 0.022513 -0.056044
v 0.015297 0.022513 -0.056044
v -0.023040 -0.035840 -0.056044
v 0.015297 -0.035840 -0.056044
vt 0.669081 0.407043
vt 0.669081 0.407042
vt 0.623575 0.407043
vt 0.623575 0.407043
vt 0.623575 0.407043
vt 0.623575 0.407043
vt 0.503749 0.373682
vt 0.623970 0.373682
vt 0.623970 0.434205
vt 0.503749 0.434205
vt 0.669081 0.407043
vt 0.669081 0.407043
vt 0.503749 0.373682
vt 0.623970 0.373682
vt 0.623970 0.434205
vt 0.503749 0.434205
vt 0.623575 0.407043
vt 0.563860 0.434205
vt 0.563860 0.434205
vt 0.669081 0.407043
vt 0.669081 0.407042
vt 0.563860 0.373682
vt 0.563860 0.373682
vt 0.623575 0.407043
vt 0.357360 0.012340
vt 0.357360 0.012340
vt 0.357360 0.012340
vt 0.357360 0.012340
vt 0.357360 0.012340
vt 0.357360 0.012340
vt 0.357360 0.012340
vt 0.357360 0.012340
vt 0.357360 0.012340
vt 0.357360 0.012340
vt 0.357360 0.012340
vt 0.357360 0.012340
vt 0.357360 0.012340
vt 0.357360 0.012340
vt 0.357360 0.012340
vt 0.357360 0.012340
vn 0.053279 0.000000 0.998580
vn 0.000000 0.000000 1.000000
vn 0.000000 0.000000 1.000000
vn 0.053279 0.000000 0.998580
vn 0.160120 0.987098 0.000000
vn 0.000000 1.000000 0.000000
vn 0.000000 1.000000 0.000000
vn 0.160120 0.987098 0.000000
vn 0.053278 0.000000 -0.998580
vn 0.000000 0.000000 -1.000000
vn 0.000000 0.000000 -1.000000
vn 0.053278 0.000000 -0.998580
vn -0.148246 -0.988951 0.000000
vn 0.000000 -1.000000 0.000000
vn 0.000000 -1.000000 0.000000
vn -0.148246 -0.988951 0.000000
vn 1.000000 0.000000 0.000000
vn 1.000000 0.000000 0.000000
vn 1.000000 0.000000 0.000000
vn 1.000000 0.000000 0.000000
vn -1.000000 0.000000 0.000000
vn -1.000000 0.000000 0.000000
vn -1.000000 0.000000 0.000000
vn -1.000000 0.000000 0.000000
vn 0.000000 0.000000 -1.000000
vn -0.053278 0.000000 -0.998580
vn -0.053278 0.000000 -0.998580
vn 0.000000 0.000000 -1.000000
vn 0.000000 -1.000000 0.000000
vn 0.000000 -1.000000 0.000000
vn 0.148246 -0.988951 0.000000
vn 0.148246 -0.988951 0.000000
vn 0.000000 0.000000 1.000000
vn 0.000000 0.000000 1.000000
vn -0.053279 0.000000 0.998580
vn -0.053279 0.000000 0.998580
vn 0.000000 1.000000 0.000000
vn 0.000000 1.000000 0.000000
vn -0.160120 0.987098 0.000000
vn -0.160120 0.987098 0.000000
vn 0.000000 0.000000 1.000000
vn 0.000000 0.000000 1.000000
vn 0.000000 0.000000 1.000000
vn 0.000000 0.000000 1.000000
vn 0.000000 1.000000 0.000000
vn 0.000000 1.000000 0.000000
vn 0.000000 1.000000 0.000000
vn 0.000000 1.000000 0.000000
vn 0.000000 0.000000 -1.000000
vn 0.000000 0.000000 -1.000000
vn 0.000000 0.000000 -1.000000
vn 0.000000 0.000000 -1.000000
vn 0.000000 -1.000000 0.000000
vn 0.000000 -1.000000 0.000000
vn 0.000000 -1.000000 0.000000
vn 0.000000 -1.000000 0.000000
vn 1.000000 0.000000 0.000000
vn 1.000000 0.000000 0.000000
vn 1.000000 0.000000 0.000000
vn 1.000000 0.000000 0.000000
vn -1.000000 0.000000 0.000000
vn -1.000000 0.000000 0.000000
vn -1.000000 0.000000 0.000000
vn -1.000000 0.000000 0.000000
s off
f 1/1/1 11/21/2 12/24/3 3/4/4
f 3/7/5 12/23/6 9/18/7 5/10/8
f 5/5/9 9/17/10 10/20/11 7/12/12
f 7/16/13 10/19/14 11/22/15 1/13/16
f 2/2/17 8/11/18 6/6/19 4/3/20
f 7/12/21 1/1/22 3/4/23 5/5/24
f 9/17/25 6/6/26 8/11/27 10/20/28
f 11/22/29 10/19/30 8/15/31 2/14/32
f 12/24/33 11/21/34 2/2/35 4/3/36
f 9/18/37 12/23/38 4/8/39 6/9/40
f 13/25/41 14/26/42 16/27/43 15/28/44
f 15/29/45 16/30/46 18/31/47 17/32/48
f 17/33/49 18/34/50 20/35/51 19/36/52
f 19/37/53 20/38/54 14/39/55 13/40/56
f 14/26/57 20/35/58 18/34/59 16/27/60
f 19/36/61 13/25/62 15/28/63 17/33/64
