# This file uses centimeters as units for non-parametric coordinates.

v -0.198830 0.000000 0.291088
v -0.066277 0.000000 0.291088
v 0.066277 0.000000 0.291088
v 0.198830 0.000000 0.291088
v -0.198830 0.138643 0.291088
v -0.066277 0.138643 0.291088
v 0.066277 0.138643 0.291088
v 0.198830 0.138643 0.291088
v -0.198830 0.138643 0.000000
v -0.066277 0.138643 0.000000
v 0.066277 0.138643 0.000000
v 0.198830 0.138643 0.000000
v -0.198830 0.138643 -0.291088
v -0.066277 0.138643 -0.291088
v 0.066277 0.138643 -0.291088
v 0.198830 0.138643 -0.291088
v -0.198830 0.000000 -0.291088
v -0.066277 0.000000 -0.291088
v 0.066277 0.000000 -0.291088
v 0.198830 0.000000 -0.291088
v -0.198830 0.000000 0.000000
v -0.066277 0.000000 0.000000
v 0.066277 0.000000 0.000000
v 0.198830 0.000000 0.000000
vt 0.673534 0.384047
vt 0.673534 0.384047
vt 0.624311 0.384047
vt 0.624311 0.384047
vt 0.673534 0.384047
vt 0.624311 0.384047
vt 0.673534 0.384047
vt 0.624311 0.384047
vt 0.502098 0.435007
vt 0.502098 0.435007
vt 0.502098 0.435007
vt 0.502098 0.374042
vt 0.624311 0.430486
vt 0.624311 0.430486
vt 0.673534 0.430486
vt 0.673534 0.430486
vt 0.624311 0.430486
vt 0.673534 0.430486
vt 0.624311 0.430486
vt 0.673534 0.430486
vt 0.502098 0.435007
vt 0.502098 0.435007
vt 0.502098 0.435007
vt 0.502098 0.374042
vt 0.626061 0.435007
vt 0.626061 0.435007
vt 0.626061 0.435007
vt 0.626061 0.374042
vt 0.673534 0.407267
vt 0.624311 0.407267
vt 0.673534 0.407267
vt 0.624311 0.407267
vt 0.626061 0.374042
vt 0.502098 0.374042
vt 0.626061 0.374042
vt 0.502098 0.374042
vt 0.502098 0.435007
vt 0.502098 0.374042
vt 0.626061 0.374042
vt 0.626061 0.435007
vt 0.502098 0.435007
vt 0.502098 0.374042
vt 0.626061 0.374042
vt 0.626061 0.435007
vt 0.502098 0.435007
vt 0.502098 0.374042
vt 0.626061 0.374042
vt 0.626061 0.435007
vt 0.502098 0.374042
vt 0.626061 0.374042
vt 0.626061 0.435007
vt 0.502098 0.374042
vt 0.626061 0.374042
vt 0.626061 0.435007
vt 0.626061 0.374042
vt 0.626061 0.435007
vt 0.502098 0.435007
vt 0.502098 0.374042
vt 0.626061 0.374042
vt 0.626061 0.435007
vt 0.502098 0.435007
vt 0.502098 0.374042
vt 0.626061 0.374042
vt 0.626061 0.435007
vt 0.502098 0.435007
vt 0.502098 0.374042
vt 0.626061 0.374042
vt 0.626061 0.435007
vn 0.000000 0.000000 1.000000
vn 0.000000 0.000000 1.000000
vn 0.000000 0.000000 1.000000
vn 0.000000 0.000000 1.000000
vn 0.000000 0.000000 1.000000
vn 0.000000 0.000000 1.000000
vn 0.000000 0.000000 1.000000
vn 0.000000 0.000000 1.000000
vn 0.000000 0.000000 1.000000
vn 0.000000 0.000000 1.000000
vn 0.000000 0.000000 1.000000
vn 0.000000 0.000000 1.000000
vn 0.000000 1.000000 0.000000
vn 0.000000 1.000000 0.000000
vn 0.000000 1.000000 0.000000
vn 0.000000 1.000000 0.000000
vn 0.000000 1.000000 0.000000
vn 0.000000 1.000000 0.000000
vn 0.000000 1.000000 0.000000
vn 0.000000 1.000000 0.000000
vn 0.000000 1.000000 0.000000
vn 0.000000 1.000000 0.000000
vn 0.000000 1.000000 0.000000
vn 0.000000 1.000000 0.000000
vn 0.000000 1.000000 0.000000
vn 0.000000 1.000000 0.000000
vn 0.000000 1.000000 0.000000
vn 0.000000 1.000000 0.000000
vn 0.000000 1.000000 0.000000
vn 0.000000 1.000000 0.000000
vn 0.000000 1.000000 0.000000
vn 0.000000 1.000000 0.000000
vn 0.000000 1.000000 0.000000
vn 0.000000 1.000000 0.000000
vn 0.000000 1.000000 0.000000
vn 0.000000 1.000000 0.000000
vn 0.000000 0.000000 -1.000000
vn 0.000000 0.000000 -1.000000
vn 0.000000 0.000000 -1.000000
vn 0.000000 0.000000 -1.000000
vn 0.000000 0.000000 -1.000000
vn 0.000000 0.000000 -1.000000
vn 0.000000 0.000000 -1.000000
vn 0.000000 0.000000 -1.000000
vn 0.000000 0.000000 -1.000000
vn 0.000000 0.000000 -1.000000
vn 0.000000 0.000000 -1.000000
vn 0.000000 0.000000 -1.000000
vn 0.000000 -1.000000 0.000000
vn 0.000000 -1.000000 0.000000
vn 0.000000 -1.000000 0.000000
vn 0.000000 -1.000000 0.000000
vn 0.000000 -1.000000 0.000000
vn 0.000000 -1.000000 0.000000
vn 0.000000 -1.000000 0.000000
vn 0.000000 -1.000000 0.000000
vn 0.000000 -1.000000 0.000000
vn 0.000000 -1.000000 0.000000
vn 0.000000 -1.000000 0.000000
vn 0.000000 -1.000000 0.000000
vn 0.000000 -1.000000 0.000000
vn 0.000000 -1.000000 0.000000
vn 0.000000 -1.000000 0.000000
vn 0.000000 -1.000000 0.000000
vn 0.000000 -1.000000 0.000000
vn 0.000000 -1.000000 0.000000
vn 0.000000 -1.000000 0.000000
vn 0.000000 -1.000000 0.000000
vn 0.000000 -1.000000 0.000000
vn 0.000000 -1.000000 0.000000
vn 0.000000 -1.000000 0.000000
vn 0.000000 -1.000000 0.000000
vn 1.000000 0.000000 0.000000
vn 1.000000 0.000000 0.000000
vn 1.000000 0.000000 0.000000
vn 1.000000 0.000000 0.000000
vn 1.000000 0.000000 0.000000
vn 1.000000 0.000000 0.000000
vn 1.000000 0.000000 0.000000
vn 1.000000 0.000000 0.000000
vn -1.000000 0.000000 0.000000
vn -1.000000 0.000000 0.000000
vn -1.000000 0.000000 0.000000
vn -1.000000 0.000000 0.000000
vn -1.000000 0.000000 0.000000
vn -1.000000 0.000000 0.000000
vn -1.000000 0.000000 0.000000
vn -1.000000 0.000000 0.000000
s off
f 1/1/1 2/2/2 6/3/3 5/4/4
f 2/2/5 3/5/6 7/6/7 6/3/8
f 3/5/9 4/7/10 8/8/11 7/6/12
f 5/37/13 6/38/14 10/39/15 9/40/16
f 6/41/17 7/42/18 11/43/19 10/44/20
f 7/45/21 8/46/22 12/47/23 11/48/24
f 9/9/25 10/49/26 14/50/27 13/51/28
f 10/10/29 11/52/30 15/53/31 14/54/32
f 11/11/33 12/12/34 16/55/35 15/56/36
f 13/13/37 14/14/38 18/15/39 17/16/40
f 14/14/41 15/17/42 19/18/43 18/15/44
f 15/17/45 16/19/46 20/20/47 19/18/48
f 17/57/49 18/58/50 22/59/51 21/60/52
f 18/61/53 19/62/54 23/63/55 22/64/56
f 19/65/57 20/66/58 24/67/59 23/68/60
f 21/21/61 22/36/62 2/35/63 1/25/64
f 22/22/65 23/34/66 3/33/67 2/26/68
f 23/23/69 24/24/70 4/28/71 3/27/72
f 24/29/73 20/20/74 16/19/75 12/30/76
f 4/7/77 24/29/78 12/30/79 8/8/80
f 17/16/81 21/31/82 9/32/83 13/13/84
f 21/31/85 1/1/86 5/4/87 9/32/88
