# This file uses centimeters as units for non-parametric coordinates.

v -1.250000 0.000000 0.351802
v 1.250000 0.000000 0.351802
v -1.250000 0.883767 0.459110
v 1.250000 0.883767 0.459110
v -1.250000 0.883767 -0.459110
v 1.250000 0.883767 -0.459110
v -1.250000 0.000000 -0.374908
v 1.250000 0.000000 -0.374908
v 0.900799 0.883767 -0.214142
v -1.250000 0.883767 -0.240373
v 0.900799 0.883767 0.211203
v -1.250000 0.883767 0.237434
v -1.250000 1.302130 0.237434
v -1.250000 1.302130 -0.240373
v 0.900799 1.302130 0.211203
v 0.900799 1.302130 -0.214142
v -1.250000 0.750467 0.351802
v -1.250000 0.750467 -0.374908
v 1.250000 0.750467 -0.374908
v 1.250000 0.750467 0.351802
v -1.250000 0.061317 0.351802
v -1.250000 0.061317 -0.374908
v 1.250000 0.061317 -0.374908
v 1.250000 0.061317 0.351802
v -1.250000 0.750467 0.480887
v 1.250000 0.750467 0.480887
v -1.250000 0.750467 -0.480887
v 1.250000 0.750467 -0.480887
v 0.900799 1.274692 0.211203
v -1.250000 1.274692 0.237434
v -1.250000 1.274692 -0.240373
v 0.900799 1.274692 -0.214142
v 1.250000 0.860893 0.480887
v -1.250000 0.860893 0.480887
v -1.250000 0.860893 -0.480887
v 1.250000 0.860893 -0.480887
v 0.876534 1.302130 0.237434
v 0.876534 1.274692 0.237434
v 0.876534 0.883767 0.237434
v 0.876534 0.883767 -0.240373
v 0.876534 1.274692 -0.240373
v 0.876534 1.302130 -0.240373
v 0.429905 1.302130 0.237434
v 0.429905 1.259468 0.237434
v 0.429905 0.883767 0.237434
v 0.622197 0.883767 0.459110
v 0.622197 0.826983 0.480887
v 0.622197 0.750467 0.480887
v 0.613097 0.750467 0.351802
v 0.622197 0.061317 0.351802
v 0.622197 0.000000 0.351802
v 0.613097 0.000000 -0.374908
v 0.613097 0.044975 -0.374908
v 0.613097 0.750467 -0.374908
v 0.613097 0.750467 -0.480887
v 0.613097 0.860893 -0.480887
v 0.628601 0.883767 -0.427910
v 0.429905 0.883767 -0.240373
v -0.003676 1.274692 -0.240373
v -0.003676 1.302130 -0.240373
v 0.093901 1.302130 0.237434
v 0.093901 1.274692 0.237434
v -0.241536 0.883767 0.237434
v -0.344392 0.883767 0.428394
v -0.344392 0.860893 0.480887
v -0.344392 0.773263 0.480887
v -0.344392 0.750467 0.351802
v -0.344392 0.093456 0.351802
v -0.344392 0.000000 0.351802
v -0.344392 0.000000 -0.374908
v -0.344392 0.061317 -0.374908
v -0.344392 0.750467 -0.374908
v -0.344392 0.764556 -0.480887
v -0.344392 0.844663 -0.480887
v -0.344392 0.883767 -0.459110
v -0.241536 0.883767 -0.240373
v -0.241536 1.249284 -0.240373
v -0.241536 1.302130 -0.240373
vt 0.025864 0.277846
vt 0.025864 0.277846
vt 0.400309 0.491237
vt 0.400309 0.491237
vt 0.025864 0.277846
vt 0.025864 0.277846
vt 0.025864 0.277846
vt 0.025864 0.277846
vt 0.025864 0.277846
vt 0.400309 0.491237
vt 0.025864 0.277846
vt 0.400309 0.491237
vt 0.400309 0.491237
vt 0.023868 0.304455
vt 0.023868 0.304455
vt 0.400309 0.491237
vt 0.400309 0.491237
vt 0.023868 0.304455
vt 0.023868 0.304455
vt 0.400309 0.491237
vt 0.400475 0.489540
vt 0.400475 0.489540
vt 0.400475 0.489540
vt 0.400475 0.489540
vt 0.023868 0.304455
vt 0.023868 0.304455
vt 0.023868 0.304455
vt 0.023868 0.304455
vt 0.023868 0.304455
vt 0.023868 0.304455
vt 0.023868 0.304455
vt 0.023868 0.304455
vt 0.023868 0.304455
vt 0.023868 0.304455
vt 0.023868 0.304455
vt 0.023868 0.304455
vt 0.400309 0.491237
vt 0.400309 0.491237
vt 0.400309 0.491237
vt 0.400309 0.491237
vt 0.400309 0.491237
vt 0.400309 0.491237
vt 0.400309 0.491237
vt 0.400309 0.491237
vt 0.023868 0.304455
vt 0.023868 0.304455
vt 0.023868 0.304455
vt 0.023868 0.304455
vt 0.400475 0.489540
vt 0.400475 0.489540
vt 0.400475 0.489540
vt 0.400475 0.489540
vt 0.400309 0.491237
vt 0.400309 0.491237
vt 0.400309 0.491237
vt 0.400309 0.491237
vt 0.400475 0.489540
vt 0.023868 0.304455
vt 0.400475 0.489540
vt 0.400309 0.491237
vt 0.023868 0.304455
vt 0.023868 0.304455
vt 0.400309 0.491237
vt 0.023868 0.304455
vt 0.400475 0.489540
vt 0.400475 0.489540
vt 0.400475 0.489540
vt 0.023868 0.304455
vt 0.400475 0.489540
vt 0.400309 0.491237
vt 0.023868 0.304455
vt 0.400309 0.491237
vt 0.400309 0.491237
vt 0.400309 0.491237
vt 0.023868 0.304455
vt 0.400309 0.491237
vt 0.023868 0.304455
vt 0.025864 0.277846
vt 0.025864 0.277846
vt 0.025864 0.277846
vt 0.023868 0.304455
vt 0.023868 0.304455
vt 0.400309 0.491237
vt 0.400309 0.491237
vt 0.400309 0.491237
vt 0.400309 0.491237
vt 0.023868 0.304455
vt 0.400309 0.491237
vt 0.023868 0.304455
vt 0.400475 0.489540
vt 0.400475 0.489540
vt 0.400475 0.489540
vt 0.023868 0.304455
vt 0.400475 0.489540
vt 0.400309 0.491237
vt 0.023868 0.304455
vt 0.400309 0.491237
vt 0.400309 0.491237
vt 0.400309 0.491237
vt 0.023868 0.304455
vt 0.400309 0.491237
vt 0.023868 0.304455
vt 0.025864 0.277846
vt 0.025864 0.277846
vt 0.025864 0.277846
vt 0.023868 0.304455
vt 0.023868 0.304455
vt 0.400309 0.491237
vt 0.400309 0.491237
vt 0.400309 0.491237
vt 0.400309 0.491237
vt 0.023868 0.304455
vt 0.400309 0.491237
vt 0.023868 0.304455
vt 0.400475 0.489540
vt 0.400475 0.489540
vt 0.025864 0.277846
vt 0.025864 0.277846
vt 0.401547 0.491094
vt 0.401547 0.491094
vt 0.401547 0.491094
vt 0.401547 0.491094
vt 0.401547 0.491094
vt 0.401547 0.491094
vn 1.000000 0.000000 0.000000
vn 1.000000 0.000000 0.000000
vn 1.000000 0.000000 0.000000
vn 1.000000 0.000000 0.000000
vn -1.000000 0.000000 0.000000
vn -1.000000 0.000000 0.000000
vn -1.000000 0.000000 0.000000
vn -1.000000 0.000000 0.000000
vn 0.000000 0.000000 -1.000000
vn 0.000000 0.000000 -1.000000
vn 0.000000 0.000000 -1.000000
vn 0.000000 0.000000 -1.000000
vn 0.000000 -1.000000 0.000000
vn 0.000000 -1.000000 0.000000
vn 0.000000 -1.000000 0.000000
vn 0.000000 -1.000000 0.000000
vn 0.000000 0.000000 1.000000
vn 0.000000 0.000000 1.000000
vn 0.000000 0.000000 1.000000
vn 0.000000 0.000000 1.000000
vn -0.000000 1.000000 -0.000000
vn -0.000001 1.000000 0.000000
vn -0.000000 1.000000 -0.000000
vn 0.000000 1.000000 0.000000
vn 0.000000 1.000000 0.000000
vn 0.000000 1.000000 0.000000
vn 0.000000 1.000000 0.000000
vn 0.000000 1.000000 0.000000
vn 0.000000 1.000000 0.000000
vn 0.000000 1.000000 0.000000
vn 0.000000 1.000000 0.000000
vn 0.000000 1.000000 0.000000
vn 0.000000 1.000000 0.000000
vn 0.000000 1.000000 0.000000
vn 0.000000 1.000000 0.000000
vn -1.000000 0.000000 0.000000
vn -1.000000 0.000000 0.000000
vn -1.000000 0.000000 0.000000
vn -1.000000 0.000000 0.000000
vn 0.734087 0.000000 0.679056
vn 0.734087 0.000000 0.679056
vn 0.734087 0.000000 0.679056
vn 0.734087 0.000000 0.679056
vn 1.000000 0.000000 0.000000
vn 1.000000 0.000000 0.000000
vn 1.000000 0.000000 0.000000
vn 1.000000 0.000000 0.000000
vn 0.734088 0.000000 -0.679054
vn 0.734088 0.000000 -0.679054
vn 0.734088 0.000000 -0.679054
vn 0.734088 0.000000 -0.679054
vn 0.000000 0.000000 1.000000
vn 0.000000 0.000000 1.000000
vn -0.000000 0.000000 1.000000
vn -0.000000 0.000000 1.000000
vn 0.000000 0.000000 -1.000000
vn 0.000000 0.000000 -1.000000
vn 0.000000 0.000000 -1.000000
vn 0.000000 0.000000 -1.000000
vn 0.000000 0.000000 1.000000
vn 0.000000 0.000000 1.000000
vn 0.000000 0.000000 1.000000
vn 0.000000 0.000000 1.000000
vn -1.000000 0.000000 0.000000
vn -1.000000 0.000000 0.000000
vn -1.000000 0.000000 0.000000
vn -1.000000 0.000000 0.000000
vn 0.000000 0.000000 -1.000000
vn 0.000000 0.000000 -1.000000
vn 0.000000 0.000000 -1.000000
vn 0.000000 0.000000 -1.000000
vn 1.000000 0.000000 0.000000
vn 1.000000 0.000000 0.000000
vn 1.000000 0.000000 0.000000
vn 1.000000 0.000000 0.000000
vn 0.000000 -1.000000 0.000000
vn 0.000000 -1.000000 0.000000
vn -0.006883 -0.998647 0.051541
vn -0.007389 -0.998441 0.055329
vn -1.000000 0.000000 0.000000
vn -1.000000 0.000000 0.000000
vn -1.000000 0.000000 0.000000
vn 1.000000 0.000000 0.000000
vn 1.000000 0.000000 0.000000
vn 1.000000 0.000000 0.000000
vn -1.000000 0.000000 0.000000
vn -1.000000 0.000000 0.000000
vn -1.000000 0.000000 0.000000
vn 1.000000 0.000000 0.000000
vn 1.000000 0.000000 0.000000
vn 1.000000 0.000000 0.000000
vn 0.000000 -1.000000 0.000000
vn 0.000000 -1.000000 0.000000
vn -0.004415 -0.999195 -0.039885
vn -0.004415 -0.999195 -0.039885
vn 0.734087 0.000000 0.679056
vn 0.734087 0.000000 0.679056
vn 0.734087 0.000000 0.679056
vn 0.734087 0.000000 0.679056
vn -1.000000 0.000000 0.000000
vn -1.000000 0.000000 0.000000
vn -1.000000 0.000000 0.000000
vn -1.000000 0.000000 0.000000
vn 0.734088 0.000000 -0.679054
vn 0.734088 0.000000 -0.679054
vn 0.734088 0.000000 -0.679054
vn 0.734088 0.000000 -0.679054
vn 1.000000 0.000000 0.000000
vn 1.000000 0.000000 0.000000
vn 1.000000 0.000000 0.000000
vn 1.000000 0.000000 0.000000
vn -0.012955 0.479693 0.877341
vn -0.012955 0.479693 0.877341
vn -0.004339 0.615610 0.788039
vn -0.004326 0.615804 0.787887
vn -1.000000 0.000000 0.000000
vn -1.000000 0.000000 0.000000
vn -1.000000 0.000000 0.000000
vn -1.000000 0.000000 0.000000
vn -1.000000 0.000000 0.000000
vn -1.000000 0.000000 0.000000
vn -0.012894 0.854068 -0.520002
vn -0.012894 0.854068 -0.520002
vn -0.001111 0.796298 -0.604903
vn -0.003740 0.809919 -0.586530
vn 1.000000 0.000000 0.000000
vn 1.000000 0.000000 0.000000
vn 1.000000 0.000000 0.000000
vn 1.000000 0.000000 0.000000
vn 1.000000 0.000000 0.000000
vn 1.000000 0.000000 0.000000
vn 1.000000 0.000000 0.000000
vn 1.000000 0.000000 0.000000
vn 1.000000 0.000000 0.000000
vn 1.000000 0.000000 0.000000
vn -0.000000 0.000000 1.000000
vn 0.000000 0.000000 1.000000
vn 0.000000 0.000000 1.000000
vn -0.000000 0.000000 1.000000
vn 0.000000 0.000000 1.000000
vn 0.000000 0.000000 1.000000
vn 0.000000 0.000000 1.000000
vn 0.000000 0.000000 1.000000
vn 0.000000 0.000000 -1.000000
vn 0.000000 0.000000 -1.000000
vn 0.000000 0.000000 -1.000000
vn 0.000000 0.000000 -1.000000
vn 0.000000 0.000000 -1.000000
vn 0.000000 0.000000 -1.000000
vn 0.000000 0.000000 -1.000000
vn 0.000000 0.000000 -1.000000
vn 0.000000 1.000000 -0.000000
vn 0.000000 1.000000 0.000000
vn 0.000000 1.000000 0.000000
vn 0.000000 1.000000 0.000000
vn -0.000000 1.000000 0.000000
vn -0.000001 1.000000 0.000000
vn -0.000000 1.000000 0.000000
vn -0.000000 1.000000 -0.000000
vn -0.000000 1.000000 -0.000000
vn 0.000000 1.000000 -0.000000
vn 0.000000 1.000000 -0.000000
vn -0.000000 1.000000 0.000000
vn -0.000000 1.000000 0.000000
vn 0.000000 1.000000 0.000000
vn 0.000000 1.000000 0.000000
vn -0.000000 0.000000 1.000000
vn -0.000000 0.000000 1.000000
vn -0.000000 0.000000 1.000000
vn -0.000000 0.000000 1.000000
vn 0.000000 0.000000 1.000000
vn 0.000000 0.000000 1.000000
vn 0.000000 0.000000 1.000000
vn 0.000000 0.000000 1.000000
vn 0.000000 1.000000 -0.000000
vn 0.000000 1.000000 -0.000000
vn 0.000000 1.000000 0.000000
vn 0.000000 1.000000 0.000000
vn -0.004326 0.615804 0.787887
vn -0.004339 0.615610 0.788039
vn 0.004040 0.761243 0.648454
vn 0.004024 0.760917 0.648837
vn -0.000000 0.000000 1.000000
vn -0.000000 0.000000 1.000000
vn 0.000000 0.000000 1.000000
vn 0.000000 0.000000 1.000000
vn -0.007389 -0.998441 0.055329
vn -0.006883 -0.998647 0.051541
vn -0.000001 -0.996106 0.088169
vn -0.000000 -0.996106 0.088169
vn 0.000000 0.000000 1.000000
vn 0.000000 0.000000 1.000000
vn -0.000000 0.000000 1.000000
vn -0.000000 0.000000 1.000000
vn 0.000000 0.000000 1.000000
vn 0.000000 0.000000 1.000000
vn 0.000000 0.000000 1.000000
vn 0.000000 0.000000 1.000000
vn 0.000000 -1.000000 0.000000
vn 0.000000 -1.000000 0.000000
vn 0.000000 -1.000000 0.000000
vn 0.000000 -1.000000 0.000000
vn 0.000000 0.000000 -1.000000
vn 0.000000 0.000000 -1.000000
vn 0.000000 0.000000 -1.000000
vn 0.000000 0.000000 -1.000000
vn 0.000000 0.000000 -1.000000
vn 0.000000 0.000000 -1.000000
vn 0.000000 0.000000 -1.000000
vn 0.000000 0.000000 -1.000000
vn -0.004415 -0.999195 -0.039885
vn -0.004415 -0.999195 -0.039885
vn 0.000000 -0.997798 -0.066323
vn -0.000000 -0.997798 -0.066323
vn 0.000000 0.000000 -1.000000
vn 0.000000 0.000000 -1.000000
vn -0.000000 0.000000 -1.000000
vn -0.000000 0.000000 -1.000000
vn -0.003740 0.809919 -0.586530
vn -0.001111 0.796298 -0.604903
vn 0.004442 0.693083 -0.720844
vn 0.004439 0.693521 -0.720423
vn 0.000000 1.000000 0.000000
vn 0.000000 1.000000 0.000000
vn 0.000000 1.000000 0.000000
vn 0.000000 1.000000 0.000000
vn 0.000000 0.000000 -1.000000
vn 0.000000 0.000000 -1.000000
vn -0.000000 0.000000 -1.000000
vn -0.000000 0.000000 -1.000000
vn 0.000000 0.000000 -1.000000
vn 0.000000 0.000000 -1.000000
vn -0.000000 0.000000 -1.000000
vn -0.000000 0.000000 -1.000000
vn 0.000000 1.000000 -0.000000
vn 0.000000 1.000000 -0.000000
vn 0.000000 1.000000 0.000000
vn 0.000000 1.000000 -0.000000
vn 0.000000 0.000000 1.000000
vn -0.000000 0.000000 1.000000
vn -0.000000 0.000000 1.000000
vn 0.000000 0.000000 1.000000
vn 0.000000 0.000000 1.000000
vn 0.000000 0.000000 1.000000
vn 0.000000 0.000000 1.000000
vn 0.000000 0.000000 1.000000
vn 0.000000 1.000000 0.000000
vn 0.000000 1.000000 0.000000
vn 0.000000 1.000000 0.000000
vn 0.000000 1.000000 0.000000
vn 0.004024 0.760917 0.648837
vn 0.004040 0.761243 0.648454
vn 0.008894 0.851403 0.524437
vn 0.008894 0.851403 0.524437
vn 0.000000 0.000000 1.000000
vn 0.000000 0.000000 1.000000
vn 0.000000 0.000000 1.000000
vn 0.000000 0.000000 1.000000
vn -0.000000 -0.996106 0.088169
vn -0.000001 -0.996106 0.088169
vn 0.012536 -0.996046 0.087950
vn 0.012536 -0.996046 0.087950
vn -0.000000 0.000000 1.000000
vn -0.000000 0.000000 1.000000
vn -0.000000 0.000000 1.000000
vn -0.000000 0.000000 1.000000
vn 0.000000 0.000000 1.000000
vn 0.000000 0.000000 1.000000
vn 0.000000 0.000000 1.000000
vn 0.000000 0.000000 1.000000
vn 0.000000 -1.000000 0.000000
vn 0.000000 -1.000000 0.000000
vn 0.000000 -1.000000 0.000000
vn 0.000000 -1.000000 0.000000
vn 0.000000 0.000000 -1.000000
vn 0.000000 0.000000 -1.000000
vn 0.000000 0.000000 -1.000000
vn 0.000000 0.000000 -1.000000
vn 0.000000 0.000000 -1.000000
vn 0.000000 0.000000 -1.000000
vn 0.000000 0.000000 -1.000000
vn 0.000000 0.000000 -1.000000
vn -0.000000 -0.997798 -0.066323
vn 0.000000 -0.997798 -0.066323
vn 0.007761 -0.997768 -0.066321
vn 0.007761 -0.997768 -0.066321
vn -0.000000 0.000000 -1.000000
vn -0.000000 0.000000 -1.000000
vn -0.000000 0.000000 -1.000000
vn -0.000000 0.000000 -1.000000
vn 0.004439 0.693521 -0.720423
vn 0.004442 0.693083 -0.720844
vn 0.005152 0.574956 -0.818168
vn 0.005152 0.574956 -0.818168
vn -0.000000 0.000000 -1.000000
vn -0.000000 0.000000 -1.000000
vn -0.000000 0.000000 -1.000000
vn -0.000000 0.000000 -1.000000
vn -0.000000 0.000000 -1.000000
vn -0.000000 0.000000 -1.000000
vn -0.000000 0.000000 -1.000000
vn -0.000000 0.000000 -1.000000
vn 0.000000 1.000000 0.000000
vn 0.000000 1.000000 -0.000000
vn 0.000000 1.000000 -0.000000
vn 0.000000 1.000000 0.000000
vn -1.000000 0.000000 0.000000
vn -1.000000 0.000000 0.000000
vn -1.000000 0.000000 0.000000
vn -1.000000 0.000000 0.000000
vn -1.000000 0.000000 0.000000
vn -1.000000 0.000000 0.000000
vn -1.000000 0.000000 0.000000
vn -1.000000 0.000000 0.000000
vn -1.000000 0.000000 0.000000
vn -1.000000 0.000000 0.000000
s off
f 23/1/1 24/2/2 2/5/3 8/6/4
f 7/7/5 1/8/6 21/9/7 22/11/8
f 23/1/9 8/6/10 52/78/11 53/79/12
f 2/5/13 51/80/14 52/78/15 8/6/16
f 2/5/17 24/2/18 50/103/19 51/80/20
f 4/10/21 11/12/22 39/60/23
f 5/17/24 10/13/25 76/113/26 75/111/27
f 42/66/28 37/57/29 15/23/30 16/24/31
f 6/20/32 9/16/33 11/12/34 4/10/35
f 10/15/36 12/19/37 30/46/38 31/47/39
f 39/61/40 11/18/41 29/45/42 38/58/43
f 11/18/44 9/14/45 32/48/46 29/45/47
f 9/14/48 40/62/49 41/64/50 32/48/51
f 26/44/52 33/53/53 47/73/54 48/74/55
f 36/56/56 28/41/57 55/84/58 56/85/59
f 24/36/60 20/30/61 49/75/62 50/77/63
f 21/31/64 17/25/65 18/26/66 22/32/67
f 19/28/68 23/34/69 53/81/70 54/82/71
f 19/29/72 20/30/73 24/36/74 23/35/75
f 20/43/76 26/44/77 48/74/78 49/76/79
f 17/38/80 25/37/81 34/54/82
f 20/43/83 33/53/84 26/44/85
f 18/39/86 35/55/87 27/40/88
f 19/42/89 28/41/90 36/56/91
f 28/41/92 19/42/93 54/83/94 55/84/95
f 38/59/96 29/50/97 15/23/98 37/57/99
f 31/51/100 30/49/101 13/22/102 14/21/103
f 32/52/104 41/65/105 42/66/106 16/24/107
f 29/50/108 32/52/109 16/24/110 15/23/111
f 33/53/112 4/10/113 46/72/114 47/73/115
f 3/3/116 17/38/117 34/54/118
f 35/55/119 18/39/120 5/17/121
f 6/20/122 36/56/123 56/85/124 57/86/125
f 6/20/126 19/42/127 36/56/128
f 4/10/129 20/43/130 19/42/131 6/20/132
f 33/53/133 20/43/134 4/10/135
f 44/69/136 38/59/137 37/57/138 43/67/139
f 45/71/140 39/61/141 38/58/142 44/68/143
f 41/64/144 40/62/145 58/87/146 59/89/147
f 42/66/148 41/65/149 59/90/150 60/91/151
f 60/91/152 43/67/153 37/57/154 42/66/155
f 40/63/156 9/16/157 6/20/158
f 4/10/159 39/60/160 45/70/161 46/72/162
f 40/63/163 6/20/164 57/86/165 58/88/166
f 62/94/167 44/69/168 43/67/169 61/92/170
f 63/96/171 45/71/172 44/68/173 62/93/174
f 46/72/175 45/70/176 63/95/177 64/97/178
f 47/73/179 46/72/180 64/97/181 65/98/182
f 48/74/183 47/73/184 65/98/185 66/99/186
f 49/76/187 48/74/188 66/99/189 67/101/190
f 50/77/191 49/75/192 67/100/193 68/102/194
f 51/80/195 50/103/196 68/104/197 69/105/198
f 52/78/199 51/80/200 69/105/201 70/117/202
f 53/79/203 52/78/204 70/117/205 71/118/206
f 54/82/207 53/81/208 71/106/209 72/107/210
f 55/84/211 54/83/212 72/108/213 73/109/214
f 56/85/215 55/84/216 73/109/217 74/110/218
f 57/86/219 56/85/220 74/110/221 75/111/222
f 58/88/223 57/86/224 75/111/225 76/113/226
f 59/89/227 58/87/228 76/112/229 77/114/230
f 60/91/231 59/90/232 77/115/233 78/116/234
f 78/116/235 61/92/236 43/67/237 60/91/238
f 30/49/239 62/94/240 61/92/241 13/22/242
f 12/19/243 63/96/244 62/93/245 30/46/246
f 3/3/247 64/97/248 63/95/249 12/4/250
f 65/98/251 64/97/252 3/3/253 34/54/254
f 66/99/255 65/98/256 34/54/257 25/37/258
f 67/101/259 66/99/260 25/37/261 17/38/262
f 68/102/263 67/100/264 17/25/265 21/31/266
f 69/105/267 68/104/268 21/9/269 1/8/270
f 70/117/271 69/105/272 1/8/273 7/7/274
f 71/118/275 70/117/276 7/7/277 22/11/278
f 72/107/279 71/106/280 22/33/281 18/27/282
f 73/109/283 72/108/284 18/39/285 27/40/286
f 74/110/287 73/109/288 27/40/289 35/55/290
f 75/111/291 74/110/292 35/55/293 5/17/294
f 77/114/295 76/112/296 10/15/297 31/47/298
f 14/21/299 78/116/300 77/115/301 31/51/302
f 13/22/303 61/92/304 78/116/305 14/21/306
f 12/119/307 10/120/308 18/121/309 17/122/310
f 18/121/311 10/120/312 5/123/313
f 12/119/314 17/122/315 3/124/316
