# This file uses centimeters as units for non-parametric coordinates.

v -1.225365 1.207964 0.208880
v 1.225361 1.207964 0.208880
v -1.225365 1.207964 -0.205445
v 1.225361 1.207964 -0.205445
v 1.225361 0.766374 0.218308
v 1.225361 1.198535 0.218308
v -1.225365 1.198535 0.218308
v -1.225365 0.766374 0.218308
v -1.225365 1.198535 -0.218308
v 1.225361 1.198535 -0.218308
v 1.225361 0.766374 -0.218308
v -1.225365 0.766374 -0.218308
vt 0.545094 0.063642
vt 0.545094 0.063642
vt 0.545094 0.063642
vt 0.545094 0.063642
vt 0.545094 0.063642
vt 0.545094 0.063642
vt 0.545094 0.063642
vt 0.545094 0.063642
vt 0.545094 0.063642
vt 0.545094 0.063642
vt 0.545094 0.063642
vt 0.545094 0.063642
vn 0.000000 1.000000 0.000000
vn 0.000000 1.000000 0.000000
vn 0.000000 1.000000 0.000000
vn 0.000000 1.000000 0.000000
vn 0.000000 0.000000 1.000000
vn 0.000000 0.000000 1.000000
vn 0.000000 0.000000 1.000000
vn 0.000000 0.000000 1.000000
vn 0.000000 0.000000 -1.000000
vn 0.000000 0.000000 -1.000000
vn 0.000000 0.000000 -1.000000
vn 0.000000 0.000000 -1.000000
s off
f 1/1/1 2/2/2 4/3/3 3/4/4
f 8/5/5 5/6/6 6/7/7 7/8/8
f 9/9/9 10/10/10 11/11/11 12/12/12
