# This file uses centimeters as units for non-parametric coordinates.

v -0.566361 -0.173582 0.020181
v -0.030191 -0.173582 0.020181
v -0.030191 -0.017462 0.020181
v -0.566361 -0.017462 0.020181
v -0.596552 -0.191045 0.000000
v -0.000001 -0.191045 0.000000
v -0.000001 0.000000 0.000000
v -0.596552 0.000000 0.000000
v -0.596552 -0.191045 -0.018107
v -0.000001 -0.191045 -0.018107
v -0.596552 0.000000 -0.018107
v -0.000001 0.000000 -0.018107
v -0.481482 -0.154193 -0.018107
v -0.115071 -0.154193 -0.018107
v -0.481482 -0.036851 -0.018107
v -0.115071 -0.036851 -0.018107
v -0.473318 -0.151579 -0.038284
v -0.123235 -0.151579 -0.038284
v -0.473318 -0.039466 -0.038284
v -0.123235 -0.039466 -0.038284
vt 0.103250 0.276198
vt 0.103250 0.276198
vt 0.103250 0.276198
vt 0.103250 0.276198
vt 0.103250 0.276198
vt 0.103250 0.276198
vt 0.103250 0.276198
vt 0.103250 0.276198
vt 0.103250 0.276198
vt 0.103250 0.276198
vt 0.103250 0.276198
vt 0.103250 0.276198
vt 0.103250 0.276198
vt 0.103250 0.276198
vt 0.103250 0.276198
vt 0.103250 0.276198
vt 0.001901 0.590003
vt 0.179222 0.590003
vt 0.179222 0.632996
vt 0.001901 0.632996
vt 0.103250 0.276198
vt 0.103250 0.276198
vt 0.103250 0.276198
vt 0.103250 0.276198
vt 0.103250 0.276198
vt 0.103250 0.276198
vt 0.103250 0.276198
vt 0.103250 0.276198
vt 0.103250 0.276198
vt 0.103250 0.276198
vt 0.103250 0.276198
vt 0.103250 0.276198
vn 0.000000 -0.756198 0.654343
vn 0.000000 -0.756198 0.654343
vn 0.000000 -0.756198 0.654343
vn 0.000000 -0.756198 0.654343
vn 0.555724 0.000000 0.831367
vn 0.555724 0.000000 0.831367
vn 0.555724 0.000000 0.831367
vn 0.555724 0.000000 0.831367
vn 0.000000 0.756202 0.654338
vn 0.000000 0.756202 0.654338
vn 0.000000 0.756202 0.654338
vn 0.000000 0.756202 0.654338
vn -0.555724 0.000000 0.831367
vn -0.555724 0.000000 0.831367
vn -0.555724 0.000000 0.831367
vn -0.555724 0.000000 0.831367
vn 0.000000 0.000000 1.000000
vn 0.000000 0.000000 1.000000
vn 0.000000 0.000000 1.000000
vn 0.000000 0.000000 1.000000
vn 0.000000 0.000000 -1.000000
vn 0.000000 0.000000 -1.000000
vn 0.000000 0.000000 -1.000000
vn 0.000000 0.000000 -1.000000
vn 0.000000 -1.000000 0.000000
vn 0.000000 -1.000000 0.000000
vn 0.000000 -1.000000 0.000000
vn 0.000000 -1.000000 0.000000
vn -1.000000 0.000000 0.000000
vn -1.000000 0.000000 0.000000
vn -1.000000 0.000000 0.000000
vn -1.000000 0.000000 0.000000
vn 0.000000 1.000000 0.000000
vn 0.000000 1.000000 0.000000
vn 0.000000 1.000000 0.000000
vn 0.000000 1.000000 0.000000
vn 1.000000 0.000000 0.000000
vn 1.000000 0.000000 0.000000
vn 1.000000 0.000000 0.000000
vn 1.000000 0.000000 0.000000
vn 0.000000 0.000000 -1.000000
vn -0.000000 0.000000 -1.000000
vn -0.000000 0.000000 -1.000000
vn 0.000000 0.000000 -1.000000
vn -0.000000 0.000000 -1.000000
vn -0.000000 0.000000 -1.000000
vn -0.000000 0.000000 -1.000000
vn -0.000000 0.000000 -1.000000
vn -0.000000 0.000000 -1.000000
vn 0.000000 0.000000 -1.000000
vn 0.000000 0.000000 -1.000000
vn -0.000000 0.000000 -1.000000
vn 0.000000 0.000000 -1.000000
vn 0.000000 0.000000 -1.000000
vn 0.000000 0.000000 -1.000000
vn 0.000000 0.000000 -1.000000
vn 0.000000 -0.991709 -0.128504
vn 0.000000 -0.991709 -0.128504
vn 0.000000 -0.991709 -0.128504
vn 0.000000 -0.991709 -0.128504
vn -0.927001 0.000000 -0.375059
vn -0.927001 0.000000 -0.375059
vn -0.927001 0.000000 -0.375059
vn -0.927001 0.000000 -0.375059
vn 0.000000 0.991709 -0.128504
vn 0.000000 0.991709 -0.128504
vn 0.000000 0.991709 -0.128504
vn 0.000000 0.991709 -0.128504
vn 0.927001 0.000000 -0.375059
vn 0.927001 0.000000 -0.375059
vn 0.927001 0.000000 -0.375059
vn 0.927001 0.000000 -0.375059
s off
f 5/1/1 6/2/2 2/3/3 1/4/4
f 6/5/5 7/6/6 3/7/7 2/8/8
f 7/9/9 8/10/10 4/11/11 3/12/12
f 8/13/13 5/14/14 1/15/15 4/16/16
f 1/17/17 2/18/18 3/19/19 4/20/20
f 18/21/21 17/22/22 19/23/23 20/24/24
f 6/2/25 5/14/26 9/25/27 10/26/28
f 5/14/29 8/10/30 11/27/31 9/25/32
f 8/10/33 7/6/34 12/28/35 11/27/36
f 7/6/37 6/2/38 10/26/39 12/28/40
f 10/26/41 9/25/42 13/29/43 14/30/44
f 9/25/45 11/27/46 15/31/47 13/29/48
f 11/27/49 12/28/50 16/32/51 15/31/52
f 12/28/53 10/26/54 14/30/55 16/32/56
f 14/30/57 13/29/58 17/22/59 18/21/60
f 13/29/61 15/31/62 19/23/63 17/22/64
f 15/31/65 16/32/66 20/24/67 19/23/68
f 16/32/69 14/30/70 18/21/71 20/24/72
