# This file uses centimeters as units for non-parametric coordinates.

v -1.440949 0.794068 0.545314
v 1.440949 0.794068 0.545314
v -1.440949 0.794068 -0.545314
v 1.440949 0.794068 -0.545314
v -1.440949 0.600939 0.545314
v 1.440949 0.600939 0.545314
v 1.440949 0.600939 -0.545314
v -1.440949 0.600939 -0.545314
v -0.759408 0.000000 -0.373989
v 0.759408 0.000000 -0.373989
v 0.759408 0.000000 0.373989
v -0.759408 0.000000 0.373989
v 0.620018 0.600939 0.305343
v -0.620018 0.600939 0.305343
v 0.620018 0.600939 -0.305343
v -0.620018 0.600939 -0.305343
v -0.759408 0.147281 -0.373989
v -0.759408 0.147281 0.373989
v 0.759408 0.147281 0.373989
v 0.759408 0.147281 -0.373989
v 0.668439 0.147281 0.329189
v -0.668439 0.147281 0.329189
v -0.668439 0.147281 -0.329189
v 0.668439 0.147281 -0.329189
v 1.440949 0.671390 -0.545314
v 1.440949 0.671390 0.545314
v -1.440949 0.671390 0.545314
v -1.440949 0.671390 -0.545314
v 1.440949 0.729139 -0.545314
v 1.440949 0.729139 0.545314
v -1.440949 0.729139 0.545314
v -1.440949 0.729139 -0.545314
v 1.426216 0.682285 -0.521160
v 1.426216 0.682285 0.521160
v 1.426216 0.718243 -0.521160
v 1.426216 0.718243 0.521160
v -1.426216 0.682285 0.521160
v -1.426216 0.718243 0.521160
v -1.426216 0.682285 -0.521160
v -1.426216 0.718243 -0.521160
v 0.620018 0.214259 0.305343
v -0.620018 0.214259 0.305343
v -0.620018 0.214259 -0.305343
v 0.620018 0.214259 -0.305343
v -0.668439 0.200583 -0.329189
v -0.668439 0.200583 0.329189
v 0.668439 0.200583 0.329189
v 0.668439 0.200583 -0.329189
v -1.328175 0.794068 0.455968
v 1.328175 0.794068 0.455968
v 1.328175 0.794068 -0.455968
v -1.328175 0.794068 -0.455968
v -1.300094 0.770878 0.425148
v 1.300094 0.770878 0.425148
v 1.300094 0.770878 -0.425148
v -1.300094 0.770878 -0.425148
vt 0.081280 0.331324
vt 0.081280 0.331324
vt 0.081280 0.331324
vt 0.081280 0.331324
vt 0.081280 0.331324
vt 0.081280 0.331324
vt 0.081280 0.331324
vt 0.081280 0.331324
vt 0.081280 0.331323
vt 0.081280 0.331323
vt 0.081280 0.331324
vt 0.081280 0.331324
vt 0.081280 0.331324
vt 0.081280 0.331324
vt 0.081280 0.331323
vt 0.081280 0.331323
vt 0.081280 0.331324
vt 0.081280 0.331323
vt 0.081280 0.331323
vt 0.081280 0.331324
vt 0.081280 0.331323
vt 0.081280 0.331323
vt 0.081280 0.331323
vt 0.081280 0.331324
vt 0.081280 0.331324
vt 0.081280 0.331323
vt 0.081280 0.331323
vt 0.081280 0.331324
vt 0.081280 0.331323
vt 0.081280 0.331323
vt 0.081280 0.331324
vt 0.081280 0.331323
vt 0.081280 0.331323
vt 0.081280 0.331323
vt 0.081280 0.331323
vt 0.081280 0.331324
vt 0.081280 0.331324
vt 0.081280 0.331323
vt 0.081280 0.331324
vt 0.081280 0.331323
vt 0.081280 0.331323
vt 0.081280 0.331323
vt 0.081280 0.331323
vt 0.081280 0.331324
vt 0.081280 0.331324
vt 0.081280 0.331324
vt 0.081280 0.331324
vt 0.081280 0.331324
vt 0.081280 0.331324
vt 0.081280 0.331324
vt 0.081280 0.331323
vt 0.081280 0.331323
vt 0.081280 0.331324
vt 0.081280 0.331324
vt 0.081280 0.331323
vt 0.081280 0.331324
vt 0.081280 0.331323
vt 0.081280 0.331324
vt 0.081280 0.331324
vt 0.081280 0.331324
vt 0.081280 0.331324
vt 0.081280 0.331324
vt 0.081280 0.331323
vt 0.081280 0.331323
vt 0.081280 0.331323
vt 0.081280 0.331323
vt 0.081280 0.331323
vt 0.081280 0.331323
vt 0.050213 0.211834
vt 0.050213 0.211834
vt 0.050213 0.211834
vt 0.050213 0.211834
vt 0.050213 0.211834
vt 0.050213 0.211834
vt 0.050213 0.211834
vt 0.050213 0.211834
vt 0.050213 0.211834
vt 0.050213 0.211834
vt 0.050213 0.211834
vt 0.050213 0.211834
vt 0.050213 0.211834
vt 0.050213 0.211834
vt 0.050213 0.211834
vt 0.050213 0.211834
vt 0.050213 0.211834
vt 0.050213 0.211834
vt 0.050213 0.211834
vt 0.050213 0.211834
vt 0.081280 0.331324
vt 0.081280 0.331324
vt 0.081280 0.331324
vt 0.081280 0.331324
vt 0.081280 0.331324
vt 0.081280 0.331324
vt 0.081280 0.331324
vt 0.081280 0.331324
vn 0.000000 0.000000 1.000000
vn 0.000000 0.000000 1.000000
vn 0.000000 0.000000 1.000000
vn 0.000000 0.000000 1.000000
vn 0.000000 1.000000 0.000000
vn 0.000000 1.000000 0.000000
vn 0.000000 1.000000 0.000000
vn 0.000000 1.000000 0.000000
vn 0.000000 0.000000 -1.000000
vn 0.000000 0.000000 -1.000000
vn 0.000000 0.000000 -1.000000
vn 0.000000 0.000000 -1.000000
vn 0.000000 -1.000000 0.000000
vn 0.000000 -1.000000 0.000000
vn 0.000000 -1.000000 0.000000
vn 0.000000 -1.000000 0.000000
vn 1.000000 0.000000 0.000000
vn 1.000000 0.000000 0.000000
vn 1.000000 0.000000 0.000000
vn 1.000000 0.000000 0.000000
vn -1.000000 0.000000 0.000000
vn -1.000000 0.000000 0.000000
vn -1.000000 0.000000 0.000000
vn -1.000000 0.000000 0.000000
vn 0.000000 1.000000 0.000001
vn 0.000000 1.000000 0.000001
vn 0.000000 1.000000 0.000001
vn 0.000000 1.000000 0.000001
vn 0.000000 1.000000 -0.000000
vn 0.000000 1.000000 -0.000000
vn 0.000000 1.000000 -0.000000
vn 0.000000 1.000000 -0.000000
vn 0.000000 1.000000 0.000001
vn 0.000000 1.000000 0.000001
vn 0.000000 1.000000 0.000001
vn 0.000000 1.000000 0.000001
vn 0.000000 1.000000 -0.000000
vn 0.000000 1.000000 -0.000000
vn 0.000000 1.000000 -0.000000
vn 0.000000 1.000000 -0.000000
vn 0.000000 -1.000000 0.000000
vn 0.000000 -1.000000 0.000000
vn 0.000000 -1.000000 0.000000
vn 0.000000 -1.000000 0.000000
vn 0.000000 -1.000000 0.000000
vn 0.000000 -1.000000 0.000000
vn 0.000000 -1.000000 0.000000
vn 0.000000 -1.000000 0.000000
vn 0.000000 -1.000000 0.000000
vn 0.000000 -1.000000 0.000000
vn 0.000000 -1.000000 0.000000
vn 0.000000 -1.000000 0.000000
vn 0.000000 -1.000000 0.000000
vn 0.000000 -1.000000 0.000000
vn 0.000000 -1.000000 0.000000
vn 0.000000 -1.000000 0.000000
vn -1.000000 0.000000 0.000000
vn -1.000000 0.000000 0.000000
vn -1.000000 0.000000 0.000000
vn -1.000000 0.000000 0.000000
vn 0.000000 0.000000 1.000000
vn 0.000000 0.000000 1.000000
vn 0.000000 0.000000 1.000000
vn 0.000000 0.000000 1.000000
vn 1.000000 0.000000 0.000000
vn 1.000000 0.000000 0.000000
vn 1.000000 0.000000 0.000000
vn 1.000000 0.000000 0.000000
vn 0.000000 0.000000 -1.000000
vn 0.000000 0.000000 -1.000000
vn 0.000000 0.000000 -1.000000
vn 0.000000 0.000000 -1.000000
vn 0.000000 0.867463 0.497502
vn 0.000000 0.867463 0.497502
vn 0.000000 0.867463 0.497502
vn 0.000000 0.867463 0.497502
vn -0.271808 0.962351 -0.000000
vn -0.271808 0.962351 -0.000000
vn -0.271808 0.962352 -0.000000
vn -0.271808 0.962352 -0.000000
vn 0.000000 0.867463 -0.497501
vn 0.000000 0.867463 -0.497501
vn 0.000000 0.867463 -0.497501
vn 0.000000 0.867463 -0.497501
vn 0.271808 0.962351 -0.000000
vn 0.271808 0.962351 -0.000000
vn 0.271808 0.962352 -0.000000
vn 0.271808 0.962352 -0.000000
vn 1.000000 0.000000 0.000000
vn 1.000000 0.000000 0.000000
vn 1.000000 0.000000 0.000000
vn 1.000000 0.000000 0.000000
vn 0.000000 0.000000 1.000000
vn 0.000000 0.000000 1.000000
vn 0.000000 0.000000 1.000000
vn 0.000000 0.000000 1.000000
vn -1.000000 0.000000 0.000000
vn -1.000000 0.000000 0.000000
vn -1.000000 0.000000 0.000000
vn -1.000000 0.000000 0.000000
vn 0.000000 0.000000 -1.000000
vn 0.000000 0.000000 -1.000000
vn 0.000000 0.000000 -1.000000
vn 0.000000 0.000000 -1.000000
vn 1.000000 0.000000 0.000000
vn 1.000000 0.000000 0.000000
vn 1.000000 0.000000 0.000000
vn 1.000000 0.000000 0.000000
vn 0.000000 0.000000 1.000000
vn 0.000000 0.000000 1.000000
vn 0.000000 0.000000 1.000000
vn 0.000000 0.000000 1.000000
vn -1.000000 0.000000 0.000000
vn -1.000000 0.000000 0.000000
vn -1.000000 0.000000 0.000000
vn -1.000000 0.000000 0.000000
vn 0.000000 0.000000 -1.000000
vn 0.000000 0.000000 -1.000000
vn 0.000000 0.000000 -1.000000
vn 0.000000 0.000000 -1.000000
vn 0.594589 0.804030 0.000000
vn 0.594589 0.804030 0.000000
vn 0.594589 0.804030 0.000000
vn 0.594589 0.804030 0.000000
vn 0.594589 -0.804030 0.000000
vn 0.594589 -0.804030 0.000000
vn 0.594589 -0.804030 0.000000
vn 0.594589 -0.804030 0.000000
vn 0.000000 0.911552 0.411185
vn 0.000000 0.911552 0.411185
vn 0.000000 0.911552 0.411185
vn 0.000000 0.911552 0.411185
vn 0.000000 -0.911552 0.411185
vn 0.000000 -0.911552 0.411185
vn 0.000000 -0.911552 0.411185
vn 0.000000 -0.911552 0.411185
vn -0.594589 0.804030 0.000000
vn -0.594589 0.804030 0.000000
vn -0.594589 0.804030 0.000000
vn -0.594589 0.804030 0.000000
vn -0.594589 -0.804030 0.000000
vn -0.594589 -0.804030 0.000000
vn -0.594589 -0.804030 0.000000
vn -0.594589 -0.804030 0.000000
vn 0.000000 -0.911552 -0.411185
vn 0.000000 -0.911552 -0.411185
vn 0.000000 -0.911552 -0.411185
vn 0.000000 -0.911552 -0.411185
vn 0.000000 0.911552 -0.411185
vn 0.000000 0.911552 -0.411185
vn 0.000000 0.911552 -0.411185
vn 0.000000 0.911552 -0.411185
vn 0.000000 0.000000 1.000000
vn 0.000000 0.000000 1.000000
vn 0.000000 0.000000 1.000000
vn 0.000000 0.000000 1.000000
vn -1.000000 0.000000 0.000000
vn -1.000000 0.000000 0.000000
vn -1.000000 0.000000 0.000000
vn -1.000000 0.000000 0.000000
vn 0.000000 0.000000 -1.000000
vn 0.000000 0.000000 -1.000000
vn 0.000000 0.000000 -1.000000
vn 0.000000 0.000000 -1.000000
vn 1.000000 0.000000 0.000000
vn 1.000000 0.000000 0.000000
vn 1.000000 0.000000 0.000000
vn 1.000000 0.000000 0.000000
vn -1.000000 0.000000 0.000000
vn -1.000000 0.000000 0.000000
vn -1.000000 0.000000 0.000000
vn -1.000000 0.000000 0.000000
vn 0.000000 0.000000 1.000000
vn 0.000000 0.000000 1.000000
vn 0.000000 0.000000 1.000000
vn 0.000000 0.000000 1.000000
vn 1.000000 0.000000 0.000000
vn 1.000000 0.000000 0.000000
vn 1.000000 0.000000 0.000000
vn 1.000000 0.000000 0.000000
vn 0.000000 0.000000 -1.000000
vn 0.000000 0.000000 -1.000000
vn 0.000000 0.000000 -1.000000
vn 0.000000 0.000000 -1.000000
vn 0.000000 1.000000 -0.000001
vn 0.000000 1.000000 -0.000001
vn 0.000000 1.000000 -0.000001
vn 0.000000 1.000000 -0.000001
vn 0.000000 1.000000 0.000000
vn 0.000000 1.000000 0.000000
vn 0.000000 1.000000 0.000000
vn 0.000000 1.000000 0.000000
vn 0.000000 1.000000 0.000001
vn 0.000000 1.000000 0.000001
vn 0.000000 1.000000 0.000001
vn 0.000000 1.000000 0.000001
vn 0.000000 1.000000 0.000000
vn 0.000000 1.000000 0.000000
vn 0.000000 1.000000 0.000000
vn 0.000000 1.000000 0.000000
vn 0.000000 0.799054 -0.601259
vn 0.000000 0.799054 -0.601259
vn 0.000000 0.799054 -0.601259
vn 0.000000 0.799054 -0.601259
vn -0.636770 0.771054 0.000000
vn -0.636770 0.771054 0.000000
vn -0.636770 0.771053 0.000000
vn -0.636770 0.771053 0.000000
vn 0.000000 0.799054 0.601259
vn 0.000000 0.799054 0.601259
vn 0.000000 0.799054 0.601259
vn 0.000000 0.799054 0.601259
vn 0.636770 0.771054 0.000000
vn 0.636770 0.771054 0.000000
vn 0.636770 0.771053 0.000000
vn 0.636770 0.771053 0.000000
s off
f 5/15/1 6/16/2 26/41/3 27/42/4
f 53/93/5 54/94/6 55/95/7 56/96/8
f 28/44/9 25/39/10 7/17/11 8/20/12
f 9/7/13 10/8/14 11/10/15 12/9/16
f 6/16/17 7/18/18 25/40/19 26/41/20
f 8/19/21 5/15/22 27/42/23 28/43/24
f 18/29/25 19/30/26 21/33/27 22/34/28
f 19/30/29 20/32/30 24/38/31 21/33/32
f 23/36/33 24/37/34 20/31/35 17/28/36
f 17/27/37 18/29/38 22/34/39 23/35/40
f 6/16/41 5/15/42 14/22/43 13/21/44
f 7/18/45 6/16/46 13/21/47 15/23/48
f 8/20/49 7/17/50 15/25/51 16/24/52
f 5/15/53 8/19/54 16/26/55 14/22/56
f 9/13/57 12/1/58 18/29/59 17/27/60
f 12/1/61 11/2/62 19/30/63 18/29/64
f 11/2/65 10/11/66 20/32/67 19/30/68
f 17/28/69 20/31/70 10/8/71 9/7/72
f 46/69/73 47/70/74 41/71/75 42/72/76
f 45/73/77 46/69/78 42/72/79 43/74/80
f 43/74/81 44/75/82 48/76/83 45/73/84
f 47/70/85 48/76/86 44/75/87 41/71/88
f 34/77/89 33/78/90 35/79/91 36/80/92
f 37/81/93 34/77/94 36/80/95 38/82/96
f 39/83/97 37/81/98 38/82/99 40/84/100
f 40/84/101 35/79/102 33/78/103 39/83/104
f 30/47/105 29/46/106 4/12/107 2/4/108
f 31/48/109 30/47/110 2/4/111 1/3/112
f 32/49/113 31/48/114 1/3/115 3/14/116
f 3/5/117 4/6/118 29/45/119 32/50/120
f 26/41/121 25/40/122 33/52/123 34/51/124
f 29/46/125 30/47/126 36/54/127 35/53/128
f 27/42/129 26/41/130 34/51/131 37/55/132
f 30/47/133 31/48/134 38/56/135 36/54/136
f 28/43/137 27/42/138 37/55/139 39/57/140
f 31/48/141 32/49/142 40/58/143 38/56/144
f 32/50/145 29/45/146 35/60/147 40/59/148
f 25/39/149 28/44/150 39/62/151 33/61/152
f 42/64/153 41/63/154 13/21/155 14/22/156
f 43/65/157 42/64/158 14/22/159 16/26/160
f 16/24/161 15/25/162 44/67/163 43/66/164
f 41/63/165 44/68/166 15/23/167 13/21/168
f 23/85/169 22/86/170 46/69/171 45/73/172
f 22/86/173 21/87/174 47/70/175 46/69/176
f 21/87/177 24/88/178 48/76/179 47/70/180
f 45/73/181 48/76/182 24/88/183 23/85/184
f 1/3/185 2/4/186 50/90/187 49/89/188
f 2/4/189 4/6/190 51/91/191 50/90/192
f 4/6/193 3/5/194 52/92/195 51/91/196
f 3/5/197 1/3/198 49/89/199 52/92/200
f 49/89/201 50/90/202 54/94/203 53/93/204
f 50/90/205 51/91/206 55/95/207 54/94/208
f 51/91/209 52/92/210 56/96/211 55/95/212
f 52/92/213 49/89/214 53/93/215 56/96/216
