# This file uses centimeters as units for non-parametric coordinates.

v 0.131744 0.000000 -0.079220
v 0.075470 0.000000 -0.135494
v -0.001404 0.000000 -0.156092
v -0.078278 0.000000 -0.135494
v -0.134552 0.000000 -0.079220
v -0.155151 0.000000 -0.002348
v -0.134552 0.000000 0.074524
v -0.078278 0.000000 0.130798
v -0.001404 0.000000 0.151398
v 0.075470 0.000000 0.130798
v 0.131744 0.000000 0.074524
v 0.152344 0.000000 -0.002348
v 0.185791 0.432283 -0.110418
v 0.103119 0.425126 -0.202549
v -0.001404 0.432283 -0.218489
v -0.109467 0.432283 -0.189531
v -0.195374 0.422967 -0.111818
v -0.217560 0.432283 -0.002348
v -0.206848 0.419330 0.103512
v -0.109467 0.432283 0.184837
v 0.015198 0.424809 0.213169
v 0.112671 0.423926 0.189724
v 0.185791 0.432283 0.105724
v 0.225342 0.426464 -0.006954
v -0.001404 0.000000 -0.002348
v 0.100494 0.346853 0.174156
v 0.177948 0.369760 0.101212
v 0.206024 0.371896 -0.002348
v 0.177216 0.363831 -0.105478
v 0.103149 0.383440 -0.183426
v -0.001404 0.369283 -0.209396
v -0.105347 0.375100 -0.182383
v -0.181824 0.378112 -0.106508
v -0.207031 0.359516 -0.002348
v -0.181915 0.378806 0.101864
v -0.106171 0.386273 0.179085
v -0.001404 0.377172 0.205837
v 0.110016 0.388961 0.190697
v 0.008698 0.409396 0.230011
v -0.114410 0.409886 0.193314
v -0.202026 0.390938 0.108891
v -0.225342 0.395682 -0.002365
v -0.196564 0.405554 -0.115026
v -0.113983 0.403955 -0.197300
v -0.001404 0.390387 -0.230013
v 0.111420 0.408382 -0.197855
v 0.192749 0.397973 -0.114479
v 0.223419 0.402254 -0.002365
v 0.193146 0.401120 0.109978
v 0.173767 0.440567 -0.103483
v 0.099731 0.440567 -0.177519
v -0.001404 0.440567 -0.204618
v -0.102539 0.444959 -0.177519
v -0.176575 0.440567 -0.103483
v -0.203674 0.440567 -0.002348
v -0.176575 0.444959 0.098789
v -0.102539 0.440567 0.172825
v -0.001404 0.440567 0.199924
v 0.099731 0.440567 0.172825
v 0.173767 0.440567 0.098789
v 0.200867 0.444959 -0.002348
v 0.107910 0.064035 -0.065458
v 0.061707 0.064035 -0.111658
v -0.001404 0.064035 -0.002348
v -0.001404 0.064035 -0.128569
v -0.064514 0.064035 -0.111658
v -0.110718 0.064035 -0.065458
v -0.127625 0.064035 -0.002348
v -0.110718 0.064035 0.060762
v -0.064514 0.064035 0.106964
v -0.001404 0.064035 0.123875
v 0.061707 0.064035 0.106964
v 0.107910 0.064035 0.060762
v 0.124817 0.064035 -0.002348
vt 0.112650 0.274468
vt 0.112650 0.274468
vt 0.112650 0.274468
vt 0.112650 0.274468
vt 0.112650 0.274468
vt 0.112650 0.274468
vt 0.112650 0.274468
vt 0.112650 0.274468
vt 0.112650 0.274468
vt 0.112650 0.274468
vt 0.112650 0.274468
vt 0.112650 0.274468
vt 0.112650 0.274468
vt 0.112650 0.274468
vt 0.112650 0.274468
vt 0.112650 0.274468
vt 0.112650 0.274468
vt 0.112650 0.274468
vt 0.112650 0.274468
vt 0.112650 0.274468
vt 0.112650 0.274468
vt 0.112650 0.274468
vt 0.112650 0.274468
vt 0.112650 0.274468
vt 0.112650 0.274468
vt 0.365601 0.009929
vt 0.365601 0.009929
vt 0.365601 0.009929
vt 0.365601 0.009929
vt 0.365601 0.009929
vt 0.365601 0.009929
vt 0.365601 0.009929
vt 0.365601 0.009929
vt 0.365601 0.009929
vt 0.365601 0.009929
vt 0.365601 0.009929
vt 0.365601 0.009929
vt 0.365601 0.009929
vt 0.365601 0.009929
vt 0.365601 0.009929
vt 0.365601 0.009929
vt 0.365601 0.009929
vt 0.365601 0.009929
vt 0.365601 0.009929
vt 0.365601 0.009929
vt 0.365601 0.009929
vt 0.365601 0.009929
vt 0.365601 0.009929
vt 0.365601 0.009929
vt 0.365601 0.009929
vt 0.112650 0.274468
vt 0.365601 0.009929
vt 0.112650 0.274468
vt 0.112650 0.274468
vt 0.112650 0.274468
vt 0.112650 0.274468
vt 0.112650 0.274468
vt 0.112650 0.274468
vt 0.112650 0.274468
vt 0.112650 0.274468
vt 0.112650 0.274468
vt 0.112650 0.274468
vt 0.112650 0.274468
vt 0.112650 0.274468
vt 0.112650 0.274468
vt 0.365601 0.009929
vt 0.365601 0.009929
vt 0.365601 0.009929
vt 0.365601 0.009929
vt 0.365601 0.009929
vt 0.365601 0.009929
vt 0.365601 0.009929
vt 0.365601 0.009929
vt 0.365601 0.009929
vt 0.365601 0.009929
vt 0.365601 0.009929
vt 0.365601 0.009929
vt 0.365601 0.009929
vt 0.365601 0.009929
vt 0.365601 0.009929
vt 0.365601 0.009929
vt 0.365601 0.009929
vt 0.365601 0.009929
vt 0.365601 0.009929
vt 0.365601 0.009929
vt 0.365601 0.009929
vt 0.365601 0.009929
vt 0.365601 0.009929
vt 0.365601 0.009929
vt 0.365601 0.009929
vt 0.365601 0.009929
vt 0.365601 0.009929
vt 0.365601 0.009929
vt 0.365601 0.009929
vt 0.365601 0.009929
vt 0.365601 0.009929
vt 0.365601 0.009929
vt 0.365601 0.009929
vt 0.365601 0.009929
vt 0.365601 0.009929
vn 0.693792 -0.169830 -0.699864
vn 0.690212 -0.185705 -0.699372
vn 0.702693 -0.101626 -0.704198
vn 0.682909 -0.202433 -0.701895
vn 0.263219 -0.192016 -0.945434
vn 0.261730 -0.179851 -0.948236
vn 0.271434 -0.275606 -0.922153
vn 0.270879 -0.270166 -0.923924
vn -0.259768 -0.183475 -0.948081
vn -0.260060 -0.187705 -0.947173
vn -0.279070 -0.091677 -0.955885
vn -0.281209 -0.145659 -0.948528
vn -0.696615 -0.175962 -0.695532
vn -0.696339 -0.178421 -0.695182
vn -0.694704 -0.164629 -0.700203
vn -0.691797 -0.192334 -0.696006
vn -0.947581 -0.185415 -0.260213
vn -0.950731 -0.170354 -0.259017
vn -0.940803 -0.212916 -0.263737
vn -0.947127 -0.185429 -0.261853
vn -0.950098 -0.179290 0.255281
vn -0.946917 -0.196074 0.254763
vn -0.925860 -0.320767 0.199730
vn -0.938585 -0.283364 0.196884
vn -0.689061 -0.189458 0.699501
vn -0.688835 -0.190397 0.699468
vn -0.651437 -0.195330 0.733127
vn -0.654554 -0.178417 0.734661
vn -0.257687 -0.188538 0.947655
vn -0.257633 -0.185918 0.948188
vn -0.262326 0.044115 0.963970
vn -0.266757 -0.059577 0.961921
vn 0.244772 -0.199876 0.948755
vn 0.249473 -0.175512 0.952344
vn 0.235639 -0.264452 0.935168
vn 0.232815 -0.276496 0.932388
vn 0.700469 -0.168934 0.693401
vn 0.700205 -0.187263 0.688946
vn 0.720207 -0.171919 0.672120
vn 0.716252 -0.212058 0.664841
vn 0.950939 -0.176167 0.254324
vn 0.950642 -0.177912 0.254218
vn 0.947023 -0.172296 0.271037
vn 0.941848 -0.203376 0.267508
vn 0.950670 -0.180444 -0.252321
vn 0.951705 -0.173952 -0.252979
vn 0.935944 -0.232148 -0.264796
vn 0.936867 -0.227342 -0.265699
vn 0.000000 -1.000000 0.000000
vn 0.000000 -1.000000 0.000000
vn 0.000000 -1.000000 0.000000
vn 0.000000 -1.000000 0.000000
vn 0.000000 -1.000000 0.000000
vn 0.000000 -1.000000 0.000000
vn 0.000000 -1.000000 0.000000
vn 0.000000 -1.000000 0.000000
vn 0.000000 -1.000000 0.000000
vn 0.000000 -1.000000 0.000000
vn 0.000000 -1.000000 0.000000
vn 0.000000 -1.000000 0.000000
vn 0.000000 -1.000000 0.000000
vn 0.000000 -1.000000 0.000000
vn 0.000000 -1.000000 0.000000
vn 0.000000 -1.000000 0.000000
vn 0.000000 -1.000000 0.000000
vn 0.000000 -1.000000 0.000000
vn 0.000000 -1.000000 0.000000
vn 0.000000 -1.000000 0.000000
vn 0.000000 -1.000000 0.000000
vn 0.000000 -1.000000 0.000000
vn 0.000000 -1.000000 0.000000
vn 0.000000 -1.000000 0.000000
vn 0.000000 -1.000000 0.000000
vn 0.000000 -1.000000 0.000000
vn 0.000000 -1.000000 0.000000
vn 0.000000 -1.000000 0.000000
vn 0.000000 -1.000000 0.000000
vn 0.000000 -1.000000 0.000000
vn 0.000000 -1.000000 0.000000
vn 0.000000 -1.000000 0.000000
vn 0.000000 -1.000000 0.000000
vn 0.000000 -1.000000 0.000000
vn 0.000000 -1.000000 0.000000
vn 0.000000 -1.000000 0.000000
vn 0.000000 1.000000 0.000000
vn 0.000000 1.000000 -0.000000
vn 0.000000 1.000000 0.000000
vn 0.000000 1.000000 -0.000000
vn 0.000000 1.000000 0.000000
vn 0.000000 1.000000 0.000000
vn 0.000000 1.000000 0.000000
vn 0.000000 1.000000 -0.000000
vn 0.000000 1.000000 0.000000
vn 0.000000 1.000000 -0.000000
vn 0.000000 1.000000 0.000000
vn 0.000000 1.000000 0.000000
vn 0.000000 1.000000 0.000000
vn 0.000000 1.000000 -0.000000
vn 0.000000 1.000000 0.000000
vn 0.000000 1.000000 -0.000000
vn 0.000000 1.000000 -0.000000
vn 0.000000 1.000000 0.000000
vn 0.000000 1.000000 -0.000000
vn 0.000000 1.000000 0.000000
vn 0.000000 1.000000 0.000000
vn 0.000000 1.000000 0.000000
vn 0.000000 1.000000 0.000000
vn 0.000000 1.000000 0.000000
vn 0.000000 1.000000 0.000000
vn 0.000000 1.000000 0.000000
vn 0.000000 1.000000 0.000000
vn 0.000000 1.000000 0.000000
vn 0.000000 1.000000 0.000000
vn 0.000000 1.000000 0.000000
vn 0.000000 1.000000 0.000000
vn 0.000000 1.000000 0.000000
vn 0.000000 1.000000 0.000000
vn 0.000000 1.000000 0.000000
vn 0.000000 1.000000 0.000000
vn 0.000000 1.000000 0.000000
vn 0.700353 -0.138065 0.700317
vn 0.700353 -0.138065 0.700317
vn 0.700205 -0.187263 0.688946
vn 0.700469 -0.168934 0.693401
vn 0.956648 -0.138066 0.256443
vn 0.956648 -0.138066 0.256443
vn 0.950642 -0.177912 0.254218
vn 0.950939 -0.176167 0.254324
vn 0.956657 -0.138077 -0.256402
vn 0.956657 -0.138077 -0.256402
vn 0.951705 -0.173952 -0.252979
vn 0.950670 -0.180444 -0.252321
vn 0.700373 -0.138086 -0.700293
vn 0.700373 -0.138086 -0.700293
vn 0.690212 -0.185705 -0.699372
vn 0.693792 -0.169830 -0.699864
vn 0.256331 -0.138092 -0.956674
vn 0.256331 -0.138092 -0.956674
vn 0.261730 -0.179851 -0.948236
vn 0.263219 -0.192016 -0.945434
vn -0.256346 -0.138089 -0.956670
vn -0.256346 -0.138089 -0.956671
vn -0.260060 -0.187705 -0.947173
vn -0.259768 -0.183475 -0.948081
vn -0.700309 -0.138091 -0.700356
vn -0.700309 -0.138091 -0.700356
vn -0.696339 -0.178421 -0.695182
vn -0.696615 -0.175962 -0.695532
vn -0.956696 -0.138079 -0.256258
vn -0.956695 -0.138079 -0.256258
vn -0.950731 -0.170354 -0.259017
vn -0.947581 -0.185415 -0.260213
vn -0.956701 -0.138085 0.256233
vn -0.956701 -0.138085 0.256233
vn -0.946917 -0.196074 0.254763
vn -0.950098 -0.179290 0.255281
vn -0.700340 -0.138113 0.700321
vn -0.700340 -0.138113 0.700321
vn -0.688835 -0.190397 0.699468
vn -0.689061 -0.189458 0.699501
vn -0.256316 -0.138091 0.956678
vn -0.256316 -0.138091 0.956678
vn -0.257633 -0.185918 0.948188
vn -0.257687 -0.188538 0.947655
vn 0.256353 -0.138082 0.956670
vn 0.256353 -0.138082 0.956670
vn 0.249473 -0.175512 0.952344
vn 0.244772 -0.199876 0.948755
vn 0.232815 -0.276496 0.932388
vn 0.235639 -0.264452 0.935168
vn 0.316019 0.264737 0.911069
vn 0.316019 0.264737 0.911069
vn -0.266757 -0.059577 0.961921
vn -0.262326 0.044115 0.963970
vn -0.188213 0.585145 0.788785
vn -0.188213 0.585145 0.788785
vn -0.654554 -0.178417 0.734661
vn -0.651437 -0.195330 0.733127
vn -0.672879 0.196192 0.713262
vn -0.672879 0.196192 0.713262
vn -0.938585 -0.283364 0.196884
vn -0.925860 -0.320767 0.199730
vn -0.985542 0.058020 0.159187
vn -0.985542 0.058020 0.159187
vn -0.947127 -0.185429 -0.261853
vn -0.940803 -0.212916 -0.263737
vn -0.960139 0.172615 -0.219856
vn -0.960139 0.172615 -0.219856
vn -0.691797 -0.192334 -0.696006
vn -0.694704 -0.164629 -0.700203
vn -0.672558 0.250974 -0.696188
vn -0.672558 0.250974 -0.696188
vn -0.281209 -0.145659 -0.948528
vn -0.279070 -0.091677 -0.955885
vn -0.243558 0.271467 -0.931120
vn -0.243558 0.271467 -0.931120
vn 0.270879 -0.270166 -0.923924
vn 0.271434 -0.275606 -0.922153
vn 0.207118 0.142061 -0.967947
vn 0.207118 0.142061 -0.967947
vn 0.682909 -0.202433 -0.701895
vn 0.702693 -0.101626 -0.704198
vn 0.716880 0.205996 -0.666069
vn 0.716880 0.205996 -0.666069
vn 0.936867 -0.227342 -0.265699
vn 0.935944 -0.232148 -0.264796
vn 0.948038 0.078791 -0.308246
vn 0.948038 0.078791 -0.308246
vn 0.941848 -0.203376 0.267508
vn 0.947023 -0.172296 0.271037
vn 0.946581 0.139301 0.290824
vn 0.946581 0.139301 0.290824
vn 0.716252 -0.212058 0.664841
vn 0.720207 -0.171919 0.672120
vn 0.714877 0.105435 0.691256
vn 0.714877 0.105435 0.691256
vn 0.401014 0.817490 -0.413399
vn 0.401014 0.817490 -0.413399
vn 0.401014 0.817490 -0.413399
vn 0.401014 0.817490 -0.413399
vn 0.135767 0.851056 -0.507219
vn 0.135767 0.851056 -0.507219
vn 0.135767 0.851056 -0.507219
vn 0.135767 0.851056 -0.507219
vn -0.144025 0.787552 -0.599182
vn -0.144025 0.787552 -0.599182
vn -0.144025 0.787552 -0.599182
vn -0.144025 0.787552 -0.599182
vn -0.499590 0.733866 -0.460273
vn -0.499590 0.733866 -0.460273
vn -0.499590 0.733866 -0.460273
vn -0.499590 0.733866 -0.460273
vn -0.584295 0.793143 -0.171822
vn -0.584295 0.793143 -0.171822
vn -0.584295 0.793143 -0.171822
vn -0.584295 0.793143 -0.171822
vn -0.593440 0.792400 0.141178
vn -0.593440 0.792400 0.141178
vn -0.593440 0.792400 0.141178
vn -0.593440 0.792400 0.141178
vn -0.467048 0.746334 0.474185
vn -0.467048 0.746334 0.474186
vn -0.467048 0.746334 0.474185
vn -0.467048 0.746334 0.474185
vn -0.151918 0.686210 0.711362
vn -0.151918 0.686210 0.711362
vn -0.151918 0.686210 0.711362
vn -0.151918 0.686210 0.711363
vn 0.166595 0.748790 0.641529
vn 0.166595 0.748790 0.641529
vn 0.166595 0.748790 0.641529
vn 0.166595 0.748790 0.641529
vn 0.406707 0.810475 0.421567
vn 0.406707 0.810476 0.421567
vn 0.406707 0.810475 0.421567
vn 0.406707 0.810475 0.421567
vn 0.575277 0.799240 0.173988
vn 0.575277 0.799240 0.173988
vn 0.575277 0.799240 0.173988
vn 0.575277 0.799240 0.173988
vn 0.546674 0.819413 -0.172367
vn 0.546674 0.819413 -0.172367
vn 0.546674 0.819413 -0.172367
vn 0.546674 0.819413 -0.172367
vn -0.694012 0.191479 0.694034
vn -0.694012 0.191479 0.694034
vn -0.694012 0.191479 0.694034
vn -0.694012 0.191479 0.694034
vn -0.254033 0.191482 0.948051
vn -0.254033 0.191482 0.948052
vn -0.254033 0.191482 0.948052
vn -0.254033 0.191482 0.948052
vn 0.258835 0.190410 0.946968
vn 0.258835 0.190410 0.946968
vn 0.258835 0.190410 0.946968
vn 0.258835 0.190410 0.946968
vn 0.690673 0.190406 0.697650
vn 0.690673 0.190406 0.697650
vn 0.690673 0.190406 0.697650
vn 0.690673 0.190406 0.697650
vn 0.948058 0.191477 0.254013
vn 0.948058 0.191477 0.254013
vn 0.948058 0.191477 0.254013
vn 0.948058 0.191477 0.254013
vn 0.946975 0.190406 -0.258811
vn 0.946975 0.190406 -0.258811
vn 0.946975 0.190406 -0.258811
vn 0.946975 0.190406 -0.258811
vn 0.697633 0.190408 -0.690690
vn 0.697633 0.190408 -0.690690
vn 0.697633 0.190408 -0.690690
vn 0.697633 0.190408 -0.690690
vn 0.254034 0.191482 -0.948051
vn 0.254034 0.191482 -0.948052
vn 0.254034 0.191482 -0.948052
vn 0.254034 0.191482 -0.948052
vn -0.254034 0.191482 -0.948051
vn -0.254034 0.191482 -0.948051
vn -0.254034 0.191482 -0.948052
vn -0.254034 0.191482 -0.948052
vn -0.694017 0.191480 -0.694028
vn -0.694017 0.191480 -0.694028
vn -0.694017 0.191480 -0.694028
vn -0.694017 0.191480 -0.694028
vn -0.949521 0.190406 -0.249311
vn -0.949521 0.190406 -0.249311
vn -0.949521 0.190406 -0.249311
vn -0.949521 0.190406 -0.249311
vn -0.949520 0.190405 0.249314
vn -0.949520 0.190405 0.249314
vn -0.949520 0.190405 0.249314
vn -0.949520 0.190405 0.249314
s off
f 29/26/1 30/27/2 46/28/3 47/29/4
f 30/27/5 31/30/6 45/31/7 46/28/8
f 31/30/9 32/32/10 44/33/11 45/31/12
f 32/32/13 33/34/14 43/35/15 44/33/16
f 33/34/17 34/36/18 42/37/19 43/35/20
f 34/36/21 35/38/22 41/39/23 42/37/24
f 35/38/25 36/40/26 40/41/27 41/39/28
f 36/40/29 37/42/30 39/43/31 40/41/32
f 37/42/33 26/44/34 38/45/35 39/43/36
f 26/44/37 27/46/38 49/47/39 38/45/40
f 27/46/41 28/48/42 48/49/43 49/47/44
f 28/48/45 29/26/46 47/29/47 48/49/48
f 2/2/49 1/1/50 25/51/51
f 3/3/52 2/2/53 25/51/54
f 4/4/55 3/3/56 25/51/57
f 5/5/58 4/4/59 25/51/60
f 6/6/61 5/5/62 25/51/63
f 7/7/64 6/6/65 25/51/66
f 8/8/67 7/7/68 25/51/69
f 9/9/70 8/8/71 25/51/72
f 10/10/73 9/9/74 25/51/75
f 11/11/76 10/10/77 25/51/78
f 12/12/79 11/11/80 25/51/81
f 1/1/82 12/12/83 25/51/84
f 62/50/85 63/52/86 64/66/87
f 63/52/88 65/67/89 64/66/90
f 65/67/91 66/68/92 64/66/93
f 66/68/94 67/69/95 64/66/96
f 67/69/97 68/70/98 64/66/99
f 68/70/100 69/71/101 64/66/102
f 69/71/103 70/72/104 64/66/105
f 70/72/106 71/73/107 64/66/108
f 71/73/109 72/74/110 64/66/111
f 72/74/112 73/75/113 64/66/114
f 73/75/115 74/76/116 64/66/117
f 74/76/118 62/50/119 64/66/120
f 10/22/121 11/23/122 27/54/123 26/53/124
f 11/23/125 12/24/126 28/55/127 27/54/128
f 12/24/129 1/25/130 29/56/131 28/55/132
f 1/13/133 2/14/134 30/58/135 29/57/136
f 2/14/137 3/15/138 31/59/139 30/58/140
f 3/15/141 4/16/142 32/60/143 31/59/144
f 4/16/145 5/17/146 33/61/147 32/60/148
f 5/17/149 6/18/150 34/62/151 33/61/152
f 6/18/153 7/19/154 35/63/155 34/62/156
f 7/19/157 8/20/158 36/64/159 35/63/160
f 8/20/161 9/21/162 37/65/163 36/64/164
f 9/21/165 10/22/166 26/53/167 37/65/168
f 39/43/169 38/45/170 22/77/171 21/78/172
f 40/41/173 39/43/174 21/78/175 20/79/176
f 41/39/177 40/41/178 20/79/179 19/80/180
f 42/37/181 41/39/182 19/80/183 18/81/184
f 43/35/185 42/37/186 18/81/187 17/82/188
f 44/33/189 43/35/190 17/82/191 16/83/192
f 45/31/193 44/33/194 16/83/195 15/84/196
f 46/28/197 45/31/198 15/84/199 14/85/200
f 47/29/201 46/28/202 14/85/203 13/86/204
f 48/49/205 47/29/206 13/86/207 24/87/208
f 49/47/209 48/49/210 24/87/211 23/88/212
f 38/45/213 49/47/214 23/88/215 22/77/216
f 13/86/217 14/85/218 51/89/219 50/90/220
f 14/85/221 15/84/222 52/91/223 51/89/224
f 15/84/225 16/83/226 53/92/227 52/91/228
f 16/83/229 17/82/230 54/93/231 53/92/232
f 17/82/233 18/81/234 55/94/235 54/93/236
f 18/81/237 19/80/238 56/95/239 55/94/240
f 19/80/241 20/79/242 57/96/243 56/95/244
f 20/79/245 21/78/246 58/97/247 57/96/248
f 21/78/249 22/77/250 59/98/251 58/97/252
f 22/77/253 23/88/254 60/99/255 59/98/256
f 23/88/257 24/87/258 61/100/259 60/99/260
f 24/87/261 13/86/262 50/90/263 61/100/264
f 50/90/265 51/89/266 63/52/267 62/50/268
f 51/89/269 52/91/270 65/67/271 63/52/272
f 52/91/273 53/92/274 66/68/275 65/67/276
f 53/92/277 54/93/278 67/69/279 66/68/280
f 54/93/281 55/94/282 68/70/283 67/69/284
f 55/94/285 56/95/286 69/71/287 68/70/288
f 56/95/289 57/96/290 70/72/291 69/71/292
f 57/96/293 58/97/294 71/73/295 70/72/296
f 58/97/297 59/98/298 72/74/299 71/73/300
f 59/98/301 60/99/302 73/75/303 72/74/304
f 60/99/305 61/100/306 74/76/307 73/75/308
f 61/100/309 50/90/310 62/50/311 74/76/312
