# This file uses centimeters as units for non-parametric coordinates.

v -0.325173 0.000000 0.090030
v -0.051655 0.000000 0.090030
v -0.325173 0.046031 0.090030
v -0.051655 0.046031 0.090030
v -0.325173 0.046031 -0.021372
v -0.051655 0.046031 -0.021372
v -0.325173 0.000000 -0.021372
v -0.051655 0.000000 -0.021372
v -0.289177 0.000000 -0.042441
v -0.015659 0.000000 -0.042441
v -0.289177 0.046031 -0.042441
v -0.015659 0.046031 -0.042441
v -0.289177 0.046031 -0.153843
v -0.015659 0.046031 -0.153843
v -0.289177 0.000000 -0.153843
v -0.015659 0.000000 -0.153843
v -0.280136 0.000000 0.225559
v -0.006618 0.000000 0.225559
v -0.280136 0.046031 0.225559
v -0.006618 0.046031 0.225559
v -0.280136 0.046031 0.114156
v -0.006618 0.046031 0.114156
v -0.280136 0.000000 0.114156
v -0.006618 0.000000 0.114156
v 0.018820 0.000000 -0.085762
v 0.288948 0.000000 -0.042828
v 0.018820 0.046031 -0.085762
v 0.288948 0.046031 -0.042828
v 0.036307 0.046031 -0.195783
v 0.306435 0.046031 -0.152849
v 0.036307 0.000000 -0.195783
v 0.306435 0.000000 -0.152849
v 0.000086 0.000000 0.080534
v 0.273604 0.000000 0.080534
v 0.000086 0.046031 0.080534
v 0.273604 0.046031 0.080534
v 0.000086 0.046031 -0.030868
v 0.273604 0.046031 -0.030868
v 0.000086 0.000000 -0.030868
v 0.273604 0.000000 -0.030868
v 0.051654 0.000000 0.237097
v 0.325172 0.000000 0.237097
v 0.051654 0.046031 0.237097
v 0.325172 0.046031 0.237097
v 0.051654 0.046031 0.125695
v 0.325172 0.046031 0.125695
v 0.051654 0.000000 0.125695
v 0.325172 0.000000 0.125695
v -0.026394 0.092062 0.183162
v 0.158601 0.092062 -0.018305
v -0.026394 0.138094 0.183162
v 0.158601 0.138094 -0.018305
v -0.108451 0.138094 0.107815
v 0.076544 0.138094 -0.093652
v -0.108451 0.092062 0.107815
v 0.076544 0.092062 -0.093652
v 0.174148 0.000000 0.269430
v -0.097843 0.000000 0.240562
v 0.174148 0.046031 0.269430
v -0.097843 0.046031 0.240562
v 0.162390 0.046031 0.380210
v -0.109601 0.046031 0.351342
v 0.162390 0.000000 0.380210
v -0.109601 0.000000 0.351342
v -0.241022 0.000000 -0.280666
v 0.003383 0.000000 -0.157871
v -0.241022 0.046031 -0.280666
v 0.003383 0.046031 -0.157871
v -0.191009 0.046031 -0.380210
v 0.053396 0.046031 -0.257415
v -0.191009 0.000000 -0.380210
v 0.053396 0.000000 -0.257415
v 0.119098 0.046031 0.251125
v 0.282171 0.046031 0.031538
v 0.119098 0.092062 0.251125
v 0.282171 0.092062 0.031538
v 0.029660 0.092062 0.184705
v 0.192736 0.092062 -0.034882
v 0.029660 0.046031 0.184705
v 0.192736 0.046031 -0.034882
v -0.157629 0.046031 -0.078533
v 0.087147 0.046031 0.043521
v -0.157629 0.092062 -0.078533
v 0.087147 0.092062 0.043521
v -0.107917 0.092062 -0.178229
v 0.136859 0.092062 -0.056175
v -0.107917 0.046031 -0.178229
v 0.136859 0.046031 -0.056175
v -0.242272 0.046031 0.105395
v -0.000061 0.046031 0.232461
v -0.242272 0.092062 0.105395
v -0.000061 0.092062 0.232461
v -0.190518 0.092062 0.006744
v 0.051693 0.092062 0.133810
v -0.190518 0.046031 0.006744
v 0.051693 0.046031 0.133810
vt 0.669081 0.407043
vt 0.669081 0.407042
vt 0.623575 0.407043
vt 0.623575 0.407043
vt 0.623575 0.407043
vt 0.623575 0.407043
vt 0.503749 0.373682
vt 0.623970 0.373682
vt 0.623970 0.434205
vt 0.503749 0.434205
vt 0.669081 0.407043
vt 0.669081 0.407043
vt 0.503749 0.373682
vt 0.623970 0.373682
vt 0.623970 0.434205
vt 0.503749 0.434205
vt 0.669081 0.407043
vt 0.669081 0.407042
vt 0.623575 0.407043
vt 0.623575 0.407043
vt 0.503749 0.373682
vt 0.623970 0.373682
vt 0.623970 0.434205
vt 0.503749 0.434205
vt 0.623575 0.407043
vt 0.623575 0.407043
vt 0.669081 0.407043
vt 0.669081 0.407043
vt 0.503749 0.434205
vt 0.623970 0.434205
vt 0.623970 0.373682
vt 0.503749 0.373682
vt 0.669081 0.407043
vt 0.669081 0.407042
vt 0.623575 0.407043
vt 0.623575 0.407043
vt 0.503749 0.373682
vt 0.623970 0.373682
vt 0.623970 0.434205
vt 0.503749 0.434205
vt 0.623575 0.407043
vt 0.623575 0.407043
vt 0.669081 0.407043
vt 0.669081 0.407043
vt 0.503749 0.434205
vt 0.623970 0.434205
vt 0.623970 0.373682
vt 0.503749 0.373682
vt 0.669081 0.407043
vt 0.669081 0.407042
vt 0.623575 0.407043
vt 0.623575 0.407043
vt 0.503749 0.373682
vt 0.623970 0.373682
vt 0.623970 0.434205
vt 0.503749 0.434205
vt 0.623575 0.407043
vt 0.623575 0.407043
vt 0.669081 0.407043
vt 0.669081 0.407043
vt 0.503749 0.434205
vt 0.623970 0.434205
vt 0.623970 0.373682
vt 0.503749 0.373682
vt 0.669081 0.407043
vt 0.669081 0.407042
vt 0.623575 0.407043
vt 0.623575 0.407043
vt 0.503749 0.373682
vt 0.623970 0.373682
vt 0.623970 0.434205
vt 0.503749 0.434205
vt 0.623575 0.407043
vt 0.623575 0.407043
vt 0.669081 0.407043
vt 0.669081 0.407043
vt 0.503749 0.434205
vt 0.623970 0.434205
vt 0.623970 0.373682
vt 0.503749 0.373682
vt 0.669081 0.407043
vt 0.669081 0.407042
vt 0.623575 0.407043
vt 0.623575 0.407043
vt 0.503749 0.373682
vt 0.623970 0.373682
vt 0.623970 0.434205
vt 0.503749 0.434205
vt 0.623575 0.407043
vt 0.623575 0.407043
vt 0.669081 0.407043
vt 0.669081 0.407043
vt 0.503749 0.434205
vt 0.623970 0.434205
vt 0.623970 0.373682
vt 0.503749 0.373682
vt 0.669081 0.407043
vt 0.669081 0.407042
vt 0.623575 0.407043
vt 0.623575 0.407043
vt 0.503749 0.373682
vt 0.623970 0.373682
vt 0.623970 0.434205
vt 0.503749 0.434205
vt 0.623575 0.407043
vt 0.623575 0.407043
vt 0.669081 0.407043
vt 0.669081 0.407043
vt 0.503749 0.434205
vt 0.623970 0.434205
vt 0.623970 0.373682
vt 0.503749 0.373682
vt 0.669081 0.407043
vt 0.669081 0.407042
vt 0.623575 0.407043
vt 0.623575 0.407043
vt 0.503749 0.373682
vt 0.623970 0.373682
vt 0.623970 0.434205
vt 0.503749 0.434205
vt 0.623575 0.407043
vt 0.623575 0.407043
vt 0.669081 0.407043
vt 0.669081 0.407043
vt 0.503749 0.434205
vt 0.623970 0.434205
vt 0.623970 0.373682
vt 0.503749 0.373682
vt 0.669081 0.407043
vt 0.669081 0.407042
vt 0.623575 0.407043
vt 0.623575 0.407043
vt 0.503749 0.373682
vt 0.623970 0.373682
vt 0.623970 0.434205
vt 0.503749 0.434205
vt 0.623575 0.407043
vt 0.623575 0.407043
vt 0.669081 0.407043
vt 0.669081 0.407043
vt 0.503749 0.434205
vt 0.623970 0.434205
vt 0.623970 0.373682
vt 0.503749 0.373682
vt 0.669081 0.407043
vt 0.669081 0.407042
vt 0.623575 0.407043
vt 0.623575 0.407043
vt 0.503749 0.373682
vt 0.623970 0.373682
vt 0.623970 0.434205
vt 0.503749 0.434205
vt 0.623575 0.407043
vt 0.623575 0.407043
vt 0.669081 0.407043
vt 0.669081 0.407043
vt 0.503749 0.434205
vt 0.623970 0.434205
vt 0.623970 0.373682
vt 0.503749 0.373682
vt 0.669081 0.407043
vt 0.669081 0.407042
vt 0.623575 0.407043
vt 0.623575 0.407043
vt 0.503749 0.373682
vt 0.623970 0.373682
vt 0.623970 0.434205
vt 0.503749 0.434205
vt 0.623575 0.407043
vt 0.623575 0.407043
vt 0.669081 0.407043
vt 0.669081 0.407043
vt 0.503749 0.434205
vt 0.623970 0.434205
vt 0.623970 0.373682
vt 0.503749 0.373682
vt 0.669081 0.407043
vt 0.669081 0.407042
vt 0.623575 0.407043
vt 0.623575 0.407043
vt 0.503749 0.373682
vt 0.623970 0.373682
vt 0.623970 0.434205
vt 0.503749 0.434205
vt 0.623575 0.407043
vt 0.623575 0.407043
vt 0.669081 0.407043
vt 0.669081 0.407043
vt 0.503749 0.434205
vt 0.623970 0.434205
vt 0.623970 0.373682
vt 0.503749 0.373682
vn 0.000000 0.000000 1.000000
vn 0.000000 0.000000 1.000000
vn 0.000000 0.000000 1.000000
vn 0.000000 0.000000 1.000000
vn 0.000000 1.000000 0.000000
vn 0.000000 1.000000 0.000000
vn 0.000000 1.000000 0.000000
vn 0.000000 1.000000 0.000000
vn 0.000000 0.000000 -1.000000
vn 0.000000 0.000000 -1.000000
vn 0.000000 0.000000 -1.000000
vn 0.000000 0.000000 -1.000000
vn 0.000000 -1.000000 0.000000
vn 0.000000 -1.000000 0.000000
vn 0.000000 -1.000000 0.000000
vn 0.000000 -1.000000 0.000000
vn 1.000000 0.000000 0.000000
vn 1.000000 0.000000 0.000000
vn 1.000000 0.000000 0.000000
vn 1.000000 0.000000 0.000000
vn -1.000000 0.000000 0.000000
vn -1.000000 0.000000 0.000000
vn -1.000000 0.000000 0.000000
vn -1.000000 0.000000 0.000000
vn 0.000000 0.000000 1.000000
vn 0.000000 0.000000 1.000000
vn 0.000000 0.000000 1.000000
vn 0.000000 0.000000 1.000000
vn 0.000000 1.000000 0.000000
vn 0.000000 1.000000 0.000000
vn 0.000000 1.000000 0.000000
vn 0.000000 1.000000 0.000000
vn 0.000000 0.000000 -1.000000
vn 0.000000 0.000000 -1.000000
vn 0.000000 0.000000 -1.000000
vn 0.000000 0.000000 -1.000000
vn 0.000000 -1.000000 0.000000
vn 0.000000 -1.000000 0.000000
vn 0.000000 -1.000000 0.000000
vn 0.000000 -1.000000 0.000000
vn 1.000000 0.000000 0.000000
vn 1.000000 0.000000 0.000000
vn 1.000000 0.000000 0.000000
vn 1.000000 0.000000 0.000000
vn -1.000000 0.000000 0.000000
vn -1.000000 0.000000 0.000000
vn -1.000000 0.000000 0.000000
vn -1.000000 0.000000 0.000000
vn 0.000000 0.000000 1.000000
vn 0.000000 0.000000 1.000000
vn 0.000000 0.000000 1.000000
vn 0.000000 0.000000 1.000000
vn 0.000000 1.000000 0.000000
vn 0.000000 1.000000 0.000000
vn 0.000000 1.000000 0.000000
vn 0.000000 1.000000 0.000000
vn 0.000000 0.000000 -1.000000
vn 0.000000 0.000000 -1.000000
vn 0.000000 0.000000 -1.000000
vn 0.000000 0.000000 -1.000000
vn 0.000000 -1.000000 0.000000
vn 0.000000 -1.000000 0.000000
vn 0.000000 -1.000000 0.000000
vn 0.000000 -1.000000 0.000000
vn 1.000000 0.000000 0.000000
vn 1.000000 0.000000 0.000000
vn 1.000000 0.000000 0.000000
vn 1.000000 0.000000 0.000000
vn -1.000000 0.000000 0.000000
vn -1.000000 0.000000 0.000000
vn -1.000000 0.000000 0.000000
vn -1.000000 0.000000 0.000000
vn -0.156969 0.000000 0.987604
vn -0.156969 0.000000 0.987604
vn -0.156969 0.000000 0.987604
vn -0.156969 0.000000 0.987604
vn 0.000000 1.000000 0.000000
vn 0.000000 1.000000 0.000000
vn 0.000000 1.000000 0.000000
vn 0.000000 1.000000 0.000000
vn 0.156970 0.000000 -0.987603
vn 0.156970 0.000000 -0.987603
vn 0.156970 0.000000 -0.987603
vn 0.156970 0.000000 -0.987603
vn 0.000000 -1.000000 0.000000
vn 0.000000 -1.000000 0.000000
vn 0.000000 -1.000000 0.000000
vn 0.000000 -1.000000 0.000000
vn 0.987604 0.000000 0.156968
vn 0.987604 0.000000 0.156968
vn 0.987604 0.000000 0.156968
vn 0.987604 0.000000 0.156968
vn -0.987602 0.000000 -0.156976
vn -0.987602 0.000000 -0.156976
vn -0.987602 0.000000 -0.156976
vn -0.987602 0.000000 -0.156976
vn 0.000000 0.000000 1.000000
vn 0.000000 0.000000 1.000000
vn 0.000000 0.000000 1.000000
vn 0.000000 0.000000 1.000000
vn 0.000000 1.000000 0.000000
vn 0.000000 1.000000 0.000000
vn 0.000000 1.000000 0.000000
vn 0.000000 1.000000 0.000000
vn 0.000000 0.000000 -1.000000
vn 0.000000 0.000000 -1.000000
vn 0.000000 0.000000 -1.000000
vn 0.000000 0.000000 -1.000000
vn 0.000000 -1.000000 0.000000
vn 0.000000 -1.000000 0.000000
vn 0.000000 -1.000000 0.000000
vn 0.000000 -1.000000 0.000000
vn 1.000000 0.000000 0.000000
vn 1.000000 0.000000 0.000000
vn 1.000000 0.000000 0.000000
vn 1.000000 0.000000 0.000000
vn -1.000000 0.000000 0.000000
vn -1.000000 0.000000 0.000000
vn -1.000000 0.000000 0.000000
vn -1.000000 0.000000 0.000000
vn 0.000000 0.000000 1.000000
vn 0.000000 0.000000 1.000000
vn 0.000000 0.000000 1.000000
vn 0.000000 0.000000 1.000000
vn 0.000000 1.000000 0.000000
vn 0.000000 1.000000 0.000000
vn 0.000000 1.000000 0.000000
vn 0.000000 1.000000 0.000000
vn 0.000000 0.000000 -1.000000
vn 0.000000 0.000000 -1.000000
vn 0.000000 0.000000 -1.000000
vn 0.000000 0.000000 -1.000000
vn 0.000000 -1.000000 0.000000
vn 0.000000 -1.000000 0.000000
vn 0.000000 -1.000000 0.000000
vn 0.000000 -1.000000 0.000000
vn 1.000000 0.000000 0.000000
vn 1.000000 0.000000 0.000000
vn 1.000000 0.000000 0.000000
vn 1.000000 0.000000 0.000000
vn -1.000000 0.000000 0.000000
vn -1.000000 0.000000 0.000000
vn -1.000000 0.000000 0.000000
vn -1.000000 0.000000 0.000000
vn 0.736578 0.000000 0.676353
vn 0.736578 0.000000 0.676353
vn 0.736578 0.000000 0.676353
vn 0.736578 0.000000 0.676353
vn 0.000000 1.000000 0.000000
vn 0.000000 1.000000 0.000000
vn 0.000000 1.000000 0.000000
vn 0.000000 1.000000 0.000000
vn -0.736578 0.000000 -0.676353
vn -0.736578 0.000000 -0.676353
vn -0.736578 0.000000 -0.676353
vn -0.736578 0.000000 -0.676353
vn 0.000000 -1.000000 0.000000
vn 0.000000 -1.000000 0.000000
vn 0.000000 -1.000000 0.000000
vn 0.000000 -1.000000 0.000000
vn 0.676350 0.000000 -0.736580
vn 0.676350 0.000000 -0.736580
vn 0.676350 0.000000 -0.736580
vn 0.676350 0.000000 -0.736580
vn -0.676350 0.000000 0.736580
vn -0.676350 0.000000 0.736580
vn -0.676350 0.000000 0.736580
vn -0.676350 0.000000 0.736580
vn 0.105546 0.000000 -0.994415
vn 0.105546 0.000000 -0.994415
vn 0.105546 0.000000 -0.994415
vn 0.105546 0.000000 -0.994415
vn 0.000000 1.000000 -0.000000
vn 0.000000 1.000000 -0.000000
vn 0.000000 1.000000 -0.000000
vn 0.000000 1.000000 -0.000000
vn -0.105546 0.000000 0.994415
vn -0.105546 0.000000 0.994415
vn -0.105546 0.000000 0.994415
vn -0.105546 0.000000 0.994415
vn 0.000000 -1.000000 0.000000
vn 0.000000 -1.000000 0.000000
vn 0.000000 -1.000000 0.000000
vn 0.000000 -1.000000 0.000000
vn -0.994415 0.000000 -0.105544
vn -0.994415 0.000000 -0.105544
vn -0.994415 0.000000 -0.105544
vn -0.994415 0.000000 -0.105544
vn 0.994415 0.000000 0.105544
vn 0.994415 0.000000 0.105544
vn 0.994415 0.000000 0.105544
vn 0.994415 0.000000 0.105544
vn -0.448948 0.000000 0.893558
vn -0.448948 0.000000 0.893558
vn -0.448948 0.000000 0.893558
vn -0.448948 0.000000 0.893558
vn 0.000000 1.000000 0.000000
vn 0.000000 1.000000 0.000000
vn 0.000000 1.000000 0.000000
vn 0.000000 1.000000 0.000000
vn 0.448947 0.000000 -0.893558
vn 0.448947 0.000000 -0.893558
vn 0.448947 0.000000 -0.893558
vn 0.448947 0.000000 -0.893558
vn 0.000000 -1.000000 0.000000
vn 0.000000 -1.000000 0.000000
vn 0.000000 -1.000000 0.000000
vn 0.000000 -1.000000 0.000000
vn 0.893559 0.000000 0.448945
vn 0.893559 0.000000 0.448945
vn 0.893559 0.000000 0.448945
vn 0.893559 0.000000 0.448945
vn -0.893559 0.000000 -0.448946
vn -0.893559 0.000000 -0.448946
vn -0.893559 0.000000 -0.448946
vn -0.893559 0.000000 -0.448946
vn 0.802829 0.000000 0.596210
vn 0.802829 0.000000 0.596210
vn 0.802829 0.000000 0.596210
vn 0.802829 0.000000 0.596210
vn 0.000000 1.000000 0.000000
vn 0.000000 1.000000 0.000000
vn 0.000000 1.000000 0.000000
vn 0.000000 1.000000 0.000000
vn -0.802825 0.000000 -0.596214
vn -0.802825 0.000000 -0.596214
vn -0.802825 0.000000 -0.596214
vn -0.802825 0.000000 -0.596214
vn 0.000000 -1.000000 0.000000
vn 0.000000 -1.000000 0.000000
vn 0.000000 -1.000000 0.000000
vn 0.000000 -1.000000 0.000000
vn 0.596218 0.000000 -0.802822
vn 0.596218 0.000000 -0.802822
vn 0.596218 0.000000 -0.802822
vn 0.596218 0.000000 -0.802822
vn -0.596210 0.000000 0.802828
vn -0.596210 0.000000 0.802828
vn -0.596210 0.000000 0.802828
vn -0.596210 0.000000 0.802828
vn -0.446238 0.000000 0.894914
vn -0.446238 0.000000 0.894914
vn -0.446238 0.000000 0.894914
vn -0.446238 0.000000 0.894914
vn 0.000000 1.000000 0.000000
vn 0.000000 1.000000 0.000000
vn 0.000000 1.000000 0.000000
vn 0.000000 1.000000 0.000000
vn 0.446238 0.000000 -0.894914
vn 0.446238 0.000000 -0.894914
vn 0.446238 0.000000 -0.894914
vn 0.446238 0.000000 -0.894914
vn 0.000000 -1.000000 0.000000
vn 0.000000 -1.000000 0.000000
vn 0.000000 -1.000000 0.000000
vn 0.000000 -1.000000 0.000000
vn 0.894913 0.000000 0.446240
vn 0.894913 0.000000 0.446240
vn 0.894913 0.000000 0.446240
vn 0.894913 0.000000 0.446240
vn -0.894913 0.000000 -0.446240
vn -0.894913 0.000000 -0.446240
vn -0.894913 0.000000 -0.446240
vn -0.894913 0.000000 -0.446240
vn -0.464563 0.000000 0.885540
vn -0.464563 0.000000 0.885540
vn -0.464563 0.000000 0.885540
vn -0.464563 0.000000 0.885540
vn 0.000000 1.000000 0.000000
vn 0.000000 1.000000 0.000000
vn 0.000000 1.000000 0.000000
vn 0.000000 1.000000 0.000000
vn 0.464563 0.000000 -0.885540
vn 0.464563 0.000000 -0.885540
vn 0.464563 0.000000 -0.885540
vn 0.464563 0.000000 -0.885540
vn 0.000000 -1.000000 0.000000
vn 0.000000 -1.000000 0.000000
vn 0.000000 -1.000000 0.000000
vn 0.000000 -1.000000 0.000000
vn 0.885538 0.000000 0.464567
vn 0.885538 0.000000 0.464567
vn 0.885538 0.000000 0.464567
vn 0.885538 0.000000 0.464567
vn -0.885537 0.000000 -0.464568
vn -0.885537 0.000000 -0.464568
vn -0.885537 0.000000 -0.464568
vn -0.885537 0.000000 -0.464568
s off
f 1/1/1 2/2/2 4/3/3 3/4/4
f 3/7/5 4/8/6 6/9/7 5/10/8
f 5/5/9 6/6/10 8/11/11 7/12/12
f 7/16/13 8/15/14 2/14/15 1/13/16
f 2/2/17 8/11/18 6/6/19 4/3/20
f 7/12/21 1/1/22 3/4/23 5/5/24
f 9/17/25 10/18/26 12/19/27 11/20/28
f 11/21/29 12/22/30 14/23/31 13/24/32
f 13/25/33 14/26/34 16/27/35 15/28/36
f 15/29/37 16/30/38 10/31/39 9/32/40
f 10/18/41 16/27/42 14/26/43 12/19/44
f 15/28/45 9/17/46 11/20/47 13/25/48
f 17/33/49 18/34/50 20/35/51 19/36/52
f 19/37/53 20/38/54 22/39/55 21/40/56
f 21/41/57 22/42/58 24/43/59 23/44/60
f 23/45/61 24/46/62 18/47/63 17/48/64
f 18/34/65 24/43/66 22/42/67 20/35/68
f 23/44/69 17/33/70 19/36/71 21/41/72
f 25/49/73 26/50/74 28/51/75 27/52/76
f 27/53/77 28/54/78 30/55/79 29/56/80
f 29/57/81 30/58/82 32/59/83 31/60/84
f 31/61/85 32/62/86 26/63/87 25/64/88
f 26/50/89 32/59/90 30/58/91 28/51/92
f 31/60/93 25/49/94 27/52/95 29/57/96
f 33/65/97 34/66/98 36/67/99 35/68/100
f 35/69/101 36/70/102 38/71/103 37/72/104
f 37/73/105 38/74/106 40/75/107 39/76/108
f 39/77/109 40/78/110 34/79/111 33/80/112
f 34/66/113 40/75/114 38/74/115 36/67/116
f 39/76/117 33/65/118 35/68/119 37/73/120
f 41/81/121 42/82/122 44/83/123 43/84/124
f 43/85/125 44/86/126 46/87/127 45/88/128
f 45/89/129 46/90/130 48/91/131 47/92/132
f 47/93/133 48/94/134 42/95/135 41/96/136
f 42/82/137 48/91/138 46/90/139 44/83/140
f 47/92/141 41/81/142 43/84/143 45/89/144
f 49/97/145 50/98/146 52/99/147 51/100/148
f 51/101/149 52/102/150 54/103/151 53/104/152
f 53/105/153 54/106/154 56/107/155 55/108/156
f 55/109/157 56/110/158 50/111/159 49/112/160
f 50/98/161 56/107/162 54/106/163 52/99/164
f 55/108/165 49/97/166 51/100/167 53/105/168
f 57/113/169 58/114/170 60/115/171 59/116/172
f 59/117/173 60/118/174 62/119/175 61/120/176
f 61/121/177 62/122/178 64/123/179 63/124/180
f 63/125/181 64/126/182 58/127/183 57/128/184
f 58/114/185 64/123/186 62/122/187 60/115/188
f 63/124/189 57/113/190 59/116/191 61/121/192
f 65/129/193 66/130/194 68/131/195 67/132/196
f 67/133/197 68/134/198 70/135/199 69/136/200
f 69/137/201 70/138/202 72/139/203 71/140/204
f 71/141/205 72/142/206 66/143/207 65/144/208
f 66/130/209 72/139/210 70/138/211 68/131/212
f 71/140/213 65/129/214 67/132/215 69/137/216
f 73/145/217 74/146/218 76/147/219 75/148/220
f 75/149/221 76/150/222 78/151/223 77/152/224
f 77/153/225 78/154/226 80/155/227 79/156/228
f 79/157/229 80/158/230 74/159/231 73/160/232
f 74/146/233 80/155/234 78/154/235 76/147/236
f 79/156/237 73/145/238 75/148/239 77/153/240
f 81/161/241 82/162/242 84/163/243 83/164/244
f 83/165/245 84/166/246 86/167/247 85/168/248
f 85/169/249 86/170/250 88/171/251 87/172/252
f 87/173/253 88/174/254 82/175/255 81/176/256
f 82/162/257 88/171/258 86/170/259 84/163/260
f 87/172/261 81/161/262 83/164/263 85/169/264
f 89/177/265 90/178/266 92/179/267 91/180/268
f 91/181/269 92/182/270 94/183/271 93/184/272
f 93/185/273 94/186/274 96/187/275 95/188/276
f 95/189/277 96/190/278 90/191/279 89/192/280
f 90/178/281 96/187/282 94/186/283 92/179/284
f 95/188/285 89/177/286 91/180/287 93/185/288
