# This file uses centimeters as units for non-parametric coordinates.

v -0.025865 0.000000 0.064683
v 0.025784 0.000000 0.064683
v -0.025865 0.023539 0.064683
v 0.025784 0.023539 0.064683
v -0.033207 0.020580 -0.059634
v 0.022972 0.020580 -0.059634
v -0.033207 0.000000 -0.059634
v 0.022972 0.000000 -0.059634
v -0.042685 0.000000 -0.001315
v -0.042685 0.029917 -0.001315
v 0.042685 0.029917 -0.001315
v 0.042685 0.000000 -0.001315
v -0.042685 0.000000 0.042120
v -0.042685 0.029917 0.042120
v 0.042685 0.029917 0.042120
v 0.042685 0.000000 0.042120
v -0.006989 0.029917 -0.001315
v -0.007266 0.020580 -0.064683
v -0.007266 0.009120 -0.064683
v -0.002110 0.009120 -0.064683
v -0.002110 0.020580 -0.064683
v -0.002499 0.029917 -0.001315
v 0.000833 0.024315 -0.061391
v -0.001420 0.032529 -0.000096
v 0.039815 0.032529 -0.001432
v 0.021929 0.024315 -0.056342
v -0.038303 0.032538 0.040415
v -0.008144 0.032529 -0.000098
v -0.039762 0.032529 -0.001440
v 0.021680 0.026820 0.062142
v 0.038325 0.032538 0.040421
v -0.021760 0.026820 0.062142
v -0.010275 0.024314 -0.061396
v -0.032094 0.024314 -0.056346
v -0.012405 0.028419 -0.019267
v 0.002155 0.028419 -0.019267
v -0.010198 0.036583 -0.024421
v -0.000052 0.036583 -0.024421
v -0.010198 0.033373 -0.039370
v -0.000052 0.033373 -0.039370
v -0.012405 0.023813 -0.040719
v 0.002155 0.023813 -0.040719
vt 0.104793 0.228890
vt 0.104793 0.228890
vt 0.104793 0.228890
vt 0.104793 0.228890
vt 0.133710 0.301195
vt 0.133710 0.301195
vt 0.133710 0.301195
vt 0.133710 0.301195
vt 0.104793 0.228890
vt 0.104793 0.228890
vt 0.104793 0.228890
vt 0.104793 0.228890
vt 0.104793 0.228890
vt 0.104793 0.228890
vt 0.104793 0.228890
vt 0.104793 0.228890
vt 0.104793 0.228890
vt 0.104793 0.228890
vt 0.104793 0.228890
vt 0.104793 0.228890
vt 0.104793 0.228890
vt 0.104793 0.228890
vt 0.104793 0.228890
vt 0.104793 0.228890
vt 0.104793 0.228890
vt 0.133710 0.301195
vt 0.133710 0.301195
vt 0.133710 0.301195
vt 0.104793 0.228890
vt 0.104793 0.228890
vt 0.104793 0.228890
vt 0.104793 0.228890
vt 0.133710 0.301195
vt 0.133710 0.301195
vt 0.133710 0.301195
vt 0.104793 0.228890
vt 0.104793 0.228890
vt 0.133710 0.301195
vt 0.133710 0.301195
vt 0.104793 0.228890
vt 0.104793 0.228890
vt 0.104793 0.228890
vt 0.104793 0.228890
vt 0.104793 0.228890
vt 0.133710 0.301195
vt 0.133710 0.301195
vt 0.133710 0.301195
vt 0.133710 0.301195
vt 0.133710 0.301195
vt 0.133710 0.301195
vt 0.133710 0.301195
vt 0.133710 0.301195
vt 0.133710 0.301195
vt 0.133710 0.301195
vt 0.133710 0.301195
vt 0.133710 0.301195
vt 0.111950 0.226706
vt 0.111950 0.226706
vt 0.111950 0.226706
vt 0.111950 0.226706
vt 0.111950 0.226706
vt 0.111950 0.226706
vt 0.111950 0.226706
vt 0.111950 0.226706
vt 0.111949 0.226706
vt 0.111949 0.226706
vt 0.111950 0.226706
vt 0.111950 0.226706
vn 0.000000 0.000000 1.000000
vn 0.000000 0.046945 0.998897
vn 0.000000 0.046945 0.998897
vn 0.000000 0.000000 1.000000
vn 0.008406 0.989961 -0.141090
vn 0.003099 0.998631 -0.052213
vn 0.005423 0.995824 -0.091136
vn 0.008406 0.989961 -0.141090
vn 0.161587 -0.099189 -0.981861
vn 0.091475 -0.251489 -0.963528
vn 0.172858 0.000000 -0.984947
vn 0.197345 0.000000 -0.980334
vn 0.000000 -1.000000 0.000000
vn 0.000000 -1.000000 0.000000
vn 0.000000 -1.000000 0.000000
vn 0.000000 -1.000000 0.000000
vn 0.985683 0.000000 -0.168609
vn 0.984259 0.000000 -0.176730
vn 0.947345 0.000000 -0.320215
vn 0.947345 0.000000 -0.320215
vn -0.987051 0.000000 -0.160410
vn -0.996294 0.000000 -0.086010
vn -0.996650 0.000000 -0.081791
vn -0.987051 0.000000 -0.160410
vn -0.996650 0.000000 -0.081791
vn -0.996294 0.000000 -0.086010
vn -0.973198 0.000000 0.229969
vn -0.978193 0.000000 0.207697
vn -0.025701 0.991365 0.128585
vn -0.003401 0.998787 -0.049123
vn -0.006835 0.995101 -0.098625
vn 0.977984 0.000000 0.208682
vn 0.972952 0.000000 0.231006
vn 0.984259 0.000000 -0.176730
vn 0.985683 0.000000 -0.168609
vn 0.000000 -1.000000 0.000000
vn 0.000000 -1.000000 0.000000
vn 0.000000 -1.000000 0.000000
vn 0.000000 -1.000000 0.000000
vn -0.978193 0.000000 0.207697
vn -0.973198 0.000000 0.229969
vn -0.801747 0.000000 0.597663
vn -0.801747 0.000000 0.597663
vn 0.026240 0.961495 0.273568
vn 0.025573 0.991482 0.127713
vn -0.025701 0.991365 0.128585
vn -0.026336 0.961508 0.273513
vn 0.800383 0.000000 0.599488
vn 0.972952 0.000000 0.231006
vn 0.977984 0.000000 0.208682
vn 0.800384 0.000000 0.599488
vn 0.000000 -1.000000 0.000000
vn 0.000000 -1.000000 0.000000
vn 0.000000 -1.000000 0.000000
vn 0.000000 -1.000000 0.000000
vn -0.006835 0.995101 -0.098625
vn -0.003401 0.998787 -0.049123
vn -0.009744 0.990040 -0.140447
vn -0.009744 0.990040 -0.140447
vn -0.089674 -0.248909 -0.964367
vn 0.091475 -0.251489 -0.963528
vn 0.161587 -0.099189 -0.981861
vn -0.158424 -0.093568 -0.982928
vn -0.191058 0.000000 -0.981579
vn -0.167994 0.000000 -0.985788
vn -0.089674 -0.248909 -0.964367
vn -0.158424 -0.093568 -0.982928
vn -0.167994 0.000000 -0.985788
vn 0.172858 0.000000 -0.984947
vn 0.091475 -0.251489 -0.963528
vn -0.089674 -0.248909 -0.964367
vn 0.000000 0.989319 -0.145766
vn 0.000000 0.989319 -0.145766
vn 0.000000 0.989319 -0.145766
vn 0.000000 0.989319 -0.145766
vn 0.003099 0.998631 -0.052213
vn 0.025573 0.991482 0.127713
vn 0.005423 0.995824 -0.091136
vn -0.025701 0.991365 0.128585
vn 0.025573 0.991482 0.127713
vn 0.003099 0.998631 -0.052213
vn -0.003401 0.998787 -0.049123
vn -0.807250 0.581845 -0.099017
vn -0.807250 0.581845 -0.099017
vn -0.807249 0.581845 -0.099017
vn -0.807250 0.581845 -0.099017
vn 0.668789 0.723610 -0.170619
vn 0.718963 0.609931 -0.333281
vn 0.718963 0.609931 -0.333281
vn 0.676230 0.711674 -0.190350
vn 0.166276 0.627864 -0.760355
vn 0.166276 0.627864 -0.760355
vn 0.166276 0.627864 -0.760355
vn 0.166276 0.627864 -0.760355
vn -0.691987 0.714239 -0.104956
vn -0.580772 0.814007 0.009853
vn -0.580772 0.814007 0.009853
vn -0.695641 0.710050 -0.109144
vn 0.331490 0.815796 0.473911
vn 0.331490 0.815796 0.473911
vn 0.025573 0.991482 0.127713
vn 0.026240 0.961495 0.273568
vn -0.331428 0.816559 0.472638
vn -0.331428 0.816559 0.472638
vn -0.026336 0.961508 0.273513
vn -0.025701 0.991365 0.128585
vn 0.000000 0.046945 0.998897
vn 0.000000 0.046945 0.998897
vn 0.000000 0.612315 0.790614
vn 0.000000 0.612315 0.790614
vn 0.798200 0.594190 -0.099074
vn 0.798200 0.594190 -0.099074
vn 0.798200 0.594190 -0.099074
vn 0.798200 0.594190 -0.099074
vn -0.160836 0.628907 -0.760662
vn -0.160836 0.628908 -0.760662
vn -0.160836 0.628908 -0.760662
vn -0.160836 0.628908 -0.760662
vn -0.774362 0.596949 -0.209801
vn -0.691987 0.714239 -0.104956
vn -0.695641 0.710050 -0.109144
vn -0.774362 0.596949 -0.209801
vn 0.584706 0.811182 0.010134
vn 0.668789 0.723610 -0.170619
vn 0.676230 0.711674 -0.190350
vn 0.584706 0.811182 0.010134
vn 0.000136 0.422537 -0.906346
vn 0.000136 0.422537 -0.906346
vn 0.000136 0.422537 -0.906346
vn 0.000136 0.422537 -0.906346
vn 0.000000 0.533867 0.845569
vn 0.000000 0.533867 0.845569
vn 0.000000 0.533867 0.845569
vn 0.000000 0.533867 0.845569
vn 0.000000 0.977717 -0.209928
vn 0.000000 0.977717 -0.209928
vn 0.000000 0.977717 -0.209928
vn 0.000000 0.977717 -0.209928
vn 0.000000 0.139667 -0.990199
vn 0.000000 0.139667 -0.990199
vn 0.000000 0.139667 -0.990199
vn 0.000000 0.139667 -0.990199
vn 0.971596 0.231373 -0.049679
vn 0.971596 0.231373 -0.049679
vn 0.971596 0.231373 -0.049679
vn 0.971596 0.231373 -0.049679
vn -0.971596 0.231374 -0.049679
vn -0.971596 0.231373 -0.049679
vn -0.971596 0.231374 -0.049679
vn -0.971596 0.231374 -0.049679
s off
f 2/1/1 4/2/2 3/3/3 1/4/4
f 23/5/5 24/6/6 25/7/7 26/8/8
f 8/9/9 20/10/10 21/11/11 6/12/12
f 7/13/13 8/9/14 12/14/15 9/15/16
f 11/16/17 12/17/18 8/18/19 6/19/20
f 7/20/21 9/21/22 10/22/23 5/23/24
f 10/22/25 9/21/26 13/24/27 14/25/28
f 27/26/29 28/27/30 29/28/31
f 15/29/32 16/30/33 12/17/34 11/16/35
f 12/14/36 16/31/37 13/32/38 9/15/39
f 14/25/40 13/24/41 1/4/42 3/3/43
f 30/33/44 31/34/45 27/26/46 32/35/47
f 2/1/48 16/30/49 15/29/50 4/2/51
f 16/31/52 2/36/53 1/37/54 13/32/55
f 29/28/56 28/27/57 33/38/58 34/39/59
f 19/40/60 20/10/61 8/9/62 7/13/63
f 5/41/64 18/42/65 19/40/66 7/13/67
f 18/42/68 21/11/69 20/10/70 19/40/71
f 22/43/72 21/11/73 18/42/74 17/44/75
f 24/6/76 31/34/77 25/7/78
f 27/26/79 31/34/80 24/6/81 28/27/82
f 21/45/83 22/46/84 24/6/85 23/5/86
f 11/47/87 6/48/88 26/8/89 25/7/90
f 6/48/91 21/45/92 23/5/93 26/8/94
f 10/49/95 14/50/96 27/26/97 29/28/98
f 4/51/99 15/52/100 31/34/101 30/33/102
f 14/50/103 3/53/104 32/35/105 27/26/106
f 3/53/107 4/51/108 30/33/109 32/35/110
f 17/54/111 18/55/112 33/38/113 28/27/114
f 18/55/115 5/56/116 34/39/117 33/38/118
f 5/56/119 10/49/120 29/28/121 34/39/122
f 15/52/123 11/47/124 25/7/125 31/34/126
f 22/46/127 17/54/128 28/27/129 24/6/130
f 35/57/131 36/58/132 38/59/133 37/60/134
f 37/60/135 38/59/136 40/61/137 39/62/138
f 39/62/139 40/61/140 42/63/141 41/64/142
f 36/58/143 42/65/144 40/66/145 38/59/146
f 41/67/147 35/57/148 37/60/149 39/68/150
