# This file uses centimeters as units for non-parametric coordinates.

v -1.225365 1.198534 -0.205446
v 1.225363 1.198534 -0.205446
v -1.225365 1.217391 -0.205446
v 1.225363 1.217391 -0.205446
v -1.225365 1.217391 -0.224303
v 1.225363 1.217391 -0.224303
v -1.225365 1.198534 -0.224303
v 1.225363 1.198534 -0.224303
v -1.225365 1.198534 0.227736
v 1.225363 1.198534 0.227736
v -1.225365 1.217391 0.227736
v 1.225363 1.217391 0.227736
v -1.225365 1.217391 0.208879
v 1.225363 1.217391 0.208879
v -1.225365 1.198534 0.208879
v 1.225363 1.198534 0.208879
v -1.294558 0.000000 0.275159
v 1.294558 0.000000 0.275159
v -1.294558 0.180967 0.275159
v 1.294558 0.180967 0.275159
v -1.294558 0.180967 -0.275159
v 1.294558 0.180967 -0.275159
v -1.294558 0.000000 -0.275159
v 1.294558 0.000000 -0.275159
v 1.294558 0.180967 -0.214874
v -1.294558 0.180967 -0.214874
v 1.294558 0.180967 0.214874
v -1.294558 0.180967 0.214874
v 1.294558 0.593690 0.214874
v -1.294558 0.593690 0.214874
v 1.294558 0.593690 -0.214874
v -1.294558 0.593690 -0.214874
v 1.294558 0.766372 0.259495
v -1.294558 0.766372 0.259495
v 1.294558 0.766372 -0.259495
v -1.294558 0.766372 -0.259495
v 1.294558 0.593690 0.259495
v -1.294558 0.593690 0.259495
v 1.294558 0.593690 -0.259495
v -1.294558 0.593690 -0.259495
v -1.225368 0.766372 0.259495
v -0.597757 0.593690 0.259495
v -0.597757 0.579594 0.214874
v -0.597757 0.180967 0.214874
v -0.597757 0.158455 0.275159
v -0.597757 0.000000 0.275159
v -0.597757 0.000000 -0.275159
v -0.597757 0.180967 -0.275159
v -0.597757 0.212807 -0.214874
v -0.597757 0.593690 -0.214874
v -0.616304 0.626273 -0.259495
v -1.225368 0.766372 -0.259495
v -1.225368 0.766372 -0.214874
v -1.225368 0.766372 0.214874
v 1.225374 0.766372 0.259495
v 0.586256 0.611171 0.259495
v 0.563444 0.593690 0.214874
v 0.134584 0.201164 0.214874
v 0.134584 0.180967 0.275159
v 0.134584 0.000000 0.275159
v 0.134584 0.000000 -0.275159
v 0.134584 0.160999 -0.275159
v 0.134584 0.180967 -0.214874
v 0.563444 0.593690 -0.214874
v 0.563444 0.593690 -0.259495
v 1.225374 0.766372 -0.259495
v 1.225374 0.766372 -0.214874
v 1.225374 0.766372 0.214874
v 1.294558 1.241049 0.259495
v 1.225374 1.241049 0.259495
v 1.294558 1.241049 -0.259495
v 1.225374 1.241049 -0.259495
v -1.225368 1.241049 -0.259495
v -1.294558 1.241049 -0.259495
v -1.225368 1.241049 0.259495
v -1.294558 1.241049 0.259495
v 1.198397 0.766372 0.189811
v -1.198391 0.766372 0.189811
v 1.198397 0.766372 -0.189811
v -1.198391 0.766372 -0.189811
v -0.139765 0.734774 -0.259495
v 0.533960 0.766372 -0.240238
v 0.533422 0.766372 -0.189811
v 0.525351 0.766372 0.189811
v 0.524817 0.766372 0.237360
v 0.525919 0.734960 0.259495
vt 0.126137 0.304212
vt 0.126137 0.304212
vt 0.126137 0.304212
vt 0.126137 0.304212
vt 0.126137 0.304212
vt 0.126137 0.304212
vt 0.126137 0.304212
vt 0.126137 0.304212
vt 0.126137 0.304212
vt 0.126137 0.304212
vt 0.126137 0.304212
vt 0.126137 0.304212
vt 0.126137 0.304212
vt 0.126137 0.304212
vt 0.126137 0.304212
vt 0.126137 0.304212
vt 0.126137 0.304212
vt 0.126137 0.304212
vt 0.126137 0.304212
vt 0.126137 0.304212
vt 0.126137 0.304212
vt 0.126137 0.304212
vt 0.126137 0.304212
vt 0.126137 0.304212
vt 0.126137 0.304212
vt 0.126137 0.304212
vt 0.126137 0.304212
vt 0.126137 0.304212
vt 0.135377 0.138909
vt 0.135378 0.138909
vt 0.135378 0.138909
vt 0.135377 0.138909
vt 0.135378 0.138909
vt 0.135377 0.138909
vt 0.135377 0.138909
vt 0.135378 0.138909
vt 0.135378 0.138909
vt 0.135377 0.138909
vt 0.135378 0.138909
vt 0.135378 0.138909
vt 0.135378 0.138909
vt 0.135378 0.138909
vt 0.135377 0.138909
vt 0.135378 0.138909
vt 0.135378 0.138909
vt 0.135378 0.138909
vt 0.135378 0.138909
vt 0.135377 0.138909
vt 0.135378 0.138909
vt 0.135378 0.138909
vt 0.135377 0.138909
vt 0.135378 0.138909
vt 0.135378 0.138909
vt 0.135377 0.138909
vt 0.135378 0.138909
vt 0.135377 0.138909
vt 0.124390 0.139346
vt 0.124390 0.139346
vt 0.124390 0.139346
vt 0.124390 0.139346
vt 0.135378 0.138909
vt 0.135378 0.138909
vt 0.135378 0.138909
vt 0.135378 0.138909
vt 0.124390 0.139346
vt 0.124390 0.139346
vt 0.124390 0.139346
vt 0.124390 0.139346
vt 0.135378 0.138909
vt 0.135378 0.138909
vt 0.135378 0.138909
vt 0.135378 0.138909
vt 0.135377 0.138909
vt 0.135378 0.138909
vt 0.135378 0.138909
vt 0.135377 0.138909
vt 0.135378 0.138909
vt 0.135378 0.138909
vt 0.135377 0.138909
vt 0.135377 0.138909
vt 0.135378 0.138909
vt 0.135378 0.138909
vt 0.135377 0.138909
vt 0.135378 0.138909
vt 0.135377 0.138909
vt 0.135378 0.138909
vt 0.135378 0.138909
vt 0.135378 0.138909
vt 0.135378 0.138909
vt 0.124390 0.139346
vt 0.124390 0.139346
vt 0.124390 0.139346
vt 0.124390 0.139346
vt 0.135378 0.138909
vt 0.135378 0.138909
vt 0.135378 0.138909
vt 0.135378 0.138909
vt 0.135378 0.138909
vt 0.135378 0.138909
vt 0.135378 0.138909
vt 0.135378 0.138909
vt 0.135378 0.138909
vt 0.135378 0.138909
vt 0.135378 0.138909
vt 0.135378 0.138909
vt 0.124390 0.139346
vt 0.124390 0.139346
vt 0.124390 0.139346
vt 0.124390 0.139346
vt 0.135378 0.138909
vt 0.135378 0.138909
vt 0.135378 0.138909
vt 0.135378 0.138909
vt 0.135378 0.138909
vt 0.135378 0.138909
vt 0.135378 0.138909
vt 0.135377 0.138909
vt 0.124390 0.139346
vt 0.124390 0.139346
vt 0.124390 0.139346
vt 0.124390 0.139346
vt 0.124390 0.139346
vt 0.124390 0.139346
vt 0.124390 0.139346
vt 0.124390 0.139346
vt 0.135377 0.138909
vt 0.135377 0.138909
vt 0.135377 0.138909
vt 0.390217 0.009758
vt 0.390217 0.009758
vt 0.390217 0.009758
vt 0.390217 0.009758
vt 0.135377 0.138909
vt 0.135377 0.138909
vt 0.135378 0.138909
vt 0.135378 0.138909
vt 0.135377 0.138909
vt 0.135377 0.138909
vt 0.135377 0.138909
vt 0.135377 0.138909
vt 0.135378 0.138909
vt 0.135378 0.138909
vt 0.390217 0.009758
vt 0.390217 0.009758
vn 0.000000 0.000000 1.000000
vn 0.000000 0.000000 1.000000
vn 0.000000 0.000000 1.000000
vn 0.000000 0.000000 1.000000
vn 0.000000 1.000000 0.000000
vn 0.000000 1.000000 0.000000
vn 0.000000 1.000000 0.000000
vn 0.000000 1.000000 0.000000
vn 0.000000 0.000000 -1.000000
vn 0.000000 0.000000 -1.000000
vn 0.000000 0.000000 -1.000000
vn 0.000000 0.000000 -1.000000
vn 0.000000 -1.000000 0.000000
vn 0.000000 -1.000000 0.000000
vn 0.000000 -1.000000 0.000000
vn 0.000000 -1.000000 0.000000
vn 1.000000 0.000000 0.000000
vn 1.000000 0.000000 0.000000
vn 1.000000 0.000000 0.000000
vn 1.000000 0.000000 0.000000
vn -1.000000 0.000000 0.000000
vn -1.000000 0.000000 0.000000
vn -1.000000 0.000000 0.000000
vn -1.000000 0.000000 0.000000
vn 0.000000 0.000000 1.000000
vn 0.000000 0.000000 1.000000
vn 0.000000 0.000000 1.000000
vn 0.000000 0.000000 1.000000
vn 0.000000 1.000000 0.000000
vn 0.000000 1.000000 0.000000
vn 0.000000 1.000000 0.000000
vn 0.000000 1.000000 0.000000
vn 0.000000 0.000000 -1.000000
vn 0.000000 0.000000 -1.000000
vn 0.000000 0.000000 -1.000000
vn 0.000000 0.000000 -1.000000
vn 0.000000 -1.000000 0.000000
vn 0.000000 -1.000000 0.000000
vn 0.000000 -1.000000 0.000000
vn 0.000000 -1.000000 0.000000
vn 1.000000 0.000000 0.000000
vn 1.000000 0.000000 0.000000
vn 1.000000 0.000000 0.000000
vn 1.000000 0.000000 0.000000
vn -1.000000 0.000000 0.000000
vn -1.000000 0.000000 0.000000
vn -1.000000 0.000000 0.000000
vn -1.000000 0.000000 0.000000
vn 0.000000 0.000000 1.000000
vn 0.000000 0.000000 1.000000
vn 0.000000 0.000000 1.000000
vn 0.000000 0.000000 1.000000
vn 0.008586 0.986223 0.165201
vn 0.008586 0.986223 0.165201
vn 0.008586 0.986223 0.165201
vn 0.008586 0.986223 0.165201
vn -0.000000 0.000000 -1.000000
vn -0.000000 0.000000 -1.000000
vn -0.000000 0.000000 -1.000000
vn -0.000000 0.000000 -1.000000
vn 1.000000 0.000000 0.000000
vn 1.000000 0.000000 0.000000
vn 1.000000 0.000000 0.000000
vn -1.000000 0.000000 0.000000
vn -1.000000 0.000000 0.000000
vn -1.000000 0.000000 0.000000
vn -0.008491 0.986526 -0.163381
vn -0.008491 0.986526 -0.163381
vn -0.008491 0.986526 -0.163381
vn -0.008491 0.986526 -0.163381
vn -1.000000 0.000000 0.000000
vn -1.000000 0.000000 0.000000
vn -1.000000 0.000000 0.000000
vn 1.000000 0.000000 0.000000
vn 1.000000 0.000000 0.000000
vn 1.000000 0.000000 0.000000
vn 0.000000 1.000000 0.000000
vn 0.000000 1.000000 0.000000
vn 0.000000 1.000000 0.000000
vn 0.000000 1.000000 0.000000
vn -1.000000 0.000001 0.000000
vn -1.000000 0.000001 0.000000
vn -1.000000 0.000001 0.000000
vn -1.000000 0.000001 0.000000
vn 0.000000 -1.000000 0.000000
vn 0.000000 -1.000000 0.000000
vn 0.000000 -1.000000 0.000000
vn 0.000000 -1.000000 0.000000
vn 1.000000 0.000001 0.000000
vn 1.000000 0.000001 0.000000
vn 1.000000 0.000001 0.000000
vn 1.000000 0.000001 0.000000
vn 0.000000 0.000000 1.000000
vn 0.000000 0.000000 1.000000
vn 0.000000 0.000000 1.000000
vn 0.000000 0.000000 1.000000
vn 1.000000 0.000000 0.000000
vn 1.000000 0.000000 0.000000
vn 1.000000 0.000000 0.000000
vn 1.000000 0.000000 0.000000
vn 0.000000 0.000000 -1.000000
vn 0.000000 0.000000 -1.000000
vn 0.000000 0.000000 -1.000000
vn 0.000000 0.000000 -1.000000
vn -1.000000 0.000000 0.000000
vn -1.000000 0.000000 0.000000
vn -1.000000 0.000000 0.000000
vn -1.000000 0.000000 0.000000
vn 0.000000 0.000000 1.000000
vn 0.000000 0.000000 1.000000
vn 0.000000 0.000000 1.000000
vn 0.000000 0.000000 1.000000
vn 1.000000 -0.000001 0.000000
vn 1.000000 -0.000001 0.000000
vn 1.000000 -0.000001 0.000000
vn 1.000000 -0.000001 0.000000
vn 0.000000 0.000000 -1.000000
vn 0.000000 0.000000 -1.000000
vn 0.000000 0.000000 -1.000000
vn 0.000000 0.000000 -1.000000
vn -1.000000 -0.000001 0.000000
vn -1.000000 -0.000001 0.000000
vn -1.000000 -0.000001 0.000000
vn -1.000000 -0.000001 0.000000
vn -0.011910 -0.980702 0.195147
vn -0.011910 -0.980702 0.195147
vn -0.011910 -0.980702 0.195147
vn -0.011910 -0.980702 0.195147
vn 1.000000 0.000000 0.000000
vn 1.000000 0.000000 0.000000
vn 1.000000 0.000000 0.000000
vn -1.000000 0.000000 0.000000
vn -1.000000 0.000000 0.000000
vn -1.000000 0.000000 0.000000
vn 0.000000 -1.000000 0.000000
vn 0.000000 -1.000000 0.000000
vn 0.000000 -1.000000 0.000000
vn 0.000000 -1.000000 0.000000
vn -1.000000 0.000000 0.000000
vn -1.000000 0.000000 0.000000
vn -1.000000 0.000000 0.000000
vn 1.000000 0.000000 0.000000
vn 1.000000 0.000000 0.000000
vn 1.000000 0.000000 0.000000
vn 0.000000 0.000000 1.000000
vn 0.000000 0.000000 1.000000
vn 0.000000 0.000000 1.000000
vn 0.000000 0.000000 1.000000
vn -0.009990 -0.987705 0.156008
vn -0.009990 -0.987705 0.156008
vn -0.009990 -0.987705 0.156008
vn -0.009990 -0.987705 0.156008
vn 0.000000 0.000000 1.000000
vn 0.000000 0.000000 1.000000
vn 0.000000 0.000000 1.000000
vn 0.000000 0.000000 1.000000
vn 0.015878 0.982887 0.183522
vn 0.015878 0.982887 0.183522
vn 0.015878 0.982887 0.183522
vn 0.015878 0.982887 0.183522
vn 0.000000 0.000000 1.000000
vn 0.000000 0.000000 1.000000
vn 0.000000 0.000000 1.000000
vn 0.000000 0.000000 1.000000
vn 0.000000 -1.000000 0.000000
vn 0.000000 -1.000000 0.000000
vn 0.000000 -1.000000 0.000000
vn 0.000000 -1.000000 0.000000
vn 0.000000 0.000000 -1.000000
vn 0.000000 0.000000 -1.000000
vn 0.000000 0.000000 -1.000000
vn 0.000000 0.000000 -1.000000
vn -0.022085 0.966619 -0.255265
vn -0.022085 0.966619 -0.255265
vn -0.022085 0.966619 -0.255265
vn -0.022085 0.966619 -0.255265
vn 0.000000 0.000000 -1.000000
vn 0.000000 0.000000 -1.000000
vn 0.000000 0.000000 -1.000000
vn 0.000000 0.000000 -1.000000
vn 0.022218 -0.937622 -0.346947
vn 0.022218 -0.937622 -0.346947
vn 0.022218 -0.937622 -0.346947
vn 0.022218 -0.937622 -0.346947
vn 0.000000 0.000000 -1.000000
vn 0.000000 0.000000 -1.000000
vn 0.000000 0.000000 -1.000000
vn 0.000000 0.000000 -1.000000
vn 0.000000 1.000000 0.000000
vn 0.000000 1.000000 0.000000
vn 0.000000 1.000000 0.000000
vn 0.000000 1.000000 0.000000
vn -0.000000 0.000000 1.000000
vn -0.000000 0.000000 1.000000
vn -0.000000 0.000000 1.000000
vn 0.012706 -0.943667 0.330653
vn 0.012706 -0.943667 0.330653
vn 0.012706 -0.943667 0.330653
vn 0.012706 -0.943667 0.330653
vn -0.000000 0.000000 1.000000
vn -0.000000 0.000000 1.000000
vn -0.000000 0.000000 1.000000
vn -0.000000 0.000000 1.000000
vn -0.027475 0.942254 0.333771
vn -0.027475 0.942254 0.333771
vn -0.027475 0.942254 0.333771
vn -0.027475 0.942254 0.333771
vn 0.000000 0.000000 1.000000
vn 0.000000 0.000000 1.000000
vn 0.000000 0.000000 1.000000
vn 0.000000 0.000000 1.000000
vn 0.000000 -1.000000 0.000000
vn 0.000000 -1.000000 0.000000
vn 0.000000 -1.000000 0.000000
vn 0.000000 -1.000000 0.000000
vn 0.000000 0.000000 -1.000000
vn 0.000000 0.000000 -1.000000
vn 0.000000 0.000000 -1.000000
vn 0.000000 0.000000 -1.000000
vn 0.032481 0.918287 -0.394581
vn 0.032481 0.918287 -0.394581
vn 0.032481 0.918287 -0.394581
vn 0.032481 0.918287 -0.394582
vn 0.000000 0.000000 -1.000000
vn 0.000000 0.000000 -1.000000
vn 0.000000 0.000000 -1.000000
vn 0.000000 0.000000 -1.000000
vn -0.013086 -0.940143 -0.340530
vn -0.013086 -0.940143 -0.340530
vn -0.013086 -0.940143 -0.340530
vn -0.013086 -0.940143 -0.340530
vn -0.000000 0.000000 -1.000000
vn -0.000000 0.000000 -1.000000
vn -0.000000 0.000000 -1.000000
vn -0.009946 0.934007 -0.357115
vn -0.009946 0.934007 -0.357115
vn -0.009946 0.934007 -0.357115
vn -0.009946 0.934007 -0.357115
vn 0.000000 1.000000 -0.000000
vn 0.000000 1.000000 -0.000000
vn 0.000000 1.000000 -0.000000
vn 0.000000 1.000000 -0.000000
vn -0.013458 0.904669 0.425903
vn -0.013458 0.904669 0.425903
vn -0.013458 0.904669 0.425903
vn -0.013458 0.904669 0.425903
vn 1.000000 0.000000 0.000000
vn 1.000000 0.000000 0.000000
vn 1.000000 0.000000 0.000000
vn 1.000000 0.000000 0.000000
vn -1.000000 -0.000000 0.000000
vn -1.000000 -0.000000 0.000000
vn -1.000000 -0.000000 0.000000
vn -1.000000 -0.000000 0.000000
vn -1.000000 0.000000 0.000000
vn -1.000000 0.000000 0.000000
vn -1.000000 0.000000 0.000000
vn 0.000000 0.000000 1.000000
vn 0.000000 0.000000 1.000000
vn 0.000000 0.000000 1.000000
vn 0.000000 0.000000 1.000000
vn 0.000000 0.000000 -1.000000
vn 0.000000 0.000000 -1.000000
vn 0.000000 0.000000 -1.000000
vn 0.000000 0.000000 -1.000000
vn -1.000000 0.000000 0.000000
vn -1.000000 0.000000 0.000000
vn -1.000000 0.000000 0.000000
vn 1.000000 0.000000 0.000000
vn 1.000000 0.000000 0.000000
vn 1.000000 0.000000 0.000000
vn 0.000000 0.000000 -1.000000
vn 0.000000 0.000000 -1.000000
vn 0.000000 0.000000 -1.000000
vn 0.000000 0.000000 -1.000000
vn 1.000000 0.000000 0.000000
vn 1.000000 0.000000 0.000000
vn 1.000000 0.000000 0.000000
vn 1.000000 0.000000 0.000000
vn -1.000000 0.000000 0.000000
vn -1.000000 0.000000 0.000000
vn -1.000000 0.000000 0.000000
vn -1.000000 0.000000 0.000000
vn 1.000000 0.000000 0.000000
vn 1.000000 0.000000 0.000000
vn 1.000000 0.000000 0.000000
vn 0.000000 0.000000 1.000000
vn 0.000000 0.000000 1.000000
vn 0.000000 0.000000 1.000000
vn 0.000000 0.000000 1.000000
vn 0.000000 1.000000 0.000002
vn 0.000000 1.000000 0.000002
vn 0.000000 1.000000 0.000002
vn 0.000000 1.000000 0.000002
vn 0.000000 1.000000 0.000000
vn 0.000000 1.000000 0.000000
vn 0.000000 1.000000 0.000000
vn 0.000000 1.000000 0.000000
vn 0.000000 1.000000 0.000002
vn 0.000000 1.000000 0.000002
vn 0.000000 1.000000 0.000002
vn 0.000000 1.000000 0.000002
vn 0.000000 1.000000 0.000000
vn 0.000000 1.000000 0.000000
vn 0.000000 1.000000 0.000000
vn 0.000000 1.000000 0.000000
vn 0.000000 0.000000 -1.000000
vn 0.000000 0.000000 -1.000000
vn 0.000000 0.000000 -1.000000
vn 0.000000 0.000000 -1.000000
vn 0.005342 0.872782 -0.488081
vn 0.005342 0.872782 -0.488081
vn 0.005342 0.872782 -0.488081
vn 0.005342 0.872782 -0.488081
vn 0.000000 1.000000 0.000000
vn 0.000000 1.000000 0.000000
vn 0.000000 1.000000 0.000000
vn 0.000000 1.000000 0.000000
vn 0.000000 1.000000 0.000000
vn 0.000000 1.000000 0.000000
vn 0.000000 1.000000 0.000000
vn 0.000000 1.000000 0.000000
vn 0.000000 1.000000 0.000000
vn 0.000000 1.000000 0.000000
vn 0.000000 1.000000 0.000000
vn 0.000000 1.000000 0.000000
vn 0.005384 0.904857 0.425682
vn 0.005384 0.904857 0.425682
vn 0.005384 0.904857 0.425682
vn 0.005384 0.904857 0.425682
vn 0.000000 0.000000 1.000000
vn 0.000000 0.000000 1.000000
vn 0.000000 0.000000 1.000000
vn 0.000000 0.000000 1.000000
s off
f 1/1/1 2/2/2 4/4/3 3/3/4
f 3/3/5 4/4/6 6/6/7 5/5/8
f 5/5/9 6/6/10 8/8/11 7/7/12
f 7/7/13 8/8/14 2/10/15 1/9/16
f 2/2/17 8/11/18 6/12/19 4/4/20
f 7/13/21 1/1/22 3/3/23 5/14/24
f 9/15/25 10/16/26 12/17/27 11/18/28
f 11/18/29 12/17/30 14/19/31 13/20/32
f 13/20/33 14/19/34 16/21/35 15/22/36
f 15/22/37 16/21/38 10/23/39 9/24/40
f 10/16/41 16/25/42 14/26/43 12/17/44
f 15/27/45 9/15/46 11/18/47 13/28/48
f 60/29/49 18/30/50 20/31/51 59/32/52
f 59/32/53 20/31/54 27/33/55 58/34/56
f 62/35/57 22/36/58 24/37/59 61/38/60
f 18/30/61 27/39/62 20/31/63
f 17/40/64 19/41/65 28/42/66
f 63/43/67 25/44/68 22/36/69 62/35/70
f 23/45/71 26/46/72 21/47/73
f 25/48/74 24/49/75 22/50/76
f 70/51/77 69/52/78 71/53/79 72/54/80
f 23/45/81 17/40/82 28/42/83 26/46/84
f 61/38/85 24/37/86 18/55/87 60/56/88
f 27/39/89 18/30/90 24/49/91 25/48/92
f 58/57/93 27/58/94 29/59/95 57/60/96
f 27/61/97 25/62/98 31/63/99 29/64/100
f 25/65/101 63/66/102 64/67/103 31/68/104
f 26/69/105 28/70/106 30/71/107 32/72/108
f 56/73/109 37/74/110 33/75/111 55/76/112
f 29/64/113 31/63/114 35/77/115 33/75/116
f 39/78/117 65/79/118 66/80/119 35/77/120
f 32/72/121 30/71/122 34/81/123 36/82/124
f 57/83/125 29/64/126 37/74/127 56/73/128
f 29/64/129 33/75/130 37/74/131
f 34/81/132 30/71/133 38/84/134
f 31/63/135 64/85/136 65/79/137 39/78/138
f 32/72/139 36/82/140 40/86/141
f 35/77/142 31/63/143 39/78/144
f 38/84/145 42/87/146 41/88/147 34/81/148
f 30/71/149 43/89/150 42/87/151 38/84/152
f 28/90/153 44/91/154 43/92/155 30/93/156
f 19/41/157 45/94/158 44/95/159 28/96/160
f 17/40/161 46/97/162 45/94/163 19/41/164
f 23/98/165 47/99/166 46/100/167 17/101/168
f 21/102/169 48/103/170 47/99/171 23/98/172
f 26/104/173 49/105/174 48/103/175 21/102/176
f 50/106/177 49/107/178 26/108/179 32/109/180
f 51/110/181 50/111/182 32/72/183 40/86/184
f 52/112/185 51/110/186 40/86/187 36/82/188
f 76/113/189 75/114/190 73/115/191 74/116/192
f 86/117/193 56/73/194 55/76/195
f 43/89/196 57/83/197 56/73/198 42/87/199
f 44/118/200 58/119/201 57/120/202 43/121/203
f 45/94/204 59/32/205 58/34/206 44/95/207
f 46/97/208 60/29/209 59/32/210 45/94/211
f 47/99/212 61/38/213 60/56/214 46/100/215
f 48/103/216 62/35/217 61/38/218 47/99/219
f 49/105/220 63/43/221 62/35/222 48/103/223
f 64/122/224 63/123/225 49/124/226 50/125/227
f 65/79/228 64/85/229 50/111/230 51/110/231
f 66/80/232 65/79/233 81/126/234
f 81/126/235 82/127/236 67/128/237 66/80/238
f 83/129/239 84/130/240 77/131/241 79/132/242
f 55/76/243 68/133/244 85/134/245 86/117/246
f 33/75/247 35/77/248 71/53/249 69/52/250
f 67/128/251 68/133/252 70/51/253 72/54/254
f 68/133/255 55/76/256 70/51/257
f 55/76/258 33/75/259 69/52/260 70/51/261
f 35/77/262 66/80/263 72/54/264 71/53/265
f 66/80/266 67/128/267 72/54/268
f 53/135/269 52/112/270 73/115/271
f 52/112/272 36/82/273 74/116/274 73/115/275
f 54/136/276 53/135/277 73/115/278 75/114/279
f 36/82/280 34/81/281 76/113/282 74/116/283
f 41/88/284 54/136/285 75/114/286
f 34/81/287 41/88/288 75/114/289 76/113/290
f 84/137/291 85/134/292 68/133/293 77/138/294
f 68/133/295 67/128/296 79/139/297 77/138/298
f 67/128/299 82/127/300 83/140/301 79/139/302
f 53/135/303 54/136/304 78/141/305 80/142/306
f 81/126/307 65/79/308 51/110/309 52/112/310
f 53/135/311 82/127/312 81/126/313 52/112/314
f 83/140/315 82/127/316 53/135/317 80/142/318
f 78/143/319 84/130/320 83/129/321 80/144/322
f 54/136/323 85/134/324 84/137/325 78/141/326
f 86/117/327 85/134/328 54/136/329 41/88/330
f 42/87/331 56/73/332 86/117/333 41/88/334
