# This file uses centimeters as units for non-parametric coordinates.

v -0.566809 0.577827 0.152940
v -0.490317 0.577827 0.152940
v -0.566809 0.646483 0.152940
v -0.490317 0.646483 0.152940
v -0.566809 0.646483 0.019770
v -0.490317 0.646483 0.019770
v -0.566809 0.577827 0.019770
v -0.490317 0.577827 0.019770
v -0.566809 1.380219 0.152940
v -0.490317 1.380219 0.152940
v -0.566809 1.448875 0.152940
v -0.490317 1.448875 0.152940
v -0.566809 1.448875 0.019770
v -0.490317 1.448875 0.019770
v -0.566809 1.380219 0.019770
v -0.490317 1.380219 0.019770
v 0.566809 1.380219 0.152940
v 0.490317 1.380219 0.152940
v 0.566809 1.448875 0.152940
v 0.490317 1.448875 0.152940
v 0.566809 1.448875 0.019770
v 0.490317 1.448875 0.019770
v 0.566809 1.380219 0.019770
v 0.490317 1.380219 0.019770
v 0.566809 0.577827 0.152940
v 0.490317 0.577827 0.152940
v 0.566809 0.646483 0.152940
v 0.490317 0.646483 0.152940
v 0.566809 0.646483 0.019770
v 0.490317 0.646483 0.019770
v 0.566809 0.577827 0.019770
v 0.490317 0.577827 0.019770
v -0.655413 0.418363 0.047454
v -0.655413 0.507472 0.047454
v -0.655413 0.507472 -0.040656
v -0.655413 0.418363 -0.040656
v -0.286695 0.507472 0.047454
v -0.286695 0.507472 -0.040656
v -0.349545 0.418363 -0.040656
v -0.349545 0.418363 0.047454
v -0.286695 0.175486 0.047454
v -0.286695 0.175486 -0.040656
v -0.351859 0.086376 -0.040656
v -0.351859 0.086376 0.047454
v -0.287234 0.086376 -0.040656
v -0.287234 0.086376 0.047454
v -0.351859 0.051499 -0.040656
v -0.351859 0.051499 0.047454
v -0.287234 0.051499 -0.040656
v -0.287234 0.051499 0.047454
v 0.655413 0.418363 0.047454
v 0.655413 0.507472 0.047454
v 0.655413 0.507472 -0.040656
v 0.655413 0.418363 -0.040656
v 0.286695 0.507472 0.047454
v 0.286695 0.507472 -0.040656
v 0.349545 0.418363 -0.040656
v 0.349545 0.418363 0.047454
v 0.286695 0.175486 0.047454
v 0.286695 0.175486 -0.040656
v 0.351859 0.086376 -0.040656
v 0.351859 0.086376 0.047454
v 0.287234 0.086376 -0.040656
v 0.287234 0.086376 0.047454
v 0.351859 0.051499 -0.040656
v 0.351859 0.051499 0.047454
v 0.287234 0.051499 -0.040656
v 0.287234 0.051499 0.047454
v -0.351977 0.000000 0.167808
v 0.351977 0.000000 0.167808
v -0.351977 0.051499 0.167808
v 0.351977 0.051499 0.167808
v -0.351977 0.051499 -0.167808
v 0.351977 0.051499 -0.167808
v -0.351977 0.000000 -0.167808
v 0.351977 0.000000 -0.167808
v -0.273993 0.051499 0.125207
v 0.273993 0.051499 0.125207
v 0.273993 0.051499 -0.124721
v -0.273993 0.051499 -0.124721
v -0.172291 0.029761 0.062727
v 0.172291 0.029761 0.062727
v 0.172291 0.029761 -0.062242
v -0.172291 0.029761 -0.062242
v -0.679333 0.418363 0.028975
v -0.631494 0.418363 0.028975
v -0.679333 1.518195 0.028975
v -0.631494 1.518195 0.028975
v -0.679333 1.518195 -0.022177
v -0.631494 1.518195 -0.022177
v -0.679333 0.418363 -0.022177
v -0.631494 0.418363 -0.022177
v -0.679333 1.564530 0.028975
v -0.631494 1.564530 0.028975
v -0.631494 1.564530 -0.022177
v -0.679333 1.564530 -0.022177
v 0.679333 0.418363 0.028975
v 0.631494 0.418363 0.028975
v 0.679333 1.518195 0.028975
v 0.631494 1.518195 0.028975
v 0.679333 1.518195 -0.022177
v 0.631494 1.518195 -0.022177
v 0.679333 0.418363 -0.022177
v 0.631494 0.418363 -0.022177
v 0.679333 1.564530 0.028975
v 0.631494 1.564530 0.028975
v 0.631494 1.564530 -0.022177
v 0.679333 1.564530 -0.022177
vt 0.132967 0.329069
vt 0.132967 0.329069
vt 0.132967 0.329069
vt 0.132967 0.329069
vt 0.132967 0.329069
vt 0.132967 0.329069
vt 0.132967 0.329069
vt 0.132967 0.329069
vt 0.132967 0.329069
vt 0.132967 0.329069
vt 0.132967 0.329069
vt 0.132967 0.329069
vt 0.132967 0.329069
vt 0.132967 0.329069
vt 0.132967 0.329069
vt 0.132967 0.329069
vt 0.132967 0.329069
vt 0.132967 0.329069
vt 0.132967 0.329069
vt 0.132967 0.329069
vt 0.132967 0.329069
vt 0.132967 0.329069
vt 0.132967 0.329069
vt 0.132967 0.329069
vt 0.132967 0.329069
vt 0.132967 0.329069
vt 0.132967 0.329069
vt 0.132967 0.329069
vt 0.132967 0.329069
vt 0.132967 0.329069
vt 0.132967 0.329069
vt 0.132967 0.329069
vt 0.132967 0.329069
vt 0.132967 0.329069
vt 0.132967 0.329069
vt 0.132967 0.329069
vt 0.132967 0.329069
vt 0.132967 0.329069
vt 0.132967 0.329069
vt 0.132967 0.329069
vt 0.132967 0.329069
vt 0.132967 0.329069
vt 0.132967 0.329069
vt 0.132967 0.329069
vt 0.132967 0.329069
vt 0.132967 0.329069
vt 0.132967 0.329069
vt 0.132967 0.329069
vt 0.132967 0.329069
vt 0.132967 0.329069
vt 0.132967 0.329069
vt 0.132967 0.329069
vt 0.132967 0.329069
vt 0.132967 0.329069
vt 0.132967 0.329069
vt 0.132967 0.329069
vt 0.131636 0.329069
vt 0.131637 0.329069
vt 0.131637 0.329069
vt 0.131636 0.329069
vt 0.131637 0.329069
vt 0.131636 0.329069
vt 0.131637 0.329069
vt 0.131636 0.329069
vt 0.131637 0.329069
vt 0.131637 0.329069
vt 0.131637 0.329069
vt 0.131637 0.329069
vt 0.131637 0.329069
vt 0.131637 0.329069
vt 0.131637 0.329069
vt 0.131637 0.329069
vt 0.131637 0.329069
vt 0.131637 0.329069
vt 0.131637 0.329069
vt 0.131637 0.329069
vt 0.131637 0.329069
vt 0.131637 0.329069
vt 0.131636 0.329069
vt 0.131636 0.329069
vt 0.131637 0.329069
vt 0.131637 0.329069
vt 0.131636 0.329069
vt 0.131637 0.329069
vt 0.131636 0.329069
vt 0.131637 0.329069
vt 0.131637 0.329069
vt 0.131637 0.329069
vt 0.131637 0.329069
vt 0.131637 0.329069
vt 0.131637 0.329069
vt 0.131637 0.329069
vt 0.089727 0.326408
vt 0.089727 0.326408
vt 0.089727 0.326408
vt 0.089727 0.326408
vt 0.089727 0.326408
vt 0.089727 0.326408
vt 0.089727 0.326408
vt 0.089727 0.326408
vt 0.089727 0.326408
vt 0.089727 0.326408
vt 0.089727 0.326408
vt 0.089727 0.326408
vt 0.089727 0.326408
vt 0.089727 0.326408
vt 0.089727 0.326408
vt 0.089727 0.326408
vt 0.131636 0.329069
vt 0.131636 0.329069
vt 0.131636 0.329069
vt 0.131636 0.329069
vt 0.131636 0.329069
vt 0.131636 0.329069
vt 0.131636 0.329069
vt 0.131636 0.329069
vt 0.131636 0.329069
vt 0.131636 0.329069
vt 0.131636 0.329069
vt 0.131636 0.329069
vt 0.131636 0.329069
vt 0.131636 0.329069
vt 0.131636 0.329069
vt 0.131636 0.329069
vt 0.131636 0.329069
vt 0.131636 0.329069
vt 0.131636 0.329069
vt 0.131636 0.329069
vt 0.131636 0.329069
vt 0.131636 0.329069
vt 0.131636 0.329069
vt 0.131636 0.329069
vn 0.000000 0.000000 1.000000
vn 0.000000 0.000000 1.000000
vn 0.000000 0.000000 1.000000
vn 0.000000 0.000000 1.000000
vn 0.000000 1.000000 0.000000
vn 0.000000 1.000000 0.000000
vn 0.000000 1.000000 0.000000
vn 0.000000 1.000000 0.000000
vn 0.000000 0.000000 -1.000000
vn 0.000000 0.000000 -1.000000
vn 0.000000 0.000000 -1.000000
vn 0.000000 0.000000 -1.000000
vn 0.000000 -1.000000 0.000000
vn 0.000000 -1.000000 0.000000
vn 0.000000 -1.000000 0.000000
vn 0.000000 -1.000000 0.000000
vn 1.000000 0.000000 0.000000
vn 1.000000 0.000000 0.000000
vn 1.000000 0.000000 0.000000
vn 1.000000 0.000000 0.000000
vn -1.000000 0.000000 0.000000
vn -1.000000 0.000000 0.000000
vn -1.000000 0.000000 0.000000
vn -1.000000 0.000000 0.000000
vn 0.000000 0.000000 1.000000
vn 0.000000 0.000000 1.000000
vn 0.000000 0.000000 1.000000
vn 0.000000 0.000000 1.000000
vn 0.000000 1.000000 0.000000
vn 0.000000 1.000000 0.000000
vn 0.000000 1.000000 0.000000
vn 0.000000 1.000000 0.000000
vn 0.000000 0.000000 -1.000000
vn 0.000000 0.000000 -1.000000
vn 0.000000 0.000000 -1.000000
vn 0.000000 0.000000 -1.000000
vn 0.000000 -1.000000 0.000000
vn 0.000000 -1.000000 0.000000
vn 0.000000 -1.000000 0.000000
vn 0.000000 -1.000000 0.000000
vn 1.000000 0.000000 0.000000
vn 1.000000 0.000000 0.000000
vn 1.000000 0.000000 0.000000
vn 1.000000 0.000000 0.000000
vn -1.000000 0.000000 0.000000
vn -1.000000 0.000000 0.000000
vn -1.000000 0.000000 0.000000
vn -1.000000 0.000000 0.000000
vn 0.000000 0.000000 1.000000
vn 0.000000 0.000000 1.000000
vn 0.000000 0.000000 1.000000
vn 0.000000 0.000000 1.000000
vn 0.000000 1.000000 0.000000
vn 0.000000 1.000000 0.000000
vn 0.000000 1.000000 0.000000
vn 0.000000 1.000000 0.000000
vn 0.000000 0.000000 -1.000000
vn 0.000000 0.000000 -1.000000
vn 0.000000 0.000000 -1.000000
vn 0.000000 0.000000 -1.000000
vn 0.000000 -1.000000 0.000000
vn 0.000000 -1.000000 0.000000
vn 0.000000 -1.000000 0.000000
vn 0.000000 -1.000000 0.000000
vn -1.000000 0.000000 0.000000
vn -1.000000 0.000000 0.000000
vn -1.000000 0.000000 0.000000
vn -1.000000 0.000000 0.000000
vn 1.000000 0.000000 0.000000
vn 1.000000 0.000000 0.000000
vn 1.000000 0.000000 0.000000
vn 1.000000 0.000000 0.000000
vn 0.000000 0.000000 1.000000
vn 0.000000 0.000000 1.000000
vn 0.000000 0.000000 1.000000
vn 0.000000 0.000000 1.000000
vn 0.000000 1.000000 0.000000
vn 0.000000 1.000000 0.000000
vn 0.000000 1.000000 0.000000
vn 0.000000 1.000000 0.000000
vn 0.000000 0.000000 -1.000000
vn 0.000000 0.000000 -1.000000
vn 0.000000 0.000000 -1.000000
vn 0.000000 0.000000 -1.000000
vn 0.000000 -1.000000 0.000000
vn 0.000000 -1.000000 0.000000
vn 0.000000 -1.000000 0.000000
vn 0.000000 -1.000000 0.000000
vn -1.000000 0.000000 0.000000
vn -1.000000 0.000000 0.000000
vn -1.000000 0.000000 0.000000
vn -1.000000 0.000000 0.000000
vn 1.000000 0.000000 0.000000
vn 1.000000 0.000000 0.000000
vn 1.000000 0.000000 0.000000
vn 1.000000 0.000000 0.000000
vn 0.000000 0.000000 1.000000
vn 0.000000 0.000000 1.000000
vn 0.000000 0.000000 1.000000
vn 0.000000 0.000000 1.000000
vn 0.000000 1.000000 0.000000
vn 0.669122 0.743153 0.000000
vn 0.669122 0.743153 0.000000
vn 0.000000 1.000000 0.000000
vn 0.000000 0.000000 -1.000000
vn 0.000000 0.000000 -1.000000
vn 0.000000 0.000000 -1.000000
vn 0.000000 0.000000 -1.000000
vn 0.000000 -1.000000 0.000000
vn -0.738003 -0.674797 0.000000
vn -0.738003 -0.674797 0.000000
vn 0.000000 -1.000000 0.000000
vn -1.000000 0.000000 0.000000
vn -1.000000 0.000000 0.000000
vn -1.000000 0.000000 0.000000
vn -1.000000 0.000000 0.000000
vn 0.669122 0.743153 0.000000
vn 0.501062 0.865411 0.000000
vn 0.501062 0.865411 0.000000
vn 0.669122 0.743153 0.000000
vn 0.000000 0.000000 -1.000000
vn 0.000000 0.000000 -1.000000
vn 0.000000 0.000000 -1.000000
vn 0.000000 0.000000 -1.000000
vn -0.738003 -0.674797 0.000000
vn -0.738003 -0.674797 0.000000
vn -0.999976 0.006969 0.000000
vn -0.999976 0.006969 0.000000
vn 0.000000 0.000000 1.000000
vn 0.000000 0.000000 1.000000
vn 0.000000 0.000000 1.000000
vn 0.000000 0.000000 1.000000
vn 0.000000 0.000000 -1.000000
vn 0.000000 0.000000 -1.000000
vn 0.000000 0.000000 -1.000000
vn 0.000000 0.000000 1.000000
vn 0.000000 0.000000 1.000000
vn 0.000000 0.000000 1.000000
vn 0.501062 0.865411 0.000000
vn 0.501062 0.865411 0.000000
vn -0.501062 0.865411 0.000000
vn -0.501062 0.865411 0.000000
vn 0.000000 0.000000 -1.000000
vn 0.000000 0.000000 -1.000000
vn 0.000000 0.000000 -1.000000
vn 0.000000 0.000000 -1.000000
vn 0.000000 -1.000000 0.000000
vn 0.000000 -1.000000 0.000000
vn 0.000000 -1.000000 0.000000
vn 0.000000 -1.000000 0.000000
vn 0.000000 0.000000 1.000000
vn 0.000000 0.000000 1.000000
vn 0.000000 0.000000 1.000000
vn 0.000000 0.000000 1.000000
vn -1.000000 0.000000 0.000000
vn -1.000000 0.000000 0.000000
vn -1.000000 0.000000 0.000000
vn -1.000000 0.000000 0.000000
vn 0.000000 0.000000 -1.000000
vn 0.000000 0.000000 -1.000000
vn 0.000000 0.000000 -1.000000
vn 0.000000 0.000000 -1.000000
vn 1.000000 0.000000 0.000000
vn 1.000000 0.000000 0.000000
vn 1.000000 0.000000 0.000000
vn 1.000000 0.000000 0.000000
vn 0.000000 0.000000 1.000000
vn 0.000000 0.000000 1.000000
vn 0.000000 0.000000 1.000000
vn 0.000000 0.000000 1.000000
vn 0.000000 0.000000 1.000000
vn 0.000000 0.000000 1.000000
vn 0.000000 0.000000 1.000000
vn 0.000000 0.000000 1.000000
vn 0.000000 1.000000 0.000000
vn 0.000000 1.000000 0.000000
vn -0.669122 0.743153 0.000000
vn -0.669122 0.743153 0.000000
vn 0.000000 0.000000 -1.000000
vn 0.000000 0.000000 -1.000000
vn 0.000000 0.000000 -1.000000
vn 0.000000 0.000000 -1.000000
vn 0.000000 -1.000000 0.000000
vn 0.000000 -1.000000 0.000000
vn 0.738003 -0.674797 0.000000
vn 0.738003 -0.674797 0.000000
vn 1.000000 0.000000 0.000000
vn 1.000000 0.000000 0.000000
vn 1.000000 0.000000 0.000000
vn 1.000000 0.000000 0.000000
vn -0.669122 0.743153 0.000000
vn -0.669122 0.743153 0.000000
vn -0.501062 0.865411 0.000000
vn -0.501062 0.865411 0.000000
vn 0.000000 0.000000 -1.000000
vn 0.000000 0.000000 -1.000000
vn 0.000000 0.000000 -1.000000
vn 0.000000 0.000000 -1.000000
vn 0.738003 -0.674797 0.000000
vn 0.999976 0.006969 0.000000
vn 0.999976 0.006969 0.000000
vn 0.738003 -0.674797 0.000000
vn 0.000000 0.000000 1.000000
vn 0.000000 0.000000 1.000000
vn 0.000000 0.000000 1.000000
vn 0.000000 0.000000 1.000000
vn 0.000000 0.000000 -1.000000
vn 0.000000 0.000000 -1.000000
vn 0.000000 0.000000 -1.000000
vn 0.000000 0.000000 1.000000
vn 0.000000 0.000000 1.000000
vn 0.000000 0.000000 1.000000
vn 1.000000 0.000000 0.000000
vn 1.000000 0.000000 0.000000
vn 1.000000 0.000000 0.000000
vn 1.000000 0.000000 0.000000
vn 0.000000 0.000000 -1.000000
vn 0.000000 0.000000 -1.000000
vn 0.000000 0.000000 -1.000000
vn 0.000000 0.000000 -1.000000
vn -1.000000 0.000000 0.000000
vn -1.000000 0.000000 0.000000
vn -1.000000 0.000000 0.000000
vn -1.000000 0.000000 0.000000
vn 0.000000 0.000000 1.000000
vn 0.000000 0.000000 1.000000
vn 0.000000 0.000000 1.000000
vn 0.000000 0.000000 1.000000
vn 0.000000 0.000000 1.000000
vn 0.000000 0.000000 1.000000
vn 0.000000 0.000000 1.000000
vn 0.000000 0.000000 1.000000
vn 0.000000 1.000000 0.000000
vn 0.000000 1.000000 0.000000
vn 0.000000 1.000000 0.000000
vn 0.000000 1.000000 0.000000
vn 0.000000 0.000000 -1.000000
vn 0.000000 0.000000 -1.000000
vn 0.000000 0.000000 -1.000000
vn 0.000000 0.000000 -1.000000
vn 0.000000 1.000000 0.000000
vn 0.000000 1.000000 0.000000
vn 0.000000 1.000000 0.000000
vn 0.000000 1.000000 0.000000
vn 0.000000 1.000000 0.000000
vn 0.000000 1.000000 0.000000
vn 0.000000 1.000000 0.000000
vn 0.000000 1.000000 0.000000
vn 0.000000 1.000000 0.000000
vn 0.000000 1.000000 0.000000
vn 0.000000 1.000000 0.000000
vn 0.000000 1.000000 0.000000
vn 0.000000 1.000000 0.000000
vn 0.000000 1.000000 0.000000
vn 0.000000 1.000000 0.000000
vn 0.000000 1.000000 0.000000
vn 0.000000 0.944466 -0.328611
vn 0.000000 0.944466 -0.328611
vn 0.000000 0.944466 -0.328610
vn 0.000000 0.944466 -0.328610
vn -0.209027 0.977910 0.000000
vn -0.209027 0.977910 0.000000
vn -0.209027 0.977910 0.000000
vn -0.209027 0.977910 0.000000
vn 0.000000 0.944464 0.328615
vn 0.000000 0.944464 0.328615
vn 0.000000 0.944464 0.328615
vn 0.000000 0.944464 0.328615
vn 0.209027 0.977910 0.000000
vn 0.209027 0.977910 0.000000
vn 0.209027 0.977910 0.000000
vn 0.209027 0.977910 0.000000
vn 1.000000 0.000000 0.000000
vn 1.000000 0.000000 0.000000
vn 1.000000 0.000000 0.000000
vn 1.000000 0.000000 0.000000
vn -1.000000 0.000000 0.000000
vn -1.000000 0.000000 0.000000
vn -1.000000 0.000000 0.000000
vn -1.000000 0.000000 0.000000
vn 0.000000 -1.000000 0.000000
vn 0.000000 -1.000000 0.000000
vn 0.000000 -1.000000 0.000000
vn 0.000000 -1.000000 0.000000
vn 0.000000 0.000000 1.000000
vn 0.000000 0.000000 1.000000
vn 0.000000 0.000000 1.000000
vn 0.000000 0.000000 1.000000
vn 0.000000 1.000000 0.000000
vn 0.000000 1.000000 0.000000
vn 0.000000 1.000000 0.000000
vn 0.000000 1.000000 0.000000
vn 0.000000 0.000000 -1.000000
vn 0.000000 0.000000 -1.000000
vn 0.000000 0.000000 -1.000000
vn 0.000000 0.000000 -1.000000
vn 0.000000 -1.000000 0.000000
vn 0.000000 -1.000000 0.000000
vn 0.000000 -1.000000 0.000000
vn 0.000000 -1.000000 0.000000
vn 1.000000 0.000000 0.000000
vn 1.000000 0.000000 0.000000
vn 1.000000 0.000000 0.000000
vn 1.000000 0.000000 0.000000
vn -1.000000 0.000000 0.000000
vn -1.000000 0.000000 0.000000
vn -1.000000 0.000000 0.000000
vn -1.000000 0.000000 0.000000
vn 0.000000 0.000000 1.000000
vn 0.000000 0.000000 1.000000
vn 0.000000 0.000000 1.000000
vn 0.000000 0.000000 1.000000
vn 0.000000 0.000000 -1.000000
vn 0.000000 0.000000 -1.000000
vn 0.000000 0.000000 -1.000000
vn 0.000000 0.000000 -1.000000
vn -1.000000 0.000000 0.000000
vn -1.000000 0.000000 0.000000
vn -1.000000 0.000000 0.000000
vn -1.000000 0.000000 0.000000
vn 0.000000 0.000000 1.000000
vn 0.000000 0.000000 1.000000
vn 0.000000 0.000000 1.000000
vn 0.000000 0.000000 1.000000
vn 0.000000 1.000000 0.000000
vn 0.000000 1.000000 0.000000
vn 0.000000 1.000000 0.000000
vn 0.000000 1.000000 0.000000
vn 0.000000 0.000000 -1.000000
vn 0.000000 0.000000 -1.000000
vn 0.000000 0.000000 -1.000000
vn 0.000000 0.000000 -1.000000
vn 0.000000 -1.000000 0.000000
vn 0.000000 -1.000000 0.000000
vn 0.000000 -1.000000 0.000000
vn 0.000000 -1.000000 0.000000
vn -1.000000 0.000000 0.000000
vn -1.000000 0.000000 0.000000
vn -1.000000 0.000000 0.000000
vn -1.000000 0.000000 0.000000
vn 1.000000 0.000000 0.000000
vn 1.000000 0.000000 0.000000
vn 1.000000 0.000000 0.000000
vn 1.000000 0.000000 0.000000
vn 0.000000 0.000000 1.000000
vn 0.000000 0.000000 1.000000
vn 0.000000 0.000000 1.000000
vn 0.000000 0.000000 1.000000
vn 0.000000 0.000000 -1.000000
vn 0.000000 0.000000 -1.000000
vn 0.000000 0.000000 -1.000000
vn 0.000000 0.000000 -1.000000
vn 1.000000 0.000000 0.000000
vn 1.000000 0.000000 0.000000
vn 1.000000 0.000000 0.000000
vn 1.000000 0.000000 0.000000
vn 0.000000 1.000000 0.000000
vn 0.000000 1.000000 0.000000
vn 0.000000 1.000000 0.000000
vn 0.000000 1.000000 0.000000
vn 0.000000 0.000000 -1.000000
vn 0.000000 0.000000 -1.000000
vn 0.000000 0.000000 -1.000000
vn 0.000000 0.000000 -1.000000
vn 0.000000 -1.000000 0.000000
vn 0.000000 -1.000000 0.000000
vn 0.000000 -1.000000 0.000000
vn 0.000000 -1.000000 0.000000
vn 0.000000 0.000000 1.000000
vn 0.000000 0.000000 1.000000
vn 0.000000 0.000000 1.000000
vn 0.000000 0.000000 1.000000
s off
f 1/1/1 2/2/2 4/3/3 3/4/4
f 3/4/5 4/3/6 6/5/7 5/6/8
f 5/6/9 6/5/10 8/7/11 7/8/12
f 7/8/13 8/7/14 2/9/15 1/10/16
f 2/2/17 8/11/18 6/12/19 4/3/20
f 7/13/21 1/1/22 3/4/23 5/14/24
f 9/15/25 10/16/26 12/17/27 11/18/28
f 11/18/29 12/17/30 14/19/31 13/20/32
f 13/20/33 14/19/34 16/21/35 15/22/36
f 15/22/37 16/21/38 10/23/39 9/24/40
f 10/16/41 16/25/42 14/26/43 12/17/44
f 15/27/45 9/15/46 11/18/47 13/28/48
f 17/29/49 19/30/50 20/31/51 18/32/52
f 19/30/53 21/33/54 22/34/55 20/31/56
f 21/33/57 23/35/58 24/36/59 22/34/60
f 23/35/61 17/37/62 18/38/63 24/36/64
f 18/32/65 20/31/66 22/39/67 24/40/68
f 23/41/69 21/42/70 19/30/71 17/29/72
f 25/43/73 27/44/74 28/45/75 26/46/76
f 27/44/77 29/47/78 30/48/79 28/45/80
f 29/47/81 31/49/82 32/50/83 30/48/84
f 31/49/85 25/51/86 26/52/87 32/50/88
f 26/46/89 28/45/90 30/53/91 32/54/92
f 31/55/93 29/56/94 27/44/95 25/43/96
f 33/57/97 40/58/98 37/59/99 34/60/100
f 34/60/101 37/59/102 38/61/103 35/62/104
f 35/62/105 38/61/106 39/63/107 36/64/108
f 36/64/109 39/63/110 40/58/111 33/57/112
f 36/64/113 33/57/114 34/60/115 35/62/116
f 37/59/117 41/65/118 42/66/119 38/61/120
f 39/63/121 38/61/122 42/66/123 43/67/124
f 40/58/125 39/63/126 43/67/127 44/68/128
f 37/59/129 40/58/130 44/68/131 41/65/132
f 43/67/133 42/66/134 45/69/135
f 41/65/136 44/68/137 46/70/138
f 42/66/139 41/65/140 59/71/141 60/72/142
f 45/69/143 42/66/144 60/72/145 63/73/146
f 46/70/147 45/69/148 63/73/149 64/74/150
f 41/65/151 46/70/152 64/74/153 59/71/154
f 44/68/155 43/67/156 47/75/157 48/76/158
f 43/67/159 45/69/160 49/77/161 47/75/162
f 45/69/163 46/70/164 50/78/165 49/77/166
f 46/70/167 44/68/168 48/76/169 50/78/170
f 51/79/171 52/80/172 55/81/173 58/82/174
f 52/80/175 53/83/176 56/84/177 55/81/178
f 53/83/179 54/85/180 57/86/181 56/84/182
f 54/85/183 51/79/184 58/82/185 57/86/186
f 54/85/187 53/83/188 52/80/189 51/79/190
f 55/81/191 56/84/192 60/72/193 59/71/194
f 57/86/195 61/87/196 60/72/197 56/84/198
f 58/82/199 62/88/200 61/87/201 57/86/202
f 55/81/203 59/71/204 62/88/205 58/82/206
f 61/87/207 63/73/208 60/72/209
f 59/71/210 64/74/211 62/88/212
f 62/88/213 66/89/214 65/90/215 61/87/216
f 61/87/217 65/90/218 67/91/219 63/73/220
f 63/73/221 67/91/222 68/92/223 64/74/224
f 64/74/225 68/92/226 66/89/227 62/88/228
f 69/93/229 70/94/230 72/95/231 71/96/232
f 81/97/233 82/98/234 83/99/235 84/100/236
f 73/101/237 74/102/238 76/103/239 75/104/240
f 71/96/241 72/95/242 78/105/243 77/106/244
f 72/95/245 74/102/246 79/107/247 78/105/248
f 74/102/249 73/101/250 80/108/251 79/107/252
f 73/101/253 71/96/254 77/106/255 80/108/256
f 77/106/257 78/105/258 82/98/259 81/97/260
f 78/105/261 79/107/262 83/99/263 82/98/264
f 79/107/265 80/108/266 84/100/267 83/99/268
f 80/108/269 77/106/270 81/97/271 84/100/272
f 72/95/273 70/94/274 76/103/275 74/102/276
f 73/101/277 75/104/278 69/93/279 71/96/280
f 70/94/281 69/93/282 75/104/283 76/103/284
f 85/109/285 86/110/286 88/111/287 87/112/288
f 93/113/289 94/114/290 95/115/291 96/116/292
f 89/117/293 90/118/294 92/119/295 91/120/296
f 91/120/297 92/119/298 86/110/299 85/109/300
f 86/110/301 92/119/302 90/118/303 88/111/304
f 91/120/305 85/109/306 87/112/307 89/117/308
f 87/112/309 88/111/310 94/114/311 93/113/312
f 90/118/313 89/117/314 96/116/315 95/115/316
f 89/117/317 87/112/318 93/113/319 96/116/320
f 97/121/321 99/122/322 100/123/323 98/124/324
f 105/125/325 108/126/326 107/127/327 106/128/328
f 101/129/329 103/130/330 104/131/331 102/132/332
f 103/130/333 97/121/334 98/124/335 104/131/336
f 98/124/337 100/123/338 102/132/339 104/131/340
f 103/130/341 101/129/342 99/122/343 97/121/344
f 99/122/345 105/125/346 106/128/347 100/123/348
f 102/132/349 107/127/350 108/126/351 101/129/352
f 101/129/353 108/126/354 105/125/355 99/122/356
f 94/114/357 106/128/358 107/127/359 95/115/360
f 95/115/361 107/127/362 102/132/363 90/118/364
f 90/118/365 102/132/366 100/123/367 88/111/368
f 88/111/369 100/123/370 106/128/371 94/114/372
