# This file uses centimeters as units for non-parametric coordinates.

v 0.694814 0.146802 0.444380
v 0.737218 0.146802 0.444380
v 0.694814 0.188604 0.444380
v 0.737218 0.188604 0.444380
v 0.694814 0.188604 -0.444380
v 0.737218 0.188604 -0.444380
v 0.694814 0.146802 -0.444380
v 0.737218 0.146802 -0.444380
v -0.741581 0.146802 0.444380
v -0.699177 0.146802 0.444380
v -0.741581 0.188604 0.444380
v -0.699177 0.188604 0.444380
v -0.741581 0.188604 -0.444380
v -0.699177 0.188604 -0.444380
v -0.741581 0.146802 -0.444380
v -0.699177 0.146802 -0.444380
v -0.699177 0.146802 -0.021202
v -0.699177 0.146802 0.021202
v -0.699177 0.188604 -0.021202
v -0.699177 0.188604 0.021202
v 0.694814 0.188604 -0.021202
v 0.694814 0.188604 0.021202
v 0.694814 0.146802 -0.021202
v 0.694814 0.146802 0.021202
v -0.748362 0.000000 0.508117
v -0.684626 0.000000 0.508117
v -0.748362 0.878786 0.508117
v -0.684626 0.878786 0.508117
v -0.748362 0.878786 0.444380
v -0.684626 0.878786 0.444380
v -0.748362 0.000000 0.444380
v -0.684626 0.000000 0.444380
v 0.684626 0.000000 -0.444380
v 0.748362 0.000000 -0.444380
v 0.684626 0.878786 -0.444380
v 0.748362 0.878786 -0.444380
v 0.684626 0.878786 -0.508117
v 0.748362 0.878786 -0.508117
v 0.684626 0.000000 -0.508117
v 0.748362 0.000000 -0.508117
v 0.684626 0.000000 0.508117
v 0.748362 0.000000 0.508117
v 0.684626 0.878786 0.508117
v 0.748362 0.878786 0.508117
v 0.684626 0.878786 0.444380
v 0.748362 0.878786 0.444380
v 0.684626 0.000000 0.444380
v 0.748362 0.000000 0.444380
v -0.748362 0.000000 -0.444380
v -0.684626 0.000000 -0.444380
v -0.748362 0.878786 -0.444380
v -0.684626 0.878786 -0.444380
v -0.748362 0.878786 -0.508117
v -0.684626 0.878786 -0.508117
v -0.748362 0.000000 -0.508117
v -0.684626 0.000000 -0.508117
v -1.062202 0.878786 0.649146
v 1.062202 0.878786 0.649146
v -1.062202 0.972761 0.649146
v 1.062202 0.972761 0.649146
v -1.062202 0.972761 -0.649146
v 1.062202 0.972761 -0.649146
v -1.062202 0.878786 -0.649146
v 1.062202 0.878786 -0.649146
v -0.990838 0.972761 0.586295
v 0.990838 0.972761 0.586295
v 0.990838 0.972761 -0.586295
v -0.990838 0.972761 -0.586295
v -0.974703 0.953286 0.576749
v 0.974703 0.953286 0.576749
v 0.974703 0.953286 -0.576749
v -0.974703 0.953286 -0.576749
vt 0.136321 0.300214
vt 0.136321 0.300214
vt 0.136321 0.300214
vt 0.136321 0.300214
vt 0.136321 0.300214
vt 0.136321 0.300214
vt 0.136321 0.300214
vt 0.136321 0.300214
vt 0.136321 0.300214
vt 0.136321 0.300214
vt 0.136321 0.300214
vt 0.136321 0.300214
vt 0.136321 0.300214
vt 0.136321 0.300214
vt 0.136321 0.300214
vt 0.136321 0.300214
vt 0.136321 0.300214
vt 0.136321 0.300214
vt 0.136321 0.300214
vt 0.136321 0.300214
vt 0.136321 0.300214
vt 0.136321 0.300214
vt 0.136321 0.300214
vt 0.136321 0.300214
vt 0.136321 0.300214
vt 0.136321 0.300214
vt 0.136321 0.300214
vt 0.136321 0.300214
vt 0.136321 0.300214
vt 0.136321 0.300214
vt 0.136321 0.300214
vt 0.136321 0.300214
vt 0.136321 0.300214
vt 0.136321 0.300214
vt 0.136321 0.300214
vt 0.136321 0.300214
vt 0.136321 0.300214
vt 0.136321 0.300214
vt 0.136321 0.300214
vt 0.136321 0.300214
vt 0.136321 0.300214
vt 0.136321 0.300214
vt 0.136321 0.300214
vt 0.136321 0.300214
vt 0.136321 0.300214
vt 0.136321 0.300214
vt 0.136321 0.300214
vt 0.136321 0.300214
vt 0.136321 0.300214
vt 0.136321 0.300214
vt 0.136321 0.300214
vt 0.136321 0.300214
vt 0.136321 0.300214
vt 0.136321 0.300214
vt 0.136321 0.300214
vt 0.136321 0.300214
vt 0.136321 0.300214
vt 0.136321 0.300214
vt 0.136321 0.300214
vt 0.136321 0.300214
vt 0.136321 0.300214
vt 0.136321 0.300214
vt 0.136321 0.300214
vt 0.136321 0.300214
vt 0.136321 0.300214
vt 0.136321 0.300214
vt 0.136321 0.300214
vt 0.136321 0.300214
vt 0.136321 0.300214
vt 0.136321 0.300214
vt 0.136321 0.300214
vt 0.136321 0.300214
vt 0.136321 0.300214
vt 0.136321 0.300214
vt 0.136321 0.300214
vt 0.136321 0.300214
vt 0.136321 0.300214
vt 0.136321 0.300214
vt 0.136321 0.300214
vt 0.136321 0.300214
vt 0.136321 0.300214
vt 0.136321 0.300214
vt 0.136321 0.300214
vt 0.136321 0.300214
vt 0.136321 0.300214
vt 0.136321 0.300214
vt 0.136321 0.300214
vt 0.136321 0.300214
vt 0.136321 0.300214
vt 0.136321 0.300214
vt 0.136321 0.300214
vt 0.136321 0.300214
vt 0.136321 0.300214
vt 0.136321 0.300214
vt 0.136321 0.300214
vt 0.136321 0.300214
vt 0.136321 0.300214
vt 0.136321 0.300214
vt 0.136321 0.300214
vt 0.136321 0.300214
vt 0.136321 0.300214
vt 0.136321 0.300214
vt 0.136321 0.300214
vt 0.136321 0.300214
vt 0.136321 0.300214
vt 0.136321 0.300214
vt 0.136321 0.300214
vt 0.136321 0.300214
vt 0.136321 0.300214
vt 0.136321 0.300214
vt 0.136321 0.300214
vt 0.136321 0.300214
vt 0.136321 0.300214
vt 0.136321 0.300214
vt 0.136321 0.300214
vt 0.136321 0.300214
vt 0.079416 0.351901
vt 0.136321 0.300214
vt 0.136321 0.300214
vt 0.136321 0.300214
vt 0.136321 0.300214
vt 0.079416 0.351901
vt 0.079416 0.351901
vt 0.079416 0.351901
vn 0.000000 1.000000 0.000000
vn 0.000000 1.000000 0.000000
vn 0.000000 1.000000 0.000000
vn 0.000000 1.000000 0.000000
vn 0.000000 -1.000000 0.000000
vn 0.000000 -1.000000 0.000000
vn 0.000000 -1.000000 0.000000
vn 0.000000 -1.000000 0.000000
vn 1.000000 0.000000 0.000000
vn 1.000000 0.000000 0.000000
vn 1.000000 0.000000 0.000000
vn 1.000000 0.000000 0.000000
vn -1.000000 0.000000 0.000000
vn -1.000000 0.000000 0.000000
vn -1.000000 0.000000 0.000000
vn -1.000000 0.000000 0.000000
vn 0.000000 1.000000 0.000000
vn 0.000000 1.000000 0.000000
vn 0.000000 1.000000 0.000000
vn 0.000000 1.000000 0.000000
vn 0.000000 -1.000000 0.000000
vn 0.000000 -1.000000 0.000000
vn 0.000000 -1.000000 0.000000
vn 0.000000 -1.000000 0.000000
vn 1.000000 0.000000 0.000000
vn 1.000000 0.000000 0.000000
vn 1.000000 0.000000 0.000000
vn 1.000000 0.000000 0.000000
vn -1.000000 0.000000 0.000000
vn -1.000000 0.000000 0.000000
vn -1.000000 0.000000 0.000000
vn -1.000000 0.000000 0.000000
vn 0.000000 1.000000 0.000000
vn 0.000000 1.000000 0.000000
vn 0.000000 1.000000 0.000000
vn 0.000000 1.000000 0.000000
vn 0.000000 -1.000000 0.000000
vn 0.000000 -1.000000 0.000000
vn 0.000000 -1.000000 0.000000
vn 0.000000 -1.000000 0.000000
vn 0.000000 0.000000 1.000000
vn 0.000000 0.000000 1.000000
vn 0.000000 0.000000 1.000000
vn 0.000000 0.000000 1.000000
vn 0.000000 0.000000 -1.000000
vn 0.000000 0.000000 -1.000000
vn 0.000000 0.000000 -1.000000
vn 0.000000 0.000000 -1.000000
vn 0.000000 0.000000 1.000000
vn 0.000000 0.000000 1.000000
vn 0.000000 0.000000 1.000000
vn 0.000000 0.000000 1.000000
vn 0.000000 0.000000 -1.000000
vn 0.000000 0.000000 -1.000000
vn 0.000000 0.000000 -1.000000
vn 0.000000 0.000000 -1.000000
vn 0.000000 -1.000000 0.000000
vn 0.000000 -1.000000 0.000000
vn 0.000000 -1.000000 0.000000
vn 0.000000 -1.000000 0.000000
vn 1.000000 0.000000 0.000000
vn 1.000000 0.000000 0.000000
vn 1.000000 0.000000 0.000000
vn 1.000000 0.000000 0.000000
vn -1.000000 0.000000 0.000000
vn -1.000000 0.000000 0.000000
vn -1.000000 0.000000 0.000000
vn -1.000000 0.000000 0.000000
vn 0.000000 0.000000 1.000000
vn 0.000000 0.000000 1.000000
vn 0.000000 0.000000 1.000000
vn 0.000000 0.000000 1.000000
vn 0.000000 0.000000 -1.000000
vn 0.000000 0.000000 -1.000000
vn 0.000000 0.000000 -1.000000
vn 0.000000 0.000000 -1.000000
vn 0.000000 -1.000000 0.000000
vn 0.000000 -1.000000 0.000000
vn 0.000000 -1.000000 0.000000
vn 0.000000 -1.000000 0.000000
vn 1.000000 0.000000 0.000000
vn 1.000000 0.000000 0.000000
vn 1.000000 0.000000 0.000000
vn 1.000000 0.000000 0.000000
vn -1.000000 0.000000 0.000000
vn -1.000000 0.000000 0.000000
vn -1.000000 0.000000 0.000000
vn -1.000000 0.000000 0.000000
vn 0.000000 0.000000 1.000000
vn 0.000000 0.000000 1.000000
vn 0.000000 0.000000 1.000000
vn 0.000000 0.000000 1.000000
vn 0.000000 0.000000 -1.000000
vn 0.000000 0.000000 -1.000000
vn 0.000000 0.000000 -1.000000
vn 0.000000 0.000000 -1.000000
vn 0.000000 -1.000000 0.000000
vn 0.000000 -1.000000 0.000000
vn 0.000000 -1.000000 0.000000
vn 0.000000 -1.000000 0.000000
vn 1.000000 0.000000 0.000000
vn 1.000000 0.000000 0.000000
vn 1.000000 0.000000 0.000000
vn 1.000000 0.000000 0.000000
vn -1.000000 0.000000 0.000000
vn -1.000000 0.000000 0.000000
vn -1.000000 0.000000 0.000000
vn -1.000000 0.000000 0.000000
vn 0.000000 0.000000 1.000000
vn 0.000000 0.000000 1.000000
vn 0.000000 0.000000 1.000000
vn 0.000000 0.000000 1.000000
vn 0.000000 0.000000 -1.000000
vn 0.000000 0.000000 -1.000000
vn 0.000000 0.000000 -1.000000
vn 0.000000 0.000000 -1.000000
vn 0.000000 -1.000000 0.000000
vn 0.000000 -1.000000 0.000000
vn 0.000000 -1.000000 0.000000
vn 0.000000 -1.000000 0.000000
vn 1.000000 0.000000 0.000000
vn 1.000000 0.000000 0.000000
vn 1.000000 0.000000 0.000000
vn 1.000000 0.000000 0.000000
vn -1.000000 0.000000 0.000000
vn -1.000000 0.000000 0.000000
vn -1.000000 0.000000 0.000000
vn -1.000000 0.000000 0.000000
vn 0.000000 0.000000 1.000000
vn 0.000000 0.000000 1.000000
vn 0.000000 0.000000 1.000000
vn 0.000000 0.000000 1.000000
vn 0.000000 1.000000 0.000000
vn 0.000000 1.000000 0.000000
vn 0.000000 1.000000 0.000000
vn 0.000000 1.000000 0.000000
vn 0.000000 0.000000 -1.000000
vn 0.000000 0.000000 -1.000000
vn 0.000000 0.000000 -1.000000
vn 0.000000 0.000000 -1.000000
vn 0.000000 -1.000000 0.000000
vn 0.000000 -1.000000 0.000000
vn 0.000000 -1.000000 0.000000
vn 0.000000 -1.000000 0.000000
vn 1.000000 0.000000 0.000000
vn 1.000000 0.000000 0.000000
vn 1.000000 0.000000 0.000000
vn 1.000000 0.000000 0.000000
vn -1.000000 0.000000 0.000000
vn -1.000000 0.000000 0.000000
vn -1.000000 0.000000 0.000000
vn -1.000000 0.000000 0.000000
vn 0.000000 1.000000 0.000000
vn 0.000000 1.000000 0.000000
vn 0.000000 1.000000 0.000000
vn 0.000000 1.000000 0.000000
vn 0.000000 1.000000 0.000000
vn 0.000000 1.000000 -0.000000
vn 0.000000 1.000000 -0.000000
vn 0.000000 1.000000 0.000000
vn 0.000000 1.000000 -0.000000
vn 0.000000 1.000000 -0.000000
vn 0.000000 1.000000 -0.000000
vn 0.000000 1.000000 -0.000000
vn 0.000000 1.000000 -0.000000
vn 0.000000 1.000000 0.000000
vn 0.000000 1.000000 0.000000
vn 0.000000 1.000000 -0.000000
vn 0.000000 0.440152 -0.897923
vn 0.000000 0.440152 -0.897923
vn 0.000000 0.440152 -0.897923
vn 0.000000 0.440152 -0.897923
vn -0.770077 0.637951 0.000000
vn -0.770077 0.637951 0.000000
vn -0.770077 0.637951 0.000000
vn -0.770077 0.637951 0.000000
vn 0.000000 0.440152 0.897923
vn 0.000000 0.440152 0.897923
vn 0.000000 0.440152 0.897923
vn 0.000000 0.440152 0.897923
vn 0.770077 0.637951 0.000000
vn 0.770077 0.637951 0.000000
vn 0.770077 0.637951 0.000000
vn 0.770077 0.637951 0.000000
s off
f 3/3/1 4/4/2 6/6/3 5/5/4
f 7/7/5 8/8/6 2/10/7 1/9/8
f 2/2/9 8/11/10 6/12/11 4/4/12
f 7/13/13 1/1/14 3/3/15 5/14/16
f 11/18/17 12/17/18 14/19/19 13/20/20
f 15/22/21 16/21/22 10/23/23 9/24/24
f 10/16/25 16/25/26 14/26/27 12/17/28
f 15/27/29 9/15/30 11/18/31 13/28/32
f 19/29/33 20/30/34 22/31/35 21/32/36
f 23/33/37 24/34/38 18/35/39 17/36/40
f 18/37/41 24/38/42 22/39/43 20/30/44
f 23/40/45 17/41/46 19/29/47 21/42/48
f 25/43/49 26/44/50 28/45/51 27/46/52
f 29/48/53 30/47/54 32/49/55 31/50/56
f 31/50/57 32/49/58 26/51/59 25/52/60
f 26/44/61 32/53/62 30/54/63 28/45/64
f 31/55/65 25/43/66 27/46/67 29/56/68
f 33/57/69 34/58/70 36/59/71 35/60/72
f 37/62/73 38/61/74 40/63/75 39/64/76
f 39/64/77 40/63/78 34/65/79 33/66/80
f 34/58/81 40/67/82 38/68/83 36/59/84
f 39/69/85 33/57/86 35/60/87 37/70/88
f 41/71/89 42/72/90 44/73/91 43/74/92
f 45/76/93 46/75/94 48/77/95 47/78/96
f 47/78/97 48/77/98 42/79/99 41/80/100
f 42/72/101 48/81/102 46/82/103 44/73/104
f 47/83/105 41/71/106 43/74/107 45/84/108
f 49/85/109 50/86/110 52/87/111 51/88/112
f 53/90/113 54/89/114 56/91/115 55/92/116
f 55/92/117 56/91/118 50/93/119 49/94/120
f 50/86/121 56/95/122 54/96/123 52/87/124
f 55/97/125 49/85/126 51/88/127 53/98/128
f 57/99/129 58/100/130 60/101/131 59/102/132
f 69/117/133 70/124/134 71/123/135 72/122/136
f 61/104/137 62/103/138 64/105/139 63/106/140
f 63/106/141 64/105/142 58/107/143 57/108/144
f 58/100/145 64/109/146 62/110/147 60/101/148
f 63/111/149 57/99/150 59/102/151 61/112/152
f 59/102/153 60/101/154 66/114/155 65/113/156
f 60/101/157 62/103/158 67/115/159 66/114/160
f 62/103/161 61/104/162 68/116/163 67/115/164
f 61/104/165 59/102/166 65/113/167 68/116/168
f 65/113/169 66/114/170 70/118/171 69/121/172
f 66/114/173 67/115/174 71/119/175 70/118/176
f 67/115/177 68/116/178 72/120/179 71/119/180
f 68/116/181 65/113/182 69/121/183 72/120/184
