# This file uses centimeters as units for non-parametric coordinates.

v -0.468667 -0.140404 0.039649
v -0.438912 -0.140404 0.039649
v -0.468667 -0.114535 0.039649
v -0.438912 -0.114535 0.039649
v -0.468667 -0.114535 0.020181
v -0.438912 -0.114535 0.020181
v -0.468667 -0.140404 0.020181
v -0.438912 -0.140404 0.020181
v -0.030191 -0.173582 0.020181
v -0.566361 -0.173582 0.020181
v -0.030191 -0.017462 0.020181
v -0.566361 -0.017462 0.020181
v -0.596551 -0.191045 0.000000
v -0.000000 -0.191045 0.000000
v -0.000000 0.000000 0.000000
v -0.596551 0.000000 0.000000
v -0.596551 -0.191045 -0.018107
v -0.596551 0.000000 -0.018107
v -0.000000 0.000000 -0.018107
v -0.000000 -0.191045 -0.018107
v -0.481481 -0.154193 -0.018107
v -0.481481 -0.036851 -0.018107
v -0.115071 -0.036851 -0.018107
v -0.115071 -0.154193 -0.018107
v -0.473318 -0.151579 -0.038284
v -0.473318 -0.039466 -0.038284
v -0.123234 -0.039466 -0.038284
v -0.123234 -0.151579 -0.038284
vt 0.047585 0.210009
vt 0.047585 0.210009
vt 0.047585 0.210009
vt 0.047585 0.210009
vt 0.047585 0.210009
vt 0.047585 0.210009
vt 0.047585 0.210009
vt 0.047585 0.210009
vt 0.047585 0.210009
vt 0.047585 0.210009
vt 0.047585 0.210009
vt 0.047585 0.210009
vt 0.047585 0.210009
vt 0.047585 0.210009
vt 0.103250 0.276198
vt 0.103250 0.276198
vt 0.103250 0.276198
vt 0.103250 0.276198
vt 0.103250 0.276198
vt 0.103250 0.276198
vt 0.103250 0.276198
vt 0.103250 0.276198
vt 0.103250 0.276198
vt 0.103250 0.276198
vt 0.103250 0.276198
vt 0.103250 0.276198
vt 0.103250 0.276198
vt 0.103250 0.276198
vt 0.103250 0.276198
vt 0.103250 0.276198
vt 0.001901 0.634476
vt 0.179222 0.634476
vt 0.179222 0.677469
vt 0.001901 0.677469
vt 0.103250 0.276198
vt 0.103250 0.276198
vt 0.103250 0.276198
vt 0.103250 0.276198
vt 0.103250 0.276198
vt 0.103250 0.276198
vt 0.103250 0.276198
vt 0.103250 0.276198
vt 0.103250 0.276198
vt 0.103250 0.276198
vt 0.103250 0.276198
vt 0.103250 0.276198
vn 0.000000 0.000000 1.000000
vn 0.000000 0.000000 1.000000
vn 0.000000 0.000000 1.000000
vn 0.000000 0.000000 1.000000
vn 0.000000 1.000000 0.000000
vn 0.000000 1.000000 0.000000
vn 0.000000 1.000000 0.000000
vn 0.000000 1.000000 0.000000
vn 0.000000 -1.000000 0.000000
vn 0.000000 -1.000000 0.000000
vn 0.000000 -1.000000 0.000000
vn 0.000000 -1.000000 0.000000
vn 1.000000 0.000000 0.000000
vn 1.000000 0.000000 0.000000
vn 1.000000 0.000000 0.000000
vn 1.000000 0.000000 0.000000
vn -1.000000 0.000000 0.000000
vn -1.000000 0.000000 0.000000
vn -1.000000 0.000000 0.000000
vn -1.000000 0.000000 0.000000
vn 0.000000 -0.756200 0.654341
vn 0.000000 -0.756200 0.654341
vn 0.000000 -0.756200 0.654341
vn 0.000000 -0.756200 0.654341
vn 0.555724 0.000000 0.831367
vn 0.555724 0.000000 0.831367
vn 0.555724 0.000000 0.831367
vn 0.555724 0.000000 0.831367
vn 0.000000 0.756202 0.654338
vn 0.000000 0.756202 0.654338
vn 0.000000 0.756202 0.654338
vn 0.000000 0.756202 0.654338
vn -0.555724 0.000000 0.831367
vn -0.555724 0.000000 0.831367
vn -0.555724 0.000000 0.831367
vn -0.555724 0.000000 0.831367
vn 0.000000 0.000000 1.000000
vn 0.000000 0.000000 1.000000
vn 0.000000 0.000000 1.000000
vn 0.000000 0.000000 1.000000
vn 0.000000 0.000000 -1.000000
vn 0.000000 0.000000 -1.000000
vn 0.000000 0.000000 -1.000000
vn 0.000000 0.000000 -1.000000
vn -1.000000 0.000000 0.000000
vn -1.000000 0.000000 0.000000
vn -1.000000 0.000000 0.000000
vn -1.000000 0.000000 0.000000
vn 0.000000 1.000000 0.000000
vn 0.000000 1.000000 0.000000
vn 0.000000 1.000000 0.000000
vn 0.000000 1.000000 0.000000
vn 1.000000 0.000000 0.000000
vn 1.000000 0.000000 0.000000
vn 1.000000 0.000000 0.000000
vn 1.000000 0.000000 0.000000
vn 0.000000 -1.000000 0.000000
vn 0.000000 -1.000000 0.000000
vn 0.000000 -1.000000 0.000000
vn 0.000000 -1.000000 0.000000
vn -0.000000 0.000000 -1.000000
vn -0.000000 0.000000 -1.000000
vn -0.000000 0.000000 -1.000000
vn -0.000000 0.000000 -1.000000
vn -0.000000 0.000000 -1.000000
vn 0.000000 0.000000 -1.000000
vn 0.000000 0.000000 -1.000000
vn -0.000000 0.000000 -1.000000
vn 0.000000 0.000000 -1.000000
vn 0.000000 0.000000 -1.000000
vn 0.000000 0.000000 -1.000000
vn 0.000000 0.000000 -1.000000
vn 0.000000 0.000000 -1.000000
vn -0.000000 0.000000 -1.000000
vn -0.000000 0.000000 -1.000000
vn 0.000000 0.000000 -1.000000
vn -0.927001 0.000000 -0.375059
vn -0.927001 0.000000 -0.375059
vn -0.927001 0.000000 -0.375059
vn -0.927001 0.000000 -0.375059
vn 0.000000 0.991709 -0.128504
vn 0.000000 0.991709 -0.128504
vn 0.000000 0.991709 -0.128504
vn 0.000000 0.991709 -0.128504
vn 0.927001 0.000000 -0.375059
vn 0.927001 0.000000 -0.375059
vn 0.927001 0.000000 -0.375059
vn 0.927001 0.000000 -0.375059
vn 0.000000 -0.991709 -0.128504
vn 0.000000 -0.991709 -0.128504
vn 0.000000 -0.991709 -0.128504
vn 0.000000 -0.991709 -0.128504
s off
f 1/1/1 2/2/2 4/3/3 3/4/4
f 3/4/5 4/3/6 6/5/7 5/6/8
f 7/7/9 8/8/10 2/9/11 1/10/12
f 2/2/13 8/11/14 6/12/15 4/3/16
f 7/13/17 1/1/18 3/4/19 5/14/20
f 13/15/21 14/16/22 9/17/23 10/18/24
f 14/19/25 15/20/26 11/21/27 9/22/28
f 15/23/29 16/24/30 12/25/31 11/26/32
f 16/27/33 13/28/34 10/29/35 12/30/36
f 10/31/37 9/32/38 11/33/39 12/34/40
f 25/35/41 26/36/42 27/37/43 28/38/44
f 13/28/45 16/24/46 18/39/47 17/40/48
f 16/24/49 15/20/50 19/41/51 18/39/52
f 15/20/53 14/16/54 20/42/55 19/41/56
f 14/16/57 13/28/58 17/40/59 20/42/60
f 17/40/61 18/39/62 22/43/63 21/44/64
f 18/39/65 19/41/66 23/45/67 22/43/68
f 19/41/69 20/42/70 24/46/71 23/45/72
f 20/42/73 17/40/74 21/44/75 24/46/76
f 21/44/77 22/43/78 26/36/79 25/35/80
f 22/43/81 23/45/82 27/37/83 26/36/84
f 23/45/85 24/46/86 28/38/87 27/37/88
f 24/46/89 21/44/90 25/35/91 28/38/92
