# This file uses centimeters as units for non-parametric coordinates.

v -0.536170 0.281016 -0.047153
v 0.000000 0.281016 -0.047153
v -0.536170 0.312240 -0.047153
v 0.000000 0.312240 -0.047153
v -0.536170 0.312240 -0.696830
v 0.000000 0.312240 -0.696830
v -0.536170 0.281016 -0.696830
v 0.000000 0.281016 -0.696830
vt 0.113504 0.377483
vt 0.113504 0.377483
vt 0.113504 0.377483
vt 0.113504 0.377483
vt 0.113504 0.377483
vt 0.113504 0.377483
vt 0.113504 0.377483
vt 0.113504 0.377483
vt 0.113504 0.377483
vt 0.113504 0.377483
vt 0.113504 0.377483
vt 0.113504 0.377483
vt 0.113504 0.331885
vt 0.113504 0.331885
vt 0.113504 0.331885
vt 0.113504 0.331885
vt 0.113504 0.377483
vt 0.113504 0.377483
vt 0.113504 0.377483
vt 0.113504 0.377483
vt 0.113504 0.377483
vt 0.113504 0.377483
vt 0.113504 0.377483
vt 0.113504 0.377483
vn 0.000000 0.000000 1.000000
vn 0.000000 0.000000 1.000000
vn 0.000000 0.000000 1.000000
vn 0.000000 0.000000 1.000000
vn 0.000000 1.000000 0.000000
vn 0.000000 1.000000 0.000000
vn 0.000000 1.000000 0.000000
vn 0.000000 1.000000 0.000000
vn 0.000000 0.000000 -1.000000
vn 0.000000 0.000000 -1.000000
vn 0.000000 0.000000 -1.000000
vn 0.000000 0.000000 -1.000000
vn 0.000000 -1.000000 0.000000
vn 0.000000 -1.000000 0.000000
vn 0.000000 -1.000000 0.000000
vn 0.000000 -1.000000 0.000000
vn 1.000000 0.000000 0.000000
vn 1.000000 0.000000 0.000000
vn 1.000000 0.000000 0.000000
vn 1.000000 0.000000 0.000000
vn -1.000000 0.000000 0.000000
vn -1.000000 0.000000 0.000000
vn -1.000000 0.000000 0.000000
vn -1.000000 0.000000 0.000000
s off
f 1/1/1 2/2/2 4/3/3 3/4/4
f 3/5/5 4/6/6 6/7/7 5/8/8
f 5/9/9 6/10/10 8/11/11 7/12/12
f 7/13/13 8/14/14 2/15/15 1/16/16
f 2/17/17 8/18/18 6/19/19 4/20/20
f 7/21/21 1/22/22 3/23/23 5/24/24
