# This file uses centimeters as units for non-parametric coordinates.

v -0.842484 0.000000 0.044055
v 0.842483 0.000000 0.044055
v -0.842484 0.089109 0.044055
v 0.842483 0.089109 0.044055
v -0.842484 0.089109 -0.044055
v 0.842483 0.089109 -0.044055
v -0.842484 0.000000 -0.044055
v 0.842483 0.000000 -0.044055
v 0.866403 0.000000 -0.025576
v 0.818563 0.000000 -0.025576
v 0.866403 1.099832 -0.025576
v 0.818563 1.099832 -0.025576
v 0.866403 1.099832 0.025576
v 0.818563 1.099832 0.025576
v 0.866403 0.000000 0.025576
v 0.818563 0.000000 0.025576
v 0.866403 1.146167 -0.025576
v 0.818563 1.146167 -0.025576
v 0.818563 1.146167 0.025576
v 0.866403 1.146167 0.025576
v -0.866403 0.000000 0.025576
v -0.818563 0.000000 0.025576
v -0.866403 1.099832 0.025576
v -0.818563 1.099832 0.025576
v -0.866403 1.099832 -0.025576
v -0.818563 1.099832 -0.025576
v -0.866403 0.000000 -0.025576
v -0.818563 0.000000 -0.025576
v -0.866403 1.146167 0.025576
v -0.818563 1.146167 0.025576
v -0.818563 1.146167 -0.025576
v -0.866403 1.146167 -0.025576
vt 0.131636 0.329069
vt 0.131637 0.329069
vt 0.131637 0.329069
vt 0.131636 0.329069
vt 0.131637 0.329069
vt 0.131636 0.329069
vt 0.131637 0.329069
vt 0.131636 0.329069
vt 0.131637 0.329069
vt 0.131637 0.329069
vt 0.131637 0.329069
vt 0.131637 0.329069
vt 0.131637 0.329069
vt 0.131637 0.329069
vt 0.131637 0.329069
vt 0.131637 0.329069
vt 0.131637 0.329069
vt 0.131637 0.329069
vt 0.131637 0.329069
vt 0.131637 0.329069
vt 0.131636 0.329069
vt 0.131636 0.329069
vt 0.131636 0.329069
vt 0.131636 0.329069
vt 0.131636 0.329069
vt 0.131636 0.329069
vt 0.131636 0.329069
vt 0.131636 0.329069
vt 0.131636 0.329069
vt 0.131636 0.329069
vt 0.131636 0.329069
vt 0.131636 0.329069
vn 0.000000 0.000000 1.000000
vn 0.000000 0.000000 1.000000
vn 0.000000 0.000000 1.000000
vn 0.000000 0.000000 1.000000
vn 0.000000 1.000000 0.000000
vn 0.000000 1.000000 0.000000
vn 0.000000 1.000000 0.000000
vn 0.000000 1.000000 0.000000
vn 0.000000 0.000000 -1.000000
vn 0.000000 0.000000 -1.000000
vn 0.000000 0.000000 -1.000000
vn 0.000000 0.000000 -1.000000
vn 0.000000 -1.000000 0.000000
vn 0.000000 -1.000000 0.000000
vn 0.000000 -1.000000 0.000000
vn 0.000000 -1.000000 0.000000
vn 1.000000 0.000000 0.000000
vn 1.000000 0.000000 0.000000
vn 1.000000 0.000000 0.000000
vn 1.000000 0.000000 0.000000
vn -1.000000 0.000000 0.000000
vn -1.000000 0.000000 0.000000
vn -1.000000 0.000000 0.000000
vn -1.000000 0.000000 0.000000
vn 0.000000 0.000000 -1.000000
vn 0.000000 0.000000 -1.000000
vn 0.000000 0.000000 -1.000000
vn 0.000000 0.000000 -1.000000
vn 0.000000 1.000000 0.000000
vn 0.000000 1.000000 0.000000
vn 0.000000 1.000000 0.000000
vn 0.000000 1.000000 0.000000
vn 0.000000 0.000000 1.000000
vn 0.000000 0.000000 1.000000
vn 0.000000 0.000000 1.000000
vn 0.000000 0.000000 1.000000
vn 0.000000 -1.000000 0.000000
vn 0.000000 -1.000000 0.000000
vn 0.000000 -1.000000 0.000000
vn 0.000000 -1.000000 0.000000
vn -1.000000 0.000000 0.000000
vn -1.000000 0.000000 0.000000
vn -1.000000 0.000000 0.000000
vn -1.000000 0.000000 0.000000
vn 1.000000 0.000000 0.000000
vn 1.000000 0.000000 0.000000
vn 1.000000 0.000000 0.000000
vn 1.000000 0.000000 0.000000
vn 0.000000 0.000000 -1.000000
vn 0.000000 0.000000 -1.000000
vn 0.000000 0.000000 -1.000000
vn 0.000000 0.000000 -1.000000
vn 0.000000 0.000000 1.000000
vn 0.000000 0.000000 1.000000
vn 0.000000 0.000000 1.000000
vn 0.000000 0.000000 1.000000
vn 1.000000 0.000000 0.000000
vn 1.000000 0.000000 0.000000
vn 1.000000 0.000000 0.000000
vn 1.000000 0.000000 0.000000
vn 0.000000 1.000000 0.000000
vn 0.000000 1.000000 0.000000
vn 0.000000 1.000000 0.000000
vn 0.000000 1.000000 0.000000
vn 0.000000 0.000000 -1.000000
vn 0.000000 0.000000 -1.000000
vn 0.000000 0.000000 -1.000000
vn 0.000000 0.000000 -1.000000
vn 0.000000 0.000000 1.000000
vn 0.000000 0.000000 1.000000
vn 0.000000 0.000000 1.000000
vn 0.000000 0.000000 1.000000
vn 0.000000 1.000000 0.000000
vn 0.000000 1.000000 0.000000
vn 0.000000 1.000000 0.000000
vn 0.000000 1.000000 0.000000
vn 0.000000 0.000000 -1.000000
vn 0.000000 0.000000 -1.000000
vn 0.000000 0.000000 -1.000000
vn 0.000000 0.000000 -1.000000
vn 0.000000 -1.000000 0.000000
vn 0.000000 -1.000000 0.000000
vn 0.000000 -1.000000 0.000000
vn 0.000000 -1.000000 0.000000
vn 1.000000 0.000000 0.000000
vn 1.000000 0.000000 0.000000
vn 1.000000 0.000000 0.000000
vn 1.000000 0.000000 0.000000
vn -1.000000 0.000000 0.000000
vn -1.000000 0.000000 0.000000
vn -1.000000 0.000000 0.000000
vn -1.000000 0.000000 0.000000
vn 0.000000 0.000000 1.000000
vn 0.000000 0.000000 1.000000
vn 0.000000 0.000000 1.000000
vn 0.000000 0.000000 1.000000
vn 0.000000 0.000000 -1.000000
vn 0.000000 0.000000 -1.000000
vn 0.000000 0.000000 -1.000000
vn 0.000000 0.000000 -1.000000
vn -1.000000 0.000000 0.000000
vn -1.000000 0.000000 0.000000
vn -1.000000 0.000000 0.000000
vn -1.000000 0.000000 0.000000
vn 0.000000 -1.000000 0.000000
vn 0.000000 -1.000000 0.000000
vn 0.000000 -1.000000 0.000000
vn 0.000000 -1.000000 0.000000
vn 0.000000 0.000000 1.000000
vn 0.000000 0.000000 1.000000
vn 0.000000 0.000000 1.000000
vn 0.000000 0.000000 1.000000
s off
f 1/1/1 2/2/2 4/3/3 3/4/4
f 3/4/5 4/3/6 6/5/7 5/6/8
f 5/6/9 6/5/10 8/7/11 7/8/12
f 7/8/13 8/7/14 2/2/15 1/1/16
f 2/2/17 8/7/18 6/5/19 4/3/20
f 7/8/21 1/1/22 3/4/23 5/6/24
f 9/9/25 10/10/26 12/11/27 11/12/28
f 17/13/29 18/14/30 19/15/31 20/16/32
f 13/17/33 14/18/34 16/19/35 15/20/36
f 15/20/37 16/19/38 10/10/39 9/9/40
f 10/10/41 16/19/42 14/18/43 12/11/44
f 15/20/45 9/9/46 11/12/47 13/17/48
f 11/12/49 12/11/50 18/14/51 17/13/52
f 14/18/53 13/17/54 20/16/55 19/15/56
f 13/17/57 11/12/58 17/13/59 20/16/60
f 19/15/61 18/14/62 31/21/63 30/22/64
f 18/14/65 12/11/66 26/23/67 31/21/68
f 21/24/69 22/25/70 24/26/71 23/27/72
f 29/28/73 30/22/74 31/21/75 32/29/76
f 25/30/77 26/23/78 28/31/79 27/32/80
f 27/32/81 28/31/82 22/25/83 21/24/84
f 22/25/85 28/31/86 26/23/87 24/26/88
f 27/32/89 21/24/90 23/27/91 25/30/92
f 23/27/93 24/26/94 30/22/95 29/28/96
f 26/23/97 25/30/98 32/29/99 31/21/100
f 25/30/101 23/27/102 29/28/103 32/29/104
f 14/18/105 24/26/106 26/23/107 12/11/108
f 19/15/109 30/22/110 24/26/111 14/18/112
