# This file uses centimeters as units for non-parametric coordinates.

v -0.047680 0.069826 0.189626
v -0.056291 0.062603 0.202203
v 0.056291 0.062603 0.202203
v 0.047680 0.069826 0.189626
v -0.057269 0.069826 0.178383
v 0.057269 0.069826 0.178383
v -0.067611 0.062603 0.187607
v -0.074465 0.007223 0.221265
v 0.074465 0.007223 0.221265
v 0.067611 0.062603 0.187607
v 0.057269 0.069826 -0.178383
v 0.000000 0.069826 -0.161274
v 0.028904 0.069826 -0.149302
v 0.040877 0.069826 -0.120398
v 0.028904 0.069826 -0.091493
v 0.000000 0.069826 -0.079521
v -0.028904 0.069826 -0.091493
v -0.040877 0.069826 -0.120398
v -0.028904 0.069826 -0.149302
v -0.057269 0.069826 -0.178383
v -0.089441 0.007223 0.205499
v 0.073188 0.000000 0.217105
v -0.073188 0.000000 0.217105
v 0.089441 0.007223 0.205499
v -0.067611 0.062603 -0.187607
v 0.067611 0.062603 -0.187607
v 0.047680 0.069826 -0.189626
v -0.047680 0.069826 -0.189626
v -0.089441 0.007223 -0.205499
v 0.087907 0.000000 0.201595
v -0.087907 0.000000 0.201595
v 0.089441 0.007223 -0.205499
v -0.056291 0.062603 -0.202203
v 0.056291 0.062603 -0.202203
v -0.087907 0.000000 -0.201595
v 0.087907 0.000000 -0.201595
v 0.074465 0.007223 -0.221265
v -0.074465 0.007223 -0.221265
v -0.073188 0.000000 -0.217105
v 0.073188 0.000000 -0.217105
v 0.000000 0.063074 -0.154441
v 0.024072 0.063074 -0.144470
v 0.034043 0.063074 -0.120398
v 0.000000 0.063074 -0.120398
v -0.024072 0.063074 -0.144470
v 0.024072 0.063074 -0.096325
v -0.034043 0.063074 -0.120398
v 0.000000 0.063074 -0.086354
v -0.024072 0.063074 -0.096325
v 0.067611 0.062603 0.000000
v 0.089441 0.007223 0.000000
v 0.087907 0.000000 -0.000000
v -0.087907 0.000000 -0.000000
v -0.089441 0.007223 0.000000
v -0.067611 0.062603 0.000000
v 0.057269 0.069826 -0.000000
v -0.057269 0.069826 -0.000000
v 0.038117 0.069826 0.147855
v 0.038117 0.069826 0.122617
v -0.038117 0.069826 0.122617
v -0.038117 0.069826 0.147855
v 0.034413 0.063821 0.145542
v 0.034413 0.063821 0.124930
v -0.034413 0.063821 0.124930
v -0.034413 0.063821 0.145542
vt 0.049899 0.210801
vt 0.049899 0.210801
vt 0.049899 0.210801
vt 0.049899 0.210801
vt 0.049899 0.210801
vt 0.049899 0.210801
vt 0.049899 0.210801
vt 0.049899 0.210801
vt 0.049899 0.210801
vt 0.049899 0.210801
vt 0.049899 0.210801
vt 0.049899 0.210801
vt 0.049899 0.210801
vt 0.049899 0.210801
vt 0.049899 0.210801
vt 0.049899 0.210801
vt 0.049899 0.210801
vt 0.049899 0.210801
vt 0.049899 0.210801
vt 0.049899 0.210801
vt 0.049899 0.210801
vt 0.049899 0.210801
vt 0.049899 0.210801
vt 0.049899 0.210801
vt 0.049899 0.210801
vt 0.049899 0.210801
vt 0.049899 0.210801
vt 0.049899 0.210801
vt 0.049899 0.210801
vt 0.049899 0.210801
vt 0.049899 0.210801
vt 0.049899 0.210801
vt 0.049899 0.210801
vt 0.049899 0.210801
vt 0.049899 0.210801
vt 0.049899 0.210801
vt 0.049899 0.210801
vt 0.049899 0.210801
vt 0.049899 0.210801
vt 0.049899 0.210801
vt 0.049899 0.210801
vt 0.049899 0.210801
vt 0.049899 0.210801
vt 0.049899 0.210801
vt 0.049899 0.210801
vt 0.049899 0.210801
vt 0.049899 0.210801
vt 0.049899 0.210801
vt 0.049899 0.210801
vt 0.049899 0.210801
vt 0.049899 0.210801
vt 0.049899 0.210801
vt 0.049899 0.210801
vt 0.049899 0.210801
vt 0.049899 0.210801
vt 0.049899 0.210801
vt 0.049899 0.210801
vt 0.049899 0.210801
vt 0.049899 0.210801
vt 0.049899 0.210801
vt 0.049899 0.210801
vt 0.049899 0.210801
vt 0.049899 0.210801
vt 0.049899 0.210801
vt 0.049899 0.210801
vt 0.049899 0.210801
vt 0.049899 0.210801
vt 0.049899 0.210801
vt 0.049899 0.210801
vt 0.049899 0.210801
vt 0.049899 0.210801
vt 0.049899 0.210801
vt 0.049899 0.210801
vt 0.049899 0.210801
vt 0.049899 0.210801
vt 0.049899 0.210801
vt 0.049899 0.210801
vt 0.049899 0.210801
vt 0.049899 0.210801
vt 0.049899 0.210801
vt 0.049899 0.210801
vt 0.049899 0.210801
vt 0.049899 0.210801
vt 0.049899 0.210801
vt 0.049899 0.210801
vt 0.049899 0.210801
vt 0.049899 0.210801
vt 0.049899 0.210801
vt 0.049899 0.210801
vt 0.049899 0.210801
vt 0.049899 0.210801
vt 0.049899 0.210801
vt 0.049899 0.210801
vt 0.049899 0.210801
vt 0.049899 0.210801
vt 0.049899 0.210801
vt 0.049899 0.210801
vt 0.049899 0.210801
vt 0.049899 0.210801
vt 0.049899 0.210801
vt 0.049899 0.210801
vt 0.049899 0.210801
vt 0.049899 0.210801
vt 0.049899 0.210801
vt 0.049899 0.210801
vn 0.000000 0.867174 0.498006
vn 0.000000 0.867173 0.498006
vn 0.000000 0.867173 0.498006
vn 0.000000 0.867174 0.498006
vn 0.000000 1.000000 -0.000000
vn 0.000000 1.000000 0.000000
vn 0.000000 1.000000 0.000000
vn 0.000000 1.000000 -0.000000
vn -0.351963 0.891625 0.284827
vn -0.351963 0.891625 0.284827
vn -0.351963 0.891625 0.284827
vn -0.351963 0.891625 0.284827
vn 0.000000 0.325462 0.945555
vn 0.000000 0.325462 0.945555
vn 0.000000 0.325462 0.945555
vn 0.000000 0.325462 0.945555
vn 0.351963 0.891625 0.284827
vn 0.351963 0.891625 0.284827
vn 0.351963 0.891625 0.284827
vn 0.351963 0.891625 0.284827
vn -0.678395 0.441062 0.587575
vn -0.678395 0.441062 0.587575
vn -0.678395 0.441062 0.587575
vn -0.678395 0.441062 0.587575
vn 0.000000 -0.499087 0.866552
vn 0.000000 -0.499087 0.866552
vn 0.000000 -0.499087 0.866552
vn 0.000000 -0.499087 0.866552
vn 0.678395 0.441062 0.587575
vn 0.678395 0.441062 0.587575
vn 0.678395 0.441062 0.587575
vn 0.678395 0.441062 0.587575
vn -0.572579 0.819849 -0.000000
vn -0.572579 0.819849 -0.000000
vn -0.572579 0.819849 0.000000
vn -0.572579 0.819849 0.000000
vn 0.572579 0.819850 -0.000000
vn 0.572579 0.819850 -0.000000
vn 0.572579 0.819850 -0.000000
vn 0.572579 0.819850 -0.000000
vn 0.000000 1.000000 -0.000000
vn 0.000000 1.000000 -0.000000
vn 0.000000 1.000000 -0.000000
vn 0.000000 1.000000 -0.000000
vn -0.930332 0.366719 -0.000000
vn -0.930332 0.366719 -0.000000
vn -0.930332 0.366719 -0.000000
vn -0.930332 0.366719 -0.000000
vn -0.641954 -0.465182 0.609508
vn -0.641954 -0.465182 0.609508
vn -0.641954 -0.465182 0.609508
vn -0.641954 -0.465182 0.609508
vn 0.000000 -1.000000 0.000000
vn 0.000000 -1.000000 0.000000
vn 0.000000 -1.000000 0.000000
vn 0.000000 -1.000000 0.000000
vn 0.641954 -0.465182 0.609508
vn 0.641954 -0.465182 0.609508
vn 0.641954 -0.465182 0.609508
vn 0.641954 -0.465182 0.609508
vn 0.930332 0.366719 -0.000000
vn 0.930332 0.366719 -0.000000
vn 0.930332 0.366719 -0.000000
vn 0.930332 0.366719 -0.000000
vn -0.351964 0.891624 -0.284828
vn -0.351964 0.891624 -0.284828
vn -0.351964 0.891624 -0.284828
vn -0.351964 0.891624 -0.284828
vn 0.351964 0.891624 -0.284828
vn 0.351964 0.891624 -0.284828
vn 0.351964 0.891624 -0.284828
vn 0.351964 0.891624 -0.284828
vn 0.000000 0.867173 -0.498008
vn 0.000000 0.867173 -0.498008
vn 0.000000 0.867173 -0.498008
vn 0.000000 0.867173 -0.498008
vn -0.678395 0.441062 -0.587575
vn -0.678395 0.441062 -0.587575
vn -0.678395 0.441062 -0.587575
vn -0.678395 0.441062 -0.587575
vn -0.978188 -0.207723 0.000000
vn -0.978188 -0.207723 0.000000
vn -0.978188 -0.207723 0.000000
vn -0.978188 -0.207723 0.000000
vn 0.000000 -1.000000 0.000000
vn 0.000000 -1.000000 0.000000
vn 0.000000 -1.000000 0.000000
vn 0.000000 -1.000000 0.000000
vn 0.978188 -0.207723 0.000000
vn 0.978188 -0.207723 0.000000
vn 0.978188 -0.207723 0.000000
vn 0.978188 -0.207723 0.000000
vn 0.678395 0.441062 -0.587575
vn 0.678395 0.441062 -0.587575
vn 0.678395 0.441062 -0.587575
vn 0.678395 0.441062 -0.587575
vn 0.000000 0.325463 -0.945555
vn 0.000000 0.325463 -0.945555
vn 0.000000 0.325463 -0.945555
vn 0.000000 0.325463 -0.945555
vn -0.641955 -0.465181 -0.609508
vn -0.641955 -0.465181 -0.609508
vn -0.641955 -0.465181 -0.609508
vn -0.641955 -0.465181 -0.609508
vn 0.000000 -1.000000 0.000000
vn 0.000000 -1.000000 0.000000
vn 0.000000 -1.000000 0.000000
vn 0.000000 -1.000000 0.000000
vn 0.641955 -0.465181 -0.609508
vn 0.641955 -0.465181 -0.609508
vn 0.641955 -0.465181 -0.609508
vn 0.641955 -0.465181 -0.609508
vn 0.000000 -0.499089 -0.866551
vn 0.000000 -0.499089 -0.866551
vn 0.000000 -0.499089 -0.866551
vn 0.000000 -0.499089 -0.866551
vn -0.279525 0.682984 0.674832
vn -0.279525 0.682984 0.674832
vn -0.279525 0.682984 0.674832
vn -0.279525 0.682984 0.674832
vn -0.674832 0.682984 0.279525
vn -0.674832 0.682984 0.279525
vn -0.674832 0.682984 0.279524
vn -0.674832 0.682984 0.279525
vn 0.000000 1.000000 0.000000
vn 0.000000 1.000000 0.000000
vn 0.000000 1.000000 0.000000
vn 0.279525 0.682984 0.674832
vn 0.279525 0.682984 0.674832
vn 0.279525 0.682984 0.674832
vn 0.279525 0.682984 0.674832
vn -0.674832 0.682984 -0.279524
vn -0.674832 0.682984 -0.279525
vn -0.674832 0.682984 -0.279525
vn -0.674832 0.682984 -0.279525
vn 0.000000 1.000000 0.000000
vn 0.000000 1.000000 0.000000
vn 0.000000 1.000000 0.000000
vn 0.000000 1.000000 0.000000
vn 0.000000 1.000000 0.000000
vn 0.000000 1.000000 0.000000
vn 0.674832 0.682984 0.279525
vn 0.674832 0.682984 0.279525
vn 0.674832 0.682984 0.279525
vn 0.674832 0.682984 0.279524
vn -0.279525 0.682984 -0.674832
vn -0.279525 0.682984 -0.674832
vn -0.279525 0.682984 -0.674832
vn -0.279525 0.682984 -0.674832
vn 0.000000 1.000000 0.000000
vn 0.000000 1.000000 0.000000
vn 0.000000 1.000000 -0.000000
vn 0.000000 1.000000 0.000000
vn 0.000000 1.000000 0.000000
vn 0.000000 1.000000 0.000000
vn 0.674833 0.682984 -0.279525
vn 0.674833 0.682984 -0.279524
vn 0.674833 0.682984 -0.279525
vn 0.674833 0.682984 -0.279525
vn 0.279525 0.682984 -0.674832
vn 0.279525 0.682984 -0.674832
vn 0.279525 0.682984 -0.674832
vn 0.279525 0.682984 -0.674832
vn 0.000000 1.000000 -0.000000
vn 0.000000 1.000000 0.000000
vn 0.000000 1.000000 0.000000
vn 0.000000 1.000000 -0.000000
vn 0.000000 1.000000 0.000000
vn 0.000000 1.000000 0.000000
vn 0.000000 1.000000 0.000000
vn 0.000000 1.000000 0.000000
vn 0.000000 1.000000 -0.000000
vn 0.930332 0.366719 -0.000000
vn 0.930332 0.366719 -0.000000
vn 0.930332 0.366719 -0.000000
vn 0.930332 0.366719 -0.000000
vn 0.978188 -0.207722 0.000000
vn 0.978188 -0.207723 0.000000
vn 0.978188 -0.207723 0.000000
vn 0.978188 -0.207722 0.000000
vn 0.000000 -1.000000 0.000000
vn 0.000000 -1.000000 0.000000
vn 0.000000 -1.000000 0.000000
vn 0.000000 -1.000000 0.000000
vn -0.978188 -0.207723 0.000000
vn -0.978188 -0.207723 0.000000
vn -0.978188 -0.207723 0.000000
vn -0.978188 -0.207723 0.000000
vn -0.930332 0.366719 -0.000000
vn -0.930332 0.366719 -0.000000
vn -0.930332 0.366719 -0.000000
vn -0.930332 0.366719 -0.000000
vn 0.572579 0.819849 0.000000
vn 0.572579 0.819849 0.000000
vn 0.572579 0.819850 -0.000000
vn 0.572579 0.819850 -0.000000
vn 0.000000 1.000000 0.000000
vn 0.000000 1.000000 0.000000
vn 0.000000 1.000000 0.000000
vn 0.000000 1.000000 0.000000
vn -0.572579 0.819850 -0.000000
vn -0.572579 0.819849 -0.000000
vn -0.572579 0.819849 -0.000000
vn -0.572579 0.819850 -0.000000
vn 0.000000 1.000000 -0.000000
vn 0.000000 1.000000 -0.000000
vn 0.000000 1.000000 0.000000
vn 0.000000 1.000000 0.000000
vn 0.000000 1.000000 0.000000
vn 0.000000 1.000000 0.000000
vn 0.000000 1.000000 0.000000
vn 0.000000 1.000000 0.000000
vn 0.000000 1.000000 0.000000
vn 0.000000 1.000000 0.000000
vn 0.000000 1.000000 0.000000
vn 0.000000 1.000000 0.000000
vn 0.000000 1.000000 0.000000
vn 0.000000 1.000000 0.000000
vn 0.000000 1.000000 0.000000
vn 0.000000 1.000000 -0.000000
vn 0.000000 1.000000 -0.000000
vn 0.000000 1.000000 -0.000000
vn 0.000000 1.000000 0.000000
vn 0.000000 1.000000 0.000000
vn 0.000000 1.000000 0.000000
vn 0.000000 1.000000 0.000000
vn 0.000000 1.000000 0.000000
vn 0.000000 1.000000 0.000000
vn 0.000000 1.000000 0.000000
vn 0.000000 1.000000 0.000000
vn 0.000000 1.000000 0.000000
vn 0.000000 1.000000 -0.000000
vn 0.000000 1.000000 -0.000000
vn 0.000000 1.000000 -0.000000
vn 0.000000 1.000000 0.000000
vn 0.000000 1.000000 0.000000
vn 0.000000 1.000000 0.000000
vn 0.000000 1.000000 -0.000000
vn 0.000000 1.000000 -0.000000
vn 0.000000 1.000000 -0.000000
vn 0.000000 1.000000 -0.000000
vn 0.000000 1.000000 -0.000000
vn 0.000000 1.000000 -0.000000
vn 0.000000 1.000000 -0.000000
vn 0.000000 1.000000 -0.000000
vn 0.000000 1.000000 -0.000000
vn 0.000000 1.000000 -0.000000
vn 0.000000 1.000000 -0.000000
vn 0.000000 1.000000 -0.000000
vn 0.000000 1.000000 -0.000000
vn 0.000000 1.000000 -0.000000
vn 0.000000 1.000000 -0.000000
vn 0.000000 1.000000 -0.000000
vn 0.000000 1.000000 -0.000000
vn 0.000000 1.000000 -0.000000
vn 0.000000 1.000000 -0.000000
vn -0.851168 0.524894 0.000000
vn -0.851167 0.524894 0.000000
vn -0.851167 0.524894 0.000000
vn -0.851167 0.524894 0.000000
vn 0.000000 0.359481 0.933152
vn 0.000000 0.359481 0.933152
vn 0.000000 0.359481 0.933152
vn 0.000000 0.359481 0.933152
vn 0.851167 0.524894 -0.000000
vn 0.851167 0.524894 -0.000000
vn 0.851167 0.524894 -0.000000
vn 0.851167 0.524894 -0.000000
vn 0.000000 0.359479 -0.933153
vn 0.000000 0.359479 -0.933153
vn 0.000000 0.359479 -0.933153
vn 0.000000 0.359479 -0.933153
s off
f 1/1/1 2/2/2 3/3/3 4/4/4
f 5/5/5 1/1/6 4/4/7 6/6/8
f 7/7/9 2/2/10 1/1/11 5/5/12
f 8/8/13 9/9/14 3/3/15 2/2/16
f 4/4/17 3/3/18 10/10/19 6/6/20
f 2/2/21 7/7/22 21/13/23 8/8/24
f 22/14/25 9/9/26 8/8/27 23/15/28
f 3/3/29 9/9/30 24/16/31 10/10/32
f 55/55/33 57/61/34 20/12/35 25/17/36
f 50/50/37 56/56/38 6/6/39 10/10/40
f 20/12/41 11/11/42 27/19/43 28/20/44
f 25/17/45 29/21/46 54/54/47 55/55/48
f 23/15/49 8/8/50 21/13/51 31/23/52
f 30/22/53 22/14/54 23/15/55 31/23/56
f 24/16/57 9/9/58 22/14/59 30/22/60
f 50/50/61 51/51/62 32/24/63 26/18/64
f 25/17/65 20/12/66 28/20/67 33/25/68
f 27/19/69 11/11/70 26/18/71 34/26/72
f 33/25/73 28/20/74 27/19/75 34/26/76
f 29/21/77 25/17/78 33/25/79 38/30/80
f 29/21/81 35/27/82 53/53/83 54/54/84
f 52/52/85 53/53/86 35/27/87 36/28/88
f 51/51/89 52/52/90 36/28/91 32/24/92
f 34/26/93 26/18/94 32/24/95 37/29/96
f 34/26/97 37/29/98 38/30/99 33/25/100
f 39/31/101 35/27/102 29/21/103 38/30/104
f 36/28/105 35/27/106 39/31/107 40/32/108
f 32/24/109 36/28/110 40/32/111 37/29/112
f 37/29/113 40/32/114 39/31/115 38/30/116
f 13/33/117 12/34/118 41/35/119 42/36/120
f 14/37/121 13/33/122 42/36/123 43/38/124
f 41/35/125 44/39/126 42/36/127
f 12/34/128 19/40/129 45/41/130 41/35/131
f 15/42/132 14/37/133 43/38/134 46/43/135
f 42/36/136 44/39/137 43/38/138
f 45/41/139 44/39/140 41/35/141
f 19/40/142 18/44/143 47/45/144 45/41/145
f 16/46/146 15/42/147 46/43/148 48/47/149
f 43/38/150 44/39/151 46/43/152
f 47/45/153 44/39/154 45/41/155
f 17/48/156 49/49/157 47/45/158 18/44/159
f 17/48/160 16/46/161 48/47/162 49/49/163
f 46/43/164 44/39/165 48/47/166
f 49/49/167 44/39/168 47/45/169
f 48/47/170 44/39/171 49/49/172
f 24/16/173 51/51/174 50/50/175 10/10/176
f 30/22/177 52/52/178 51/51/179 24/16/180
f 30/22/181 31/23/182 53/53/183 52/52/184
f 54/54/185 53/53/186 31/23/187 21/13/188
f 55/55/189 54/54/190 21/13/191 7/7/192
f 26/18/193 11/11/194 56/56/195 50/50/196
f 62/102/197 63/103/198 64/104/199 65/105/200
f 5/5/201 57/61/202 55/55/203 7/7/204
f 57/62/205 56/63/206 16/64/207
f 11/65/208 20/66/209 12/67/210
f 56/68/211 11/69/212 14/70/213
f 20/71/214 57/72/215 18/73/216
f 57/74/217 16/75/218 17/76/219
f 18/77/220 57/78/221 17/79/222
f 20/80/223 18/81/224 19/82/225
f 12/83/226 20/84/227 19/85/228
f 11/86/229 12/87/230 13/88/231
f 14/89/232 11/90/233 13/91/234
f 56/92/235 14/93/236 15/94/237
f 16/95/238 56/96/239 15/97/240
f 6/57/241 56/58/242 59/99/243 58/98/244
f 56/58/245 57/59/246 60/100/247 59/99/248
f 57/59/249 5/60/250 61/101/251 60/100/252
f 5/60/253 6/57/254 58/98/255 61/101/256
f 58/98/257 59/99/258 63/103/259 62/102/260
f 59/99/261 60/100/262 64/104/263 63/103/264
f 60/100/265 61/101/266 65/105/267 64/104/268
f 61/101/269 58/98/270 62/102/271 65/105/272
