# This file uses centimeters as units for non-parametric coordinates.

v -0.121856 0.000000 0.162761
v 0.128117 0.000000 0.073778
v -0.192021 0.000000 -0.150355
v 0.205231 0.000000 -0.162761
v -0.205231 0.000000 -0.014131
v -0.009167 0.000000 -0.147996
v -0.121856 0.014992 0.162761
v 0.128117 0.014992 0.073778
v -0.205231 0.014992 -0.014131
v -0.009167 0.014992 -0.147996
v -0.192021 0.014992 -0.150355
v 0.205231 0.014992 -0.162761
vt 0.557493 0.067675
vt 0.557492 0.067675
vt 0.557493 0.067675
vt 0.557492 0.067675
vt 0.557493 0.067675
vt 0.557492 0.067675
vt 0.557493 0.067675
vt 0.557492 0.067675
vt 0.557493 0.067675
vt 0.557492 0.067675
vt 0.557493 0.067675
vt 0.557492 0.067675
vt 0.557493 0.067675
vt 0.557492 0.067675
vt 0.557493 0.067675
vt 0.557492 0.067675
vt 0.557493 0.067675
vt 0.557492 0.067675
vn 0.000000 1.000000 -0.000000
vn 0.000000 1.000000 0.000000
vn 0.000000 1.000000 0.000000
vn 0.000000 1.000000 0.000000
vn 0.000000 1.000000 0.000000
vn 0.000000 1.000000 0.000000
vn 0.000000 1.000000 0.000000
vn 0.000000 1.000000 0.000000
vn 0.000000 1.000000 0.000000
vn 0.000000 1.000000 0.000000
vn 0.000000 1.000000 0.000000
vn 0.000000 1.000000 0.000000
vn -0.000000 -1.000000 -0.000000
vn -0.000000 -1.000000 0.000000
vn -0.000000 -1.000000 0.000000
vn -0.000000 -1.000000 0.000000
vn 0.000000 -1.000000 0.000000
vn -0.000000 -1.000000 0.000000
vn -0.000000 -1.000000 0.000000
vn -0.000000 -1.000000 0.000000
vn -0.000000 -1.000000 0.000000
vn -0.000000 -1.000000 0.000000
vn -0.000000 -1.000000 0.000000
vn -0.000000 -1.000000 0.000000
vn 0.335354 0.000000 0.942092
vn 0.335354 0.000000 0.942092
vn 0.335354 0.000000 0.942092
vn 0.335354 0.000000 0.942092
vn -0.904559 0.000000 0.426348
vn -0.904559 0.000000 0.426348
vn -0.904559 0.000000 0.426348
vn -0.904559 0.000000 0.426348
vn 0.012903 0.000000 -0.999917
vn 0.012903 0.000000 -0.999917
vn 0.012903 0.000000 -0.999917
vn 0.012903 0.000000 -0.999917
vn -0.995331 0.000000 -0.096517
vn -0.995331 0.000000 -0.096517
vn -0.995331 0.000000 -0.096517
vn -0.995331 0.000000 -0.096517
vn 0.950752 0.000000 0.309953
vn 0.950752 0.000000 0.309953
vn 0.950752 0.000000 0.309953
vn 0.950752 0.000000 0.309953
vn -0.068704 0.000000 -0.997637
vn -0.068704 0.000000 -0.997637
vn -0.068704 0.000000 -0.997637
vn -0.068704 0.000000 -0.997637
s off
f 7/13/1 8/14/2 9/15/3
f 9/15/4 10/16/5 11/17/6
f 10/16/7 8/14/8 12/18/9
f 9/15/10 8/14/11 10/16/12
f 1/7/13 5/9/14 2/8/15
f 5/9/16 3/11/17 6/10/18
f 6/10/19 4/12/20 2/8/21
f 5/9/22 6/10/23 2/8/24
f 1/1/25 2/2/26 8/14/27 7/13/28
f 5/5/29 1/1/30 7/13/31 9/15/32
f 6/6/33 3/3/34 11/17/35 10/16/36
f 3/3/37 5/5/38 9/15/39 11/17/40
f 2/2/41 4/4/42 12/18/43 8/14/44
f 4/4/45 6/6/46 10/16/47 12/18/48
