# This file uses centimeters as units for non-parametric coordinates.

v 0.015824 -0.055763 0.016000
v -0.029599 -0.055763 0.016000
v -0.029599 -0.055763 0.067884
v 0.015824 -0.055763 0.067884
v 0.015824 -0.178957 0.067884
v 0.015824 -0.178957 0.016000
v -0.029599 -0.178957 0.016000
v -0.029599 -0.178957 0.067884
v -0.029599 -0.067726 0.016000
v 0.015824 -0.067726 0.016000
v 0.015824 -0.067726 0.067884
v -0.029599 -0.067726 0.067884
v 0.032895 -0.158294 -0.001070
v -0.046669 -0.158294 -0.001070
v -0.046669 -0.089264 -0.001070
v 0.032895 -0.089264 -0.001070
v -0.046669 -0.158294 0.084955
v -0.046669 -0.089264 0.084955
v 0.032895 -0.158294 0.084955
v 0.032895 -0.089264 0.084955
v 0.015823 -0.306245 0.067884
v 0.015823 -0.306245 0.016000
v -0.029598 -0.306245 0.016000
v -0.029598 -0.306245 0.067884
v 0.064705 -0.055763 -0.039835
v -0.078480 -0.055763 -0.039835
v -0.078480 -0.055763 0.123720
v 0.064705 -0.055763 0.123720
v 0.064705 0.000000 -0.039835
v -0.078480 0.000000 -0.039835
v -0.078480 0.000000 0.123720
v 0.064705 0.000000 0.123720
vt 0.090069 0.275521
vt 0.090069 0.275521
vt 0.090069 0.275521
vt 0.090069 0.275521
vt 0.090069 0.275521
vt 0.090069 0.275521
vt 0.090069 0.275521
vt 0.090069 0.275521
vt 0.090069 0.275521
vt 0.090069 0.275521
vt 0.090069 0.275521
vt 0.090069 0.275521
vt 0.090069 0.275521
vt 0.090069 0.275521
vt 0.090069 0.275521
vt 0.090069 0.275521
vt 0.090069 0.275521
vt 0.090069 0.275521
vt 0.090069 0.275521
vt 0.090069 0.275521
vt 0.090069 0.275521
vt 0.090069 0.275521
vt 0.090069 0.275521
vt 0.090069 0.275521
vt 0.090069 0.275521
vt 0.090069 0.275521
vt 0.090069 0.275521
vt 0.090069 0.275521
vt 0.090069 0.275521
vt 0.090069 0.275521
vt 0.090069 0.275521
vt 0.090069 0.275521
vn 0.000000 1.000000 0.000000
vn 0.000000 1.000000 0.000000
vn 0.000000 1.000000 0.000000
vn 0.000000 1.000000 0.000000
vn -1.000000 0.000000 0.000000
vn -1.000000 0.000000 0.000000
vn -1.000000 0.000000 0.000000
vn -1.000000 0.000000 0.000000
vn 0.000000 0.000000 1.000000
vn 0.000000 0.000000 1.000000
vn 0.000000 0.000000 1.000000
vn 0.000000 0.000000 1.000000
vn 1.000000 0.000000 0.000000
vn 1.000000 0.000000 0.000000
vn 1.000000 0.000000 0.000000
vn 1.000000 0.000000 0.000000
vn 1.000000 -0.000007 0.000000
vn 1.000000 -0.000007 0.000000
vn 1.000000 -0.000007 0.000000
vn 1.000000 -0.000007 0.000000
vn 0.000000 0.000000 -1.000000
vn 0.000000 0.000000 -1.000000
vn 0.000000 0.000000 -1.000000
vn 0.000000 0.000000 -1.000000
vn -1.000000 -0.000007 0.000000
vn -1.000000 -0.000007 0.000000
vn -1.000000 -0.000007 0.000000
vn -1.000000 -0.000007 0.000000
vn 0.000000 0.000000 1.000000
vn 0.000000 0.000000 1.000000
vn 0.000000 0.000000 1.000000
vn 0.000000 0.000000 1.000000
vn 0.000000 0.000000 -1.000000
vn 0.000000 0.000000 -1.000000
vn 0.000000 0.000000 -1.000000
vn 0.000000 0.000000 -1.000000
vn 1.000000 0.000000 0.000000
vn 1.000000 0.000000 0.000000
vn 1.000000 0.000000 0.000000
vn 1.000000 0.000000 0.000000
vn 0.000000 0.000000 1.000000
vn 0.000000 0.000000 1.000000
vn 0.000000 0.000000 1.000000
vn 0.000000 0.000000 1.000000
vn -1.000000 0.000000 0.000000
vn -1.000000 0.000000 0.000000
vn -1.000000 0.000000 0.000000
vn -1.000000 0.000000 0.000000
vn 0.000000 -0.636906 -0.770941
vn 0.000000 -0.636906 -0.770941
vn 0.000000 -0.636906 -0.770941
vn 0.000000 -0.636906 -0.770941
vn 0.000000 0.621151 -0.783691
vn 0.000000 0.621151 -0.783691
vn 0.000000 0.621151 -0.783691
vn 0.000000 0.621151 -0.783691
vn -0.770941 -0.636906 0.000000
vn -0.770941 -0.636906 0.000000
vn -0.770941 -0.636906 0.000000
vn -0.770941 -0.636906 0.000000
vn -0.783691 0.621151 0.000000
vn -0.783691 0.621151 0.000000
vn -0.783691 0.621151 0.000000
vn -0.783691 0.621151 0.000000
vn 0.000000 -0.636906 0.770941
vn 0.000000 -0.636906 0.770941
vn 0.000000 -0.636906 0.770941
vn 0.000000 -0.636906 0.770941
vn 0.000000 0.621151 0.783691
vn 0.000000 0.621151 0.783691
vn 0.000000 0.621151 0.783691
vn 0.000000 0.621151 0.783691
vn 0.770941 -0.636906 0.000000
vn 0.770941 -0.636906 0.000000
vn 0.770941 -0.636906 0.000000
vn 0.770941 -0.636906 0.000000
vn 0.783691 0.621151 0.000000
vn 0.783691 0.621151 0.000000
vn 0.783691 0.621151 0.000000
vn 0.783691 0.621151 0.000000
vn 0.000000 0.000000 -1.000000
vn 0.000000 0.000000 -1.000000
vn 0.000000 0.000000 -1.000000
vn 0.000000 0.000000 -1.000000
vn 0.000000 -1.000000 0.000000
vn 0.000000 -1.000000 0.000000
vn 0.000000 -1.000000 0.000000
vn 0.000000 -1.000000 0.000000
vn 0.000000 -1.000000 0.000000
vn 0.000000 -1.000000 0.000000
vn 0.000000 -1.000000 0.000000
vn 0.000000 -1.000000 0.000000
vn 0.000000 -1.000000 -0.000000
vn 0.000000 -1.000000 -0.000000
vn 0.000000 -1.000000 -0.000000
vn 0.000000 -1.000000 -0.000000
vn 0.000000 -1.000000 0.000000
vn 0.000000 -1.000000 0.000000
vn 0.000000 -1.000000 0.000000
vn 0.000000 -1.000000 0.000000
vn 0.000000 0.000000 -1.000000
vn 0.000000 0.000000 -1.000000
vn 0.000000 0.000000 -1.000000
vn 0.000000 0.000000 -1.000000
vn -1.000000 0.000000 0.000000
vn -1.000000 0.000000 0.000000
vn -1.000000 0.000000 0.000000
vn -1.000000 0.000000 0.000000
vn 0.000000 0.000000 1.000000
vn 0.000000 0.000000 1.000000
vn 0.000000 0.000000 1.000000
vn 0.000000 0.000000 1.000000
vn 1.000000 0.000000 0.000000
vn 1.000000 0.000000 0.000000
vn 1.000000 0.000000 0.000000
vn 1.000000 0.000000 0.000000
s off
f 29/29/1 30/30/2 31/31/3 32/32/4
f 14/5/5 17/6/6 18/7/7 15/8/8
f 17/6/9 19/9/10 20/10/11 18/7/12
f 19/9/13 13/11/14 16/12/15 20/10/16
f 21/13/17 22/14/18 6/15/19 5/16/20
f 22/14/21 23/17/22 7/18/23 6/15/24
f 23/17/25 24/19/26 8/20/27 7/18/28
f 24/19/29 21/13/30 5/16/31 8/20/32
f 10/21/33 9/22/34 2/2/35 1/1/36
f 11/23/37 10/21/38 1/1/39 4/4/40
f 12/24/41 11/23/42 4/4/43 3/3/44
f 9/22/45 12/24/46 3/3/47 2/2/48
f 6/15/49 7/18/50 14/5/51 13/11/52
f 9/22/53 10/21/54 16/12/55 15/8/56
f 7/18/57 8/20/58 17/6/59 14/5/60
f 12/24/61 9/22/62 15/8/63 18/7/64
f 8/20/65 5/16/66 19/9/67 17/6/68
f 11/23/69 12/24/70 18/7/71 20/10/72
f 5/16/73 6/15/74 13/11/75 19/9/76
f 10/21/77 11/23/78 20/10/79 16/12/80
f 16/12/81 13/11/82 14/5/83 15/8/84
f 1/1/85 2/2/86 26/26/87 25/25/88
f 2/2/89 3/3/90 27/27/91 26/26/92
f 3/3/93 4/4/94 28/28/95 27/27/96
f 4/4/97 1/1/98 25/25/99 28/28/100
f 25/25/101 26/26/102 30/30/103 29/29/104
f 26/26/105 27/27/106 31/31/107 30/30/108
f 27/27/109 28/28/110 32/32/111 31/31/112
f 28/28/113 25/25/114 29/29/115 32/32/116
