# This file uses centimeters as units for non-parametric coordinates.

v 0.033040 -0.061511 -0.024004
v 0.012620 -0.061511 -0.038840
v -0.012619 -0.061511 -0.038840
v -0.033039 -0.061511 -0.024004
v -0.040838 -0.061511 0.000000
v -0.033039 -0.061511 0.024004
v -0.012619 -0.061511 0.038840
v 0.012620 -0.061511 0.038840
v 0.033040 -0.061511 0.024004
v 0.040839 -0.061511 0.000000
v 0.033040 0.061511 -0.024004
v 0.012620 0.061511 -0.038840
v -0.012619 0.061511 -0.038840
v -0.033039 0.061511 -0.024004
v -0.040838 0.061511 0.000000
v -0.033039 0.061511 0.024004
v -0.012619 0.061511 0.038840
v 0.012620 0.061511 0.038840
v 0.033040 0.061511 0.024004
v 0.040839 0.061511 0.000000
v 0.006785 -0.061511 -0.004930
v 0.002593 -0.061511 -0.007977
v 0.000000 -0.061511 0.000000
v -0.002592 -0.061511 -0.007977
v -0.006784 -0.061511 -0.004930
v -0.008387 -0.061511 0.000000
v -0.006784 -0.061511 0.004930
v -0.002592 -0.061511 0.007976
v 0.002593 -0.061511 0.007976
v 0.006785 -0.061511 0.004930
v 0.008388 -0.061511 0.000000
v 0.006785 0.061511 -0.004930
v 0.002593 0.061511 -0.007977
v 0.000000 0.061511 0.000000
v -0.002592 0.061511 -0.007977
v -0.006784 0.061511 -0.004930
v -0.008387 0.061511 0.000000
v -0.006784 0.061511 0.004930
v -0.002592 0.061511 0.007976
v 0.002593 0.061511 0.007976
v 0.006785 0.061511 0.004930
v 0.008388 0.061511 0.000000
v 0.027472 0.020504 0.019959
v 0.010493 0.020504 0.032294
v -0.010492 0.020504 0.032294
v -0.027471 0.020504 0.019959
v -0.033956 0.020504 0.000000
v -0.027471 0.020504 -0.019959
v -0.010492 0.020504 -0.032294
v 0.010493 0.020504 -0.032294
v 0.027472 0.020504 -0.019959
v 0.033957 0.020504 0.000000
v 0.027472 -0.020504 0.019959
v 0.010493 -0.020504 0.032294
v -0.010492 -0.020504 0.032294
v -0.027471 -0.020504 0.019959
v -0.033956 -0.020504 0.000000
v -0.027471 -0.020504 -0.019959
v -0.010492 -0.020504 -0.032294
v 0.010493 -0.020504 -0.032294
v 0.027472 -0.020504 -0.019959
v 0.033957 -0.020504 0.000000
v 0.030853 -0.016677 0.022415
v 0.011786 -0.016677 0.036269
v 0.030853 0.016677 0.022415
v 0.011786 0.016677 0.036269
v -0.011785 -0.016677 0.036269
v -0.011785 0.016677 0.036269
v -0.030852 -0.016677 0.022415
v -0.030852 0.016677 0.022415
v -0.038135 -0.016677 0.000000
v -0.038135 0.016677 0.000000
v -0.030852 -0.016677 -0.022415
v -0.030852 0.016677 -0.022415
v -0.011785 -0.016677 -0.036269
v -0.011785 0.016677 -0.036269
v 0.011786 -0.016677 -0.036269
v 0.011786 0.016677 -0.036269
v 0.030853 -0.016677 -0.022415
v 0.030853 0.016677 -0.022415
v 0.038136 -0.016677 0.000000
v 0.038136 0.016677 0.000000
vt 0.626285 0.402844
vt 0.626285 0.402660
vt 0.626285 0.402660
vt 0.626285 0.402660
vt 0.626285 0.402660
vt 0.626285 0.402660
vt 0.626285 0.402660
vt 0.626285 0.402660
vt 0.626285 0.402660
vt 0.626285 0.402660
vt 0.502961 0.375760
vt 0.515002 0.375760
vt 0.527044 0.375760
vt 0.539085 0.375760
vt 0.551126 0.375760
vt 0.563167 0.375760
vt 0.575208 0.375760
vt 0.587249 0.375760
vt 0.599290 0.375760
vt 0.611331 0.375760
vt 0.623373 0.375760
vt 0.502961 0.433242
vt 0.515002 0.433242
vt 0.527044 0.433242
vt 0.539085 0.433242
vt 0.551126 0.433242
vt 0.563167 0.433242
vt 0.575208 0.433242
vt 0.587249 0.433242
vt 0.599290 0.433242
vt 0.611331 0.433242
vt 0.623373 0.433242
vt 0.626285 0.402844
vt 0.626285 0.402844
vt 0.626285 0.402844
vt 0.626285 0.402844
vt 0.626285 0.402844
vt 0.626285 0.402844
vt 0.626285 0.402844
vt 0.626285 0.402844
vt 0.626285 0.402660
vt 0.626285 0.402844
vt 0.679421 0.413365
vt 0.679413 0.413420
vt 0.679122 0.414247
vt 0.678638 0.413895
vt 0.679721 0.414247
vt 0.680205 0.413895
vt 0.680390 0.413326
vt 0.680205 0.412757
vt 0.679721 0.412405
vt 0.679122 0.412405
vt 0.678638 0.412757
vt 0.678453 0.413326
vt 0.678629 0.412812
vt 0.679113 0.412461
vt 0.679712 0.412461
vt 0.680196 0.412812
vt 0.680381 0.413382
vt 0.680196 0.413951
vt 0.679712 0.414303
vt 0.679113 0.414303
vt 0.678629 0.413951
vt 0.678444 0.413382
vt 0.626285 0.402844
vt 0.626285 0.402660
vt 0.652051 0.402660
vt 0.652051 0.402844
vt 0.626285 0.402844
vt 0.652051 0.402660
vt 0.652051 0.402844
vt 0.626285 0.402844
vt 0.652051 0.402660
vt 0.652051 0.402844
vt 0.626285 0.402844
vt 0.652051 0.402660
vt 0.652051 0.402844
vt 0.626285 0.402844
vt 0.652051 0.402660
vt 0.652051 0.402844
vt 0.626285 0.402844
vt 0.652051 0.402660
vt 0.652051 0.402844
vt 0.626285 0.402844
vt 0.652051 0.402660
vt 0.652051 0.402844
vt 0.626285 0.402844
vt 0.652051 0.402660
vt 0.652051 0.402844
vt 0.626285 0.402844
vt 0.652051 0.402660
vt 0.652051 0.402844
vt 0.652051 0.402660
vt 0.652051 0.402844
vt 0.626285 0.402844
vt 0.626285 0.402660
vt 0.652051 0.402660
vt 0.652051 0.402844
vt 0.626285 0.402660
vt 0.652051 0.402660
vt 0.652051 0.402844
vt 0.626285 0.402660
vt 0.652051 0.402660
vt 0.652051 0.402844
vt 0.626285 0.402660
vt 0.652051 0.402660
vt 0.652051 0.402844
vt 0.626285 0.402660
vt 0.652051 0.402660
vt 0.652051 0.402844
vt 0.626285 0.402660
vt 0.652051 0.402660
vt 0.652051 0.402844
vt 0.626285 0.402660
vt 0.652051 0.402660
vt 0.652051 0.402844
vt 0.626285 0.402660
vt 0.652051 0.402660
vt 0.652051 0.402844
vt 0.626285 0.402660
vt 0.652051 0.402660
vt 0.652051 0.402844
vt 0.652051 0.402660
vt 0.652051 0.402844
vt 0.599290 0.414081
vt 0.587249 0.414081
vt 0.575208 0.414081
vt 0.563167 0.414081
vt 0.551126 0.414081
vt 0.539085 0.414081
vt 0.527044 0.414081
vt 0.515002 0.414081
vt 0.623373 0.414081
vt 0.502961 0.414081
vt 0.611331 0.414081
vt 0.599290 0.394921
vt 0.587249 0.394921
vt 0.575208 0.394921
vt 0.563167 0.394921
vt 0.551126 0.394921
vt 0.539085 0.394921
vt 0.527044 0.394921
vt 0.515002 0.394921
vt 0.623373 0.394921
vt 0.502961 0.394921
vt 0.611331 0.394921
vt 0.359148 0.010677
vt 0.359148 0.010677
vt 0.359148 0.010677
vt 0.359148 0.010677
vt 0.359148 0.010677
vt 0.359148 0.010677
vt 0.359148 0.010677
vt 0.359148 0.010677
vt 0.359148 0.010677
vt 0.359148 0.010677
vt 0.359148 0.010677
vt 0.359148 0.010677
vt 0.359148 0.010677
vt 0.359148 0.010677
vt 0.359148 0.010677
vt 0.359148 0.010677
vt 0.359148 0.010677
vt 0.359148 0.010677
vt 0.359148 0.010677
vt 0.359148 0.010677
vt 0.359148 0.010677
vt 0.359148 0.010677
vt 0.359148 0.010677
vt 0.359148 0.010677
vt 0.359148 0.010677
vt 0.359148 0.010677
vt 0.359148 0.010677
vt 0.359148 0.010677
vt 0.359148 0.010677
vt 0.359148 0.010677
vt 0.359148 0.010677
vt 0.359148 0.010677
vt 0.359148 0.010677
vt 0.359148 0.010677
vt 0.359148 0.010677
vt 0.359148 0.010677
vt 0.359148 0.010677
vt 0.359148 0.010677
vt 0.359148 0.010677
vt 0.359148 0.010677
vn 0.580425 0.157632 -0.798911
vn 0.580425 0.157632 -0.798911
vn 0.580425 0.157632 -0.798911
vn 0.580425 0.157632 -0.798911
vn 0.000000 0.157634 -0.987498
vn 0.000000 0.157634 -0.987498
vn 0.000000 0.157634 -0.987498
vn 0.000000 0.157634 -0.987498
vn -0.580425 0.157632 -0.798911
vn -0.580425 0.157632 -0.798911
vn -0.580425 0.157632 -0.798911
vn -0.580425 0.157632 -0.798911
vn -0.939168 0.157633 -0.305148
vn -0.939168 0.157633 -0.305148
vn -0.939168 0.157633 -0.305148
vn -0.939168 0.157633 -0.305148
vn -0.939168 0.157633 0.305147
vn -0.939168 0.157633 0.305147
vn -0.939168 0.157633 0.305147
vn -0.939168 0.157633 0.305147
vn -0.580422 0.157632 0.798913
vn -0.580422 0.157632 0.798913
vn -0.580422 0.157632 0.798914
vn -0.580422 0.157632 0.798913
vn 0.000000 0.157632 0.987498
vn 0.000000 0.157632 0.987498
vn 0.000000 0.157632 0.987498
vn 0.000000 0.157632 0.987498
vn 0.580422 0.157632 0.798914
vn 0.580422 0.157632 0.798913
vn 0.580422 0.157632 0.798913
vn 0.580422 0.157632 0.798913
vn 0.939168 0.157633 0.305147
vn 0.939168 0.157633 0.305147
vn 0.939168 0.157633 0.305147
vn 0.939168 0.157633 0.305147
vn 0.939168 0.157632 -0.305148
vn 0.939168 0.157632 -0.305148
vn 0.939168 0.157632 -0.305148
vn 0.939168 0.157633 -0.305148
vn 0.000000 -1.000000 -0.000001
vn 0.000000 -1.000000 -0.000000
vn 0.000000 -1.000000 0.000000
vn 0.000000 -1.000000 -0.000000
vn 0.000000 -1.000000 -0.000001
vn 0.000000 -1.000000 0.000000
vn 0.000000 -1.000000 0.000000
vn 0.000000 -1.000000 -0.000000
vn 0.000000 -1.000000 0.000000
vn 0.000000 -1.000000 0.000000
vn 0.000000 -1.000000 0.000000
vn 0.000000 -1.000000 0.000000
vn 0.000000 -1.000000 0.000000
vn 0.000000 -1.000000 0.000000
vn 0.000000 -1.000000 0.000000
vn 0.000000 -1.000000 0.000000
vn 0.000000 -1.000000 0.000000
vn 0.000000 -1.000000 0.000000
vn 0.000000 -1.000000 0.000001
vn 0.000000 -1.000000 0.000000
vn 0.000000 -1.000000 0.000000
vn 0.000000 -1.000000 0.000001
vn 0.000000 -1.000000 0.000001
vn 0.000000 -1.000000 0.000000
vn 0.000000 -1.000000 0.000000
vn 0.000000 -1.000000 0.000001
vn 0.000000 -1.000000 0.000000
vn 0.000000 -1.000000 -0.000000
vn 0.000000 -1.000000 0.000000
vn 0.000000 -1.000000 0.000000
vn 0.000000 1.000000 -0.000001
vn 0.000000 1.000000 -0.000001
vn 0.000000 1.000000 -0.000000
vn 0.000000 1.000000 -0.000001
vn 0.000000 1.000000 -0.000000
vn 0.000000 1.000000 -0.000000
vn 0.000000 1.000000 -0.000000
vn 0.000000 1.000000 0.000000
vn 0.000000 1.000000 -0.000000
vn 0.000000 1.000000 0.000000
vn 0.000000 1.000000 0.000000
vn 0.000000 1.000000 -0.000000
vn 0.000000 1.000000 0.000000
vn 0.000000 1.000000 0.000000
vn 0.000000 1.000000 -0.000000
vn 0.000000 1.000000 0.000000
vn 0.000000 1.000000 0.000000
vn 0.000000 1.000000 -0.000000
vn 0.000000 1.000000 0.000000
vn 0.000000 1.000000 0.000001
vn 0.000000 1.000000 -0.000000
vn 0.000000 1.000000 0.000001
vn 0.000000 1.000000 0.000000
vn 0.000000 1.000000 -0.000000
vn 0.000000 1.000000 0.000000
vn 0.000000 1.000000 0.000000
vn 0.000000 1.000000 -0.000000
vn 0.000000 1.000000 0.000000
vn 0.000000 1.000000 -0.000001
vn 0.000000 1.000000 -0.000000
vn 0.000000 -1.000000 0.000000
vn 0.000000 -1.000000 0.000000
vn 0.000000 -1.000000 0.000000
vn 0.000000 -1.000000 0.000000
vn 0.000000 -1.000000 0.000000
vn 0.000000 -1.000000 0.000000
vn 0.000000 -1.000000 0.000000
vn 0.000000 -1.000000 0.000000
vn 0.000000 -1.000000 0.000000
vn 0.000000 -1.000000 0.000000
vn 0.000000 -1.000000 0.000000
vn 0.000000 -1.000000 0.000000
vn 0.000000 -1.000000 -0.000000
vn 0.000000 -1.000000 -0.000000
vn 0.000000 -1.000000 -0.000000
vn 0.000000 -1.000000 -0.000000
vn 0.000000 -1.000000 0.000000
vn 0.000000 -1.000000 0.000000
vn 0.000000 -1.000000 0.000000
vn 0.000000 -1.000000 0.000000
vn 0.000000 -1.000000 -0.000000
vn 0.000000 -1.000000 -0.000000
vn 0.000000 -1.000000 -0.000000
vn 0.000000 -1.000000 -0.000000
vn 0.000000 -1.000000 -0.000000
vn 0.000000 -1.000000 -0.000000
vn 0.000000 -1.000000 -0.000000
vn 0.000000 -1.000000 -0.000000
vn 0.000000 -1.000000 0.000000
vn 0.000000 -1.000000 0.000000
vn 0.000000 -1.000000 0.000000
vn 0.000000 -1.000000 0.000000
vn 0.000000 -1.000000 0.000000
vn 0.000000 -1.000000 0.000000
vn 0.000000 -1.000000 0.000000
vn 0.000000 -1.000000 0.000000
vn 0.000000 -1.000000 -0.000000
vn 0.000000 -1.000000 -0.000000
vn 0.000000 -1.000000 -0.000000
vn 0.000000 -1.000000 -0.000000
vn 0.000000 1.000000 0.000000
vn 0.000000 1.000000 0.000000
vn 0.000000 1.000000 0.000000
vn 0.000000 1.000000 0.000000
vn 0.000000 1.000000 0.000000
vn 0.000000 1.000000 0.000000
vn 0.000000 1.000000 0.000000
vn 0.000000 1.000000 0.000000
vn 0.000000 1.000000 0.000000
vn 0.000000 1.000000 0.000000
vn 0.000000 1.000000 0.000000
vn 0.000000 1.000000 0.000000
vn 0.000000 1.000000 -0.000000
vn 0.000000 1.000000 -0.000000
vn 0.000000 1.000000 -0.000000
vn 0.000000 1.000000 -0.000000
vn 0.000000 1.000000 0.000000
vn 0.000000 1.000000 0.000000
vn 0.000000 1.000000 0.000000
vn 0.000000 1.000000 0.000000
vn 0.000000 1.000000 0.000000
vn 0.000000 1.000000 0.000000
vn 0.000000 1.000000 0.000000
vn 0.000000 1.000000 0.000000
vn 0.000000 1.000000 -0.000000
vn 0.000000 1.000000 -0.000000
vn 0.000000 1.000000 -0.000000
vn 0.000000 1.000000 -0.000000
vn 0.000000 1.000000 -0.000000
vn 0.000000 1.000000 -0.000000
vn 0.000000 1.000000 -0.000000
vn 0.000000 1.000000 -0.000000
vn 0.000000 1.000000 0.000000
vn 0.000000 1.000000 0.000000
vn 0.000000 1.000000 0.000000
vn 0.000000 1.000000 0.000000
vn 0.000000 1.000000 -0.000000
vn 0.000000 1.000000 -0.000000
vn 0.000000 1.000000 -0.000000
vn 0.000000 1.000000 -0.000000
vn 0.580422 -0.157632 0.798914
vn 0.580422 -0.157632 0.798913
vn 0.580422 -0.157632 0.798913
vn 0.580422 -0.157632 0.798913
vn 0.000000 -0.157631 0.987498
vn 0.000000 -0.157631 0.987498
vn 0.000000 -0.157631 0.987498
vn 0.000000 -0.157631 0.987498
vn -0.580422 -0.157632 0.798913
vn -0.580422 -0.157632 0.798914
vn -0.580422 -0.157632 0.798913
vn -0.580422 -0.157632 0.798913
vn -0.939168 -0.157633 0.305147
vn -0.939168 -0.157633 0.305147
vn -0.939168 -0.157633 0.305147
vn -0.939168 -0.157633 0.305147
vn -0.939168 -0.157632 -0.305148
vn -0.939168 -0.157632 -0.305148
vn -0.939168 -0.157632 -0.305148
vn -0.939168 -0.157632 -0.305148
vn -0.580425 -0.157632 -0.798911
vn -0.580425 -0.157632 -0.798911
vn -0.580425 -0.157632 -0.798911
vn -0.580425 -0.157632 -0.798911
vn 0.000000 -0.157634 -0.987498
vn 0.000000 -0.157634 -0.987498
vn 0.000000 -0.157634 -0.987498
vn 0.000000 -0.157634 -0.987498
vn 0.580425 -0.157632 -0.798911
vn 0.580425 -0.157632 -0.798911
vn 0.580425 -0.157632 -0.798911
vn 0.580425 -0.157632 -0.798911
vn 0.939168 -0.157632 -0.305148
vn 0.939168 -0.157632 -0.305148
vn 0.939168 -0.157632 -0.305148
vn 0.939168 -0.157632 -0.305148
vn 0.939168 -0.157633 0.305147
vn 0.939168 -0.157633 0.305147
vn 0.939168 -0.157633 0.305147
vn 0.939168 -0.157633 0.305147
vn 0.587779 0.000000 0.809022
vn 0.587779 0.000000 0.809022
vn 0.587779 0.000000 0.809022
vn 0.587779 0.000000 0.809022
vn 0.000000 0.000000 1.000000
vn 0.000000 0.000000 1.000000
vn 0.000000 0.000000 1.000000
vn 0.000000 0.000000 1.000000
vn -0.587779 0.000000 0.809022
vn -0.587779 0.000000 0.809022
vn -0.587779 0.000000 0.809022
vn -0.587779 0.000000 0.809022
vn -0.951068 0.000000 0.308981
vn -0.951068 0.000000 0.308981
vn -0.951068 0.000000 0.308981
vn -0.951068 0.000000 0.308981
vn -0.951068 0.000000 -0.308981
vn -0.951068 0.000000 -0.308981
vn -0.951068 0.000000 -0.308981
vn -0.951068 0.000000 -0.308981
vn -0.587786 0.000000 -0.809017
vn -0.587786 0.000000 -0.809017
vn -0.587786 0.000000 -0.809017
vn -0.587786 0.000000 -0.809017
vn 0.000000 0.000000 -1.000000
vn 0.000000 0.000000 -1.000000
vn 0.000000 0.000000 -1.000000
vn 0.000000 0.000000 -1.000000
vn 0.587786 0.000000 -0.809017
vn 0.587786 0.000000 -0.809017
vn 0.587786 0.000000 -0.809017
vn 0.587786 0.000000 -0.809017
vn 0.951068 0.000000 -0.308981
vn 0.951068 0.000000 -0.308981
vn 0.951068 0.000000 -0.308981
vn 0.951068 0.000000 -0.308981
vn 0.951068 0.000000 0.308981
vn 0.951068 0.000000 0.308981
vn 0.951068 0.000000 0.308981
vn 0.951068 0.000000 0.308981
vn 0.407607 -0.720483 0.561036
vn 0.407607 -0.720483 0.561036
vn 0.407607 -0.720483 0.561036
vn 0.407607 -0.720483 0.561036
vn 0.407607 0.720483 0.561036
vn 0.407607 0.720483 0.561036
vn 0.407607 0.720483 0.561036
vn 0.407607 0.720483 0.561036
vn 0.000000 -0.720451 0.693505
vn 0.000000 -0.720451 0.693505
vn 0.000000 -0.720451 0.693505
vn 0.000000 -0.720451 0.693505
vn 0.000000 0.720452 0.693505
vn 0.000000 0.720452 0.693505
vn 0.000000 0.720452 0.693505
vn 0.000000 0.720452 0.693505
vn -0.407607 -0.720483 0.561036
vn -0.407607 -0.720483 0.561036
vn -0.407607 -0.720483 0.561036
vn -0.407607 -0.720483 0.561036
vn -0.407607 0.720483 0.561036
vn -0.407607 0.720483 0.561036
vn -0.407607 0.720483 0.561036
vn -0.407607 0.720483 0.561036
vn -0.659567 -0.720452 0.214292
vn -0.659567 -0.720452 0.214292
vn -0.659567 -0.720452 0.214292
vn -0.659567 -0.720452 0.214292
vn -0.659567 0.720452 0.214292
vn -0.659567 0.720452 0.214291
vn -0.659567 0.720452 0.214292
vn -0.659567 0.720452 0.214292
vn -0.659567 -0.720452 -0.214291
vn -0.659567 -0.720452 -0.214291
vn -0.659567 -0.720452 -0.214291
vn -0.659567 -0.720452 -0.214291
vn -0.659567 0.720452 -0.214292
vn -0.659567 0.720452 -0.214292
vn -0.659567 0.720452 -0.214292
vn -0.659567 0.720452 -0.214292
vn -0.407605 -0.720491 -0.561027
vn -0.407605 -0.720491 -0.561027
vn -0.407605 -0.720491 -0.561027
vn -0.407605 -0.720491 -0.561027
vn -0.407604 0.720491 -0.561027
vn -0.407604 0.720491 -0.561027
vn -0.407604 0.720491 -0.561027
vn -0.407604 0.720491 -0.561027
vn 0.000000 -0.720472 -0.693484
vn 0.000000 -0.720472 -0.693484
vn 0.000000 -0.720472 -0.693484
vn 0.000000 -0.720472 -0.693484
vn 0.000000 0.720472 -0.693484
vn 0.000000 0.720472 -0.693484
vn 0.000000 0.720473 -0.693484
vn 0.000000 0.720473 -0.693484
vn 0.407605 -0.720491 -0.561027
vn 0.407605 -0.720491 -0.561027
vn 0.407605 -0.720491 -0.561027
vn 0.407605 -0.720491 -0.561027
vn 0.407604 0.720491 -0.561027
vn 0.407604 0.720491 -0.561027
vn 0.407604 0.720491 -0.561027
vn 0.407604 0.720491 -0.561027
vn 0.659567 -0.720452 -0.214292
vn 0.659567 -0.720452 -0.214292
vn 0.659567 -0.720452 -0.214292
vn 0.659567 -0.720452 -0.214292
vn 0.659567 0.720452 -0.214292
vn 0.659567 0.720452 -0.214292
vn 0.659567 0.720452 -0.214292
vn 0.659567 0.720452 -0.214292
vn 0.659567 -0.720452 0.214291
vn 0.659567 -0.720452 0.214291
vn 0.659567 -0.720452 0.214291
vn 0.659567 -0.720452 0.214291
vn 0.659567 0.720452 0.214292
vn 0.659567 0.720452 0.214292
vn 0.659567 0.720452 0.214292
vn 0.659567 0.720452 0.214292
s off
f 1/11/1 2/12/2 60/143/3 61/145/4
f 2/12/5 3/13/6 59/142/7 60/143/8
f 3/13/9 4/14/10 58/141/11 59/142/12
f 4/14/13 5/15/14 57/140/15 58/141/16
f 5/15/17 6/16/18 56/139/19 57/140/20
f 6/16/21 7/17/22 55/138/23 56/139/24
f 7/17/25 8/18/26 54/137/27 55/138/28
f 8/18/29 9/19/30 53/136/31 54/137/32
f 9/19/33 10/20/34 62/146/35 53/136/36
f 10/20/37 1/21/38 61/144/39 62/146/40
f 22/45/41 21/46/42 23/43/43
f 24/47/44 22/45/45 23/43/46
f 25/48/47 24/47/48 23/43/49
f 26/49/50 25/48/51 23/43/52
f 27/50/53 26/49/54 23/43/55
f 28/51/56 27/50/57 23/43/58
f 29/52/59 28/51/60 23/43/61
f 30/53/62 29/52/63 23/43/64
f 31/54/65 30/53/66 23/43/67
f 21/46/68 31/54/69 23/43/70
f 32/55/71 33/56/72 34/44/73
f 33/56/74 35/57/75 34/44/76
f 35/57/77 36/58/78 34/44/79
f 36/58/80 37/59/81 34/44/82
f 37/59/83 38/60/84 34/44/85
f 38/60/86 39/61/87 34/44/88
f 39/61/89 40/62/90 34/44/91
f 40/62/92 41/63/93 34/44/94
f 41/63/95 42/64/96 34/44/97
f 42/64/98 32/55/99 34/44/100
f 2/65/101 1/66/102 21/67/103 22/68/104
f 3/69/105 2/2/106 22/70/107 24/71/108
f 4/72/109 3/3/110 24/73/111 25/74/112
f 5/75/113 4/4/114 25/76/115 26/77/116
f 6/78/117 5/5/118 26/79/119 27/80/120
f 7/81/121 6/6/122 27/82/123 28/83/124
f 8/84/125 7/7/126 28/85/127 29/86/128
f 9/87/129 8/8/130 29/88/131 30/89/132
f 10/90/133 9/9/134 30/91/135 31/92/136
f 1/1/137 10/10/138 31/93/139 21/94/140
f 11/95/141 12/96/142 33/97/143 32/98/144
f 12/40/145 13/99/146 35/100/147 33/101/148
f 13/39/149 14/102/150 36/103/151 35/104/152
f 14/38/153 15/105/154 37/106/155 36/107/156
f 15/37/157 16/108/158 38/109/159 37/110/160
f 16/36/161 17/111/162 39/112/163 38/113/164
f 17/35/165 18/114/166 40/115/167 39/116/168
f 18/34/169 19/117/170 41/118/171 40/119/172
f 19/33/173 20/120/174 42/121/175 41/122/176
f 20/42/177 11/41/178 32/123/179 42/124/180
f 44/126/181 43/125/182 19/30/183 18/29/184
f 45/127/185 44/126/186 18/29/187 17/28/188
f 46/128/189 45/127/190 17/28/191 16/27/192
f 47/129/193 46/128/194 16/27/195 15/26/196
f 48/130/197 47/129/198 15/26/199 14/25/200
f 49/131/201 48/130/202 14/25/203 13/24/204
f 50/132/205 49/131/206 13/24/207 12/23/208
f 51/134/209 50/132/210 12/23/211 11/22/212
f 52/135/213 51/133/214 11/32/215 20/31/216
f 43/125/217 52/135/218 20/31/219 19/30/220
f 64/147/221 63/148/222 65/149/223 66/150/224
f 67/151/225 64/147/226 66/150/227 68/152/228
f 69/153/229 67/151/230 68/152/231 70/154/232
f 71/155/233 69/153/234 70/154/235 72/156/236
f 73/157/237 71/155/238 72/156/239 74/158/240
f 75/159/241 73/157/242 74/158/243 76/160/244
f 77/161/245 75/159/246 76/160/247 78/162/248
f 79/163/249 77/161/250 78/162/251 80/164/252
f 81/165/253 79/163/254 80/164/255 82/166/256
f 63/148/257 81/165/258 82/166/259 65/149/260
f 54/167/261 53/168/262 63/148/263 64/147/264
f 43/169/265 44/170/266 66/150/267 65/149/268
f 55/171/269 54/167/270 64/147/271 67/151/272
f 44/170/273 45/172/274 68/152/275 66/150/276
f 56/173/277 55/171/278 67/151/279 69/153/280
f 45/172/281 46/174/282 70/154/283 68/152/284
f 57/175/285 56/173/286 69/153/287 71/155/288
f 46/174/289 47/176/290 72/156/291 70/154/292
f 58/177/293 57/175/294 71/155/295 73/157/296
f 47/176/297 48/178/298 74/158/299 72/156/300
f 59/179/301 58/177/302 73/157/303 75/159/304
f 48/178/305 49/180/306 76/160/307 74/158/308
f 60/181/309 59/179/310 75/159/311 77/161/312
f 49/180/313 50/182/314 78/162/315 76/160/316
f 61/183/317 60/181/318 77/161/319 79/163/320
f 50/182/321 51/184/322 80/164/323 78/162/324
f 62/185/325 61/183/326 79/163/327 81/165/328
f 51/184/329 52/186/330 82/166/331 80/164/332
f 53/168/333 62/185/334 81/165/335 63/148/336
f 52/186/337 43/169/338 65/149/339 82/166/340
