# This file uses centimeters as units for non-parametric coordinates.

v -0.075008 0.000000 -0.075007
v -0.000002 0.000000 -0.106075
v 0.075006 0.000000 -0.075007
v 0.106075 0.000000 0.000000
v 0.075006 0.000000 0.075006
v -0.000002 0.000000 0.106075
v -0.075008 0.000000 0.075006
v -0.106075 0.000000 0.000000
v -0.075008 -0.041429 -0.075007
v -0.000002 -0.041429 -0.106075
v 0.075006 -0.041429 -0.075007
v 0.106075 -0.041429 0.000000
v 0.075006 -0.041429 0.075006
v -0.000002 -0.041429 0.106075
v -0.075008 -0.041429 0.075006
v -0.106075 -0.041429 0.000000
v -0.000002 0.000000 0.000000
v -0.045818 -0.041429 -0.045820
v -0.000002 -0.041429 -0.064799
v 0.045818 -0.041429 -0.045820
v 0.064800 -0.041429 0.000000
v 0.045818 -0.041429 0.045819
v -0.000002 -0.041429 0.064799
v -0.045818 -0.041429 0.045819
v -0.064798 -0.041429 0.000000
v -0.045818 -0.071634 -0.045820
v -0.000002 -0.071634 -0.064799
v 0.045818 -0.071634 -0.045820
v 0.064800 -0.071634 0.000000
v 0.045818 -0.071634 0.045819
v -0.000002 -0.071634 0.064799
v -0.045818 -0.071634 0.045819
v -0.064798 -0.071634 0.000000
v -0.021378 -0.071634 -0.021379
v 0.000000 -0.071634 -0.030235
v 0.021379 -0.071634 -0.021379
v 0.030235 -0.071634 -0.000000
v 0.021379 -0.071634 0.021379
v 0.000000 -0.071634 0.030234
v -0.021378 -0.071634 0.021379
v -0.030231 -0.071634 -0.000000
v -0.021378 -0.082043 -0.021379
v 0.000000 -0.082043 -0.030235
v 0.000000 -0.082043 -0.000000
v 0.021379 -0.082043 -0.021379
v 0.030235 -0.082043 -0.000000
v 0.021379 -0.082043 0.021379
v 0.000000 -0.082043 0.030234
v -0.021378 -0.082043 0.021379
v -0.030231 -0.082043 -0.000000
v -0.041185 -0.207023 -0.041184
v -0.000002 -0.207023 -0.058242
v 0.041183 -0.207023 -0.041184
v 0.058241 -0.207023 0.000000
v 0.041183 -0.207023 0.041183
v -0.000002 -0.207023 0.058242
v -0.041185 -0.207023 0.041183
v -0.058245 -0.207023 0.000000
v -0.041185 -0.224442 -0.041184
v -0.000002 -0.224442 -0.058242
v 0.041183 -0.224442 -0.041184
v 0.058241 -0.224442 0.000000
v 0.041183 -0.224442 0.041183
v -0.000002 -0.224442 0.058242
v -0.041185 -0.224442 0.041183
v -0.058245 -0.224442 0.000000
v -0.000002 -0.207023 0.000000
v -0.000002 -0.224442 0.000000
v 0.008512 -0.082043 0.008512
v -0.008512 -0.082043 0.008512
v 0.008512 -0.207023 0.008512
v -0.008512 -0.207023 0.008512
v 0.008512 -0.207023 -0.008513
v -0.008512 -0.207023 -0.008513
v 0.008512 -0.082043 -0.008513
v -0.008512 -0.082043 -0.008513
v -0.035294 -0.071634 0.022722
v -0.044092 -0.071634 0.022722
v -0.035294 -0.207023 0.022722
v -0.044092 -0.207023 0.022722
v -0.035294 -0.207023 -0.022723
v -0.044092 -0.207023 -0.022723
v -0.035294 -0.071634 -0.022723
v -0.044092 -0.071634 -0.022723
v 0.044094 -0.071634 0.022722
v 0.035294 -0.071634 0.022722
v 0.044094 -0.207023 0.022722
v 0.035294 -0.207023 0.022722
v 0.044094 -0.207023 -0.022723
v 0.035294 -0.207023 -0.022723
v 0.044094 -0.071634 -0.022723
v 0.035294 -0.071634 -0.022723
vt 0.113869 0.352896
vt 0.113869 0.352896
vt 0.113869 0.352896
vt 0.113869 0.352896
vt 0.113869 0.352896
vt 0.113869 0.352896
vt 0.113869 0.352896
vt 0.113869 0.352896
vt 0.113869 0.352896
vt 0.113869 0.352896
vt 0.113869 0.352896
vt 0.113869 0.352896
vt 0.113869 0.352896
vt 0.113869 0.352896
vt 0.113869 0.352896
vt 0.113869 0.352896
vt 0.113869 0.352896
vt 0.052034 0.211198
vt 0.052034 0.211198
vt 0.052034 0.211198
vt 0.052034 0.211198
vt 0.052034 0.211198
vt 0.052034 0.211198
vt 0.052034 0.211198
vt 0.052034 0.211198
vt 0.052034 0.211198
vt 0.113791 0.377642
vt 0.113791 0.377642
vt 0.113791 0.377642
vt 0.113791 0.377642
vt 0.113791 0.377642
vt 0.113791 0.377642
vt 0.113791 0.377642
vt 0.113791 0.377642
vt 0.113791 0.377642
vt 0.113791 0.377642
vt 0.113791 0.377642
vt 0.113791 0.377642
vt 0.113791 0.377642
vt 0.113791 0.377642
vt 0.113791 0.377642
vt 0.113791 0.377642
vt 0.113791 0.377642
vt 0.113791 0.377642
vt 0.113791 0.377642
vt 0.113791 0.377642
vt 0.113791 0.377642
vt 0.113791 0.377642
vt 0.113791 0.377642
vt 0.113791 0.377642
vt 0.113861 0.378557
vt 0.113861 0.378557
vt 0.113861 0.378558
vt 0.113861 0.378558
vt 0.113861 0.378558
vt 0.113861 0.378558
vt 0.113861 0.378557
vt 0.113861 0.378557
vt 0.113861 0.378557
vt 0.113861 0.378557
vt 0.113861 0.378558
vt 0.113861 0.378558
vt 0.113861 0.378558
vt 0.113861 0.378558
vt 0.113861 0.378557
vt 0.113861 0.378557
vt 0.052034 0.211198
vt 0.052034 0.211198
vt 0.113703 0.376030
vt 0.113703 0.376030
vt 0.113703 0.376030
vt 0.113703 0.376030
vt 0.113703 0.376030
vt 0.113703 0.376030
vt 0.113703 0.376030
vt 0.113703 0.376030
vt 0.113703 0.376030
vt 0.113703 0.376030
vt 0.113703 0.376030
vt 0.113703 0.376030
vt 0.113703 0.376030
vt 0.113703 0.376030
vt 0.113703 0.376030
vt 0.113703 0.376030
vt 0.113703 0.376030
vt 0.113703 0.376030
vt 0.052034 0.211198
vt 0.052034 0.211198
vt 0.052034 0.211198
vt 0.052034 0.211198
vt 0.052034 0.211198
vt 0.052034 0.211198
vt 0.138997 0.444623
vt 0.138997 0.444623
vt 0.138997 0.444623
vt 0.138997 0.444623
vt 0.138997 0.444623
vt 0.138997 0.444623
vt 0.138997 0.444623
vt 0.138997 0.444623
vt 0.138997 0.444623
vt 0.138997 0.444623
vt 0.138997 0.444623
vt 0.138997 0.444623
vt 0.113869 0.352896
vt 0.113869 0.352896
vt 0.113869 0.352896
vt 0.113869 0.352896
vt 0.113869 0.352896
vt 0.113869 0.352896
vt 0.113869 0.352896
vt 0.113869 0.352896
vn -0.382677 0.000000 -0.923882
vn -0.382677 0.000000 -0.923882
vn -0.382677 0.000000 -0.923882
vn -0.382677 0.000000 -0.923882
vn 0.382669 0.000000 -0.923886
vn 0.382669 0.000000 -0.923886
vn 0.382669 0.000000 -0.923886
vn 0.382669 0.000000 -0.923886
vn 0.923880 0.000000 -0.382683
vn 0.923880 0.000000 -0.382683
vn 0.923880 0.000000 -0.382683
vn 0.923880 0.000000 -0.382683
vn 0.923878 0.000000 0.382687
vn 0.923878 0.000000 0.382687
vn 0.923878 0.000000 0.382687
vn 0.923878 0.000000 0.382687
vn 0.382676 0.000000 0.923883
vn 0.382676 0.000000 0.923883
vn 0.382676 0.000000 0.923883
vn 0.382676 0.000000 0.923883
vn -0.382685 0.000000 0.923879
vn -0.382685 0.000000 0.923879
vn -0.382685 0.000000 0.923879
vn -0.382685 0.000000 0.923879
vn -0.923887 0.000000 0.382667
vn -0.923887 0.000000 0.382667
vn -0.923887 0.000000 0.382667
vn -0.923887 0.000000 0.382667
vn -0.923888 0.000000 -0.382663
vn -0.923888 0.000000 -0.382663
vn -0.923888 0.000000 -0.382663
vn -0.923888 0.000000 -0.382663
vn 0.000000 1.000000 0.000000
vn 0.000000 1.000000 0.000000
vn 0.000000 1.000000 0.000000
vn 0.000000 1.000000 0.000000
vn 0.000000 1.000000 0.000000
vn 0.000000 1.000000 0.000000
vn 0.000000 1.000000 0.000000
vn 0.000000 1.000000 0.000000
vn 0.000000 1.000000 0.000000
vn 0.000000 1.000000 0.000000
vn 0.000000 1.000000 0.000000
vn 0.000000 1.000000 0.000000
vn 0.000000 1.000000 0.000000
vn 0.000000 1.000000 0.000000
vn 0.000000 1.000000 0.000000
vn 0.000000 1.000000 0.000000
vn 0.000000 1.000000 0.000000
vn 0.000000 1.000000 0.000000
vn 0.000000 1.000000 0.000000
vn 0.000000 1.000000 0.000000
vn 0.000000 1.000000 0.000000
vn 0.000000 1.000000 0.000000
vn 0.000000 1.000000 0.000000
vn 0.000000 1.000000 0.000000
vn 0.000000 -1.000000 0.000000
vn 0.000000 -1.000000 0.000000
vn 0.000000 -1.000000 -0.000000
vn 0.000000 -1.000000 0.000000
vn 0.000000 -1.000000 -0.000000
vn 0.000000 -1.000000 -0.000000
vn 0.000000 -1.000000 -0.000000
vn 0.000000 -1.000000 -0.000000
vn 0.000000 -1.000000 -0.000000
vn 0.000000 -1.000000 -0.000000
vn 0.000000 -1.000000 0.000000
vn 0.000000 -1.000000 -0.000000
vn 0.000000 -1.000000 0.000000
vn 0.000000 -1.000000 0.000000
vn 0.000000 -1.000000 -0.000000
vn 0.000000 -1.000000 0.000000
vn 0.000000 -1.000000 -0.000000
vn 0.000000 -1.000000 -0.000000
vn 0.000000 -1.000000 -0.000000
vn 0.000000 -1.000000 -0.000000
vn 0.000000 -1.000000 -0.000000
vn 0.000000 -1.000000 -0.000000
vn 0.000000 -1.000000 0.000000
vn 0.000000 -1.000000 -0.000000
vn 0.000000 -1.000000 0.000000
vn 0.000000 -1.000000 0.000000
vn 0.000000 -1.000000 0.000000
vn 0.000000 -1.000000 0.000000
vn 0.000000 -1.000000 0.000000
vn 0.000000 -1.000000 0.000000
vn 0.000000 -1.000000 0.000000
vn 0.000000 -1.000000 0.000000
vn 0.000000 -1.000000 0.000000
vn 0.000000 -1.000000 0.000000
vn 0.000000 -1.000000 0.000000
vn 0.000000 -1.000000 0.000000
vn 0.000000 -1.000000 0.000000
vn 0.000000 -1.000000 0.000000
vn 0.000000 -1.000000 0.000000
vn 0.000000 -1.000000 0.000000
vn 0.000000 -1.000000 0.000000
vn 0.000000 -1.000000 0.000000
vn 0.000000 -1.000000 0.000000
vn 0.000000 -1.000000 0.000000
vn 0.000000 -1.000000 -0.000000
vn 0.000000 -1.000000 -0.000000
vn 0.000000 -1.000000 -0.000000
vn 0.000000 -1.000000 -0.000000
vn 0.000000 -1.000000 0.000000
vn 0.000000 -1.000000 0.000000
vn 0.000000 -1.000000 0.000000
vn 0.000000 -1.000000 0.000000
vn 0.000000 -1.000000 -0.000000
vn 0.000000 -1.000000 -0.000000
vn 0.000000 -1.000000 -0.000000
vn 0.000000 -1.000000 -0.000000
vn -0.382706 0.000000 -0.923870
vn -0.382706 0.000000 -0.923870
vn -0.382706 0.000000 -0.923870
vn -0.382706 0.000000 -0.923870
vn 0.382678 0.000000 -0.923882
vn 0.382678 0.000000 -0.923882
vn 0.382678 0.000000 -0.923882
vn 0.382678 0.000000 -0.923882
vn 0.923861 0.000000 -0.382728
vn 0.923861 0.000000 -0.382728
vn 0.923861 0.000000 -0.382728
vn 0.923861 0.000000 -0.382728
vn 0.923858 0.000000 0.382736
vn 0.923858 0.000000 0.382736
vn 0.923858 0.000000 0.382736
vn 0.923858 0.000000 0.382736
vn 0.382687 0.000000 0.923878
vn 0.382687 0.000000 0.923878
vn 0.382687 0.000000 0.923878
vn 0.382687 0.000000 0.923878
vn -0.382714 0.000000 0.923867
vn -0.382714 0.000000 0.923867
vn -0.382714 0.000000 0.923867
vn -0.382714 0.000000 0.923867
vn -0.923871 0.000000 0.382703
vn -0.923871 0.000000 0.382703
vn -0.923871 0.000000 0.382703
vn -0.923871 0.000000 0.382703
vn -0.923875 0.000000 -0.382695
vn -0.923875 0.000000 -0.382695
vn -0.923875 0.000000 -0.382695
vn -0.923875 0.000000 -0.382695
vn 0.000000 -1.000000 0.000000
vn 0.000000 -1.000000 0.000000
vn 0.000000 -1.000000 0.000000
vn 0.000000 -1.000000 0.000000
vn 0.000000 -1.000000 0.000000
vn 0.000000 -1.000000 0.000000
vn 0.000000 -1.000000 0.000000
vn 0.000000 -1.000000 0.000000
vn 0.000000 -1.000000 0.000000
vn 0.000000 -1.000000 0.000000
vn 0.000000 -1.000000 0.000000
vn 0.000000 -1.000000 0.000000
vn 0.000000 -1.000000 0.000000
vn 0.000000 -1.000000 0.000000
vn 0.000000 -1.000000 0.000000
vn 0.000000 -1.000000 0.000000
vn 0.000000 -1.000000 0.000000
vn 0.000000 -1.000000 0.000000
vn 0.000000 -1.000000 0.000000
vn 0.000000 -1.000000 0.000000
vn 0.000000 -1.000000 -0.000000
vn 0.000000 -1.000000 -0.000000
vn 0.000000 -1.000000 -0.000000
vn 0.000000 -1.000000 -0.000000
vn 0.000000 -1.000000 0.000000
vn 0.000000 -1.000000 0.000000
vn 0.000000 -1.000000 0.000000
vn 0.000000 -1.000000 0.000000
vn 0.000000 -1.000000 -0.000000
vn 0.000000 -1.000000 -0.000000
vn 0.000000 -1.000000 -0.000000
vn 0.000000 -1.000000 -0.000000
vn -0.382701 0.000000 -0.923872
vn -0.382701 0.000000 -0.923872
vn -0.382701 0.000000 -0.923872
vn -0.382701 0.000000 -0.923872
vn 0.382672 0.000000 -0.923885
vn 0.382672 0.000000 -0.923885
vn 0.382672 0.000000 -0.923885
vn 0.382672 0.000000 -0.923885
vn 0.923873 0.000000 -0.382700
vn 0.923873 0.000000 -0.382700
vn 0.923873 0.000000 -0.382700
vn 0.923873 0.000000 -0.382700
vn 0.923874 0.000000 0.382696
vn 0.923874 0.000000 0.382696
vn 0.923874 0.000000 0.382696
vn 0.923874 0.000000 0.382696
vn 0.382671 0.000000 0.923885
vn 0.382671 0.000000 0.923885
vn 0.382671 0.000000 0.923885
vn 0.382671 0.000000 0.923885
vn -0.382701 0.000000 0.923873
vn -0.382701 0.000000 0.923873
vn -0.382701 0.000000 0.923873
vn -0.382701 0.000000 0.923873
vn -0.923903 0.000000 0.382626
vn -0.923903 0.000000 0.382626
vn -0.923903 0.000000 0.382626
vn -0.923903 0.000000 0.382626
vn -0.923902 0.000000 -0.382630
vn -0.923902 0.000000 -0.382630
vn -0.923902 0.000000 -0.382630
vn -0.923902 0.000000 -0.382630
vn -0.382681 0.000000 -0.923881
vn -0.382681 0.000000 -0.923881
vn -0.382681 0.000000 -0.923881
vn -0.382681 0.000000 -0.923881
vn 0.382666 0.000000 -0.923887
vn 0.382666 0.000000 -0.923887
vn 0.382666 0.000000 -0.923887
vn 0.382666 0.000000 -0.923887
vn 0.923891 0.000000 -0.382656
vn 0.923891 0.000000 -0.382656
vn 0.923891 0.000000 -0.382656
vn 0.923891 0.000000 -0.382656
vn 0.923890 0.000000 0.382658
vn 0.923890 0.000000 0.382658
vn 0.923890 0.000000 0.382658
vn 0.923890 0.000000 0.382658
vn 0.382671 0.000000 0.923885
vn 0.382671 0.000000 0.923885
vn 0.382671 0.000000 0.923885
vn 0.382671 0.000000 0.923885
vn -0.382685 0.000000 0.923879
vn -0.382685 0.000000 0.923879
vn -0.382685 0.000000 0.923879
vn -0.382685 0.000000 0.923879
vn -0.923875 0.000000 0.382694
vn -0.923875 0.000000 0.382694
vn -0.923875 0.000000 0.382694
vn -0.923875 0.000000 0.382694
vn -0.923876 0.000000 -0.382693
vn -0.923876 0.000000 -0.382693
vn -0.923876 0.000000 -0.382693
vn -0.923876 0.000000 -0.382693
vn 0.000000 1.000000 0.000000
vn 0.000000 1.000000 0.000000
vn 0.000000 1.000000 0.000000
vn 0.000000 1.000000 0.000000
vn 0.000000 1.000000 0.000000
vn 0.000000 1.000000 0.000000
vn 0.000000 1.000000 0.000000
vn 0.000000 1.000000 0.000000
vn 0.000000 1.000000 0.000000
vn 0.000000 1.000000 0.000000
vn 0.000000 1.000000 0.000000
vn 0.000000 1.000000 0.000000
vn 0.000000 1.000000 0.000000
vn 0.000000 1.000000 0.000000
vn 0.000000 1.000000 0.000000
vn 0.000000 1.000000 0.000000
vn 0.000000 1.000000 0.000000
vn 0.000000 1.000000 0.000000
vn 0.000000 1.000000 0.000000
vn 0.000000 1.000000 0.000000
vn 0.000000 1.000000 0.000000
vn 0.000000 1.000000 0.000000
vn 0.000000 1.000000 0.000000
vn 0.000000 1.000000 0.000000
vn 0.000000 -1.000000 0.000000
vn 0.000000 -1.000000 0.000000
vn 0.000000 -1.000000 0.000000
vn 0.000000 -1.000000 0.000000
vn 0.000000 -1.000000 0.000000
vn 0.000000 -1.000000 0.000000
vn 0.000000 -1.000000 0.000000
vn 0.000000 -1.000000 0.000000
vn 0.000000 -1.000000 0.000000
vn 0.000000 -1.000000 0.000000
vn 0.000000 -1.000000 0.000000
vn 0.000000 -1.000000 0.000000
vn 0.000000 -1.000000 0.000000
vn 0.000000 -1.000000 0.000000
vn 0.000000 -1.000000 0.000000
vn 0.000000 -1.000000 0.000000
vn 0.000000 -1.000000 0.000000
vn 0.000000 -1.000000 0.000000
vn 0.000000 -1.000000 0.000000
vn 0.000000 -1.000000 0.000000
vn 0.000000 -1.000000 0.000000
vn 0.000000 -1.000000 0.000000
vn 0.000000 -1.000000 0.000000
vn 0.000000 -1.000000 0.000000
vn 0.000000 0.000000 1.000000
vn 0.000000 0.000000 1.000000
vn 0.000000 0.000000 1.000000
vn 0.000000 0.000000 1.000000
vn 0.000000 0.000000 -1.000000
vn 0.000000 0.000000 -1.000000
vn 0.000000 0.000000 -1.000000
vn 0.000000 0.000000 -1.000000
vn -1.000000 0.000000 0.000000
vn -1.000000 0.000000 0.000000
vn -1.000000 0.000000 0.000000
vn -1.000000 0.000000 0.000000
vn 1.000000 0.000000 0.000000
vn 1.000000 0.000000 0.000000
vn 1.000000 0.000000 0.000000
vn 1.000000 0.000000 0.000000
vn 0.000000 0.000000 1.000000
vn 0.000000 0.000000 1.000000
vn 0.000000 0.000000 1.000000
vn 0.000000 0.000000 1.000000
vn 0.000000 0.000000 -1.000000
vn 0.000000 0.000000 -1.000000
vn 0.000000 0.000000 -1.000000
vn 0.000000 0.000000 -1.000000
vn -1.000000 0.000000 0.000000
vn -1.000000 0.000000 0.000000
vn -1.000000 0.000000 0.000000
vn -1.000000 0.000000 0.000000
vn 1.000000 0.000000 0.000000
vn 1.000000 0.000000 0.000000
vn 1.000000 0.000000 0.000000
vn 1.000000 0.000000 0.000000
vn 0.000000 0.000000 1.000000
vn 0.000000 0.000000 1.000000
vn 0.000000 0.000000 1.000000
vn 0.000000 0.000000 1.000000
vn 0.000000 0.000000 -1.000000
vn 0.000000 0.000000 -1.000000
vn 0.000000 0.000000 -1.000000
vn 0.000000 0.000000 -1.000000
vn -1.000000 0.000000 0.000000
vn -1.000000 0.000000 0.000000
vn -1.000000 0.000000 0.000000
vn -1.000000 0.000000 0.000000
vn 1.000000 0.000000 0.000000
vn 1.000000 0.000000 0.000000
vn 1.000000 0.000000 0.000000
vn 1.000000 0.000000 0.000000
s off
f 1/1/1 2/2/2 10/3/3 9/4/4
f 2/2/5 3/5/6 11/6/7 10/3/8
f 3/5/9 4/7/10 12/8/11 11/6/12
f 4/7/13 5/9/14 13/10/15 12/8/16
f 5/9/17 6/11/18 14/12/19 13/10/20
f 6/11/21 7/13/22 15/14/23 14/12/24
f 7/13/25 8/15/26 16/16/27 15/14/28
f 8/15/29 1/1/30 9/4/31 16/16/32
f 2/2/33 1/1/34 17/17/35
f 3/5/36 2/2/37 17/17/38
f 4/7/39 3/5/40 17/17/41
f 5/9/42 4/7/43 17/17/44
f 6/11/45 5/9/46 17/17/47
f 7/13/48 6/11/49 17/17/50
f 8/15/51 7/13/52 17/17/53
f 1/1/54 8/15/55 17/17/56
f 42/18/57 43/19/58 44/20/59
f 43/19/60 45/21/61 44/20/62
f 45/21/63 46/22/64 44/20/65
f 46/22/66 47/23/67 44/20/68
f 47/23/69 48/24/70 44/20/71
f 48/24/72 49/25/73 44/20/74
f 49/25/75 50/26/76 44/20/77
f 50/26/78 42/18/79 44/20/80
f 9/4/81 10/3/82 19/105/83 18/106/84
f 10/3/85 11/6/86 20/107/87 19/105/88
f 11/6/89 12/8/90 21/108/91 20/107/92
f 12/8/93 13/10/94 22/109/95 21/108/96
f 13/10/97 14/12/98 23/110/99 22/109/100
f 14/12/101 15/14/102 24/111/103 23/110/104
f 15/14/105 16/16/106 25/112/107 24/111/108
f 16/16/109 9/4/110 18/106/111 25/112/112
f 18/28/113 19/27/114 27/35/115 26/36/116
f 19/27/117 20/29/118 28/37/119 27/35/120
f 20/29/121 21/30/122 29/38/123 28/37/124
f 21/30/125 22/31/126 30/39/127 29/38/128
f 22/31/129 23/32/130 31/40/131 30/39/132
f 23/32/133 24/33/134 32/41/135 31/40/136
f 24/33/137 25/34/138 33/42/139 32/41/140
f 25/34/141 18/28/142 26/36/143 33/42/144
f 26/36/145 27/35/146 35/43/147 34/44/148
f 27/35/149 28/37/150 36/45/151 35/43/152
f 28/37/153 29/38/154 37/46/155 36/45/156
f 29/38/157 30/39/158 38/47/159 37/46/160
f 30/39/161 31/40/162 39/48/163 38/47/164
f 31/40/165 32/41/166 40/49/167 39/48/168
f 32/41/169 33/42/170 41/50/171 40/49/172
f 33/42/173 26/36/174 34/44/175 41/50/176
f 34/87/177 35/88/178 43/19/179 42/18/180
f 35/88/181 36/89/182 45/21/183 43/19/184
f 36/89/185 37/90/186 46/22/187 45/21/188
f 37/90/189 38/91/190 47/23/191 46/22/192
f 38/91/193 39/92/194 48/24/195 47/23/196
f 39/92/197 40/68/198 49/25/199 48/24/200
f 40/68/201 41/67/202 50/26/203 49/25/204
f 41/67/205 34/87/206 42/18/207 50/26/208
f 51/69/209 52/70/210 60/71/211 59/72/212
f 52/70/213 53/73/214 61/74/215 60/71/216
f 53/73/217 54/75/218 62/76/219 61/74/220
f 54/75/221 55/77/222 63/78/223 62/76/224
f 55/77/225 56/79/226 64/80/227 63/78/228
f 56/79/229 57/81/230 65/82/231 64/80/232
f 57/81/233 58/83/234 66/84/235 65/82/236
f 58/83/237 51/69/238 59/72/239 66/84/240
f 52/70/241 51/69/242 67/85/243
f 53/73/244 52/70/245 67/85/246
f 54/75/247 53/73/248 67/85/249
f 55/77/250 54/75/251 67/85/252
f 56/79/253 55/77/254 67/85/255
f 57/81/256 56/79/257 67/85/258
f 58/83/259 57/81/260 67/85/261
f 51/69/262 58/83/263 67/85/264
f 59/72/265 60/71/266 68/86/267
f 60/71/268 61/74/269 68/86/270
f 61/74/271 62/76/272 68/86/273
f 62/76/274 63/78/275 68/86/276
f 63/78/277 64/80/278 68/86/279
f 64/80/280 65/82/281 68/86/282
f 65/82/283 66/84/284 68/86/285
f 66/84/286 59/72/287 68/86/288
f 69/104/289 70/103/290 72/102/291 71/101/292
f 73/100/293 74/99/294 76/98/295 75/97/296
f 70/103/297 76/96/298 74/95/299 72/102/300
f 75/94/301 69/104/302 71/101/303 73/93/304
f 77/51/305 78/52/306 80/53/307 79/54/308
f 81/55/309 82/56/310 84/57/311 83/58/312
f 78/52/313 84/57/314 82/56/315 80/53/316
f 83/58/317 77/51/318 79/54/319 81/55/320
f 85/59/321 86/60/322 88/61/323 87/62/324
f 89/63/325 90/64/326 92/65/327 91/66/328
f 86/60/329 92/65/330 90/64/331 88/61/332
f 91/66/333 85/59/334 87/62/335 89/63/336
