# This file uses centimeters as units for non-parametric coordinates.

v -0.280701 0.000000 0.280714
v 0.280701 0.000000 0.280714
v 0.280701 0.000000 -0.280714
v -0.280701 0.000000 -0.280714
v -0.280701 0.509760 0.280714
v 0.280701 0.509760 0.280714
v 0.280701 0.509760 -0.280714
v -0.280701 0.509760 -0.280714
v -0.266846 0.509760 0.266834
v 0.266846 0.509760 0.266834
v 0.266846 0.509760 -0.266834
v -0.266846 0.509760 -0.266834
v -0.266846 0.000000 0.280714
v 0.266846 0.000000 0.280714
v 0.266846 0.496838 0.280714
v -0.266846 0.496838 0.280714
v 0.280701 0.000000 0.266834
v 0.280701 0.000000 -0.266834
v 0.280701 0.496838 -0.266834
v 0.280701 0.496838 0.266834
v -0.266846 0.000000 -0.280714
v 0.266846 0.000000 -0.280714
v -0.266846 0.496838 -0.280714
v 0.266846 0.496838 -0.280714
v -0.280701 0.000000 0.266834
v -0.280701 0.000000 -0.266834
v -0.280701 0.496838 0.266834
v -0.280701 0.496838 -0.266834
v 0.266724 0.496389 0.266705
v -0.266724 0.496389 0.266705
v 0.266724 0.496389 -0.266705
v -0.266724 0.496389 -0.266705
v 0.266846 0.000000 0.266445
v -0.266846 0.000000 0.266445
v 0.266418 0.000000 -0.266834
v 0.266418 0.000000 0.266834
v -0.266846 0.000000 -0.266445
v 0.266846 0.000000 -0.266445
v -0.266449 0.000000 0.266834
v -0.266449 0.000000 -0.266834
vt 0.112901 0.297697
vt 0.112901 0.297697
vt 0.112901 0.297697
vt 0.112901 0.297697
vt 0.112901 0.297697
vt 0.112901 0.297697
vt 0.112901 0.297697
vt 0.112901 0.297697
vt 0.112901 0.297697
vt 0.112901 0.297697
vt 0.112901 0.297697
vt 0.112901 0.297697
vt 0.112901 0.297697
vt 0.112901 0.297697
vt 0.112901 0.297697
vt 0.112901 0.297697
vt 0.112901 0.297697
vt 0.112901 0.297697
vt 0.112901 0.297697
vt 0.112901 0.297697
vt 0.112901 0.297697
vt 0.112901 0.297697
vt 0.112901 0.297697
vt 0.112901 0.297697
vt 0.112901 0.297697
vt 0.112901 0.297697
vt 0.112901 0.297697
vt 0.112901 0.297697
vt 0.112901 0.297697
vt 0.112901 0.297697
vt 0.112901 0.297697
vt 0.112901 0.297697
vt 0.112901 0.297697
vt 0.112901 0.297697
vt 0.112901 0.297697
vt 0.112901 0.297697
vt 0.112901 0.297697
vt 0.112901 0.297697
vt 0.112901 0.297697
vt 0.112901 0.297697
vt 0.112901 0.297697
vt 0.112901 0.297697
vt 0.112901 0.297697
vt 0.112901 0.297697
vt 0.112901 0.297697
vt 0.112901 0.297697
vt 0.112901 0.297697
vt 0.112901 0.297697
vt 0.112901 0.297697
vt 0.112901 0.297697
vt 0.112901 0.297697
vt 0.112901 0.297697
vt 0.112901 0.297697
vt 0.112901 0.297697
vt 0.112901 0.297697
vt 0.112901 0.297697
vt 0.112901 0.297697
vt 0.112901 0.297697
vt 0.112901 0.297697
vt 0.112901 0.297697
vt 0.112901 0.297697
vt 0.112901 0.297697
vt 0.112901 0.297697
vt 0.112901 0.297697
vt 0.112901 0.297697
vt 0.112901 0.297697
vt 0.112901 0.297697
vt 0.112901 0.297697
vn 0.000000 1.000000 0.000001
vn 0.000000 1.000000 0.000001
vn 0.000000 1.000000 0.000001
vn 0.000000 1.000000 0.000001
vn 0.000000 1.000000 0.000000
vn 0.000000 1.000000 0.000000
vn 0.000000 1.000000 0.000000
vn 0.000000 1.000000 0.000000
vn 0.000000 1.000000 -0.000001
vn 0.000000 1.000000 -0.000001
vn 0.000000 1.000000 -0.000001
vn 0.000000 1.000000 -0.000001
vn 0.000000 1.000000 0.000000
vn 0.000000 1.000000 0.000000
vn 0.000000 1.000000 0.000000
vn 0.000000 1.000000 0.000000
vn 0.000000 0.000000 1.000000
vn 0.000000 0.000000 1.000000
vn 0.000000 0.000000 1.000000
vn 0.000000 0.000000 1.000000
vn 0.000000 0.000000 1.000000
vn -0.000000 0.000000 1.000000
vn -0.000000 0.000000 1.000000
vn 0.000000 0.000000 1.000000
vn -0.000000 0.000000 1.000000
vn -0.000000 0.000000 1.000000
vn -0.000000 0.000000 1.000000
vn -0.000000 0.000000 1.000000
vn 1.000000 0.000000 0.000000
vn 1.000000 -0.000001 0.000000
vn 1.000000 -0.000001 0.000000
vn 1.000000 0.000000 0.000000
vn 1.000000 -0.000001 0.000000
vn 1.000000 -0.000001 0.000000
vn 1.000000 -0.000001 0.000000
vn 1.000000 -0.000001 0.000000
vn 1.000000 -0.000001 0.000000
vn 1.000000 0.000000 0.000000
vn 1.000000 0.000000 0.000000
vn 1.000000 -0.000001 0.000000
vn 0.000000 0.000000 -1.000000
vn 0.000000 0.000000 -1.000000
vn 0.000000 0.000000 -1.000000
vn 0.000000 0.000000 -1.000000
vn 0.000000 0.000000 -1.000000
vn 0.000000 0.000000 -1.000000
vn 0.000000 0.000000 -1.000000
vn 0.000000 0.000000 -1.000000
vn 0.000000 0.000000 -1.000000
vn 0.000000 0.000000 -1.000000
vn 0.000000 0.000000 -1.000000
vn 0.000000 0.000000 -1.000000
vn -1.000000 0.000000 0.000000
vn -1.000000 -0.000001 0.000000
vn -1.000000 -0.000001 0.000000
vn -1.000000 0.000000 0.000000
vn -1.000000 -0.000001 0.000000
vn -1.000000 -0.000001 0.000000
vn -1.000000 -0.000001 0.000000
vn -1.000000 -0.000001 0.000000
vn -1.000000 -0.000001 0.000000
vn -1.000000 0.000000 0.000000
vn -1.000000 0.000000 0.000000
vn -1.000000 -0.000001 0.000000
vn 0.000000 0.009682 -0.999953
vn 0.000000 0.009682 -0.999953
vn 0.000000 0.009682 -0.999953
vn 0.000000 0.009682 -0.999953
vn -0.999958 0.009128 0.000000
vn -0.999958 0.009128 0.000000
vn -0.999958 0.009128 0.000000
vn -0.999958 0.009128 0.000000
vn 0.000000 0.009682 0.999953
vn 0.000000 0.009682 0.999953
vn 0.000000 0.009682 0.999953
vn 0.000000 0.009682 0.999953
vn 0.999958 0.009128 0.000000
vn 0.999958 0.009128 0.000000
vn 0.999958 0.009128 0.000000
vn 0.999958 0.009128 0.000000
vn -0.999991 -0.000124 0.004319
vn -0.999991 -0.000124 0.004319
vn -0.999991 -0.000124 0.004319
vn -0.999991 -0.000124 0.004319
vn 0.000000 -0.999489 0.031979
vn 0.000000 -0.999489 0.031979
vn 0.000000 -0.999489 0.031979
vn 0.000000 -0.999489 0.031979
vn 0.999991 -0.000124 0.004319
vn 0.999991 -0.000124 0.004319
vn 0.999991 -0.000124 0.004319
vn 0.999991 -0.000124 0.004319
vn 0.004583 -0.000132 0.999990
vn 0.004583 -0.000132 0.999990
vn 0.004583 -0.000132 0.999990
vn 0.004583 -0.000132 0.999990
vn 0.032052 -0.999486 0.000000
vn 0.032052 -0.999486 0.000000
vn 0.032052 -0.999486 0.000000
vn 0.032052 -0.999486 0.000000
vn 0.004583 -0.000132 -0.999990
vn 0.004583 -0.000132 -0.999990
vn 0.004583 -0.000132 -0.999990
vn 0.004583 -0.000132 -0.999990
vn 0.999991 -0.000124 -0.004319
vn 0.999991 -0.000124 -0.004319
vn 0.999991 -0.000124 -0.004319
vn 0.999991 -0.000124 -0.004319
vn 0.000000 -0.999489 -0.031979
vn 0.000000 -0.999489 -0.031979
vn 0.000000 -0.999489 -0.031979
vn 0.000000 -0.999489 -0.031979
vn -0.999991 -0.000124 -0.004319
vn -0.999991 -0.000124 -0.004319
vn -0.999991 -0.000124 -0.004319
vn -0.999991 -0.000124 -0.004319
vn -0.004588 -0.000132 -0.999989
vn -0.004588 -0.000132 -0.999989
vn -0.004588 -0.000132 -0.999989
vn -0.004588 -0.000132 -0.999990
vn -0.032052 -0.999486 0.000000
vn -0.032052 -0.999486 0.000000
vn -0.032052 -0.999486 0.000000
vn -0.032052 -0.999486 0.000000
vn -0.004588 -0.000132 0.999990
vn -0.004588 -0.000132 0.999989
vn -0.004588 -0.000132 0.999989
vn -0.004588 -0.000132 0.999989
s off
f 5/21/1 6/22/2 10/23/3 9/24/4
f 6/22/5 7/25/6 11/26/7 10/23/8
f 7/25/9 8/27/10 12/28/11 11/26/12
f 8/27/13 5/21/14 9/24/15 12/28/16
f 2/30/17 6/22/18 15/33/19 14/31/20
f 6/22/21 5/21/22 16/34/23 15/33/24
f 5/21/25 1/29/26 13/32/27 16/34/28
f 3/35/29 7/25/30 19/38/31 18/36/32
f 7/25/33 6/22/34 20/39/35 19/38/36
f 6/22/37 2/30/38 17/37/39 20/39/40
f 4/40/41 8/27/42 23/43/43 21/41/44
f 8/27/45 7/25/46 24/44/47 23/43/48
f 7/25/49 3/35/50 22/42/51 24/44/52
f 1/29/53 5/21/54 27/47/55 25/45/56
f 5/21/57 8/27/58 28/48/59 27/47/60
f 8/27/61 4/40/62 26/46/63 28/48/64
f 10/1/65 29/49/66 30/50/67 9/2/68
f 11/3/69 31/51/70 29/49/71 10/1/72
f 12/4/73 32/52/74 31/51/75 11/3/76
f 9/2/77 30/50/78 32/52/79 12/4/80
f 15/7/81 29/55/82 33/53/83 14/5/84
f 16/8/85 30/56/86 29/55/87 15/7/88
f 13/6/89 34/54/90 30/56/91 16/8/92
f 19/11/93 31/59/94 35/57/95 18/9/96
f 20/12/97 29/60/98 31/59/99 19/11/100
f 17/10/101 36/58/102 29/60/103 20/12/104
f 23/15/105 32/63/106 37/61/107 21/13/108
f 24/16/109 31/64/110 32/63/111 23/15/112
f 22/14/113 38/62/114 31/64/115 24/16/116
f 27/19/117 30/67/118 39/65/119 25/17/120
f 28/20/121 32/68/122 30/67/123 27/19/124
f 26/18/125 40/66/126 32/68/127 28/20/128
