# This file uses centimeters as units for non-parametric coordinates.

v -0.301819 0.813099 -0.027404
v -0.270630 0.818336 -0.027404
v -0.255005 0.820955 -0.000000
v -0.270630 0.818336 0.027404
v -0.301819 0.813099 0.027404
v -0.317413 0.810480 0.000000
v -0.014038 0.188263 0.027404
v -0.014038 0.204084 -0.000000
v -0.014038 0.188263 -0.027404
v -0.014038 0.156622 -0.027404
v -0.014038 0.140801 0.000000
v -0.014038 0.156622 0.027404
v -0.186096 0.283768 0.027404
v -0.174927 0.294992 -0.000000
v -0.186096 0.283768 -0.027404
v -0.208374 0.261314 -0.027404
v -0.219513 0.250088 0.000000
v -0.208374 0.261314 0.027404
v -0.246185 0.495773 0.027404
v -0.231934 0.502649 -0.000000
v -0.246185 0.495773 -0.027404
v -0.274689 0.482023 -0.027404
v -0.288940 0.475149 0.000000
v -0.274689 0.482025 0.027404
v -0.317200 0.873016 -0.027376
v -0.293488 0.893917 -0.027376
v -0.281616 0.904367 -0.000000
v -0.293488 0.893917 0.027376
v -0.317200 0.873016 0.027376
v -0.329041 0.862564 0.000000
v -0.342682 0.925842 -0.000000
v 0.302246 0.812336 -0.027404
v 0.271362 0.819046 -0.027404
v 0.255890 0.822399 -0.000000
v 0.271362 0.819046 0.027404
v 0.302246 0.812336 0.027404
v 0.317719 0.808981 0.000000
v 0.155090 0.287683 0.027404
v 0.143127 0.298029 -0.000000
v 0.155090 0.287683 -0.027404
v 0.179047 0.266993 -0.027404
v 0.191010 0.256647 0.000000
v 0.179047 0.266993 0.027404
v 0.235748 0.531635 0.027404
v 0.222046 0.539534 -0.000000
v 0.235748 0.531635 -0.027404
v 0.263184 0.515839 -0.027404
v 0.276886 0.507942 0.000000
v 0.263184 0.515839 0.027404
v 0.320190 0.866791 -0.027376
v 0.295319 0.886335 -0.027376
v 0.282898 0.896107 -0.000000
v 0.295319 0.886335 0.027376
v 0.320190 0.866791 0.027376
v 0.332611 0.857019 0.000000
v 0.342682 0.920958 -0.000000
vt 0.048218 0.210840
vt 0.048218 0.210840
vt 0.048218 0.210840
vt 0.048218 0.210840
vt 0.048218 0.210840
vt 0.048218 0.210840
vt 0.146742 0.420423
vt 0.146742 0.420423
vt 0.146742 0.420423
vt 0.146742 0.420423
vt 0.146742 0.420423
vt 0.146742 0.420423
vt 0.146742 0.420423
vt 0.048218 0.210840
vt 0.146742 0.420423
vt 0.146742 0.420423
vt 0.146742 0.420423
vt 0.146742 0.420423
vt 0.146742 0.420423
vt 0.146742 0.420423
vt 0.146742 0.420423
vt 0.146742 0.420423
vt 0.146742 0.420423
vt 0.146742 0.420423
vt 0.146742 0.420423
vt 0.146742 0.420423
vt 0.146742 0.420423
vt 0.146742 0.420423
vt 0.146742 0.420423
vt 0.146742 0.420423
vt 0.146742 0.420423
vt 0.146742 0.420423
vt 0.146742 0.420423
vt 0.146742 0.420423
vt 0.146742 0.420423
vt 0.048218 0.210840
vt 0.048218 0.210840
vt 0.048218 0.210840
vt 0.048218 0.210840
vt 0.048218 0.210840
vt 0.048218 0.210840
vt 0.146742 0.420423
vt 0.146742 0.420423
vt 0.146742 0.420423
vt 0.146742 0.420423
vt 0.146742 0.420423
vt 0.146742 0.420423
vt 0.146742 0.420423
vt 0.146742 0.420423
vt 0.146742 0.420423
vt 0.146742 0.420423
vt 0.146742 0.420423
vt 0.146742 0.420423
vt 0.146742 0.420423
vt 0.146742 0.420423
vt 0.146742 0.420423
vt 0.146742 0.420423
vt 0.146742 0.420423
vt 0.146742 0.420423
vt 0.146742 0.420423
vt 0.146742 0.420423
vt 0.146742 0.420423
vt 0.146742 0.420423
vt 0.146742 0.420423
vt 0.146742 0.420423
vt 0.146742 0.420423
vt 0.146742 0.420423
vt 0.146742 0.420423
vt 0.146742 0.420423
vt 0.048218 0.210840
vt 0.048218 0.210840
vt 0.048218 0.210840
vt 0.048218 0.210840
vt 0.048218 0.210840
vt 0.048218 0.210840
vt 0.048218 0.210840
vt 0.048218 0.210840
vt 0.048218 0.210840
vt 0.048218 0.210840
vt 0.048218 0.210840
vt 0.048218 0.210840
vt 0.048218 0.210840
vn -0.000004 -0.000000 -1.000000
vn -0.000004 -0.000000 -1.000000
vn -0.000004 -0.000001 -1.000000
vn -0.000004 -0.000001 -1.000000
vn 0.871438 0.064611 -0.486232
vn 0.871438 0.064611 -0.486232
vn 0.866410 0.127376 -0.482814
vn 0.864749 0.141880 -0.481746
vn 0.871439 0.064611 0.486231
vn 0.871439 0.064611 0.486231
vn 0.864750 0.141880 0.481744
vn 0.866411 0.127376 0.482812
vn 0.000001 -0.000000 1.000000
vn 0.000001 -0.000000 1.000000
vn 0.000001 0.000000 1.000000
vn 0.000001 0.000000 1.000000
vn -0.870565 -0.072638 0.486662
vn -0.870565 -0.072638 0.486662
vn -0.861403 -0.155989 0.483377
vn -0.863463 -0.141339 0.484205
vn -0.870566 -0.072637 -0.486661
vn -0.870566 -0.072637 -0.486661
vn -0.863464 -0.141342 -0.484202
vn -0.861405 -0.155986 -0.483374
vn 0.702509 0.506746 0.499690
vn 0.686673 0.527855 0.499849
vn 0.431626 0.770915 0.468389
vn 0.431626 0.770915 0.468389
vn 0.686672 0.527854 -0.499851
vn 0.702508 0.506745 -0.499691
vn 0.431626 0.770915 -0.468391
vn 0.431626 0.770915 -0.468391
vn -0.000003 -0.000002 -1.000000
vn -0.000003 -0.000002 -1.000000
vn -0.000002 -0.000004 -1.000000
vn -0.000002 -0.000004 -1.000000
vn -0.664257 -0.554708 -0.501061
vn -0.678104 -0.537563 -0.501200
vn -0.416758 -0.778696 -0.468983
vn -0.416758 -0.778696 -0.468983
vn -0.678104 -0.537561 0.501202
vn -0.664256 -0.554706 0.501064
vn -0.416758 -0.778696 0.468982
vn -0.416758 -0.778696 0.468982
vn 0.000001 0.000001 1.000000
vn 0.000001 0.000001 1.000000
vn 0.000001 0.000002 1.000000
vn 0.000001 0.000002 1.000000
vn 0.866411 0.127376 0.482812
vn 0.864750 0.141880 0.481744
vn 0.686673 0.527855 0.499849
vn 0.702509 0.506746 0.499690
vn 0.864749 0.141880 -0.481746
vn 0.866410 0.127376 -0.482814
vn 0.702508 0.506745 -0.499691
vn 0.686672 0.527854 -0.499851
vn -0.000004 -0.000001 -1.000000
vn -0.000004 -0.000001 -1.000000
vn -0.000003 -0.000002 -1.000000
vn -0.000003 -0.000002 -1.000000
vn -0.861405 -0.155986 -0.483374
vn -0.863464 -0.141342 -0.484202
vn -0.678104 -0.537563 -0.501200
vn -0.664257 -0.554708 -0.501061
vn -0.863463 -0.141339 0.484205
vn -0.861403 -0.155989 0.483377
vn -0.664256 -0.554706 0.501064
vn -0.678104 -0.537561 0.501202
vn 0.000001 0.000000 1.000000
vn 0.000001 0.000000 1.000000
vn 0.000001 0.000001 1.000000
vn 0.000001 0.000001 1.000000
vn -0.000180 0.000364 -1.000000
vn -0.000180 0.000364 -1.000000
vn -0.000180 0.000364 -1.000000
vn -0.000180 0.000364 -1.000000
vn 0.836570 0.260375 -0.482033
vn 0.836569 0.260375 -0.482033
vn 0.836570 0.260375 -0.482033
vn 0.836569 0.260375 -0.482033
vn 0.836571 0.260376 0.482031
vn 0.836570 0.260376 0.482032
vn 0.836571 0.260376 0.482032
vn 0.836571 0.260376 0.482032
vn -0.000173 0.000365 1.000000
vn -0.000173 0.000365 1.000000
vn -0.000173 0.000365 1.000000
vn -0.000173 0.000365 1.000000
vn -0.854413 -0.205914 0.477051
vn -0.854413 -0.205914 0.477051
vn -0.854413 -0.205914 0.477051
vn -0.854413 -0.205914 0.477051
vn -0.854412 -0.205914 -0.477052
vn -0.854412 -0.205914 -0.477053
vn -0.854412 -0.205914 -0.477052
vn -0.854412 -0.205914 -0.477053
vn -0.288416 0.327201 -0.899864
vn -0.288416 0.327201 -0.899864
vn -0.288416 0.327201 -0.899864
vn 0.296254 0.842427 -0.450057
vn 0.296254 0.842427 -0.450057
vn 0.296254 0.842427 -0.450057
vn 0.296255 0.842427 0.450055
vn 0.296255 0.842427 0.450055
vn 0.296255 0.842427 0.450055
vn -0.288411 0.327208 0.899863
vn -0.288411 0.327208 0.899863
vn -0.288411 0.327208 0.899863
vn -0.873193 -0.188241 0.449554
vn -0.873193 -0.188241 0.449554
vn -0.873193 -0.188241 0.449554
vn -0.873192 -0.188240 -0.449557
vn -0.873192 -0.188240 -0.449557
vn -0.873192 -0.188240 -0.449557
vn 0.000004 -0.000000 -1.000000
vn 0.000004 -0.000001 -1.000000
vn 0.000004 -0.000001 -1.000000
vn 0.000004 -0.000000 -1.000000
vn -0.868601 0.105793 -0.484087
vn -0.853171 0.193704 -0.484333
vn -0.856510 0.177696 -0.484577
vn -0.868601 0.105793 -0.484087
vn -0.868602 0.105793 0.484086
vn -0.856511 0.177696 0.484575
vn -0.853172 0.193704 0.484331
vn -0.868602 0.105793 0.484086
vn -0.000002 0.000000 1.000000
vn -0.000002 0.000000 1.000000
vn -0.000002 0.000000 1.000000
vn -0.000002 0.000000 1.000000
vn 0.866715 -0.115886 0.485155
vn 0.853994 -0.186663 0.485646
vn 0.850645 -0.201916 0.485420
vn 0.866715 -0.115886 0.485155
vn 0.866715 -0.115886 -0.485156
vn 0.850645 -0.201916 -0.485421
vn 0.853993 -0.186663 -0.485647
vn 0.866715 -0.115886 -0.485156
vn -0.707462 0.502224 0.497261
vn -0.451944 0.762632 0.462751
vn -0.451944 0.762632 0.462751
vn -0.703388 0.507947 0.497227
vn -0.703388 0.507947 -0.497228
vn -0.451943 0.762632 -0.462753
vn -0.451943 0.762632 -0.462753
vn -0.707462 0.502223 -0.497262
vn 0.000003 -0.000002 -1.000000
vn 0.000002 -0.000004 -1.000000
vn 0.000002 -0.000004 -1.000000
vn 0.000003 -0.000002 -1.000000
vn 0.681465 -0.535885 -0.498431
vn 0.437776 -0.770469 -0.463389
vn 0.437776 -0.770470 -0.463389
vn 0.684142 -0.532390 -0.498508
vn 0.684143 -0.532390 0.498508
vn 0.437776 -0.770470 0.463388
vn 0.437776 -0.770470 0.463388
vn 0.681465 -0.535885 0.498431
vn -0.000002 0.000001 1.000000
vn -0.000001 0.000002 1.000000
vn -0.000001 0.000002 1.000000
vn -0.000001 0.000001 1.000000
vn -0.856511 0.177696 0.484575
vn -0.707462 0.502224 0.497261
vn -0.703388 0.507947 0.497227
vn -0.853172 0.193704 0.484331
vn -0.853171 0.193704 -0.484333
vn -0.703388 0.507947 -0.497228
vn -0.707462 0.502223 -0.497262
vn -0.856510 0.177696 -0.484577
vn 0.000004 -0.000001 -1.000000
vn 0.000003 -0.000002 -1.000000
vn 0.000003 -0.000002 -1.000000
vn 0.000004 -0.000001 -1.000000
vn 0.850645 -0.201916 -0.485421
vn 0.681465 -0.535885 -0.498431
vn 0.684142 -0.532390 -0.498508
vn 0.853993 -0.186663 -0.485647
vn 0.853994 -0.186663 0.485646
vn 0.684143 -0.532390 0.498508
vn 0.681465 -0.535885 0.498431
vn 0.850645 -0.201916 0.485420
vn -0.000002 0.000000 1.000000
vn -0.000002 0.000001 1.000000
vn -0.000001 0.000001 1.000000
vn -0.000002 0.000000 1.000000
vn 0.000193 0.000396 -1.000000
vn 0.000193 0.000396 -1.000000
vn 0.000193 0.000396 -1.000000
vn 0.000193 0.000396 -1.000000
vn -0.820407 0.296639 -0.488813
vn -0.820407 0.296639 -0.488813
vn -0.820407 0.296639 -0.488813
vn -0.820407 0.296639 -0.488813
vn -0.820408 0.296639 0.488811
vn -0.820408 0.296639 0.488811
vn -0.820408 0.296639 0.488811
vn -0.820408 0.296639 0.488811
vn 0.000185 0.000397 1.000000
vn 0.000185 0.000397 1.000000
vn 0.000185 0.000397 1.000000
vn 0.000185 0.000397 1.000000
vn 0.831648 -0.266310 0.487279
vn 0.831648 -0.266310 0.487279
vn 0.831648 -0.266310 0.487279
vn 0.831648 -0.266310 0.487279
vn 0.831647 -0.266310 -0.487280
vn 0.831647 -0.266310 -0.487280
vn 0.831647 -0.266310 -0.487280
vn 0.831647 -0.266310 -0.487280
vn 0.269469 0.342908 -0.899889
vn 0.269469 0.342908 -0.899889
vn 0.269469 0.342908 -0.899889
vn -0.342799 0.824676 -0.449887
vn -0.342799 0.824676 -0.449887
vn -0.342799 0.824676 -0.449887
vn -0.342800 0.824677 0.449885
vn -0.342800 0.824677 0.449885
vn -0.342800 0.824677 0.449885
vn 0.269464 0.342913 0.899889
vn 0.269464 0.342914 0.899889
vn 0.269464 0.342914 0.899889
vn 0.882218 -0.138958 0.449870
vn 0.882218 -0.138958 0.449870
vn 0.882218 -0.138958 0.449870
vn 0.882216 -0.138957 -0.449873
vn 0.882216 -0.138957 -0.449873
vn 0.882216 -0.138957 -0.449873
s off
f 1/7/1 2/8/2 21/31/3 22/33/4
f 2/8/5 3/9/6 20/30/7 21/31/8
f 3/9/9 4/10/10 19/29/11 20/30/12
f 4/10/13 5/11/14 24/35/15 19/29/16
f 5/11/17 6/12/18 23/34/19 24/35/20
f 6/12/21 1/13/22 22/32/23 23/34/24
f 14/23/25 13/22/26 7/15/27 8/16/28
f 15/24/29 14/23/30 8/16/31 9/17/32
f 16/26/33 15/24/34 9/17/35 10/19/36
f 17/27/37 16/25/38 10/18/39 11/20/40
f 18/28/41 17/27/42 11/20/43 12/21/44
f 13/22/45 18/28/46 12/21/47 7/15/48
f 20/30/49 19/29/50 13/22/51 14/23/52
f 21/31/53 20/30/54 14/23/55 15/24/56
f 22/33/57 21/31/58 15/24/59 16/26/60
f 23/34/61 22/32/62 16/25/63 17/27/64
f 24/35/65 23/34/66 17/27/67 18/28/68
f 19/29/69 24/35/70 18/28/71 13/22/72
f 2/1/73 1/2/74 25/3/75 26/4/76
f 3/5/77 2/1/78 26/4/79 27/6/80
f 4/14/81 3/5/82 27/6/83 28/36/84
f 5/37/85 4/14/86 28/36/87 29/38/88
f 6/39/89 5/37/90 29/38/91 30/40/92
f 1/2/93 6/39/94 30/40/95 25/3/96
f 26/4/97 25/3/98 31/41/99
f 27/6/100 26/4/101 31/41/102
f 28/36/103 27/6/104 31/41/105
f 29/38/106 28/36/107 31/41/108
f 30/40/109 29/38/110 31/41/111
f 25/3/112 30/40/113 31/41/114
f 32/42/115 47/45/116 46/44/117 33/43/118
f 33/43/119 46/44/120 45/47/121 34/46/122
f 34/46/123 45/47/124 44/49/125 35/48/126
f 35/48/127 44/49/128 49/51/129 36/50/130
f 36/50/131 49/51/132 48/53/133 37/52/134
f 37/52/135 48/53/136 47/55/137 32/54/138
f 39/56/139 8/59/140 7/58/141 38/57/142
f 40/60/143 9/61/144 8/59/145 39/56/146
f 41/62/147 10/63/148 9/61/149 40/60/150
f 42/64/151 11/67/152 10/66/153 41/65/154
f 43/68/155 12/69/156 11/67/157 42/64/158
f 38/57/159 7/58/160 12/69/161 43/68/162
f 45/47/163 39/56/164 38/57/165 44/49/166
f 46/44/167 40/60/168 39/56/169 45/47/170
f 47/45/171 41/62/172 40/60/173 46/44/174
f 48/53/175 42/64/176 41/65/177 47/55/178
f 49/51/179 43/68/180 42/64/181 48/53/182
f 44/49/183 38/57/184 43/68/185 49/51/186
f 33/70/187 51/73/188 50/72/189 32/71/190
f 34/74/191 52/75/192 51/73/193 33/70/194
f 35/76/195 53/77/196 52/75/197 34/74/198
f 36/78/199 54/79/200 53/77/201 35/76/202
f 37/80/203 55/81/204 54/79/205 36/78/206
f 32/71/207 50/72/208 55/81/209 37/80/210
f 51/73/211 56/82/212 50/72/213
f 52/75/214 56/82/215 51/73/216
f 53/77/217 56/82/218 52/75/219
f 54/79/220 56/82/221 53/77/222
f 55/81/223 56/82/224 54/79/225
f 50/72/226 56/82/227 55/81/228
