# This file uses centimeters as units for non-parametric coordinates.

v -0.049843 0.916357 0.013618
v 0.049845 0.916357 0.013618
v -0.049843 0.996353 0.013618
v 0.049845 0.996353 0.013618
v -0.049843 0.996353 -0.013618
v 0.049845 0.996353 -0.013618
v -0.049843 0.916357 -0.013618
v 0.049845 0.916357 -0.013618
v 0.135983 0.000000 -0.135982
v 0.000000 0.000000 -0.192308
v -0.135984 0.000000 -0.135982
v -0.192308 0.000000 0.000000
v -0.135984 0.000000 0.135982
v 0.000000 0.000000 0.192308
v 0.135983 0.000000 0.135982
v 0.192308 0.000000 0.000000
v 0.124760 0.041683 -0.124759
v 0.000000 0.041683 -0.176436
v -0.124760 0.041683 -0.124759
v -0.176435 0.041683 0.000000
v -0.124760 0.041683 0.124759
v 0.000000 0.041683 0.176436
v 0.124760 0.041683 0.124759
v 0.176437 0.041683 0.000000
v 0.000000 0.000000 0.000000
v 0.030581 0.052531 -0.030579
v 0.000000 0.052531 -0.043246
v -0.030579 0.052531 -0.030579
v -0.043247 0.052531 0.000000
v -0.030579 0.052531 0.030579
v 0.000000 0.052531 0.043246
v 0.030581 0.052531 0.030579
v 0.043245 0.052531 0.000000
v 0.030581 0.084675 -0.030579
v 0.000000 0.084675 -0.043246
v -0.030579 0.084675 -0.030579
v -0.043247 0.084675 0.000000
v -0.030579 0.084675 0.030579
v 0.000000 0.084675 0.043246
v 0.030581 0.084675 0.030579
v 0.043245 0.084675 0.000000
v 0.021082 0.084675 -0.021082
v -0.000004 0.084675 -0.029814
v -0.021082 0.084675 -0.021082
v -0.029818 0.084675 0.000000
v -0.021082 0.084675 0.021082
v -0.000004 0.084675 0.029814
v 0.021082 0.084675 0.021082
v 0.029812 0.084675 0.000000
v 0.021276 1.027554 -0.021278
v -0.000004 1.027554 -0.030092
v -0.000004 1.027554 0.000000
v -0.021278 1.027554 -0.021278
v -0.030094 1.027554 0.000000
v -0.021278 1.027554 0.021278
v -0.000004 1.027554 0.030092
v 0.021276 1.027554 0.021278
v 0.030088 1.027554 0.000000
vt 0.067062 0.211197
vt 0.067062 0.211197
vt 0.067062 0.211197
vt 0.067062 0.211197
vt 0.067062 0.211197
vt 0.067062 0.211197
vt 0.067062 0.211197
vt 0.067062 0.211197
vt 0.067062 0.211197
vt 0.067062 0.211197
vt 0.067062 0.211197
vt 0.067062 0.211197
vt 0.067062 0.211197
vt 0.067062 0.211197
vt 0.063274 0.211194
vt 0.063274 0.211194
vt 0.063274 0.211194
vt 0.063274 0.211194
vt 0.063274 0.211194
vt 0.063274 0.211194
vt 0.063274 0.211194
vt 0.063274 0.211194
vt 0.063274 0.211194
vt 0.063274 0.211194
vt 0.063274 0.211194
vt 0.063274 0.211194
vt 0.063274 0.211194
vt 0.063274 0.211194
vt 0.063274 0.211194
vt 0.063274 0.211194
vt 0.063274 0.211194
vt 0.063274 0.211194
vt 0.063274 0.211194
vt 0.063274 0.211194
vt 0.063274 0.211194
vt 0.063274 0.211194
vt 0.063274 0.211194
vt 0.063274 0.211194
vt 0.063274 0.211194
vt 0.063274 0.211194
vt 0.063274 0.211194
vt 0.063274 0.211194
vt 0.063274 0.211194
vt 0.063274 0.211194
vt 0.063274 0.211194
vt 0.063274 0.211194
vt 0.063274 0.211194
vt 0.063274 0.211194
vt 0.063274 0.211194
vt 0.063274 0.211194
vt 0.063274 0.211194
vt 0.063274 0.211194
vt 0.063274 0.211194
vt 0.063274 0.211194
vt 0.063274 0.211194
vt 0.063274 0.211194
vt 0.063274 0.211194
vt 0.063274 0.211194
vt 0.063274 0.211194
vt 0.063274 0.211194
vt 0.063274 0.211194
vt 0.063274 0.211194
vt 0.063274 0.211194
vt 0.063274 0.211194
vt 0.063274 0.211194
vt 0.063274 0.211194
vt 0.063274 0.211194
vt 0.063274 0.211194
vt 0.063274 0.211194
vt 0.063274 0.211194
vt 0.063274 0.211194
vt 0.063274 0.211194
vt 0.063274 0.211194
vt 0.063274 0.211194
vt 0.063274 0.211194
vt 0.063274 0.211194
vt 0.063274 0.211194
vt 0.063274 0.211194
vt 0.063274 0.211194
vt 0.063274 0.211194
vt 0.063274 0.211194
vt 0.063274 0.211194
vn 0.000000 0.000000 1.000000
vn 0.000000 0.000000 1.000000
vn 0.000000 0.000000 1.000000
vn 0.000000 0.000000 1.000000
vn 0.000000 1.000000 0.000000
vn 0.000000 1.000000 0.000000
vn 0.000000 1.000000 0.000000
vn 0.000000 1.000000 0.000000
vn 0.000000 0.000000 -1.000000
vn 0.000000 0.000000 -1.000000
vn 0.000000 0.000000 -1.000000
vn 0.000000 0.000000 -1.000000
vn 0.000000 -1.000000 0.000000
vn 0.000000 -1.000000 0.000000
vn 0.000000 -1.000000 0.000000
vn 0.000000 -1.000000 0.000000
vn 1.000000 0.000000 0.000000
vn 1.000000 0.000000 0.000000
vn 1.000000 0.000000 0.000000
vn 1.000000 0.000000 0.000000
vn -1.000000 0.000000 0.000000
vn -1.000000 0.000000 0.000000
vn -1.000000 0.000000 0.000000
vn -1.000000 0.000000 0.000000
vn 0.360998 0.331844 -0.871527
vn 0.360998 0.331844 -0.871527
vn 0.360998 0.331844 -0.871527
vn 0.360998 0.331844 -0.871527
vn -0.360995 0.331852 -0.871526
vn -0.360995 0.331852 -0.871526
vn -0.360995 0.331851 -0.871526
vn -0.360995 0.331851 -0.871526
vn -0.871520 0.331877 -0.360986
vn -0.871520 0.331877 -0.360986
vn -0.871520 0.331877 -0.360986
vn -0.871520 0.331877 -0.360986
vn -0.871520 0.331877 0.360986
vn -0.871520 0.331877 0.360986
vn -0.871520 0.331877 0.360986
vn -0.871520 0.331877 0.360986
vn -0.360995 0.331852 0.871526
vn -0.360995 0.331852 0.871526
vn -0.360995 0.331851 0.871526
vn -0.360995 0.331851 0.871526
vn 0.360998 0.331844 0.871527
vn 0.360998 0.331844 0.871527
vn 0.360998 0.331844 0.871527
vn 0.360998 0.331844 0.871527
vn 0.871527 0.331842 0.361002
vn 0.871527 0.331842 0.361002
vn 0.871527 0.331842 0.361002
vn 0.871527 0.331842 0.361002
vn 0.871527 0.331842 -0.361002
vn 0.871527 0.331842 -0.361002
vn 0.871527 0.331842 -0.361002
vn 0.871527 0.331842 -0.361002
vn 0.000000 -1.000000 0.000000
vn 0.000000 -1.000000 0.000000
vn 0.000000 -1.000000 0.000000
vn 0.000000 -1.000000 0.000000
vn 0.000000 -1.000000 0.000000
vn 0.000000 -1.000000 0.000000
vn 0.000000 -1.000000 0.000000
vn 0.000000 -1.000000 0.000000
vn 0.000000 -1.000000 0.000000
vn 0.000000 -1.000000 0.000000
vn 0.000000 -1.000000 0.000000
vn 0.000000 -1.000000 0.000000
vn 0.000000 -1.000000 0.000000
vn 0.000000 -1.000000 0.000000
vn 0.000000 -1.000000 0.000000
vn 0.000000 -1.000000 0.000000
vn 0.000000 -1.000000 0.000000
vn 0.000000 -1.000000 0.000000
vn 0.000000 -1.000000 0.000000
vn 0.000000 -1.000000 0.000000
vn 0.000000 -1.000000 0.000000
vn 0.000000 -1.000000 0.000000
vn 0.000000 -1.000000 0.000000
vn 0.000000 -1.000000 0.000000
vn 0.000000 1.000000 0.000000
vn 0.000000 1.000000 0.000000
vn 0.000000 1.000000 0.000000
vn 0.000000 1.000000 0.000000
vn 0.000000 1.000000 0.000003
vn 0.000000 1.000000 0.000000
vn 0.000000 1.000000 0.000003
vn 0.000000 1.000000 0.000000
vn 0.000000 1.000000 0.000000
vn 0.000000 1.000000 0.000000
vn 0.000000 1.000000 -0.000003
vn 0.000000 1.000000 0.000000
vn 0.000000 1.000000 -0.000003
vn 0.000000 1.000000 0.000000
vn 0.000000 1.000000 0.000000
vn 0.000000 1.000000 0.000000
vn 0.000000 1.000000 0.000000
vn 0.000000 1.000000 0.000000
vn 0.000000 1.000000 0.000000
vn 0.000000 1.000000 0.000000
vn 0.000000 1.000000 0.000000
vn 0.000000 1.000000 0.000000
vn 0.000000 1.000000 0.000000
vn 0.000000 1.000000 0.000000
vn 0.033604 0.996137 -0.081128
vn 0.033604 0.996137 -0.081128
vn 0.033604 0.996137 -0.081128
vn 0.033604 0.996137 -0.081128
vn -0.033605 0.996137 -0.081128
vn -0.033605 0.996137 -0.081128
vn -0.033605 0.996137 -0.081128
vn -0.033605 0.996137 -0.081128
vn -0.081128 0.996137 -0.033605
vn -0.081128 0.996137 -0.033605
vn -0.081128 0.996137 -0.033605
vn -0.081128 0.996137 -0.033605
vn -0.081128 0.996137 0.033605
vn -0.081128 0.996137 0.033605
vn -0.081128 0.996137 0.033605
vn -0.081128 0.996137 0.033605
vn -0.033605 0.996137 0.081128
vn -0.033605 0.996137 0.081128
vn -0.033605 0.996137 0.081128
vn -0.033605 0.996137 0.081128
vn 0.033604 0.996137 0.081128
vn 0.033604 0.996137 0.081128
vn 0.033604 0.996137 0.081128
vn 0.033604 0.996137 0.081128
vn 0.081128 0.996137 0.033604
vn 0.081128 0.996137 0.033604
vn 0.081128 0.996137 0.033604
vn 0.081128 0.996137 0.033604
vn 0.081128 0.996137 -0.033604
vn 0.081128 0.996137 -0.033604
vn 0.081128 0.996137 -0.033604
vn 0.081128 0.996137 -0.033604
vn 0.382673 0.000000 -0.923884
vn 0.382673 0.000000 -0.923884
vn 0.382673 0.000000 -0.923884
vn 0.382673 0.000000 -0.923884
vn -0.382693 0.000000 -0.923876
vn -0.382693 0.000000 -0.923876
vn -0.382693 0.000000 -0.923876
vn -0.382693 0.000000 -0.923876
vn -0.923856 0.000000 -0.382741
vn -0.923856 0.000000 -0.382741
vn -0.923856 0.000000 -0.382741
vn -0.923856 0.000000 -0.382741
vn -0.923856 0.000000 0.382741
vn -0.923856 0.000000 0.382741
vn -0.923856 0.000000 0.382741
vn -0.923856 0.000000 0.382741
vn -0.382693 0.000000 0.923876
vn -0.382693 0.000000 0.923876
vn -0.382693 0.000000 0.923876
vn -0.382693 0.000000 0.923876
vn 0.382673 0.000000 0.923884
vn 0.382673 0.000000 0.923884
vn 0.382673 0.000000 0.923884
vn 0.382673 0.000000 0.923884
vn 0.923896 0.000000 0.382643
vn 0.923896 0.000000 0.382643
vn 0.923896 0.000000 0.382643
vn 0.923896 0.000000 0.382643
vn 0.923896 0.000000 -0.382643
vn 0.923896 0.000000 -0.382643
vn 0.923896 0.000000 -0.382643
vn 0.923896 0.000000 -0.382643
vn 0.000000 1.000000 -0.000000
vn 0.000000 1.000000 -0.000000
vn 0.000000 1.000000 -0.000000
vn 0.000000 1.000000 -0.000000
vn 0.000000 1.000000 0.000000
vn 0.000000 1.000000 0.000000
vn 0.000000 1.000000 0.000000
vn 0.000000 1.000000 0.000000
vn 0.000000 1.000000 0.000000
vn 0.000000 1.000000 0.000000
vn 0.000000 1.000000 0.000000
vn 0.000000 1.000000 0.000000
vn 0.000000 1.000000 0.000000
vn 0.000000 1.000000 0.000000
vn 0.000000 1.000000 0.000000
vn 0.000000 1.000000 0.000000
vn 0.000000 1.000000 -0.000001
vn 0.000000 1.000000 -0.000001
vn 0.000000 1.000000 -0.000001
vn 0.000000 1.000000 -0.000001
vn 0.000000 1.000000 0.000000
vn 0.000000 1.000000 0.000000
vn 0.000000 1.000000 0.000000
vn 0.000000 1.000000 0.000000
vn 0.000000 1.000000 0.000000
vn 0.000000 1.000000 0.000000
vn 0.000000 1.000000 0.000000
vn 0.000000 1.000000 0.000000
vn 0.000000 1.000000 0.000000
vn 0.000000 1.000000 0.000000
vn 0.000000 1.000000 0.000000
vn 0.000000 1.000000 0.000000
vn 0.382639 -0.000271 -0.923898
vn 0.382639 -0.000271 -0.923898
vn 0.382639 -0.000271 -0.923898
vn 0.382639 -0.000271 -0.923898
vn -0.382742 -0.000272 -0.923855
vn -0.382742 -0.000272 -0.923855
vn -0.382742 -0.000272 -0.923855
vn -0.382742 -0.000272 -0.923855
vn -0.923839 -0.000272 -0.382780
vn -0.923839 -0.000272 -0.382780
vn -0.923839 -0.000272 -0.382780
vn -0.923839 -0.000272 -0.382780
vn -0.923839 -0.000272 0.382780
vn -0.923839 -0.000272 0.382780
vn -0.923839 -0.000272 0.382780
vn -0.923839 -0.000272 0.382780
vn -0.382742 -0.000272 0.923855
vn -0.382742 -0.000272 0.923855
vn -0.382742 -0.000272 0.923855
vn -0.382742 -0.000272 0.923855
vn 0.382639 -0.000271 0.923898
vn 0.382639 -0.000271 0.923898
vn 0.382639 -0.000271 0.923898
vn 0.382639 -0.000271 0.923898
vn 0.923913 -0.000271 0.382603
vn 0.923913 -0.000271 0.382603
vn 0.923913 -0.000271 0.382603
vn 0.923913 -0.000271 0.382603
vn 0.923913 -0.000271 -0.382603
vn 0.923913 -0.000271 -0.382603
vn 0.923913 -0.000271 -0.382603
vn 0.923913 -0.000271 -0.382603
s off
f 1/1/1 2/2/2 4/4/3 3/3/4
f 3/3/5 4/4/6 6/6/7 5/5/8
f 5/5/9 6/6/10 8/8/11 7/7/12
f 7/7/13 8/8/14 2/10/15 1/9/16
f 2/2/17 8/11/18 6/12/19 4/4/20
f 7/13/21 1/1/22 3/3/23 5/14/24
f 9/15/25 10/16/26 18/17/27 17/18/28
f 10/16/29 11/19/30 19/20/31 18/17/32
f 11/19/33 12/21/34 20/22/35 19/20/36
f 12/21/37 13/23/38 21/24/39 20/22/40
f 13/23/41 14/25/42 22/26/43 21/24/44
f 14/25/45 15/27/46 23/28/47 22/26/48
f 15/27/49 16/29/50 24/30/51 23/28/52
f 16/29/53 9/31/54 17/32/55 24/30/56
f 10/33/57 9/34/58 25/35/59
f 11/36/60 10/33/61 25/35/62
f 12/37/63 11/36/64 25/35/65
f 13/38/66 12/37/67 25/35/68
f 14/39/69 13/38/70 25/35/71
f 15/40/72 14/39/73 25/35/74
f 16/41/75 15/40/76 25/35/77
f 9/34/78 16/41/79 25/35/80
f 50/42/81 51/43/82 52/44/83
f 51/43/84 53/45/85 52/44/86
f 53/45/87 54/46/88 52/44/89
f 54/46/90 55/47/91 52/44/92
f 55/47/93 56/48/94 52/44/95
f 56/48/96 57/49/97 52/44/98
f 57/49/99 58/50/100 52/44/101
f 58/50/102 50/42/103 52/44/104
f 17/51/105 18/52/106 27/53/107 26/54/108
f 18/52/109 19/55/110 28/56/111 27/53/112
f 19/55/113 20/57/114 29/58/115 28/56/116
f 20/57/117 21/59/118 30/60/119 29/58/120
f 21/59/121 22/61/122 31/62/123 30/60/124
f 22/61/125 23/63/126 32/64/127 31/62/128
f 23/63/129 24/65/130 33/66/131 32/64/132
f 24/65/133 17/51/134 26/54/135 33/66/136
f 26/54/137 27/53/138 35/67/139 34/68/140
f 27/53/141 28/56/142 36/69/143 35/67/144
f 28/56/145 29/58/146 37/70/147 36/69/148
f 29/58/149 30/60/150 38/71/151 37/70/152
f 30/60/153 31/62/154 39/72/155 38/71/156
f 31/62/157 32/64/158 40/73/159 39/72/160
f 32/64/161 33/66/162 41/74/163 40/73/164
f 33/66/165 26/54/166 34/68/167 41/74/168
f 34/68/169 35/67/170 43/75/171 42/76/172
f 35/67/173 36/69/174 44/77/175 43/75/176
f 36/69/177 37/70/178 45/78/179 44/77/180
f 37/70/181 38/71/182 46/79/183 45/78/184
f 38/71/185 39/72/186 47/80/187 46/79/188
f 39/72/189 40/73/190 48/81/191 47/80/192
f 40/73/193 41/74/194 49/82/195 48/81/196
f 41/74/197 34/68/198 42/76/199 49/82/200
f 43/75/201 51/43/202 50/42/203 42/76/204
f 44/77/205 53/45/206 51/43/207 43/75/208
f 45/78/209 54/46/210 53/45/211 44/77/212
f 46/79/213 55/47/214 54/46/215 45/78/216
f 47/80/217 56/48/218 55/47/219 46/79/220
f 48/81/221 57/49/222 56/48/223 47/80/224
f 49/82/225 58/50/226 57/49/227 48/81/228
f 42/76/229 50/42/230 58/50/231 49/82/232
