# This file uses centimeters as units for non-parametric coordinates.

v -1.500000 0.000000 4.000000
v 1.500000 0.000000 4.000000
v -1.500000 0.053801 4.000000
v 1.500000 0.053801 4.000000
v -1.500000 0.053801 -4.000000
v 1.500000 0.053801 -4.000000
v -1.500000 0.000000 -4.000000
v 1.500000 0.000000 -4.000000
v -1.226742 0.053801 3.686436
v 1.226742 0.053801 3.686436
v 1.226742 0.053801 -3.686436
v -1.226742 0.053801 -3.686436
v -1.412155 0.120808 -3.896332
v -1.412155 0.120808 3.896332
v 1.412155 0.120808 3.896332
v 1.412155 0.120808 -3.896332
v -1.075508 0.053801 3.505219
v 1.075508 0.053801 3.505219
v 1.075508 0.053801 -3.505222
v -1.075508 0.053801 -3.505222
v -0.991344 0.053801 3.545147
v -1.175228 0.053801 3.764744
v -1.326622 0.120808 3.979095
v -1.405891 0.053801 4.084969
v -1.418949 0.000000 4.084969
v 0.982437 0.053801 3.545147
v 1.172920 0.053801 3.764744
v 1.329449 0.120808 3.979095
v 1.411945 0.053801 4.084969
v 1.426998 0.000000 4.084969
v 0.974606 0.053801 -3.545147
v 1.153938 0.053801 -3.764744
v 1.293140 0.120808 -3.979099
v 1.376942 0.053801 -4.084969
v 1.420654 0.000000 -4.084969
v -1.011242 0.053801 -3.545147
v -1.172340 0.053801 -3.764744
v -1.353401 0.120808 -3.979099
v -1.431686 0.053801 -4.084965
v -1.420673 0.000000 -4.084969
v -1.411381 0.000000 -0.356297
v -1.411381 0.053801 -0.356297
v -1.328724 0.120808 -0.335430
v -1.154266 0.053801 -0.291389
v -1.011967 0.053801 -0.255470
v 1.011967 0.053801 0.255470
v 1.154266 0.053801 0.291393
v 1.328724 0.120808 0.335434
v 1.411381 0.053801 0.356300
v 1.411381 0.000000 0.356300
v -1.520802 0.000000 1.817268
v -1.520805 0.053801 1.817268
v -1.431740 0.120808 1.799660
v -1.243759 0.053801 1.762482
v -1.090424 0.053801 1.732159
v 1.090424 0.053801 1.300873
v 1.243755 0.053801 1.270550
v 1.431740 0.120808 1.233372
v 1.520805 0.053801 1.215759
v 1.520809 0.000000 1.215759
v 1.494743 -0.007834 -1.973759
v 1.498749 0.044664 -1.962624
v 1.411987 0.111876 -1.933681
v 1.226002 0.046237 -1.880577
v 1.075050 0.047108 -1.835163
v -1.071930 0.059491 -1.189281
v -1.222881 0.060362 -1.143871
v -1.407024 0.128137 -1.085632
v -1.495621 0.061935 -1.061821
v -1.499626 0.009438 -1.072956
vt 0.032411 0.130179
vt 0.032411 0.130179
vt 0.032411 0.130179
vt 0.032411 0.130179
vt 0.032411 0.130179
vt 0.032411 0.130179
vt 0.032411 0.130179
vt 0.032411 0.130179
vt 0.032411 0.130179
vt 0.032411 0.130179
vt 0.032411 0.130179
vt 0.032411 0.130179
vt 0.032411 0.130179
vt 0.032411 0.130179
vt 0.032411 0.120289
vt 0.032411 0.130179
vt 0.032411 0.130179
vt 0.032411 0.130179
vt 0.032411 0.130179
vt 0.032411 0.130179
vt 0.032411 0.130179
vt 0.032411 0.120289
vt 0.032411 0.130179
vt 0.032411 0.120289
vt 0.032411 0.130179
vt 0.032411 0.130179
vt 0.032411 0.130179
vt 0.032411 0.120289
vt 0.032411 0.130179
vt 0.032411 0.130179
vt 0.032411 0.130179
vt 0.032411 0.130179
vt 0.032411 0.130179
vt 0.032411 0.130179
vt 0.032411 0.130179
vt 0.032411 0.130179
vt 0.032411 0.130179
vt 0.032411 0.130179
vt 0.032411 0.130179
vt 0.032411 0.130179
vt 0.032411 0.130179
vt 0.032411 0.130179
vt 0.032411 0.130179
vt 0.032411 0.130179
vt 0.032411 0.130179
vt 0.032411 0.130179
vt 0.032411 0.130179
vt 0.032411 0.130179
vt 0.032411 0.129280
vt 0.032411 0.129280
vt 0.032411 0.129280
vt 0.032411 0.129280
vt 0.032411 0.120289
vt 0.032411 0.120289
vt 0.032411 0.120289
vt 0.032411 0.120289
vt 0.032411 0.129280
vt 0.032411 0.120289
vt 0.032411 0.120289
vt 0.032411 0.130179
vt 0.032411 0.130179
vt 0.032411 0.130179
vt 0.032411 0.130179
vt 0.032411 0.130179
vt 0.032411 0.130179
vt 0.032411 0.129280
vt 0.032411 0.120289
vt 0.032411 0.120289
vt 0.032411 0.130179
vt 0.032411 0.130179
vt 0.032411 0.130179
vt 0.032411 0.130179
vt 0.032411 0.130179
vt 0.032411 0.130179
vt 0.032411 0.120289
vt 0.032411 0.129280
vt 0.032411 0.130179
vt 0.032411 0.120289
vt 0.032411 0.130179
vt 0.032411 0.130179
vt 0.032411 0.130179
vt 0.032411 0.130179
vt 0.032411 0.130179
vt 0.032411 0.120289
vt 0.032411 0.129280
vt 0.032411 0.130179
vt 0.032411 0.120289
vt 0.032411 0.130179
vt 0.032411 0.130179
vt 0.032411 0.130179
vt 0.032411 0.130179
vt 0.032411 0.130179
vt 0.032411 0.130179
vt 0.032411 0.130179
vt 0.032411 0.130179
vt 0.032411 0.130179
vt 0.032411 0.130179
vt 0.032411 0.130179
vt 0.032411 0.120289
vt 0.032411 0.120289
vt 0.032411 0.129280
vt 0.032411 0.129280
vt 0.032411 0.120289
vt 0.032411 0.120289
vt 0.032411 0.130179
vt 0.032411 0.130179
vt 0.032411 0.130179
vt 0.032411 0.130179
vt 0.032411 0.130179
vt 0.032411 0.130179
vt 0.032411 0.130179
vt 0.032411 0.130179
vt 0.032411 0.130179
vt 0.032411 0.130179
vt 0.032411 0.130179
vt 0.032411 0.130179
vt 0.032411 0.120289
vt 0.032411 0.120289
vt 0.032411 0.129280
vt 0.032411 0.129280
vt 0.032411 0.120289
vt 0.032411 0.120289
vt 0.032411 0.130179
vt 0.032411 0.130179
vt 0.032411 0.130179
vt 0.032411 0.130179
vt 0.032411 0.130179
vt 0.032411 0.130179
vt 0.032411 0.130179
vt 0.032411 0.130179
vt 0.032411 0.130179
vt 0.032411 0.130179
vt 0.032411 0.130179
vt 0.032411 0.120289
vt 0.032411 0.130179
vt 0.032411 0.129280
vt 0.032411 0.120289
vt 0.032411 0.120289
vt 0.032411 0.129280
vt 0.032411 0.130179
vt 0.032411 0.120289
vt 0.032411 0.130179
vt 0.032411 0.130179
vt 0.032411 0.130179
vt 0.032411 0.130179
vt 0.032411 0.130179
vn 0.722104 0.101017 0.684369
vn 0.722104 0.101017 0.684369
vn 0.722104 0.101017 0.684369
vn 0.722104 0.101017 0.684369
vn -0.752645 -0.077010 -0.653907
vn -0.752645 -0.077010 -0.653907
vn -0.752645 -0.077010 -0.653907
vn -0.752645 -0.077010 -0.653907
vn -0.002986 -0.999995 -0.000522
vn -0.002986 -0.999995 -0.000522
vn -0.002986 -0.999995 -0.000522
vn -0.002986 -0.999995 -0.000522
vn 0.998461 -0.041479 0.036819
vn 0.998461 -0.041479 0.036819
vn 0.998461 -0.041479 0.036819
vn 0.998461 -0.041479 0.036819
vn -0.992385 0.024756 0.120664
vn -0.992385 0.024756 0.120664
vn -0.992385 0.024756 0.120664
vn -0.992385 0.024756 0.120664
vn -0.185306 0.970047 -0.157069
vn -0.185306 0.970047 -0.157069
vn -0.185306 0.970047 -0.157069
vn -0.185306 0.970047 -0.157069
vn -0.345668 0.938228 -0.015549
vn -0.345668 0.938228 -0.015549
vn -0.345668 0.938228 -0.015549
vn -0.345668 0.938228 -0.015549
vn 0.195814 0.970945 0.137559
vn 0.195814 0.970945 0.137559
vn 0.195814 0.970945 0.137559
vn 0.195814 0.970945 0.137559
vn 0.350889 0.936108 -0.024053
vn 0.350889 0.936108 -0.024053
vn 0.350889 0.936108 -0.024053
vn 0.350889 0.936108 -0.024053
vn -0.611348 0.787644 0.076627
vn -0.611348 0.787644 0.076627
vn -0.611348 0.787644 0.076627
vn -0.611348 0.787644 0.076627
vn 0.312613 0.894977 0.318260
vn 0.312613 0.894977 0.318260
vn 0.312613 0.894977 0.318260
vn 0.312613 0.894977 0.318260
vn 0.621440 0.783206 0.020027
vn 0.621440 0.783206 0.020027
vn 0.621440 0.783206 0.020027
vn 0.621440 0.783206 0.020027
vn -0.366366 0.888113 -0.277546
vn -0.366366 0.888113 -0.277546
vn -0.366366 0.888113 -0.277546
vn -0.366366 0.888113 -0.277546
vn 0.000000 1.000000 0.000000
vn 0.000000 1.000000 0.000000
vn 0.000000 1.000000 0.000000
vn 0.000000 1.000000 0.000000
vn 0.002864 0.999991 -0.003254
vn 0.002864 0.999991 -0.003254
vn 0.002864 0.999991 -0.003254
vn 0.002864 0.999991 -0.003254
vn 0.000000 1.000000 -0.000000
vn 0.000000 1.000000 -0.000000
vn 0.000000 1.000000 -0.000000
vn 0.000000 1.000000 -0.000000
vn 0.003183 0.999973 0.006629
vn 0.003183 0.999973 0.006629
vn 0.003183 0.999973 0.006629
vn 0.003183 0.999973 0.006629
vn 0.002864 0.999996 0.000245
vn 0.002864 0.999996 0.000245
vn 0.002864 0.999996 0.000245
vn 0.002864 0.999996 0.000245
vn 0.002864 0.999996 0.000245
vn 0.002864 0.999996 0.000245
vn 0.002958 0.999996 -0.000329
vn 0.002958 0.999996 -0.000329
vn 0.002958 0.999996 -0.000329
vn 0.002958 0.999996 -0.000329
vn 0.000000 1.000000 -0.000000
vn 0.000000 1.000000 -0.000000
vn 0.000000 1.000000 -0.000000
vn 0.000000 1.000000 -0.000000
vn 0.000000 1.000000 -0.000000
vn 0.000000 1.000000 -0.000000
vn 0.000000 1.000000 0.000000
vn 0.000000 1.000000 0.000000
vn 0.000000 1.000000 0.000000
vn 0.000000 1.000000 0.000000
vn 0.186229 0.969645 -0.158452
vn 0.186229 0.969645 -0.158452
vn 0.186229 0.969645 -0.158452
vn 0.186229 0.969645 -0.158452
vn -0.305956 0.893877 0.327681
vn -0.305956 0.893877 0.327681
vn -0.305956 0.893877 0.327681
vn -0.305956 0.893877 0.327681
vn -0.693853 0.084200 0.715177
vn -0.693853 0.084200 0.715177
vn -0.693853 0.084200 0.715177
vn -0.693853 0.084200 0.715177
vn 0.000000 1.000000 0.000000
vn 0.000000 1.000000 0.000000
vn 0.000000 1.000000 0.000000
vn 0.000000 1.000000 0.000000
vn 0.000000 0.954452 -0.298366
vn 0.000000 0.954452 -0.298365
vn 0.000000 0.954452 -0.298366
vn 0.000000 0.954452 -0.298365
vn 0.000000 0.844984 0.534791
vn 0.000000 0.844984 0.534791
vn 0.000000 0.844984 0.534791
vn 0.000000 0.844984 0.534791
vn 0.000000 0.000000 1.000000
vn 0.000000 0.000000 1.000000
vn 0.000000 0.000000 1.000000
vn 0.000000 0.000000 1.000000
vn 0.000000 1.000000 0.000000
vn 0.000000 1.000000 0.000000
vn 0.000000 1.000000 0.000000
vn 0.000000 1.000000 0.000000
vn -0.156631 0.969884 0.186525
vn -0.156631 0.969884 0.186525
vn -0.156631 0.969884 0.186525
vn -0.156631 0.969884 0.186525
vn 0.253225 0.895726 -0.365448
vn 0.253225 0.895726 -0.365448
vn 0.253225 0.895726 -0.365448
vn 0.253225 0.895726 -0.365448
vn 0.622134 0.252736 -0.740995
vn 0.622134 0.252736 -0.740995
vn 0.622134 0.252736 -0.740995
vn 0.622134 0.252736 -0.740995
vn 0.000000 1.000000 0.000000
vn 0.000000 1.000000 0.000000
vn 0.000000 1.000000 0.000000
vn 0.000000 1.000000 0.000000
vn 0.000000 0.954453 0.298361
vn 0.000000 0.954453 0.298361
vn 0.000000 0.954453 0.298361
vn 0.000000 0.954453 0.298361
vn -0.000000 0.844971 -0.534812
vn -0.000000 0.844971 -0.534812
vn -0.000000 0.844971 -0.534812
vn -0.000000 0.844971 -0.534812
vn -0.000001 0.000035 -1.000000
vn -0.000001 0.000035 -1.000000
vn -0.000001 0.000035 -1.000000
vn -0.000001 0.000035 -1.000000
vn -0.998735 -0.000035 -0.050279
vn -0.998735 -0.000035 -0.050279
vn -0.998735 -0.000035 -0.050279
vn -0.998735 -0.000035 -0.050279
vn -0.614595 0.788261 -0.030303
vn -0.614595 0.788261 -0.030303
vn -0.614595 0.788261 -0.030303
vn -0.614595 0.788261 -0.030303
vn 0.346500 0.937915 0.015924
vn 0.346500 0.937915 0.015924
vn 0.346500 0.937915 0.015924
vn 0.346500 0.937915 0.015924
vn 0.000000 1.000000 -0.000000
vn 0.000000 1.000000 -0.000000
vn 0.000000 1.000000 -0.000000
vn 0.000000 1.000000 -0.000000
vn 0.000000 1.000000 -0.000000
vn 0.000000 1.000000 -0.000000
vn 0.000000 1.000000 -0.000000
vn 0.000000 1.000000 -0.000000
vn 0.000000 1.000000 0.000000
vn 0.000000 1.000000 0.000000
vn 0.000000 1.000000 0.000000
vn 0.000000 1.000000 0.000000
vn -0.347179 0.937123 0.035605
vn -0.347179 0.937123 0.035605
vn -0.347179 0.937123 0.035605
vn -0.347179 0.937123 0.035605
vn 0.614410 0.785483 -0.074272
vn 0.614410 0.785483 -0.074272
vn 0.614410 0.785483 -0.074272
vn 0.614410 0.785483 -0.074272
vn 0.991992 0.000036 -0.126301
vn 0.991992 0.000036 -0.126301
vn 0.991992 0.000036 -0.126301
vn 0.991992 0.000036 -0.126301
vn 0.000000 -1.000000 0.000000
vn 0.000000 -1.000000 0.000000
vn 0.000000 -1.000000 0.000000
vn 0.000000 -1.000000 0.000000
vn -0.999955 -0.000037 0.009530
vn -0.999955 -0.000037 0.009530
vn -0.999955 -0.000037 0.009530
vn -0.999955 -0.000037 0.009530
vn -0.601348 0.798967 0.005676
vn -0.601348 0.798967 0.005676
vn -0.601348 0.798967 0.005676
vn -0.601348 0.798967 0.005676
vn 0.336015 0.941852 -0.003059
vn 0.336015 0.941852 -0.003059
vn 0.336015 0.941852 -0.003059
vn 0.336015 0.941852 -0.003059
vn 0.000000 1.000000 0.000000
vn 0.000000 1.000000 0.000000
vn 0.000000 1.000000 0.000000
vn 0.000000 1.000000 0.000000
vn 0.000000 1.000000 -0.000000
vn 0.000000 1.000000 -0.000000
vn 0.000000 1.000000 -0.000000
vn 0.000000 1.000000 -0.000000
vn -0.336811 0.941569 -0.002427
vn -0.336811 0.941569 -0.002427
vn -0.336811 0.941569 -0.002427
vn -0.336811 0.941569 -0.002427
vn 0.602446 0.798147 0.004467
vn 0.602446 0.798147 0.004467
vn 0.602446 0.798147 0.004467
vn 0.602446 0.798147 0.004467
vn 0.999972 0.000035 0.007473
vn 0.999972 0.000035 0.007473
vn 0.999972 0.000035 0.007473
vn 0.999972 0.000035 0.007473
vn 0.000000 -1.000000 0.000000
vn 0.000000 -1.000000 0.000000
vn 0.000000 -1.000000 0.000000
vn 0.000000 -1.000000 0.000000
vn 0.000000 -1.000000 0.000000
vn 0.000000 -1.000000 0.000000
vn 0.999284 -0.037805 0.001442
vn 0.999284 -0.037805 0.001442
vn 0.999284 -0.037805 0.001442
vn 0.999284 -0.037805 0.001442
vn 0.611250 0.791429 0.003792
vn 0.611250 0.791429 0.003792
vn 0.611250 0.791429 0.003792
vn 0.611250 0.791429 0.003792
vn -0.333801 0.942635 0.004046
vn -0.333801 0.942635 0.004046
vn -0.333801 0.942635 0.004046
vn -0.333801 0.942635 0.004046
vn 0.005959 0.999974 0.004104
vn 0.005959 0.999974 0.004104
vn 0.005959 0.999974 0.004104
vn 0.005959 0.999974 0.004104
vn 0.004016 0.999989 -0.002528
vn 0.004016 0.999989 -0.002528
vn 0.004016 0.999989 -0.002528
vn 0.004016 0.999989 -0.002528
vn 0.343726 0.939065 -0.003014
vn 0.343726 0.939065 -0.003014
vn 0.343726 0.939065 -0.003014
vn 0.343726 0.939065 -0.003014
vn -0.602205 0.798341 -0.001151
vn -0.602205 0.798341 -0.001151
vn -0.602205 0.798341 -0.001151
vn -0.602205 0.798341 -0.001151
vn -0.999293 0.037584 0.000697
vn -0.999293 0.037584 0.000697
vn -0.999293 0.037584 0.000697
vn -0.999293 0.037584 0.000697
vn -0.002741 -0.999996 0.000311
vn -0.002741 -0.999996 0.000311
vn -0.002741 -0.999996 0.000311
vn -0.002741 -0.999996 0.000311
vn -0.002741 -0.999996 0.000311
vn -0.002741 -0.999996 0.000311
s off
f 29/72/1 30/73/2 2/2/3 4/32/4
f 5/25/5 39/89/6 40/92/7 7/39/8
f 70/146/9 61/129/10 50/109/11 41/94/12
f 49/108/13 50/110/14 61/130/15 62/132/16
f 69/143/17 70/145/18 41/93/19 42/95/20
f 27/69/21 28/70/22 15/45/23 10/27/24
f 47/105/25 48/106/26 63/133/27 64/135/28
f 37/86/29 38/88/30 13/41/31 12/21/32
f 67/140/33 68/142/34 43/97/35 44/98/36
f 68/142/37 69/144/38 42/96/39 43/97/40
f 28/70/41 29/71/42 4/33/43 15/45/44
f 48/106/45 49/107/46 62/131/47 63/133/48
f 38/88/49 39/90/50 5/26/51 13/41/52
f 26/67/53 27/68/54 10/28/55 18/55/56
f 46/103/57 47/104/58 64/134/59 65/137/60
f 36/84/61 37/87/62 12/22/63 20/53/64
f 66/138/65 67/141/66 44/99/67 45/100/68
f 31/76/69 36/85/70 20/52/71 66/139/72 65/136/73 19/51/74
f 65/136/75 66/139/76 45/101/77 46/102/78
f 26/66/79 18/50/80 56/120/81 55/119/82 17/49/83 21/57/84
f 9/15/85 22/59/86 21/58/87 17/56/88
f 14/44/89 23/61/90 22/60/91 9/19/92
f 3/3/93 24/62/94 23/61/95 14/44/96
f 1/40/97 25/64/98 24/63/99 3/34/100
f 21/58/101 22/59/102 27/68/103 26/67/104
f 22/60/105 23/61/106 28/70/107 27/69/108
f 23/61/109 24/62/110 29/71/111 28/70/112
f 24/63/113 25/64/114 30/73/115 29/72/116
f 11/24/117 32/78/118 31/75/119 19/54/120
f 16/48/121 33/79/122 32/77/123 11/17/124
f 6/6/125 34/81/126 33/79/127 16/48/128
f 35/83/129 34/80/130 6/29/131 8/8/132
f 31/75/133 32/78/134 37/87/135 36/84/136
f 32/77/137 33/79/138 38/88/139 37/86/140
f 33/79/141 34/81/142 39/90/143 38/88/144
f 40/92/145 39/89/146 34/80/147 35/83/148
f 42/95/149 41/93/150 51/111/151 52/113/152
f 43/97/153 42/96/154 52/114/155 53/115/156
f 44/98/157 43/97/158 53/115/159 54/116/160
f 45/100/161 44/99/162 54/117/163 55/118/164
f 46/102/165 45/101/166 55/119/167 56/120/168
f 56/121/169 57/122/170 47/104/171 46/103/172
f 57/123/173 58/124/174 48/106/175 47/105/176
f 58/124/177 59/125/178 49/107/179 48/106/180
f 59/126/181 60/128/182 50/110/183 49/108/184
f 41/94/185 50/109/186 60/127/187 51/112/188
f 52/113/189 51/111/190 1/1/191 3/35/192
f 53/115/193 52/114/194 3/36/195 14/43/196
f 54/116/197 53/115/198 14/43/199 9/20/200
f 55/118/201 54/117/202 9/15/203 17/56/204
f 10/28/205 57/122/206 56/121/207 18/55/208
f 15/46/209 58/124/210 57/123/211 10/16/212
f 4/4/213 59/125/214 58/124/215 15/46/216
f 2/38/217 60/128/218 59/126/219 4/31/220
f 51/112/221 60/127/222 2/10/223 30/74/224 25/65/225 1/9/226
f 62/132/227 61/130/228 8/11/229 6/12/230
f 63/133/231 62/131/232 6/30/233 16/47/234
f 64/135/235 63/133/236 16/47/237 11/23/238
f 65/137/239 64/134/240 11/24/241 19/54/242
f 12/22/243 67/141/244 66/138/245 20/53/246
f 13/42/247 68/142/248 67/140/249 12/18/250
f 5/5/251 69/144/252 68/142/253 13/42/254
f 7/13/255 70/145/256 69/143/257 5/14/258
f 7/7/259 40/91/260 35/82/261 8/37/262 61/129/263 70/146/264
