# This file uses centimeters as units for non-parametric coordinates.

v -0.248396 0.044126 0.164072
v 0.250261 0.044126 0.164072
v -0.248396 0.044126 -0.198395
v 0.250261 0.044126 -0.198395
v -0.096002 0.044126 -0.198395
v -0.239327 0.044126 -0.236741
v -0.105070 0.044126 -0.236741
v -0.248396 0.066174 0.164072
v -0.096002 0.066174 -0.198395
v -0.248396 0.066174 -0.198395
v 0.250261 0.066174 0.164072
v 0.250261 0.066174 -0.198395
v -0.105070 0.066174 -0.236741
v -0.239327 0.066174 -0.236741
v -0.248396 0.050545 0.144180
v 0.250261 0.050545 0.144180
v -0.254930 0.050545 -0.207241
v 0.250261 0.050545 -0.198395
v -0.248396 0.050545 -0.198395
v -0.248396 0.059754 0.144180
v -0.248396 0.059754 -0.198395
v -0.254930 0.059754 -0.207241
v 0.250261 0.059754 0.144180
v 0.250261 0.059754 -0.198395
v -0.269967 0.050545 0.144180
v -0.269967 0.059754 0.144180
v 0.271832 0.050545 0.144180
v 0.261047 0.050545 -0.209181
v 0.261047 0.059754 -0.209181
v 0.271832 0.059754 0.144180
v -0.278378 0.073933 0.053847
v -0.086384 0.000000 0.253251
v 0.074728 0.073933 -0.253251
v 0.278378 0.073933 -0.019089
v -0.191005 0.073933 0.154312
v 0.066697 0.073933 0.165011
v -0.133885 0.059499 0.219988
v 0.007510 0.059499 0.216485
vt 0.003669 0.326203
vt 0.003669 0.326203
vt 0.003669 0.326203
vt 0.003669 0.326203
vt 0.003669 0.326203
vt 0.003669 0.326203
vt 0.003669 0.326203
vt 0.003669 0.326203
vt 0.003669 0.326203
vt 0.003669 0.326203
vt 0.003669 0.326203
vt 0.003669 0.326203
vt 0.003669 0.326203
vt 0.003669 0.326203
vt 0.003669 0.326203
vt 0.003669 0.326203
vt 0.003669 0.326203
vt 0.003669 0.326203
vt 0.003669 0.326203
vt 0.003669 0.326203
vt 0.003669 0.326203
vt 0.003669 0.326203
vt 0.003669 0.326203
vt 0.003669 0.326203
vt 0.003669 0.326203
vt 0.003669 0.326203
vt 0.003669 0.326203
vt 0.003669 0.326203
vt 0.431386 0.011066
vt 0.431386 0.011066
vt 0.431386 0.011066
vt 0.431386 0.011066
vt 0.431386 0.011066
vt 0.431386 0.011066
vt 0.431386 0.011066
vt 0.431386 0.011066
vt 0.431386 0.011066
vt 0.431386 0.011066
vt 0.431386 0.011066
vt 0.431386 0.011066
vt 0.431386 0.011066
vt 0.431386 0.011066
vt 0.431386 0.011066
vt 0.431386 0.011066
vt 0.431386 0.011066
vt 0.431386 0.011066
vt 0.431386 0.011066
vt 0.431386 0.011066
vt 0.556312 0.228683
vt 0.593876 0.228683
vt 0.643866 0.278881
vt 0.643866 0.354015
vt 0.556312 0.354015
vt 0.618433 0.228683
vt 0.643866 0.257873
vt 0.643866 0.228683
vn 0.000000 1.000000 0.000000
vn 0.000000 1.000000 0.000000
vn 0.000000 1.000000 0.000000
vn 0.000000 1.000000 0.000000
vn 0.000000 1.000000 0.000000
vn 0.000000 1.000000 0.000000
vn 0.000000 1.000000 0.000000
vn 0.000000 1.000000 0.000000
vn 0.000000 1.000000 0.000000
vn 0.000000 1.000000 0.000000
vn 0.000000 1.000000 0.000000
vn 0.000000 -1.000000 0.000000
vn 0.000000 -1.000000 0.000000
vn 0.000000 -1.000000 0.000000
vn 0.000000 -1.000000 0.000000
vn 0.000000 -1.000000 0.000000
vn 0.000000 -1.000000 0.000000
vn 0.000000 -1.000000 0.000000
vn 0.000000 -1.000000 0.000000
vn 0.000000 -1.000000 0.000000
vn 0.000000 -1.000000 0.000000
vn 0.000000 -1.000000 0.000000
vn -1.000000 0.000000 0.000000
vn -1.000000 0.000000 0.000000
vn -1.000000 0.000000 0.000000
vn -1.000000 0.000000 0.000000
vn 0.000000 0.000000 1.000000
vn 0.000000 0.000000 1.000000
vn 0.000000 0.000000 1.000000
vn 0.000000 0.000000 1.000000
vn 1.000000 0.000000 0.000000
vn 1.000000 0.000000 0.000000
vn 1.000000 0.000000 0.000000
vn 1.000000 0.000000 0.000000
vn 0.000000 0.000000 -1.000000
vn 0.000000 0.000000 -1.000000
vn 0.000000 0.000000 -1.000000
vn 0.000000 0.000000 -1.000000
vn 0.973157 0.000000 -0.230141
vn 0.973157 0.000000 -0.230141
vn 0.973157 0.000000 -0.230141
vn 0.973157 0.000000 -0.230141
vn 0.000000 0.000000 -1.000000
vn 0.000000 0.000000 -1.000000
vn 0.000000 0.000000 -1.000000
vn 0.000000 0.000000 -1.000000
vn -0.973157 0.000000 -0.230141
vn -0.973157 0.000000 -0.230141
vn -0.973157 0.000000 -0.230141
vn -0.973157 0.000000 -0.230141
vn -0.999086 0.000000 -0.042751
vn -0.999086 0.000000 -0.042751
vn -0.999086 0.000000 -0.042751
vn -0.999086 0.000000 -0.042751
vn 0.999535 0.000000 -0.030507
vn 0.999535 0.000000 -0.030507
vn 0.999535 0.000000 -0.030507
vn 0.999535 0.000000 -0.030507
vn -0.003760 0.000000 -0.999993
vn -0.003760 0.000000 -0.999993
vn -0.003760 0.000000 -0.999993
vn -0.003760 0.000000 -0.999993
vn 0.000000 -1.000000 -0.000000
vn 0.000000 -1.000000 -0.000000
vn 0.000000 -1.000000 -0.000000
vn 0.000000 -1.000000 -0.000000
vn 0.000000 0.000000 1.000000
vn 0.000000 0.000000 1.000000
vn 0.000000 0.000000 1.000000
vn 0.000000 0.000000 1.000000
vn 0.000000 1.000000 0.000000
vn 0.000000 1.000000 0.000000
vn 0.000000 1.000000 0.000000
vn 0.000000 1.000000 0.000000
vn 0.000000 -1.000000 0.000000
vn 0.000000 -1.000000 -0.000000
vn 0.000000 -1.000000 -0.000000
vn 0.000000 -1.000000 0.000000
vn 0.000000 1.000000 -0.000000
vn 0.000000 1.000000 -0.000000
vn 0.000000 1.000000 -0.000000
vn 0.000000 1.000000 -0.000000
vn -0.000003 0.000000 1.000000
vn -0.000003 0.000000 1.000000
vn -0.000003 0.000000 1.000000
vn -0.000003 0.000000 1.000000
vn 0.000000 -1.000000 -0.000000
vn 0.000000 -1.000000 -0.000000
vn 0.000000 -1.000000 -0.000000
vn 0.000000 -1.000000 -0.000000
vn 0.000000 1.000000 -0.000000
vn 0.000000 1.000000 -0.000000
vn 0.000000 1.000000 -0.000000
vn 0.000000 1.000000 -0.000000
vn 0.000000 1.000000 0.000000
vn -0.000139 0.999970 0.007698
vn -0.000127 0.999975 0.007067
vn 0.000000 1.000000 0.000000
vn 0.000000 1.000000 0.000000
vn -0.000127 0.999975 0.007067
vn -0.000139 0.999970 0.007698
vn -0.000502 0.938215 0.346052
vn -0.001934 0.951894 0.306422
vn -0.001934 0.951894 0.306422
vn -0.000502 0.938215 0.346052
vn 0.021438 0.500839 0.865275
s off
f 8/20/1 9/5/2 10/19/3
f 8/20/4 11/21/5 12/22/6 9/23/7
f 10/27/8 9/24/9 13/25/10 14/26/11
f 1/10/12 3/12/13 5/11/14
f 1/10/15 5/11/16 4/14/17 2/13/18
f 3/15/19 6/18/20 7/17/21 5/16/22
f 3/3/23 1/1/24 8/20/25 10/19/26
f 1/1/27 2/2/28 11/21/29 8/20/30
f 2/2/31 4/4/32 12/22/33 11/21/34
f 4/4/35 5/28/36 9/23/37 12/22/38
f 5/7/39 7/8/40 13/25/41 9/24/42
f 7/8/43 6/9/44 14/26/45 13/25/46
f 6/9/47 3/6/48 10/27/49 14/26/50
f 17/29/51 25/30/52 26/31/53 22/32/54
f 27/33/55 28/34/56 29/35/57 30/36/58
f 28/34/59 17/37/60 22/38/61 29/35/62
f 19/39/63 15/40/64 25/30/65 17/29/66
f 15/40/67 20/41/68 26/31/69 25/30/70
f 20/41/71 21/42/72 22/32/73 26/31/74
f 16/43/75 18/44/76 28/34/77 27/33/78
f 24/45/79 23/46/80 30/36/81 29/35/82
f 23/46/83 16/43/84 27/33/85 30/36/86
f 18/44/87 19/47/88 17/37/89 28/34/90
f 21/48/91 24/45/92 29/35/93 22/38/94
f 31/49/95 35/50/96 36/51/97 34/52/98 33/53/99
f 36/51/100 35/50/101 37/54/102 38/55/103
f 38/55/104 37/54/105 32/56/106
