# This file uses centimeters as units for non-parametric coordinates.

v -0.858826 0.861002 -0.027402
v -0.858826 0.892643 -0.027402
v -0.858826 0.908464 -0.000000
v -0.858826 0.892643 0.027402
v -0.858826 0.861002 0.027402
v -0.858826 0.845181 0.000000
v 0.000000 0.718866 0.027402
v 0.000000 0.734686 -0.000000
v 0.000000 0.718866 -0.027402
v 0.000000 0.687223 -0.027402
v 0.000000 0.671404 0.000000
v 0.000000 0.687223 0.027402
v -0.286285 0.739040 0.027402
v -0.286285 0.754862 -0.000000
v -0.286285 0.739040 -0.027402
v -0.286285 0.707399 -0.027402
v -0.286285 0.691578 0.000000
v -0.286285 0.707399 0.027402
v -0.572540 0.802057 0.027402
v -0.572540 0.817879 -0.000000
v -0.572540 0.802057 -0.027402
v -0.572540 0.770416 -0.027402
v -0.572540 0.754595 0.000000
v -0.572540 0.770416 0.027402
v -0.926147 0.861017 -0.027376
v -0.926147 0.892628 -0.027376
v -0.926147 0.908434 -0.000000
v -0.926147 0.892628 0.027376
v -0.926147 0.861017 0.027376
v -0.926147 0.845213 0.000000
v -0.982635 0.876823 0.000000
v 0.858826 0.861002 -0.027402
v 0.858826 0.892645 -0.027402
v 0.858826 0.908464 -0.000000
v 0.858826 0.892645 0.027402
v 0.858826 0.861002 0.027402
v 0.858826 0.845182 0.000000
v 0.286285 0.739040 0.027402
v 0.286285 0.754862 -0.000000
v 0.286285 0.739040 -0.027402
v 0.286285 0.707399 -0.027402
v 0.286285 0.691578 0.000000
v 0.286285 0.707399 0.027402
v 0.572540 0.802057 0.027402
v 0.572540 0.817879 -0.000000
v 0.572540 0.802057 -0.027402
v 0.572540 0.770416 -0.027402
v 0.572540 0.754595 0.000000
v 0.572540 0.770416 0.027402
v 0.926147 0.861017 -0.027376
v 0.926147 0.892628 -0.027376
v 0.926147 0.908434 -0.000000
v 0.926147 0.892628 0.027376
v 0.926147 0.861017 0.027376
v 0.926147 0.845213 0.000000
v 0.982635 0.876823 0.000000
vt 0.048218 0.210840
vt 0.048218 0.210840
vt 0.048218 0.210840
vt 0.048218 0.210840
vt 0.048218 0.210840
vt 0.048218 0.210840
vt 0.146742 0.420423
vt 0.146742 0.420423
vt 0.146742 0.420423
vt 0.146742 0.420423
vt 0.146742 0.420423
vt 0.146742 0.420423
vt 0.146742 0.420423
vt 0.048218 0.210840
vt 0.146742 0.420423
vt 0.146742 0.420423
vt 0.146742 0.420423
vt 0.146742 0.420423
vt 0.146742 0.420423
vt 0.146742 0.420423
vt 0.146742 0.420423
vt 0.146742 0.420423
vt 0.146742 0.420423
vt 0.146742 0.420423
vt 0.146742 0.420423
vt 0.146742 0.420423
vt 0.146742 0.420423
vt 0.146742 0.420423
vt 0.146742 0.420423
vt 0.146742 0.420423
vt 0.146742 0.420423
vt 0.146742 0.420423
vt 0.146742 0.420423
vt 0.146742 0.420423
vt 0.146742 0.420423
vt 0.048218 0.210840
vt 0.048218 0.210840
vt 0.048218 0.210840
vt 0.048218 0.210840
vt 0.048218 0.210840
vt 0.048218 0.210840
vt 0.146742 0.420423
vt 0.146742 0.420423
vt 0.146742 0.420423
vt 0.146742 0.420423
vt 0.146742 0.420423
vt 0.146742 0.420423
vt 0.146742 0.420423
vt 0.146742 0.420423
vt 0.146742 0.420423
vt 0.146742 0.420423
vt 0.146742 0.420423
vt 0.146742 0.420423
vt 0.146742 0.420423
vt 0.146742 0.420423
vt 0.146742 0.420423
vt 0.146742 0.420423
vt 0.146742 0.420423
vt 0.146742 0.420423
vt 0.146742 0.420423
vt 0.146742 0.420423
vt 0.146742 0.420423
vt 0.146742 0.420423
vt 0.146742 0.420423
vt 0.146742 0.420423
vt 0.146742 0.420423
vt 0.146742 0.420423
vt 0.146742 0.420423
vt 0.146742 0.420423
vt 0.048218 0.210840
vt 0.048218 0.210840
vt 0.048218 0.210840
vt 0.048218 0.210840
vt 0.048218 0.210840
vt 0.048218 0.210840
vt 0.048218 0.210840
vt 0.048218 0.210840
vt 0.048218 0.210840
vt 0.048218 0.210840
vt 0.048218 0.210840
vt 0.048218 0.210840
vt 0.048218 0.210840
vn 0.000000 0.000000 -1.000000
vn 0.000000 0.000000 -1.000000
vn 0.000000 0.000000 -1.000000
vn 0.000000 0.000000 -1.000000
vn 0.264280 0.835227 -0.482237
vn 0.264280 0.835226 -0.482237
vn 0.229440 0.842914 -0.486676
vn 0.223083 0.844193 -0.487414
vn 0.264280 0.835227 0.482237
vn 0.264280 0.835227 0.482237
vn 0.223083 0.844193 0.487414
vn 0.229440 0.842914 0.486676
vn 0.000000 0.000000 1.000000
vn 0.000000 0.000000 1.000000
vn 0.000000 0.000000 1.000000
vn 0.000000 0.000000 1.000000
vn -0.264280 -0.835226 0.482237
vn -0.264280 -0.835226 0.482237
vn -0.223083 -0.844193 0.487414
vn -0.229440 -0.842914 0.486676
vn -0.264280 -0.835227 -0.482237
vn -0.264280 -0.835227 -0.482237
vn -0.229440 -0.842914 -0.486676
vn -0.223083 -0.844193 -0.487414
vn 0.127663 0.858937 0.495913
vn 0.121903 0.859565 0.496274
vn 0.060917 0.864421 0.499064
vn 0.060917 0.864422 0.499064
vn 0.121903 0.859565 -0.496274
vn 0.127663 0.858937 -0.495913
vn 0.060917 0.864421 -0.499064
vn 0.060917 0.864421 -0.499064
vn 0.000000 0.000000 -1.000000
vn 0.000000 0.000000 -1.000000
vn 0.000000 0.000000 -1.000000
vn 0.000000 0.000000 -1.000000
vn -0.121903 -0.859565 -0.496274
vn -0.127663 -0.858937 -0.495913
vn -0.060917 -0.864421 -0.499064
vn -0.060917 -0.864421 -0.499064
vn -0.127663 -0.858937 0.495913
vn -0.121903 -0.859565 0.496274
vn -0.060917 -0.864421 0.499064
vn -0.060917 -0.864421 0.499064
vn 0.000000 0.000000 1.000000
vn 0.000000 0.000000 1.000000
vn 0.000000 0.000000 1.000000
vn 0.000000 0.000000 1.000000
vn 0.229440 0.842914 0.486676
vn 0.223083 0.844193 0.487414
vn 0.121903 0.859565 0.496274
vn 0.127663 0.858937 0.495913
vn 0.223083 0.844193 -0.487414
vn 0.229440 0.842914 -0.486676
vn 0.127663 0.858937 -0.495913
vn 0.121903 0.859565 -0.496274
vn 0.000000 0.000000 -1.000000
vn 0.000000 0.000000 -1.000000
vn 0.000000 0.000000 -1.000000
vn 0.000000 0.000000 -1.000000
vn -0.223083 -0.844193 -0.487414
vn -0.229440 -0.842914 -0.486676
vn -0.127663 -0.858937 -0.495913
vn -0.121903 -0.859565 -0.496274
vn -0.229440 -0.842914 0.486676
vn -0.223083 -0.844193 0.487414
vn -0.121903 -0.859565 0.496274
vn -0.127663 -0.858937 0.495913
vn 0.000000 0.000000 1.000000
vn 0.000000 0.000000 1.000000
vn 0.000000 0.000000 1.000000
vn 0.000000 0.000000 1.000000
vn -0.000395 0.000000 -1.000000
vn -0.000395 0.000000 -1.000000
vn -0.000395 0.000000 -1.000000
vn -0.000395 0.000000 -1.000000
vn -0.000393 0.866016 -0.500016
vn -0.000393 0.866016 -0.500016
vn -0.000393 0.866016 -0.500016
vn -0.000393 0.866016 -0.500016
vn -0.000393 0.866016 0.500016
vn -0.000393 0.866016 0.500016
vn -0.000393 0.866016 0.500016
vn -0.000393 0.866016 0.500016
vn -0.000395 0.000000 1.000000
vn -0.000395 0.000000 1.000000
vn -0.000395 0.000000 1.000000
vn -0.000395 0.000000 1.000000
vn -0.000405 -0.866029 0.499993
vn -0.000405 -0.866029 0.499993
vn -0.000405 -0.866029 0.499993
vn -0.000405 -0.866029 0.499993
vn -0.000405 -0.866029 -0.499993
vn -0.000405 -0.866029 -0.499993
vn -0.000405 -0.866029 -0.499993
vn -0.000405 -0.866029 -0.499993
vn -0.436116 0.000000 -0.899891
vn -0.436116 0.000000 -0.899891
vn -0.436116 0.000000 -0.899891
vn -0.436106 0.779325 -0.449960
vn -0.436106 0.779325 -0.449960
vn -0.436106 0.779325 -0.449960
vn -0.436108 0.779323 0.449962
vn -0.436108 0.779323 0.449962
vn -0.436108 0.779323 0.449962
vn -0.436115 0.000000 0.899891
vn -0.436116 0.000000 0.899891
vn -0.436116 0.000000 0.899891
vn -0.436117 -0.779341 0.449922
vn -0.436117 -0.779341 0.449922
vn -0.436117 -0.779341 0.449922
vn -0.436117 -0.779341 -0.449922
vn -0.436117 -0.779341 -0.449922
vn -0.436117 -0.779341 -0.449922
vn 0.000000 0.000000 -1.000000
vn 0.000000 0.000000 -1.000000
vn 0.000000 0.000000 -1.000000
vn 0.000000 0.000000 -1.000000
vn -0.264287 0.835237 -0.482215
vn -0.223086 0.844198 -0.487404
vn -0.229443 0.842920 -0.486664
vn -0.264287 0.835237 -0.482215
vn -0.264287 0.835238 0.482215
vn -0.229443 0.842920 0.486664
vn -0.223086 0.844198 0.487404
vn -0.264287 0.835237 0.482215
vn 0.000000 0.000000 1.000000
vn 0.000000 0.000000 1.000000
vn 0.000000 0.000000 1.000000
vn 0.000000 0.000000 1.000000
vn 0.264287 -0.835237 0.482215
vn 0.229443 -0.842920 0.486664
vn 0.223086 -0.844198 0.487404
vn 0.264287 -0.835237 0.482215
vn 0.264286 -0.835237 -0.482215
vn 0.223086 -0.844198 -0.487404
vn 0.229443 -0.842920 -0.486664
vn 0.264287 -0.835238 -0.482215
vn -0.127663 0.858937 0.495913
vn -0.060917 0.864421 0.499064
vn -0.060917 0.864421 0.499064
vn -0.121903 0.859565 0.496274
vn -0.121903 0.859565 -0.496274
vn -0.060917 0.864421 -0.499064
vn -0.060917 0.864421 -0.499064
vn -0.127663 0.858937 -0.495913
vn 0.000000 0.000000 -1.000000
vn 0.000000 0.000000 -1.000000
vn 0.000000 0.000000 -1.000000
vn 0.000000 0.000000 -1.000000
vn 0.121903 -0.859565 -0.496274
vn 0.060917 -0.864421 -0.499064
vn 0.060917 -0.864421 -0.499064
vn 0.127663 -0.858937 -0.495913
vn 0.127663 -0.858937 0.495913
vn 0.060917 -0.864421 0.499064
vn 0.060917 -0.864421 0.499064
vn 0.121903 -0.859565 0.496274
vn 0.000000 0.000000 1.000000
vn 0.000000 0.000000 1.000000
vn 0.000000 0.000000 1.000000
vn 0.000000 0.000000 1.000000
vn -0.229443 0.842920 0.486664
vn -0.127663 0.858937 0.495913
vn -0.121903 0.859565 0.496274
vn -0.223086 0.844198 0.487404
vn -0.223086 0.844198 -0.487404
vn -0.121903 0.859565 -0.496274
vn -0.127663 0.858937 -0.495913
vn -0.229443 0.842920 -0.486664
vn 0.000000 0.000000 -1.000000
vn 0.000000 0.000000 -1.000000
vn 0.000000 0.000000 -1.000000
vn 0.000000 0.000000 -1.000000
vn 0.223086 -0.844198 -0.487404
vn 0.121903 -0.859565 -0.496274
vn 0.127663 -0.858937 -0.495913
vn 0.229443 -0.842920 -0.486664
vn 0.229443 -0.842920 0.486664
vn 0.127663 -0.858937 0.495913
vn 0.121903 -0.859565 0.496274
vn 0.223086 -0.844198 0.487404
vn 0.000000 0.000000 1.000000
vn 0.000000 0.000000 1.000000
vn 0.000000 0.000000 1.000000
vn 0.000000 0.000000 1.000000
vn 0.000395 0.000000 -1.000000
vn 0.000395 0.000000 -1.000000
vn 0.000395 0.000000 -1.000000
vn 0.000395 0.000000 -1.000000
vn 0.000405 0.866029 -0.499993
vn 0.000405 0.866029 -0.499993
vn 0.000405 0.866029 -0.499993
vn 0.000405 0.866029 -0.499993
vn 0.000405 0.866029 0.499993
vn 0.000405 0.866029 0.499993
vn 0.000405 0.866029 0.499993
vn 0.000405 0.866029 0.499993
vn 0.000395 0.000000 1.000000
vn 0.000395 0.000000 1.000000
vn 0.000395 0.000000 1.000000
vn 0.000395 0.000000 1.000000
vn 0.000393 -0.866042 0.499971
vn 0.000393 -0.866042 0.499971
vn 0.000393 -0.866042 0.499971
vn 0.000393 -0.866042 0.499971
vn 0.000393 -0.866042 -0.499971
vn 0.000393 -0.866042 -0.499971
vn 0.000393 -0.866042 -0.499971
vn 0.000393 -0.866042 -0.499971
vn 0.436116 0.000000 -0.899891
vn 0.436116 0.000000 -0.899891
vn 0.436116 0.000000 -0.899891
vn 0.436106 0.779325 -0.449960
vn 0.436106 0.779325 -0.449960
vn 0.436106 0.779325 -0.449960
vn 0.436108 0.779323 0.449962
vn 0.436108 0.779323 0.449962
vn 0.436108 0.779323 0.449962
vn 0.436115 0.000000 0.899891
vn 0.436116 0.000000 0.899891
vn 0.436116 0.000000 0.899891
vn 0.436116 -0.779341 0.449922
vn 0.436116 -0.779341 0.449922
vn 0.436116 -0.779341 0.449922
vn 0.436117 -0.779341 -0.449922
vn 0.436117 -0.779341 -0.449922
vn 0.436117 -0.779341 -0.449922
s off
f 1/7/1 2/8/2 21/31/3 22/33/4
f 2/8/5 3/9/6 20/30/7 21/31/8
f 3/9/9 4/10/10 19/29/11 20/30/12
f 4/10/13 5/11/14 24/35/15 19/29/16
f 5/11/17 6/12/18 23/34/19 24/35/20
f 6/12/21 1/13/22 22/32/23 23/34/24
f 14/23/25 13/22/26 7/15/27 8/16/28
f 15/24/29 14/23/30 8/16/31 9/17/32
f 16/26/33 15/24/34 9/17/35 10/19/36
f 17/27/37 16/25/38 10/18/39 11/20/40
f 18/28/41 17/27/42 11/20/43 12/21/44
f 13/22/45 18/28/46 12/21/47 7/15/48
f 20/30/49 19/29/50 13/22/51 14/23/52
f 21/31/53 20/30/54 14/23/55 15/24/56
f 22/33/57 21/31/58 15/24/59 16/26/60
f 23/34/61 22/32/62 16/25/63 17/27/64
f 24/35/65 23/34/66 17/27/67 18/28/68
f 19/29/69 24/35/70 18/28/71 13/22/72
f 2/1/73 1/2/74 25/3/75 26/4/76
f 3/5/77 2/1/78 26/4/79 27/6/80
f 4/14/81 3/5/82 27/6/83 28/36/84
f 5/37/85 4/14/86 28/36/87 29/38/88
f 6/39/89 5/37/90 29/38/91 30/40/92
f 1/2/93 6/39/94 30/40/95 25/3/96
f 26/4/97 25/3/98 31/41/99
f 27/6/100 26/4/101 31/41/102
f 28/36/103 27/6/104 31/41/105
f 29/38/106 28/36/107 31/41/108
f 30/40/109 29/38/110 31/41/111
f 25/3/112 30/40/113 31/41/114
f 32/42/115 47/45/116 46/44/117 33/43/118
f 33/43/119 46/44/120 45/47/121 34/46/122
f 34/46/123 45/47/124 44/49/125 35/48/126
f 35/48/127 44/49/128 49/51/129 36/50/130
f 36/50/131 49/51/132 48/53/133 37/52/134
f 37/52/135 48/53/136 47/55/137 32/54/138
f 39/56/139 8/59/140 7/58/141 38/57/142
f 40/60/143 9/61/144 8/59/145 39/56/146
f 41/62/147 10/63/148 9/61/149 40/60/150
f 42/64/151 11/67/152 10/66/153 41/65/154
f 43/68/155 12/69/156 11/67/157 42/64/158
f 38/57/159 7/58/160 12/69/161 43/68/162
f 45/47/163 39/56/164 38/57/165 44/49/166
f 46/44/167 40/60/168 39/56/169 45/47/170
f 47/45/171 41/62/172 40/60/173 46/44/174
f 48/53/175 42/64/176 41/65/177 47/55/178
f 49/51/179 43/68/180 42/64/181 48/53/182
f 44/49/183 38/57/184 43/68/185 49/51/186
f 33/70/187 51/73/188 50/72/189 32/71/190
f 34/74/191 52/75/192 51/73/193 33/70/194
f 35/76/195 53/77/196 52/75/197 34/74/198
f 36/78/199 54/79/200 53/77/201 35/76/202
f 37/80/203 55/81/204 54/79/205 36/78/206
f 32/71/207 50/72/208 55/81/209 37/80/210
f 51/73/211 56/82/212 50/72/213
f 52/75/214 56/82/215 51/73/216
f 53/77/217 56/82/218 52/75/219
f 54/79/220 56/82/221 53/77/222
f 55/81/223 56/82/224 54/79/225
f 50/72/226 56/82/227 55/81/228
