# This file uses centimeters as units for non-parametric coordinates.

v -0.325324 0.000000 0.385965
v -0.325324 0.000000 -0.425514
v -0.325324 0.756759 -0.425514
v -0.325324 0.756759 0.385965
v 0.325324 0.756759 -0.425514
v 0.325324 0.000000 -0.425514
v 0.325324 0.756759 0.385965
v 0.325324 0.000000 0.385965
v -0.325324 0.511347 0.385965
v 0.325324 0.511347 0.385965
v -0.325324 0.255673 0.385965
v 0.325324 0.255673 0.385965
v 0.292698 0.720946 0.385965
v -0.296452 0.720946 0.385965
v -0.296452 0.520896 0.385965
v 0.292698 0.520896 0.385965
v -0.296452 0.244533 0.385965
v 0.292698 0.244533 0.385965
v -0.296452 0.011141 0.385965
v 0.292698 0.011141 0.385965
v -0.296452 0.500206 0.385965
v 0.292698 0.500206 0.385965
v -0.296452 0.266814 0.385965
v 0.292698 0.266814 0.385965
v 0.292698 0.720946 0.405833
v -0.296452 0.720946 0.405833
v -0.296452 0.520896 0.405833
v 0.292698 0.520896 0.405833
v -0.296452 0.500206 0.405833
v 0.292698 0.500206 0.405833
v -0.296452 0.266814 0.405833
v 0.292698 0.266814 0.405833
v -0.296452 0.244533 0.405833
v 0.292698 0.244533 0.405833
v -0.296452 0.011141 0.405833
v 0.292698 0.011141 0.405833
v 0.075016 0.696395 0.405833
v -0.078770 0.696395 0.405833
v -0.078770 0.664090 0.405833
v 0.075016 0.664090 0.405833
v -0.078770 0.461676 0.405833
v 0.075016 0.461676 0.405833
v -0.078770 0.423987 0.405833
v 0.075016 0.423987 0.405833
v -0.078770 0.206003 0.405833
v 0.075016 0.206003 0.405833
v -0.078770 0.168313 0.405833
v 0.075016 0.168313 0.405833
v 0.068276 0.692196 0.425514
v -0.072030 0.692196 0.425514
v -0.072030 0.668289 0.425514
v 0.068276 0.668289 0.425514
v -0.072030 0.456777 0.425514
v 0.068276 0.456777 0.425514
v -0.072030 0.428886 0.425514
v 0.068276 0.428886 0.425514
v -0.072030 0.201104 0.425514
v 0.068276 0.201104 0.425514
v -0.072030 0.173213 0.425514
v 0.068276 0.173213 0.425514
vt 0.016057 0.380449
vt 0.016057 0.380449
vt 0.134082 0.299864
vt 0.134082 0.299864
vt 0.134082 0.299864
vt 0.134082 0.299864
vt 0.016057 0.380449
vt 0.016057 0.380449
vt 0.016057 0.380449
vt 0.016057 0.380449
vt 0.016057 0.380449
vt 0.016057 0.380449
vt 0.134082 0.299864
vt 0.134082 0.299864
vt 0.134082 0.299864
vt 0.134082 0.299864
vt 0.134082 0.299864
vt 0.134082 0.299864
vt 0.134082 0.299864
vt 0.134082 0.299864
vt 0.016543 0.327136
vt 0.016543 0.327136
vt 0.016543 0.327136
vt 0.016543 0.327136
vt 0.016543 0.327136
vt 0.016543 0.327136
vt 0.016543 0.327136
vt 0.016543 0.327136
vt 0.016543 0.327136
vt 0.016543 0.327136
vt 0.016543 0.327136
vt 0.016543 0.327136
vt 0.016543 0.327136
vt 0.016543 0.327136
vt 0.016543 0.327136
vt 0.016543 0.327136
vt 0.016543 0.327136
vt 0.016543 0.327136
vt 0.016543 0.327136
vt 0.016543 0.327136
vt 0.016543 0.327136
vt 0.016543 0.327136
vt 0.016543 0.327136
vt 0.016543 0.327136
vt 0.016543 0.327136
vt 0.016543 0.327136
vt 0.016543 0.327136
vt 0.016543 0.327136
vt 0.016543 0.327136
vt 0.016543 0.327136
vt 0.016543 0.327136
vt 0.016543 0.327136
vt 0.016543 0.327136
vt 0.016543 0.327136
vt 0.016543 0.327136
vt 0.016543 0.327136
vt 0.016543 0.327136
vt 0.016543 0.327136
vt 0.016543 0.327136
vt 0.016543 0.327136
vt 0.016543 0.327136
vt 0.016543 0.327136
vt 0.016543 0.327136
vt 0.016543 0.327136
vt 0.016543 0.327136
vt 0.016543 0.327136
vt 0.016543 0.327136
vt 0.016543 0.327136
vt 0.016057 0.380449
vt 0.016057 0.380449
vt 0.016057 0.380449
vt 0.016057 0.380449
vt 0.016057 0.380449
vt 0.016057 0.380449
vt 0.016057 0.380449
vt 0.016057 0.380449
vt 0.016057 0.380449
vt 0.016057 0.380449
vt 0.016057 0.380449
vt 0.016057 0.380449
vt 0.016057 0.380449
vt 0.016057 0.380449
vt 0.016057 0.380449
vt 0.016057 0.380449
vt 0.016057 0.380449
vt 0.016057 0.380449
vt 0.016057 0.380449
vt 0.016057 0.380449
vt 0.016057 0.380449
vt 0.016057 0.380449
vt 0.016057 0.380449
vt 0.016057 0.380449
vt 0.016057 0.380449
vt 0.016057 0.380449
vt 0.016057 0.380449
vt 0.016057 0.380449
vt 0.016057 0.380449
vt 0.016057 0.380449
vt 0.016057 0.380449
vt 0.016057 0.380449
vt 0.016057 0.380449
vt 0.016057 0.380449
vt 0.016057 0.380449
vt 0.016057 0.380449
vt 0.134082 0.299864
vt 0.134082 0.299864
vt 0.134082 0.299864
vt 0.134082 0.299864
vt 0.134082 0.299864
vt 0.134082 0.299864
vt 0.134082 0.299864
vt 0.134082 0.299864
vt 0.134082 0.299864
vt 0.134082 0.299864
vt 0.134082 0.299864
vt 0.134082 0.299864
vt 0.016057 0.380449
vt 0.016057 0.380449
vt 0.016057 0.380449
vt 0.016057 0.380449
vt 0.016057 0.380449
vt 0.016057 0.380449
vt 0.016057 0.380449
vt 0.016057 0.380449
vt 0.016057 0.380449
vt 0.016057 0.380449
vt 0.016057 0.380449
vt 0.016057 0.380449
vn 0.000000 0.000000 1.000000
vn 0.000000 0.000000 1.000000
vn 0.000000 0.000000 1.000000
vn 0.000000 0.000000 1.000000
vn 1.000000 0.000000 0.000000
vn 1.000000 0.000000 0.000000
vn 1.000000 0.000000 0.000000
vn 1.000000 0.000000 0.000000
vn 1.000000 0.000000 0.000000
vn 1.000000 0.000000 0.000000
vn 0.000000 -1.000000 0.000000
vn 0.000000 -1.000000 0.000000
vn 0.000000 -1.000000 0.000000
vn 0.000000 -1.000000 0.000000
vn 0.000000 1.000000 0.000000
vn 0.000000 1.000000 0.000000
vn 0.000000 1.000000 0.000000
vn 0.000000 1.000000 0.000000
vn 0.000000 0.000000 1.000000
vn 0.000000 0.000000 1.000000
vn 0.000000 0.000000 1.000000
vn 0.000000 0.000000 1.000000
vn 0.000000 0.000000 1.000000
vn 0.000000 0.000000 1.000000
vn 0.000000 0.000000 1.000000
vn 0.000000 0.000000 1.000000
vn 0.000000 0.000000 1.000000
vn 0.000000 0.000000 1.000000
vn 0.000000 0.000000 1.000000
vn 0.000000 0.000000 1.000000
vn -0.000000 0.000000 1.000000
vn -0.000000 0.000000 1.000000
vn -0.000000 0.000000 1.000000
vn -0.000000 0.000000 1.000000
vn 0.000000 0.000000 1.000000
vn 0.000000 0.000000 1.000000
vn 0.000000 0.000000 1.000000
vn 0.000000 0.000000 1.000000
vn -0.000000 0.000000 1.000000
vn -0.000000 0.000000 1.000000
vn -0.000000 0.000000 1.000000
vn -0.000000 0.000000 1.000000
vn 0.000000 0.000000 1.000000
vn 0.000000 0.000000 1.000000
vn 0.000000 0.000000 1.000000
vn 0.000000 0.000000 1.000000
vn -0.000001 0.000000 1.000000
vn -0.000001 0.000000 1.000000
vn -0.000001 0.000000 1.000000
vn -0.000001 0.000000 1.000000
vn 0.000000 0.000000 1.000000
vn 0.000000 0.000000 1.000000
vn 0.000000 0.000000 1.000000
vn 0.000000 0.000000 1.000000
vn 0.000001 0.000000 1.000000
vn 0.000001 0.000000 1.000000
vn 0.000001 0.000000 1.000000
vn 0.000001 0.000000 1.000000
vn 0.000000 0.000000 1.000000
vn 0.000000 0.000000 1.000000
vn 0.000000 0.000000 1.000000
vn 0.000000 0.000000 1.000000
vn -0.000000 0.000000 1.000000
vn -0.000000 0.000000 1.000000
vn -0.000000 0.000000 1.000000
vn -0.000000 0.000000 1.000000
vn 0.000000 0.000000 1.000000
vn 0.000000 0.000000 1.000000
vn 0.000000 0.000000 1.000000
vn 0.000000 0.000000 1.000000
vn -0.000000 0.000000 1.000000
vn -0.000000 0.000000 1.000000
vn -0.000000 0.000000 1.000000
vn -0.000000 0.000000 1.000000
vn 0.000000 1.000000 0.000000
vn 0.000000 1.000000 0.000000
vn 0.000000 1.000000 0.000000
vn 0.000000 1.000000 0.000000
vn -1.000000 0.000001 0.000000
vn -1.000000 0.000001 0.000000
vn -1.000000 0.000001 0.000000
vn -1.000000 0.000001 0.000000
vn 0.000000 -1.000000 0.000000
vn 0.000000 -1.000000 0.000000
vn 0.000000 -1.000000 0.000000
vn 0.000000 -1.000000 0.000000
vn 1.000000 0.000000 0.000000
vn 1.000000 0.000000 0.000000
vn 1.000000 0.000000 0.000000
vn 1.000000 0.000000 0.000000
vn 0.000000 1.000000 0.000000
vn 0.000000 1.000000 0.000000
vn 0.000000 1.000000 0.000000
vn 0.000000 1.000000 0.000000
vn -1.000000 0.000000 0.000000
vn -1.000000 0.000000 0.000000
vn -1.000000 0.000000 0.000000
vn -1.000000 0.000000 0.000000
vn 0.000000 -1.000000 0.000000
vn 0.000000 -1.000000 0.000000
vn 0.000000 -1.000000 0.000000
vn 0.000000 -1.000000 0.000000
vn 1.000000 0.000000 0.000000
vn 1.000000 0.000000 0.000000
vn 1.000000 0.000000 0.000000
vn 1.000000 0.000000 0.000000
vn 0.000000 1.000000 0.000000
vn 0.000000 1.000000 0.000000
vn 0.000000 1.000000 0.000000
vn 0.000000 1.000000 0.000000
vn -1.000000 -0.000001 0.000000
vn -1.000000 -0.000001 0.000000
vn -1.000000 -0.000001 0.000000
vn -1.000000 -0.000001 0.000000
vn 0.000000 -1.000000 0.000000
vn 0.000000 -1.000000 0.000000
vn 0.000000 -1.000000 0.000000
vn 0.000000 -1.000000 0.000000
vn 1.000000 0.000000 0.000000
vn 1.000000 0.000000 0.000000
vn 1.000000 0.000000 0.000000
vn 1.000000 0.000000 0.000000
vn -0.000000 0.000000 1.000000
vn 0.000000 0.000000 1.000000
vn 0.000000 0.000000 1.000000
vn -0.000000 0.000000 1.000000
vn 0.000000 0.000000 1.000000
vn 0.000000 0.000000 1.000000
vn 0.000000 0.000000 1.000000
vn 0.000000 0.000000 1.000000
vn 0.000000 0.000000 1.000000
vn -0.000000 0.000000 1.000000
vn -0.000000 0.000000 1.000000
vn 0.000000 0.000000 1.000000
vn -0.000000 0.000000 1.000000
vn -0.000000 0.000000 1.000000
vn -0.000000 0.000000 1.000000
vn -0.000000 0.000000 1.000000
vn -0.000000 0.000000 1.000000
vn 0.000000 0.000000 1.000000
vn 0.000000 0.000000 1.000000
vn -0.000000 0.000000 1.000000
vn 0.000000 0.000000 1.000000
vn 0.000000 0.000000 1.000000
vn 0.000000 0.000000 1.000000
vn 0.000000 0.000000 1.000000
vn 0.000000 0.000000 1.000000
vn -0.000000 0.000000 1.000000
vn -0.000000 0.000000 1.000000
vn 0.000000 0.000000 1.000000
vn -0.000000 0.000000 1.000000
vn -0.000000 0.000000 1.000000
vn -0.000000 0.000000 1.000000
vn -0.000000 0.000000 1.000000
vn 0.000000 0.000000 1.000000
vn 0.000000 0.000000 1.000000
vn 0.000000 0.000000 1.000000
vn 0.000000 0.000000 1.000000
vn 0.000000 0.000000 1.000000
vn 0.000000 0.000000 1.000000
vn 0.000000 0.000000 1.000000
vn 0.000000 0.000000 1.000000
vn 0.000000 0.000000 1.000000
vn 0.000000 0.000000 1.000000
vn 0.000000 0.000000 1.000000
vn 0.000000 0.000000 1.000000
vn 0.000000 0.000000 1.000000
vn 0.000000 0.000000 1.000000
vn 0.000000 0.000000 1.000000
vn 0.000000 0.000000 1.000000
vn 0.000000 0.977983 0.208684
vn 0.000000 0.977983 0.208684
vn 0.000000 0.977983 0.208684
vn 0.000000 0.977983 0.208684
vn -0.946059 0.000000 0.323993
vn -0.946059 0.000000 0.323994
vn -0.946059 0.000000 0.323993
vn -0.946059 0.000000 0.323993
vn 0.000000 -0.977983 0.208687
vn 0.000000 -0.977983 0.208687
vn 0.000000 -0.977983 0.208687
vn 0.000000 -0.977983 0.208687
vn 0.946058 0.000000 0.323997
vn 0.946058 0.000000 0.323997
vn 0.946058 0.000000 0.323997
vn 0.946058 0.000000 0.323997
vn 0.000000 0.970382 0.241576
vn 0.000000 0.970382 0.241576
vn 0.000000 0.970382 0.241576
vn 0.000000 0.970382 0.241577
vn -0.946059 0.000000 0.323993
vn -0.946059 0.000000 0.323993
vn -0.946059 0.000000 0.323993
vn -0.946060 0.000000 0.323993
vn 0.000000 -0.970382 0.241575
vn 0.000000 -0.970382 0.241575
vn 0.000000 -0.970382 0.241575
vn 0.000000 -0.970382 0.241575
vn 0.946058 0.000000 0.323998
vn 0.946058 0.000000 0.323998
vn 0.946058 0.000000 0.323998
vn 0.946058 0.000000 0.323998
vn 0.000000 0.970382 0.241574
vn 0.000000 0.970382 0.241574
vn 0.000000 0.970382 0.241574
vn 0.000000 0.970382 0.241574
vn -0.946060 0.000000 0.323993
vn -0.946060 0.000000 0.323993
vn -0.946060 0.000000 0.323993
vn -0.946060 0.000000 0.323993
vn 0.000000 -0.970382 0.241576
vn 0.000000 -0.970382 0.241576
vn 0.000000 -0.970382 0.241576
vn 0.000000 -0.970382 0.241576
vn 0.946058 0.000000 0.323998
vn 0.946058 0.000000 0.323998
vn 0.946058 0.000000 0.323998
vn 0.946058 0.000000 0.323998
vn -1.000000 0.000000 -0.000000
vn -1.000000 0.000000 -0.000000
vn -1.000000 0.000000 -0.000000
vn -1.000000 0.000000 -0.000000
vn -1.000000 0.000000 -0.000000
vn -1.000000 0.000000 -0.000000
vn 0.000000 0.000000 -1.000000
vn 0.000000 0.000000 -1.000000
vn 0.000000 0.000000 -1.000000
vn 0.000000 0.000000 -1.000000
s off
f 49/3/1 50/4/2 51/5/3 52/6/4
f 6/2/5 5/1/6 7/128/7 10/8/8 12/9/9 8/10/10
f 8/10/11 1/11/12 2/12/13 6/2/14
f 7/128/15 5/1/16 3/127/17 4/7/18
f 54/13/19 53/14/20 55/15/21 56/16/22
f 58/17/23 57/18/24 59/19/25 60/20/26
f 7/21/27 4/22/28 14/23/29 13/24/30
f 4/25/31 9/26/32 15/27/33 14/28/34
f 9/29/35 10/30/36 16/31/37 15/32/38
f 10/33/39 7/34/40 13/35/41 16/36/42
f 12/37/43 11/38/44 17/39/45 18/40/46
f 11/41/47 1/42/48 19/43/49 17/44/50
f 1/45/51 8/46/52 20/47/53 19/48/54
f 8/49/55 12/50/56 18/51/57 20/52/58
f 10/53/59 9/54/60 21/55/61 22/56/62
f 9/57/63 11/58/64 23/59/65 21/60/66
f 11/61/67 12/62/68 24/63/69 23/64/70
f 12/65/71 10/66/72 22/67/73 24/68/74
f 13/69/75 14/70/76 26/71/77 25/72/78
f 14/70/79 15/73/80 27/74/81 26/71/82
f 15/73/83 16/75/84 28/76/85 27/74/86
f 16/75/87 13/69/88 25/72/89 28/76/90
f 22/77/91 21/78/92 29/79/93 30/80/94
f 21/78/95 23/81/96 31/82/97 29/79/98
f 23/81/99 24/83/100 32/84/101 31/82/102
f 24/83/103 22/77/104 30/80/105 32/84/106
f 18/85/107 17/86/108 33/87/109 34/88/110
f 17/86/111 19/89/112 35/90/113 33/87/114
f 19/89/115 20/91/116 36/92/117 35/90/118
f 20/91/119 18/85/120 34/88/121 36/92/122
f 25/72/123 26/71/124 38/93/125 37/94/126
f 26/71/127 27/74/128 39/95/129 38/93/130
f 27/74/131 28/76/132 40/96/133 39/95/134
f 28/76/135 25/72/136 37/94/137 40/96/138
f 30/80/139 29/79/140 41/97/141 42/98/142
f 29/79/143 31/82/144 43/99/145 41/97/146
f 31/82/147 32/84/148 44/100/149 43/99/150
f 32/84/151 30/80/152 42/98/153 44/100/154
f 34/88/155 33/87/156 45/101/157 46/102/158
f 33/87/159 35/90/160 47/103/161 45/101/162
f 35/90/163 36/92/164 48/104/165 47/103/166
f 36/92/167 34/88/168 46/102/169 48/104/170
f 37/105/171 38/106/172 50/4/173 49/3/174
f 38/106/175 39/107/176 51/5/177 50/4/178
f 39/107/179 40/108/180 52/6/181 51/5/182
f 40/108/183 37/105/184 49/3/185 52/6/186
f 42/109/187 41/110/188 53/14/189 54/13/190
f 41/110/191 43/111/192 55/15/193 53/14/194
f 43/111/195 44/112/196 56/16/197 55/15/198
f 44/112/199 42/109/200 54/13/201 56/16/202
f 46/113/203 45/114/204 57/18/205 58/17/206
f 45/114/207 47/115/208 59/19/209 57/18/210
f 47/115/211 48/116/212 60/20/213 59/19/214
f 48/116/215 46/113/216 58/17/217 60/20/218
f 4/117/219 3/118/220 2/119/221 1/120/222 11/126/223 9/125/224
f 3/121/225 5/122/226 6/123/227 2/124/228
