# This file uses centimeters as units for non-parametric coordinates.

v -0.136759 -0.001847 0.055701
v 0.136759 -0.001847 0.055701
v -0.136759 0.001847 0.055701
v 0.136759 0.001847 0.055701
v -0.136759 0.001847 -0.055701
v 0.136759 0.001847 -0.055701
v -0.136759 -0.001847 -0.055701
v 0.136759 -0.001847 -0.055701
vt 0.687684 0.400497
vt 0.687684 0.400497
vt 0.669340 0.400497
vt 0.669340 0.400497
vt 0.503749 0.373682
vt 0.623970 0.373682
vt 0.623970 0.434205
vt 0.503749 0.434205
vt 0.669340 0.400497
vt 0.669340 0.400497
vt 0.687684 0.400497
vt 0.687684 0.400497
vt 0.503749 0.434205
vt 0.623970 0.434205
vt 0.623970 0.373682
vt 0.503749 0.373682
vn 0.000000 0.000000 1.000000
vn 0.000000 0.000000 1.000000
vn 0.000000 0.000000 1.000000
vn 0.000000 0.000000 1.000000
vn 0.000000 1.000000 0.000000
vn 0.000000 1.000000 0.000000
vn 0.000000 1.000000 0.000000
vn 0.000000 1.000000 0.000000
vn 0.000000 0.000000 -1.000000
vn 0.000000 0.000000 -1.000000
vn 0.000000 0.000000 -1.000000
vn 0.000000 0.000000 -1.000000
vn 0.000000 -1.000000 0.000000
vn 0.000000 -1.000000 0.000000
vn 0.000000 -1.000000 0.000000
vn 0.000000 -1.000000 0.000000
vn 1.000000 0.000000 0.000000
vn 1.000000 0.000000 0.000000
vn 1.000000 0.000000 0.000000
vn 1.000000 0.000000 0.000000
vn -1.000000 0.000000 0.000000
vn -1.000000 0.000000 0.000000
vn -1.000000 0.000000 0.000000
vn -1.000000 0.000000 0.000000
s off
f 1/1/1 2/2/2 4/3/3 3/4/4
f 3/5/5 4/6/6 6/7/7 5/8/8
f 5/9/9 6/10/10 8/11/11 7/12/12
f 7/13/13 8/14/14 2/15/15 1/16/16
f 2/2/17 8/11/18 6/10/19 4/3/20
f 7/12/21 1/1/22 3/4/23 5/9/24
