# This file uses centimeters as units for non-parametric coordinates.

v -0.327525 0.000000 0.087782
v 0.327525 0.000000 0.087782
v -0.327525 0.020574 0.087782
v 0.327525 0.020574 0.087782
v -0.327525 0.036923 -0.087783
v 0.327525 0.036923 -0.087783
v -0.327525 0.000000 -0.087783
v 0.327525 0.000000 -0.087783
v -0.316216 0.036923 -0.102304
v -0.316216 0.020574 0.102304
v -0.316216 0.000000 0.102304
v -0.316216 0.000000 -0.102304
v 0.316216 0.000000 0.102304
v 0.316216 0.020574 0.102304
v 0.316216 0.036923 -0.102304
v 0.316216 0.000000 -0.102304
vt 0.462751 0.598322
vt 0.462751 0.598322
vt 0.462751 0.598322
vt 0.462751 0.598322
vt 0.492074 0.506172
vt 0.492074 0.609820
vt 0.185054 0.609820
vt 0.185054 0.506172
vt 0.462751 0.598322
vt 0.462751 0.598322
vt 0.462751 0.598322
vt 0.462751 0.598322
vt 0.462751 0.598322
vt 0.462751 0.598322
vt 0.462751 0.598322
vt 0.462751 0.598322
vt 0.462751 0.598322
vt 0.462751 0.598322
vt 0.462751 0.598322
vt 0.462751 0.598322
vt 0.462751 0.598322
vt 0.462751 0.598322
vt 0.462751 0.598322
vt 0.462751 0.598322
vt 0.462751 0.598322
vt 0.462751 0.598322
vt 0.462751 0.598322
vt 0.462751 0.598322
vn 0.022553 0.000000 0.999746
vn 0.022553 0.000000 0.999746
vn -0.022553 0.000000 0.999746
vn -0.022553 0.000000 0.999746
vn 0.000000 0.996819 0.079695
vn 0.000000 0.996819 0.079695
vn -0.000000 0.996819 0.079695
vn -0.000000 0.996819 0.079695
vn 0.022552 0.000000 -0.999746
vn 0.022552 0.000000 -0.999746
vn -0.022552 0.000000 -0.999746
vn -0.022552 0.000000 -0.999746
vn 0.000000 -1.000000 0.000000
vn 0.000000 -1.000000 0.000000
vn 0.000000 -1.000000 0.000000
vn 0.000000 -1.000000 0.000000
vn 1.000000 0.000000 0.000000
vn 1.000000 0.000000 0.000000
vn 1.000000 0.000000 0.000000
vn 1.000000 0.000000 0.000000
vn -1.000000 0.000000 0.000000
vn -1.000000 0.000000 0.000000
vn -1.000000 0.000000 0.000000
vn -1.000000 0.000000 0.000000
vn -0.000001 0.996321 0.085695
vn -0.000000 0.996819 0.079695
vn -0.000000 0.996819 0.079695
vn -0.000001 0.996321 0.085695
vn -0.788986 0.000000 0.614411
vn -0.022553 0.000000 0.999746
vn -0.022553 0.000000 0.999746
vn -0.788986 0.000000 0.614411
vn 0.000000 -1.000000 0.000000
vn 0.000000 -1.000000 0.000000
vn 0.000000 -1.000000 0.000000
vn 0.000000 -1.000000 0.000000
vn -0.788981 0.000000 -0.614418
vn -0.022552 0.000000 -0.999746
vn -0.022552 0.000000 -0.999746
vn -0.788981 0.000000 -0.614418
vn 0.022553 0.000000 0.999746
vn 0.022553 0.000000 0.999746
vn 0.788986 0.000000 0.614411
vn 0.788986 0.000000 0.614411
vn 0.000000 0.996819 0.079695
vn 0.000000 0.996819 0.079695
vn 0.000001 0.996321 0.085695
vn 0.000001 0.996321 0.085695
vn 0.022552 0.000000 -0.999746
vn 0.022552 0.000000 -0.999746
vn 0.788981 0.000000 -0.614418
vn 0.788981 0.000000 -0.614418
vn 0.000000 -1.000000 0.000000
vn 0.000000 -1.000000 0.000000
vn 0.000000 -1.000000 0.000000
vn 0.000000 -1.000000 0.000000
s off
f 13/1/1 14/2/2 10/3/3 11/4/4
f 14/5/5 15/6/6 9/7/7 10/8/8
f 15/9/9 16/10/10 12/11/11 9/12/12
f 16/10/13 13/13/14 11/14/15 12/11/16
f 2/15/17 8/16/18 6/17/19 4/18/20
f 7/19/21 1/20/22 3/21/23 5/22/24
f 3/21/25 10/3/26 9/12/27 5/23/28
f 1/20/29 11/4/30 10/3/31 3/21/32
f 7/24/33 12/11/34 11/14/35 1/25/36
f 5/23/37 9/12/38 12/11/39 7/24/40
f 14/2/41 13/1/42 2/15/43 4/18/44
f 15/9/45 14/2/46 4/18/47 6/26/48
f 16/10/49 15/9/50 6/26/51 8/27/52
f 13/13/53 16/10/54 8/27/55 2/28/56
