# This file uses centimeters as units for non-parametric coordinates.

v -0.192114 0.000000 0.190917
v 0.192114 0.000000 0.190917
v -0.140375 1.115462 0.137011
v 0.140375 1.115462 0.137011
v -0.140375 1.115462 -0.155507
v 0.140375 1.115462 -0.155507
v -0.192114 0.000000 -0.209414
v 0.192114 0.000000 -0.209414
v -0.179418 0.986910 -0.196186
v -0.179418 0.986910 0.177690
v 0.179418 0.986910 0.177690
v 0.179418 0.986910 -0.196186
v -0.192114 0.970629 -0.209414
v -0.192114 0.970629 0.190917
v 0.192114 0.970629 0.190917
v 0.192114 0.970629 -0.209414
v 0.192114 0.999564 0.190917
v -0.192114 0.999564 0.190917
v -0.192114 0.999564 -0.209414
v 0.192114 0.999564 -0.209414
v 0.192114 1.053796 0.190917
v -0.192114 1.053796 0.190917
v -0.192114 1.053796 -0.209414
v 0.192114 1.053796 -0.209414
v -0.192114 0.703916 -0.209414
v -0.192114 0.529640 0.190917
v 0.192114 0.529640 0.190917
v 0.192114 0.703916 -0.209414
v -0.138092 0.566653 0.190917
v 0.138092 0.566653 0.190917
v 0.138092 0.933616 0.190917
v -0.138092 0.933616 0.190917
v -0.138092 0.566653 0.080761
v 0.138092 0.566653 0.080761
v 0.138092 0.933616 0.151899
v -0.138092 0.933616 0.151899
v -0.131767 0.040960 0.190917
v 0.131767 0.040960 0.190917
v 0.131767 0.488679 0.190917
v -0.131767 0.488679 0.190917
v -0.122426 0.052639 0.190917
v 0.122426 0.052639 0.190917
v 0.122426 0.477001 0.190917
v -0.122426 0.477001 0.190917
v -0.100703 0.566653 0.183105
v 0.100703 0.566653 0.183105
v 0.100703 0.566653 0.099617
v -0.100703 0.566653 0.099617
v -0.094216 0.552998 0.180772
v 0.094216 0.552998 0.180772
v 0.094216 0.552998 0.101951
v -0.094216 0.552998 0.101951
v -0.036150 0.783839 0.122864
v 0.036150 0.783839 0.122864
v 0.036150 0.854018 0.136469
v -0.036150 0.854018 0.136469
v -0.036150 0.783839 0.158307
v 0.036150 0.783839 0.158307
v 0.036150 0.854018 0.158307
v -0.036150 0.854018 0.158307
v -0.015448 0.799131 0.158307
v 0.015448 0.799131 0.158307
v 0.015448 0.838726 0.158307
v -0.015448 0.838726 0.158307
v -0.015448 0.799131 0.189221
v 0.015448 0.799131 0.189221
v 0.015448 0.838726 0.211041
v -0.015448 0.838726 0.211041
v -0.015448 0.777964 0.189221
v 0.015448 0.777964 0.189221
v 0.015448 0.777964 0.211041
v -0.015448 0.777964 0.211041
v -0.008430 0.838726 0.180435
v 0.008430 0.838726 0.180435
v -0.008430 0.838726 0.195297
v 0.008430 0.838726 0.195297
v -0.008430 0.861736 0.180435
v 0.008430 0.861736 0.180435
v -0.008430 0.861736 0.195297
v 0.008430 0.861736 0.195297
v -0.017006 0.861736 0.172876
v 0.017006 0.861736 0.172876
v -0.017006 0.861736 0.202856
v 0.017006 0.861736 0.202856
v -0.017006 0.873269 0.172876
v 0.017006 0.873269 0.172876
v -0.017006 0.873269 0.202856
v 0.017006 0.873269 0.202856
v -0.138092 0.529640 0.190917
v 0.138092 0.529640 0.190917
v -0.138092 0.547499 0.238917
v -0.138092 0.566653 0.238917
v 0.138092 0.547499 0.238917
v 0.138092 0.566653 0.238917
v 0.091633 0.202622 0.190917
v 0.106348 0.202622 0.190917
v 0.106348 0.263641 0.190917
v 0.091633 0.263641 0.190917
v 0.151330 0.647196 -0.209414
v -0.151330 0.647196 -0.209414
v 0.151330 0.056720 -0.209414
v -0.151330 0.056720 -0.209414
v 0.151330 0.647196 -0.238917
v -0.151330 0.647196 -0.238917
v 0.151330 0.056720 -0.238917
v -0.151330 0.056720 -0.238917
vt 0.100523 0.378761
vt 0.100523 0.378761
vt 0.100523 0.378761
vt 0.100523 0.378761
vt 0.100523 0.378761
vt 0.100523 0.378761
vt 0.100523 0.378761
vt 0.100523 0.378761
vt 0.100523 0.378761
vt 0.100523 0.378761
vt 0.100523 0.378761
vt 0.100523 0.378761
vt 0.100523 0.378761
vt 0.100523 0.378761
vt 0.100523 0.378761
vt 0.100523 0.378761
vt 0.100523 0.378761
vt 0.100523 0.378761
vt 0.100523 0.378761
vt 0.100523 0.378761
vt 0.100523 0.378761
vt 0.100523 0.378761
vt 0.100523 0.378761
vt 0.100523 0.378761
vt 0.100523 0.378761
vt 0.100523 0.378761
vt 0.100523 0.378761
vt 0.100523 0.378761
vt 0.111298 0.378761
vt 0.111298 0.378761
vt 0.111298 0.378761
vt 0.111298 0.378761
vt 0.100523 0.378761
vt 0.100523 0.378761
vt 0.100523 0.378761
vt 0.100523 0.378761
vt 0.100523 0.378761
vt 0.100523 0.378761
vt 0.100523 0.378761
vt 0.100523 0.378761
vt 0.100523 0.378761
vt 0.100523 0.378761
vt 0.100523 0.378761
vt 0.100523 0.378761
vt 0.100523 0.378761
vt 0.100523 0.378761
vt 0.103009 0.329029
vt 0.103009 0.329029
vt 0.103009 0.329029
vt 0.103009 0.329029
vt 0.100523 0.378761
vt 0.100523 0.378761
vt 0.112127 0.377103
vt 0.112127 0.377103
vt 0.112127 0.377103
vt 0.112127 0.377103
vt 0.100523 0.378761
vt 0.100523 0.378761
vt 0.100523 0.378761
vt 0.100523 0.378761
vt 0.100523 0.378761
vt 0.111298 0.379589
vt 0.111298 0.379589
vt 0.111298 0.379589
vt 0.111298 0.379589
vt 0.100523 0.378761
vt 0.100523 0.378761
vt 0.100523 0.378761
vt 0.100523 0.378761
vt 0.100523 0.378761
vt 0.100523 0.378761
vt 0.100523 0.378761
vt 0.100523 0.378761
vt 0.100523 0.327371
vt 0.100523 0.327371
vt 0.100523 0.327371
vt 0.100523 0.327371
vt 0.100523 0.327371
vt 0.100523 0.327371
vt 0.100523 0.327371
vt 0.100523 0.327371
vt 0.100523 0.327371
vt 0.100523 0.327371
vt 0.100523 0.327371
vt 0.100523 0.327371
vt 0.100523 0.327371
vt 0.100523 0.327371
vt 0.100523 0.327371
vt 0.100523 0.327371
vt 0.100523 0.378761
vt 0.100523 0.378761
vt 0.100523 0.378761
vt 0.100523 0.378761
vt 0.100523 0.378761
vt 0.100523 0.378761
vt 0.100523 0.378761
vt 0.100523 0.378761
vt 0.100523 0.378761
vt 0.100523 0.378761
vt 0.100523 0.378761
vt 0.100523 0.378761
vt 0.111298 0.378761
vt 0.111298 0.378761
vt 0.111298 0.378761
vt 0.111298 0.378761
vt 0.111298 0.378761
vt 0.111298 0.378761
vt 0.111298 0.378761
vt 0.111298 0.378761
vt 0.111298 0.378761
vt 0.111298 0.378761
vt 0.111298 0.378761
vt 0.111298 0.378761
vt 0.111298 0.378761
vt 0.111298 0.378761
vt 0.111298 0.378761
vt 0.006032 0.448385
vt 0.006032 0.448385
vt 0.006032 0.448385
vt 0.006032 0.448385
vt 0.111298 0.378761
vt 0.111298 0.378761
vt 0.111298 0.378761
vt 0.111298 0.378761
vt 0.111298 0.378761
vt 0.111298 0.378761
vt 0.111298 0.378761
vt 0.111298 0.378761
vt 0.111298 0.378761
vt 0.006032 0.448385
vt 0.006032 0.448385
vt 0.006032 0.448385
vt 0.006032 0.448385
vt 0.006032 0.448385
vt 0.006032 0.448385
vt 0.006032 0.448385
vt 0.006032 0.448385
vt 0.100523 0.378761
vt 0.100523 0.378761
vt 0.100523 0.378761
vt 0.100523 0.378761
vt 0.100523 0.378761
vt 0.100523 0.378761
vt 0.100523 0.378761
vt 0.100523 0.378761
vt 0.100523 0.378761
vt 0.100523 0.378761
vt 0.100523 0.378761
vt 0.100523 0.378761
vt 0.100523 0.378761
vt 0.100523 0.378761
vt 0.100523 0.378761
vt 0.100523 0.378761
vt 0.100523 0.378761
vt 0.112127 0.377103
vt 0.112127 0.377103
vt 0.112127 0.377103
vt 0.112127 0.377103
vn 0.000000 -0.722604 0.691262
vn 0.000000 -0.722604 0.691262
vn 0.000000 -0.722604 0.691262
vn 0.000000 -0.722604 0.691262
vn 0.000000 1.000000 0.000000
vn 0.000000 1.000000 0.000000
vn 0.000000 1.000000 0.000000
vn 0.000000 1.000000 0.000000
vn 0.000000 -0.722606 -0.691260
vn 0.000000 -0.722606 -0.691260
vn 0.000000 -0.722606 -0.691260
vn 0.000000 -0.722606 -0.691260
vn 0.000000 -1.000000 0.000000
vn 0.000000 -1.000000 0.000000
vn 0.000000 -1.000000 0.000000
vn 0.000000 -1.000000 0.000000
vn 0.705941 -0.708270 0.000000
vn 0.705941 -0.708270 0.000000
vn 0.705941 -0.708270 0.000000
vn 0.705941 -0.708270 0.000000
vn -0.705945 -0.708267 0.000000
vn -0.705945 -0.708267 0.000000
vn -0.705945 -0.708267 0.000000
vn -0.705945 -0.708267 0.000000
vn -0.788588 0.614923 0.000000
vn -0.788588 0.614923 0.000000
vn -0.788588 0.614923 0.000000
vn -0.788588 0.614923 0.000000
vn 0.000000 0.630571 0.776131
vn 0.000000 0.630571 0.776131
vn 0.000000 0.630571 0.776131
vn 0.000000 0.630571 0.776131
vn 0.788585 0.614926 0.000000
vn 0.788584 0.614926 0.000000
vn 0.788585 0.614926 0.000000
vn 0.788585 0.614926 0.000000
vn 0.000000 0.630577 -0.776127
vn 0.000000 0.630577 -0.776127
vn 0.000000 0.630577 -0.776127
vn 0.000000 0.630577 -0.776127
vn -1.000000 0.000000 0.000000
vn -1.000000 0.000000 0.000000
vn -1.000000 0.000000 0.000000
vn -1.000000 0.000000 0.000000
vn 0.000000 -1.000000 0.000000
vn 0.000000 -1.000000 0.000000
vn 0.000000 -1.000000 0.000000
vn 0.000000 -1.000000 0.000000
vn 1.000000 0.000000 0.000000
vn 1.000000 0.000000 0.000000
vn 1.000000 0.000000 0.000000
vn 1.000000 0.000000 0.000000
vn 0.000000 0.000000 -1.000000
vn 0.000000 0.000000 -1.000000
vn 0.000000 0.000000 -1.000000
vn 0.000000 0.000000 -1.000000
vn 0.000000 0.000000 1.000000
vn 0.000000 0.000000 1.000000
vn 0.000000 0.000000 1.000000
vn 0.000000 0.000000 1.000000
vn -1.000000 0.000000 0.000000
vn -1.000000 0.000000 0.000000
vn -1.000000 0.000000 0.000000
vn -1.000000 0.000000 0.000000
vn 0.000000 0.000000 -1.000000
vn 0.000000 0.000000 -1.000000
vn 0.000000 0.000000 -1.000000
vn 0.000000 0.000000 -1.000000
vn 1.000000 0.000000 0.000000
vn 1.000000 0.000000 0.000000
vn 1.000000 0.000000 0.000000
vn 1.000000 0.000000 0.000000
vn 0.000000 0.658150 0.752887
vn 0.000000 0.658150 0.752887
vn 0.000000 0.658150 0.752887
vn 0.000000 0.658150 0.752887
vn -0.766080 0.642746 0.000000
vn -0.766080 0.642746 0.000000
vn -0.766080 0.642746 0.000000
vn -0.766080 0.642746 0.000000
vn 0.000000 0.658151 -0.752886
vn 0.000000 0.658151 -0.752886
vn 0.000000 0.658151 -0.752886
vn 0.000000 0.658151 -0.752886
vn 0.766080 0.642746 0.000000
vn 0.766080 0.642746 0.000000
vn 0.766080 0.642746 0.000000
vn 0.766080 0.642746 0.000000
vn -1.000000 0.000000 0.000000
vn -1.000000 0.000000 0.000000
vn -1.000000 0.000000 0.000000
vn -1.000000 0.000000 0.000000
vn 0.000000 0.000000 1.000000
vn 0.000000 0.000000 1.000000
vn 0.000000 0.000000 1.000000
vn 0.000000 0.000000 1.000000
vn 1.000000 0.000000 0.000000
vn 1.000000 0.000000 0.000000
vn 1.000000 0.000000 0.000000
vn 1.000000 0.000000 0.000000
vn 0.000000 0.000000 -1.000000
vn 0.000000 0.000000 -1.000000
vn 0.000000 0.000000 -1.000000
vn 0.000000 0.000000 -1.000000
vn 0.000000 0.000000 1.000000
vn 0.000000 0.000000 1.000000
vn 0.000000 0.000000 1.000000
vn 0.000000 0.000000 1.000000
vn 0.000000 0.000000 1.000000
vn 0.000000 0.000000 1.000000
vn 0.000000 0.000000 1.000000
vn 0.000000 0.000000 1.000000
vn 0.000000 0.000000 1.000000
vn 0.000000 0.000000 1.000000
vn 0.000000 0.000000 1.000000
vn -0.000000 0.000000 1.000000
vn -0.000000 0.000000 1.000000
vn -0.000000 0.000000 1.000000
vn -0.000000 0.000000 1.000000
vn 0.000000 1.000000 0.000000
vn 0.000000 1.000000 0.000000
vn 0.000000 1.000000 0.000000
vn 0.000000 1.000000 0.000000
vn -1.000000 -0.000000 0.000000
vn -1.000000 -0.000000 0.000000
vn -1.000000 -0.000000 0.000000
vn -1.000000 -0.000000 0.000000
vn 0.000000 -1.000000 0.000000
vn 0.000000 -1.000000 0.000000
vn 0.000000 -1.000000 0.000000
vn 0.000000 -1.000000 0.000000
vn 1.000000 -0.000000 0.000000
vn 1.000000 -0.000000 0.000000
vn 1.000000 -0.000000 0.000000
vn 1.000000 -0.000000 0.000000
vn 0.000000 0.000000 1.000000
vn 0.000000 0.000000 1.000000
vn 0.000000 0.000000 1.000000
vn 0.000000 0.000000 1.000000
vn 0.000000 0.000000 1.000000
vn 0.000000 0.000000 1.000000
vn 0.000000 0.000000 1.000000
vn 0.000000 0.000000 1.000000
vn 0.000000 0.000000 1.000000
vn 0.000000 0.000000 1.000000
vn 0.000000 0.000000 1.000000
vn 0.000000 0.000000 1.000000
vn 0.000000 0.000000 1.000000
vn 0.000000 0.000000 1.000000
vn 0.000000 0.000000 1.000000
vn 0.000000 0.000000 1.000000
vn 0.000000 0.000000 1.000000
vn 0.000000 0.000000 1.000000
vn 0.000000 0.000000 1.000000
vn 0.000001 0.000000 1.000000
vn 0.000001 0.000000 1.000000
vn 0.000001 0.000000 1.000000
vn 0.000001 0.000000 1.000000
vn 0.000000 0.000000 1.000000
vn 0.000000 0.000000 1.000000
vn 0.000000 0.000000 1.000000
vn 0.000000 0.000000 1.000000
vn -0.000001 0.000000 1.000000
vn -0.000001 0.000000 1.000000
vn -0.000001 0.000000 1.000000
vn -0.000001 0.000000 1.000000
vn 0.000000 1.000000 0.000001
vn 0.000000 1.000000 0.000001
vn 0.000000 1.000000 0.000001
vn 0.000000 1.000000 0.000001
vn 0.000000 1.000000 0.000000
vn 0.000000 1.000000 0.000000
vn 0.000000 1.000000 0.000000
vn 0.000000 1.000000 0.000000
vn 0.000000 1.000000 -0.000000
vn 0.000000 1.000000 -0.000000
vn 0.000000 1.000000 -0.000000
vn 0.000000 1.000000 -0.000000
vn 0.000000 1.000000 0.000000
vn 0.000000 1.000000 0.000000
vn 0.000000 1.000000 0.000000
vn 0.000000 1.000000 0.000000
vn 0.000000 0.168419 -0.985716
vn 0.000000 0.168419 -0.985716
vn 0.000000 0.168419 -0.985716
vn 0.000000 0.168419 -0.985716
vn -0.903268 0.429077 0.000000
vn -0.903268 0.429077 0.000000
vn -0.903268 0.429077 0.000000
vn -0.903268 0.429077 0.000000
vn 0.000000 0.168424 0.985715
vn 0.000000 0.168424 0.985715
vn 0.000000 0.168424 0.985715
vn 0.000000 0.168424 0.985715
vn 0.903268 0.429077 0.000000
vn 0.903268 0.429077 0.000000
vn 0.903268 0.429077 0.000000
vn 0.903268 0.429077 0.000000
vn 0.000000 -0.190313 0.981724
vn 0.000000 -0.190313 0.981724
vn 0.000000 -0.190313 0.981724
vn 0.000000 -0.190313 0.981724
vn 0.000000 -0.190313 0.981724
vn 0.000000 -0.190313 0.981724
vn 0.000000 -0.190313 0.981724
vn 0.000000 -0.190313 0.981724
vn 0.000000 -0.190313 0.981724
vn 0.000000 -0.190313 0.981724
vn 0.000000 -0.190313 0.981723
vn 0.000000 -0.190313 0.981723
vn -0.000000 -0.190313 0.981724
vn -0.000000 -0.190313 0.981724
vn -0.000000 -0.190313 0.981724
vn -0.000000 -0.190313 0.981724
vn 0.000000 -1.000000 0.000000
vn 0.000000 -1.000000 0.000000
vn 0.000000 -1.000000 0.000000
vn 0.000000 -1.000000 0.000000
vn 1.000000 0.000000 0.000000
vn 1.000000 0.000000 0.000000
vn 1.000000 0.000000 0.000000
vn 1.000000 0.000000 0.000000
vn 0.000000 1.000000 0.000000
vn 0.000000 1.000000 0.000000
vn 0.000000 1.000000 0.000000
vn 0.000000 1.000000 0.000000
vn -1.000000 0.000000 0.000000
vn -1.000000 0.000000 0.000000
vn -1.000000 0.000000 0.000000
vn -1.000000 0.000000 0.000000
vn 0.000000 0.000000 1.000000
vn 0.000000 0.000000 1.000000
vn 0.000000 0.000000 1.000000
vn 0.000000 0.000000 1.000000
vn 0.000001 0.000000 1.000000
vn 0.000001 0.000000 1.000000
vn 0.000001 0.000000 1.000000
vn 0.000001 0.000000 1.000000
vn 0.000000 0.000000 1.000000
vn 0.000000 0.000000 1.000000
vn 0.000000 0.000000 1.000000
vn 0.000000 0.000000 1.000000
vn -0.000001 0.000000 1.000000
vn -0.000001 0.000000 1.000000
vn -0.000001 0.000000 1.000000
vn -0.000001 0.000000 1.000000
vn 0.000000 -1.000000 0.000000
vn 0.000000 -1.000000 0.000000
vn 0.000000 -1.000000 0.000000
vn 0.000000 -1.000000 0.000000
vn 1.000000 0.000000 0.000000
vn 1.000000 0.000000 0.000000
vn 1.000000 0.000000 0.000000
vn 1.000000 0.000000 0.000000
vn 0.000000 1.000000 0.000000
vn 0.000000 1.000000 0.000000
vn 0.000000 1.000000 0.000000
vn 0.000000 1.000000 0.000000
vn -1.000000 0.000000 0.000000
vn -1.000000 0.000000 0.000000
vn -1.000000 0.000000 0.000000
vn -1.000000 0.000000 0.000000
vn 0.000000 0.000000 -1.000000
vn 0.000000 0.000000 -1.000000
vn 0.000000 0.000000 -1.000000
vn 0.000000 0.000000 -1.000000
vn 1.000000 0.000000 0.000000
vn 1.000000 0.000000 0.000000
vn 1.000000 0.000000 0.000000
vn 1.000000 0.000000 0.000000
vn 0.000000 0.000000 1.000000
vn 0.000000 0.000000 1.000000
vn 0.000000 0.000000 1.000000
vn 0.000000 0.000000 1.000000
vn -1.000000 0.000000 0.000000
vn -1.000000 0.000000 0.000000
vn -1.000000 0.000000 0.000000
vn -1.000000 0.000000 0.000000
vn 0.000000 1.000000 0.000000
vn 0.000000 1.000000 0.000000
vn 0.000000 1.000000 0.000000
vn 0.000000 1.000000 0.000000
vn 0.000000 1.000000 0.000000
vn 0.000000 1.000000 0.000000
vn 0.000000 1.000000 0.000000
vn 0.000000 1.000000 0.000000
vn 0.000000 1.000000 0.000000
vn 0.000000 1.000000 0.000000
vn 0.000000 1.000000 0.000000
vn 0.000000 1.000000 0.000000
vn 0.000000 1.000000 0.000000
vn 0.000000 1.000000 0.000000
vn 0.000000 1.000000 0.000000
vn 0.000000 1.000000 0.000000
vn 0.000000 0.000000 -1.000000
vn 0.000000 0.000000 -1.000000
vn 0.000000 0.000000 -1.000000
vn 0.000000 0.000000 -1.000000
vn -1.000000 0.000000 0.000000
vn -1.000000 0.000000 0.000000
vn -1.000000 0.000000 0.000000
vn -1.000000 0.000000 0.000000
vn 0.000000 0.000000 1.000000
vn 0.000000 0.000000 1.000000
vn 0.000000 0.000000 1.000000
vn 0.000000 0.000000 1.000000
vn 1.000000 0.000000 0.000000
vn 1.000000 0.000000 0.000000
vn 1.000000 0.000000 0.000000
vn 1.000000 0.000000 0.000000
vn 0.000000 -1.000000 0.000005
vn 0.000000 -1.000000 0.000005
vn 0.000000 -1.000000 0.000005
vn 0.000000 -1.000000 0.000005
vn 0.000000 -1.000000 0.000000
vn 0.000000 -1.000000 0.000000
vn 0.000000 -1.000000 0.000000
vn 0.000000 -1.000000 0.000000
vn 0.000000 -1.000000 -0.000005
vn 0.000000 -1.000000 -0.000005
vn 0.000000 -1.000000 -0.000005
vn 0.000000 -1.000000 -0.000005
vn 0.000000 -1.000000 0.000000
vn 0.000000 -1.000000 0.000000
vn 0.000000 -1.000000 0.000000
vn 0.000000 -1.000000 0.000000
vn 0.000000 0.000000 -1.000000
vn 0.000000 0.000000 -1.000000
vn 0.000000 0.000000 -1.000000
vn 0.000000 0.000000 -1.000000
vn -1.000000 0.000000 0.000000
vn -1.000000 0.000000 0.000000
vn -1.000000 0.000000 0.000000
vn -1.000000 0.000000 0.000000
vn 0.000000 0.000000 1.000000
vn 0.000000 0.000000 1.000000
vn 0.000000 0.000000 1.000000
vn 0.000000 0.000000 1.000000
vn 1.000000 0.000000 0.000000
vn 1.000000 0.000000 0.000000
vn 1.000000 0.000000 0.000000
vn 1.000000 0.000000 0.000000
vn 0.000000 0.000000 1.000000
vn 0.000000 0.000000 1.000000
vn 0.000000 0.000000 1.000000
vn 0.000000 0.000000 1.000000
vn 0.000000 0.000000 1.000000
vn 0.000000 0.000000 1.000000
vn 0.000000 0.000000 1.000000
vn 0.000000 0.000000 1.000000
vn 0.000000 0.000000 1.000000
vn 0.000000 0.000000 1.000000
vn 0.000000 0.000000 1.000000
vn 0.000000 0.000000 1.000000
vn 0.000000 0.000000 1.000000
vn 0.000000 0.000000 1.000000
vn -1.000000 0.000000 0.000000
vn -1.000000 0.000000 0.000000
vn -1.000000 0.000000 0.000000
vn -1.000000 0.000000 0.000000
vn 0.000000 -0.937228 0.348719
vn 0.000000 -0.937228 0.348719
vn 0.000000 -0.937228 0.348719
vn 0.000000 -0.937228 0.348719
vn 1.000000 0.000000 0.000000
vn 1.000000 0.000000 0.000000
vn 1.000000 0.000000 0.000000
vn 1.000000 0.000000 0.000000
vn 0.000000 1.000000 0.000000
vn 0.000000 1.000000 0.000000
vn 0.000000 1.000000 0.000000
vn 0.000000 1.000000 0.000000
vn 0.000000 0.000000 1.000000
vn 0.000000 0.000000 1.000000
vn 0.000000 0.000000 1.000000
vn 0.000000 0.000000 1.000000
vn 0.000000 0.000000 1.000000
vn 0.000000 0.000000 1.000000
vn 0.000000 0.000000 1.000000
vn 0.000000 0.000000 1.000000
vn 0.000000 0.000000 1.000000
vn 0.000000 0.000000 1.000000
vn 0.000000 0.000000 1.000000
vn 0.000000 0.000000 1.000000
vn 0.000000 0.000000 1.000000
vn 0.000000 0.000000 1.000000
vn 0.000000 0.000000 1.000000
vn 0.000000 0.000000 1.000000
vn 0.000000 0.000000 -1.000000
vn 0.000000 0.000000 -1.000000
vn 0.000000 0.000000 -1.000000
vn 0.000000 0.000000 -1.000000
vn -0.000000 0.000000 -1.000000
vn -0.000000 0.000000 -1.000000
vn -0.000000 0.000000 -1.000000
vn -0.000000 0.000000 -1.000000
vn 0.000000 0.000000 -1.000000
vn 0.000000 0.000000 -1.000000
vn 0.000000 0.000000 -1.000000
vn 0.000000 0.000000 -1.000000
vn 0.000000 0.000000 -1.000000
vn 0.000000 0.000000 -1.000000
vn 0.000000 0.000000 -1.000000
vn 0.000000 0.000000 -1.000000
vn 0.000000 1.000000 0.000000
vn 0.000000 1.000000 0.000000
vn 0.000000 1.000000 0.000000
vn 0.000000 1.000000 0.000000
vn 1.000000 0.000000 0.000000
vn 1.000000 0.000000 0.000000
vn 1.000000 0.000000 0.000000
vn 1.000000 0.000000 0.000000
vn 0.000000 -1.000000 0.000000
vn 0.000000 -1.000000 0.000000
vn 0.000000 -1.000000 0.000000
vn 0.000000 -1.000000 0.000000
vn -1.000000 0.000000 0.000000
vn -1.000000 0.000000 0.000000
vn -1.000000 0.000000 0.000000
vn -1.000000 0.000000 0.000000
s off
f 10/1/1 11/2/2 17/3/3 18/4/4
f 3/5/5 4/6/6 6/7/7 5/8/8
f 19/9/9 20/10/10 12/11/11 9/12/12
f 7/13/13 8/14/14 2/15/15 1/16/16
f 11/2/17 12/17/18 20/18/19 17/3/20
f 9/19/21 10/1/22 18/4/23 19/20/24
f 13/21/25 14/22/26 10/1/27 9/19/28
f 14/22/29 15/23/30 11/2/31 10/1/32
f 15/23/33 16/24/34 12/17/35 11/2/36
f 9/12/37 12/11/38 16/25/39 13/26/40
f 25/27/41 26/28/42 14/22/43 13/21/44
f 69/29/45 70/30/46 71/31/47 72/32/48
f 27/33/49 28/34/50 16/24/51 15/23/52
f 13/26/53 16/25/54 28/35/55 25/36/56
f 18/4/57 17/3/58 21/37/59 22/38/60
f 19/20/61 18/4/62 22/38/63 23/39/64
f 23/40/65 24/41/66 20/10/67 19/9/68
f 17/3/69 20/18/70 24/42/71 21/37/72
f 22/38/73 21/37/74 4/6/75 3/5/76
f 23/39/77 22/38/78 3/5/79 5/43/80
f 5/8/81 6/7/82 24/41/83 23/40/84
f 21/37/85 24/42/86 6/44/87 4/6/88
f 7/45/89 1/46/90 26/28/91 25/27/92
f 95/47/93 96/48/94 97/49/95 98/50/96
f 2/51/97 8/52/98 28/34/99 27/33/100
f 104/53/101 103/54/102 105/55/103 106/56/104
f 26/28/105 89/57/106 29/58/107
f 27/33/108 15/23/109 31/59/110 30/60/111
f 15/23/112 14/22/113 32/61/114 31/59/115
f 14/22/116 26/28/117 29/58/118 32/61/119
f 49/62/120 50/63/121 51/64/122 52/65/123
f 30/60/124 31/59/125 35/66/126 34/67/127
f 31/59/128 32/61/129 36/68/130 35/66/131
f 32/61/132 29/58/133 33/69/134 36/68/135
f 1/46/136 2/51/137 38/70/138 37/71/139
f 2/51/140 27/33/141 39/72/142 38/70/143
f 40/73/144 89/57/145 26/28/146
f 26/28/147 1/46/148 37/71/149 40/73/150
f 37/74/151 38/75/152 42/76/153 41/77/154
f 38/78/155 39/79/156 43/80/157 42/81/158
f 39/82/159 40/83/160 44/84/161 43/85/162
f 40/86/163 37/87/164 41/88/165 44/89/166
f 29/58/167 30/60/168 46/90/169 45/91/170
f 30/60/171 34/67/172 47/92/173 46/90/174
f 34/67/175 33/69/176 48/93/177 47/92/178
f 33/69/179 29/58/180 45/91/181 48/93/182
f 45/91/183 46/90/184 50/94/185 49/95/186
f 46/90/187 47/92/188 51/96/189 50/94/190
f 47/92/191 48/93/192 52/97/193 51/96/194
f 48/93/195 45/91/196 49/95/197 52/97/198
f 33/69/199 34/67/200 54/98/201 53/99/202
f 34/67/203 35/66/204 55/100/205 54/98/206
f 35/66/207 36/68/208 56/101/209 55/100/210
f 36/68/211 33/69/212 53/99/213 56/101/214
f 53/102/215 54/103/216 58/104/217 57/105/218
f 54/103/219 55/106/220 59/107/221 58/104/222
f 55/106/223 56/108/224 60/109/225 59/107/226
f 56/108/227 53/102/228 57/105/229 60/109/230
f 57/105/231 58/104/232 62/110/233 61/111/234
f 58/104/235 59/107/236 63/112/237 62/110/238
f 59/107/239 60/109/240 64/113/241 63/112/242
f 60/109/243 57/105/244 61/111/245 64/113/246
f 61/111/247 62/110/248 66/114/249 65/115/250
f 62/110/251 63/112/252 67/116/253 66/114/254
f 86/117/255 85/118/256 87/119/257 88/120/258
f 64/113/259 61/111/260 65/115/261 68/121/262
f 65/115/263 66/114/264 70/30/265 69/29/266
f 66/114/267 67/116/268 71/31/269 70/30/270
f 67/116/271 68/121/272 72/32/273 71/31/274
f 68/121/275 65/115/276 69/29/277 72/32/278
f 63/112/279 64/113/280 73/122/281 74/123/282
f 64/113/283 68/121/284 75/124/285 73/122/286
f 68/121/287 67/116/288 76/125/289 75/124/290
f 67/116/291 63/112/292 74/123/293 76/125/294
f 74/123/295 73/122/296 77/126/297 78/127/298
f 73/122/299 75/124/300 79/128/301 77/126/302
f 75/124/303 76/125/304 80/129/305 79/128/306
f 76/125/307 74/123/308 78/127/309 80/129/310
f 78/130/311 77/131/312 81/132/313 82/133/314
f 77/131/315 79/134/316 83/135/317 81/132/318
f 79/134/319 80/136/320 84/137/321 83/135/322
f 80/136/323 78/130/324 82/133/325 84/137/326
f 82/133/327 81/132/328 85/118/329 86/117/330
f 81/132/331 83/135/332 87/119/333 85/118/334
f 83/135/335 84/137/336 88/120/337 87/119/338
f 84/137/339 82/133/340 86/117/341 88/120/342
f 39/72/343 90/138/344 89/57/345 40/73/346
f 92/139/347 91/140/348 93/141/349 94/142/350
f 27/33/351 90/138/352 39/72/353
f 30/60/354 90/138/355 27/33/356
f 29/58/357 89/57/358 91/140/359 92/139/360
f 89/57/361 90/138/362 93/141/363 91/140/364
f 90/138/365 30/60/366 94/142/367 93/141/368
f 30/60/369 29/58/370 92/139/371 94/142/372
f 41/143/373 42/144/374 96/145/375 95/146/376
f 42/144/377 43/147/378 97/148/379 96/145/380
f 43/147/381 44/149/382 98/150/383 97/148/384
f 44/149/385 41/143/386 95/146/387 98/150/388
f 25/36/389 28/35/390 99/151/391 100/152/392
f 28/35/393 8/14/394 101/153/395 99/151/396
f 8/14/397 7/13/398 102/154/399 101/153/400
f 7/13/401 25/36/402 100/152/403 102/154/404
f 100/155/405 99/156/406 103/54/407 104/53/408
f 99/156/409 101/157/410 105/55/411 103/54/412
f 101/157/413 102/158/414 106/56/415 105/55/416
f 102/158/417 100/155/418 104/53/419 106/56/420
