# This file uses centimeters as units for non-parametric coordinates.

v 0.012457 -0.113964 0.012457
v 0.017617 -0.113964 0.000000
v 0.012457 -0.113964 -0.012457
v 0.000000 -0.113964 -0.017617
v -0.012457 -0.113964 -0.012457
v -0.017617 -0.113964 0.000000
v -0.012457 -0.113964 0.012457
v 0.000000 -0.113964 0.017617
v 0.012457 -0.053968 0.012457
v 0.017617 -0.053968 0.000000
v 0.012457 -0.053968 -0.012457
v 0.000000 -0.053968 -0.017617
v -0.012457 -0.053968 -0.012457
v -0.017617 -0.053968 0.000000
v -0.012457 -0.053968 0.012457
v 0.000000 -0.053968 0.017617
v 0.009745 -0.113964 0.009745
v 0.013781 -0.113964 0.000000
v 0.009745 -0.113964 -0.009745
v 0.000000 -0.113964 -0.013781
v -0.009745 -0.113964 -0.009745
v -0.013781 -0.113964 0.000000
v -0.009745 -0.113964 0.009745
v 0.000000 -0.113964 0.013781
v 0.009745 -0.129080 0.009745
v 0.013781 -0.129080 0.000000
v 0.000000 -0.129080 0.000000
v 0.009745 -0.129080 -0.009745
v 0.000000 -0.129080 -0.013781
v -0.009745 -0.129080 -0.009745
v -0.013781 -0.129080 0.000000
v -0.009745 -0.129080 0.009745
v 0.000000 -0.129080 0.013781
v 0.010455 -0.020206 0.010455
v 0.014786 -0.020206 0.000000
v 0.010455 -0.020206 -0.010455
v 0.000000 -0.020206 -0.014786
v -0.010455 -0.020206 -0.010455
v -0.014786 -0.020206 0.000000
v -0.010455 -0.020206 0.010455
v 0.000000 -0.020206 0.014786
v 0.019928 -0.009788 0.020416
v 0.019928 -0.009788 0.000000
v 0.019928 -0.009788 -0.020416
v 0.000000 -0.009788 -0.028872
v -0.019928 -0.009788 -0.020416
v -0.019928 -0.009788 0.000000
v -0.019928 -0.009788 0.020416
v 0.000000 -0.009788 0.028872
v 0.019928 0.000000 0.019672
v 0.019928 0.000000 0.000000
v 0.000000 0.000000 0.000000
v 0.019928 0.000000 -0.019672
v 0.000000 0.000000 -0.027821
v -0.019928 0.000000 -0.019672
v -0.019928 0.000000 0.000000
v -0.019928 0.000000 0.019672
v 0.000000 0.000000 0.027821
vt 0.495314 0.114533
vt 0.495314 0.114533
vt 0.495314 0.114533
vt 0.495314 0.114533
vt 0.495314 0.114533
vt 0.495314 0.114533
vt 0.495314 0.114533
vt 0.495314 0.114533
vt 0.495314 0.114533
vt 0.495314 0.114533
vt 0.495314 0.114533
vt 0.495314 0.114533
vt 0.495314 0.114533
vt 0.495314 0.114533
vt 0.495314 0.114533
vt 0.495314 0.114533
vt 0.495314 0.114533
vt 0.495314 0.114533
vt 0.495314 0.114533
vt 0.495314 0.114533
vt 0.495314 0.114533
vt 0.495314 0.114533
vt 0.495314 0.114533
vt 0.495314 0.114533
vt 0.495314 0.114533
vt 0.495314 0.114533
vt 0.495314 0.114533
vt 0.495314 0.114533
vt 0.495314 0.114533
vt 0.495314 0.114533
vt 0.495314 0.114533
vt 0.495314 0.114533
vt 0.495314 0.114533
vt 0.495314 0.114533
vt 0.495314 0.114533
vt 0.495314 0.114533
vt 0.495314 0.114533
vt 0.495314 0.114533
vt 0.495314 0.114533
vt 0.495314 0.114533
vt 0.495314 0.114533
vt 0.495314 0.114533
vt 0.495314 0.114533
vt 0.495314 0.114533
vt 0.495314 0.114533
vt 0.495314 0.114533
vt 0.495314 0.114533
vt 0.495314 0.114533
vt 0.495314 0.114533
vt 0.495314 0.114533
vt 0.495314 0.114533
vt 0.495314 0.114533
vt 0.495314 0.114533
vt 0.495314 0.114533
vt 0.495314 0.114533
vt 0.495314 0.114533
vt 0.495314 0.114533
vt 0.495314 0.114533
vt 0.495314 0.114533
vt 0.495314 0.114533
vt 0.495314 0.114533
vt 0.495314 0.114533
vt 0.495314 0.114533
vt 0.495314 0.114533
vt 0.495314 0.114533
vt 0.495314 0.114533
vt 0.495314 0.114533
vt 0.495314 0.114533
vt 0.495314 0.114533
vt 0.495314 0.114533
vt 0.495314 0.114533
vt 0.495314 0.114533
vt 0.495314 0.114533
vt 0.495314 0.114533
vt 0.495314 0.114533
vt 0.495314 0.114533
vn 0.923879 0.000000 0.382686
vn 0.923879 0.000000 0.382686
vn 0.923879 0.000000 0.382686
vn 0.923879 0.000000 0.382686
vn 0.923878 0.000000 -0.382686
vn 0.923878 0.000000 -0.382686
vn 0.923878 0.000000 -0.382686
vn 0.923878 0.000000 -0.382686
vn 0.382684 0.000000 -0.923879
vn 0.382684 0.000000 -0.923879
vn 0.382684 0.000000 -0.923879
vn 0.382684 0.000000 -0.923879
vn -0.382684 0.000000 -0.923879
vn -0.382684 0.000000 -0.923879
vn -0.382684 0.000000 -0.923879
vn -0.382684 0.000000 -0.923879
vn -0.923879 0.000000 -0.382684
vn -0.923879 0.000000 -0.382684
vn -0.923879 0.000000 -0.382684
vn -0.923879 0.000000 -0.382684
vn -0.923880 0.000000 0.382683
vn -0.923880 0.000000 0.382683
vn -0.923880 0.000000 0.382683
vn -0.923880 0.000000 0.382683
vn -0.382683 0.000000 0.923880
vn -0.382683 0.000000 0.923880
vn -0.382683 0.000000 0.923880
vn -0.382683 0.000000 0.923880
vn 0.382683 0.000000 0.923880
vn 0.382683 0.000000 0.923880
vn 0.382683 0.000000 0.923880
vn 0.382683 0.000000 0.923880
vn 0.000000 -1.000000 0.000001
vn 0.000000 -1.000000 0.000000
vn 0.000000 -1.000000 0.000000
vn 0.000000 -1.000000 0.000001
vn 0.000000 -1.000000 0.000001
vn 0.000000 -1.000000 0.000000
vn 0.000000 -1.000000 0.000000
vn 0.000000 -1.000000 0.000001
vn 0.000000 -1.000000 0.000000
vn 0.000000 -1.000000 0.000000
vn 0.000000 -1.000000 0.000000
vn 0.000000 -1.000000 0.000000
vn 0.000000 -1.000000 -0.000001
vn 0.000000 -1.000000 0.000000
vn 0.000000 -1.000000 0.000000
vn 0.000000 -1.000000 -0.000001
vn 0.000000 -1.000000 -0.000001
vn 0.000000 -1.000000 0.000000
vn 0.000000 -1.000000 0.000000
vn 0.000000 -1.000000 -0.000001
vn 0.000000 -1.000000 0.000000
vn 0.000000 -1.000000 0.000000
vn 0.000000 -1.000000 0.000000
vn 0.000000 -1.000000 0.000000
vn 0.000000 1.000000 0.000000
vn 0.000000 1.000000 0.000000
vn 0.000000 1.000000 0.000000
vn 0.000000 1.000000 0.000000
vn 0.000000 1.000000 0.000000
vn 0.000000 1.000000 0.000000
vn 0.000000 1.000000 0.000000
vn 0.000000 1.000000 0.000000
vn 0.000000 1.000000 0.000000
vn 0.000000 1.000000 0.000000
vn 0.000000 1.000000 0.000000
vn 0.000000 1.000000 0.000000
vn 0.000000 1.000000 0.000000
vn 0.000000 1.000000 0.000000
vn 0.000000 1.000000 0.000000
vn 0.000000 1.000000 0.000000
vn 0.000000 1.000000 0.000000
vn 0.000000 1.000000 0.000000
vn 0.000000 1.000000 0.000000
vn 0.000000 1.000000 0.000000
vn 0.000000 1.000000 0.000000
vn 0.000000 1.000000 0.000000
vn 0.000000 1.000000 0.000000
vn 0.000000 1.000000 0.000000
vn 0.000000 -1.000000 -0.000001
vn 0.000000 -1.000000 -0.000001
vn 0.000000 -1.000000 -0.000001
vn 0.000000 -1.000000 -0.000001
vn 0.000000 -1.000000 0.000000
vn 0.000000 -1.000000 -0.000001
vn 0.000000 -1.000000 -0.000001
vn 0.000000 -1.000000 0.000000
vn 0.000000 -1.000000 0.000000
vn 0.000000 -1.000000 0.000000
vn 0.000000 -1.000000 0.000000
vn 0.000000 -1.000000 0.000000
vn 0.000000 -1.000000 0.000000
vn 0.000000 -1.000000 0.000000
vn 0.000000 -1.000000 0.000000
vn 0.000000 -1.000000 0.000000
vn 0.000000 -1.000000 0.000000
vn 0.000000 -1.000000 0.000000
vn 0.000000 -1.000000 0.000000
vn 0.000000 -1.000000 0.000000
vn 0.000000 -1.000000 0.000000
vn 0.000000 -1.000000 0.000000
vn 0.000000 -1.000000 0.000000
vn 0.000000 -1.000000 0.000000
vn 0.000000 -1.000000 0.000000
vn 0.000000 -1.000000 0.000000
vn 0.000000 -1.000000 0.000000
vn 0.000000 -1.000000 0.000000
vn 0.000000 -1.000000 -0.000001
vn 0.000000 -1.000000 0.000000
vn 0.000000 -1.000000 0.000000
vn 0.000000 -1.000000 -0.000001
vn 0.923880 0.000000 0.382682
vn 0.923880 0.000000 0.382682
vn 0.923880 0.000000 0.382682
vn 0.923880 0.000000 0.382682
vn 0.923880 0.000000 -0.382681
vn 0.923880 0.000000 -0.382681
vn 0.923880 0.000000 -0.382681
vn 0.923880 0.000000 -0.382681
vn 0.382682 0.000000 -0.923880
vn 0.382682 0.000000 -0.923880
vn 0.382682 0.000000 -0.923880
vn 0.382682 0.000000 -0.923880
vn -0.382682 0.000000 -0.923880
vn -0.382682 0.000000 -0.923880
vn -0.382682 0.000000 -0.923880
vn -0.382682 0.000000 -0.923880
vn -0.923880 0.000000 -0.382681
vn -0.923880 0.000000 -0.382681
vn -0.923880 0.000000 -0.382681
vn -0.923880 0.000000 -0.382681
vn -0.923880 0.000000 0.382682
vn -0.923880 0.000000 0.382682
vn -0.923880 0.000000 0.382682
vn -0.923880 0.000000 0.382682
vn -0.382684 0.000000 0.923879
vn -0.382684 0.000000 0.923879
vn -0.382684 0.000000 0.923879
vn -0.382684 0.000000 0.923879
vn 0.382684 0.000000 0.923879
vn 0.382684 0.000000 0.923879
vn 0.382684 0.000000 0.923879
vn 0.382684 0.000000 0.923879
vn 0.921119 0.077236 0.381543
vn 0.921119 0.077236 0.381543
vn 0.921119 0.077236 0.381543
vn 0.921119 0.077236 0.381543
vn 0.921119 0.077236 -0.381543
vn 0.921119 0.077236 -0.381543
vn 0.921119 0.077236 -0.381543
vn 0.921119 0.077236 -0.381543
vn 0.381541 0.077235 -0.921120
vn 0.381541 0.077235 -0.921120
vn 0.381541 0.077235 -0.921120
vn 0.381541 0.077235 -0.921120
vn -0.381541 0.077235 -0.921120
vn -0.381541 0.077235 -0.921120
vn -0.381541 0.077235 -0.921120
vn -0.381541 0.077235 -0.921120
vn -0.921120 0.077236 -0.381540
vn -0.921120 0.077236 -0.381540
vn -0.921120 0.077235 -0.381540
vn -0.921120 0.077236 -0.381540
vn -0.921120 0.077236 0.381540
vn -0.921120 0.077236 0.381540
vn -0.921120 0.077236 0.381540
vn -0.921120 0.077236 0.381540
vn -0.381540 0.077235 0.921120
vn -0.381540 0.077235 0.921120
vn -0.381540 0.077235 0.921120
vn -0.381540 0.077235 0.921120
vn 0.381540 0.077235 0.921120
vn 0.381540 0.077235 0.921120
vn 0.381540 0.077235 0.921120
vn 0.381540 0.077235 0.921120
vn 0.788005 -0.605664 0.110542
vn 0.788005 -0.605664 0.110542
vn 0.788005 -0.605664 0.110542
vn 0.788005 -0.605664 0.110542
vn 0.788005 -0.605664 -0.110542
vn 0.788005 -0.605664 -0.110542
vn 0.788005 -0.605664 -0.110542
vn 0.788005 -0.605664 -0.110542
vn 0.243480 -0.778478 -0.578524
vn 0.243480 -0.778478 -0.578524
vn 0.243480 -0.778478 -0.578524
vn 0.243480 -0.778478 -0.578524
vn -0.243480 -0.778478 -0.578524
vn -0.243480 -0.778478 -0.578524
vn -0.243480 -0.778478 -0.578524
vn -0.243480 -0.778478 -0.578524
vn -0.788006 -0.605663 -0.110541
vn -0.788006 -0.605663 -0.110541
vn -0.788006 -0.605663 -0.110541
vn -0.788006 -0.605663 -0.110541
vn -0.788006 -0.605663 0.110541
vn -0.788006 -0.605663 0.110541
vn -0.788006 -0.605663 0.110541
vn -0.788006 -0.605663 0.110541
vn -0.243480 -0.778478 0.578524
vn -0.243480 -0.778478 0.578524
vn -0.243480 -0.778478 0.578524
vn -0.243480 -0.778478 0.578524
vn 0.243479 -0.778478 0.578524
vn 0.243479 -0.778478 0.578524
vn 0.243479 -0.778478 0.578524
vn 0.243479 -0.778478 0.578524
vn 1.000000 0.000000 0.000000
vn 1.000000 0.000000 0.000000
vn 1.000000 0.000000 0.000000
vn 1.000000 0.000000 0.000000
vn 1.000000 0.000000 0.000000
vn 1.000000 0.000000 0.000000
vn 1.000000 0.000000 0.000000
vn 1.000000 0.000000 0.000000
vn 0.383208 0.084395 -0.919799
vn 0.383208 0.084395 -0.919799
vn 0.383208 0.084395 -0.919799
vn 0.383208 0.084395 -0.919799
vn -0.383208 0.084395 -0.919798
vn -0.383208 0.084395 -0.919798
vn -0.383208 0.084395 -0.919798
vn -0.383208 0.084395 -0.919798
vn -1.000000 -0.000000 0.000000
vn -1.000000 -0.000000 0.000000
vn -1.000000 -0.000000 0.000000
vn -1.000000 -0.000000 0.000000
vn -1.000000 -0.000000 0.000000
vn -1.000000 0.000000 0.000000
vn -1.000000 0.000000 0.000000
vn -1.000000 -0.000000 0.000000
vn -0.383207 0.084395 0.919799
vn -0.383207 0.084395 0.919799
vn -0.383207 0.084395 0.919799
vn -0.383207 0.084395 0.919799
vn 0.383207 0.084395 0.919799
vn 0.383207 0.084395 0.919799
vn 0.383207 0.084395 0.919799
vn 0.383207 0.084395 0.919799
s off
f 1/9/1 2/10/2 10/19/3 9/18/4
f 2/10/5 3/11/6 11/20/7 10/19/8
f 3/11/9 4/12/10 12/21/11 11/20/12
f 4/12/13 5/13/14 13/22/15 12/21/16
f 5/13/17 6/14/18 14/23/19 13/22/20
f 6/14/21 7/15/22 15/24/23 14/23/24
f 7/15/25 8/16/26 16/25/27 15/24/28
f 8/16/29 1/17/30 9/26/31 16/25/32
f 26/45/33 25/46/34 27/35/35
f 28/47/36 26/45/37 27/35/38
f 29/48/39 28/47/40 27/35/41
f 30/49/42 29/48/43 27/35/44
f 31/50/45 30/49/46 27/35/47
f 32/51/48 31/50/49 27/35/50
f 33/52/51 32/51/52 27/35/53
f 25/46/54 33/52/55 27/35/56
f 50/69/57 51/70/58 52/36/59
f 51/70/60 53/71/61 52/36/62
f 53/71/63 54/72/64 52/36/65
f 54/72/66 55/73/67 52/36/68
f 55/73/69 56/74/70 52/36/71
f 56/74/72 57/75/73 52/36/74
f 57/75/75 58/76/76 52/36/77
f 58/76/78 50/69/79 52/36/80
f 2/2/81 1/1/82 17/38/83 18/37/84
f 3/3/85 2/2/86 18/37/87 19/39/88
f 4/4/89 3/3/90 19/39/91 20/40/92
f 5/5/93 4/4/94 20/40/95 21/41/96
f 6/6/97 5/5/98 21/41/99 22/42/100
f 7/7/101 6/6/102 22/42/103 23/43/104
f 8/8/105 7/7/106 23/43/107 24/44/108
f 1/1/109 8/8/110 24/44/111 17/38/112
f 18/37/113 17/38/114 25/46/115 26/45/116
f 19/39/117 18/37/118 26/45/119 28/47/120
f 20/40/121 19/39/122 28/47/123 29/48/124
f 21/41/125 20/40/126 29/48/127 30/49/128
f 22/42/129 21/41/130 30/49/131 31/50/132
f 23/43/133 22/42/134 31/50/135 32/51/136
f 24/44/137 23/43/138 32/51/139 33/52/140
f 17/38/141 24/44/142 33/52/143 25/46/144
f 9/33/145 10/32/146 35/54/147 34/53/148
f 10/32/149 11/31/150 36/55/151 35/54/152
f 11/31/153 12/30/154 37/56/155 36/55/156
f 12/30/157 13/29/158 38/57/159 37/56/160
f 13/29/161 14/28/162 39/58/163 38/57/164
f 14/28/165 15/27/166 40/59/167 39/58/168
f 15/27/169 16/34/170 41/60/171 40/59/172
f 16/34/173 9/33/174 34/53/175 41/60/176
f 34/53/177 35/54/178 43/62/179 42/61/180
f 35/54/181 36/55/182 44/63/183 43/62/184
f 36/55/185 37/56/186 45/64/187 44/63/188
f 37/56/189 38/57/190 46/65/191 45/64/192
f 38/57/193 39/58/194 47/66/195 46/65/196
f 39/58/197 40/59/198 48/67/199 47/66/200
f 40/59/201 41/60/202 49/68/203 48/67/204
f 41/60/205 34/53/206 42/61/207 49/68/208
f 42/61/209 43/62/210 51/70/211 50/69/212
f 43/62/213 44/63/214 53/71/215 51/70/216
f 44/63/217 45/64/218 54/72/219 53/71/220
f 45/64/221 46/65/222 55/73/223 54/72/224
f 46/65/225 47/66/226 56/74/227 55/73/228
f 47/66/229 48/67/230 57/75/231 56/74/232
f 48/67/233 49/68/234 58/76/235 57/75/236
f 49/68/237 42/61/238 50/69/239 58/76/240
