# This file uses centimeters as units for non-parametric coordinates.

v 0.003424 0.003930 -0.005930
v -0.003424 0.003930 -0.005930
v -0.006847 0.003930 -0.000000
v -0.003424 0.003930 0.005930
v 0.003424 0.003930 0.005930
v 0.006847 0.003930 0.000000
v 0.003091 0.010406 -0.005354
v -0.003091 0.010406 -0.005354
v -0.006182 0.010406 -0.000000
v -0.003091 0.010406 0.005354
v 0.003091 0.010406 0.005354
v 0.006182 0.010406 0.000000
v 0.003424 -0.018243 -0.005930
v -0.003424 -0.018243 -0.005930
v -0.006847 -0.018243 -0.000000
v -0.003424 -0.018243 0.005930
v 0.003424 -0.018243 0.005930
v 0.006847 -0.018243 0.000000
v -0.004711 0.015460 -0.000000
v -0.002355 0.015460 0.004080
v -0.002355 0.015460 -0.004080
v 0.002355 0.015460 0.004080
v 0.004711 0.015460 0.000000
v 0.002355 0.015460 -0.004080
v -0.000000 0.018243 -0.000000
vt 0.097161 0.211810
vt 0.097161 0.211810
vt 0.097161 0.211810
vt 0.097161 0.211810
vt 0.097161 0.211810
vt 0.097161 0.211810
vt 0.097161 0.211810
vt 0.484958 0.138809
vt 0.484958 0.138809
vt 0.484958 0.138809
vt 0.484958 0.138809
vt 0.484958 0.138809
vt 0.484958 0.138809
vt 0.097161 0.211810
vt 0.484958 0.138809
vt 0.484958 0.138809
vt 0.484958 0.138809
vt 0.484958 0.138809
vt 0.484959 0.138809
vt 0.484959 0.138809
vt 0.484958 0.138809
vt 0.097161 0.211810
vt 0.097161 0.211810
vt 0.097161 0.211810
vt 0.097161 0.211810
vt 0.097161 0.211810
vt 0.097161 0.211810
vt 0.097161 0.211810
vt 0.097161 0.211810
vt 0.097161 0.211810
vt 0.097161 0.211810
vt 0.097161 0.211810
vt 0.097161 0.211810
vt 0.097161 0.211810
vt 0.097161 0.211810
vt 0.097161 0.211810
vt 0.097161 0.211810
vt 0.097161 0.211810
vt 0.097161 0.211810
vt 0.097161 0.211810
vt 0.097161 0.211810
vt 0.097161 0.211810
vt 0.097161 0.211810
vt 0.097161 0.211810
vt 0.484958 0.138809
vt 0.484958 0.138809
vt 0.484958 0.138809
vt 0.484958 0.138809
vt 0.484958 0.138809
vt 0.484958 0.138809
vn 0.000000 0.000000 -1.000000
vn 0.000000 0.000000 -1.000000
vn 0.000000 0.000000 -1.000000
vn 0.000000 0.000000 -1.000000
vn -0.866025 0.000000 -0.500000
vn -0.866025 0.000000 -0.500000
vn -0.866025 0.000000 -0.500000
vn -0.866025 0.000000 -0.500000
vn -0.866025 0.000000 0.500000
vn -0.866025 0.000000 0.500000
vn -0.866025 0.000000 0.500000
vn -0.866025 0.000000 0.500000
vn 0.000000 0.000000 1.000000
vn 0.000000 0.000000 1.000000
vn 0.000000 0.000000 1.000000
vn 0.000000 0.000000 1.000000
vn 0.866025 0.000000 0.500000
vn 0.866025 0.000000 0.500000
vn 0.866025 0.000000 0.500000
vn 0.866025 0.000000 0.500000
vn 0.866025 0.000000 -0.500000
vn 0.866025 0.000000 -0.500000
vn 0.866025 0.000000 -0.500000
vn 0.866025 0.000000 -0.500000
vn 0.000000 -1.000000 0.000000
vn 0.000000 -1.000000 0.000000
vn 0.000000 -1.000000 0.000000
vn 0.000000 -1.000000 -0.000000
vn 0.000000 -1.000000 0.000000
vn 0.000000 -1.000000 0.000000
vn 0.000000 -1.000000 -0.000000
vn 0.000000 -1.000000 -0.000000
vn 0.000000 -1.000000 0.000000
vn 0.000000 -1.000000 0.000001
vn 0.000000 -1.000000 -0.000000
vn 0.000000 -1.000000 0.000000
vn 0.000000 0.088669 -0.996061
vn 0.000000 0.088669 -0.996061
vn 0.000000 0.088669 -0.996061
vn 0.000000 0.088669 -0.996061
vn -0.862614 0.088670 -0.498031
vn -0.862614 0.088670 -0.498031
vn -0.862614 0.088670 -0.498031
vn -0.862614 0.088670 -0.498031
vn -0.862614 0.088670 0.498031
vn -0.862614 0.088670 0.498031
vn -0.862614 0.088670 0.498031
vn -0.862614 0.088670 0.498031
vn 0.000000 0.088669 0.996061
vn 0.000000 0.088669 0.996061
vn 0.000000 0.088669 0.996061
vn 0.000000 0.088669 0.996061
vn 0.862614 0.088670 0.498031
vn 0.862614 0.088670 0.498031
vn 0.862614 0.088670 0.498031
vn 0.862614 0.088670 0.498031
vn 0.862614 0.088670 -0.498031
vn 0.862614 0.088670 -0.498031
vn 0.862614 0.088670 -0.498031
vn 0.862614 0.088670 -0.498031
vn -0.839772 0.244356 0.484844
vn -0.839772 0.244356 0.484844
vn -0.839772 0.244356 0.484844
vn -0.839772 0.244356 0.484844
vn -0.839772 0.244356 -0.484844
vn -0.839772 0.244356 -0.484844
vn -0.839772 0.244356 -0.484844
vn -0.839772 0.244356 -0.484844
vn 0.000000 0.244356 0.969686
vn 0.000000 0.244356 0.969686
vn 0.000000 0.244356 0.969686
vn 0.000000 0.244356 0.969686
vn 0.839772 0.244356 0.484844
vn 0.839772 0.244356 0.484844
vn 0.839772 0.244356 0.484844
vn 0.839772 0.244356 0.484844
vn 0.839772 0.244356 -0.484844
vn 0.839772 0.244356 -0.484844
vn 0.839772 0.244356 -0.484844
vn 0.839772 0.244356 -0.484844
vn 0.000000 0.244356 -0.969686
vn 0.000000 0.244356 -0.969686
vn 0.000000 0.244356 -0.969686
vn 0.000000 0.244356 -0.969686
vn -0.487944 0.826164 0.281716
vn -0.487944 0.826164 0.281716
vn -0.487944 0.826164 0.281716
vn -0.487944 0.826164 -0.281716
vn -0.487944 0.826164 -0.281716
vn -0.487944 0.826164 -0.281716
vn 0.000000 0.826164 0.563430
vn 0.000000 0.826164 0.563430
vn 0.000000 0.826164 0.563430
vn 0.487944 0.826164 0.281716
vn 0.487944 0.826164 0.281716
vn 0.487944 0.826164 0.281716
vn 0.487944 0.826164 -0.281715
vn 0.487945 0.826164 -0.281715
vn 0.487945 0.826164 -0.281715
vn 0.000000 0.826164 -0.563430
vn 0.000000 0.826164 -0.563430
vn 0.000000 0.826164 -0.563430
s off
f 2/2/1 1/1/2 13/30/3 14/43/4
f 3/3/5 2/2/6 14/44/7 15/41/8
f 4/4/9 3/3/10 15/42/11 16/39/12
f 5/5/13 4/4/14 16/40/15 17/36/16
f 6/6/17 5/5/18 17/37/19 18/28/20
f 1/7/21 6/6/22 18/29/23 13/22/24
f 16/38/25 15/23/26 14/32/27
f 17/35/28 16/24/29 14/33/30
f 18/27/31 17/25/32 14/34/33
f 13/31/34 18/26/35 14/14/36
f 2/8/37 8/9/38 7/10/39 1/11/40
f 3/12/41 9/13/42 8/9/43 2/8/44
f 4/15/45 10/16/46 9/13/47 3/12/48
f 5/17/49 11/18/50 10/16/51 4/15/52
f 6/19/53 12/20/54 11/18/55 5/17/56
f 1/11/57 7/10/58 12/20/59 6/19/60
f 9/13/61 10/16/62 20/21/63 19/45/64
f 8/9/65 9/13/66 19/45/67 21/46/68
f 10/16/69 11/18/70 22/47/71 20/21/72
f 11/18/73 12/20/74 23/48/75 22/47/76
f 12/20/77 7/10/78 24/49/79 23/48/80
f 7/10/81 8/9/82 21/46/83 24/49/84
f 19/45/85 20/21/86 25/50/87
f 21/46/88 19/45/89 25/50/90
f 20/21/91 22/47/92 25/50/93
f 22/47/94 23/48/95 25/50/96
f 23/48/97 24/49/98 25/50/99
f 24/49/100 21/46/101 25/50/102
