# This file uses centimeters as units for non-parametric coordinates.

v 0.009390 -0.038052 -0.072627
v 0.013279 -0.028663 -0.072627
v 0.009390 -0.019274 -0.072627
v 0.000000 -0.015384 -0.072627
v -0.009390 -0.019274 -0.072627
v -0.013279 -0.028663 -0.072627
v -0.009390 -0.038052 -0.072627
v 0.000000 -0.041943 -0.072627
v 0.009390 -0.038052 0.023968
v 0.013279 -0.028663 0.023968
v 0.009390 -0.019274 0.023968
v 0.000000 -0.015384 0.023968
v -0.009390 -0.019274 0.023968
v -0.013279 -0.028663 0.023968
v -0.009390 -0.038052 0.023968
v 0.000000 -0.041943 0.023968
v 0.000000 -0.028663 -0.072627
v 0.013826 -0.042486 0.040941
v 0.019553 -0.028663 0.040941
v 0.013826 -0.014837 0.040941
v 0.000000 -0.009110 0.040941
v -0.013826 -0.014837 0.040941
v -0.019553 -0.028663 0.040941
v -0.013826 -0.042486 0.040941
v 0.000000 -0.048213 0.040941
v 0.013826 -0.042486 0.067396
v 0.019553 -0.028663 0.067396
v 0.013826 -0.014837 0.067396
v 0.000000 -0.009110 0.067396
v -0.013826 -0.014837 0.067396
v -0.019553 -0.028663 0.067396
v -0.013826 -0.042486 0.067396
v 0.000000 -0.048213 0.067396
v 0.016427 -0.045090 0.067396
v 0.023232 -0.028663 0.067396
v 0.016427 -0.012236 0.067396
v 0.000000 -0.005431 0.067396
v -0.016427 -0.012236 0.067396
v -0.023232 -0.028663 0.067396
v -0.016427 -0.045090 0.067396
v 0.000000 -0.051894 0.067396
v 0.016427 -0.045090 0.090446
v 0.023232 -0.028663 0.090446
v 0.016427 -0.012236 0.090446
v 0.000000 -0.005431 0.090446
v -0.016427 -0.012236 0.090446
v -0.023232 -0.028663 0.090446
v -0.016427 -0.045090 0.090446
v 0.000000 -0.051894 0.090446
v 0.012767 -0.041432 0.090446
v 0.018057 -0.028663 0.090446
v 0.012767 -0.015895 0.090446
v 0.000000 -0.010606 0.090446
v -0.012767 -0.015895 0.090446
v -0.018057 -0.028663 0.090446
v -0.012767 -0.041432 0.090446
v 0.000000 -0.046721 0.090446
v 0.012767 -0.041432 0.085669
v 0.018057 -0.028663 0.085669
v 0.000000 -0.028663 0.092955
v 0.012767 -0.015895 0.085669
v 0.000000 -0.010606 0.085669
v -0.012767 -0.015895 0.085669
v -0.018057 -0.028663 0.085669
v -0.012767 -0.041432 0.085669
v 0.000000 -0.046721 0.085669
v -0.016830 -0.038786 -0.012201
v -0.016830 -0.038786 0.012848
v -0.016830 0.000000 -0.012201
v -0.016830 0.000000 0.012848
v 0.016830 0.000000 -0.012201
v 0.016830 0.000000 0.012848
v 0.016830 -0.038786 -0.012201
v 0.016830 -0.038786 0.012848
v 0.010841 -0.048304 -0.012201
v 0.010841 -0.048304 0.012848
v -0.010841 -0.048304 0.012848
v -0.010841 -0.048304 -0.012201
vt 0.495314 0.114533
vt 0.495314 0.114533
vt 0.495314 0.114533
vt 0.495314 0.114533
vt 0.495314 0.114533
vt 0.495314 0.114533
vt 0.495314 0.114533
vt 0.495314 0.114533
vt 0.495314 0.114533
vt 0.495314 0.114533
vt 0.495314 0.114533
vt 0.495314 0.114533
vt 0.495314 0.114533
vt 0.495314 0.114533
vt 0.495314 0.114533
vt 0.495314 0.114533
vt 0.495314 0.114533
vt 0.495314 0.114533
vt 0.495314 0.114533
vt 0.495314 0.114533
vt 0.495314 0.114533
vt 0.495314 0.114533
vt 0.495314 0.114533
vt 0.495314 0.114533
vt 0.495314 0.114533
vt 0.495314 0.114533
vt 0.495314 0.114533
vt 0.495314 0.114533
vt 0.495314 0.114533
vt 0.495314 0.114533
vt 0.495314 0.114533
vt 0.495314 0.114533
vt 0.495314 0.114533
vt 0.495314 0.114533
vt 0.495314 0.114533
vt 0.335480 0.036098
vt 0.495314 0.114533
vt 0.495314 0.114533
vt 0.495314 0.114533
vt 0.495314 0.114533
vt 0.495314 0.114533
vt 0.495314 0.114533
vt 0.495314 0.114533
vt 0.495314 0.114533
vt 0.495314 0.114533
vt 0.495314 0.114533
vt 0.495314 0.114533
vt 0.495314 0.114533
vt 0.495314 0.114533
vt 0.495314 0.114533
vt 0.495314 0.114533
vt 0.495314 0.114533
vt 0.495314 0.114533
vt 0.495314 0.114533
vt 0.495314 0.114533
vt 0.495314 0.114533
vt 0.495314 0.114533
vt 0.495314 0.114533
vt 0.495314 0.114533
vt 0.495314 0.114533
vt 0.495314 0.114533
vt 0.495314 0.114533
vt 0.495314 0.114533
vt 0.495314 0.114533
vt 0.495314 0.114533
vt 0.495314 0.114533
vt 0.495314 0.114533
vt 0.495314 0.114533
vt 0.495314 0.114533
vt 0.495314 0.114533
vt 0.495314 0.114533
vt 0.495314 0.114533
vt 0.495314 0.114533
vt 0.495314 0.114533
vt 0.495314 0.114533
vt 0.495314 0.114533
vt 0.495314 0.114533
vt 0.495314 0.114533
vt 0.495314 0.114533
vt 0.495314 0.114533
vt 0.495314 0.114533
vt 0.495314 0.114533
vt 0.495314 0.114533
vt 0.495314 0.114533
vt 0.495314 0.114533
vt 0.495314 0.114533
vt 0.495314 0.114533
vt 0.495314 0.114533
vt 0.495314 0.114533
vt 0.495314 0.114533
vt 0.495314 0.114533
vt 0.495314 0.114533
vt 0.495314 0.114533
vt 0.495314 0.114533
vt 0.495314 0.114533
vt 0.495314 0.114533
vt 0.495314 0.114533
vt 0.495314 0.114533
vt 0.495314 0.114533
vt 0.495314 0.114533
vt 0.495314 0.114533
vt 0.495314 0.114533
vt 0.335480 0.036097
vt 0.335480 0.036097
vt 0.335480 0.036097
vt 0.335480 0.036097
vt 0.335480 0.036097
vt 0.335480 0.036097
vt 0.335480 0.036098
vt 0.335480 0.036098
vn 0.923879 -0.382686 0.000000
vn 0.923879 -0.382686 0.000000
vn 0.923879 -0.382686 0.000000
vn 0.923879 -0.382686 0.000000
vn 0.923879 0.382684 0.000000
vn 0.923879 0.382684 0.000000
vn 0.923879 0.382684 0.000000
vn 0.923879 0.382684 0.000000
vn 0.382683 0.923880 0.000000
vn 0.382683 0.923880 0.000000
vn 0.382683 0.923880 0.000000
vn 0.382683 0.923880 0.000000
vn -0.382683 0.923880 0.000000
vn -0.382683 0.923880 0.000000
vn -0.382683 0.923880 0.000000
vn -0.382683 0.923880 0.000000
vn -0.923879 0.382684 0.000000
vn -0.923879 0.382684 0.000000
vn -0.923879 0.382684 0.000000
vn -0.923879 0.382684 0.000000
vn -0.923880 -0.382683 0.000000
vn -0.923880 -0.382683 0.000000
vn -0.923880 -0.382683 0.000000
vn -0.923880 -0.382683 0.000000
vn -0.382684 -0.923879 0.000000
vn -0.382684 -0.923879 0.000000
vn -0.382684 -0.923879 0.000000
vn -0.382684 -0.923879 0.000000
vn 0.382686 -0.923879 0.000000
vn 0.382686 -0.923879 0.000000
vn 0.382686 -0.923879 0.000000
vn 0.382686 -0.923879 0.000000
vn 0.000000 0.000000 -1.000000
vn 0.000000 0.000000 -1.000000
vn 0.000000 0.000000 -1.000000
vn 0.000000 0.000000 -1.000000
vn 0.000000 0.000000 -1.000000
vn 0.000000 0.000000 -1.000000
vn -0.000000 0.000000 -1.000000
vn 0.000000 0.000000 -1.000000
vn 0.000000 0.000000 -1.000000
vn -0.000000 0.000000 -1.000000
vn -0.000000 0.000000 -1.000000
vn 0.000000 0.000000 -1.000000
vn 0.000000 0.000000 -1.000000
vn -0.000000 0.000000 -1.000000
vn 0.000000 0.000000 -1.000000
vn 0.000000 0.000000 -1.000000
vn 0.000000 0.000000 -1.000000
vn 0.000000 0.000000 -1.000000
vn 0.000000 0.000000 -1.000000
vn 0.000000 0.000000 -1.000000
vn 0.000000 0.000000 -1.000000
vn 0.000000 0.000000 -1.000000
vn 0.000000 0.000000 -1.000000
vn 0.000000 0.000000 -1.000000
vn 0.369697 -0.153134 0.916446
vn 0.369697 -0.153134 0.916446
vn 0.369697 -0.153134 0.916446
vn 0.369697 0.153134 0.916446
vn 0.369697 0.153134 0.916446
vn 0.369697 0.153134 0.916446
vn 0.153134 0.369697 0.916446
vn 0.153134 0.369697 0.916446
vn 0.153134 0.369697 0.916446
vn -0.153133 0.369697 0.916447
vn -0.153133 0.369697 0.916447
vn -0.153133 0.369697 0.916447
vn -0.369697 0.153134 0.916446
vn -0.369697 0.153134 0.916446
vn -0.369697 0.153134 0.916446
vn -0.369697 -0.153134 0.916446
vn -0.369697 -0.153134 0.916446
vn -0.369697 -0.153134 0.916446
vn -0.153133 -0.369697 0.916446
vn -0.153134 -0.369697 0.916446
vn -0.153134 -0.369697 0.916446
vn 0.153134 -0.369697 0.916446
vn 0.153133 -0.369697 0.916446
vn 0.153134 -0.369697 0.916446
vn 0.874315 -0.362154 -0.323137
vn 0.874315 -0.362154 -0.323137
vn 0.874315 -0.362154 -0.323137
vn 0.874315 -0.362154 -0.323137
vn 0.874316 0.362153 -0.323137
vn 0.874316 0.362153 -0.323137
vn 0.874316 0.362153 -0.323137
vn 0.874316 0.362153 -0.323137
vn 0.362153 0.874315 -0.323137
vn 0.362153 0.874315 -0.323137
vn 0.362153 0.874315 -0.323137
vn 0.362153 0.874315 -0.323137
vn -0.362153 0.874315 -0.323137
vn -0.362153 0.874315 -0.323137
vn -0.362153 0.874315 -0.323137
vn -0.362153 0.874315 -0.323137
vn -0.874316 0.362153 -0.323137
vn -0.874316 0.362153 -0.323137
vn -0.874316 0.362153 -0.323137
vn -0.874316 0.362153 -0.323137
vn -0.874316 -0.362153 -0.323136
vn -0.874316 -0.362153 -0.323136
vn -0.874316 -0.362153 -0.323136
vn -0.874316 -0.362153 -0.323136
vn -0.362154 -0.874316 -0.323136
vn -0.362154 -0.874316 -0.323136
vn -0.362154 -0.874316 -0.323136
vn -0.362154 -0.874316 -0.323136
vn 0.362155 -0.874315 -0.323137
vn 0.362154 -0.874315 -0.323137
vn 0.362154 -0.874315 -0.323137
vn 0.362155 -0.874315 -0.323137
vn 0.923880 -0.382683 0.000000
vn 0.923880 -0.382683 0.000000
vn 0.923880 -0.382683 0.000000
vn 0.923880 -0.382683 0.000000
vn 0.923880 0.382682 0.000000
vn 0.923880 0.382682 0.000000
vn 0.923880 0.382682 0.000000
vn 0.923880 0.382682 0.000000
vn 0.382684 0.923879 0.000000
vn 0.382684 0.923879 0.000000
vn 0.382684 0.923879 0.000000
vn 0.382684 0.923879 0.000000
vn -0.382684 0.923879 0.000000
vn -0.382684 0.923879 0.000000
vn -0.382684 0.923879 0.000000
vn -0.382684 0.923879 0.000000
vn -0.923880 0.382682 0.000000
vn -0.923880 0.382682 0.000000
vn -0.923880 0.382682 0.000000
vn -0.923880 0.382682 0.000000
vn -0.923880 -0.382683 0.000000
vn -0.923880 -0.382683 0.000000
vn -0.923880 -0.382683 0.000000
vn -0.923880 -0.382683 0.000000
vn -0.382684 -0.923879 0.000000
vn -0.382684 -0.923879 0.000000
vn -0.382684 -0.923879 0.000000
vn -0.382684 -0.923879 0.000000
vn 0.382684 -0.923879 0.000000
vn 0.382684 -0.923879 0.000000
vn 0.382684 -0.923879 0.000000
vn 0.382684 -0.923879 0.000000
vn 0.000000 0.000000 -1.000000
vn 0.000000 0.000000 -1.000000
vn 0.000000 0.000000 -1.000000
vn -0.000000 0.000000 -1.000000
vn 0.000000 0.000000 -1.000000
vn -0.000000 0.000000 -1.000000
vn -0.000000 0.000000 -1.000000
vn 0.000000 0.000000 -1.000000
vn -0.000000 0.000000 -1.000000
vn 0.000000 0.000000 -1.000000
vn 0.000000 0.000000 -1.000000
vn -0.000000 0.000000 -1.000000
vn 0.000000 0.000000 -1.000000
vn -0.000000 0.000000 -1.000000
vn 0.000000 0.000000 -1.000000
vn 0.000000 0.000000 -1.000000
vn -0.000000 0.000000 -1.000000
vn -0.000000 0.000000 -1.000000
vn -0.000000 0.000000 -1.000000
vn 0.000000 0.000000 -1.000000
vn -0.000000 0.000000 -1.000000
vn 0.000000 0.000000 -1.000000
vn 0.000000 0.000000 -1.000000
vn -0.000000 0.000000 -1.000000
vn 0.000000 0.000000 -1.000000
vn 0.000000 0.000000 -1.000000
vn 0.000000 0.000000 -1.000000
vn 0.000000 0.000000 -1.000000
vn 0.000000 0.000000 -1.000000
vn 0.000000 0.000000 -1.000000
vn -0.000000 0.000000 -1.000000
vn 0.000000 0.000000 -1.000000
vn 0.923879 -0.382684 0.000000
vn 0.923879 -0.382684 0.000000
vn 0.923879 -0.382684 0.000000
vn 0.923879 -0.382684 0.000000
vn 0.923880 0.382683 0.000000
vn 0.923880 0.382683 0.000000
vn 0.923880 0.382683 0.000000
vn 0.923880 0.382683 0.000000
vn 0.382684 0.923879 0.000000
vn 0.382684 0.923879 0.000000
vn 0.382684 0.923879 0.000000
vn 0.382684 0.923879 0.000000
vn -0.382684 0.923879 0.000000
vn -0.382684 0.923879 0.000000
vn -0.382684 0.923879 0.000000
vn -0.382684 0.923879 0.000000
vn -0.923880 0.382683 0.000000
vn -0.923880 0.382683 0.000000
vn -0.923880 0.382683 0.000000
vn -0.923880 0.382683 0.000000
vn -0.923880 -0.382682 0.000000
vn -0.923880 -0.382682 0.000000
vn -0.923880 -0.382682 0.000000
vn -0.923880 -0.382682 0.000000
vn -0.382683 -0.923880 0.000000
vn -0.382683 -0.923880 0.000000
vn -0.382683 -0.923880 0.000000
vn -0.382683 -0.923880 0.000000
vn 0.382684 -0.923879 0.000000
vn 0.382684 -0.923879 0.000000
vn 0.382684 -0.923879 0.000000
vn 0.382684 -0.923879 0.000000
vn 0.000000 0.000000 1.000000
vn 0.000000 0.000000 1.000000
vn 0.000000 0.000000 1.000000
vn 0.000000 0.000000 1.000000
vn 0.000000 0.000000 1.000000
vn 0.000000 0.000000 1.000000
vn 0.000000 0.000000 1.000000
vn 0.000000 0.000000 1.000000
vn 0.000000 0.000000 1.000000
vn 0.000000 0.000000 1.000000
vn 0.000000 0.000000 1.000000
vn 0.000000 0.000000 1.000000
vn 0.000000 0.000000 1.000000
vn -0.000000 0.000000 1.000000
vn -0.000000 0.000000 1.000000
vn 0.000000 0.000000 1.000000
vn -0.000000 0.000000 1.000000
vn -0.000000 0.000000 1.000000
vn -0.000000 0.000000 1.000000
vn -0.000000 0.000000 1.000000
vn -0.000000 0.000000 1.000000
vn 0.000000 0.000000 1.000000
vn 0.000000 0.000000 1.000000
vn -0.000000 0.000000 1.000000
vn 0.000000 0.000000 1.000000
vn 0.000000 0.000000 1.000000
vn 0.000000 0.000000 1.000000
vn 0.000000 0.000000 1.000000
vn 0.000000 0.000000 1.000000
vn 0.000000 0.000000 1.000000
vn 0.000000 0.000000 1.000000
vn 0.000000 0.000000 1.000000
vn -0.923879 0.382685 0.000000
vn -0.923879 0.382685 0.000000
vn -0.923879 0.382685 0.000000
vn -0.923879 0.382685 0.000000
vn -0.923879 -0.382684 0.000000
vn -0.923879 -0.382684 0.000000
vn -0.923879 -0.382684 0.000000
vn -0.923879 -0.382684 0.000000
vn -0.382683 -0.923880 0.000000
vn -0.382683 -0.923880 0.000000
vn -0.382683 -0.923880 0.000000
vn -0.382683 -0.923880 0.000000
vn 0.382683 -0.923880 0.000000
vn 0.382683 -0.923880 0.000000
vn 0.382683 -0.923880 0.000000
vn 0.382683 -0.923880 0.000000
vn 0.923879 -0.382684 0.000000
vn 0.923879 -0.382684 0.000000
vn 0.923879 -0.382684 0.000000
vn 0.923879 -0.382684 0.000000
vn 0.923879 0.382685 0.000000
vn 0.923879 0.382685 0.000000
vn 0.923879 0.382685 0.000000
vn 0.923879 0.382685 0.000000
vn 0.382685 0.923879 0.000000
vn 0.382685 0.923879 0.000000
vn 0.382685 0.923879 0.000000
vn 0.382685 0.923879 0.000000
vn -0.382685 0.923879 0.000000
vn -0.382685 0.923879 0.000000
vn -0.382685 0.923879 0.000000
vn -0.382685 0.923879 0.000000
vn -1.000000 0.000000 0.000000
vn -1.000000 0.000000 0.000000
vn -1.000000 0.000000 0.000000
vn -1.000000 0.000000 0.000000
vn 0.000000 1.000000 0.000000
vn 0.000000 1.000000 0.000000
vn 0.000000 1.000000 0.000000
vn 0.000000 1.000000 0.000000
vn 1.000000 0.000000 0.000000
vn 1.000000 0.000000 0.000000
vn 1.000000 0.000000 0.000000
vn 1.000000 0.000000 0.000000
vn 0.000000 -1.000000 0.000000
vn 0.000000 -1.000000 0.000000
vn 0.000000 -1.000000 0.000000
vn 0.000000 -1.000000 0.000000
vn 0.000000 0.000000 1.000000
vn 0.000000 0.000000 1.000000
vn 0.000000 0.000000 1.000000
vn 0.000000 0.000000 1.000000
vn 0.000000 0.000000 -1.000000
vn 0.000000 0.000000 -1.000000
vn 0.000000 0.000000 -1.000000
vn 0.000000 0.000000 -1.000000
vn 0.846333 -0.532654 0.000000
vn 0.846333 -0.532654 0.000000
vn 0.846333 -0.532654 0.000000
vn 0.846333 -0.532654 0.000000
vn 0.000000 0.000000 1.000000
vn 0.000000 0.000000 1.000000
vn 0.000000 0.000000 1.000000
vn 0.000000 0.000000 1.000000
vn -0.846333 -0.532654 0.000000
vn -0.846333 -0.532654 0.000000
vn -0.846333 -0.532654 0.000000
vn -0.846333 -0.532654 0.000000
vn 0.000000 0.000000 -1.000000
vn 0.000000 0.000000 -1.000000
vn 0.000000 0.000000 -1.000000
vn 0.000000 0.000000 -1.000000
s off
f 1/9/1 2/10/2 10/19/3 9/18/4
f 2/10/5 3/11/6 11/20/7 10/19/8
f 3/11/9 4/12/10 12/21/11 11/20/12
f 4/12/13 5/13/14 13/22/15 12/21/16
f 5/13/17 6/14/18 14/23/19 13/22/20
f 6/14/21 7/15/22 15/24/23 14/23/24
f 7/15/25 8/16/26 16/25/27 15/24/28
f 8/16/29 1/17/30 9/26/31 16/25/32
f 2/2/33 1/1/34 17/35/35
f 3/3/36 2/2/37 17/35/38
f 4/4/39 3/3/40 17/35/41
f 5/5/42 4/4/43 17/35/44
f 6/6/45 5/5/46 17/35/47
f 7/7/48 6/6/49 17/35/50
f 8/8/51 7/7/52 17/35/53
f 1/1/54 8/8/55 17/35/56
f 58/36/57 59/103/58 60/104/59
f 59/103/60 61/105/61 60/104/62
f 61/105/63 62/106/64 60/104/65
f 62/106/66 63/107/67 60/104/68
f 63/107/69 64/108/70 60/104/71
f 64/108/72 65/109/73 60/104/74
f 65/109/75 66/110/76 60/104/77
f 66/110/78 58/36/79 60/104/80
f 9/33/81 10/32/82 19/38/83 18/37/84
f 10/32/85 11/31/86 20/39/87 19/38/88
f 11/31/89 12/30/90 21/40/91 20/39/92
f 12/30/93 13/29/94 22/41/95 21/40/96
f 13/29/97 14/28/98 23/42/99 22/41/100
f 14/28/101 15/27/102 24/43/103 23/42/104
f 15/27/105 16/34/106 25/44/107 24/43/108
f 16/34/109 9/33/110 18/37/111 25/44/112
f 18/37/113 19/38/114 27/46/115 26/45/116
f 19/38/117 20/39/118 28/47/119 27/46/120
f 20/39/121 21/40/122 29/48/123 28/47/124
f 21/40/125 22/41/126 30/49/127 29/48/128
f 22/41/129 23/42/130 31/50/131 30/49/132
f 23/42/133 24/43/134 32/51/135 31/50/136
f 24/43/137 25/44/138 33/52/139 32/51/140
f 25/44/141 18/37/142 26/45/143 33/52/144
f 26/45/145 27/46/146 35/54/147 34/53/148
f 27/46/149 28/47/150 36/55/151 35/54/152
f 28/47/153 29/48/154 37/56/155 36/55/156
f 29/48/157 30/49/158 38/57/159 37/56/160
f 30/49/161 31/50/162 39/58/163 38/57/164
f 31/50/165 32/51/166 40/59/167 39/58/168
f 32/51/169 33/52/170 41/60/171 40/59/172
f 33/52/173 26/45/174 34/53/175 41/60/176
f 34/53/177 35/54/178 43/62/179 42/61/180
f 35/54/181 36/55/182 44/63/183 43/62/184
f 36/55/185 37/56/186 45/64/187 44/63/188
f 37/56/189 38/57/190 46/65/191 45/64/192
f 38/57/193 39/58/194 47/66/195 46/65/196
f 39/58/197 40/59/198 48/67/199 47/66/200
f 40/59/201 41/60/202 49/68/203 48/67/204
f 41/60/205 34/53/206 42/61/207 49/68/208
f 42/61/209 43/62/210 51/70/211 50/69/212
f 43/62/213 44/63/214 52/71/215 51/70/216
f 44/63/217 45/64/218 53/72/219 52/71/220
f 45/64/221 46/65/222 54/73/223 53/72/224
f 46/65/225 47/66/226 55/74/227 54/73/228
f 47/66/229 48/67/230 56/75/231 55/74/232
f 48/67/233 49/68/234 57/76/235 56/75/236
f 49/68/237 42/61/238 50/69/239 57/76/240
f 50/69/241 51/70/242 59/78/243 58/77/244
f 51/70/245 52/71/246 61/79/247 59/78/248
f 52/71/249 53/72/250 62/80/251 61/79/252
f 53/72/253 54/73/254 63/81/255 62/80/256
f 54/73/257 55/74/258 64/82/259 63/81/260
f 55/74/261 56/75/262 65/83/263 64/82/264
f 56/75/265 57/76/266 66/84/267 65/83/268
f 57/76/269 50/69/270 58/77/271 66/84/272
f 67/85/273 68/86/274 70/87/275 69/88/276
f 69/88/277 70/87/278 72/89/279 71/90/280
f 71/90/281 72/89/282 74/91/283 73/92/284
f 75/93/285 76/94/286 77/95/287 78/96/288
f 68/86/289 74/97/290 72/98/291 70/87/292
f 73/99/293 67/85/294 69/88/295 71/100/296
f 73/92/297 74/91/298 76/94/299 75/93/300
f 74/91/301 68/101/302 77/95/303 76/94/304
f 68/101/305 67/102/306 78/96/307 77/95/308
f 67/102/309 73/92/310 75/93/311 78/96/312
