# This file uses centimeters as units for non-parametric coordinates.

v -0.023417 0.000000 -0.052099
v -0.023417 0.027831 -0.052099
v -0.023417 0.027831 -0.000000
v 0.023417 0.027831 -0.052099
v 0.023417 0.027831 -0.000000
v 0.023417 0.000000 -0.052099
v -0.027874 0.042429 -0.046015
v -0.027874 0.042429 -0.000000
v 0.027874 0.042429 -0.000000
v 0.027874 0.042429 -0.046015
v -0.024033 0.053782 -0.043111
v -0.024033 0.053782 -0.000000
v 0.024033 0.053782 -0.000000
v 0.024033 0.053782 -0.043111
v -0.016329 0.064611 -0.043111
v -0.016329 0.064611 -0.000000
v 0.016329 0.064611 -0.000000
v 0.016329 0.064611 -0.043111
v 0.023417 0.000000 0.047388
v -0.023417 0.000000 0.047388
v 0.023417 0.027831 0.057554
v -0.023417 0.027831 0.057554
v -0.023417 0.012511 0.047388
v 0.023417 0.012511 0.047388
v 0.020697 0.016382 0.062590
v -0.020697 0.016382 0.062590
v 0.020697 0.023959 0.062590
v -0.020697 0.023959 0.062590
v 0.019944 0.001756 -0.052099
v -0.019944 0.001756 -0.052099
v -0.019944 0.026073 -0.052099
v 0.019944 0.026073 -0.052099
v 0.019944 0.001756 -0.055642
v -0.019944 0.001756 -0.055642
v -0.019944 0.012689 -0.055642
v 0.019944 0.012689 -0.055642
v -0.019944 0.026073 -0.055642
v 0.019944 0.026073 -0.055642
v -0.019070 0.031130 -0.000000
v 0.019070 0.031130 -0.000000
v 0.022697 0.042119 -0.000000
v -0.022697 0.042119 -0.000000
v 0.019569 0.053492 -0.000000
v -0.019569 0.053492 -0.000000
v 0.013298 0.061989 -0.000000
v -0.013298 0.061989 -0.000000
v -0.019070 0.031130 -0.051498
v 0.019070 0.031130 -0.051498
v -0.022697 0.042119 -0.046153
v 0.022697 0.042119 -0.046153
v -0.019569 0.053492 -0.043254
v 0.019569 0.053492 -0.043254
v -0.013298 0.061989 -0.043111
v 0.013298 0.061989 -0.043111
v 0.008433 0.015656 -0.055642
v 0.015399 0.015656 -0.055642
v 0.008433 0.023105 -0.055642
v 0.015399 0.023105 -0.055642
v -0.016514 0.015616 -0.055642
v -0.016514 0.023122 -0.055642
v -0.009040 0.023091 -0.055642
v -0.009040 0.015695 -0.055642
v 0.009472 0.016836 -0.057750
v 0.014361 0.016836 -0.057750
v 0.009472 0.021927 -0.057750
v 0.014361 0.021927 -0.057750
v -0.015335 0.016809 -0.057750
v -0.015335 0.021937 -0.057750
v -0.010228 0.021915 -0.057750
v -0.010228 0.016862 -0.057750
v 0.009260 0.023105 -0.055642
vt 0.495314 0.114533
vt 0.495314 0.114533
vt 0.495314 0.114533
vt 0.495314 0.114533
vt 0.495314 0.114533
vt 0.495314 0.114533
vt 0.495314 0.114533
vt 0.495314 0.114533
vt 0.495314 0.114533
vt 0.495314 0.114533
vt 0.495314 0.114533
vt 0.495314 0.114533
vt 0.495314 0.114533
vt 0.495314 0.114533
vt 0.495314 0.114533
vt 0.495314 0.114533
vt 0.495314 0.114533
vt 0.495314 0.114533
vt 0.495314 0.114533
vt 0.495314 0.114533
vt 0.495314 0.114533
vt 0.495314 0.114533
vt 0.495314 0.114533
vt 0.495314 0.114533
vt 0.495314 0.114533
vt 0.495314 0.114533
vt 0.495314 0.114533
vt 0.495314 0.114533
vt 0.495314 0.114533
vt 0.495314 0.114533
vt 0.495314 0.114533
vt 0.495314 0.114533
vt 0.495314 0.114533
vt 0.495314 0.114533
vt 0.495314 0.114533
vt 0.495314 0.114533
vt 0.495314 0.114533
vt 0.495314 0.114533
vt 0.495314 0.114533
vt 0.495314 0.114533
vt 0.495314 0.114533
vt 0.495314 0.114533
vt 0.495314 0.114533
vt 0.495314 0.114533
vt 0.495314 0.114533
vt 0.495314 0.114533
vt 0.495314 0.114533
vt 0.495314 0.114533
vt 0.495314 0.114533
vt 0.495314 0.114533
vt 0.495314 0.114533
vt 0.495314 0.114533
vt 0.495314 0.114533
vt 0.495314 0.114533
vt 0.495314 0.114533
vt 0.495314 0.114533
vt 0.495314 0.114533
vt 0.495314 0.114533
vt 0.495314 0.114533
vt 0.495314 0.114533
vt 0.495314 0.114533
vt 0.495314 0.114533
vt 0.495314 0.114533
vt 0.495314 0.114533
vt 0.495314 0.114533
vt 0.495314 0.114533
vt 0.082840 0.010818
vt 0.082840 0.010818
vt 0.082840 0.010818
vt 0.082840 0.010818
vt 0.082840 0.010818
vt 0.082840 0.010818
vt 0.082840 0.010818
vt 0.082840 0.010818
vt 0.495314 0.114533
vt 0.082840 0.010818
vt 0.082840 0.010818
vt 0.082840 0.010818
vt 0.082840 0.010818
vt 0.082840 0.010818
vt 0.082840 0.010818
vt 0.082840 0.010818
vt 0.082840 0.010818
vt 0.082840 0.010818
vt 0.495314 0.114533
vt 0.495314 0.114533
vt 0.495314 0.114533
vt 0.495314 0.114533
vt 0.495314 0.114533
vt 0.495314 0.114533
vt 0.495314 0.114533
vt 0.495314 0.114533
vt 0.495314 0.114533
vt 0.495314 0.114533
vt 0.495314 0.114533
vt 0.495314 0.114533
vt 0.495314 0.114533
vt 0.495314 0.114533
vt 0.495314 0.114533
vt 0.495314 0.114533
vt 0.495314 0.114533
vt 0.495314 0.114533
vt 0.495314 0.114533
vt 0.495314 0.114533
vt 0.495314 0.114533
vt 0.495314 0.114533
vt 0.495314 0.114533
vt 0.495314 0.114533
vt 0.495314 0.114533
vt 0.495314 0.114533
vt 0.495314 0.114533
vt 0.495314 0.114533
vt 0.495314 0.114533
vt 0.495314 0.114533
vt 0.495314 0.114533
vt 0.495314 0.114533
vt 0.495314 0.114533
vt 0.495314 0.114533
vt 0.495314 0.114533
vt 0.495314 0.114533
vt 0.495314 0.114533
vt 0.495314 0.114533
vt 0.495314 0.114533
vt 0.495314 0.114533
vt 0.495314 0.114533
vt 0.495314 0.114533
vt 0.495314 0.114533
vt 0.495314 0.114533
vn -1.000000 0.000000 0.000000
vn -1.000000 0.000000 0.000000
vn -1.000000 0.000000 0.000000
vn 0.000000 1.000000 0.000000
vn 0.000000 1.000000 0.000000
vn 0.000000 1.000000 0.000000
vn 0.000000 1.000000 0.000000
vn 1.000000 0.000000 0.000000
vn 1.000000 0.000000 0.000000
vn 1.000000 0.000000 0.000000
vn 1.000000 0.000000 0.000000
vn 1.000000 0.000000 0.000000
vn 0.000000 -1.000000 0.000000
vn 0.000000 -1.000000 0.000000
vn 0.000000 -1.000000 0.000000
vn 0.000000 -1.000000 0.000000
vn 0.000000 0.000000 1.000000
vn 0.000000 0.000000 1.000000
vn 0.000000 0.000000 1.000000
vn 0.000000 0.000000 1.000000
vn 0.000000 0.000000 -1.000000
vn 0.000000 0.000000 -1.000000
vn 0.000000 0.000000 -1.000000
vn -0.000000 0.000000 -1.000000
vn -0.956467 -0.291839 0.000000
vn -0.956467 -0.291839 0.000000
vn -0.956467 -0.291839 0.000000
vn -0.956467 -0.291839 0.000000
vn 0.956467 -0.291839 0.000000
vn 0.956467 -0.291839 0.000000
vn 0.956467 -0.291839 0.000000
vn 0.956467 -0.291839 0.000000
vn -0.947248 0.320502 0.000000
vn -0.947248 0.320502 0.000000
vn -0.947248 0.320502 0.000000
vn -0.947248 0.320502 0.000000
vn 0.947248 0.320502 0.000000
vn 0.947248 0.320502 0.000000
vn 0.947248 0.320502 0.000000
vn 0.947248 0.320502 0.000000
vn -0.814983 0.579485 0.000000
vn -0.814983 0.579485 0.000000
vn -0.814983 0.579485 0.000000
vn -0.814983 0.579485 0.000000
vn 0.814983 0.579485 0.000000
vn 0.814983 0.579485 0.000000
vn 0.814983 0.579485 0.000000
vn 0.814983 0.579485 0.000000
vn 0.000000 1.000000 0.000000
vn 0.000000 1.000000 0.000000
vn 0.000000 1.000000 0.000000
vn 0.000000 1.000000 0.000000
vn 0.000000 0.000000 -1.000000
vn 0.000000 0.000000 -1.000000
vn 0.000000 0.000000 -1.000000
vn 0.000000 0.000000 -1.000000
vn 0.000000 0.000000 1.000000
vn 0.000000 0.000000 1.000000
vn 0.000000 0.000000 1.000000
vn 0.000000 0.000000 1.000000
vn 0.000000 -0.969060 0.246824
vn 0.000000 -0.969060 0.246824
vn 0.000000 -0.969060 0.246824
vn 0.000000 -0.969060 0.246824
vn 0.959326 -0.114569 0.258006
vn 0.959326 -0.114569 0.258006
vn 0.959326 -0.114569 0.258006
vn 0.959326 -0.114569 0.258006
vn 0.000000 0.792660 0.609664
vn 0.000000 0.792660 0.609664
vn 0.000000 0.792660 0.609663
vn 0.000000 0.792660 0.609663
vn -0.959326 -0.114569 0.258006
vn -0.959326 -0.114569 0.258006
vn -0.959326 -0.114569 0.258006
vn -0.959326 -0.114569 0.258006
vn 0.000000 0.000000 -1.000000
vn 0.000000 0.000000 -1.000000
vn 0.000000 0.000000 -1.000000
vn 0.000000 0.000000 -1.000000
vn 0.000000 0.000000 -1.000000
vn 0.000000 0.000000 -1.000000
vn 0.000000 0.000000 -1.000000
vn 0.000000 0.000000 -1.000000
vn 0.000000 0.000000 -1.000000
vn 0.000000 0.000000 -1.000000
vn 0.000000 0.000000 -1.000000
vn 0.000000 0.000000 -1.000000
vn 0.000000 0.000000 -1.000000
vn 0.000000 0.000000 -1.000000
vn 0.000000 0.000000 -1.000000
vn 0.000000 0.000000 -1.000000
vn 0.000000 -1.000000 0.000000
vn 0.000000 -1.000000 0.000000
vn 0.000000 -1.000000 0.000000
vn 0.000000 -1.000000 0.000000
vn -1.000000 0.000000 0.000000
vn -1.000000 0.000000 0.000000
vn -1.000000 0.000000 0.000000
vn -1.000000 0.000000 0.000000
vn -1.000000 0.000000 0.000000
vn 0.000000 1.000000 0.000000
vn 0.000000 1.000000 0.000000
vn 0.000000 1.000000 0.000000
vn 0.000000 1.000000 0.000000
vn 1.000000 0.000000 0.000000
vn 1.000000 0.000000 0.000000
vn 1.000000 0.000000 0.000000
vn 1.000000 0.000000 0.000000
vn 1.000000 0.000000 0.000000
vn 0.000000 0.000000 1.000000
vn 0.000000 0.000000 1.000000
vn 0.000000 0.000000 1.000000
vn 0.000000 0.000000 1.000000
vn 0.000000 0.000000 1.000000
vn 0.000000 0.000000 1.000000
vn 0.000000 0.000000 1.000000
vn 0.000000 0.000000 1.000000
vn 0.000000 0.000000 1.000000
vn 0.000000 0.000000 1.000000
vn 0.000000 0.000000 1.000000
vn 0.000000 0.000000 1.000000
vn 0.000000 0.000000 1.000000
vn 0.000000 0.000000 1.000000
vn 0.000000 0.000000 1.000000
vn 0.000000 0.000000 1.000000
vn 0.000000 0.000000 1.000000
vn 0.000000 0.000000 1.000000
vn 0.000000 0.000000 1.000000
vn 0.000000 0.000000 1.000000
vn 0.000000 0.000000 1.000000
vn 0.000000 0.000000 1.000000
vn 0.000000 0.000000 1.000000
vn 0.000000 0.000000 1.000000
vn 0.000000 0.000000 1.000000
vn 0.000000 0.000000 1.000000
vn 0.000000 0.000000 1.000000
vn 0.000000 0.000000 1.000000
vn 0.000000 0.000000 1.000000
vn 0.000000 0.000000 1.000000
vn 0.000000 0.000000 1.000000
vn 0.000000 0.000000 1.000000
vn 0.000000 0.179516 -0.983755
vn 0.000000 0.179516 -0.983755
vn 0.000000 0.179516 -0.983755
vn 0.000000 0.179516 -0.983755
vn -0.076332 0.386496 -0.919127
vn -0.076332 0.386496 -0.919127
vn -0.076332 0.386496 -0.919127
vn -0.076332 0.386496 -0.919127
vn 0.076333 0.386496 -0.919127
vn 0.076333 0.386496 -0.919127
vn 0.076333 0.386496 -0.919127
vn 0.076333 0.386496 -0.919127
vn -0.012367 0.251013 -0.967905
vn -0.012367 0.251013 -0.967905
vn -0.012367 0.251013 -0.967905
vn -0.012367 0.251013 -0.967905
vn 0.012368 0.251013 -0.967905
vn 0.012368 0.251013 -0.967905
vn 0.012368 0.251013 -0.967905
vn 0.012368 0.251013 -0.967905
vn -0.012635 0.016524 -0.999784
vn -0.012635 0.016524 -0.999784
vn -0.012635 0.016524 -0.999784
vn -0.012635 0.016524 -0.999784
vn 0.000000 0.000000 -1.000000
vn 0.000000 0.000000 -1.000000
vn 0.000000 0.000000 -1.000000
vn 0.000000 0.000000 -1.000000
vn 0.012636 0.016524 -0.999784
vn 0.012636 0.016524 -0.999784
vn 0.012636 0.016524 -0.999784
vn 0.012636 0.016524 -0.999784
vn 0.949586 0.313508 0.000000
vn 0.949586 0.313508 0.000000
vn 0.949586 0.313508 0.000000
vn 0.949586 0.313508 0.000000
vn 0.964200 -0.265177 0.000000
vn 0.964200 -0.265177 0.000000
vn 0.964200 -0.265177 0.000000
vn 0.964200 -0.265177 0.000000
vn 0.000000 -1.000000 0.000000
vn 0.000000 -1.000000 0.000000
vn 0.000000 -1.000000 0.000000
vn 0.000000 -1.000000 0.000000
vn 0.804673 -0.593719 0.000000
vn 0.804673 -0.593719 0.000000
vn 0.804673 -0.593719 0.000000
vn 0.804673 -0.593719 0.000000
vn 0.000000 1.000000 0.000000
vn 0.000000 1.000000 0.000000
vn 0.000000 1.000000 0.000000
vn 0.000000 1.000000 0.000000
vn -0.949586 0.313508 0.000000
vn -0.949586 0.313508 0.000000
vn -0.949586 0.313508 0.000000
vn -0.949586 0.313508 0.000000
vn -0.964200 -0.265177 0.000000
vn -0.964200 -0.265177 0.000000
vn -0.964200 -0.265177 0.000000
vn -0.964200 -0.265177 0.000000
vn -0.804673 -0.593719 0.000000
vn -0.804673 -0.593719 0.000000
vn -0.804673 -0.593719 0.000000
vn -0.804673 -0.593719 0.000000
vn -0.000000 0.000000 -1.000000
vn 0.000000 0.000000 -1.000000
vn 0.000000 0.000000 -1.000000
vn 0.000000 0.000000 -1.000000
vn 0.000000 0.000000 -1.000000
vn 0.000000 0.000000 -1.000000
vn 0.000000 0.000000 -1.000000
vn 0.000000 0.000000 -1.000000
vn -0.000000 0.000000 -1.000000
vn -0.000000 0.000000 -1.000000
vn -0.000000 0.000000 -1.000000
vn -0.000000 0.000000 -1.000000
vn -0.000000 0.000000 -1.000000
vn -0.000000 0.000000 -1.000000
vn 0.000000 0.000000 -1.000000
vn 0.000001 0.000000 -1.000000
vn 0.000001 0.000000 -1.000000
vn 0.000001 0.000000 -1.000000
vn 0.000001 0.000000 -1.000000
vn 0.000000 0.000000 -1.000000
vn 0.000000 0.000000 -1.000000
vn 0.000000 0.000000 -1.000000
vn 0.000000 0.000000 -1.000000
vn 0.000000 0.000000 -1.000000
vn 0.000000 0.000000 -1.000000
vn 0.000000 0.000000 -1.000000
vn 0.000000 0.000000 -1.000000
vn 0.000001 0.000000 -1.000000
vn 0.000000 -0.872675 -0.488302
vn 0.000000 -0.872675 -0.488302
vn 0.000000 -0.872675 -0.488302
vn 0.000000 -0.872675 -0.488302
vn -0.897012 0.000000 -0.442007
vn -0.897012 0.000000 -0.442007
vn -0.897012 0.000000 -0.442007
vn -0.897012 0.000000 -0.442007
vn 0.000000 0.872682 -0.488289
vn 0.000000 0.872682 -0.488290
vn 0.000000 0.872682 -0.488289
vn 0.000000 0.872682 -0.488289
vn 0.000000 0.872682 -0.488289
vn 0.897011 0.000000 -0.442007
vn 0.897011 0.000000 -0.442007
vn 0.897011 0.000000 -0.442007
vn 0.897012 0.000000 -0.442007
vn -0.872783 0.000000 -0.488108
vn -0.872783 0.000000 -0.488108
vn -0.872783 0.000000 -0.488108
vn -0.872783 0.000000 -0.488108
vn 0.003570 0.872663 -0.488310
vn 0.003570 0.872663 -0.488310
vn 0.003570 0.872663 -0.488310
vn 0.003570 0.872663 -0.488310
vn 0.871254 0.000000 -0.490833
vn 0.871254 0.000000 -0.490833
vn 0.871254 0.000000 -0.490833
vn 0.871254 0.000000 -0.490833
vn 0.009203 -0.872637 -0.488283
vn 0.009203 -0.872637 -0.488283
vn 0.009203 -0.872637 -0.488284
vn 0.009203 -0.872637 -0.488283
vn -1.000000 0.000000 0.000000
vn -1.000000 0.000000 0.000000
vn -1.000000 0.000000 0.000000
vn -1.000000 0.000000 0.000000
vn -1.000000 0.000000 0.000000
vn 1.000000 0.000000 0.000000
vn 1.000000 0.000000 0.000000
vn 1.000000 0.000000 0.000000
vn 0.000001 0.000000 -1.000000
vn -0.000000 0.000000 -1.000000
vn 0.000000 0.000000 -1.000000
vn 0.000000 0.000000 -1.000000
vn -0.000000 0.000000 -1.000000
vn 0.000000 0.000000 -1.000000
vn -0.000000 0.000000 -1.000000
vn 0.000001 0.000000 -1.000000
vn 0.000000 0.000000 -1.000000
vn 0.000001 0.000000 -1.000000
vn 0.000000 0.000000 -1.000000
vn 0.000000 0.000000 -1.000000
vn 0.000000 0.000000 -1.000000
s off
f 3/3/1 23/27/2 22/26/3
f 15/19/4 16/20/5 17/21/6 18/22/7
f 24/28/8 19/24/9 6/6/10 4/4/11 5/8/12
f 1/7/13 6/6/14 19/24/15 20/23/16
f 20/23/17 19/24/18 24/28/19 23/27/20
f 33/37/21 34/38/22 35/39/23 36/40/24
f 2/2/25 3/3/26 8/12/27 7/11/28
f 5/5/29 4/4/30 10/14/31 9/13/32
f 7/11/33 8/12/34 12/16/35 11/15/36
f 9/13/37 10/14/38 14/18/39 13/17/40
f 11/15/41 12/16/42 16/20/43 15/19/44
f 13/17/45 14/18/46 18/22/47 17/21/48
f 5/8/49 3/3/50 22/26/51 21/25/52
f 64/67/53 63/68/54 65/69/55 66/70/56
f 26/29/57 25/30/58 27/31/59 28/32/60
f 23/27/61 24/28/62 25/30/63 26/29/64
f 24/28/65 21/25/66 27/31/67 25/30/68
f 21/25/69 22/26/70 28/32/71 27/31/72
f 22/26/73 23/27/74 26/29/75 28/32/76
f 6/9/77 1/1/78 30/34/79 29/33/80
f 30/34/81 1/1/82 2/2/83 31/35/84
f 2/2/85 4/10/86 32/36/87 31/35/88
f 32/36/89 4/10/90 6/9/91 29/33/92
f 29/33/93 30/34/94 34/38/95 33/37/96
f 35/39/97 34/38/98 30/34/99 31/35/100 37/41/101
f 31/35/102 32/36/103 38/42/104 37/41/105
f 36/40/106 38/42/107 32/36/108 29/33/109 33/37/110
f 3/3/111 5/5/112 40/44/113 39/43/114
f 5/5/115 9/13/116 41/45/117 40/44/118
f 8/12/119 3/3/120 39/43/121 42/46/122
f 9/85/123 13/86/124 43/48/125 41/47/126
f 12/87/127 8/88/128 42/49/129 44/89/130
f 13/90/131 17/91/132 45/92/133 43/50/134
f 17/93/135 16/94/136 46/51/137 45/95/138
f 16/96/139 12/97/140 44/98/141 46/52/142
f 4/99/143 2/100/144 47/53/145 48/101/146
f 2/102/147 7/103/148 49/104/149 47/54/150
f 10/105/151 4/106/152 48/55/153 50/107/154
f 7/108/155 11/109/156 51/56/157 49/110/158
f 14/111/159 10/112/160 50/113/161 52/114/162
f 11/15/163 15/19/164 53/57/165 51/115/166
f 15/19/167 18/22/168 54/58/169 53/57/170
f 18/22/171 14/18/172 52/116/173 54/58/174
f 42/46/175 39/43/176 47/54/177 49/117/178
f 44/118/179 42/49/180 49/119/181 51/56/182
f 45/120/183 46/51/184 53/57/185 54/58/186
f 46/52/187 44/121/188 51/122/189 53/57/190
f 40/44/191 48/123/192 47/53/193 39/43/194
f 41/45/195 50/124/196 48/55/197 40/44/198
f 43/48/199 52/125/200 50/126/201 41/47/202
f 45/127/203 54/58/204 52/128/205 43/50/206
f 36/40/207 35/39/208 55/60/209
f 67/71/210 68/72/211 69/73/212 70/74/213
f 71/75/214 38/42/215 58/62/216
f 38/42/217 36/40/218 56/59/219 58/62/220
f 35/39/221 37/41/222 60/64/223 59/63/224
f 37/41/225 57/61/226 61/65/227
f 57/61/228 55/60/229 62/66/230 61/65/231
f 62/66/232 35/39/233 59/63/234
f 56/76/235 55/77/236 63/68/237 64/67/238
f 55/77/239 57/78/240 65/69/241 63/68/242
f 57/78/243 71/79/244 58/80/245 66/70/246 65/69/247
f 58/80/248 56/76/249 64/67/250 66/70/251
f 59/81/252 60/82/253 68/72/254 67/71/255
f 60/82/256 61/83/257 69/73/258 68/72/259
f 61/83/260 62/84/261 70/74/262 69/73/263
f 62/84/264 59/81/265 67/71/266 70/74/267
f 1/1/268 20/23/269 23/27/270 3/3/271 2/2/272
f 24/28/273 5/8/274 21/25/275
f 37/41/276 38/42/277 71/75/278 57/61/279
f 36/40/280 55/60/281 56/59/282
f 37/41/283 61/65/284 60/64/285
f 55/60/286 35/39/287 62/66/288
