# This file uses centimeters as units for non-parametric coordinates.

v 0.003424 0.003621 -0.005930
v -0.003424 0.003621 -0.005930
v -0.006847 0.003621 -0.000000
v -0.003424 0.003621 0.005930
v 0.003424 0.003621 0.005930
v 0.006847 0.003621 0.000000
v 0.001997 0.013855 -0.003459
v -0.001997 0.013855 -0.003459
v -0.003994 0.013855 -0.000000
v -0.001997 0.013855 0.003459
v 0.001997 0.013855 0.003459
v 0.003994 0.013855 0.000000
v 0.001997 0.017523 -0.003459
v -0.001997 0.017523 -0.003459
v -0.003994 0.017523 -0.000000
v -0.001997 0.017523 0.003459
v 0.001997 0.017523 0.003459
v 0.003994 0.017523 0.000000
v 0.003424 -0.037346 -0.005930
v -0.003424 -0.037346 -0.005930
v -0.006847 -0.037346 -0.000000
v -0.003424 -0.037346 0.005930
v 0.003424 -0.037346 0.005930
v 0.006847 -0.037346 0.000000
v -0.002899 0.030248 -0.000000
v -0.001449 0.030248 0.002510
v -0.001449 0.030248 -0.002510
v 0.001449 0.030248 0.002510
v 0.002899 0.030248 0.000000
v 0.001449 0.030248 -0.002510
v -0.000000 0.037346 0.000000
vt 0.097161 0.211810
vt 0.097161 0.211810
vt 0.097161 0.211810
vt 0.097161 0.211810
vt 0.097161 0.211810
vt 0.097161 0.211810
vt 0.097161 0.211810
vt 0.097161 0.211810
vt 0.097161 0.211810
vt 0.097161 0.211810
vt 0.097161 0.211810
vt 0.097161 0.211810
vt 0.097161 0.211810
vt 0.097161 0.211810
vt 0.484221 0.139537
vt 0.097161 0.211810
vt 0.097161 0.211810
vt 0.097161 0.211810
vt 0.097161 0.211810
vt 0.097161 0.211810
vt 0.097161 0.211810
vt 0.097161 0.211810
vt 0.097161 0.211810
vt 0.097161 0.211810
vt 0.097161 0.211810
vt 0.097161 0.211810
vt 0.097161 0.211810
vt 0.097161 0.211810
vt 0.097161 0.211810
vt 0.097161 0.211810
vt 0.097161 0.211810
vt 0.097161 0.211810
vt 0.097161 0.211810
vt 0.097161 0.211810
vt 0.097161 0.211810
vt 0.097161 0.211810
vt 0.097161 0.211810
vt 0.097161 0.211810
vt 0.097161 0.211810
vt 0.097161 0.211810
vt 0.097161 0.211810
vt 0.097161 0.211810
vt 0.097161 0.211810
vt 0.097161 0.211810
vt 0.097161 0.211810
vt 0.097161 0.211810
vt 0.097161 0.211810
vt 0.097161 0.211810
vt 0.097161 0.211810
vt 0.097161 0.211810
vt 0.484221 0.139537
vt 0.484221 0.139537
vt 0.484221 0.139537
vt 0.484221 0.139537
vt 0.484221 0.139537
vt 0.484221 0.139537
vt 0.484221 0.139537
vt 0.484221 0.139537
vt 0.484221 0.139537
vt 0.484221 0.139537
vt 0.484221 0.139537
vt 0.484221 0.139537
vn 0.000000 0.000000 -1.000000
vn 0.000000 0.000000 -1.000000
vn 0.000000 0.000000 -1.000000
vn 0.000000 0.000000 -1.000000
vn -0.866025 0.000000 -0.500000
vn -0.866025 0.000000 -0.500000
vn -0.866025 0.000000 -0.500000
vn -0.866025 0.000000 -0.500000
vn -0.866025 0.000000 0.500000
vn -0.866025 0.000000 0.500000
vn -0.866025 0.000000 0.500000
vn -0.866025 0.000000 0.500000
vn 0.000000 0.000000 1.000000
vn 0.000000 0.000000 1.000000
vn 0.000000 0.000000 1.000000
vn 0.000000 0.000000 1.000000
vn 0.866025 0.000000 0.500001
vn 0.866025 0.000000 0.500001
vn 0.866025 0.000000 0.500001
vn 0.866025 0.000000 0.500001
vn 0.866025 0.000000 -0.500000
vn 0.866025 0.000000 -0.500000
vn 0.866025 0.000000 -0.500000
vn 0.866025 0.000000 -0.500000
vn 0.000000 -1.000000 -0.000000
vn 0.000000 -1.000000 -0.000000
vn 0.000000 -1.000000 -0.000000
vn 0.000000 -1.000000 0.000000
vn 0.000000 -1.000000 -0.000000
vn 0.000000 -1.000000 -0.000000
vn 0.000000 -1.000000 -0.000000
vn 0.000000 -1.000000 0.000000
vn 0.000000 -1.000000 -0.000000
vn 0.000000 -1.000000 -0.000001
vn 0.000000 -1.000000 -0.000000
vn 0.000000 -1.000000 -0.000000
vn 0.000000 0.234752 -0.972055
vn 0.000000 0.234752 -0.972055
vn 0.000000 0.234752 -0.972055
vn 0.000000 0.234752 -0.972055
vn -0.841824 0.234751 -0.486028
vn -0.841824 0.234751 -0.486028
vn -0.841824 0.234752 -0.486028
vn -0.841824 0.234751 -0.486028
vn -0.841825 0.234752 0.486028
vn -0.841825 0.234752 0.486028
vn -0.841825 0.234752 0.486028
vn -0.841825 0.234752 0.486028
vn 0.000000 0.234752 0.972055
vn 0.000000 0.234752 0.972055
vn 0.000000 0.234752 0.972055
vn 0.000000 0.234752 0.972055
vn 0.841824 0.234752 0.486028
vn 0.841824 0.234752 0.486028
vn 0.841824 0.234752 0.486028
vn 0.841824 0.234752 0.486028
vn 0.841825 0.234752 -0.486027
vn 0.841825 0.234752 -0.486027
vn 0.841825 0.234752 -0.486027
vn 0.841825 0.234752 -0.486027
vn 0.000000 0.000000 -1.000000
vn 0.000000 0.000000 -1.000000
vn 0.000000 0.000000 -1.000000
vn 0.000000 0.000000 -1.000000
vn -0.866025 0.000000 -0.500000
vn -0.866025 0.000000 -0.500000
vn -0.866025 0.000000 -0.500000
vn -0.866025 0.000000 -0.500000
vn -0.866026 0.000000 0.500000
vn -0.866026 0.000000 0.500000
vn -0.866026 0.000000 0.500000
vn -0.866026 0.000000 0.500000
vn 0.000000 0.000000 1.000000
vn 0.000000 0.000000 1.000000
vn 0.000000 0.000000 1.000000
vn 0.000000 0.000000 1.000000
vn 0.866025 0.000000 0.500000
vn 0.866025 0.000000 0.500000
vn 0.866025 0.000000 0.500000
vn 0.866025 0.000000 0.500000
vn 0.866026 0.000000 -0.499999
vn 0.866026 0.000000 -0.499999
vn 0.866026 0.000000 -0.499999
vn 0.866026 0.000000 -0.499999
vn -0.863631 0.074310 0.498617
vn -0.863631 0.074310 0.498617
vn -0.863631 0.074310 0.498617
vn -0.863631 0.074310 0.498617
vn -0.863631 0.074310 -0.498618
vn -0.863631 0.074310 -0.498618
vn -0.863631 0.074310 -0.498618
vn -0.863631 0.074310 -0.498618
vn 0.000000 0.074310 0.997235
vn 0.000000 0.074310 0.997235
vn 0.000000 0.074310 0.997235
vn 0.000000 0.074310 0.997235
vn 0.863631 0.074310 0.498618
vn 0.863631 0.074310 0.498618
vn 0.863631 0.074310 0.498618
vn 0.863631 0.074310 0.498618
vn 0.863631 0.074310 -0.498617
vn 0.863631 0.074310 -0.498617
vn 0.863631 0.074310 -0.498617
vn 0.863631 0.074310 -0.498617
vn 0.000000 0.074310 -0.997235
vn 0.000000 0.074310 -0.997235
vn 0.000000 0.074310 -0.997235
vn 0.000000 0.074310 -0.997235
vn -0.816454 0.333472 0.471380
vn -0.816454 0.333472 0.471380
vn -0.816454 0.333472 0.471380
vn -0.816454 0.333472 -0.471380
vn -0.816454 0.333472 -0.471380
vn -0.816454 0.333472 -0.471380
vn 0.000000 0.333472 0.942760
vn 0.000000 0.333472 0.942760
vn 0.000000 0.333472 0.942760
vn 0.816454 0.333472 0.471380
vn 0.816454 0.333472 0.471380
vn 0.816454 0.333472 0.471380
vn 0.816454 0.333472 -0.471380
vn 0.816454 0.333472 -0.471380
vn 0.816454 0.333472 -0.471380
vn 0.000000 0.333472 -0.942760
vn 0.000000 0.333472 -0.942760
vn 0.000000 0.333472 -0.942760
s off
f 2/2/1 1/1/2 19/36/3 20/49/4
f 3/3/5 2/2/6 20/50/7 21/47/8
f 4/4/9 3/3/10 21/48/11 22/45/12
f 5/5/13 4/4/14 22/46/15 23/42/16
f 6/6/17 5/5/18 23/43/19 24/34/20
f 1/7/21 6/6/22 24/35/23 19/28/24
f 22/44/25 21/29/26 20/38/27
f 23/41/28 22/30/29 20/39/30
f 24/33/31 23/31/32 20/40/33
f 19/37/34 24/32/35 20/14/36
f 1/12/37 2/11/38 8/17/39 7/16/40
f 2/11/41 3/10/42 9/18/43 8/17/44
f 3/10/45 4/9/46 10/19/47 9/18/48
f 4/9/49 5/8/50 11/20/51 10/19/52
f 5/8/53 6/13/54 12/21/55 11/20/56
f 6/13/57 1/12/58 7/16/59 12/21/60
f 7/16/61 8/17/62 14/23/63 13/22/64
f 8/17/65 9/18/66 15/24/67 14/23/68
f 9/18/69 10/19/70 16/25/71 15/24/72
f 10/19/73 11/20/74 17/26/75 16/25/76
f 11/20/77 12/21/78 18/27/79 17/26/80
f 12/21/81 7/16/82 13/22/83 18/27/84
f 15/15/85 16/51/86 26/52/87 25/53/88
f 14/54/89 15/15/90 25/53/91 27/55/92
f 16/51/93 17/56/94 28/57/95 26/52/96
f 17/56/97 18/58/98 29/59/99 28/57/100
f 18/58/101 13/60/102 30/61/103 29/59/104
f 13/60/105 14/54/106 27/55/107 30/61/108
f 25/53/109 26/52/110 31/62/111
f 27/55/112 25/53/113 31/62/114
f 26/52/115 28/57/116 31/62/117
f 28/57/118 29/59/119 31/62/120
f 29/59/121 30/61/122 31/62/123
f 30/61/124 27/55/125 31/62/126
