# This file uses centimeters as units for non-parametric coordinates.

v 0.016531 -0.016531 -0.067339
v 0.023379 0.000000 -0.067339
v 0.016531 0.016531 -0.067339
v 0.000000 0.023379 -0.067339
v -0.016531 0.016531 -0.067339
v -0.023379 0.000000 -0.067339
v -0.016531 -0.016531 -0.067339
v 0.000000 -0.023379 -0.067339
v 0.016531 -0.016531 0.131559
v 0.023379 0.000000 0.131559
v 0.016531 0.016531 0.131559
v 0.000000 0.023379 0.131559
v -0.016531 0.016531 0.131559
v -0.023379 0.000000 0.131559
v -0.016531 -0.016531 0.131559
v 0.000000 -0.023379 0.131559
v 0.013616 -0.013616 0.134563
v 0.019257 0.000000 0.134563
v 0.013616 0.013616 0.134563
v 0.000000 0.019257 0.134563
v -0.013616 0.013616 0.134563
v -0.019257 0.000000 0.134563
v -0.013616 -0.013616 0.134563
v 0.000000 -0.019257 0.134563
v 0.006331 -0.006331 0.134563
v 0.008953 0.000000 0.134563
v 0.000000 0.000000 0.134563
v 0.006331 0.006331 0.134563
v 0.000000 0.008953 0.134563
v -0.006331 0.006331 0.134563
v -0.008953 0.000000 0.134563
v -0.006331 -0.006331 0.134563
v 0.000000 -0.008953 0.134563
v 0.018837 -0.018837 -0.067339
v 0.026641 0.000000 -0.067339
v 0.018837 0.018837 -0.067339
v 0.000000 0.026641 -0.067339
v -0.018837 0.018837 -0.067339
v -0.026641 0.000000 -0.067339
v -0.018837 -0.018837 -0.067339
v 0.000000 -0.026641 -0.067339
v 0.018837 -0.018837 -0.071349
v 0.026641 0.000000 -0.071349
v 0.018837 0.018837 -0.071349
v 0.000000 0.026641 -0.071349
v -0.018837 0.018837 -0.071349
v -0.026641 0.000000 -0.071349
v -0.018837 -0.018837 -0.071349
v 0.000000 -0.026641 -0.071349
v 0.016546 -0.016546 -0.071349
v 0.023398 0.000000 -0.071349
v 0.016546 0.016546 -0.071349
v 0.000000 0.023398 -0.071349
v -0.016546 0.016546 -0.071349
v -0.023398 0.000000 -0.071349
v -0.016546 -0.016546 -0.071349
v 0.000000 -0.023398 -0.071349
v 0.016546 -0.016546 -0.076833
v 0.023398 0.000000 -0.076833
v 0.000000 0.000000 -0.076833
v 0.016546 0.016546 -0.076833
v 0.000000 0.023398 -0.076833
v -0.016546 0.016546 -0.076833
v -0.023398 0.000000 -0.076833
v -0.016546 -0.016546 -0.076833
v 0.000000 -0.023398 -0.076833
vt 0.495314 0.114533
vt 0.495314 0.114533
vt 0.495314 0.114533
vt 0.495314 0.114533
vt 0.495314 0.114533
vt 0.495314 0.114533
vt 0.495314 0.114533
vt 0.495314 0.114533
vt 0.495314 0.114533
vt 0.495314 0.114533
vt 0.495314 0.114533
vt 0.495314 0.114533
vt 0.495314 0.114533
vt 0.495314 0.114533
vt 0.495314 0.114533
vt 0.495314 0.114533
vt 0.495314 0.114533
vt 0.495314 0.114533
vt 0.495314 0.114533
vt 0.495314 0.114533
vt 0.495314 0.114533
vt 0.495314 0.114533
vt 0.495314 0.114533
vt 0.495314 0.114533
vt 0.495314 0.114533
vt 0.495314 0.114533
vt 0.495314 0.114533
vt 0.495314 0.114533
vt 0.495314 0.114533
vt 0.495314 0.114533
vt 0.495314 0.114533
vt 0.495314 0.114533
vt 0.495314 0.114533
vt 0.495314 0.114533
vt 0.495314 0.114533
vt 0.015686 0.016338
vt 0.495314 0.114533
vt 0.495314 0.114533
vt 0.495314 0.114533
vt 0.495314 0.114533
vt 0.495314 0.114533
vt 0.495314 0.114533
vt 0.495314 0.114533
vt 0.495314 0.114533
vt 0.495314 0.114533
vt 0.495314 0.114533
vt 0.495314 0.114533
vt 0.495314 0.114533
vt 0.495314 0.114533
vt 0.495314 0.114533
vt 0.495314 0.114533
vt 0.495314 0.114533
vt 0.015686 0.016338
vt 0.015686 0.016338
vt 0.015686 0.016338
vt 0.015686 0.016338
vt 0.015686 0.016338
vt 0.015686 0.016338
vt 0.015686 0.016338
vt 0.015686 0.016338
vt 0.495314 0.114533
vt 0.495314 0.114533
vt 0.495314 0.114533
vt 0.495314 0.114533
vt 0.495314 0.114533
vt 0.495314 0.114533
vt 0.495314 0.114533
vt 0.495314 0.114533
vt 0.495314 0.114533
vt 0.495314 0.114533
vt 0.495314 0.114533
vt 0.495314 0.114533
vt 0.495314 0.114533
vt 0.495314 0.114533
vt 0.495314 0.114533
vt 0.495314 0.114533
vt 0.495314 0.114533
vt 0.495314 0.114533
vt 0.495314 0.114533
vt 0.495314 0.114533
vt 0.495314 0.114533
vt 0.495314 0.114533
vt 0.495314 0.114533
vt 0.495314 0.114533
vt 0.495314 0.114533
vt 0.495314 0.114533
vt 0.495314 0.114533
vt 0.495314 0.114533
vt 0.495314 0.114533
vt 0.495314 0.114533
vt 0.495314 0.114533
vt 0.495314 0.114533
vn 0.923879 -0.382684 0.000000
vn 0.923879 -0.382684 0.000000
vn 0.923879 -0.382684 0.000000
vn 0.923879 -0.382684 0.000000
vn 0.923879 0.382684 0.000000
vn 0.923879 0.382684 0.000000
vn 0.923879 0.382684 0.000000
vn 0.923879 0.382684 0.000000
vn 0.382682 0.923880 0.000000
vn 0.382682 0.923880 0.000000
vn 0.382682 0.923880 0.000000
vn 0.382682 0.923880 0.000000
vn -0.382682 0.923880 0.000000
vn -0.382682 0.923880 0.000000
vn -0.382682 0.923880 0.000000
vn -0.382682 0.923880 0.000000
vn -0.923879 0.382684 0.000000
vn -0.923879 0.382684 0.000000
vn -0.923879 0.382684 0.000000
vn -0.923879 0.382684 0.000000
vn -0.923879 -0.382684 0.000000
vn -0.923879 -0.382684 0.000000
vn -0.923879 -0.382684 0.000000
vn -0.923879 -0.382684 0.000000
vn -0.382684 -0.923879 0.000000
vn -0.382684 -0.923879 0.000000
vn -0.382684 -0.923879 0.000000
vn -0.382684 -0.923879 0.000000
vn 0.382684 -0.923879 0.000000
vn 0.382684 -0.923879 0.000000
vn 0.382684 -0.923879 0.000000
vn 0.382684 -0.923879 0.000000
vn 0.000000 0.000000 -1.000000
vn 0.000000 0.000000 -1.000000
vn 0.000000 0.000000 -1.000000
vn 0.000000 0.000000 -1.000000
vn 0.000000 0.000000 -1.000000
vn 0.000000 0.000000 -1.000000
vn 0.000000 0.000000 -1.000000
vn 0.000000 0.000000 -1.000000
vn 0.000000 0.000000 -1.000000
vn 0.000000 0.000000 -1.000000
vn 0.000000 0.000000 -1.000000
vn 0.000000 0.000000 -1.000000
vn 0.000000 0.000000 -1.000000
vn 0.000000 0.000000 -1.000000
vn 0.000000 0.000000 -1.000000
vn 0.000000 0.000000 -1.000000
vn 0.000000 0.000000 -1.000000
vn 0.000000 0.000000 -1.000000
vn 0.000000 0.000000 -1.000000
vn 0.000000 0.000000 -1.000000
vn 0.000000 0.000000 -1.000000
vn 0.000000 0.000000 -1.000000
vn 0.000000 0.000000 -1.000000
vn 0.000000 0.000000 -1.000000
vn -0.000000 0.000000 1.000000
vn -0.000000 0.000000 1.000000
vn 0.000000 0.000000 1.000000
vn -0.000000 0.000000 1.000000
vn 0.000000 0.000000 1.000000
vn 0.000000 0.000000 1.000000
vn 0.000000 0.000000 1.000000
vn 0.000000 0.000000 1.000000
vn 0.000000 0.000000 1.000000
vn 0.000000 0.000000 1.000000
vn 0.000000 0.000000 1.000000
vn 0.000000 0.000000 1.000000
vn 0.000000 0.000000 1.000000
vn 0.000000 0.000000 1.000000
vn 0.000000 0.000000 1.000000
vn 0.000000 0.000000 1.000000
vn 0.000000 0.000000 1.000000
vn 0.000000 0.000000 1.000000
vn 0.000000 0.000000 1.000000
vn 0.000000 0.000000 1.000000
vn 0.000000 0.000000 1.000000
vn 0.000000 0.000000 1.000000
vn -0.000000 0.000000 1.000000
vn 0.000000 0.000000 1.000000
vn 0.571781 -0.236840 0.785476
vn 0.571781 -0.236840 0.785476
vn 0.571781 -0.236840 0.785476
vn 0.571781 -0.236840 0.785476
vn 0.571781 0.236840 0.785477
vn 0.571781 0.236840 0.785477
vn 0.571781 0.236840 0.785477
vn 0.571781 0.236840 0.785477
vn 0.236839 0.571781 0.785477
vn 0.236839 0.571781 0.785477
vn 0.236839 0.571781 0.785477
vn 0.236839 0.571781 0.785477
vn -0.236839 0.571781 0.785477
vn -0.236839 0.571781 0.785477
vn -0.236839 0.571781 0.785477
vn -0.236839 0.571781 0.785477
vn -0.571780 0.236840 0.785477
vn -0.571780 0.236840 0.785477
vn -0.571780 0.236840 0.785477
vn -0.571780 0.236840 0.785477
vn -0.571781 -0.236840 0.785477
vn -0.571781 -0.236840 0.785477
vn -0.571781 -0.236840 0.785477
vn -0.571781 -0.236840 0.785477
vn -0.236840 -0.571781 0.785477
vn -0.236840 -0.571781 0.785477
vn -0.236840 -0.571781 0.785477
vn -0.236840 -0.571781 0.785477
vn 0.236839 -0.571781 0.785477
vn 0.236839 -0.571781 0.785477
vn 0.236839 -0.571781 0.785477
vn 0.236839 -0.571781 0.785477
vn -0.000000 0.000000 1.000000
vn -0.000000 0.000000 1.000000
vn -0.000000 0.000000 1.000000
vn -0.000000 0.000000 1.000000
vn -0.000000 0.000000 1.000000
vn 0.000000 0.000000 1.000000
vn 0.000000 0.000000 1.000000
vn -0.000000 0.000000 1.000000
vn 0.000000 0.000000 1.000000
vn 0.000000 0.000000 1.000000
vn 0.000000 0.000000 1.000000
vn 0.000000 0.000000 1.000000
vn 0.000000 0.000000 1.000000
vn 0.000000 0.000000 1.000000
vn 0.000000 0.000000 1.000000
vn 0.000000 0.000000 1.000000
vn 0.000000 0.000000 1.000000
vn 0.000000 0.000000 1.000000
vn 0.000000 0.000000 1.000000
vn 0.000000 0.000000 1.000000
vn 0.000000 0.000000 1.000000
vn 0.000000 0.000000 1.000000
vn 0.000000 0.000000 1.000000
vn 0.000000 0.000000 1.000000
vn 0.000000 0.000000 1.000000
vn 0.000000 0.000000 1.000000
vn 0.000000 0.000000 1.000000
vn 0.000000 0.000000 1.000000
vn 0.000000 0.000000 1.000000
vn -0.000000 0.000000 1.000000
vn -0.000000 0.000000 1.000000
vn 0.000000 0.000000 1.000000
vn 0.000000 0.000000 1.000000
vn 0.000000 0.000000 1.000000
vn 0.000000 0.000000 1.000000
vn 0.000000 0.000000 1.000000
vn 0.000000 0.000000 1.000000
vn 0.000000 0.000000 1.000000
vn 0.000000 0.000000 1.000000
vn 0.000000 0.000000 1.000000
vn -0.000000 0.000000 1.000000
vn 0.000000 0.000000 1.000000
vn 0.000000 0.000000 1.000000
vn -0.000000 0.000000 1.000000
vn -0.000000 0.000000 1.000000
vn -0.000000 0.000000 1.000000
vn -0.000000 0.000000 1.000000
vn -0.000000 0.000000 1.000000
vn -0.000000 0.000000 1.000000
vn -0.000000 0.000000 1.000000
vn -0.000000 0.000000 1.000000
vn -0.000000 0.000000 1.000000
vn -0.000000 0.000000 1.000000
vn -0.000000 0.000000 1.000000
vn -0.000000 0.000000 1.000000
vn -0.000000 0.000000 1.000000
vn 0.000000 0.000000 1.000000
vn -0.000000 0.000000 1.000000
vn -0.000000 0.000000 1.000000
vn 0.000000 0.000000 1.000000
vn 0.000000 0.000000 1.000000
vn 0.000000 0.000000 1.000000
vn 0.000000 0.000000 1.000000
vn 0.000000 0.000000 1.000000
vn 0.923880 -0.382682 0.000000
vn 0.923880 -0.382682 0.000000
vn 0.923880 -0.382682 0.000000
vn 0.923880 -0.382682 0.000000
vn 0.923880 0.382682 0.000000
vn 0.923880 0.382682 0.000000
vn 0.923880 0.382682 0.000000
vn 0.923880 0.382682 0.000000
vn 0.382683 0.923880 0.000000
vn 0.382683 0.923880 0.000000
vn 0.382683 0.923880 0.000000
vn 0.382683 0.923880 0.000000
vn -0.382683 0.923880 0.000000
vn -0.382683 0.923880 0.000000
vn -0.382683 0.923880 0.000000
vn -0.382683 0.923880 0.000000
vn -0.923880 0.382682 0.000000
vn -0.923880 0.382682 0.000000
vn -0.923880 0.382682 0.000000
vn -0.923880 0.382682 0.000000
vn -0.923880 -0.382682 0.000000
vn -0.923880 -0.382682 0.000000
vn -0.923880 -0.382682 0.000000
vn -0.923880 -0.382682 0.000000
vn -0.382684 -0.923879 0.000000
vn -0.382684 -0.923879 0.000000
vn -0.382684 -0.923879 0.000000
vn -0.382684 -0.923879 0.000000
vn 0.382684 -0.923879 0.000000
vn 0.382684 -0.923879 0.000000
vn 0.382684 -0.923879 0.000000
vn 0.382684 -0.923879 0.000000
vn -0.000000 0.000000 -1.000000
vn -0.000000 0.000000 -1.000000
vn -0.000000 0.000000 -1.000000
vn -0.000000 0.000000 -1.000000
vn -0.000000 0.000000 -1.000000
vn -0.000000 0.000000 -1.000000
vn -0.000000 0.000000 -1.000000
vn -0.000000 0.000000 -1.000000
vn -0.000000 0.000000 -1.000000
vn -0.000000 0.000000 -1.000000
vn -0.000000 0.000000 -1.000000
vn -0.000000 0.000000 -1.000000
vn 0.000000 0.000000 -1.000000
vn -0.000000 0.000000 -1.000000
vn -0.000000 0.000000 -1.000000
vn 0.000000 0.000000 -1.000000
vn 0.000000 0.000000 -1.000000
vn 0.000000 0.000000 -1.000000
vn 0.000000 0.000000 -1.000000
vn 0.000000 0.000000 -1.000000
vn 0.000000 0.000000 -1.000000
vn 0.000000 0.000000 -1.000000
vn 0.000000 0.000000 -1.000000
vn 0.000000 0.000000 -1.000000
vn -0.000000 0.000000 -1.000000
vn 0.000000 0.000000 -1.000000
vn 0.000000 0.000000 -1.000000
vn -0.000000 0.000000 -1.000000
vn -0.000000 0.000000 -1.000000
vn -0.000000 0.000000 -1.000000
vn -0.000000 0.000000 -1.000000
vn -0.000000 0.000000 -1.000000
vn 0.923880 -0.382682 0.000000
vn 0.923880 -0.382682 0.000000
vn 0.923880 -0.382682 0.000000
vn 0.923880 -0.382682 0.000000
vn 0.923880 0.382682 0.000000
vn 0.923880 0.382682 0.000000
vn 0.923880 0.382682 0.000000
vn 0.923880 0.382682 0.000000
vn 0.382682 0.923880 0.000000
vn 0.382682 0.923880 0.000000
vn 0.382682 0.923880 0.000000
vn 0.382682 0.923880 0.000000
vn -0.382682 0.923880 0.000000
vn -0.382682 0.923880 0.000000
vn -0.382682 0.923880 0.000000
vn -0.382682 0.923880 0.000000
vn -0.923880 0.382682 0.000000
vn -0.923880 0.382682 0.000000
vn -0.923880 0.382682 0.000000
vn -0.923880 0.382682 0.000000
vn -0.923880 -0.382682 0.000000
vn -0.923880 -0.382682 0.000000
vn -0.923880 -0.382682 0.000000
vn -0.923880 -0.382682 0.000000
vn -0.382684 -0.923879 0.000000
vn -0.382684 -0.923879 0.000000
vn -0.382684 -0.923879 0.000000
vn -0.382684 -0.923879 0.000000
vn 0.382684 -0.923879 0.000000
vn 0.382684 -0.923879 0.000000
vn 0.382684 -0.923879 0.000000
vn 0.382684 -0.923879 0.000000
s off
f 1/9/1 2/10/2 10/19/3 9/18/4
f 2/10/5 3/11/6 11/20/7 10/19/8
f 3/11/9 4/12/10 12/21/11 11/20/12
f 4/12/13 5/13/14 13/22/15 12/21/16
f 5/13/17 6/14/18 14/23/19 13/22/20
f 6/14/21 7/15/22 15/24/23 14/23/24
f 7/15/25 8/16/26 16/25/27 15/24/28
f 8/16/29 1/17/30 9/26/31 16/25/32
f 59/85/33 58/86/34 60/35/35
f 61/87/36 59/85/37 60/35/38
f 62/88/39 61/87/40 60/35/41
f 63/89/42 62/88/43 60/35/44
f 64/90/45 63/89/46 60/35/47
f 65/91/48 64/90/49 60/35/50
f 66/92/51 65/91/52 60/35/53
f 58/86/54 66/92/55 60/35/56
f 25/36/57 26/53/58 27/54/59
f 26/53/60 28/55/61 27/54/62
f 28/55/63 29/56/64 27/54/65
f 29/56/66 30/57/67 27/54/68
f 30/57/69 31/58/70 27/54/71
f 31/58/72 32/59/73 27/54/74
f 32/59/75 33/60/76 27/54/77
f 33/60/78 25/36/79 27/54/80
f 9/33/81 10/32/82 18/38/83 17/37/84
f 10/32/85 11/31/86 19/39/87 18/38/88
f 11/31/89 12/30/90 20/40/91 19/39/92
f 12/30/93 13/29/94 21/41/95 20/40/96
f 13/29/97 14/28/98 22/42/99 21/41/100
f 14/28/101 15/27/102 23/43/103 22/42/104
f 15/27/105 16/34/106 24/44/107 23/43/108
f 16/34/109 9/33/110 17/37/111 24/44/112
f 17/37/113 18/38/114 26/46/115 25/45/116
f 18/38/117 19/39/118 28/47/119 26/46/120
f 19/39/121 20/40/122 29/48/123 28/47/124
f 20/40/125 21/41/126 30/49/127 29/48/128
f 21/41/129 22/42/130 31/50/131 30/49/132
f 22/42/133 23/43/134 32/51/135 31/50/136
f 23/43/137 24/44/138 33/52/139 32/51/140
f 24/44/141 17/37/142 25/45/143 33/52/144
f 2/2/145 1/1/146 34/62/147 35/61/148
f 3/3/149 2/2/150 35/61/151 36/63/152
f 4/4/153 3/3/154 36/63/155 37/64/156
f 5/5/157 4/4/158 37/64/159 38/65/160
f 6/6/161 5/5/162 38/65/163 39/66/164
f 7/7/165 6/6/166 39/66/167 40/67/168
f 8/8/169 7/7/170 40/67/171 41/68/172
f 1/1/173 8/8/174 41/68/175 34/62/176
f 35/61/177 34/62/178 42/70/179 43/69/180
f 36/63/181 35/61/182 43/69/183 44/71/184
f 37/64/185 36/63/186 44/71/187 45/72/188
f 38/65/189 37/64/190 45/72/191 46/73/192
f 39/66/193 38/65/194 46/73/195 47/74/196
f 40/67/197 39/66/198 47/74/199 48/75/200
f 41/68/201 40/67/202 48/75/203 49/76/204
f 34/62/205 41/68/206 49/76/207 42/70/208
f 43/69/209 42/70/210 50/78/211 51/77/212
f 44/71/213 43/69/214 51/77/215 52/79/216
f 45/72/217 44/71/218 52/79/219 53/80/220
f 46/73/221 45/72/222 53/80/223 54/81/224
f 47/74/225 46/73/226 54/81/227 55/82/228
f 48/75/229 47/74/230 55/82/231 56/83/232
f 49/76/233 48/75/234 56/83/235 57/84/236
f 42/70/237 49/76/238 57/84/239 50/78/240
f 51/77/241 50/78/242 58/86/243 59/85/244
f 52/79/245 51/77/246 59/85/247 61/87/248
f 53/80/249 52/79/250 61/87/251 62/88/252
f 54/81/253 53/80/254 62/88/255 63/89/256
f 55/82/257 54/81/258 63/89/259 64/90/260
f 56/83/261 55/82/262 64/90/263 65/91/264
f 57/84/265 56/83/266 65/91/267 66/92/268
f 50/78/269 57/84/270 66/92/271 58/86/272
