# This file uses centimeters as units for non-parametric coordinates.

v -0.181481 -0.261503 0.181481
v 0.181481 -0.261503 0.181481
v -0.002061 0.657102 -0.002375
v -0.181481 -0.261503 -0.181481
v 0.181481 -0.261503 -0.181481
v 0.000000 -0.452436 0.000000
v -0.120157 0.178620 0.121974
v -0.120157 0.178620 -0.140913
v 0.142730 0.178620 -0.140913
v 0.142730 0.178620 0.121974
vt 0.376848 0.029434
vt 0.376848 0.029434
vt 0.377399 0.039035
vt 0.377399 0.039035
vt 0.379833 0.039035
vt 0.379833 0.039035
vt 0.380208 0.029434
vt 0.380208 0.029434
vt 0.378528 0.025269
vt 0.378550 0.049474
vn 0.000000 0.133987 0.990983
vn 0.000000 0.133987 0.990983
vn 0.000000 0.133987 0.990983
vn 0.000000 0.133987 0.990983
vn 0.000000 0.133987 0.990983
vn 0.000000 0.133987 0.990983
vn 0.000000 0.091785 -0.995779
vn 0.000000 0.091785 -0.995779
vn 0.000000 0.091785 -0.995779
vn 0.000000 0.091785 -0.995779
vn 0.000000 0.091785 -0.995779
vn 0.000000 0.091785 -0.995779
vn 0.996146 0.087706 0.000000
vn 0.996146 0.087707 -0.000000
vn 0.996146 0.087707 -0.000000
vn 0.996146 0.087707 -0.000000
vn 0.996146 0.087707 -0.000000
vn 0.996146 0.087707 -0.000000
vn -0.990432 0.138001 0.000000
vn -0.990432 0.138001 -0.000000
vn -0.990432 0.138001 -0.000000
vn -0.990432 0.138001 -0.000000
vn -0.990432 0.138001 -0.000000
vn -0.990432 0.138001 -0.000000
vn 0.000000 -0.688938 -0.724820
vn 0.000000 -0.688938 -0.724820
vn 0.000000 -0.688938 -0.724820
vn 0.724820 -0.688938 0.000000
vn 0.724820 -0.688938 0.000000
vn 0.724820 -0.688938 0.000000
vn 0.000000 -0.688938 0.724820
vn 0.000000 -0.688938 0.724820
vn 0.000000 -0.688938 0.724820
vn -0.724820 -0.688938 0.000000
vn -0.724820 -0.688938 0.000000
vn -0.724820 -0.688938 0.000000
vn -0.970866 0.239622 -0.000000
vn -0.970866 0.239622 -0.000000
vn -0.970866 0.239622 -0.000000
vn 0.000000 0.278113 -0.960548
vn 0.000000 0.278113 -0.960548
vn 0.000000 0.278113 -0.960548
vn 0.957137 0.289636 -0.000000
vn 0.957137 0.289636 -0.000000
vn 0.957137 0.289636 -0.000000
vn 0.000000 0.251528 0.967850
vn 0.000000 0.251528 0.967850
vn 0.000000 0.251528 0.967850
s off
f 1/1/1 2/2/2 7/4/3
f 7/4/4 2/2/5 10/3/6
f 9/6/7 5/7/8 8/5/9
f 8/5/10 5/7/11 4/8/12
f 2/2/13 5/7/14 10/3/15
f 10/3/16 5/7/17 9/6/18
f 1/1/19 7/4/20 4/8/21
f 4/8/22 7/4/23 8/5/24
f 4/8/25 5/7/26 6/9/27
f 5/7/28 2/2/29 6/9/30
f 2/2/31 1/1/32 6/9/33
f 1/1/34 4/8/35 6/9/36
f 8/5/37 7/4/38 3/10/39
f 3/10/40 9/6/41 8/5/42
f 10/3/43 9/6/44 3/10/45
f 7/4/46 10/3/47 3/10/48
