# This file uses centimeters as units for non-parametric coordinates.

v -33.713928 -45.120296 -0.999527
v 44.573475 10.293732 39.378780
v -42.434292 -0.003222 41.833107
v 40.102947 42.233093 12.310819
v -2.169014 41.202744 -31.988388
v 44.262974 7.925537 -45.943829
v -44.417473 1.446321 -40.262451
v 44.325481 -39.880222 -3.069316
v -46.609585 34.716331 -0.204991
v -0.189822 -33.711296 -51.357143
v -2.118969 46.670727 36.867516
v -0.622415 -43.257572 40.224056
v -60.799694 -0.193969 1.148677
v 1.247316 12.707501 60.329899
v 60.799694 12.605863 0.822398
v -5.516811 17.814575 -60.599373
vt 0.316949 0.307246
vt 0.316949 0.307246
vt 0.316949 0.307246
vt 0.316949 0.307246
vt 0.316949 0.307246
vt 0.316949 0.307246
vt 0.316949 0.307246
vt 0.316949 0.307246
vt 0.316949 0.307246
vt 0.316949 0.307246
vt 0.316949 0.307246
vt 0.316949 0.307246
vt 0.316949 0.307246
vt 0.316949 0.307246
vt 0.316949 0.307246
vt 0.316949 0.307246
vt 0.316949 0.307246
vt 0.316949 0.307246
vt 0.316949 0.307246
vt 0.316949 0.307246
vt 0.316949 0.307246
vt 0.316949 0.307246
vt 0.316949 0.307246
vt 0.316949 0.307246
vn 0.417280 0.583694 0.696548
vn 0.417280 0.583694 0.696548
vn 0.417280 0.583694 0.696548
vn 0.417280 0.583694 0.696548
vn 0.435176 0.789050 -0.433614
vn 0.435176 0.789050 -0.433614
vn 0.435176 0.789050 -0.433614
vn 0.324572 0.713353 -0.621112
vn 0.324572 0.713353 -0.621112
vn 0.324572 0.713353 -0.621112
vn 0.716107 0.622602 -0.315528
vn 0.716107 0.622602 -0.315528
vn 0.716107 0.622602 -0.315528
vn -0.501862 0.651682 -0.568723
vn -0.501862 0.651682 -0.568723
vn -0.501862 0.651682 -0.568723
vn 0.822479 0.430335 0.371941
vn 0.822479 0.430335 0.371941
vn 0.822479 0.430335 0.371941
vn 0.616107 -0.510510 0.599827
vn 0.616107 -0.510510 0.599827
vn 0.616107 -0.510510 0.599827
vn -0.850741 0.360629 0.382343
vn -0.850741 0.360629 0.382343
vn -0.850741 0.360629 0.382343
vn -0.603711 -0.590417 -0.535668
vn -0.603711 -0.590417 -0.535668
vn -0.603711 -0.590417 -0.535668
vn -0.543452 0.679964 -0.492249
vn -0.543452 0.679964 -0.492249
vn -0.543452 0.679964 -0.492249
vn -0.198013 0.977135 -0.077452
vn -0.198013 0.977135 -0.077452
vn -0.198013 0.977135 -0.077452
vn -0.607153 0.581991 0.540974
vn -0.607153 0.581991 0.540974
vn -0.607153 0.581991 0.540974
vn -0.456717 0.474551 0.752470
vn -0.456717 0.474551 0.752469
vn -0.456717 0.474551 0.752470
vn 0.066768 -0.997732 -0.008514
vn 0.066768 -0.997732 -0.008514
vn 0.066768 -0.997732 -0.008514
vn -0.791418 -0.494334 0.359572
vn -0.791418 -0.494334 0.359572
vn -0.791418 -0.494334 0.359572
vn -0.290945 -0.314850 0.903449
vn -0.290945 -0.314850 0.903449
vn -0.290945 -0.314850 0.903449
vn 0.397560 -0.321968 0.859234
vn 0.397560 -0.321968 0.859234
vn 0.397560 -0.321968 0.859234
vn 0.884498 -0.303873 0.354013
vn 0.884498 -0.303873 0.354013
vn 0.884498 -0.303873 0.354013
vn 0.916947 -0.265740 -0.297641
vn 0.916947 -0.265740 -0.297641
vn 0.916947 -0.265740 -0.297641
vn 0.252720 -0.145449 -0.956545
vn 0.252720 -0.145449 -0.956545
vn 0.252720 -0.145449 -0.956545
vn -0.385924 -0.201383 -0.900282
vn -0.385924 -0.201383 -0.900282
vn -0.385924 -0.201383 -0.900282
vn -0.812434 -0.473546 -0.340155
vn -0.812434 -0.473546 -0.340155
vn -0.812434 -0.473546 -0.340156
vn 0.058605 0.995145 -0.079069
vn 0.058605 0.995145 -0.079069
vn 0.058605 0.995145 -0.079069
vn -0.877761 0.343850 -0.333622
vn -0.877761 0.343850 -0.333622
vn -0.877761 0.343850 -0.333622
vn 0.581946 -0.542544 -0.605793
vn 0.581946 -0.542544 -0.605793
vn 0.581946 -0.542544 -0.605793
vn 0.061082 -0.981456 -0.181694
vn 0.061082 -0.981456 -0.181694
vn 0.061082 -0.981456 -0.181694
vn -0.606873 -0.605775 0.514530
vn -0.606873 -0.605775 0.514530
vn -0.606873 -0.605775 0.514530
s off
f 11/18/1 14/22/2 2/2/3 4/4/4
f 5/5/5 4/4/6 6/6/7
f 6/6/8 16/24/9 5/5/10
f 4/4/11 15/23/12 6/12/13
f 7/13/14 9/15/15 5/14/16
f 2/2/17 15/23/18 4/4/19
f 12/20/20 8/8/21 2/10/22
f 9/15/23 13/21/24 3/3/25
f 7/7/26 10/17/27 1/9/28
f 5/5/29 16/24/30 7/7/31
f 9/16/32 11/18/33 5/5/34
f 3/3/35 11/18/36 9/16/37
f 3/3/38 14/22/39 11/18/40
f 1/9/41 8/8/42 12/20/43
f 3/3/44 13/21/45 1/1/46
f 3/3/47 12/19/48 14/22/49
f 2/2/50 14/22/51 12/19/52
f 2/2/53 8/11/54 15/23/55
f 6/12/56 15/23/57 8/11/58
f 10/17/59 16/24/60 6/6/61
f 7/7/62 16/24/63 10/17/64
f 7/13/65 1/1/66 13/21/67
f 5/5/68 11/18/69 4/4/70
f 7/13/71 13/21/72 9/15/73
f 10/17/74 6/6/75 8/8/76
f 1/9/77 10/17/78 8/8/79
f 1/1/80 12/19/81 3/3/82
