# This file uses centimeters as units for non-parametric coordinates.

v -3.131847 -4.062462 -0.213563
v 4.457359 1.029377 3.937874
v 3.560944 3.987427 1.269073
v -0.216901 4.120293 -3.198833
v -4.441757 0.144632 -4.026260
v -4.660950 3.471642 -0.020499
v -1.508760 -3.127899 -4.446526
v -0.264456 4.325409 3.055840
v -6.079979 -0.019397 0.114868
v 0.124731 1.270752 6.032982
v 5.886803 1.260586 0.082240
v -0.551682 1.781464 -6.059952
v 3.657646 2.790756 -3.435364
v 1.934032 -0.630846 -5.524712
v 5.177612 -1.236506 -1.677399
v -4.944115 -1.157646 2.399693
v -3.932686 1.621094 3.524551
v -1.912861 -2.101326 4.581032
v -0.081382 -4.292297 2.138424
v 1.499414 -2.627678 4.442406
v -0.081382 -4.292297 2.138424
v -1.912861 -2.101326 4.581032
v 4.555283 -2.079029 1.342955
v 1.924782 -4.208679 -2.315731
v 2.988949 -3.614883 1.436796
vt 0.316949 0.307246
vt 0.316949 0.307246
vt 0.316949 0.307246
vt 0.316949 0.307246
vt 0.316949 0.307246
vt 0.316949 0.307246
vt 0.316949 0.307246
vt 0.316949 0.307246
vt 0.316949 0.307246
vt 0.316949 0.307246
vt 0.316949 0.307246
vt 0.316949 0.307246
vt 0.316949 0.307246
vt 0.316949 0.307246
vt 0.316949 0.307246
vt 0.316949 0.307246
vt 0.316949 0.307246
vt 0.316949 0.307246
vt 0.316949 0.307246
vt 0.316949 0.307246
vt 0.316949 0.307246
vt 0.316949 0.307246
vt 0.316949 0.307246
vt 0.316949 0.307246
vt 0.316949 0.307246
vt 0.316949 0.307246
vt 0.316949 0.307246
vt 0.316949 0.307246
vt 0.316949 0.307246
vt 0.316949 0.307246
vt 0.316949 0.307246
vt 0.316949 0.307246
vt 0.316949 0.307246
vt 0.316949 0.307246
vt 0.316949 0.307246
vt 0.316949 0.307246
vn 0.354102 0.679291 0.642788
vn 0.354102 0.679291 0.642788
vn 0.354102 0.679291 0.642788
vn 0.354102 0.679291 0.642788
vn 0.303403 0.924926 -0.229037
vn 0.303403 0.924926 -0.229037
vn 0.303403 0.924926 -0.229037
vn 0.765121 0.007725 -0.643840
vn 0.765121 0.007725 -0.643840
vn 0.765121 0.007725 -0.643840
vn 0.716201 0.679731 -0.158182
vn 0.716201 0.679731 -0.158182
vn 0.716201 0.679731 -0.158182
vn -0.501862 0.651683 -0.568721
vn -0.501862 0.651683 -0.568721
vn -0.501862 0.651683 -0.568721
vn 0.784870 0.529000 0.322706
vn 0.784870 0.529000 0.322706
vn 0.784870 0.529000 0.322706
vn -0.094194 -0.775173 0.624688
vn -0.000000 -0.000000 0.000000
vn -0.000000 -0.000000 0.000000
vn -0.094194 -0.775173 0.624688
vn -0.857298 0.362642 0.365418
vn -0.857298 0.362642 0.365418
vn -0.857298 0.362642 0.365418
vn -0.707469 -0.582708 -0.399923
vn -0.707469 -0.582708 -0.399924
vn -0.707469 -0.582708 -0.399924
vn -0.543452 0.679964 -0.492249
vn -0.543452 0.679964 -0.492249
vn -0.543452 0.679964 -0.492249
vn -0.167826 0.985244 -0.033586
vn -0.167826 0.985244 -0.033586
vn -0.167826 0.985244 -0.033586
vn 0.000000 -0.000000 0.000000
vn 0.233554 -0.968443 0.087013
vn 0.233554 -0.968443 0.087013
vn 0.000000 -0.000000 0.000000
vn 0.415544 -0.214147 0.884005
vn 0.415544 -0.214147 0.884005
vn 0.415544 -0.214147 0.884005
vn 0.914389 -0.242077 0.324486
vn 0.914389 -0.242077 0.324485
vn 0.914389 -0.242077 0.324485
vn -0.082895 -0.296518 -0.951423
vn -0.082895 -0.296518 -0.951423
vn -0.082895 -0.296518 -0.951423
vn -0.376692 -0.222117 -0.899315
vn -0.376692 -0.222117 -0.899315
vn -0.376692 -0.222117 -0.899315
vn -0.775732 -0.538987 -0.328227
vn -0.775732 -0.538987 -0.328227
vn -0.775732 -0.538987 -0.328227
vn 0.073061 0.996810 -0.032134
vn 0.073061 0.996810 -0.032134
vn 0.073061 0.996810 -0.032134
vn -0.877760 0.343854 -0.333620
vn -0.877760 0.343854 -0.333620
vn -0.877760 0.343854 -0.333620
vn 0.243905 -0.647876 -0.721642
vn 0.243905 -0.647876 -0.721642
vn 0.243905 -0.647876 -0.721642
vn -0.137113 -0.954894 -0.263398
vn -0.137113 -0.954894 -0.263398
vn -0.137113 -0.954893 -0.263398
vn -0.536866 -0.724238 0.432729
vn -0.536866 -0.724238 0.432729
vn -0.536866 -0.724238 0.432729
vn 0.216428 0.743322 -0.632955
vn 0.216428 0.743322 -0.632955
vn 0.216428 0.743322 -0.632955
vn 0.860215 0.107026 -0.498574
vn 0.860215 0.107026 -0.498574
vn 0.860215 0.107026 -0.498574
vn 0.457279 0.284220 -0.842683
vn 0.457279 0.284220 -0.842683
vn 0.457279 0.284220 -0.842683
vn -0.601732 -0.101667 0.792201
vn -0.601732 -0.101667 0.792201
vn -0.601732 -0.101667 0.792201
vn -0.479395 0.733721 0.481492
vn -0.479395 0.733721 0.481492
vn -0.479395 0.733721 0.481492
vn -0.371577 0.623278 0.688081
vn -0.371577 0.623278 0.688081
vn -0.371577 0.623278 0.688081
vn -0.799715 -0.591497 0.102895
vn -0.799715 -0.591497 0.102895
vn -0.799715 -0.591497 0.102895
vn -0.000000 -0.000000 0.000000
vn -0.000000 -0.000000 0.000000
vn -0.021776 -0.384255 0.922970
vn -0.021776 -0.384255 0.922970
vn -0.864799 0.117122 0.488268
vn -0.864799 0.117122 0.488268
vn -0.864799 0.117122 0.488268
vn -0.528166 -0.045942 0.847898
vn -0.528166 -0.045942 0.847898
vn -0.528166 -0.045942 0.847898
vn 0.670873 -0.462670 0.579540
vn 0.670873 -0.462670 0.579540
vn 0.670873 -0.462670 0.579540
vn 0.286468 -0.859093 0.424142
vn 0.286468 -0.859093 0.424142
vn 0.286468 -0.859093 0.424142
vn -0.394207 -0.811153 0.432010
vn -0.394207 -0.811153 0.432010
vn -0.000000 -0.000000 0.000000
vn -0.000000 -0.000000 0.000000
vn 0.685685 -0.724394 -0.071334
vn 0.685685 -0.724394 -0.071334
vn 0.685685 -0.724394 -0.071334
vn 0.685685 -0.724394 -0.071334
vn 0.936629 -0.335963 0.099272
vn 0.936629 -0.335963 0.099272
vn 0.936629 -0.335963 0.099272
vn 0.603551 -0.533231 -0.592783
vn 0.603551 -0.533231 -0.592783
vn 0.603551 -0.533231 -0.592783
vn 0.619693 -0.601162 0.504565
vn 0.619693 -0.601162 0.504565
vn 0.619693 -0.601162 0.504565
vn -0.045100 -0.998219 -0.039053
vn -0.045100 -0.998219 -0.039053
vn -0.045100 -0.998219 -0.039053
s off
f 8/13/1 10/15/2 2/2/3 3/3/4
f 4/4/5 3/3/6 13/18/7
f 15/22/8 14/20/9 13/19/10
f 3/3/11 11/16/12 13/19/13
f 5/8/14 6/10/15 4/9/16
f 2/2/17 11/16/18 3/3/19
f 22/32/20 21/30/21 19/27/22 20/29/23
f 6/10/24 9/14/25 17/24/26
f 5/5/27 7/12/28 1/6/29
f 4/4/30 12/17/31 5/5/32
f 6/11/33 8/13/34 4/4/35
f 21/30/36 24/35/37 25/36/38 19/27/39
f 2/2/40 10/15/41 20/29/42
f 2/2/43 23/34/44 11/16/45
f 7/12/46 12/17/47 14/20/48
f 5/5/49 12/17/50 7/12/51
f 5/8/52 1/1/53 9/14/54
f 4/4/55 8/13/56 3/3/57
f 5/8/58 9/14/59 6/10/60
f 7/12/61 14/20/62 24/35/63
f 1/6/64 7/12/65 24/35/66
f 1/1/67 18/26/68 16/23/69
f 13/18/70 12/17/71 4/4/72
f 13/19/73 11/16/74 15/21/75
f 13/18/76 14/20/77 12/17/78
f 18/26/79 17/24/80 16/23/81
f 17/25/82 8/13/83 6/11/84
f 17/25/85 10/15/86 8/13/87
f 16/23/88 9/14/89 1/1/90
f 18/26/91 22/32/92 20/29/93 10/15/94
f 17/24/95 9/14/96 16/23/97
f 17/25/98 18/26/99 10/15/100
f 20/28/101 23/33/102 2/7/103
f 20/28/104 19/27/105 25/36/106
f 1/1/107 21/31/108 22/32/109 18/26/110
f 25/36/111 24/35/112 15/21/113 23/33/114
f 11/16/115 23/34/116 15/21/117
f 24/35/118 14/20/119 15/22/120
f 20/28/121 25/36/122 23/33/123
f 1/6/124 24/35/125 21/30/126
