# This file uses centimeters as units for non-parametric coordinates.

v 125.001633 85.712738 1.418316
v 16.045870 30.907682 1.418330
v 24.673054 31.372549 0.618305
v 125.001617 81.835083 0.618301
v 125.001587 65.649750 0.618298
v 56.841789 31.372549 0.618300
v 125.001541 61.772247 1.418297
v 63.632446 30.907694 1.418303
v 125.001617 81.835152 -86.226433
v 186.365891 30.907681 1.418307
v 193.156708 31.372536 0.618305
v 6.738966 26.226278 9.474895
v 125.001678 85.712677 9.474888
v 125.001541 61.772247 9.474888
v 195.673401 26.226261 9.474897
v 54.324215 26.226276 9.474893
v 125.001587 65.649750 -4.102951
v 62.464619 34.115913 -4.102951
v 187.535202 34.115902 -4.102951
v 225.324677 31.372530 0.618312
v 243.256866 26.226255 9.474903
v 233.950531 30.907665 1.418330
v 62.464615 34.115913 -4.102951
v 160.808517 45.121197 9.474894
v 178.588440 57.397999 9.474895
v 176.469757 59.822491 1.418322
v 159.247208 44.547630 1.418303
v 32.070366 38.968025 9.474895
v 83.803207 64.989761 9.474891
v 59.510601 48.999916 9.474892
v 48.020657 46.991062 5.042113
vt 0.194621 0.128069
vt 0.195095 0.128305
vt 0.971833 0.017872
vt 0.972125 0.378199
vt 0.194471 0.108452
vt 0.195018 0.108534
vt 0.194621 0.128170
vt 0.194887 0.128305
vt 0.584227 0.378199
vt 0.194378 0.128295
vt 0.194985 0.108547
vt 0.194493 0.108470
vt 0.195137 0.128327
vt 0.194613 0.128066
vt 0.194613 0.128169
vt 0.194329 0.128316
vt 0.194621 0.128085
vt 0.195055 0.128302
vt 0.194925 0.128327
vt 0.194621 0.128154
vt 0.194915 0.128302
vt 0.194080 0.108826
vt 0.194018 0.108843
vt 0.194985 0.108547
vt 0.194192 0.128296
vt 0.194352 0.128294
vt 0.972208 0.017878
vt 0.194226 0.128294
vt 0.194140 0.128316
vt 0.194458 0.128249
vt 0.194409 0.128174
vt 0.194418 0.128176
vt 0.194485 0.128240
vt 0.195025 0.128271
vt 0.194796 0.128157
vt 0.194903 0.128227
vt 0.194956 0.128236
vn -0.449358 0.893352 0.000006
vn -0.449358 0.893352 0.000006
vn -0.449358 0.893352 0.000006
vn -0.449358 0.893352 0.000006
vn -0.101152 0.201102 -0.974334
vn -0.101152 0.201102 -0.974334
vn -0.101152 0.201102 -0.974334
vn -0.101152 0.201102 -0.974334
vn -0.449337 0.893362 0.000001
vn -0.449337 0.893362 0.000001
vn -0.449337 0.893362 0.000001
vn 0.449726 -0.893128 0.008320
vn 0.449726 -0.893128 0.008320
vn 0.449726 -0.893128 0.008320
vn 0.449726 -0.893128 0.008320
vn 0.101069 -0.200968 -0.974370
vn 0.101069 -0.200968 -0.974370
vn 0.101069 -0.200968 -0.974370
vn 0.101069 -0.200968 -0.974370
vn 0.449357 0.893352 0.000001
vn 0.449357 0.893352 0.000001
vn 0.449357 0.893352 0.000001
vn -0.101058 -0.200934 -0.974378
vn -0.101058 -0.200934 -0.974378
vn -0.101058 -0.200934 -0.974378
vn -0.101058 -0.200934 -0.974378
vn -0.449748 -0.893117 0.008272
vn -0.449748 -0.893117 0.008272
vn -0.449748 -0.893117 0.008272
vn -0.449748 -0.893117 0.008272
vn -0.000000 0.000000 1.000000
vn -0.000000 0.000000 1.000000
vn -0.000000 0.000000 1.000000
vn -0.000000 0.000000 1.000000
vn 0.000000 -0.000000 1.000000
vn 0.000000 -0.000000 1.000000
vn 0.000000 -0.000000 1.000000
vn 0.000000 -0.000000 1.000000
vn 0.449309 -0.893377 -0.000000
vn 0.449309 -0.893377 -0.000000
vn 0.449309 -0.893377 -0.000000
vn 0.449309 -0.893377 -0.000000
vn -0.462981 -0.882046 0.087429
vn -0.462981 -0.882046 0.087429
vn -0.462981 -0.882046 0.087429
vn -0.462981 -0.882046 0.087429
vn 0.101121 0.201023 -0.974353
vn 0.101121 0.201023 -0.974353
vn 0.101121 0.201023 -0.974353
vn 0.457299 0.886293 0.073231
vn 0.457299 0.886293 0.073231
vn 0.457299 0.886293 0.073231
vn 0.457299 0.886293 0.073231
vn -0.000000 0.000000 1.000000
vn -0.000000 0.000000 1.000000
vn -0.000000 0.000000 1.000000
vn -0.000000 0.000000 1.000000
vn -0.000000 0.000000 1.000000
vn -0.000000 0.000000 1.000000
vn -0.000000 0.000000 1.000000
vn 0.439895 0.894256 0.082461
vn 0.439895 0.894256 0.082461
vn 0.439895 0.894256 0.082461
vn 0.439895 0.894256 0.082461
vn 0.101176 0.201139 -0.974324
vn 0.101176 0.201139 -0.974324
vn 0.101176 0.201139 -0.974324
vn 0.101176 0.201139 -0.974324
vn -0.434150 -0.897794 0.074026
vn -0.434150 -0.897794 0.074026
vn -0.434150 -0.897794 0.074026
vn -0.434150 -0.897794 0.074026
vn -0.101110 -0.201026 -0.974354
vn -0.101110 -0.201026 -0.974354
vn -0.101110 -0.201026 -0.974354
vn -0.379825 0.577050 0.723012
vn -0.379825 0.577050 0.723012
vn -0.379825 0.577050 0.723012
vn -0.311422 0.851834 0.421183
vn -0.311422 0.851834 0.421183
vn -0.311422 0.851834 0.421183
vn 0.000000 -0.000000 1.000000
vn 0.000000 -0.000000 1.000000
vn 0.000000 -0.000000 1.000000
vn 0.000000 -0.000000 1.000000
vn 0.000000 0.000000 1.000000
vn 0.000000 0.000000 1.000000
vn 0.000000 0.000000 1.000000
vn -0.449358 0.893352 0.000001
vn -0.449358 0.893352 0.000001
vn -0.449358 0.893352 0.000001
vn -0.449358 0.893352 0.000001
vn -0.449358 0.893352 0.000011
vn -0.449358 0.893352 0.000011
vn -0.449358 0.893352 0.000011
s off
f 1/1/1 31/37/2 29/35/3 13/14/4
f 3/18/5 2/2/6 1/1/7 4/17/8
f 9/9/9 3/3/10 4/4/11
f 5/5/12 6/6/13 18/11/14 17/12/15
f 7/7/16 8/8/17 6/21/18 5/20/19
f 20/27/20 9/9/21 4/4/22
f 11/26/23 10/10/24 27/33/25 5/20/26
f 19/22/27 11/23/28 5/5/29 17/12/30
f 14/15/31 24/30/32 25/31/33 13/14/34
f 16/19/35 30/36/36 28/34/37 12/13/38
f 8/8/39 7/7/40 14/15/41 16/19/42
f 24/30/43 27/33/44 10/10/45 15/16/46
f 26/32/47 4/17/48 1/1/49
f 1/1/50 13/14/51 25/31/52 26/32/53
f 19/22/54 17/12/55 23/24/56
f 25/31/57 24/30/58 15/16/59 21/29/60
f 26/32/61 25/31/62 21/29/63 22/25/64
f 22/25/65 20/28/66 4/17/67 26/32/68
f 14/15/69 7/7/70 27/33/71 24/30/72
f 5/20/73 27/33/74 7/7/75
f 29/35/76 31/37/77 30/36/78
f 30/36/79 31/37/80 28/34/81
f 30/36/82 14/15/83 13/14/84 29/35/85
f 16/19/86 14/15/87 30/36/88
f 31/37/89 2/2/90 12/13/91 28/34/92
f 1/1/93 2/2/94 31/37/95
