# This file uses centimeters as units for non-parametric coordinates.

v 0.000000 0.000000 103.467125
v 249.999146 0.000000 103.467125
v 0.000000 299.999817 103.467125
v 249.999146 299.999817 103.467125
v 0.000000 299.999817 0.000000
v 249.999146 299.999817 0.000000
v 0.000000 0.000000 0.000000
v 249.999146 0.000000 0.000000
v 0.000000 195.674576 103.467125
v 0.000000 223.736862 103.467125
v 4.579121 205.003510 103.467125
v 0.000000 206.309280 94.421646
v 249.999146 251.925140 103.467125
v 249.999146 292.750336 103.467125
v 245.706665 275.743469 103.467125
v 249.999146 281.182739 97.135361
v 249.999146 267.026154 97.115349
vt 0.993128 0.001732
vt 1.400509 0.001733
vt 1.400509 0.998284
vt 0.993128 0.998283
vt -0.400447 0.001732
vt 0.006934 0.001732
vt 0.006934 0.998283
vt -0.400447 0.998283
vt 0.993128 1.341985
vt 0.006935 1.341985
vt 0.006934 -0.341969
vt 0.993128 -0.341969
vt 0.006934 0.651732
vt 0.006934 0.744950
vt 0.024998 0.682721
vt -0.028681 0.687059
vt 0.993128 0.838587
vt 0.993128 0.974202
vt 0.976195 0.917708
vt 1.018059 0.935776
vt 1.018137 0.888749
vn 0.000000 0.000000 1.000000
vn 0.000000 0.000000 1.000000
vn 0.000000 0.000000 1.000000
vn 0.000000 0.000000 1.000000
vn 0.000000 1.000000 0.000000
vn 0.000000 1.000000 0.000000
vn 0.000000 1.000000 0.000000
vn 0.000000 1.000000 0.000000
vn 0.000000 -1.000000 0.000000
vn 0.000000 -1.000000 0.000000
vn 0.000000 -1.000000 0.000000
vn 0.000000 -1.000000 0.000000
vn 1.000000 0.000000 0.000000
vn 1.000000 0.000000 0.000000
vn 1.000000 0.000000 0.000000
vn 1.000000 0.000000 0.000000
vn -1.000000 0.000000 0.000000
vn -1.000000 0.000000 0.000000
vn -1.000000 0.000000 0.000000
vn -1.000000 0.000000 0.000000
vn -0.883352 -0.215924 0.416012
vn -0.883352 -0.215924 0.416012
vn -0.883352 -0.215924 0.416012
vn -0.797080 0.391248 0.459987
vn -0.797080 0.391248 0.459987
vn -0.797080 0.391248 0.459987
vn -1.000000 0.000000 0.000000
vn -1.000000 0.000000 0.000000
vn -1.000000 0.000000 0.000000
vn -1.000000 0.000000 0.000000
vn -1.000000 0.000000 0.000000
vn -1.000000 0.000000 0.000000
vn -1.000000 0.000000 0.000000
vn 0.828039 -0.000793 0.560669
vn 0.828039 -0.000793 0.560669
vn 0.828039 -0.000793 0.560669
vn 0.885156 -0.223410 0.408151
vn 0.885156 -0.223410 0.408151
vn 0.885156 -0.223410 0.408151
vn 0.906825 0.163426 0.388537
vn 0.906825 0.163426 0.388537
vn 0.906825 0.163426 0.388537
vn 0.000000 0.000000 1.000000
vn 0.000000 0.000000 1.000000
vn 0.000000 0.000000 1.000000
vn 0.000000 0.000000 1.000000
vn -0.000000 0.000000 1.000000
vn -0.000000 0.000000 1.000000
vn -0.000000 0.000000 1.000000
vn -0.000000 0.000000 1.000000
vn 0.000000 0.000000 1.000000
vn 0.000000 0.000000 1.000000
vn 0.000000 0.000000 1.000000
vn 0.000000 0.000000 1.000000
vn 1.000000 0.000000 0.000000
vn 1.000000 0.000000 0.000000
vn 1.000000 0.000000 0.000000
vn 1.000000 0.000000 0.000000
vn 1.000000 -0.000000 0.000000
vn 1.000000 -0.000000 0.000000
vn 1.000000 -0.000000 0.000000
vn 1.000000 -0.000000 0.000000
s off
f 3/7/1 15/19/2 14/18/3 4/4/4
f 3/7/5 4/4/6 6/9/7 5/10/8
f 7/11/9 8/12/10 2/1/11 1/6/12
f 2/1/13 8/2/14 17/21/15 13/17/16
f 5/8/17 12/16/18 10/14/19 3/7/20
f 10/14/21 12/16/22 11/15/23
f 11/15/24 12/16/25 9/13/26
f 7/5/27 1/6/28 9/13/29 12/16/30
f 7/5/31 12/16/32 5/8/33
f 16/20/34 15/19/35 17/21/36
f 14/18/37 15/19/38 16/20/39
f 17/21/40 15/19/41 13/17/42
f 9/13/43 13/17/44 15/19/45 11/15/46
f 11/15/47 15/19/48 3/7/49 10/14/50
f 1/6/51 2/1/52 13/17/53 9/13/54
f 16/20/55 6/3/56 4/4/57 14/18/58
f 17/21/59 8/2/60 6/3/61 16/20/62
