# This file uses centimeters as units for non-parametric coordinates.

v 0.000000 0.000000 0.000000
v 249.999146 0.000000 0.000000
v 0.000000 300.574280 0.000000
v 0.000000 0.000000 -11.250000
v 249.999146 0.000000 -11.250000
v 0.000000 299.999817 -11.250000
v 0.000000 0.000000 11.250000
v 249.999146 0.000000 11.250000
v 0.000000 299.999817 11.250000
vt 0.001423 0.998623
vt -0.038908 0.001511
vt 0.001423 0.001434
vt 0.001423 0.998623
vt 0.998542 0.028023
vt 0.998542 0.001434
vt 0.001423 0.998623
vt -0.038908 0.998605
vt 0.001423 0.998623
vt 0.001423 0.001434
vt 0.001423 0.028023
vt 0.998542 0.001434
vt 0.001423 0.001434
vt 0.998542 0.001434
vt 0.998542 0.001434
vt -0.038908 0.998605
vt -0.038908 0.001511
vt 0.001423 0.001434
vt 0.001423 0.998623
vt 0.001423 0.998623
vt 0.001423 0.998623
vt 0.001423 0.001434
vt 0.001423 0.028023
vt 0.998542 0.028023
vt 0.998542 0.001434
vt 0.001423 0.998623
vt 0.001423 0.001434
vt 0.998542 0.001434
vt 0.998542 0.001434
vt 0.998542 0.001434
vn -1.000000 0.000000 0.000000
vn -1.000000 0.000000 0.000000
vn -1.000000 0.000000 0.000000
vn -1.000000 0.000000 0.000000
vn 0.768421 0.639736 -0.016334
vn 0.768421 0.639736 -0.016334
vn 0.768421 0.639736 -0.016334
vn 0.768421 0.639736 -0.016334
vn 0.000000 -1.000000 0.000000
vn 0.000000 -1.000000 0.000000
vn 0.000000 -1.000000 0.000000
vn 0.000000 -1.000000 0.000000
vn 0.000000 0.000000 -1.000000
vn 0.000000 0.000000 -1.000000
vn 0.000000 0.000000 -1.000000
vn -1.000000 0.000000 0.000000
vn -1.000000 0.000000 0.000000
vn -1.000000 0.000000 0.000000
vn -1.000000 0.000000 0.000000
vn 0.768421 0.639736 0.016334
vn 0.768421 0.639736 0.016334
vn 0.768421 0.639736 0.016334
vn 0.768421 0.639736 0.016334
vn 0.000000 -1.000000 0.000000
vn 0.000000 -1.000000 0.000000
vn 0.000000 -1.000000 0.000000
vn 0.000000 -1.000000 0.000000
vn 0.000000 0.000000 1.000000
vn 0.000000 0.000000 1.000000
vn 0.000000 0.000000 1.000000
s off
f 3/8/1 6/9/2 4/10/3 1/2/4
f 6/7/5 3/1/6 2/14/7 5/6/8
f 4/3/9 5/12/10 2/5/11 1/11/12
f 6/4/13 5/15/14 4/13/15
f 3/16/16 1/17/17 7/18/18 9/19/19
f 2/30/20 3/20/21 9/21/22 8/29/23
f 7/22/24 1/23/25 2/24/26 8/25/27
f 9/26/28 7/27/29 8/28/30
