# This file uses centimeters as units for non-parametric coordinates.

v 0.000000 0.000000 0.000000
v 249.999146 0.000000 0.000000
v 0.000000 150.574280 0.000000
v 0.000000 0.000000 -11.250000
v 249.999146 0.000000 -11.250000
v 0.000000 149.999908 -11.250000
v 0.000000 0.000000 11.250000
v 249.999146 0.000000 11.250000
v 0.000000 149.999908 11.250000
vt 0.001423 0.500066
vt -0.038908 0.001511
vt 0.001423 0.001434
vt 0.998542 0.028023
vt 0.998542 0.526236
vt 0.998542 0.500066
vt 0.001423 0.526236
vt 0.001423 0.001434
vt 0.001423 0.028023
vt 0.998542 0.001434
vt 0.001423 0.001434
vt 0.998542 0.001434
vt -0.038908 0.001511
vt 0.001423 0.001434
vt 0.001423 0.500066
vt 0.001423 0.526236
vt 0.998542 0.526236
vt 0.998542 0.500066
vt 0.001423 0.001434
vt 0.001423 0.028023
vt 0.998542 0.028023
vt 0.998542 0.001434
vt 0.001423 0.001434
vt 0.998542 0.001434
vt -0.038908 0.500058
vt -0.038908 0.500058
vt 0.001423 0.500028
vt 0.001423 0.500028
vt 0.001423 0.500028
vt 0.001423 0.500028
vn -1.000000 0.000000 0.000000
vn -1.000000 0.000000 0.000000
vn -1.000000 0.000000 0.000000
vn -1.000000 0.000000 0.000000
vn 0.515097 0.856853 -0.021874
vn 0.515097 0.856853 -0.021874
vn 0.515097 0.856853 -0.021874
vn 0.515097 0.856853 -0.021874
vn 0.000000 -1.000000 0.000000
vn 0.000000 -1.000000 0.000000
vn 0.000000 -1.000000 0.000000
vn 0.000000 -1.000000 0.000000
vn -1.000000 0.000000 0.000000
vn -1.000000 0.000000 0.000000
vn -1.000000 0.000000 0.000000
vn -1.000000 0.000000 0.000000
vn 0.515097 0.856853 0.021874
vn 0.515097 0.856853 0.021874
vn 0.515097 0.856853 0.021874
vn 0.515097 0.856853 0.021874
vn 0.000000 -1.000000 0.000000
vn 0.000000 -1.000000 0.000000
vn 0.000000 -1.000000 0.000000
vn 0.000000 -1.000000 0.000000
vn 0.000000 0.000000 1.000000
vn 0.000000 0.000000 1.000000
vn 0.000000 0.000000 1.000000
vn 0.000000 0.000000 -1.000000
vn 0.000000 0.000000 -1.000000
vn 0.000000 0.000000 -1.000000
s off
f 3/26/1 6/28/2 4/8/3 1/2/4
f 3/1/5 2/6/6 5/5/7 6/7/8
f 4/3/9 5/10/10 2/4/11 1/9/12
f 9/29/13 3/25/14 1/13/15 7/14/16
f 3/15/17 9/16/18 8/17/19 2/18/20
f 7/19/21 1/20/22 2/21/23 8/22/24
f 8/24/25 9/30/26 7/23/27
f 6/27/28 5/12/29 4/11/30
