# This file uses centimeters as units for non-parametric coordinates.

v 0.000061 15.107849 -16.659668
v -6.659637 15.107849 -10.000000
v 0.000092 66.148743 -14.814087
v -4.814087 66.148743 -10.000000
v 4.814087 66.148743 -10.000000
v 0.000031 66.148743 -5.185944
v 6.659668 15.107849 -10.000000
v 0.000031 15.107849 -3.340363
v 3.448181 12.388641 -10.000000
v 0.000031 12.388641 -6.551849
v -3.448212 12.388641 -10.000000
v 0.000031 12.388641 -13.448181
v 8.618042 6.626556 -10.000000
v 0.000061 6.626556 -1.382019
v -8.618042 6.626556 -10.000031
v 0.000092 6.626556 -18.617981
v 8.618042 0.000000 -10.000000
v 0.000061 0.000000 -1.382019
v -8.618042 0.000000 -10.000031
v 0.000092 0.000000 -18.617981
v 0.000183 68.301208 -17.826904
v -7.826904 68.301208 -10.000000
v 0.000061 68.301208 -2.173157
v 7.826904 68.301208 -10.000000
v 0.000092 70.161865 -14.046509
v -4.046509 70.161865 -10.000000
v 0.000031 70.161865 -5.953552
v 4.046509 70.161865 -10.000000
v 0.000153 74.401855 -17.092682
v -7.092682 74.401855 -10.000000
v 0.000061 74.401855 -2.907379
v 7.092682 74.401855 -10.000000
v 0.000153 81.517151 -17.092682
v -7.092682 81.517151 -10.000000
v 0.000061 81.517151 -2.907379
v 7.092682 81.517151 -10.000000
v 0.000031 24.823669 -2.274323
v 7.725708 24.823669 -10.000000
v 0.000092 24.823669 -17.725708
v -7.725708 24.823669 -10.000000
vt 0.151784 0.128329
vt 0.151784 0.128329
vt 0.151784 0.128329
vt 0.151784 0.128329
vt 0.151784 0.128329
vt 0.151784 0.128329
vt 0.151784 0.128329
vt 0.151784 0.128329
vt 0.151784 0.128329
vt 0.151784 0.128329
vt 0.151784 0.128329
vt 0.151784 0.128329
vt 0.151784 0.128329
vt 0.151784 0.128329
vt 0.151784 0.128329
vt 0.151784 0.128329
vt 0.151784 0.128329
vt 0.151784 0.128329
vt 0.151784 0.128329
vt 0.151784 0.128329
vt 0.151784 0.128329
vt 0.151784 0.128329
vt 0.151784 0.128329
vt 0.151784 0.128329
vt 0.151784 0.128329
vt 0.151784 0.128329
vt 0.151784 0.128329
vt 0.151784 0.128329
vt 0.151784 0.128329
vt 0.151784 0.128329
vt 0.151784 0.128329
vt 0.151784 0.128329
vt 0.151784 0.128329
vt 0.151784 0.128329
vt 0.151784 0.128329
vt 0.151784 0.128329
vt 0.151784 0.128329
vt 0.151784 0.128329
vt 0.151784 0.128329
vt 0.151784 0.128329
vt 0.151784 0.128329
vt 0.151784 0.128329
vt 0.151784 0.128329
vt 0.151784 0.128329
vt 0.151784 0.128329
vt 0.151784 0.128329
vt 0.151784 0.128329
vt 0.151784 0.128329
vn -0.706913 0.023137 -0.706922
vn -0.706913 0.023137 -0.706922
vn -0.706226 0.049759 -0.706236
vn -0.706226 0.049759 -0.706236
vn 0.000000 1.000000 0.000001
vn 0.000000 1.000000 0.000001
vn 0.000000 1.000000 0.000001
vn 0.000000 1.000000 0.000001
vn 0.706231 0.049759 0.706231
vn 0.706231 0.049759 0.706231
vn 0.706918 0.023137 0.706918
vn 0.706918 0.023137 0.706918
vn 0.000000 -1.000000 0.000000
vn 0.000000 -1.000000 0.000000
vn 0.000000 -1.000000 0.000000
vn 0.000000 -1.000000 0.000000
vn -0.706914 0.023137 0.706921
vn -0.706914 0.023137 0.706921
vn -0.706227 0.049759 0.706234
vn -0.706227 0.049759 0.706234
vn 0.706922 0.023137 -0.706913
vn 0.706922 0.023137 -0.706913
vn 0.706236 0.049759 -0.706226
vn 0.706236 0.049759 -0.706226
vn 0.542737 -0.640993 0.542737
vn 0.542737 -0.640993 0.542737
vn 0.542737 -0.640993 0.542737
vn 0.542737 -0.640993 0.542737
vn -0.542736 -0.640990 0.542743
vn -0.542736 -0.640990 0.542743
vn -0.542736 -0.640990 0.542743
vn -0.542736 -0.640990 0.542743
vn -0.542738 -0.640988 -0.542743
vn -0.542738 -0.640988 -0.542743
vn -0.542738 -0.640988 -0.542743
vn -0.542738 -0.640988 -0.542743
vn 0.542739 -0.640995 -0.542734
vn 0.542739 -0.640995 -0.542734
vn 0.542739 -0.640995 -0.542734
vn 0.542739 -0.640995 -0.542734
vn 0.597081 0.535713 0.597081
vn 0.597081 0.535713 0.597081
vn 0.597081 0.535713 0.597081
vn 0.597081 0.535713 0.597081
vn -0.597079 0.535709 0.597087
vn -0.597078 0.535709 0.597087
vn -0.597078 0.535709 0.597087
vn -0.597078 0.535709 0.597087
vn -0.597077 0.535709 -0.597089
vn -0.597077 0.535709 -0.597089
vn -0.597077 0.535709 -0.597089
vn -0.597077 0.535709 -0.597089
vn 0.597082 0.535713 -0.597079
vn 0.597082 0.535713 -0.597080
vn 0.597082 0.535713 -0.597079
vn 0.597082 0.535713 -0.597079
vn 0.707107 0.000000 0.707107
vn 0.707107 0.000000 0.707107
vn 0.707107 0.000000 0.707107
vn 0.707107 0.000000 0.707107
vn -0.707103 0.000000 0.707111
vn -0.707103 0.000000 0.707111
vn -0.707103 0.000000 0.707111
vn -0.707103 0.000000 0.707111
vn -0.707099 0.000000 -0.707114
vn -0.707099 0.000000 -0.707114
vn -0.707099 0.000000 -0.707114
vn -0.707099 0.000000 -0.707114
vn 0.707108 0.000000 -0.707106
vn 0.707108 0.000000 -0.707106
vn 0.707108 0.000000 -0.707106
vn 0.707108 0.000000 -0.707106
vn 0.502571 -0.703452 0.502571
vn 0.502572 -0.703452 0.502571
vn 0.502572 -0.703452 0.502571
vn 0.502572 -0.703452 0.502571
vn 0.502573 -0.703457 -0.502563
vn 0.502573 -0.703457 -0.502563
vn 0.502573 -0.703457 -0.502563
vn 0.502573 -0.703457 -0.502563
vn -0.502569 -0.703446 -0.502581
vn -0.502569 -0.703446 -0.502581
vn -0.502569 -0.703446 -0.502581
vn -0.502569 -0.703446 -0.502581
vn -0.502570 -0.703448 0.502577
vn -0.502570 -0.703448 0.502577
vn -0.502570 -0.703448 0.502577
vn -0.502570 -0.703448 0.502577
vn -0.403960 0.820747 -0.403969
vn -0.403960 0.820747 -0.403969
vn -0.403960 0.820747 -0.403969
vn -0.403960 0.820747 -0.403969
vn -0.403959 0.820748 0.403967
vn -0.403959 0.820748 0.403967
vn -0.403959 0.820748 0.403967
vn -0.403959 0.820748 0.403967
vn 0.403959 0.820750 0.403962
vn 0.403959 0.820750 0.403962
vn 0.403960 0.820750 0.403962
vn 0.403959 0.820750 0.403962
vn 0.403963 0.820753 -0.403953
vn 0.403963 0.820753 -0.403953
vn 0.403963 0.820753 -0.403953
vn 0.403963 0.820753 -0.403953
vn -0.630417 -0.452916 -0.630430
vn -0.630417 -0.452916 -0.630430
vn -0.630417 -0.452916 -0.630430
vn -0.630417 -0.452916 -0.630430
vn -0.630416 -0.452918 0.630429
vn -0.630416 -0.452918 0.630429
vn -0.630416 -0.452918 0.630429
vn -0.630416 -0.452918 0.630429
vn 0.630421 -0.452922 0.630422
vn 0.630421 -0.452922 0.630422
vn 0.630421 -0.452922 0.630422
vn 0.630421 -0.452922 0.630422
vn 0.630428 -0.452923 -0.630414
vn 0.630428 -0.452923 -0.630414
vn 0.630428 -0.452923 -0.630414
vn 0.630428 -0.452923 -0.630414
vn -0.707099 0.000000 -0.707115
vn -0.707099 0.000000 -0.707115
vn -0.707099 0.000000 -0.707115
vn -0.707099 0.000000 -0.707115
vn -0.707101 0.000000 0.707113
vn -0.707101 0.000000 0.707113
vn -0.707101 0.000000 0.707113
vn -0.707101 0.000000 0.707113
vn 0.707107 0.000000 0.707107
vn 0.707107 0.000000 0.707107
vn 0.707107 0.000000 0.707107
vn 0.707107 0.000000 0.707107
vn 0.707114 0.000000 -0.707099
vn 0.707114 0.000000 -0.707099
vn 0.707114 0.000000 -0.707099
vn 0.707114 0.000000 -0.707099
vn 0.706918 0.023137 0.706918
vn 0.706918 0.023137 0.706918
vn 0.704988 -0.077353 0.704988
vn 0.704988 -0.077353 0.704988
vn 0.704992 -0.077354 -0.704984
vn 0.704992 -0.077354 -0.704984
vn 0.706922 0.023137 -0.706913
vn 0.706922 0.023137 -0.706913
vn -0.704985 -0.077353 -0.704991
vn -0.704985 -0.077353 -0.704991
vn -0.706913 0.023137 -0.706922
vn -0.706913 0.023137 -0.706922
vn -0.704986 -0.077354 0.704990
vn -0.704986 -0.077354 0.704990
vn -0.706914 0.023137 0.706921
vn -0.706914 0.023137 0.706921
s off
f 39/1/1 40/2/2 4/3/3 3/4/4
f 33/5/5 34/6/6 35/7/7 36/8/8
f 5/9/9 6/10/10 37/11/11 38/12/12
f 17/13/13 18/14/14 19/15/15 20/16/16
f 40/2/17 37/17/18 6/18/19 4/3/20
f 38/19/21 39/1/22 3/4/23 5/20/24
f 7/21/25 8/22/26 10/23/27 9/24/28
f 8/22/29 2/25/30 11/26/31 10/23/32
f 2/25/33 1/27/34 12/28/35 11/26/36
f 1/27/37 7/21/38 9/24/39 12/28/40
f 9/24/41 10/23/42 14/29/43 13/30/44
f 10/23/45 11/26/46 15/31/47 14/29/48
f 11/26/49 12/28/50 16/32/51 15/31/52
f 12/28/53 9/24/54 13/30/55 16/32/56
f 13/30/57 14/29/58 18/14/59 17/13/60
f 14/29/61 15/31/62 19/15/63 18/14/64
f 15/31/65 16/32/66 20/16/67 19/15/68
f 16/32/69 13/30/70 17/13/71 20/16/72
f 6/10/73 5/9/74 24/33/75 23/34/76
f 5/9/77 3/4/78 21/35/79 24/33/80
f 4/3/81 22/36/82 21/35/83 3/4/84
f 6/10/85 23/34/86 22/36/87 4/3/88
f 21/35/89 22/36/90 26/37/91 25/38/92
f 22/36/93 23/34/94 27/39/95 26/37/96
f 23/34/97 24/33/98 28/40/99 27/39/100
f 24/33/101 21/35/102 25/38/103 28/40/104
f 25/38/105 26/37/106 30/41/107 29/42/108
f 26/37/109 27/39/110 31/43/111 30/41/112
f 27/39/113 28/40/114 32/44/115 31/43/116
f 28/40/117 25/38/118 29/42/119 32/44/120
f 29/42/121 30/41/122 34/6/123 33/5/124
f 30/41/125 31/43/126 35/7/127 34/6/128
f 31/43/129 32/44/130 36/8/131 35/7/132
f 32/44/133 29/42/134 33/5/135 36/8/136
f 38/12/137 37/11/138 8/22/139 7/21/140
f 7/45/141 1/46/142 39/1/143 38/19/144
f 1/46/145 2/47/146 40/2/147 39/1/148
f 2/47/149 8/48/150 37/17/151 40/2/152
