# This file uses centimeters as units for non-parametric coordinates.

v 261.250000 283.185211 11.250000
v 263.822540 285.928772 13.822524
v 263.120636 283.185211 13.120635
v 261.250000 299.999817 11.250000
v 264.620880 287.103790 14.620876
v 264.620880 291.278931 14.620876
v 264.161011 297.256256 14.161007
v 263.094177 299.999817 13.094183
v -11.250010 283.185211 11.250000
v -13.120646 283.185211 13.120635
v -13.822536 285.928772 13.822524
v -14.620888 287.103790 14.620876
v -11.250010 299.999817 11.250000
v -14.620888 291.278931 14.620876
v 265.374451 292.569214 15.374449
v -15.374461 292.569214 15.374449
v 265.374451 296.081238 15.374449
v -15.374461 296.081238 15.374449
v -14.161018 297.256256 14.161007
v -13.094194 299.999817 13.094183
vt 0.151310 0.127687
vt 0.151303 0.127492
vt 0.151298 0.127685
vt 0.151413 0.127736
vt 0.151299 0.127385
vt 0.151325 0.127393
vt 0.151372 0.127513
vt 0.151400 0.127717
vt 0.152329 0.127933
vt 0.152329 0.127949
vt 0.152324 0.127681
vt 0.152432 0.127670
vt 0.152327 0.127883
vt 0.152316 0.127523
vt 0.151333 0.127389
vt 0.152321 0.127517
vt 0.151354 0.127396
vt 0.152321 0.127502
vt 0.152323 0.127635
vt 0.152326 0.127879
vn 0.707098 -0.000008 -0.707115
vn 0.707098 -0.000008 -0.707115
vn 0.707098 -0.000008 -0.707115
vn 0.707106 -0.000000 -0.707108
vn 0.707106 -0.000000 -0.707108
vn 0.707106 -0.000000 -0.707108
vn 0.707106 -0.000000 -0.707108
vn 0.707113 0.000003 -0.707100
vn 0.707113 0.000003 -0.707100
vn 0.707113 0.000003 -0.707100
vn 0.707113 0.000003 -0.707100
vn 0.707115 0.000009 -0.707099
vn 0.707115 0.000009 -0.707099
vn 0.707115 0.000009 -0.707099
vn 0.000000 -1.000000 0.000011
vn 0.000000 -1.000000 0.000011
vn 0.000000 -1.000000 0.000011
vn 0.000000 -1.000000 0.000011
vn 0.000000 -0.247849 0.968799
vn 0.000000 -0.247849 0.968799
vn 0.000000 -0.247849 0.968799
vn 0.000000 -0.247849 0.968799
vn 0.000000 -0.561996 0.827140
vn 0.000000 -0.561996 0.827140
vn 0.000000 -0.561996 0.827140
vn 0.000000 -0.561996 0.827140
vn 0.000000 0.000000 -1.000000
vn 0.000000 0.000000 -1.000000
vn 0.000000 0.000000 -1.000000
vn 0.000000 0.000000 -1.000000
vn 0.000000 0.000000 1.000000
vn 0.000000 0.000000 1.000000
vn 0.000000 0.000000 1.000000
vn 0.000000 0.000000 1.000000
vn 0.000000 -0.504326 0.863514
vn 0.000000 -0.504326 0.863514
vn 0.000000 -0.504326 0.863514
vn 0.000000 -0.504326 0.863514
vn 0.000000 0.000000 1.000000
vn 0.000000 0.000000 1.000000
vn 0.000000 0.000000 1.000000
vn 0.000000 0.000000 1.000000
vn 0.000000 0.718389 0.695641
vn 0.000000 0.718389 0.695641
vn 0.000000 0.718389 0.695641
vn 0.000000 0.718389 0.695641
vn 0.000000 1.000000 -0.000021
vn 0.000000 1.000000 -0.000021
vn 0.000000 1.000000 -0.000021
vn 0.000000 1.000000 -0.000021
vn 0.000000 0.362407 0.932020
vn 0.000000 0.362407 0.932020
vn 0.000000 0.362407 0.932020
vn 0.000000 0.362407 0.932020
vn 0.707106 0.000002 -0.707108
vn 0.707106 0.000002 -0.707108
vn 0.707106 0.000002 -0.707108
vn 0.707106 0.000002 -0.707108
vn -0.707107 -0.000000 -0.707106
vn -0.707107 -0.000000 -0.707106
vn -0.707107 -0.000000 -0.707106
vn -0.707107 -0.000000 -0.707106
vn -0.707104 0.000000 -0.707110
vn -0.707104 0.000000 -0.707110
vn -0.707104 0.000000 -0.707110
vn -0.707104 0.000000 -0.707110
vn -0.707111 0.000001 -0.707103
vn -0.707111 0.000001 -0.707103
vn -0.707111 0.000001 -0.707103
vn -0.707103 0.000000 -0.707111
vn -0.707103 0.000000 -0.707111
vn -0.707103 0.000000 -0.707111
vn -0.707108 0.000000 -0.707105
vn -0.707108 0.000000 -0.707105
vn -0.707108 0.000000 -0.707105
vn -0.707108 0.000000 -0.707105
s off
f 1/1/1 2/2/2 3/3/3
f 2/2/4 1/1/5 4/4/6 7/7/7
f 6/6/8 5/5/9 2/2/10 7/7/11
f 7/7/12 4/4/13 8/8/14
f 9/9/15 1/1/16 3/3/17 10/10/18
f 10/10/19 3/3/20 2/2/21 11/11/22
f 11/11/23 2/2/24 5/5/25 12/12/26
f 13/13/27 4/4/28 1/1/29 9/9/30
f 12/12/31 5/5/32 6/6/33 14/14/34
f 14/14/35 6/6/36 15/15/37 16/16/38
f 16/16/39 15/15/40 17/17/41 18/18/42
f 18/18/43 17/17/44 7/7/45 19/19/46
f 20/20/47 8/8/48 4/4/49 13/13/50
f 19/19/51 7/7/52 8/8/53 20/20/54
f 6/6/55 7/7/56 17/17/57 15/15/58
f 11/11/59 19/19/60 13/13/61 9/9/62
f 19/19/63 14/14/64 16/16/65 18/18/66
f 13/13/67 19/19/68 20/20/69
f 11/11/70 9/9/71 10/10/72
f 11/11/73 12/12/74 14/14/75 19/19/76
