# This file uses centimeters as units for non-parametric coordinates.

v 14.669586 0.000000 14.669540
v -14.669540 0.000000 -14.669724
v 14.669586 150.574280 14.669540
v -14.669540 150.574280 -14.669724
v 7.855988 150.574280 14.669540
v 9.387604 150.574280 13.798239
v 10.919220 150.574280 14.669540
v 0.000015 150.574249 -0.000092
v 7.855988 0.000000 14.669540
v 9.387604 0.000000 13.798239
v 10.919220 0.000000 14.669540
v 0.000015 0.000000 -0.000092
v -14.669540 0.000000 -7.856053
v -13.714630 0.000000 -9.387673
v -14.669540 0.000000 -10.919294
v -7.855942 0.000000 -14.669724
v -9.387558 0.000000 -13.798422
v -10.919174 0.000000 -14.669724
v 14.669586 0.000000 7.855870
v 13.714676 0.000000 9.387490
v 14.669586 0.000000 10.919111
v -7.855942 150.574280 -14.669724
v -9.387558 150.574280 -13.798422
v -10.919174 150.574280 -14.669724
v -14.669540 150.574280 -7.856053
v -13.714630 150.574280 -9.387673
v -14.669540 150.574280 -10.919294
v 14.669586 150.574280 7.855870
v 13.714676 150.574280 9.387490
v 14.669586 150.574280 10.919111
v -13.092911 0.000000 14.669540
v -14.669540 0.000000 13.092914
v -14.669540 150.574280 13.092914
v -13.092911 150.574280 14.669540
v 14.669586 0.000000 -13.093097
v 13.092957 0.000000 -14.669724
v 13.092957 150.574280 -14.669724
v 14.669586 150.574280 -13.093097
v 14.669586 108.135490 14.046700
v -14.669540 97.553062 -14.669724
v 10.919220 110.849335 14.669540
v -14.669540 104.941193 -7.856053
v -10.919174 94.839218 -14.669724
v 14.669586 100.747368 7.855870
v -9.387558 94.675667 -13.798422
v -13.714630 102.589455 -9.387673
v 13.714676 103.099098 9.387491
v -14.669540 127.656372 13.092914
v 14.669586 78.032188 -13.093098
v 5.997482 113.524223 14.669540
v -14.669540 100.316986 -11.083710
v -7.855942 92.622566 -14.669724
v 14.669586 104.068832 10.919111
v 7.823471 111.471138 13.798239
v -11.264923 134.127335 14.669540
v 11.425629 76.751320 -14.669724
vt 0.194671 0.127785
vt 0.194601 0.127791
vt 0.194594 0.127793
vt 0.194608 0.128737
vt 0.194614 0.128736
vt 0.194656 0.128714
vt 0.194696 0.128698
vt 0.194699 0.128690
vt 0.194705 0.128689
vt 0.194741 0.127779
vt 0.194747 0.127778
vt 0.194597 0.128733
vt 0.194588 0.127798
vt 0.194604 0.127800
vt 0.194716 0.128692
vt 0.194712 0.128700
vt 0.194752 0.127773
vt 0.194736 0.127771
vt 0.194601 0.128725
vt 0.194612 0.127800
vt 0.194708 0.128703
vt 0.194729 0.127771
vt 0.194606 0.128722
vt 0.194618 0.128739
vt 0.194743 0.127782
vt 0.194695 0.128686
vt 0.194599 0.127788
vt 0.194709 0.128707
vt 0.194688 0.128755
vt 0.194617 0.127801
vt 0.194706 0.127813
vt 0.194605 0.128718
vt 0.194628 0.128672
vt 0.194724 0.127769
vt 0.194639 0.127759
vt 0.194681 0.128757
vt 0.194715 0.127811
vt 0.194634 0.128670
vt 0.194631 0.127761
vt 0.194594 0.128397
vt 0.194727 0.128394
vt 0.194607 0.128391
vt 0.194721 0.128384
vt 0.194714 0.128399
vt 0.194603 0.128406
vt 0.194708 0.128400
vt 0.194719 0.128388
vt 0.194604 0.128403
vt 0.194699 0.128354
vt 0.194629 0.128435
vt 0.194617 0.128386
vt 0.194724 0.128388
vt 0.194704 0.128404
vt 0.194599 0.128402
vt 0.194613 0.128390
vt 0.194692 0.128354
vt 0.194635 0.128435
vn -0.000002 1.000000 0.000000
vn -0.000002 1.000000 0.000000
vn -0.000002 1.000000 0.000000
vn -0.000004 1.000000 0.000000
vn -0.000004 1.000000 0.000000
vn -0.000004 1.000000 0.000000
vn 0.000001 1.000000 0.000000
vn 0.000001 1.000000 0.000000
vn 0.000001 1.000000 0.000000
vn 0.000001 1.000000 0.000000
vn 0.000001 1.000000 0.000000
vn 0.000001 1.000000 0.000000
vn 0.000001 1.000000 0.000000
vn 0.000000 -1.000000 0.000000
vn 0.000000 -1.000000 0.000000
vn 0.000000 -1.000000 0.000000
vn 0.000000 -1.000000 0.000000
vn 0.000000 -1.000000 0.000000
vn 0.000000 -1.000000 0.000000
vn 0.000000 -1.000000 0.000000
vn 0.000000 -1.000000 0.000000
vn 0.000000 -1.000000 0.000000
vn 0.000000 -1.000000 0.000000
vn 0.000000 -1.000000 0.000000
vn 0.000000 -1.000000 0.000000
vn 0.000002 1.000000 0.000000
vn 0.000002 1.000000 0.000000
vn 0.000002 1.000000 0.000000
vn 0.000004 1.000000 0.000000
vn 0.000004 1.000000 0.000000
vn 0.000004 1.000000 0.000000
vn 0.083770 0.002834 0.996481
vn 0.083770 0.002834 0.996481
vn 0.083770 0.002834 0.996481
vn 0.083770 0.002834 0.996481
vn -1.000000 0.000000 0.000000
vn -1.000000 0.000000 0.000000
vn -1.000000 0.000000 0.000000
vn -1.000000 0.000000 0.000000
vn 0.000000 -1.000000 0.000000
vn 0.000000 -1.000000 0.000000
vn 0.000000 -1.000000 0.000000
vn 0.000000 -1.000000 0.000000
vn 0.000000 0.000000 -1.000000
vn 0.000000 0.000000 -1.000000
vn 0.000000 0.000000 -1.000000
vn 0.000000 0.000000 -1.000000
vn 0.000001 1.000000 -0.000003
vn 0.000001 1.000000 -0.000003
vn 0.000001 1.000000 -0.000003
vn 0.000001 1.000000 -0.000003
vn -0.000001 1.000000 0.000007
vn -0.000001 1.000000 0.000007
vn -0.000001 1.000000 0.000007
vn -0.000001 1.000000 0.000007
vn 1.000000 -0.000000 0.000000
vn 1.000000 -0.000000 0.000000
vn 1.000000 -0.000000 0.000000
vn 1.000000 -0.000000 0.000000
vn 0.000000 -1.000000 0.000000
vn 0.000000 -1.000000 0.000000
vn 0.000000 -1.000000 0.000000
vn 0.000000 -1.000000 0.000000
vn -0.000001 1.000000 0.000000
vn -0.000001 1.000000 0.000000
vn -0.000001 1.000000 0.000000
vn 0.000002 1.000000 0.000000
vn 0.000002 1.000000 0.000000
vn 0.000002 1.000000 0.000000
vn 0.000000 0.000000 1.000000
vn 0.000000 0.000000 1.000000
vn 0.000000 0.000000 1.000000
vn 0.000000 0.000000 1.000000
vn -0.558604 0.003062 0.829429
vn -0.558604 0.003062 0.829429
vn -0.386552 0.001446 0.922267
vn -0.386552 0.001446 0.922267
vn 0.459333 -0.005453 0.888247
vn 0.494465 0.000000 0.869197
vn 0.494465 0.000000 0.869197
vn 0.459333 -0.005453 0.888247
vn -1.000000 0.000000 0.000000
vn -1.000000 0.000000 0.000000
vn -1.000000 -0.000000 0.000000
vn -1.000000 -0.000000 0.000000
vn 0.000000 -1.000000 0.000000
vn 0.000000 -1.000000 0.000000
vn 0.000000 -1.000000 0.000000
vn 0.000000 -1.000000 0.000000
vn 0.000000 -1.000000 0.000000
vn 0.000000 -1.000000 0.000000
vn -0.494465 0.000000 -0.869197
vn -0.494465 0.000000 -0.869197
vn -0.494465 0.000000 -0.869197
vn -0.494465 0.000000 -0.869197
vn 0.494465 0.000000 -0.869197
vn 0.494465 0.000000 -0.869197
vn 0.494465 0.000000 -0.869197
vn 0.494465 0.000000 -0.869197
vn 1.000000 0.000000 0.000000
vn 1.000000 0.000000 0.000000
vn 1.000000 0.000000 0.000000
vn 1.000000 0.000000 0.000000
vn 0.000000 -1.000000 0.000000
vn 0.000000 -1.000000 0.000000
vn 0.000000 -1.000000 0.000000
vn 0.000000 -1.000000 0.000000
vn 0.000000 -1.000000 0.000000
vn 0.000000 -1.000000 0.000000
vn 0.000001 1.000000 0.000000
vn 0.000001 1.000000 0.000000
vn 0.000001 1.000000 0.000000
vn -0.000002 1.000000 0.000000
vn -0.000002 1.000000 0.000000
vn -0.000002 1.000000 0.000000
vn 0.000000 0.000000 -1.000000
vn 0.000000 0.000000 -1.000000
vn 0.000000 0.000000 -1.000000
vn 0.000000 0.000000 -1.000000
vn -0.860754 0.000412 0.509021
vn -0.860754 0.000412 0.509021
vn -0.860754 0.000412 0.509021
vn -0.860754 0.000412 0.509021
vn -0.848585 0.000000 -0.529060
vn -0.848585 0.000000 -0.529060
vn -0.848585 0.000000 -0.529060
vn -0.848585 0.000000 -0.529060
vn 0.848585 0.000000 -0.529060
vn 0.848585 0.000000 -0.529060
vn 0.848585 0.000000 -0.529060
vn 0.848585 0.000000 -0.529060
vn 0.848585 -0.000000 0.529060
vn 0.848585 -0.000000 0.529060
vn 0.848585 -0.000000 0.529060
vn 0.848585 -0.000000 0.529060
vn -0.000001 1.000000 0.000000
vn -0.000001 1.000000 0.000000
vn -0.000001 1.000000 0.000000
vn -0.000001 1.000000 0.000000
vn -0.000001 1.000000 0.000000
vn -0.000001 1.000000 0.000000
vn -0.000001 1.000000 0.000000
vn 0.000000 -1.000000 0.000000
vn 0.000000 -1.000000 0.000000
vn 0.000000 -1.000000 0.000000
vn 0.000000 -1.000000 0.000000
vn 0.000000 -1.000000 0.000000
vn 0.000000 -1.000000 0.000000
vn 0.000000 -1.000000 0.000000
vn 0.000000 -1.000000 0.000000
vn 0.000000 -1.000000 0.000000
vn 0.000000 -1.000000 0.000000
vn 0.000000 -1.000000 0.000000
vn 0.000000 -1.000000 0.000000
vn 0.000000 -1.000000 0.000000
vn 0.000000 -1.000000 0.000000
vn -0.538344 0.003759 0.842717
vn -0.538344 0.003759 0.842717
vn -0.538344 0.003759 0.842717
vn -0.538344 0.003759 0.842717
vn 0.546307 0.005885 -0.837565
vn 0.546307 0.005885 -0.837565
vn 0.546307 0.005885 -0.837565
vn 0.546307 0.005885 -0.837565
vn 0.000000 0.000000 1.000000
vn 0.078238 -0.001926 0.996933
vn 0.078238 -0.001926 0.996933
vn 0.000000 0.000000 1.000000
vn -1.000000 0.000000 0.000000
vn -1.000000 0.000000 0.000000
vn -1.000000 0.000000 0.000000
vn -1.000000 0.000000 0.000000
vn 1.000000 0.000000 0.000000
vn 1.000000 0.000000 0.000000
vn 1.000000 0.000000 0.000000
vn 1.000000 0.000000 0.000000
vn 0.000000 0.000000 1.000000
vn 0.000000 0.000000 1.000000
vn 0.000000 0.000000 1.000000
vn 0.000000 0.000000 1.000000
vn -0.494466 0.000000 -0.869197
vn -0.494466 0.000000 -0.869197
vn -0.494465 0.000000 -0.869197
vn -0.494465 0.000000 -0.869197
vn 0.494465 0.000000 -0.869198
vn 0.494465 0.000000 -0.869197
vn 0.494465 0.000000 -0.869197
vn 0.494465 0.000000 -0.869198
vn -0.848585 0.000000 0.529060
vn -0.860420 -0.000361 0.509586
vn -0.860420 -0.000361 0.509586
vn -0.848585 0.000000 0.529060
vn -0.908670 -0.002784 -0.417506
vn -0.908248 0.001992 -0.418427
vn -0.908248 0.001992 -0.418427
vn -0.908670 -0.002784 -0.417506
vn 0.848584 0.000000 -0.529060
vn 0.848584 0.000000 -0.529060
vn 0.848584 0.000000 -0.529060
vn 0.848584 0.000000 -0.529060
vn 0.848585 0.000000 0.529059
vn 0.848585 0.000000 0.529060
vn 0.848585 0.000000 0.529060
vn 0.848585 0.000000 0.529059
vn -0.803315 -0.004962 0.595534
vn -0.648695 -0.001657 0.761047
vn -0.648695 -0.001657 0.761047
vn -0.803315 -0.004962 0.595534
vn 0.707107 0.000000 -0.707107
vn 0.548967 -0.002744 -0.835840
vn 0.548967 -0.002744 -0.835840
vn 0.707107 0.000000 -0.707107
vn 0.000000 0.000000 -1.000000
vn 0.000000 0.000000 -1.000000
vn 0.000000 0.000000 -1.000000
vn 0.000000 0.000000 -1.000000
vn -0.352715 -0.002482 0.935728
vn -0.352715 -0.002482 0.935728
vn -0.352715 -0.002482 0.935728
vn -0.352715 -0.002482 0.935728
vn 0.464042 0.007059 0.885785
vn 0.464042 0.007059 0.885785
vn 0.464042 0.007059 0.885785
vn 0.464042 0.007059 0.885785
vn -1.000000 0.000000 0.000000
vn -1.000000 0.000000 0.000000
vn -1.000000 0.000000 0.000000
vn -1.000000 0.000000 0.000000
vn 1.000000 -0.000000 0.000000
vn 1.000000 -0.000000 0.000000
vn 1.000000 -0.000000 0.000000
vn 1.000000 -0.000000 0.000000
vn -0.000000 0.000000 -1.000000
vn -0.000000 0.000000 -1.000000
vn -0.000000 0.000000 -1.000000
vn -0.000000 0.000000 -1.000000
s off
f 8/1/1 29/2/2 28/27/3
f 8/1/4 30/3/5 29/2/6
f 25/25/7 33/37/8 8/1/9
f 34/31/10 5/30/11 8/1/12 33/37/13
f 11/4/14 10/5/15 12/6/16
f 10/5/17 9/24/18 12/6/19
f 12/7/20 17/8/21 16/26/22
f 12/7/23 18/9/24 17/8/25
f 8/1/26 26/10/27 25/25/28
f 8/1/29 27/11/30 26/10/31
f 11/4/32 1/12/33 39/40/34 41/42/35
f 2/15/36 15/16/37 51/52/38 40/41/39
f 18/9/40 12/7/41 15/16/42 2/15/43
f 4/17/44 24/18/45 43/44/46 40/41/47
f 27/11/48 8/1/49 24/18/50 4/17/51
f 8/1/52 7/14/53 3/13/54 30/3/55
f 1/12/56 21/19/57 53/54/58 39/40/59
f 1/12/60 11/4/61 12/6/62 21/19/63
f 5/30/64 6/20/65 8/1/66
f 6/20/67 7/14/68 8/1/69
f 9/24/70 50/51/71 55/56/72 31/36/73
f 7/14/74 6/20/75 54/55/76 41/42/77
f 54/55/78 6/20/79 5/30/80 50/51/81
f 33/37/82 25/25/83 42/43/84 48/49/85
f 12/7/86 14/21/87 15/16/88
f 12/7/89 13/28/90 14/21/91
f 16/26/92 17/8/93 45/46/94 52/53/95
f 17/8/96 18/9/97 43/44/98 45/46/99
f 38/39/100 28/27/101 44/45/102 49/50/103
f 12/6/104 20/23/105 21/19/106
f 12/6/107 19/32/108 20/23/109
f 22/34/110 23/22/111 8/1/112
f 23/22/113 24/18/114 8/1/115
f 52/53/116 22/34/117 37/35/118 56/57/119
f 15/16/120 14/21/121 46/47/122 51/52/123
f 14/21/124 13/28/125 42/43/126 46/47/127
f 21/19/128 20/23/129 47/48/130 53/54/131
f 20/23/132 19/32/133 44/45/134 47/48/135
f 8/1/136 28/27/137 38/39/138 37/35/139
f 22/34/140 8/1/141 37/35/142
f 32/29/143 13/28/144 12/6/145 31/36/146
f 9/24/147 31/36/148 12/6/149
f 35/33/150 19/32/151 12/7/152 36/38/153
f 16/26/154 36/38/155 12/7/156
f 32/29/157 31/36/158 55/56/159 48/49/160
f 35/33/161 36/38/162 56/57/163 49/50/164
f 7/14/165 41/42/166 39/40/167 3/13/168
f 4/17/169 40/41/170 51/52/171 27/11/172
f 3/13/173 39/40/174 53/54/175 30/3/176
f 55/56/177 50/51/178 5/30/179 34/31/180
f 52/53/181 45/46/182 23/22/183 22/34/184
f 23/22/185 45/46/186 43/44/187 24/18/188
f 27/11/189 51/52/190 46/47/191 26/10/192
f 26/10/193 46/47/194 42/43/195 25/25/196
f 30/3/197 53/54/198 47/48/199 29/2/200
f 29/2/201 47/48/202 44/45/203 28/27/204
f 33/37/205 48/49/206 55/56/207 34/31/208
f 38/39/209 49/50/210 56/57/211 37/35/212
f 40/41/213 43/44/214 18/9/215 2/15/216
f 41/42/217 54/55/218 10/5/219 11/4/220
f 54/55/221 50/51/222 9/24/223 10/5/224
f 48/49/225 42/43/226 13/28/227 32/29/228
f 49/50/229 44/45/230 19/32/231 35/33/232
f 52/53/233 56/57/234 36/38/235 16/26/236
