# This file uses centimeters as units for non-parametric coordinates.

v -14.669540 0.000000 0.000000
v 0.000000 0.000000 14.669540
v -13.092911 0.000000 14.669540
v -14.669540 0.000000 13.092914
v -14.669540 127.656372 10.742872
v 0.000000 0.000000 0.000000
v -14.669540 113.459595 0.000000
v 0.000000 102.844398 0.000000
v -11.264923 106.226387 14.669540
v 0.000000 120.682365 14.669540
v -14.669540 150.574280 13.092914
v -13.092911 150.574280 14.669540
v -14.669540 150.574249 0.000000
v 0.000000 150.574249 0.000000
v 0.000000 150.574280 14.669540
vt 0.194705 0.128724
vt 0.194641 0.128746
vt 0.194681 0.128757
vt 0.194688 0.128755
vt 0.194699 0.128354
vt 0.193936 0.129752
vt 0.193928 0.129780
vt 0.193923 0.129489
vt 0.193923 0.129493
vt 0.194692 0.128354
vt 0.194713 0.128373
vt 0.194643 0.128375
vt 0.194715 0.127811
vt 0.194706 0.127813
vt 0.194731 0.127793
vt 0.194671 0.127785
vt 0.193920 0.129010
vt 0.193941 0.128976
vt 0.194650 0.127806
vt 0.193984 0.128987
vt 0.193973 0.129449
vt 0.193965 0.129760
vt 0.194662 0.128711
vn 0.000000 -1.000000 0.000000
vn 0.000000 -1.000000 0.000000
vn 0.000000 -1.000000 0.000000
vn 0.000000 -1.000000 0.000000
vn -0.716419 0.012608 0.697556
vn -0.716419 0.012608 0.697556
vn -0.716419 0.012608 0.697556
vn -0.716419 0.012608 0.697556
vn 0.000000 0.000000 -1.000000
vn 0.000000 0.000000 -1.000000
vn 0.000000 0.000000 -1.000000
vn 0.000000 0.000000 -1.000000
vn -1.000000 0.000000 0.000000
vn -1.000000 0.000000 0.000000
vn -1.000000 0.000000 0.000000
vn -1.000000 0.000000 0.000000
vn -0.000000 0.000000 1.000000
vn -0.000000 0.000000 1.000000
vn -0.000000 0.000000 1.000000
vn -0.000000 0.000000 1.000000
vn -0.824667 -0.018154 0.565327
vn -0.824667 -0.018154 0.565327
vn -0.803593 -0.002688 0.595174
vn -0.803593 -0.002688 0.595174
vn 0.000000 0.000000 -1.000000
vn 0.000000 0.000000 -1.000000
vn 0.000000 0.000000 -1.000000
vn 0.000000 0.000000 -1.000000
vn -1.000000 0.000000 0.000000
vn -1.000000 0.000000 0.000000
vn -1.000000 -0.000000 0.000000
vn -1.000000 -0.000000 0.000000
vn 0.000000 1.000000 -0.000002
vn 0.000000 1.000000 -0.000002
vn 0.000000 1.000000 -0.000002
vn 0.000000 1.000000 -0.000002
vn 0.000000 1.000000 0.000000
vn 0.000000 1.000000 0.000000
vn 0.000000 1.000000 0.000000
vn 0.000000 0.000000 1.000000
vn 0.000000 0.000000 1.000000
vn 0.000000 0.000000 1.000000
vn 0.000000 0.000000 1.000000
vn 1.000000 0.000000 0.000000
vn 1.000000 0.000000 0.000000
vn 1.000000 0.000000 0.000000
vn 1.000000 0.000000 0.000000
vn 1.000000 0.000000 0.000000
vn 1.000000 0.000000 0.000000
vn 1.000000 0.000000 0.000000
vn 1.000000 0.000000 0.000000
vn 0.000000 -1.000000 0.000000
vn 0.000000 -1.000000 0.000000
vn 0.000000 -1.000000 0.000000
s off
f 6/23/1 2/2/2 3/3/3 1/1/4
f 5/5/5 4/4/6 3/3/7 9/10/8
f 6/6/9 1/7/10 7/8/11 8/9/12
f 1/1/13 4/4/14 5/5/15 7/11/16
f 10/12/17 9/10/18 3/3/19 2/2/20
f 5/5/21 9/10/22 12/14/23 11/13/24
f 8/9/25 7/8/26 13/17/27 14/18/28
f 7/11/29 5/5/30 11/13/31 13/15/32
f 15/19/33 14/16/34 13/15/35 11/13/36
f 11/13/37 12/14/38 15/19/39
f 12/14/40 9/10/41 10/12/42 15/19/43
f 2/22/44 6/6/45 8/9/46 10/21/47
f 15/20/48 10/21/49 8/9/50 14/18/51
f 1/1/52 3/3/53 4/4/54
