# This file uses centimeters as units for non-parametric coordinates.

v 0.000000 0.000000 0.000000
v 249.999146 0.000000 0.000000
v 249.999146 301.148560 0.000000
v 0.000000 301.148560 0.000000
v 0.000000 0.000000 -11.250000
v 249.999146 0.000000 -11.250000
v 249.999146 299.999817 -11.250000
v 0.000000 299.999817 -11.250000
v 0.000000 0.000000 11.250000
v 249.999146 0.000000 11.250000
v 249.999146 299.999817 11.250000
v 0.000000 299.999817 11.250000
v 17.012177 299.999817 11.250000
v 43.722839 299.999817 11.250000
v 26.364624 300.532501 6.033119
v 28.329376 288.347900 11.250000
v 180.334106 299.999817 -11.250000
v 147.008759 299.999817 -11.250000
v 170.033142 300.614685 -5.228329
v 165.918793 287.490723 -11.250000
v 86.509460 0.000000 -11.250000
v 122.153839 0.000000 -11.250000
v 99.224182 22.493692 -11.250000
v 101.569519 0.000000 -6.352085
v 194.503296 0.000000 11.250000
v 163.621429 0.000000 11.250000
v 175.680298 13.138864 11.250000
v 175.298981 0.000000 5.037997
v 142.687500 0.000000 0.000000
v 102.261902 301.148560 0.000000
vt 0.001423 0.998698
vt -0.038908 0.001588
vt 0.001423 0.001434
vt 0.998542 0.054611
vt 0.998542 0.001434
vt 0.998542 1.051039
vt 0.998542 0.998698
vt 0.001423 1.051039
vt 0.001423 0.001434
vt 0.001423 0.054611
vt 0.998542 0.001434
vt 0.001423 0.001434
vt 1.038921 0.001588
vt 0.998542 0.001434
vt -0.038908 0.001588
vt 0.001423 0.001434
vt 0.001423 0.998698
vt 0.001423 1.051039
vt 0.998542 1.051039
vt 0.998542 0.998698
vt 0.001423 0.001434
vt 0.001423 0.054611
vt 0.998542 0.054611
vt 0.998542 0.001434
vt 0.001423 0.001434
vt 0.998542 0.001434
vt 0.998542 0.001434
vt 1.038921 0.001588
vt -0.038908 0.998682
vt -0.038908 0.998682
vt 0.001423 0.998623
vt 0.001423 0.998623
vt 0.998542 0.998623
vt 0.998542 0.998623
vt 1.038921 0.998682
vt 1.038921 0.998682
vt 0.998542 0.998623
vt 0.998542 0.998623
vt 0.001423 0.998623
vt 0.001423 0.998623
vt 0.069276 1.051039
vt 0.069276 0.998623
vt 0.175811 1.051039
vt 0.175811 0.998623
vt 0.107861 1.038903
vt 0.114414 0.959892
vt 0.109144 0.998623
vt 0.720684 1.051039
vt 0.720684 0.998623
vt 0.587766 1.051039
vt 0.587766 0.998623
vt 0.675681 1.037031
vt 0.663188 0.957043
vt 0.671764 0.998623
vt 0.346465 0.001434
vt 0.346465 0.001434
vt 0.488632 0.001434
vt 0.488632 0.001434
vt 0.397178 0.076202
vt 0.405229 0.013010
vt 0.403927 0.001434
vt 0.777198 0.001434
vt 0.777198 0.001434
vt 0.654025 0.001434
vt 0.654025 0.001434
vt 0.702122 0.045107
vt 0.701109 0.016116
vt 0.701617 0.001434
vt 0.570531 0.054611
vt 0.570531 0.054611
vt 0.409294 0.998698
vt 0.409294 0.998698
vn -1.000000 0.000000 0.000000
vn -1.000000 0.000000 0.000000
vn -1.000000 0.000000 0.000000
vn -1.000000 0.000000 0.000000
vn 0.000000 0.994827 -0.101583
vn 0.000000 0.994827 -0.101583
vn 0.000000 0.994827 -0.101583
vn 0.000000 0.994827 -0.101583
vn 0.000000 0.994827 -0.101583
vn 0.000000 -1.000000 0.000000
vn 0.000000 -1.000000 0.000000
vn 0.000000 -1.000000 0.000000
vn 0.000000 -1.000000 0.000000
vn 0.000000 0.000000 -1.000000
vn 0.000000 0.000000 -1.000000
vn 0.000000 0.000000 -1.000000
vn 0.000000 0.000000 -1.000000
vn 1.000000 0.000000 0.000000
vn 1.000000 0.000000 0.000000
vn 1.000000 0.000000 0.000000
vn 1.000000 0.000000 0.000000
vn -1.000000 0.000000 0.000000
vn -1.000000 0.000000 0.000000
vn -1.000000 0.000000 0.000000
vn -1.000000 0.000000 0.000000
vn 0.000000 0.994828 0.101578
vn 0.000000 0.994828 0.101578
vn 0.000000 0.994828 0.101578
vn 0.000000 0.994828 0.101578
vn 0.000000 -1.000000 0.000000
vn 0.000000 -1.000000 0.000000
vn 0.000000 -1.000000 0.000000
vn 0.000000 -1.000000 0.000000
vn 0.000000 -1.000000 0.000000
vn 0.000000 0.000000 1.000000
vn 0.000000 0.000000 1.000000
vn 0.000000 0.000000 1.000000
vn 0.000000 0.000000 1.000000
vn 1.000000 0.000000 0.000000
vn 1.000000 0.000000 0.000000
vn 1.000000 0.000000 0.000000
vn 1.000000 0.000000 0.000000
vn 0.425525 0.413302 0.805053
vn 0.425525 0.413302 0.805053
vn 0.425526 0.413302 0.805053
vn -0.260534 0.344194 0.902027
vn -0.260534 0.344194 0.902027
vn -0.260534 0.344194 0.902027
vn -0.419933 0.483925 -0.767771
vn -0.419933 0.483925 -0.767771
vn -0.419933 0.483925 -0.767771
vn 0.228759 0.345815 -0.909990
vn 0.228759 0.345815 -0.909990
vn 0.228759 0.345815 -0.909990
vn -0.225294 -0.229660 -0.946836
vn -0.225294 -0.229660 -0.946836
vn -0.225294 -0.229660 -0.946836
vn 0.304660 -0.172211 -0.936764
vn 0.304659 -0.172211 -0.936764
vn 0.304659 -0.172211 -0.936764
vn 0.431285 -0.395834 0.810746
vn 0.431285 -0.395834 0.810746
vn 0.431285 -0.395834 0.810746
vn -0.281610 -0.403440 0.870593
vn -0.281610 -0.403440 0.870593
vn -0.281610 -0.403440 0.870593
vn 0.000000 -1.000000 0.000000
vn 0.000000 -1.000000 0.000000
vn 0.000000 -1.000000 0.000000
vn 0.000000 -1.000000 0.000000
vn 0.000000 -1.000000 0.000000
vn 0.000000 -1.000000 0.000000
vn 0.000000 -1.000000 0.000000
vn 0.000000 -1.000000 0.000000
vn 0.000000 -1.000000 0.000000
vn 0.000000 0.000000 1.000000
vn 0.000000 0.000000 1.000000
vn 0.000000 0.000000 1.000000
vn 0.000000 0.000000 1.000000
vn -0.000000 0.994827 0.101581
vn -0.000000 0.994827 0.101581
vn -0.000000 0.994827 0.101581
vn -0.000000 0.994827 0.101581
vn -0.000000 0.994827 0.101581
vn -0.000000 0.994827 -0.101583
vn -0.000000 0.994827 -0.101583
vn -0.000000 0.994827 -0.101583
vn -0.000000 0.994827 -0.101583
vn 0.000000 0.000000 -1.000000
vn 0.000000 0.000000 -1.000000
vn 0.000000 0.000000 -1.000000
vn 0.000000 0.000000 -1.000000
vn 0.000000 0.994826 0.101592
vn 0.000000 0.994826 0.101592
vn 0.000000 0.994826 0.101592
vn 0.000000 0.994827 -0.101586
vn 0.000000 0.994827 -0.101586
vn 0.000000 0.994827 -0.101586
vn 0.000000 -1.000000 0.000000
vn 0.000000 -1.000000 0.000000
vn 0.000000 -1.000000 0.000000
vn 0.000000 -1.000000 0.000000
vn 0.000000 -1.000000 0.000000
vn 0.000000 -1.000000 0.000000
vn 0.000000 0.000000 -1.000000
vn 0.000000 0.000000 -1.000000
vn 0.000000 0.000000 -1.000000
vn 0.000000 0.000000 -1.000000
vn -0.000000 0.000000 -1.000000
vn -0.000000 0.000000 -1.000000
vn -0.000000 0.000000 -1.000000
vn -0.000000 0.000000 -1.000000
vn -0.000000 0.000000 1.000000
vn -0.000000 0.000000 1.000000
vn -0.000000 0.000000 1.000000
vn -0.000000 0.000000 1.000000
vn 0.000000 0.000000 1.000000
vn 0.000000 0.000000 1.000000
vn 0.000000 0.000000 1.000000
vn 0.000000 0.000000 1.000000
s off
f 4/30/1 8/32/2 5/9/3 1/2/4
f 4/1/5 30/71/6 19/52/7 18/50/8 8/8/9
f 5/3/10 21/55/11 24/60/12 1/10/13
f 8/31/14 18/51/15 20/53/16 23/59/17
f 7/33/18 3/36/19 2/13/20 6/5/21
f 12/39/22 4/29/23 1/15/24 9/16/25
f 4/17/26 12/18/27 13/41/28 15/45/29
f 9/21/30 1/22/31 29/70/32 28/67/33 26/64/34
f 9/25/35 16/46/36 13/42/37 12/40/38
f 3/35/39 11/38/40 10/27/41 2/28/42
f 13/42/43 16/46/44 15/47/45
f 15/47/46 16/46/47 14/44/48
f 17/49/49 20/53/50 19/54/51
f 19/54/52 20/53/53 18/51/54
f 24/61/55 23/59/56 22/58/57
f 21/56/58 23/59/59 24/61/60
f 28/68/61 27/66/62 26/65/63
f 25/63/64 27/66/65 28/68/66
f 29/69/67 24/60/68 22/57/69 6/11/70 2/4/71
f 28/67/72 2/23/73 10/24/74 25/62/75
f 11/37/76 14/44/77 16/46/78 27/66/79
f 30/72/80 15/45/81 14/43/82 11/19/83 3/20/84
f 19/52/85 3/7/86 7/6/87 17/48/88
f 23/59/89 20/53/90 6/14/91 22/58/92
f 4/17/93 15/45/94 30/72/95
f 19/52/96 30/71/97 3/7/98
f 28/67/99 29/70/100 2/23/101
f 1/10/102 24/60/103 29/69/104
f 8/31/105 23/59/106 21/56/107 5/12/108
f 6/14/109 20/53/110 17/49/111 7/34/112
f 27/66/113 16/46/114 9/25/115 26/65/116
f 11/37/117 27/66/118 25/63/119 10/26/120
