# This file uses centimeters as units for non-parametric coordinates.

v 174.494385 -0.000183 11.250000
v 195.505615 -0.000183 11.250000
v 176.443604 -4.337677 11.250000
v 193.556396 -4.337677 11.250000
v 176.443604 -4.337677 40.125244
v 193.556396 -4.337677 40.125244
v 174.494385 -0.000183 41.460175
v 195.505615 -0.000183 41.460175
v 179.641357 -4.337677 11.250000
v 190.358643 -4.337677 11.250000
v 179.641357 -8.675171 35.661926
v 190.358643 -8.675171 35.661926
v 179.641357 -4.337677 36.996887
v 190.358643 -4.337677 36.996887
v 179.641357 -29.623199 11.250000
v 190.358643 -29.623199 11.250000
v 190.358643 -28.276154 19.002777
v 179.641357 -28.276154 19.002777
v 190.358643 -12.829620 24.710266
v 179.641357 -12.829620 24.710266
v 179.641357 -16.097046 22.772278
v 190.358643 -16.097046 22.772278
v 179.641357 -20.184570 24.710266
v 190.358643 -20.184570 24.710266
v 179.641357 -24.936920 23.374176
v 190.358643 -24.936920 23.374176
v 54.494385 -0.000183 11.250000
v 75.505615 -0.000183 11.250000
v 56.443604 -4.337677 11.250000
v 73.556396 -4.337677 11.250000
v 56.443604 -4.337677 40.125244
v 73.556396 -4.337677 40.125244
v 54.494385 -0.000183 41.460175
v 75.505615 -0.000183 41.460175
v 59.641357 -4.337677 11.250000
v 70.358643 -4.337677 11.250000
v 59.641357 -8.675171 35.661926
v 70.358643 -8.675171 35.661926
v 59.641357 -4.337677 36.996887
v 70.358643 -4.337677 36.996887
v 59.641357 -29.623199 11.250000
v 70.358643 -29.623199 11.250000
v 70.358643 -28.276154 19.002777
v 59.641357 -28.276154 19.002777
v 70.358643 -12.829620 24.710266
v 59.641357 -12.829620 24.710266
v 59.641357 -16.097046 22.772278
v 70.358643 -16.097046 22.772278
v 59.641357 -20.184570 24.710266
v 70.358643 -20.184570 24.710266
v 59.641357 -24.936920 23.374176
v 70.358643 -24.936920 23.374176
v 0.000000 -0.000183 0.000000
v 0.000000 18.608551 32.253906
v 0.000000 25.194916 0.000000
v 0.000000 25.194916 24.147583
v 0.000000 18.608551 42.623779
v 0.000000 -0.000183 43.963074
v 0.000000 11.699127 43.963074
v 0.000000 13.616943 53.849121
v 0.000000 16.919983 54.703918
v 0.000000 18.608551 58.109314
v 0.000000 25.194916 50.730133
v 0.000000 25.194916 58.109314
v 250.000000 -0.000183 0.000000
v 250.000000 25.194916 0.000000
v 293.963135 -0.000183 43.963074
v 274.147705 25.194916 24.147583
v 282.253906 18.608551 32.253906
v 293.963135 11.699127 43.963074
v 292.623779 18.608551 42.623779
v 303.849121 13.616943 53.849121
v 300.730225 25.194916 50.730133
v 304.703857 16.919983 54.703918
v 308.109375 18.608551 58.109314
v 308.109375 25.194916 58.109314
v 0.000000 34.996735 -17.914551
v 249.999268 25.194824 0.115540
v 0.000000 25.194824 0.115601
v 0.000000 58.969849 -37.892456
v 212.107666 58.969849 -37.892487
v 249.999268 25.258118 -0.000885
v 250.115479 25.194824 0.115540
v 249.999268 38.370453 -0.000885
v 249.999268 25.194824 24.235016
v 274.235107 25.194824 24.235046
v 0.000000 25.194824 24.235077
v 232.085449 34.996735 -17.914551
v 196.919922 -0.000183 0.000000
v 193.160156 25.194916 0.000000
v 200.883789 -0.000183 43.963074
v 195.337402 25.194916 24.147583
v 197.051025 18.608551 32.253906
v 199.137939 11.699127 43.963074
v 197.986084 18.608551 42.623779
v 199.742920 13.616943 53.849121
v 197.814972 25.194916 51.624493
v 199.326904 16.919983 54.703918
v 199.382568 18.608551 58.109314
v 198.318817 25.194916 57.214954
v 123.301025 25.194916 0.000000
v 97.542480 25.194916 24.147583
v 88.844208 18.608551 33.585133
v 75.787140 18.608551 41.292553
v 69.186768 25.194916 50.730133
v 61.237190 24.705130 58.109314
v 119.289063 -0.000183 0.000000
v 72.393311 -0.000183 43.963074
v 74.256104 11.699127 43.963074
v 64.828758 13.944465 53.849121
v 62.816998 16.592463 54.703918
v 60.344353 19.098335 58.109314
vt 0.195024 0.127850
vt 0.194238 0.127834
vt 0.194192 0.127063
vt 0.194989 0.127076
vt 0.194402 0.126872
vt 0.195161 0.126884
vt 0.194443 0.127608
vt 0.195192 0.127623
vt 0.194990 0.126991
vt 0.194199 0.126990
vt 0.194402 0.126872
vt 0.195161 0.126884
vt 0.195161 0.126884
vt 0.194402 0.126872
vt 0.194443 0.127608
vt 0.195192 0.127623
vt 0.194221 0.127652
vt 0.195008 0.127677
vt 0.194402 0.126872
vt 0.194402 0.126872
vt 0.195161 0.126884
vt 0.195161 0.126884
vt 0.195161 0.126884
vt 0.194402 0.126872
vt 0.195161 0.126884
vt 0.194402 0.126872
vt 0.195024 0.127850
vt 0.194238 0.127834
vt 0.194192 0.127063
vt 0.194989 0.127076
vt 0.194402 0.126872
vt 0.195161 0.126884
vt 0.194443 0.127608
vt 0.195192 0.127623
vt 0.194990 0.126991
vt 0.194199 0.126990
vt 0.194402 0.126872
vt 0.195161 0.126884
vt 0.195161 0.126884
vt 0.194402 0.126872
vt 0.194443 0.127608
vt 0.195192 0.127623
vt 0.194221 0.127652
vt 0.195008 0.127677
vt 0.194402 0.126872
vt 0.194402 0.126872
vt 0.195161 0.126884
vt 0.195161 0.126884
vt 0.195161 0.126884
vt 0.194402 0.126872
vt 0.195161 0.126884
vt 0.194402 0.126872
vt 0.195191 0.127634
vt 0.195076 0.127148
vt 0.195162 0.126871
vt 0.195090 0.126964
vt 0.195031 0.127203
vt 0.195021 0.127850
vt 0.195006 0.127464
vt 0.195003 0.127401
vt 0.194999 0.127293
vt 0.194996 0.127237
vt 0.195011 0.127052
vt 0.194989 0.127076
vt 0.194629 0.127524
vt 0.194604 0.126975
vt 0.194330 0.127689
vt 0.194455 0.127048
vt 0.194407 0.127195
vt 0.194314 0.127412
vt 0.194339 0.127226
vt 0.194273 0.127371
vt 0.194289 0.127117
vt 0.194265 0.127293
vt 0.194250 0.127255
vt 0.194243 0.127137
vt 0.998542 0.001434
vt 0.001423 0.001434
vt 0.001423 0.075119
vt 0.927094 0.075119
vt 0.998542 0.001910
vt 0.036970 0.197406
vt 0.831056 0.197406
vt 0.905849 0.117737
vt 0.036970 0.117737
vt 0.998078 0.001434
vt 0.998542 0.091593
vt 0.998542 0.001434
vt 0.901877 0.001434
vt 0.001423 0.001434
vt 0.001423 0.232553
vt 0.847412 0.232553
vt 0.194938 0.127113
vt 0.194692 0.127269
vt 0.194695 0.127337
vt 0.194811 0.127263
vt 0.194534 0.127370
vt 0.194694 0.127337
vt 0.194748 0.127548
vt 0.194731 0.126952
vt 0.194549 0.127740
vt 0.194637 0.127024
vt 0.194609 0.127181
vt 0.194538 0.127429
vt 0.194563 0.127218
vt 0.194523 0.127382
vt 0.194536 0.127095
vt 0.194519 0.127293
vt 0.194513 0.127249
vt 0.194508 0.127115
vt 0.194887 0.126922
vt 0.194864 0.126994
vt 0.194868 0.127163
vt 0.194850 0.127209
vt 0.194845 0.127067
vt 0.194840 0.127088
vt 0.194923 0.127582
vt 0.194851 0.127810
vt 0.194832 0.127451
vt 0.194850 0.127395
vt 0.194845 0.127293
vt 0.194850 0.127241
vn 0.000000 0.000000 -1.000000
vn 0.000000 0.000000 -1.000000
vn 0.000000 0.000000 -1.000000
vn 0.000000 0.000000 -1.000000
vn 0.000000 -1.000000 0.000000
vn 0.000000 -1.000000 0.000000
vn 0.000000 -1.000000 0.000000
vn 0.000000 -1.000000 0.000000
vn 0.000000 -0.294150 0.955759
vn 0.000000 -0.294150 0.955759
vn 0.000000 -0.294150 0.955759
vn 0.000000 -0.294150 0.955759
vn 0.912131 -0.409899 0.000000
vn 0.912131 -0.409899 0.000000
vn 0.912131 -0.409899 0.000000
vn 0.912131 -0.409899 0.000000
vn -0.912131 -0.409900 0.000000
vn -0.912131 -0.409900 0.000000
vn -0.912131 -0.409900 0.000000
vn -0.912131 -0.409900 0.000000
vn 0.000000 -0.985239 0.171185
vn 0.000000 -0.985239 0.171185
vn 0.000000 -0.985239 0.171185
vn 0.000000 -0.985239 0.171185
vn 0.000000 -0.294156 0.955758
vn 0.000000 -0.294156 0.955758
vn 0.000000 -0.294156 0.955758
vn 0.000000 -0.294156 0.955758
vn 1.000000 0.000000 0.000000
vn 1.000000 0.000000 0.000000
vn 1.000000 0.000000 0.000000
vn -1.000000 -0.000004 0.000000
vn -1.000000 -0.000004 0.000000
vn -1.000000 -0.000004 0.000000
vn 1.000000 0.000000 0.000000
vn 1.000000 0.000000 0.000000
vn 1.000000 0.000000 0.000000
vn 0.000000 -0.510140 0.860091
vn 0.000000 -0.510140 0.860091
vn 0.000000 -0.510140 0.860091
vn 0.000000 -0.510140 0.860091
vn -1.000000 -0.000001 0.000000
vn -1.000000 -0.000001 0.000000
vn -1.000000 -0.000001 0.000000
vn 1.000000 0.000003 0.000000
vn 1.000000 0.000003 0.000000
vn 1.000000 0.000003 0.000000
vn 0.000000 -0.934987 0.354682
vn 0.000000 -0.934987 0.354682
vn 0.000000 -0.934987 0.354682
vn 0.000000 -0.934987 0.354682
vn -1.000000 0.000000 0.000000
vn -1.000000 0.000000 0.000000
vn -1.000000 0.000000 0.000000
vn -1.000000 0.000000 0.000000
vn -1.000000 0.000000 0.000000
vn -1.000000 0.000000 0.000000
vn -1.000000 0.000000 0.000000
vn 0.000000 0.428410 0.903585
vn 0.000000 0.428410 0.903585
vn 0.000000 0.428410 0.903585
vn 0.000000 0.428410 0.903585
vn 1.000000 0.000000 0.000000
vn 1.000000 0.000000 0.000000
vn 1.000000 0.000000 0.000000
vn 1.000000 0.000000 0.000000
vn 0.000000 0.000000 -1.000000
vn 0.000000 0.000000 -1.000000
vn 0.000000 0.000000 -1.000000
vn 0.000000 0.000000 -1.000000
vn -1.000000 0.000002 0.000000
vn -1.000000 0.000002 0.000000
vn -1.000000 0.000002 0.000000
vn 0.000000 -0.270650 0.962678
vn 0.000000 -0.270650 0.962678
vn 0.000000 -0.270650 0.962678
vn 0.000000 -0.270650 0.962678
vn 1.000000 -0.000010 0.000000
vn 1.000000 -0.000010 0.000000
vn 1.000000 -0.000010 0.000000
vn -1.000000 0.000000 0.000000
vn -1.000000 0.000000 0.000000
vn -1.000000 0.000000 0.000000
vn 0.000000 -0.794673 0.607037
vn 0.000000 -0.794673 0.607037
vn 0.000000 -0.794673 0.607037
vn 0.000000 -0.794673 0.607037
vn 1.000000 0.000000 0.000000
vn 1.000000 0.000000 0.000000
vn 1.000000 0.000000 0.000000
vn 0.000000 0.000000 -1.000000
vn 0.000000 0.000000 -1.000000
vn 0.000000 0.000000 -1.000000
vn 0.000000 0.000000 -1.000000
vn 0.000000 -1.000000 0.000000
vn 0.000000 -1.000000 0.000000
vn 0.000000 -1.000000 0.000000
vn 0.000000 -1.000000 0.000000
vn 0.000000 -0.294150 0.955759
vn 0.000000 -0.294150 0.955759
vn 0.000000 -0.294150 0.955759
vn 0.000000 -0.294150 0.955759
vn 0.912130 -0.409901 0.000000
vn 0.912130 -0.409901 0.000000
vn 0.912130 -0.409901 0.000000
vn 0.912130 -0.409901 0.000000
vn -0.912130 -0.409901 0.000000
vn -0.912130 -0.409901 0.000000
vn -0.912130 -0.409901 0.000000
vn -0.912130 -0.409901 0.000000
vn 0.000000 -0.985239 0.171185
vn 0.000000 -0.985239 0.171185
vn 0.000000 -0.985239 0.171185
vn 0.000000 -0.985239 0.171185
vn 0.000000 -0.294156 0.955758
vn 0.000000 -0.294156 0.955758
vn 0.000000 -0.294156 0.955758
vn 0.000000 -0.294156 0.955758
vn 1.000000 0.000000 0.000000
vn 1.000000 0.000000 0.000000
vn 1.000000 0.000000 0.000000
vn -1.000000 0.000000 0.000000
vn -1.000000 0.000000 0.000000
vn -1.000000 0.000000 0.000000
vn 1.000000 -0.000002 0.000000
vn 1.000000 -0.000002 0.000000
vn 1.000000 -0.000002 0.000000
vn 0.000000 -0.510140 0.860091
vn 0.000000 -0.510140 0.860091
vn 0.000000 -0.510140 0.860091
vn 0.000000 -0.510140 0.860091
vn -1.000000 -0.000001 0.000000
vn -1.000000 -0.000001 0.000000
vn -1.000000 -0.000001 0.000000
vn 1.000000 0.000001 0.000000
vn 1.000000 0.000001 0.000000
vn 1.000000 0.000001 0.000000
vn 0.000000 -0.934987 0.354682
vn 0.000000 -0.934987 0.354682
vn 0.000000 -0.934987 0.354682
vn 0.000000 -0.934987 0.354682
vn -1.000000 0.000001 0.000000
vn -1.000000 0.000001 0.000000
vn -1.000000 0.000001 0.000000
vn -1.000000 0.000000 0.000000
vn -1.000000 0.000000 0.000000
vn -1.000000 0.000000 0.000000
vn -1.000000 0.000000 0.000000
vn 0.000000 0.428410 0.903585
vn 0.000000 0.428410 0.903585
vn 0.000000 0.428410 0.903585
vn 0.000000 0.428410 0.903585
vn 1.000000 0.000000 0.000000
vn 1.000000 0.000000 0.000000
vn 1.000000 0.000000 0.000000
vn 1.000000 0.000000 0.000000
vn 0.000000 0.000000 -1.000000
vn 0.000000 0.000000 -1.000000
vn 0.000000 0.000000 -1.000000
vn 0.000000 0.000000 -1.000000
vn -1.000000 -0.000000 0.000000
vn -1.000000 -0.000000 0.000000
vn -1.000000 -0.000000 0.000000
vn 0.000000 -0.270650 0.962678
vn 0.000000 -0.270650 0.962678
vn 0.000000 -0.270650 0.962678
vn 0.000000 -0.270650 0.962678
vn 1.000000 0.000000 0.000000
vn 1.000000 0.000000 0.000000
vn 1.000000 0.000000 0.000000
vn -1.000000 0.000000 0.000000
vn -1.000000 0.000000 0.000000
vn -1.000000 0.000000 0.000000
vn 0.000000 -0.794674 0.607037
vn 0.000000 -0.794674 0.607037
vn 0.000000 -0.794674 0.607037
vn 0.000000 -0.794674 0.607037
vn 1.000000 0.000000 0.000000
vn 1.000000 0.000000 0.000000
vn 1.000000 0.000000 0.000000
vn -1.000000 0.000000 0.000000
vn -1.000000 0.000000 0.000000
vn -1.000000 0.000000 0.000000
vn -1.000000 0.000000 0.000000
vn -1.000000 0.000000 0.000000
vn -1.000000 0.000000 0.000000
vn -1.000000 0.000000 0.000000
vn -1.000000 0.000000 0.000000
vn -1.000000 0.000000 0.000000
vn -1.000000 0.000000 0.000000
vn -1.000000 0.000000 0.000000
vn -1.000000 0.000000 0.000000
vn -1.000000 0.000000 0.000000
vn -1.000000 0.000000 0.000000
vn -1.000000 0.000000 0.000000
vn -1.000000 0.000000 0.000000
vn -1.000000 0.000000 0.000000
vn -1.000000 0.000000 0.000000
vn -1.000000 0.000000 0.000000
vn -1.000000 0.000000 0.000000
vn -1.000000 0.000000 0.000000
vn -1.000000 0.000000 0.000000
vn -1.000000 0.000000 0.000000
vn -1.000000 0.000000 0.000000
vn -1.000000 0.000000 0.000000
vn -1.000000 0.000000 0.000000
vn 0.000000 0.000000 -1.000000
vn 0.000000 0.000000 -1.000000
vn 0.000000 0.000000 -1.000000
vn 0.000000 0.000000 -1.000000
vn -0.000000 -1.000000 0.000000
vn -0.000000 -1.000000 0.000000
vn -0.000000 -1.000000 0.000000
vn -0.000000 -1.000000 0.000000
vn 0.000000 1.000000 0.000000
vn 0.000000 1.000000 0.000000
vn 0.000000 1.000000 0.000000
vn 0.000000 1.000000 0.000000
vn 0.000000 0.776115 0.630591
vn 0.000000 0.776115 0.630591
vn 0.000000 0.776115 0.630591
vn 0.000000 0.776115 0.630591
vn 0.000000 0.000000 1.000000
vn 0.000000 0.000000 1.000000
vn 0.000000 0.000000 1.000000
vn 0.000000 0.000000 1.000000
vn 0.000000 1.000000 -0.000000
vn 0.000000 1.000000 -0.000000
vn 0.000000 1.000000 -0.000000
vn 0.000000 1.000000 -0.000000
vn 0.000000 -0.981699 0.190442
vn 0.000000 -0.981699 0.190442
vn 0.000000 -0.981699 0.190442
vn 0.000000 -0.981699 0.190442
vn -0.002758 0.792938 -0.609296
vn -0.002758 0.792938 -0.609296
vn -0.002758 0.792938 -0.609296
vn -0.002758 0.792938 -0.609296
vn 0.000000 -0.250538 0.968107
vn 0.000000 -0.250538 0.968107
vn 0.000000 -0.250538 0.968107
vn 0.000000 -0.250538 0.968107
vn 0.000000 -0.895909 0.444237
vn 0.000000 -0.895909 0.444237
vn 0.000000 -0.895909 0.444237
vn 0.000000 -0.895909 0.444237
vn 0.000000 1.000000 0.000000
vn 0.000000 1.000000 0.000000
vn 0.000000 1.000000 0.000000
vn 0.000000 1.000000 0.000000
vn -0.004084 0.067410 0.997717
vn -0.004084 0.067410 0.997717
vn -0.004084 0.067410 0.997717
vn -0.004084 0.067410 0.997717
vn 0.707104 -0.000010 -0.707109
vn 0.707104 -0.000010 -0.707109
vn 0.707104 -0.000010 -0.707109
vn 0.707104 -0.000010 -0.707109
vn 0.707109 0.000011 -0.707105
vn 0.707109 0.000011 -0.707105
vn 0.707109 0.000011 -0.707105
vn 0.707109 0.000011 -0.707105
vn 0.707106 -0.000003 -0.707107
vn 0.707106 -0.000003 -0.707107
vn 0.707106 -0.000003 -0.707107
vn 0.707106 -0.000003 -0.707107
vn 0.707108 -0.000015 -0.707106
vn 0.707108 -0.000015 -0.707106
vn 0.707108 -0.000015 -0.707106
vn 0.707106 0.000000 -0.707107
vn 0.707106 0.000000 -0.707107
vn 0.707106 0.000000 -0.707107
vn 0.707106 0.000002 -0.707108
vn 0.707106 0.000002 -0.707108
vn 0.707106 0.000002 -0.707108
vn 0.707106 0.000002 -0.707108
vn -0.000000 -0.878565 -0.477624
vn -0.000000 -0.878565 -0.477624
vn -0.000000 -0.878565 -0.477624
vn -0.000000 -0.878565 -0.477624
vn -0.000000 -0.878565 -0.477624
vn -0.000000 -0.878565 -0.477624
vn -0.000000 -0.878565 -0.477624
vn -0.000000 -0.640191 -0.768216
vn -0.000000 -0.640191 -0.768216
vn -0.000000 -0.640191 -0.768216
vn -0.000000 -0.640191 -0.768216
vn 0.000000 -0.878582 -0.477591
vn 0.000000 -0.878582 -0.477591
vn 0.000000 -0.878582 -0.477591
vn -0.000001 0.878565 0.477623
vn -0.000001 0.878565 0.477623
vn -0.000001 0.878565 0.477623
vn -1.000000 0.000000 0.000000
vn -1.000000 0.000000 0.000000
vn -1.000000 0.000000 0.000000
vn -1.000000 0.000000 0.000000
vn -0.000001 0.878565 0.477623
vn -0.000001 0.878565 0.477623
vn -0.000001 0.878565 0.477623
vn 0.000000 -1.000000 0.000000
vn 0.000000 -1.000000 0.000000
vn 0.000000 -1.000000 0.000000
vn 0.000000 -1.000000 0.000000
vn 0.000000 -1.000000 0.000000
vn 0.000000 -1.000000 0.000000
vn 0.000000 -1.000000 0.000000
vn 0.000000 -1.000000 0.000000
vn 0.707104 -0.000007 -0.707109
vn 0.707104 -0.000007 -0.707109
vn 0.707104 -0.000007 -0.707109
vn 0.707104 -0.000007 -0.707109
vn 0.000000 0.878565 0.477623
vn 0.000000 0.878565 0.477623
vn 0.000000 0.878565 0.477623
vn 0.000000 0.878565 0.477623
vn 0.707108 -0.000013 -0.707105
vn 0.707108 -0.000013 -0.707105
vn 0.707108 -0.000013 -0.707105
vn 0.707108 -0.000013 -0.707105
vn 0.000000 0.000000 -1.000000
vn 0.000000 0.000000 -1.000000
vn 0.000000 0.000000 -1.000000
vn 0.000000 0.000000 -1.000000
vn 0.000000 -1.000000 0.000000
vn 0.000000 -1.000000 0.000000
vn 0.000000 -1.000000 0.000000
vn 0.000000 -1.000000 0.000000
vn 0.000000 1.000000 0.000000
vn 0.000000 1.000000 0.000000
vn 0.000000 1.000000 0.000000
vn 0.000000 1.000000 0.000000
vn 0.003886 0.798926 0.601417
vn 0.003886 0.798926 0.601417
vn 0.003886 0.798926 0.601417
vn 0.003886 0.798926 0.601417
vn -0.000000 0.000000 1.000000
vn -0.000000 0.000000 1.000000
vn -0.000000 0.000000 1.000000
vn -0.000000 0.000000 1.000000
vn 0.000000 1.000000 0.000000
vn 0.000000 1.000000 0.000000
vn 0.000000 1.000000 0.000000
vn 0.000000 1.000000 0.000000
vn -0.001234 -0.978654 0.205512
vn -0.001234 -0.978654 0.205512
vn -0.001234 -0.978654 0.205512
vn -0.001234 -0.978654 0.205512
vn 0.005147 0.814563 -0.580052
vn 0.005147 0.814563 -0.580052
vn 0.005147 0.814563 -0.580052
vn 0.005147 0.814563 -0.580052
vn -0.000000 -0.276109 0.961126
vn -0.000000 -0.276109 0.961126
vn -0.000000 -0.276109 0.961126
vn -0.000000 -0.276109 0.961126
vn -0.000501 -0.851560 0.524257
vn -0.000501 -0.851560 0.524257
vn -0.000501 -0.851560 0.524257
vn -0.000501 -0.851560 0.524257
vn -0.001842 0.999325 0.036681
vn -0.001842 0.999325 0.036681
vn -0.001842 0.999325 0.036681
vn -0.001842 0.999325 0.036681
vn 0.003230 0.073197 0.997312
vn 0.003230 0.073197 0.997312
vn 0.003230 0.073197 0.997312
vn 0.003230 0.073197 0.997312
vn 0.000000 0.000000 -1.000000
vn 0.000000 0.000000 -1.000000
vn 0.000000 0.000000 -1.000000
vn 0.000000 0.000000 -1.000000
vn 0.000000 -1.000000 0.000000
vn 0.000000 -1.000000 0.000000
vn 0.000000 -1.000000 0.000000
vn 0.000000 -1.000000 0.000000
vn 0.000000 1.000000 0.000000
vn 0.000000 1.000000 0.000000
vn 0.000000 1.000000 0.000000
vn 0.000000 1.000000 0.000000
vn -0.004279 0.800686 0.599069
vn -0.004279 0.800686 0.599069
vn -0.004279 0.800686 0.599069
vn -0.004279 0.800686 0.599069
vn 0.000000 0.000000 1.000000
vn 0.000000 0.000000 1.000000
vn 0.000000 0.000000 1.000000
vn 0.000000 0.000000 1.000000
vn 0.000000 1.000000 0.000000
vn 0.000000 1.000000 0.000000
vn 0.000000 1.000000 0.000000
vn 0.000000 1.000000 0.000000
vn 0.002304 -0.978319 0.207090
vn 0.002304 -0.978319 0.207090
vn 0.002304 -0.978319 0.207090
vn 0.002304 -0.978319 0.207090
vn -0.005526 0.798665 -0.601750
vn -0.005526 0.798665 -0.601750
vn -0.005526 0.798665 -0.601750
vn -0.005526 0.798665 -0.601750
vn 0.000000 -0.276109 0.961126
vn 0.000000 -0.276109 0.961126
vn 0.000000 -0.276109 0.961126
vn 0.000000 -0.276109 0.961126
vn 0.001122 -0.851298 0.524681
vn 0.001122 -0.851298 0.524681
vn 0.001122 -0.851298 0.524681
vn 0.001122 -0.851298 0.524681
vn 0.003753 0.999374 0.035188
vn 0.003753 0.999374 0.035188
vn 0.003753 0.999374 0.035188
vn 0.003753 0.999374 0.035188
vn -0.000000 0.000000 1.000000
vn -0.000000 0.000000 1.000000
vn -0.000000 0.000000 1.000000
vn -0.000000 0.000000 1.000000
s off
f 1/1/1 2/2/2 4/3/3 3/4/4
f 3/4/5 4/3/6 6/5/7 5/6/8
f 5/6/9 6/5/10 8/7/11 7/8/12
f 2/2/13 8/7/14 6/5/15 4/3/16
f 7/8/17 1/1/18 3/4/19 5/6/20
f 15/9/21 16/10/22 17/11/23 18/12/24
f 11/13/25 12/14/26 14/15/27 13/16/28
f 10/17/29 14/15/30 12/14/31
f 13/16/32 9/18/33 11/13/34
f 10/17/35 19/19/36 22/20/37
f 19/19/38 20/21/39 21/22/40 22/20/41
f 20/21/42 9/18/43 21/22/44
f 10/17/45 12/14/46 19/19/47
f 12/14/48 11/13/49 20/21/50 19/19/51
f 11/13/52 9/18/53 20/21/54
f 21/22/55 9/18/56 15/9/57 23/23/58
f 22/20/59 21/22/60 23/23/61 24/24/62
f 10/17/63 22/20/64 24/24/65 16/10/66
f 9/18/67 10/17/68 16/10/69 15/9/70
f 23/23/71 15/9/72 25/25/73
f 24/24/74 23/23/75 25/25/76 26/26/77
f 16/10/78 24/24/79 26/26/80
f 25/25/81 15/9/82 18/12/83
f 26/26/84 25/25/85 18/12/86 17/11/87
f 16/10/88 26/26/89 17/11/90
f 27/27/91 28/28/92 30/29/93 29/30/94
f 29/30/95 30/29/96 32/31/97 31/32/98
f 31/32/99 32/31/100 34/33/101 33/34/102
f 28/28/103 34/33/104 32/31/105 30/29/106
f 33/34/107 27/27/108 29/30/109 31/32/110
f 41/35/111 42/36/112 43/37/113 44/38/114
f 37/39/115 38/40/116 40/41/117 39/42/118
f 36/43/119 40/41/120 38/40/121
f 39/42/122 35/44/123 37/39/124
f 36/43/125 45/45/126 48/46/127
f 45/45/128 46/47/129 47/48/130 48/46/131
f 46/47/132 35/44/133 47/48/134
f 36/43/135 38/40/136 45/45/137
f 38/40/138 37/39/139 46/47/140 45/45/141
f 37/39/142 35/44/143 46/47/144
f 47/48/145 35/44/146 41/35/147 49/49/148
f 48/46/149 47/48/150 49/49/151 50/50/152
f 36/43/153 48/46/154 50/50/155 42/36/156
f 35/44/157 36/43/158 42/36/159 41/35/160
f 49/49/161 41/35/162 51/51/163
f 50/50/164 49/49/165 51/51/166 52/52/167
f 42/36/168 50/50/169 52/52/170
f 51/51/171 41/35/172 44/38/173
f 52/52/174 51/51/175 44/38/176 43/37/177
f 42/36/178 52/52/179 43/37/180
f 53/53/181 54/54/182 55/55/183
f 55/55/184 54/54/185 56/56/186
f 57/57/187 58/58/188 59/59/189
f 57/57/190 59/59/191 60/60/192
f 57/57/193 60/60/194 61/61/195
f 57/57/196 61/61/197 62/62/198
f 54/54/199 53/53/200 58/58/201 57/57/202
f 63/63/203 57/57/204 62/62/205 64/64/206
f 65/65/207 89/99/208 90/100/209 66/66/210
f 67/67/211 91/101/212 89/99/213 65/65/214
f 66/66/215 90/100/216 92/102/217 68/68/218
f 68/68/219 92/102/220 93/103/221 69/69/222
f 70/70/223 94/104/224 91/101/225 67/67/226
f 69/69/227 93/103/228 95/105/229 71/71/230
f 72/72/231 96/106/232 94/104/233 70/70/234
f 71/71/235 95/105/236 97/107/237 73/73/238
f 74/74/239 98/108/240 96/106/241 72/72/242
f 75/75/243 99/109/244 98/108/245 74/74/246
f 73/73/247 97/107/248 100/110/249 76/76/250
f 76/76/251 100/110/252 99/109/253 75/75/254
f 74/74/255 73/73/256 76/76/257 75/75/258
f 71/71/259 74/74/260 72/72/261 70/70/262
f 69/69/263 65/65/264 66/66/265 68/68/266
f 71/71/267 73/73/268 74/74/269
f 65/65/270 70/70/271 67/67/272
f 71/71/273 70/70/274 65/65/275 69/69/276
f 78/77/277 79/78/278 82/81/279
f 88/80/280 82/81/281 79/78/282 77/79/283
f 80/82/284 81/83/285 88/84/286 77/85/287
f 78/77/288 82/81/289 83/86/290
f 84/87/291 85/88/292 86/89/293
f 77/79/294 79/78/295 87/90/296 80/91/297
f 81/92/298 85/88/299 84/87/300
f 79/78/301 78/77/302 85/88/303 87/90/304
f 86/89/305 85/88/306 78/77/307 83/86/308
f 81/93/309 84/94/310 82/95/311 88/96/312
f 81/92/313 80/91/314 87/90/315 85/88/316
f 82/95/317 84/94/318 86/97/319 83/98/320
f 90/100/321 89/99/322 107/117/323 101/111/324
f 89/99/325 91/101/326 108/118/327 107/117/328
f 92/102/329 90/100/330 101/111/331 102/112/332
f 93/103/333 92/102/334 102/112/335 103/113/336
f 91/101/337 94/104/338 109/119/339 108/118/340
f 95/105/341 93/103/342 103/113/343 104/114/344
f 94/104/345 96/106/346 110/120/347 109/119/348
f 97/107/349 95/105/350 104/114/351 105/115/352
f 96/106/353 98/108/354 111/121/355 110/120/356
f 98/108/357 99/109/358 112/122/359 111/121/360
f 100/110/361 97/107/362 105/115/363 106/116/364
f 99/109/365 100/110/366 106/116/367 112/122/368
f 101/111/369 107/117/370 53/53/371 55/55/372
f 107/117/373 108/118/374 58/58/375 53/53/376
f 102/112/377 101/111/378 55/55/379 56/56/380
f 103/113/381 102/112/382 56/56/383 54/54/384
f 108/118/385 109/119/386 59/59/387 58/58/388
f 104/114/389 103/113/390 54/54/391 57/57/392
f 109/119/393 110/120/394 60/60/395 59/59/396
f 105/115/397 104/114/398 57/57/399 63/63/400
f 110/120/401 111/121/402 61/61/403 60/60/404
f 111/121/405 112/122/406 62/62/407 61/61/408
f 106/116/409 105/115/410 63/63/411 64/64/412
f 112/122/413 106/116/414 64/64/415 62/62/416
