# This file uses centimeters as units for non-parametric coordinates.

v -8.421316 299.999817 -11.792542
v 8.641886 299.999817 -11.792542
v -6.838301 295.662323 -11.792534
v 7.058878 295.662323 -11.792542
v -6.838301 295.662323 -42.833214
v 7.058876 295.662323 -42.833206
v -8.421316 299.999817 -44.168152
v 8.641884 299.999817 -44.168152
v -5.248267 295.662323 -11.792542
v 5.468836 295.662323 -11.792542
v -5.248251 291.324829 -37.981781
v 5.468819 291.324829 -37.981781
v -5.248266 295.662323 -39.704865
v 5.468834 295.662323 -39.704865
v -5.248251 259.927399 -11.792542
v 5.468821 259.927399 -11.792542
v 5.468820 263.440430 -19.545303
v -5.248251 263.440430 -19.545303
v 5.468821 286.306549 -26.097519
v -5.248251 286.306549 -26.097519
v -5.248251 280.404053 -23.793854
v 5.468821 280.404053 -23.793854
v -5.248251 273.891235 -25.546661
v 5.468821 273.891235 -25.546661
v -5.248251 268.191620 -23.916718
v 5.468821 268.191620 -23.916718
v 11.792535 299.999817 8.421318
v 11.792535 299.999817 -8.641884
v 11.792535 295.662323 6.838303
v 11.792535 295.662323 -7.058876
v 42.833206 295.662323 6.838303
v 42.833206 295.662323 -7.058876
v 44.168156 299.999817 8.421318
v 44.168156 299.999817 -8.641884
v 11.792535 295.662323 5.248268
v 11.792535 295.662323 -5.468834
v 37.981785 291.324829 5.248253
v 37.981785 291.324829 -5.468819
v 39.704865 295.662323 5.248268
v 39.704865 295.662323 -5.468834
v 11.792535 259.927399 5.248253
v 11.792535 259.927399 -5.468819
v 19.545300 263.440430 -5.468819
v 19.545300 263.440430 5.248253
v 26.097515 286.306549 -5.468819
v 26.097515 286.306549 5.248253
v 23.793846 280.404053 5.248253
v 23.793846 280.404053 -5.468819
v 25.546654 273.891235 5.248253
v 25.546654 273.891235 -5.468819
v 23.916721 268.191620 5.248253
v 23.916721 268.191620 -5.468819
v -19.445271 0.000000 19.445272
v 19.445271 0.000000 19.445272
v -12.875444 88.709969 12.875444
v 12.875444 90.007767 12.875444
v -12.875444 90.007767 -12.875456
v 12.875444 90.007767 -12.875456
v -19.445271 0.000000 -19.445284
v 19.445271 0.000000 -19.445284
v -9.729335 95.007767 9.729334
v 9.729335 95.007767 9.729334
v 9.729335 95.007767 -9.729345
v -9.547320 95.007767 -8.794719
v -9.729335 240.007751 9.729334
v 9.729335 240.007751 9.729334
v 9.729335 240.007751 -9.729345
v -9.729335 240.007751 -9.729345
v -11.792535 246.369293 11.792536
v 11.792535 245.007751 11.792536
v 11.792535 245.007751 -11.792548
v -11.792535 245.007751 -11.792548
v -11.792535 300.007751 11.792536
v 11.792535 300.007751 11.792536
v 11.792535 300.007751 -11.792548
v -11.792535 300.007751 -11.792548
v 8.033435 186.692841 9.729334
v 9.729335 170.866440 -9.729345
v -9.729334 145.304810 -9.729345
v -9.729335 134.477417 9.729334
v -9.729335 180.669647 9.729334
v -5.288642 167.340912 9.729334
v -9.729335 156.993912 6.950227
v -12.156619 70.882332 12.354506
v 12.156619 56.332291 12.875444
v -12.875444 69.197632 -12.354517
v 12.875444 57.376930 -12.875456
v -12.758154 11.565886 12.790442
v 12.727859 11.565886 12.875444
v -12.875444 11.565886 -12.788385
v 12.875444 11.565887 -12.875456
v -19.445271 -100.000000 -19.445284
v 19.445271 -100.000000 -19.445284
v 19.445271 -100.000000 19.445272
v -19.445271 -100.000000 19.445272
vt 0.195024 0.127850
vt 0.194238 0.127834
vt 0.194192 0.127063
vt 0.194989 0.127076
vt 0.194402 0.126872
vt 0.195161 0.126884
vt 0.194443 0.127608
vt 0.195192 0.127623
vt 0.194990 0.126991
vt 0.194199 0.126990
vt 0.194402 0.126872
vt 0.195161 0.126884
vt 0.195161 0.126884
vt 0.194402 0.126872
vt 0.194443 0.127608
vt 0.195192 0.127623
vt 0.194221 0.127652
vt 0.195008 0.127677
vt 0.194402 0.126872
vt 0.194402 0.126872
vt 0.195161 0.126884
vt 0.195161 0.126884
vt 0.195161 0.126884
vt 0.194402 0.126872
vt 0.195161 0.126884
vt 0.194402 0.126872
vt 0.194989 0.127076
vt 0.194192 0.127063
vt 0.194402 0.126872
vt 0.195161 0.126884
vt 0.194443 0.127608
vt 0.195192 0.127623
vt 0.194238 0.127834
vt 0.195024 0.127850
vt 0.194990 0.126991
vt 0.194199 0.126990
vt 0.194402 0.126872
vt 0.195161 0.126884
vt 0.195161 0.126884
vt 0.194402 0.126872
vt 0.194443 0.127608
vt 0.195192 0.127623
vt 0.194221 0.127652
vt 0.195008 0.127677
vt 0.194402 0.126872
vt 0.194402 0.126872
vt 0.195161 0.126884
vt 0.195161 0.126884
vt 0.195161 0.126884
vt 0.194402 0.126872
vt 0.195161 0.126884
vt 0.194402 0.126872
vt 0.195063 0.128574
vt 0.194277 0.128559
vt 0.194231 0.127788
vt 0.195028 0.127801
vt 0.195028 0.127801
vt 0.194231 0.127788
vt 0.194441 0.127596
vt 0.195200 0.127608
vt 0.195200 0.127608
vt 0.194441 0.127596
vt 0.194482 0.128333
vt 0.195231 0.128347
vt 0.194231 0.127788
vt 0.195028 0.127801
vt 0.194441 0.127596
vt 0.195200 0.127608
vt 0.194441 0.127596
vt 0.194231 0.127788
vt 0.195200 0.127608
vt 0.194629 0.127794
vt 0.195028 0.127801
vt 0.195114 0.127705
vt 0.195028 0.127801
vt 0.194231 0.127788
vt 0.194231 0.127788
vt 0.195028 0.127801
vt 0.194441 0.127596
vt 0.194441 0.127596
vt 0.195200 0.127608
vt 0.195200 0.127608
vt 0.195028 0.127801
vt 0.195035 0.127968
vt 0.194247 0.128064
vt 0.195207 0.127779
vt 0.194456 0.127863
vt 0.195058 0.128475
vt 0.194271 0.128457
vt 0.195227 0.128252
vt 0.194477 0.128238
vt 0.195231 0.128347
vt 0.194482 0.128333
vt 0.194277 0.128559
vt 0.195063 0.128574
vn 0.000000 -1.000000 0.000000
vn 0.000000 -1.000000 0.000000
vn 0.000000 -1.000000 0.000000
vn 0.000000 -1.000000 0.000000
vn 0.000000 -0.294151 -0.955759
vn 0.000000 -0.294151 -0.955759
vn 0.000000 -0.294151 -0.955759
vn 0.000000 -0.294151 -0.955759
vn 0.939394 -0.342840 -0.000000
vn 0.939394 -0.342840 -0.000000
vn 0.939394 -0.342840 -0.000000
vn 0.939394 -0.342840 -0.000000
vn -0.939393 -0.342842 0.000000
vn -0.939393 -0.342842 0.000000
vn -0.939393 -0.342842 0.000000
vn -0.939393 -0.342842 0.000000
vn 0.000000 -0.910851 -0.412736
vn 0.000000 -0.910851 -0.412736
vn 0.000000 -0.910851 -0.412736
vn 0.000000 -0.910851 -0.412736
vn 0.000000 -0.369187 -0.929355
vn 0.000000 -0.369187 -0.929355
vn 0.000000 -0.369187 -0.929355
vn 0.000000 -0.369187 -0.929355
vn 1.000000 -0.000004 -0.000000
vn 1.000000 -0.000004 -0.000000
vn 1.000000 -0.000004 -0.000000
vn -1.000000 -0.000004 -0.000000
vn -1.000000 -0.000004 -0.000000
vn -1.000000 -0.000004 -0.000000
vn 1.000000 -0.000000 -0.000001
vn 1.000000 -0.000000 -0.000001
vn 1.000000 -0.000000 -0.000001
vn 0.000000 -0.363578 -0.931564
vn 0.000000 -0.363578 -0.931564
vn 0.000000 -0.363578 -0.931564
vn 0.000000 -0.363578 -0.931564
vn -1.000000 -0.000000 -0.000001
vn -1.000000 -0.000000 -0.000001
vn -1.000000 -0.000000 -0.000001
vn 1.000000 -0.000001 -0.000001
vn 1.000000 -0.000001 -0.000001
vn 1.000000 -0.000001 -0.000001
vn 0.000000 -0.921236 -0.389004
vn 0.000000 -0.921236 -0.389004
vn 0.000000 -0.921236 -0.389004
vn 0.000000 -0.921236 -0.389004
vn -1.000000 -0.000001 -0.000000
vn -1.000000 -0.000001 -0.000000
vn -1.000000 -0.000001 -0.000000
vn -1.000000 -0.000000 -0.000001
vn -1.000000 -0.000000 -0.000001
vn -1.000000 -0.000000 -0.000001
vn -1.000000 -0.000000 -0.000001
vn 0.000000 0.259885 -0.965640
vn 0.000000 0.259885 -0.965640
vn 0.000000 0.259885 -0.965640
vn 0.000000 0.259885 -0.965640
vn 1.000000 -0.000000 -0.000001
vn 1.000000 -0.000000 -0.000001
vn 1.000000 -0.000000 -0.000001
vn 1.000000 -0.000000 -0.000001
vn -1.000000 0.000000 -0.000000
vn -1.000000 0.000000 -0.000000
vn -1.000000 0.000000 -0.000000
vn 0.000000 -0.274952 -0.961458
vn 0.000000 -0.274952 -0.961458
vn 0.000000 -0.274952 -0.961458
vn 0.000000 -0.274952 -0.961458
vn 1.000000 0.000000 0.000000
vn 1.000000 0.000000 0.000000
vn 1.000000 0.000000 0.000000
vn -1.000000 -0.000000 -0.000000
vn -1.000000 -0.000000 -0.000000
vn -1.000000 -0.000000 -0.000000
vn 0.000000 -0.677083 -0.735907
vn 0.000000 -0.677083 -0.735907
vn 0.000000 -0.677083 -0.735907
vn 0.000000 -0.677083 -0.735907
vn 1.000000 -0.000001 -0.000000
vn 1.000000 -0.000001 -0.000000
vn 1.000000 -0.000001 -0.000000
vn 0.000000 1.000000 0.000000
vn 0.000000 1.000000 0.000000
vn 0.000000 1.000000 0.000000
vn 0.000000 1.000000 0.000000
vn 0.000000 -1.000000 0.000000
vn 0.000000 -1.000000 0.000000
vn 0.000000 -1.000000 0.000000
vn 0.000000 -1.000000 0.000000
vn 0.955758 -0.294153 0.000000
vn 0.955758 -0.294153 0.000000
vn 0.955758 -0.294153 0.000000
vn 0.955758 -0.294153 0.000000
vn 0.000000 -0.342842 -0.939393
vn 0.000000 -0.342842 -0.939393
vn 0.000000 -0.342842 -0.939393
vn 0.000000 -0.342842 -0.939393
vn 0.000000 -0.342842 0.939393
vn 0.000000 -0.342842 0.939393
vn 0.000000 -0.342842 0.939393
vn 0.000000 -0.342842 0.939393
vn 0.412736 -0.910851 0.000000
vn 0.412736 -0.910851 0.000000
vn 0.412736 -0.910851 0.000000
vn 0.412736 -0.910851 0.000000
vn 0.929354 -0.369189 0.000000
vn 0.929354 -0.369189 0.000000
vn 0.929354 -0.369189 0.000000
vn 0.929354 -0.369189 0.000000
vn 0.000000 -0.000004 -1.000000
vn 0.000000 -0.000004 -1.000000
vn 0.000000 -0.000004 -1.000000
vn 0.000000 -0.000004 1.000000
vn 0.000000 -0.000004 1.000000
vn 0.000000 -0.000004 1.000000
vn 0.000001 -0.000000 -1.000000
vn 0.000001 -0.000000 -1.000000
vn 0.000001 -0.000000 -1.000000
vn 0.931564 -0.363578 0.000000
vn 0.931564 -0.363578 0.000000
vn 0.931564 -0.363578 0.000000
vn 0.931564 -0.363578 0.000000
vn 0.000001 -0.000000 1.000000
vn 0.000001 -0.000000 1.000000
vn 0.000001 -0.000000 1.000000
vn 0.000000 -0.000001 -1.000000
vn 0.000000 -0.000001 -1.000000
vn 0.000000 -0.000001 -1.000000
vn 0.389003 -0.921236 0.000000
vn 0.389003 -0.921236 0.000000
vn 0.389003 -0.921236 0.000000
vn 0.389003 -0.921236 0.000000
vn 0.000000 -0.000001 1.000000
vn 0.000000 -0.000001 1.000000
vn 0.000000 -0.000001 1.000000
vn 0.000001 -0.000000 1.000000
vn 0.000001 -0.000000 1.000000
vn 0.000001 -0.000000 1.000000
vn 0.000001 -0.000000 1.000000
vn 0.965640 0.259884 0.000000
vn 0.965640 0.259884 0.000000
vn 0.965640 0.259884 0.000000
vn 0.965640 0.259884 0.000000
vn 0.000001 -0.000000 -1.000000
vn 0.000001 -0.000000 -1.000000
vn 0.000001 -0.000000 -1.000000
vn 0.000001 -0.000000 -1.000000
vn -0.000000 0.000000 1.000000
vn -0.000000 0.000000 1.000000
vn -0.000000 0.000000 1.000000
vn 0.961458 -0.274951 0.000000
vn 0.961458 -0.274951 0.000000
vn 0.961458 -0.274951 0.000000
vn 0.961458 -0.274951 0.000000
vn 0.000000 0.000000 -1.000000
vn 0.000000 0.000000 -1.000000
vn 0.000000 0.000000 -1.000000
vn 0.000000 0.000000 1.000000
vn 0.000000 0.000000 1.000000
vn 0.000000 0.000000 1.000000
vn 0.735906 -0.677084 0.000000
vn 0.735906 -0.677084 0.000000
vn 0.735906 -0.677084 0.000000
vn 0.735906 -0.677084 0.000000
vn -0.000000 0.000000 -1.000000
vn -0.000000 0.000000 -1.000000
vn -0.000000 0.000000 -1.000000
vn 0.000000 1.000000 0.000000
vn 0.000000 1.000000 0.000000
vn 0.000000 1.000000 0.000000
vn 0.000000 1.000000 0.000000
vn -0.001146 0.496321 0.868138
vn -0.001146 0.496321 0.868138
vn -0.001146 0.496321 0.868138
vn -0.001146 0.496321 0.868138
vn 0.000000 1.000000 0.000000
vn 0.000000 1.000000 0.000000
vn 0.000000 1.000000 0.000000
vn 0.000000 1.000000 0.000000
vn -0.012351 -0.009747 -0.999876
vn -0.012351 -0.009747 -0.999876
vn -0.012351 -0.009747 -0.999876
vn -0.012351 -0.009747 -0.999876
vn 0.000000 -1.000000 0.000000
vn 0.000000 -1.000000 0.000000
vn 0.000000 -1.000000 0.000000
vn 0.000000 -1.000000 0.000000
vn 0.867124 0.498089 0.001980
vn 0.867124 0.498089 0.001980
vn 0.867124 0.498089 0.001980
vn 0.867124 0.498089 0.001980
vn -0.867615 0.497234 0.001578
vn -0.867615 0.497234 0.001578
vn -0.867615 0.497234 0.001578
vn -0.867615 0.497234 0.001578
vn -0.013966 0.486521 0.873557
vn -0.013966 0.486521 0.873557
vn -0.013966 0.486521 0.873557
vn -0.013966 0.486521 0.873557
vn 0.846388 0.532566 0.000000
vn 0.846388 0.532566 0.000000
vn 0.846388 0.532566 0.000000
vn 0.846388 0.532566 0.000000
vn -0.016818 0.585855 -0.810241
vn -0.016818 0.585855 -0.810241
vn -0.016818 0.585855 -0.810241
vn -0.016818 0.585855 -0.810241
vn -0.867975 0.496487 0.010985
vn -0.867975 0.496487 0.010985
vn -0.867975 0.496487 0.010985
vn -0.867975 0.496487 0.010985
vn 0.999171 0.010114 0.039428
vn 0.999171 0.010114 0.039428
vn 0.999171 0.010114 0.039428
vn 0.999171 0.010114 0.039428
vn -0.019217 -0.007435 -0.999788
vn -0.019217 -0.007435 -0.999788
vn -0.019217 -0.007435 -0.999788
vn -0.019217 -0.007435 -0.999788
vn -0.330283 -0.110039 0.937446
vn -0.330283 -0.110039 0.937446
vn -0.330283 -0.110039 0.937446
vn -0.010797 -0.341352 0.939874
vn -0.010797 -0.341352 0.939874
vn -0.010797 -0.341352 0.939874
vn -0.010797 -0.341352 0.939874
vn 0.924393 -0.381441 0.000000
vn 0.924393 -0.381441 0.000000
vn 0.924393 -0.381441 0.000000
vn 0.924393 -0.381441 0.000000
vn 0.000000 -0.381441 -0.924393
vn 0.000000 -0.381441 -0.924393
vn 0.000000 -0.381441 -0.924393
vn 0.000000 -0.381441 -0.924393
vn -0.939873 -0.341353 0.010798
vn -0.939873 -0.341353 0.010798
vn -0.939873 -0.341353 0.010798
vn -0.939873 -0.341353 0.010798
vn 0.000000 0.000000 1.000000
vn 0.000000 0.000000 1.000000
vn 0.000000 0.000000 1.000000
vn 0.000000 0.000000 1.000000
vn 1.000000 0.000000 0.000000
vn 1.000000 0.000000 0.000000
vn 1.000000 0.000000 0.000000
vn 1.000000 0.000000 0.000000
vn 0.000000 0.000000 -1.000000
vn 0.000000 0.000000 -1.000000
vn 0.000000 0.000000 -1.000000
vn 0.000000 0.000000 -1.000000
vn -1.000000 0.000000 0.000000
vn -1.000000 0.000000 0.000000
vn -1.000000 0.000000 0.000000
vn -1.000000 0.000000 0.000000
vn 0.998696 -0.013831 0.049145
vn 0.998696 -0.013831 0.049145
vn 0.998696 -0.013831 0.049145
vn 0.998696 -0.013831 0.049145
vn 0.000000 0.000000 -1.000000
vn 0.000000 0.000000 -1.000000
vn 0.000000 0.000000 -1.000000
vn 0.000000 0.000000 -1.000000
vn 0.000000 0.000000 1.000000
vn 0.000000 0.000000 1.000000
vn 0.000000 0.000000 1.000000
vn 0.000000 0.000000 1.000000
vn -1.000000 -0.000000 -0.000000
vn -1.000000 -0.000000 -0.000000
vn -1.000000 -0.000000 -0.000000
vn -1.000000 -0.000000 -0.000000
vn -0.999996 -0.002573 -0.001432
vn -0.999996 -0.002573 -0.001432
vn -0.999996 -0.002573 -0.001432
vn -0.999996 -0.002573 -0.001432
vn 0.000000 0.000000 1.000000
vn 0.000000 0.000000 1.000000
vn 0.000000 0.000000 1.000000
vn 0.000000 0.000000 1.000000
vn -0.671635 0.090755 0.735303
vn -0.671635 0.090755 0.735303
vn -0.671635 0.090755 0.735303
vn -0.999952 0.000000 -0.009825
vn -0.999952 0.000000 -0.009825
vn -0.999952 0.000000 -0.009825
vn 0.000000 0.000000 1.000000
vn 0.000000 0.000000 1.000000
vn 0.000000 0.000000 1.000000
vn 0.000000 0.000000 1.000000
vn 0.000000 0.000000 1.000000
vn 0.000000 0.000000 1.000000
vn -1.000000 0.000000 0.000000
vn -1.000000 0.000000 0.000000
vn -1.000000 0.000000 0.000000
vn -0.013081 -0.010113 0.999863
vn -0.013081 -0.010113 0.999863
vn -0.013081 -0.010113 0.999863
vn -0.013081 -0.010113 0.999863
vn -0.010842 0.004194 -0.999932
vn -0.010842 0.004194 -0.999932
vn -0.010842 0.004194 -0.999932
vn -0.010842 0.004194 -0.999932
vn 0.999847 -0.010839 0.013735
vn 0.999847 -0.010839 0.013735
vn 0.999847 -0.010839 0.013735
vn 0.999847 -0.010839 0.013735
vn -0.999724 -0.018599 0.014384
vn -0.999724 -0.018599 0.014384
vn -0.999724 -0.018599 0.014384
vn -0.999724 -0.018599 0.014384
vn -0.010942 0.004191 0.999931
vn -0.010942 0.004191 0.999931
vn -0.010942 0.004191 0.999931
vn -0.010942 0.004191 0.999931
vn 0.999837 0.006306 0.016948
vn 0.999837 0.006306 0.016948
vn 0.999837 0.006306 0.016948
vn 0.999837 0.006306 0.016948
vn -0.999852 0.005143 0.016452
vn -0.999852 0.005143 0.016452
vn -0.999852 0.005143 0.016452
vn -0.999852 0.005143 0.016452
vn -0.001169 0.496381 -0.868104
vn -0.001169 0.496381 -0.868104
vn -0.001169 0.496381 -0.868104
vn -0.001169 0.496381 -0.868104
vn 0.000000 0.000000 -1.000000
vn 0.000000 0.000000 -1.000000
vn 0.000000 0.000000 -1.000000
vn 0.000000 0.000000 -1.000000
vn 1.000000 0.000000 0.000000
vn 1.000000 0.000000 0.000000
vn 1.000000 0.000000 0.000000
vn 1.000000 0.000000 0.000000
vn 0.000000 0.000000 1.000000
vn 0.000000 0.000000 1.000000
vn 0.000000 0.000000 1.000000
vn 0.000000 0.000000 1.000000
vn -1.000000 0.000000 0.000000
vn -1.000000 0.000000 0.000000
vn -1.000000 0.000000 0.000000
vn -1.000000 0.000000 0.000000
s off
f 3/4/1 5/6/2 6/5/3 4/3/4
f 5/6/5 7/8/6 8/7/7 6/5/8
f 2/2/9 4/3/10 6/5/11 8/7/12
f 7/8/13 5/6/14 3/4/15 1/1/16
f 15/9/17 18/12/18 17/11/19 16/10/20
f 11/13/21 13/16/22 14/15/23 12/14/24
f 10/17/25 12/14/26 14/15/27
f 13/16/28 11/13/29 9/18/30
f 10/17/31 22/20/32 19/19/33
f 19/19/34 22/20/35 21/22/36 20/21/37
f 20/21/38 21/22/39 9/18/40
f 10/17/41 19/19/42 12/14/43
f 12/14/44 19/19/45 20/21/46 11/13/47
f 11/13/48 20/21/49 9/18/50
f 21/22/51 23/23/52 15/9/53 9/18/54
f 22/20/55 24/24/56 23/23/57 21/22/58
f 10/17/59 16/10/60 24/24/61 22/20/62
f 23/23/63 25/25/64 15/9/65
f 24/24/66 26/26/67 25/25/68 23/23/69
f 16/10/70 26/26/71 24/24/72
f 25/25/73 18/12/74 15/9/75
f 26/26/76 17/11/77 18/12/78 25/25/79
f 16/10/80 17/11/81 26/26/82
f 1/1/83 2/2/84 8/7/85 7/8/86
f 29/27/87 30/28/88 32/29/89 31/30/90
f 31/30/91 32/29/92 34/31/93 33/32/94
f 28/33/95 34/31/96 32/29/97 30/28/98
f 33/32/99 27/34/100 29/27/101 31/30/102
f 41/35/103 42/36/104 43/37/105 44/38/106
f 37/39/107 38/40/108 40/41/109 39/42/110
f 36/43/111 40/41/112 38/40/113
f 39/42/114 35/44/115 37/39/116
f 36/43/117 45/45/118 48/46/119
f 45/45/120 46/47/121 47/48/122 48/46/123
f 46/47/124 35/44/125 47/48/126
f 36/43/127 38/40/128 45/45/129
f 38/40/130 37/39/131 46/47/132 45/45/133
f 37/39/134 35/44/135 46/47/136
f 47/48/137 35/44/138 41/35/139 49/49/140
f 48/46/141 47/48/142 49/49/143 50/50/144
f 36/43/145 48/46/146 50/50/147 42/36/148
f 49/49/149 41/35/150 51/51/151
f 50/50/152 49/49/153 51/51/154 52/52/155
f 42/36/156 50/50/157 52/52/158
f 51/51/159 41/35/160 44/38/161
f 52/52/162 51/51/163 44/38/164 43/37/165
f 42/36/166 52/52/167 43/37/168
f 27/34/169 33/32/170 34/31/171 28/33/172
f 53/53/173 54/54/174 89/89/175 88/88/176
f 73/57/177 74/58/178 75/59/179 76/60/180
f 57/61/181 58/62/182 87/87/183 86/86/184
f 92/92/185 93/93/186 94/94/187 95/95/188
f 54/54/189 60/63/190 91/91/191 89/89/192
f 59/64/193 53/53/194 88/88/195 90/90/196
f 55/56/197 56/55/198 62/65/199 61/66/200
f 56/55/201 58/62/202 63/67/203 62/65/204
f 58/62/205 57/61/206 64/68/207 63/67/208
f 57/61/209 55/56/210 61/66/211 64/68/212
f 62/65/213 63/67/214 78/69/215 77/70/216
f 63/67/217 64/68/218 79/71/219 78/69/220
f 82/72/221 81/73/222 83/74/223
f 65/75/224 66/76/225 70/77/226 69/78/227
f 66/76/228 67/79/229 71/80/230 70/77/231
f 67/79/232 68/81/233 72/82/234 71/80/235
f 68/81/236 65/75/237 69/78/238 72/82/239
f 69/78/240 70/77/241 74/58/242 73/57/243
f 70/77/244 71/80/245 75/59/246 74/58/247
f 71/80/248 72/82/249 76/60/250 75/59/251
f 72/82/252 69/78/253 73/57/254 76/60/255
f 77/70/256 78/69/257 67/79/258 66/76/259
f 78/69/260 79/71/261 68/81/262 67/79/263
f 81/73/264 82/72/265 77/70/266 66/76/267
f 79/71/268 83/74/269 81/73/270 68/81/271
f 64/68/272 80/83/273 83/74/274 79/71/275
f 80/83/276 62/65/277 77/70/278 82/72/279
f 82/72/280 83/74/281 80/83/282
f 64/68/283 61/66/284 80/83/285
f 61/66/286 62/65/287 80/83/288
f 81/73/289 66/76/290 65/75/291
f 68/81/292 81/73/293 65/75/294
f 84/84/295 85/85/296 56/55/297 55/56/298
f 86/86/299 87/87/300 91/91/301 90/90/302
f 85/85/303 87/87/304 58/62/305 56/55/306
f 86/86/307 84/84/308 55/56/309 57/61/310
f 88/88/311 89/89/312 85/85/313 84/84/314
f 89/89/315 91/91/316 87/87/317 85/85/318
f 90/90/319 88/88/320 84/84/321 86/86/322
f 90/90/323 91/91/324 60/63/325 59/64/326
f 59/64/327 60/63/328 93/93/329 92/92/330
f 60/63/331 54/54/332 94/94/333 93/93/334
f 54/54/335 53/53/336 95/95/337 94/94/338
f 53/53/339 59/64/340 92/92/341 95/95/342
