# This file uses centimeters as units for non-parametric coordinates.

v 0.000000 -4.625830 249.999985
v 124.999573 -4.625830 249.999985
v 124.999573 -4.625824 0.000000
v 0.000000 -4.625824 0.000000
v 0.000000 -9.251659 249.999969
v 124.999573 -9.251659 249.999969
v 124.999573 -9.251648 0.000015
v 0.000000 -9.251648 0.000015
v 0.000000 0.809076 249.999985
v 124.999573 0.809076 249.999985
v 124.999573 0.809082 0.000000
v 0.000000 0.809082 0.000000
vt 0.001423 0.972453
vt -0.038908 0.001511
vt 0.001423 0.001434
vt 0.001423 0.998623
vt 0.499983 0.998623
vt 0.503656 0.998623
vt 0.499983 0.028022
vt 0.499982 0.001434
vt 0.499983 0.998623
vt 0.499983 0.972453
vt 0.001423 0.998623
vt -0.038908 0.998605
vt 0.001423 0.998623
vt 0.001423 0.001434
vt 0.001423 0.028023
vt 0.499983 0.001434
vt 0.001423 0.001434
vt 0.503656 0.001434
vt -0.038908 0.998605
vt -0.038908 0.001511
vt 0.001423 0.001434
vt 0.001423 0.998623
vt 0.001423 0.972453
vt 0.001423 0.998623
vt 0.499983 0.998623
vt 0.499983 0.972453
vt 0.001423 0.001434
vt 0.001423 0.028023
vt 0.499983 0.028022
vt 0.499982 0.001434
vt 0.499982 0.998623
vt 0.001423 0.998623
vt 0.001423 0.001434
vt 0.499983 0.001434
vt 0.503676 0.998623
vt 0.503677 0.001434
vn -1.000000 0.000000 0.000000
vn -1.000000 0.000000 0.000000
vn -1.000000 0.000000 0.000000
vn -1.000000 0.000000 0.000000
vn 1.000000 -0.000000 0.000000
vn 1.000000 -0.000000 0.000000
vn 1.000000 -0.000000 0.000000
vn 1.000000 -0.000000 0.000000
vn -1.000000 0.000000 0.000000
vn -1.000000 0.000000 0.000000
vn -1.000000 0.000000 0.000000
vn -1.000000 0.000000 0.000000
vn 1.000000 0.000000 0.000000
vn 1.000000 0.000000 0.000000
vn 1.000000 0.000000 0.000000
vn 1.000000 0.000000 0.000000
vn 0.000000 0.000000 1.000000
vn 0.000000 0.000000 1.000000
vn 0.000000 0.000000 1.000000
vn 0.000000 0.000000 1.000000
vn 0.000000 -0.000003 1.000000
vn 0.000000 -0.000003 1.000000
vn 0.000000 -0.000003 1.000000
vn 0.000000 -0.000003 1.000000
vn 0.000000 -1.000000 -0.000000
vn 0.000000 -1.000000 -0.000000
vn 0.000000 -1.000000 -0.000000
vn 0.000000 -1.000000 -0.000000
vn 0.000000 -0.000003 -1.000000
vn 0.000000 -0.000003 -1.000000
vn 0.000000 -0.000003 -1.000000
vn 0.000000 -0.000003 -1.000000
vn 0.000000 0.000000 -1.000000
vn 0.000000 0.000000 -1.000000
vn 0.000000 0.000000 -1.000000
vn 0.000000 0.000000 -1.000000
vn 0.000000 1.000000 0.000000
vn 0.000000 1.000000 0.000000
vn 0.000000 1.000000 0.000000
vn 0.000000 1.000000 0.000000
s off
f 4/12/1 8/13/2 5/14/3 1/2/4
f 3/6/5 2/18/6 6/8/7 7/5/8
f 4/19/9 1/20/10 9/21/11 12/22/12
f 3/35/13 11/31/14 10/34/15 2/36/16
f 9/27/17 1/28/18 2/29/19 10/30/20
f 5/3/21 6/16/22 2/7/23 1/15/24
f 7/5/25 6/8/26 5/17/27 8/4/28
f 4/1/29 3/10/30 7/9/31 8/11/32
f 4/23/33 12/24/34 11/25/35 3/26/36
f 10/34/37 11/31/38 12/32/39 9/33/40
