# This file uses centimeters as units for non-parametric coordinates.

v 0.000000 -12.778748 26.164017
v 249.999146 -12.778748 26.164017
v 0.000000 9.170654 40.310242
v 249.999146 9.170654 40.310242
v 0.000000 9.170654 -7.088562
v 249.999146 9.170654 -7.088562
v 0.000000 -4.621582 -17.799072
v 249.999146 -4.621582 -17.799072
v 0.000000 2.584229 40.310242
v 249.999146 2.584229 40.310242
v 0.000000 0.895691 36.904846
v 249.999146 0.895691 36.904846
v 0.000000 -2.407349 36.050079
v 249.999146 -2.407349 36.050079
v 0.000000 -4.325195 26.164001
v 249.999146 -4.325195 26.164001
v 0.000000 -12.778748 20.792267
v 249.999146 -12.778748 20.792267
v 0.000000 -4.621582 11.574265
v 249.999146 -4.621582 11.574265
v 133.039291 9.170654 40.310242
v 217.537766 9.170654 40.310242
v 202.773972 9.170654 37.367577
v 192.358185 6.208769 40.310242
v 107.132385 2.584229 40.310242
v 98.772911 -0.484977 36.904846
v 86.773460 -2.407349 36.050079
vt 0.194736 0.127870
vt 0.193953 0.127854
vt 0.193907 0.127083
vt 0.194704 0.127096
vt 0.194117 0.126876
vt 0.194877 0.126890
vt 0.194153 0.127633
vt 0.194906 0.127653
vt 0.194711 0.127257
vt 0.193917 0.127243
vt 0.194714 0.127312
vt 0.193920 0.127298
vt 0.194719 0.127421
vt 0.193926 0.127407
vt 0.194721 0.127484
vt 0.193930 0.127470
vt 0.194757 0.127843
vt 0.193977 0.127827
vt 0.194793 0.127798
vt 0.194019 0.127781
vt 0.194280 0.127089
vt 0.194012 0.127084
vt 0.194071 0.127072
vt 0.194095 0.127158
vt 0.194371 0.127251
vt 0.194400 0.127307
vt 0.194444 0.127416
vn 0.000000 0.000000 1.000000
vn 0.000000 0.000000 1.000000
vn 0.000000 0.000000 1.000000
vn 0.000000 -1.000000 0.000000
vn 0.000000 -1.000000 0.000000
vn 0.000000 -1.000000 0.000000
vn 0.000000 -1.000000 0.000000
vn 0.003859 -0.821998 0.569478
vn 0.003859 -0.821998 0.569478
vn 0.003859 -0.821998 0.569478
vn 0.003859 -0.821998 0.569478
vn 0.001378 -0.313797 0.949489
vn 0.001378 -0.313797 0.949489
vn 0.001378 -0.313797 0.949489
vn 0.001378 -0.313797 0.949489
vn 0.000000 -0.981698 0.190444
vn 0.000000 -0.981698 0.190444
vn 0.000000 -0.981698 0.190444
vn 0.000000 -0.981698 0.190444
vn 0.000000 0.000002 1.000000
vn 0.000000 0.000002 1.000000
vn 0.000000 0.000002 1.000000
vn 0.000000 0.000002 1.000000
vn 1.000000 -0.000002 0.000000
vn 1.000000 -0.000002 0.000000
vn 1.000000 -0.000002 0.000000
vn 1.000000 0.000001 0.000000
vn 1.000000 0.000001 0.000000
vn 1.000000 0.000001 0.000000
vn 1.000000 0.000001 0.000000
vn 1.000000 0.000000 0.000000
vn 1.000000 0.000000 0.000000
vn 1.000000 0.000000 0.000000
vn 1.000000 0.000005 0.000000
vn 1.000000 0.000005 0.000000
vn 1.000000 0.000005 0.000000
vn 1.000000 0.000005 0.000000
vn 1.000000 -0.000001 0.000000
vn 1.000000 -0.000001 0.000000
vn 1.000000 -0.000001 0.000000
vn 1.000000 -0.000001 0.000000
vn 0.000000 0.613342 -0.789818
vn 0.000000 0.613342 -0.789818
vn 0.000000 0.613342 -0.789818
vn 0.000000 0.613342 -0.789818
vn -1.000000 0.000000 0.000000
vn -1.000000 0.000000 0.000000
vn -1.000000 0.000000 0.000000
vn -1.000000 0.000000 0.000000
vn -1.000000 0.000000 0.000000
vn -1.000000 0.000000 0.000000
vn -1.000000 0.000000 0.000000
vn -1.000000 0.000000 0.000000
vn -1.000000 0.000000 0.000000
vn -1.000000 0.000000 0.000000
vn -1.000000 0.000000 0.000000
vn -1.000000 0.000000 0.000000
vn -1.000000 0.000000 0.000000
vn -1.000000 0.000000 0.000000
vn -1.000000 0.000000 0.000000
vn -1.000000 0.000000 0.000000
vn -1.000000 0.000000 0.000000
vn -1.000000 0.000000 0.000000
vn 0.000000 1.000000 0.000000
vn 0.000000 1.000000 0.000000
vn 0.000000 1.000000 0.000000
vn 0.000000 1.000000 0.000000
vn 0.000000 -0.748884 -0.662701
vn 0.000000 -0.748884 -0.662701
vn 0.000000 -0.748884 -0.662701
vn 0.000000 -0.748884 -0.662701
vn 0.000000 -1.000000 0.000000
vn 0.000000 -1.000000 0.000000
vn 0.000000 -1.000000 0.000000
vn 0.000000 -1.000000 0.000000
vn -0.100788 0.856820 0.505669
vn -0.100788 0.856820 0.505669
vn -0.100788 0.856820 0.505669
vn 0.032213 0.645146 0.763380
vn 0.032213 0.645146 0.763380
vn 0.032213 0.645146 0.763380
vn -0.000000 0.000000 1.000000
vn -0.000000 0.000000 1.000000
vn -0.000000 0.000000 1.000000
vn -0.000000 0.000000 1.000000
vn 0.000000 0.000000 1.000000
vn 0.000000 0.000000 1.000000
vn 0.000000 0.000000 1.000000
vn 0.000000 0.000000 1.000000
vn -0.005476 -0.816606 0.577169
vn -0.005476 -0.816606 0.577169
vn -0.005476 -0.816606 0.577169
vn -0.005476 -0.816606 0.577169
vn -0.002279 -0.306209 0.951962
vn -0.002279 -0.306209 0.951962
vn -0.002279 -0.306209 0.951962
vn -0.002279 -0.306209 0.951962
vn 0.000000 -0.981698 0.190444
vn 0.000000 -0.981698 0.190444
vn 0.000000 -0.981698 0.190444
vn 0.000000 0.000000 1.000000
vn 0.000000 0.000000 1.000000
vn 0.000000 0.000000 1.000000
vn 0.000000 1.000000 -0.000000
vn 0.000000 1.000000 -0.000000
vn 0.000000 1.000000 -0.000000
vn 0.000000 1.000000 -0.000000
vn 0.000000 1.000000 0.000000
vn 0.000000 1.000000 0.000000
vn 0.000000 1.000000 0.000000
s off
f 24/24/1 25/25/2 10/10/3
f 17/17/4 18/18/5 2/2/6 1/1/7
f 25/25/8 26/26/9 12/12/10 10/10/11
f 26/26/12 27/27/13 14/14/14 12/12/15
f 15/15/16 16/16/17 14/14/18 27/27/19
f 1/1/20 2/2/21 16/16/22 15/15/23
f 8/7/24 6/5/25 20/20/26
f 20/20/27 6/5/28 4/3/29 10/10/30
f 10/10/31 12/12/32 20/20/33
f 20/20/34 12/12/35 14/14/36 16/16/37
f 18/18/38 20/20/39 16/16/40 2/2/41
f 5/6/42 6/5/43 8/7/44 7/8/45
f 7/8/46 19/19/47 5/6/48
f 3/4/49 5/6/50 19/19/51 9/9/52
f 9/9/53 19/19/54 11/11/55
f 13/13/56 11/11/57 19/19/58 15/15/59
f 15/15/60 19/19/61 17/17/62 1/1/63
f 6/5/64 23/23/65 22/22/66 4/3/67
f 19/19/68 20/20/69 18/18/70 17/17/71
f 7/8/72 8/7/73 20/20/74 19/19/75
f 22/22/76 23/23/77 24/24/78
f 24/24/79 23/23/80 21/21/81
f 24/24/82 10/10/83 4/3/84 22/22/85
f 9/9/86 25/25/87 21/21/88 3/4/89
f 11/11/90 26/26/91 25/25/92 9/9/93
f 13/13/94 27/27/95 26/26/96 11/11/97
f 15/15/98 27/27/99 13/13/100
f 21/21/101 25/25/102 24/24/103
f 5/6/104 3/4/105 21/21/106 23/23/107
f 5/6/108 23/23/109 6/5/110
