# This file uses centimeters as units for non-parametric coordinates.

v 116.030273 78.523796 59.066406
v 116.030273 78.523796 65.933472
v 8.969727 78.523796 65.933472
v 8.969727 78.523796 59.066406
v 8.969727 83.595551 65.933472
v 8.969727 83.595551 59.066406
v 116.030273 83.595551 65.933472
v 116.030273 83.595551 59.066406
v 65.933533 77.546677 116.030151
v 59.066528 77.546677 116.030151
v 59.066528 77.546677 8.969604
v 65.933533 77.546677 8.969604
v 59.066528 84.572670 8.969604
v 65.933533 84.572670 8.969604
v 59.066528 84.572670 116.030151
v 65.933533 84.572670 116.030151
v -0.000061 86.198326 0.000000
v -0.000061 86.198326 125.000000
v 125.000061 86.198326 0.000000
v 125.000061 86.198326 125.000000
v 116.030273 86.198326 8.969788
v 8.969727 86.198326 8.969788
v 116.030273 86.198326 116.030212
v 8.969727 86.198326 116.030212
v 125.000061 74.855919 0.000000
v -0.000061 74.855919 0.000000
v 8.969727 74.855919 8.969788
v 116.030273 74.855919 8.969788
v 8.969727 74.855919 116.030212
v -0.000061 74.855919 125.000000
v 116.030273 74.855919 116.030212
v 125.000061 74.855919 125.000000
vt 0.193754 0.129169
vt 0.193754 0.129169
vt 0.193754 0.129169
vt 0.193754 0.129169
vt 0.193754 0.129169
vt 0.193754 0.129169
vt 0.193754 0.129169
vt 0.193754 0.129169
vt 0.193754 0.129169
vt 0.193754 0.129169
vt 0.193754 0.129169
vt 0.193754 0.129169
vt 0.193754 0.129169
vt 0.193754 0.129169
vt 0.193754 0.129169
vt 0.193754 0.129169
vt 0.193754 0.129169
vt 0.193754 0.129169
vt 0.193754 0.129169
vt 0.193754 0.129169
vt 0.193754 0.129169
vt 0.193754 0.129169
vt 0.193754 0.129169
vt 0.193754 0.129169
vt 0.193754 0.128183
vt 0.193754 0.128183
vt 0.193754 0.128183
vt 0.193754 0.128183
vt 0.193754 0.128183
vt 0.193754 0.128183
vt 0.193754 0.128183
vt 0.193754 0.128183
vt 0.193754 0.128183
vt 0.193754 0.128183
vt 0.193754 0.128183
vt 0.193754 0.128183
vt 0.193754 0.128183
vt 0.193754 0.128183
vt 0.193754 0.128183
vt 0.193754 0.128183
vt 0.193754 0.128183
vt 0.193754 0.128183
vt 0.193754 0.128183
vt 0.193754 0.128183
vt 0.193754 0.128183
vt 0.193754 0.128183
vt 0.193754 0.128183
vt 0.193754 0.128183
vn 0.000000 1.000000 0.000000
vn 0.000000 1.000000 0.000000
vn 0.000000 1.000000 0.000000
vn 0.000000 1.000000 0.000000
vn 0.000000 -1.000000 0.000000
vn 0.000000 -1.000000 0.000000
vn 0.000000 -1.000000 0.000000
vn 0.000000 -1.000000 0.000000
vn -1.000000 0.000000 0.000000
vn -1.000000 0.000000 0.000000
vn -1.000000 0.000000 0.000000
vn -1.000000 0.000000 0.000000
vn 0.000000 0.000000 1.000000
vn 0.000000 0.000000 1.000000
vn 0.000000 0.000000 1.000000
vn 0.000000 0.000000 1.000000
vn 1.000000 0.000000 0.000000
vn 1.000000 0.000000 0.000000
vn 1.000000 0.000000 0.000000
vn 1.000000 0.000000 0.000000
vn 0.000000 0.000000 -1.000000
vn 0.000000 0.000000 -1.000000
vn 0.000000 0.000000 -1.000000
vn 0.000000 0.000000 -1.000000
vn 0.000000 1.000000 0.000000
vn 0.000000 1.000000 0.000000
vn 0.000000 1.000000 0.000000
vn 0.000000 1.000000 0.000000
vn 0.000000 -1.000000 0.000000
vn 0.000000 -1.000000 0.000000
vn 0.000000 -1.000000 0.000000
vn 0.000000 -1.000000 0.000000
vn 0.000000 0.000000 -1.000000
vn 0.000000 0.000000 -1.000000
vn 0.000000 0.000000 -1.000000
vn 0.000000 0.000000 -1.000000
vn -1.000000 0.000000 0.000000
vn -1.000000 0.000000 0.000000
vn -1.000000 0.000000 0.000000
vn -1.000000 0.000000 0.000000
vn 0.000000 0.000000 1.000000
vn 0.000000 0.000000 1.000000
vn 0.000000 0.000000 1.000000
vn 0.000000 0.000000 1.000000
vn 1.000000 0.000000 0.000000
vn 1.000000 0.000000 0.000000
vn 1.000000 0.000000 0.000000
vn 1.000000 0.000000 0.000000
vn 0.000000 -1.000000 0.000000
vn 0.000000 -1.000000 0.000000
vn 0.000000 -1.000000 0.000000
vn 0.000000 -1.000000 0.000000
vn 0.000000 -1.000000 0.000000
vn 0.000000 -1.000000 0.000000
vn 0.000000 -1.000000 0.000000
vn 0.000000 -1.000000 0.000000
vn 0.000000 -1.000000 0.000000
vn 0.000000 -1.000000 0.000000
vn 0.000000 -1.000000 0.000000
vn 0.000000 -1.000000 0.000000
vn 0.000000 -1.000000 0.000000
vn 0.000000 -1.000000 0.000000
vn 0.000000 -1.000000 0.000000
vn 0.000000 -1.000000 0.000000
vn 0.000000 1.000000 0.000001
vn 0.000000 1.000000 0.000001
vn 0.000000 1.000000 0.000001
vn 0.000000 1.000000 0.000001
vn 0.000000 1.000000 0.000000
vn 0.000000 1.000000 0.000000
vn 0.000000 1.000000 0.000000
vn 0.000000 1.000000 0.000000
vn 0.000000 1.000000 0.000000
vn 0.000000 1.000000 0.000000
vn 0.000000 1.000000 0.000000
vn 0.000000 1.000000 0.000000
vn 0.000000 1.000000 -0.000001
vn 0.000000 1.000000 -0.000001
vn 0.000000 1.000000 -0.000001
vn 0.000000 1.000000 -0.000001
vn 0.000000 0.000000 -1.000000
vn 0.000000 0.000000 -1.000000
vn 0.000000 0.000000 -1.000000
vn 0.000000 0.000000 -1.000000
vn 0.000000 0.000000 1.000000
vn 0.000000 0.000000 1.000000
vn 0.000000 0.000000 1.000000
vn 0.000000 0.000000 1.000000
vn 1.000000 0.000000 0.000000
vn 1.000000 0.000000 0.000000
vn 1.000000 0.000000 0.000000
vn 1.000000 0.000000 0.000000
vn -1.000000 0.000000 0.000000
vn -1.000000 0.000000 0.000000
vn -1.000000 0.000000 0.000000
vn -1.000000 0.000000 0.000000
vn -1.000000 0.000000 0.000000
vn -1.000000 0.000000 0.000000
vn -1.000000 0.000000 0.000000
vn -1.000000 0.000000 0.000000
vn 1.000000 0.000000 0.000000
vn 1.000000 0.000000 0.000000
vn 1.000000 0.000000 0.000000
vn 1.000000 0.000000 0.000000
vn 0.000000 0.000000 1.000000
vn 0.000000 0.000000 1.000000
vn 0.000000 0.000000 1.000000
vn 0.000000 0.000000 1.000000
vn 0.000000 0.000000 -1.000000
vn 0.000000 0.000000 -1.000000
vn 0.000000 0.000000 -1.000000
vn 0.000000 0.000000 -1.000000
s off
f 6/9/1 5/10/2 7/11/3 8/12/4
f 4/5/5 1/8/6 2/7/7 3/6/8
f 4/4/9 3/3/10 5/10/11 6/9/12
f 3/3/13 2/2/14 7/11/15 5/10/16
f 2/2/17 1/1/18 8/12/19 7/11/20
f 1/1/21 4/4/22 6/9/23 8/12/24
f 14/13/25 13/14/26 15/15/27 16/16/28
f 12/17/29 9/18/30 10/19/31 11/20/32
f 12/21/33 11/22/34 13/14/35 14/13/36
f 11/22/37 10/23/38 15/15/39 13/14/40
f 10/23/41 9/24/42 16/16/43 15/15/44
f 9/24/45 12/21/46 14/13/47 16/16/48
f 25/25/49 28/26/50 27/27/51 26/28/52
f 29/29/53 30/30/54 26/28/55 27/27/56
f 28/26/57 25/25/58 32/31/59 31/32/60
f 30/30/61 29/29/62 31/32/63 32/31/64
f 19/33/65 17/34/66 22/35/67 21/36/68
f 24/37/69 22/35/70 17/34/71 18/38/72
f 21/36/73 23/39/74 20/40/75 19/33/76
f 18/38/77 20/40/78 23/39/79 24/37/80
f 19/41/81 25/25/82 26/28/83 17/42/84
f 22/43/85 27/27/86 28/26/87 21/44/88
f 24/45/89 29/29/90 27/27/91 22/43/92
f 17/42/93 26/28/94 30/30/95 18/46/96
f 21/44/97 28/26/98 31/32/99 23/47/100
f 20/48/101 32/31/102 25/25/103 19/41/104
f 18/46/105 30/30/106 32/31/107 20/48/108
f 23/47/109 31/32/110 29/29/111 24/45/112
v 116.030273 82.846077 8.969788
v 116.030273 82.846077 116.030212
v 8.969727 82.846077 116.030212
v 8.969727 82.846077 8.969788
v 116.030273 82.846077 8.969788
v 116.030273 82.846077 116.030212
v 8.969727 82.846077 116.030212
v 8.969727 82.846077 8.969788
vt 0.000000 1.000000
vt 1.000000 1.000000
vt 1.000000 0.000000
vt 0.000000 0.000000
vt 0.000000 0.000000
vt 1.000000 0.000000
vt 1.000000 1.000000
vt 0.000000 1.000000
vn 0.000000 1.000000 0.000000
vn 0.000000 1.000000 0.000000
vn 0.000000 1.000000 0.000000
vn 0.000000 1.000000 0.000000
vn 0.000000 -1.000000 0.000000
vn 0.000000 -1.000000 0.000000
vn 0.000000 -1.000000 0.000000
vn 0.000000 -1.000000 0.000000
s off
f 36/52/113 35/51/114 34/50/115 33/49/116
f 40/53/117 37/54/118 38/55/119 39/56/120
