# This file uses centimeters as units for non-parametric coordinates.

v 0.000000 0.000000 103.467125
v 249.999146 0.000000 103.467125
v 51.830849 299.999817 67.994881
v 198.168304 299.999817 67.994881
v 51.830849 299.999817 0.000000
v 198.168304 299.999817 0.000000
v 0.000000 0.000000 0.000000
v 249.999146 0.000000 0.000000
v 0.000000 105.004425 0.000000
v 51.830849 194.995392 0.000000
v 51.830849 194.995392 67.994881
v 1.599434 105.004425 100.611351
v 198.168304 194.995392 67.994881
v 249.999146 105.004425 103.467125
v 198.168304 194.995392 0.000000
v 249.999146 105.004425 0.000000
v 9.305054 121.160263 97.098885
v 12.766242 105.004425 103.467125
v 0.000000 95.384682 103.467133
v 0.000000 105.004425 89.494934
v 3.490360 111.064537 99.038208
v 0.000000 99.878494 101.941986
v 163.489090 105.004425 103.467133
v 218.635300 105.004425 103.467125
v 206.363220 99.202110 103.467125
v 183.723648 100.068748 103.467125
v 196.851273 112.094696 100.672318
v 198.168304 232.104492 67.994881
v 198.168304 264.202240 67.994881
v 192.475906 252.103760 67.994881
v 198.168304 248.465439 62.835632
v 87.570259 194.995392 67.994881
v 155.429123 194.995392 67.994881
v 118.879684 192.477585 67.994881
v 124.320526 189.210602 70.275101
v 232.411835 135.540253 91.430649
v 204.080795 184.729858 72.041306
v 213.989517 161.064880 81.369461
v 217.061188 162.192734 75.805534
vt 0.788666 1.368527
vt 0.211396 1.368527
vt 0.006934 -0.341969
vt 0.993128 -0.341969
vt -0.400447 0.649476
vt 1.400509 0.350540
vt 1.147432 0.649478
vt -0.147370 0.998283
vt 1.400509 0.649478
vt 1.400509 0.998283
vt 0.788666 0.998283
vt 0.211396 0.649476
vt -0.400447 0.998283
vt -0.400447 0.001732
vt 0.006934 0.001732
vt -0.400447 0.350540
vt 0.993128 0.001732
vt 0.002178 0.350540
vt 1.400509 0.001732
vt 0.993128 0.350540
vt 0.211396 0.998283
vt -0.147370 0.649476
vt 0.788666 0.649476
vt 1.147432 0.998283
vt -0.021375 0.404207
vt 0.043641 0.404207
vt 0.057294 0.350540
vt 0.006934 0.318585
vt -0.049072 0.350540
vt -0.013373 0.370671
vt 0.012732 0.370671
vt 0.000410 0.333513
vt 0.651864 0.350540
vt 0.869404 0.350540
vt 0.820993 0.331266
vt 0.731685 0.334145
vt 0.783471 0.374093
vt 0.788666 0.772746
vt 1.147432 0.772747
vt 0.788666 0.879370
vt 1.147432 0.879371
vt 0.766211 0.839180
vt 1.166635 0.827096
vt 0.788666 0.827094
vt 0.352380 0.649476
vt 0.620069 0.649476
vt 0.475889 0.641112
vt 0.497352 0.630259
vt 0.923750 0.451975
vt 1.045486 0.451976
vt 0.811990 0.615375
vt 1.129830 0.615377
vt 0.851077 0.536764
vt 1.110240 0.540512
vt 1.089650 0.542112
vn 0.000000 1.000000 0.000000
vn 0.000000 1.000000 0.000000
vn 0.000000 1.000000 0.000000
vn 0.000000 1.000000 0.000000
vn 0.000000 -1.000000 0.000000
vn 0.000000 -1.000000 0.000000
vn 0.000000 -1.000000 0.000000
vn 0.000000 -1.000000 0.000000
vn -0.866548 0.499094 0.000000
vn -0.866548 0.499094 0.000000
vn -0.866548 0.499094 0.000000
vn -0.866548 0.499094 0.000000
vn -0.000000 0.366715 0.930333
vn -0.000000 0.366715 0.930333
vn -0.000000 0.366715 0.930333
vn -0.000000 0.366715 0.930333
vn 0.866548 0.499093 0.000000
vn 0.866548 0.499093 0.000000
vn 0.866548 0.499093 0.000000
vn 0.866548 0.499093 0.000000
vn 0.000000 0.000000 1.000000
vn 0.000000 0.000000 1.000000
vn 0.000000 0.000000 1.000000
vn 0.000000 0.000000 1.000000
vn 1.000000 -0.000000 0.000000
vn 1.000000 -0.000000 0.000000
vn 1.000000 -0.000000 0.000000
vn 1.000000 -0.000000 0.000000
vn -1.000000 0.000000 0.000000
vn -1.000000 0.000000 0.000000
vn -1.000000 0.000000 0.000000
vn -1.000000 0.000000 0.000000
vn -1.000000 0.000000 0.000000
vn -1.000000 0.000000 0.000000
vn -1.000000 0.000000 0.000000
vn -1.000000 0.000000 0.000000
vn 0.000000 0.000000 1.000000
vn 0.000000 0.000000 1.000000
vn 0.000000 0.000000 1.000000
vn 0.000000 0.000000 1.000000
vn 1.000000 0.000000 0.000000
vn 1.000000 0.000000 0.000000
vn 1.000000 0.000000 0.000000
vn 1.000000 0.000000 0.000000
vn -0.235368 0.312353 0.920346
vn -0.235368 0.312353 0.920346
vn -0.235368 0.312353 0.920346
vn -0.235368 0.312353 0.920346
vn -0.235368 0.312354 0.920346
vn -0.235368 0.312354 0.920346
vn -0.235368 0.312354 0.920346
vn -0.235368 0.312354 0.920346
vn -0.935451 0.326826 0.134594
vn -0.935451 0.326826 0.134594
vn -0.935451 0.326826 0.134594
vn -0.935452 0.326826 0.134593
vn -0.935452 0.326826 0.134593
vn -0.935452 0.326826 0.134593
vn -0.866548 0.499094 0.000000
vn -0.866548 0.499094 0.000000
vn -0.866548 0.499094 0.000000
vn -0.866548 0.499094 0.000000
vn -1.000000 0.000000 0.000000
vn -1.000000 0.000000 0.000000
vn -1.000000 0.000000 0.000000
vn -1.000000 0.000000 0.000000
vn 0.008334 0.217717 0.975976
vn 0.008334 0.217717 0.975976
vn 0.008334 0.217717 0.975976
vn -0.074814 0.158234 0.984563
vn -0.074814 0.158234 0.984563
vn -0.074814 0.158234 0.984563
vn 0.043990 0.180340 0.982620
vn 0.043990 0.180340 0.982620
vn 0.043990 0.180340 0.982620
vn 0.000000 0.000000 1.000000
vn 0.000000 0.000000 1.000000
vn 0.000000 0.000000 1.000000
vn 0.000000 0.000000 1.000000
vn 0.000000 -0.000000 1.000000
vn 0.000000 -0.000000 1.000000
vn 0.000000 -0.000000 1.000000
vn 0.000000 -0.000000 1.000000
vn 0.000000 -0.000000 1.000000
vn 0.000000 -0.000000 1.000000
vn 0.000000 -0.000000 1.000000
vn 0.000000 0.366715 0.930333
vn 0.000000 0.366715 0.930333
vn 0.000000 0.366715 0.930333
vn -0.036534 0.530333 0.847002
vn -0.036534 0.530333 0.847002
vn -0.036534 0.530333 0.847002
vn 0.552072 -0.259752 0.792304
vn 0.552072 -0.259752 0.792304
vn 0.552072 -0.259752 0.792304
vn 0.726293 0.206724 0.655564
vn 0.726293 0.206724 0.655564
vn 0.726293 0.206724 0.655564
vn 1.000000 0.000000 0.000000
vn 1.000000 0.000000 0.000000
vn 1.000000 0.000000 0.000000
vn 1.000000 0.000000 0.000000
vn -0.000000 0.000000 1.000000
vn -0.000000 0.000000 1.000000
vn -0.000000 0.000000 1.000000
vn 0.000000 0.000000 1.000000
vn 0.000000 0.000000 1.000000
vn 0.000000 0.000000 1.000000
vn 0.000000 0.000000 1.000000
vn 1.000000 0.000000 0.000000
vn 1.000000 0.000000 0.000000
vn 1.000000 0.000000 0.000000
vn 0.000000 0.366715 0.930333
vn 0.000000 0.366715 0.930333
vn 0.000000 0.366715 0.930333
vn 0.050397 0.626692 0.777636
vn 0.050397 0.626692 0.777636
vn 0.050397 0.626692 0.777636
vn 0.000000 0.366715 0.930333
vn 0.000000 0.366715 0.930333
vn 0.000000 0.366715 0.930333
vn 0.000000 0.366715 0.930333
vn 0.000000 0.366715 0.930333
vn 0.000000 0.366715 0.930333
vn 0.000000 0.366715 0.930333
vn -0.000000 0.366715 0.930334
vn -0.000000 0.366715 0.930334
vn -0.000000 0.366715 0.930334
vn 0.000000 0.000000 1.000000
vn 0.000000 0.000000 1.000000
vn 0.000000 0.000000 1.000000
vn 0.000000 0.000000 1.000000
vn 0.000000 0.000000 1.000000
vn 0.000000 0.000000 1.000000
vn 0.000000 0.000000 1.000000
vn 0.714742 0.494300 0.494785
vn 0.714742 0.494300 0.494785
vn 0.714742 0.494300 0.494785
vn 0.617993 0.630922 0.469065
vn 0.617993 0.630922 0.469065
vn 0.617993 0.630922 0.469065
vn 0.866548 0.499094 0.000000
vn 0.866548 0.499094 0.000000
vn 0.866548 0.499094 0.000000
vn 0.866548 0.499094 0.000000
vn 0.866548 0.499094 0.000000
vn 0.866548 0.499094 0.000000
vn 0.866548 0.499094 0.000000
vn 0.000001 0.366715 0.930333
vn 0.000001 0.366715 0.930333
vn 0.000001 0.366715 0.930333
vn 0.000001 0.366715 0.930333
vn 0.000000 0.366715 0.930333
vn 0.000000 0.366715 0.930333
vn 0.000000 0.366715 0.930333
vn 0.000000 0.366715 0.930333
s off
f 3/21/1 4/11/2 6/1/3 5/2/4
f 7/3/5 8/4/6 2/17/7 1/15/8
f 10/5/9 9/16/10 20/29/11 21/30/12
f 27/37/13 17/26/14 18/27/15 23/33/16
f 13/7/17 37/52/18 39/54/19 15/9/20
f 28/38/21 32/45/22 34/47/23 33/46/24
f 31/43/25 6/10/26 4/24/27 29/41/28
f 10/5/29 11/22/30 3/8/31 5/13/32
f 7/14/33 1/15/34 19/28/35 22/32/36
f 25/35/37 2/17/38 14/20/39 24/34/40
f 2/17/41 8/19/42 16/6/43 14/20/44
f 18/27/45 17/26/46 21/31/47 12/18/48
f 19/28/49 18/27/50 12/18/51 22/32/52
f 21/30/53 20/29/54 12/18/55
f 20/29/56 22/32/57 12/18/58
f 10/5/59 21/30/60 17/25/61 11/22/62
f 7/14/63 22/32/64 20/29/65 9/16/66
f 25/35/67 27/37/68 26/36/69
f 24/34/70 27/37/71 25/35/72
f 26/36/73 27/37/74 23/33/75
f 1/15/76 2/17/77 25/35/78 26/36/79
f 19/28/80 26/36/81 23/33/82 18/27/83
f 1/15/84 26/36/85 19/28/86
f 36/49/87 24/34/88 14/20/89
f 34/47/90 35/48/91 33/46/92
f 29/40/93 30/42/94 31/44/95
f 31/44/96 30/42/97 28/38/98
f 13/7/99 15/9/100 31/43/101 28/39/102
f 11/12/103 30/42/104 3/21/105
f 3/21/106 30/42/107 29/40/108 4/11/109
f 31/43/110 15/9/111 6/10/112
f 11/12/113 17/26/114 32/45/115
f 32/45/116 35/48/117 34/47/118
f 33/46/119 27/37/120 13/23/121
f 32/45/122 17/26/123 27/37/124 35/48/125
f 33/46/126 35/48/127 27/37/128
f 28/38/129 33/46/130 13/23/131
f 11/12/132 32/45/133 28/38/134 30/42/135
f 38/55/136 39/54/137 37/52/138
f 36/50/139 39/54/140 38/55/141
f 16/6/142 39/54/143 36/50/144 14/20/145
f 15/9/146 39/54/147 16/6/148
f 13/23/149 27/37/150 38/53/151 37/51/152
f 38/53/153 27/37/154 24/34/155 36/49/156
