# This file uses centimeters as units for non-parametric coordinates.

v 33.535313 -26.299103 24.778551
v 216.464691 -26.299103 24.778551
v 31.067272 -13.339478 27.122856
v 218.932739 -13.339478 27.122856
v 31.067272 -13.339478 11.091038
v 218.932739 -13.339478 11.091038
v 33.535313 -26.299103 11.091038
v 216.464691 -26.299103 11.091038
v 33.535313 -18.748718 24.391539
v 216.464691 -18.748718 24.778551
v 216.464691 -18.748718 11.091038
v 33.535313 -18.748718 11.091038
v 31.067272 -16.842865 11.091038
v 218.932739 -16.842865 11.091038
v 218.588547 -16.391893 27.235226
v 31.067272 -16.842865 27.122856
v 30.349056 -13.074951 27.896339
v 219.650955 -13.074951 27.896339
v 219.650955 -13.074951 11.091038
v 30.349056 -13.074951 11.091038
v 27.698511 -10.378143 28.955334
v 221.804504 -10.378143 29.080261
v 221.804504 -10.378143 11.091038
v 28.195513 -10.378143 11.091038
v 27.110714 -5.858643 29.790426
v 222.889297 -5.858643 29.790426
v 222.889297 -5.858643 11.091038
v 27.110714 -5.858643 11.091038
v 24.345844 -2.991547 32.065136
v 225.654175 -2.991547 32.065136
v 225.654175 -2.991547 11.091038
v 24.345844 -2.991547 11.091038
v 22.066334 -2.302823 34.684399
v 227.933685 -2.737823 34.684399
v 227.933685 -2.737823 11.091038
v 22.066334 -2.737823 11.091038
v 22.066334 0.000000 34.684399
v 227.933685 0.000000 34.684399
v 227.933685 0.000000 11.091038
v 22.066334 0.000000 11.091038
v 193.591660 -26.299103 11.091038
v 56.408344 -26.299103 11.091038
v 56.408344 -26.299103 24.778551
v 193.591660 -26.299103 24.778551
v 56.408344 -18.748718 24.778551
v 193.591660 -18.748718 24.778551
v 55.855938 -16.842865 27.122856
v 193.591660 -16.842865 27.122856
v 56.408352 -13.339478 27.122856
v 193.591660 -13.339478 27.122856
v 56.408352 -13.074951 27.896339
v 194.698990 -13.074951 27.896339
v 56.408352 -10.378143 29.080261
v 193.591660 -10.378143 29.080261
v 56.408352 -5.858643 29.790426
v 193.591660 -5.858643 29.790426
v 56.408352 -2.991547 32.065136
v 193.591660 -2.991547 32.065136
v 56.408352 -2.737823 34.684399
v 193.782196 -2.737824 34.684399
v 57.128391 0.000000 34.684399
v 193.591660 0.000000 34.684399
v 56.408352 0.000000 11.091038
v 193.591660 0.000000 11.091038
v 125.000008 23.942385 11.091038
v 125.000008 23.942385 34.684399
v 124.810562 21.391989 34.684399
v 125.000008 20.950838 32.065136
v 125.000008 18.083742 29.790426
v 125.000008 13.564241 29.080261
v 125.378540 11.162477 27.896339
v 125.000008 10.602907 27.122856
v 125.566612 7.099520 27.122856
v 124.228455 5.281538 24.778551
v 125.000000 -2.356718 24.778551
v 125.000000 -2.356718 11.091038
v 87.223160 -7.830306 24.778551
v 84.966423 -6.014680 27.122856
v 81.616196 -4.540507 27.122856
v 151.829834 1.913960 27.896339
v 154.133423 4.569385 29.080261
v 155.656219 7.382981 29.790428
vt 0.248337 0.188966
vt 0.249315 0.188969
vt 0.248351 0.189078
vt 0.248351 0.189050
vt 0.248339 0.189040
vt 0.249301 0.189057
vt 0.249314 0.189046
vt 0.248337 0.188966
vt 0.249315 0.188969
vt 0.248337 0.188966
vt 0.249315 0.188969
vt 0.248337 0.188966
vt 0.249315 0.188969
vt 0.248337 0.188966
vt 0.249315 0.188969
vt 0.248337 0.188966
vt 0.249315 0.188969
vt 0.249315 0.188969
vt 0.249182 0.189084
vt 0.248501 0.188966
vt 0.249295 0.189059
vt 0.249173 0.189049
vt 0.249152 0.188969
vt 0.249308 0.188971
vt 0.249174 0.188971
vt 0.249307 0.189049
vt 0.249171 0.188971
vt 0.249308 0.188971
vt 0.249163 0.188971
vt 0.249308 0.188971
vt 0.249159 0.188971
vt 0.249308 0.188971
vt 0.249150 0.188971
vt 0.249308 0.188971
vt 0.249142 0.188971
vt 0.249308 0.188971
vt 0.249142 0.188971
vt 0.249308 0.188971
vt 0.249174 0.189059
vt 0.249294 0.189088
vt 0.249174 0.189087
vt 0.249301 0.189085
vt 0.248333 0.189081
vt 0.248470 0.189079
vt 0.248333 0.189053
vt 0.248453 0.189082
vt 0.248453 0.189054
vt 0.248317 0.189043
vt 0.248315 0.188967
vt 0.248450 0.189044
vt 0.248315 0.188967
vt 0.248449 0.188968
vt 0.248315 0.188967
vt 0.248452 0.188968
vt 0.248315 0.188967
vt 0.248460 0.188968
vt 0.248315 0.188967
vt 0.248464 0.188968
vt 0.248315 0.188967
vt 0.248473 0.188968
vt 0.248315 0.188967
vt 0.248481 0.188968
vt 0.248337 0.188966
vt 0.248481 0.188968
vt 0.248826 0.188967
vt 0.248812 0.188969
vt 0.248812 0.188969
vt 0.248812 0.188969
vt 0.248812 0.188969
vt 0.248812 0.188969
vt 0.248812 0.188969
vt 0.248812 0.188969
vt 0.248812 0.189046
vt 0.248814 0.189056
vt 0.248814 0.189084
vt 0.248826 0.189081
vt 0.249010 0.189058
vt 0.249021 0.189048
vt 0.249041 0.188970
vt 0.248674 0.188969
vt 0.248662 0.188969
vt 0.248656 0.188969
vn 0.674759 -0.737795 0.018939
vn 0.674759 -0.737795 0.018939
vn 0.674759 -0.737795 0.018939
vn 0.674759 -0.737795 0.018939
vn -0.611193 -0.791482 0.000000
vn -0.611193 -0.791482 0.000000
vn -0.611193 -0.791482 0.000000
vn -0.611193 -0.791482 0.000000
vn 1.000000 0.000000 0.000000
vn 1.000000 0.000000 0.000000
vn 1.000000 0.000000 0.000000
vn 1.000000 0.000000 0.000000
vn -1.000000 0.000000 0.000000
vn -1.000000 0.000000 0.000000
vn -1.000000 0.000000 0.000000
vn -1.000000 0.000000 0.000000
vn 0.998570 -0.052227 0.011414
vn 0.998570 -0.052227 0.011414
vn 0.998570 -0.052227 0.011414
vn 0.998570 -0.052227 0.011414
vn -1.000000 0.000000 0.000000
vn -1.000000 0.000000 0.000000
vn -1.000000 0.000000 0.000000
vn -1.000000 0.000000 0.000000
vn 0.345614 -0.938377 0.000000
vn 0.345614 -0.938377 0.000000
vn 0.345614 -0.938377 0.000000
vn 0.345614 -0.938377 0.000000
vn -0.345614 -0.938377 0.000000
vn -0.345614 -0.938377 0.000000
vn -0.345614 -0.938377 0.000000
vn -0.345614 -0.938377 0.000000
vn 0.781419 -0.624007 0.000000
vn 0.781419 -0.624007 0.000000
vn 0.781419 -0.624007 0.000000
vn 0.781419 -0.624007 0.000000
vn -0.747739 -0.663906 -0.010719
vn -0.747739 -0.663906 -0.010719
vn -0.747739 -0.663906 -0.010719
vn -0.747739 -0.663906 -0.010719
vn 0.972382 -0.233396 0.000000
vn 0.972382 -0.233396 0.000000
vn 0.972382 -0.233396 0.000000
vn 0.972382 -0.233396 0.000000
vn -0.983440 -0.180743 -0.013368
vn -0.983440 -0.180743 -0.013368
vn -0.983440 -0.180743 -0.013368
vn -0.983440 -0.180743 -0.013368
vn 0.719820 -0.694160 0.000000
vn 0.719820 -0.694160 0.000000
vn 0.719820 -0.694160 0.000000
vn 0.719820 -0.694160 0.000000
vn -0.719823 -0.694158 0.000000
vn -0.719823 -0.694158 0.000000
vn -0.719823 -0.694158 0.000000
vn -0.719823 -0.694158 0.000000
vn 0.110623 -0.993862 0.000000
vn 0.110623 -0.993862 0.000000
vn 0.110623 -0.993862 0.000000
vn 0.110623 -0.993862 0.000000
vn -0.197157 -0.980325 0.009568
vn -0.197157 -0.980325 0.009568
vn -0.197157 -0.980325 0.009568
vn -0.197157 -0.980325 0.009568
vn 1.000000 0.000000 0.000000
vn 1.000000 0.000000 0.000000
vn 1.000000 0.000000 0.000000
vn 1.000000 0.000000 0.000000
vn -1.000000 0.000000 0.000000
vn -1.000000 0.000000 0.000000
vn -1.000000 0.000000 0.000000
vn -1.000000 0.000000 0.000000
vn -0.329557 -0.944136 0.000000
vn -0.329557 -0.944136 0.000000
vn -0.329557 -0.944136 0.000000
vn -0.329557 -0.944136 0.000000
vn 0.000000 0.000000 1.000000
vn 0.000000 0.000000 1.000000
vn 0.000000 0.000000 1.000000
vn 0.000000 0.000000 1.000000
vn -0.251933 -0.721508 0.644947
vn -0.251933 -0.721508 0.644947
vn -0.251933 -0.721508 0.644947
vn -0.251933 -0.721508 0.644947
vn 0.000000 0.000000 1.000000
vn 0.000000 0.000000 1.000000
vn 0.000000 0.000000 1.000000
vn 0.000000 0.000000 1.000000
vn -0.252171 -0.721223 0.645172
vn -0.252171 -0.721223 0.645172
vn -0.252171 -0.721223 0.645172
vn -0.125126 -0.381239 0.915970
vn -0.125126 -0.381239 0.915970
vn -0.125126 -0.381239 0.915970
vn -0.125126 -0.381239 0.915970
vn -0.058660 -0.178072 0.982268
vn -0.058660 -0.178072 0.982268
vn -0.058660 -0.178072 0.982268
vn -0.058660 -0.178072 0.982268
vn -0.212017 -0.607400 0.765581
vn -0.212017 -0.607400 0.765581
vn -0.212017 -0.607400 0.765581
vn -0.212017 -0.607400 0.765581
vn -0.327333 -0.936695 0.124318
vn -0.327333 -0.936695 0.124318
vn -0.327333 -0.936695 0.124318
vn -0.327333 -0.936695 0.124318
vn -0.000000 0.000000 1.000000
vn -0.000000 0.000000 1.000000
vn -0.000000 0.000000 1.000000
vn -0.000000 0.000000 1.000000
vn 0.329557 0.944136 0.000000
vn 0.329557 0.944136 0.000000
vn 0.329557 0.944136 0.000000
vn 0.329557 0.944136 0.000000
vn -0.004861 -0.801000 0.598645
vn -0.004861 -0.801000 0.598645
vn -0.004861 -0.801000 0.598645
vn -0.004861 -0.801000 0.598645
vn 0.000000 1.000000 0.000000
vn 0.000000 1.000000 0.000000
vn 0.000000 1.000000 0.000000
vn 0.000000 1.000000 0.000000
vn 0.000000 0.000000 1.000000
vn 0.000000 0.000000 1.000000
vn 0.000000 0.000000 1.000000
vn 0.000000 0.000000 1.000000
vn 0.000000 -0.946196 0.323593
vn 0.000000 -0.946196 0.323593
vn 0.000000 -0.946196 0.323593
vn 0.000000 -0.946196 0.323593
vn -0.002105 -0.384851 0.922976
vn -0.002105 -0.384851 0.922976
vn -0.002105 -0.384851 0.922976
vn -0.002105 -0.384851 0.922976
vn -0.002123 -0.168644 0.985675
vn -0.002123 -0.168644 0.985675
vn -0.002123 -0.168644 0.985675
vn -0.002123 -0.168644 0.985675
vn 0.000000 -0.621530 0.783390
vn 0.000000 -0.621530 0.783390
vn 0.000000 -0.621530 0.783390
vn 0.000000 -0.621530 0.783390
vn -0.006450 -0.984664 0.174341
vn -0.006450 -0.984664 0.174341
vn -0.006450 -0.984664 0.174341
vn -0.006450 -0.984664 0.174341
vn 0.000000 0.000000 1.000000
vn 0.000000 0.000000 1.000000
vn 0.000000 0.000000 1.000000
vn 0.000000 0.000000 1.000000
vn -0.008457 0.025619 0.999636
vn -0.008457 0.025619 0.999636
vn -0.008457 0.025619 0.999636
vn -0.008457 0.025619 0.999636
vn 0.000000 -1.000000 0.000000
vn 0.000000 -1.000000 0.000000
vn 0.000000 -1.000000 0.000000
vn 0.000000 -1.000000 0.000000
vn 0.000000 -1.000000 0.000000
vn 0.000000 -1.000000 0.000000
vn 0.000000 -1.000000 0.000000
vn 0.000000 -1.000000 0.000000
vn 0.000000 0.000000 1.000000
vn 0.000000 0.000000 1.000000
vn 0.000000 0.000000 1.000000
vn 0.000000 0.000000 1.000000
vn 0.005501 -0.748980 0.662570
vn 0.005501 -0.748980 0.662570
vn 0.005501 -0.748980 0.662570
vn 0.005501 -0.748980 0.662570
vn -0.002387 0.017263 0.999848
vn -0.002387 0.017263 0.999848
vn -0.002387 0.017263 0.999848
vn -0.002387 0.017263 0.999848
vn 0.000000 -0.946196 0.323593
vn 0.000000 -0.946196 0.323593
vn 0.000000 -0.946196 0.323593
vn 0.000000 -0.946196 0.323593
vn 0.000000 -0.401978 0.915649
vn 0.000000 -0.401978 0.915649
vn 0.000000 -0.401978 0.915649
vn 0.000000 -0.401978 0.915649
vn 0.000000 -0.155229 0.987879
vn 0.000000 -0.155229 0.987879
vn 0.000000 -0.155229 0.987879
vn 0.000000 -0.155229 0.987879
vn 0.000000 -0.621530 0.783391
vn 0.000000 -0.621530 0.783391
vn 0.000000 -0.621530 0.783391
vn 0.000000 -0.621530 0.783391
vn 0.000000 -0.995341 0.096417
vn 0.000000 -0.995341 0.096417
vn 0.000000 -0.995341 0.096417
vn 0.000000 -0.995341 0.096417
vn 0.000000 0.000000 1.000000
vn 0.000000 0.000000 1.000000
vn 0.000000 0.000000 1.000000
vn 0.000000 0.000000 1.000000
vn 0.000000 1.000000 0.000000
vn 0.000000 1.000000 0.000000
vn 0.000000 1.000000 0.000000
vn 0.000000 1.000000 0.000000
vn -0.331101 0.943582 0.005052
vn -0.331101 0.943582 0.005052
vn -0.331101 0.943582 0.005052
vn -0.331101 0.943582 0.005052
vn 0.000000 0.000000 1.000000
vn 0.000000 0.000000 1.000000
vn 0.000000 0.000000 1.000000
vn 0.000000 0.000000 1.000000
vn 0.328043 -0.934841 0.135866
vn 0.328043 -0.934841 0.135866
vn 0.328043 -0.934841 0.135866
vn 0.328043 -0.934841 0.135866
vn 0.212017 -0.607400 0.765581
vn 0.212017 -0.607400 0.765581
vn 0.212017 -0.607400 0.765581
vn 0.212017 -0.607400 0.765581
vn 0.054104 -0.155001 0.986432
vn 0.054104 -0.155001 0.986432
vn 0.054104 -0.155001 0.986432
vn 0.054104 -0.155001 0.986432
vn 0.142944 -0.408131 0.901663
vn 0.142944 -0.408131 0.901663
vn 0.142944 -0.408131 0.901663
vn 0.142944 -0.408131 0.901663
vn 0.313614 -0.898461 0.307267
vn 0.313614 -0.898461 0.307267
vn 0.313614 -0.898461 0.307267
vn -0.000000 0.000000 1.000000
vn -0.000000 0.000000 1.000000
vn -0.000000 0.000000 1.000000
vn -0.000000 0.000000 1.000000
vn 0.247255 -0.681341 0.688941
vn 0.247255 -0.681341 0.688941
vn 0.247255 -0.681341 0.688941
vn 0.247255 -0.681341 0.688941
vn -0.000000 0.000000 1.000000
vn -0.000000 0.000000 1.000000
vn -0.000000 0.000000 1.000000
vn -0.000000 0.000000 1.000000
vn 0.329557 -0.944136 0.000000
vn 0.329557 -0.944136 0.000000
vn 0.329557 -0.944136 0.000000
vn 0.329557 -0.944136 0.000000
vn -0.000000 0.000000 1.000000
vn -0.000000 0.000000 1.000000
vn -0.000000 0.000000 1.000000
vn 0.250374 -0.740881 0.623225
vn 0.250374 -0.740881 0.623225
vn 0.250374 -0.740881 0.623225
vn 0.250374 -0.740881 0.623225
vn 0.000000 0.000000 1.000000
vn 0.000000 0.000000 1.000000
vn 0.000000 0.000000 1.000000
vn 0.000000 0.000000 1.000000
vn 0.302307 -0.862486 0.405868
vn 0.302307 -0.862486 0.405868
vn 0.302307 -0.862486 0.405868
vn 0.302307 -0.862486 0.405868
vn -0.255756 -0.732233 0.631208
vn -0.255756 -0.732233 0.631208
vn -0.255756 -0.732233 0.631208
vn -0.255756 -0.732233 0.631208
vn -0.136411 -0.375140 0.916876
vn -0.136411 -0.375140 0.916876
vn -0.136411 -0.375140 0.916876
vn -0.136411 -0.375140 0.916876
vn -0.064414 -0.176850 0.982128
vn -0.064414 -0.176850 0.982128
vn -0.064414 -0.176850 0.982128
vn -0.064414 -0.176850 0.982128
vn -0.212017 -0.607400 0.765581
vn -0.212017 -0.607400 0.765581
vn -0.212017 -0.607400 0.765581
s off
f 10/45/1 11/4/2 14/5/3 15/48/4
f 12/6/5 9/21/6 16/26/7 13/7/8
f 2/43/9 8/3/10 11/4/11 10/45/12
f 7/42/13 1/40/14 9/21/15 12/6/16
f 15/48/17 14/5/18 6/1/19 4/49/20
f 13/7/21 16/26/22 3/28/23 5/2/24
f 4/49/25 6/1/26 19/8/27 18/51/28
f 5/2/29 3/28/30 17/30/31 20/9/32
f 18/51/33 19/8/34 23/10/35 22/53/36
f 20/9/37 17/30/38 21/32/39 24/11/40
f 22/53/41 23/10/42 27/12/43 26/55/44
f 24/11/45 21/32/46 25/34/47 28/13/48
f 26/55/49 27/12/50 31/14/51 30/57/52
f 28/13/53 25/34/54 29/36/55 32/15/56
f 30/57/57 31/14/58 35/16/59 34/59/60
f 32/15/61 29/36/62 33/38/63 36/17/64
f 34/59/65 35/16/66 39/63/67 38/61/68
f 36/17/69 33/38/70 37/24/71 40/18/72
f 76/76/73 41/44/74 44/46/75 75/75/76
f 75/75/77 44/46/78 46/47/79 74/74/80
f 74/74/81 46/47/82 48/50/83 73/73/84
f 73/73/85 48/50/86 50/52/87 72/72/88
f 72/72/89 80/80/90 71/71/91
f 71/71/92 80/80/93 81/81/94 70/70/95
f 70/70/96 81/81/97 82/82/98 69/69/99
f 69/69/100 82/82/101 58/60/102 68/68/103
f 68/68/104 58/60/105 60/62/106 67/67/107
f 67/67/108 60/62/109 62/64/110 66/66/111
f 66/66/112 62/64/113 64/20/114 65/65/115
f 16/26/116 9/21/117 45/39/118 47/22/119
f 61/37/120 63/23/121 40/18/122 37/24/123
f 49/25/124 3/28/125 16/26/126 47/22/127
f 51/27/128 17/30/129 3/28/130 49/25/131
f 53/29/132 21/32/133 17/30/134 51/27/135
f 55/31/136 25/34/137 21/32/138 53/29/139
f 57/33/140 29/36/141 25/34/142 55/31/143
f 59/35/144 33/38/145 29/36/146 57/33/147
f 61/37/148 37/24/149 33/38/150 59/35/151
f 45/39/152 9/21/153 1/40/154 43/41/155
f 43/41/156 1/40/157 7/42/158 42/19/159
f 2/43/160 44/46/161 41/44/162 8/3/163
f 10/45/164 46/47/165 44/46/166 2/43/167
f 48/50/168 46/47/169 10/45/170 15/48/171
f 4/49/172 50/52/173 48/50/174 15/48/175
f 18/51/176 52/54/177 50/52/178 4/49/179
f 22/53/180 54/56/181 52/54/182 18/51/183
f 26/55/184 56/58/185 54/56/186 22/53/187
f 30/57/188 58/60/189 56/58/190 26/55/191
f 34/59/192 60/62/193 58/60/194 30/57/195
f 38/61/196 62/64/197 60/62/198 34/59/199
f 39/63/200 64/20/201 62/64/202 38/61/203
f 61/37/204 66/66/205 65/65/206 63/23/207
f 59/35/208 67/67/209 66/66/210 61/37/211
f 57/33/212 68/68/213 67/67/214 59/35/215
f 55/31/216 69/69/217 68/68/218 57/33/219
f 53/29/220 70/70/221 69/69/222 55/31/223
f 51/27/224 71/71/225 70/70/226 53/29/227
f 49/25/228 79/79/229 51/27/230
f 47/22/231 78/78/232 79/79/233 49/25/234
f 45/39/235 77/77/236 78/78/237 47/22/238
f 43/41/239 75/75/240 77/77/241 45/39/242
f 42/19/243 76/76/244 75/75/245 43/41/246
f 77/77/247 75/75/248 74/74/249
f 78/78/250 77/77/251 74/74/252 73/73/253
f 79/79/254 78/78/255 73/73/256 72/72/257
f 51/27/258 79/79/259 72/72/260 71/71/261
f 72/72/262 50/52/263 52/54/264 80/80/265
f 81/81/266 80/80/267 52/54/268 54/56/269
f 82/82/270 81/81/271 54/56/272 56/58/273
f 58/60/274 82/82/275 56/58/276
