# This file uses centimeters as units for non-parametric coordinates.

v 51.830849 0.000000 67.994881
v 198.168304 0.000000 67.994881
v 51.830849 299.999817 67.994881
v 198.168304 299.999817 67.994881
v 51.830849 299.999817 0.000000
v 198.168304 299.999817 0.000000
v 51.830849 0.000000 0.000000
v 198.168304 0.000000 0.000000
v 51.830845 253.707443 67.994881
v 51.830849 222.451965 67.994881
v 51.830849 236.153091 59.474949
v 57.760597 235.228317 67.994881
v 51.830849 214.157211 67.994873
v 51.830845 198.814880 67.994881
v 55.511406 210.457886 67.994881
v 51.830849 207.920288 63.364712
v 198.168304 67.918457 67.994881
v 198.168304 107.567337 67.994881
v 198.168304 86.045372 63.478237
v 193.090515 92.359825 67.994881
vt 0.788898 1.266726
vt 0.211164 1.266726
vt 0.211396 -0.266584
vt 0.788666 -0.266405
vt 0.210932 0.998283
vt 1.014998 0.998283
vt 0.789130 0.998283
vt -0.014937 0.998283
vt -0.014472 0.001732
vt 0.211396 0.001732
vt 0.788666 0.001732
vt 1.014534 0.001732
vt 0.211027 0.844508
vt 0.211052 0.740682
vt 0.182729 0.786195
vt 0.234445 0.783123
vt 0.211064 0.713128
vt 0.211082 0.662163
vt 0.225597 0.700840
vt 0.195693 0.692410
vt 0.788798 0.227346
vt 0.788832 0.359054
vt 0.803803 0.287561
vt 0.768768 0.308537
vn 0.000000 1.000000 0.000000
vn 0.000000 1.000000 0.000000
vn 0.000000 1.000000 0.000000
vn 0.000000 1.000000 0.000000
vn 0.000000 -1.000000 0.000000
vn 0.000000 -1.000000 0.000000
vn 0.000000 -1.000000 0.000000
vn 0.000000 -1.000000 0.000000
vn -1.000000 0.000000 -0.000000
vn -1.000000 0.000000 -0.000000
vn -1.000000 0.000000 -0.000000
vn -1.000000 0.000000 -0.000000
vn 0.000000 0.000000 1.000000
vn 0.000000 0.000000 1.000000
vn 0.000000 0.000000 1.000000
vn 0.000000 0.000000 1.000000
vn 1.000000 0.000000 0.000000
vn 1.000000 0.000000 0.000000
vn 1.000000 0.000000 0.000000
vn 1.000000 0.000000 0.000000
vn -0.805797 -0.258572 0.532758
vn -0.805797 -0.258572 0.532758
vn -0.805797 -0.258572 0.532758
vn -0.513939 -0.511331 0.688773
vn -0.513939 -0.511331 0.688773
vn -0.513939 -0.511331 0.688773
vn -0.751124 0.348611 0.560610
vn -0.751124 0.348611 0.560610
vn -0.751124 0.348611 0.560610
vn -0.820226 0.259288 0.509901
vn -0.820226 0.259288 0.509901
vn -0.820226 0.259288 0.509901
vn 0.523933 -0.174941 0.833601
vn 0.523933 -0.174941 0.833601
vn 0.523933 -0.174941 0.833601
vn 0.758454 0.157572 0.632391
vn 0.758454 0.157572 0.632391
vn 0.758454 0.157572 0.632391
vn 0.000000 0.000000 1.000000
vn 0.000000 0.000000 1.000000
vn 0.000000 0.000000 1.000000
vn 0.000000 0.000000 1.000000
vn -0.000002 -0.000000 1.000000
vn -0.000002 -0.000000 1.000000
vn -0.000002 -0.000000 1.000000
vn -0.000002 -0.000000 1.000000
vn 0.000000 0.000000 1.000000
vn 0.000000 0.000000 1.000000
vn 0.000000 0.000000 1.000000
vn 0.000000 0.000000 1.000000
vn -0.000000 0.000000 1.000000
vn -0.000000 0.000000 1.000000
vn -0.000000 0.000000 1.000000
vn -0.000000 0.000000 1.000000
vn -0.000000 0.000000 1.000000
vn -0.000000 0.000000 1.000000
vn -0.000000 0.000000 1.000000
vn -1.000000 0.000000 0.000000
vn -1.000000 0.000000 0.000000
vn -1.000000 0.000000 0.000000
vn -1.000000 0.000000 0.000000
vn -1.000000 -0.000000 -0.000000
vn -1.000000 -0.000000 -0.000000
vn -1.000000 -0.000000 -0.000000
vn -1.000000 -0.000000 -0.000000
vn -1.000000 -0.000000 0.000000
vn -1.000000 -0.000000 0.000000
vn -1.000000 -0.000000 0.000000
vn -1.000000 -0.000000 0.000000
vn 1.000000 -0.000000 0.000000
vn 1.000000 -0.000000 0.000000
vn 1.000000 -0.000000 0.000000
vn 1.000000 -0.000000 0.000000
vn 1.000000 0.000000 0.000000
vn 1.000000 0.000000 0.000000
vn 1.000000 0.000000 0.000000
s off
f 3/5/1 4/7/2 6/1/3 5/2/4
f 7/3/5 8/4/6 2/11/7 1/10/8
f 5/8/9 11/15/10 9/13/11 3/5/12
f 1/10/13 20/24/14 15/19/15 14/18/16
f 2/11/17 8/12/18 19/23/19 17/21/20
f 9/13/21 11/15/22 12/16/23
f 13/17/24 16/20/25 15/19/26
f 12/16/27 11/15/28 10/14/29
f 15/19/30 16/20/31 14/18/32
f 20/24/33 19/23/34 18/22/35
f 17/21/36 19/23/37 20/24/38
f 1/10/39 2/11/40 17/21/41 20/24/42
f 15/19/43 12/16/44 10/14/45 13/17/46
f 12/16/47 4/7/48 3/5/49 9/13/50
f 15/19/51 20/24/52 18/22/53 12/16/54
f 12/16/55 18/22/56 4/7/57
f 11/15/58 16/20/59 13/17/60 10/14/61
f 16/20/62 7/9/63 1/10/64 14/18/65
f 5/8/66 7/9/67 16/20/68 11/15/69
f 19/23/70 6/6/71 4/7/72 18/22/73
f 19/23/74 8/12/75 6/6/76
