# This file uses centimeters as units for non-parametric coordinates.

v -7.088593 9.170654 -7.088562
v -17.799103 -4.621582 -17.799072
v 11.574234 -4.621582 11.574265
v 20.792236 -12.778748 20.792267
v 26.163986 -12.778748 26.164017
v 26.163971 -4.325195 26.164001
v 40.310211 9.170654 40.310242
v 36.050049 -2.407349 36.050079
v 36.904816 0.895691 36.904846
v 40.310211 2.584229 40.310242
v 232.200958 -4.621582 -17.799072
v 242.911453 9.170654 -7.088562
v 261.574280 -4.621582 11.574265
v 270.792267 -12.778748 20.792267
v 276.164032 -12.778748 26.164017
v 276.164001 -4.325195 26.164001
v 290.310242 9.170654 40.310242
v 286.050079 -2.407349 36.050079
v 286.904846 0.895691 36.904846
v 290.310242 2.584229 40.310242
v 200.861984 9.170654 40.310242
v 77.802963 9.170654 40.310242
v 105.266144 9.170654 36.299362
v 127.048164 6.535335 40.310242
vt 0.194965 0.127038
vt 0.194976 0.127581
vt 0.194925 0.127660
vt 0.194910 0.127702
vt 0.194900 0.127716
vt 0.194888 0.127442
vt 0.194886 0.127148
vt 0.194894 0.127391
vt 0.194891 0.127311
vt 0.194892 0.127269
vt 0.194685 0.127551
vt 0.194615 0.127023
vt 0.194472 0.127664
vt 0.194271 0.127185
vt 0.194278 0.127305
vt 0.194296 0.127344
vt 0.194304 0.127423
vt 0.194350 0.127464
vt 0.194405 0.127717
vt 0.194366 0.127737
vt 0.194504 0.127169
vt 0.194794 0.127154
vt 0.194737 0.127146
vt 0.194675 0.127209
vn 0.000000 0.613342 -0.789818
vn 0.000000 0.613342 -0.789818
vn 0.000000 0.613342 -0.789818
vn 0.000000 0.613342 -0.789818
vn 0.000000 -1.000000 0.000000
vn 0.000000 -1.000000 0.000000
vn 0.000000 -1.000000 0.000000
vn 0.000000 -1.000000 0.000000
vn 0.000000 -0.748885 -0.662700
vn 0.000000 -0.748885 -0.662700
vn 0.000000 -0.748885 -0.662700
vn 0.000000 -0.748885 -0.662700
vn 0.000000 -1.000000 0.000000
vn 0.000000 -1.000000 0.000000
vn 0.000000 -1.000000 0.000000
vn 0.000000 -1.000000 0.000000
vn 0.000000 0.000002 1.000000
vn 0.000000 0.000002 1.000000
vn 0.000000 0.000002 1.000000
vn 0.000000 0.000002 1.000000
vn 0.000000 1.000000 0.000000
vn 0.000000 1.000000 0.000000
vn 0.000000 1.000000 0.000000
vn 0.000000 1.000000 0.000000
vn 0.000000 -0.981698 0.190444
vn 0.000000 -0.981698 0.190444
vn 0.000000 -0.981698 0.190444
vn 0.000000 -0.981698 0.190444
vn 0.000000 -0.250529 0.968109
vn 0.000000 -0.250529 0.968109
vn 0.000000 -0.250529 0.968109
vn 0.000000 -0.250529 0.968109
vn 0.000000 -0.895912 0.444231
vn 0.000000 -0.895912 0.444231
vn 0.000000 -0.895912 0.444231
vn 0.000000 -0.895912 0.444231
vn 0.000000 0.000000 1.000000
vn 0.000000 0.000000 1.000000
vn 0.000000 0.000000 1.000000
vn 0.000000 0.000000 1.000000
vn -0.707107 0.000000 0.707107
vn -0.707107 0.000000 0.707107
vn -0.707107 0.000000 0.707107
vn -0.707107 0.000000 0.707107
vn -0.707107 0.000000 0.707107
vn -0.707107 0.000000 0.707107
vn -0.707107 0.000000 0.707107
vn -0.707107 -0.000002 0.707107
vn -0.707107 -0.000002 0.707107
vn -0.707107 -0.000002 0.707107
vn -0.707107 0.000000 0.707107
vn -0.707107 0.000000 0.707107
vn -0.707107 0.000000 0.707107
vn -0.707107 0.000000 0.707107
vn -0.707107 -0.000000 0.707107
vn -0.707107 -0.000000 0.707107
vn -0.707107 -0.000000 0.707107
vn -0.707107 -0.000000 0.707107
vn 0.707107 0.000000 -0.707107
vn 0.707107 0.000000 -0.707107
vn 0.707107 0.000000 -0.707107
vn 0.707107 0.000001 -0.707107
vn 0.707107 0.000001 -0.707107
vn 0.707107 0.000001 -0.707107
vn 0.707107 0.000001 -0.707107
vn 0.707107 -0.000029 -0.707107
vn 0.707107 -0.000029 -0.707107
vn 0.707107 -0.000029 -0.707107
vn 0.707107 0.000003 -0.707106
vn 0.707107 0.000003 -0.707106
vn 0.707107 0.000003 -0.707106
vn 0.707107 0.000003 -0.707106
vn 0.707107 0.000002 -0.707107
vn 0.707107 0.000002 -0.707107
vn 0.707107 0.000002 -0.707107
vn 0.707107 0.000002 -0.707107
vn -0.027180 0.761308 0.647821
vn -0.027180 0.761308 0.647821
vn -0.027180 0.761308 0.647821
vn 0.050184 0.937768 0.343618
vn 0.050184 0.937768 0.343618
vn 0.050184 0.937768 0.343618
vn 0.000000 1.000000 0.000000
vn 0.000000 1.000000 0.000000
vn 0.000000 1.000000 0.000000
vn 0.000000 1.000000 0.000000
vn 0.000000 1.000000 0.000000
vn 0.000000 1.000000 0.000000
vn 0.000000 1.000000 0.000000
vn -0.000000 0.000000 1.000000
vn -0.000000 0.000000 1.000000
vn -0.000000 0.000000 1.000000
vn -0.000000 0.000000 1.000000
vn 0.000000 0.000000 1.000000
vn 0.000000 0.000000 1.000000
vn 0.000000 0.000000 1.000000
s off
f 2/2/1 1/1/2 12/12/3 11/11/4
f 3/3/5 2/2/6 11/11/7 13/13/8
f 4/4/9 3/3/10 13/13/11 14/19/12
f 5/5/13 4/4/14 14/19/15 15/20/16
f 6/6/17 5/5/18 15/20/19 16/18/20
f 12/12/21 23/23/22 21/21/23 17/14/24
f 8/8/25 6/6/26 16/18/27 18/17/28
f 9/9/29 8/8/30 18/17/31 19/16/32
f 10/10/33 9/9/34 19/16/35 20/15/36
f 7/7/37 10/10/38 24/24/39 22/22/40
f 2/2/41 3/3/42 1/1/43
f 7/7/44 1/1/45 3/3/46 10/10/47
f 10/10/48 3/3/49 9/9/50
f 8/8/51 9/9/52 3/3/53 6/6/54
f 6/6/55 3/3/56 4/4/57 5/5/58
f 11/11/59 12/12/60 13/13/61
f 13/13/62 12/12/63 17/14/64 20/15/65
f 20/15/66 19/16/67 13/13/68
f 13/13/69 19/16/70 18/17/71 16/18/72
f 14/19/73 13/13/74 16/18/75 15/20/76
f 23/23/77 24/24/78 21/21/79
f 22/22/80 24/24/81 23/23/82
f 1/1/83 7/7/84 22/22/85 23/23/86
f 1/1/87 23/23/88 12/12/89
f 24/24/90 20/15/91 17/14/92 21/21/93
f 24/24/94 10/10/95 20/15/96
