# This file uses centimeters as units for non-parametric coordinates.

v -7.088623 9.170654 -7.088562
v 257.088623 9.170654 -7.088562
v 267.799072 -4.621582 -17.799072
v -17.799072 -4.621582 -17.799072
v 238.425781 -4.621582 11.574265
v 11.574219 -4.621582 11.574265
v 229.207764 -12.778748 20.792267
v 20.792236 -12.778748 20.792267
v 223.835938 -12.778748 26.164017
v 26.163940 -12.778748 26.164017
v 223.836060 -4.325195 26.164001
v 26.163940 -4.325195 26.164001
v 40.310181 9.170654 40.310242
v 209.689819 9.170654 40.310242
v 213.949951 -2.407349 36.050079
v 36.050049 -2.407349 36.050079
v 213.095215 0.895691 36.904846
v 36.904785 0.895691 36.904846
v 209.689819 2.584229 40.310242
v 40.310181 2.584229 40.310242
v 144.453491 9.170654 -7.088562
v 142.419189 -4.621582 -17.799072
v 123.502563 -4.621582 11.574265
v 112.283447 -12.778748 20.792267
v 109.233910 -12.145910 26.164015
v 113.888649 -4.958033 26.164003
v 113.927979 9.170654 37.590122
v 109.173828 -2.407349 36.050079
v 110.762451 0.895691 36.904846
v 109.662720 2.584229 40.310242
vt 0.194965 0.127038
vt 0.194542 0.127022
vt 0.194576 0.127548
vt 0.194976 0.127581
vt 0.194463 0.127664
vt 0.194925 0.127660
vt 0.194428 0.127717
vt 0.194910 0.127702
vt 0.194408 0.127738
vt 0.194900 0.127716
vt 0.194393 0.127464
vt 0.194888 0.127442
vt 0.194886 0.127148
vt 0.194365 0.127186
vt 0.194382 0.127424
vt 0.194894 0.127391
vt 0.194377 0.127345
vt 0.194891 0.127311
vt 0.194372 0.127307
vt 0.194892 0.127269
vt 0.194722 0.127029
vt 0.194752 0.127563
vt 0.194697 0.127662
vt 0.194698 0.127709
vt 0.194694 0.127726
vt 0.194667 0.127452
vt 0.194660 0.127165
vt 0.194684 0.127404
vt 0.194676 0.127325
vt 0.194679 0.127284
vn 0.000000 0.613342 -0.789818
vn 0.000000 0.613342 -0.789818
vn 0.000000 0.613342 -0.789818
vn 0.000000 0.613342 -0.789818
vn 0.000000 -1.000000 0.000000
vn 0.000000 -1.000000 0.000000
vn 0.000000 -1.000000 0.000000
vn 0.000000 -1.000000 0.000000
vn 0.000000 -0.748885 -0.662700
vn 0.000000 -0.748885 -0.662700
vn 0.000000 -0.748885 -0.662700
vn 0.000000 -0.748885 -0.662700
vn 0.003619 -0.998309 0.058022
vn 0.003619 -0.998309 0.058022
vn 0.003619 -0.998309 0.058022
vn 0.003619 -0.998309 0.058022
vn 0.000000 0.000002 1.000000
vn 0.000000 0.000002 1.000000
vn 0.000000 0.000002 1.000000
vn 0.000000 0.000002 1.000000
vn 0.000000 1.000000 0.000000
vn 0.000000 1.000000 0.000000
vn 0.000000 1.000000 0.000000
vn 0.000000 1.000000 0.000000
vn -0.003837 -0.975177 0.221395
vn -0.003837 -0.975177 0.221395
vn -0.003837 -0.975177 0.221395
vn -0.003837 -0.975177 0.221395
vn 0.000000 -0.250529 0.968109
vn 0.000000 -0.250529 0.968109
vn 0.000000 -0.250529 0.968109
vn 0.000000 -0.250529 0.968109
vn 0.000000 -0.895912 0.444231
vn 0.000000 -0.895912 0.444231
vn 0.000000 -0.895912 0.444231
vn 0.000000 -0.895912 0.444231
vn 0.018652 0.196397 0.980347
vn 0.018652 0.196397 0.980347
vn 0.018652 0.196397 0.980347
vn 0.018652 0.196397 0.980347
vn -0.707107 -0.000002 0.707106
vn -0.707107 -0.000002 0.707106
vn -0.707107 -0.000002 0.707106
vn -0.707107 -0.000001 0.707107
vn -0.707107 -0.000001 0.707107
vn -0.707107 -0.000001 0.707107
vn -0.707107 -0.000001 0.707107
vn -0.707107 0.000004 0.707107
vn -0.707107 0.000004 0.707107
vn -0.707107 0.000004 0.707107
vn -0.707107 -0.000002 0.707107
vn -0.707107 -0.000002 0.707107
vn -0.707107 -0.000002 0.707107
vn -0.707107 -0.000002 0.707107
vn -0.707108 -0.000001 0.707106
vn -0.707108 -0.000001 0.707106
vn -0.707108 -0.000001 0.707106
vn -0.707108 -0.000001 0.707106
vn 0.707107 -0.000002 0.707106
vn 0.707107 -0.000002 0.707106
vn 0.707107 -0.000002 0.707106
vn 0.707107 -0.000001 0.707107
vn 0.707107 -0.000001 0.707107
vn 0.707107 -0.000001 0.707107
vn 0.707107 -0.000001 0.707107
vn 0.707107 -0.000029 0.707107
vn 0.707107 -0.000029 0.707107
vn 0.707107 -0.000029 0.707107
vn 0.707107 0.000007 0.707107
vn 0.707107 0.000007 0.707107
vn 0.707107 0.000007 0.707107
vn 0.707107 0.000007 0.707107
vn 0.707106 -0.000005 0.707108
vn 0.707106 -0.000005 0.707108
vn 0.707106 -0.000005 0.707108
vn 0.707106 -0.000005 0.707108
vn 0.000000 0.613342 -0.789818
vn 0.000000 0.613342 -0.789818
vn 0.000000 0.613342 -0.789818
vn 0.000000 0.613342 -0.789818
vn 0.000000 -1.000000 0.000000
vn 0.000000 -1.000000 0.000000
vn 0.000000 -1.000000 0.000000
vn 0.000000 -1.000000 0.000000
vn 0.000000 -0.748884 -0.662701
vn 0.000000 -0.748884 -0.662701
vn 0.000000 -0.748884 -0.662701
vn 0.000000 -0.748884 -0.662701
vn -0.002729 -0.998389 0.056670
vn -0.002729 -0.998389 0.056670
vn -0.002729 -0.998389 0.056670
vn -0.002729 -0.998389 0.056670
vn 0.000000 0.000002 1.000000
vn 0.000000 0.000002 1.000000
vn 0.000000 0.000002 1.000000
vn 0.000000 0.000002 1.000000
vn 0.000000 1.000000 0.000000
vn 0.000000 1.000000 0.000000
vn 0.000000 1.000000 0.000000
vn 0.000000 1.000000 0.000000
vn 0.002873 -0.974938 0.222459
vn 0.002873 -0.974938 0.222459
vn 0.002873 -0.974938 0.222459
vn 0.002873 -0.974938 0.222459
vn 0.000000 -0.250529 0.968109
vn 0.000000 -0.250529 0.968109
vn 0.000000 -0.250529 0.968109
vn 0.000000 -0.250529 0.968109
vn 0.000000 -0.895912 0.444231
vn 0.000000 -0.895912 0.444231
vn 0.000000 -0.895912 0.444231
vn 0.000000 -0.895912 0.444231
vn -0.013593 0.206428 0.978367
vn -0.013593 0.206428 0.978367
vn -0.013593 0.206428 0.978367
vn -0.013593 0.206428 0.978367
s off
f 1/1/1 21/21/2 22/22/3 4/4/4
f 4/4/5 22/22/6 23/23/7 6/6/8
f 6/6/9 23/23/10 24/24/11 8/8/12
f 8/8/13 24/24/14 25/25/15 10/10/16
f 10/10/17 25/25/18 26/26/19 12/12/20
f 13/13/21 27/27/22 21/21/23 1/1/24
f 12/12/25 26/26/26 28/28/27 16/16/28
f 16/16/29 28/28/30 29/29/31 18/18/32
f 18/18/33 29/29/34 30/30/35 20/20/36
f 20/20/37 30/30/38 27/27/39 13/13/40
f 4/4/41 6/6/42 1/1/43
f 13/13/44 1/1/45 6/6/46 20/20/47
f 20/20/48 6/6/49 18/18/50
f 16/16/51 18/18/52 6/6/53 12/12/54
f 12/12/55 6/6/56 8/8/57 10/10/58
f 3/3/59 2/2/60 5/5/61
f 5/5/62 2/2/63 14/14/64 19/19/65
f 19/19/66 17/17/67 5/5/68
f 5/5/69 17/17/70 15/15/71 11/11/72
f 7/7/73 5/5/74 11/11/75 9/9/76
f 22/22/77 21/21/78 2/2/79 3/3/80
f 23/23/81 22/22/82 3/3/83 5/5/84
f 24/24/85 23/23/86 5/5/87 7/7/88
f 25/25/89 24/24/90 7/7/91 9/9/92
f 26/26/93 25/25/94 9/9/95 11/11/96
f 21/21/97 27/27/98 14/14/99 2/2/100
f 28/28/101 26/26/102 11/11/103 15/15/104
f 29/29/105 28/28/106 15/15/107 17/17/108
f 30/30/109 29/29/110 17/17/111 19/19/112
f 27/27/113 30/30/114 19/19/115 14/14/116
