# This file uses centimeters as units for non-parametric coordinates.

v 195.505615 -0.000183 11.250000
v 174.494385 -0.000183 11.250000
v 193.556152 -4.337677 11.250000
v 176.443848 -4.337677 11.250000
v 193.556152 -4.337677 40.125244
v 176.443848 -4.337677 40.125244
v 195.505615 -0.000183 41.460175
v 174.494385 -0.000183 41.460175
v 190.358398 -4.337677 11.250000
v 179.641602 -4.337677 11.250000
v 190.358398 -8.675171 35.661926
v 179.641602 -8.675171 35.661926
v 190.358398 -4.337677 36.996887
v 179.641602 -4.337677 36.996887
v 190.358398 -29.623199 11.250000
v 179.641602 -29.623199 11.250000
v 179.641602 -28.276154 19.002777
v 190.358398 -28.276154 19.002777
v 179.641602 -12.829620 24.710266
v 190.358398 -12.829620 24.710266
v 190.358398 -16.097046 22.772278
v 179.641602 -16.097046 22.772278
v 190.358398 -20.184570 24.710266
v 179.641602 -20.184570 24.710266
v 190.358398 -24.936920 23.374176
v 179.641602 -24.936920 23.374176
v 75.505615 -0.000183 11.250000
v 54.494385 -0.000183 11.250000
v 73.556152 -4.337677 11.250000
v 56.443848 -4.337677 11.250000
v 73.556152 -4.337677 40.125244
v 56.443848 -4.337677 40.125244
v 75.505615 -0.000183 41.460175
v 54.494385 -0.000183 41.460175
v 70.358398 -4.337677 11.250000
v 59.641602 -4.337677 11.250000
v 70.358398 -8.675171 35.661926
v 59.641602 -8.675171 35.661926
v 70.358398 -4.337677 36.996887
v 59.641602 -4.337677 36.996887
v 70.358398 -29.623199 11.250000
v 59.641602 -29.623199 11.250000
v 59.641602 -28.276154 19.002777
v 70.358398 -28.276154 19.002777
v 59.641602 -12.829620 24.710266
v 70.358398 -12.829620 24.710266
v 70.358398 -16.097046 22.772278
v 59.641602 -16.097046 22.772278
v 70.358398 -20.184570 24.710266
v 59.641602 -20.184570 24.710266
v 70.358398 -24.936920 23.374176
v 59.641602 -24.936920 23.374176
v 250.000000 -0.000173 0.000031
v 250.000000 25.194916 0.000031
v 0.000977 18.608551 32.253906
v 0.000977 -0.000183 0.000000
v 0.000977 25.194916 0.000000
v 0.000977 25.194916 24.147583
v 0.000977 -0.000183 43.963074
v 0.000977 18.608551 42.623779
v 0.000977 11.699127 43.963074
v 0.000977 13.616943 53.849121
v 0.000977 16.919983 54.703918
v 0.000977 18.608551 58.109314
v 217.746094 18.608551 32.253906
v 225.852539 25.194916 24.147583
v 206.037109 -0.000183 43.963074
v 206.037109 11.699127 43.963074
v 207.376221 18.608551 42.623779
v 196.150879 13.616943 53.849121
v 199.270020 25.194916 50.730133
v 0.000977 25.194916 50.730133
v 195.296143 16.919983 54.703918
v 191.890625 18.608551 58.109314
v 191.890625 25.194916 58.109314
v 0.000977 25.194916 58.109314
v 250.000000 58.969849 -37.892456
v 287.892578 58.969849 -37.892456
v 267.914551 34.996735 -17.914551
v 250.000000 34.996735 -17.914551
v 250.000000 38.369965 0.000061
v 250.000000 25.257629 0.000061
v 0.000977 34.996735 -17.914581
v 0.000977 58.969849 -37.892487
v 0.000977 25.194824 0.115540
v 249.884521 25.194824 0.115570
v 0.000977 25.194824 24.235016
v 225.765137 25.194824 24.235046
v 107.437012 -0.000179 0.000031
v 97.331917 18.608551 31.676373
v 110.544434 25.194916 24.147583
v 125.618164 -0.000183 43.963074
v 122.423828 11.699127 43.963074
v 119.983398 18.608551 42.623779
v 125.366592 13.447664 52.641766
v 120.495804 25.194916 52.083111
v 125.440430 16.919983 54.703918
v 126.387695 19.725838 58.109314
v 124.589355 25.194916 58.109314
v 100.557617 25.194916 0.000000
vt 0.195024 0.127850
vt 0.194238 0.127834
vt 0.194192 0.127063
vt 0.194989 0.127076
vt 0.194402 0.126872
vt 0.195161 0.126884
vt 0.194443 0.127608
vt 0.195192 0.127623
vt 0.194990 0.126991
vt 0.194199 0.126990
vt 0.194402 0.126872
vt 0.195161 0.126884
vt 0.195161 0.126884
vt 0.194402 0.126872
vt 0.194443 0.127608
vt 0.195192 0.127623
vt 0.194221 0.127652
vt 0.195008 0.127677
vt 0.194402 0.126872
vt 0.194402 0.126872
vt 0.195161 0.126884
vt 0.195161 0.126884
vt 0.195161 0.126884
vt 0.194402 0.126872
vt 0.195161 0.126884
vt 0.194402 0.126872
vt 0.195024 0.127850
vt 0.194238 0.127834
vt 0.194192 0.127063
vt 0.194989 0.127076
vt 0.194402 0.126872
vt 0.195161 0.126884
vt 0.194443 0.127608
vt 0.195192 0.127623
vt 0.194990 0.126991
vt 0.194199 0.126990
vt 0.194402 0.126872
vt 0.195161 0.126884
vt 0.195161 0.126884
vt 0.194402 0.126872
vt 0.194443 0.127608
vt 0.195192 0.127623
vt 0.194221 0.127652
vt 0.195008 0.127677
vt 0.194402 0.126872
vt 0.194402 0.126872
vt 0.195161 0.126884
vt 0.195161 0.126884
vt 0.195161 0.126884
vt 0.194402 0.126872
vt 0.195161 0.126884
vt 0.194402 0.126872
vt 0.195083 0.127614
vt 0.195059 0.127000
vt 0.194287 0.127151
vt 0.194437 0.127613
vt 0.194402 0.126856
vt 0.194315 0.126951
vt 0.194238 0.127834
vt 0.194246 0.127189
vt 0.194215 0.127450
vt 0.194211 0.127387
vt 0.194205 0.127279
vt 0.194201 0.127223
vt 0.194934 0.127247
vt 0.194948 0.127118
vt 0.194892 0.127732
vt 0.194881 0.127461
vt 0.194899 0.127278
vt 0.194873 0.127413
vt 0.194879 0.127167
vt 0.194219 0.127039
vt 0.194869 0.127336
vt 0.194865 0.127296
vt 0.194860 0.127181
vt 0.194192 0.127063
vt 0.178831 0.197406
vt 0.036970 0.197406
vt 0.036970 0.117737
vt 0.104038 0.117737
vt 0.072875 0.075119
vt 0.001423 0.075119
vt 0.001423 0.001906
vt 0.001423 0.232553
vt 0.152557 0.232553
vt 0.001423 0.091590
vt 0.972914 0.117737
vt 0.972914 0.197406
vt 0.998542 0.075119
vt 0.998542 0.001434
vt 0.001884 0.001434
vt 0.998542 0.232553
vt 0.098084 0.001434
vt 0.998542 0.001434
vt 0.194694 0.127312
vt 0.194512 0.127271
vt 0.194610 0.127341
vt 0.194696 0.127360
vt 0.194697 0.127360
vt 0.194810 0.127337
vt 0.194715 0.127614
vt 0.194631 0.127202
vt 0.194625 0.127033
vt 0.194637 0.127772
vt 0.194611 0.127456
vt 0.194624 0.127241
vt 0.194636 0.127403
vt 0.194622 0.127117
vt 0.194632 0.127315
vt 0.194639 0.127271
vt 0.194626 0.127139
vt 0.194667 0.126914
vn 0.000000 0.000000 -1.000000
vn 0.000000 0.000000 -1.000000
vn 0.000000 0.000000 -1.000000
vn 0.000000 0.000000 -1.000000
vn 0.000000 -1.000000 0.000000
vn 0.000000 -1.000000 0.000000
vn 0.000000 -1.000000 0.000000
vn 0.000000 -1.000000 0.000000
vn 0.000000 -0.294149 0.955759
vn 0.000000 -0.294149 0.955759
vn 0.000000 -0.294149 0.955759
vn 0.000000 -0.294149 0.955759
vn -0.912110 -0.409945 0.000000
vn -0.912110 -0.409945 0.000000
vn -0.912110 -0.409945 0.000000
vn -0.912110 -0.409945 0.000000
vn 0.912110 -0.409945 0.000000
vn 0.912110 -0.409945 0.000000
vn 0.912110 -0.409945 0.000000
vn 0.912110 -0.409945 0.000000
vn 0.000000 -0.985239 0.171186
vn 0.000000 -0.985239 0.171186
vn 0.000000 -0.985239 0.171186
vn 0.000000 -0.985239 0.171186
vn 0.000000 -0.294156 0.955757
vn 0.000000 -0.294156 0.955757
vn 0.000000 -0.294156 0.955757
vn 0.000000 -0.294156 0.955757
vn -1.000000 0.000000 0.000000
vn -1.000000 0.000000 0.000000
vn -1.000000 0.000000 0.000000
vn 1.000000 0.000000 0.000000
vn 1.000000 0.000000 0.000000
vn 1.000000 0.000000 0.000000
vn -1.000000 0.000000 0.000000
vn -1.000000 0.000000 0.000000
vn -1.000000 0.000000 0.000000
vn 0.000000 -0.510141 0.860091
vn 0.000000 -0.510141 0.860091
vn 0.000000 -0.510141 0.860091
vn 0.000000 -0.510141 0.860091
vn 1.000000 0.000000 0.000000
vn 1.000000 0.000000 0.000000
vn 1.000000 0.000000 0.000000
vn -1.000000 0.000000 0.000000
vn -1.000000 0.000000 0.000000
vn -1.000000 0.000000 0.000000
vn 0.000000 -0.934987 0.354682
vn 0.000000 -0.934987 0.354682
vn 0.000000 -0.934987 0.354682
vn 0.000000 -0.934987 0.354682
vn 1.000000 0.000000 0.000000
vn 1.000000 0.000000 0.000000
vn 1.000000 0.000000 0.000000
vn 1.000000 0.000000 0.000000
vn 1.000000 0.000000 0.000000
vn 1.000000 0.000000 0.000000
vn 1.000000 0.000000 0.000000
vn 0.000000 0.428410 0.903584
vn 0.000000 0.428410 0.903584
vn 0.000000 0.428410 0.903584
vn 0.000000 0.428410 0.903584
vn -1.000000 0.000000 0.000000
vn -1.000000 0.000000 0.000000
vn -1.000000 0.000000 0.000000
vn -1.000000 0.000000 0.000000
vn 0.000000 0.000000 -1.000000
vn 0.000000 0.000000 -1.000000
vn 0.000000 0.000000 -1.000000
vn 0.000000 0.000000 -1.000000
vn 1.000000 0.000000 0.000000
vn 1.000000 0.000000 0.000000
vn 1.000000 0.000000 0.000000
vn 0.000000 -0.270650 0.962678
vn 0.000000 -0.270650 0.962678
vn 0.000000 -0.270650 0.962678
vn 0.000000 -0.270650 0.962678
vn -1.000000 0.000000 0.000000
vn -1.000000 0.000000 0.000000
vn -1.000000 0.000000 0.000000
vn 1.000000 0.000000 0.000000
vn 1.000000 0.000000 0.000000
vn 1.000000 0.000000 0.000000
vn 0.000000 -0.794674 0.607037
vn 0.000000 -0.794674 0.607037
vn 0.000000 -0.794674 0.607037
vn 0.000000 -0.794674 0.607037
vn -1.000000 0.000000 0.000000
vn -1.000000 0.000000 0.000000
vn -1.000000 0.000000 0.000000
vn 0.000000 0.000000 -1.000000
vn 0.000000 0.000000 -1.000000
vn 0.000000 0.000000 -1.000000
vn 0.000000 0.000000 -1.000000
vn 0.000000 -1.000000 0.000000
vn 0.000000 -1.000000 0.000000
vn 0.000000 -1.000000 0.000000
vn 0.000000 -1.000000 0.000000
vn 0.000000 -0.294150 0.955759
vn 0.000000 -0.294150 0.955759
vn 0.000000 -0.294150 0.955759
vn 0.000000 -0.294150 0.955759
vn -0.912111 -0.409943 0.000000
vn -0.912111 -0.409943 0.000000
vn -0.912111 -0.409943 0.000000
vn -0.912111 -0.409943 0.000000
vn 0.912111 -0.409943 0.000000
vn 0.912111 -0.409943 0.000000
vn 0.912111 -0.409943 0.000000
vn 0.912111 -0.409943 0.000000
vn 0.000000 -0.985239 0.171186
vn 0.000000 -0.985239 0.171186
vn 0.000000 -0.985239 0.171186
vn 0.000000 -0.985239 0.171186
vn 0.000000 -0.294156 0.955757
vn 0.000000 -0.294156 0.955757
vn 0.000000 -0.294156 0.955757
vn 0.000000 -0.294156 0.955757
vn -1.000000 -0.000002 0.000000
vn -1.000000 -0.000002 0.000000
vn -1.000000 -0.000002 0.000000
vn 1.000000 -0.000002 0.000000
vn 1.000000 -0.000002 0.000000
vn 1.000000 -0.000002 0.000000
vn -1.000000 0.000000 0.000000
vn -1.000000 0.000000 0.000000
vn -1.000000 0.000000 0.000000
vn 0.000000 -0.510140 0.860091
vn 0.000000 -0.510140 0.860091
vn 0.000000 -0.510140 0.860091
vn 0.000000 -0.510140 0.860091
vn 1.000000 0.000000 0.000000
vn 1.000000 0.000000 0.000000
vn 1.000000 0.000000 0.000000
vn -1.000000 0.000002 0.000000
vn -1.000000 0.000002 0.000000
vn -1.000000 0.000002 0.000000
vn 0.000000 -0.934987 0.354682
vn 0.000000 -0.934987 0.354682
vn 0.000000 -0.934987 0.354682
vn 0.000000 -0.934987 0.354682
vn 1.000000 0.000000 0.000000
vn 1.000000 0.000000 0.000000
vn 1.000000 0.000000 0.000000
vn 1.000000 0.000000 0.000000
vn 1.000000 0.000000 0.000000
vn 1.000000 0.000000 0.000000
vn 1.000000 0.000000 0.000000
vn 0.000000 0.428410 0.903585
vn 0.000000 0.428410 0.903585
vn 0.000000 0.428410 0.903585
vn 0.000000 0.428410 0.903585
vn -1.000000 0.000000 0.000000
vn -1.000000 0.000000 0.000000
vn -1.000000 0.000000 0.000000
vn -1.000000 0.000000 0.000000
vn 0.000000 0.000000 -1.000000
vn 0.000000 0.000000 -1.000000
vn 0.000000 0.000000 -1.000000
vn 0.000000 0.000000 -1.000000
vn 1.000000 -0.000002 0.000000
vn 1.000000 -0.000002 0.000000
vn 1.000000 -0.000002 0.000000
vn 0.000000 -0.270650 0.962678
vn 0.000000 -0.270650 0.962678
vn 0.000000 -0.270650 0.962678
vn 0.000000 -0.270650 0.962678
vn -1.000000 -0.000002 0.000000
vn -1.000000 -0.000002 0.000000
vn -1.000000 -0.000002 0.000000
vn 1.000000 0.000000 0.000000
vn 1.000000 0.000000 0.000000
vn 1.000000 0.000000 0.000000
vn 0.000000 -0.794674 0.607037
vn 0.000000 -0.794674 0.607037
vn 0.000000 -0.794674 0.607037
vn 0.000000 -0.794674 0.607037
vn -1.000000 0.000006 0.000000
vn -1.000000 0.000006 0.000000
vn -1.000000 0.000006 0.000000
vn -1.000000 0.000000 0.000000
vn -1.000000 0.000000 0.000000
vn -1.000000 0.000000 0.000000
vn -1.000000 0.000000 0.000000
vn -1.000000 0.000000 0.000000
vn -1.000000 0.000000 0.000000
vn -1.000000 0.000000 0.000000
vn -1.000000 0.000000 0.000000
vn -1.000000 0.000000 0.000000
vn -1.000000 0.000000 0.000000
vn -1.000000 0.000000 0.000000
vn -1.000000 0.000000 0.000000
vn -1.000000 0.000000 0.000000
vn -1.000000 0.000000 0.000000
vn -1.000000 0.000000 0.000000
vn -1.000000 0.000000 0.000000
vn -1.000000 0.000000 0.000000
vn -1.000000 0.000000 0.000000
vn 0.000000 -0.000001 -1.000000
vn 0.000000 -0.000001 -1.000000
vn 0.000000 -0.000001 -1.000000
vn 0.000000 -0.000001 -1.000000
vn -0.001576 0.765816 0.643058
vn -0.001576 0.765816 0.643058
vn -0.001576 0.765816 0.643058
vn -0.001576 0.765816 0.643058
vn 0.000000 0.000000 1.000000
vn 0.000000 0.000000 1.000000
vn 0.000000 0.000000 1.000000
vn 0.000000 0.000000 1.000000
vn 0.000000 1.000000 0.000000
vn 0.000000 1.000000 0.000000
vn 0.000000 1.000000 0.000000
vn 0.000000 1.000000 0.000000
vn -0.000438 -0.981082 0.193590
vn -0.000438 -0.981082 0.193590
vn -0.000438 -0.981082 0.193590
vn -0.000438 -0.981082 0.193590
vn -0.004896 0.799007 -0.601302
vn -0.004896 0.799007 -0.601302
vn -0.004896 0.799007 -0.601302
vn -0.004896 0.799007 -0.601302
vn -0.007405 -0.396142 0.918159
vn -0.007405 -0.396142 0.918159
vn -0.007405 -0.396142 0.918159
vn -0.007405 -0.396142 0.918159
vn -0.006899 -0.835772 0.549034
vn -0.006899 -0.835772 0.549034
vn -0.006899 -0.835772 0.549034
vn -0.006899 -0.835772 0.549034
vn 0.000000 1.000000 0.000000
vn 0.000000 1.000000 0.000000
vn 0.000000 1.000000 0.000000
vn 0.000000 1.000000 0.000000
vn 0.000000 0.000000 1.000000
vn 0.000000 0.000000 1.000000
vn 0.000000 0.000000 1.000000
vn 0.000000 0.000000 1.000000
vn -1.000000 0.000000 0.000000
vn -1.000000 0.000000 0.000000
vn -1.000000 0.000000 0.000000
vn -1.000000 0.000000 0.000000
vn -1.000000 0.000000 0.000000
vn -1.000000 0.000000 0.000000
vn -1.000000 0.000000 0.000000
vn -1.000000 0.000000 0.000000
vn 0.000000 -1.000000 -0.000000
vn 0.000000 -1.000000 -0.000000
vn 0.000000 -1.000000 -0.000000
vn 0.000000 -1.000000 -0.000000
vn 0.000000 1.000000 0.000000
vn 0.000000 1.000000 0.000000
vn 0.000000 1.000000 0.000000
vn 0.000000 1.000000 0.000000
vn 0.707104 -0.000007 0.707109
vn 0.707104 -0.000007 0.707109
vn 0.707104 -0.000007 0.707109
vn 0.707108 0.000000 0.707105
vn 0.707108 0.000000 0.707105
vn 0.707108 0.000000 0.707105
vn 0.707107 0.000019 0.707107
vn 0.707107 0.000019 0.707107
vn 0.707107 0.000019 0.707107
vn 0.707109 0.000005 0.707105
vn 0.707109 0.000005 0.707105
vn 0.707109 0.000005 0.707105
vn 0.707109 0.000005 0.707105
vn 0.707109 -0.000007 0.707104
vn 0.707109 -0.000007 0.707104
vn 0.707109 -0.000007 0.707104
vn 0.707105 0.000008 0.707109
vn 0.707105 0.000008 0.707109
vn 0.707105 0.000008 0.707109
vn 0.707105 0.000008 0.707109
vn 0.707096 0.000002 0.707118
vn 0.707096 0.000002 0.707118
vn 0.707096 0.000002 0.707118
vn 0.707096 0.000002 0.707118
vn 0.000000 -0.640190 -0.768217
vn 0.000000 -0.640190 -0.768217
vn 0.000000 -0.640190 -0.768217
vn 0.000000 -0.640190 -0.768217
vn 0.000000 -0.878565 -0.477623
vn 0.000000 -0.878565 -0.477623
vn 0.000000 -0.878565 -0.477623
vn 0.000000 0.878565 0.477623
vn 0.000000 0.878565 0.477623
vn 0.000000 0.878565 0.477623
vn 0.000000 -0.640190 -0.768216
vn 0.000000 -0.640190 -0.768216
vn 0.000000 -0.640190 -0.768216
vn 0.000000 -0.640190 -0.768216
vn 0.000000 -0.878565 -0.477624
vn 0.000000 -0.878565 -0.477624
vn 0.000000 -0.878565 -0.477624
vn 0.000000 -0.878565 -0.477624
vn 0.000078 -0.878527 -0.477693
vn 0.000078 -0.878527 -0.477693
vn 0.000078 -0.878527 -0.477693
vn -0.000000 0.878565 0.477623
vn -0.000000 0.878565 0.477623
vn -0.000000 0.878565 0.477623
vn -0.000000 0.878565 0.477623
vn -0.000000 0.878565 0.477624
vn -0.000000 0.878565 0.477624
vn -0.000000 0.878565 0.477624
vn 0.000000 -1.000000 0.000000
vn 0.000000 -1.000000 0.000000
vn 0.000000 -1.000000 0.000000
vn 0.000000 -1.000000 0.000000
vn -1.000000 0.000000 0.000000
vn -1.000000 0.000000 0.000000
vn -1.000000 0.000000 0.000000
vn -1.000000 0.000000 0.000000
vn 0.707108 -0.000002 0.707106
vn 0.707108 -0.000002 0.707106
vn 0.707108 -0.000002 0.707106
vn 0.707108 -0.000002 0.707106
vn 0.707108 0.000002 0.707105
vn 0.707108 0.000002 0.707105
vn 0.707108 0.000002 0.707105
vn 0.707108 0.000002 0.707105
vn 0.000000 -0.000001 -1.000000
vn 0.000000 -0.000001 -1.000000
vn 0.000000 -0.000001 -1.000000
vn 0.000000 -0.000001 -1.000000
vn 0.001793 0.764011 0.645201
vn 0.001793 0.764011 0.645201
vn 0.001793 0.764011 0.645201
vn 0.001793 0.764011 0.645201
vn 0.000000 0.000000 1.000000
vn 0.000000 0.000000 1.000000
vn 0.000000 0.000000 1.000000
vn 0.000000 0.000000 1.000000
vn 0.000000 1.000000 0.000000
vn 0.000000 1.000000 0.000000
vn 0.000000 1.000000 0.000000
vn 0.000000 1.000000 0.000000
vn 0.000274 -0.981060 0.193706
vn 0.000274 -0.981060 0.193706
vn 0.000274 -0.981060 0.193706
vn 0.000274 -0.981060 0.193706
vn 0.003376 0.799982 -0.600015
vn 0.003376 0.799982 -0.600015
vn 0.003376 0.799982 -0.600015
vn 0.003376 0.799982 -0.600015
vn 0.004155 -0.395468 0.918470
vn 0.004155 -0.395468 0.918470
vn 0.004155 -0.395468 0.918470
vn 0.004155 -0.395468 0.918470
vn 0.003704 -0.834880 0.550420
vn 0.003704 -0.834880 0.550420
vn 0.003704 -0.834880 0.550420
vn 0.003704 -0.834880 0.550420
vn 0.000000 1.000000 0.000000
vn 0.000000 1.000000 0.000000
vn 0.000000 1.000000 0.000000
vn 0.000000 1.000000 0.000000
vn -0.000000 0.000000 1.000000
vn -0.000000 0.000000 1.000000
vn -0.000000 0.000000 1.000000
vn -0.000000 0.000000 1.000000
vn 0.000000 -1.000000 -0.000000
vn 0.000000 -1.000000 -0.000000
vn 0.000000 -1.000000 -0.000000
vn 0.000000 -1.000000 -0.000000
vn 0.000000 1.000000 0.000000
vn 0.000000 1.000000 0.000000
vn 0.000000 1.000000 0.000000
vn 0.000000 1.000000 0.000000
s off
f 1/1/1 3/4/2 4/3/3 2/2/4
f 3/4/5 5/6/6 6/5/7 4/3/8
f 5/6/9 7/8/10 8/7/11 6/5/12
f 2/2/13 4/3/14 6/5/15 8/7/16
f 7/8/17 5/6/18 3/4/19 1/1/20
f 15/9/21 18/12/22 17/11/23 16/10/24
f 11/13/25 13/16/26 14/15/27 12/14/28
f 10/17/29 12/14/30 14/15/31
f 13/16/32 11/13/33 9/18/34
f 10/17/35 22/20/36 19/19/37
f 19/19/38 22/20/39 21/22/40 20/21/41
f 20/21/42 21/22/43 9/18/44
f 10/17/45 19/19/46 12/14/47
f 12/14/48 19/19/49 20/21/50 11/13/51
f 11/13/52 20/21/53 9/18/54
f 21/22/55 23/23/56 15/9/57 9/18/58
f 22/20/59 24/24/60 23/23/61 21/22/62
f 10/17/63 16/10/64 24/24/65 22/20/66
f 9/18/67 15/9/68 16/10/69 10/17/70
f 23/23/71 25/25/72 15/9/73
f 24/24/74 26/26/75 25/25/76 23/23/77
f 16/10/78 26/26/79 24/24/80
f 25/25/81 18/12/82 15/9/83
f 26/26/84 17/11/85 18/12/86 25/25/87
f 16/10/88 17/11/89 26/26/90
f 27/27/91 29/30/92 30/29/93 28/28/94
f 29/30/95 31/32/96 32/31/97 30/29/98
f 31/32/99 33/34/100 34/33/101 32/31/102
f 28/28/103 30/29/104 32/31/105 34/33/106
f 33/34/107 31/32/108 29/30/109 27/27/110
f 41/35/111 44/38/112 43/37/113 42/36/114
f 37/39/115 39/42/116 40/41/117 38/40/118
f 36/43/119 38/40/120 40/41/121
f 39/42/122 37/39/123 35/44/124
f 36/43/125 48/46/126 45/45/127
f 45/45/128 48/46/129 47/48/130 46/47/131
f 46/47/132 47/48/133 35/44/134
f 36/43/135 45/45/136 38/40/137
f 38/40/138 45/45/139 46/47/140 37/39/141
f 37/39/142 46/47/143 35/44/144
f 47/48/145 49/49/146 41/35/147 35/44/148
f 48/46/149 50/50/150 49/49/151 47/48/152
f 36/43/153 42/36/154 50/50/155 48/46/156
f 35/44/157 41/35/158 42/36/159 36/43/160
f 49/49/161 51/51/162 41/35/163
f 50/50/164 52/52/165 51/51/166 49/49/167
f 42/36/168 52/52/169 50/50/170
f 51/51/171 44/38/172 41/35/173
f 52/52/174 43/37/175 44/38/176 51/51/177
f 42/36/178 43/37/179 52/52/180
f 55/55/181 57/57/182 56/56/183
f 58/58/184 57/57/185 55/55/186
f 59/59/187 61/61/188 60/60/189
f 61/61/190 62/62/191 60/60/192
f 62/62/193 63/63/194 60/60/195
f 63/63/196 64/64/197 60/60/198
f 54/54/199 53/53/200 89/101/201 100/112/202
f 65/65/203 66/66/204 91/103/205 90/102/206
f 67/67/207 68/68/208 93/105/209 92/104/210
f 69/69/211 65/65/212 90/102/213 94/106/214
f 68/68/215 70/70/216 95/107/217 93/105/218
f 71/71/219 69/69/220 94/106/221 96/108/222
f 70/70/223 73/73/224 97/109/225 95/107/226
f 73/73/227 74/74/228 98/110/229 97/109/230
f 75/75/231 71/71/232 96/108/233 99/111/234
f 74/74/235 75/75/236 99/111/237 98/110/238
f 60/60/239 55/55/240 56/56/241 59/59/242
f 64/64/243 76/76/244 72/72/245 60/60/246
f 67/67/247 92/104/248 89/101/249 53/53/250
f 66/66/251 54/54/252 100/112/253 91/103/254
f 65/65/255 53/53/256 66/66/257
f 53/53/258 54/54/259 66/66/260
f 65/65/261 69/69/262 68/68/263
f 65/65/264 68/68/265 67/67/266 53/53/267
f 69/69/268 71/71/269 73/73/270
f 69/69/271 73/73/272 70/70/273 68/68/274
f 71/71/275 75/75/276 74/74/277 73/73/278
f 78/77/279 79/80/280 80/79/281 77/78/282
f 79/81/283 82/83/284 80/82/285
f 77/84/286 81/86/287 78/85/288
f 83/87/289 84/88/290 77/78/291 80/79/292
f 80/82/293 86/91/294 85/90/295 83/89/296
f 80/82/297 82/83/298 86/91/299
f 87/94/300 81/86/301 77/84/302 84/92/303
f 81/86/304 87/94/305 88/93/306
f 86/91/307 88/93/308 87/94/309 85/90/310
f 85/90/311 87/94/312 84/92/313 83/89/314
f 81/95/315 82/98/316 79/97/317 78/96/318
f 86/99/319 82/98/320 81/95/321 88/100/322
f 100/112/323 89/101/324 56/56/325 57/57/326
f 90/102/327 91/103/328 58/58/329 55/55/330
f 92/104/331 93/105/332 61/61/333 59/59/334
f 94/106/335 90/102/336 55/55/337 60/60/338
f 93/105/339 95/107/340 62/62/341 61/61/342
f 96/108/343 94/106/344 60/60/345 72/72/346
f 95/107/347 97/109/348 63/63/349 62/62/350
f 97/109/351 98/110/352 64/64/353 63/63/354
f 99/111/355 96/108/356 72/72/357 76/76/358
f 98/110/359 99/111/360 76/76/361 64/64/362
f 89/101/363 92/104/364 59/59/365 56/56/366
f 91/103/367 100/112/368 57/57/369 58/58/370
