# This file uses centimeters as units for non-parametric coordinates.

v 0.000000 -4.625830 249.999985
v 249.999146 -4.625830 249.999985
v 249.999146 -4.625824 0.000000
v 0.000000 -4.625824 0.000000
v 0.000000 -9.251659 249.999969
v 249.999146 -9.251659 249.999969
v 249.999146 -9.251648 0.000015
v 0.000000 -9.251648 0.000015
v 0.000000 0.809076 249.999985
v 249.999146 0.809076 249.999985
v 249.999146 0.809082 0.000000
v 0.000000 0.809082 0.000000
v 0.000000 -25.470299 155.812759
v 0.000000 -9.251659 153.862061
v 249.999146 -9.251659 153.862045
v 249.999146 -25.470299 155.811600
v 0.000000 -9.251659 170.786438
v 249.999146 -9.251659 170.786835
v 0.000000 -25.470299 168.806519
v 249.999146 -25.470299 168.805252
v 83.676956 -25.470299 156.777390
v 87.093216 -9.251659 153.861984
v 96.521042 -9.251659 170.786819
v 92.674919 -25.470299 167.839478
v 177.067734 -25.470299 155.811523
v 175.237671 -9.251659 153.862076
v 169.858337 -9.251659 170.787125
v 172.937851 -25.470299 168.805359
v 0.000000 -25.470299 80.753311
v 0.000000 -9.251659 78.473831
v 249.999146 -9.251659 78.473907
v 249.999146 -25.470299 80.753464
v 0.000000 -9.251659 96.799217
v 249.999146 -9.251659 96.798798
v 0.000000 -25.470299 94.556511
v 249.999146 -25.470299 94.556625
v 123.498383 -25.470299 82.154358
v 125.223045 -9.251659 78.473785
v 131.253632 -9.251659 96.799042
v 131.001816 -25.470299 93.155228
v 0.000000 -25.470299 0.000000
v 0.000000 -25.470299 16.218636
v 0.000000 -9.251659 0.000000
v 0.000000 -9.251659 16.218636
v 249.999146 -25.470299 16.218636
v 249.999146 -25.470299 0.000000
v 249.999146 -9.251659 16.218636
v 249.999146 -9.251659 0.000000
v 249.999146 -25.470299 249.999969
v 249.999146 -9.251659 249.999969
v 249.999146 -9.251659 233.781342
v 249.999146 -25.470299 233.781342
v 0.000000 -25.470299 249.999969
v 0.000000 -9.251659 249.999969
v 0.000000 -9.251659 233.781342
v 0.000000 -25.470299 233.781342
v 46.753273 -9.251659 16.218636
v 48.033283 -25.470299 13.694143
v 43.795422 -25.470299 0.000000
v 42.515415 -9.251659 0.000000
v 107.839348 -9.251659 249.999969
v 103.601471 -9.251659 233.781342
v 122.106941 -25.470299 237.165665
v 109.119354 -25.470299 249.999969
v 160.528473 -9.251659 249.999969
v 162.399231 -9.251659 233.781342
v 160.956482 -25.470299 233.781342
v 159.085678 -25.470299 249.999969
v 187.494705 -9.251659 17.526051
v 186.051941 -25.470299 17.526051
v 187.922745 -25.470299 0.000000
v 189.365509 -9.251659 0.000000
vt 0.001423 0.972453
vt -0.038908 0.001511
vt 0.001423 0.001434
vt 0.001423 0.998623
vt 0.998542 0.998623
vt 1.038921 0.998605
vt 0.998542 0.028023
vt 0.998542 0.001434
vt 0.998542 0.998623
vt 0.998542 0.972453
vt 0.001423 0.998623
vt -0.038908 0.998605
vt 0.001423 0.998623
vt 0.001423 0.001434
vt 0.001423 0.028023
vt 0.998542 0.001434
vt 0.001423 0.001434
vt 1.038921 0.001511
vt 0.998542 0.001434
vt 0.998542 0.998623
vt -0.038908 0.998605
vt -0.038908 0.001511
vt 0.001423 0.001434
vt 0.001423 0.998623
vt 0.001423 0.972453
vt 0.001423 0.998623
vt 0.998542 0.998623
vt 0.998542 0.972453
vt 0.001423 0.001434
vt 0.001423 0.028023
vt 0.998542 0.028023
vt 0.998542 0.001434
vt 0.998542 0.998623
vt 0.001423 0.998623
vt 0.001423 0.001434
vt 0.998542 0.001434
vt 1.038921 0.998605
vt 0.998542 0.998623
vt 0.998542 0.001434
vt 1.038921 0.001511
vt 0.035664 0.278301
vt 0.035619 0.277530
vt 0.035690 0.277466
vt 0.035731 0.278228
vt 0.036319 0.277420
vt 0.036343 0.278171
vt 0.036295 0.278198
vt 0.036261 0.277446
vt 0.035769 0.277394
vt 0.035813 0.278138
vt 0.036248 0.278224
vt 0.036212 0.277467
vt 0.035829 0.277339
vt 0.035869 0.278076
vt 0.036209 0.278246
vt 0.036164 0.277489
vt 0.036092 0.278142
vt 0.036049 0.277399
vt 0.035971 0.277433
vt 0.036006 0.278183
vt 0.036415 0.277544
vt 0.036450 0.278317
vt 0.036538 0.278199
vt 0.036506 0.277442
vt 0.035893 0.277468
vt 0.035919 0.278225
vt 0.036619 0.278090
vt 0.036588 0.277351
vt 0.035619 0.277530
vt 0.035664 0.278301
vt 0.035815 0.278304
vt 0.035768 0.277533
vt 0.036343 0.278171
vt 0.036299 0.278166
vt 0.036319 0.277420
vt 0.036273 0.277416
vt 0.035893 0.277468
vt 0.036588 0.277351
vt 0.036322 0.277347
vt 0.035990 0.277475
vt 0.036619 0.278090
vt 0.036352 0.278085
vt 0.035919 0.278225
vt 0.036024 0.278233
vt 0.036092 0.278142
vt 0.036049 0.277399
vt 0.036415 0.277544
vt 0.036450 0.278317
vt 0.035869 0.278076
vt 0.036209 0.278246
vt 0.036164 0.277489
vt 0.035829 0.277339
vt 0.036249 0.278313
vt 0.036216 0.277541
vt 0.036155 0.278149
vt 0.036115 0.277404
vt 0.036047 0.277480
vt 0.036143 0.277344
vt 0.036184 0.278082
vt 0.036082 0.278237
vn -1.000000 0.000000 0.000000
vn -1.000000 0.000000 0.000000
vn -1.000000 0.000000 0.000000
vn -1.000000 0.000000 0.000000
vn 0.000000 -0.000003 -1.000000
vn 0.000000 -0.000003 -1.000000
vn 0.000000 -0.000003 -1.000000
vn 0.000000 -0.000003 -1.000000
vn 0.000000 -0.000003 1.000000
vn 0.000000 -0.000003 1.000000
vn 0.000000 -0.000003 1.000000
vn 0.000000 -0.000003 1.000000
vn 0.000000 -1.000000 -0.000000
vn 0.000000 -1.000000 -0.000000
vn 0.000000 -1.000000 -0.000000
vn 0.000000 -1.000000 -0.000000
vn 1.000000 -0.000000 0.000000
vn 1.000000 -0.000000 0.000000
vn 1.000000 -0.000000 0.000000
vn 1.000000 -0.000000 0.000000
vn -1.000000 0.000000 0.000000
vn -1.000000 0.000000 0.000000
vn -1.000000 0.000000 0.000000
vn -1.000000 0.000000 0.000000
vn 0.000000 0.000000 -1.000000
vn 0.000000 0.000000 -1.000000
vn 0.000000 0.000000 -1.000000
vn 0.000000 0.000000 -1.000000
vn 0.000000 0.000000 1.000000
vn 0.000000 0.000000 1.000000
vn 0.000000 0.000000 1.000000
vn 0.000000 0.000000 1.000000
vn 0.000000 1.000000 0.000000
vn 0.000000 1.000000 0.000000
vn 0.000000 1.000000 0.000000
vn 0.000000 1.000000 0.000000
vn 1.000000 0.000000 0.000000
vn 1.000000 0.000000 0.000000
vn 1.000000 0.000000 0.000000
vn 1.000000 0.000000 0.000000
vn 0.005585 -0.148929 -0.988832
vn 0.005585 -0.148929 -0.988832
vn 0.005585 -0.148929 -0.988832
vn 0.005585 -0.148929 -0.988832
vn 0.005051 -0.150762 0.988557
vn 0.005051 -0.150762 0.988557
vn 0.005051 -0.150762 0.988557
vn 0.005051 -0.150762 0.988557
vn 0.000000 -1.000000 0.000000
vn 0.000000 -1.000000 0.000000
vn 0.000000 -1.000000 0.000000
vn 0.000000 -1.000000 0.000000
vn -0.005261 -0.148065 -0.988964
vn -0.005261 -0.148065 -0.988964
vn -0.005261 -0.148065 -0.988964
vn -0.005261 -0.148065 -0.988964
vn -0.006219 -0.150087 0.988653
vn -0.006219 -0.150087 0.988653
vn -0.006219 -0.150087 0.988653
vn -0.006219 -0.150087 0.988653
vn 0.000000 -1.000000 -0.000000
vn 0.000000 -1.000000 -0.000000
vn 0.000000 -1.000000 -0.000000
vn 0.000000 -1.000000 -0.000000
vn 0.000000 -0.119342 -0.992853
vn 0.000000 -0.119342 -0.992853
vn 0.000000 -0.119342 -0.992853
vn 0.000000 -0.119342 -0.992853
vn 0.000002 -0.121283 0.992618
vn 0.000002 -0.121283 0.992618
vn 0.000002 -0.121283 0.992618
vn 0.000002 -0.121283 0.992618
vn 0.000000 -1.000000 0.000000
vn 0.000000 -1.000000 0.000000
vn 0.000000 -1.000000 0.000000
vn 0.000000 -1.000000 0.000000
vn 0.005540 -0.180998 -0.983468
vn 0.005540 -0.180998 -0.983468
vn 0.005540 -0.180998 -0.983468
vn 0.005540 -0.180998 -0.983468
vn 0.005258 -0.178595 0.983909
vn 0.005258 -0.178595 0.983909
vn 0.005258 -0.178595 0.983909
vn 0.005258 -0.178595 0.983909
vn 0.000000 -1.000000 0.000000
vn 0.000000 -1.000000 0.000000
vn 0.000000 -1.000000 0.000000
vn 0.000000 -1.000000 0.000000
vn -0.005483 -0.180433 -0.983572
vn -0.005483 -0.180433 -0.983572
vn -0.005483 -0.180433 -0.983572
vn -0.005483 -0.180433 -0.983572
vn -0.005799 -0.178495 0.983924
vn -0.005799 -0.178495 0.983924
vn -0.005799 -0.178495 0.983924
vn -0.005799 -0.178495 0.983924
vn 0.000000 -1.000000 0.000000
vn 0.000000 -1.000000 0.000000
vn 0.000000 -1.000000 0.000000
vn 0.000000 -1.000000 0.000000
vn 0.026546 -0.076524 0.996714
vn 0.026546 -0.076524 0.996714
vn 0.026546 -0.076524 0.996714
vn 0.026546 -0.076524 0.996714
vn 0.000000 -1.000000 -0.000000
vn 0.000000 -1.000000 -0.000000
vn 0.000000 -1.000000 -0.000000
vn 0.000000 -1.000000 -0.000000
vn 0.000000 0.000000 -1.000000
vn 0.000000 0.000000 -1.000000
vn 0.000000 0.000000 -1.000000
vn 0.000000 0.000000 -1.000000
vn 0.000000 1.000000 0.000000
vn 0.000000 1.000000 0.000000
vn 0.000000 1.000000 0.000000
vn 0.000000 1.000000 0.000000
vn 0.000000 1.000000 0.000000
vn 0.000000 1.000000 0.000000
vn 0.000000 1.000000 0.000000
vn 0.000000 1.000000 0.000000
vn 0.000000 0.000000 -1.000000
vn 0.000000 0.000000 -1.000000
vn 0.000000 0.000000 -1.000000
vn 0.000000 0.000000 -1.000000
vn 0.000000 -1.000000 0.000000
vn 0.000000 -1.000000 0.000000
vn 0.000000 -1.000000 0.000000
vn 0.000000 -1.000000 0.000000
vn 0.000000 0.000000 1.000000
vn 0.000000 0.000000 1.000000
vn 0.000000 0.000000 1.000000
vn 0.000000 0.000000 1.000000
vn 1.000000 0.000000 0.000000
vn 1.000000 0.000000 0.000000
vn 1.000000 0.000000 0.000000
vn 1.000000 0.000000 0.000000
vn 1.000000 0.000000 0.000000
vn 1.000000 0.000000 0.000000
vn 1.000000 0.000000 0.000000
vn 1.000000 0.000000 0.000000
vn -1.000000 0.000000 0.000000
vn -1.000000 0.000000 0.000000
vn -1.000000 0.000000 0.000000
vn -1.000000 0.000000 0.000000
vn -1.000000 0.000000 0.000000
vn -1.000000 0.000000 0.000000
vn -1.000000 0.000000 0.000000
vn -1.000000 0.000000 0.000000
vn -0.018378 -0.077487 0.996824
vn -0.018378 -0.077487 0.996824
vn -0.018378 -0.077487 0.996824
vn -0.018378 -0.077487 0.996824
vn 0.000000 -1.000000 -0.000000
vn 0.000000 -1.000000 -0.000000
vn 0.000000 -1.000000 -0.000000
vn 0.000000 -1.000000 -0.000000
vn 0.000000 0.000000 -1.000000
vn 0.000000 0.000000 -1.000000
vn 0.000000 0.000000 -1.000000
vn 0.000000 0.000000 -1.000000
vn 0.000000 1.000000 -0.000000
vn 0.000000 1.000000 -0.000000
vn 0.000000 1.000000 -0.000000
vn 0.000000 1.000000 -0.000000
vn 0.000000 1.000000 0.000000
vn 0.000000 1.000000 0.000000
vn 0.000000 1.000000 0.000000
vn 0.000000 1.000000 0.000000
vn 0.014924 -0.095333 -0.995334
vn 0.014924 -0.095333 -0.995334
vn 0.014924 -0.095333 -0.995334
vn 0.014924 -0.095333 -0.995334
vn 0.000000 -1.000000 0.000000
vn 0.000000 -1.000000 0.000000
vn 0.000000 -1.000000 0.000000
vn 0.000000 -1.000000 0.000000
vn 0.000000 0.000000 1.000000
vn 0.000000 0.000000 1.000000
vn 0.000000 0.000000 1.000000
vn 0.000000 0.000000 1.000000
vn 0.000000 1.000000 0.000000
vn 0.000000 1.000000 0.000000
vn 0.000000 1.000000 0.000000
vn 0.000000 1.000000 0.000000
vn -0.034381 -0.121583 -0.991986
vn -0.034381 -0.121583 -0.991986
vn -0.034381 -0.121583 -0.991986
vn -0.034381 -0.121583 -0.991986
vn 0.000000 -1.000000 0.000000
vn 0.000000 -1.000000 0.000000
vn 0.000000 -1.000000 0.000000
vn 0.000000 -1.000000 0.000000
vn 0.000000 0.000000 1.000000
vn 0.000000 0.000000 1.000000
vn 0.000000 0.000000 1.000000
vn 0.000000 0.000000 1.000000
vn 0.020674 -0.000920 0.999786
vn 0.020674 -0.000920 0.999786
vn 0.020674 -0.000920 0.999786
vn 0.020674 -0.000920 0.999786
vn 0.000000 -1.000000 0.000000
vn 0.000000 -1.000000 0.000000
vn 0.000000 -1.000000 0.000000
vn 0.000000 -1.000000 0.000000
vn 0.000000 0.000000 -1.000000
vn 0.000000 0.000000 -1.000000
vn 0.000000 0.000000 -1.000000
vn 0.000000 0.000000 -1.000000
vn 0.000000 1.000000 0.000000
vn 0.000000 1.000000 0.000000
vn 0.000000 1.000000 0.000000
vn 0.000000 1.000000 0.000000
vn -1.000000 0.000000 0.000000
vn -1.000000 0.000000 0.000000
vn -1.000000 0.000000 0.000000
vn -1.000000 0.000000 0.000000
vn -1.000000 0.000000 0.000000
vn -1.000000 0.000000 0.000000
vn -1.000000 0.000000 0.000000
vn -1.000000 0.000000 0.000000
vn 1.000000 -0.000001 0.000000
vn 1.000000 -0.000001 0.000000
vn 1.000000 -0.000001 0.000000
vn 1.000000 -0.000001 0.000000
vn 1.000000 0.000000 0.000000
vn 1.000000 0.000000 0.000000
vn 1.000000 0.000000 0.000000
vn 1.000000 0.000000 0.000000
s off
f 4/12/1 8/13/2 5/14/3 1/2/4
f 4/1/5 3/10/6 7/9/7 8/11/8
f 5/3/9 6/16/10 2/7/11 1/15/12
f 7/5/13 6/19/14 5/17/15 8/4/16
f 3/6/17 2/18/18 6/8/19 7/20/20
f 4/21/21 1/22/22 9/23/23 12/24/24
f 4/25/25 12/26/26 11/27/27 3/28/28
f 9/29/29 1/30/30 2/31/31 10/32/32
f 11/33/33 12/34/34 9/35/35 10/36/36
f 3/37/37 11/38/38 10/39/39 2/40/40
f 13/41/41 14/42/42 22/43/43 21/44/44
f 17/45/45 19/46/46 24/47/47 23/48/48
f 19/46/49 13/41/50 21/44/51 24/47/52
f 21/44/53 22/43/54 26/49/55 25/50/56
f 23/48/57 24/47/58 28/51/59 27/52/60
f 24/47/61 21/44/62 25/50/63 28/51/64
f 25/50/65 26/49/66 15/53/67 16/54/68
f 27/52/69 28/51/70 20/55/71 18/56/72
f 28/51/73 25/50/74 16/54/75 20/55/76
f 29/57/77 30/58/78 38/59/79 37/60/80
f 33/61/81 35/62/82 40/63/83 39/64/84
f 35/62/85 29/57/86 37/60/87 40/63/88
f 37/60/89 38/59/90 31/65/91 32/66/92
f 39/64/93 40/63/94 36/67/95 34/68/96
f 40/63/97 37/60/98 32/66/99 36/67/100
f 44/69/101 42/70/102 58/71/103 57/72/104
f 42/70/105 41/73/106 59/74/107 58/71/108
f 41/73/109 43/75/110 60/76/111 59/74/112
f 43/75/113 44/69/114 57/72/115 60/76/116
f 50/77/117 51/78/118 66/79/119 65/80/120
f 51/78/121 52/81/122 67/82/123 66/79/124
f 52/81/125 49/83/126 68/84/127 67/82/128
f 49/83/129 50/77/130 65/80/131 68/84/132
f 46/85/133 48/86/134 47/87/135 45/88/136
f 49/83/137 52/81/138 51/78/139 50/77/140
f 42/70/141 44/69/142 43/75/143 41/73/144
f 56/89/145 53/90/146 54/91/147 55/92/148
f 57/72/149 58/71/150 70/93/151 69/94/152
f 58/71/153 59/74/154 71/95/155 70/93/156
f 59/74/157 60/76/158 72/96/159 71/95/160
f 60/76/161 57/72/162 69/94/163 72/96/164
f 61/97/165 62/98/166 55/92/167 54/91/168
f 62/98/169 63/99/170 56/89/171 55/92/172
f 63/99/173 64/100/174 53/90/175 56/89/176
f 64/100/177 61/97/178 54/91/179 53/90/180
f 65/80/181 66/79/182 62/98/183 61/97/184
f 66/79/185 67/82/186 63/99/187 62/98/188
f 67/82/189 68/84/190 64/100/191 63/99/192
f 68/84/193 65/80/194 61/97/195 64/100/196
f 69/94/197 70/93/198 45/88/199 47/87/200
f 70/93/201 71/95/202 46/85/203 45/88/204
f 71/95/205 72/96/206 48/86/207 46/85/208
f 72/96/209 69/94/210 47/87/211 48/86/212
f 30/58/213 29/57/214 35/62/215 33/61/216
f 14/42/217 13/41/218 19/46/219 17/45/220
f 32/66/221 31/65/222 34/68/223 36/67/224
f 16/54/225 15/53/226 18/56/227 20/55/228
