# This file uses centimeters as units for non-parametric coordinates.

v 174.494385 -0.000183 11.250000
v 195.505615 -0.000183 11.250000
v 176.443726 -4.337677 11.250000
v 193.556274 -4.337677 11.250000
v 176.443726 -4.337677 40.125244
v 193.556274 -4.337677 40.125244
v 174.494385 -0.000183 41.460175
v 195.505615 -0.000183 41.460175
v 179.641479 -4.337677 11.250000
v 190.358521 -4.337677 11.250000
v 179.641479 -8.675171 35.661926
v 190.358521 -8.675171 35.661926
v 179.641479 -4.337677 36.996887
v 190.358521 -4.337677 36.996887
v 179.641479 -29.623199 11.250000
v 190.358521 -29.623199 11.250000
v 190.358521 -28.276154 19.002777
v 179.641479 -28.276154 19.002777
v 190.358521 -12.829620 24.710266
v 179.641479 -12.829620 24.710266
v 179.641479 -16.097046 22.772278
v 190.358521 -16.097046 22.772278
v 179.641479 -20.184570 24.710266
v 190.358521 -20.184570 24.710266
v 179.641479 -24.936920 23.374176
v 190.358521 -24.936920 23.374176
v 54.494385 -0.000183 11.250000
v 75.505615 -0.000183 11.250000
v 56.443726 -4.337677 11.250000
v 73.556274 -4.337677 11.250000
v 56.443726 -4.337677 40.125244
v 73.556274 -4.337677 40.125244
v 54.494385 -0.000183 41.460175
v 75.505615 -0.000183 41.460175
v 59.641479 -4.337677 11.250000
v 70.358521 -4.337677 11.250000
v 59.641479 -8.675171 35.661926
v 70.358521 -8.675171 35.661926
v 59.641479 -4.337677 36.996887
v 70.358521 -4.337677 36.996887
v 59.641479 -29.623199 11.250000
v 70.358521 -29.623199 11.250000
v 70.358521 -28.276154 19.002777
v 59.641479 -28.276154 19.002777
v 70.358521 -12.829620 24.710266
v 59.641479 -12.829620 24.710266
v 59.641479 -16.097046 22.772278
v 70.358521 -16.097046 22.772278
v 59.641479 -20.184570 24.710266
v 70.358521 -20.184570 24.710266
v 59.641479 -24.936920 23.374176
v 70.358521 -24.936920 23.374176
v 0.000000 -0.000183 43.963074
v 249.999146 -0.000183 43.963074
v 0.000000 25.194916 58.109314
v 249.999146 25.194916 58.109314
v 0.000000 25.194916 0.000000
v 249.999146 25.194916 0.000000
v 0.000000 -0.000183 0.000000
v 249.999146 -0.000183 0.000000
v 0.000000 18.608551 58.109314
v 249.999146 18.608551 58.109314
v 0.000000 16.919983 54.703918
v 249.999146 16.919983 54.703918
v 0.000000 13.616943 53.849121
v 249.999146 13.616943 53.849121
v 0.000000 11.699127 43.963074
v 249.999146 11.699127 43.963074
v 0.000000 25.194916 50.730133
v 249.999146 25.194916 50.730133
v 249.999146 18.608551 42.623779
v 0.000000 18.608551 42.623779
v 249.999146 18.608551 32.253906
v 249.999146 25.194916 24.147583
v 0.000000 25.194916 24.147583
v 0.000000 18.608551 32.253906
v 249.999146 34.996735 -17.914581
v 249.999146 25.194824 0.115540
v 0.000000 34.996735 -17.914551
v 0.000000 25.194824 0.115601
v 0.000000 25.194824 24.235077
v 0.000000 58.969849 -37.892456
v 249.999146 25.194824 24.235016
v 249.999146 58.969849 -37.892487
v 165.796997 -0.000183 42.854012
v 154.500977 25.194916 58.109314
v 212.997925 25.194916 0.000000
v 210.052979 -0.000183 0.000000
v 153.731201 18.608551 58.109314
v 156.961914 16.919983 54.703918
v 157.436401 13.616943 53.849121
v 167.164185 11.699127 43.963074
v 161.929443 25.194916 50.730133
v 188.689331 25.194916 24.147583
v 168.753860 18.608551 41.983482
v 180.324997 18.608551 32.894203
v 72.803101 -0.000183 43.963074
v 73.358673 25.194916 57.523296
v 78.237915 25.194916 0.000000
v 76.532104 -0.000183 0.000000
v 72.862915 18.608551 58.109314
v 73.037476 16.919983 54.703918
v 73.479706 12.646242 52.846722
v 73.595093 11.699127 43.963074
v 73.885223 25.194916 51.316151
v 76.189697 25.194916 24.147583
v 74.176514 18.608551 42.623779
v 81.003395 18.608551 31.310823
vt 0.195024 0.127850
vt 0.194238 0.127834
vt 0.194192 0.127063
vt 0.194989 0.127076
vt 0.194402 0.126872
vt 0.195161 0.126884
vt 0.194443 0.127608
vt 0.195192 0.127623
vt 0.194990 0.126991
vt 0.194199 0.126990
vt 0.194402 0.126872
vt 0.195161 0.126884
vt 0.195161 0.126884
vt 0.194402 0.126872
vt 0.194443 0.127608
vt 0.195192 0.127623
vt 0.194221 0.127652
vt 0.195008 0.127677
vt 0.194402 0.126872
vt 0.194402 0.126872
vt 0.195161 0.126884
vt 0.195161 0.126884
vt 0.195161 0.126884
vt 0.194402 0.126872
vt 0.195161 0.126884
vt 0.194402 0.126872
vt 0.195024 0.127850
vt 0.194238 0.127834
vt 0.194192 0.127063
vt 0.194989 0.127076
vt 0.194402 0.126872
vt 0.195161 0.126884
vt 0.194443 0.127608
vt 0.195192 0.127623
vt 0.194990 0.126991
vt 0.194199 0.126990
vt 0.194402 0.126872
vt 0.195161 0.126884
vt 0.195161 0.126884
vt 0.194402 0.126872
vt 0.194443 0.127608
vt 0.195192 0.127623
vt 0.194221 0.127652
vt 0.195008 0.127677
vt 0.194402 0.126872
vt 0.194402 0.126872
vt 0.195161 0.126884
vt 0.195161 0.126884
vt 0.195161 0.126884
vt 0.194402 0.126872
vt 0.195161 0.126884
vt 0.194402 0.126872
vt 0.194996 0.127237
vt 0.194201 0.127223
vt 0.194192 0.127063
vt 0.194989 0.127076
vt 0.195191 0.127634
vt 0.194437 0.127613
vt 0.194238 0.127834
vt 0.195021 0.127850
vt 0.194999 0.127293
vt 0.194205 0.127279
vt 0.195003 0.127401
vt 0.194211 0.127387
vt 0.195006 0.127464
vt 0.194215 0.127450
vt 0.194246 0.127189
vt 0.194287 0.127151
vt 0.195162 0.126871
vt 0.194402 0.126856
vt 0.195076 0.127148
vt 0.195031 0.127203
vt 0.194219 0.127039
vt 0.195011 0.127052
vt 0.194315 0.126951
vt 0.195090 0.126964
vt 0.998542 0.075119
vt 0.998542 0.001434
vt 0.001423 0.001434
vt 0.001423 0.075119
vt 0.001423 0.001434
vt 0.001423 0.232553
vt 0.998542 0.001434
vt 0.998542 0.232553
vt 0.036970 0.117737
vt 0.036970 0.197406
vt 0.972914 0.197406
vt 0.972914 0.117737
vt 0.194502 0.127840
vt 0.194496 0.127068
vt 0.194515 0.126858
vt 0.194558 0.127617
vt 0.194507 0.127229
vt 0.194500 0.127284
vt 0.194505 0.127392
vt 0.194477 0.127455
vt 0.194498 0.127043
vt 0.194505 0.126954
vt 0.194499 0.127194
vt 0.194509 0.127150
vt 0.194793 0.127845
vt 0.194755 0.127072
vt 0.194924 0.126866
vt 0.194960 0.127627
vt 0.194765 0.127233
vt 0.194767 0.127289
vt 0.194772 0.127397
vt 0.194773 0.127460
vt 0.194776 0.127048
vt 0.194853 0.126960
vt 0.194798 0.127199
vt 0.194839 0.127149
vn 0.000000 0.000000 -1.000000
vn 0.000000 0.000000 -1.000000
vn 0.000000 0.000000 -1.000000
vn 0.000000 0.000000 -1.000000
vn 0.000000 -1.000000 0.000000
vn 0.000000 -1.000000 0.000000
vn 0.000000 -1.000000 0.000000
vn 0.000000 -1.000000 0.000000
vn 0.000000 -0.294150 0.955759
vn 0.000000 -0.294150 0.955759
vn 0.000000 -0.294150 0.955759
vn 0.000000 -0.294150 0.955759
vn 0.912121 -0.409922 0.000000
vn 0.912121 -0.409922 0.000000
vn 0.912121 -0.409922 0.000000
vn 0.912121 -0.409922 0.000000
vn -0.912121 -0.409921 0.000000
vn -0.912121 -0.409921 0.000000
vn -0.912121 -0.409921 0.000000
vn -0.912121 -0.409921 0.000000
vn 0.000000 -0.985239 0.171185
vn 0.000000 -0.985239 0.171185
vn 0.000000 -0.985239 0.171185
vn 0.000000 -0.985239 0.171185
vn 0.000000 -0.294156 0.955758
vn 0.000000 -0.294156 0.955758
vn 0.000000 -0.294156 0.955758
vn 0.000000 -0.294156 0.955758
vn 1.000000 0.000000 0.000000
vn 1.000000 0.000000 0.000000
vn 1.000000 0.000000 0.000000
vn -1.000000 0.000002 0.000000
vn -1.000000 0.000002 0.000000
vn -1.000000 0.000002 0.000000
vn 1.000000 0.000000 0.000000
vn 1.000000 0.000000 0.000000
vn 1.000000 0.000000 0.000000
vn 0.000000 -0.510140 0.860091
vn 0.000000 -0.510140 0.860091
vn 0.000000 -0.510140 0.860091
vn 0.000000 -0.510140 0.860091
vn -1.000000 -0.000001 0.000000
vn -1.000000 -0.000001 0.000000
vn -1.000000 -0.000001 0.000000
vn 1.000000 0.000003 0.000000
vn 1.000000 0.000003 0.000000
vn 1.000000 0.000003 0.000000
vn 0.000000 -0.934987 0.354682
vn 0.000000 -0.934987 0.354682
vn 0.000000 -0.934987 0.354682
vn 0.000000 -0.934987 0.354682
vn -1.000000 -0.000002 0.000000
vn -1.000000 -0.000002 0.000000
vn -1.000000 -0.000002 0.000000
vn -1.000000 0.000000 0.000000
vn -1.000000 0.000000 0.000000
vn -1.000000 0.000000 0.000000
vn -1.000000 0.000000 0.000000
vn 0.000000 0.428409 0.903585
vn 0.000000 0.428409 0.903585
vn 0.000000 0.428409 0.903585
vn 0.000000 0.428409 0.903585
vn 1.000000 0.000000 0.000000
vn 1.000000 0.000000 0.000000
vn 1.000000 0.000000 0.000000
vn 1.000000 0.000000 0.000000
vn 0.000000 0.000000 -1.000000
vn 0.000000 0.000000 -1.000000
vn 0.000000 0.000000 -1.000000
vn 0.000000 0.000000 -1.000000
vn -1.000000 0.000005 0.000000
vn -1.000000 0.000005 0.000000
vn -1.000000 0.000005 0.000000
vn 0.000000 -0.270650 0.962678
vn 0.000000 -0.270650 0.962678
vn 0.000000 -0.270650 0.962678
vn 0.000000 -0.270650 0.962678
vn 1.000000 0.000000 0.000000
vn 1.000000 0.000000 0.000000
vn 1.000000 0.000000 0.000000
vn -1.000000 0.000000 0.000000
vn -1.000000 0.000000 0.000000
vn -1.000000 0.000000 0.000000
vn 0.000000 -0.794674 0.607037
vn 0.000000 -0.794674 0.607037
vn 0.000000 -0.794674 0.607037
vn 0.000000 -0.794674 0.607037
vn 1.000000 0.000000 0.000000
vn 1.000000 0.000000 0.000000
vn 1.000000 0.000000 0.000000
vn 0.000000 0.000000 -1.000000
vn 0.000000 0.000000 -1.000000
vn 0.000000 0.000000 -1.000000
vn 0.000000 0.000000 -1.000000
vn 0.000000 -1.000000 0.000000
vn 0.000000 -1.000000 0.000000
vn 0.000000 -1.000000 0.000000
vn 0.000000 -1.000000 0.000000
vn 0.000000 -0.294150 0.955759
vn 0.000000 -0.294150 0.955759
vn 0.000000 -0.294150 0.955759
vn 0.000000 -0.294150 0.955759
vn 0.912121 -0.409922 0.000000
vn 0.912121 -0.409922 0.000000
vn 0.912121 -0.409922 0.000000
vn 0.912121 -0.409922 0.000000
vn -0.912121 -0.409922 0.000000
vn -0.912121 -0.409922 0.000000
vn -0.912121 -0.409922 0.000000
vn -0.912121 -0.409922 0.000000
vn 0.000000 -0.985239 0.171185
vn 0.000000 -0.985239 0.171185
vn 0.000000 -0.985239 0.171185
vn 0.000000 -0.985239 0.171185
vn 0.000000 -0.294156 0.955758
vn 0.000000 -0.294156 0.955758
vn 0.000000 -0.294156 0.955758
vn 0.000000 -0.294156 0.955758
vn 1.000000 0.000000 0.000000
vn 1.000000 0.000000 0.000000
vn 1.000000 0.000000 0.000000
vn -1.000000 -0.000001 0.000000
vn -1.000000 -0.000001 0.000000
vn -1.000000 -0.000001 0.000000
vn 1.000000 0.000000 0.000000
vn 1.000000 0.000000 0.000000
vn 1.000000 0.000000 0.000000
vn 0.000000 -0.510141 0.860091
vn 0.000000 -0.510141 0.860091
vn 0.000000 -0.510141 0.860091
vn 0.000000 -0.510141 0.860091
vn -1.000000 -0.000001 0.000000
vn -1.000000 -0.000001 0.000000
vn -1.000000 -0.000001 0.000000
vn 1.000000 0.000000 0.000000
vn 1.000000 0.000000 0.000000
vn 1.000000 0.000000 0.000000
vn 0.000000 -0.934987 0.354682
vn 0.000000 -0.934987 0.354682
vn 0.000000 -0.934987 0.354682
vn 0.000000 -0.934987 0.354682
vn -1.000000 0.000000 0.000000
vn -1.000000 0.000000 0.000000
vn -1.000000 0.000000 0.000000
vn -1.000000 0.000000 0.000000
vn -1.000000 0.000000 0.000000
vn -1.000000 0.000000 0.000000
vn -1.000000 0.000000 0.000000
vn 0.000000 0.428410 0.903584
vn 0.000000 0.428410 0.903584
vn 0.000000 0.428410 0.903584
vn 0.000000 0.428410 0.903584
vn 1.000000 0.000000 0.000000
vn 1.000000 0.000000 0.000000
vn 1.000000 0.000000 0.000000
vn 1.000000 0.000000 0.000000
vn 0.000000 0.000000 -1.000000
vn 0.000000 0.000000 -1.000000
vn 0.000000 0.000000 -1.000000
vn 0.000000 0.000000 -1.000000
vn -1.000000 -0.000002 0.000000
vn -1.000000 -0.000002 0.000000
vn -1.000000 -0.000002 0.000000
vn 0.000000 -0.270650 0.962678
vn 0.000000 -0.270650 0.962678
vn 0.000000 -0.270650 0.962678
vn 0.000000 -0.270650 0.962678
vn 1.000000 -0.000002 0.000000
vn 1.000000 -0.000002 0.000000
vn 1.000000 -0.000002 0.000000
vn -1.000000 0.000003 0.000000
vn -1.000000 0.000003 0.000000
vn -1.000000 0.000003 0.000000
vn 0.000000 -0.794674 0.607037
vn 0.000000 -0.794674 0.607037
vn 0.000000 -0.794674 0.607037
vn 0.000000 -0.794674 0.607037
vn 1.000000 0.000006 0.000000
vn 1.000000 0.000006 0.000000
vn 1.000000 0.000006 0.000000
vn 0.004004 0.044292 0.999011
vn 0.004004 0.044292 0.999011
vn 0.004004 0.044292 0.999011
vn 0.004004 0.044292 0.999011
vn 0.000000 -1.000000 0.000000
vn 0.000000 -1.000000 0.000000
vn 0.000000 -1.000000 0.000000
vn 0.000000 -1.000000 0.000000
vn 0.000000 -0.895909 0.444237
vn 0.000000 -0.895909 0.444237
vn 0.000000 -0.895909 0.444237
vn 0.000000 -0.895909 0.444237
vn 0.004211 -0.336777 0.941575
vn 0.004211 -0.336777 0.941575
vn 0.004211 -0.336777 0.941575
vn 0.004211 -0.336777 0.941575
vn -0.005496 -0.988541 0.150853
vn -0.005496 -0.988541 0.150853
vn -0.005496 -0.988541 0.150853
vn -0.005496 -0.988541 0.150853
vn 0.000000 0.000000 1.000000
vn 0.000000 0.000000 1.000000
vn 0.000000 0.000000 1.000000
vn 0.000000 0.000000 1.000000
vn 1.000000 -0.000001 0.000000
vn 1.000000 -0.000001 0.000000
vn 1.000000 -0.000001 0.000000
vn 1.000000 -0.000001 0.000000
vn 0.000000 0.000000 -1.000000
vn 0.000000 0.000000 -1.000000
vn 0.000000 0.000000 -1.000000
vn 0.000000 0.000000 -1.000000
vn -1.000000 0.000000 0.000000
vn -1.000000 0.000000 0.000000
vn -1.000000 0.000000 0.000000
vn -1.000000 0.000000 0.000000
vn 0.000000 1.000000 0.000000
vn 0.000000 1.000000 0.000000
vn 0.000000 1.000000 0.000000
vn 0.000000 1.000000 0.000000
vn 1.000000 -0.000002 0.000000
vn 1.000000 -0.000002 0.000000
vn 1.000000 -0.000002 0.000000
vn 1.000000 -0.000002 0.000000
vn 1.000000 0.000000 0.000000
vn 1.000000 0.000000 0.000000
vn 1.000000 0.000000 0.000000
vn 1.000000 0.000006 0.000000
vn 1.000000 0.000006 0.000000
vn 1.000000 0.000006 0.000000
vn 1.000000 0.000000 0.000000
vn 1.000000 0.000000 0.000000
vn 1.000000 0.000000 0.000000
vn 1.000000 0.000000 0.000000
vn 1.000000 0.000000 0.000000
vn 1.000000 0.000000 0.000000
vn -1.000000 0.000000 0.000000
vn -1.000000 0.000000 0.000000
vn -1.000000 0.000000 0.000000
vn -1.000000 0.000000 0.000000
vn -1.000000 0.000000 0.000000
vn -1.000000 0.000000 0.000000
vn -1.000000 0.000000 0.000000
vn -1.000000 0.000000 0.000000
vn -1.000000 0.000000 0.000000
vn -1.000000 0.000000 0.000000
vn -1.000000 0.000000 0.000000
vn -1.000000 0.000000 0.000000
vn -1.000000 0.000000 0.000000
vn -1.000000 0.000000 0.000000
vn -1.000000 0.000000 0.000000
vn -1.000000 0.000000 0.000000
vn 1.000000 0.000000 0.000000
vn 1.000000 0.000000 0.000000
vn 1.000000 0.000000 0.000000
vn 1.000000 0.000006 0.000000
vn 1.000000 0.000006 0.000000
vn 1.000000 0.000006 0.000000
vn 0.000000 1.000000 -0.000000
vn 0.000000 1.000000 -0.000000
vn 0.000000 1.000000 -0.000000
vn 0.000000 1.000000 -0.000000
vn -1.000000 0.000000 0.000000
vn -1.000000 0.000000 0.000000
vn -1.000000 0.000000 0.000000
vn -1.000000 0.000000 0.000000
vn -1.000000 0.000000 0.000000
vn -1.000000 0.000000 0.000000
vn 0.002327 0.788336 -0.615241
vn 0.002327 0.788336 -0.615241
vn 0.002327 0.788336 -0.615241
vn 0.002327 0.788336 -0.615241
vn 0.000000 1.000000 -0.000000
vn 0.000000 1.000000 -0.000000
vn 0.000000 1.000000 -0.000000
vn 0.000000 1.000000 -0.000000
vn 0.003015 0.787150 0.616755
vn 0.003015 0.787150 0.616755
vn 0.003015 0.787150 0.616755
vn 0.003015 0.787150 0.616755
vn -0.000000 -0.878565 -0.477623
vn -0.000000 -0.878565 -0.477623
vn -0.000000 -0.878565 -0.477623
vn -0.000000 -0.878565 -0.477623
vn -1.000000 0.000000 0.000000
vn -1.000000 0.000000 0.000000
vn -1.000000 0.000000 0.000000
vn -1.000000 0.000000 0.000000
vn 0.000000 0.878565 0.477623
vn 0.000000 0.878565 0.477623
vn 0.000000 0.878565 0.477623
vn 0.000000 0.878565 0.477623
vn 0.000000 -1.000000 0.000000
vn 0.000000 -1.000000 0.000000
vn 0.000000 -1.000000 0.000000
vn 0.000000 -1.000000 0.000000
vn 1.000000 0.000002 0.000000
vn 1.000000 0.000002 0.000000
vn 1.000000 0.000002 0.000000
vn 1.000000 0.000002 0.000000
vn -0.000000 -0.640190 -0.768216
vn -0.000000 -0.640190 -0.768216
vn -0.000000 -0.640190 -0.768216
vn -0.000000 -0.640190 -0.768216
vn 0.000000 0.000000 1.000000
vn 0.000000 0.000000 1.000000
vn 0.000000 0.000000 1.000000
vn 0.000000 0.000000 1.000000
vn 0.000000 -1.000000 0.000000
vn 0.000000 -1.000000 0.000000
vn 0.000000 -1.000000 0.000000
vn 0.000000 -1.000000 0.000000
vn 0.000000 -0.895909 0.444237
vn 0.000000 -0.895909 0.444237
vn 0.000000 -0.895909 0.444237
vn 0.000000 -0.895909 0.444237
vn 0.000000 -0.250538 0.968107
vn 0.000000 -0.250538 0.968107
vn 0.000000 -0.250538 0.968107
vn 0.000000 -0.250538 0.968107
vn 0.000000 -0.981699 0.190442
vn 0.000000 -0.981699 0.190442
vn 0.000000 -0.981699 0.190442
vn 0.000000 -0.981699 0.190442
vn -0.006632 -0.046958 0.998875
vn -0.006632 -0.046958 0.998875
vn -0.006632 -0.046958 0.998875
vn -0.006632 -0.046958 0.998875
vn 0.000000 0.000000 -1.000000
vn 0.000000 0.000000 -1.000000
vn 0.000000 0.000000 -1.000000
vn 0.000000 0.000000 -1.000000
vn 0.000000 1.000000 0.000000
vn 0.000000 1.000000 0.000000
vn 0.000000 1.000000 0.000000
vn 0.000000 1.000000 0.000000
vn 0.000000 1.000000 0.000000
vn 0.000000 1.000000 0.000000
vn 0.000000 1.000000 0.000000
vn 0.000000 1.000000 0.000000
vn -0.004054 0.797140 -0.603781
vn -0.004054 0.797140 -0.603781
vn -0.004054 0.797140 -0.603781
vn -0.004054 0.797140 -0.603781
vn 0.000000 1.000000 -0.000000
vn 0.000000 1.000000 -0.000000
vn 0.000000 1.000000 -0.000000
vn 0.000000 1.000000 -0.000000
vn -0.004762 0.770766 0.637101
vn -0.004762 0.770766 0.637101
vn -0.004762 0.770766 0.637101
vn -0.004762 0.770766 0.637101
vn -0.003613 0.044789 0.998990
vn -0.003613 0.044789 0.998990
vn -0.003613 0.044789 0.998990
vn -0.003613 0.044789 0.998990
vn 0.000000 -1.000000 0.000000
vn 0.000000 -1.000000 0.000000
vn 0.000000 -1.000000 0.000000
vn 0.000000 -1.000000 0.000000
vn 0.000000 -0.895909 0.444237
vn 0.000000 -0.895909 0.444237
vn 0.000000 -0.895909 0.444237
vn 0.000000 -0.895909 0.444237
vn -0.003670 -0.337389 0.941358
vn -0.003670 -0.337389 0.941358
vn -0.003670 -0.337389 0.941358
vn -0.003670 -0.337389 0.941358
vn 0.004538 -0.988183 0.153212
vn 0.004538 -0.988183 0.153212
vn 0.004538 -0.988183 0.153212
vn 0.004538 -0.988183 0.153212
vn 0.005938 -0.047891 0.998835
vn 0.005938 -0.047891 0.998835
vn 0.005938 -0.047891 0.998835
vn 0.005938 -0.047891 0.998835
vn 0.000000 0.000000 -1.000000
vn 0.000000 0.000000 -1.000000
vn 0.000000 0.000000 -1.000000
vn 0.000000 0.000000 -1.000000
vn 0.000000 1.000000 -0.000000
vn 0.000000 1.000000 -0.000000
vn 0.000000 1.000000 -0.000000
vn 0.000000 1.000000 -0.000000
vn 0.000000 1.000000 0.000000
vn 0.000000 1.000000 0.000000
vn 0.000000 1.000000 0.000000
vn 0.000000 1.000000 0.000000
vn 0.002442 0.786934 -0.617032
vn 0.002442 0.786934 -0.617032
vn 0.002442 0.786934 -0.617032
vn 0.002442 0.786934 -0.617032
vn 0.000000 1.000000 0.000000
vn 0.000000 1.000000 0.000000
vn 0.000000 1.000000 0.000000
vn 0.000000 1.000000 0.000000
vn 0.003915 0.757786 0.652492
vn 0.003915 0.757786 0.652492
vn 0.003915 0.757786 0.652492
vn 0.003915 0.757786 0.652492
s off
f 1/1/1 2/2/2 4/3/3 3/4/4
f 3/4/5 4/3/6 6/5/7 5/6/8
f 5/6/9 6/5/10 8/7/11 7/8/12
f 2/2/13 8/7/14 6/5/15 4/3/16
f 7/8/17 1/1/18 3/4/19 5/6/20
f 15/9/21 16/10/22 17/11/23 18/12/24
f 11/13/25 12/14/26 14/15/27 13/16/28
f 10/17/29 14/15/30 12/14/31
f 13/16/32 9/18/33 11/13/34
f 10/17/35 19/19/36 22/20/37
f 19/19/38 20/21/39 21/22/40 22/20/41
f 20/21/42 9/18/43 21/22/44
f 10/17/45 12/14/46 19/19/47
f 12/14/48 11/13/49 20/21/50 19/19/51
f 11/13/52 9/18/53 20/21/54
f 21/22/55 9/18/56 15/9/57 23/23/58
f 22/20/59 21/22/60 23/23/61 24/24/62
f 10/17/63 22/20/64 24/24/65 16/10/66
f 9/18/67 10/17/68 16/10/69 15/9/70
f 23/23/71 15/9/72 25/25/73
f 24/24/74 23/23/75 25/25/76 26/26/77
f 16/10/78 24/24/79 26/26/80
f 25/25/81 15/9/82 18/12/83
f 26/26/84 25/25/85 18/12/86 17/11/87
f 16/10/88 26/26/89 17/11/90
f 27/27/91 28/28/92 30/29/93 29/30/94
f 29/30/95 30/29/96 32/31/97 31/32/98
f 31/32/99 32/31/100 34/33/101 33/34/102
f 28/28/103 34/33/104 32/31/105 30/29/106
f 33/34/107 27/27/108 29/30/109 31/32/110
f 41/35/111 42/36/112 43/37/113 44/38/114
f 37/39/115 38/40/116 40/41/117 39/42/118
f 36/43/119 40/41/120 38/40/121
f 39/42/122 35/44/123 37/39/124
f 36/43/125 45/45/126 48/46/127
f 45/45/128 46/47/129 47/48/130 48/46/131
f 46/47/132 35/44/133 47/48/134
f 36/43/135 38/40/136 45/45/137
f 38/40/138 37/39/139 46/47/140 45/45/141
f 37/39/142 35/44/143 46/47/144
f 47/48/145 35/44/146 41/35/147 49/49/148
f 48/46/149 47/48/150 49/49/151 50/50/152
f 36/43/153 48/46/154 50/50/155 42/36/156
f 35/44/157 36/43/158 42/36/159 41/35/160
f 49/49/161 41/35/162 51/51/163
f 50/50/164 49/49/165 51/51/166 52/52/167
f 42/36/168 50/50/169 52/52/170
f 51/51/171 41/35/172 44/38/173
f 52/52/174 51/51/175 44/38/176 43/37/177
f 42/36/178 52/52/179 43/37/180
f 61/53/181 101/105/182 98/102/183 55/56/184
f 59/57/185 100/104/186 97/101/187 53/60/188
f 63/61/189 102/106/190 101/105/191 61/53/192
f 65/63/193 103/107/194 102/106/195 63/61/196
f 67/65/197 104/108/198 103/107/199 65/63/200
f 53/60/201 97/101/202 104/108/203 67/65/204
f 71/67/205 54/59/206 60/58/207 73/68/208
f 57/69/209 99/103/210 100/104/211 59/57/212
f 76/71/213 59/57/214 53/60/215 72/72/216
f 55/56/217 98/102/218 105/109/219 69/74/220
f 62/54/221 71/67/222 70/73/223 56/55/224
f 64/62/225 71/67/226 62/54/227
f 66/64/228 71/67/229 64/62/230
f 68/66/231 71/67/232 66/64/233
f 54/59/234 71/67/235 68/66/236
f 72/72/237 53/60/238 67/65/239
f 72/72/240 67/65/241 65/63/242
f 72/72/243 65/63/244 63/61/245
f 72/72/246 63/61/247 61/53/248
f 69/74/249 72/72/250 61/53/251 55/56/252
f 73/68/253 60/58/254 58/70/255
f 74/75/256 73/68/257 58/70/258
f 75/76/259 106/110/260 99/103/261 57/69/262
f 57/69/263 76/71/264 75/76/265
f 59/57/266 76/71/267 57/69/268
f 70/73/269 71/67/270 95/99/271 93/97/272
f 71/67/273 73/68/274 96/100/275 95/99/276
f 73/68/277 74/75/278 94/98/279 96/100/280
f 77/77/281 78/78/282 80/79/283 79/80/284
f 79/80/285 80/79/286 81/81/287 82/82/288
f 82/82/289 81/81/290 83/83/291 84/84/292
f 80/79/293 78/78/294 83/83/295 81/81/296
f 78/78/297 77/77/298 84/84/299 83/83/300
f 79/85/301 82/86/302 84/87/303 77/88/304
f 86/90/305 89/93/306 62/54/307 56/55/308
f 85/89/309 88/92/310 60/58/311 54/59/312
f 89/93/313 90/94/314 64/62/315 62/54/316
f 90/94/317 91/95/318 66/64/319 64/62/320
f 91/95/321 92/96/322 68/66/323 66/64/324
f 92/96/325 85/89/326 54/59/327 68/66/328
f 88/92/329 87/91/330 58/70/331 60/58/332
f 93/97/333 86/90/334 56/55/335 70/73/336
f 87/91/337 94/98/338 74/75/339 58/70/340
f 93/97/341 95/99/342 107/111/343 105/109/344
f 95/99/345 96/100/346 108/112/347 107/111/348
f 96/100/349 94/98/350 106/110/351 108/112/352
f 98/102/353 101/105/354 89/93/355 86/90/356
f 97/101/357 100/104/358 88/92/359 85/89/360
f 101/105/361 102/106/362 90/94/363 89/93/364
f 102/106/365 103/107/366 91/95/367 90/94/368
f 103/107/369 104/108/370 92/96/371 91/95/372
f 104/108/373 97/101/374 85/89/375 92/96/376
f 100/104/377 99/103/378 87/91/379 88/92/380
f 105/109/381 98/102/382 86/90/383 93/97/384
f 99/103/385 106/110/386 94/98/387 87/91/388
f 105/109/389 107/111/390 72/72/391 69/74/392
f 107/111/393 108/112/394 76/71/395 72/72/396
f 108/112/397 106/110/398 75/76/399 76/71/400
