# This file uses centimeters as units for non-parametric coordinates.

v 125.000000 8.388362 0.000183
v 125.000000 8.388362 14.142151
v 125.000000 83.460854 -109.242004
v 125.000000 83.460854 -124.999939
v 0.000000 8.388362 0.000183
v 0.000000 8.388362 14.142151
v 0.000000 83.460854 -109.242004
v 0.000000 83.460854 -124.999939
v 62.500000 83.460854 -124.999939
v 62.500000 83.460854 -109.242004
v 62.500000 8.388362 0.000183
v 62.500000 8.388362 14.142151
v 118.930115 13.393193 -7.282654
v 118.930115 78.456017 -101.959167
v 68.569885 78.456017 -101.959167
v 68.569885 13.393193 -7.282654
v 56.430115 78.456017 -101.959167
v 56.430115 13.393193 -7.282654
v 6.069885 78.456017 -101.959167
v 6.069885 13.393193 -7.282654
v 125.000031 0.540006 -2.436584
v 125.000000 -0.216569 14.142151
v 62.500000 0.170420 -2.551331
v 62.500000 -0.216569 14.142151
v 125.000031 75.612495 -111.678772
v 125.000000 74.855919 -124.999939
v 62.500000 74.855919 -124.999939
v 62.500000 75.242912 -111.793518
v 0.000000 74.855919 -124.999939
v -0.000031 75.612495 -111.678772
v -0.000031 0.540006 -2.436584
v 0.000000 -0.216569 14.142151
v 118.930145 71.364235 -106.832703
v 118.930145 6.301410 -12.156189
v 68.569839 71.364235 -106.832703
v 68.569839 6.301412 -12.156189
v 56.430145 71.364235 -106.832703
v 56.430145 6.301411 -12.156189
v 6.069839 71.364235 -106.832703
v 6.069839 6.301409 -12.156189
vt 0.194526 0.129539
vt 0.194526 0.129539
vt 0.194526 0.129539
vt 0.194526 0.129539
vt 0.194526 0.129539
vt 0.194526 0.129539
vt 0.194526 0.129539
vt 0.194526 0.129539
vt 0.194526 0.129539
vt 0.194526 0.129539
vt 0.194526 0.129539
vt 0.194526 0.129539
vt 0.194526 0.129539
vt 0.194526 0.129539
vt 0.194526 0.129539
vt 0.194526 0.129539
vt 0.194526 0.129539
vt 0.194526 0.129539
vt 0.194526 0.129539
vt 0.194526 0.129539
vt 0.194526 0.129539
vt 0.194526 0.129539
vt 0.194526 0.129539
vt 0.194526 0.129539
vt 0.194526 0.129539
vt 0.194526 0.129539
vt 0.194526 0.129539
vt 0.194526 0.129539
vt 0.194526 0.129539
vt 0.194526 0.129539
vt 0.194526 0.129539
vt 0.194526 0.129539
vt 0.194526 0.129539
vt 0.194526 0.129539
vt 0.194526 0.129539
vt 0.194526 0.129539
vt 0.194526 0.129539
vt 0.194526 0.129539
vt 0.194526 0.129539
vt 0.194526 0.129539
vt 0.194526 0.129539
vt 0.194526 0.129539
vt 0.194526 0.129539
vt 0.194526 0.129539
vt 0.194526 0.129539
vt 0.194526 0.129539
vt 0.194526 0.129539
vt 0.194526 0.129539
vt 0.194526 0.129539
vt 0.194526 0.129539
vt 0.194526 0.129539
vt 0.194526 0.129539
vt 0.194526 0.129539
vt 0.194526 0.129539
vt 0.194526 0.129539
vt 0.194526 0.129539
vt 0.194526 0.129539
vt 0.194526 0.129539
vt 0.194526 0.129539
vt 0.194526 0.129539
vt 0.194526 0.129539
vt 0.194526 0.129539
vt 0.194526 0.129539
vt 0.194526 0.129539
vt 0.194526 0.129539
vt 0.194526 0.129539
vt 0.194526 0.129539
vt 0.194526 0.129539
vt 0.194526 0.129539
vt 0.194526 0.129539
vt 0.194526 0.129539
vt 0.194526 0.129539
vt 0.194526 0.129539
vt 0.194526 0.129539
vn 0.002986 -0.999405 -0.034349
vn 0.000000 -0.999410 -0.034350
vn 0.000000 -0.999410 -0.034350
vn 0.002986 -0.999405 -0.034349
vn 0.002914 -0.999068 0.043068
vn -0.000000 -0.999072 0.043069
vn -0.000000 -0.999072 0.043069
vn 0.002914 -0.999068 0.043068
vn -0.000000 -0.999072 0.043069
vn -0.002914 -0.999068 0.043068
vn -0.002914 -0.999068 0.043068
vn -0.000000 -0.999072 0.043069
vn 0.000000 -0.999410 -0.034350
vn -0.002986 -0.999405 -0.034349
vn -0.002986 -0.999405 -0.034349
vn 0.000000 -0.999410 -0.034350
vn 0.045843 -0.841363 -0.538522
vn 0.075976 -0.832979 -0.548064
vn 0.085678 -0.804620 -0.587576
vn 0.083403 -0.803774 -0.589060
vn 0.083403 -0.803774 -0.589060
vn 0.085678 -0.804620 -0.587576
vn -0.042309 -0.806779 -0.589337
vn 0.000000 -0.806780 -0.590852
vn 0.000000 -0.806780 -0.590852
vn -0.042309 -0.806779 -0.589337
vn -0.037010 -0.834793 -0.549318
vn 0.000000 -0.842334 -0.538956
vn 0.000000 -0.842334 -0.538956
vn -0.037010 -0.834793 -0.549318
vn 0.075976 -0.832979 -0.548064
vn 0.045843 -0.841363 -0.538522
vn 0.000000 -0.842334 -0.538956
vn 0.037010 -0.834793 -0.549318
vn 0.042309 -0.806779 -0.589337
vn 0.000000 -0.806780 -0.590852
vn 0.000000 -0.806780 -0.590852
vn 0.042309 -0.806779 -0.589337
vn -0.085679 -0.804620 -0.587577
vn -0.083403 -0.803774 -0.589060
vn -0.083403 -0.803774 -0.589060
vn -0.085679 -0.804620 -0.587577
vn -0.075976 -0.832979 -0.548064
vn -0.045843 -0.841363 -0.538522
vn -0.045843 -0.841363 -0.538522
vn -0.075976 -0.832979 -0.548064
vn 0.037010 -0.834793 -0.549318
vn 0.000000 -0.842334 -0.538956
vn 0.000000 1.000000 0.000000
vn 0.000000 1.000000 0.000000
vn 0.000000 1.000000 0.000000
vn 0.000000 1.000000 0.000000
vn 0.000000 1.000000 0.000000
vn 0.000000 1.000000 0.000000
vn 0.000000 1.000000 0.000000
vn 0.000000 1.000000 0.000000
vn 0.000000 1.000000 0.000000
vn 0.000000 1.000000 0.000000
vn 0.000000 1.000000 0.000000
vn 0.000000 1.000000 0.000000
vn 0.000000 1.000000 0.000000
vn 0.000000 1.000000 0.000000
vn 0.000000 1.000000 0.000000
vn 0.000000 1.000000 0.000000
vn -0.000000 0.824153 0.566367
vn -0.000000 0.824153 0.566367
vn -0.000000 0.824153 0.566367
vn -0.000000 0.824153 0.566367
vn -0.000000 0.824153 0.566367
vn 0.000000 0.824153 0.566367
vn 0.000000 0.824153 0.566367
vn -0.000000 0.824153 0.566367
vn 0.000000 0.824153 0.566367
vn 0.000000 0.824153 0.566367
vn 0.000000 0.824153 0.566367
vn 0.000000 0.824153 0.566367
vn 0.000000 0.824153 0.566367
vn -0.000000 0.824153 0.566367
vn -0.000000 0.824153 0.566367
vn 0.000000 0.824153 0.566367
vn 0.000000 0.824153 0.566367
vn 0.000000 0.824153 0.566367
vn -0.000000 0.824153 0.566367
vn -0.000000 0.824153 0.566367
vn 0.000000 0.824153 0.566367
vn 0.000000 0.824153 0.566367
vn 0.000000 0.824153 0.566367
vn -0.000000 0.824153 0.566367
vn 0.000000 0.824153 0.566367
vn 0.000000 0.824153 0.566367
vn 0.000000 0.824153 0.566367
vn 0.000000 0.824153 0.566367
vn 0.000000 0.824153 0.566367
vn 0.000000 0.824153 0.566367
vn -0.000000 0.824153 0.566367
vn 0.000000 0.824153 0.566367
vn 1.000000 0.000003 0.000001
vn 1.000000 0.000003 0.000001
vn 1.000000 0.000003 0.000002
vn 1.000000 0.000003 0.000002
vn 0.000000 0.000000 1.000000
vn 0.000000 0.000000 1.000000
vn 0.000000 0.000000 1.000000
vn 0.000000 0.000000 1.000000
vn 1.000000 0.000003 0.000002
vn 1.000000 0.000003 0.000002
vn 1.000000 0.000002 -0.000001
vn 1.000000 0.000002 -0.000001
vn 0.000000 0.000000 -1.000000
vn 0.000000 0.000000 -1.000000
vn 0.000000 0.000000 -1.000000
vn 0.000000 0.000000 -1.000000
vn 0.000000 0.000000 -1.000000
vn 0.000000 0.000000 -1.000000
vn 0.000000 0.000000 -1.000000
vn 0.000000 0.000000 -1.000000
vn -1.000000 0.000002 -0.000001
vn -1.000000 0.000002 -0.000001
vn -1.000000 0.000003 0.000002
vn -1.000000 0.000003 0.000002
vn -1.000000 0.000003 0.000002
vn -1.000000 0.000003 0.000002
vn -1.000000 0.000002 0.000001
vn -1.000000 0.000002 0.000001
vn 0.000000 0.000000 1.000000
vn 0.000000 0.000000 1.000000
vn 0.000000 0.000000 1.000000
vn 0.000000 0.000000 1.000000
vn 1.000000 0.000003 0.000002
vn 1.000000 0.000003 0.000002
vn 1.000000 0.000003 0.000002
vn 1.000000 0.000003 0.000002
vn -1.000000 -0.000003 -0.000002
vn -1.000000 -0.000003 -0.000002
vn -1.000000 -0.000003 -0.000002
vn -1.000000 -0.000003 -0.000002
vn 0.000000 -0.566366 0.824154
vn 0.000000 -0.566366 0.824154
vn 0.000000 -0.566366 0.824154
vn 0.000000 -0.566366 0.824154
vn 1.000000 -0.000004 -0.000003
vn 1.000000 -0.000004 -0.000003
vn 1.000000 -0.000004 -0.000003
vn 1.000000 -0.000004 -0.000003
vn 0.000000 0.566366 -0.824154
vn 0.000000 0.566366 -0.824154
vn 0.000000 0.566366 -0.824154
vn 0.000000 0.566366 -0.824154
vn -1.000000 -0.000003 -0.000002
vn -1.000000 -0.000003 -0.000002
vn -1.000000 -0.000003 -0.000002
vn -1.000000 -0.000003 -0.000002
vn 0.000000 -0.566366 0.824154
vn 0.000000 -0.566366 0.824154
vn 0.000000 -0.566366 0.824154
vn 0.000000 -0.566366 0.824154
vn -1.000000 0.000003 0.000002
vn -1.000000 0.000003 0.000002
vn -1.000000 0.000003 0.000002
vn -1.000000 0.000003 0.000002
vn 1.000000 -0.000004 -0.000003
vn 1.000000 -0.000004 -0.000003
vn 1.000000 -0.000004 -0.000003
vn 1.000000 -0.000004 -0.000003
vn -0.000000 0.566366 -0.824154
vn -0.000000 0.566366 -0.824154
vn -0.000000 0.566366 -0.824154
vn -0.000000 0.566366 -0.824154
s off
f 22/53/1 24/55/2 23/16/3 21/54/4
f 25/56/5 28/15/6 27/58/7 26/57/8
f 28/15/9 30/60/10 29/59/11 27/58/12
f 24/55/13 32/62/14 31/61/15 23/16/16
f 21/63/17 34/66/18 33/65/19 25/64/20
f 25/64/21 33/65/22 35/67/23 28/14/24
f 28/14/25 35/67/26 36/68/27 23/17/28
f 23/17/29 36/68/30 34/66/31 21/63/32
f 23/17/33 38/70/34 37/69/35 28/14/36
f 28/14/37 37/69/38 39/71/39 30/72/40
f 30/72/41 39/71/42 40/74/43 31/73/44
f 31/73/45 40/74/46 38/70/47 23/17/48
f 2/27/49 1/28/50 11/29/51 12/30/52
f 3/31/53 4/32/54 9/33/55 10/34/56
f 10/34/57 9/33/58 8/35/59 7/36/60
f 12/30/61 11/29/62 5/37/63 6/38/64
f 1/39/65 3/40/66 14/41/67 13/42/68
f 3/40/69 10/43/70 15/44/71 14/41/72
f 10/43/73 11/45/74 16/46/75 15/44/76
f 11/45/77 1/39/78 13/42/79 16/46/80
f 11/45/81 10/43/82 17/47/83 18/48/84
f 10/43/85 7/49/86 19/50/87 17/47/88
f 7/49/89 5/51/90 20/52/91 19/50/92
f 5/51/93 11/45/94 18/48/95 20/52/96
f 2/1/97 22/53/98 21/54/99 1/2/100
f 12/18/101 24/55/102 22/53/103 2/1/104
f 3/9/105 25/56/106 26/57/107 4/10/108
f 4/10/109 26/57/110 27/58/111 9/13/112
f 9/13/113 27/58/114 29/59/115 8/11/116
f 8/11/117 29/59/118 30/60/119 7/12/120
f 5/3/121 31/61/122 32/62/123 6/4/124
f 6/4/125 32/62/126 24/55/127 12/18/128
f 1/5/129 21/63/130 25/64/131 3/6/132
f 14/20/133 33/65/134 34/66/135 13/19/136
f 15/21/137 35/67/138 33/65/139 14/20/140
f 16/22/141 36/68/142 35/67/143 15/21/144
f 13/19/145 34/66/146 36/68/147 16/22/148
f 17/24/149 37/69/150 38/70/151 18/23/152
f 19/25/153 39/71/154 37/69/155 17/24/156
f 7/7/157 30/72/158 31/73/159 5/8/160
f 20/26/161 40/74/162 39/71/163 19/25/164
f 18/23/165 38/70/166 40/74/167 20/26/168
v 56.430145 74.910126 -104.395996
v 56.430145 9.847305 -9.719482
v 6.069855 9.847305 -9.719482
v 6.069855 74.910126 -104.395996
v 118.930130 74.910126 -104.395996
v 118.930130 9.847301 -9.719482
v 68.569855 9.847302 -9.719482
v 68.569855 74.910126 -104.395996
vt -0.000000 1.000000
vt -0.000000 0.000000
vt 0.446218 0.000000
vt 0.446218 1.000000
vt 0.553782 1.000000
vt 0.553782 0.000000
vt 1.000000 0.000000
vt 1.000000 1.000000
vn 0.000000 0.824153 0.566368
vn 0.000000 0.824153 0.566368
vn 0.000000 0.824153 0.566368
vn 0.000000 0.824153 0.566368
vn 0.000000 0.824153 0.566368
vn 0.000000 0.824153 0.566368
vn 0.000000 0.824153 0.566368
vn 0.000000 0.824153 0.566368
s off
f 44/75/169 43/76/170 42/77/171 41/78/172
f 48/79/173 47/80/174 46/81/175 45/82/176
