# This file uses centimeters as units for non-parametric coordinates.

v 2.395264 14.248871 14.356167
v 3.950806 0.000000 11.250000
v 2.395264 0.000000 14.356167
v 2.692780 16.318512 13.761108
v 3.001129 27.446472 13.149261
v 3.950806 30.572828 11.250000
v 2.649139 26.265442 13.853302
v 2.797638 29.579453 13.556305
v -11.250000 0.000000 11.250000
v -14.356171 0.000000 14.356171
v -14.356171 14.248871 14.356171
v -11.250000 30.572828 11.250000
v -13.761108 16.318512 13.761108
v -13.853302 26.265442 13.853302
v -13.149292 27.446472 13.149292
v -13.556305 29.579453 13.556305
v -14.356171 14.248871 -2.392546
v -11.249985 0.000000 -3.950790
v -14.356171 0.000000 -2.392546
v -13.761093 16.318512 -2.690079
v -13.149277 27.446472 -3.001143
v -11.249985 30.572828 -3.950790
v -13.853302 26.265442 -2.649138
v -13.556305 29.579453 -2.797637
v 3.950790 30.572828 -3.950790
v 3.950790 0.000000 -3.950790
vt 0.151686 0.128830
vt 0.151635 0.128497
vt 0.151628 0.128551
vt 0.151637 0.128869
vt 0.151641 0.128226
vt 0.151631 0.128261
vt 0.151669 0.128132
vt 0.151634 0.128179
vt 0.151871 0.129049
vt 0.151894 0.128986
vt 0.151868 0.128718
vt 0.151872 0.128658
vt 0.151871 0.128411
vt 0.151876 0.128370
vt 0.151890 0.128262
vt 0.151872 0.128323
vt 0.152209 0.128877
vt 0.152226 0.128923
vt 0.152233 0.128601
vt 0.152231 0.128545
vt 0.152232 0.128269
vt 0.152235 0.128306
vt 0.152224 0.128171
vt 0.152235 0.128222
vt 0.151993 0.128730
vt 0.151994 0.128049
vn 0.894186 0.000023 0.447696
vn 0.894186 0.000023 0.447696
vn 0.894186 0.000023 0.447696
vn 0.894186 0.000023 0.447696
vn 0.893919 -0.000125 0.448228
vn 0.893919 -0.000125 0.448228
vn 0.893919 -0.000125 0.448228
vn 0.893919 -0.000125 0.448228
vn 0.894419 0.000000 0.447231
vn 0.894419 0.000000 0.447231
vn 0.894419 0.000000 0.447231
vn 0.894427 -0.000013 0.447214
vn 0.894427 -0.000013 0.447214
vn 0.894427 -0.000013 0.447214
vn 0.000000 -1.000000 0.000000
vn 0.000000 -1.000000 0.000000
vn 0.000000 -1.000000 0.000000
vn 0.000000 -1.000000 0.000000
vn 0.000000 0.000000 1.000000
vn 0.000000 0.000000 1.000000
vn 0.000000 0.000000 1.000000
vn 0.000000 0.000000 1.000000
vn 0.000000 0.276324 0.961065
vn 0.000000 0.276324 0.961065
vn 0.000000 0.276324 0.961065
vn 0.000000 0.276324 0.961065
vn 0.000000 -0.009268 0.999957
vn 0.000000 -0.009268 0.999957
vn 0.000000 -0.009268 0.999957
vn 0.000000 -0.009268 0.999957
vn 0.000001 0.512037 0.858963
vn 0.000001 0.512037 0.858963
vn 0.000001 0.512037 0.858963
vn 0.000001 0.512037 0.858963
vn 0.000000 0.918428 0.395588
vn 0.000000 0.918428 0.395588
vn 0.000000 0.918428 0.395588
vn 0.000000 0.918428 0.395588
vn 0.000001 -0.187444 0.982275
vn 0.000001 -0.187444 0.982275
vn 0.000001 -0.187444 0.982275
vn 0.000001 -0.187444 0.982275
vn -0.448228 0.000047 -0.893919
vn -0.448228 0.000047 -0.893919
vn -0.448228 0.000047 -0.893919
vn -0.448228 0.000047 -0.893919
vn -0.449360 -0.000266 -0.893351
vn -0.449360 -0.000266 -0.893351
vn -0.449360 -0.000266 -0.893351
vn -0.449360 -0.000266 -0.893351
vn -0.447214 0.000000 -0.894427
vn -0.447214 0.000000 -0.894427
vn -0.447214 0.000000 -0.894427
vn -0.447211 -0.000002 -0.894429
vn -0.447211 -0.000002 -0.894429
vn -0.447211 -0.000002 -0.894429
vn 0.000000 -1.000000 0.000000
vn 0.000000 -1.000000 0.000000
vn 0.000000 -1.000000 0.000000
vn 0.000000 -1.000000 0.000000
vn -1.000000 0.000000 0.000000
vn -1.000000 0.000000 0.000000
vn -1.000000 0.000000 0.000000
vn -1.000000 0.000000 0.000000
vn -0.961064 0.276328 -0.000000
vn -0.961064 0.276328 -0.000000
vn -0.961064 0.276328 -0.000000
vn -0.961064 0.276328 -0.000000
vn -0.999957 -0.009269 -0.000000
vn -0.999957 -0.009269 -0.000000
vn -0.999957 -0.009269 -0.000000
vn -0.999957 -0.009269 -0.000000
vn -0.858966 0.512033 -0.000000
vn -0.858966 0.512033 -0.000000
vn -0.858966 0.512033 -0.000000
vn -0.858966 0.512033 -0.000000
vn -0.395586 0.918429 -0.000000
vn -0.395586 0.918429 -0.000000
vn -0.395586 0.918429 -0.000000
vn -0.395586 0.918429 -0.000000
vn -0.982276 -0.187440 -0.000000
vn -0.982276 -0.187440 -0.000000
vn -0.982276 -0.187440 -0.000000
vn -0.982276 -0.187440 -0.000000
vn 1.000000 0.000000 -0.000001
vn 1.000000 0.000000 -0.000001
vn 1.000000 0.000000 -0.000001
vn 1.000000 0.000000 -0.000001
vn 0.000000 -1.000000 0.000000
vn 0.000000 -1.000000 0.000000
vn 0.000000 -1.000000 0.000000
vn 0.000000 1.000000 -0.000000
vn 0.000000 1.000000 -0.000000
vn 0.000000 1.000000 -0.000000
vn 0.000000 1.000000 0.000000
vn 0.000000 1.000000 0.000000
vn 0.000000 1.000000 0.000000
vn 0.000000 -1.000000 0.000000
vn 0.000000 -1.000000 0.000000
vn 0.000000 -1.000000 0.000000
vn 0.000000 0.000000 -1.000000
vn 0.000000 0.000000 -1.000000
vn 0.000000 0.000000 -1.000000
vn 0.000000 0.000000 -1.000000
s off
f 2/1/1 4/2/2 1/3/3 3/4/4
f 5/5/5 7/6/6 4/2/7 2/1/8
f 5/5/9 2/1/10 6/7/11
f 5/5/12 6/7/13 8/8/14
f 2/1/15 3/4/16 10/9/17 9/10/18
f 3/4/19 1/3/20 11/11/21 10/9/22
f 1/3/23 4/2/24 13/12/25 11/11/26
f 4/2/27 7/6/28 14/13/29 13/12/30
f 7/6/31 5/5/32 15/14/33 14/13/34
f 8/8/35 6/7/36 12/15/37 16/16/38
f 5/5/39 8/8/40 16/16/41 15/14/42
f 18/17/43 19/18/44 17/19/45 20/20/46
f 21/21/47 18/17/48 20/20/49 23/22/50
f 21/21/51 22/23/52 18/17/53
f 21/21/54 24/24/55 22/23/56
f 18/17/57 9/10/58 10/9/59 19/18/60
f 19/18/61 10/9/62 11/11/63 17/19/64
f 17/19/65 11/11/66 13/12/67 20/20/68
f 20/20/69 13/12/70 14/13/71 23/22/72
f 23/22/73 14/13/74 15/14/75 21/21/76
f 24/24/77 16/16/78 12/15/79 22/23/80
f 21/21/81 15/14/82 16/16/83 24/24/84
f 6/7/85 2/1/86 26/25/87 25/26/88
f 2/1/89 9/10/90 26/25/91
f 12/15/92 6/7/93 25/26/94
f 22/23/95 12/15/96 25/26/97
f 9/10/98 18/17/99 26/25/100
f 18/17/101 22/23/102 25/26/103 26/25/104
