# This file uses centimeters as units for non-parametric coordinates.

v 0.000000 285.928772 13.822524
v 0.000000 283.185211 11.250000
v 0.000000 283.185211 13.120635
v -0.000000 297.256256 14.161007
v -0.000000 299.999817 13.094183
v 0.000000 299.999817 11.250000
v -0.000000 291.278931 14.620876
v 0.000000 287.103790 14.620876
v -0.000000 292.569214 15.374449
v -0.000000 296.081238 15.374449
v 263.120636 283.185211 13.120635
v 261.250000 283.185211 11.250000
v 263.822540 285.928772 13.822524
v 264.620880 287.103790 14.620876
v 261.250000 299.999817 11.250000
v 264.620880 291.278931 14.620876
v 265.374451 292.569214 15.374449
v 265.374451 296.081238 15.374449
v 263.094177 299.999817 13.094183
v 264.161011 297.256256 14.161007
vt 0.152112 0.127484
vt 0.152147 0.127843
vt 0.152126 0.127870
vt 0.152109 0.127486
vt 0.152126 0.127870
vt 0.152148 0.127874
vt 0.152093 0.127281
vt 0.152093 0.127281
vt 0.152093 0.127281
vt 0.152093 0.127281
vt 0.151298 0.127685
vt 0.151310 0.127687
vt 0.151303 0.127492
vt 0.151299 0.127385
vt 0.151413 0.127736
vt 0.151325 0.127393
vt 0.151333 0.127389
vt 0.151354 0.127396
vt 0.151400 0.127717
vt 0.151372 0.127513
vn -1.000000 0.000000 0.000000
vn -1.000000 0.000000 0.000000
vn -1.000000 0.000000 0.000000
vn -1.000000 -0.000000 -0.000000
vn -1.000000 -0.000000 -0.000000
vn -1.000000 -0.000000 -0.000000
vn -1.000000 -0.000000 -0.000000
vn -1.000000 -0.000000 -0.000000
vn -1.000000 -0.000000 -0.000000
vn -1.000000 -0.000000 -0.000000
vn -1.000000 -0.000000 0.000000
vn -1.000000 -0.000000 0.000000
vn -1.000000 -0.000000 0.000000
vn -1.000000 -0.000000 0.000000
vn -1.000000 -0.000000 -0.000000
vn -1.000000 -0.000000 -0.000000
vn -1.000000 -0.000000 -0.000000
vn -1.000000 -0.000000 -0.000000
vn 0.000000 -1.000000 0.000012
vn 0.000000 -1.000000 0.000012
vn 0.000000 -1.000000 0.000012
vn 0.000000 -1.000000 0.000012
vn 0.000000 -0.247850 0.968798
vn 0.000000 -0.247850 0.968798
vn 0.000000 -0.247850 0.968798
vn 0.000000 -0.247850 0.968798
vn 0.000000 -0.561992 0.827143
vn 0.000000 -0.561992 0.827143
vn 0.000000 -0.561992 0.827143
vn 0.000000 -0.561992 0.827143
vn 0.000000 0.000000 -1.000000
vn 0.000000 0.000000 -1.000000
vn 0.000000 0.000000 -1.000000
vn 0.000000 0.000000 -1.000000
vn 0.000000 0.000000 1.000000
vn 0.000000 0.000000 1.000000
vn 0.000000 0.000000 1.000000
vn 0.000000 0.000000 1.000000
vn 0.000000 -0.504325 0.863514
vn 0.000000 -0.504325 0.863514
vn 0.000000 -0.504325 0.863514
vn 0.000000 -0.504325 0.863514
vn 0.000000 0.000000 1.000000
vn 0.000000 0.000000 1.000000
vn 0.000000 0.000000 1.000000
vn 0.000000 0.000000 1.000000
vn 0.000000 1.000000 0.000006
vn 0.000000 1.000000 0.000006
vn 0.000000 1.000000 0.000006
vn 0.000000 1.000000 0.000006
vn 0.000000 0.718389 0.695641
vn 0.000000 0.718389 0.695641
vn 0.000000 0.718389 0.695641
vn 0.000000 0.718389 0.695641
vn 0.000000 0.362414 0.932017
vn 0.000000 0.362414 0.932017
vn 0.000000 0.362414 0.932017
vn 0.000000 0.362414 0.932017
vn 0.707106 0.000000 -0.707108
vn 0.707106 0.000000 -0.707108
vn 0.707106 0.000000 -0.707108
vn 0.707106 0.000000 -0.707108
vn 0.707106 0.000002 -0.707108
vn 0.707106 0.000002 -0.707108
vn 0.707106 0.000002 -0.707108
vn 0.707106 0.000002 -0.707108
vn 0.707115 0.000009 -0.707099
vn 0.707115 0.000009 -0.707099
vn 0.707115 0.000009 -0.707099
vn 0.707113 0.000003 -0.707100
vn 0.707113 0.000003 -0.707100
vn 0.707113 0.000003 -0.707100
vn 0.707113 0.000003 -0.707100
vn 0.707098 -0.000008 -0.707115
vn 0.707098 -0.000008 -0.707115
vn 0.707098 -0.000008 -0.707115
s off
f 1/1/1 2/2/2 3/3/3
f 4/4/4 5/5/5 6/6/6
f 4/4/7 6/6/8 2/2/9 1/1/10
f 7/7/11 4/4/12 1/1/13 8/8/14
f 9/9/15 10/10/16 4/4/17 7/7/18
f 11/11/19 3/3/20 2/2/21 12/12/22
f 13/13/23 1/1/24 3/3/25 11/11/26
f 14/14/27 8/8/28 1/1/29 13/13/30
f 12/12/31 2/2/32 6/6/33 15/15/34
f 16/16/35 7/7/36 8/8/37 14/14/38
f 17/17/39 9/9/40 7/7/41 16/16/42
f 18/18/43 10/10/44 9/9/45 17/17/46
f 15/15/47 6/6/48 5/5/49 19/19/50
f 20/20/51 4/4/52 10/10/53 18/18/54
f 19/19/55 5/5/56 4/4/57 20/20/58
f 20/20/59 13/13/60 12/12/61 15/15/62
f 16/16/63 20/20/64 18/18/65 17/17/66
f 20/20/67 15/15/68 19/19/69
f 16/16/70 14/14/71 13/13/72 20/20/73
f 12/12/74 13/13/75 11/11/76
