# This file uses centimeters as units for non-parametric coordinates.

v -4.054657 0.000000 -7.022873
v 4.054657 0.000000 -7.022873
v 4.054657 0.000000 7.022869
v -4.054657 0.000000 7.022869
v -4.054657 -149.999908 -7.022873
v 4.054657 -149.999908 -7.022873
v 4.054657 -149.999908 7.022869
v -4.054657 -149.999908 7.022869
v -3.557193 -95.613770 -6.110535
v 4.266546 -80.363335 -5.470044
v 4.199237 -64.890732 5.982559
v -3.275937 -87.277466 5.194168
v 5.732450 0.000000 -4.116850
v 5.732446 0.000000 4.116855
v -5.732300 0.000000 4.117108
v -5.732337 0.000000 -4.117046
v 5.732446 -149.999908 4.116855
v 5.732450 -149.999908 -4.116850
v -5.732337 -149.999908 -4.117046
v -5.732300 -149.999908 4.117108
v 5.795635 -65.077950 3.298657
v 5.530981 -75.468742 -3.898154
v -5.293185 -97.550110 -3.209128
v -4.549173 -91.027031 3.903208
v -2.369734 0.000000 -3.541244
v 2.369793 0.000000 -3.541143
v -2.369720 0.000000 3.541266
v 2.369791 0.000000 3.541143
v -2.369734 -149.999908 -3.541244
v 2.369793 -149.999908 -3.541143
v 2.369791 -149.999908 3.541143
v -2.369720 -149.999908 3.541266
vt 0.205231 0.149925
vt 0.204846 0.150128
vt 0.204826 0.149917
vt 0.205269 0.150136
vt 0.205347 0.150093
vt 0.204745 0.149958
vt 0.205324 0.149970
vt 0.204757 0.150082
vt 0.205255 0.149227
vt 0.205342 0.149400
vt 0.204866 0.149406
vt 0.204794 0.149234
vt 0.205327 0.149260
vt 0.205294 0.149424
vt 0.204802 0.149374
vt 0.204846 0.149210
vt 0.205242 0.149609
vt 0.205356 0.149780
vt 0.204855 0.149796
vt 0.204752 0.149625
vt 0.205316 0.149646
vt 0.205280 0.149819
vt 0.204792 0.149761
vt 0.204835 0.149587
vt 0.205278 0.149947
vt 0.204786 0.149938
vt 0.204802 0.150105
vt 0.205308 0.150115
vt 0.204820 0.149222
vt 0.205291 0.149243
vt 0.205318 0.149412
vt 0.204834 0.149390
vt 0.205411 0.106492
vt 0.205467 0.106507
vt 0.205440 0.106576
vt 0.205383 0.106561
vt 0.205436 0.107455
vt 0.205413 0.107447
vt 0.205401 0.107482
vt 0.205425 0.107489
vn 0.014149 -0.001228 -0.999899
vn 0.014149 -0.001228 -0.999899
vn 0.072665 -0.013707 -0.997262
vn 0.072665 -0.013707 -0.997262
vn -0.001846 -0.076333 0.997081
vn -0.001846 -0.076333 0.997081
vn -0.085630 0.039514 0.995543
vn -0.085630 0.039514 0.995543
vn 0.072551 -0.022488 -0.997111
vn 0.072551 -0.022488 -0.997111
vn -0.005287 -0.031488 -0.999490
vn -0.005287 -0.031488 -0.999490
vn -0.122867 -0.002687 0.992420
vn -0.122867 -0.002687 0.992420
vn -0.044837 0.014753 0.998885
vn -0.044837 0.014753 0.998885
vn 0.000000 1.000000 0.000000
vn 0.000000 1.000000 0.000000
vn 0.000000 1.000000 0.000000
vn 0.000000 1.000000 0.000000
vn 0.997984 -0.038875 0.050173
vn 0.997984 -0.038875 0.050173
vn 0.998170 -0.044862 0.040541
vn 0.998170 -0.044862 0.040541
vn -0.999160 -0.026891 -0.030921
vn -0.999160 -0.026891 -0.030921
vn -0.999284 0.037808 -0.001625
vn -0.999284 0.037808 -0.001625
vn 0.999215 -0.028691 0.027335
vn 0.999215 -0.028691 0.027335
vn 0.999295 0.037425 0.003069
vn 0.999295 0.037425 0.003069
vn -0.998038 0.025499 -0.057183
vn -0.998038 0.025499 -0.057183
vn -0.997952 -0.046549 0.043879
vn -0.997952 -0.046549 0.043879
vn 0.859576 -0.051641 -0.508393
vn 0.856232 -0.014046 -0.516401
vn 0.856232 -0.014046 -0.516401
vn 0.859576 -0.051641 -0.508393
vn 0.845275 -0.012200 0.534193
vn 0.809533 -0.066614 0.583283
vn 0.809533 -0.066614 0.583283
vn 0.845275 -0.012200 0.534193
vn -0.799073 0.034451 0.600246
vn -0.835784 -0.037469 0.547779
vn -0.835784 -0.037469 0.547779
vn -0.799073 0.034451 0.600246
vn -0.853697 0.043120 -0.518982
vn -0.826409 -0.026065 -0.562467
vn -0.826409 -0.026065 -0.562467
vn -0.853697 0.043120 -0.518982
vn 0.824672 0.020600 -0.565236
vn 0.846893 -0.027951 -0.531028
vn 0.846893 -0.027951 -0.531028
vn 0.824672 0.020600 -0.565236
vn 0.856484 0.030681 0.515260
vn 0.834733 -0.004964 0.550632
vn 0.834733 -0.004964 0.550632
vn 0.856484 0.030681 0.515260
vn -0.814160 -0.021864 0.580229
vn -0.889982 0.042756 0.453987
vn -0.889982 0.042756 0.453987
vn -0.814160 -0.021864 0.580229
vn -0.881794 -0.059524 -0.467863
vn -0.844767 0.004093 -0.535118
vn -0.844767 0.004093 -0.535118
vn -0.881794 -0.059524 -0.467863
vn 0.000000 -1.000000 -0.000000
vn 0.000000 -1.000000 -0.000000
vn 0.000000 -1.000000 -0.000000
vn 0.000000 -1.000000 -0.000000
vn 0.000000 1.000000 0.000000
vn 0.000000 1.000000 0.000000
vn 0.000000 1.000000 0.000000
vn 0.000000 1.000000 0.000000
vn 0.000000 1.000000 0.000000
vn 0.000000 1.000000 0.000000
vn 0.000000 1.000000 0.000000
vn 0.000000 1.000000 0.000000
vn 0.000000 1.000000 0.000000
vn 0.000000 1.000000 0.000000
vn 0.000000 1.000000 0.000000
vn 0.000000 1.000000 0.000000
vn 0.000000 1.000000 0.000000
vn 0.000000 1.000000 0.000000
vn 0.000000 1.000000 0.000000
vn 0.000000 1.000000 0.000000
vn 0.000000 1.000000 0.000000
vn 0.000000 1.000000 0.000000
vn 0.000000 1.000000 0.000000
vn 0.000000 1.000000 0.000000
vn 0.000000 1.000000 0.000000
vn 0.000000 1.000000 0.000000
vn 0.000000 1.000000 0.000000
vn 0.000000 1.000000 0.000000
vn 0.000000 1.000000 0.000000
vn 0.000000 1.000000 0.000000
vn 0.000000 1.000000 0.000000
vn 0.000000 1.000000 0.000000
vn 0.000000 -1.000000 0.000000
vn 0.000000 -1.000000 0.000001
vn 0.000000 -1.000000 -0.000000
vn 0.000000 -1.000000 0.000001
vn 0.000000 -1.000000 0.000001
vn 0.000000 -1.000000 -0.000000
vn 0.000000 -1.000000 -0.000000
vn 0.000000 -1.000000 0.000001
vn 0.000000 -1.000000 0.000000
vn 0.000000 -1.000000 -0.000000
vn 0.000000 -1.000000 0.000000
vn 0.000000 -1.000000 0.000000
vn 0.000000 -1.000000 -0.000000
vn 0.000000 -1.000000 -0.000000
vn 0.000000 -1.000000 0.000000
vn 0.000000 -1.000000 0.000001
vn 0.000000 -1.000000 -0.000000
vn 0.000000 -1.000000 0.000001
vn 0.000000 -1.000000 0.000001
vn 0.000000 -1.000000 -0.000000
vn 0.000000 -1.000000 -0.000000
vn 0.000000 -1.000000 0.000001
vn 0.000000 -1.000000 -0.000000
vn 0.000000 -1.000000 -0.000000
vn 0.000000 -1.000000 -0.000000
vn 0.000000 -1.000000 0.000000
vn 0.000000 -1.000000 -0.000000
vn 0.000000 -1.000000 -0.000000
s off
f 1/3/1 2/1/2 10/17/3 9/24/4
f 3/4/5 4/2/6 12/19/7 11/22/8
f 9/24/9 10/17/10 6/9/11 5/16/12
f 11/22/13 12/19/14 8/11/15 7/14/16
f 26/33/17 25/34/18 27/35/19 28/36/20
f 13/7/21 14/5/22 21/18/23 22/21/24
f 15/8/25 16/6/26 23/20/27 24/23/28
f 17/10/29 18/13/30 22/21/31 21/18/32
f 19/12/33 20/15/34 24/23/35 23/20/36
f 10/17/37 2/1/38 13/7/39 22/21/40
f 21/18/41 14/5/42 3/4/43 11/22/44
f 12/19/45 4/2/46 15/8/47 24/23/48
f 23/20/49 16/6/50 1/3/51 9/24/52
f 22/21/53 18/13/54 6/9/55 10/17/56
f 11/22/57 7/14/58 17/10/59 21/18/60
f 24/23/61 20/15/62 8/11/63 12/19/64
f 9/24/65 5/16/66 19/12/67 23/20/68
f 29/37/69 30/38/70 31/39/71 32/40/72
f 2/1/73 1/3/74 25/26/75 26/25/76
f 1/3/77 16/6/78 25/26/79
f 16/6/80 15/8/81 27/27/82 25/26/83
f 15/8/84 4/2/85 27/27/86
f 4/2/87 3/4/88 28/28/89 27/27/90
f 3/4/91 14/5/92 28/28/93
f 14/5/94 13/7/95 26/25/96 28/28/97
f 13/7/98 2/1/99 26/25/100
f 19/12/101 5/16/102 29/29/103
f 5/16/104 6/9/105 30/30/106 29/29/107
f 6/9/108 18/13/109 30/30/110
f 18/13/111 17/10/112 31/31/113 30/30/114
f 17/10/115 7/14/116 31/31/117
f 7/14/118 8/11/119 32/32/120 31/31/121
f 8/11/122 20/15/123 32/32/124
f 20/15/125 19/12/126 29/29/127 32/32/128
