# This file uses centimeters as units for non-parametric coordinates.

v 0.000000 271.436768 11.250000
v 238.750031 271.436768 11.250000
v 233.692307 271.436768 16.307716
v 0.000000 271.436768 16.307716
v 231.160004 277.703033 18.840027
v 0.000000 277.703033 18.840027
v 0.000000 295.374176 11.250000
v 238.750031 295.374176 11.250000
v 223.806244 281.808167 26.193779
v 0.000000 281.808167 26.193779
v 222.951477 285.111206 27.048546
v 0.000000 285.111206 27.048546
v 219.546082 286.799744 30.453941
v 0.000000 286.799744 30.453941
v 0.000000 295.374176 30.453941
v 219.546082 295.374176 30.453941
vt 0.194722 0.127842
vt 0.194012 0.127828
vt 0.194004 0.127855
vt 0.194685 0.127869
vt 0.193990 0.127471
vt 0.194662 0.127483
vt 0.194844 0.126949
vt 0.194146 0.126947
vt 0.194009 0.127408
vt 0.194636 0.127420
vt 0.194006 0.127300
vt 0.194628 0.127311
vt 0.194013 0.127245
vt 0.194614 0.127255
vt 0.194608 0.127092
vt 0.194009 0.127067
vt 0.195884 0.126992
vt 0.195965 0.127025
vt 0.195958 0.126895
vt 0.195937 0.126887
vt 0.195928 0.126916
vt 0.195899 0.126926
vt 0.195896 0.126942
vt 0.195882 0.126945
vt 0.196059 0.127064
vt 0.196139 0.127097
vt 0.196137 0.127050
vt 0.196122 0.127035
vt 0.196118 0.127016
vt 0.196086 0.126981
vt 0.196074 0.126942
vt 0.196053 0.126933
vn 0.000000 -1.000000 0.000000
vn 0.000000 -1.000000 0.000000
vn 0.000000 -1.000000 0.000000
vn 0.000000 -1.000000 0.000000
vn 0.000000 -0.374679 0.927154
vn 0.000000 -0.374679 0.927154
vn 0.000000 -0.374679 0.927154
vn 0.000000 -0.374679 0.927154
vn 0.000000 0.000000 -1.000000
vn 0.000000 0.000000 -1.000000
vn 0.000000 0.000000 -1.000000
vn 0.000000 0.000000 -1.000000
vn 0.000000 -0.873163 0.487429
vn 0.000000 -0.873163 0.487429
vn 0.000000 -0.873163 0.487429
vn 0.000000 -0.873163 0.487429
vn 0.000000 -0.250529 0.968109
vn 0.000000 -0.250529 0.968109
vn 0.000000 -0.250529 0.968109
vn 0.000000 -0.250529 0.968109
vn 0.000000 -0.895912 0.444232
vn 0.000000 -0.895912 0.444232
vn 0.000000 -0.895912 0.444232
vn 0.000000 -0.895912 0.444232
vn 0.000000 1.000000 0.000000
vn 0.000000 1.000000 0.000000
vn 0.000000 1.000000 0.000000
vn 0.000000 1.000000 0.000000
vn 0.000000 0.000000 1.000000
vn 0.000000 0.000000 1.000000
vn 0.000000 0.000000 1.000000
vn 0.000000 0.000000 1.000000
vn -1.000000 0.000000 0.000000
vn -1.000000 0.000000 0.000000
vn -1.000000 0.000000 0.000000
vn -1.000000 0.000000 0.000000
vn 0.707106 -0.000002 0.707107
vn 0.707106 -0.000002 0.707107
vn 0.707106 -0.000002 0.707107
vn 0.707106 -0.000002 0.707107
vn 0.707107 -0.000001 0.707106
vn 0.707107 -0.000001 0.707106
vn 0.707107 -0.000001 0.707106
vn 0.707107 -0.000001 0.707106
vn 0.707107 0.000000 0.707106
vn 0.707107 0.000000 0.707106
vn 0.707107 0.000000 0.707106
vn 0.707107 0.000000 0.707106
vn -1.000000 0.000000 0.000000
vn -1.000000 0.000000 0.000000
vn -1.000000 0.000000 0.000000
vn -1.000000 0.000000 0.000000
vn -1.000000 0.000000 0.000000
vn -1.000000 0.000000 0.000000
vn -1.000000 0.000000 0.000000
vn -1.000000 0.000000 0.000000
s off
f 1/1/1 2/2/2 3/3/3 4/4/4
f 4/4/5 3/3/6 5/5/7 6/6/8
f 7/7/9 8/8/10 2/2/11 1/1/12
f 6/6/13 5/5/14 9/9/15 10/10/16
f 11/11/17 12/12/18 10/10/19 9/9/20
f 13/13/21 14/14/22 12/12/23 11/11/24
f 15/15/25 16/16/26 8/8/27 7/7/28
f 16/16/29 15/15/30 14/14/31 13/13/32
f 12/23/33 7/18/34 6/21/35 10/22/36
f 8/25/37 16/26/38 13/27/39 11/28/40
f 8/25/41 5/30/42 3/31/43 2/32/44
f 8/25/45 11/28/46 9/29/47 5/30/48
f 15/17/49 7/18/50 12/23/51 14/24/52
f 6/21/53 7/18/54 1/19/55 4/20/56
