# This file uses centimeters as units for non-parametric coordinates.

v 0.000000 0.000000 0.000000
v 249.999146 0.000000 0.000000
v 249.999146 300.574280 0.000000
v 0.000000 300.574280 0.000000
v 0.000000 0.000000 -11.250000
v 249.999146 0.000000 -11.250000
v 249.999146 299.999817 -11.250000
v 0.000000 299.999817 -11.250000
v 0.000000 0.000000 8.672949
v 249.999146 0.000000 8.672949
v 249.999146 299.999817 11.250000
v 0.000000 299.999817 11.250000
v 0.000000 262.791077 -11.250000
v 249.999146 262.791077 -11.250000
v 249.999146 262.791077 0.000000
v 249.999146 264.712769 11.250000
v 0.000000 264.712769 11.250000
v 0.000000 262.791229 0.000000
v 0.000000 262.791229 8.672949
v 249.999146 262.791229 8.672949
vt 0.001423 0.972453
vt -0.038908 0.001511
vt 0.001423 0.001434
vt 0.001423 0.998623
vt 0.998542 0.998623
vt 1.038921 0.998605
vt 0.998542 0.028023
vt 0.998542 0.001434
vt 0.998542 0.998623
vt 0.998542 0.972453
vt 0.001423 0.998623
vt -0.038908 0.998605
vt 0.001423 0.998623
vt 0.001423 0.001434
vt 0.001423 0.028023
vt 0.998542 0.001434
vt 0.001423 0.001434
vt 1.038921 0.001511
vt 0.998542 0.001434
vt 0.998542 0.998623
vt -0.038908 0.998605
vt -0.038908 0.001511
vt 0.001423 0.001434
vt 0.001423 0.998623
vt 0.001423 0.972453
vt 0.001423 0.998623
vt 0.998542 0.998623
vt 0.998542 0.972453
vt 0.001423 0.001434
vt 0.001423 0.028023
vt 0.998542 0.028023
vt 0.998542 0.001434
vt 0.998542 0.998623
vt 0.001423 0.998623
vt 0.001423 0.001434
vt 0.998542 0.001434
vt 1.038921 0.998605
vt 0.998542 0.998623
vt 0.998542 0.001434
vt 1.038921 0.001511
vt 0.001423 0.874582
vt 0.001423 0.874942
vt 0.998542 0.874942
vt 0.998542 0.874579
vt 1.038921 0.873627
vt 1.037008 0.873608
vt 0.998542 0.881330
vt 0.998543 0.880968
vt 0.001423 0.880967
vt 0.001423 0.881330
vt -0.038908 0.873629
vt -0.036996 0.873608
vt 0.001423 0.874583
vt 0.001423 0.874943
vt 0.998542 0.874943
vt 0.998543 0.874583
vt 1.038922 0.873884
vt 0.998542 0.874943
vt 0.998543 0.874583
vt 0.001423 0.874583
vt 0.001423 0.874943
vt -0.038908 0.873884
vn 0.000000 0.998699 -0.050998
vn 0.000000 0.998699 -0.050998
vn 0.000000 0.998699 -0.050998
vn 0.000000 0.998699 -0.050998
vn 0.000000 -1.000000 0.000000
vn 0.000000 -1.000000 0.000000
vn 0.000000 -1.000000 0.000000
vn 0.000000 -1.000000 0.000000
vn -1.000000 0.000000 0.000000
vn -1.000000 0.000000 0.000000
vn -1.000000 0.000000 0.000000
vn 0.000000 0.998699 0.050998
vn 0.000000 0.998699 0.050998
vn 0.000000 0.998699 0.050998
vn 0.000000 0.998699 0.050998
vn 0.000000 -1.000000 0.000000
vn 0.000000 -1.000000 0.000000
vn 0.000000 -1.000000 0.000000
vn 0.000000 -1.000000 0.000000
vn 0.000000 -0.801677 0.597758
vn 0.000000 -0.801677 0.597758
vn 0.000000 -0.801677 0.597758
vn 0.000000 -0.801677 0.597758
vn 1.000000 -0.000013 0.000000
vn 1.000000 -0.000013 0.000000
vn 1.000000 -0.000013 0.000000
vn 0.000000 0.000000 -1.000000
vn 0.000000 0.000000 -1.000000
vn 0.000000 0.000000 -1.000000
vn 0.000000 0.000000 -1.000000
vn 1.000000 0.000000 0.000000
vn 1.000000 0.000000 0.000000
vn 1.000000 0.000000 0.000000
vn 1.000000 0.000000 0.000000
vn 1.000000 0.000000 0.000000
vn 1.000000 0.000000 0.000000
vn 1.000000 0.000000 0.000000
vn 1.000000 0.000000 0.000000
vn 0.000000 0.000000 1.000000
vn 0.000000 0.000000 1.000000
vn 0.000000 0.000000 1.000000
vn 0.000000 0.000000 1.000000
vn -1.000000 0.000000 0.000000
vn -1.000000 0.000000 0.000000
vn -1.000000 0.000000 0.000000
vn -1.000000 0.000000 0.000000
vn -1.000000 0.000000 0.000000
vn -1.000000 0.000000 0.000000
vn -1.000000 0.000000 0.000000
vn -1.000000 0.000000 0.000000
vn -1.000000 0.000000 0.000000
vn -1.000000 0.000000 0.000000
vn -1.000000 0.000000 0.000000
vn -1.000000 0.000000 0.000000
vn 0.000000 0.000000 1.000000
vn 0.000000 0.000000 1.000000
vn 0.000000 0.000000 1.000000
vn 0.000000 0.000000 1.000000
vn 1.000000 0.000000 0.000000
vn 1.000000 0.000000 0.000000
vn 1.000000 0.000000 0.000000
vn 1.000000 0.000000 0.000000
vn 1.000000 0.000000 0.000000
vn 1.000000 0.000000 0.000000
vn 1.000000 0.000000 0.000000
vn 1.000000 0.000000 0.000000
vn 0.000000 0.000000 -1.000000
vn 0.000000 0.000000 -1.000000
vn 0.000000 0.000000 -1.000000
vn 0.000000 0.000000 -1.000000
vn -1.000000 0.000000 0.000000
vn -1.000000 0.000000 0.000000
vn -1.000000 0.000000 0.000000
vn -1.000000 0.000000 0.000000
s off
f 4/1/1 3/10/2 7/9/3 8/11/4
f 5/3/5 6/16/6 2/7/7 1/15/8
f 17/49/9 18/52/10 19/60/11
f 4/25/12 12/26/13 11/27/14 3/28/15
f 9/29/16 1/30/17 2/31/18 10/32/19
f 16/47/20 17/50/21 19/61/22 20/58/23
f 15/46/24 16/48/25 20/59/26
f 7/5/27 14/43/28 13/42/29 8/4/30
f 3/6/31 15/45/32 14/44/33 7/20/34
f 3/37/35 11/38/36 16/48/37 15/46/38
f 11/33/39 12/34/40 17/50/41 16/47/42
f 4/21/43 18/52/44 17/49/45 12/24/46
f 4/12/47 8/13/48 13/41/49 18/51/50
f 19/53/51 18/62/52 1/22/53 9/23/54
f 20/55/55 19/54/56 9/35/57 10/36/58
f 15/57/59 20/56/60 10/39/61 2/40/62
f 14/44/63 15/45/64 2/18/65 6/8/66
f 13/42/67 14/43/68 6/19/69 5/17/70
f 18/51/71 13/41/72 5/14/73 1/2/74
