# This file uses centimeters as units for non-parametric coordinates.

v 0.000000 0.000000 -11.250000
v 249.999146 0.000000 -11.250000
v 249.999146 0.000000 0.000000
v 0.000000 0.000000 0.000000
v 0.000000 262.791229 0.000000
v 0.000000 262.791077 -11.250000
v 0.000000 0.000000 8.672949
v 249.999146 0.000000 8.672949
v 0.000000 262.791229 8.672949
v 0.000000 264.712769 11.250000
v 0.000000 300.574280 0.000000
v 0.000000 299.999817 -11.250000
v 53.218765 207.545197 -11.250000
v 53.218765 256.885437 -11.250000
v 53.218765 256.885437 8.672949
v 53.218765 207.545197 8.672949
v 0.000000 299.999817 11.250000
v 249.999146 262.791077 0.000000
v 249.999146 264.712769 11.250000
v 249.999146 262.791229 8.672949
v 196.781235 207.545197 -11.250000
v 196.781235 207.545197 8.672949
v 249.999146 262.791077 -11.250000
v 196.781235 256.885437 8.672949
v 196.781235 256.885437 -11.250000
v 249.999146 299.999817 -11.250000
v 249.999146 299.999817 11.250000
v 249.999146 300.574280 0.000000
v 61.518764 215.845200 -13.510194
v 61.518764 248.585434 -13.510194
v 61.518764 248.585434 10.933143
v 61.518764 215.845200 10.933143
v 188.481232 215.845200 -13.510194
v 188.481232 215.845200 10.933143
v 188.481232 248.585434 10.933143
v 188.481232 248.585434 -13.510194
v 55.842587 209.345200 -13.510194
v 55.018764 255.085434 -13.510194
v 55.878708 254.305542 10.933143
v 55.018764 209.345200 10.933143
v 194.981232 209.345200 -13.510194
v 194.981232 210.105331 10.933143
v 194.981232 255.085434 10.933143
v 194.981232 255.085434 -13.510194
v 103.965599 210.314178 10.933143
v 102.492729 215.845184 10.933143
v 156.897369 209.345200 10.933143
v 163.835648 215.845200 10.933143
v 155.916885 207.545197 8.672949
v 103.454170 207.545197 8.672949
v 80.894882 255.085434 10.933142
v 81.107925 256.885437 8.672949
v 144.923859 256.885437 8.672949
v 142.072449 254.365616 10.933143
v 141.749146 248.585434 10.933143
v 188.481232 232.826874 10.933143
v 194.252289 233.639343 10.933143
v 196.781235 235.387604 8.672949
v 125.633163 248.585434 -13.510194
v 122.516647 254.131256 -13.510194
v 121.266945 256.885437 -11.250000
v 188.481232 238.565613 -13.510194
v 191.403809 229.814163 -13.510194
v 188.481232 231.008972 -7.883599
v 97.323700 215.845215 -11.426650
v 97.699203 209.345200 -13.510195
v 160.155716 209.345184 -13.510194
v 153.437546 215.845200 -13.510194
vt 0.001423 0.001434
vt 0.998542 0.001434
vt 0.998542 0.028023
vt 0.001423 0.028023
vt -0.038908 0.873714
vt 0.001423 0.874798
vt -0.038908 0.001511
vt 0.001423 0.001434
vt 0.998542 0.001434
vt 0.001423 0.874799
vt 0.001423 0.881149
vt -0.036996 0.873608
vt -0.038908 0.998605
vt 0.001423 0.998623
vt 0.152060 0.128105
vt 0.152029 0.127360
vt 0.151927 0.127475
vt 0.151960 0.128240
vt 0.001423 0.998623
vt 1.037008 0.873608
vt 0.998543 0.881149
vt 0.998543 0.874799
vt 0.151305 0.128090
vt 0.151183 0.128224
vt 0.998542 0.874797
vt 1.038921 0.873712
vt 1.038921 0.001511
vt 0.151139 0.127462
vt 0.151264 0.127348
vt 0.998542 0.998623
vt 0.998542 0.998623
vt 0.001423 0.972453
vt 0.998542 0.972453
vt 1.038921 0.998605
vt 0.786283 0.855312
vt 0.213685 0.855312
vt 0.213685 0.691307
vt 0.786283 0.691307
vt 0.213685 0.691307
vt 0.213685 0.855312
vt 0.786283 0.855312
vt 0.786283 0.691307
vt -0.038908 0.998605
vt 0.001423 0.972453
vt 0.998542 0.972453
vt 1.038921 0.998605
vt 0.001423 0.874799
vt 0.998543 0.874799
vt 1.038921 0.873712
vt 0.998542 0.028023
vt 1.038921 0.001511
vt 0.001423 0.028023
vt -0.038908 0.001511
vt -0.038908 0.873714
vt 0.152060 0.128105
vt 0.152029 0.127360
vt 0.151927 0.127475
vt 0.151960 0.128240
vt 0.151305 0.128090
vt 0.151183 0.128224
vt 0.151139 0.127462
vt 0.151264 0.127348
vt 0.152060 0.128105
vt 0.152029 0.127360
vt 0.151927 0.127475
vt 0.151960 0.128240
vt 0.151305 0.128090
vt 0.151183 0.128224
vt 0.151139 0.127462
vt 0.151264 0.127348
vt 0.151689 0.128234
vt 0.151710 0.128235
vt 0.151395 0.128228
vt 0.151334 0.128227
vt 0.151405 0.128229
vt 0.623296 0.691307
vt 0.151689 0.128234
vt 0.414049 0.691307
vt 0.151781 0.127472
vt 0.151773 0.127472
vt 0.324921 0.855312
vt 0.151423 0.127466
vt 0.579450 0.855312
vt 0.151437 0.127467
vt 0.151429 0.127466
vt 0.151160 0.127829
vt 0.151160 0.127819
vt 0.151158 0.127794
vt 0.786283 0.783854
vt 0.151642 0.127354
vt 0.151660 0.127354
vt 0.151666 0.127354
vt 0.485095 0.855312
vt 0.151276 0.127575
vt 0.151284 0.127707
vt 0.151258 0.127775
vt 0.151847 0.128101
vt 0.151830 0.128100
vt 0.151493 0.128094
vt 0.151514 0.128094
vn 0.000000 -1.000000 0.000000
vn 0.000000 -1.000000 0.000000
vn 0.000000 -1.000000 0.000000
vn 0.000000 -1.000000 0.000000
vn -1.000000 0.000000 0.000000
vn -1.000000 0.000000 0.000000
vn -1.000000 0.000000 0.000000
vn -1.000000 0.000000 0.000000
vn 0.000000 -1.000000 0.000000
vn 0.000000 -1.000000 0.000000
vn 0.000000 -1.000000 0.000000
vn 0.000000 -1.000000 0.000000
vn -1.000000 0.000000 0.000000
vn -1.000000 0.000000 0.000000
vn -1.000000 0.000000 0.000000
vn -1.000000 0.000000 0.000000
vn -1.000000 0.000000 0.000000
vn -1.000000 0.000000 0.000000
vn -1.000000 0.000000 0.000000
vn -1.000000 0.000000 0.000000
vn -1.000000 0.000000 0.000000
vn -1.000000 0.000000 0.000000
vn -1.000000 0.000000 0.000000
vn 1.000000 0.000000 0.000000
vn 1.000000 0.000000 0.000000
vn 1.000000 0.000000 0.000000
vn 1.000000 0.000000 0.000000
vn -1.000000 0.000000 0.000000
vn -1.000000 0.000000 0.000000
vn -1.000000 0.000000 0.000000
vn -1.000000 0.000000 0.000000
vn 1.000000 -0.000029 0.000000
vn 1.000000 -0.000029 0.000000
vn 1.000000 -0.000029 0.000000
vn -0.000000 1.000000 0.000001
vn -0.000000 1.000000 0.000001
vn -0.000000 1.000000 0.000001
vn -0.000000 1.000000 0.000001
vn 1.000000 0.000000 0.000000
vn 1.000000 0.000000 0.000000
vn 1.000000 0.000000 0.000000
vn 1.000000 0.000000 0.000000
vn 0.000000 -1.000000 0.000000
vn 0.000000 -1.000000 0.000000
vn 0.000000 -1.000000 0.000000
vn 0.000000 -1.000000 0.000000
vn 1.000000 0.000000 0.000000
vn 1.000000 0.000000 0.000000
vn 1.000000 0.000000 0.000000
vn 1.000000 0.000000 0.000000
vn 0.000000 0.000000 -1.000000
vn 0.000000 0.000000 -1.000000
vn 0.000000 0.000000 -1.000000
vn 0.000000 0.000000 -1.000000
vn 0.000000 -0.801677 0.597758
vn 0.000000 -0.801677 0.597758
vn 0.000000 -0.801677 0.597758
vn 0.000000 -0.801677 0.597758
vn 0.000000 0.000000 1.000000
vn 0.000000 0.000000 1.000000
vn 0.000000 0.000000 1.000000
vn 0.000000 0.000000 1.000000
vn 0.000000 0.998699 -0.050998
vn 0.000000 0.998699 -0.050998
vn 0.000000 0.998699 -0.050998
vn 0.000000 0.998699 -0.050998
vn -1.000000 0.000000 0.000000
vn -1.000000 0.000000 0.000000
vn -1.000000 0.000000 0.000000
vn -1.000000 0.000000 0.000000
vn 0.000000 0.998699 0.050998
vn 0.000000 0.998699 0.050998
vn 0.000000 0.998699 0.050998
vn 0.000000 0.998699 0.050998
vn 1.000000 0.000000 0.000000
vn 1.000000 0.000000 0.000000
vn 1.000000 0.000000 0.000000
vn 1.000000 0.000000 0.000000
vn 1.000000 0.000000 0.000000
vn 1.000000 0.000000 0.000000
vn 1.000000 0.000000 0.000000
vn 1.000000 0.000000 0.000000
vn 0.000000 0.000000 -1.000000
vn 0.000000 0.000000 -1.000000
vn 0.000000 0.000000 -1.000000
vn 0.000000 0.000000 -1.000000
vn 0.000000 0.000000 -1.000000
vn 0.000000 0.000000 1.000000
vn 0.000000 0.000000 1.000000
vn 0.000000 0.000000 1.000000
vn 0.000000 0.000000 1.000000
vn 0.000000 0.000000 1.000000
vn 0.000000 0.000000 1.000000
vn 0.000000 0.000000 1.000000
vn 0.000000 0.000000 1.000000
vn 0.000000 0.000000 1.000000
vn 0.000000 0.000000 1.000000
vn 0.000000 0.000000 1.000000
vn -0.000000 0.000000 1.000000
vn -0.000000 0.000000 1.000000
vn -0.000000 0.000000 1.000000
vn -0.000000 0.000000 1.000000
vn 0.000000 0.000000 1.000000
vn 0.000000 0.000000 1.000000
vn 0.000000 0.000000 1.000000
vn 0.000000 0.000000 1.000000
vn 0.000000 0.000000 1.000000
vn 0.000000 0.000000 1.000000
vn 0.000000 0.000000 -1.000000
vn 0.000000 0.000000 -1.000000
vn 0.000000 0.000000 -1.000000
vn 0.000000 0.000000 -1.000000
vn 0.000000 0.000000 -1.000000
vn 0.000000 0.000000 -1.000000
vn 0.000000 0.000000 -1.000000
vn 0.000000 0.000000 -1.000000
vn 0.000000 0.000000 -1.000000
vn 0.000000 0.000000 -1.000000
vn 0.000000 0.000000 -1.000000
vn 0.000000 0.000000 -1.000000
vn -0.000000 0.000000 -1.000000
vn -0.000000 0.000000 -1.000000
vn -0.000000 0.000000 -1.000000
vn -0.000000 0.000000 -1.000000
vn 0.000000 0.000000 1.000000
vn 0.000000 0.000000 1.000000
vn 0.000000 0.000000 1.000000
vn 0.000000 0.000000 1.000000
vn 0.026525 0.147643 -0.988685
vn 0.026525 0.147643 -0.988685
vn 0.026525 0.147643 -0.988685
vn 0.026525 0.147643 -0.988685
vn 0.000000 0.000000 1.000000
vn 0.000000 0.000000 1.000000
vn 0.000000 0.000000 1.000000
vn 0.000000 0.000000 1.000000
vn 0.000000 0.000000 1.000000
vn 0.000000 0.000000 1.000000
vn 0.000000 0.000000 1.000000
vn 0.000000 0.000000 -1.000000
vn 0.000000 0.000000 -1.000000
vn 0.000000 0.000000 -1.000000
vn 0.000000 0.000000 -1.000000
vn 0.000000 0.000000 1.000000
vn 0.000000 0.000000 1.000000
vn 0.000000 0.000000 1.000000
vn 0.000000 0.000000 1.000000
vn -0.000000 0.000000 -1.000000
vn -0.000000 0.000000 -1.000000
vn -0.000000 0.000000 -1.000000
vn -0.000000 0.000000 -1.000000
vn -0.714686 -0.006192 -0.699418
vn -0.714686 -0.006192 -0.699418
vn -0.714686 -0.006192 -0.699418
vn -0.714686 -0.006192 -0.699418
vn -0.711275 0.006486 0.702884
vn -0.711275 0.006486 0.702884
vn -0.711275 0.006486 0.702884
vn -0.711275 0.006486 0.702884
vn -0.000000 -0.782244 -0.622972
vn -0.000000 -0.782244 -0.622972
vn -0.000000 -0.782244 -0.622972
vn 0.006924 -0.719105 0.694867
vn 0.006924 -0.719105 0.694867
vn 0.006924 -0.719105 0.694867
vn 0.006924 -0.719105 0.694867
vn -0.010544 0.715280 0.698759
vn -0.010544 0.715280 0.698759
vn -0.010544 0.715280 0.698759
vn -0.010544 0.715280 0.698759
vn -0.004544 0.704737 -0.709454
vn -0.004544 0.704737 -0.709454
vn -0.004544 0.704737 -0.709454
vn -0.004544 0.704737 -0.709454
vn 0.727001 -0.012340 0.686526
vn 0.727001 -0.012340 0.686526
vn 0.727001 -0.012340 0.686526
vn 0.727001 -0.012340 0.686526
vn 0.782243 0.000000 -0.622973
vn 0.782243 0.000000 -0.622973
vn 0.782243 0.000000 -0.622973
vn 0.782243 0.000000 -0.622973
vn -0.000000 0.000000 1.000000
vn -0.000000 0.000000 1.000000
vn -0.000000 0.000000 1.000000
vn -0.000000 0.000000 1.000000
vn 0.000000 0.000000 1.000000
vn 0.000000 0.000000 1.000000
vn 0.000000 0.000000 1.000000
vn 0.000000 0.000000 1.000000
vn -0.006456 -0.702238 0.711913
vn -0.006456 -0.702238 0.711913
vn -0.006456 -0.702238 0.711913
vn -0.006456 -0.702238 0.711913
vn 0.006888 -0.705059 0.709116
vn 0.006888 -0.705059 0.709116
vn 0.006888 -0.705059 0.709116
vn 0.006888 -0.705059 0.709116
vn 0.000000 0.000000 1.000000
vn 0.000000 0.000000 1.000000
vn 0.000000 0.000000 1.000000
vn 0.000000 0.000000 1.000000
vn -0.004985 0.725512 0.688191
vn -0.004985 0.725512 0.688191
vn -0.004985 0.725512 0.688191
vn -0.004985 0.725512 0.688191
vn 0.004155 0.721546 0.692354
vn 0.004155 0.721546 0.692354
vn 0.004155 0.721546 0.692354
vn 0.004155 0.721546 0.692354
vn -0.000000 0.000000 1.000000
vn -0.000000 0.000000 1.000000
vn -0.000000 0.000000 1.000000
vn -0.000000 0.000000 1.000000
vn -0.000000 0.000000 1.000000
vn -0.000000 0.000000 1.000000
vn -0.000000 0.000000 1.000000
vn -0.000000 0.000000 1.000000
vn 0.723117 0.010260 0.690650
vn 0.723117 0.010260 0.690650
vn 0.723117 0.010260 0.690650
vn 0.723117 0.010260 0.690650
vn 0.000000 -1.000000 0.000001
vn 0.000000 -1.000000 0.000001
vn 0.000000 -1.000000 0.000001
vn 0.000000 -1.000000 0.000001
vn 0.000000 0.000000 -1.000000
vn 0.000000 0.000000 -1.000000
vn 0.000000 0.000000 -1.000000
vn 0.000000 0.000000 -1.000000
vn 0.004971 0.706136 -0.708059
vn 0.004971 0.706136 -0.708059
vn 0.004971 0.706136 -0.708059
vn 0.004971 0.706136 -0.708059
vn -0.872811 -0.291477 -0.391461
vn -0.872811 -0.291477 -0.391461
vn -0.872811 -0.291477 -0.391461
vn -0.000000 0.000000 -1.000000
vn -0.000000 0.000000 -1.000000
vn -0.000000 0.000000 -1.000000
vn -0.856958 0.179291 -0.483195
vn -0.856958 0.179291 -0.483195
vn -0.856958 0.179291 -0.483195
vn -1.000000 0.000000 0.000000
vn -1.000000 0.000000 0.000000
vn -1.000000 0.000000 0.000000
vn -1.000000 0.000000 0.000000
vn 0.000000 0.000000 -1.000000
vn 0.000000 0.000000 -1.000000
vn 0.000000 0.000000 -1.000000
vn -1.000000 0.000000 0.000000
vn -1.000000 0.000000 0.000000
vn -1.000000 0.000000 0.000000
vn 0.000000 1.000000 0.000000
vn 0.000000 1.000000 0.000000
vn 0.000000 1.000000 0.000000
vn 0.000000 1.000000 0.000000
vn 0.000000 0.000000 -1.000000
vn 0.000000 0.000000 -1.000000
vn 0.000000 0.000000 -1.000000
vn 0.000000 0.000000 -1.000000
vn 0.000000 -0.782242 -0.622974
vn 0.000000 -0.782242 -0.622974
vn 0.000000 -0.782242 -0.622974
vn -0.000000 -0.782249 -0.622966
vn -0.000000 -0.782249 -0.622966
vn -0.000000 -0.782249 -0.622966
vn -0.000000 -0.782249 -0.622966
vn -0.017373 0.148978 -0.988688
vn -0.017373 0.148978 -0.988688
vn -0.017373 0.148978 -0.988688
vn -0.017373 0.148978 -0.988688
vn 0.000000 1.000000 0.000001
vn 0.000000 1.000000 0.000001
vn 0.000000 1.000000 0.000001
vn 0.000000 1.000000 0.000001
s off
f 1/1/1 2/2/2 3/3/3 4/52/4
f 5/54/5 6/6/6 1/1/7 4/7/8
f 7/8/9 4/4/10 3/50/11 8/9/12
f 9/10/13 5/5/14 4/53/15 7/8/16
f 10/11/17 5/12/18 9/47/19
f 11/43/20 12/14/21 6/6/22 5/54/23
f 29/55/24 30/56/25 31/57/26 32/58/27
f 11/13/28 5/12/29 10/11/30 17/19/31
f 18/20/32 19/21/33 20/48/34
f 46/72/35 65/97/36 29/55/37 32/58/38
f 23/25/39 18/26/40 3/27/41 2/2/42
f 35/61/43 55/85/44 59/90/45 36/62/46
f 18/49/47 20/22/48 8/9/49 3/51/50
f 26/30/51 23/25/52 6/6/53 12/14/54
f 19/21/55 10/11/56 9/47/57 20/48/58
f 27/31/59 17/19/60 10/11/61 19/21/62
f 11/44/63 28/45/64 26/30/65 12/14/66
f 64/96/67 35/61/68 36/62/69 62/94/70
f 11/32/71 17/19/72 27/31/73 28/33/74
f 28/46/75 18/26/76 23/25/77 26/30/78
f 28/34/79 27/31/80 19/21/81 18/20/82
f 25/35/83 61/93/84 14/36/85 6/6/86 23/25/87
f 22/38/88 8/9/89 20/22/90 24/41/91 58/89/92
f 20/22/93 9/10/94 15/40/95 52/81/96 53/83/97 24/41/98
f 9/10/99 7/8/100 16/39/101 15/40/102
f 8/9/103 22/38/104 49/76/105 50/78/106 16/39/107 7/8/108
f 2/2/109 21/42/110 25/35/111 23/25/112
f 1/1/113 13/37/114 21/42/115 2/2/116
f 6/6/117 14/36/118 13/37/119 1/1/120
f 37/63/121 38/64/122 30/56/123 29/55/124
f 39/65/125 40/66/126 32/58/127 31/57/128
f 65/97/129 66/98/130 37/63/131 29/55/132
f 40/66/133 45/71/134 46/72/135 32/58/136
f 31/57/137 51/79/138 39/65/139
f 59/90/140 60/91/141 44/70/142 36/62/143
f 56/86/144 57/87/145 43/69/146 35/61/147
f 44/70/148 63/95/149 62/94/150 36/62/151
f 13/15/152 14/16/153 38/64/154 37/63/155
f 15/17/156 16/18/157 40/66/158 39/65/159
f 66/98/160 13/15/161 37/63/162
f 47/73/163 49/75/164 22/24/165 42/68/166
f 51/79/167 52/80/168 15/17/169 39/65/170
f 60/91/171 61/92/172 25/29/173 44/70/174
f 57/87/175 58/88/176 24/28/177 43/69/178
f 25/29/179 21/23/180 41/67/181 44/70/182
f 46/72/183 45/71/184 47/73/185 48/74/186
f 48/74/187 47/73/188 42/68/189 34/60/190
f 45/71/191 50/77/192 49/75/193 47/73/194
f 16/18/195 50/77/196 45/71/197 40/66/198
f 43/69/199 54/84/200 55/85/201 35/61/202
f 24/28/203 53/82/204 54/84/205 43/69/206
f 54/84/207 53/82/208 52/80/209 51/79/210
f 55/85/211 54/84/212 51/79/213 31/57/214
f 42/68/215 57/87/216 56/86/217 34/60/218
f 22/24/219 58/88/220 57/87/221 42/68/222
f 59/90/223 55/85/224 31/57/225 30/56/226
f 38/64/227 60/91/228 59/90/229 30/56/230
f 14/16/231 61/92/232 60/91/233 38/64/234
f 62/94/235 63/95/236 64/96/237
f 63/95/238 41/67/239 33/59/240
f 64/96/241 63/95/242 33/59/243
f 34/60/244 56/86/245 64/96/246 33/59/247
f 44/70/248 41/67/249 63/95/250
f 64/96/251 56/86/252 35/61/253
f 33/59/254 68/100/255 48/74/256 34/60/257
f 41/67/258 67/99/259 68/100/260 33/59/261
f 21/23/262 67/99/263 41/67/264
f 21/23/265 13/15/266 66/98/267 67/99/268
f 68/100/269 67/99/270 66/98/271 65/97/272
f 48/74/273 68/100/274 65/97/275 46/72/276
v 56.509560 257.413849 0.000000
v 56.509560 209.315613 0.000000
v 193.490433 209.391785 0.000000
v 193.490433 257.413849 0.000000
v 56.509560 257.413849 0.000000
v 56.509560 209.315613 0.000000
v 193.490433 209.391785 0.000000
v 193.490433 257.413849 0.000000
vt -0.000000 0.800644
vt -0.000000 0.199356
vt 1.000000 0.200308
vt 1.000000 0.800644
vt -0.000000 0.800644
vt 1.000000 0.800644
vt 1.000000 0.200308
vt -0.000000 0.199356
vn 0.000000 0.000000 1.000000
vn 0.000000 0.000000 1.000000
vn 0.000000 0.000000 1.000000
vn 0.000000 0.000000 1.000000
vn 0.000000 0.000000 -1.000000
vn 0.000000 0.000000 -1.000000
vn 0.000000 0.000000 -1.000000
vn 0.000000 0.000000 -1.000000
s off
f 69/101/277 70/102/278 71/103/279 72/104/280
f 73/105/281 76/106/282 75/107/283 74/108/284
