# This file uses centimeters as units for non-parametric coordinates.

v 14.669586 0.000000 14.669540
v -14.669540 0.000000 -14.669724
v 14.669586 300.574280 14.669540
v -14.669540 300.574280 -14.669724
v 7.855988 300.574280 14.669540
v 9.387604 300.574280 13.798239
v 10.919220 300.574280 14.669540
v 0.000015 300.574249 -0.000092
v 7.855988 0.000000 14.669540
v 9.387604 0.000000 13.798239
v 10.919220 0.000000 14.669540
v 0.000015 0.000000 -0.000092
v -14.669540 0.000000 -7.856053
v -13.714630 0.000000 -9.387673
v -14.669540 0.000000 -10.919294
v -7.855942 0.000000 -14.669724
v -9.387558 0.000000 -13.798422
v -10.919174 0.000000 -14.669724
v 14.669586 0.000000 7.855870
v 13.714676 0.000000 9.387490
v 14.669586 0.000000 10.919111
v -7.855942 300.574280 -14.669724
v -9.387558 300.574280 -13.798422
v -10.919174 300.574280 -14.669724
v -14.669540 300.574280 -7.856053
v -13.714630 300.574280 -9.387673
v -14.669540 300.574280 -10.919294
v 14.669586 300.574280 7.855870
v 13.714676 300.574280 9.387490
v 14.669586 300.574280 10.919111
v -13.092911 0.000000 14.669540
v -14.669540 0.000000 13.092914
v -14.669540 300.574280 13.092914
v -13.092911 300.574280 14.669540
v 14.669586 0.000000 -13.093097
v 13.092957 0.000000 -14.669724
v 13.092957 300.574280 -14.669724
v 14.669586 300.574280 -13.093097
v 14.669586 263.176483 14.669540
v -14.669540 214.257614 -14.669724
v 10.455139 259.309204 14.669540
v 7.855988 256.150452 14.669540
v -14.669540 216.643570 -10.919294
v -14.669540 218.592346 -6.762659
v -7.855942 221.283630 -14.669724
v -10.919174 218.124893 -14.669724
v 14.669586 260.790497 10.919111
v 14.669586 258.841766 7.855870
v 9.387604 257.175537 13.798239
v -9.387558 220.258560 -13.798422
v -13.714630 218.602631 -9.387673
v 13.714676 258.831451 9.387491
v -14.669540 233.485748 11.983896
v -13.092911 234.548431 14.669540
v 14.669586 245.514450 -13.093097
v 13.092957 242.885651 -14.669724
v 14.669586 108.135490 14.046700
v -14.669540 97.553062 -14.669724
v 10.919220 110.849335 14.669540
v -14.669540 104.941193 -7.856053
v -10.919174 94.839218 -14.669724
v 14.669586 100.747368 7.855870
v -9.387558 94.675667 -13.798422
v -13.714630 102.589455 -9.387673
v 13.714676 103.099098 9.387491
v -14.669540 127.656372 13.092914
v 14.669586 78.032188 -13.093098
v 5.997482 113.524223 14.669540
v -14.669540 100.316986 -11.083710
v -7.855942 92.622566 -14.669724
v 14.669586 104.068832 10.919111
v 7.823471 111.471138 13.798239
v -11.264923 134.127335 14.669540
v 11.425629 76.751320 -14.669724
vt 0.194671 0.127785
vt 0.194601 0.127791
vt 0.194594 0.127793
vt 0.194608 0.128737
vt 0.194614 0.128736
vt 0.194656 0.128714
vt 0.194696 0.128698
vt 0.194699 0.128690
vt 0.194705 0.128689
vt 0.194741 0.127779
vt 0.194747 0.127778
vt 0.194597 0.128733
vt 0.194588 0.127798
vt 0.194604 0.127800
vt 0.194716 0.128692
vt 0.194712 0.128700
vt 0.194752 0.127773
vt 0.194736 0.127771
vt 0.194601 0.128725
vt 0.194612 0.127800
vt 0.194708 0.128703
vt 0.194729 0.127771
vt 0.194606 0.128722
vt 0.194618 0.128739
vt 0.194743 0.127782
vt 0.194695 0.128686
vt 0.194599 0.127788
vt 0.194709 0.128707
vt 0.194688 0.128755
vt 0.194617 0.127801
vt 0.194706 0.127813
vt 0.194605 0.128718
vt 0.194628 0.128672
vt 0.194724 0.127769
vt 0.194639 0.127759
vt 0.194681 0.128757
vt 0.194715 0.127811
vt 0.194634 0.128670
vt 0.194631 0.127761
vt 0.194589 0.127914
vt 0.194741 0.128037
vt 0.194604 0.127928
vt 0.194617 0.127940
vt 0.194737 0.128035
vt 0.194734 0.128034
vt 0.194716 0.128011
vt 0.194727 0.128023
vt 0.194595 0.127916
vt 0.194600 0.127918
vt 0.194612 0.127935
vt 0.194721 0.128017
vt 0.194732 0.128031
vt 0.194601 0.127920
vt 0.194709 0.128027
vt 0.194700 0.128020
vt 0.194630 0.127928
vt 0.194638 0.127934
vt 0.194594 0.128397
vt 0.194727 0.128394
vt 0.194607 0.128391
vt 0.194721 0.128384
vt 0.194714 0.128399
vt 0.194603 0.128406
vt 0.194708 0.128400
vt 0.194719 0.128388
vt 0.194604 0.128403
vt 0.194699 0.128354
vt 0.194629 0.128435
vt 0.194617 0.128386
vt 0.194724 0.128388
vt 0.194704 0.128404
vt 0.194599 0.128402
vt 0.194613 0.128390
vt 0.194692 0.128354
vt 0.194635 0.128435
vn -0.000002 1.000000 0.000000
vn -0.000002 1.000000 0.000000
vn -0.000002 1.000000 0.000000
vn -0.000004 1.000000 0.000000
vn -0.000004 1.000000 0.000000
vn -0.000004 1.000000 0.000000
vn 0.000001 1.000000 0.000000
vn 0.000001 1.000000 0.000000
vn 0.000001 1.000000 0.000000
vn 0.000001 1.000000 0.000000
vn 0.000001 1.000000 0.000000
vn 0.000001 1.000000 0.000000
vn 0.000001 1.000000 0.000000
vn 0.000000 -1.000000 0.000000
vn 0.000000 -1.000000 0.000000
vn 0.000000 -1.000000 0.000000
vn 0.000000 -1.000000 0.000000
vn 0.000000 -1.000000 0.000000
vn 0.000000 -1.000000 0.000000
vn 0.000000 -1.000000 0.000000
vn 0.000000 -1.000000 0.000000
vn 0.000000 -1.000000 0.000000
vn 0.000000 -1.000000 0.000000
vn 0.000000 -1.000000 0.000000
vn 0.000000 -1.000000 0.000000
vn 0.000002 1.000000 0.000000
vn 0.000002 1.000000 0.000000
vn 0.000002 1.000000 0.000000
vn 0.000004 1.000000 0.000000
vn 0.000004 1.000000 0.000000
vn 0.000004 1.000000 0.000000
vn 0.083770 0.002834 0.996481
vn 0.083770 0.002834 0.996481
vn 0.083770 0.002834 0.996481
vn 0.083770 0.002834 0.996481
vn -1.000000 0.000000 0.000000
vn -1.000000 0.000000 0.000000
vn -1.000000 0.000000 0.000000
vn -1.000000 0.000000 0.000000
vn 0.000000 -1.000000 0.000000
vn 0.000000 -1.000000 0.000000
vn 0.000000 -1.000000 0.000000
vn 0.000000 -1.000000 0.000000
vn 0.000000 0.000000 -1.000000
vn 0.000000 0.000000 -1.000000
vn 0.000000 0.000000 -1.000000
vn 0.000000 0.000000 -1.000000
vn 0.000001 1.000000 -0.000003
vn 0.000001 1.000000 -0.000003
vn 0.000001 1.000000 -0.000003
vn 0.000001 1.000000 -0.000003
vn -0.000001 1.000000 0.000007
vn -0.000001 1.000000 0.000007
vn -0.000001 1.000000 0.000007
vn -0.000001 1.000000 0.000007
vn 1.000000 -0.000000 0.000000
vn 1.000000 -0.000000 0.000000
vn 1.000000 -0.000000 0.000000
vn 1.000000 -0.000000 0.000000
vn 0.000000 -1.000000 0.000000
vn 0.000000 -1.000000 0.000000
vn 0.000000 -1.000000 0.000000
vn 0.000000 -1.000000 0.000000
vn -0.000001 1.000000 0.000000
vn -0.000001 1.000000 0.000000
vn -0.000001 1.000000 0.000000
vn 0.000002 1.000000 0.000000
vn 0.000002 1.000000 0.000000
vn 0.000002 1.000000 0.000000
vn 0.000000 0.000000 1.000000
vn 0.000000 0.000000 1.000000
vn 0.000000 0.000000 1.000000
vn 0.000000 0.000000 1.000000
vn -0.558604 0.003062 0.829429
vn -0.558604 0.003062 0.829429
vn -0.558604 0.003062 0.829429
vn -0.558604 0.003062 0.829429
vn 0.494465 0.000000 0.869197
vn 0.494465 0.000000 0.869197
vn 0.494465 0.000000 0.869197
vn 0.494465 0.000000 0.869197
vn -1.000000 0.000000 0.000000
vn -1.000000 0.000000 0.000000
vn -1.000000 0.000000 0.000000
vn -1.000000 0.000000 0.000000
vn 0.000000 -1.000000 0.000000
vn 0.000000 -1.000000 0.000000
vn 0.000000 -1.000000 0.000000
vn 0.000000 -1.000000 0.000000
vn 0.000000 -1.000000 0.000000
vn 0.000000 -1.000000 0.000000
vn -0.494465 0.000000 -0.869197
vn -0.494465 0.000000 -0.869197
vn -0.494465 0.000000 -0.869197
vn -0.494465 0.000000 -0.869197
vn 0.494465 0.000000 -0.869197
vn 0.494465 0.000000 -0.869197
vn 0.494465 0.000000 -0.869197
vn 0.494465 0.000000 -0.869197
vn 1.000000 0.000000 0.000000
vn 1.000000 0.000000 0.000000
vn 1.000000 0.000000 0.000000
vn 1.000000 0.000000 0.000000
vn 0.000000 -1.000000 0.000000
vn 0.000000 -1.000000 0.000000
vn 0.000000 -1.000000 0.000000
vn 0.000000 -1.000000 0.000000
vn 0.000000 -1.000000 0.000000
vn 0.000000 -1.000000 0.000000
vn 0.000001 1.000000 0.000000
vn 0.000001 1.000000 0.000000
vn 0.000001 1.000000 0.000000
vn -0.000002 1.000000 0.000000
vn -0.000002 1.000000 0.000000
vn -0.000002 1.000000 0.000000
vn 0.000000 0.000000 -1.000000
vn 0.000000 0.000000 -1.000000
vn 0.000000 0.000000 -1.000000
vn 0.000000 0.000000 -1.000000
vn -0.860754 0.000412 0.509021
vn -0.860754 0.000412 0.509021
vn -0.860754 0.000412 0.509021
vn -0.860754 0.000412 0.509021
vn -0.848585 0.000000 -0.529060
vn -0.848585 0.000000 -0.529060
vn -0.848585 0.000000 -0.529060
vn -0.848585 0.000000 -0.529060
vn 0.848585 0.000000 -0.529060
vn 0.848585 0.000000 -0.529060
vn 0.848585 0.000000 -0.529060
vn 0.848585 0.000000 -0.529060
vn 0.848585 -0.000000 0.529060
vn 0.848585 -0.000000 0.529060
vn 0.848585 -0.000000 0.529060
vn 0.848585 -0.000000 0.529060
vn -0.000001 1.000000 0.000000
vn -0.000001 1.000000 0.000000
vn -0.000001 1.000000 0.000000
vn -0.000001 1.000000 0.000000
vn -0.000001 1.000000 0.000000
vn -0.000001 1.000000 0.000000
vn -0.000001 1.000000 0.000000
vn 0.000000 -1.000000 0.000000
vn 0.000000 -1.000000 0.000000
vn 0.000000 -1.000000 0.000000
vn 0.000000 -1.000000 0.000000
vn 0.000000 -1.000000 0.000000
vn 0.000000 -1.000000 0.000000
vn 0.000000 -1.000000 0.000000
vn 0.000000 -1.000000 0.000000
vn 0.000000 -1.000000 0.000000
vn 0.000000 -1.000000 0.000000
vn 0.000000 -1.000000 0.000000
vn 0.000000 -1.000000 0.000000
vn 0.000000 -1.000000 0.000000
vn 0.000000 -1.000000 0.000000
vn -0.538344 0.003759 0.842717
vn -0.538344 0.003759 0.842717
vn -0.538344 0.003759 0.842717
vn -0.538344 0.003759 0.842717
vn 0.546307 0.005885 -0.837565
vn 0.546307 0.005885 -0.837565
vn 0.546307 0.005885 -0.837565
vn 0.546307 0.005885 -0.837565
vn 0.000000 0.000000 1.000000
vn 0.000000 0.000000 1.000000
vn 0.000000 0.000000 1.000000
vn 0.000000 0.000000 1.000000
vn -1.000000 0.000000 0.000000
vn -1.000000 0.000000 0.000000
vn -1.000000 0.000000 0.000000
vn -1.000000 0.000000 0.000000
vn 0.000000 0.000000 -1.000000
vn 0.000000 0.000000 -1.000000
vn 0.000000 0.000000 -1.000000
vn 0.000000 0.000000 -1.000000
vn 1.000000 0.000000 0.000000
vn 1.000000 0.000000 0.000000
vn 1.000000 0.000000 0.000000
vn 1.000000 0.000000 0.000000
vn 0.000000 0.000000 1.000000
vn 0.000000 0.000000 1.000000
vn 0.000000 0.000000 1.000000
vn 0.000000 0.000000 1.000000
vn -0.386552 0.001446 0.922267
vn -0.386552 0.001446 0.922267
vn -0.386552 0.001446 0.922267
vn -0.386552 0.001446 0.922267
vn 0.459333 -0.005453 0.888247
vn 0.459333 -0.005453 0.888247
vn 0.459333 -0.005453 0.888247
vn 0.459333 -0.005453 0.888247
vn -1.000000 -0.000000 0.000000
vn -1.000000 -0.000000 0.000000
vn -1.000000 -0.000000 0.000000
vn -1.000000 -0.000000 0.000000
vn -0.494465 0.000000 -0.869197
vn -0.494465 0.000000 -0.869197
vn -0.494465 0.000000 -0.869197
vn -0.494465 0.000000 -0.869197
vn 0.494465 0.000000 -0.869198
vn 0.494465 0.000000 -0.869198
vn 0.494465 0.000000 -0.869198
vn 0.494465 0.000000 -0.869198
vn 1.000000 0.000000 0.000000
vn 1.000000 0.000000 0.000000
vn 1.000000 0.000000 0.000000
vn 1.000000 0.000000 0.000000
vn 0.000000 0.000000 -1.000000
vn 0.000000 0.000000 -1.000000
vn 0.000000 0.000000 -1.000000
vn 0.000000 0.000000 -1.000000
vn -0.848585 0.000000 0.529060
vn -0.848585 0.000000 0.529060
vn -0.848585 0.000000 0.529060
vn -0.848585 0.000000 0.529060
vn -0.908670 -0.002784 -0.417506
vn -0.908670 -0.002784 -0.417506
vn -0.908670 -0.002784 -0.417506
vn -0.908670 -0.002784 -0.417506
vn 0.848584 0.000000 -0.529060
vn 0.848584 0.000000 -0.529060
vn 0.848584 0.000000 -0.529060
vn 0.848584 0.000000 -0.529060
vn 0.848585 0.000000 0.529059
vn 0.848585 0.000000 0.529059
vn 0.848585 0.000000 0.529059
vn 0.848585 0.000000 0.529059
vn -0.803315 -0.004962 0.595534
vn -0.803315 -0.004962 0.595534
vn -0.803315 -0.004962 0.595534
vn -0.803315 -0.004962 0.595534
vn 0.707107 0.000000 -0.707107
vn 0.707107 0.000000 -0.707107
vn 0.707107 0.000000 -0.707107
vn 0.707107 0.000000 -0.707107
vn 0.078238 -0.001926 0.996933
vn 0.078238 -0.001926 0.996933
vn 0.078238 -0.001926 0.996933
vn 0.078238 -0.001926 0.996933
vn -1.000000 0.000000 0.000000
vn -1.000000 0.000000 0.000000
vn -1.000000 0.000000 0.000000
vn -1.000000 0.000000 0.000000
vn 1.000000 0.000000 0.000000
vn 1.000000 0.000000 0.000000
vn 1.000000 0.000000 0.000000
vn 1.000000 0.000000 0.000000
vn 0.000000 0.000000 1.000000
vn 0.000000 0.000000 1.000000
vn 0.000000 0.000000 1.000000
vn 0.000000 0.000000 1.000000
vn -0.494466 0.000000 -0.869197
vn -0.494466 0.000000 -0.869197
vn -0.494466 0.000000 -0.869197
vn -0.494466 0.000000 -0.869197
vn 0.494465 0.000000 -0.869197
vn 0.494465 0.000000 -0.869197
vn 0.494465 0.000000 -0.869197
vn 0.494465 0.000000 -0.869197
vn -0.860420 -0.000361 0.509586
vn -0.860420 -0.000361 0.509586
vn -0.860420 -0.000361 0.509586
vn -0.860420 -0.000361 0.509586
vn -0.908248 0.001992 -0.418427
vn -0.908248 0.001992 -0.418427
vn -0.908248 0.001992 -0.418427
vn -0.908248 0.001992 -0.418427
vn 0.848584 0.000000 -0.529060
vn 0.848584 0.000000 -0.529060
vn 0.848584 0.000000 -0.529060
vn 0.848584 0.000000 -0.529060
vn 0.848585 0.000000 0.529060
vn 0.848585 0.000000 0.529060
vn 0.848585 0.000000 0.529060
vn 0.848585 0.000000 0.529060
vn -0.648695 -0.001657 0.761047
vn -0.648695 -0.001657 0.761047
vn -0.648695 -0.001657 0.761047
vn -0.648695 -0.001657 0.761047
vn 0.548967 -0.002744 -0.835840
vn 0.548967 -0.002744 -0.835840
vn 0.548967 -0.002744 -0.835840
vn 0.548967 -0.002744 -0.835840
vn 0.000000 0.000000 -1.000000
vn 0.000000 0.000000 -1.000000
vn 0.000000 0.000000 -1.000000
vn 0.000000 0.000000 -1.000000
vn -0.352715 -0.002482 0.935728
vn -0.352715 -0.002482 0.935728
vn -0.352715 -0.002482 0.935728
vn -0.352715 -0.002482 0.935728
vn 0.464042 0.007059 0.885785
vn 0.464042 0.007059 0.885785
vn 0.464042 0.007059 0.885785
vn 0.464042 0.007059 0.885785
vn -1.000000 0.000000 0.000000
vn -1.000000 0.000000 0.000000
vn -1.000000 0.000000 0.000000
vn -1.000000 0.000000 0.000000
vn 1.000000 -0.000000 0.000000
vn 1.000000 -0.000000 0.000000
vn 1.000000 -0.000000 0.000000
vn 1.000000 -0.000000 0.000000
vn -0.000000 0.000000 -1.000000
vn -0.000000 0.000000 -1.000000
vn -0.000000 0.000000 -1.000000
vn -0.000000 0.000000 -1.000000
s off
f 8/1/1 29/2/2 28/27/3
f 8/1/4 30/3/5 29/2/6
f 25/25/7 33/37/8 8/1/9
f 34/31/10 5/30/11 8/1/12 33/37/13
f 11/4/14 10/5/15 12/6/16
f 10/5/17 9/24/18 12/6/19
f 12/7/20 17/8/21 16/26/22
f 12/7/23 18/9/24 17/8/25
f 8/1/26 26/10/27 25/25/28
f 8/1/29 27/11/30 26/10/31
f 11/4/32 1/12/33 57/58/34 59/60/35
f 2/15/36 15/16/37 69/70/38 58/59/39
f 18/9/40 12/7/41 15/16/42 2/15/43
f 24/18/44 46/47/45 40/41/46 4/17/47
f 27/11/48 8/1/49 24/18/50 4/17/51
f 8/1/52 7/14/53 3/13/54 30/3/55
f 1/12/56 21/19/57 71/72/58 57/58/59
f 1/12/60 11/4/61 12/6/62 21/19/63
f 5/30/64 6/20/65 8/1/66
f 6/20/67 7/14/68 8/1/69
f 9/24/70 68/69/71 73/74/72 31/36/73
f 7/14/74 6/20/75 49/50/76 41/42/77
f 6/20/78 5/30/79 42/43/80 49/50/81
f 25/25/82 44/45/83 53/54/84 33/37/85
f 12/7/86 14/21/87 15/16/88
f 12/7/89 13/28/90 14/21/91
f 16/26/92 17/8/93 63/64/94 70/71/95
f 17/8/96 18/9/97 61/62/98 63/64/99
f 28/27/100 48/49/101 55/56/102 38/39/103
f 12/6/104 20/23/105 21/19/106
f 12/6/107 19/32/108 20/23/109
f 22/34/110 23/22/111 8/1/112
f 23/22/113 24/18/114 8/1/115
f 22/34/116 37/35/117 56/57/118 45/46/119
f 15/16/120 14/21/121 64/65/122 69/70/123
f 14/21/124 13/28/125 60/61/126 64/65/127
f 21/19/128 20/23/129 65/66/130 71/72/131
f 20/23/132 19/32/133 62/63/134 65/66/135
f 8/1/136 28/27/137 38/39/138 37/35/139
f 22/34/140 8/1/141 37/35/142
f 32/29/143 13/28/144 12/6/145 31/36/146
f 9/24/147 31/36/148 12/6/149
f 35/33/150 19/32/151 12/7/152 36/38/153
f 16/26/154 36/38/155 12/7/156
f 32/29/157 31/36/158 73/74/159 66/67/160
f 35/33/161 36/38/162 74/75/163 67/68/164
f 41/42/165 39/40/166 3/13/167 7/14/168
f 40/41/169 43/44/170 27/11/171 4/17/172
f 40/41/173 46/47/174 61/62/175 58/59/176
f 39/40/177 47/48/178 30/3/179 3/13/180
f 54/55/181 42/43/182 5/30/183 34/31/184
f 41/42/185 49/50/186 72/73/187 59/60/188
f 49/50/189 42/43/190 68/69/191 72/73/192
f 53/54/193 44/45/194 60/61/195 66/67/196
f 45/46/197 50/51/198 23/22/199 22/34/200
f 50/51/201 46/47/202 24/18/203 23/22/204
f 55/56/205 48/49/206 62/63/207 67/68/208
f 45/46/209 56/57/210 74/75/211 70/71/212
f 43/44/213 51/52/214 26/10/215 27/11/216
f 51/52/217 44/45/218 25/25/219 26/10/220
f 47/48/221 52/53/222 29/2/223 30/3/224
f 52/53/225 48/49/226 28/27/227 29/2/228
f 53/54/229 54/55/230 34/31/231 33/37/232
f 55/56/233 56/57/234 37/35/235 38/39/236
f 59/60/237 57/58/238 39/40/239 41/42/240
f 58/59/241 69/70/242 43/44/243 40/41/244
f 57/58/245 71/72/246 47/48/247 39/40/248
f 73/74/249 68/69/250 42/43/251 54/55/252
f 70/71/253 63/64/254 50/51/255 45/46/256
f 63/64/257 61/62/258 46/47/259 50/51/260
f 69/70/261 64/65/262 51/52/263 43/44/264
f 64/65/265 60/61/266 44/45/267 51/52/268
f 71/72/269 65/66/270 52/53/271 47/48/272
f 65/66/273 62/63/274 48/49/275 52/53/276
f 66/67/277 73/74/278 54/55/279 53/54/280
f 67/68/281 74/75/282 56/57/283 55/56/284
f 58/59/285 61/62/286 18/9/287 2/15/288
f 59/60/289 72/73/290 10/5/291 11/4/292
f 72/73/293 68/69/294 9/24/295 10/5/296
f 66/67/297 60/61/298 13/28/299 32/29/300
f 67/68/301 62/63/302 19/32/303 35/33/304
f 70/71/305 74/75/306 36/38/307 16/26/308
