# This file uses centimeters as units for non-parametric coordinates.

v 250.000000 29.371521 12.877458
v 0.000854 29.371521 12.877458
v 250.000000 0.000000 13.353233
v 0.000854 0.000000 13.353233
v 250.000000 0.000000 11.250000
v 0.000854 0.000000 11.250000
v 250.000000 14.248871 13.353233
v 0.000854 14.248871 13.353233
v 250.000000 16.318512 12.758168
v 0.000854 16.318512 12.758168
v 250.000000 26.265442 13.174467
v 0.000854 26.265442 13.174467
v 250.000000 27.446472 12.470430
v 0.000854 27.446472 12.470430
v 250.000000 30.051361 11.250000
v 0.000854 30.051361 11.250000
vt 0.151803 0.128167
vt 0.151019 0.128151
vt 0.150980 0.127360
vt 0.151771 0.127393
vt 0.151178 0.127244
vt 0.151945 0.127246
vt 0.151778 0.127554
vt 0.150983 0.127540
vt 0.151780 0.127609
vt 0.150987 0.127595
vt 0.151785 0.127718
vt 0.150993 0.127704
vt 0.151788 0.127781
vt 0.150997 0.127767
vt 0.151824 0.128140
vt 0.151044 0.128124
vn 0.000000 0.922728 0.385452
vn 0.000000 0.922728 0.385452
vn 0.000000 0.922728 0.385452
vn 0.000000 0.922728 0.385452
vn 0.000000 0.276326 0.961064
vn 0.000000 0.276326 0.961064
vn 0.000000 0.276326 0.961064
vn 0.000000 0.276326 0.961064
vn 0.000000 -0.041815 0.999125
vn 0.000000 -0.041815 0.999125
vn 0.000000 -0.041815 0.999125
vn 0.000000 -0.041815 0.999125
vn 0.000000 0.512043 0.858960
vn 0.000000 0.512043 0.858960
vn 0.000000 0.512043 0.858960
vn 0.000000 0.512043 0.858960
vn 0.000000 -0.206864 0.978370
vn 0.000000 -0.206864 0.978370
vn 0.000000 -0.206864 0.978370
vn 0.000000 -0.206864 0.978370
vn -1.000000 0.000000 0.000000
vn -1.000000 0.000000 0.000000
vn -1.000000 0.000000 0.000000
vn -1.000000 0.000000 0.000000
vn -1.000000 0.000000 0.000000
vn -1.000000 0.000000 0.000000
vn -1.000000 0.000000 0.000000
vn -1.000000 0.000000 0.000000
vn -1.000000 0.000000 0.000000
vn -1.000000 0.000000 0.000000
vn -1.000000 0.000000 0.000000
vn 1.000000 0.000001 0.000000
vn 1.000000 0.000001 0.000000
vn 1.000000 0.000001 0.000000
vn 1.000000 0.000001 0.000000
vn 1.000000 -0.000002 0.000000
vn 1.000000 -0.000002 0.000000
vn 1.000000 -0.000002 0.000000
vn 1.000000 -0.000002 0.000000
vn 1.000000 0.000004 0.000000
vn 1.000000 0.000004 0.000000
vn 1.000000 0.000004 0.000000
vn 0.000000 0.000000 -1.000000
vn 0.000000 0.000000 -1.000000
vn 0.000000 0.000000 -1.000000
vn 0.000000 0.000000 -1.000000
vn 0.000000 0.000000 1.000000
vn 0.000000 0.000000 1.000000
vn 0.000000 0.000000 1.000000
vn 0.000000 0.000000 1.000000
vn 0.000000 -1.000000 0.000000
vn 0.000000 -1.000000 0.000000
vn 0.000000 -1.000000 0.000000
vn 0.000000 -1.000000 0.000000
vn 1.000000 0.000000 0.000000
vn 1.000000 0.000000 0.000000
vn 1.000000 0.000000 0.000000
vn -1.000000 0.000000 0.000000
vn -1.000000 0.000000 0.000000
vn -1.000000 0.000000 0.000000
s off
f 15/15/1 16/16/2 2/2/3 1/1/4
f 10/10/5 8/8/6 7/7/7 9/9/8
f 12/12/9 10/10/10 9/9/11 11/11/12
f 13/13/13 14/14/14 12/12/15 11/11/16
f 1/1/17 2/2/18 14/14/19 13/13/20
f 6/5/21 4/3/22 8/8/23 10/10/24
f 6/5/25 10/10/26 12/12/27 14/14/28
f 16/16/29 6/5/30 14/14/31
f 7/7/32 3/4/33 5/6/34 9/9/35
f 11/11/36 9/9/37 5/6/38 13/13/39
f 13/13/40 15/15/41 1/1/42
f 5/6/43 6/5/44 16/16/45 15/15/46
f 4/3/47 3/4/48 7/7/49 8/8/50
f 5/6/51 3/4/52 4/3/53 6/5/54
f 13/13/55 5/6/56 15/15/57
f 16/16/58 14/14/59 2/2/60
