# This file uses centimeters as units for non-parametric coordinates.

v -15.608409 3.226727 15.608411
v 15.608409 3.226727 15.608411
v -12.875444 95.209824 12.875444
v 12.875444 96.507614 12.875444
v -12.875444 96.507614 -12.875456
v 12.875444 96.507614 -12.875456
v -15.608409 3.226727 -15.608422
v 15.608409 3.226727 -15.608422
v -9.729335 101.507614 9.729334
v 9.729335 101.507614 9.729334
v 9.729335 101.507614 -9.729345
v -9.547320 101.507614 -8.794719
v -12.875444 7.201972 12.875444
v 12.875444 7.201971 12.875444
v -12.875444 7.201973 -12.875456
v 12.875444 7.201973 -12.875456
v -15.608409 -3.349091 -15.608422
v 15.608409 -3.349091 -15.608422
v 15.608409 -3.349091 15.608411
v -15.608409 -3.349091 15.608411
v -12.875444 35.581894 -11.763408
v 12.875444 64.735352 -12.875456
v -11.735416 38.632233 11.763396
v 11.735416 67.785690 12.875444
vt 0.195063 0.128574
vt 0.194277 0.128559
vt 0.194231 0.127788
vt 0.195028 0.127801
vt 0.195200 0.127608
vt 0.194441 0.127596
vt 0.194482 0.128333
vt 0.195231 0.128347
vt 0.194231 0.127788
vt 0.195028 0.127801
vt 0.194441 0.127596
vt 0.195200 0.127608
vt 0.195058 0.128473
vt 0.194271 0.128459
vt 0.195227 0.128252
vt 0.194477 0.128238
vt 0.195231 0.128347
vt 0.194482 0.128333
vt 0.194277 0.128559
vt 0.195063 0.128574
vt 0.195217 0.128006
vt 0.194456 0.127871
vt 0.195045 0.128184
vt 0.194246 0.128048
vn 0.000000 0.566527 0.824043
vn 0.000000 0.566527 0.824043
vn 0.000000 0.566527 0.824043
vn 0.000000 0.566527 0.824043
vn -0.014799 -0.011994 -0.999819
vn -0.014799 -0.011994 -0.999819
vn -0.014799 -0.011994 -0.999819
vn -0.014799 -0.011994 -0.999819
vn 0.000000 -1.000000 0.000000
vn 0.000000 -1.000000 0.000000
vn 0.000000 -1.000000 0.000000
vn 0.000000 -1.000000 0.000000
vn 0.824044 0.566527 0.000000
vn 0.824044 0.566527 0.000000
vn 0.824044 0.566527 0.000000
vn 0.824044 0.566527 0.000000
vn -0.824044 0.566527 0.000000
vn -0.824044 0.566527 0.000000
vn -0.824044 0.566527 0.000000
vn -0.824044 0.566527 0.000000
vn -0.013966 0.486522 0.873557
vn -0.013966 0.486522 0.873557
vn -0.013966 0.486522 0.873557
vn -0.013966 0.486522 0.873557
vn 0.846388 0.532566 0.000000
vn 0.846388 0.532566 0.000000
vn 0.846388 0.532566 0.000000
vn 0.846388 0.532566 0.000000
vn -0.016818 0.585855 -0.810241
vn -0.016818 0.585855 -0.810241
vn -0.016818 0.585855 -0.810241
vn -0.016818 0.585855 -0.810241
vn -0.867975 0.496487 0.010985
vn -0.867975 0.496487 0.010985
vn -0.867975 0.496487 0.010985
vn -0.867975 0.496487 0.010985
vn -0.029736 0.012079 0.999485
vn -0.029736 0.012079 0.999485
vn -0.029736 0.012079 0.999485
vn -0.029736 0.012079 0.999485
vn 0.000000 0.566527 -0.824043
vn 0.000000 0.566527 -0.824043
vn 0.000000 0.566527 -0.824043
vn 0.000000 0.566527 -0.824043
vn 0.999721 0.009649 0.021558
vn 0.999721 0.009649 0.021558
vn 0.999721 0.009649 0.021558
vn 0.999721 0.009649 0.021558
vn -0.999578 0.019053 0.021946
vn -0.999578 0.019053 0.021946
vn -0.999578 0.019053 0.021946
vn -0.999578 0.019053 0.021946
vn 0.000000 0.000000 -1.000000
vn 0.000000 0.000000 -1.000000
vn 0.000000 0.000000 -1.000000
vn 0.000000 0.000000 -1.000000
vn 1.000000 0.000000 0.000000
vn 1.000000 0.000000 0.000000
vn 1.000000 0.000000 0.000000
vn 1.000000 0.000000 0.000000
vn 0.000000 0.000000 1.000000
vn 0.000000 0.000000 1.000000
vn 0.000000 0.000000 1.000000
vn 0.000000 0.000000 1.000000
vn -1.000000 0.000000 0.000000
vn -1.000000 0.000000 0.000000
vn -1.000000 0.000000 0.000000
vn -1.000000 0.000000 0.000000
vn 0.000000 1.000000 0.000000
vn 0.000000 1.000000 0.000000
vn 0.000000 1.000000 0.000000
vn 0.000000 1.000000 0.000000
vn -0.028905 0.012937 -0.999498
vn -0.028905 0.012937 -0.999498
vn -0.028905 0.012937 -0.999498
vn -0.028905 0.012937 -0.999498
vn -0.014524 -0.013034 0.999810
vn -0.014524 -0.013034 0.999810
vn -0.014524 -0.013034 0.999810
vn -0.014524 -0.013034 0.999810
vn 0.999552 -0.018837 0.023241
vn 0.999552 -0.018837 0.023241
vn 0.999552 -0.018837 0.023241
vn 0.999552 -0.018837 0.023241
vn -0.999678 -0.009699 0.023472
vn -0.999678 -0.009699 0.023472
vn -0.999678 -0.009699 0.023472
vn -0.999678 -0.009699 0.023472
s off
f 1/1/1 2/2/2 14/14/3 13/13/4
f 5/5/5 6/6/6 22/22/7 21/21/8
f 17/17/9 18/18/10 19/19/11 20/20/12
f 2/2/13 8/7/14 16/16/15 14/14/16
f 7/8/17 1/1/18 13/13/19 15/15/20
f 3/4/21 4/3/22 10/9/23 9/10/24
f 4/3/25 6/6/26 11/11/27 10/9/28
f 6/6/29 5/5/30 12/12/31 11/11/32
f 5/5/33 3/4/34 9/10/35 12/12/36
f 13/13/37 14/14/38 24/24/39 23/23/40
f 15/15/41 16/16/42 8/7/43 7/8/44
f 14/14/45 16/16/46 22/22/47 24/24/48
f 15/15/49 13/13/50 23/23/51 21/21/52
f 7/8/53 8/7/54 18/18/55 17/17/56
f 18/18/57 8/7/58 2/2/59 19/19/60
f 19/19/61 2/2/62 1/1/63 20/20/64
f 20/20/65 1/1/66 7/8/67 17/17/68
f 11/11/69 12/12/70 9/10/71 10/9/72
f 21/21/73 22/22/74 16/16/75 15/15/76
f 23/23/77 24/24/78 4/3/79 3/4/80
f 24/24/81 22/22/82 6/6/83 4/3/84
f 21/21/85 23/23/86 3/4/87 5/5/88
