# This file uses centimeters as units for non-parametric coordinates.

v 13.376831 -3.041870 63.169189
v 13.376831 -3.041870 68.289307
v 13.376831 0.780273 63.169189
v 13.376831 0.780273 68.289307
v 239.638123 0.780273 63.169189
v 239.638123 0.780273 68.289307
v 239.638123 -3.041870 63.169189
v 239.638123 -3.041870 68.289307
v 64.057343 -3.690857 238.750000
v 69.177460 -3.690857 238.750000
v 64.057343 1.429260 238.750000
v 69.177460 1.429260 238.750000
v 64.057343 1.429260 12.488708
v 69.177460 1.429260 12.488708
v 64.057343 -3.690857 12.488708
v 69.177460 -3.690857 12.488708
v 13.376831 -3.041870 182.949402
v 13.376831 -3.041870 188.069519
v 13.376831 0.780273 182.949402
v 13.376831 0.780273 188.069519
v 239.638123 0.780273 182.949402
v 239.638123 0.780273 188.069519
v 239.638123 -3.041870 182.949402
v 239.638123 -3.041870 188.069519
v 13.376831 -3.041870 121.551819
v 13.376831 -3.041870 126.671936
v 13.376831 0.780273 121.551819
v 13.376831 0.780273 126.671936
v 239.638123 0.780273 121.551819
v 239.638123 0.780273 126.671936
v 239.638123 -3.041870 121.551819
v 239.638123 -3.041870 126.671936
v 122.439941 -3.690857 238.750000
v 127.560059 -3.690857 238.750000
v 122.439941 1.429260 238.750000
v 127.560059 1.429260 238.750000
v 122.439941 1.429260 12.488708
v 127.560059 1.429260 12.488708
v 122.439941 -3.690857 12.488708
v 127.560059 -3.690857 12.488708
v 183.837524 -3.690857 238.750000
v 188.957642 -3.690857 238.750000
v 183.837524 1.429260 238.750000
v 188.957642 1.429260 238.750000
v 183.837524 1.429260 12.488708
v 188.957642 1.429260 12.488708
v 183.837524 -3.690857 12.488708
v 188.957642 -3.690857 12.488708
v 0.000000 4.300476 250.000000
v 250.000000 4.300476 250.000000
v 0.000000 4.300476 0.000000
v 250.000000 4.300476 0.000000
v 12.488708 4.300476 237.511292
v 237.511292 4.300476 237.511292
v 237.511292 4.300476 12.488708
v 12.488708 4.300476 12.488708
v 0.000000 -7.129517 250.000000
v 250.000000 -7.129517 250.000000
v 237.511292 -7.129517 237.511292
v 12.488708 -7.129517 237.511292
v 250.000000 -7.129517 0.000000
v 237.511292 -7.129517 12.488708
v 0.000000 -7.129517 0.000000
v 12.488708 -7.129517 12.488708
v 237.511292 4.300476 125.000000
v 237.511292 -7.129517 125.000000
v 250.000000 -7.129517 125.000000
v 250.000000 4.300476 125.000000
v 125.000000 4.300476 237.511292
v 125.000000 -7.129517 237.511292
v 125.000000 -7.129517 250.000000
v 125.000000 4.300476 250.000000
v 12.488708 4.300476 125.000000
v 0.000000 4.300476 125.000000
v 0.000000 -7.129517 125.000000
v 12.488708 -7.129517 125.000000
v 125.000000 4.300476 12.488708
v 125.000000 4.300476 0.000000
v 125.000000 -7.129517 0.000000
v 125.000000 -7.129517 12.488708
vt 0.193837 0.129210
vt 0.193837 0.129206
vt 0.193837 0.129206
vt 0.193837 0.129210
vt 0.194189 0.129206
vt 0.194189 0.129210
vt 0.194189 0.129206
vt 0.194189 0.129210
vt 0.193915 0.129064
vt 0.193923 0.129064
vt 0.193923 0.129064
vt 0.193915 0.129064
vt 0.193923 0.129253
vt 0.193915 0.129253
vt 0.193923 0.129253
vt 0.193915 0.129253
vt 0.193837 0.129110
vt 0.193837 0.129106
vt 0.193837 0.129106
vt 0.193837 0.129110
vt 0.194189 0.129106
vt 0.194189 0.129110
vt 0.194189 0.129106
vt 0.194189 0.129110
vt 0.193837 0.129162
vt 0.193837 0.129157
vt 0.193837 0.129157
vt 0.193837 0.129162
vt 0.194189 0.129157
vt 0.194189 0.129162
vt 0.194189 0.129157
vt 0.194189 0.129162
vt 0.194006 0.129064
vt 0.194014 0.129064
vt 0.194014 0.129064
vt 0.194006 0.129064
vt 0.194014 0.129253
vt 0.194006 0.129253
vt 0.194014 0.129253
vt 0.194006 0.129253
vt 0.194102 0.129064
vt 0.194110 0.129064
vt 0.194110 0.129064
vt 0.194102 0.129064
vt 0.194110 0.129253
vt 0.194102 0.129253
vt 0.194110 0.129253
vt 0.194102 0.129253
vt 0.193816 0.129054
vt 0.193835 0.129065
vt 0.194010 0.129065
vt 0.194010 0.129054
vt 0.194205 0.129054
vt 0.194185 0.129065
vt 0.194185 0.129159
vt 0.194205 0.129159
vt 0.194010 0.129263
vt 0.194010 0.129253
vt 0.193835 0.129253
vt 0.193816 0.129263
vt 0.193816 0.129159
vt 0.193835 0.129159
vt 0.193816 0.129054
vt 0.194010 0.129054
vt 0.194010 0.129065
vt 0.193835 0.129065
vt 0.194205 0.129054
vt 0.194205 0.129159
vt 0.194185 0.129159
vt 0.194185 0.129065
vt 0.194010 0.129263
vt 0.193816 0.129263
vt 0.193835 0.129253
vt 0.194010 0.129253
vt 0.193816 0.129159
vt 0.193835 0.129159
vt 0.194185 0.129253
vt 0.194185 0.129253
vt 0.194205 0.129263
vt 0.194205 0.129263
vn -1.000000 0.000000 0.000000
vn -1.000000 0.000000 0.000000
vn -1.000000 0.000000 0.000000
vn -1.000000 0.000000 0.000000
vn 0.000000 1.000000 0.000000
vn 0.000000 1.000000 0.000000
vn 0.000000 1.000000 0.000000
vn 0.000000 1.000000 0.000000
vn 1.000000 0.000000 0.000000
vn 1.000000 0.000000 0.000000
vn 1.000000 0.000000 0.000000
vn 1.000000 0.000000 0.000000
vn 0.000000 -1.000000 0.000000
vn 0.000000 -1.000000 0.000000
vn 0.000000 -1.000000 0.000000
vn 0.000000 -1.000000 0.000000
vn 0.000000 0.000000 1.000000
vn 0.000000 0.000000 1.000000
vn 0.000000 0.000000 1.000000
vn 0.000000 0.000000 1.000000
vn 0.000000 0.000000 -1.000000
vn 0.000000 0.000000 -1.000000
vn 0.000000 0.000000 -1.000000
vn 0.000000 0.000000 -1.000000
vn 0.000000 0.000000 1.000000
vn 0.000000 0.000000 1.000000
vn 0.000000 0.000000 1.000000
vn 0.000000 0.000000 1.000000
vn 0.000000 1.000000 0.000000
vn 0.000000 1.000000 0.000000
vn 0.000000 1.000000 0.000000
vn 0.000000 1.000000 0.000000
vn 0.000000 0.000000 -1.000000
vn 0.000000 0.000000 -1.000000
vn 0.000000 0.000000 -1.000000
vn 0.000000 0.000000 -1.000000
vn 0.000000 -1.000000 0.000000
vn 0.000000 -1.000000 0.000000
vn 0.000000 -1.000000 0.000000
vn 0.000000 -1.000000 0.000000
vn 1.000000 0.000000 0.000000
vn 1.000000 0.000000 0.000000
vn 1.000000 0.000000 0.000000
vn 1.000000 0.000000 0.000000
vn -1.000000 0.000000 0.000000
vn -1.000000 0.000000 0.000000
vn -1.000000 0.000000 0.000000
vn -1.000000 0.000000 0.000000
vn -1.000000 0.000000 0.000000
vn -1.000000 0.000000 0.000000
vn -1.000000 0.000000 0.000000
vn -1.000000 0.000000 0.000000
vn 0.000000 1.000000 0.000000
vn 0.000000 1.000000 0.000000
vn 0.000000 1.000000 0.000000
vn 0.000000 1.000000 0.000000
vn 1.000000 0.000000 0.000000
vn 1.000000 0.000000 0.000000
vn 1.000000 0.000000 0.000000
vn 1.000000 0.000000 0.000000
vn 0.000000 -1.000000 0.000000
vn 0.000000 -1.000000 0.000000
vn 0.000000 -1.000000 0.000000
vn 0.000000 -1.000000 0.000000
vn 0.000000 0.000000 1.000000
vn 0.000000 0.000000 1.000000
vn 0.000000 0.000000 1.000000
vn 0.000000 0.000000 1.000000
vn 0.000000 0.000000 -1.000000
vn 0.000000 0.000000 -1.000000
vn 0.000000 0.000000 -1.000000
vn 0.000000 0.000000 -1.000000
vn -1.000000 0.000000 0.000000
vn -1.000000 0.000000 0.000000
vn -1.000000 0.000000 0.000000
vn -1.000000 0.000000 0.000000
vn 0.000000 1.000000 0.000000
vn 0.000000 1.000000 0.000000
vn 0.000000 1.000000 0.000000
vn 0.000000 1.000000 0.000000
vn 1.000000 0.000000 0.000000
vn 1.000000 0.000000 0.000000
vn 1.000000 0.000000 0.000000
vn 1.000000 0.000000 0.000000
vn 0.000000 -1.000000 0.000000
vn 0.000000 -1.000000 0.000000
vn 0.000000 -1.000000 0.000000
vn 0.000000 -1.000000 0.000000
vn 0.000000 0.000000 1.000000
vn 0.000000 0.000000 1.000000
vn 0.000000 0.000000 1.000000
vn 0.000000 0.000000 1.000000
vn 0.000000 0.000000 -1.000000
vn 0.000000 0.000000 -1.000000
vn 0.000000 0.000000 -1.000000
vn 0.000000 0.000000 -1.000000
vn 0.000000 0.000000 1.000000
vn 0.000000 0.000000 1.000000
vn 0.000000 0.000000 1.000000
vn 0.000000 0.000000 1.000000
vn 0.000000 1.000000 0.000000
vn 0.000000 1.000000 0.000000
vn 0.000000 1.000000 0.000000
vn 0.000000 1.000000 0.000000
vn 0.000000 0.000000 -1.000000
vn 0.000000 0.000000 -1.000000
vn 0.000000 0.000000 -1.000000
vn 0.000000 0.000000 -1.000000
vn 0.000000 -1.000000 0.000000
vn 0.000000 -1.000000 0.000000
vn 0.000000 -1.000000 0.000000
vn 0.000000 -1.000000 0.000000
vn 1.000000 0.000000 0.000000
vn 1.000000 0.000000 0.000000
vn 1.000000 0.000000 0.000000
vn 1.000000 0.000000 0.000000
vn -1.000000 0.000000 0.000000
vn -1.000000 0.000000 0.000000
vn -1.000000 0.000000 0.000000
vn -1.000000 0.000000 0.000000
vn 0.000000 0.000000 1.000000
vn 0.000000 0.000000 1.000000
vn 0.000000 0.000000 1.000000
vn 0.000000 0.000000 1.000000
vn 0.000000 1.000000 0.000000
vn 0.000000 1.000000 0.000000
vn 0.000000 1.000000 0.000000
vn 0.000000 1.000000 0.000000
vn 0.000000 0.000000 -1.000000
vn 0.000000 0.000000 -1.000000
vn 0.000000 0.000000 -1.000000
vn 0.000000 0.000000 -1.000000
vn 0.000000 -1.000000 0.000000
vn 0.000000 -1.000000 0.000000
vn 0.000000 -1.000000 0.000000
vn 0.000000 -1.000000 0.000000
vn 1.000000 0.000000 0.000000
vn 1.000000 0.000000 0.000000
vn 1.000000 0.000000 0.000000
vn 1.000000 0.000000 0.000000
vn -1.000000 0.000000 0.000000
vn -1.000000 0.000000 0.000000
vn -1.000000 0.000000 0.000000
vn -1.000000 0.000000 0.000000
vn 0.000000 -1.000000 0.000000
vn 0.000000 -1.000000 0.000000
vn 0.000000 -1.000000 0.000000
vn 0.000000 -1.000000 0.000000
vn 0.000000 -1.000000 0.000000
vn 0.000000 -1.000000 0.000000
vn 0.000000 -1.000000 0.000000
vn 0.000000 -1.000000 0.000000
vn 0.000000 -1.000000 0.000000
vn 0.000000 -1.000000 0.000000
vn 0.000000 -1.000000 0.000000
vn 0.000000 -1.000000 0.000000
vn 0.000000 -1.000000 0.000000
vn 0.000000 -1.000000 0.000000
vn 0.000000 -1.000000 0.000000
vn 0.000000 -1.000000 0.000000
vn 0.000000 1.000000 -0.000000
vn 0.000000 1.000000 -0.000000
vn 0.000000 1.000000 -0.000000
vn 0.000000 1.000000 -0.000000
vn 0.000000 1.000000 0.000000
vn 0.000000 1.000000 0.000000
vn 0.000000 1.000000 0.000000
vn 0.000000 1.000000 0.000000
vn 0.000000 1.000000 0.000000
vn 0.000000 1.000000 0.000000
vn 0.000000 1.000000 0.000000
vn 0.000000 1.000000 0.000000
vn 0.000000 1.000000 0.000000
vn 0.000000 1.000000 0.000000
vn 0.000000 1.000000 0.000000
vn 0.000000 1.000000 0.000000
vn 0.000000 0.000000 1.000000
vn 0.000000 0.000000 1.000000
vn 0.000000 0.000000 1.000000
vn 0.000000 0.000000 1.000000
vn 0.000000 0.000000 -1.000000
vn 0.000000 0.000000 -1.000000
vn 0.000000 0.000000 -1.000000
vn 0.000000 0.000000 -1.000000
vn 1.000000 0.000000 0.000000
vn 1.000000 0.000000 0.000000
vn 1.000000 0.000000 0.000000
vn 1.000000 0.000000 0.000000
vn -1.000000 0.000000 0.000000
vn -1.000000 0.000000 0.000000
vn -1.000000 0.000000 0.000000
vn -1.000000 0.000000 0.000000
vn 0.000000 0.000000 -1.000000
vn 0.000000 0.000000 -1.000000
vn 0.000000 0.000000 -1.000000
vn 0.000000 0.000000 -1.000000
vn 0.000000 0.000000 1.000000
vn 0.000000 0.000000 1.000000
vn 0.000000 0.000000 1.000000
vn 0.000000 0.000000 1.000000
vn -1.000000 0.000000 0.000000
vn -1.000000 0.000000 0.000000
vn -1.000000 0.000000 0.000000
vn -1.000000 0.000000 0.000000
vn 1.000000 0.000000 0.000000
vn 1.000000 0.000000 0.000000
vn 1.000000 0.000000 0.000000
vn 1.000000 0.000000 0.000000
vn -1.000000 0.000000 0.000000
vn -1.000000 0.000000 0.000000
vn -1.000000 0.000000 0.000000
vn -1.000000 0.000000 0.000000
vn 0.000000 -1.000000 0.000000
vn 0.000000 -1.000000 0.000000
vn 0.000000 -1.000000 0.000000
vn 0.000000 -1.000000 0.000000
vn 1.000000 0.000000 0.000000
vn 1.000000 0.000000 0.000000
vn 1.000000 0.000000 0.000000
vn 1.000000 0.000000 0.000000
vn 0.000000 1.000000 0.000000
vn 0.000000 1.000000 0.000000
vn 0.000000 1.000000 0.000000
vn 0.000000 1.000000 0.000000
vn 0.000000 0.000000 -1.000000
vn 0.000000 0.000000 -1.000000
vn 0.000000 0.000000 -1.000000
vn 0.000000 0.000000 -1.000000
vn 0.000000 -1.000000 0.000000
vn 0.000000 -1.000000 0.000000
vn 0.000000 -1.000000 0.000000
vn 0.000000 -1.000000 0.000000
vn 0.000000 0.000000 1.000000
vn 0.000000 0.000000 1.000000
vn 0.000000 0.000000 1.000000
vn 0.000000 0.000000 1.000000
vn 0.000000 1.000000 -0.000000
vn 0.000000 1.000000 -0.000000
vn 0.000000 1.000000 0.000000
vn 0.000000 1.000000 0.000000
vn 0.000000 1.000000 0.000000
vn 0.000000 1.000000 0.000000
vn 0.000000 1.000000 0.000000
vn 0.000000 1.000000 0.000000
vn -1.000000 0.000000 0.000000
vn -1.000000 0.000000 0.000000
vn -1.000000 0.000000 0.000000
vn -1.000000 0.000000 0.000000
vn 0.000000 -1.000000 0.000000
vn 0.000000 -1.000000 0.000000
vn 0.000000 -1.000000 0.000000
vn 0.000000 -1.000000 0.000000
vn 1.000000 0.000000 0.000000
vn 1.000000 0.000000 0.000000
vn 1.000000 0.000000 0.000000
vn 1.000000 0.000000 0.000000
vn 0.000000 1.000000 0.000000
vn 0.000000 1.000000 0.000000
vn 0.000000 1.000000 0.000000
vn 0.000000 1.000000 0.000000
vn 0.000000 0.000000 -1.000000
vn 0.000000 0.000000 -1.000000
vn 0.000000 0.000000 -1.000000
vn 0.000000 0.000000 -1.000000
vn 0.000000 -1.000000 0.000000
vn 0.000000 -1.000000 0.000000
vn 0.000000 -1.000000 0.000000
vn 0.000000 -1.000000 0.000000
vn 0.000000 0.000000 1.000000
vn 0.000000 0.000000 1.000000
vn 0.000000 0.000000 1.000000
vn 0.000000 0.000000 1.000000
s off
f 1/1/1 2/2/2 4/3/3 3/4/4
f 3/4/5 4/3/6 6/5/7 5/6/8
f 5/6/9 6/5/10 8/7/11 7/8/12
f 7/8/13 8/7/14 2/2/15 1/1/16
f 2/2/17 8/7/18 6/5/19 4/3/20
f 7/8/21 1/1/22 3/4/23 5/6/24
f 9/9/25 10/10/26 12/11/27 11/12/28
f 11/12/29 12/11/30 14/13/31 13/14/32
f 13/14/33 14/13/34 16/15/35 15/16/36
f 15/16/37 16/15/38 10/10/39 9/9/40
f 10/10/41 16/15/42 14/13/43 12/11/44
f 15/16/45 9/9/46 11/12/47 13/14/48
f 17/17/49 18/18/50 20/19/51 19/20/52
f 19/20/53 20/19/54 22/21/55 21/22/56
f 21/22/57 22/21/58 24/23/59 23/24/60
f 23/24/61 24/23/62 18/18/63 17/17/64
f 18/18/65 24/23/66 22/21/67 20/19/68
f 23/24/69 17/17/70 19/20/71 21/22/72
f 25/25/73 26/26/74 28/27/75 27/28/76
f 27/28/77 28/27/78 30/29/79 29/30/80
f 29/30/81 30/29/82 32/31/83 31/32/84
f 31/32/85 32/31/86 26/26/87 25/25/88
f 26/26/89 32/31/90 30/29/91 28/27/92
f 31/32/93 25/25/94 27/28/95 29/30/96
f 33/33/97 34/34/98 36/35/99 35/36/100
f 35/36/101 36/35/102 38/37/103 37/38/104
f 37/38/105 38/37/106 40/39/107 39/40/108
f 39/40/109 40/39/110 34/34/111 33/33/112
f 34/34/113 40/39/114 38/37/115 36/35/116
f 39/40/117 33/33/118 35/36/119 37/38/120
f 41/41/121 42/42/122 44/43/123 43/44/124
f 43/44/125 44/43/126 46/45/127 45/46/128
f 45/46/129 46/45/130 48/47/131 47/48/132
f 47/48/133 48/47/134 42/42/135 41/41/136
f 42/42/137 48/47/138 46/45/139 44/43/140
f 47/48/141 41/41/142 43/44/143 45/46/144
f 57/49/145 60/50/146 70/51/147 71/52/148
f 58/53/149 59/54/150 66/55/151 67/56/152
f 79/57/153 80/58/154 64/59/155 63/60/156
f 75/61/157 76/62/158 60/50/159 57/49/160
f 49/63/161 72/64/162 69/65/163 53/66/164
f 50/67/165 68/68/166 65/69/167 54/70/168
f 78/71/169 51/72/170 56/73/171 77/74/172
f 74/75/173 49/63/174 53/66/175 73/76/176
f 49/63/177 57/49/178 71/52/179 72/64/180
f 69/65/181 70/51/182 60/50/183 53/66/184
f 50/67/185 58/53/186 67/56/187 68/68/188
f 65/69/189 66/55/190 59/54/191 54/70/192
f 78/71/193 79/57/194 63/60/195 51/72/196
f 56/73/197 64/59/198 80/58/199 77/74/200
f 74/75/201 75/61/202 57/49/203 49/63/204
f 53/66/205 60/50/206 76/62/207 73/76/208
f 55/77/209 62/78/210 66/55/211 65/69/212
f 67/56/213 66/55/214 62/78/215 61/79/216
f 68/68/217 67/56/218 61/79/219 52/80/220
f 65/69/221 68/68/222 52/80/223 55/77/224
f 54/70/225 59/54/226 70/51/227 69/65/228
f 71/52/229 70/51/230 59/54/231 58/53/232
f 72/64/233 71/52/234 58/53/235 50/67/236
f 69/65/237 72/64/238 50/67/239 54/70/240
f 51/72/241 74/75/242 73/76/243 56/73/244
f 51/72/245 63/60/246 75/61/247 74/75/248
f 63/60/249 64/59/250 76/62/251 75/61/252
f 73/76/253 76/62/254 64/59/255 56/73/256
f 52/80/257 78/71/258 77/74/259 55/77/260
f 52/80/261 61/79/262 79/57/263 78/71/264
f 61/79/265 62/78/266 80/58/267 79/57/268
f 77/74/269 80/58/270 62/78/271 55/77/272
v 12.488708 -1.120728 237.511230
v 237.511230 -1.120728 237.511230
v 12.488708 -1.120728 12.488770
v 237.511230 -1.120728 12.488770
v 12.488708 -1.120728 237.511230
v 237.511230 -1.120728 237.511230
v 12.488708 -1.120728 12.488770
v 237.511230 -1.120728 12.488770
vt 1.000000 0.000000
vt 1.000000 1.000000
vt 0.000000 1.000000
vt 0.000000 0.000000
vt 0.000000 0.000000
vt 1.000000 0.000000
vt 1.000000 1.000000
vt 0.000000 1.000000
vn 0.000000 1.000000 0.000000
vn 0.000000 1.000000 0.000000
vn 0.000000 1.000000 0.000000
vn 0.000000 1.000000 0.000000
vn 0.000000 -1.000000 0.000000
vn 0.000000 -1.000000 0.000000
vn 0.000000 -1.000000 0.000000
vn 0.000000 -1.000000 0.000000
s off
f 83/84/273 81/81/274 82/82/275 84/83/276
f 87/85/277 88/86/278 86/87/279 85/88/280
