# This file uses centimeters as units for non-parametric coordinates.

v 0.000000 285.928772 13.822524
v 0.000000 283.185211 11.250000
v 0.000000 283.185211 13.120635
v -0.000000 297.256256 14.161007
v -0.000000 299.999817 13.094183
v 0.000000 299.999817 11.250000
v -0.000000 291.278931 14.620876
v 0.000000 287.103790 14.620876
v -0.000000 292.569214 15.374449
v -0.000000 296.081238 15.374449
v 236.879349 283.185211 13.120635
v 238.749985 283.185211 11.250000
v 236.177460 285.928772 13.822524
v 235.379120 287.103790 14.620876
v 235.379120 291.278931 14.620876
v 238.749985 299.999817 11.250000
v 234.625534 292.569214 15.374449
v 234.625534 296.081238 15.374449
v 235.838989 297.256256 14.161007
v 236.905807 299.999817 13.094183
vt 0.152112 0.127484
vt 0.152147 0.127843
vt 0.152126 0.127870
vt 0.152109 0.127486
vt 0.152126 0.127870
vt 0.152148 0.127874
vt 0.152093 0.127281
vt 0.152093 0.127281
vt 0.152093 0.127281
vt 0.152093 0.127281
vt 0.151699 0.127943
vt 0.151722 0.127923
vt 0.151364 0.127470
vt 0.151345 0.127264
vt 0.151345 0.127264
vt 0.151718 0.127874
vt 0.151347 0.127264
vt 0.151347 0.127264
vt 0.151364 0.127473
vt 0.151696 0.127871
vt 0.152300 0.128021
vt 0.152303 0.128074
vt 0.152317 0.128087
vt 0.152304 0.127943
vt 0.152285 0.127962
vt 0.152287 0.128007
vn -1.000000 0.000000 0.000000
vn -1.000000 0.000000 0.000000
vn -1.000000 0.000000 0.000000
vn -1.000000 -0.000000 -0.000000
vn -1.000000 -0.000000 -0.000000
vn -1.000000 -0.000000 -0.000000
vn -1.000000 -0.000000 -0.000000
vn -1.000000 -0.000000 -0.000000
vn -1.000000 -0.000000 -0.000000
vn -1.000000 -0.000000 -0.000000
vn -1.000000 -0.000000 0.000000
vn -1.000000 -0.000000 0.000000
vn -1.000000 -0.000000 0.000000
vn -1.000000 -0.000000 0.000000
vn -1.000000 -0.000000 -0.000000
vn -1.000000 -0.000000 -0.000000
vn -1.000000 -0.000000 -0.000000
vn -1.000000 -0.000000 -0.000000
vn 0.000000 -1.000000 0.000000
vn 0.000000 -1.000000 0.000000
vn 0.000000 -1.000000 0.000000
vn 0.000000 -1.000000 0.000000
vn 0.000000 -0.561987 0.827146
vn 0.000000 -0.561987 0.827146
vn 0.000000 -0.247851 0.968798
vn 0.000000 -0.247851 0.968798
vn 0.000000 -0.561987 0.827146
vn 0.000000 -0.561987 0.827146
vn 0.000000 -0.561987 0.827146
vn 0.000000 -0.561987 0.827146
vn 0.000000 0.000000 1.000000
vn 0.000000 0.000000 1.000000
vn 0.000000 0.000000 1.000000
vn 0.000000 0.000000 1.000000
vn 0.000000 0.000000 -1.000000
vn 0.000000 0.000000 -1.000000
vn 0.000000 0.000000 -1.000000
vn 0.000000 0.000000 -1.000000
vn 0.000000 -0.504323 0.863515
vn 0.000000 -0.504323 0.863515
vn 0.000000 -0.504323 0.863515
vn 0.000000 -0.504323 0.863515
vn 0.000000 0.000000 1.000000
vn 0.000000 0.000000 1.000000
vn 0.000000 0.000000 1.000000
vn 0.000000 0.000000 1.000000
vn 0.000000 0.362414 0.932017
vn 0.000000 0.362414 0.932017
vn 0.000000 0.718384 0.695647
vn 0.000000 0.718384 0.695647
vn 0.000000 0.362414 0.932017
vn 0.000000 0.362414 0.932017
vn 0.000000 0.362414 0.932017
vn 0.000000 0.362414 0.932017
vn 0.000000 1.000000 0.000000
vn 0.000000 1.000000 0.000000
vn 0.000000 1.000000 0.000000
vn 0.000000 1.000000 0.000000
vn 0.707111 0.000001 0.707103
vn 0.707107 -0.000001 0.707107
vn 0.707099 0.000000 0.707115
vn 0.707099 0.000000 0.707115
vn 0.707107 -0.000001 0.707107
vn 0.707107 -0.000001 0.707106
vn 0.707107 -0.000001 0.707107
vn 0.707108 -0.000001 0.707106
vn 0.707107 -0.000001 0.707107
vn 0.707108 -0.000001 0.707106
vn 0.707119 0.000013 0.707095
vn 0.707111 0.000001 0.707103
vn 0.707113 0.000001 0.707100
vn 0.707107 -0.000001 0.707106
vn 0.707107 -0.000001 0.707107
vn 0.707107 -0.000001 0.707107
vn 0.707107 -0.000001 0.707106
vn 0.707098 0.000008 0.707115
s off
f 1/1/1 2/2/2 3/3/3
f 4/4/4 5/5/5 6/6/6
f 4/4/7 6/6/8 2/2/9 1/1/10
f 7/7/11 4/4/12 1/1/13 8/8/14
f 9/9/15 10/10/16 4/4/17 7/7/18
f 11/11/19 3/3/20 2/2/21 12/12/22
f 13/13/23 1/1/24 3/3/25 11/11/26
f 14/14/27 8/8/28 1/1/29 13/13/30
f 15/15/31 7/7/32 8/8/33 14/14/34
f 12/12/35 2/2/36 6/6/37 16/16/38
f 17/17/39 9/9/40 7/7/41 15/15/42
f 18/18/43 10/10/44 9/9/45 17/17/46
f 19/19/47 4/4/48 10/10/49 18/18/50
f 20/20/51 5/5/52 4/4/53 19/19/54
f 16/16/55 6/6/56 5/5/57 20/20/58
f 15/21/59 19/24/60 18/25/61 17/26/62
f 19/24/63 13/23/64 12/12/65 16/16/66
f 19/24/67 16/16/68 20/20/69
f 15/21/70 14/22/71 13/23/72 19/24/73
f 12/12/74 13/23/75 11/11/76
