# This file uses centimeters as units for non-parametric coordinates.

v -8.109314 274.114990 0.000900
v 8.109314 274.114990 0.000900
v -8.109314 0.000000 0.000900
v 8.109314 0.000000 0.000900
v 8.109314 19.799875 0.000900
v 8.109314 243.039215 0.000900
v -8.109314 19.799875 0.000900
v -8.109314 243.039215 0.000900
v 8.109314 19.799875 -249.999130
v -8.109314 19.799875 -249.999130
v 8.109314 0.000000 -249.999130
v -8.109314 0.000000 -249.999130
v -8.109314 274.114990 -249.999130
v 8.109314 274.114990 -249.999130
v 8.109314 247.738373 -249.999130
v -8.109314 247.738373 -249.999130
v 8.109314 19.799875 -239.860550
v -8.109314 19.799875 -239.860550
v 8.109314 19.799875 -208.868576
v -8.109314 19.799875 -208.868576
v 8.109314 247.738373 -28.134689
v -8.109314 247.738373 -28.134689
v -8.109314 126.684349 -140.578476
v -8.109314 77.926918 -185.867920
v -8.109314 98.416801 -157.849701
v -2.666387 101.412041 -164.053223
v 8.109314 19.799875 -96.487404
v 8.109314 19.799875 -161.086975
v 8.109314 14.836191 -134.535095
v 4.703081 19.799875 -125.710152
v -8.109314 274.114990 -190.230835
v 8.109314 274.114990 -198.584702
v 8.109314 251.024506 -185.569427
v -5.684445 247.738373 -149.589859
vt 0.037300 0.281308
vt 0.038059 0.281318
vt 0.037341 0.282036
vt 0.038090 0.282051
vt 0.037342 0.281989
vt 0.037307 0.281345
vt 0.038092 0.282004
vt 0.038065 0.281352
vt 0.038092 0.282004
vt 0.037342 0.281989
vt 0.037341 0.282036
vt 0.038090 0.282051
vt 0.038059 0.281319
vt 0.037300 0.281308
vt 0.037307 0.281345
vt 0.038065 0.281352
vt 0.037342 0.281989
vt 0.038092 0.282004
vt 0.037342 0.281989
vt 0.038092 0.282004
vt 0.037307 0.281345
vt 0.038065 0.281352
vt 0.038080 0.281699
vt 0.038085 0.281838
vt 0.038083 0.281778
vt 0.037831 0.281766
vt 0.037342 0.281989
vt 0.037342 0.281989
vt 0.037342 0.282001
vt 0.037500 0.281993
vt 0.038059 0.281319
vt 0.037300 0.281308
vt 0.037307 0.281345
vt 0.038065 0.281352
vn 0.000000 0.000000 -1.000000
vn 0.000000 0.000000 -1.000000
vn 0.000000 0.000000 -1.000000
vn 0.000000 0.000000 -1.000000
vn 0.000000 0.000000 -1.000000
vn 0.000000 0.000000 -1.000000
vn 0.000000 0.000000 -1.000000
vn 0.000000 0.000000 -1.000000
vn 0.000000 1.000000 0.000000
vn 0.000000 1.000000 0.000000
vn 0.000000 1.000000 0.000000
vn 0.000000 1.000000 0.000000
vn 1.000000 0.000000 0.000000
vn 1.000000 0.000000 0.000000
vn 1.000000 0.000000 0.000000
vn -1.000000 0.000000 0.000000
vn -1.000000 0.000000 0.000000
vn -1.000000 0.000000 0.000000
vn 0.000000 1.000000 0.000000
vn 0.000000 1.000000 0.000000
vn 0.000000 1.000000 0.000000
vn 0.000000 1.000000 0.000000
vn 1.000000 0.000000 0.000000
vn 1.000000 0.000000 0.000000
vn 1.000000 0.000000 0.000000
vn 1.000000 0.000000 0.000000
vn 0.095921 -0.995329 -0.010894
vn 0.095921 -0.995329 -0.010894
vn 0.095921 -0.995329 -0.010894
vn 0.095921 -0.995329 -0.010894
vn -0.998829 -0.047755 -0.007771
vn -0.998829 -0.047755 -0.007771
vn -0.998829 -0.047755 -0.007771
vn -0.998829 -0.047755 -0.007771
vn 1.000000 0.000000 0.000000
vn 1.000000 0.000000 0.000000
vn 1.000000 0.000000 0.000000
vn -1.000000 0.000000 0.000000
vn -1.000000 0.000000 0.000000
vn -1.000000 0.000000 0.000000
vn 1.000000 0.000000 0.000000
vn 1.000000 0.000000 0.000000
vn 1.000000 0.000000 0.000000
vn 0.000000 -1.000000 0.000000
vn 0.000000 -1.000000 0.000000
vn 0.000000 -1.000000 0.000000
vn 0.000000 -1.000000 0.000000
vn -1.000000 -0.000000 0.000000
vn -1.000000 -0.000000 0.000000
vn -1.000000 -0.000000 0.000000
vn -1.000000 -0.000000 0.000000
vn 0.000000 1.000000 0.000000
vn 0.000000 1.000000 0.000000
vn 0.000000 1.000000 0.000000
vn 1.000000 0.000000 0.000000
vn 1.000000 0.000000 0.000000
vn 1.000000 0.000000 0.000000
vn -1.000000 0.000000 0.000000
vn -1.000000 0.000000 0.000000
vn -1.000000 0.000000 0.000000
vn -1.000000 0.000000 0.000000
vn -1.000000 0.000000 0.000000
vn -1.000000 0.000000 0.000000
vn -1.000000 0.000000 0.000000
vn -0.000001 0.680570 -0.732683
vn -0.000001 0.680570 -0.732683
vn -0.000001 0.680570 -0.732683
vn 1.000000 0.000000 0.000000
vn 1.000000 0.000000 0.000000
vn 1.000000 0.000000 0.000000
vn 1.000000 0.000000 0.000000
vn 0.000000 -0.683214 0.730218
vn 0.000000 -0.683214 0.730218
vn 0.000000 -0.683214 0.730218
vn 0.000000 -0.683214 0.730218
vn 0.000000 0.000000 1.000000
vn 0.000000 0.000000 1.000000
vn 0.000000 0.000000 1.000000
vn 0.000000 0.000000 1.000000
vn 0.000000 0.000000 1.000000
vn 0.000000 0.000000 1.000000
vn 0.000000 0.000000 1.000000
vn 0.000000 0.000000 1.000000
vn -0.745044 0.538404 -0.393738
vn -0.745044 0.538404 -0.393738
vn -0.745044 0.538404 -0.393738
vn -0.783166 0.324198 -0.530609
vn -0.783166 0.324198 -0.530609
vn -0.783166 0.324198 -0.530609
vn 0.742911 0.663765 -0.086594
vn 0.742911 0.663765 -0.086594
vn 0.742911 0.663765 -0.086594
vn 0.885773 0.456215 0.085286
vn 0.885773 0.456215 0.085286
vn 0.885773 0.456215 0.085286
vn 0.000000 1.000000 0.000000
vn 0.000000 1.000000 0.000000
vn 0.000000 1.000000 0.000000
vn 0.000000 1.000000 0.000000
vn 1.000000 0.000000 0.000000
vn 1.000000 0.000000 0.000000
vn 1.000000 0.000000 0.000000
vn 1.000000 0.000000 0.000000
vn 0.129947 -0.991360 0.017851
vn 0.129947 -0.991360 0.017851
vn 0.129947 -0.991360 0.017851
vn 0.129947 -0.991360 0.017851
vn -0.999298 -0.034279 0.015128
vn -0.999298 -0.034279 0.015128
vn -0.999298 -0.034279 0.015128
vn -0.999298 -0.034279 0.015128
vn -1.000000 0.000000 0.000000
vn -1.000000 0.000000 0.000000
vn -1.000000 0.000000 0.000000
vn -1.000000 0.000000 0.000000
vn -1.000000 0.000000 0.000000
vn -1.000000 0.000000 0.000000
vn -1.000000 0.000000 0.000000
vn 0.000000 0.680570 -0.732683
vn 0.000000 0.680570 -0.732683
vn 0.000000 0.680570 -0.732683
vn 0.000000 0.680570 -0.732683
vn 0.000001 0.680570 -0.732683
vn 0.000001 0.680570 -0.732683
vn 0.000001 0.680570 -0.732683
vn 0.000001 0.680570 -0.732683
vn 0.000000 1.000000 0.000000
vn 0.000000 1.000000 0.000000
vn 0.000000 1.000000 0.000000
vn 0.000000 1.000000 0.000000
vn 0.000000 1.000000 0.000000
vn 0.000000 1.000000 0.000000
vn 0.000000 1.000000 0.000000
vn 0.000000 1.000000 0.000000
vn 1.000000 -0.000000 0.000000
vn 1.000000 -0.000000 0.000000
vn 1.000000 -0.000000 0.000000
vn 1.000000 -0.000000 0.000000
vn 1.000000 0.000000 0.000000
vn 1.000000 0.000000 0.000000
vn 1.000000 0.000000 0.000000
vn 1.000000 0.000000 0.000000
s off
f 10/9/1 9/10/2 11/11/3 12/12/4
f 13/13/5 14/14/6 15/15/7 16/16/8
f 18/18/9 17/17/10 9/10/11 10/9/12
f 17/17/13 11/11/14 9/10/15
f 12/12/16 18/18/17 10/9/18
f 1/2/19 2/1/20 32/32/21 31/31/22
f 2/1/23 21/21/24 33/33/25 32/32/26
f 21/21/27 22/22/28 34/34/29 33/33/30
f 22/22/31 1/2/32 31/31/33 34/34/34
f 19/19/35 11/11/36 17/17/37
f 12/12/38 20/20/39 18/18/40
f 29/29/41 4/3/42 11/11/43
f 4/3/44 3/4/45 12/12/46 11/11/47
f 3/4/48 7/7/49 20/20/50 12/12/51
f 7/7/52 30/30/53 20/20/54
f 2/1/55 6/6/56 21/21/57
f 8/8/58 1/2/59 22/22/60
f 20/20/61 25/25/62 24/24/63 18/18/64
f 26/26/65 21/21/66 17/17/67
f 21/21/68 6/6/69 19/19/70 17/17/71
f 6/6/72 8/8/73 20/20/74 19/19/75
f 7/7/76 3/4/77 4/3/78 5/5/79
f 8/8/80 6/6/81 2/1/82 1/2/83
f 25/25/84 26/26/85 24/24/86
f 23/23/87 26/26/88 25/25/89
f 29/29/90 30/30/91 27/27/92
f 28/28/93 30/30/94 29/29/95
f 31/31/96 32/32/97 14/14/98 13/13/99
f 32/32/100 33/33/101 15/15/102 14/14/103
f 33/33/104 34/34/105 16/16/106 15/15/107
f 34/34/108 31/31/109 13/13/110 16/16/111
f 8/8/112 22/22/113 23/23/114 25/25/115
f 8/8/116 25/25/117 20/20/118
f 26/26/119 17/17/120 18/18/121 24/24/122
f 22/22/123 21/21/124 26/26/125 23/23/126
f 7/7/127 5/5/128 27/27/129 30/30/130
f 20/20/131 30/30/132 28/28/133 19/19/134
f 29/29/135 11/11/136 19/19/137 28/28/138
f 5/5/139 4/3/140 29/29/141 27/27/142
