# This file uses centimeters as units for non-parametric coordinates.

v -8.109314 0.000000 0.000900
v 8.109314 0.000000 0.000900
v 8.109314 19.799875 0.000900
v -8.109314 19.799875 0.000900
v 8.109314 19.799875 -249.999130
v -8.109314 19.799875 -249.999130
v 8.109314 0.000000 -249.999130
v -8.109314 0.000000 -249.999130
v 8.109314 19.799875 -208.868576
v -4.935604 19.799875 -186.760742
v 8.109314 19.799875 -96.487404
v 8.109314 19.799875 -161.086975
v 8.109314 14.836191 -134.535095
v 4.703081 19.799875 -125.710152
v -8.109314 19.799875 -98.078278
v -8.109314 2.034539 -100.231606
v 8.109314 0.000000 -135.646362
vt 0.037341 0.282036
vt 0.038090 0.282051
vt 0.037342 0.281989
vt 0.038092 0.282004
vt 0.038092 0.282004
vt 0.037342 0.281990
vt 0.037341 0.282036
vt 0.038090 0.282051
vt 0.037342 0.281989
vt 0.038092 0.282004
vt 0.037342 0.281989
vt 0.037342 0.281989
vt 0.037342 0.282001
vt 0.037500 0.281993
vt 0.038081 0.282004
vt 0.038090 0.282051
vt 0.037341 0.282036
vn 0.000000 0.000000 -1.000000
vn 0.000000 0.000000 -1.000000
vn 0.000000 0.000000 -1.000000
vn 0.000000 0.000000 -1.000000
vn 1.000000 0.000000 0.000000
vn 1.000000 0.000000 0.000000
vn 1.000000 0.000000 0.000000
vn -0.998743 0.000000 0.050123
vn -0.998743 0.000000 0.050123
vn -0.998743 0.000000 0.050123
vn 1.000000 -0.000000 0.000000
vn 1.000000 -0.000000 0.000000
vn 1.000000 -0.000000 0.000000
vn -0.071950 -0.997371 -0.008603
vn -0.071950 -0.997371 -0.008603
vn -0.071950 -0.997371 -0.008603
vn -0.071950 -0.997371 -0.008603
vn -1.000000 -0.000000 0.000000
vn -1.000000 -0.000000 0.000000
vn -1.000000 -0.000000 0.000000
vn -1.000000 -0.000000 0.000000
vn 0.000000 0.000000 1.000000
vn 0.000000 0.000000 1.000000
vn 0.000000 0.000000 1.000000
vn 0.000000 0.000000 1.000000
vn 0.742911 0.663765 -0.086594
vn 0.742911 0.663765 -0.086594
vn 0.742911 0.663765 -0.086594
vn 0.885773 0.456215 0.085286
vn 0.885773 0.456215 0.085286
vn 0.885773 0.456215 0.085286
vn 0.000000 1.000000 0.000000
vn 0.000000 1.000000 0.000000
vn 0.000000 1.000000 0.000000
vn 0.000000 1.000000 0.000000
vn 0.000000 1.000000 0.000000
vn 0.000000 1.000000 0.000000
vn 0.000000 1.000000 0.000000
vn 0.000000 1.000000 0.000000
vn 1.000000 -0.000000 0.000000
vn 1.000000 -0.000000 0.000000
vn 1.000000 -0.000000 0.000000
vn 1.000000 -0.000000 0.000000
vn 1.000000 0.000000 0.000000
vn 1.000000 0.000000 0.000000
vn 1.000000 0.000000 0.000000
vn 1.000000 0.000000 0.000000
vn 0.000000 1.000000 0.000000
vn 0.000000 1.000000 0.000000
vn 0.000000 1.000000 0.000000
vn 0.000000 1.000000 0.000000
vn 0.000000 1.000000 0.000000
vn 0.000000 1.000000 0.000000
vn 0.000000 1.000000 0.000000
vn 0.000000 1.000000 0.000000
vn 0.000000 1.000000 0.000000
vn 0.000000 1.000000 0.000000
vn -0.993983 0.108620 -0.014156
vn -0.993983 0.108620 -0.014156
vn -0.993983 0.108620 -0.014156
vn -0.993983 0.108620 -0.014156
vn -0.054231 -0.998499 0.007692
vn -0.054231 -0.998499 0.007692
vn -0.054231 -0.998499 0.007692
vn -0.054231 -0.998499 0.007692
vn 1.000000 0.000000 0.000000
vn 1.000000 0.000000 0.000000
vn 1.000000 0.000000 0.000000
s off
f 6/5/1 5/6/2 7/7/3 8/8/4
f 9/9/5 7/7/6 5/6/7
f 8/8/8 10/10/9 6/5/10
f 13/13/11 2/1/12 17/17/13
f 2/1/14 1/2/15 16/16/16 17/17/17
f 1/2/18 4/4/19 15/15/20 16/16/21
f 4/4/22 1/2/23 2/1/24 3/3/25
f 13/13/26 14/14/27 11/11/28
f 12/12/29 14/14/30 13/13/31
f 4/4/32 3/3/33 11/11/34 15/15/35
f 10/10/36 14/14/37 12/12/38 9/9/39
f 13/13/40 7/7/41 9/9/42 12/12/43
f 3/3/44 2/1/45 13/13/46 11/11/47
f 6/5/48 10/10/49 9/9/50 5/6/51
f 15/15/52 11/11/53 14/14/54
f 15/15/55 14/14/56 10/10/57
f 16/16/58 15/15/59 10/10/60 8/8/61
f 17/17/62 16/16/63 8/8/64 7/7/65
f 13/13/66 17/17/67 7/7/68
