# This file uses centimeters as units for non-parametric coordinates.

v -14.703293 -1.986400 14.703064
v 0.000000 -1.986400 14.703064
v -14.703293 10.048948 14.703064
v 0.000000 10.048948 14.703064
v -14.703293 10.048948 -0.000244
v 0.000000 10.048948 -0.000244
v -14.703293 -1.986400 -0.000244
v 0.000000 -1.986400 -0.000244
v -11.830292 13.353105 11.830078
v -2.873016 13.353105 11.830078
v -2.873016 13.353105 2.872742
v -11.830292 13.353105 2.872742
v -0.000092 8.388362 0.000183
v 0.000000 83.460854 -109.242004
v 0.000000 83.460854 -124.999939
v 125.000000 83.460854 -124.999939
v 109.242004 83.460854 0.000000
v 124.999939 83.460854 0.000000
v 109.242004 83.460854 -109.242004
v 12.658966 17.087803 -6.804138
v 101.873291 78.397011 -6.804321
v 101.873291 78.397011 -93.296082
v 6.804199 17.087799 -12.658875
v 94.837891 78.396996 -101.873352
v 6.804291 78.396996 -101.873352
v -0.000015 75.612488 -111.678772
v 109.934296 74.911797 -109.934265
v 125.000000 74.855919 -124.999939
v 0.000000 74.855919 -124.999939
v 111.678802 75.612503 0.000000
v 124.999939 74.855919 0.000000
v 0.000000 1.296582 0.000183
v 106.746857 71.305237 -6.804321
v 17.532532 9.996033 -6.804138
v 106.746826 71.305237 -93.296082
v 94.837921 71.305214 -106.746887
v 6.804230 9.996006 -17.532410
v 6.804291 71.305214 -106.746887
vt 0.194526 0.129539
vt 0.194526 0.129539
vt 0.194526 0.129539
vt 0.194526 0.129539
vt 0.194526 0.129539
vt 0.194526 0.129539
vt 0.194526 0.129539
vt 0.194526 0.129539
vt 0.194526 0.129539
vt 0.194526 0.129539
vt 0.194526 0.129539
vt 0.194526 0.129539
vt 0.194526 0.129539
vt 0.194526 0.129539
vt 0.194526 0.129539
vt 0.194526 0.129539
vt 0.194526 0.129539
vt 0.194526 0.129539
vt 0.194526 0.129539
vt 0.194526 0.129539
vt 0.194526 0.129539
vt 0.194526 0.129539
vt 0.194526 0.129539
vt 0.194526 0.129539
vt 0.194526 0.129539
vt 0.194526 0.129539
vt 0.194526 0.129539
vt 0.194526 0.129539
vt 0.194526 0.129539
vt 0.194526 0.129539
vt 0.194526 0.129539
vt 0.194526 0.129539
vt 0.194526 0.129539
vt 0.194526 0.129539
vt 0.194526 0.129539
vt 0.194526 0.129539
vt 0.194526 0.129539
vt 0.194526 0.129539
vt 0.194526 0.129539
vt 0.194526 0.129539
vt 0.194526 0.129539
vt 0.194526 0.129539
vt 0.194526 0.129539
vt 0.194526 0.129539
vt 0.194526 0.129539
vt 0.194526 0.129539
vt 0.194526 0.129539
vt 0.194526 0.129539
vt 0.194526 0.129539
vt 0.194526 0.129539
vt 0.194526 0.129539
vt 0.194526 0.129539
vt 0.194526 0.129539
vt 0.194526 0.129539
vt 0.194526 0.129539
vt 0.194526 0.129539
vt 0.194526 0.129539
vt 0.194526 0.129539
vt 0.194526 0.129539
vt 0.194526 0.129539
vt 0.194526 0.129539
vt 0.194526 0.129539
vt 0.194526 0.129539
vt 0.194526 0.129539
vt 0.194526 0.129539
vt 0.194526 0.129539
vt 0.194526 0.129539
vt 0.194526 0.129539
vt 0.194526 0.129539
vt 0.194526 0.129539
vt 0.194526 0.129539
vt 0.194526 0.129539
vt 0.194526 0.129539
vt 0.194526 0.129539
vn 0.000000 0.000000 1.000000
vn 0.000000 0.000000 1.000000
vn 0.000000 0.000000 1.000000
vn 0.000000 0.000000 1.000000
vn 0.000000 1.000000 0.000000
vn 0.000000 1.000000 0.000000
vn 0.000000 1.000000 0.000000
vn 0.000000 1.000000 0.000000
vn 0.000000 0.000000 -1.000000
vn 0.000000 0.000000 -1.000000
vn 0.000000 0.000000 -1.000000
vn 0.000000 0.000000 -1.000000
vn 0.000000 -1.000000 0.000000
vn 0.000000 -1.000000 0.000000
vn 0.000000 -1.000000 0.000000
vn 0.000000 -1.000000 0.000000
vn 1.000000 0.000000 0.000000
vn 1.000000 0.000000 0.000000
vn 1.000000 0.000000 0.000000
vn 1.000000 0.000000 0.000000
vn -1.000000 0.000000 0.000000
vn -1.000000 0.000000 0.000000
vn -1.000000 0.000000 0.000000
vn -1.000000 0.000000 0.000000
vn 0.000000 0.656154 0.754628
vn 0.000000 0.656154 0.754627
vn 0.000000 0.656154 0.754627
vn 0.000000 0.656154 0.754627
vn 0.754624 0.656157 0.000000
vn 0.754624 0.656157 0.000000
vn 0.754624 0.656157 0.000000
vn 0.754624 0.656157 0.000000
vn 0.000000 0.656153 -0.754628
vn 0.000000 0.656153 -0.754628
vn 0.000000 0.656153 -0.754628
vn 0.000000 0.656153 -0.754628
vn -0.754626 0.656156 0.000000
vn -0.754626 0.656156 0.000000
vn -0.754626 0.656155 0.000000
vn -0.754626 0.656155 0.000000
vn -0.003181 -0.999633 0.026922
vn -0.003181 -0.999633 0.026922
vn -0.003181 -0.999632 0.026922
vn -0.003181 -0.999633 0.026922
vn -0.026922 -0.999633 0.003181
vn -0.026922 -0.999632 0.003181
vn -0.026922 -0.999633 0.003181
vn -0.026922 -0.999632 0.003181
vn 0.484155 -0.874833 -0.016136
vn 0.485658 -0.874079 -0.011060
vn 0.611037 -0.778119 0.145481
vn 0.607235 -0.779976 0.151338
vn 0.607235 -0.779976 0.151338
vn 0.611037 -0.778119 0.145481
vn 0.523661 -0.843607 -0.118772
vn 0.480454 -0.865137 -0.143882
vn 0.480454 -0.865137 -0.143882
vn 0.523661 -0.843607 -0.118772
vn 0.485658 -0.874079 -0.011060
vn 0.484155 -0.874833 -0.016136
vn 0.016829 -0.877043 -0.480117
vn 0.011223 -0.876175 -0.481862
vn 0.124895 -0.844899 -0.520141
vn 0.148351 -0.864136 -0.480896
vn 0.148351 -0.864136 -0.480896
vn 0.124895 -0.844899 -0.520141
vn -0.145106 -0.777860 -0.611455
vn -0.150972 -0.779732 -0.607640
vn -0.150972 -0.779732 -0.607640
vn -0.145106 -0.777860 -0.611455
vn 0.011223 -0.876175 -0.481862
vn 0.016829 -0.877043 -0.480117
vn 0.000000 1.000000 0.000000
vn 0.000000 1.000000 0.000000
vn 0.000000 1.000000 0.000000
vn 0.000000 1.000000 0.000000
vn 0.000000 1.000000 0.000000
vn 0.000000 1.000000 0.000000
vn 0.000000 1.000000 0.000000
vn 0.000000 1.000000 0.000000
vn -0.566368 0.824152 0.000000
vn -0.566366 0.824154 0.000000
vn -0.566367 0.824153 0.000000
vn -0.566368 0.824152 0.000000
vn -0.566366 0.824154 0.000000
vn -0.566367 0.824153 -0.000000
vn -0.566367 0.824153 -0.000000
vn -0.566367 0.824153 0.000000
vn -0.566367 0.824153 -0.000000
vn -0.566368 0.824152 0.000000
vn -0.566368 0.824152 0.000000
vn -0.566367 0.824153 -0.000000
vn 0.000001 0.824153 0.566367
vn -0.000001 0.824152 0.566368
vn -0.000002 0.824153 0.566368
vn -0.000000 0.824154 0.566366
vn -0.000001 0.824152 0.566368
vn 0.000001 0.824152 0.566369
vn 0.000002 0.824152 0.566368
vn -0.000002 0.824153 0.566368
vn 0.000001 0.824152 0.566369
vn 0.000001 0.824153 0.566367
vn -0.000000 0.824154 0.566366
vn 0.000002 0.824152 0.566368
vn 0.000000 0.000000 -1.000000
vn 0.000000 0.000000 -1.000000
vn 0.000000 0.000000 -1.000000
vn 0.000000 0.000000 -1.000000
vn -1.000000 0.000001 -0.000001
vn -1.000000 0.000001 -0.000001
vn -1.000000 -0.000004 -0.000003
vn -1.000000 -0.000004 -0.000003
vn 0.000001 0.000000 1.000000
vn 0.000001 0.000000 1.000000
vn 0.000000 0.000000 1.000000
vn 0.000000 0.000000 1.000000
vn 1.000000 0.000000 0.000000
vn 1.000000 0.000000 0.000000
vn 1.000000 0.000000 0.000000
vn 1.000000 0.000000 0.000000
vn 0.000001 0.000000 1.000000
vn 0.000001 0.000000 1.000000
vn 0.000001 0.000000 1.000000
vn 0.000001 0.000000 1.000000
vn -0.000001 -0.000001 -1.000000
vn -0.000001 -0.000001 -1.000000
vn -0.000001 -0.000001 -1.000000
vn -0.000001 -0.000001 -1.000000
vn -0.824153 -0.566368 0.000000
vn -0.824153 -0.566368 0.000000
vn -0.824152 -0.566368 0.000000
vn -0.824153 -0.566368 0.000000
vn 0.514453 0.353538 0.781248
vn 0.514453 0.353538 0.781248
vn 0.514453 0.353538 0.781248
vn 0.514453 0.353538 0.781248
vn -0.775831 0.357341 -0.519994
vn -0.775831 0.357341 -0.519994
vn -0.775831 0.357341 -0.519994
vn -0.775831 0.357341 -0.519994
vn 0.000000 -0.566366 0.824154
vn 0.000000 -0.566366 0.824154
vn 0.000000 -0.566366 0.824154
vn 0.000000 -0.566366 0.824154
vn -1.000000 -0.000004 -0.000003
vn -1.000000 -0.000004 -0.000003
vn -1.000000 -0.000005 -0.000003
vn -1.000000 -0.000005 -0.000003
vn 1.000000 0.000001 0.000002
vn 1.000000 0.000001 0.000002
vn 1.000000 0.000001 0.000002
vn 1.000000 0.000001 0.000002
s off
f 1/1/1 2/2/2 4/4/3 3/3/4
f 9/15/5 10/16/6 11/17/7 12/18/8
f 5/5/9 6/6/10 8/8/11 7/7/12
f 7/7/13 8/8/14 2/10/15 1/9/16
f 2/2/17 8/11/18 6/12/19 4/4/20
f 7/13/21 1/1/22 3/3/23 5/14/24
f 3/3/25 4/4/26 10/16/27 9/15/28
f 4/4/29 6/6/30 11/17/31 10/16/32
f 6/6/33 5/5/34 12/18/35 11/17/36
f 5/5/37 3/3/38 9/15/39 12/18/40
f 26/19/41 29/20/42 28/21/43 27/22/44
f 30/23/45 27/24/46 28/25/47 31/26/48
f 32/27/49 34/28/50 33/29/51 30/30/52
f 30/30/53 33/29/54 35/31/55 27/32/56
f 27/32/57 35/31/58 34/28/59 32/27/60
f 32/33/61 37/34/62 36/35/63 27/36/64
f 27/36/65 36/35/66 38/37/67 26/38/68
f 26/38/69 38/37/70 37/34/71 32/33/72
f 14/39/73 19/40/74 16/41/75 15/42/76
f 17/43/77 18/44/78 16/45/79 19/46/80
f 13/47/81 17/48/82 21/49/83 20/50/84
f 17/48/85 19/51/86 22/52/87 21/49/88
f 19/51/89 13/47/90 20/50/91 22/52/92
f 13/53/93 19/54/94 24/55/95 23/56/96
f 19/54/97 14/57/98 25/58/99 24/55/100
f 14/57/101 13/53/102 23/56/103 25/58/104
f 16/59/105 28/21/106 29/20/107 15/60/108
f 15/60/109 29/20/110 26/19/111 14/61/112
f 17/62/113 30/23/114 31/26/115 18/63/116
f 18/63/117 31/26/118 28/25/119 16/64/120
f 13/65/121 32/27/122 30/30/123 17/66/124
f 21/67/125 33/29/126 34/28/127 20/68/128
f 22/69/129 35/31/130 33/29/131 21/67/132
f 20/68/133 34/28/134 35/31/135 22/69/136
f 24/70/137 36/35/138 37/34/139 23/71/140
f 25/72/141 38/37/142 36/35/143 24/70/144
f 14/73/145 26/38/146 32/33/147 13/74/148
f 23/71/149 37/34/150 38/37/151 25/72/152
v 94.837891 74.851105 -104.310120
v 6.804199 13.541903 -15.095642
v 6.804291 74.851105 -104.310120
v 104.310059 74.851120 -93.296082
v 104.310059 74.851120 -6.804382
v 15.095764 13.541918 -6.804138
v 6.804199 13.049070 -15.095642
v 6.804291 74.358269 -104.310120
v 94.837891 74.358269 -104.310120
v 104.310059 74.358284 -6.804382
v 15.095764 13.049086 -6.804138
v 104.310059 74.358284 -93.296082
vt 0.000001 1.000000
vt 0.000000 0.085036
vt 0.902855 1.000000
vt 0.085037 0.000000
vt 1.000000 0.000003
vt 1.000000 0.887043
vt 0.000001 1.000000
vt 0.000000 0.085036
vt 0.902855 1.000000
vt 0.085037 0.000000
vt 1.000000 0.000003
vt 1.000000 0.887043
vn 0.000000 0.824153 0.566367
vn 0.000000 0.824153 0.566367
vn 0.000000 0.824153 0.566367
vn -0.566368 0.824152 0.000000
vn -0.566368 0.824152 0.000000
vn -0.566368 0.824152 0.000000
vn 0.000000 -0.824153 -0.566367
vn 0.000000 -0.824153 -0.566367
vn 0.000000 -0.824153 -0.566367
vn 0.566368 -0.824152 0.000000
vn 0.566368 -0.824152 0.000000
vn 0.566368 -0.824152 0.000000
s off
f 46/81/153 45/82/154 47/83/155
f 49/84/156 48/85/157 50/86/158
f 41/75/159 39/77/160 40/76/161
f 44/78/162 42/80/163 43/79/164
