# This file uses centimeters as units for non-parametric coordinates.

v -8.546542 5.341117 -8.768972
v -0.000676 4.189262 -10.209452
v -0.000676 16.534004 12.998430
v -0.000676 13.437827 -14.062502
v -0.000676 6.034919 -12.134640
v -0.000676 13.692496 11.872162
v -0.000676 18.551308 -12.549513
v -0.000676 20.590981 -12.729082
v -0.000676 26.428734 -6.025635
v -0.000676 26.522972 6.846821
v -0.000676 22.190941 11.335608
v -0.000676 27.667046 0.868149
v -10.025950 12.348639 -11.488842
v -7.070766 7.205451 -10.670643
v -10.191513 21.689827 -4.180145
v -10.164564 21.121620 0.999978
v -7.520715 17.895454 11.916868
v -9.249222 21.080727 7.338733
v -7.062595 15.071403 10.947905
v -9.643510 17.866142 5.490460
v -10.225375 18.793861 0.134049
v -10.910631 11.975028 -10.303789
v -10.571408 19.570122 -4.334335
v -5.557986 24.229774 4.701168
v -5.590868 23.941734 -4.706932
v -4.956894 24.978874 -5.504475
v -4.733317 25.610542 5.080978
v -3.422735 22.297646 10.560427
v -6.791739 22.165367 8.805790
v -7.168111 21.535393 8.092823
v 8.545192 5.341117 -8.768972
v 10.024600 12.348639 -11.488842
v 7.069415 7.205451 -10.670643
v 10.190163 21.671516 -4.180145
v 10.163214 21.112160 0.999978
v 8.393527 17.135460 11.570021
v 9.247871 21.063988 7.338733
v 8.040203 14.957404 10.822706
v 9.642159 17.866142 5.490460
v 10.224025 18.793861 0.134049
v 10.909281 11.975028 -10.303789
v 10.570058 19.560478 -4.334335
v 5.556635 24.201897 4.701168
v 5.589517 23.923332 -4.706932
v 4.955543 24.966194 -5.504957
v 4.731966 25.588631 5.080978
v 3.421384 22.502144 10.005581
v 6.790388 22.168709 8.742865
v 7.166759 21.518730 8.088528
v 2.187290 26.173393 2.815807
v 2.290672 25.207603 -5.841758
v 2.365674 25.104286 5.958655
v -2.367025 25.896416 2.974562
v -2.478785 24.954414 -5.832464
v -2.339155 25.342125 5.974281
v -0.000676 14.096244 -1.051538
v 6.450252 20.939125 12.168612
v 3.452063 22.456398 10.009241
v 1.984082 22.409828 10.965992
v 3.067856 20.582146 14.484774
v 5.383117 24.835732 11.492167
v 3.024376 24.031837 9.904802
v 1.646224 24.455879 10.191069
v 2.798510 25.598106 12.376076
v 3.593703 25.978249 6.738758
v 1.991321 25.170540 6.668338
v 1.089362 25.575661 6.358646
v 1.723374 27.162163 6.094273
v 2.906113 26.212639 -3.275655
v 1.869487 25.675804 -3.245908
v 1.285982 25.855110 -3.516386
v 1.696143 26.844353 -3.813146
v 4.876351 15.555076 13.574507
v 4.877482 13.903907 11.952381
v -3.952242 22.405251 13.501343
v -6.389256 22.781456 12.068319
v -1.786963 23.007927 11.032759
v -4.139026 22.593071 10.459995
v -4.192174 25.911018 9.935518
v -5.749929 24.252907 9.933393
v -2.336119 24.441856 8.673622
v -3.555319 23.432121 8.886091
v -3.284168 26.965431 0.964015
v -3.869324 26.088173 1.086147
v -2.222522 26.282860 0.563735
v -2.714573 25.744469 0.732458
v -2.863318 16.296822 12.639805
v -2.933724 13.516623 11.526924
v -0.000676 17.475136 12.714973
v 0.160507 16.995995 12.833376
v 0.204974 16.805305 13.098045
v 0.331689 16.467293 13.037691
vt 0.052441 0.190977
vt 0.052423 0.190978
vt 0.052443 0.191034
vt 0.052531 0.191116
vt 0.052456 0.191092
vt 0.052449 0.191183
vt 0.052494 0.191174
vt 0.052360 0.190969
vt 0.052357 0.190967
vt 0.052308 0.190956
vt 0.052334 0.190973
vt 0.052306 0.191005
vt 0.052272 0.191005
vt 0.052437 0.191205
vt 0.052495 0.191198
vt 0.052299 0.191048
vt 0.052306 0.191080
vt 0.052271 0.191081
vt 0.052265 0.191049
vt 0.052380 0.191019
vt 0.052398 0.191052
vt 0.052343 0.191078
vt 0.052341 0.191046
vt 0.052443 0.191016
vt 0.052452 0.191038
vt 0.052533 0.191119
vt 0.052488 0.191028
vt 0.052482 0.191010
vt 0.052348 0.191007
vt 0.052357 0.191014
vt 0.052370 0.190985
vt 0.052440 0.190988
vt 0.052443 0.191043
vt 0.052341 0.191046
vt 0.052265 0.191049
vt 0.052272 0.191005
vt 0.052306 0.191005
vt 0.052355 0.190945
vt 0.052385 0.190975
vt 0.052405 0.190961
vt 0.052363 0.191108
vt 0.052386 0.191167
vt 0.052323 0.190964
vt 0.052297 0.190975
vt 0.052252 0.191004
vt 0.052285 0.190969
vt 0.052362 0.191188
vt 0.052222 0.191043
vt 0.052246 0.191046
vt 0.052251 0.191078
vt 0.052229 0.191074
vt 0.052233 0.191016
vt 0.052243 0.191047
vt 0.052269 0.191012
vt 0.052274 0.191033
vt 0.052347 0.191110
vt 0.052308 0.191007
vt 0.052305 0.191024
vt 0.052243 0.191012
vt 0.052240 0.191005
vt 0.052282 0.190984
vt 0.052352 0.190987
vt 0.052363 0.190976
vt 0.052222 0.191043
vt 0.052252 0.191004
vt 0.052272 0.191005
vt 0.052265 0.191049
vt 0.052370 0.191092
vt 0.052252 0.191004
vt 0.052222 0.191043
vt 0.052272 0.191005
vt 0.052266 0.191041
vt 0.052266 0.191045
vt 0.052265 0.191049
vt 0.052252 0.191004
vt 0.052222 0.191043
vt 0.052272 0.191005
vt 0.052265 0.191049
vt 0.052252 0.191004
vt 0.052222 0.191043
vt 0.052272 0.191005
vt 0.052265 0.191049
vt 0.052265 0.191049
vt 0.052264 0.191049
vt 0.052265 0.191049
vt 0.052272 0.191005
vt 0.052306 0.191005
vt 0.052341 0.191046
vt 0.052265 0.191049
vt 0.052341 0.191046
vt 0.052272 0.191005
vt 0.052306 0.191005
vn -0.064578 0.832650 -0.550021
vn -0.064578 0.832650 -0.550021
vn -0.064578 0.832650 -0.550021
vn -0.223224 -0.258307 -0.939920
vn -0.223224 -0.258307 -0.939920
vn -0.223224 -0.258307 -0.939920
vn -0.223224 -0.258307 -0.939920
vn -0.093221 0.992512 -0.078929
vn -0.093221 0.992512 -0.078929
vn -0.093221 0.992512 -0.078929
vn -0.093221 0.992512 -0.078929
vn -0.306378 0.756242 0.578126
vn -0.306378 0.756242 0.578126
vn -0.306378 0.756242 0.578126
vn -0.306378 0.756242 0.578126
vn -0.231261 -0.652438 -0.721695
vn -0.231261 -0.652438 -0.721695
vn -0.231261 -0.652438 -0.721695
vn -0.231261 -0.652438 -0.721695
vn -0.193325 -0.359410 0.912935
vn -0.187390 -0.359987 0.913944
vn -0.086244 -0.367722 0.925928
vn -0.086244 -0.367722 0.925928
vn -0.937884 -0.154778 0.310510
vn -0.937884 -0.154778 0.310510
vn -0.937884 -0.154778 0.310510
vn -0.937884 -0.154778 0.310510
vn -0.991541 0.018504 0.128470
vn -0.991541 0.018504 0.128470
vn -0.991541 0.018504 0.128470
vn -0.991541 0.018504 0.128470
vn -0.565159 -0.399476 -0.721814
vn -0.565159 -0.399476 -0.721814
vn -0.565158 -0.399476 -0.721814
vn -0.565159 -0.399476 -0.721814
vn -0.882214 0.296078 -0.366109
vn -0.882214 0.296078 -0.366109
vn -0.882214 0.296078 -0.366109
vn -0.882214 0.296078 -0.366109
vn -0.994924 0.086987 0.050582
vn -0.994925 0.086987 0.050582
vn -0.994924 0.086987 0.050582
vn -0.994925 0.086987 0.050582
vn -0.925785 0.312775 0.212354
vn -0.925785 0.312775 0.212354
vn -0.925785 0.312775 0.212354
vn -0.858483 0.512841 -0.000107
vn -0.858483 0.512841 -0.000107
vn -0.858483 0.512841 -0.000107
vn -0.858483 0.512841 -0.000107
vn -0.507814 0.861266 0.018623
vn -0.507814 0.861266 0.018623
vn -0.507814 0.861266 0.018623
vn -0.507814 0.861266 0.018623
vn -0.260130 0.592137 -0.762697
vn -0.260130 0.592137 -0.762697
vn -0.260130 0.592137 -0.762697
vn -0.573536 0.232420 -0.785518
vn -0.573536 0.232420 -0.785518
vn -0.573536 0.232420 -0.785518
vn -0.379627 0.613616 -0.692357
vn -0.379627 0.613616 -0.692357
vn -0.379627 0.613616 -0.692357
vn -0.822560 -0.011075 -0.568570
vn -0.822560 -0.011075 -0.568570
vn -0.822560 -0.011075 -0.568570
vn -0.822561 -0.011075 -0.568570
vn -0.857156 0.514901 -0.012690
vn -0.857156 0.514901 -0.012690
vn -0.857156 0.514901 -0.012690
vn -0.857156 0.514901 -0.012690
vn -0.306195 0.037557 -0.951228
vn -0.306195 0.037557 -0.951228
vn -0.306195 0.037557 -0.951228
vn -0.306195 0.037557 -0.951228
vn -0.314409 0.777190 0.545090
vn -0.314409 0.777190 0.545090
vn -0.314409 0.777189 0.545090
vn -0.493236 0.854457 0.163161
vn -0.493236 0.854457 0.163161
vn -0.493236 0.854457 0.163161
vn -0.493236 0.854457 0.163161
vn -0.375300 0.688418 0.620669
vn -0.375300 0.688418 0.620669
vn -0.375300 0.688418 0.620669
vn -0.556348 0.809446 0.187815
vn -0.556348 0.809446 0.187815
vn -0.556348 0.809446 0.187815
vn -0.556348 0.809446 0.187815
vn -0.392764 0.584416 0.710066
vn -0.392764 0.584416 0.710067
vn -0.392764 0.584416 0.710067
vn 0.413843 0.686515 -0.597856
vn 0.413843 0.686515 -0.597856
vn 0.413843 0.686515 -0.597856
vn 0.223224 -0.258307 -0.939919
vn 0.223224 -0.258307 -0.939919
vn 0.223224 -0.258307 -0.939919
vn 0.223224 -0.258307 -0.939919
vn 0.553828 0.824896 -0.113231
vn 0.553828 0.824896 -0.113231
vn 0.553828 0.824896 -0.113231
vn 0.553828 0.824896 -0.113231
vn 0.026012 0.843917 0.535842
vn 0.026012 0.843917 0.535842
vn 0.026012 0.843917 0.535842
vn 0.231261 -0.652438 -0.721695
vn 0.231261 -0.652438 -0.721695
vn 0.231261 -0.652438 -0.721695
vn 0.231261 -0.652438 -0.721695
vn 0.520752 -0.483334 0.703708
vn 0.147758 -0.531629 0.833989
vn 0.157182 -0.531453 0.832377
vn 0.520752 -0.483334 0.703708
vn 0.977996 -0.084618 0.190691
vn 0.977996 -0.084618 0.190691
vn 0.977996 -0.084618 0.190691
vn 0.977996 -0.084618 0.190691
vn 0.991537 0.018584 0.128488
vn 0.991537 0.018584 0.128488
vn 0.991537 0.018584 0.128488
vn 0.991537 0.018584 0.128488
vn 0.565158 -0.399476 -0.721814
vn 0.565158 -0.399476 -0.721814
vn 0.565158 -0.399476 -0.721814
vn 0.565158 -0.399476 -0.721814
vn 0.881847 0.296800 -0.366410
vn 0.881847 0.296800 -0.366410
vn 0.881847 0.296800 -0.366410
vn 0.881847 0.296800 -0.366410
vn 0.994897 0.087367 0.050467
vn 0.994897 0.087367 0.050467
vn 0.994897 0.087367 0.050467
vn 0.994897 0.087367 0.050467
vn 0.913942 0.376379 0.151822
vn 0.913941 0.376379 0.151822
vn 0.913941 0.376379 0.151822
vn 0.860056 0.510165 -0.005897
vn 0.860056 0.510165 -0.005897
vn 0.860056 0.510165 -0.005897
vn 0.860056 0.510165 -0.005897
vn 0.506535 0.862018 0.018670
vn 0.506535 0.862018 0.018670
vn 0.506535 0.862018 0.018670
vn 0.506535 0.862018 0.018670
vn 0.260068 0.592870 -0.762148
vn 0.260068 0.592870 -0.762148
vn 0.260068 0.592871 -0.762148
vn 0.573816 0.232364 -0.785330
vn 0.573816 0.232364 -0.785330
vn 0.573816 0.232364 -0.785330
vn 0.379878 0.614333 -0.691584
vn 0.379878 0.614333 -0.691584
vn 0.379878 0.614333 -0.691584
vn 0.822559 -0.011142 -0.568570
vn 0.822559 -0.011142 -0.568570
vn 0.822559 -0.011142 -0.568570
vn 0.822559 -0.011142 -0.568570
vn 0.858211 0.513154 -0.012117
vn 0.858211 0.513154 -0.012117
vn 0.858211 0.513154 -0.012117
vn 0.858211 0.513154 -0.012117
vn 0.220354 -0.399310 -0.889941
vn 0.220354 -0.399310 -0.889941
vn 0.220354 -0.399311 -0.889941
vn 0.220354 -0.399310 -0.889941
vn 0.287522 0.775259 0.562410
vn 0.287522 0.775258 0.562410
vn 0.287522 0.775259 0.562410
vn -0.072508 0.942967 0.324893
vn -0.072508 0.942967 0.324893
vn -0.072508 0.942967 0.324893
vn 0.380576 0.638120 0.669301
vn 0.380576 0.638120 0.669301
vn 0.380576 0.638120 0.669301
vn 0.554702 0.810533 0.187993
vn 0.554702 0.810533 0.187993
vn 0.554702 0.810533 0.187993
vn 0.554702 0.810533 0.187993
vn 0.341642 0.540628 0.768766
vn 0.341642 0.540628 0.768766
vn 0.341642 0.540628 0.768766
vn 0.193768 0.977987 -0.077425
vn 0.193768 0.977987 -0.077425
vn 0.193768 0.977988 -0.077425
vn 0.193768 0.977988 -0.077425
vn 0.146138 0.798562 -0.583903
vn 0.146138 0.798562 -0.583903
vn 0.146138 0.798562 -0.583903
vn 0.495621 0.846221 0.195627
vn 0.495621 0.846221 0.195627
vn 0.495621 0.846221 0.195627
vn 0.495621 0.846221 0.195627
vn 0.357957 0.745907 0.561685
vn 0.357957 0.745907 0.561685
vn 0.357957 0.745907 0.561685
vn 0.357957 0.745907 0.561685
vn -0.587924 0.801787 -0.107157
vn -0.587924 0.801787 -0.107157
vn -0.587924 0.801787 -0.107157
vn -0.587924 0.801787 -0.107157
vn 0.042562 0.982531 0.181166
vn 0.042562 0.982531 0.181166
vn 0.042562 0.982531 0.181166
vn -0.104631 0.839776 0.532756
vn -0.104631 0.839776 0.532756
vn -0.104631 0.839776 0.532756
vn -0.447106 0.674549 -0.587435
vn -0.447106 0.674549 -0.587435
vn -0.447106 0.674549 -0.587435
vn -0.488482 -0.525610 0.696506
vn -0.488482 -0.525610 0.696506
vn -0.488482 -0.525610 0.696506
vn -0.640189 -0.050795 0.766536
vn -0.640189 -0.050795 0.766536
vn -0.640189 -0.050795 0.766536
vn 0.032267 -0.678448 0.733940
vn 0.032267 -0.678448 0.733940
vn 0.032267 -0.678448 0.733940
vn 0.063480 -0.997496 -0.031162
vn -0.191173 -0.977457 -0.089619
vn -0.211655 -0.972796 -0.094180
vn -0.476929 -0.853154 -0.211347
vn -0.476929 -0.853153 -0.211347
vn -0.476929 -0.853154 -0.211347
vn -0.425424 -0.898360 -0.109379
vn -0.425424 -0.898360 -0.109379
vn -0.425424 -0.898360 -0.109379
vn -0.426043 -0.896340 -0.122727
vn -0.426043 -0.896340 -0.122727
vn -0.426043 -0.896340 -0.122727
vn 0.488209 -0.526131 0.696303
vn 0.488209 -0.526131 0.696303
vn 0.488209 -0.526131 0.696303
vn 0.640189 -0.050795 0.766536
vn 0.640189 -0.050795 0.766536
vn 0.640189 -0.050795 0.766536
vn -0.032267 -0.678448 0.733940
vn -0.032267 -0.678448 0.733940
vn -0.032267 -0.678448 0.733940
vn 0.275784 -0.954003 -0.117568
vn 0.162430 -0.983828 -0.075486
vn 0.125405 -0.990186 -0.061690
vn 0.511746 -0.809488 -0.287829
vn 0.511746 -0.809488 -0.287829
vn 0.511746 -0.809488 -0.287829
vn 0.425424 -0.898360 -0.109379
vn 0.425424 -0.898360 -0.109379
vn 0.425424 -0.898360 -0.109379
vn 0.425960 -0.896635 -0.120844
vn 0.425960 -0.896635 -0.120844
vn 0.425960 -0.896635 -0.120844
vn 0.661064 0.434485 -0.611733
vn 0.661064 0.434485 -0.611733
vn 0.661064 0.434484 -0.611733
vn 0.661064 0.434485 -0.611733
vn -0.093492 0.994630 -0.044391
vn -0.093492 0.994630 -0.044391
vn -0.093492 0.994630 -0.044391
vn -0.093492 0.994630 -0.044391
vn 0.144901 0.278252 0.949515
vn 0.144912 0.278262 0.949511
vn 0.145274 0.278602 0.949356
vn 0.144901 0.278252 0.949516
vn 0.111827 -0.137963 0.984104
vn 0.242748 -0.087609 0.966125
vn 0.488952 0.017984 0.872125
vn 0.576320 0.040961 -0.816197
vn 0.576320 0.040961 -0.816197
vn 0.576320 0.040961 -0.816197
vn 0.576320 0.040961 -0.816197
vn -0.414990 -0.296580 -0.860130
vn -0.414990 -0.296580 -0.860130
vn -0.414990 -0.296580 -0.860130
vn -0.414990 -0.296580 -0.860130
vn -0.889728 0.025701 0.455767
vn -0.889728 0.025701 0.455767
vn -0.889728 0.025701 0.455767
vn 0.463807 0.326868 0.823432
vn 0.463807 0.326868 0.823432
vn 0.463807 0.326868 0.823432
vn 0.463807 0.326868 0.823432
vn 0.483017 -0.782008 -0.393901
vn 0.483017 -0.782008 -0.393901
vn 0.483017 -0.782008 -0.393901
vn 0.483017 -0.782008 -0.393901
vn -0.331499 -0.917766 -0.218663
vn -0.331499 -0.917766 -0.218663
vn -0.331499 -0.917766 -0.218663
vn -0.331499 -0.917766 -0.218663
vn -0.878790 0.405620 0.251398
vn -0.878790 0.405620 0.251398
vn -0.878790 0.405620 0.251398
vn 0.332825 0.926835 0.173797
vn 0.332825 0.926835 0.173797
vn 0.332825 0.926835 0.173797
vn 0.453992 -0.889519 -0.051455
vn 0.453992 -0.889519 -0.051455
vn 0.453992 -0.889519 -0.051455
vn 0.453992 -0.889519 -0.051455
vn -0.352820 -0.934903 -0.038406
vn -0.352820 -0.934903 -0.038406
vn -0.352820 -0.934903 -0.038406
vn -0.352820 -0.934903 -0.038406
vn -0.927366 0.374055 -0.008666
vn -0.927366 0.374055 -0.008666
vn -0.927366 0.374055 -0.008666
vn -0.927366 0.374055 -0.008666
vn 0.513923 0.857553 -0.022031
vn 0.513923 0.857553 -0.022031
vn 0.513923 0.857553 -0.022031
vn 0.513923 0.857553 -0.022031
vn -0.937483 0.090893 0.335953
vn -0.937483 0.090893 0.335953
vn -0.937483 0.090893 0.335954
vn -0.781744 0.422605 0.458564
vn -0.781750 0.422621 0.458539
vn -0.781767 0.422667 0.458468
vn -0.781744 0.422605 0.458564
vn 0.547737 0.150311 0.823037
vn 0.547737 0.150311 0.823037
vn 0.547737 0.150311 0.823037
vn 0.534355 0.845258 0.002014
vn 0.534355 0.845258 0.002014
vn 0.534355 0.845258 0.002014
vn -0.885826 0.394667 0.244029
vn -0.885826 0.394667 0.244029
vn -0.885826 0.394667 0.244029
vn -0.159773 -0.231250 0.959685
vn -0.159773 -0.231250 0.959685
vn 0.242748 -0.087609 0.966125
vn 0.111827 -0.137963 0.984104
vn 0.157182 -0.531453 0.832377
vn 0.147758 -0.531629 0.833989
vn -0.097974 -0.519355 0.848924
vn -0.097974 -0.519355 0.848924
vn -0.097974 -0.519355 0.848924
vn 0.125405 -0.990186 -0.061690
vn 0.162430 -0.983828 -0.075486
vn 0.043789 -0.998554 -0.031197
vn -0.446108 -0.202481 0.871774
vn -0.176650 -0.111346 0.977956
vn -0.109847 -0.157987 0.981312
vn 0.516857 0.375918 0.769119
vn 0.593075 0.379246 0.710235
vn -0.034306 0.280569 0.959221
vn 0.217976 0.140249 -0.965824
vn 0.217976 0.140249 -0.965824
vn 0.217976 0.140249 -0.965824
vn 0.217976 0.140249 -0.965824
vn -0.446886 0.044605 -0.893478
vn -0.446886 0.044605 -0.893478
vn -0.446886 0.044605 -0.893478
vn -0.446886 0.044605 -0.893478
vn -0.430056 0.694786 0.576476
vn -0.430057 0.694786 0.576476
vn -0.430056 0.694786 0.576476
vn -0.430057 0.694786 0.576476
vn 0.581866 0.661105 0.473680
vn 0.581866 0.661105 0.473680
vn 0.581866 0.661105 0.473680
vn 0.581866 0.661105 0.473680
vn 0.368339 -0.806340 -0.462755
vn 0.368339 -0.806340 -0.462755
vn 0.368339 -0.806340 -0.462755
vn 0.368339 -0.806340 -0.462755
vn -0.490782 -0.657638 -0.571529
vn -0.490781 -0.657638 -0.571529
vn -0.490781 -0.657638 -0.571529
vn -0.490782 -0.657638 -0.571529
vn -0.764006 0.645035 -0.014962
vn -0.764006 0.645035 -0.014962
vn -0.764006 0.645035 -0.014962
vn -0.764006 0.645035 -0.014962
vn 0.644577 0.746503 0.165088
vn 0.644577 0.746503 0.165088
vn 0.644577 0.746503 0.165088
vn 0.644577 0.746503 0.165088
vn 0.643874 -0.749548 -0.153636
vn 0.643874 -0.749548 -0.153636
vn 0.643874 -0.749548 -0.153636
vn 0.643874 -0.749548 -0.153636
vn -0.417091 -0.865343 -0.277878
vn -0.417091 -0.865343 -0.277878
vn -0.417091 -0.865343 -0.277878
vn -0.417090 -0.865343 -0.277878
vn -0.151866 0.004531 0.988391
vn -0.176650 -0.111346 0.977956
vn -0.338351 -0.101527 0.935527
vn -0.259596 -0.352019 0.899273
vn -0.259596 -0.352019 0.899273
vn -0.187390 -0.359987 0.913944
vn -0.193325 -0.359410 0.912935
vn -0.211655 -0.972796 -0.094180
vn -0.191173 -0.977457 -0.089619
vn -0.334885 -0.934439 -0.121147
vn -0.338351 -0.101527 0.935527
vn -0.176650 -0.111346 0.977956
vn -0.446108 -0.202481 0.871774
vn 0.611655 0.379532 0.694143
vn 0.593075 0.379246 0.710235
vn 0.516857 0.375918 0.769119
vn 0.611655 0.379532 0.694143
vn 0.145274 0.278602 0.949356
vn 0.144912 0.278262 0.949511
vn 0.152122 0.285026 0.946371
vn -0.781767 0.422667 0.458468
vn -0.781750 0.422621 0.458539
vn -0.785182 0.432362 0.443343
vn -0.159765 -0.231241 0.959689
vn -0.159773 -0.231250 0.959685
vn -0.159773 -0.231250 0.959685
s off
f 26/1/1 54/2/2 8/3/3
f 13/4/4 4/5/5 5/6/6 14/7/7
f 27/8/8 53/9/9 54/2/10 26/1/11
f 10/10/12 55/11/13 28/12/14 11/13/15
f 5/6/16 2/14/17 1/15/18 14/7/19
f 87/16/20 88/17/21 6/18/22 3/19/23
f 18/20/24 20/21/25 19/22/26 17/23/27
f 16/24/28 21/25/29 20/21/30 18/20/31
f 14/7/32 1/15/33 22/26/34 13/4/35
f 13/4/36 22/26/37 23/27/38 15/28/39
f 15/28/40 23/27/41 21/25/42 16/24/43
f 17/23/44 29/29/45 30/30/46
f 29/29/47 27/8/48 24/31/49 30/30/50
f 16/24/51 24/31/52 25/32/53 15/28/54
f 13/4/55 15/28/56 4/5/57
f 4/5/58 15/28/59 7/33/60
f 15/28/61 25/32/62 7/33/63
f 25/32/64 26/1/65 8/3/66 7/33/67
f 24/31/68 27/8/69 26/1/70 25/32/71
f 84/34/72 83/35/73 85/36/74 86/37/75
f 27/8/76 29/29/77 28/12/78
f 53/9/79 55/11/80 10/10/81 12/38/82
f 17/23/83 30/30/84 18/20/85
f 24/31/86 16/24/87 18/20/88 30/30/89
f 29/29/90 17/23/91 28/12/92
f 51/39/93 8/3/94 9/40/95
f 32/41/96 33/42/97 5/6/98 4/5/99
f 50/43/100 51/39/101 9/40/102 12/38/103
f 52/44/104 47/45/105 46/46/106
f 5/6/107 33/42/108 31/47/109 2/14/110
f 36/48/111 73/49/112 74/50/113 38/51/114
f 37/52/115 36/48/116 38/51/117 39/53/118
f 35/54/119 37/52/120 39/53/121 40/55/122
f 33/42/123 32/41/124 41/56/125 31/47/126
f 32/41/127 34/57/128 42/58/129 41/56/130
f 34/57/131 35/54/132 40/55/133 42/58/134
f 36/48/135 49/59/136 48/60/137
f 48/60/138 49/59/139 43/61/140 46/46/141
f 35/54/142 34/57/143 44/62/144 43/61/145
f 32/41/146 4/5/147 34/57/148
f 4/5/149 7/33/150 34/57/151
f 34/57/152 7/33/153 44/62/154
f 44/62/155 7/33/156 8/3/157 45/63/158
f 43/61/159 44/62/160 45/63/161 46/46/162
f 69/64/163 70/65/164 71/66/165 72/67/166
f 46/46/167 47/45/168 48/60/169
f 46/46/170 50/43/171 52/44/172
f 36/48/173 37/52/174 49/59/175
f 43/61/176 49/59/177 37/52/178 35/54/179
f 48/60/180 47/45/181 36/48/182
f 46/46/183 45/63/184 51/39/185 50/43/186
f 45/63/187 8/3/188 51/39/189
f 52/44/190 50/43/191 12/38/192 10/10/193
f 10/10/194 11/13/195 47/45/196 52/44/197
f 54/2/198 53/9/199 12/38/200 9/40/201
f 27/8/202 55/11/203 53/9/204
f 28/12/205 55/11/206 27/8/207
f 8/3/208 54/2/209 9/40/210
f 23/27/211 22/26/212 56/68/213
f 22/26/214 1/15/215 56/68/216
f 1/15/217 2/14/218 56/68/219
f 6/18/220 88/17/221 56/68/222
f 19/22/223 20/21/224 56/68/225
f 20/21/226 21/25/227 56/68/228
f 21/25/229 23/27/230 56/68/231
f 41/56/232 42/58/233 56/68/234
f 31/47/235 41/56/236 56/68/237
f 2/14/238 31/47/239 56/68/240
f 38/51/241 74/50/242 56/68/243
f 39/53/244 38/51/245 56/68/246
f 40/55/247 39/53/248 56/68/249
f 42/58/250 40/55/251 56/68/252
f 36/48/253 47/45/254 58/69/255 57/70/256
f 47/45/257 11/13/258 59/71/259 58/69/260
f 11/13/261 89/72/262 90/73/263 59/71/264
f 60/74/265 73/49/266 36/48/267
f 57/70/268 58/69/269 62/75/270 61/76/271
f 58/69/272 59/71/273 63/77/274 62/75/275
f 59/71/276 64/78/277 63/77/278
f 60/74/279 57/70/280 61/76/281 64/78/282
f 61/76/283 62/75/284 66/79/285 65/80/286
f 62/75/287 63/77/288 67/81/289 66/79/290
f 63/77/291 64/78/292 68/82/293
f 64/78/294 61/76/295 68/82/296
f 65/80/297 66/79/298 70/65/299 69/64/300
f 66/79/301 67/81/302 71/66/303 70/65/304
f 67/81/305 68/82/306 72/67/307 71/66/308
f 68/82/309 65/80/310 69/64/311 72/67/312
f 59/71/313 60/74/314 64/78/315
f 59/71/316 90/73/317 91/83/318 60/74/319
f 60/74/320 36/48/321 57/70/322
f 68/82/323 61/76/324 65/80/325
f 63/77/326 68/82/327 67/81/328
f 91/83/329 92/84/330 73/49/331 60/74/332
f 74/50/333 73/49/334 92/84/335 3/19/336 6/18/337
f 56/68/338 74/50/339 6/18/340
f 75/85/341 87/16/342 3/19/343
f 77/86/344 89/72/345 11/13/346
f 11/13/347 28/12/348 78/87/349 77/86/350
f 28/12/351 17/23/352 76/88/353 78/87/354
f 76/88/355 75/85/356 79/89/357 80/90/358
f 75/85/359 77/86/360 81/91/361 79/89/362
f 77/86/363 78/87/364 82/92/365 81/91/366
f 78/87/367 76/88/368 80/90/369 82/92/370
f 80/90/371 79/89/372 83/35/373 84/34/374
f 79/89/375 81/91/376 85/36/377 83/35/378
f 81/91/379 82/92/380 86/37/381 85/36/382
f 82/92/383 80/90/384 84/34/385 86/37/386
f 17/23/387 87/16/388 76/88/389
f 17/23/390 19/22/391 88/17/392 87/16/393
f 56/68/394 88/17/395 19/22/396
f 76/88/397 87/16/398 75/85/399
f 3/19/400 89/72/401 77/86/402 75/85/403
f 90/73/404 89/72/405 3/19/406
f 91/83/407 90/73/408 3/19/409
f 3/19/410 92/84/411 91/83/412
