# This file uses centimeters as units for non-parametric coordinates.

v -1.084866 7.165451 17.612556
v -3.102943 5.817749 15.402889
v -4.589807 3.708267 14.112771
v -1.086155 1.301132 19.177616
v -2.788741 3.454132 17.074781
v -1.086155 0.428543 17.744902
v -3.127274 1.986801 16.048782
v -1.083596 11.092270 14.408525
v -2.222394 11.038498 13.752374
v 0.933675 5.827835 15.427468
v 2.419583 3.708267 14.128142
v 0.617216 3.447678 17.076452
v 0.955677 1.971069 15.951084
v 0.055333 11.020035 13.778372
v -4.320859 3.955109 11.778650
v -4.117375 2.521851 12.446960
v -3.113486 6.240723 12.450993
v -2.750220 9.943451 12.128445
v -1.085819 2.250137 12.990035
v -1.082693 14.961304 12.087070
v -6.615203 13.499008 11.309628
v 1.947121 2.522278 12.446345
v 2.144545 4.016129 11.763758
v 0.938610 6.241959 12.190475
v 0.583666 9.932022 12.122372
v 4.449819 13.499008 11.309628
vt 0.083740 0.164941
vt 0.083595 0.164825
vt 0.083613 0.164617
vt 0.083684 0.164627
vt 0.083834 0.165046
vt 0.083705 0.165073
vt 0.083736 0.165166
vt 0.083819 0.165120
vt 0.083835 0.165024
vt 0.083757 0.164873
vt 0.083731 0.164628
vt 0.083584 0.165228
vt 0.083597 0.165285
vt 0.083625 0.165169
vt 0.083654 0.164285
vt 0.083781 0.164341
vt 0.083496 0.164937
vt 0.083554 0.164627
vt 0.083411 0.165040
vt 0.083496 0.165070
vt 0.083489 0.165161
vt 0.083459 0.165113
vt 0.083452 0.165014
vt 0.083515 0.164867
vt 0.083544 0.164628
vt 0.083529 0.164343
vn -0.708319 0.382968 0.592975
vn -0.708319 0.382968 0.592975
vn -0.708319 0.382968 0.592975
vn -0.708319 0.382968 0.592975
vn -0.815530 0.258011 0.518017
vn -0.815530 0.258011 0.518017
vn -0.815530 0.258011 0.518017
vn -0.849872 -0.155910 0.503398
vn -0.849872 -0.155910 0.503398
vn -0.849872 -0.155910 0.503398
vn -0.970763 -0.199833 -0.132993
vn -0.970762 -0.199833 -0.132993
vn -0.970762 -0.199833 -0.132993
vn -0.856941 0.514886 0.023355
vn -0.856941 0.514886 0.023355
vn -0.856941 0.514886 0.023355
vn -0.856941 0.514886 0.023355
vn -0.994913 0.099156 0.017762
vn -0.994913 0.099156 0.017762
vn -0.994913 0.099156 0.017762
vn -0.655059 0.194962 0.729991
vn -0.655059 0.194962 0.729991
vn -0.655059 0.194962 0.729991
vn -0.815848 -0.358629 0.453628
vn -0.815848 -0.358629 0.453628
vn -0.815848 -0.358629 0.453628
vn -0.815847 -0.358629 0.453628
vn -0.065584 -0.989479 -0.128955
vn -0.065584 -0.989479 -0.128955
vn -0.065584 -0.989479 -0.128955
vn -0.383778 -0.862306 -0.330368
vn -0.383778 -0.862306 -0.330368
vn -0.383778 -0.862306 -0.330368
vn -0.829640 -0.538299 0.148096
vn -0.829640 -0.538299 0.148096
vn -0.829640 -0.538299 0.148096
vn -0.283480 0.443345 0.850344
vn -0.283480 0.443345 0.850344
vn -0.283480 0.443345 0.850344
vn -0.283480 0.443345 0.850344
vn -0.787850 0.282399 0.547305
vn -0.787850 0.282399 0.547305
vn -0.787850 0.282399 0.547305
vn -0.962078 0.215242 0.167561
vn -0.962078 0.215242 0.167561
vn -0.962078 0.215242 0.167561
vn -0.619420 -0.542687 0.567282
vn -0.619420 -0.542687 0.567282
vn -0.619420 -0.542687 0.567282
vn 0.703992 0.385243 0.596643
vn 0.703992 0.385244 0.596643
vn 0.703992 0.385244 0.596643
vn 0.703992 0.385244 0.596643
vn 0.815487 0.252412 0.520836
vn 0.815487 0.252412 0.520836
vn 0.815487 0.252412 0.520836
vn 0.845363 -0.187463 0.500218
vn 0.845363 -0.187463 0.500218
vn 0.845363 -0.187463 0.500218
vn 0.971753 -0.191468 -0.137971
vn 0.971753 -0.191468 -0.137971
vn 0.971753 -0.191468 -0.137971
vn 0.854362 0.519042 0.025705
vn 0.854362 0.519042 0.025705
vn 0.854362 0.519042 0.025705
vn 0.854362 0.519042 0.025705
vn 0.995287 0.095990 0.013798
vn 0.995287 0.095990 0.013798
vn 0.995287 0.095990 0.013798
vn 0.655147 0.194676 0.729989
vn 0.655147 0.194676 0.729989
vn 0.655147 0.194676 0.729989
vn 0.819293 -0.364189 0.442860
vn 0.819293 -0.364190 0.442860
vn 0.819293 -0.364190 0.442860
vn 0.819293 -0.364189 0.442860
vn 0.064074 -0.988451 -0.137328
vn 0.064074 -0.988451 -0.137328
vn 0.064074 -0.988451 -0.137328
vn 0.364315 -0.869649 -0.333144
vn 0.364315 -0.869649 -0.333144
vn 0.364315 -0.869649 -0.333144
vn 0.827669 -0.541066 0.149038
vn 0.827669 -0.541066 0.149038
vn 0.827669 -0.541066 0.149038
vn 0.281815 0.445934 0.849543
vn 0.281815 0.445934 0.849543
vn 0.281815 0.445934 0.849543
vn 0.281815 0.445934 0.849543
vn 0.784471 0.279305 0.553710
vn 0.784471 0.279305 0.553710
vn 0.784471 0.279305 0.553710
vn 0.962398 0.215381 0.165535
vn 0.962398 0.215381 0.165535
vn 0.962398 0.215381 0.165535
vn 0.622816 -0.547775 0.558607
vn 0.622816 -0.547775 0.558607
vn 0.622816 -0.547775 0.558607
s off
f 8/3/1 9/4/2 2/1/3 1/2/4
f 3/5/5 5/6/6 2/1/7
f 7/7/8 5/6/9 3/5/10
f 16/8/11 3/5/12 15/9/13
f 15/9/14 3/5/15 2/1/16 17/10/17
f 18/11/18 17/10/19 2/1/20
f 5/6/21 4/12/22 1/2/23
f 4/12/24 5/6/25 7/7/26 6/13/27
f 19/14/28 7/7/29 16/8/30
f 19/14/31 6/13/32 7/7/33
f 7/7/34 3/5/35 16/8/36
f 20/15/37 21/16/38 9/4/39 8/3/40
f 5/6/41 1/2/42 2/1/43
f 18/11/44 2/1/45 9/4/46
f 21/16/47 18/11/48 9/4/49
f 10/17/50 14/18/51 8/3/52 1/2/53
f 11/19/54 10/17/55 12/20/56
f 13/21/57 11/19/58 12/20/59
f 22/22/60 23/23/61 11/19/62
f 23/23/63 24/24/64 10/17/65 11/19/66
f 25/25/67 10/17/68 24/24/69
f 12/20/70 1/2/71 4/12/72
f 4/12/73 6/13/74 13/21/75 12/20/76
f 19/14/77 22/22/78 13/21/79
f 19/14/80 13/21/81 6/13/82
f 13/21/83 22/22/84 11/19/85
f 20/15/86 8/3/87 14/18/88 26/26/89
f 12/20/90 10/17/91 1/2/92
f 25/25/93 14/18/94 10/17/95
f 26/26/96 14/18/97 25/25/98
