# This file uses centimeters as units for non-parametric coordinates.

v 5.575575 -4.722390 12.253925
v -0.000676 -1.681695 13.737377
v 2.324571 -3.808129 14.567812
v 4.694981 -2.621682 12.336151
v 4.440259 -3.296349 14.095322
v -0.000676 -2.385735 14.648314
v -5.576925 -4.722390 12.253925
v -2.325922 -3.808129 14.567812
v -4.696332 -2.621682 12.336151
v -4.441610 -3.296242 14.095312
v -0.000869 -9.539987 11.808069
v 3.279661 -8.114816 12.719549
v -3.281397 -8.120904 12.700857
v 2.554261 -7.432763 14.374647
v -0.000869 -7.929787 14.827362
v -2.555999 -7.433877 14.371340
v -2.348537 -2.975808 13.088413
v 2.347186 -2.975808 13.088413
v -0.000676 -7.772408 8.456949
v 2.126164 -5.799431 13.754513
v 3.258375 -6.182045 13.286848
v 3.431810 -7.490822 12.290951
v 1.133972 -8.798486 9.957651
v -0.000869 -5.249794 14.366976
v -3.517714 -5.839592 13.018978
v -2.152656 -5.545250 13.645229
v -3.681145 -7.062569 12.118286
v -0.000869 -9.172402 9.233730
v -1.041746 -8.773004 9.738792
vt 0.052320 0.198289
vt 0.052337 0.198382
vt 0.052317 0.198394
vt 0.052303 0.198323
vt 0.052283 0.198261
vt 0.052352 0.198247
vt 0.052390 0.198235
vt 0.052370 0.198255
vt 0.052316 0.198227
vt 0.052512 0.198465
vt 0.052336 0.198445
vt 0.052451 0.198499
vt 0.052381 0.198365
vt 0.052314 0.198451
vt 0.052332 0.198473
vt 0.052427 0.198296
vt 0.052487 0.198273
vt 0.052557 0.198341
vt 0.052514 0.198395
vt 0.052460 0.198381
vt 0.052531 0.198237
vt 0.052459 0.198253
vt 0.052516 0.198504
vt 0.052540 0.198446
vt 0.052458 0.198465
vt 0.052517 0.198492
vt 0.052375 0.198480
vt 0.052444 0.198539
vt 0.052498 0.198516
vn 0.417013 -0.405479 0.813441
vn 0.417013 -0.405479 0.813441
vn 0.417013 -0.405479 0.813441
vn 0.417013 -0.405479 0.813441
vn 0.417013 -0.405479 0.813441
vn 0.496886 0.727883 0.472536
vn 0.496886 0.727883 0.472536
vn 0.496886 0.727883 0.472536
vn 0.496886 0.727883 0.472536
vn 0.892074 0.363436 0.268547
vn 0.892074 0.363436 0.268547
vn 0.892074 0.363436 0.268547
vn 0.690719 -0.421739 -0.587405
vn 0.690718 -0.421739 -0.587405
vn 0.690718 -0.421739 -0.587405
vn 0.690719 -0.421739 -0.587405
vn 0.053350 -0.221692 0.973656
vn 0.053350 -0.221692 0.973656
vn 0.053350 -0.221692 0.973656
vn 0.053350 -0.221692 0.973656
vn 0.915570 -0.103944 0.388494
vn 0.915570 -0.103944 0.388494
vn 0.915570 -0.103944 0.388494
vn 0.915570 -0.103944 0.388494
vn -0.390077 -0.477924 0.787038
vn -0.390077 -0.477924 0.787038
vn -0.390077 -0.477924 0.787038
vn -0.390077 -0.477924 0.787038
vn -0.390077 -0.477924 0.787038
vn 0.061621 0.906946 0.416716
vn 0.061621 0.906946 0.416716
vn 0.061621 0.906946 0.416716
vn 0.061621 0.906946 0.416716
vn -0.892077 0.363438 0.268535
vn -0.892077 0.363438 0.268535
vn -0.892077 0.363438 0.268535
vn -0.686784 -0.386841 -0.615371
vn -0.686784 -0.386841 -0.615371
vn -0.686784 -0.386841 -0.615371
vn -0.686784 -0.386841 -0.615371
vn -0.074879 -0.255057 0.964022
vn -0.074879 -0.255057 0.964022
vn -0.074879 -0.255057 0.964022
vn -0.074879 -0.255057 0.964022
vn -0.894080 -0.151399 0.421544
vn -0.894080 -0.151399 0.421544
vn -0.894080 -0.151399 0.421544
vn -0.894080 -0.151399 0.421544
vn 0.245595 -0.854744 0.457269
vn 0.245595 -0.854744 0.457269
vn 0.245595 -0.854744 0.457269
vn 0.245595 -0.854744 0.457269
vn 0.583057 -0.394236 -0.710368
vn 0.583057 -0.394236 -0.710368
vn 0.583057 -0.394236 -0.710368
vn -0.246313 -0.854788 0.456801
vn -0.246313 -0.854788 0.456801
vn -0.246313 -0.854788 0.456801
vn -0.246313 -0.854788 0.456801
vn -0.521027 -0.414041 -0.746392
vn -0.521027 -0.414041 -0.746392
vn -0.521027 -0.414041 -0.746392
vn -0.496886 0.727883 0.472536
vn -0.496886 0.727883 0.472536
vn -0.496886 0.727883 0.472536
vn -0.496886 0.727883 0.472536
vn -0.061591 0.906936 0.416741
vn -0.061591 0.906936 0.416741
vn -0.061591 0.906936 0.416741
vn -0.061591 0.906936 0.416741
vn 0.463901 0.418121 0.781006
vn 0.463901 0.418121 0.781006
vn 0.463901 0.418121 0.781006
vn 0.741936 -0.492996 -0.454408
vn 0.741936 -0.492996 -0.454408
vn 0.741936 -0.492996 -0.454408
vn 0.217103 0.257425 0.941594
vn 0.217103 0.257425 0.941594
vn 0.217103 0.257425 0.941594
vn 0.217103 0.257425 0.941594
vn -0.451994 0.402570 0.796014
vn -0.451994 0.402570 0.796014
vn -0.451994 0.402570 0.796014
vn -0.732904 -0.518978 -0.439901
vn -0.732904 -0.518978 -0.439901
vn -0.732904 -0.518978 -0.439901
vn -0.223588 0.263447 0.938405
vn -0.223588 0.263447 0.938405
vn -0.223588 0.263447 0.938405
vn -0.223588 0.263447 0.938405
vn -0.517927 -0.461325 0.720368
vn -0.517927 -0.461325 0.720368
vn -0.517927 -0.461325 0.720368
vn 0.410062 -0.905245 -0.111267
vn 0.410062 -0.905245 -0.111267
vn 0.410062 -0.905245 -0.111267
vn 0.410062 -0.905245 -0.111267
vn -0.418468 -0.899860 -0.123035
vn -0.418468 -0.899860 -0.123035
vn -0.418468 -0.899860 -0.123035
vn -0.418468 -0.899860 -0.123035
vn 0.582483 -0.441926 0.682213
vn 0.582483 -0.441926 0.682213
vn 0.582483 -0.441926 0.682213
vn 0.460460 0.226614 -0.858267
vn 0.460460 0.226614 -0.858267
vn 0.460460 0.226614 -0.858267
vn -0.460460 0.226614 -0.858267
vn -0.460460 0.226614 -0.858267
vn -0.460460 0.226614 -0.858267
vn 0.000000 0.655058 -0.755579
vn 0.000000 0.655058 -0.755578
vn 0.000000 0.655058 -0.755579
vn 0.000000 0.655058 -0.755578
vn -0.305007 0.734559 -0.606130
vn -0.305008 0.734559 -0.606130
vn -0.305007 0.734559 -0.606130
vn 0.305007 0.734559 -0.606130
vn 0.305007 0.734559 -0.606130
vn 0.305007 0.734559 -0.606130
s off
f 3/1/1 20/2/2 21/3/3 1/4/4 5/5/5
f 3/1/6 18/6/7 2/7/8 6/8/9
f 4/9/10 5/5/11 1/4/12
f 19/10/13 1/4/14 22/11/15 23/12/16
f 3/1/17 6/8/18 24/13/19 20/2/20
f 14/14/21 12/15/22 22/11/23 21/3/24
f 8/16/25 10/17/26 7/18/27 25/19/28 26/20/29
f 9/21/30 10/17/31 8/16/32 17/22/33
f 9/21/34 7/18/35 10/17/36
f 19/10/37 29/23/38 27/24/39 7/18/40
f 8/16/41 26/20/42 24/13/43 6/8/44
f 16/25/45 25/19/46 27/24/47 13/26/48
f 15/27/49 11/28/50 12/15/51 14/14/52
f 19/10/53 23/12/54 28/29/55
f 15/27/56 16/25/57 13/26/58 11/28/59
f 19/10/60 28/29/61 29/23/62
f 2/7/63 17/22/64 8/16/65 6/8/66
f 4/9/67 18/6/68 3/1/69 5/5/70
f 21/3/71 20/2/72 14/14/73
f 23/12/74 22/11/75 12/15/76
f 20/2/77 24/13/78 15/27/79 14/14/80
f 26/20/81 25/19/82 16/25/83
f 27/24/84 29/23/85 13/26/86
f 24/13/87 26/20/88 16/25/89 15/27/90
f 27/24/91 25/19/92 7/18/93
f 28/29/94 23/12/95 12/15/96 11/28/97
f 29/23/98 28/29/99 11/28/100 13/26/101
f 21/3/102 22/11/103 1/4/104
f 4/9/105 1/4/106 19/10/107
f 7/18/108 9/21/109 19/10/110
f 18/6/111 19/10/112 17/22/113 2/7/114
f 18/6/115 4/9/116 19/10/117
f 17/22/118 19/10/119 9/21/120
