# This file uses centimeters as units for non-parametric coordinates.

v -33.356762 -82.499420 -7.772751
v 33.356762 -82.499420 -7.772751
v -16.441334 9.167480 -4.296120
v 16.441334 9.167480 -4.296120
v -17.053896 9.450745 -6.840026
v 17.053896 9.450745 -6.840026
v -34.576405 -81.454697 -10.539427
v 34.578590 -81.454773 -10.539427
v -0.000000 -79.894485 -22.468243
v -0.000000 11.713028 -11.973166
v -0.000000 11.713028 -9.450621
v -0.000000 -80.938461 -19.701540
v -17.037863 -79.893265 -20.623184
v -8.412225 11.332596 -10.850558
v -8.220667 11.332596 -8.377082
v -16.649914 -80.937271 -17.856422
v 8.220667 11.332596 -8.377082
v 8.412225 11.332596 -10.850574
v 17.076359 -82.917870 -24.865860
v 16.649914 -80.937271 -17.856422
v 0.005292 -33.737083 -13.393572
v 11.766085 -33.724991 -13.383095
v 23.561367 -33.728394 -6.912539
v 24.441990 -33.728142 -9.813082
v 12.102103 -33.734085 -18.249260
v 0.005157 -40.289337 -18.272741
v -12.090338 -33.733841 -18.249210
v -24.431055 -33.728142 -9.813082
v -23.550241 -33.728394 -6.912539
v -11.755452 -33.724991 -13.381283
v -17.450258 0.898163 -9.918839
v -18.125734 0.894836 -12.833368
v -8.952888 1.921738 -18.459436
v 1.204918 2.548981 -19.022808
v 8.964364 1.918869 -19.899309
v 18.126490 0.894836 -12.833368
v 17.451046 0.898163 -9.918839
v 8.740081 2.140228 -14.737301
v 0.000300 2.392761 -15.447979
v -8.739454 2.140228 -14.737301
v 0.004845 -18.280678 -12.014359
v 10.426575 -18.389267 -11.634422
v 21.060007 -22.049515 -8.153587
v 21.844173 -22.049515 -11.055771
v 10.750518 -19.607826 -16.026951
v 0.035626 -18.124847 -21.622473
v -10.739619 -19.607452 -16.026501
v -21.835009 -22.049515 -11.055689
v -21.050259 -22.049515 -8.153587
v -10.416953 -18.389267 -11.634422
v 0.012466 -55.656136 -18.249775
v 14.060920 -55.649529 -17.285175
v 28.336594 -58.634781 -10.504192
v 29.379686 -58.087799 -13.334223
v 14.411028 -55.105469 -20.115374
v 0.011707 -58.136841 -21.078115
v -14.529163 -58.144516 -24.359829
v -30.144230 -58.088318 -13.334198
v -29.157150 -58.635086 -10.504187
v -14.169167 -55.649529 -17.285175
v -0.000000 -120.620514 -24.779781
v -0.000000 -119.024841 -28.754971
v 18.063751 -117.505539 -25.763025
v 17.652409 -119.101227 -21.787838
v -17.652409 -117.765366 -21.787838
v -18.063751 -116.169678 -25.763025
v -36.620178 -114.485916 -9.413889
v -35.304848 -114.881172 -4.041212
v 36.620178 -113.394119 -9.413889
v 35.304848 -113.789375 -4.041212
v -12.989955 0.973282 -14.636028
v -9.835970 -9.211121 -17.284414
v -7.840236 -18.991318 -17.865614
v 0.004939 -33.330482 -18.991676
v 7.490290 -18.989471 -17.877890
v 9.788649 -8.577179 -17.316069
v 13.164324 0.949753 -14.526569
v -3.477188 -30.119415 -18.372509
v 6.056755 -26.021713 -17.852497
v -19.294548 -36.776001 -17.420977
v -8.594140 -82.918198 -25.782633
v -0.000000 -95.445526 -28.898495
v 19.700054 -58.426086 -21.458529
v 18.377733 -36.776878 -18.104858
v 8.522827 -91.722717 -27.328884
v 19.221134 -9.979218 -10.257366
v 19.862339 -9.456711 -13.204273
v -19.839361 -9.366592 -13.210394
v -19.029911 -8.905289 -10.329945
v 15.671660 -20.298401 -14.022470
v 6.302765 -79.893631 -21.786015
v -8.700406 -55.107002 -20.497341
v -16.034254 -20.318810 -13.814615
v 10.991406 -75.613403 -21.147480
v 12.733048 10.391617 -7.877760
v 3.872155 -18.200066 -20.648062
v 0.157836 -22.231956 -21.346977
v -3.548214 -20.374802 -22.189449
v -12.733048 10.391617 -7.877746
v 5.834832 -7.532318 -19.378883
v -0.821119 -8.028915 -21.140713
v -7.224876 -8.919876 -20.934706
vt 0.304435 0.066556
vt 0.304466 0.066560
vt 0.304460 0.066622
vt 0.304427 0.066617
vt 0.304428 0.048797
vt 0.304442 0.050715
vt 0.304432 0.050687
vt 0.304469 0.070122
vt 0.304422 0.070114
vt 0.314854 0.049999
vt 0.314854 0.049999
vt 0.304394 0.069888
vt 0.304399 0.069861
vt 0.304534 0.069912
vt 0.314854 0.049999
vt 0.304530 0.069883
vt 0.304501 0.050700
vt 0.304493 0.050724
vt 0.304501 0.048810
vt 0.304495 0.066566
vt 0.304493 0.066628
vt 0.314854 0.049999
vt 0.304514 0.070131
vt 0.304513 0.050679
vt 0.304523 0.051554
vt 0.304520 0.051526
vt 0.304551 0.070169
vt 0.304418 0.050663
vt 0.304362 0.070124
vt 0.314854 0.049999
vt 0.304401 0.051506
vt 0.304396 0.051534
vt 0.304425 0.066652
vt 0.304460 0.066659
vt 0.304463 0.066702
vt 0.304425 0.066697
vt 0.304385 0.051599
vt 0.304381 0.051650
vt 0.304377 0.070002
vt 0.304381 0.069953
vt 0.304412 0.062316
vt 0.304408 0.062272
vt 0.304425 0.046955
vt 0.304467 0.068557
vt 0.304465 0.068520
vt 0.304428 0.046908
vt 0.304491 0.046967
vt 0.304504 0.046922
vt 0.304538 0.069982
vt 0.304526 0.062294
vt 0.304511 0.062330
vt 0.304549 0.070036
vt 0.314854 0.049999
vt 0.304536 0.051681
vt 0.304501 0.066712
vt 0.304496 0.066665
vt 0.304526 0.051625
vt 0.314854 0.049999
vt 0.304523 0.050669
vt 0.304465 0.069857
vt 0.304502 0.069866
vt 0.304493 0.069852
vt 0.304462 0.069845
vt 0.304437 0.069855
vt 0.304430 0.069842
vt 0.304395 0.050649
vt 0.314854 0.049999
vt 0.304431 0.051483
vt 0.304398 0.051492
vt 0.304461 0.051485
vt 0.304489 0.051493
vt 0.304513 0.051511
vt 0.304390 0.051568
vt 0.304388 0.069923
vt 0.304446 0.043054
vt 0.304477 0.043069
vt 0.304535 0.069949
vt 0.314854 0.049999
vt 0.304523 0.051593
vt 0.304463 0.066756
vt 0.304421 0.066751
vt 0.304371 0.051705
vt 0.304366 0.070056
vt 0.304424 0.062367
vt 0.304436 0.047001
vt 0.304511 0.070065
vt 0.304492 0.062379
vt 0.304552 0.070096
vt 0.304539 0.051741
vt 0.304503 0.066768
vt 0.304448 0.062386
vt 0.304465 0.051769
vt 0.304421 0.051762
vt 0.304504 0.051778
vt 0.304536 0.051814
vt 0.304366 0.051773
vt 0.304507 0.069862
vt 0.304473 0.069885
vt 0.304495 0.069891
vt 0.304469 0.069921
vt 0.304482 0.069916
vt 0.304469 0.069909
vt 0.304455 0.069909
vt 0.304448 0.069882
vt 0.304412 0.069847
vt 0.304517 0.062258
vt 0.304467 0.047014
vt 0.304471 0.062395
vt 0.304449 0.047012
vt 0.304410 0.062239
vt 0.304466 0.050753
vt 0.314854 0.049999
vt 0.314854 0.049999
vt 0.314854 0.049999
vt 0.314854 0.049999
vt 0.314854 0.049999
vt 0.314854 0.049999
vt 0.314854 0.049999
vt 0.314854 0.049999
vt 0.314854 0.049999
vt 0.314854 0.049999
vt 0.314854 0.049999
vt 0.314854 0.049999
vt 0.314854 0.049999
vt 0.314854 0.049999
vt 0.314854 0.049999
vt 0.314854 0.049999
vt 0.314854 0.049999
vt 0.314854 0.049999
vt 0.314854 0.049999
vt 0.314854 0.049999
vt 0.314854 0.049999
vt 0.314854 0.049999
vt 0.314854 0.049999
vt 0.314854 0.049999
vt 0.314854 0.049999
vt 0.314854 0.049999
vt 0.314854 0.049999
vt 0.314854 0.049999
vt 0.314854 0.049999
vt 0.314854 0.049999
vt 0.314854 0.049999
vt 0.314854 0.049999
vt 0.314854 0.049999
vt 0.314854 0.049999
vt 0.314854 0.049999
vt 0.314854 0.049999
vt 0.314854 0.049999
vn -0.053245 0.154328 0.986584
vn -0.053245 0.154328 0.986584
vn -0.053245 0.154328 0.986584
vn -0.053245 0.154328 0.986584
vn 0.484232 -0.059788 -0.872895
vn 0.484232 -0.059788 -0.872895
vn 0.484232 -0.059788 -0.872895
vn 0.139159 -0.921463 -0.362685
vn 0.139159 -0.921463 -0.362685
vn 0.139159 -0.921463 -0.362685
vn 0.139159 -0.921463 -0.362685
vn 0.961534 0.151131 0.229375
vn 0.961533 0.151131 0.229375
vn 0.961534 0.151131 0.229375
vn 0.961534 0.151131 0.229375
vn -0.960761 0.148489 0.234283
vn -0.960761 0.148489 0.234283
vn -0.960761 0.148489 0.234283
vn -0.960761 0.148489 0.234283
vn -0.526117 -0.056935 -0.848504
vn -0.526117 -0.056935 -0.848504
vn -0.526117 -0.056935 -0.848504
vn 0.053244 0.154351 0.986580
vn 0.053244 0.154351 0.986580
vn 0.053244 0.154351 0.986580
vn 0.053244 0.154351 0.986580
vn -0.205337 -0.911876 -0.355413
vn -0.205337 -0.911876 -0.355413
vn -0.205337 -0.911876 -0.355413
vn -0.205337 -0.911876 -0.355413
vn -0.361109 0.111557 -0.925827
vn -0.361109 0.111557 -0.925827
vn -0.361109 0.111557 -0.925827
vn -0.361109 0.111557 -0.925827
vn 0.351937 0.045176 0.934933
vn 0.351937 0.045176 0.934933
vn 0.351937 0.045176 0.934933
vn 0.351937 0.045176 0.934933
vn -0.264924 -0.951923 -0.153809
vn -0.264924 -0.951923 -0.153810
vn -0.264924 -0.951923 -0.153809
vn -0.264924 -0.951923 -0.153809
vn 0.364011 0.116880 -0.924032
vn 0.364011 0.116880 -0.924032
vn 0.364011 0.116880 -0.924032
vn 0.364011 0.116880 -0.924032
vn 0.362303 -0.922998 -0.129659
vn 0.362303 -0.922998 -0.129659
vn 0.362303 -0.922998 -0.129659
vn 0.362303 -0.922998 -0.129659
vn -0.349260 0.043945 0.935995
vn -0.349260 0.043945 0.935995
vn -0.349260 0.043945 0.935995
vn -0.349260 0.043945 0.935995
vn -0.036866 -0.197620 0.979585
vn -0.036866 -0.197620 0.979585
vn -0.036866 -0.197620 0.979585
vn -0.036866 -0.197620 0.979585
vn -0.462050 -0.207720 0.862185
vn -0.462050 -0.207720 0.862185
vn -0.462050 -0.207720 0.862185
vn -0.462050 -0.207720 0.862185
vn 0.935029 0.137136 0.326979
vn 0.935029 0.137136 0.326979
vn 0.935029 0.137136 0.326979
vn 0.935029 0.137136 0.326979
vn 0.686724 0.197950 -0.699447
vn 0.686724 0.197950 -0.699447
vn 0.686724 0.197950 -0.699447
vn 0.686724 0.197950 -0.699447
vn -0.005712 0.117943 -0.993004
vn -0.005712 0.117943 -0.993004
vn -0.005712 0.117943 -0.993004
vn -0.005712 0.117943 -0.993004
vn 0.031288 0.130394 -0.990969
vn 0.031288 0.130394 -0.990969
vn 0.031288 0.130394 -0.990968
vn 0.031288 0.130394 -0.990969
vn -0.641394 0.183682 -0.744899
vn -0.641394 0.183682 -0.744899
vn -0.641394 0.183682 -0.744899
vn -0.641394 0.183682 -0.744899
vn -0.932408 0.168046 0.319963
vn -0.932408 0.168046 0.319963
vn -0.932408 0.168046 0.319963
vn -0.932408 0.168046 0.319963
vn 0.452210 -0.215955 0.865373
vn 0.452210 -0.215955 0.865373
vn 0.452210 -0.215955 0.865373
vn 0.452210 -0.215955 0.865373
vn 0.036744 -0.197737 0.979566
vn 0.036744 -0.197737 0.979566
vn 0.036744 -0.197737 0.979566
vn 0.036744 -0.197737 0.979566
vn -0.973029 -0.036880 0.227716
vn -0.973029 -0.036880 0.227716
vn -0.973029 -0.036880 0.227716
vn -0.973029 -0.036880 0.227716
vn -0.278956 0.574156 -0.769759
vn -0.278956 0.574156 -0.769759
vn -0.278956 0.574156 -0.769759
vn -0.104353 0.613807 -0.782529
vn -0.104353 0.613807 -0.782529
vn -0.104353 0.613807 -0.782529
vn -0.104353 0.613807 -0.782529
vn 0.052490 0.656804 -0.752232
vn 0.052490 0.656804 -0.752232
vn 0.052490 0.656804 -0.752232
vn 0.052490 0.656804 -0.752232
vn 0.269927 0.574907 -0.772413
vn 0.269927 0.574907 -0.772413
vn 0.269927 0.574907 -0.772413
vn 0.973032 -0.036791 0.227716
vn 0.973032 -0.036791 0.227716
vn 0.973032 -0.036791 0.227716
vn 0.973032 -0.036791 0.227716
vn -0.476292 -0.525497 0.704982
vn -0.476292 -0.525497 0.704982
vn -0.476292 -0.525497 0.704982
vn -0.476292 -0.525497 0.704982
vn -0.107519 -0.554060 0.825504
vn -0.107519 -0.554060 0.825504
vn -0.107519 -0.554060 0.825504
vn -0.107519 -0.554060 0.825504
vn 0.107520 -0.554055 0.825507
vn 0.107520 -0.554055 0.825507
vn 0.107520 -0.554055 0.825507
vn 0.107520 -0.554055 0.825507
vn 0.476299 -0.525470 0.704997
vn 0.476299 -0.525470 0.704997
vn 0.476299 -0.525470 0.704997
vn 0.476299 -0.525470 0.704997
vn -0.017949 -0.101817 0.994641
vn -0.017949 -0.101817 0.994641
vn -0.017949 -0.101817 0.994641
vn -0.017949 -0.101817 0.994641
vn -0.414736 -0.076005 0.906762
vn -0.414736 -0.076005 0.906762
vn -0.414736 -0.076005 0.906762
vn -0.414736 -0.076005 0.906762
vn 0.934854 0.232609 0.268218
vn 0.934854 0.232609 0.268218
vn 0.934854 0.232609 0.268218
vn 0.934854 0.232609 0.268218
vn 0.782847 0.108953 -0.612601
vn 0.782847 0.108953 -0.612601
vn 0.782847 0.108953 -0.612601
vn 0.239847 0.099342 -0.965715
vn 0.239847 0.099343 -0.965715
vn 0.239847 0.099343 -0.965715
vn 0.239847 0.099343 -0.965715
vn -0.196723 0.082135 -0.977013
vn -0.196723 0.082135 -0.977013
vn -0.196723 0.082135 -0.977013
vn -0.196723 0.082135 -0.977013
vn -0.801139 0.115607 -0.587207
vn -0.801139 0.115607 -0.587207
vn -0.801139 0.115607 -0.587207
vn -0.934847 0.232494 0.268344
vn -0.934847 0.232494 0.268344
vn -0.934847 0.232494 0.268344
vn -0.934846 0.232494 0.268344
vn 0.414674 -0.075899 0.906799
vn 0.414674 -0.075899 0.906799
vn 0.414674 -0.075899 0.906799
vn 0.414674 -0.075899 0.906799
vn 0.018030 -0.101762 0.994645
vn 0.018030 -0.101762 0.994645
vn 0.018030 -0.101762 0.994645
vn 0.018030 -0.101762 0.994645
vn -0.091045 -0.044437 0.994855
vn -0.091045 -0.044437 0.994855
vn -0.091045 -0.044437 0.994855
vn -0.091045 -0.044437 0.994855
vn -0.481862 -0.036118 0.875503
vn -0.481862 -0.036118 0.875503
vn -0.481862 -0.036118 0.875503
vn -0.481862 -0.036118 0.875503
vn 0.874709 0.238609 0.421842
vn 0.874709 0.238609 0.421842
vn 0.874709 0.238609 0.421842
vn 0.874709 0.238609 0.421842
vn 0.634464 0.044016 -0.771698
vn 0.634464 0.044016 -0.771699
vn 0.634464 0.044016 -0.771698
vn 0.634464 0.044016 -0.771698
vn 0.058165 0.040502 -0.997485
vn 0.058165 0.040502 -0.997485
vn 0.058165 0.040502 -0.997485
vn -0.540761 -0.081467 -0.837222
vn -0.540761 -0.081467 -0.837222
vn -0.540761 -0.081467 -0.837222
vn -0.535376 -0.039774 -0.843677
vn -0.535376 -0.039774 -0.843677
vn -0.535376 -0.039774 -0.843677
vn -0.535376 -0.039774 -0.843677
vn -0.887653 0.210169 0.409758
vn -0.887653 0.210169 0.409758
vn -0.887653 0.210169 0.409758
vn -0.887653 0.210169 0.409758
vn 0.472432 -0.025490 0.880998
vn 0.472432 -0.025490 0.880998
vn 0.472432 -0.025490 0.880998
vn 0.472432 -0.025490 0.880998
vn 0.090655 -0.044270 0.994898
vn 0.090655 -0.044270 0.994898
vn 0.090655 -0.044270 0.994898
vn 0.090655 -0.044270 0.994898
vn 0.245869 0.032148 -0.968770
vn 0.245869 0.032148 -0.968770
vn 0.245869 0.032148 -0.968770
vn -0.133667 -0.115636 0.984257
vn -0.133667 -0.115636 0.984257
vn -0.133667 -0.115636 0.984257
vn -0.133667 -0.115636 0.984257
vn -0.480517 0.136334 -0.866323
vn -0.480517 0.136334 -0.866323
vn -0.480517 0.136334 -0.866324
vn 0.129050 -0.117639 0.984635
vn 0.129050 -0.117639 0.984636
vn 0.129050 -0.117639 0.984635
vn 0.129050 -0.117639 0.984636
vn -0.589105 0.072705 -0.804779
vn -0.589105 0.072705 -0.804779
vn -0.589105 0.072705 -0.804779
vn -0.589105 0.072705 -0.804779
vn 0.628472 -0.029038 0.777290
vn 0.628472 -0.029038 0.777290
vn 0.628472 -0.029038 0.777290
vn 0.628472 -0.029038 0.777290
vn -0.947497 0.080795 0.309389
vn -0.947497 0.080795 0.309389
vn -0.947497 0.080795 0.309389
vn -0.947497 0.080795 0.309389
vn 0.645328 0.026761 -0.763437
vn 0.645328 0.026761 -0.763437
vn 0.645328 0.026761 -0.763437
vn 0.645328 0.026761 -0.763437
vn 0.947058 0.083571 0.309996
vn 0.947058 0.083571 0.309996
vn 0.947058 0.083571 0.309996
vn 0.947058 0.083571 0.309996
vn -0.627244 -0.028887 0.778287
vn -0.627244 -0.028887 0.778287
vn -0.627244 -0.028887 0.778287
vn -0.627244 -0.028887 0.778287
vn -0.553070 0.542798 -0.632047
vn -0.553070 0.542798 -0.632047
vn -0.553070 0.542798 -0.632047
vn -0.684655 -0.022583 -0.728517
vn -0.684655 -0.022583 -0.728517
vn -0.684655 -0.022583 -0.728517
vn -0.064579 0.210094 -0.975546
vn -0.064579 0.210093 -0.975546
vn -0.064579 0.210094 -0.975546
vn -0.064579 0.210094 -0.975546
vn 0.192599 -0.059968 -0.979444
vn 0.192599 -0.059968 -0.979444
vn 0.192599 -0.059968 -0.979444
vn 0.244695 -0.057642 -0.967885
vn 0.244695 -0.057642 -0.967885
vn 0.244695 -0.057642 -0.967885
vn 0.061763 0.063546 -0.996066
vn 0.061763 0.063546 -0.996066
vn 0.061763 0.063546 -0.996066
vn 0.061763 0.063546 -0.996066
vn 0.776305 -0.092496 -0.623535
vn 0.776305 -0.092496 -0.623535
vn 0.776305 -0.092496 -0.623535
vn 0.537904 0.600382 -0.591777
vn 0.537904 0.600382 -0.591777
vn 0.537904 0.600382 -0.591777
vn -0.399656 0.179649 -0.898889
vn -0.399656 0.179649 -0.898889
vn -0.399656 0.179649 -0.898889
vn -0.216945 0.257391 -0.941639
vn -0.216945 0.257391 -0.941639
vn -0.216945 0.257391 -0.941639
vn -0.044301 0.063723 -0.996984
vn -0.044301 0.063723 -0.996984
vn -0.044301 0.063723 -0.996984
vn 0.216678 0.373037 -0.902161
vn 0.216678 0.373037 -0.902161
vn 0.216678 0.373037 -0.902161
vn -0.147597 0.396811 -0.905956
vn -0.147597 0.396811 -0.905956
vn -0.147597 0.396811 -0.905956
vn -0.152442 0.152186 -0.976525
vn -0.152442 0.152186 -0.976525
vn -0.152442 0.152186 -0.976525
vn -0.038396 0.117166 -0.992370
vn -0.038396 0.117166 -0.992370
vn -0.038396 0.117166 -0.992370
vn -0.038396 0.117166 -0.992370
vn 0.392600 0.179468 -0.902029
vn 0.392600 0.179468 -0.902029
vn 0.392600 0.179468 -0.902029
vn -0.269404 0.125378 0.954831
vn -0.269404 0.125378 0.954831
vn -0.269404 0.125378 0.954831
vn 0.949835 0.189979 0.248437
vn 0.949835 0.189979 0.248437
vn 0.949835 0.189979 0.248437
vn 0.949835 0.189979 0.248437
vn -0.950388 0.189188 0.246921
vn -0.950388 0.189188 0.246921
vn -0.950388 0.189188 0.246922
vn -0.950388 0.189188 0.246921
vn 0.272635 0.116230 0.955071
vn 0.272635 0.116230 0.955071
vn 0.272635 0.116230 0.955071
vn 0.410523 -0.090203 -0.907378
vn 0.410523 -0.090203 -0.907378
vn 0.410523 -0.090203 -0.907378
vn 0.332271 0.277860 -0.901327
vn 0.332271 0.277860 -0.901327
vn 0.332271 0.277860 -0.901327
vn 0.332271 0.277860 -0.901327
vn -0.414279 0.114521 -0.902916
vn -0.414279 0.114521 -0.902916
vn -0.414279 0.114521 -0.902916
vn 0.379048 0.174166 -0.908839
vn 0.379048 0.174166 -0.908839
vn 0.379048 0.174166 -0.908839
vn 0.379048 0.174166 -0.908839
vn 0.482685 0.166988 -0.859727
vn 0.482685 0.166988 -0.859727
vn 0.482685 0.166988 -0.859727
vn -0.345740 0.265700 -0.899927
vn -0.345740 0.265700 -0.899927
vn -0.345740 0.265700 -0.899927
vn -0.345740 0.265700 -0.899927
vn -0.405537 -0.090715 -0.909566
vn -0.405537 -0.090715 -0.909566
vn -0.405537 -0.090715 -0.909566
vn 0.593293 0.481417 -0.645168
vn 0.593293 0.481417 -0.645168
vn 0.593293 0.481417 -0.645168
vn 0.593293 0.481417 -0.645168
vn 0.415244 -0.186527 -0.890382
vn 0.415244 -0.186527 -0.890382
vn 0.415244 -0.186527 -0.890382
vn 0.586366 -0.122423 -0.800742
vn 0.586366 -0.122423 -0.800742
vn 0.586366 -0.122423 -0.800742
vn -0.725796 -0.255472 -0.638713
vn -0.725796 -0.255472 -0.638713
vn -0.725796 -0.255472 -0.638713
vn -0.813453 0.003137 -0.581622
vn -0.813453 0.003137 -0.581622
vn -0.813453 0.003137 -0.581622
vn -0.515887 0.508677 -0.689281
vn -0.515887 0.508677 -0.689281
vn -0.515887 0.508677 -0.689281
vn -0.515887 0.508677 -0.689281
vn 0.061368 0.003370 -0.998110
vn 0.061368 0.003370 -0.998110
vn 0.061368 0.003370 -0.998110
vn 0.061368 0.003370 -0.998110
vn 0.400877 -0.200326 -0.893961
vn 0.400877 -0.200326 -0.893961
vn 0.400877 -0.200326 -0.893961
vn 0.400877 -0.200326 -0.893961
vn -0.167571 -0.279320 -0.945463
vn -0.167571 -0.279320 -0.945463
vn -0.167571 -0.279320 -0.945463
vn -0.167571 -0.279320 -0.945463
vn -0.060231 -0.030412 -0.997721
vn -0.060231 -0.030412 -0.997721
vn -0.060231 -0.030412 -0.997721
vn -0.060231 -0.030412 -0.997721
vn 0.531844 -0.034008 -0.846159
vn 0.531844 -0.034008 -0.846159
vn 0.531844 -0.034008 -0.846159
vn 0.531844 -0.034008 -0.846159
vn 0.249189 0.068192 -0.966051
vn 0.249189 0.068192 -0.966051
vn 0.249189 0.068192 -0.966051
vn 0.249189 0.068192 -0.966051
vn 0.010097 0.082423 -0.996546
vn 0.010097 0.082423 -0.996546
vn 0.010097 0.082423 -0.996546
vn 0.010097 0.082423 -0.996546
vn -0.757697 -0.147434 -0.635735
vn -0.757697 -0.147434 -0.635735
vn -0.757697 -0.147434 -0.635735
vn -0.757697 -0.147434 -0.635735
vn 0.369929 -0.074548 -0.926065
vn 0.369929 -0.074548 -0.926065
vn 0.369929 -0.074548 -0.926065
vn 0.369929 -0.074548 -0.926065
vn -0.375022 -0.079250 -0.923622
vn -0.375022 -0.079250 -0.923622
vn -0.375022 -0.079250 -0.923622
vn -0.375022 -0.079250 -0.923622
vn 0.169369 -0.001393 -0.985552
vn 0.169369 -0.001393 -0.985552
vn 0.169369 -0.001393 -0.985552
vn 0.169369 -0.001393 -0.985552
vn 0.037691 0.402938 -0.914451
vn 0.037691 0.402938 -0.914451
vn 0.037691 0.402938 -0.914451
vn 0.037691 0.402938 -0.914451
vn -0.173275 0.328330 -0.928534
vn -0.173275 0.328330 -0.928534
vn -0.173275 0.328330 -0.928534
vn 0.095988 0.060083 -0.993568
vn 0.095988 0.060083 -0.993568
vn 0.095988 0.060083 -0.993568
vn 0.095988 0.060083 -0.993567
vn -0.205913 0.031503 -0.978063
vn -0.205913 0.031503 -0.978063
vn -0.205913 0.031503 -0.978063
vn -0.205913 0.031503 -0.978063
vn 0.175665 0.972858 0.150627
vn 0.175665 0.972858 0.150627
vn 0.175665 0.972858 0.150627
vn -0.194423 0.977258 0.084651
vn -0.194423 0.977258 0.084650
vn -0.194423 0.977258 0.084651
vn -0.194423 0.977258 0.084650
vn -0.175666 0.972858 0.150627
vn -0.175666 0.972858 0.150627
vn -0.175666 0.972858 0.150627
vn -0.045467 0.998964 0.001743
vn -0.045467 0.998964 0.001743
vn -0.045467 0.998964 0.001743
vn -0.045467 0.998964 0.001743
vn 0.045467 0.998964 0.001743
vn 0.045467 0.998964 0.001743
vn 0.045467 0.998964 0.001743
vn 0.045467 0.998964 0.001743
vn 0.194423 0.977259 0.084650
vn 0.194423 0.977259 0.084650
vn 0.194423 0.977259 0.084650
vn 0.194423 0.977259 0.084650
s off
f 38/1/1 39/2/2 41/3/3 42/4/4
f 45/5/5 75/6/6 76/7/7
f 62/10/8 63/11/9 64/122/10 61/124/11
f 87/15/12 36/22/13 37/134/14 86/136/15
f 32/53/16 88/30/17 89/131/18 31/132/19
f 72/17/20 73/18/21 47/19/22
f 39/2/23 40/20/24 50/21/25 41/3/26
f 66/58/27 62/10/28 61/124/29 65/125/30
f 32/16/31 71/24/32 72/17/33 88/14/34
f 89/25/35 50/21/36 40/20/37 31/26/38
f 67/67/39 66/58/40 65/125/41 68/126/42
f 87/12/43 76/7/44 77/28/45 36/13/46
f 63/11/47 69/78/48 70/123/49 64/122/50
f 37/31/51 38/1/52 42/4/53 86/32/54
f 22/33/55 21/34/56 51/35/57 52/36/58
f 23/37/59 22/33/60 52/36/61 53/38/62
f 54/112/63 24/113/64 23/137/65 53/139/66
f 54/39/67 83/41/68 84/42/69 24/40/70
f 55/43/71 56/44/72 26/45/73 25/46/74
f 56/44/75 92/47/76 27/48/77 26/45/78
f 28/49/79 80/50/80 57/51/81 58/52/82
f 28/115/83 58/114/84 59/128/85 29/129/86
f 59/54/87 60/55/88 30/56/89 29/57/90
f 21/34/91 30/56/92 60/55/93 51/35/94
f 5/116/95 32/53/96 31/132/97 3/133/98
f 5/59/99 71/24/100 32/16/101
f 34/60/102 33/61/103 14/62/104 10/63/105
f 35/64/106 34/60/107 10/63/108 18/65/109
f 36/13/110 77/28/111 6/66/112
f 36/22/113 6/117/114 4/135/115 37/134/116
f 17/68/117 38/1/118 37/31/119 4/69/120
f 11/70/121 39/2/122 38/1/123 17/68/124
f 15/71/125 40/20/126 39/2/127 11/70/128
f 31/26/129 40/20/130 15/71/131 3/72/132
f 42/4/133 41/3/134 21/34/135 22/33/136
f 43/73/137 42/4/138 22/33/139 23/37/140
f 24/113/141 44/118/142 43/138/143 23/137/144
f 24/40/145 84/42/146 44/74/147
f 25/46/148 79/75/149 75/6/150 45/5/151
f 78/76/152 27/48/153 47/19/154 73/18/155
f 48/77/156 80/50/157 28/49/158
f 48/119/159 28/115/160 29/129/161 49/130/162
f 29/57/163 30/56/164 50/21/165 49/79/166
f 41/3/167 50/21/168 30/56/169 21/34/170
f 52/36/171 51/35/172 12/80/173 20/81/174
f 53/38/175 52/36/176 20/81/177 2/82/178
f 8/120/179 54/112/180 53/139/181 2/140/182
f 19/84/183 83/41/184 54/39/185 8/83/186
f 94/85/187 56/44/188 55/43/189
f 13/86/190 57/51/191 81/87/192
f 58/52/193 57/51/194 13/86/195 7/88/196
f 58/114/197 7/121/198 1/127/199 59/128/200
f 1/89/201 16/90/202 60/55/203 59/54/204
f 51/35/205 60/55/206 16/90/207 12/80/208
f 63/9/209 85/91/210 19/84/211
f 20/81/212 12/80/213 61/92/214 64/93/215
f 13/86/216 81/87/217 66/23/218
f 12/80/219 16/90/220 65/94/221 61/92/222
f 7/88/223 13/86/224 66/23/225 67/27/226
f 16/90/227 1/89/228 68/95/229 65/94/230
f 7/121/231 67/67/232 68/126/233 1/127/234
f 19/84/235 8/83/236 69/29/237 63/9/238
f 69/78/239 8/120/240 2/140/241 70/123/242
f 2/82/243 20/81/244 64/93/245 70/96/246
f 33/61/247 99/97/248 14/62/249
f 72/17/250 71/24/251 33/61/252
f 101/98/253 102/99/254 33/61/255 34/60/256
f 97/100/257 98/101/258 46/102/259
f 96/103/260 97/100/261 46/102/262
f 35/64/263 100/104/264 101/98/265 34/60/266
f 77/28/267 76/7/268 35/64/269
f 95/105/270 35/64/271 18/65/272
f 27/48/273 93/106/274 47/19/275
f 57/51/276 80/50/277 27/48/278
f 9/107/279 92/47/280 56/44/281
f 82/108/282 81/87/283 9/107/284
f 85/91/285 91/109/286 19/84/287
f 19/84/288 55/43/289 83/41/290
f 84/42/291 83/41/292 55/43/293 25/46/294
f 90/110/295 25/46/296 45/5/297
f 86/32/298 42/4/299 43/73/300
f 87/15/301 86/136/302 43/138/303 44/118/304
f 89/131/305 88/30/306 48/119/307 49/130/308
f 49/79/309 50/21/310 89/25/311
f 44/74/312 90/110/313 87/12/314
f 44/74/315 84/42/316 25/46/317 90/110/318
f 19/84/319 94/85/320 55/43/321
f 81/87/322 57/51/323 92/47/324 9/107/325
f 27/48/326 92/47/327 57/51/328
f 48/77/329 93/106/330 27/48/331 80/50/332
f 88/14/333 93/106/334 48/77/335
f 6/66/336 77/28/337 35/64/338 95/105/339
f 76/7/340 100/104/341 35/64/342
f 75/6/343 79/75/344 96/103/345
f 98/101/346 78/76/347 73/18/348
f 33/61/349 102/99/350 72/17/351
f 5/59/352 99/97/353 33/61/354 71/24/355
f 25/46/356 26/45/357 74/111/358 79/75/359
f 96/103/360 79/75/361 74/111/362 97/100/363
f 74/111/364 78/76/365 98/101/366 97/100/367
f 26/45/368 27/48/369 78/76/370 74/111/371
f 76/7/372 75/6/373 96/103/374 100/104/375
f 101/98/376 100/104/377 96/103/378 46/102/379
f 46/102/380 98/101/381 102/99/382 101/98/383
f 72/17/384 102/99/385 98/101/386 73/18/387
f 45/5/388 76/7/389 87/12/390 90/110/391
f 88/14/392 72/17/393 47/19/394 93/106/395
f 82/108/396 85/91/397 63/9/398 62/8/399
f 9/107/400 91/109/401 85/91/402 82/108/403
f 91/109/404 94/85/405 19/84/406
f 9/107/407 56/44/408 94/85/409 91/109/410
f 66/23/411 81/87/412 82/108/413 62/8/414
f 95/141/415 4/135/416 6/117/417
f 15/142/418 14/143/419 99/144/420 3/133/421
f 3/133/422 99/144/423 5/116/424
f 11/145/425 10/146/426 14/143/427 15/142/428
f 11/145/429 17/147/430 18/148/431 10/146/432
f 18/148/433 17/147/434 4/135/435 95/141/436
