# This file uses centimeters as units for non-parametric coordinates.

v -6.955342 15.030090 -7.482546
v -10.584840 15.372833 -2.486970
v -10.584840 15.372833 3.687900
v -6.955342 15.030090 8.683474
v -1.082692 14.889359 10.591616
v 4.789958 15.030090 8.683474
v 8.419456 15.372833 3.687898
v 8.419456 15.372833 -2.486972
v 4.789958 15.030090 -7.482546
v -1.082692 14.889359 -9.390686
v -7.104500 48.308365 -7.687846
v -10.826183 48.904282 -2.565387
v -10.826183 48.904282 3.766316
v -7.104500 48.308365 8.888772
v -1.082692 47.835754 10.845376
v 4.939115 48.308365 8.888772
v 8.660799 48.904282 3.766314
v 8.660799 48.904282 -2.565388
v 4.939115 48.308365 -7.687846
v -1.082692 47.835754 -9.644448
v -1.082692 22.747284 0.600463
v -1.082692 47.717438 0.600463
v -7.929763 19.511230 -8.823723
v -12.161486 20.233856 -2.999253
v -12.161486 20.233856 4.200182
v -7.929763 19.511230 10.024648
v -1.082692 19.116928 12.249398
v 5.764379 19.511230 10.024648
v 9.996101 20.233856 4.200181
v 9.996101 20.233856 -2.999255
v 5.764379 19.511230 -8.823723
v -1.082692 19.116928 -11.048470
v -14.864347 15.875809 -18.368359
v -23.381889 18.469070 -6.644979
v -23.381889 21.783768 -6.644979
v -14.864347 19.190521 -18.368359
v -23.381886 18.469070 7.845911
v -23.381886 21.783768 7.845911
v -14.864363 15.875809 19.569284
v -14.864363 19.190521 19.569284
v -1.082696 14.843735 24.047218
v -1.082696 18.158447 24.047218
v 12.698962 15.875809 19.569286
v 12.698962 19.190521 19.569286
v 21.216503 18.469070 7.845908
v 21.216503 21.783768 7.845908
v 21.216503 18.469070 -6.644983
v 21.216503 21.783768 -6.644983
v 12.698962 15.875809 -18.368359
v 12.698962 19.190521 -18.368359
v -1.082692 14.843735 -22.846291
v -1.082692 18.158447 -22.846291
v -7.640871 24.349655 -8.426097
v -1.082692 24.153549 -10.556977
v 5.475487 24.349655 -8.426097
v 9.528665 24.672546 -2.847376
v 9.528665 24.672546 4.048302
v 5.475487 24.349655 9.627023
v -1.082692 24.153549 11.757907
v -7.640871 24.349655 9.627023
v -11.694049 24.672546 4.048304
v -11.694049 24.672546 -2.847374
v -8.021698 23.904160 -8.950262
v -12.310240 24.221832 -3.047587
v -12.313123 24.118439 4.264879
v -8.024582 23.800766 10.167548
v -1.082692 23.696014 12.405808
v 5.856314 23.904160 10.151185
v 10.144855 24.221832 4.248514
v 10.144855 24.221832 -3.047589
v 5.856314 23.904160 -8.950262
v -1.082692 23.696014 -11.204879
v -7.640871 33.697601 -8.426097
v -1.082692 33.012756 -10.556977
v 5.475487 33.697601 -8.426097
v 9.528665 34.805969 -2.847376
v 9.528665 34.805969 4.048302
v 5.475487 33.697601 9.627023
v -1.082692 33.012756 11.757907
v -7.640871 33.697601 9.627023
v -11.694049 34.805969 4.048304
v -11.694049 34.805969 -2.847374
v -8.422197 47.839874 -9.501503
v -1.082692 47.277786 -11.886250
v 6.256813 47.839874 -9.501503
v 10.792879 48.548187 -3.258144
v 10.792879 48.548187 4.459069
v 6.256813 47.839874 10.702425
v -1.082692 47.277786 13.087179
v -8.422197 47.839874 10.702425
v -12.958263 48.548187 4.459071
v -12.958263 48.548187 -3.258142
v -24.292915 20.029602 -6.940990
v -24.292912 20.029602 8.141921
v -15.427409 17.330383 20.344250
v -1.082697 16.256165 25.005127
v 13.262008 17.330383 20.344250
v 22.127529 20.029602 8.141918
v 22.127529 20.029602 -6.940994
v 13.262008 17.330383 -19.143324
v -1.082692 16.256165 -23.804199
v -15.427392 17.330383 -19.143324
vt 0.325856 0.070388
vt 0.326059 0.070371
vt 0.306415 0.049747
vt 0.306347 0.049753
vt 0.326035 0.070349
vt 0.306431 0.049746
vt 0.325843 0.070368
vt 0.306378 0.049751
vt 0.326109 0.070373
vt 0.306272 0.049755
vt 0.326081 0.070344
vt 0.306161 0.049751
vt 0.325955 0.070388
vt 0.306096 0.049746
vt 0.325934 0.070358
vt 0.306100 0.049747
vt 0.325635 0.070393
vt 0.306161 0.049753
vt 0.325633 0.070367
vt 0.306253 0.049757
vt 0.306415 0.049892
vt 0.306347 0.049891
vt 0.306261 0.049802
vt 0.306430 0.049900
vt 0.306378 0.049912
vt 0.306272 0.049918
vt 0.306161 0.049914
vt 0.306097 0.049902
vt 0.306101 0.049894
vt 0.306161 0.049892
vt 0.306253 0.049891
vt 0.306355 0.049188
vt 0.306430 0.049148
vt 0.306261 0.049147
vt 0.306448 0.049106
vt 0.306391 0.049080
vt 0.306273 0.049073
vt 0.306149 0.049074
vt 0.306078 0.049096
vt 0.306084 0.049139
vt 0.306151 0.049184
vt 0.306252 0.049206
vt 0.306443 0.049870
vt 0.306605 0.049850
vt 0.306606 0.049810
vt 0.306444 0.049834
vt 0.306671 0.049862
vt 0.306671 0.049817
vt 0.306567 0.049917
vt 0.306567 0.049865
vt 0.306290 0.049944
vt 0.306290 0.049889
vt 0.305993 0.049920
vt 0.305993 0.049867
vt 0.305854 0.049866
vt 0.305853 0.049819
vt 0.305895 0.049852
vt 0.305894 0.049812
vt 0.306046 0.049872
vt 0.306046 0.049835
vt 0.306243 0.049878
vt 0.306243 0.049843
vt 0.306422 0.049832
vt 0.306350 0.049837
vt 0.306438 0.049836
vt 0.306383 0.049850
vt 0.306272 0.049858
vt 0.306156 0.049851
vt 0.306089 0.049837
vt 0.306093 0.049833
vt 0.306157 0.049838
vt 0.306253 0.049841
vt 0.306347 0.049456
vt 0.306253 0.049461
vt 0.306160 0.049454
vt 0.306099 0.049438
vt 0.306095 0.049418
vt 0.306159 0.049401
vt 0.306272 0.049396
vt 0.306379 0.049404
vt 0.306432 0.049423
vt 0.306416 0.049442
vt 0.325299 0.070382
vt 0.325317 0.070357
vt 0.325109 0.070367
vt 0.325137 0.070343
vt 0.325127 0.070371
vt 0.325152 0.070348
vt 0.325310 0.070388
vt 0.325325 0.070367
vt 0.325580 0.070398
vt 0.325581 0.070377
vt 0.325853 0.070602
vt 0.326052 0.070586
vt 0.326101 0.070598
vt 0.325949 0.070638
vt 0.325635 0.070660
vt 0.325304 0.070640
vt 0.325117 0.070600
vt 0.325134 0.070588
vt 0.325314 0.070603
vt 0.325580 0.070612
vt 0.306355 0.049196
vt 0.306252 0.049213
vt 0.306151 0.049191
vt 0.306084 0.049147
vt 0.306079 0.049105
vt 0.306149 0.049083
vt 0.306273 0.049082
vt 0.306390 0.049089
vt 0.306447 0.049115
vt 0.306430 0.049156
vt 0.306606 0.049832
vt 0.306671 0.049842
vt 0.306567 0.049894
vt 0.306290 0.049919
vt 0.305993 0.049897
vt 0.305854 0.049845
vt 0.305894 0.049834
vt 0.306046 0.049856
vt 0.306243 0.049863
vt 0.306443 0.049854
vn -0.454054 0.808212 -0.375005
vn -0.454054 0.808212 -0.375005
vn -0.454054 0.808212 -0.375005
vn -0.454054 0.808212 -0.375005
vn -0.630981 0.775779 0.005518
vn -0.630981 0.775779 0.005518
vn -0.630981 0.775779 0.005518
vn -0.630981 0.775779 0.005518
vn -0.513241 0.751338 0.414820
vn -0.513241 0.751338 0.414820
vn -0.513241 0.751338 0.414820
vn -0.513241 0.751338 0.414820
vn -0.177477 0.778520 0.602004
vn -0.177477 0.778519 0.602004
vn -0.177477 0.778519 0.602005
vn -0.177477 0.778519 0.602005
vn 0.160753 0.806417 0.569079
vn 0.160753 0.806417 0.569079
vn 0.160753 0.806417 0.569079
vn 0.160753 0.806417 0.569079
vn 0.454054 0.808211 0.375006
vn 0.454055 0.808211 0.375006
vn 0.454055 0.808211 0.375006
vn 0.454054 0.808211 0.375006
vn 0.590376 0.807128 0.000000
vn 0.590376 0.807128 0.000000
vn 0.590376 0.807128 0.000000
vn 0.590376 0.807128 0.000000
vn 0.454053 0.808211 -0.375008
vn 0.454053 0.808211 -0.375008
vn 0.454053 0.808211 -0.375008
vn 0.454053 0.808211 -0.375008
vn 0.160751 0.806409 -0.569090
vn 0.160751 0.806409 -0.569090
vn 0.160751 0.806409 -0.569090
vn 0.160751 0.806409 -0.569090
vn -0.160750 0.806406 -0.569094
vn -0.160750 0.806406 -0.569094
vn -0.160750 0.806406 -0.569094
vn -0.160750 0.806407 -0.569094
vn 0.477114 -0.782373 0.400320
vn 0.477114 -0.782373 0.400320
vn 0.477114 -0.782373 0.400320
vn 0.613106 -0.790001 0.000000
vn 0.613106 -0.790001 0.000000
vn 0.613106 -0.790001 0.000000
vn 0.477113 -0.782372 -0.400322
vn 0.477113 -0.782372 -0.400322
vn 0.477113 -0.782372 -0.400322
vn 0.179086 -0.773316 -0.608203
vn 0.179086 -0.773316 -0.608203
vn 0.179086 -0.773316 -0.608203
vn -0.179086 -0.773316 -0.608203
vn -0.179086 -0.773316 -0.608203
vn -0.179086 -0.773316 -0.608203
vn -0.477113 -0.782373 -0.400320
vn -0.477114 -0.782373 -0.400320
vn -0.477114 -0.782373 -0.400320
vn -0.613106 -0.790001 0.000000
vn -0.613106 -0.790001 0.000000
vn -0.613106 -0.790001 0.000000
vn -0.477113 -0.782372 0.400322
vn -0.477113 -0.782372 0.400322
vn -0.477113 -0.782372 0.400322
vn -0.179086 -0.773315 0.608204
vn -0.179086 -0.773315 0.608204
vn -0.179086 -0.773315 0.608204
vn 0.179086 -0.773315 0.608204
vn 0.179086 -0.773315 0.608204
vn 0.179086 -0.773315 0.608204
vn 0.128031 0.991519 -0.022322
vn 0.128031 0.991519 -0.022322
vn 0.128031 0.991519 -0.022322
vn 0.120915 0.992663 0.000000
vn 0.120915 0.992663 0.000000
vn 0.120915 0.992663 0.000000
vn 0.128031 0.991519 0.022322
vn 0.128031 0.991519 0.022322
vn 0.128031 0.991519 0.022322
vn 0.081954 0.996570 -0.011508
vn 0.081954 0.996570 -0.011508
vn 0.081954 0.996570 -0.011508
vn -0.081954 0.996570 -0.011508
vn -0.081954 0.996570 -0.011508
vn -0.081954 0.996570 -0.011508
vn -0.128031 0.991519 0.022322
vn -0.128031 0.991519 0.022322
vn -0.128031 0.991519 0.022322
vn -0.120915 0.992663 0.000000
vn -0.120915 0.992663 0.000000
vn -0.120915 0.992663 0.000000
vn -0.128031 0.991519 -0.022322
vn -0.128031 0.991519 -0.022322
vn -0.128031 0.991519 -0.022322
vn -0.081954 0.996570 0.011508
vn -0.081954 0.996570 0.011508
vn -0.081954 0.996570 0.011508
vn 0.081954 0.996570 0.011508
vn 0.081954 0.996570 0.011508
vn 0.081954 0.996570 0.011508
vn -0.672878 0.448702 -0.588135
vn -0.672878 0.448702 -0.588135
vn -0.672878 0.448702 -0.588135
vn -0.672878 0.448702 -0.588135
vn -0.887454 0.460897 0.000001
vn -0.887453 0.460897 0.000001
vn -0.887453 0.460897 0.000001
vn -0.887453 0.460897 0.000001
vn -0.672880 0.448702 0.588132
vn -0.672880 0.448702 0.588132
vn -0.672880 0.448702 0.588132
vn -0.672880 0.448702 0.588132
vn -0.248478 0.435647 0.865142
vn -0.248478 0.435647 0.865142
vn -0.248478 0.435647 0.865142
vn -0.248478 0.435647 0.865142
vn 0.248476 0.435644 0.865144
vn 0.248476 0.435644 0.865144
vn 0.248476 0.435644 0.865144
vn 0.248476 0.435644 0.865144
vn 0.672878 0.448701 0.588135
vn 0.672878 0.448701 0.588135
vn 0.672878 0.448702 0.588135
vn 0.672878 0.448701 0.588135
vn 0.887452 0.460899 0.000000
vn 0.887452 0.460899 0.000000
vn 0.887452 0.460899 0.000000
vn 0.887452 0.460899 0.000000
vn 0.672877 0.448702 -0.588134
vn 0.672877 0.448702 -0.588134
vn 0.672877 0.448702 -0.588134
vn 0.672878 0.448702 -0.588134
vn 0.248477 0.435646 -0.865143
vn 0.248477 0.435646 -0.865143
vn 0.248477 0.435646 -0.865143
vn 0.248477 0.435646 -0.865143
vn -0.248476 0.435645 -0.865143
vn -0.248476 0.435645 -0.865143
vn -0.248476 0.435645 -0.865143
vn -0.248476 0.435645 -0.865143
vn -0.203687 -0.978745 0.023892
vn -0.203687 -0.978745 0.023892
vn -0.203687 -0.978745 0.023892
vn -0.203687 -0.978745 0.023892
vn 0.132436 0.987070 -0.090299
vn 0.132436 0.987070 -0.090299
vn 0.132436 0.987070 -0.090299
vn 0.132436 0.987070 -0.090299
vn -0.235164 -0.971956 0.000000
vn -0.235164 -0.971956 0.000000
vn -0.235164 -0.971956 0.000000
vn -0.235164 -0.971956 0.000000
vn 0.136834 0.990594 0.000000
vn 0.136834 0.990594 0.000000
vn 0.136834 0.990594 0.000000
vn 0.136834 0.990594 0.000000
vn -0.203687 -0.978745 -0.023891
vn -0.203687 -0.978745 -0.023891
vn -0.203687 -0.978745 -0.023891
vn -0.203687 -0.978745 -0.023891
vn 0.132436 0.987070 0.090298
vn 0.132436 0.987070 0.090298
vn 0.132436 0.987070 0.090298
vn 0.132436 0.987070 0.090298
vn -0.063501 -0.997908 0.012170
vn -0.063501 -0.997908 0.012170
vn -0.063501 -0.997908 0.012170
vn -0.063501 -0.997908 0.012170
vn 0.044758 0.996234 0.074254
vn 0.044758 0.996234 0.074254
vn 0.044758 0.996234 0.074254
vn 0.044758 0.996234 0.074254
vn 0.063501 -0.997908 0.012169
vn 0.063501 -0.997908 0.012169
vn 0.063501 -0.997908 0.012169
vn 0.063501 -0.997908 0.012169
vn -0.044758 0.996234 0.074254
vn -0.044758 0.996234 0.074254
vn -0.044758 0.996234 0.074254
vn -0.044758 0.996234 0.074254
vn 0.203687 -0.978745 -0.023892
vn 0.203687 -0.978745 -0.023892
vn 0.203687 -0.978745 -0.023892
vn 0.203687 -0.978744 -0.023892
vn -0.132436 0.987070 0.090299
vn -0.132436 0.987070 0.090299
vn -0.132436 0.987070 0.090299
vn -0.132436 0.987070 0.090299
vn 0.235164 -0.971956 0.000000
vn 0.235164 -0.971956 0.000000
vn 0.235164 -0.971956 0.000000
vn 0.235164 -0.971956 0.000000
vn -0.136834 0.990594 0.000000
vn -0.136834 0.990594 0.000000
vn -0.136834 0.990594 0.000000
vn -0.136834 0.990594 0.000000
vn 0.203687 -0.978745 0.023891
vn 0.203687 -0.978745 0.023891
vn 0.203687 -0.978745 0.023891
vn 0.203687 -0.978745 0.023891
vn -0.132436 0.987070 -0.090298
vn -0.132436 0.987070 -0.090298
vn -0.132436 0.987070 -0.090298
vn -0.132436 0.987070 -0.090298
vn 0.063501 -0.997908 -0.012170
vn 0.063501 -0.997908 -0.012170
vn 0.063501 -0.997908 -0.012170
vn 0.063501 -0.997908 -0.012170
vn -0.044758 0.996234 -0.074255
vn -0.044758 0.996234 -0.074255
vn -0.044758 0.996234 -0.074255
vn -0.044758 0.996234 -0.074255
vn -0.063501 -0.997908 -0.012169
vn -0.063501 -0.997908 -0.012169
vn -0.063501 -0.997908 -0.012169
vn -0.063501 -0.997908 -0.012169
vn 0.044758 0.996234 -0.074254
vn 0.044758 0.996234 -0.074254
vn 0.044758 0.996234 -0.074254
vn 0.044758 0.996234 -0.074254
vn -0.309017 0.000000 -0.951057
vn -0.309017 0.000000 -0.951057
vn -0.309017 0.000000 -0.951057
vn -0.309017 0.000000 -0.951057
vn 0.309017 0.000000 -0.951057
vn 0.309017 0.000000 -0.951057
vn 0.309017 0.000000 -0.951057
vn 0.309017 0.000000 -0.951057
vn 0.809018 0.000000 -0.587785
vn 0.809018 0.000000 -0.587785
vn 0.809018 0.000000 -0.587785
vn 0.809018 0.000000 -0.587785
vn 1.000000 0.000000 0.000000
vn 1.000000 0.000000 0.000000
vn 1.000000 0.000000 0.000000
vn 1.000000 0.000000 0.000000
vn 0.809018 0.000000 0.587784
vn 0.809018 0.000000 0.587785
vn 0.809018 0.000000 0.587784
vn 0.809018 0.000000 0.587784
vn 0.309017 0.000000 0.951056
vn 0.309017 0.000000 0.951056
vn 0.309017 0.000000 0.951056
vn 0.309017 0.000000 0.951056
vn -0.309017 0.000000 0.951056
vn -0.309017 0.000000 0.951056
vn -0.309017 0.000000 0.951056
vn -0.309017 0.000000 0.951056
vn -0.809018 0.000000 0.587785
vn -0.809018 0.000000 0.587785
vn -0.809017 0.000000 0.587785
vn -0.809017 0.000000 0.587785
vn -1.000000 0.000000 0.000000
vn -1.000000 0.000000 0.000000
vn -1.000000 0.000000 0.000000
vn -1.000000 0.000000 0.000000
vn -0.809018 0.000000 -0.587784
vn -0.809018 0.000000 -0.587785
vn -0.809018 0.000000 -0.587784
vn -0.809018 0.000000 -0.587784
vn -0.810003 -0.035476 -0.585352
vn -0.810003 -0.035476 -0.585352
vn -0.810003 -0.035476 -0.585352
vn -0.810003 -0.035476 -0.585352
vn -0.999273 -0.038128 -0.000470
vn -0.999273 -0.038128 -0.000470
vn -0.999273 -0.038128 -0.000470
vn -0.999273 -0.038128 -0.000470
vn -0.810047 -0.039282 0.585047
vn -0.810047 -0.039282 0.585047
vn -0.810047 -0.039282 0.585047
vn -0.810047 -0.039282 0.585047
vn -0.308904 -0.035379 0.950435
vn -0.308904 -0.035379 0.950435
vn -0.308904 -0.035379 0.950435
vn -0.308904 -0.035379 0.950435
vn 0.310158 -0.033141 0.950107
vn 0.310158 -0.033141 0.950107
vn 0.310158 -0.033141 0.950107
vn 0.310158 -0.033141 0.950107
vn 0.810003 -0.035476 0.585352
vn 0.810003 -0.035476 0.585352
vn 0.810003 -0.035476 0.585352
vn 0.810003 -0.035476 0.585352
vn 0.999305 -0.037275 0.000000
vn 0.999305 -0.037275 0.000000
vn 0.999305 -0.037275 0.000000
vn 0.999305 -0.037275 0.000000
vn 0.810003 -0.035476 -0.585352
vn 0.810003 -0.035476 -0.585352
vn 0.810003 -0.035476 -0.585352
vn 0.810003 -0.035476 -0.585352
vn 0.310159 -0.033142 -0.950107
vn 0.310159 -0.033142 -0.950107
vn 0.310159 -0.033142 -0.950107
vn 0.310159 -0.033142 -0.950107
vn -0.310158 -0.033142 -0.950107
vn -0.310158 -0.033142 -0.950107
vn -0.310158 -0.033142 -0.950107
vn -0.310158 -0.033142 -0.950107
vn -0.314985 -0.088653 -0.944947
vn -0.314985 -0.088653 -0.944947
vn -0.314985 -0.088653 -0.944947
vn -0.314985 -0.088653 -0.944947
vn 0.314985 -0.088653 -0.944947
vn 0.314985 -0.088653 -0.944947
vn 0.314985 -0.088653 -0.944947
vn 0.314985 -0.088653 -0.944947
vn 0.812259 -0.090299 -0.576265
vn 0.812259 -0.090299 -0.576265
vn 0.812259 -0.090299 -0.576265
vn 0.812259 -0.090299 -0.576265
vn 0.995795 -0.091608 0.000000
vn 0.995795 -0.091608 0.000000
vn 0.995795 -0.091608 0.000000
vn 0.995795 -0.091608 0.000000
vn 0.812259 -0.090299 0.576265
vn 0.812259 -0.090299 0.576265
vn 0.812259 -0.090299 0.576265
vn 0.812259 -0.090299 0.576265
vn 0.314986 -0.088653 0.944947
vn 0.314987 -0.088653 0.944947
vn 0.314987 -0.088653 0.944947
vn 0.314987 -0.088653 0.944947
vn -0.314986 -0.088653 0.944947
vn -0.314986 -0.088653 0.944947
vn -0.314986 -0.088653 0.944947
vn -0.314986 -0.088653 0.944947
vn -0.812259 -0.090299 0.576265
vn -0.812259 -0.090299 0.576265
vn -0.812259 -0.090299 0.576265
vn -0.812259 -0.090299 0.576265
vn -0.995795 -0.091608 0.000000
vn -0.995795 -0.091608 0.000000
vn -0.995795 -0.091608 0.000000
vn -0.995795 -0.091608 0.000000
vn -0.812259 -0.090299 -0.576265
vn -0.812259 -0.090299 -0.576265
vn -0.812259 -0.090299 -0.576265
vn -0.812259 -0.090299 -0.576265
vn -0.004209 0.969748 -0.244071
vn -0.004209 0.969748 -0.244071
vn -0.004209 0.969748 -0.244071
vn -0.004209 0.969748 -0.244071
vn 0.004209 0.969748 -0.244073
vn 0.004209 0.969748 -0.244073
vn 0.004209 0.969748 -0.244073
vn 0.004209 0.969748 -0.244073
vn 0.099611 0.977759 -0.184567
vn 0.099611 0.977759 -0.184567
vn 0.099611 0.977759 -0.184567
vn 0.099611 0.977759 -0.184567
vn 0.164736 0.986338 0.000000
vn 0.164736 0.986338 0.000000
vn 0.164736 0.986338 0.000000
vn 0.164736 0.986338 0.000000
vn 0.099611 0.977759 0.184569
vn 0.099611 0.977759 0.184569
vn 0.099611 0.977759 0.184569
vn 0.099611 0.977759 0.184569
vn 0.004210 0.969747 0.244077
vn 0.004210 0.969747 0.244077
vn 0.004210 0.969747 0.244077
vn 0.004210 0.969747 0.244077
vn -0.004210 0.969748 0.244073
vn -0.004210 0.969748 0.244073
vn -0.004210 0.969748 0.244073
vn -0.004210 0.969748 0.244073
vn -0.099611 0.977759 0.184567
vn -0.099611 0.977759 0.184567
vn -0.099611 0.977759 0.184567
vn -0.099611 0.977759 0.184567
vn -0.164735 0.986338 0.000000
vn -0.164736 0.986338 0.000000
vn -0.164736 0.986338 0.000000
vn -0.164736 0.986338 0.000000
vn -0.099611 0.977759 -0.184569
vn -0.099611 0.977759 -0.184569
vn -0.099611 0.977759 -0.184569
vn -0.099611 0.977759 -0.184569
vn -0.863607 -0.504165 0.000000
vn -0.863607 -0.504165 0.000000
vn -0.863607 -0.504165 0.000000
vn -0.863607 -0.504165 0.000000
vn -0.743634 -0.515003 0.426358
vn -0.743634 -0.515003 0.426358
vn -0.743634 -0.515003 0.426358
vn -0.743634 -0.515003 0.426358
vn -0.296921 -0.535982 0.790292
vn -0.296920 -0.535982 0.790292
vn -0.296920 -0.535982 0.790292
vn -0.296921 -0.535982 0.790292
vn 0.296921 -0.535982 0.790292
vn 0.296921 -0.535982 0.790292
vn 0.296921 -0.535982 0.790292
vn 0.296921 -0.535982 0.790292
vn 0.743632 -0.515004 0.426359
vn 0.743632 -0.515004 0.426359
vn 0.743632 -0.515004 0.426359
vn 0.743632 -0.515004 0.426359
vn 0.863606 -0.504167 0.000000
vn 0.863606 -0.504167 0.000000
vn 0.863606 -0.504167 0.000000
vn 0.863606 -0.504167 0.000000
vn 0.743631 -0.515004 -0.426361
vn 0.743631 -0.515004 -0.426361
vn 0.743631 -0.515004 -0.426361
vn 0.743631 -0.515004 -0.426361
vn 0.296921 -0.535983 -0.790291
vn 0.296921 -0.535983 -0.790291
vn 0.296921 -0.535983 -0.790291
vn 0.296921 -0.535983 -0.790291
vn -0.296921 -0.535982 -0.790292
vn -0.296921 -0.535982 -0.790292
vn -0.296921 -0.535982 -0.790292
vn -0.296921 -0.535982 -0.790292
vn -0.743632 -0.515004 -0.426359
vn -0.743632 -0.515004 -0.426359
vn -0.743632 -0.515004 -0.426359
vn -0.743632 -0.515004 -0.426359
s off
f 63/1/1 64/2/2 62/5/3 53/7/4
f 64/2/5 65/9/6 61/11/7 62/5/8
f 65/9/9 66/13/10 60/15/11 61/11/12
f 66/13/13 67/17/14 59/19/15 60/15/16
f 67/17/17 68/83/18 58/84/19 59/19/20
f 68/83/21 69/85/22 57/86/23 58/84/24
f 69/85/25 70/87/26 56/88/27 57/86/28
f 70/87/29 71/89/30 55/90/31 56/88/32
f 71/89/33 72/91/34 54/92/35 55/90/36
f 72/91/37 63/1/38 53/7/39 54/92/40
f 2/21/41 1/22/42 21/23/43
f 3/24/44 2/21/45 21/23/46
f 4/25/47 3/24/48 21/23/49
f 5/26/50 4/25/51 21/23/52
f 6/27/53 5/26/54 21/23/55
f 7/28/56 6/27/57 21/23/58
f 8/29/59 7/28/60 21/23/61
f 9/30/62 8/29/63 21/23/64
f 10/31/65 9/30/66 21/23/67
f 1/22/68 10/31/69 21/23/70
f 11/32/71 12/33/72 22/34/73
f 12/33/74 13/35/75 22/34/76
f 13/35/77 14/36/78 22/34/79
f 14/36/80 15/37/81 22/34/82
f 15/37/83 16/38/84 22/34/85
f 16/38/86 17/39/87 22/34/88
f 17/39/89 18/40/90 22/34/91
f 18/40/92 19/41/93 22/34/94
f 19/41/95 20/42/96 22/34/97
f 20/42/98 11/32/99 22/34/100
f 102/122/101 93/113/102 35/45/103 36/46/104
f 93/113/105 94/114/106 38/48/107 35/45/108
f 94/114/109 95/115/110 40/50/111 38/48/112
f 95/115/113 96/116/114 42/52/115 40/50/116
f 96/116/117 97/117/118 44/54/119 42/52/120
f 97/117/121 98/118/122 46/56/123 44/54/124
f 98/118/125 99/119/126 48/58/127 46/56/128
f 99/119/129 100/120/130 50/60/131 48/58/132
f 100/120/133 101/121/134 52/62/135 50/60/136
f 101/121/137 102/122/138 36/46/139 52/62/140
f 1/22/141 2/21/142 34/44/143 33/43/144
f 24/63/145 23/64/146 36/46/147 35/45/148
f 2/21/149 3/24/150 37/47/151 34/44/152
f 25/65/153 24/63/154 35/45/155 38/48/156
f 3/24/157 4/25/158 39/49/159 37/47/160
f 26/66/161 25/65/162 38/48/163 40/50/164
f 4/25/165 5/26/166 41/51/167 39/49/168
f 27/67/169 26/66/170 40/50/171 42/52/172
f 5/26/173 6/27/174 43/53/175 41/51/176
f 28/68/177 27/67/178 42/52/179 44/54/180
f 6/27/181 7/28/182 45/55/183 43/53/184
f 29/69/185 28/68/186 44/54/187 46/56/188
f 7/28/189 8/29/190 47/57/191 45/55/192
f 30/70/193 29/69/194 46/56/195 48/58/196
f 8/29/197 9/30/198 49/59/199 47/57/200
f 31/71/201 30/70/202 48/58/203 50/60/204
f 9/30/205 10/31/206 51/61/207 49/59/208
f 32/72/209 31/71/210 50/60/211 52/62/212
f 10/31/213 1/22/214 33/43/215 51/61/216
f 23/64/217 32/72/218 52/62/219 36/46/220
f 54/20/221 53/4/222 73/73/223 74/74/224
f 55/18/225 54/20/226 74/74/227 75/75/228
f 56/16/229 55/18/230 75/75/231 76/76/232
f 57/14/233 56/16/234 76/76/235 77/77/236
f 58/12/237 57/14/238 77/77/239 78/78/240
f 59/10/241 58/12/242 78/78/243 79/79/244
f 60/8/245 59/10/246 79/79/247 80/80/248
f 61/6/249 60/8/250 80/80/251 81/81/252
f 62/3/253 61/6/254 81/81/255 82/82/256
f 53/4/257 62/3/258 82/82/259 73/73/260
f 23/93/261 24/94/262 64/2/263 63/1/264
f 24/94/265 25/95/266 65/9/267 64/2/268
f 25/95/269 26/96/270 66/13/271 65/9/272
f 26/96/273 27/97/274 67/17/275 66/13/276
f 27/97/277 28/98/278 68/83/279 67/17/280
f 28/98/281 29/99/282 69/85/283 68/83/284
f 29/99/285 30/100/286 70/87/287 69/85/288
f 30/100/289 31/101/290 71/89/291 70/87/292
f 31/101/293 32/102/294 72/91/295 71/89/296
f 32/102/297 23/93/298 63/1/299 72/91/300
f 74/74/301 73/73/302 83/103/303 84/104/304
f 75/75/305 74/74/306 84/104/307 85/105/308
f 76/76/309 75/75/310 85/105/311 86/106/312
f 77/77/313 76/76/314 86/106/315 87/107/316
f 78/78/317 77/77/318 87/107/319 88/108/320
f 79/79/321 78/78/322 88/108/323 89/109/324
f 80/80/325 79/79/326 89/109/327 90/110/328
f 81/81/329 80/80/330 90/110/331 91/111/332
f 82/82/333 81/81/334 91/111/335 92/112/336
f 73/73/337 82/82/338 92/112/339 83/103/340
f 84/104/341 83/103/342 11/32/343 20/42/344
f 85/105/345 84/104/346 20/42/347 19/41/348
f 86/106/349 85/105/350 19/41/351 18/40/352
f 87/107/353 86/106/354 18/40/355 17/39/356
f 88/108/357 87/107/358 17/39/359 16/38/360
f 89/109/361 88/108/362 16/38/363 15/37/364
f 90/110/365 89/109/366 15/37/367 14/36/368
f 91/111/369 90/110/370 14/36/371 13/35/372
f 92/112/373 91/111/374 13/35/375 12/33/376
f 83/103/377 92/112/378 12/33/379 11/32/380
f 34/44/381 37/47/382 94/114/383 93/113/384
f 37/47/385 39/49/386 95/115/387 94/114/388
f 39/49/389 41/51/390 96/116/391 95/115/392
f 41/51/393 43/53/394 97/117/395 96/116/396
f 43/53/397 45/55/398 98/118/399 97/117/400
f 45/55/401 47/57/402 99/119/403 98/118/404
f 47/57/405 49/59/406 100/120/407 99/119/408
f 49/59/409 51/61/410 101/121/411 100/120/412
f 51/61/413 33/43/414 102/122/415 101/121/416
f 33/43/417 34/44/418 93/113/419 102/122/420
