# This file uses centimeters as units for non-parametric coordinates.

v 137.900070 25.200193 50.580173
v 153.207916 22.378193 45.240700
v 128.861450 23.276272 39.003136
v 121.885071 22.793972 43.067169
v 127.313293 18.643614 33.237366
v 144.156158 18.073647 33.481464
v 211.519669 26.684376 23.305244
v 208.107086 17.362909 39.804306
v 221.335480 21.282852 33.776390
v 199.282806 24.254728 30.836849
v 195.878799 25.664177 23.434738
v 193.626709 19.521496 34.307232
v 116.169655 21.619705 29.897327
v 126.788818 21.380526 36.214573
v 125.398132 23.085747 26.805258
v 118.031670 21.316864 39.057926
v 113.103287 19.358536 39.206551
v 120.099113 19.199974 43.373306
v 157.386475 18.967413 37.256790
v 158.075729 25.058651 23.015907
v 165.011856 23.634598 35.201263
v 153.148529 21.244608 33.687645
v 241.473251 21.273556 40.980446
v 228.405350 22.033464 41.755554
v 245.536087 24.636965 35.958878
v 238.926666 26.569370 21.812126
v 227.297913 25.734917 28.447792
v 170.384735 21.171972 39.664093
v 180.439529 21.617874 44.442707
v 171.576416 23.880690 30.081532
v 166.770447 22.085823 28.166203
v 174.494293 23.136719 25.945194
v 182.323517 23.001141 34.245861
v 199.080032 21.041962 35.152313
v 210.915421 22.028286 45.118675
v 204.446304 23.670261 34.720345
v 196.870667 21.555855 44.040062
v 217.078003 23.332396 44.249870
v 232.443207 20.388998 38.030457
v 229.409912 25.475458 47.112000
v 234.997665 23.706272 48.978256
v 225.237534 25.220085 51.786972
v 220.953308 19.792023 34.083801
v 38.192924 27.239000 55.137196
v 39.885811 20.678730 37.113228
v 27.350996 23.498844 44.957066
v 49.610672 26.121897 46.149689
v 53.735039 26.361916 53.309319
v 54.858040 22.039169 41.432697
v 55.235886 19.994349 40.189278
v 64.949791 20.027521 28.101807
v 54.523964 21.686777 34.511765
v 64.141556 21.686777 42.130653
v 84.796349 21.565599 29.295593
v 76.628845 23.534502 39.128548
v 71.751999 21.116930 43.230530
v 82.663750 21.121340 39.529976
v 66.712051 21.833796 28.480076
v 13.646916 23.279842 48.004440
v 9.563878 19.051121 34.608040
v 8.426220 23.725361 45.746902
v 18.727596 22.799114 38.348930
v 20.933811 19.899130 33.295280
v 23.628010 22.676289 42.106392
v 101.358330 19.773043 42.068295
v 89.306808 19.806345 32.314468
v 103.270348 21.465532 33.257259
v 95.657089 21.465532 42.784966
vt 0.325734 0.208124
vt 0.325734 0.208124
vt 0.325734 0.208124
vt 0.325734 0.208124
vt 0.325734 0.208124
vt 0.325734 0.208124
vt 0.325734 0.208124
vt 0.325734 0.208124
vt 0.325734 0.208124
vt 0.325734 0.208124
vt 0.325734 0.208124
vt 0.325734 0.208124
vt 0.325717 0.184002
vt 0.325717 0.184002
vt 0.325717 0.184002
vt 0.325717 0.184002
vt 0.325717 0.184002
vt 0.325717 0.184002
vt 0.325717 0.184002
vt 0.325717 0.184002
vt 0.325717 0.184002
vt 0.325717 0.184002
vt 0.325717 0.184002
vt 0.325717 0.184002
vt 0.325717 0.184002
vt 0.325717 0.184002
vt 0.325717 0.184002
vt 0.325717 0.184002
vt 0.325717 0.184002
vt 0.325717 0.184002
vt 0.325717 0.184002
vt 0.325717 0.184002
vt 0.325717 0.184002
vt 0.325734 0.208124
vt 0.325734 0.208124
vt 0.325734 0.208124
vt 0.325734 0.208124
vt 0.325734 0.208124
vt 0.325734 0.208124
vt 0.325734 0.208124
vt 0.325734 0.208124
vt 0.325734 0.208124
vt 0.325734 0.208124
vt 0.325734 0.208124
vt 0.325734 0.208124
vt 0.325717 0.184002
vt 0.325717 0.184002
vt 0.325717 0.184002
vt 0.325717 0.184002
vt 0.325734 0.208124
vt 0.325734 0.208124
vt 0.325734 0.208124
vt 0.325734 0.208124
vt 0.325734 0.208124
vt 0.325734 0.208124
vt 0.325734 0.208124
vt 0.325734 0.208124
vt 0.325734 0.208124
vt 0.325734 0.208124
vt 0.325734 0.208124
vt 0.325734 0.208124
vt 0.325717 0.184002
vt 0.325717 0.184002
vt 0.325717 0.184002
vt 0.325717 0.184002
vt 0.325717 0.184002
vt 0.325717 0.184002
vt 0.325717 0.184002
vt 0.325717 0.184002
vt 0.325717 0.184002
vt 0.325717 0.184002
vt 0.325717 0.184002
vt 0.325717 0.184002
vt 0.325717 0.184002
vt 0.325717 0.184002
vt 0.325717 0.184002
vt 0.325717 0.184002
vt 0.325717 0.184002
vt 0.325717 0.184002
vt 0.325717 0.184002
vt 0.325717 0.184002
vt 0.325717 0.184002
vt 0.325717 0.184002
vt 0.325717 0.184002
vt 0.325717 0.184002
vt 0.325717 0.184002
vn 0.285455 0.938168 -0.195850
vn 0.285455 0.938168 -0.195850
vn 0.285455 0.938168 -0.195850
vn 0.000000 1.000000 0.000000
vn 0.000000 1.000000 0.000000
vn 0.000000 1.000000 0.000000
vn -0.122501 0.991294 -0.048275
vn -0.122501 0.991294 -0.048275
vn -0.122501 0.991294 -0.048275
vn -0.212163 0.967318 0.138866
vn -0.212163 0.967318 0.138866
vn -0.212163 0.967318 0.138866
vn 0.000001 1.000000 -0.000002
vn 0.000001 1.000000 -0.000002
vn 0.000001 1.000000 -0.000002
vn -0.025914 0.937165 0.347922
vn -0.025914 0.937165 0.347922
vn -0.025914 0.937165 0.347922
vn 0.203139 0.939188 -0.276875
vn 0.203139 0.939188 -0.276875
vn 0.203139 0.939188 -0.276875
vn -0.000002 1.000000 0.000003
vn -0.000002 1.000000 0.000003
vn -0.000002 1.000000 0.000003
vn -0.000008 1.000000 0.000001
vn -0.000008 1.000000 0.000001
vn -0.000008 1.000000 0.000001
vn 0.345925 0.937180 -0.045051
vn 0.345925 0.937180 -0.045051
vn 0.345925 0.937180 -0.045051
vn -0.312280 0.939181 -0.142899
vn -0.312280 0.939181 -0.142899
vn -0.312280 0.939181 -0.142899
vn 0.000002 1.000000 -0.000000
vn 0.000002 1.000000 -0.000000
vn 0.000002 1.000000 -0.000000
vn 0.022092 0.991115 -0.131163
vn 0.022092 0.991115 -0.131163
vn 0.022092 0.991115 -0.131163
vn -0.052807 0.948094 0.313574
vn -0.052807 0.948094 0.313574
vn -0.052807 0.948094 0.313574
vn 0.175407 0.963829 0.200663
vn 0.175407 0.963829 0.200663
vn 0.175407 0.963829 0.200663
vn 0.101120 0.991496 -0.081919
vn 0.101120 0.991496 -0.081919
vn 0.101120 0.991496 -0.081919
vn -0.060242 0.993986 -0.091448
vn -0.060242 0.993986 -0.091448
vn -0.060242 0.993986 -0.091448
vn -0.010540 0.938168 0.346021
vn -0.010540 0.938168 0.346021
vn -0.010540 0.938168 0.346021
vn 0.000000 1.000000 0.000000
vn 0.000000 1.000000 0.000000
vn 0.000000 1.000000 0.000000
vn 0.111304 0.991294 -0.070345
vn 0.111304 0.991294 -0.070345
vn 0.111304 0.991294 -0.070345
vn 0.013240 0.967318 -0.253222
vn 0.013240 0.967318 -0.253222
vn 0.013240 0.967318 -0.253222
vn 0.072035 0.991113 0.111832
vn 0.072035 0.991113 0.111832
vn 0.072035 0.991113 0.111832
vn -0.172206 0.948088 -0.267347
vn -0.172206 0.948088 -0.267347
vn -0.172206 0.948088 -0.267347
vn 0.126243 0.953663 0.273110
vn 0.126243 0.953663 0.273110
vn 0.126243 0.953663 0.273110
vn 0.145773 0.929647 -0.338387
vn 0.145773 0.929647 -0.338387
vn 0.145773 0.929648 -0.338387
vn 0.145392 0.989253 0.015497
vn 0.145392 0.989253 0.015497
vn 0.145392 0.989253 0.015497
vn 0.003479 0.997651 0.068412
vn 0.003479 0.997651 0.068412
vn 0.003479 0.997651 0.068412
vn 0.000000 1.000000 -0.000000
vn 0.000000 1.000000 -0.000000
vn 0.000000 1.000000 -0.000000
vn -0.103481 0.937172 -0.333168
vn -0.103481 0.937172 -0.333168
vn -0.103481 0.937172 -0.333168
vn -0.087448 0.939183 0.332096
vn -0.087448 0.939183 0.332096
vn -0.087448 0.939183 0.332096
vn 0.000000 1.000000 -0.000000
vn 0.000000 1.000000 -0.000000
vn 0.000000 1.000000 -0.000000
vn -0.125144 0.991113 0.045097
vn -0.125144 0.991113 0.045097
vn -0.125144 0.991113 0.045097
vn 0.299199 0.948080 -0.107819
vn 0.299199 0.948080 -0.107819
vn 0.299199 0.948080 -0.107819
vn 0.019273 0.984682 -0.173291
vn 0.019273 0.984682 -0.173291
vn 0.019273 0.984682 -0.173291
vn 0.280079 0.957585 0.067726
vn 0.280079 0.957585 0.067726
vn 0.280079 0.957585 0.067726
vn -0.260455 0.958706 0.114215
vn -0.260455 0.958707 0.114215
vn -0.260455 0.958706 0.114215
vn -0.154660 0.969958 -0.187780
vn -0.154660 0.969958 -0.187780
vn -0.154660 0.969958 -0.187780
vn 0.064614 0.997203 -0.037582
vn 0.064614 0.997203 -0.037582
vn 0.064614 0.997202 -0.037582
vn 0.246846 0.919786 0.305058
vn 0.246846 0.919786 0.305058
vn 0.246846 0.919786 0.305058
vn 0.241866 0.928232 0.282642
vn 0.241866 0.928232 0.282642
vn 0.241866 0.928232 0.282642
vn -0.103917 0.991114 -0.083036
vn -0.103917 0.991114 -0.083036
vn -0.103917 0.991114 -0.083036
vn 0.248446 0.948084 0.198525
vn 0.248446 0.948084 0.198525
vn 0.248446 0.948084 0.198525
s off
f 4/1/1 2/2/2 3/3/3
f 1/4/4 2/5/5 4/6/6
f 2/7/7 6/8/8 3/9/9
f 3/10/10 6/11/11 5/12/12
f 9/13/13 12/14/14 8/15/15
f 9/13/16 10/16/17 12/14/18
f 10/16/19 9/13/20 11/17/21
f 7/18/22 11/17/23 9/13/24
f 15/19/25 18/20/26 14/21/27
f 15/19/28 16/22/29 18/20/30
f 16/22/31 15/19/32 17/23/33
f 13/24/34 17/23/35 15/19/36
f 22/25/37 21/26/38 20/27/39
f 19/28/40 21/26/41 22/25/42
f 23/29/43 25/30/44 24/31/45
f 24/31/46 26/32/47 27/33/48
f 24/31/49 25/30/50 26/32/51
f 31/34/52 29/35/53 30/36/54
f 28/37/55 29/38/56 31/39/57
f 29/40/58 33/41/59 30/42/60
f 30/43/61 33/44/62 32/45/63
f 36/46/64 37/47/65 35/48/66
f 34/49/67 37/47/68 36/46/69
f 42/50/70 40/51/71 38/52/72
f 41/53/73 43/54/74 40/55/75
f 39/56/76 43/57/77 41/58/78
f 40/59/79 43/60/80 38/61/81
f 46/62/82 49/63/83 45/64/84
f 46/62/85 47/65/86 49/63/87
f 47/65/88 46/62/89 48/66/90
f 44/67/91 48/66/92 46/62/93
f 52/68/94 53/69/95 51/70/96
f 50/71/97 53/69/98 52/68/99
f 58/72/100 55/73/101 54/74/102
f 54/74/103 55/73/104 57/75/105
f 55/73/106 58/72/107 56/76/108
f 63/77/109 61/78/110 62/79/111
f 60/80/112 61/78/113 63/77/114
f 64/81/115 61/78/116 59/82/117
f 62/79/118 61/78/119 64/81/120
f 68/83/121 67/84/122 66/85/123
f 65/86/124 67/84/125 68/83/126
