# This file uses centimeters as units for non-parametric coordinates.

v -59.155296 -3.184098 59.155296
v 59.155296 -3.184098 59.155296
v -59.155296 7.322669 59.155296
v 57.276009 15.020157 57.276009
v -57.276009 15.020157 -53.138252
v 59.155296 8.665001 -59.155296
v -59.155296 -3.184098 -59.155296
v 59.155296 -3.184098 -59.155296
v -57.276009 15.020157 23.773554
v -23.805853 15.020157 57.276009
v -47.405415 15.020157 47.676792
v -11.770306 15.020157 57.276009
v 24.284132 15.020157 57.276009
v -1.969149 15.020157 53.204723
v -0.141736 9.164702 59.155296
v 38.723625 15.020157 -57.276009
v 57.276009 15.020157 -38.239483
v 57.276009 15.020157 7.450733
v 57.276009 15.020157 -30.937222
v 52.557724 15.020157 -17.613977
v 59.155296 8.880462 -17.647207
v -45.869324 15.020157 -57.276009
v -17.379038 15.020157 -57.276009
v -34.241886 15.020157 -50.041138
v -36.785488 10.683102 -59.155296
v -30.638720 13.820030 -16.103195
vt 0.305509 0.104238
vt 0.305016 0.104159
vt 0.305118 0.104130
vt 0.305223 0.129528
vt 0.305518 0.104192
vt 0.305514 0.103911
vt 0.305034 0.129489
vt 0.304633 0.128992
vt 0.305331 0.128829
vt 0.304637 0.103451
vt 0.305345 0.103413
vt 0.305202 0.103390
vt 0.304774 0.103371
vt 0.304630 0.103392
vt 0.305503 0.103490
vt 0.304525 0.104188
vt 0.304593 0.103630
vt 0.304571 0.103756
vt 0.304518 0.129493
vt 0.305509 0.103403
vt 0.304329 0.153302
vt 0.304615 0.128866
vt 0.304609 0.103517
vt 0.305421 0.103399
vt 0.304804 0.104115
vt 0.304747 0.153843
vt 0.305421 0.128792
vt 0.305202 0.128782
vt 0.304774 0.128763
vt 0.305329 0.153412
vt 0.304609 0.128910
vt 0.304571 0.129149
vt 0.304615 0.103474
vt 0.304886 0.152958
vt 0.304804 0.129507
vt 0.305118 0.129523
vt 0.304518 0.104100
vt 0.305430 0.129468
vt 0.305223 0.104136
vt 0.305514 0.129303
vt 0.305509 0.128795
vt 0.304886 0.152920
vt 0.304876 0.152961
vt 0.304728 0.152994
vt 0.305008 0.153022
vt 0.305101 0.153132
vt 0.305073 0.153120
vt 0.305054 0.153068
vt 0.304665 0.153697
vt 0.304849 0.153717
vt 0.304742 0.153818
vt 0.304890 0.153687
vt 0.304942 0.153611
vt 0.304966 0.153654
vt 0.304385 0.153354
vt 0.304432 0.153321
vt 0.304451 0.153422
vt 0.304352 0.153294
vt 0.305094 0.153538
vt 0.305199 0.153215
vt 0.305166 0.129094
vn -0.003182 0.122735 0.992435
vn -0.003182 0.122735 0.992434
vn -0.003182 0.122735 0.992435
vn -0.003182 0.122735 0.992435
vn -0.003182 0.122735 0.992434
vn 0.011812 0.999684 -0.022196
vn 0.011812 0.999684 -0.022196
vn 0.011812 0.999684 -0.022196
vn 0.001926 0.145082 -0.989418
vn 0.001926 0.145082 -0.989418
vn 0.001926 0.145082 -0.989418
vn 0.001926 0.145082 -0.989418
vn 0.001926 0.145082 -0.989418
vn 0.000000 -1.000000 0.000000
vn 0.000000 -1.000000 0.000000
vn 0.000000 -1.000000 0.000000
vn 0.000000 -1.000000 0.000000
vn 0.990044 0.140124 0.013350
vn 0.990044 0.140124 0.013350
vn 0.990044 0.140124 0.013350
vn 0.990044 0.140124 0.013350
vn -0.994714 0.102687 0.000000
vn -0.994714 0.102687 0.000000
vn -0.994714 0.102687 0.000000
vn -0.416678 0.892622 0.172063
vn -0.416678 0.892622 0.172063
vn -0.416678 0.892622 0.172063
vn -0.171481 0.890427 0.421585
vn -0.171481 0.890427 0.421585
vn -0.171481 0.890427 0.421585
vn 0.263475 0.726817 0.634286
vn 0.263475 0.726817 0.634286
vn 0.263475 0.726817 0.634286
vn 0.265168 0.928926 -0.258424
vn 0.265168 0.928926 -0.258424
vn 0.265168 0.928926 -0.258424
vn 0.662846 0.711008 0.234740
vn 0.662846 0.711008 0.234740
vn 0.662846 0.711008 0.234740
vn -0.165493 0.907649 -0.385727
vn -0.165493 0.907649 -0.385727
vn -0.165493 0.907649 -0.385727
vn 0.296541 0.827606 -0.476583
vn 0.296541 0.827606 -0.476583
vn 0.296541 0.827606 -0.476583
vn 0.675376 0.726432 -0.127136
vn 0.675376 0.726432 -0.127136
vn 0.675376 0.726432 -0.127136
vn -0.110748 0.691182 0.714144
vn -0.110748 0.691182 0.714144
vn -0.110748 0.691182 0.714144
vn 0.000000 1.000000 0.000000
vn 0.000000 1.000000 0.000000
vn 0.000000 1.000000 0.000000
vn 0.000000 1.000000 0.000000
vn 0.000000 1.000000 0.000000
vn 0.000000 1.000000 0.000000
vn 0.000000 1.000000 0.000000
vn 0.000000 1.000000 0.000000
vn 0.000000 1.000000 0.000000
vn 0.000000 1.000000 0.000000
vn 0.000000 1.000000 0.000000
vn 0.000000 1.000000 0.000000
vn 0.000000 1.000000 0.000000
vn 0.000000 1.000000 0.000000
vn 0.000000 1.000000 0.000000
vn 0.000000 1.000000 0.000000
vn 0.000000 1.000000 0.000000
vn 0.000000 1.000000 0.000000
vn 0.000000 1.000000 0.000000
vn 0.000000 1.000000 0.000000
vn -0.221368 0.258628 -0.940270
vn -0.221368 0.258628 -0.940270
vn -0.221368 0.258628 -0.940270
vn -0.221368 0.258628 -0.940270
vn 0.000000 0.000000 -1.000000
vn 0.000000 0.000000 -1.000000
vn 0.000000 0.000000 -1.000000
vn -0.996117 0.087696 -0.007788
vn -0.996117 0.087696 -0.007788
vn -0.996117 0.087696 -0.007788
vn -0.996117 0.087696 -0.007788
vn 0.018394 0.137471 0.990335
vn 0.018394 0.137471 0.990335
vn 0.018394 0.137471 0.990335
vn 0.018394 0.137471 0.990335
vn 0.000000 0.000000 1.000000
vn 0.000000 0.000000 1.000000
vn 0.000000 0.000000 1.000000
vn 0.993425 0.114486 -0.000505
vn 0.993425 0.114486 -0.000505
vn 0.993425 0.114486 -0.000505
vn 0.993425 0.114486 -0.000505
vn 0.993425 0.114486 -0.000505
vn 1.000000 0.000001 0.000000
vn 1.000000 0.000001 0.000000
vn 1.000000 0.000001 0.000000
vn 0.084224 0.996100 0.026282
vn 0.084224 0.996100 0.026282
vn 0.084224 0.996100 0.026282
vn -0.013746 0.999228 0.036794
vn -0.013746 0.999228 0.036794
vn -0.013746 0.999228 0.036794
vn -0.014627 0.999830 -0.011262
vn -0.014627 0.999830 -0.011262
vn -0.014627 0.999830 -0.011262
s off
f 1/1/1 15/2/2 12/3/3 10/39/4 3/5/5
f 9/40/6 14/7/7 26/61/8
f 8/10/9 25/11/10 23/12/11 16/13/12 6/14/13
f 7/21/14 8/26/15 2/30/16 1/34/17
f 2/16/18 21/17/19 18/18/20 4/37/21
f 7/15/22 9/6/23 5/20/24
f 3/42/25 11/43/26 9/44/27
f 3/42/28 10/45/29 11/43/30
f 15/46/31 14/47/32 12/48/33
f 16/49/34 17/50/35 6/51/36
f 19/52/37 20/53/38 21/54/39
f 25/55/40 24/56/41 23/57/42
f 22/58/43 24/56/44 25/55/45
f 21/54/46 20/53/47 18/59/48
f 13/60/49 14/47/50 15/46/51
f 24/9/52 20/8/53 19/31/54 17/22/55 16/29/56 23/28/57
f 9/40/58 24/9/59 22/27/60 5/41/61
f 9/40/62 11/38/63 10/4/64 12/36/65 14/7/66
f 20/8/67 14/7/68 13/35/69 4/19/70 18/32/71
f 5/20/72 22/24/73 25/11/74 7/15/75
f 7/15/76 25/11/77 8/10/78
f 7/15/79 1/1/80 3/5/81 9/6/82
f 15/2/83 2/16/84 4/37/85 13/25/86
f 1/1/87 2/16/88 15/2/89
f 21/17/90 8/10/91 6/14/92 17/33/93 19/23/94
f 2/16/95 8/10/96 21/17/97
f 9/40/98 26/61/99 24/9/100
f 26/61/101 20/8/102 24/9/103
f 26/61/104 14/7/105 20/8/106
