# This file uses centimeters as units for non-parametric coordinates.

v 28.977875 7.545288 33.013184
v 34.516846 8.780334 37.503082
v 36.603271 11.074646 33.886063
v 33.287140 11.311951 29.733894
v 28.192902 13.950562 44.418518
v 33.459564 15.336609 45.922691
v 33.468842 16.358765 42.852615
v 29.983246 15.941772 40.325729
v 6.556122 26.160095 47.711121
v 10.467712 26.691528 48.257980
v 11.478912 28.169128 46.030792
v 8.251007 27.661621 45.430939
v -6.363678 36.766174 56.379051
v -5.846191 36.878296 55.974785
v -5.096191 36.900269 56.773529
v -4.864807 37.341919 55.908783
v -5.248718 37.470459 54.999023
v 42.589966 3.835876 13.863358
v 51.498901 3.352722 18.075386
v 54.537506 7.089966 14.390770
v 47.148865 9.187256 12.355278
v -5.803894 0.404968 6.020889
v -6.664337 4.454895 9.491913
v -7.522156 5.006531 2.814590
v -0.579773 2.626526 4.144272
v -100.197388 -22.725830 -27.179779
v -100.208282 -21.036011 -26.770981
v -99.102722 -20.626770 -28.258987
v -98.826569 -22.118835 -28.259155
v -37.276672 -5.936279 -15.857422
v -35.034485 -2.746887 -14.421463
v -32.723358 -1.309204 -17.171661
v -34.644104 -4.494141 -17.946869
v 46.220001 8.674866 6.181908
v 45.033295 0.018250 5.560799
v 52.069702 1.345337 18.171677
v 54.655884 9.973022 17.063286
v -3.832275 7.047546 1.751724
v -9.508484 0.639160 -1.924072
v -7.369415 -0.866516 7.190353
v -4.173065 3.880493 10.303726
v -39.888794 12.824097 10.601028
v -41.617767 6.113037 6.952042
v -36.845490 4.720642 12.072891
v -34.528595 9.234009 16.731094
v -77.775330 2.107361 18.939636
v -75.922455 -3.581116 15.978302
v -74.698608 -5.504822 21.152084
v -76.982513 -1.191223 23.478027
v -136.305054 2.599854 15.078323
v -137.408142 -0.031433 13.315750
v -138.115295 -0.582947 14.866211
v -137.446777 0.792969 16.977219
v 10.256775 4.092468 9.226395
v 8.103729 -4.858337 10.258057
v 8.574768 -3.100159 18.114380
v 7.054871 2.454224 18.652954
v 32.755768 8.644470 9.176559
v 31.894196 -0.092590 11.747116
v 39.473297 2.730652 20.212524
v 39.093170 6.688110 22.068405
v 124.756805 3.156799 -27.115250
v 125.257904 11.978821 -29.734207
v 135.969818 17.711487 -21.235771
v 131.001160 1.625916 -13.142532
v 134.172699 11.576050 -11.838799
v 137.197479 6.028809 -24.084656
v -31.258392 8.097107 7.835098
v -27.700012 6.839905 11.344681
v -28.226318 8.897461 13.403580
v -32.482513 8.578125 12.244995
v -79.420197 -26.281189 8.892502
v -79.064270 -26.747864 11.301285
v -79.121735 -25.751831 11.763596
v -79.411896 -24.870117 9.418228
v -49.677399 -13.466064 10.047058
v -47.072937 -14.163940 15.109848
v -47.556488 -11.896301 16.555435
v -49.794281 -10.218323 12.238190
vt 0.293781 0.165812
vt 0.293780 0.165810
vt 0.293781 0.165813
vt 0.293778 0.165812
vt 0.293777 0.165814
vt 0.293767 0.165986
vt 0.293758 0.165981
vt 0.293802 0.165919
vt 0.293805 0.165931
vt 0.293745 0.165986
vt 0.293791 0.165923
vt 0.293744 0.165984
vt 0.293789 0.165933
vt 0.293803 0.165884
vt 0.293809 0.165889
vt 0.293798 0.165888
vt 0.293799 0.165894
vt 0.293775 0.165852
vt 0.293781 0.165853
vt 0.293770 0.165853
vt 0.293774 0.165853
vt 0.293334 0.165912
vt 0.293331 0.165911
vt 0.293310 0.165957
vt 0.293314 0.165962
vt 0.293313 0.165965
vt 0.293333 0.165914
vt 0.293309 0.165960
vt 0.293330 0.165912
vt 0.293250 0.166005
vt 0.293260 0.166010
vt 0.293257 0.166014
vt 0.293248 0.166010
vt 0.293242 0.165875
vt 0.293245 0.165879
vt 0.293238 0.165880
vt 0.293238 0.165877
vt 0.293239 0.166113
vt 0.293225 0.166126
vt 0.293234 0.166064
vt 0.293244 0.166069
vt 0.293223 0.166130
vt 0.293235 0.166068
vt 0.293229 0.166118
vt 0.293243 0.166069
vt 0.293247 0.166006
vt 0.293260 0.166003
vt 0.293248 0.166012
vt 0.293258 0.166011
vt 0.293238 0.165961
vt 0.293248 0.165952
vt 0.293238 0.165958
vt 0.293245 0.165950
vt 0.293234 0.166151
vt 0.293226 0.166155
vt 0.293229 0.166166
vt 0.293232 0.166164
vt 0.293245 0.166169
vt 0.293235 0.166179
vt 0.293232 0.166194
vt 0.293244 0.166202
vt 0.294273 0.169543
vt 0.294327 0.169606
vt 0.294335 0.169601
vt 0.294279 0.169539
vt 0.294315 0.169614
vt 0.294261 0.169549
vt 0.294314 0.169613
vt 0.294313 0.169611
vt 0.294262 0.169552
vt 0.294321 0.169609
vt 0.293172 0.165946
vt 0.293172 0.165947
vt 0.293188 0.166013
vt 0.293188 0.166013
vt 0.293192 0.166012
vt 0.293175 0.165945
vt 0.293194 0.166011
vt 0.293176 0.165947
vt 0.293240 0.166071
vt 0.293236 0.166068
vt 0.293243 0.166065
vt 0.293245 0.166061
vn 0.243412 0.947347 0.208047
vn 0.243412 0.947347 0.208047
vn 0.243412 0.947347 0.208047
vn -0.009474 0.859817 0.510514
vn -0.009474 0.859817 0.510514
vn -0.009474 0.859817 0.510514
vn -0.026585 0.896717 0.441805
vn -0.026585 0.896717 0.441805
vn -0.026585 0.896717 0.441805
vn 0.701757 0.381812 0.601462
vn 0.701757 0.381812 0.601462
vn 0.701757 0.381812 0.601462
vn -0.463951 -0.868330 0.175362
vn -0.463951 -0.868330 0.175362
vn -0.463951 -0.868330 0.175362
vn -0.463951 -0.868330 0.175362
vn 0.846312 -0.417278 0.331112
vn 0.846312 -0.417278 0.331112
vn 0.846312 -0.417278 0.331112
vn 0.846312 -0.417278 0.331112
vn 0.669023 0.742836 -0.024555
vn 0.669023 0.742836 -0.024555
vn 0.669023 0.742836 -0.024555
vn 0.669023 0.742836 -0.024555
vn -0.637867 0.709192 -0.300287
vn -0.637867 0.709192 -0.300287
vn -0.637867 0.709192 -0.300287
vn -0.637867 0.709192 -0.300287
vn -0.325878 -0.795543 0.510798
vn -0.325878 -0.795543 0.510798
vn -0.325878 -0.795543 0.510798
vn -0.325878 -0.795543 0.510798
vn 0.855050 -0.518527 -0.004331
vn 0.855050 -0.518527 -0.004331
vn 0.855050 -0.518527 -0.004331
vn 0.855050 -0.518527 -0.004331
vn 0.620483 0.676204 -0.397177
vn 0.620483 0.676204 -0.397177
vn 0.620483 0.676204 -0.397177
vn 0.620483 0.676204 -0.397177
vn -0.663149 0.744971 -0.072468
vn -0.663149 0.744971 -0.072468
vn -0.663149 0.744971 -0.072468
vn -0.663149 0.744971 -0.072468
vn -0.077008 -0.550938 0.830985
vn -0.077008 -0.550938 0.830985
vn -0.077008 -0.550938 0.830985
vn -0.077008 -0.550938 0.830985
vn 0.914863 0.217055 0.340459
vn 0.914863 0.217055 0.340459
vn 0.914863 0.217055 0.340459
vn 0.914863 0.217055 0.340459
vn 0.355513 0.632042 -0.688574
vn 0.355513 0.632042 -0.688574
vn 0.355513 0.632042 -0.688574
vn 0.355513 0.632042 -0.688574
vn -0.870050 -0.032047 -0.491922
vn -0.870050 -0.032047 -0.491922
vn -0.870050 -0.032047 -0.491922
vn -0.870050 -0.032047 -0.491922
vn -0.152916 -0.724279 0.672336
vn -0.152916 -0.724279 0.672336
vn -0.152916 -0.724279 0.672336
vn -0.152916 -0.724279 0.672336
vn 0.937973 -0.114066 0.327407
vn 0.937973 -0.114066 0.327407
vn 0.937973 -0.114066 0.327407
vn 0.937973 -0.114066 0.327407
vn 0.371369 0.743980 -0.555499
vn 0.371369 0.743980 -0.555499
vn 0.371369 0.743980 -0.555499
vn 0.371369 0.743980 -0.555499
vn -0.814916 0.378508 -0.438911
vn -0.814916 0.378508 -0.438911
vn -0.814916 0.378508 -0.438911
vn -0.814916 0.378508 -0.438911
vn 0.040326 -0.477031 0.877961
vn 0.040326 -0.477031 0.877961
vn 0.040326 -0.477031 0.877961
vn 0.040326 -0.477031 0.877961
vn 0.345559 0.865257 0.363208
vn 0.345559 0.865257 0.363208
vn 0.345559 0.865257 0.363208
vn 0.345559 0.865257 0.363208
vn -0.101061 0.391462 -0.914628
vn -0.101061 0.391462 -0.914628
vn -0.101061 0.391462 -0.914628
vn -0.101061 0.391462 -0.914628
vn -0.352180 -0.904325 -0.241175
vn -0.352180 -0.904325 -0.241175
vn -0.352180 -0.904325 -0.241175
vn -0.352180 -0.904325 -0.241175
vn -0.804277 0.499958 -0.321217
vn -0.804277 0.499958 -0.321217
vn -0.804277 0.499958 -0.321217
vn -0.804277 0.499958 -0.321217
vn -0.484505 -0.344552 0.804076
vn -0.484505 -0.344552 0.804076
vn -0.484505 -0.344552 0.804076
vn -0.484505 -0.344552 0.804076
vn 0.196318 0.923730 0.328910
vn 0.196318 0.923730 0.328910
vn 0.196318 0.923730 0.328910
vn 0.196318 0.923730 0.328910
vn 0.437702 0.302252 -0.846795
vn 0.437702 0.302252 -0.846795
vn 0.437702 0.302252 -0.846795
vn 0.437702 0.302252 -0.846795
vn -0.251368 -0.899704 -0.356858
vn -0.251368 -0.899704 -0.356858
vn -0.251368 -0.899704 -0.356858
vn -0.251368 -0.899704 -0.356858
vn -0.578319 0.799047 0.164535
vn -0.578319 0.799047 0.164535
vn -0.578319 0.799047 0.164535
vn -0.578319 0.799047 0.164535
vn 0.215562 -0.065143 -0.974315
vn 0.215562 -0.065143 -0.974315
vn 0.215562 -0.065143 -0.974315
vn 0.215562 -0.065143 -0.974315
vn -0.734018 -0.678061 0.038093
vn -0.734018 -0.678061 0.038093
vn -0.734018 -0.678061 0.038093
vn -0.734018 -0.678061 0.038093
vn -0.466697 -0.121700 0.876004
vn -0.466697 -0.121700 0.876004
vn -0.466697 -0.121700 0.876004
vn -0.466697 -0.121700 0.876004
vn 0.583288 0.750364 0.311012
vn 0.583288 0.750364 0.311012
vn 0.583288 0.750364 0.311012
vn 0.583288 0.750364 0.311012
vn -0.106610 0.696488 -0.709605
vn -0.106610 0.696488 -0.709605
vn -0.106610 0.696488 -0.709605
vn -0.106610 0.696488 -0.709605
vn -0.757531 -0.640600 -0.125615
vn -0.757531 -0.640600 -0.125615
vn -0.757531 -0.640600 -0.125615
vn -0.757531 -0.640600 -0.125615
vn -0.084907 -0.738423 0.668971
vn -0.084907 -0.738423 0.668971
vn -0.084907 -0.738423 0.668971
vn -0.084907 -0.738423 0.668971
vn 0.794491 0.533350 0.290383
vn 0.794491 0.533350 0.290383
vn 0.794491 0.533350 0.290383
vn 0.794491 0.533350 0.290383
vn -0.345999 0.683920 -0.642291
vn -0.345999 0.683920 -0.642291
vn -0.345999 0.683920 -0.642291
vn -0.345999 0.683920 -0.642291
vn -0.521807 -0.702189 -0.484405
vn -0.521807 -0.702189 -0.484405
vn -0.521807 -0.702189 -0.484405
vn -0.521807 -0.702189 -0.484405
vn 0.213049 -0.788715 0.576662
vn 0.213049 -0.788715 0.576662
vn 0.213049 -0.788715 0.576662
vn 0.213049 -0.788715 0.576662
vn 0.560726 0.540657 0.627117
vn 0.560726 0.540657 0.627117
vn 0.560726 0.540657 0.627117
vn 0.560726 0.540657 0.627117
vn 0.068718 0.608263 -0.790756
vn 0.068718 0.608263 -0.790756
vn 0.068718 0.608263 -0.790756
vn 0.068718 0.608263 -0.790756
vn -0.708688 -0.595825 -0.377827
vn -0.708688 -0.595825 -0.377827
vn -0.708688 -0.595825 -0.377827
vn -0.708688 -0.595825 -0.377827
vn -0.236816 -0.667810 0.705654
vn -0.236816 -0.667810 0.705654
vn -0.236816 -0.667810 0.705654
vn -0.236816 -0.667810 0.705654
vn 0.629493 0.412751 0.658312
vn 0.629493 0.412751 0.658312
vn 0.629493 0.412751 0.658312
vn 0.629493 0.412751 0.658312
vn -0.286652 0.104261 -0.952344
vn -0.286652 0.104261 -0.952344
vn -0.286652 0.104261 -0.952344
vn -0.286652 0.104261 -0.952344
vn -0.225883 -0.968624 0.103654
vn -0.225883 -0.968624 0.103654
vn -0.225883 -0.968624 0.103654
vn -0.225883 -0.968624 0.103654
vn 0.093454 -0.463273 0.881275
vn 0.093454 -0.463273 0.881275
vn 0.093454 -0.463273 0.881275
vn 0.093454 -0.463273 0.881275
vn 0.336788 0.897105 0.285966
vn 0.336788 0.897105 0.285966
vn 0.336788 0.897105 0.285966
vn 0.336788 0.897105 0.285966
vn -0.566192 0.377894 -0.732546
vn -0.566192 0.377894 -0.732546
vn -0.566192 0.377894 -0.732546
vn -0.566192 0.377894 -0.732546
vn -0.392069 -0.907423 0.151213
vn -0.392069 -0.907423 0.151213
vn -0.392069 -0.907423 0.151213
vn -0.392069 -0.907423 0.151213
vn 0.433636 -0.475166 0.765622
vn 0.433636 -0.475166 0.765622
vn 0.433636 -0.475166 0.765622
vn 0.433636 -0.475166 0.765622
vn 0.398991 0.904117 0.152901
vn 0.398991 0.904117 0.152901
vn 0.398991 0.904117 0.152901
vn 0.398991 0.904117 0.152901
vn -0.634767 0.365770 -0.680649
vn -0.634767 0.365770 -0.680649
vn -0.634767 0.365770 -0.680649
vn -0.634767 0.365770 -0.680649
vn 0.141728 0.984827 -0.100149
vn 0.141728 0.984827 -0.100149
vn 0.141728 0.984827 -0.100149
vn 0.141728 0.984827 -0.100149
vn 0.702170 0.458187 0.544997
vn 0.702170 0.458187 0.544997
vn 0.702170 0.458187 0.544997
vn -0.402458 -0.912389 -0.074655
vn -0.402458 -0.912389 -0.074655
vn -0.402458 -0.912389 -0.074655
vn -0.402458 -0.912389 -0.074655
vn 0.534637 -0.480726 0.695030
vn 0.534637 -0.480726 0.695030
vn 0.534637 -0.480726 0.695030
vn 0.534637 -0.480726 0.695030
vn 0.702170 0.458187 0.544997
vn 0.702170 0.458187 0.544997
vn 0.974605 0.049140 0.218472
vn 0.534637 -0.480726 0.695030
vn 0.534637 -0.480726 0.695030
vn 0.872887 -0.325816 0.363198
vn -0.402458 -0.912389 -0.074655
vn -0.402458 -0.912389 -0.074655
vn 0.270621 -0.936375 -0.223531
vn -0.634767 0.365770 -0.680649
vn -0.634767 0.365770 -0.680649
vn 0.288829 -0.287501 -0.913193
vn 0.141728 0.984827 -0.100149
vn 0.141728 0.984827 -0.100149
vn 0.514154 0.253816 -0.819282
vn -0.242319 -0.851606 -0.464811
vn -0.242319 -0.851606 -0.464811
vn -0.242319 -0.851606 -0.464811
vn -0.242319 -0.851606 -0.464811
vn 0.087718 -0.664643 0.741994
vn 0.087718 -0.664643 0.741994
vn 0.087718 -0.664643 0.741994
vn 0.087718 -0.664643 0.741994
vn 0.202391 0.732336 0.650170
vn 0.202391 0.732336 0.650170
vn 0.202391 0.732336 0.650170
vn 0.202391 0.732336 0.650170
vn -0.165678 0.688671 -0.705892
vn -0.165678 0.688671 -0.705892
vn -0.165678 0.688671 -0.705892
vn -0.165678 0.688671 -0.705892
vn -0.887524 0.316415 0.334937
vn -0.887524 0.316415 0.334937
vn -0.887524 0.316415 0.334937
vn -0.887524 0.316415 0.334937
vn 0.096534 -0.614287 -0.783156
vn 0.096534 -0.614287 -0.783156
vn 0.096534 -0.614287 -0.783156
vn 0.096534 -0.614287 -0.783156
vn 0.541865 -0.717051 0.438430
vn 0.541865 -0.717051 0.438430
vn 0.541865 -0.717051 0.438430
vn 0.541865 -0.717051 0.438430
vn 0.022911 0.421010 0.906767
vn 0.022911 0.421010 0.906767
vn 0.022911 0.421010 0.906767
vn 0.022911 0.421010 0.906767
vn -0.502459 0.838158 -0.212195
vn -0.502459 0.838158 -0.212195
vn -0.502459 0.838158 -0.212195
vn -0.502459 0.838158 -0.212195
s off
f 13/1/1 15/2/2 14/3/3
f 15/2/4 16/4/5 14/3/6
f 16/4/7 17/5/8 14/3/9
f 14/3/10 17/5/11 13/1/12
f 18/6/13 19/7/14 2/8/15 1/9/16
f 19/7/17 20/10/18 3/11/19 2/8/20
f 20/10/21 21/12/22 4/13/23 3/11/24
f 21/12/25 18/6/26 1/9/27 4/13/28
f 2/8/29 6/14/30 5/15/31 1/9/32
f 3/11/33 7/16/34 6/14/35 2/8/36
f 4/13/37 8/17/38 7/16/39 3/11/40
f 1/9/41 5/15/42 8/17/43 4/13/44
f 5/15/45 6/14/46 10/18/47 9/19/48
f 6/14/49 7/16/50 11/20/51 10/18/52
f 7/16/53 8/17/54 12/21/55 11/20/56
f 8/17/57 5/15/58 9/19/59 12/21/60
f 10/18/61 15/2/62 13/1/63 9/19/64
f 11/20/65 16/4/66 15/2/67 10/18/68
f 12/21/69 17/5/70 16/4/71 11/20/72
f 13/1/73 17/5/74 12/21/75 9/19/76
f 27/22/77 26/23/78 30/24/79 31/25/80
f 31/25/81 32/26/82 28/27/83 27/22/84
f 32/26/85 33/28/86 29/29/87 28/27/88
f 33/28/89 30/24/90 26/23/91 29/29/92
f 29/29/93 26/23/94 27/22/95 28/27/96
f 30/24/97 22/30/98 23/31/99 31/25/100
f 23/31/101 24/32/102 32/26/103 31/25/104
f 24/32/105 25/33/106 33/28/107 32/26/108
f 25/33/109 22/30/110 30/24/111 33/28/112
f 53/34/113 50/35/114 51/36/115 52/37/116
f 54/38/117 55/39/118 39/40/119 38/41/120
f 55/39/121 56/42/122 40/43/123 39/40/124
f 56/42/125 57/44/126 41/45/127 40/43/128
f 57/44/129 54/38/130 38/41/131 41/45/132
f 39/40/133 43/46/134 42/47/135 38/41/136
f 40/43/137 44/48/138 43/46/139 39/40/140
f 41/45/141 45/49/142 44/48/143 40/43/144
f 38/41/145 42/47/146 45/49/147 41/45/148
f 42/47/149 43/46/150 47/50/151 46/51/152
f 43/46/153 44/48/154 48/52/155 47/50/156
f 44/48/157 45/49/158 49/53/159 48/52/160
f 45/49/161 42/47/162 46/51/163 49/53/164
f 47/50/165 51/36/166 50/35/167 46/51/168
f 48/52/169 52/37/170 51/36/171 47/50/172
f 49/53/173 53/34/174 52/37/175 48/52/176
f 50/35/177 53/34/178 49/53/179 46/51/180
f 58/54/181 59/55/182 55/39/183 54/38/184
f 59/55/185 60/56/186 56/42/187 55/39/188
f 60/56/189 61/57/190 57/44/191 56/42/192
f 61/57/193 58/54/194 54/38/195 57/44/196
f 34/58/197 35/59/198 59/55/199 58/54/200
f 35/59/201 36/60/202 60/56/203 59/55/204
f 36/60/205 37/61/206 61/57/207 60/56/208
f 37/61/209 34/58/210 58/54/211 61/57/212
f 34/62/213 63/63/214 62/64/215 35/65/216
f 64/66/217 63/63/218 34/62/219 37/67/220
f 37/67/221 66/68/222 64/66/223
f 62/64/224 65/69/225 36/70/226 35/65/227
f 65/69/228 66/68/229 37/67/230 36/70/231
f 64/66/232 66/68/233 67/71/234
f 66/68/235 65/69/236 67/71/237
f 65/69/238 62/64/239 67/71/240
f 62/64/241 63/63/242 67/71/243
f 63/63/244 64/66/245 67/71/246
f 73/72/247 72/73/248 76/74/249 77/75/250
f 77/75/251 78/76/252 74/77/253 73/72/254
f 78/76/255 79/78/256 75/79/257 74/77/258
f 79/78/259 76/74/260 72/73/261 75/79/262
f 75/79/263 72/73/264 73/72/265 74/77/266
f 76/74/267 68/80/268 69/81/269 77/75/270
f 69/81/271 70/82/272 78/76/273 77/75/274
f 70/82/275 71/83/276 79/78/277 78/76/278
f 71/83/279 68/80/280 76/74/281 79/78/282
