# This file uses centimeters as units for non-parametric coordinates.

v -120.923370 0.000000 -193.621094
v -29.049561 0.000000 -218.378174
v -43.777924 0.000000 213.386230
v -40.709015 5.136673 171.936035
v -5.137726 4.246334 -179.296875
v -111.426788 5.487160 -126.945068
v -96.122528 6.899048 -39.160156
v -5.089294 4.771496 -3.397461
v 6.616699 5.237823 57.602783
v -37.037750 7.787609 63.720703
v -40.447296 8.169956 -94.154297
v -19.886810 4.774014 -66.291016
v 8.937592 0.000000 218.250000
v 24.965607 0.000000 -218.433716
v -79.426331 8.839355 -42.426514
v -121.176544 4.108704 -8.032715
v -70.044556 7.603527 -92.554688
v -41.105469 5.181004 103.524414
v -131.816437 6.924736 115.572998
v -73.298553 4.808846 37.274170
v -54.701019 5.497395 -5.516357
v -35.731323 7.373001 123.365234
v -59.694824 7.213989 -149.872803
v -94.419891 0.000000 202.563232
v -58.157806 6.012218 -113.132080
v -1.424713 5.442860 -116.461670
v -77.206055 6.436920 80.876709
v -132.075653 0.000000 186.810059
v -160.418915 0.000000 -169.896118
v -223.737885 0.000001 31.243896
v -203.039337 0.000000 -104.603027
v -208.059174 0.000000 100.088623
v -221.485809 0.683192 -30.476563
v -215.968109 0.000000 69.078857
v -146.037018 8.774002 -57.222656
v -191.306610 5.947140 -28.433838
v -188.868500 6.825924 34.977295
v -173.754059 7.196007 -56.316895
v -189.120270 0.000001 137.417725
v -170.351288 0.000000 165.015869
v -143.449921 6.744072 -24.013428
v -159.309174 5.636913 58.391846
v -147.763947 5.456104 -101.429199
v -151.947357 3.715492 19.735107
v -167.830048 4.686150 106.472900
v -156.919769 4.842434 141.820557
v -138.291473 4.988003 87.907959
v -80.091339 3.147308 158.663086
v -95.968292 3.658585 103.459717
v -171.616425 4.609753 -126.821533
v 72.301453 0.000000 206.628906
v 115.453583 0.000001 194.157715
v 127.502869 0.000000 -186.568604
v 207.352020 0.000000 -94.704590
v 149.761963 5.136673 -150.551880
v 159.273041 4.246334 139.059082
v 217.101028 0.000000 61.652344
v 98.966553 5.823318 7.048584
v 191.251129 4.771496 -7.036133
v 194.666718 5.694687 -44.541016
v 153.030914 7.787609 -69.654785
v 140.810242 8.169956 83.092041
v 172.044785 0.000000 -154.827637
v 202.315155 4.774014 37.519043
v 177.054916 0.000001 151.730713
v 78.337738 4.108704 -2.466309
v 105.066925 7.603527 80.996094
v 53.440826 6.924736 -132.734619
v 123.138580 4.808846 -46.590332
v 227.500336 0.000001 0.245605
v 84.532684 6.899048 55.854248
v 143.274261 5.497395 -0.546631
v 116.395569 7.213989 133.909180
v 130.478271 6.012218 100.378662
v 187.400452 5.442860 84.037109
v 166.534912 6.288509 -86.329102
v 106.579956 6.436920 -75.828857
v 62.846130 8.774002 63.473633
v 35.714996 7.196007 51.677979
v 50.808380 4.988003 -102.717285
v 69.696869 5.487160 154.000488
v 45.919617 3.715492 -20.070313
v 43.900482 5.209499 -173.152832
v 20.883881 5.638954 145.272461
v 86.867218 0.000000 -207.257568
v 145.440247 7.373001 -120.715088
v 91.264191 3.658585 -111.032471
v 149.760315 7.495438 30.698730
v 9.745819 6.288509 101.284424
v 53.882935 6.744072 14.084473
vt 0.380483 0.108671
vt 0.380549 0.108821
vt 0.380458 0.108724
vt 0.380285 0.109005
vt 0.380325 0.108939
vt 0.380256 0.109136
vt 0.380363 0.108558
vt 0.380299 0.108545
vt 0.380451 0.108781
vt 0.380409 0.108705
vt 0.380397 0.108555
vt 0.380365 0.108961
vt 0.380341 0.108599
vt 0.380265 0.108799
vt 0.380310 0.108921
vt 0.380378 0.109030
vt 0.380379 0.108862
vt 0.380411 0.108846
vt 0.380407 0.109031
vt 0.380193 0.108725
vt 0.380176 0.108576
vt 0.380202 0.108621
vt 0.380500 0.108578
vt 0.380259 0.108596
vt 0.380298 0.108784
vt 0.380525 0.109137
vt 0.380448 0.108859
vt 0.380576 0.108945
vt 0.380581 0.109267
vt 0.380376 0.109083
vt 0.380343 0.109125
vt 0.380457 0.109450
vt 0.380501 0.109114
vt 0.380565 0.109363
vt 0.380503 0.109241
vt 0.380409 0.109118
vt 0.380489 0.109328
vt 0.380429 0.109213
vt 0.380307 0.109391
vt 0.380562 0.109443
vt 0.380606 0.109448
vt 0.380637 0.109401
vt 0.380613 0.109145
vt 0.380393 0.109462
vt 0.380426 0.109283
vt 0.380365 0.109113
vt 0.380535 0.109447
vt 0.380504 0.109447
vt 0.380532 0.108864
vt 0.380473 0.108976
vt 0.380349 0.109379
vt 0.380483 0.108671
vt 0.380549 0.108821
vt 0.380325 0.108939
vt 0.380240 0.109063
vt 0.380576 0.108945
vt 0.380458 0.108724
vt 0.380363 0.108558
vt 0.380317 0.108484
vt 0.380299 0.108545
vt 0.380409 0.108705
vt 0.380397 0.108555
vt 0.380341 0.108599
vt 0.380265 0.108799
vt 0.380310 0.108921
vt 0.380338 0.108756
vt 0.380379 0.108862
vt 0.380411 0.108846
vt 0.380407 0.109031
vt 0.380397 0.108977
vt 0.380215 0.108862
vt 0.380186 0.108539
vt 0.380202 0.108621
vt 0.380474 0.108530
vt 0.380390 0.108471
vt 0.380378 0.109030
vt 0.380265 0.108572
vt 0.380298 0.108784
vt 0.380269 0.108481
vt 0.380473 0.108976
vt 0.380448 0.108859
vt 0.380525 0.109137
vt 0.380557 0.109170
vt 0.380625 0.109273
vt 0.380376 0.109083
vt 0.380285 0.109005
vt 0.380365 0.109113
vt 0.380337 0.109227
vt 0.380396 0.109247
vt 0.380565 0.109363
vt 0.380501 0.109114
vt 0.380504 0.109337
vt 0.380442 0.109297
vt 0.380373 0.109315
vt 0.380429 0.109213
vt 0.380307 0.109391
vt 0.380608 0.109348
vt 0.380409 0.109118
vn -0.026507 0.999211 -0.029595
vn -0.026507 0.999210 -0.029595
vn -0.026507 0.999210 -0.029595
vn -0.021285 0.996648 -0.078988
vn -0.021285 0.996648 -0.078988
vn -0.021285 0.996648 -0.078988
vn -0.148656 0.986498 -0.068722
vn -0.148656 0.986498 -0.068722
vn -0.148656 0.986498 -0.068722
vn -0.018938 0.997808 0.063408
vn -0.018938 0.997808 0.063408
vn -0.018938 0.997808 0.063408
vn 0.082107 0.996002 0.035179
vn 0.082107 0.996002 0.035179
vn 0.082107 0.996002 0.035179
vn 0.055739 0.998277 -0.018328
vn 0.055739 0.998277 -0.018328
vn 0.055739 0.998277 -0.018328
vn -0.018526 0.999268 0.033461
vn -0.018526 0.999268 0.033461
vn -0.018526 0.999268 0.033461
vn -0.056309 0.997439 0.044091
vn -0.056309 0.997439 0.044091
vn -0.056309 0.997439 0.044091
vn -0.036554 0.997393 -0.062220
vn -0.036554 0.997393 -0.062220
vn -0.036554 0.997393 -0.062220
vn 0.013686 0.999664 0.022034
vn 0.013686 0.999664 0.022034
vn 0.013686 0.999664 0.022034
vn -0.000111 0.994156 -0.107951
vn -0.000111 0.994156 -0.107951
vn -0.000111 0.994156 -0.107951
vn 0.015344 0.999623 0.022754
vn 0.015344 0.999623 0.022754
vn 0.015344 0.999623 0.022754
vn 0.014777 0.999885 -0.003437
vn 0.014777 0.999885 -0.003437
vn 0.014777 0.999885 -0.003437
vn 0.089892 0.994439 0.054869
vn 0.089892 0.994439 0.054869
vn 0.089892 0.994439 0.054869
vn -0.020667 0.999380 -0.028506
vn -0.020667 0.999380 -0.028506
vn -0.020667 0.999380 -0.028506
vn 0.003167 0.993257 -0.115887
vn 0.003167 0.993257 -0.115887
vn 0.003167 0.993257 -0.115887
vn 0.070242 0.997088 0.029676
vn 0.070242 0.997088 0.029676
vn 0.070242 0.997089 0.029676
vn 0.008885 0.999769 -0.019563
vn 0.008885 0.999769 -0.019563
vn 0.008885 0.999769 -0.019563
vn 0.097566 0.994015 0.049155
vn 0.097566 0.994014 0.049155
vn 0.097566 0.994015 0.049155
vn -0.027719 0.994667 0.099343
vn -0.027719 0.994667 0.099343
vn -0.027719 0.994667 0.099343
vn -0.005902 0.997885 0.064745
vn -0.005902 0.997884 0.064745
vn -0.005902 0.997885 0.064745
vn 0.054389 0.998130 -0.027904
vn 0.054389 0.998130 -0.027904
vn 0.054389 0.998130 -0.027904
vn -0.051433 0.997799 -0.041866
vn -0.051433 0.997799 -0.041866
vn -0.051433 0.997799 -0.041866
vn -0.114660 0.993397 0.004012
vn -0.114660 0.993397 0.004012
vn -0.114660 0.993397 0.004012
vn -0.026183 0.994361 -0.102764
vn -0.026183 0.994361 -0.102764
vn -0.026183 0.994361 -0.102764
vn 0.019076 0.999184 -0.035599
vn 0.019076 0.999184 -0.035599
vn 0.019076 0.999184 -0.035599
vn -0.023962 0.995578 -0.090833
vn -0.023962 0.995578 -0.090833
vn -0.023962 0.995578 -0.090833
vn 0.008844 0.997364 -0.072020
vn 0.008844 0.997364 -0.072020
vn 0.008844 0.997364 -0.072020
vn 0.055075 0.997150 0.051556
vn 0.055075 0.997150 0.051556
vn 0.055075 0.997150 0.051556
vn -0.003143 0.994349 -0.106117
vn -0.003143 0.994349 -0.106117
vn -0.003143 0.994349 -0.106117
vn -0.067042 0.996518 0.049561
vn -0.067042 0.996518 0.049561
vn -0.067042 0.996518 0.049561
vn -0.025871 0.992309 0.121055
vn -0.025871 0.992309 0.121055
vn -0.025871 0.992309 0.121055
vn 0.049984 0.997291 0.053964
vn 0.049984 0.997291 0.053964
vn 0.049984 0.997291 0.053964
vn -0.051919 0.996000 -0.072726
vn -0.051919 0.996000 -0.072726
vn -0.051919 0.996000 -0.072726
vn -0.059050 0.995625 -0.072419
vn -0.059050 0.995625 -0.072419
vn -0.059050 0.995625 -0.072419
vn -0.014693 0.996692 -0.079931
vn -0.014693 0.996692 -0.079931
vn -0.014693 0.996692 -0.079931
vn 0.000194 0.996853 0.079269
vn 0.000194 0.996853 0.079269
vn 0.000194 0.996853 0.079269
vn 0.002485 0.999793 0.020211
vn 0.002485 0.999793 0.020211
vn 0.002485 0.999793 0.020211
vn -0.115573 0.993299 -0.000840
vn -0.115573 0.993299 -0.000840
vn -0.115573 0.993299 -0.000840
vn -0.025275 0.999588 -0.013595
vn -0.025275 0.999588 -0.013595
vn -0.025275 0.999588 -0.013595
vn 0.079137 0.996268 -0.034448
vn 0.079137 0.996268 -0.034448
vn 0.079137 0.996268 -0.034448
vn -0.054597 0.996380 0.065158
vn -0.054597 0.996380 0.065157
vn -0.054597 0.996380 0.065157
vn 0.010431 0.997137 0.074892
vn 0.010431 0.997137 0.074892
vn 0.010431 0.997137 0.074892
vn -0.014613 0.999701 -0.019594
vn -0.014613 0.999701 -0.019594
vn -0.014613 0.999701 -0.019594
vn 0.059949 0.994949 0.080521
vn 0.059949 0.994949 0.080521
vn 0.059949 0.994949 0.080521
vn -0.125427 0.990060 0.063636
vn -0.125427 0.990060 0.063636
vn -0.125427 0.990060 0.063636
vn -0.154356 0.987067 0.043279
vn -0.154356 0.987067 0.043279
vn -0.154356 0.987067 0.043279
vn -0.162566 0.980484 0.110558
vn -0.162566 0.980484 0.110558
vn -0.162566 0.980484 0.110558
vn -0.087973 0.984068 0.154500
vn -0.087973 0.984068 0.154500
vn -0.087973 0.984068 0.154500
vn -0.259081 0.950934 -0.169117
vn -0.259081 0.950934 -0.169117
vn -0.259082 0.950934 -0.169117
vn 0.015862 0.998086 0.059773
vn 0.015862 0.998086 0.059773
vn 0.015862 0.998086 0.059773
vn 0.068953 0.996955 -0.036422
vn 0.068953 0.996955 -0.036422
vn 0.068953 0.996955 -0.036422
vn 0.033981 0.992629 0.116333
vn 0.033981 0.992629 0.116332
vn 0.033981 0.992629 0.116333
vn 0.077056 0.996886 -0.016778
vn 0.077056 0.996886 -0.016778
vn 0.077056 0.996886 -0.016778
vn -0.182529 0.981691 -0.054470
vn -0.182529 0.981691 -0.054470
vn -0.182529 0.981691 -0.054470
vn -0.156812 0.986779 -0.040951
vn -0.156812 0.986779 -0.040951
vn -0.156812 0.986779 -0.040951
vn 0.046242 0.998639 -0.024123
vn 0.046242 0.998639 -0.024123
vn 0.046242 0.998639 -0.024123
vn -0.047131 0.997158 -0.058776
vn -0.047131 0.997158 -0.058776
vn -0.047131 0.997158 -0.058776
vn -0.167473 0.983966 -0.061354
vn -0.167473 0.983966 -0.061354
vn -0.167473 0.983966 -0.061354
vn -0.171360 0.985183 -0.007064
vn -0.171360 0.985183 -0.007064
vn -0.171360 0.985183 -0.007064
vn -0.192505 0.981289 0.003838
vn -0.192505 0.981289 0.003838
vn -0.192505 0.981289 0.003838
vn -0.025164 0.999589 -0.013731
vn -0.025164 0.999589 -0.013731
vn -0.025164 0.999589 -0.013731
vn -0.187096 0.981182 0.047718
vn -0.187096 0.981182 0.047718
vn -0.187096 0.981182 0.047718
vn -0.196106 0.979755 0.040272
vn -0.196106 0.979756 0.040272
vn -0.196106 0.979755 0.040272
vn -0.034538 0.994961 0.094127
vn -0.034538 0.994961 0.094127
vn -0.034538 0.994961 0.094127
vn -0.066053 0.997688 0.015976
vn -0.066053 0.997688 0.015976
vn -0.066053 0.997688 0.015976
vn -0.075362 0.989233 -0.125456
vn -0.075362 0.989233 -0.125456
vn -0.075362 0.989233 -0.125456
vn -0.057894 0.988685 0.138387
vn -0.057894 0.988685 0.138387
vn -0.057894 0.988685 0.138387
vn 0.062168 0.994510 -0.084173
vn 0.062168 0.994510 -0.084173
vn 0.062168 0.994510 -0.084173
vn -0.010500 0.993482 0.113502
vn -0.010500 0.993482 0.113502
vn -0.010500 0.993482 0.113502
vn 0.085568 0.996214 -0.015383
vn 0.085568 0.996214 -0.015383
vn 0.085568 0.996214 -0.015383
vn -0.085819 0.985449 0.146714
vn -0.085819 0.985449 0.146714
vn -0.085819 0.985449 0.146714
vn -0.098266 0.984154 -0.147595
vn -0.098266 0.984154 -0.147595
vn -0.098266 0.984154 -0.147595
vn 0.003454 0.999326 -0.036553
vn 0.003454 0.999326 -0.036553
vn 0.003454 0.999326 -0.036553
vn -0.019633 0.999282 0.032398
vn -0.019633 0.999282 0.032398
vn -0.019633 0.999282 0.032398
vn -0.022587 0.997651 0.064677
vn -0.022587 0.997651 0.064677
vn -0.022587 0.997651 0.064677
vn -0.027755 0.999466 0.017239
vn -0.027755 0.999466 0.017239
vn -0.027755 0.999466 0.017239
vn -0.011270 0.992447 0.122154
vn -0.011270 0.992447 0.122154
vn -0.011270 0.992447 0.122154
vn -0.088018 0.992301 -0.087124
vn -0.088018 0.992302 -0.087124
vn -0.088018 0.992301 -0.087124
vn -0.043769 0.999012 0.007755
vn -0.043769 0.999012 0.007755
vn -0.043769 0.999012 0.007755
vn 0.029539 0.994324 0.102209
vn 0.029539 0.994324 0.102209
vn 0.029539 0.994324 0.102209
vn 0.123380 0.991719 0.035648
vn 0.123380 0.991719 0.035648
vn 0.123380 0.991719 0.035648
vn 0.033544 0.999055 0.027647
vn 0.033544 0.999055 0.027647
vn 0.033544 0.999055 0.027647
vn -0.063699 0.996013 -0.062452
vn -0.063699 0.996013 -0.062452
vn -0.063699 0.996013 -0.062452
vn -0.061409 0.997028 -0.046530
vn -0.061409 0.997028 -0.046530
vn -0.061409 0.997028 -0.046530
vn -0.042326 0.996373 0.073826
vn -0.042326 0.996373 0.073826
vn -0.042326 0.996373 0.073826
vn 0.012372 0.999716 -0.020360
vn 0.012372 0.999716 -0.020360
vn 0.012372 0.999716 -0.020360
vn 0.114931 0.979257 0.166873
vn 0.114931 0.979257 0.166873
vn 0.114931 0.979257 0.166873
vn 0.155501 0.983606 -0.091318
vn 0.155501 0.983606 -0.091318
vn 0.155501 0.983606 -0.091318
vn 0.216831 0.975318 -0.041695
vn 0.216831 0.975318 -0.041695
vn 0.216831 0.975318 -0.041695
vn 0.173328 0.954357 -0.243229
vn 0.173328 0.954357 -0.243229
vn 0.173328 0.954357 -0.243229
vn 0.004458 0.999847 -0.016901
vn 0.004458 0.999847 -0.016901
vn 0.004458 0.999847 -0.016901
vn 0.061447 0.995183 -0.076394
vn 0.061447 0.995183 -0.076394
vn 0.061447 0.995183 -0.076394
vn 0.014629 0.999886 -0.003689
vn 0.014629 0.999886 -0.003689
vn 0.014629 0.999886 -0.003689
vn 0.052222 0.998628 -0.003936
vn 0.052222 0.998628 -0.003936
vn 0.052222 0.998628 -0.003936
vn -0.014939 0.999770 -0.015423
vn -0.014939 0.999769 -0.015423
vn -0.014939 0.999769 -0.015423
vn -0.015167 0.999763 -0.015626
vn -0.015167 0.999763 -0.015626
vn -0.015167 0.999763 -0.015626
vn -0.064009 0.997111 -0.040908
vn -0.064009 0.997111 -0.040908
vn -0.064009 0.997111 -0.040908
vn 0.160661 0.981571 0.103476
vn 0.160661 0.981570 0.103476
vn 0.160661 0.981570 0.103476
vn 0.054572 0.986291 0.155727
vn 0.054572 0.986291 0.155727
vn 0.054572 0.986292 0.155727
vn 0.069815 0.997539 -0.006431
vn 0.069815 0.997539 -0.006431
vn 0.069815 0.997539 -0.006431
vn 0.058345 0.998287 0.004353
vn 0.058345 0.998287 0.004353
vn 0.058345 0.998287 0.004353
vn 0.221344 0.973530 0.056970
vn 0.221344 0.973530 0.056970
vn 0.221344 0.973530 0.056970
vn -0.056493 0.996214 0.066076
vn -0.056493 0.996214 0.066076
vn -0.056493 0.996214 0.066076
vn -0.010514 0.997193 -0.074126
vn -0.010514 0.997193 -0.074126
vn -0.010514 0.997194 -0.074126
vn -0.015381 0.994678 -0.101883
vn -0.015381 0.994677 -0.101883
vn -0.015381 0.994678 -0.101883
vn 0.069992 0.997003 -0.032951
vn 0.069992 0.997003 -0.032951
vn 0.069992 0.997003 -0.032951
vn -0.019903 0.999412 -0.027914
vn -0.019903 0.999412 -0.027914
vn -0.019903 0.999412 -0.027914
vn -0.039298 0.996200 0.077727
vn -0.039298 0.996200 0.077727
vn -0.039298 0.996200 0.077727
vn 0.140944 0.988473 -0.055289
vn 0.140944 0.988473 -0.055289
vn 0.140944 0.988473 -0.055289
vn 0.137162 0.989961 -0.034116
vn 0.137162 0.989961 -0.034116
vn 0.137162 0.989961 -0.034116
vn 0.245021 0.968630 0.041495
vn 0.245021 0.968630 0.041495
vn 0.245021 0.968630 0.041495
vn 0.025143 0.998827 0.041378
vn 0.025143 0.998827 0.041378
vn 0.025143 0.998827 0.041378
vn 0.136222 0.987629 -0.077670
vn 0.136222 0.987629 -0.077670
vn 0.136222 0.987629 -0.077670
vn 0.236832 0.970250 -0.050255
vn 0.236832 0.970250 -0.050255
vn 0.236832 0.970250 -0.050255
vn -0.022239 0.993602 0.110731
vn -0.022239 0.993602 0.110731
vn -0.022239 0.993602 0.110731
vn 0.029539 0.998627 0.043261
vn 0.029539 0.998627 0.043261
vn 0.029539 0.998627 0.043261
vn 0.054255 0.991345 0.119549
vn 0.054255 0.991345 0.119549
vn 0.054255 0.991345 0.119549
vn 0.065488 0.989528 -0.128626
vn 0.065488 0.989529 -0.128626
vn 0.065488 0.989529 -0.128626
vn 0.263862 0.957401 0.117305
vn 0.263862 0.957401 0.117305
vn 0.263862 0.957401 0.117305
vn -0.076173 0.996212 0.041935
vn -0.076173 0.996212 0.041935
vn -0.076173 0.996212 0.041935
vn 0.018846 0.994528 0.102759
vn 0.018846 0.994528 0.102759
vn 0.018846 0.994528 0.102759
vn -0.010372 0.997103 0.075348
vn -0.010372 0.997103 0.075348
vn -0.010372 0.997103 0.075348
vn 0.073414 0.995521 -0.059576
vn 0.073414 0.995521 -0.059576
vn 0.073414 0.995521 -0.059576
vn 0.004741 0.999875 0.015074
vn 0.004741 0.999875 0.015074
vn 0.004741 0.999875 0.015074
vn -0.032456 0.999382 0.013468
vn -0.032456 0.999382 0.013468
vn -0.032456 0.999382 0.013468
vn -0.043678 0.998497 -0.033112
vn -0.043678 0.998497 -0.033112
vn -0.043678 0.998497 -0.033112
vn -0.002681 0.999996 0.000671
vn -0.002681 0.999996 0.000671
vn -0.002681 0.999996 0.000671
vn 0.041012 0.994367 -0.097735
vn 0.041012 0.994367 -0.097735
vn 0.041012 0.994367 -0.097735
vn -0.017379 0.999687 -0.018009
vn -0.017379 0.999687 -0.018009
vn -0.017379 0.999687 -0.018009
vn -0.005481 0.993690 -0.112031
vn -0.005481 0.993690 -0.112031
vn -0.005481 0.993690 -0.112031
vn -0.007666 0.996218 -0.086550
vn -0.007666 0.996218 -0.086550
vn -0.007666 0.996218 -0.086550
vn 0.067450 0.996304 -0.053190
vn 0.067450 0.996304 -0.053190
vn 0.067450 0.996304 -0.053190
vn 0.026230 0.999512 0.016941
vn 0.026230 0.999512 0.016941
vn 0.026230 0.999512 0.016941
vn 0.070048 0.996021 -0.055095
vn 0.070048 0.996021 -0.055095
vn 0.070048 0.996021 -0.055095
vn -0.026124 0.999355 -0.024639
vn -0.026124 0.999355 -0.024639
vn -0.026124 0.999355 -0.024639
vn -0.148064 0.987606 0.052074
vn -0.148064 0.987606 0.052074
vn -0.148064 0.987606 0.052074
vn 0.096156 0.994948 0.028848
vn 0.096156 0.994948 0.028848
vn 0.096156 0.994948 0.028848
vn -0.008066 0.997938 0.063680
vn -0.008066 0.997938 0.063680
vn -0.008066 0.997938 0.063680
vn -0.066117 0.997799 0.005060
vn -0.066117 0.997799 0.005060
vn -0.066117 0.997799 0.005060
vn -0.024273 0.999455 0.022374
vn -0.024273 0.999455 0.022374
vn -0.024273 0.999455 0.022374
vn -0.036959 0.998750 -0.033660
vn -0.036959 0.998750 -0.033660
vn -0.036959 0.998750 -0.033660
vn -0.001862 0.999848 0.017316
vn -0.001862 0.999848 0.017316
vn -0.001862 0.999848 0.017316
vn 0.022291 0.992099 -0.123461
vn 0.022291 0.992099 -0.123461
vn 0.022291 0.992099 -0.123461
vn 0.046807 0.996559 0.068403
vn 0.046807 0.996559 0.068403
vn 0.046807 0.996559 0.068403
vn 0.015216 0.996244 -0.085246
vn 0.015216 0.996244 -0.085246
vn 0.015216 0.996244 -0.085246
vn 0.006837 0.995965 -0.089479
vn 0.006837 0.995965 -0.089479
vn 0.006837 0.995965 -0.089479
vn -0.003475 0.998001 -0.063098
vn -0.003475 0.998001 -0.063098
vn -0.003475 0.998001 -0.063098
vn 0.014529 0.992776 0.119099
vn 0.014529 0.992776 0.119099
vn 0.014529 0.992776 0.119099
vn 0.000492 0.999893 0.014641
vn 0.000492 0.999893 0.014641
vn 0.000492 0.999893 0.014641
vn -0.070963 0.997300 -0.018905
vn -0.070963 0.997300 -0.018905
vn -0.070963 0.997300 -0.018905
vn -0.031101 0.978986 0.201540
vn -0.031101 0.978986 0.201540
vn -0.031101 0.978986 0.201540
vn 0.019027 0.999324 0.031458
vn 0.019027 0.999324 0.031458
vn 0.019027 0.999324 0.031458
vn -0.063648 0.997195 0.039391
vn -0.063648 0.997195 0.039391
vn -0.063648 0.997195 0.039391
s off
f 6/4/1 15/12/2 17/5/3
f 1/6/4 6/4/5 2/20/6
f 48/49/7 22/3/8 18/9/9
f 18/9/10 89/11/11 10/10/12
f 15/12/13 21/17/14 12/8/15
f 8/13/16 10/10/17 9/7/18
f 6/4/19 25/15/20 23/14/21
f 20/18/22 7/16/23 16/19/24
f 8/13/25 20/18/26 10/10/27
f 8/13/28 21/17/29 20/18/30
f 2/20/31 5/22/32 14/21/33
f 20/18/34 21/17/35 7/16/36
f 12/8/37 21/17/38 8/13/39
f 12/8/40 11/25/41 15/12/42
f 15/12/43 11/25/44 17/5/45
f 26/24/46 25/15/47 11/25/48
f 23/14/49 25/15/50 5/22/51
f 5/22/52 25/15/53 26/24/54
f 12/8/55 26/24/56 11/25/57
f 49/50/58 18/9/59 27/27/60
f 27/27/61 18/9/62 10/10/63
f 10/10/64 89/11/65 9/7/66
f 20/18/67 27/27/68 10/10/69
f 7/16/70 15/12/71 6/4/72
f 89/11/73 18/9/74 22/3/75
f 16/19/76 27/27/77 20/18/78
f 25/15/79 17/5/80 11/25/81
f 6/4/82 17/5/83 25/15/84
f 13/23/85 22/3/86 4/1/87
f 23/14/88 5/22/89 2/20/90
f 24/28/91 4/1/92 48/49/93
f 3/2/94 4/1/95 24/28/96
f 13/23/97 89/11/98 22/3/99
f 6/4/100 43/31/101 35/30/102
f 43/31/103 38/46/104 35/30/105
f 1/6/106 50/51/107 6/4/108
f 24/28/109 19/26/110 46/29/111
f 47/33/112 42/35/113 45/34/114
f 42/35/115 32/40/116 45/34/117
f 27/27/118 44/38/119 47/33/120
f 44/38/121 42/35/122 47/33/123
f 35/30/124 38/46/125 41/36/126
f 24/28/127 48/49/128 19/26/129
f 6/4/130 50/51/131 43/31/132
f 44/38/133 16/19/134 41/36/135
f 32/40/136 39/41/137 45/34/138
f 39/41/139 46/29/140 45/34/141
f 46/29/142 39/41/143 40/42/144
f 40/42/145 28/43/146 46/29/147
f 29/39/148 31/44/149 50/51/150
f 35/30/151 41/36/152 7/16/153
f 37/37/154 42/35/155 44/38/156
f 7/16/157 41/36/158 16/19/159
f 44/38/160 36/45/161 37/37/162
f 50/51/163 31/44/164 33/32/165
f 33/32/166 38/46/167 50/51/168
f 7/16/169 6/4/170 35/30/171
f 45/34/172 19/26/173 47/33/174
f 33/32/175 36/45/176 38/46/177
f 37/37/178 36/45/179 33/32/180
f 33/32/181 30/48/182 37/37/183
f 44/38/184 27/27/185 16/19/186
f 37/37/187 34/47/188 32/40/189
f 30/48/190 34/47/191 37/37/192
f 42/35/193 37/37/194 32/40/195
f 45/34/196 46/29/197 19/26/198
f 1/6/199 29/39/200 50/51/201
f 28/43/202 24/28/203 46/29/204
f 49/50/205 47/33/206 19/26/207
f 27/27/208 47/33/209 49/50/210
f 19/26/211 48/49/212 49/50/213
f 15/12/214 7/16/215 21/17/216
f 6/4/217 23/14/218 2/20/219
f 38/46/220 43/31/221 50/51/222
f 38/46/223 36/45/224 41/36/225
f 41/36/226 36/45/227 44/38/228
f 48/49/229 18/9/230 49/50/231
f 3/2/232 13/23/233 4/1/234
f 55/52/235 53/53/236 86/57/237
f 81/86/238 67/54/239 71/76/240
f 51/55/241 52/71/242 81/86/243
f 60/58/244 59/63/245 70/59/246
f 59/63/247 60/58/248 61/61/249
f 81/86/250 73/64/251 74/65/252
f 69/68/253 66/69/254 58/70/255
f 59/63/256 61/61/257 69/68/258
f 59/63/259 69/68/260 72/67/261
f 52/71/262 65/72/263 56/73/264
f 54/75/265 63/74/266 86/57/267
f 63/74/268 55/52/269 86/57/270
f 55/52/271 63/74/272 53/53/273
f 69/68/274 58/70/275 72/67/276
f 88/66/277 64/60/278 72/67/279
f 64/60/280 59/63/281 72/67/282
f 64/60/283 88/66/284 62/78/285
f 88/66/286 67/54/287 62/78/288
f 88/66/289 71/76/290 67/54/291
f 71/76/292 58/70/293 66/69/294
f 75/77/295 56/73/296 65/72/297
f 75/77/298 62/78/299 74/65/300
f 73/64/301 56/73/302 74/65/303
f 64/60/304 62/78/305 75/77/306
f 64/60/307 75/77/308 57/79/309
f 86/57/310 87/80/311 76/62/312
f 87/80/313 77/81/314 76/62/315
f 77/81/316 61/61/317 76/62/318
f 61/61/319 60/58/320 76/62/321
f 88/66/322 58/70/323 71/76/324
f 69/68/325 61/61/326 77/81/327
f 54/75/328 86/57/329 76/62/330
f 70/59/331 59/63/332 64/60/333
f 64/60/334 57/79/335 70/59/336
f 66/69/337 69/68/338 77/81/339
f 60/58/340 54/75/341 76/62/342
f 54/75/343 60/58/344 70/59/345
f 74/65/346 62/78/347 67/54/348
f 81/86/349 74/65/350 67/54/351
f 73/64/352 52/71/353 56/73/354
f 53/53/355 85/56/356 86/57/357
f 65/72/358 57/79/359 75/77/360
f 81/86/361 78/85/362 79/87/363
f 51/55/364 81/86/365 13/96/366
f 13/96/367 81/86/368 84/88/369
f 85/56/370 83/83/371 68/82/372
f 80/91/373 26/90/374 12/92/375
f 77/81/376 80/91/377 82/95/378
f 78/85/379 90/98/380 79/87/381
f 12/92/382 8/93/383 80/91/384
f 82/95/385 90/98/386 66/69/387
f 5/97/388 26/90/389 83/83/390
f 5/97/391 83/83/392 14/84/393
f 90/98/394 82/95/395 8/93/396
f 78/85/397 71/76/398 90/98/399
f 8/93/400 82/95/401 80/91/402
f 71/76/403 66/69/404 90/98/405
f 79/87/406 90/98/407 8/93/408
f 84/88/409 89/94/410 13/96/411
f 71/76/412 78/85/413 81/86/414
f 26/90/415 80/91/416 68/82/417
f 9/89/418 79/87/419 8/93/420
f 82/95/421 66/69/422 77/81/423
f 26/90/424 68/82/425 83/83/426
f 81/86/427 79/87/428 89/94/429
f 85/56/430 14/84/431 83/83/432
f 87/80/433 68/82/434 80/91/435
f 77/81/436 87/80/437 80/91/438
f 85/56/439 68/82/440 86/57/441
f 72/67/442 58/70/443 88/66/444
f 81/86/445 52/71/446 73/64/447
f 84/88/448 81/86/449 89/94/450
f 79/87/451 9/89/452 89/94/453
f 68/82/454 87/80/455 86/57/456
f 74/65/457 56/73/458 75/77/459
f 48/49/460 4/1/461 22/3/462
