# This file uses centimeters as units for non-parametric coordinates.

v 4.542164 88.869568 -36.330956
v 4.542072 74.970459 41.937119
v 81.358002 6.657532 0.674923
v 17.860699 62.259354 -16.516323
v 4.542133 79.374359 2.323198
v 4.542103 76.270981 21.080151
v 60.210999 15.816765 0.321104
v 91.622742 -0.000015 25.781792
v 65.593414 0.000008 40.395699
v 4.542259 40.733154 43.151276
v 10.967140 56.580490 17.856953
v 36.298775 22.047485 27.753716
v 27.194336 30.394852 12.989342
v 63.267517 9.833336 25.158051
v 102.712585 4.286224 -0.268513
v 109.000977 -0.000023 13.118973
v 120.899567 0.000015 -0.091011
v 120.130768 0.000008 6.540825
v 40.653923 34.041023 -6.000702
v 4.542164 88.869568 -36.330956
v 4.542072 74.970459 41.937119
v 81.358002 6.657532 0.674923
v 17.860699 62.259354 -16.516323
v 4.542133 79.374359 2.323198
v 4.542103 76.270981 21.080151
v 60.210999 15.816765 0.321104
v 91.622742 -0.000015 25.781792
v 65.593414 0.000008 40.395699
v 4.542259 40.733154 43.151276
v 10.967140 56.580490 17.856953
v 36.298775 22.047485 27.753716
v 27.194336 30.394852 12.989342
v 63.267517 9.833336 25.158051
v 102.712585 4.286224 -0.268513
v 109.000977 -0.000023 13.118973
v 120.899567 0.000015 -0.091011
v 120.130768 0.000008 6.540825
v 40.653923 34.041023 -6.000702
vt 0.008001 0.547812
vt 0.010581 0.991685
vt 0.686712 0.833395
vt 0.174367 0.657556
vt 0.009257 0.763873
vt 0.009877 0.870619
vt 0.528999 0.779267
vt 0.695999 0.989548
vt 0.484091 0.990208
vt 0.196047 0.991107
vt 0.124103 0.850518
vt 0.366033 0.898611
vt 0.302792 0.819074
vt 0.501983 0.906166
vt 0.848272 0.901375
vt 0.853953 0.989055
vt 0.978266 0.956073
vt 0.952578 0.988747
vt 0.368176 0.724072
vt 0.008001 0.547812
vt 0.009257 0.763873
vt 0.174367 0.657556
vt 0.366033 0.898611
vt 0.484091 0.990208
vt 0.501983 0.906166
vt 0.302792 0.819074
vt 0.528999 0.779267
vt 0.368176 0.724072
vt 0.695999 0.989548
vt 0.853953 0.989055
vt 0.848272 0.901375
vt 0.686712 0.833395
vt 0.009877 0.870619
vt 0.010581 0.991685
vt 0.196047 0.991107
vt 0.124103 0.850518
vt 0.952578 0.988747
vt 0.978266 0.956073
vn -0.845802 -0.518095 -0.127268
vn -0.845802 -0.518095 -0.127268
vn -0.845802 -0.518095 -0.127268
vn -0.403780 -0.795539 -0.451752
vn -0.403780 -0.795539 -0.451752
vn -0.403780 -0.795539 -0.451752
vn -0.502678 -0.710344 -0.492673
vn -0.502678 -0.710344 -0.492673
vn -0.502678 -0.710344 -0.492673
vn -0.135307 -0.966821 -0.216679
vn -0.135307 -0.966821 -0.216679
vn -0.135307 -0.966821 -0.216679
vn -0.135307 -0.966821 -0.216679
vn -0.275745 -0.826286 -0.491138
vn -0.275745 -0.826286 -0.491138
vn -0.275745 -0.826286 -0.491138
vn -0.978051 -0.109936 -0.177006
vn -0.978051 -0.109936 -0.177006
vn -0.978051 -0.109936 -0.177006
vn -0.978051 -0.109936 -0.177006
vn -0.907728 -0.378800 -0.180391
vn -0.907728 -0.378800 -0.180391
vn -0.907728 -0.378800 -0.180391
vn -0.907728 -0.378800 -0.180391
vn -0.553565 -0.819750 -0.146887
vn -0.553565 -0.819750 -0.146887
vn -0.553565 -0.819750 -0.146887
vn -0.460042 -0.863961 -0.204775
vn -0.460042 -0.863961 -0.204775
vn -0.460042 -0.863961 -0.204775
vn -0.792093 -0.406157 -0.455660
vn -0.792093 -0.406157 -0.455660
vn -0.792093 -0.406157 -0.455660
vn -0.843446 -0.476601 -0.247893
vn -0.843446 -0.476601 -0.247893
vn -0.843446 -0.476601 -0.247893
vn -0.420022 -0.892688 -0.163367
vn -0.420022 -0.892688 -0.163367
vn -0.420022 -0.892688 -0.163367
vn -0.323104 -0.939113 -0.116924
vn -0.323104 -0.939113 -0.116924
vn -0.323104 -0.939113 -0.116924
vn -0.176767 -0.971289 -0.159221
vn -0.176767 -0.971289 -0.159221
vn -0.176767 -0.971289 -0.159221
vn -0.176767 -0.971289 -0.159221
vn -0.389247 -0.905275 -0.170186
vn -0.389247 -0.905275 -0.170186
vn -0.389247 -0.905275 -0.170186
vn -0.559146 -0.645520 -0.520249
vn -0.559146 -0.645520 -0.520249
vn -0.559146 -0.645520 -0.520249
vn -0.548555 -0.826134 -0.128807
vn -0.548555 -0.826134 -0.128807
vn -0.548555 -0.826134 -0.128807
vn 0.845802 0.518095 0.127268
vn 0.845802 0.518095 0.127268
vn 0.845802 0.518095 0.127268
vn 0.403780 0.795539 0.451752
vn 0.403780 0.795539 0.451752
vn 0.403780 0.795539 0.451752
vn 0.502678 0.710344 0.492673
vn 0.502678 0.710344 0.492673
vn 0.502678 0.710344 0.492673
vn 0.135307 0.966821 0.216679
vn 0.135307 0.966821 0.216679
vn 0.135307 0.966821 0.216679
vn 0.135307 0.966821 0.216679
vn 0.275745 0.826286 0.491138
vn 0.275745 0.826286 0.491138
vn 0.275745 0.826286 0.491138
vn 0.978051 0.109936 0.177006
vn 0.978051 0.109936 0.177006
vn 0.978051 0.109936 0.177006
vn 0.978051 0.109936 0.177006
vn 0.907728 0.378800 0.180391
vn 0.907728 0.378800 0.180391
vn 0.907728 0.378800 0.180391
vn 0.907728 0.378800 0.180391
vn 0.553565 0.819750 0.146887
vn 0.553565 0.819750 0.146887
vn 0.553565 0.819750 0.146887
vn 0.460042 0.863961 0.204775
vn 0.460042 0.863961 0.204775
vn 0.460042 0.863961 0.204775
vn 0.792093 0.406157 0.455660
vn 0.792093 0.406157 0.455660
vn 0.792093 0.406157 0.455660
vn 0.843446 0.476601 0.247893
vn 0.843445 0.476601 0.247893
vn 0.843446 0.476601 0.247893
vn 0.420022 0.892688 0.163367
vn 0.420022 0.892688 0.163367
vn 0.420022 0.892688 0.163367
vn 0.323104 0.939113 0.116924
vn 0.323104 0.939113 0.116924
vn 0.323104 0.939113 0.116924
vn 0.176767 0.971289 0.159221
vn 0.176767 0.971289 0.159221
vn 0.176767 0.971289 0.159221
vn 0.176767 0.971289 0.159221
vn 0.389247 0.905275 0.170186
vn 0.389247 0.905275 0.170186
vn 0.389247 0.905275 0.170186
vn 0.559146 0.645520 0.520249
vn 0.559146 0.645520 0.520249
vn 0.559146 0.645520 0.520249
vn 0.548555 0.826134 0.128807
vn 0.548555 0.826134 0.128807
vn 0.548555 0.826134 0.128807
s off
f 1/1/1 4/4/2 5/5/3
f 12/12/4 14/14/5 9/9/6
f 13/13/7 19/19/8 7/7/9
f 8/8/10 3/3/11 15/15/12 16/16/13
f 9/9/14 14/14/15 8/8/16
f 6/6/17 11/11/18 10/10/19 2/2/20
f 5/5/21 4/4/22 11/11/23 6/6/24
f 10/10/25 12/12/26 9/9/27
f 12/12/28 13/13/29 7/7/30
f 10/10/31 11/11/32 13/13/33
f 11/11/34 4/4/35 13/13/36
f 12/12/37 7/7/38 14/14/39
f 8/8/40 14/14/41 3/3/42
f 16/16/43 15/15/44 17/17/45 18/18/46
f 3/3/47 14/14/48 7/7/49
f 13/13/50 4/4/51 19/19/52
f 10/10/53 13/13/54 12/12/55
f 20/20/56 24/21/57 23/22/58
f 31/23/59 28/24/60 33/25/61
f 32/26/62 26/27/63 38/28/64
f 27/29/65 35/30/66 34/31/67 22/32/68
f 28/24/69 27/29/70 33/25/71
f 25/33/72 21/34/73 29/35/74 30/36/75
f 24/21/76 25/33/77 30/36/78 23/22/79
f 29/35/80 28/24/81 31/23/82
f 31/23/83 26/27/84 32/26/85
f 29/35/86 32/26/87 30/36/88
f 30/36/89 32/26/90 23/22/91
f 31/23/92 33/25/93 26/27/94
f 27/29/95 22/32/96 33/25/97
f 35/30/98 37/37/99 36/38/100 34/31/101
f 22/32/102 26/27/103 33/25/104
f 32/26/105 38/28/106 23/22/107
f 29/35/108 31/23/109 32/26/110
