# This file uses centimeters as units for non-parametric coordinates.

v 2188.211182 198.725708 -710.993103
v 1861.403809 198.725708 -1352.389404
v 1352.389038 198.725708 -1861.404053
v 710.992737 198.725708 -2188.210938
v -0.000053 198.725708 -2300.821777
v -710.992859 198.725708 -2188.210938
v -1352.388428 198.725708 -1861.403564
v -1861.403076 198.725708 -1352.388794
v -2188.210693 198.725708 -710.993042
v -2300.820068 198.725708 -0.000318
v -2188.210693 198.725708 710.992432
v -1861.402954 198.725708 1352.388062
v -1352.388428 198.725708 1861.402466
v -710.992798 198.725708 2188.209717
v -0.000122 198.725708 2300.819580
v 710.992310 198.725708 2188.209717
v 1352.387817 198.725708 1861.402344
v 1861.402588 198.725708 1352.387939
v 2188.209961 198.725708 710.992065
v 2300.819824 198.725708 -0.000318
v 2188.211182 815.452759 -710.993103
v 1861.403809 815.452759 -1352.389404
v 1352.389038 815.452759 -1861.404053
v 710.992737 815.452759 -2188.210938
v -0.000053 815.452759 -2300.821777
v -710.992859 815.452759 -2188.210938
v -1352.388428 815.452759 -1861.403564
v -1861.403076 815.452759 -1352.388794
v -2188.210693 815.452759 -710.993042
v -2300.820068 815.452759 -0.000318
v -2188.210693 815.452759 710.992432
v -1861.402954 815.452759 1352.388062
v -1352.388428 815.452759 1861.402466
v -710.992798 815.452759 2188.209717
v -0.000122 815.452759 2300.819580
v 710.992310 815.452759 2188.209717
v 1352.387817 815.452759 1861.402344
v 1861.402588 815.452759 1352.387939
v 2188.209961 815.452759 710.992065
v 2300.819824 815.452759 -0.000318
vt 1.060921 0.505044
vt 1.621963 0.505044
vt 1.621963 1.001124
vt 1.060921 1.001124
vt 2.183003 0.505044
vt 2.183003 1.001124
vt 2.744046 1.001124
vt 3.305240 0.009023
vt 3.305240 0.505103
vt 2.744199 0.009023
vt 2.744199 0.505103
vt 2.183158 0.009023
vt 2.183158 0.505103
vt 1.622113 0.009023
vt 1.622113 0.505103
vt 1.061073 0.009023
vt 1.061073 0.505103
vt 0.500033 0.009023
vt 0.500033 0.505103
vt -0.061009 0.009023
vt -0.061009 0.505103
vt -0.622052 0.009023
vt -0.622052 0.505103
vt -1.183094 0.009023
vt -1.183094 0.505103
vt -1.744134 0.009023
vt -1.744134 0.505103
vt -2.305176 0.009023
vt -2.305328 1.001124
vt -1.744287 0.505044
vt -1.744287 1.001124
vt -1.183246 0.505044
vt -1.183246 1.001124
vt -0.622204 0.505044
vt -0.622204 1.001124
vt -0.061163 0.505044
vt -0.061163 1.001124
vt 0.499878 0.505044
vt 0.499878 1.001124
vt 2.744046 0.505044
vt 3.305088 0.505044
vt 3.305088 1.001124
vt -2.305328 0.505044
vt -2.305176 0.505103
vn -0.951057 0.000000 0.309016
vn -0.951057 0.000000 0.309016
vn -0.809017 0.000000 0.587785
vn -0.809017 0.000000 0.587785
vn -0.587785 0.000000 0.809017
vn -0.587785 0.000000 0.809017
vn -0.309017 0.000000 0.951057
vn -0.309017 0.000000 0.951057
vn 0.000000 0.000000 1.000000
vn 0.000000 0.000000 1.000000
vn 0.309017 0.000000 0.951056
vn 0.309017 0.000000 0.951056
vn 0.587785 0.000000 0.809017
vn 0.587785 0.000000 0.809017
vn 0.809017 0.000000 0.587785
vn 0.809017 0.000000 0.587785
vn 0.951057 0.000000 0.309017
vn 0.951057 0.000000 0.309017
vn 1.000000 0.000000 0.000000
vn 1.000000 0.000000 0.000000
vn 0.951057 0.000000 -0.309017
vn 0.951057 0.000000 -0.309017
vn 0.809017 0.000000 -0.587785
vn 0.809017 0.000000 -0.587785
vn 0.587785 0.000000 -0.809017
vn 0.587785 0.000000 -0.809017
vn 0.309017 0.000000 -0.951057
vn 0.309017 0.000000 -0.951057
vn 0.000000 0.000000 -1.000000
vn 0.000000 0.000000 -1.000000
vn -0.309017 0.000000 -0.951057
vn -0.309017 0.000000 -0.951057
vn -0.587785 0.000000 -0.809017
vn -0.587785 0.000000 -0.809017
vn -0.809017 0.000000 -0.587785
vn -0.809017 0.000000 -0.587785
vn -0.951057 0.000000 -0.309017
vn -0.951057 0.000000 -0.309017
vn -1.000000 0.000000 -0.000001
vn -1.000000 0.000000 -0.000001
s 1
f 1/1/1 21/4/2 22/3/3 2/2/4
f 2/2/4 22/3/3 23/6/5 3/5/6
f 3/5/6 23/6/5 24/7/7 4/40/8
f 4/40/8 24/7/7 25/42/9 5/41/10
f 5/8/10 25/9/9 26/11/11 6/10/12
f 6/10/12 26/11/11 27/13/13 7/12/14
f 7/12/14 27/13/13 28/15/15 8/14/16
f 8/14/16 28/15/15 29/17/17 9/16/18
f 9/16/18 29/17/17 30/19/19 10/18/20
f 10/18/20 30/19/19 31/21/21 11/20/22
f 11/20/22 31/21/21 32/23/23 12/22/24
f 12/22/24 32/23/23 33/25/25 13/24/26
f 13/24/26 33/25/25 34/27/27 14/26/28
f 14/26/28 34/27/27 35/44/29 15/28/30
f 15/43/30 35/29/29 36/31/31 16/30/32
f 16/30/32 36/31/31 37/33/33 17/32/34
f 17/32/34 37/33/33 38/35/35 18/34/36
f 18/34/36 38/35/35 39/37/37 19/36/38
f 19/36/38 39/37/37 40/39/39 20/38/40
f 20/38/40 40/39/39 21/4/2 1/1/1
