# This file uses centimeters as units for non-parametric coordinates.

v -261.320435 0.000000 42.779507
v -261.320435 487.119568 42.779507
v 388.564514 0.000000 42.779507
v 388.564514 487.119568 42.779507
v 173.044434 487.119568 4.777467
v 173.044434 0.000000 4.777467
v -45.800392 487.119568 4.777467
v -45.800392 0.000000 4.777467
vt 0.227929 0.000000
vt 0.227929 0.500000
vt 0.902680 0.000000
vt 0.902680 0.500000
vt 0.677763 0.500000
vt 0.677763 0.000000
vt 0.452846 0.500000
vt 0.452846 0.000000
vn -0.087156 0.000000 0.996195
vn -0.087156 0.000000 0.996195
vn -0.173648 0.000000 0.984808
vn -0.173648 0.000000 0.984808
vn 0.087156 0.000000 0.996195
vn 0.087156 0.000000 0.996195
vn 0.173648 0.000000 0.984808
vn 0.173648 0.000000 0.984808
s 1
f 5/5/1 6/6/2 3/3/3 4/4/4
f 7/7/5 8/8/6 6/6/2 5/5/1
f 2/2/7 1/1/8 8/8/6 7/7/5
