# This file uses centimeters as units for non-parametric coordinates.

v 2.949734 -3.013686 103.721100
v 3.899036 117.167175 3.456322
v 89.948456 51.951920 30.198441
v 28.628845 21.237518 67.157715
v 3.899036 64.605072 51.927841
v 3.899036 75.819992 24.186188
v 69.944000 43.658722 39.550659
v 91.013489 92.100769 3.456322
v 64.080658 126.087219 3.456322
v 27.471153 96.438934 3.456322
v 18.431374 67.484528 27.566940
v 49.143738 73.964935 19.203171
v 43.632080 54.089157 36.986893
v 66.416718 86.752045 17.836922
v 110.431671 68.172653 18.472260
v 111.088898 92.785980 3.456322
v 123.597992 74.294617 3.511440
v 120.309052 75.707062 -2.069450
v 2.949734 -3.013686 103.721100
v 3.899036 117.167175 3.456322
v 89.948456 51.951920 30.198441
v 28.628845 21.237518 67.157715
v 3.899036 64.605072 51.927841
v 3.899036 75.819992 24.186188
v 69.944000 43.658722 39.550659
v 91.013489 92.100769 3.456322
v 64.080658 126.087219 3.456322
v 27.471153 96.438934 3.456322
v 18.431374 67.484528 27.566940
v 49.143738 73.964935 19.203171
v 43.632080 54.089157 36.986893
v 66.416718 86.752045 17.836922
v 110.431671 68.172653 18.472260
v 111.088898 92.785980 3.456322
v 123.597992 74.294617 3.511440
v 120.309052 75.707062 -2.069450
vt 0.008001 0.547812
vt 0.010581 0.991685
vt 0.686712 0.833395
vt 0.174367 0.657556
vt 0.009257 0.763873
vt 0.009877 0.870619
vt 0.528999 0.779267
vt 0.695999 0.989548
vt 0.484091 0.990208
vt 0.196047 0.991107
vt 0.124103 0.850518
vt 0.366033 0.898611
vt 0.302792 0.819074
vt 0.501983 0.906166
vt 0.848272 0.901375
vt 0.853953 0.989055
vt 0.978266 0.956073
vt 0.952578 0.988747
vt 0.008001 0.547812
vt 0.174367 0.657556
vt 0.009257 0.763873
vt 0.366033 0.898611
vt 0.501983 0.906166
vt 0.484091 0.990208
vt 0.302792 0.819074
vt 0.528999 0.779267
vt 0.695999 0.989548
vt 0.686712 0.833395
vt 0.848272 0.901375
vt 0.853953 0.989055
vt 0.009877 0.870619
vt 0.124103 0.850518
vt 0.196047 0.991107
vt 0.010581 0.991685
vt 0.978266 0.956073
vt 0.952578 0.988747
vn -0.492763 -0.524757 -0.694129
vn -0.492763 -0.524757 -0.694129
vn -0.492763 -0.524757 -0.694129
vn 0.170397 -0.329401 -0.928687
vn 0.170397 -0.329401 -0.928687
vn 0.170397 -0.329401 -0.928687
vn -0.172355 -0.622440 -0.763454
vn -0.172355 -0.622440 -0.763454
vn -0.172355 -0.622440 -0.763454
vn -0.017297 -0.541501 -0.840522
vn -0.017297 -0.541501 -0.840522
vn -0.017297 -0.541501 -0.840522
vn -0.017297 -0.541501 -0.840522
vn -0.420753 -0.333429 -0.843678
vn -0.420753 -0.333429 -0.843678
vn -0.420753 -0.333429 -0.843678
vn -0.297684 -0.485874 -0.821773
vn -0.297684 -0.485874 -0.821773
vn -0.297684 -0.485874 -0.821773
vn -0.297684 -0.485874 -0.821773
vn -0.626361 -0.637255 -0.448975
vn -0.626361 -0.637255 -0.448975
vn -0.626361 -0.637255 -0.448975
vn -0.626361 -0.637255 -0.448975
vn 0.284260 -0.351003 -0.892185
vn 0.284260 -0.351003 -0.892185
vn 0.284260 -0.351003 -0.892185
vn -0.175535 -0.628964 -0.757358
vn -0.175535 -0.628964 -0.757358
vn -0.175535 -0.628964 -0.757358
vn -0.074792 -0.636394 -0.767730
vn -0.074792 -0.636394 -0.767730
vn -0.074792 -0.636394 -0.767730
vn -0.074792 -0.636394 -0.767730
vn -0.069049 -0.657513 -0.750273
vn -0.069049 -0.657513 -0.750273
vn -0.069049 -0.657513 -0.750273
vn 0.242281 -0.420686 -0.874256
vn 0.242281 -0.420686 -0.874256
vn 0.242281 -0.420686 -0.874255
vn -0.347142 -0.513489 -0.784743
vn -0.347142 -0.513489 -0.784743
vn -0.347142 -0.513489 -0.784743
vn -0.708323 -0.480709 -0.516911
vn -0.708323 -0.480709 -0.516911
vn -0.708323 -0.480709 -0.516911
vn -0.708323 -0.480709 -0.516911
vn -0.216279 -0.453392 -0.864673
vn -0.216279 -0.453392 -0.864673
vn -0.216279 -0.453392 -0.864673
vn 0.492763 0.524757 0.694129
vn 0.492763 0.524757 0.694129
vn 0.492763 0.524757 0.694129
vn -0.170398 0.329401 0.928687
vn -0.170398 0.329401 0.928687
vn -0.170398 0.329401 0.928687
vn 0.172355 0.622440 0.763454
vn 0.172355 0.622440 0.763454
vn 0.172355 0.622440 0.763454
vn 0.017297 0.541501 0.840522
vn 0.017297 0.541501 0.840522
vn 0.017297 0.541501 0.840522
vn 0.017297 0.541501 0.840522
vn 0.420753 0.333429 0.843678
vn 0.420753 0.333429 0.843678
vn 0.420753 0.333429 0.843678
vn 0.297684 0.485874 0.821773
vn 0.297684 0.485874 0.821773
vn 0.297684 0.485874 0.821773
vn 0.297684 0.485874 0.821773
vn 0.626361 0.637255 0.448975
vn 0.626361 0.637255 0.448975
vn 0.626361 0.637255 0.448975
vn 0.626361 0.637255 0.448975
vn -0.284260 0.351003 0.892185
vn -0.284260 0.351003 0.892185
vn -0.284260 0.351003 0.892185
vn 0.175535 0.628964 0.757358
vn 0.175535 0.628964 0.757358
vn 0.175535 0.628964 0.757358
vn 0.074792 0.636394 0.767730
vn 0.074792 0.636394 0.767730
vn 0.074792 0.636394 0.767730
vn 0.074792 0.636394 0.767730
vn 0.069049 0.657513 0.750273
vn 0.069049 0.657513 0.750273
vn 0.069049 0.657513 0.750273
vn -0.242281 0.420686 0.874256
vn -0.242281 0.420686 0.874256
vn -0.242281 0.420686 0.874256
vn 0.347142 0.513489 0.784743
vn 0.347142 0.513489 0.784743
vn 0.347142 0.513489 0.784743
vn 0.708323 0.480709 0.516911
vn 0.708323 0.480709 0.516911
vn 0.708323 0.480709 0.516911
vn 0.708323 0.480709 0.516911
vn 0.216279 0.453392 0.864673
vn 0.216279 0.453392 0.864673
vn 0.216279 0.453392 0.864673
s off
f 1/1/1 5/5/2 4/4/3
f 12/12/4 9/9/5 14/14/6
f 13/13/7 7/7/8 4/4/9
f 8/8/10 16/16/11 15/15/12 3/3/13
f 9/9/14 8/8/15 14/14/16
f 6/6/17 2/2/18 10/10/19 11/11/20
f 5/5/21 6/6/22 11/11/23 4/4/24
f 10/10/25 9/9/26 12/12/27
f 12/12/28 7/7/29 13/13/30
f 10/10/31 12/12/32 13/13/33 11/11/34
f 11/11/35 13/13/36 4/4/37
f 12/12/38 14/14/39 7/7/40
f 8/8/41 3/3/42 14/14/43
f 16/16/44 18/18/45 17/17/46 15/15/47
f 3/3/48 7/7/49 14/14/50
f 19/19/51 22/20/52 23/21/53
f 30/22/54 32/23/55 27/24/56
f 31/25/57 22/20/58 25/26/59
f 26/27/60 21/28/61 33/29/62 34/30/63
f 27/24/64 32/23/65 26/27/66
f 24/31/67 29/32/68 28/33/69 20/34/70
f 23/21/71 22/20/72 29/32/73 24/31/74
f 28/33/75 30/22/76 27/24/77
f 30/22/78 31/25/79 25/26/80
f 28/33/81 29/32/82 31/25/83 30/22/84
f 29/32/85 22/20/86 31/25/87
f 30/22/88 25/26/89 32/23/90
f 26/27/91 32/23/92 21/28/93
f 34/30/94 33/29/95 35/35/96 36/36/97
f 21/28/98 32/23/99 25/26/100
