# This file uses centimeters as units for non-parametric coordinates.

v 4.542175 117.101227 31.337708
v 4.542175 90.735657 -63.479645
v 23.685425 12.688061 20.549465
v 6.901367 88.082764 14.118103
v 4.542175 104.267456 -12.789024
v 4.542175 97.926849 -37.742867
v 11.524536 33.021660 12.020561
v 67.980835 0.000107 -20.339684
v 15.401184 0.000000 -48.853210
v 4.542175 59.737305 -62.097382
v 14.079163 75.389435 -28.901428
v 25.179504 35.663376 -18.930740
v 16.560974 58.895538 -8.645369
v 47.683594 15.368324 -8.987722
v 37.527893 3.841043 27.995239
v 62.942688 -0.000053 24.199821
v 45.873840 -0.000107 42.648682
v 9.056519 56.525314 11.668629
v 7.714844 96.486298 1.165878
v 4.542175 117.101227 31.337708
v 4.542175 90.735657 -63.479645
v 23.685425 12.688061 20.549465
v 6.901367 88.082764 14.118103
v 4.542175 104.267456 -12.789024
v 4.542175 97.926849 -37.742867
v 11.524536 33.021660 12.020561
v 67.980835 0.000107 -20.339684
v 15.401184 0.000000 -48.853210
v 4.542175 59.737305 -62.097382
v 14.079163 75.389435 -28.901428
v 25.179504 35.663376 -18.930740
v 16.560974 58.895538 -8.645369
v 47.683594 15.368324 -8.987722
v 37.527893 3.841043 27.995239
v 62.942688 -0.000053 24.199821
v 45.873840 -0.000107 42.648682
v 9.056519 56.525314 11.668629
v 7.714844 96.486298 1.165878
vt 0.008001 0.547812
vt 0.010581 0.991685
vt 0.686712 0.833395
vt 0.174367 0.657556
vt 0.009257 0.763873
vt 0.009877 0.870619
vt 0.528999 0.779267
vt 0.695999 0.989548
vt 0.484091 0.990208
vt 0.196047 0.991107
vt 0.124103 0.850518
vt 0.366033 0.898611
vt 0.302792 0.819074
vt 0.501983 0.906166
vt 0.848272 0.901375
vt 0.853953 0.989055
vt 0.978266 0.956073
vt 0.368176 0.724072
vt 0.088637 0.712759
vt 0.008001 0.547812
vt 0.009257 0.763873
vt 0.088637 0.712759
vt 0.366033 0.898611
vt 0.484091 0.990208
vt 0.501983 0.906166
vt 0.302792 0.819074
vt 0.528999 0.779267
vt 0.368176 0.724072
vt 0.695999 0.989548
vt 0.853953 0.989055
vt 0.848272 0.901375
vt 0.686712 0.833395
vt 0.009877 0.870619
vt 0.010581 0.991685
vt 0.196047 0.991107
vt 0.124103 0.850518
vt 0.174367 0.657556
vt 0.978266 0.956073
vn 0.963196 0.258105 -0.075067
vn 0.963196 0.258105 -0.075067
vn 0.963196 0.258105 -0.075067
vn 0.639944 0.383317 -0.665987
vn 0.639944 0.383317 -0.665987
vn 0.639944 0.383317 -0.665987
vn 0.929099 0.102880 0.355234
vn 0.929099 0.102880 0.355234
vn 0.929099 0.102880 0.355234
vn 0.296248 0.948608 0.111267
vn 0.296248 0.948608 0.111267
vn 0.296248 0.948608 0.111267
vn 0.296248 0.948608 0.111267
vn 0.293633 0.787775 -0.541470
vn 0.293633 0.787775 -0.541470
vn 0.293633 0.787775 -0.541470
vn 0.969001 0.132841 -0.208303
vn 0.969001 0.132841 -0.208303
vn 0.969001 0.132841 -0.208303
vn 0.969001 0.132841 -0.208303
vn 0.936528 0.344775 -0.063601
vn 0.936528 0.344775 -0.063601
vn 0.936528 0.344775 -0.063601
vn 0.936528 0.344775 -0.063601
vn 0.915831 0.079198 -0.393676
vn 0.915831 0.079198 -0.393676
vn 0.915831 0.079198 -0.393676
vn 0.899391 0.152231 0.409783
vn 0.899391 0.152231 0.409783
vn 0.899391 0.152231 0.409783
vn 0.967690 -0.124009 -0.219540
vn 0.967690 -0.124009 -0.219540
vn 0.967690 -0.124009 -0.219540
vn 0.963982 0.251457 0.086645
vn 0.963982 0.251457 0.086645
vn 0.963982 0.251457 0.086645
vn 0.556857 0.770028 0.311394
vn 0.556857 0.770028 0.311394
vn 0.556857 0.770028 0.311395
vn 0.671232 0.453295 0.586491
vn 0.671232 0.453295 0.586491
vn 0.671232 0.453295 0.586491
vn 0.601443 0.587014 0.541923
vn 0.601443 0.587014 0.541923
vn 0.601443 0.587014 0.541923
vn 0.936003 0.036750 0.350069
vn 0.936003 0.036750 0.350069
vn 0.936003 0.036750 0.350069
vn 0.888884 0.415343 -0.193326
vn 0.888884 0.415343 -0.193326
vn 0.888884 0.415343 -0.193326
vn 0.170566 0.972627 0.157811
vn 0.170566 0.972627 0.157811
vn 0.170566 0.972627 0.157811
vn 0.996038 0.031665 0.083102
vn 0.996038 0.031665 0.083102
vn 0.996038 0.031665 0.083102
vn 0.985236 0.108604 0.132342
vn 0.985237 0.108603 0.132342
vn 0.985236 0.108603 0.132342
vn -0.963196 -0.258105 0.075067
vn -0.963196 -0.258105 0.075067
vn -0.963196 -0.258105 0.075067
vn -0.639944 -0.383317 0.665987
vn -0.639944 -0.383317 0.665987
vn -0.639944 -0.383317 0.665987
vn -0.929099 -0.102880 -0.355234
vn -0.929099 -0.102880 -0.355234
vn -0.929099 -0.102880 -0.355234
vn -0.296248 -0.948608 -0.111267
vn -0.296248 -0.948608 -0.111267
vn -0.296248 -0.948608 -0.111267
vn -0.296248 -0.948608 -0.111267
vn -0.293633 -0.787775 0.541470
vn -0.293633 -0.787775 0.541470
vn -0.293633 -0.787775 0.541470
vn -0.969001 -0.132841 0.208303
vn -0.969001 -0.132841 0.208303
vn -0.969001 -0.132841 0.208303
vn -0.969001 -0.132841 0.208303
vn -0.936528 -0.344775 0.063601
vn -0.936528 -0.344775 0.063601
vn -0.936528 -0.344775 0.063601
vn -0.936528 -0.344775 0.063601
vn -0.915831 -0.079198 0.393676
vn -0.915831 -0.079198 0.393676
vn -0.915831 -0.079198 0.393676
vn -0.899391 -0.152231 -0.409783
vn -0.899391 -0.152231 -0.409783
vn -0.899391 -0.152231 -0.409783
vn -0.967690 0.124009 0.219540
vn -0.967690 0.124009 0.219540
vn -0.967690 0.124009 0.219540
vn -0.963982 -0.251458 -0.086645
vn -0.963982 -0.251458 -0.086645
vn -0.963982 -0.251458 -0.086645
vn -0.556857 -0.770028 -0.311395
vn -0.556857 -0.770028 -0.311395
vn -0.556857 -0.770028 -0.311394
vn -0.671232 -0.453295 -0.586491
vn -0.671232 -0.453295 -0.586491
vn -0.671232 -0.453295 -0.586491
vn -0.601443 -0.587014 -0.541923
vn -0.601443 -0.587014 -0.541923
vn -0.601443 -0.587014 -0.541923
vn -0.936003 -0.036750 -0.350069
vn -0.936003 -0.036750 -0.350069
vn -0.936003 -0.036750 -0.350069
vn -0.888884 -0.415343 0.193326
vn -0.888884 -0.415343 0.193326
vn -0.888884 -0.415343 0.193326
vn -0.170566 -0.972627 -0.157811
vn -0.170566 -0.972627 -0.157811
vn -0.170566 -0.972627 -0.157811
vn -0.996038 -0.031665 -0.083102
vn -0.996038 -0.031665 -0.083102
vn -0.996038 -0.031665 -0.083102
vn -0.985236 -0.108604 -0.132342
vn -0.985236 -0.108603 -0.132342
vn -0.985237 -0.108603 -0.132342
s off
f 1/1/1 19/19/2 5/5/3
f 12/12/4 14/14/5 9/9/6
f 13/13/7 18/18/8 7/7/9
f 8/8/10 3/3/11 15/15/12 16/16/13
f 9/9/14 14/14/15 8/8/16
f 6/6/17 11/11/18 10/10/19 2/2/20
f 5/5/21 19/19/22 11/11/23 6/6/24
f 10/10/25 12/12/26 9/9/27
f 12/12/28 13/13/29 7/7/30
f 10/10/31 11/11/32 13/13/33
f 11/11/34 4/4/35 13/13/36
f 12/12/37 7/7/38 14/14/39
f 8/8/40 14/14/41 3/3/42
f 3/3/43 14/14/44 7/7/45
f 13/13/46 4/4/47 18/18/48
f 10/10/49 13/13/50 12/12/51
f 16/16/52 15/15/53 17/17/54
f 1/1/55 4/4/56 19/19/57
f 11/11/58 19/19/59 4/4/60
f 20/20/61 24/21/62 38/22/63
f 31/23/64 28/24/65 33/25/66
f 32/26/67 26/27/68 37/28/69
f 27/29/70 35/30/71 34/31/72 22/32/73
f 28/24/74 27/29/75 33/25/76
f 25/33/77 21/34/78 29/35/79 30/36/80
f 24/21/81 25/33/82 30/36/83 38/22/84
f 29/35/85 28/24/86 31/23/87
f 31/23/88 26/27/89 32/26/90
f 29/35/91 32/26/92 30/36/93
f 30/36/94 32/26/95 23/37/96
f 31/23/97 33/25/98 26/27/99
f 27/29/100 22/32/101 33/25/102
f 22/32/103 26/27/104 33/25/105
f 32/26/106 37/28/107 23/37/108
f 29/35/109 31/23/110 32/26/111
f 35/30/112 36/38/113 34/31/114
f 20/20/115 38/22/116 23/37/117
f 30/36/118 23/37/119 38/22/120
