# This file uses centimeters as units for non-parametric coordinates.

v -1.147957 0.386054 -17.654648
v 0.561501 0.386054 -17.654648
v -1.147957 -0.739069 -17.600540
v 0.561501 -0.739069 -17.600540
v -1.439003 -0.413193 -0.729858
v 0.852531 -0.413193 -0.729858
v 0.852531 0.928462 -0.729858
v -1.439003 0.928462 -0.729858
v -1.695168 -0.928462 -15.572495
v 1.108757 -0.928462 -15.572495
v 1.108757 0.802387 -15.572495
v -1.695168 0.802387 -15.572495
v -1.439003 -0.117600 0.561707
v 0.852531 -0.117600 0.561707
v 0.852531 0.632869 0.561707
v -1.439003 0.632869 0.561707
v -1.439003 -0.117600 17.481674
v -0.401985 0.257634 17.654648
v -1.439003 0.632869 17.481674
v 1.695168 -0.117600 8.529083
v 1.695168 0.632869 8.529083
v 0.854362 0.632869 9.005417
v -0.845284 0.632869 17.602844
v -0.845284 -0.117600 17.602844
v 0.854362 -0.117600 9.005417
v 1.630836 0.257634 9.115433
v 1.634727 -0.117600 3.646606
v 1.634727 0.632869 3.646622
v 0.285057 0.632869 14.327271
v 0.811394 0.257634 14.471436
v 0.285057 -0.117600 14.327271
vt 0.216062 0.108541
vt 0.216115 0.108514
vt 0.216113 0.108541
vt 0.216059 0.108568
vt 0.216084 0.108489
vt 0.215830 0.108218
vt 0.215760 0.108252
vt 0.215997 0.108534
vt 0.215830 0.108184
vt 0.216086 0.108445
vt 0.215999 0.108489
vt 0.215760 0.108218
vt 0.215803 0.108182
vt 0.215733 0.108216
vt 0.215803 0.108163
vt 0.215733 0.108197
vt 0.215679 0.108051
vt 0.215714 0.108049
vt 0.215700 0.108028
vt 0.215714 0.108030
vt 0.215679 0.108032
vt 0.215764 0.108104
vt 0.215764 0.108085
vt 0.215499 0.107919
vt 0.215500 0.107938
vt 0.215512 0.107921
vt 0.215597 0.107971
vt 0.215484 0.107930
vt 0.215484 0.107949
vt 0.215597 0.107990
vt 0.215610 0.107970
vn 0.000000 -0.048025 -0.998846
vn 0.000000 -0.048025 -0.998846
vn 0.000000 -0.048025 -0.998846
vn 0.000000 -0.048025 -0.998846
vn 0.000000 -0.999002 0.044678
vn 0.000000 -0.999002 0.044678
vn 0.000000 -0.999001 0.044678
vn 0.000000 -0.999002 0.044678
vn 0.999753 0.000000 0.022232
vn 0.999753 0.000000 0.022232
vn 0.999753 0.000000 0.022232
vn 0.999753 0.000000 0.022232
vn 0.000000 0.999940 -0.010942
vn 0.000000 0.999940 -0.010942
vn 0.000000 0.999940 -0.010942
vn 0.000000 0.999940 -0.010942
vn -0.999753 0.000000 0.022227
vn -0.999753 0.000000 0.022227
vn -0.999753 0.000000 0.022227
vn -0.999753 0.000000 0.022227
vn 0.000000 -0.995668 -0.092982
vn 0.000000 -0.995668 -0.092982
vn 0.000000 -0.995668 -0.092982
vn 0.000000 -0.995668 -0.092982
vn 0.966381 -0.004869 -0.257069
vn 0.966381 -0.004869 -0.257069
vn 0.966381 -0.004869 -0.257069
vn 0.966381 -0.004869 -0.257069
vn 0.000000 0.980590 -0.196071
vn 0.000000 0.980590 -0.196071
vn 0.000000 0.980590 -0.196071
vn 0.000000 0.980590 -0.196071
vn -0.966388 -0.004869 -0.257044
vn -0.966388 -0.004869 -0.257044
vn -0.966388 -0.004869 -0.257044
vn -0.966388 -0.004869 -0.257044
vn 0.000000 -0.974796 0.223098
vn 0.000000 -0.974796 0.223098
vn 0.000000 -0.974796 0.223098
vn 0.000000 -0.974796 0.223098
vn 1.000000 0.000000 0.000000
vn 1.000000 0.000000 0.000000
vn 1.000000 0.000000 0.000000
vn 1.000000 0.000000 0.000000
vn 0.000000 0.974796 0.223098
vn 0.000000 0.974796 0.223098
vn 0.000000 0.974796 0.223098
vn 0.000000 0.974796 0.223098
vn -1.000000 0.000000 0.000000
vn -1.000000 0.000000 0.000000
vn -1.000000 0.000000 0.000000
vn -1.000000 0.000000 0.000000
vn 0.304187 -0.786872 0.536938
vn 0.304187 -0.786872 0.536938
vn 0.304187 -0.786872 0.536938
vn 0.994034 0.000000 0.109070
vn 0.994034 0.000000 0.109070
vn 0.994034 0.000000 0.109070
vn 0.304187 0.786872 0.536938
vn 0.304187 0.786872 0.536938
vn 0.304187 0.786872 0.536938
vn 0.000000 -1.000000 0.000000
vn 0.000000 -1.000000 0.000000
vn 0.000000 -1.000000 0.000000
vn 0.000000 -1.000000 0.000000
vn 0.999721 0.000000 -0.023614
vn 0.999721 0.000000 -0.023614
vn 0.999721 0.000000 -0.023614
vn 0.999721 0.000000 -0.023614
vn 0.000000 1.000000 0.000000
vn 0.000000 1.000000 0.000000
vn 0.000000 1.000000 0.000000
vn -0.116085 0.000000 0.993239
vn -0.116085 0.000000 0.993239
vn -0.116085 0.000000 0.993239
vn 0.000000 1.000000 0.000000
vn 0.000000 1.000000 0.000000
vn 0.000000 1.000000 0.000000
vn 0.000000 1.000000 0.000000
vn -0.199977 -0.000001 0.979801
vn -0.199977 -0.000001 0.979801
vn -0.199977 -0.000001 0.979801
vn -0.199977 -0.000001 0.979801
vn 0.000000 -1.000000 -0.000000
vn 0.000000 -1.000000 -0.000000
vn 0.000000 -1.000000 -0.000000
vn 0.000000 -1.000000 -0.000000
vn 0.481609 0.870479 0.101584
vn 0.481609 0.870479 0.101584
vn 0.481609 0.870479 0.101584
vn 0.481609 0.870479 0.101584
vn 0.481609 -0.870479 0.101584
vn 0.481609 -0.870479 0.101584
vn 0.481609 -0.870479 0.101584
vn 0.481609 -0.870479 0.101584
vn 0.969328 0.000000 -0.245772
vn 0.969328 0.000000 -0.245772
vn 0.969328 0.000000 -0.245772
vn 0.969328 0.000000 -0.245772
vn -1.000000 0.000000 0.000000
vn -1.000000 0.000000 0.000000
vn -1.000000 0.000000 0.000000
vn -1.000000 0.000000 0.000000
vn 0.572140 0.793443 0.207614
vn 0.572140 0.793443 0.207614
vn 0.572140 0.793443 0.207614
vn 0.572140 0.793443 0.207614
vn 0.572140 -0.793443 0.207615
vn 0.572140 -0.793443 0.207614
vn 0.572140 -0.793443 0.207615
vn 0.572140 -0.793443 0.207614
vn 0.000000 -1.000000 0.000000
vn 0.000000 -1.000000 0.000000
vn 0.000000 -1.000000 0.000000
vn 0.000000 -1.000000 0.000000
vn 0.000000 -1.000000 0.000000
vn 0.000000 -1.000000 0.000000
vn 0.000000 1.000000 0.000000
vn 0.000000 1.000000 0.000000
vn 0.000000 1.000000 0.000000
vn 0.000000 1.000000 0.000000
vn 0.000000 1.000000 0.000000
vn 0.000000 1.000000 0.000000
vn 0.000000 1.000000 0.000000
s off
f 1/1/1 2/2/2 4/3/3 3/4/4
f 10/5/5 6/6/6 5/7/7 9/8/8
f 7/9/9 6/6/10 10/5/11 11/10/12
f 7/9/13 11/10/14 12/11/15 8/12/16
f 12/11/17 9/8/18 5/7/19 8/12/20
f 4/3/21 10/5/22 9/8/23 3/4/24
f 11/10/25 10/5/26 4/3/27 2/2/28
f 11/10/29 2/2/30 1/1/31 12/11/32
f 3/4/33 9/8/34 12/11/35 1/1/36
f 6/6/37 14/13/38 13/14/39 5/7/40
f 6/6/41 7/9/42 15/15/43 14/13/44
f 15/15/45 7/9/46 8/12/47 16/16/48
f 8/12/49 5/7/50 13/14/51 16/16/52
f 25/17/53 20/18/54 26/19/55
f 20/18/56 21/20/57 26/19/58
f 26/19/59 21/20/60 22/21/61
f 13/14/62 27/22/63 20/18/64 25/17/65
f 27/22/66 28/23/67 21/20/68 20/18/69
f 16/16/70 28/23/71 15/15/72
f 23/24/73 24/25/74 18/26/75
f 29/27/76 22/21/77 16/16/78 19/28/79
f 17/29/80 24/25/81 23/24/82 19/28/83
f 13/14/84 25/17/85 31/30/86 17/29/87
f 26/19/88 22/21/89 29/27/90 30/31/91
f 25/17/92 26/19/93 30/31/94 31/30/95
f 14/13/96 15/15/97 28/23/98 27/22/99
f 16/16/100 13/14/101 17/29/102 19/28/103
f 30/31/104 29/27/105 23/24/106 18/26/107
f 31/30/108 30/31/109 18/26/110 24/25/111
f 17/29/112 31/30/113 24/25/114
f 14/13/115 27/22/116 13/14/117
f 22/21/118 21/20/119 28/23/120 16/16/121
f 29/27/122 19/28/123 23/24/124
