# This file uses centimeters as units for non-parametric coordinates.

v -5.557968 -14.904243 1.261475
v 5.557968 -14.904245 1.261475
v 5.557968 -16.119480 3.015137
v -5.557968 -16.119480 3.015137
v 6.955109 -17.862993 3.015137
v -6.955093 -17.862993 3.015137
v 6.955109 -17.862993 0.000000
v -6.955093 -17.862993 0.000000
v 6.955109 17.672295 0.000000
v -6.955093 17.672291 0.000000
v 6.955109 17.672295 3.015137
v -6.955093 17.672291 3.015137
v 5.557968 15.928780 3.015137
v -5.557968 15.928776 3.015137
v 5.557968 14.713547 1.261475
v -5.557968 14.713543 1.261475
v 11.117035 -8.979797 1.261475
v 11.117035 8.789097 1.261475
v 12.029327 8.789101 3.015137
v 12.029327 -8.979801 3.015137
v 14.075806 10.029655 3.015137
v 14.075806 -10.220360 3.015137
v 14.075806 10.029655 0.000000
v 14.075806 -10.220360 0.000000
v -14.075790 -10.220358 0.000000
v -14.075790 10.029659 0.000000
v -14.075790 10.029659 3.015137
v -14.075790 -10.220358 3.015137
v -12.029327 8.789101 3.015137
v -12.029327 -8.979801 3.015137
v -11.117050 8.789101 1.261475
v -11.117050 -8.979797 1.261475
v 0.000000 -0.095350 1.261475
v 0.000000 -0.095350 0.000000
v -7.289474 -18.621857 1.151733
v -14.752518 -10.611786 1.151733
v -14.752518 10.611786 1.151733
v -7.289474 18.621853 1.151733
v 7.289490 18.621857 1.151733
v 14.752502 10.611786 1.151733
v 14.752502 -10.611788 1.151733
v 7.289490 -18.621853 1.151733
vt 0.172662 0.128443
vt 0.172906 0.128482
vt 0.172878 0.128493
vt 0.172649 0.128455
vt 0.172897 0.128572
vt 0.172650 0.128526
vt 0.172669 0.128516
vt 0.172913 0.128561
vt 0.172929 0.128549
vt 0.172687 0.128506
vt 0.172687 0.127649
vt 0.172939 0.127631
vt 0.172923 0.127627
vt 0.172668 0.127645
vt 0.172649 0.127641
vt 0.172906 0.127622
vt 0.172884 0.127705
vt 0.172648 0.127717
vt 0.172913 0.127709
vt 0.172661 0.127721
vt 0.172536 0.127866
vt 0.172511 0.127882
vt 0.172454 0.127864
vt 0.172475 0.127864
vt 0.172497 0.127865
vt 0.173030 0.128342
vt 0.173013 0.128333
vt 0.173091 0.128358
vt 0.173104 0.128350
vt 0.173118 0.128341
vt 0.172539 0.128284
vt 0.172515 0.128275
vt 0.172459 0.128281
vt 0.172479 0.128276
vt 0.172500 0.128270
vt 0.172811 0.128084
vt 0.173127 0.127859
vt 0.173113 0.127858
vt 0.173099 0.127858
vt 0.173019 0.127880
vt 0.173037 0.127862
vt 0.955101 0.205509
vt 0.955101 0.794492
vt 0.486528 0.500000
vt 0.720791 0.990868
vt 0.720791 0.009132
vt 0.252264 0.990868
vt 0.252264 0.009132
vt 0.017954 0.794492
vt 0.017954 0.205509
vn -0.000000 0.821945 0.569566
vn -0.000000 0.821945 0.569566
vn -0.000000 0.821945 0.569566
vn -0.000000 0.821945 0.569566
vn 0.000000 -0.000001 1.000000
vn 0.000000 -0.000001 1.000000
vn 0.000000 -0.000001 1.000000
vn 0.000000 -0.000001 1.000000
vn 0.000000 -0.835033 -0.550200
vn 0.000000 -0.835033 -0.550200
vn 0.000000 -0.835033 -0.550200
vn 0.000000 -0.835033 -0.550200
vn 0.000000 0.771572 -0.636141
vn 0.000000 0.771572 -0.636141
vn 0.000000 0.771572 -0.636141
vn 0.000000 0.771572 -0.636141
vn -0.000000 0.000000 1.000000
vn -0.000000 0.000000 1.000000
vn -0.000000 0.000000 1.000000
vn -0.000000 0.000000 1.000000
vn 0.000000 -0.821946 0.569565
vn 0.000000 -0.821946 0.569565
vn 0.000000 -0.821946 0.569565
vn 0.000000 -0.821946 0.569565
vn -0.676752 -0.623205 0.391947
vn -0.676752 -0.623205 0.391947
vn -0.676752 -0.623205 0.391947
vn -0.676752 -0.623205 0.391947
vn 0.000001 0.000001 1.000000
vn 0.000001 0.000001 1.000000
vn 0.000001 0.000001 1.000000
vn 0.000001 0.000001 1.000000
vn 0.578461 0.538956 -0.612298
vn 0.578461 0.538956 -0.612298
vn 0.578461 0.538956 -0.612298
vn 0.578461 0.538956 -0.612298
vn 0.676752 0.623205 0.391947
vn 0.676752 0.623205 0.391947
vn 0.676752 0.623205 0.391947
vn 0.676752 0.623205 0.391947
vn -0.000000 -0.000000 1.000000
vn -0.000000 -0.000000 1.000000
vn -0.000000 -0.000000 1.000000
vn -0.000000 -0.000000 1.000000
vn -0.610198 -0.568526 -0.551757
vn -0.610198 -0.568526 -0.551757
vn -0.610198 -0.568526 -0.551757
vn -0.610198 -0.568526 -0.551757
vn -0.000000 -0.000000 1.000000
vn -0.000000 -0.000000 1.000000
vn -0.000000 -0.000000 1.000000
vn -0.887145 -0.000000 0.461491
vn -0.887145 -0.000000 0.461491
vn -0.887145 -0.000000 0.461491
vn -0.887145 -0.000000 0.461491
vn 0.000001 -0.000000 1.000000
vn 0.000001 -0.000000 1.000000
vn 0.000001 -0.000000 1.000000
vn 0.000001 -0.000000 1.000000
vn 0.862184 -0.000000 -0.506596
vn 0.862184 -0.000000 -0.506596
vn 0.862184 -0.000000 -0.506596
vn 0.862184 -0.000000 -0.506596
vn -0.000000 0.000000 -1.000000
vn -0.000000 0.000000 -1.000000
vn -0.000000 0.000000 -1.000000
vn 0.000000 0.000000 -1.000000
vn 0.000000 0.000000 -1.000000
vn 0.000000 0.000000 -1.000000
vn -0.862184 0.000000 -0.506595
vn -0.862184 0.000000 -0.506595
vn -0.862184 0.000000 -0.506595
vn -0.862184 0.000000 -0.506595
vn -0.000001 -0.000000 1.000000
vn -0.000001 -0.000000 1.000000
vn -0.000001 -0.000000 1.000000
vn -0.000001 -0.000000 1.000000
vn 0.887145 0.000000 0.461490
vn 0.887145 0.000000 0.461490
vn 0.887145 0.000000 0.461490
vn 0.887145 0.000000 0.461490
vn -0.000000 -0.000000 1.000000
vn -0.000000 -0.000000 1.000000
vn -0.000000 -0.000000 1.000000
vn 0.676752 -0.623205 0.391946
vn 0.676752 -0.623205 0.391946
vn 0.676752 -0.623205 0.391946
vn 0.676752 -0.623205 0.391946
vn -0.000000 0.000001 1.000000
vn -0.000000 0.000001 1.000000
vn -0.000000 0.000001 1.000000
vn -0.000000 0.000001 1.000000
vn -0.578461 0.538955 -0.612299
vn -0.578461 0.538955 -0.612299
vn -0.578461 0.538955 -0.612299
vn -0.578461 0.538955 -0.612299
vn -0.676752 0.623205 0.391948
vn -0.676752 0.623205 0.391948
vn -0.676752 0.623205 0.391948
vn -0.676752 0.623205 0.391948
vn 0.000001 -0.000000 1.000000
vn 0.000001 -0.000000 1.000000
vn 0.000001 -0.000000 1.000000
vn 0.000001 -0.000000 1.000000
vn 0.610198 -0.568526 -0.551757
vn 0.610198 -0.568526 -0.551757
vn 0.610198 -0.568526 -0.551757
vn 0.610198 -0.568526 -0.551757
vn 0.000000 0.000000 1.000000
vn 0.000000 0.000000 1.000000
vn 0.000000 0.000000 1.000000
vn -0.000000 0.000000 -1.000000
vn -0.000000 0.000000 -1.000000
vn -0.000000 0.000000 -1.000000
vn -0.000000 -0.000000 -1.000000
vn -0.000000 -0.000000 -1.000000
vn -0.000000 -0.000000 -1.000000
vn 0.000000 0.000000 1.000000
vn 0.000000 0.000000 1.000000
vn 0.000000 0.000000 1.000000
vn -0.000000 0.000000 1.000000
vn -0.000000 0.000000 1.000000
vn -0.000000 0.000000 1.000000
vn -0.000000 -0.000000 -1.000000
vn -0.000000 -0.000000 -1.000000
vn -0.000000 -0.000000 -1.000000
vn -0.000000 -0.000000 -1.000000
vn -0.000000 -0.000000 -1.000000
vn -0.000000 -0.000000 -1.000000
vn 0.000000 0.000000 1.000000
vn 0.000000 0.000000 1.000000
vn 0.000000 0.000000 1.000000
vn 0.000000 -0.000000 -1.000000
vn 0.000000 -0.000000 -1.000000
vn 0.000000 -0.000000 -1.000000
vn 0.000000 -0.000000 -1.000000
vn 0.000000 -0.000000 -1.000000
vn 0.000000 -0.000000 -1.000000
vn -0.000000 0.000000 1.000000
vn -0.000000 0.000000 1.000000
vn -0.000000 0.000000 1.000000
vn -0.000000 0.000000 1.000000
vn -0.000000 0.000000 1.000000
vn -0.000000 0.000000 1.000000
vn -0.677221 -0.630972 0.378478
vn -0.677221 -0.630972 0.378478
vn -0.677221 -0.630972 0.378478
vn -0.677221 -0.630972 0.378478
vn -0.939938 -0.000000 0.341346
vn -0.939938 -0.000000 0.341346
vn -0.939938 -0.000000 0.341346
vn -0.939938 -0.000000 0.341346
vn -0.659944 0.614874 0.431745
vn -0.659944 0.614874 0.431745
vn -0.659944 0.614874 0.431745
vn -0.659944 0.614874 0.431745
vn -0.000000 0.890989 0.454025
vn -0.000000 0.890989 0.454025
vn -0.000000 0.890989 0.454025
vn -0.000000 0.890989 0.454025
vn 0.659943 0.614873 0.431748
vn 0.659943 0.614873 0.431748
vn 0.659943 0.614873 0.431748
vn 0.659943 0.614873 0.431748
vn 0.939937 -0.000000 0.341347
vn 0.939937 -0.000000 0.341347
vn 0.939937 -0.000000 0.341347
vn 0.939937 -0.000000 0.341347
vn 0.677221 -0.630972 0.378478
vn 0.677221 -0.630972 0.378478
vn 0.677221 -0.630972 0.378478
vn 0.677221 -0.630972 0.378478
vn 0.000000 -0.926148 0.377161
vn 0.000000 -0.926148 0.377161
vn 0.000000 -0.926148 0.377161
vn 0.000000 -0.926148 0.377161
s off
f 2/1/1 1/2/2 4/3/3 3/4/4
f 3/4/5 4/3/6 6/5/7 5/6/8
f 42/7/9 35/8/10 8/9/11 7/10/12
f 9/11/13 10/12/14 38/13/15 39/14/16
f 11/15/17 12/16/18 14/17/19 13/18/20
f 13/18/21 14/17/22 16/19/23 15/20/24
f 13/18/25 15/20/26 18/21/27 19/22/28
f 11/15/29 13/18/30 19/22/31 21/23/32
f 9/11/33 39/14/34 40/24/35 23/25/36
f 4/3/37 1/2/38 32/26/39 30/27/40
f 6/5/41 4/3/42 30/27/43 28/28/44
f 8/9/45 35/8/46 36/29/47 25/30/48
f 17/42/49 18/43/50 33/44/51
f 18/21/52 17/31/53 20/32/54 19/22/55
f 19/22/56 20/32/57 22/33/58 21/23/59
f 40/24/60 41/34/61 24/35/62 23/25/63
f 23/25/64 24/35/65 34/36/66
f 25/30/67 26/37/68 34/36/69
f 26/37/70 25/30/71 36/29/72 37/38/73
f 27/39/74 28/28/75 30/27/76 29/40/77
f 29/40/78 30/27/79 32/26/80 31/41/81
f 31/49/82 32/50/83 33/44/84
f 14/17/85 29/40/86 31/41/87 16/19/88
f 12/16/89 27/39/90 29/40/91 14/17/92
f 10/12/93 26/37/94 37/38/95 38/13/96
f 3/4/97 20/32/98 17/31/99 2/1/100
f 5/6/101 22/33/102 20/32/103 3/4/104
f 7/10/105 24/35/106 41/34/107 42/7/108
f 1/48/109 2/46/110 33/44/111
f 7/10/112 8/9/113 34/36/114
f 34/36/115 10/12/116 9/11/117
f 15/45/118 16/47/119 33/44/120
f 15/45/121 33/44/122 18/43/123
f 23/25/124 34/36/125 9/11/126
f 7/10/127 34/36/128 24/35/129
f 33/44/130 2/46/131 17/42/132
f 34/36/133 8/9/134 25/30/135
f 10/12/136 34/36/137 26/37/138
f 31/49/139 33/44/140 16/47/141
f 1/48/142 33/44/143 32/50/144
f 36/29/145 35/8/146 6/5/147 28/28/148
f 37/38/149 36/29/150 28/28/151 27/39/152
f 38/13/153 37/38/154 27/39/155 12/16/156
f 39/14/157 38/13/158 12/16/159 11/15/160
f 40/24/161 39/14/162 11/15/163 21/23/164
f 21/23/165 22/33/166 41/34/167 40/24/168
f 42/7/169 41/34/170 22/33/171 5/6/172
f 5/6/173 6/5/174 35/8/175 42/7/176
