# This file uses centimeters as units for non-parametric coordinates.

v -26.179474 37.250061 24.972366
v 7.743210 40.551979 24.972366
v -25.156097 38.489288 24.972366
v 7.484055 41.766350 24.972366
v -25.156097 38.489288 -24.972366
v 7.484055 41.766350 -24.972366
v -26.179474 37.250061 -24.972366
v 7.743210 40.551979 -24.972366
v -5.682495 39.777107 -3.542717
v 2.930222 40.794556 -3.542717
v 2.930222 40.794556 -16.405846
v -5.682495 39.777107 -16.405846
v -24.638630 37.250061 -24.972366
v -24.638643 37.250061 24.972366
v -0.776611 40.338829 24.972366
v -1.658432 40.200104 -24.972366
v -1.283234 40.273811 -3.542717
v -1.510422 40.238457 -16.405846
v -1.385239 38.973015 -24.972366
v -0.503677 39.112961 24.972366
v -26.179474 0.000000 24.972366
v 23.765244 0.000000 24.972366
v 23.765244 34.313469 24.972366
v 23.765244 37.250061 -24.972366
v -26.179474 0.000000 -24.972366
v 23.765244 0.000000 -24.972366
v -26.179474 21.454966 -22.053169
v -24.638641 37.250061 23.431519
v 1.721832 37.250061 23.431519
v 1.721832 37.250061 -23.431519
v -24.638641 37.250061 -23.431519
v -24.638641 35.699318 23.431519
v 1.721832 35.699318 23.431519
v 1.721832 35.699318 -23.431519
v -24.638641 35.699318 -23.431519
v -4.962082 0.000000 24.972366
v 2.547852 0.000000 24.972366
v 2.547852 29.805271 24.972366
v -4.962082 29.805271 24.972366
v -4.962082 29.805271 -24.972366
v 2.547852 29.805271 -24.972366
v 2.547852 0.000000 -24.972366
v -4.962082 0.000000 -24.972366
v 23.765244 37.250061 -2.922714
v 23.765244 37.250061 -8.046936
v 7.684677 37.250061 -1.314865
v 7.074982 37.250061 -6.606598
v 23.765244 27.366856 -11.104683
v 23.765244 26.039480 -6.227821
v 23.765244 26.983114 -5.950363
v 23.765244 28.392797 -10.775955
v 26.179474 22.854595 -7.114922
v 25.660675 24.310501 -11.787926
v 25.818634 22.395443 -7.293213
v 25.238922 23.830313 -12.007225
v 16.401733 37.250061 24.972366
v 23.765244 37.250061 13.104851
v -26.179474 31.200130 -24.972359
v -26.179474 11.230111 -24.972366
v -24.065079 20.678457 -24.972366
vt 0.036922 0.327800
vt 0.036992 0.327818
vt 0.036992 0.327793
vt 0.036923 0.327779
vt 0.035992 0.327798
vt 0.036053 0.327783
vt 0.035992 0.327823
vt 0.036054 0.327804
vt 0.036923 0.327779
vt 0.036992 0.327793
vt 0.035992 0.327798
vt 0.036053 0.327783
vt 0.101795 0.378791
vt 0.101106 0.378634
vt 0.101325 0.377791
vt 0.101981 0.377938
vt 0.036049 0.327807
vt 0.036928 0.327802
vt 0.036974 0.327790
vt 0.036009 0.327794
vt 0.101444 0.378711
vt 0.036958 0.327786
vt 0.036023 0.327790
vt 0.101664 0.377867
vt 0.036008 0.327818
vt 0.036975 0.327814
vt 0.047552 0.352890
vt 0.047697 0.352878
vt 0.047697 0.352298
vt 0.047545 0.352305
vt 0.081878 0.253851
vt 0.081221 0.253958
vt 0.080878 0.253292
vt 0.081401 0.253227
vt 0.047822 0.352555
vt 0.048017 0.352543
vt 0.048000 0.353278
vt 0.047815 0.353298
vt 0.036983 0.327809
vt 0.036002 0.327828
vt 0.036979 0.327121
vt 0.036007 0.327096
vt 0.036330 0.327095
vt 0.036252 0.327235
vt 0.036234 0.327267
vt 0.036094 0.327597
vt 0.036884 0.327614
vt 0.036125 0.327257
vt 0.036890 0.327005
vt 0.036082 0.327008
vt 0.036987 0.327087
vt 0.036992 0.327092
vt 0.036886 0.327004
vt 0.036465 0.327095
vt 0.036352 0.327095
vt 0.035992 0.327097
vt 0.036083 0.327009
vt 0.036992 0.327092
vt 0.036890 0.327003
vt 0.035992 0.327097
vt 0.036081 0.327006
vt 0.036992 0.327092
vt 0.036983 0.327809
vt 0.036890 0.327003
vt 0.035992 0.327097
vt 0.036081 0.327006
vt 0.036010 0.327823
vt 0.036094 0.327597
vt 0.036885 0.327588
vt 0.049884 0.352323
vt 0.050077 0.351831
vt 0.050350 0.351875
vt 0.050182 0.352357
vt 0.049993 0.352760
vt 0.049730 0.352667
vt 0.049730 0.352667
vt 0.049993 0.352760
vt 0.049959 0.352831
vt 0.049696 0.352742
vt 0.036332 0.327278
vt 0.036348 0.327249
vt 0.036433 0.327095
vt 0.036742 0.327093
vt 0.049959 0.352831
vt 0.049696 0.352742
vt 0.036084 0.327102
vt 0.036090 0.327419
vt 0.036087 0.327257
vt 0.036084 0.327005
vt 0.036888 0.327002
vt 0.036916 0.327802
vt 0.036086 0.327806
vn 0.000000 0.000000 1.000000
vn 0.000000 0.000000 1.000000
vn 0.000000 0.000000 1.000000
vn 0.000000 0.000000 1.000000
vn 0.000000 0.000000 1.000000
vn 0.000000 0.000000 1.000000
vn 0.000000 0.000000 1.000000
vn -0.111082 0.993811 -0.000385
vn -0.111082 0.993811 -0.000385
vn -0.111082 0.993811 -0.000385
vn -0.111082 0.993811 -0.000385
vn 0.000000 0.000000 -1.000000
vn 0.000000 0.000000 -1.000000
vn 0.000000 0.000000 -1.000000
vn 0.000000 0.000000 -1.000000
vn 0.000000 0.000000 -1.000000
vn 0.000000 0.000000 -1.000000
vn 0.000000 0.000000 -1.000000
vn 0.977978 0.208708 0.000000
vn 0.977978 0.208708 0.000000
vn 0.977978 0.208708 0.000000
vn 0.977978 0.208708 0.000000
vn -0.771063 0.636759 0.000000
vn -0.771063 0.636759 0.000000
vn -0.771063 0.636759 0.000000
vn -0.771063 0.636759 0.000000
vn -0.081256 0.996677 -0.005654
vn -0.081256 0.996677 -0.005654
vn -0.081256 0.996677 -0.005654
vn -0.081256 0.996677 -0.005654
vn -0.208702 0.977979 0.000000
vn -0.208702 0.977979 0.000000
vn -0.208702 0.977979 0.000000
vn -0.208702 0.977979 0.000000
vn -0.154360 0.987914 0.014129
vn -0.154360 0.987914 0.014129
vn -0.154360 0.987914 0.014129
vn -0.154360 0.987914 0.014129
vn -0.065987 0.997820 0.000000
vn -0.065987 0.997820 0.000000
vn -0.065987 0.997820 0.000000
vn -0.065987 0.997820 0.000000
vn 0.076958 -0.997034 0.000000
vn 0.076958 -0.997034 0.000000
vn 0.076958 -0.997034 0.000000
vn 0.000000 0.000000 1.000000
vn 0.000000 0.000000 1.000000
vn 0.000000 0.000000 1.000000
vn 0.000000 0.000000 1.000000
vn -0.123479 0.992347 -0.000273
vn -0.123479 0.992347 -0.000273
vn -0.123479 0.992347 -0.000273
vn -0.123479 0.992347 -0.000273
vn -0.000000 0.000000 -1.000000
vn -0.000000 0.000000 -1.000000
vn -0.000000 0.000000 -1.000000
vn -0.000000 0.000000 -1.000000
vn -0.154312 0.988013 -0.004270
vn -0.154312 0.988013 -0.004270
vn -0.154312 0.988013 -0.004270
vn -0.154312 0.988013 -0.004270
vn -0.078256 0.996855 0.012462
vn -0.078256 0.996855 0.012462
vn -0.078256 0.996855 0.012462
vn -0.078256 0.996855 0.012462
vn 0.171131 -0.985248 -0.000130
vn 0.171131 -0.985248 -0.000130
vn 0.171131 -0.985248 -0.000130
vn 0.171131 -0.985248 -0.000130
vn 0.000000 0.000000 1.000000
vn 0.000000 0.000000 1.000000
vn 0.000000 0.000000 1.000000
vn 0.000000 0.000000 1.000000
vn 0.000000 1.000000 0.000000
vn 0.000000 1.000000 0.000000
vn 0.000000 1.000000 0.000000
vn 0.000000 1.000000 0.000000
vn 0.000000 0.000000 -1.000000
vn 0.000000 0.000000 -1.000000
vn 0.000000 0.000000 -1.000000
vn 0.000000 0.000000 -1.000000
vn 0.000000 -1.000000 0.000000
vn 0.000000 -1.000000 0.000000
vn 0.000000 -1.000000 0.000000
vn 0.000000 -1.000000 0.000000
vn 1.000000 0.000000 0.000000
vn 1.000000 0.000000 0.000000
vn 1.000000 0.000000 0.000000
vn 1.000000 0.000000 0.000000
vn 1.000000 0.000000 0.000000
vn 1.000000 0.000000 0.000000
vn 1.000000 0.000000 0.000000
vn 1.000000 0.000000 0.000000
vn 1.000000 0.000000 0.000000
vn 1.000000 0.000000 0.000000
vn -1.000000 0.000000 0.000000
vn -1.000000 0.000000 0.000000
vn -1.000000 0.000000 0.000000
vn -1.000000 0.000000 0.000000
vn -1.000000 0.000000 0.000000
vn -1.000000 0.000000 0.000000
vn -1.000000 0.000000 0.000000
vn -1.000000 0.000000 0.000000
vn -1.000000 0.000000 0.000000
vn -1.000000 0.000000 0.000000
vn 0.000000 1.000000 0.000002
vn 0.000000 1.000000 0.000002
vn 0.000000 1.000000 0.000002
vn 0.000000 1.000000 0.000002
vn 0.000000 1.000000 0.000000
vn 0.000000 1.000000 0.000000
vn 0.000000 1.000000 0.000000
vn 0.000000 1.000000 0.000000
vn 0.000000 0.000000 -1.000000
vn 0.000000 0.000000 -1.000000
vn 0.000000 0.000000 -1.000000
vn 0.000000 0.000000 -1.000000
vn -1.000000 0.000000 0.000000
vn -1.000000 0.000000 0.000000
vn -1.000000 0.000000 0.000000
vn -1.000000 0.000000 0.000000
vn 0.000000 0.000000 1.000000
vn 0.000000 0.000000 1.000000
vn 0.000000 0.000000 1.000000
vn 0.000000 0.000000 1.000000
vn 1.000000 0.000000 0.000000
vn 1.000000 0.000000 0.000000
vn 1.000000 0.000000 0.000000
vn 1.000000 0.000000 0.000000
vn 0.000000 0.000000 1.000000
vn 0.000000 0.000000 1.000000
vn 0.000000 0.000000 1.000000
vn 0.000000 0.000000 1.000000
vn 0.000000 0.000000 1.000000
vn 0.000000 0.000000 1.000000
vn 0.000000 0.000000 1.000000
vn 0.000000 0.000000 -1.000000
vn 0.000000 0.000000 -1.000000
vn 0.000000 0.000000 -1.000000
vn 0.000000 0.000000 -1.000000
vn 0.000000 0.000000 -1.000000
vn 0.000000 0.000000 -1.000000
vn 0.000000 0.000000 -1.000000
vn 0.000000 0.000000 -1.000000
vn 0.000000 0.000000 -1.000000
vn -0.000000 0.000000 -1.000000
vn -0.000000 0.000000 -1.000000
vn -0.000000 0.000000 -1.000000
vn -0.000000 0.000000 -1.000000
vn 0.000000 0.000000 -1.000000
vn 0.000000 0.000000 -1.000000
vn 0.000000 0.000000 -1.000000
vn 0.000000 -1.000000 0.000000
vn 0.000000 -1.000000 0.000000
vn 0.000000 -1.000000 0.000000
vn 0.000000 1.000000 0.000000
vn 0.000000 1.000000 0.000000
vn 0.000000 1.000000 0.000000
vn 0.000000 1.000000 0.000000
vn 1.000000 0.000000 0.000000
vn 1.000000 0.000000 0.000000
vn 1.000000 0.000000 0.000000
vn 1.000000 0.000000 0.000000
vn 0.793098 -0.549805 -0.262127
vn 0.793098 -0.549805 -0.262127
vn 0.793098 -0.549805 -0.262127
vn 0.793098 -0.549805 -0.262127
vn 1.000000 -0.000000 0.000000
vn 1.000000 -0.000000 0.000000
vn 1.000000 -0.000000 0.000000
vn 1.000000 -0.000000 0.000000
vn 1.000000 0.000000 0.000000
vn 1.000000 0.000000 0.000000
vn 1.000000 0.000000 0.000000
vn 0.361019 0.905256 0.224003
vn 0.361019 0.905256 0.224003
vn 0.361019 0.905256 0.224003
vn 0.891352 0.445155 0.085613
vn 0.891352 0.445155 0.085613
vn 0.891352 0.445155 0.085613
vn 0.891352 0.445155 0.085613
vn -0.043530 -0.298552 0.953400
vn -0.043530 -0.298552 0.953400
vn -0.043530 -0.298552 0.953400
vn -0.043530 -0.298552 0.953400
vn -0.902728 -0.424837 -0.067792
vn -0.902728 -0.424837 -0.067792
vn -0.902728 -0.424837 -0.067792
vn -0.902728 -0.424837 -0.067792
vn 0.146840 0.301656 -0.942041
vn 0.146840 0.301656 -0.942041
vn 0.146840 0.301656 -0.942041
vn 0.146840 0.301656 -0.942041
vn 0.000000 -1.000000 0.000000
vn 0.000000 -1.000000 0.000000
vn 0.000000 -1.000000 0.000000
vn 0.000000 0.000000 1.000000
vn 0.000000 0.000000 1.000000
vn 0.000000 0.000000 1.000000
vn 0.000000 0.000000 1.000000
vn 0.000000 0.000000 1.000000
vn 0.000000 0.000000 1.000000
vn 0.000000 0.000000 1.000000
vn 0.000000 1.000000 0.000000
vn 0.000000 1.000000 0.000000
vn 0.000000 1.000000 0.000000
vn 0.000000 1.000000 0.000000
vn 0.000000 1.000000 0.000000
vn 0.000000 1.000000 0.000000
vn 0.000000 1.000000 0.000000
vn 0.000000 1.000000 0.000000
vn 0.000000 1.000000 0.000000
vn 0.000000 1.000000 0.000000
vn 0.000000 1.000000 0.000000
vn 0.000000 1.000000 0.000000
vn 0.000000 1.000000 0.000000
vn 0.000000 -1.000000 0.000000
vn 0.000000 -1.000000 0.000000
vn 0.000000 -1.000000 0.000000
vn 0.000000 -1.000000 0.000000
vn 0.000000 -1.000000 0.000000
vn 0.000000 -1.000000 0.000000
vn 1.000000 0.000000 0.000000
vn 1.000000 0.000000 0.000000
vn 1.000000 0.000000 0.000000
vn 1.000000 0.000000 0.000000
vn 1.000000 0.000000 0.000000
vn 1.000000 0.000000 0.000000
vn -0.775106 0.173457 -0.607555
vn -0.775106 0.173457 -0.607555
vn -0.775106 0.173457 -0.607555
vn -0.819115 -0.164606 -0.549505
vn -0.819115 -0.164606 -0.549505
vn -0.819115 -0.164606 -0.549505
vn -0.000000 -0.000000 -1.000000
vn -0.000000 -0.000000 -1.000000
vn -0.000000 -0.000000 -1.000000
vn -0.000000 -0.000000 -1.000000
vn -1.000000 0.000000 0.000000
vn -1.000000 0.000000 0.000000
vn -1.000000 0.000000 0.000000
vn -0.000000 0.000000 1.000000
vn -0.000000 0.000000 1.000000
vn -0.000000 0.000000 1.000000
vn 0.000000 1.000000 -0.000001
vn 0.000000 1.000000 -0.000001
vn 0.000000 1.000000 -0.000001
vn 0.000000 1.000000 -0.000001
vn 0.000000 0.000000 -1.000000
vn 0.000000 0.000000 -1.000000
vn 0.000000 0.000000 -1.000000
vn 0.000000 0.000000 -1.000000
vn 0.000000 0.000000 1.000000
vn 0.000000 0.000000 1.000000
vn 0.000000 0.000000 1.000000
vn 0.075454 -0.997149 0.000754
vn 0.075454 -0.997149 0.000754
vn 0.075454 -0.997149 0.000754
vn 0.075454 -0.997149 0.000754
vn 0.073892 -0.997266 0.000003
vn 0.073892 -0.997266 0.000003
vn 0.073892 -0.997266 0.000003
s off
f 1/1/1 14/18/2 3/4/3
f 15/19/4 3/4/5 14/18/6 20/26/7
f 9/13/8 17/21/9 18/24/10 12/16/11
f 7/8/12 5/6/13 13/17/14
f 13/17/15 5/6/16 16/20/17 19/25/18
f 2/2/19 8/7/20 6/5/21 4/3/22
f 7/8/23 1/1/24 3/4/25 5/6/26
f 3/4/27 15/19/28 17/22/29 9/9/30
f 4/3/31 6/5/32 11/11/33 10/10/34
f 6/5/35 16/20/36 18/23/37 11/11/38
f 5/6/39 3/4/40 9/9/41 12/12/42
f 14/18/43 28/91/44 20/26/45
f 15/19/46 20/26/47 2/2/48 4/3/49
f 18/24/50 17/21/51 10/14/52 11/15/53
f 19/25/54 16/20/55 6/5/56 8/7/57
f 17/22/58 15/19/59 4/3/60 10/10/61
f 18/23/62 16/20/63 5/6/64 12/12/65
f 20/26/66 19/25/67 8/7/68 2/2/69
f 36/27/70 37/28/71 38/29/72 39/30/73
f 32/31/74 33/32/75 34/33/76 35/34/77
f 40/35/78 41/36/79 42/37/80 43/38/81
f 43/38/82 42/37/83 37/28/84 36/27/85
f 22/39/86 26/40/87 23/41/88
f 48/45/89 26/40/90 24/42/91 51/44/92
f 45/43/93 51/44/94 24/42/95
f 25/46/96 21/47/97 27/48/98
f 21/47/99 1/49/100 27/48/101
f 7/50/102 58/86/103 27/48/104 1/49/105
f 28/53/106 14/90/107 56/51/108 29/52/109
f 29/52/110 46/54/111 47/55/112 30/56/113
f 28/53/114 29/52/115 33/58/116 32/59/117
f 29/52/118 30/56/119 34/60/120 33/58/121
f 30/56/122 31/57/123 35/61/124 34/60/125
f 31/57/126 28/53/127 32/59/128 35/61/129
f 37/63/130 22/39/131 23/41/132 56/51/133
f 56/51/134 38/62/135 37/63/136
f 7/50/137 13/89/138 40/66/139
f 41/65/140 24/42/141 26/40/142
f 42/67/143 41/65/144 26/40/145
f 60/88/146 40/66/147 43/68/148 59/87/149
f 25/46/150 59/87/151 43/68/152
f 21/47/153 43/68/154 36/69/155
f 45/70/156 47/71/157 46/72/158 44/73/159
f 44/73/160 50/74/161 51/75/162 45/70/163
f 53/76/164 52/77/165 54/78/166 55/79/167
f 57/83/168 23/41/169 49/80/170 50/81/171
f 50/81/172 44/82/173 57/83/174
f 23/41/175 57/83/176 56/51/177
f 51/75/178 50/74/179 52/77/180 53/76/181
f 50/74/182 49/84/183 54/78/184 52/77/185
f 49/84/186 48/85/187 55/79/188 54/78/189
f 48/85/190 51/75/191 53/76/192 55/79/193
f 25/46/194 43/68/195 21/47/196
f 39/64/197 21/47/198 36/69/199
f 56/51/200 14/90/201 39/64/202 38/62/203
f 46/54/204 29/52/205 56/51/206 57/83/207
f 57/83/208 44/82/209 46/54/210
f 30/56/211 47/55/212 24/42/213
f 47/55/214 45/43/215 24/42/216
f 22/39/217 37/63/218 26/40/219
f 37/63/220 42/67/221 26/40/222
f 23/41/223 26/40/224 49/80/225
f 48/45/226 49/80/227 26/40/228
f 59/87/229 27/48/230 60/88/231
f 60/88/232 27/48/233 58/86/234
f 40/66/235 60/88/236 58/86/237 7/50/238
f 27/48/239 59/87/240 25/46/241
f 1/49/242 21/47/243 39/64/244
f 24/42/245 13/89/246 31/57/247 30/56/248
f 40/66/249 13/89/250 24/42/251 41/65/252
f 39/64/253 14/90/254 1/49/255
f 20/26/256 28/91/257 31/92/258 19/25/259
f 19/25/260 31/92/261 13/17/262
