# This file uses centimeters as units for non-parametric coordinates.

v 4.154651 0.758075 16.431005
v -4.154651 0.758075 16.431005
v 4.154651 0.758075 -16.431005
v -4.154651 0.758075 -16.431005
v 25.477673 0.017847 -16.431005
v -25.480141 0.060690 -16.431005
v 25.477673 0.017847 16.431004
v -25.480141 0.060690 16.431004
v 3.682012 1.731744 -16.431005
v -3.679788 1.734238 -16.431005
v -25.485846 1.029987 -16.431005
v 25.485233 0.987135 -16.431005
v -25.485846 1.029987 16.431004
v 25.485233 0.987135 16.431004
v -3.679788 1.734238 16.431004
v 3.682012 1.731744 16.431004
v 3.889116 1.716924 -15.521723
v -3.886913 1.719898 -15.521723
v -24.796259 1.069178 -15.521723
v 24.795727 1.027632 -15.521723
v -24.796259 1.069178 15.521729
v 24.795727 1.027632 15.521729
v -3.886913 1.719898 15.521729
v 3.889116 1.716924 15.521729
v 21.703825 4.086216 -15.521723
v 6.651724 6.255846 -15.521723
v 6.651724 6.255846 15.521729
v 21.703825 4.086216 15.521729
v 0.000032 4.623851 -15.521722
v 0.000032 4.623851 15.521729
v -6.649867 6.258820 -15.521723
v -6.649868 6.258820 15.521729
v -21.704357 4.127762 -15.521723
v -21.704357 4.127762 15.521729
v 2.208039 -0.015516 -16.431005
v -2.208011 -0.015520 -16.431005
v -2.208011 -0.015520 16.431005
v 2.208039 -0.015516 16.431005
v 2.208405 1.184463 -16.431005
v -2.207646 1.186117 -16.431005
v -2.207646 1.186117 16.431004
v 2.208405 1.184463 16.431004
v 2.208317 1.253673 -15.521723
v -2.207733 1.255489 -15.521723
v -2.207733 1.255489 15.521729
v 2.208317 1.253673 15.521729
vt 0.248087 0.148007
vt 0.248087 0.148007
vt 0.248087 0.148007
vt 0.248087 0.148007
vt 0.248087 0.148007
vt 0.248087 0.148007
vt 0.248088 0.148007
vt 0.248088 0.148007
vt 0.248087 0.148007
vt 0.248087 0.148007
vt 0.248087 0.148007
vt 0.248087 0.148007
vt 0.248087 0.148007
vt 0.248087 0.148007
vt 0.248087 0.148007
vt 0.248087 0.148007
vt 0.248087 0.148007
vt 0.248087 0.148007
vt 0.036877 0.354519
vt 0.037016 0.354742
vt 0.036685 0.354728
vt 0.037274 0.354534
vt 0.037571 0.354600
vt 0.037576 0.354866
vt 0.036836 0.354556
vt 0.036638 0.354770
vt 0.037618 0.354653
vt 0.037638 0.354933
vt 0.037158 0.354578
vt 0.037132 0.354655
vt 0.037142 0.354519
vt 0.037192 0.354501
vt 0.037307 0.354614
vt 0.037252 0.354590
vt 0.037111 0.354712
vt 0.036964 0.354889
vt 0.037040 0.354814
vt 0.037160 0.354834
vt 0.037214 0.354906
vt 0.037187 0.354767
vt 0.248087 0.148007
vt 0.248088 0.148007
vt 0.248088 0.148007
vt 0.248087 0.148007
vt 0.248087 0.148007
vt 0.248087 0.148007
vt 0.248088 0.148007
vt 0.248087 0.148007
vt 0.248087 0.148007
vt 0.248088 0.148007
vt 0.248087 0.148007
vt 0.248087 0.148007
vt 0.248087 0.148007
vt 0.248087 0.148007
vt 0.248088 0.148007
vt 0.248087 0.148007
vt 0.248087 0.148007
vt 0.248087 0.148007
vt 0.248087 0.148007
vt 0.248087 0.148007
vt 0.248088 0.148007
vt 0.248087 0.148007
vn 0.032684 -0.999466 0.000000
vn 0.032684 -0.999466 0.000000
vn 0.032684 -0.999466 0.000000
vn 0.032684 -0.999466 0.000000
vn -0.034694 -0.999398 0.000000
vn -0.034694 -0.999398 0.000000
vn -0.034694 -0.999398 0.000000
vn -0.034694 -0.999398 0.000000
vn 0.000000 0.000000 -1.000000
vn 0.000000 0.000000 -1.000000
vn 0.000000 0.000000 -1.000000
vn 0.000000 0.000000 -1.000000
vn 0.000000 0.000000 -1.000000
vn 0.000000 0.000000 -1.000000
vn 0.000000 0.000000 -1.000000
vn 0.000000 0.000000 -1.000000
vn -0.999983 -0.005886 0.000000
vn -0.999983 -0.005886 0.000000
vn -0.999983 -0.005886 0.000000
vn -0.999983 -0.005886 0.000000
vn 0.999970 -0.007800 0.000000
vn 0.999970 -0.007800 0.000000
vn 0.999970 -0.007800 0.000000
vn 0.999970 -0.007800 0.000000
vn 0.000000 0.000001 1.000000
vn 0.000000 0.000001 1.000000
vn 0.000000 0.000001 1.000000
vn 0.000000 0.000001 1.000000
vn 0.000000 0.000001 1.000000
vn 0.000000 0.000001 1.000000
vn 0.000000 0.000001 1.000000
vn 0.000000 0.000001 1.000000
vn -0.031704 0.999484 -0.005247
vn -0.031704 0.999484 -0.005247
vn -0.031704 0.999484 -0.005247
vn -0.031704 0.999484 -0.005247
vn 0.033554 0.999423 -0.005211
vn 0.033554 0.999423 -0.005211
vn 0.033554 0.999423 -0.005211
vn 0.033554 0.999423 -0.005211
vn -0.056740 0.998389 0.000000
vn -0.056740 0.998389 0.000000
vn -0.056740 0.998389 0.000000
vn -0.056740 0.998389 0.000000
vn 0.058632 0.998280 0.000000
vn 0.058632 0.998280 0.000000
vn 0.058632 0.998280 0.000000
vn 0.058632 0.998280 0.000000
vn -0.031705 0.999484 0.005247
vn -0.031705 0.999484 0.005247
vn -0.031705 0.999484 0.005247
vn -0.031705 0.999484 0.005247
vn 0.033554 0.999423 0.005211
vn 0.033554 0.999423 0.005211
vn 0.033554 0.999423 0.005211
vn 0.033554 0.999423 0.005211
vn 0.142667 0.989771 0.000000
vn 0.142667 0.989771 0.000000
vn 0.142667 0.989771 0.000000
vn 0.142667 0.989771 0.000000
vn -0.238283 0.971196 0.000000
vn -0.238283 0.971196 0.000000
vn -0.238283 0.971196 0.000000
vn -0.238283 0.971196 0.000000
vn 0.238753 0.971080 0.000000
vn 0.238753 0.971080 0.000000
vn 0.238753 0.971080 0.000000
vn 0.238753 0.971080 0.000000
vn -0.140159 0.990129 0.000000
vn -0.140159 0.990129 0.000000
vn -0.140159 0.990129 0.000000
vn -0.140159 0.990129 0.000000
vn 0.000000 0.000000 -1.000000
vn 0.000000 0.000000 -1.000000
vn 0.000000 0.000000 -1.000000
vn 0.000000 0.000000 -1.000000
vn 0.000000 0.000000 1.000000
vn 0.000000 0.000000 1.000000
vn 0.000000 0.000000 1.000000
vn 0.000000 0.000000 1.000000
vn 0.703266 0.710927 0.000000
vn 0.703266 0.710927 0.000000
vn 0.703266 0.710927 0.000000
vn 0.703266 0.710927 0.000000
vn 0.000000 0.000000 -1.000000
vn 0.000000 0.000000 -1.000000
vn 0.000000 0.000000 -1.000000
vn 0.000000 0.000000 -1.000000
vn 0.000000 0.000000 1.000000
vn 0.000000 0.000000 1.000000
vn 0.000000 0.000000 1.000000
vn 0.000000 0.000000 1.000000
vn -0.000000 0.000000 -1.000000
vn -0.000000 0.000000 -1.000000
vn -0.000000 0.000000 -1.000000
vn -0.000000 0.000000 -1.000000
vn -0.703266 0.710927 0.000000
vn -0.703266 0.710927 0.000000
vn -0.703266 0.710927 0.000000
vn -0.703266 0.710927 0.000000
vn -0.000000 0.000000 1.000000
vn -0.000000 0.000000 1.000000
vn -0.000000 0.000000 1.000000
vn -0.000000 0.000000 1.000000
vn 0.000001 0.000000 -1.000000
vn 0.000001 0.000000 -1.000000
vn 0.000001 0.000000 -1.000000
vn 0.000001 0.000000 -1.000000
vn 0.000000 0.000000 1.000000
vn 0.000000 0.000000 1.000000
vn 0.000000 0.000000 1.000000
vn 0.000000 0.000000 1.000000
vn -0.000000 0.000000 -1.000000
vn -0.000000 0.000000 -1.000000
vn -0.000000 0.000000 -1.000000
vn -0.000000 0.000000 -1.000000
vn 0.000001 -1.000000 0.000000
vn 0.000001 -1.000000 0.000000
vn 0.000001 -1.000000 0.000000
vn 0.000001 -1.000000 0.000000
vn -0.000000 0.000002 1.000000
vn -0.000000 0.000002 1.000000
vn -0.000000 0.000002 1.000000
vn -0.000000 0.000002 1.000000
vn 0.000392 0.997109 -0.075984
vn 0.000392 0.997109 -0.075984
vn 0.000392 0.997109 -0.075984
vn 0.000392 0.997109 -0.075984
vn 0.000392 0.997109 0.075985
vn 0.000392 0.997109 0.075985
vn 0.000392 0.997109 0.075985
vn 0.000392 0.997109 0.075985
vn -0.369307 -0.929308 0.000000
vn -0.369307 -0.929308 0.000000
vn -0.369307 -0.929308 0.000000
vn -0.369307 -0.929308 0.000000
vn 0.369310 -0.929306 0.000000
vn 0.369310 -0.929306 0.000000
vn 0.369310 -0.929306 0.000000
vn 0.369310 -0.929306 0.000000
vn 0.000000 0.000000 -1.000000
vn 0.000000 0.000000 -1.000000
vn 0.000000 0.000000 -1.000000
vn 0.000000 0.000000 -1.000000
vn 0.000000 0.000000 -1.000000
vn 0.000000 0.000000 -1.000000
vn 0.000000 0.000000 -1.000000
vn 0.000000 0.000000 -1.000000
vn 0.000000 0.000002 1.000000
vn 0.000000 0.000002 1.000000
vn 0.000000 0.000002 1.000000
vn 0.000000 0.000002 1.000000
vn -0.000001 0.000002 1.000000
vn -0.000001 0.000002 1.000000
vn -0.000001 0.000002 1.000000
vn -0.000001 0.000002 1.000000
vn -0.305077 0.952307 0.006246
vn -0.305077 0.952307 0.006246
vn -0.305077 0.952307 0.006246
vn -0.305077 0.952307 0.006246
vn 0.305895 0.952046 0.006044
vn 0.305895 0.952046 0.006044
vn 0.305895 0.952046 0.006044
vn 0.305895 0.952046 0.006044
vn 0.305895 0.952046 -0.006044
vn 0.305895 0.952046 -0.006044
vn 0.305895 0.952046 -0.006044
vn 0.305895 0.952046 -0.006044
vn -0.305077 0.952307 -0.006246
vn -0.305077 0.952307 -0.006246
vn -0.305077 0.952307 -0.006246
vn -0.305077 0.952307 -0.006246
vn 0.000000 0.000000 -1.000000
vn 0.000000 0.000000 -1.000000
vn 0.000000 0.000000 -1.000000
vn 0.000000 0.000000 1.000000
vn 0.000000 0.000000 1.000000
vn 0.000000 0.000000 1.000000
s off
f 8/5/1 6/6/2 4/45/3 2/53/4
f 5/8/5 7/7/6 1/48/7 3/49/8
f 4/45/9 6/2/10 11/9/11 10/52/12
f 5/1/13 3/49/14 9/57/15 12/10/16
f 6/2/17 8/4/18 13/11/19 11/9/20
f 7/3/21 5/1/22 12/10/23 14/12/24
f 8/4/25 2/53/26 15/60/27 13/11/28
f 1/48/29 7/3/30 14/12/31 16/56/32
f 10/52/33 11/9/34 19/14/35 18/59/36
f 12/10/37 9/57/38 17/13/39 20/15/40
f 11/9/41 13/11/42 21/16/43 19/14/44
f 14/12/45 12/10/46 20/15/47 22/17/48
f 13/11/49 15/60/50 23/18/51 21/16/52
f 16/56/53 14/12/54 22/17/55 24/62/56
f 26/31/57 27/20/58 28/21/59 25/19/60
f 26/31/61 29/32/62 30/35/63 27/20/64
f 29/32/65 31/22/66 32/40/67 30/35/68
f 32/40/69 31/22/70 33/23/71 34/24/72
f 17/29/73 26/31/74 25/19/75 20/25/76
f 27/20/77 24/37/78 22/26/79 28/21/80
f 22/26/81 20/25/82 25/19/83 28/21/84
f 17/29/85 43/30/86 29/32/87 26/31/88
f 23/38/89 45/39/90 30/35/91 32/40/92
f 31/22/93 18/34/94 19/27/95 33/23/96
f 19/27/97 21/28/98 34/24/99 33/23/100
f 23/38/101 32/40/102 34/24/103 21/28/104
f 29/32/105 44/33/106 18/34/107 31/22/108
f 30/35/109 46/36/110 24/37/111 27/20/112
f 35/47/113 36/51/114 40/58/115 39/50/116
f 36/51/117 35/47/118 38/55/119 37/46/120
f 37/46/121 38/55/122 42/61/123 41/54/124
f 39/50/125 40/58/126 44/41/127 43/42/128
f 41/54/129 42/61/130 46/43/131 45/44/132
f 4/45/133 36/51/134 37/46/135 2/53/136
f 35/47/137 3/49/138 1/48/139 38/55/140
f 3/49/141 35/47/142 39/50/143 9/57/144
f 36/51/145 4/45/146 10/52/147 40/58/148
f 2/53/149 37/46/150 41/54/151 15/60/152
f 38/55/153 1/48/154 16/56/155 42/61/156
f 9/57/157 39/50/158 43/42/159 17/13/160
f 40/58/161 10/52/162 18/59/163 44/41/164
f 15/60/165 41/54/166 45/44/167 23/18/168
f 42/61/169 16/56/170 24/62/171 46/43/172
f 29/32/173 43/30/174 44/33/175
f 30/35/176 45/39/177 46/36/178
