# This file uses centimeters as units for non-parametric coordinates.

v -0.770458 -4.615768 2.679440
v -0.000000 -5.386226 2.679440
v -0.461084 -4.615768 3.017926
v 0.000000 -5.076852 3.017926
v 0.000000 -4.154684 3.017926
v 0.461084 -4.615767 3.017926
v 0.000000 -3.845310 2.679440
v 0.770458 -4.615767 2.679440
v -0.770458 4.645939 2.679440
v -0.000000 3.875481 2.679440
v -0.461084 4.645939 3.017926
v 0.000000 4.184855 3.017926
v 0.000000 5.107023 3.017926
v 0.461084 4.645940 3.017926
v 0.000000 5.416398 2.679440
v 0.770458 4.645940 2.679440
v -6.623002 -9.432354 -0.000000
v 6.623002 -9.432354 -0.000000
v -6.274178 -9.231948 1.727549
v 6.274178 -9.231948 1.727549
v -6.274178 9.231956 1.727549
v 6.274178 9.231956 1.727549
v -6.623002 9.432363 0.000000
v 6.623002 9.432363 0.000000
v -7.682209 0.000004 1.727549
v 7.682209 0.000004 1.727549
v 8.109314 0.000000 0.000000
v -8.109314 0.000004 0.000000
v -7.837328 7.545891 0.000000
v 7.837328 7.545890 0.000000
v 7.424548 7.385567 1.727549
v -7.424548 7.385567 1.727549
v -7.424548 -7.385557 1.727549
v 7.424548 -7.385557 1.727549
v 7.837328 -7.545883 -0.000000
v -7.837328 -7.545882 -0.000000
v -3.983234 -6.387024 1.727549
v 3.983234 -6.387024 1.727549
v -3.773443 -6.251321 2.679440
v 3.773443 -6.251321 2.679440
v -3.773443 6.251327 2.679440
v 3.773443 6.251327 2.679440
v -3.983234 6.387030 1.727549
v 3.983234 6.387030 1.727549
v -4.620267 0.000003 2.679440
v 4.620267 0.000003 2.679440
v 4.877138 -0.000000 1.727549
v -4.877138 0.000003 1.727549
v -4.713559 5.109625 1.727549
v 4.713559 5.109624 1.727549
v 4.465303 5.001063 2.679440
v -4.465303 5.001063 2.679440
v -4.465303 -5.001056 2.679440
v 4.465303 -5.001056 2.679440
v 4.713559 -5.109619 1.727549
v -4.713559 -5.109619 1.727549
vt 0.102241 0.231515
vt 0.101455 0.231500
vt 0.101409 0.230729
vt 0.102206 0.230742
vt 0.101619 0.230538
vt 0.102378 0.230550
vt 0.101660 0.231274
vt 0.102409 0.231289
vt 0.102241 0.231515
vt 0.101455 0.231500
vt 0.101409 0.230729
vt 0.102206 0.230742
vt 0.101619 0.230538
vt 0.102378 0.230550
vt 0.101660 0.231274
vt 0.102409 0.231289
vt 0.248321 0.168214
vt 0.247535 0.168198
vt 0.247489 0.167427
vt 0.248286 0.167441
vt 0.248372 0.167345
vt 0.247594 0.167332
vt 0.247678 0.167255
vt 0.248441 0.167267
vt 0.248458 0.167248
vt 0.247699 0.167236
vt 0.247740 0.167973
vt 0.248489 0.167987
vt 0.248472 0.168010
vt 0.247720 0.167995
vt 0.247637 0.168086
vt 0.248405 0.168100
vt 0.248303 0.167422
vt 0.247510 0.167408
vt 0.247555 0.168176
vt 0.248338 0.168191
vt 0.248321 0.189639
vt 0.247535 0.189623
vt 0.247489 0.188853
vt 0.248286 0.188866
vt 0.248372 0.188770
vt 0.247594 0.188757
vt 0.247678 0.188680
vt 0.248441 0.188693
vt 0.248458 0.188673
vt 0.247699 0.188661
vt 0.247740 0.189398
vt 0.248489 0.189412
vt 0.247637 0.189511
vt 0.247720 0.189420
vt 0.248472 0.189435
vt 0.248405 0.189526
vt 0.248303 0.188847
vt 0.247510 0.188833
vt 0.247555 0.189601
vt 0.248338 0.189616
vn -0.593873 -0.593874 0.542797
vn -0.593873 -0.593874 0.542797
vn -0.593873 -0.593874 0.542797
vn -0.593873 -0.593874 0.542797
vn 0.000000 0.000000 1.000000
vn 0.000000 0.000000 1.000000
vn 0.000000 0.000000 1.000000
vn 0.000000 0.000000 1.000000
vn 0.593873 0.593874 0.542797
vn 0.593873 0.593874 0.542797
vn 0.593873 0.593874 0.542797
vn 0.593873 0.593874 0.542797
vn 0.593874 -0.593873 0.542797
vn 0.593874 -0.593873 0.542797
vn 0.593874 -0.593873 0.542797
vn 0.593874 -0.593873 0.542797
vn -0.593873 0.593873 0.542797
vn -0.593873 0.593873 0.542797
vn -0.593873 0.593873 0.542797
vn -0.593873 0.593873 0.542797
vn -0.593873 -0.593873 0.542798
vn -0.593873 -0.593873 0.542798
vn -0.593873 -0.593873 0.542798
vn -0.593873 -0.593873 0.542798
vn 0.000000 0.000000 1.000000
vn 0.000000 0.000000 1.000000
vn 0.000000 0.000000 1.000000
vn 0.000000 0.000000 1.000000
vn 0.593873 0.593873 0.542798
vn 0.593873 0.593873 0.542798
vn 0.593873 0.593873 0.542798
vn 0.593873 0.593873 0.542798
vn 0.593874 -0.593873 0.542797
vn 0.593874 -0.593873 0.542797
vn 0.593874 -0.593873 0.542797
vn 0.593874 -0.593873 0.542797
vn -0.593873 0.593873 0.542798
vn -0.593873 0.593873 0.542798
vn -0.593873 0.593873 0.542798
vn -0.593873 0.593873 0.542798
vn 0.000000 -0.993338 0.115233
vn 0.000000 -0.993338 0.115233
vn 0.000000 -0.993338 0.115233
vn 0.000000 -0.993338 0.115233
vn 0.000000 0.000000 1.000000
vn 0.000000 0.000000 1.000000
vn 0.000000 0.000000 1.000000
vn 0.000000 0.000000 1.000000
vn 0.000000 0.993339 0.115233
vn 0.000000 0.993339 0.115233
vn 0.000000 0.993339 0.115233
vn 0.000000 0.993339 0.115233
vn 0.000000 0.000000 -1.000000
vn 0.000000 0.000000 -1.000000
vn 0.000000 0.000000 -1.000000
vn 0.000000 0.000000 -1.000000
vn 0.970758 0.034435 0.237576
vn 0.970758 0.034435 0.237576
vn 0.970758 0.034435 0.237576
vn 0.970758 0.034435 0.237576
vn -0.970758 0.034435 0.237576
vn -0.970758 0.034435 0.237576
vn -0.970758 0.034435 0.237576
vn -0.970758 0.034435 0.237576
vn 0.000000 0.000000 1.000000
vn 0.000000 0.000000 1.000000
vn 0.000000 0.000000 1.000000
vn 0.000000 0.000000 1.000000
vn 0.970758 -0.034435 0.237576
vn 0.970758 -0.034435 0.237576
vn 0.970758 -0.034435 0.237576
vn 0.970758 -0.034435 0.237576
vn 0.000000 0.000000 -1.000000
vn 0.000000 0.000000 -1.000000
vn 0.000000 0.000000 -1.000000
vn 0.000000 0.000000 -1.000000
vn -0.970759 -0.034435 0.237576
vn -0.970759 -0.034435 0.237576
vn -0.970759 -0.034435 0.237576
vn -0.970759 -0.034435 0.237576
vn 0.000000 0.000000 -1.000000
vn 0.000000 0.000000 -1.000000
vn 0.000000 0.000000 -1.000000
vn 0.000000 0.000000 -1.000000
vn 0.821047 0.520117 0.235285
vn 0.821047 0.520117 0.235285
vn 0.821047 0.520117 0.235285
vn 0.821047 0.520117 0.235285
vn 0.000000 0.000000 1.000000
vn 0.000000 0.000000 1.000000
vn 0.000000 0.000000 1.000000
vn 0.000000 0.000000 1.000000
vn -0.821047 0.520118 0.235286
vn -0.821047 0.520118 0.235286
vn -0.821047 0.520118 0.235286
vn -0.821047 0.520118 0.235286
vn 0.000000 0.000000 1.000000
vn 0.000000 0.000000 1.000000
vn 0.000000 0.000000 1.000000
vn 0.000000 0.000000 1.000000
vn 0.821047 -0.520117 0.235286
vn 0.821047 -0.520117 0.235286
vn 0.821047 -0.520117 0.235286
vn 0.821047 -0.520117 0.235286
vn -0.000000 0.000000 -1.000000
vn -0.000000 0.000000 -1.000000
vn -0.000000 0.000000 -1.000000
vn -0.000000 0.000000 -1.000000
vn -0.821047 -0.520117 0.235286
vn -0.821047 -0.520117 0.235286
vn -0.821047 -0.520117 0.235286
vn -0.821047 -0.520117 0.235286
vn 0.000000 -0.989991 0.141134
vn 0.000000 -0.989991 0.141134
vn 0.000000 -0.989991 0.141134
vn 0.000000 -0.989991 0.141134
vn 0.000000 0.000000 1.000000
vn 0.000000 0.000000 1.000000
vn 0.000000 0.000000 1.000000
vn 0.000000 0.000000 1.000000
vn 0.000000 0.989991 0.141135
vn 0.000000 0.989991 0.141135
vn 0.000000 0.989991 0.141135
vn 0.000000 0.989991 0.141135
vn 0.965677 0.030424 0.257956
vn 0.965677 0.030424 0.257956
vn 0.965677 0.030424 0.257956
vn 0.965677 0.030424 0.257956
vn -0.965678 0.030424 0.257956
vn -0.965678 0.030424 0.257956
vn -0.965678 0.030424 0.257956
vn -0.965678 0.030424 0.257956
vn 0.000000 0.000000 1.000000
vn 0.000000 0.000000 1.000000
vn 0.000000 0.000000 1.000000
vn 0.000000 0.000000 1.000000
vn 0.965677 -0.030424 0.257956
vn 0.965677 -0.030424 0.257956
vn 0.965677 -0.030424 0.257956
vn 0.965677 -0.030424 0.257956
vn -0.965677 -0.030424 0.257956
vn -0.965677 -0.030424 0.257956
vn -0.965677 -0.030424 0.257956
vn -0.965677 -0.030424 0.257956
vn 0.840839 0.473095 0.263005
vn 0.840839 0.473095 0.263005
vn 0.840839 0.473095 0.263005
vn 0.840839 0.473095 0.263005
vn 0.000000 0.000000 1.000000
vn 0.000000 0.000000 1.000000
vn 0.000000 0.000000 1.000000
vn 0.000000 0.000000 1.000000
vn -0.840839 0.473095 0.263005
vn -0.840839 0.473095 0.263005
vn -0.840839 0.473095 0.263005
vn -0.840839 0.473095 0.263005
vn 0.000000 0.000000 1.000000
vn 0.000000 0.000000 1.000000
vn 0.000000 0.000000 1.000000
vn 0.000000 0.000000 1.000000
vn 0.840838 -0.473095 0.263005
vn 0.840838 -0.473095 0.263005
vn 0.840838 -0.473095 0.263005
vn 0.840838 -0.473095 0.263005
vn -0.840838 -0.473095 0.263005
vn -0.840838 -0.473095 0.263005
vn -0.840838 -0.473095 0.263005
vn -0.840838 -0.473095 0.263005
s off
f 1/1/1 2/2/2 4/3/3 3/4/4
f 3/4/5 4/3/6 6/5/7 5/6/8
f 5/6/9 6/5/10 8/7/11 7/8/12
f 2/2/13 8/7/14 6/5/15 4/3/16
f 7/8/17 1/1/18 3/4/19 5/6/20
f 9/9/21 10/10/22 12/11/23 11/12/24
f 11/12/25 12/11/26 14/13/27 13/14/28
f 13/14/29 14/13/30 16/15/31 15/16/32
f 10/10/33 16/15/34 14/13/35 12/11/36
f 15/16/37 9/9/38 11/12/39 13/14/40
f 17/17/41 18/18/42 20/19/43 19/20/44
f 25/21/45 26/22/46 31/23/47 32/24/48
f 21/25/49 22/26/50 24/27/51 23/28/52
f 29/29/53 30/30/54 27/31/55 28/32/56
f 26/22/57 27/31/58 30/30/59 31/23/60
f 32/24/61 29/29/62 28/32/63 25/21/64
f 33/33/65 34/34/66 26/22/67 25/21/68
f 34/34/69 35/35/70 27/31/71 26/22/72
f 28/32/73 27/31/74 35/35/75 36/36/76
f 25/21/77 28/32/78 36/36/79 33/33/80
f 23/28/81 24/27/82 30/30/83 29/29/84
f 31/23/85 30/30/86 24/27/87 22/26/88
f 32/24/89 31/23/90 22/26/91 21/25/92
f 23/28/93 29/29/94 32/24/95 21/25/96
f 19/20/97 20/19/98 34/34/99 33/33/100
f 18/18/101 35/35/102 34/34/103 20/19/104
f 36/36/105 35/35/106 18/18/107 17/17/108
f 33/33/109 36/36/110 17/17/111 19/20/112
f 37/37/113 38/38/114 40/39/115 39/40/116
f 45/41/117 46/42/118 51/43/119 52/44/120
f 41/45/121 42/46/122 44/47/123 43/48/124
f 46/42/125 47/49/126 50/50/127 51/43/128
f 52/44/129 49/51/130 48/52/131 45/41/132
f 53/53/133 54/54/134 46/42/135 45/41/136
f 54/54/137 55/55/138 47/49/139 46/42/140
f 45/41/141 48/52/142 56/56/143 53/53/144
f 51/43/145 50/50/146 44/47/147 42/46/148
f 52/44/149 51/43/150 42/46/151 41/45/152
f 43/48/153 49/51/154 52/44/155 41/45/156
f 39/40/157 40/39/158 54/54/159 53/53/160
f 38/38/161 55/55/162 54/54/163 40/39/164
f 53/53/165 56/56/166 37/37/167 39/40/168
v -3.391584 -3.630534 1.096987
v -0.608417 -3.630534 1.096987
v -3.391584 -2.763081 3.144632
v -0.608417 -2.763081 3.144632
v -3.391584 2.480757 3.802155
v -0.608417 2.480757 3.802155
v -3.391584 3.630537 1.584921
v -0.608417 3.630537 1.584921
v -3.391584 0.000000 3.144632
v -0.608417 0.000000 3.144632
v -0.608417 0.000001 1.096987
v -3.391584 0.000001 1.096987
vt 0.247996 0.209441
vt 0.247210 0.209425
vt 0.247165 0.208655
vt 0.247961 0.208668
vt 0.247375 0.208463
vt 0.248134 0.208475
vt 0.247415 0.209200
vt 0.248165 0.209214
vt 0.248048 0.208572
vt 0.247270 0.208559
vt 0.247313 0.209313
vt 0.248080 0.209328
vn 0.000000 -0.920783 0.390076
vn 0.000000 -0.920783 0.390076
vn 0.000000 -0.920783 0.390076
vn 0.000000 -0.920783 0.390076
vn 0.000000 -0.256203 0.966623
vn 0.000000 -0.256203 0.966623
vn 0.000000 -0.256203 0.966623
vn 0.000000 -0.256203 0.966623
vn 0.000000 0.887738 0.460350
vn 0.000000 0.887738 0.460350
vn 0.000000 0.887738 0.460350
vn 0.000000 0.887738 0.460350
vn 0.000000 0.133200 -0.991089
vn 0.000000 0.133200 -0.991089
vn 0.000000 0.133200 -0.991089
vn 0.000000 0.133200 -0.991089
vn 1.000000 0.000000 0.000000
vn 1.000000 0.000000 0.000000
vn 1.000000 0.000000 0.000000
vn 1.000000 0.000000 0.000000
vn -1.000000 0.000000 0.000000
vn -1.000000 0.000000 0.000000
vn -1.000000 0.000000 0.000000
vn -1.000000 0.000000 0.000000
vn 0.000000 0.000000 1.000000
vn 0.000000 0.000000 1.000000
vn 0.000000 0.000000 1.000000
vn 0.000000 0.000000 1.000000
vn 1.000000 0.000000 0.000000
vn 1.000000 0.000000 0.000000
vn 1.000000 0.000000 0.000000
vn 1.000000 0.000000 0.000000
vn 0.000000 -0.000000 -1.000000
vn 0.000000 -0.000000 -1.000000
vn 0.000000 -0.000000 -1.000000
vn 0.000000 -0.000000 -1.000000
vn -1.000000 0.000000 0.000000
vn -1.000000 0.000000 0.000000
vn -1.000000 0.000000 0.000000
vn -1.000000 0.000000 0.000000
s off
f 57/57/169 58/58/170 60/59/171 59/60/172
f 65/65/173 66/66/174 62/61/175 61/62/176
f 61/62/177 62/61/178 64/63/179 63/64/180
f 63/64/181 64/63/182 67/67/183 68/68/184
f 66/66/185 67/67/186 64/63/187 62/61/188
f 63/64/189 68/68/190 65/65/191 61/62/192
f 59/60/193 60/59/194 66/66/195 65/65/196
f 58/58/197 67/67/198 66/66/199 60/59/200
f 68/68/201 67/67/202 58/58/203 57/57/204
f 65/65/205 68/68/206 57/57/207 59/60/208
v 0.608416 -3.630534 1.096987
v 3.391584 -3.630534 1.096987
v 0.608416 -2.763080 3.144632
v 3.391584 -2.763080 3.144632
v 0.608416 2.480757 3.802155
v 3.391584 2.480757 3.802155
v 0.608416 3.630537 1.584921
v 3.391584 3.630537 1.584921
v 0.608416 0.000001 3.144632
v 3.391584 0.000001 3.144632
v 3.391584 0.000001 1.096987
v 0.608416 0.000001 1.096987
vt 0.247996 0.209441
vt 0.247210 0.209425
vt 0.247165 0.208655
vt 0.247961 0.208668
vt 0.247375 0.208463
vt 0.248134 0.208475
vt 0.247415 0.209200
vt 0.248165 0.209214
vt 0.248048 0.208572
vt 0.247270 0.208559
vt 0.247313 0.209313
vt 0.248080 0.209328
vn 0.000000 -0.920783 0.390076
vn 0.000000 -0.920783 0.390076
vn 0.000000 -0.920783 0.390076
vn 0.000000 -0.920783 0.390076
vn 0.000000 -0.256203 0.966623
vn 0.000000 -0.256203 0.966623
vn 0.000000 -0.256203 0.966623
vn 0.000000 -0.256203 0.966623
vn 0.000000 0.887738 0.460350
vn 0.000000 0.887738 0.460350
vn 0.000000 0.887738 0.460350
vn 0.000000 0.887738 0.460350
vn 0.000000 0.133200 -0.991089
vn 0.000000 0.133200 -0.991089
vn 0.000000 0.133200 -0.991089
vn 0.000000 0.133200 -0.991089
vn 1.000000 -0.000000 0.000000
vn 1.000000 -0.000000 0.000000
vn 1.000000 -0.000000 0.000000
vn 1.000000 -0.000000 0.000000
vn -1.000000 0.000000 0.000000
vn -1.000000 0.000000 0.000000
vn -1.000000 0.000000 0.000000
vn -1.000000 0.000000 0.000000
vn 0.000000 0.000000 1.000000
vn 0.000000 0.000000 1.000000
vn 0.000000 0.000000 1.000000
vn 0.000000 0.000000 1.000000
vn 1.000000 0.000000 0.000000
vn 1.000000 0.000000 0.000000
vn 1.000000 0.000000 0.000000
vn 1.000000 0.000000 0.000000
vn 0.000000 0.000000 -1.000000
vn 0.000000 0.000000 -1.000000
vn 0.000000 0.000000 -1.000000
vn 0.000000 0.000000 -1.000000
vn -1.000000 0.000000 0.000000
vn -1.000000 0.000000 0.000000
vn -1.000000 0.000000 0.000000
vn -1.000000 0.000000 0.000000
s off
f 69/69/209 70/70/210 72/71/211 71/72/212
f 77/77/213 78/78/214 74/73/215 73/74/216
f 73/74/217 74/73/218 76/75/219 75/76/220
f 75/76/221 76/75/222 79/79/223 80/80/224
f 78/78/225 79/79/226 76/75/227 74/73/228
f 75/76/229 80/80/230 77/77/231 73/74/232
f 71/72/233 72/71/234 78/78/235 77/77/236
f 70/70/237 79/79/238 78/78/239 72/71/240
f 80/80/241 79/79/242 70/70/243 69/69/244
f 77/77/245 80/80/246 69/69/247 71/72/248
