# This file uses centimeters as units for non-parametric coordinates.

v 6.239868 0.000000 -6.239857
v 0.000008 0.000000 -8.824492
v -6.239853 0.000000 -6.239857
v -8.824486 0.000000 0.000000
v -6.239853 0.000000 6.239857
v 0.000008 0.000000 8.824492
v 6.239868 0.000000 6.239859
v 8.824501 0.000000 0.000000
v 11.395929 10.017281 -11.395929
v 0.000008 10.017281 -16.116287
v -11.395922 10.017281 -11.395929
v -16.116280 10.017281 0.000000
v -11.395922 10.017281 11.395929
v 0.000008 10.017281 16.116287
v 11.395929 10.017281 11.395929
v 16.116287 10.017281 0.000000
v 6.239868 1.382797 -6.239857
v 8.824501 1.382797 0.000000
v 6.239868 1.382797 6.239859
v 0.000008 1.382797 8.824492
v -6.239853 1.382797 6.239857
v -8.824486 1.382797 0.000000
v -6.239853 1.382797 -6.239857
v 0.000008 1.382797 -8.824492
v 9.797584 10.663247 -9.797575
v 0.000008 10.663247 -13.855870
v -9.797568 10.663247 -9.797575
v -13.855852 10.663247 0.000000
v -9.797568 10.663247 9.797575
v 0.000008 10.663247 13.855870
v 9.797584 10.663247 9.797576
v 13.855875 10.663247 0.000000
v 8.190491 6.211148 -8.190475
v 0.000008 6.211148 -11.583090
v -8.190468 6.211148 -8.190475
v -11.583084 6.211148 0.000000
v -8.190468 6.211148 8.190475
v 0.000008 6.211148 11.583090
v 8.190491 6.211148 8.190476
v 11.583107 6.211148 0.000000
v 0.000008 1.745873 0.000000
v 0.000008 0.000000 0.000000
v 11.100136 8.370506 -11.100129
v 0.000008 8.370506 -15.697959
v -11.100113 8.370506 -11.100129
v -15.697952 8.370506 0.000000
v -11.100113 8.370506 11.100129
v 0.000008 8.370506 15.697959
v 11.100136 8.370506 11.100132
v 15.697968 8.370506 0.000000
v 10.565575 6.843955 -10.565571
v 0.000008 6.843955 -14.941976
v -10.565552 6.843955 -10.565570
v -14.941971 6.843955 0.000000
v -10.565552 6.843955 10.565570
v 0.000008 6.843955 14.941976
v 10.565582 6.843955 10.565575
v 14.941986 6.843955 0.000000
v 9.295906 4.762847 -9.295897
v 0.000008 4.762847 -13.146381
v -9.295891 4.762847 -9.295895
v -13.146370 4.762847 0.000000
v -9.295891 4.762847 9.295895
v 0.000008 4.762847 13.146381
v 9.295906 4.762847 9.295898
v 13.146385 4.762847 0.000000
vt 0.100910 0.351863
vt 0.101064 0.351840
vt 0.101064 0.351793
vt 0.100909 0.351814
vt 0.101221 0.351861
vt 0.101221 0.351813
vt 0.101299 0.351916
vt 0.101300 0.351866
vt 0.101243 0.351979
vt 0.101244 0.351926
vt 0.101072 0.352007
vt 0.101072 0.351954
vt 0.100898 0.351981
vt 0.100897 0.351928
vt 0.100837 0.351919
vt 0.100835 0.351869
vt 0.046709 0.325574
vt 0.046531 0.325658
vt 0.046639 0.325762
vt 0.047042 0.325812
vt 0.047437 0.325758
vt 0.047531 0.325654
vt 0.047344 0.325571
vt 0.047026 0.325543
vt 0.101062 0.351513
vt 0.100780 0.351541
vt 0.101346 0.351539
vt 0.101507 0.351612
vt 0.101419 0.351703
vt 0.101076 0.351748
vt 0.100727 0.351706
vt 0.100627 0.351616
vt 0.101063 0.351662
vt 0.100858 0.351687
vt 0.101271 0.351685
vt 0.101380 0.351747
vt 0.101309 0.351820
vt 0.101074 0.351855
vt 0.100834 0.351823
vt 0.100755 0.351750
vt 0.101068 0.351810
vt 0.101068 0.351921
vt 0.046728 0.325639
vt 0.101150 0.351763
vt 0.101450 0.351792
vt 0.101623 0.351876
vt 0.101532 0.351980
vt 0.101165 0.352033
vt 0.100791 0.351984
vt 0.100687 0.351880
vt 0.046563 0.325724
vt 0.100852 0.351795
vt 0.046667 0.325828
vt 0.047041 0.325877
vt 0.047409 0.325825
vt 0.047500 0.325720
vt 0.047326 0.325637
vt 0.047026 0.325608
vt 0.046744 0.325583
vt 0.046591 0.325658
vt 0.046691 0.325748
vt 0.047041 0.325790
vt 0.047383 0.325745
vt 0.047472 0.325654
vt 0.047311 0.325580
vt 0.047026 0.325555
vt 0.237112 0.109060
vt 0.236930 0.109079
vt 0.236976 0.109157
vt 0.237187 0.109143
vt 0.236981 0.109040
vt 0.237043 0.109128
vt 0.236569 0.109034
vt 0.236569 0.109123
vt 0.100816 0.351716
vt 0.101062 0.351686
vt 0.101311 0.351714
vt 0.101449 0.351791
vt 0.101369 0.351886
vt 0.101075 0.351932
vt 0.100776 0.351889
vt 0.100686 0.351795
vt 0.100712 0.351933
vt 0.100867 0.351847
vt 0.100813 0.352037
vt 0.101165 0.352085
vt 0.101510 0.352033
vt 0.101598 0.351928
vt 0.101436 0.351844
vt 0.101150 0.351815
vt 0.236173 0.109046
vt 0.236114 0.109133
vt 0.236061 0.109067
vt 0.235992 0.109149
vt 0.236243 0.109083
vt 0.236202 0.109161
vt 0.236585 0.109088
vt 0.236586 0.109164
vn 0.382684 0.000000 -0.923880
vn 0.382684 0.000000 -0.923880
vn 0.382684 0.000000 -0.923880
vn 0.382684 0.000000 -0.923880
vn -0.382684 0.000000 -0.923880
vn -0.382684 0.000000 -0.923880
vn -0.382684 0.000000 -0.923880
vn -0.382684 0.000000 -0.923880
vn -0.923880 0.000000 -0.382683
vn -0.923880 0.000000 -0.382683
vn -0.923880 0.000000 -0.382683
vn -0.923880 0.000000 -0.382683
vn -0.923880 0.000000 0.382683
vn -0.923880 0.000000 0.382683
vn -0.923880 0.000000 0.382683
vn -0.923880 0.000000 0.382683
vn -0.382684 0.000000 0.923880
vn -0.382684 0.000000 0.923880
vn -0.382684 0.000000 0.923880
vn -0.382684 0.000000 0.923880
vn 0.382683 0.000000 0.923880
vn 0.382683 0.000000 0.923880
vn 0.382683 0.000000 0.923880
vn 0.382683 0.000000 0.923880
vn 0.923880 0.000000 0.382683
vn 0.923880 0.000000 0.382683
vn 0.923880 0.000000 0.382683
vn 0.923880 0.000000 0.382683
vn 0.923880 0.000000 -0.382683
vn 0.923880 0.000000 -0.382683
vn 0.923880 0.000000 -0.382683
vn 0.923880 0.000000 -0.382683
vn 0.722439 -0.623325 -0.299244
vn 0.722439 -0.623325 -0.299244
vn 0.722439 -0.623325 -0.299244
vn 0.722439 -0.623325 -0.299244
vn 0.722439 -0.623326 0.299244
vn 0.722439 -0.623326 0.299244
vn 0.722439 -0.623326 0.299244
vn 0.722439 -0.623326 0.299244
vn 0.299244 -0.623325 0.722439
vn 0.299244 -0.623325 0.722439
vn 0.299244 -0.623325 0.722439
vn 0.299244 -0.623325 0.722439
vn -0.299245 -0.623325 0.722440
vn -0.299245 -0.623325 0.722440
vn -0.299245 -0.623325 0.722440
vn -0.299245 -0.623325 0.722440
vn -0.722440 -0.623325 0.299245
vn -0.722440 -0.623325 0.299245
vn -0.722440 -0.623325 0.299245
vn -0.722440 -0.623325 0.299245
vn -0.722440 -0.623325 -0.299245
vn -0.722440 -0.623325 -0.299245
vn -0.722440 -0.623324 -0.299245
vn -0.722440 -0.623324 -0.299245
vn -0.299245 -0.623325 -0.722440
vn -0.299245 -0.623325 -0.722440
vn -0.299245 -0.623325 -0.722440
vn -0.299245 -0.623325 -0.722440
vn 0.299244 -0.623325 -0.722440
vn 0.299244 -0.623325 -0.722440
vn 0.299244 -0.623325 -0.722440
vn 0.299244 -0.623325 -0.722440
vn 0.899441 -0.228480 -0.372561
vn 0.899442 -0.228480 -0.372561
vn 0.899441 -0.228480 -0.372561
vn 0.899441 -0.228480 -0.372561
vn 0.899442 -0.228479 0.372562
vn 0.899442 -0.228479 0.372562
vn 0.899442 -0.228479 0.372562
vn 0.899442 -0.228479 0.372562
vn 0.372561 -0.228482 0.899441
vn 0.372561 -0.228482 0.899441
vn 0.372562 -0.228482 0.899441
vn 0.372561 -0.228482 0.899441
vn -0.372561 -0.228484 0.899441
vn -0.372561 -0.228484 0.899441
vn -0.372561 -0.228484 0.899441
vn -0.372561 -0.228484 0.899441
vn -0.899440 -0.228485 0.372561
vn -0.899440 -0.228485 0.372561
vn -0.899440 -0.228485 0.372561
vn -0.899440 -0.228485 0.372561
vn -0.899440 -0.228485 -0.372561
vn -0.899440 -0.228485 -0.372561
vn -0.899440 -0.228485 -0.372561
vn -0.899440 -0.228485 -0.372561
vn -0.372561 -0.228484 -0.899441
vn -0.372561 -0.228484 -0.899441
vn -0.372561 -0.228484 -0.899441
vn -0.372561 -0.228484 -0.899441
vn 0.372561 -0.228482 -0.899441
vn 0.372561 -0.228482 -0.899441
vn 0.372561 -0.228482 -0.899441
vn 0.372561 -0.228482 -0.899441
vn 0.113085 0.955341 -0.273011
vn 0.113085 0.955341 -0.273011
vn 0.113085 0.955341 -0.273011
vn 0.113085 0.955341 -0.273011
vn -0.113085 0.955341 -0.273011
vn -0.113085 0.955341 -0.273011
vn -0.113085 0.955341 -0.273011
vn -0.113085 0.955341 -0.273011
vn -0.273010 0.955341 -0.113085
vn -0.273010 0.955341 -0.113085
vn -0.273010 0.955341 -0.113085
vn -0.273010 0.955341 -0.113085
vn -0.273010 0.955341 0.113085
vn -0.273010 0.955341 0.113085
vn -0.273010 0.955341 0.113085
vn -0.273010 0.955341 0.113085
vn -0.113085 0.955341 0.273011
vn -0.113085 0.955341 0.273011
vn -0.113085 0.955341 0.273011
vn -0.113085 0.955341 0.273011
vn 0.113085 0.955341 0.273011
vn 0.113085 0.955341 0.273011
vn 0.113085 0.955341 0.273011
vn 0.113085 0.955341 0.273011
vn 0.273012 0.955341 0.113085
vn 0.273012 0.955341 0.113085
vn 0.273012 0.955341 0.113085
vn 0.273012 0.955341 0.113085
vn 0.273012 0.955341 -0.113085
vn 0.273012 0.955341 -0.113085
vn 0.273012 0.955341 -0.113085
vn 0.273012 0.955341 -0.113085
vn -0.346120 0.426573 0.835605
vn -0.346120 0.426573 0.835605
vn -0.346120 0.426573 0.835605
vn -0.346120 0.426573 0.835605
vn 0.346120 0.426574 0.835605
vn 0.346120 0.426574 0.835605
vn 0.346120 0.426574 0.835605
vn 0.346120 0.426574 0.835605
vn 0.835606 0.426573 0.346120
vn 0.835606 0.426573 0.346120
vn 0.835606 0.426573 0.346119
vn 0.835606 0.426573 0.346119
vn 0.835606 0.426573 -0.346120
vn 0.835606 0.426573 -0.346120
vn 0.835606 0.426573 -0.346119
vn 0.835606 0.426573 -0.346119
vn 0.346120 0.426574 -0.835605
vn 0.346120 0.426574 -0.835605
vn 0.346120 0.426574 -0.835605
vn 0.346120 0.426574 -0.835605
vn -0.346120 0.426574 -0.835605
vn -0.346120 0.426574 -0.835605
vn -0.346120 0.426574 -0.835605
vn -0.346120 0.426573 -0.835605
vn -0.835606 0.426572 -0.346120
vn -0.835606 0.426572 -0.346120
vn -0.835606 0.426572 -0.346120
vn -0.835606 0.426572 -0.346120
vn -0.835606 0.426572 0.346120
vn -0.835606 0.426572 0.346120
vn -0.835606 0.426572 0.346120
vn -0.835606 0.426572 0.346120
vn -0.147365 0.922882 0.355770
vn -0.147365 0.922882 0.355770
vn -0.147365 0.922882 0.355770
vn 0.147365 0.922882 0.355770
vn 0.147365 0.922882 0.355771
vn 0.147365 0.922882 0.355770
vn 0.355770 0.922882 0.147365
vn 0.355770 0.922882 0.147365
vn 0.355770 0.922882 0.147365
vn 0.355770 0.922882 -0.147365
vn 0.355770 0.922882 -0.147365
vn 0.355770 0.922882 -0.147365
vn 0.147365 0.922882 -0.355771
vn 0.147365 0.922882 -0.355771
vn 0.147365 0.922882 -0.355771
vn -0.147365 0.922882 -0.355770
vn -0.147365 0.922882 -0.355770
vn -0.147365 0.922882 -0.355770
vn -0.355770 0.922882 -0.147365
vn -0.355770 0.922882 -0.147365
vn -0.355770 0.922882 -0.147365
vn -0.355770 0.922882 0.147365
vn -0.355770 0.922882 0.147365
vn -0.355770 0.922882 0.147365
vn 0.000000 -1.000000 0.000000
vn 0.000000 -1.000000 0.000000
vn 0.000000 -1.000000 0.000000
vn 0.000000 -1.000000 0.000000
vn 0.000000 -1.000000 0.000000
vn 0.000000 -1.000000 0.000000
vn 0.000000 -1.000000 0.000000
vn 0.000000 -1.000000 0.000000
vn 0.000000 -1.000000 0.000000
vn 0.000000 -1.000000 0.000000
vn 0.000000 -1.000000 0.000000
vn 0.000000 -1.000000 0.000000
vn 0.000000 -1.000000 0.000000
vn 0.000000 -1.000000 0.000000
vn 0.000000 -1.000000 0.000000
vn 0.000000 -1.000000 0.000000
vn 0.000000 -1.000000 0.000000
vn 0.000000 -1.000000 0.000000
vn 0.000000 -1.000000 0.000000
vn 0.000000 -1.000000 0.000000
vn 0.000000 -1.000000 0.000000
vn 0.000000 -1.000000 0.000000
vn 0.000000 -1.000000 0.000000
vn 0.000000 -1.000000 0.000000
vn 0.347991 -0.416048 -0.840123
vn 0.347991 -0.416048 -0.840123
vn 0.347991 -0.416048 -0.840123
vn 0.347991 -0.416048 -0.840123
vn -0.347991 -0.416048 -0.840123
vn -0.347991 -0.416048 -0.840123
vn -0.347991 -0.416048 -0.840123
vn -0.347991 -0.416048 -0.840123
vn -0.840123 -0.416047 -0.347992
vn -0.840123 -0.416047 -0.347992
vn -0.840123 -0.416047 -0.347992
vn -0.840123 -0.416047 -0.347992
vn -0.840123 -0.416047 0.347992
vn -0.840123 -0.416047 0.347992
vn -0.840123 -0.416047 0.347992
vn -0.840123 -0.416047 0.347992
vn -0.347991 -0.416048 0.840123
vn -0.347991 -0.416048 0.840123
vn -0.347991 -0.416048 0.840123
vn -0.347991 -0.416048 0.840123
vn 0.347991 -0.416047 0.840124
vn 0.347991 -0.416047 0.840124
vn 0.347991 -0.416047 0.840124
vn 0.347991 -0.416047 0.840124
vn 0.840124 -0.416046 0.347991
vn 0.840124 -0.416046 0.347991
vn 0.840124 -0.416046 0.347991
vn 0.840124 -0.416046 0.347991
vn 0.840123 -0.416048 -0.347991
vn 0.840123 -0.416047 -0.347991
vn 0.840123 -0.416047 -0.347991
vn 0.840123 -0.416048 -0.347991
vn 0.247253 -0.763251 -0.596921
vn 0.247253 -0.763251 -0.596921
vn 0.247253 -0.763251 -0.596921
vn 0.247253 -0.763251 -0.596921
vn -0.247253 -0.763251 -0.596921
vn -0.247253 -0.763251 -0.596921
vn -0.247253 -0.763251 -0.596921
vn -0.247253 -0.763251 -0.596921
vn -0.596921 -0.763251 -0.247253
vn -0.596921 -0.763251 -0.247253
vn -0.596921 -0.763251 -0.247253
vn -0.596921 -0.763251 -0.247253
vn -0.596921 -0.763251 0.247253
vn -0.596921 -0.763251 0.247253
vn -0.596921 -0.763251 0.247253
vn -0.596921 -0.763251 0.247253
vn -0.247253 -0.763251 0.596921
vn -0.247253 -0.763251 0.596921
vn -0.247253 -0.763251 0.596921
vn -0.247253 -0.763251 0.596921
vn 0.247252 -0.763251 0.596921
vn 0.247252 -0.763251 0.596921
vn 0.247253 -0.763251 0.596921
vn 0.247253 -0.763251 0.596921
vn 0.596921 -0.763251 0.247252
vn 0.596921 -0.763251 0.247252
vn 0.596921 -0.763251 0.247252
vn 0.596921 -0.763251 0.247252
vn 0.596921 -0.763251 -0.247252
vn 0.596921 -0.763251 -0.247252
vn 0.596921 -0.763251 -0.247252
vn 0.596921 -0.763251 -0.247252
s off
f 1/1/1 2/2/2 24/3/3 17/4/4
f 2/2/5 3/5/6 23/6/7 24/3/8
f 3/5/9 4/7/10 22/8/11 23/6/12
f 4/7/13 5/9/14 21/10/15 22/8/16
f 5/9/17 6/11/18 20/12/19 21/10/20
f 6/11/21 7/13/22 19/14/23 20/12/24
f 7/13/25 8/15/26 18/16/27 19/14/28
f 8/15/29 1/1/30 17/4/31 18/16/32
f 66/67/33 59/68/34 51/69/35 58/70/36
f 65/71/37 66/67/38 58/70/39 57/72/40
f 64/73/41 65/71/42 57/72/43 56/74/44
f 63/91/45 64/73/46 56/74/47 55/92/48
f 62/93/49 63/91/50 55/92/51 54/94/52
f 61/95/53 62/93/54 54/94/55 53/96/56
f 60/97/57 61/95/58 53/96/59 52/98/60
f 51/69/61 59/68/62 60/97/63 52/98/64
f 50/51/65 43/43/66 9/17/67 16/18/68
f 49/53/69 50/51/70 16/18/71 15/19/72
f 48/54/73 49/53/74 15/19/75 14/20/76
f 47/55/77 48/54/78 14/20/79 13/21/80
f 46/56/81 47/55/82 13/21/83 12/22/84
f 45/57/85 46/56/86 12/22/87 11/23/88
f 44/58/89 45/57/90 11/23/91 10/24/92
f 43/43/93 44/58/94 10/24/95 9/17/96
f 9/17/97 10/24/98 26/66/99 25/59/100
f 10/24/101 11/23/102 27/65/103 26/66/104
f 11/23/105 12/22/106 28/64/107 27/65/108
f 12/22/109 13/21/110 29/63/111 28/64/112
f 13/21/113 14/20/114 30/62/115 29/63/116
f 14/20/117 15/19/118 31/61/119 30/62/120
f 15/19/121 16/18/122 32/60/123 31/61/124
f 16/18/125 9/17/126 25/59/127 32/60/128
f 25/26/129 26/25/130 34/33/131 33/34/132
f 26/25/133 27/27/134 35/35/135 34/33/136
f 27/27/137 28/28/138 36/36/139 35/35/140
f 28/28/141 29/29/142 37/37/143 36/36/144
f 29/29/145 30/30/146 38/38/147 37/37/148
f 30/30/149 31/31/150 39/39/151 38/38/152
f 31/31/153 32/32/154 40/40/155 39/39/156
f 32/32/157 25/26/158 33/34/159 40/40/160
f 33/34/161 34/33/162 41/41/163
f 34/33/164 35/35/165 41/41/166
f 35/35/167 36/36/168 41/41/169
f 36/36/170 37/37/171 41/41/172
f 37/37/173 38/38/174 41/41/175
f 38/38/176 39/39/177 41/41/178
f 39/39/179 40/40/180 41/41/181
f 40/40/182 33/34/183 41/41/184
f 1/1/185 8/15/186 42/42/187
f 8/15/188 7/13/189 42/42/190
f 7/13/191 6/11/192 42/42/193
f 6/11/194 5/9/195 42/42/196
f 5/9/197 4/7/198 42/42/199
f 4/7/200 3/5/201 42/42/202
f 3/5/203 2/2/204 42/42/205
f 2/2/206 1/1/207 42/42/208
f 51/84/209 52/90/210 44/44/211 43/52/212
f 52/90/213 53/89/214 45/45/215 44/44/216
f 53/89/217 54/88/218 46/46/219 45/45/220
f 54/88/221 55/87/222 47/47/223 46/46/224
f 55/87/225 56/86/226 48/48/227 47/47/228
f 56/86/229 57/85/230 49/49/231 48/48/232
f 57/85/233 58/83/234 50/50/235 49/49/236
f 58/83/237 51/84/238 43/52/239 50/50/240
f 17/4/241 24/3/242 60/76/243 59/75/244
f 24/3/245 23/6/246 61/77/247 60/76/248
f 23/6/249 22/8/250 62/78/251 61/77/252
f 22/8/253 21/10/254 63/79/255 62/78/256
f 21/10/257 20/12/258 64/80/259 63/79/260
f 20/12/261 19/14/262 65/81/263 64/80/264
f 19/14/265 18/16/266 66/82/267 65/81/268
f 18/16/269 17/4/270 59/75/271 66/82/272
