# This file uses centimeters as units for non-parametric coordinates.

v -115.401382 0.000000 22.970581
v -101.541100 0.000000 22.970581
v -115.401382 47.458538 14.947052
v -101.541100 47.458538 14.947052
v -115.401382 47.458538 -14.946899
v -101.541100 47.458538 -14.946899
v -115.401382 0.000000 -22.970428
v -101.541100 0.000000 -22.970428
v -115.401382 10.593981 22.970581
v -101.541100 10.593981 22.970581
v -101.541100 10.593981 -22.970428
v -115.401382 10.593981 -22.970428
v -115.401382 14.126711 -16.920013
v -101.541100 14.126711 -16.920013
v -101.541100 14.126725 16.920013
v -115.401382 14.126725 16.920013
v -115.401382 19.214085 -14.946899
v -101.541100 19.214085 -14.946899
v -101.541100 19.214092 14.947052
v -115.401382 19.214092 14.947052
v 101.548424 0.000000 22.970581
v 115.408775 0.000000 22.970581
v 101.548424 47.458538 14.947052
v 115.408775 47.458538 14.947052
v 101.548424 47.458538 -14.946899
v 115.408775 47.458538 -14.946899
v 101.548424 0.000000 -22.970428
v 115.408775 0.000000 -22.970428
v 101.548424 10.593981 22.970581
v 115.408775 10.593981 22.970581
v 115.408775 10.593981 -22.970428
v 101.548424 10.593981 -22.970428
v 101.548424 14.126711 -16.920013
v 115.408775 14.126711 -16.920013
v 115.408775 14.126725 16.920013
v 101.548424 14.126725 16.920013
v 101.548424 19.214085 -14.946899
v 115.408775 19.214085 -14.946899
v 115.408775 19.214092 14.947052
v 101.548424 19.214092 14.947052
v -120.069916 21.758665 5.921783
v 120.069916 21.758665 5.921783
v -120.069916 30.747324 5.921783
v 120.069916 27.624519 5.921783
v -120.069916 30.747322 -0.982431
v 120.069916 30.747324 -6.827393
v -120.069916 21.758665 -6.827393
v 120.069916 21.758665 -6.827393
v 120.069916 30.747324 1.629181
v 113.932808 30.747324 5.921783
v 26.042030 30.747324 5.921783
v 69.220581 30.747324 5.921783
v 55.635761 30.747324 3.076019
v 55.856472 26.800528 5.921783
v -50.639633 30.747324 -6.827393
v -13.444328 30.747335 -6.827393
v -30.953102 30.747324 -3.920593
v -32.105637 27.760723 -6.827393
v -123.435089 46.928696 21.658173
v 123.435089 46.928696 21.658173
v -116.288536 54.361595 21.658171
v 123.435089 51.779297 21.658173
v -123.435089 54.361599 -18.566082
v 123.435089 54.361599 -18.992762
v -123.435089 46.928696 -22.438660
v 123.435089 46.928696 -22.438660
v 123.435089 54.361599 6.810760
v 117.126015 54.361599 21.658173
v -71.127419 54.361599 21.658173
v 57.592361 54.361599 21.658173
v -40.704224 54.361599 18.450073
v 31.104004 54.361599 16.938189
v -40.477333 51.097912 21.658173
v 32.507690 51.317398 21.658173
v -73.102951 54.361599 -22.438660
v -34.865246 54.361610 -22.438660
v -52.864677 54.361599 -18.063812
v -54.049408 51.891914 -22.438660
v -123.435089 50.870422 21.658173
v -123.435089 54.361595 16.940144
v -120.069916 27.973476 -6.827393
v -118.326431 30.747324 -6.827393
v -123.435089 50.396633 -22.438660
v -104.984612 54.361599 -22.438660
v 123.435081 48.958542 -22.438660
v 110.803627 54.361599 -22.438658
v 30.428352 54.361603 -20.229862
v 30.611908 46.928696 -22.438660
vt 0.103141 0.229763
vt 0.103124 0.229799
vt 0.103111 0.229711
vt 0.103129 0.229677
vt 0.103127 0.229055
vt 0.103108 0.229077
vt 0.103047 0.229004
vt 0.103066 0.228984
vt 0.103063 0.229555
vt 0.103046 0.229584
vt 0.103036 0.229621
vt 0.103053 0.229592
vt 0.103053 0.229759
vt 0.103036 0.229791
vt 0.103123 0.229985
vt 0.103141 0.229946
vt 0.103067 0.229478
vt 0.103049 0.229505
vt 0.103107 0.229612
vt 0.103125 0.229580
vt 0.103141 0.229763
vt 0.103124 0.229799
vt 0.103111 0.229711
vt 0.103129 0.229677
vt 0.103127 0.229055
vt 0.103108 0.229077
vt 0.103047 0.229004
vt 0.103066 0.228984
vt 0.103063 0.229555
vt 0.103046 0.229584
vt 0.103036 0.229621
vt 0.103053 0.229592
vt 0.103053 0.229759
vt 0.103036 0.229791
vt 0.103123 0.229985
vt 0.103141 0.229946
vt 0.103067 0.229478
vt 0.103049 0.229505
vt 0.103107 0.229612
vt 0.103125 0.229580
vt 0.103263 0.228754
vt 0.103265 0.228725
vt 0.103262 0.228745
vt 0.103307 0.228583
vt 0.103296 0.228632
vt 0.103267 0.228832
vt 0.103262 0.228766
vt 0.103301 0.228534
vt 0.103301 0.228511
vt 0.103304 0.228537
vt 0.103293 0.228559
vt 0.103289 0.228594
vt 0.103295 0.228624
vt 0.103288 0.228599
vt 0.103267 0.228806
vt 0.103275 0.228669
vt 0.103292 0.228647
vt 0.103299 0.228609
vt 0.103263 0.228754
vt 0.103265 0.228725
vt 0.103262 0.228745
vt 0.103307 0.228583
vt 0.103296 0.228632
vt 0.103267 0.228832
vt 0.103262 0.228766
vt 0.103301 0.228534
vt 0.103300 0.228517
vt 0.103306 0.228555
vt 0.103293 0.228559
vt 0.103289 0.228594
vt 0.103295 0.228624
vt 0.103299 0.228609
vt 0.103288 0.228599
vt 0.103266 0.228799
vt 0.103277 0.228660
vt 0.103277 0.228667
vt 0.103273 0.228679
vt 0.103292 0.228647
vt 0.103301 0.228522
vt 0.103302 0.228516
vt 0.103307 0.228566
vt 0.103306 0.228560
vt 0.101613 0.254052
vt 0.101618 0.254065
vt 0.101603 0.254069
vt 0.102472 0.254397
vt 0.101638 0.254069
vt 0.101605 0.254088
vt 0.102447 0.254429
vt 0.101883 0.254170
vt 0.101789 0.254146
vt 0.101796 0.254128
vt 0.101747 0.254116
vt 0.102117 0.254236
vt 0.102107 0.254229
vt 0.102050 0.254199
vt 0.102188 0.254252
vt 0.102468 0.254378
vt 0.102471 0.254361
vt 0.102477 0.254374
vt 0.101579 0.253975
vt 0.101554 0.254004
vt 0.101538 0.254006
vt 0.102538 0.254271
vt 0.101660 0.253960
vt 0.101541 0.254023
vt 0.102452 0.254380
vt 0.102215 0.254256
vt 0.102086 0.254220
vt 0.102112 0.254187
vt 0.101846 0.254090
vt 0.101817 0.254115
vt 0.101734 0.254072
vt 0.102243 0.254147
vt 0.102230 0.254144
vt 0.102170 0.254112
vt 0.102322 0.254164
vt 0.102468 0.254337
vt 0.102455 0.254364
vt 0.102423 0.254336
vt 0.103307 0.228572
vt 0.103304 0.228577
vt 0.099900 0.252509
vt 0.100900 0.252322
vt 0.099997 0.252791
vt 0.103267 0.228824
vt 0.103269 0.228793
vt 0.101404 0.254429
vt 0.100777 0.253429
vt 0.101719 0.253887
vt 0.103282 0.228713
vt 0.103282 0.228738
vt 0.101989 0.254075
vn 0.000000 0.863577 0.504217
vn 0.000000 0.863577 0.504217
vn 0.000000 0.863577 0.504217
vn 0.000000 0.863577 0.504217
vn 0.000000 1.000000 0.000000
vn 0.000000 1.000000 0.000000
vn 0.000000 1.000000 0.000000
vn 0.000000 1.000000 0.000000
vn 0.000000 0.863573 -0.504225
vn 0.000000 0.863573 -0.504225
vn 0.000000 0.863573 -0.504225
vn 0.000000 0.863573 -0.504225
vn 0.000000 -1.000000 0.000000
vn 0.000000 -1.000000 0.000000
vn 0.000000 -1.000000 0.000000
vn 0.000000 -1.000000 0.000000
vn 1.000000 0.000001 0.000000
vn 1.000000 0.000001 0.000000
vn 1.000000 0.000001 0.000000
vn 1.000000 0.000001 0.000000
vn -1.000000 0.000000 0.000000
vn -1.000000 0.000000 0.000000
vn -1.000000 0.000000 0.000000
vn -1.000000 0.000000 0.000000
vn 0.000000 0.000000 1.000000
vn 0.000000 0.000000 1.000000
vn 0.000000 0.000000 1.000000
vn 0.000000 0.000000 1.000000
vn 1.000000 0.000000 0.000000
vn 1.000000 0.000000 0.000000
vn 1.000000 0.000000 0.000000
vn 1.000000 0.000000 0.000000
vn 0.000000 0.000000 -1.000000
vn 0.000000 0.000000 -1.000000
vn 0.000000 0.000000 -1.000000
vn 0.000000 0.000000 -1.000000
vn -1.000000 0.000000 0.000000
vn -1.000000 0.000000 0.000000
vn -1.000000 0.000000 0.000000
vn -1.000000 0.000000 0.000000
vn 0.000000 0.361601 -0.932333
vn 0.000000 0.361601 -0.932333
vn 0.000000 0.361601 -0.932333
vn 0.000000 0.361601 -0.932333
vn 1.000000 0.000000 0.000000
vn 1.000000 0.000000 0.000000
vn 1.000000 0.000000 0.000000
vn 1.000000 0.000000 0.000000
vn 0.000000 0.361577 0.932342
vn 0.000000 0.361577 0.932342
vn 0.000000 0.361577 0.932342
vn 0.000000 0.361577 0.932342
vn -1.000000 0.000001 0.000000
vn -1.000000 0.000001 0.000000
vn -1.000000 0.000001 0.000000
vn -1.000000 0.000001 0.000000
vn 0.000000 0.000000 -1.000000
vn 0.000000 0.000000 -1.000000
vn 0.000000 0.000000 -1.000000
vn 0.000000 0.000000 -1.000000
vn 1.000000 0.000000 0.000000
vn 1.000000 0.000000 0.000000
vn 1.000000 0.000000 0.000000
vn 1.000000 0.000000 0.000000
vn 0.000000 0.000000 1.000000
vn 0.000000 0.000000 1.000000
vn 0.000000 0.000000 1.000000
vn 0.000000 0.000000 1.000000
vn -1.000000 0.000000 0.000000
vn -1.000000 0.000000 0.000000
vn -1.000000 0.000000 0.000000
vn -1.000000 0.000000 0.000000
vn 0.000000 0.863577 0.504217
vn 0.000000 0.863577 0.504217
vn 0.000000 0.863577 0.504217
vn 0.000000 0.863577 0.504217
vn 0.000000 1.000000 0.000000
vn 0.000000 1.000000 0.000000
vn 0.000000 1.000000 0.000000
vn 0.000000 1.000000 0.000000
vn 0.000000 0.863573 -0.504225
vn 0.000000 0.863573 -0.504225
vn 0.000000 0.863573 -0.504225
vn 0.000000 0.863573 -0.504225
vn 0.000000 -1.000000 0.000000
vn 0.000000 -1.000000 0.000000
vn 0.000000 -1.000000 0.000000
vn 0.000000 -1.000000 0.000000
vn 1.000000 0.000000 0.000000
vn 1.000000 0.000000 0.000000
vn 1.000000 0.000000 0.000000
vn 1.000000 0.000000 0.000000
vn -1.000000 -0.000002 0.000000
vn -1.000000 -0.000002 0.000000
vn -1.000000 -0.000002 0.000000
vn -1.000000 -0.000002 0.000000
vn 0.000000 0.000000 1.000000
vn 0.000000 0.000000 1.000000
vn 0.000000 0.000000 1.000000
vn 0.000000 0.000000 1.000000
vn 1.000000 0.000000 0.000000
vn 1.000000 0.000000 0.000000
vn 1.000000 0.000000 0.000000
vn 1.000000 0.000000 0.000000
vn 0.000000 0.000000 -1.000000
vn 0.000000 0.000000 -1.000000
vn 0.000000 0.000000 -1.000000
vn 0.000000 0.000000 -1.000000
vn -1.000000 0.000000 0.000000
vn -1.000000 0.000000 0.000000
vn -1.000000 0.000000 0.000000
vn -1.000000 0.000000 0.000000
vn 0.000000 0.361601 -0.932333
vn 0.000000 0.361601 -0.932333
vn 0.000000 0.361601 -0.932333
vn 0.000000 0.361601 -0.932333
vn 1.000000 -0.000000 0.000000
vn 1.000000 -0.000000 0.000000
vn 1.000000 -0.000000 0.000000
vn 1.000000 -0.000000 0.000000
vn 0.000000 0.361577 0.932342
vn 0.000000 0.361577 0.932342
vn 0.000000 0.361577 0.932342
vn 0.000000 0.361577 0.932342
vn -1.000000 -0.000000 0.000000
vn -1.000000 -0.000000 0.000000
vn -1.000000 -0.000000 0.000000
vn -1.000000 -0.000000 0.000000
vn 0.000000 0.000000 -1.000000
vn 0.000000 0.000000 -1.000000
vn 0.000000 0.000000 -1.000000
vn 0.000000 0.000000 -1.000000
vn 1.000000 0.000000 0.000000
vn 1.000000 0.000000 0.000000
vn 1.000000 0.000000 0.000000
vn 1.000000 0.000000 0.000000
vn 0.000000 0.000000 1.000000
vn 0.000000 0.000000 1.000000
vn 0.000000 0.000000 1.000000
vn 0.000000 0.000000 1.000000
vn -1.000000 0.000000 0.000000
vn -1.000000 0.000000 0.000000
vn -1.000000 0.000000 0.000000
vn -1.000000 0.000000 0.000000
vn 0.380521 0.747821 0.544029
vn 0.380521 0.747821 0.544029
vn 0.380521 0.747821 0.544029
vn 0.000000 0.000000 -1.000000
vn 0.000000 0.000000 -1.000000
vn 0.000000 0.000000 -1.000000
vn 0.000000 -1.000000 0.000000
vn 0.000000 -1.000000 0.000000
vn 0.000000 -1.000000 0.000000
vn 0.000000 -1.000000 0.000000
vn -1.000000 -0.000001 0.000000
vn -1.000000 -0.000001 0.000000
vn -1.000000 -0.000001 0.000000
vn -1.000000 -0.000001 0.000000
vn -1.000000 0.000000 0.000000
vn -1.000000 0.000000 0.000000
vn -1.000000 0.000000 0.000000
vn 0.000000 1.000000 0.000000
vn 0.000000 1.000000 0.000000
vn 0.000000 1.000000 0.000000
vn 0.000000 1.000000 0.000000
vn 0.077566 0.585944 0.806631
vn 0.077566 0.585944 0.806631
vn 0.077566 0.585944 0.806631
vn 1.000000 0.000000 0.000000
vn 1.000000 0.000000 0.000000
vn 1.000000 0.000000 0.000000
vn 1.000000 0.000000 0.000000
vn 1.000000 0.000000 0.000000
vn 1.000000 0.000000 0.000000
vn 1.000000 0.000000 0.000000
vn 0.000000 0.000000 1.000000
vn 0.000000 0.000000 1.000000
vn 0.000000 0.000000 1.000000
vn 0.000000 0.000000 1.000000
vn -0.168422 0.570286 0.803995
vn -0.168422 0.570286 0.803995
vn -0.168422 0.570286 0.803995
vn -0.000000 0.000000 1.000000
vn -0.000000 0.000000 1.000000
vn -0.000000 0.000000 1.000000
vn -0.000000 0.000000 1.000000
vn 0.000000 0.000000 1.000000
vn 0.000000 0.000000 1.000000
vn 0.000000 0.000000 1.000000
vn -0.114465 0.715217 -0.689466
vn -0.114465 0.715217 -0.689466
vn -0.114465 0.715217 -0.689466
vn 0.108224 0.671609 -0.732959
vn 0.108224 0.671609 -0.732959
vn 0.108224 0.671609 -0.732959
vn 0.000000 1.000000 0.000001
vn 0.000000 1.000000 0.000001
vn 0.000000 1.000000 0.000001
vn 0.000000 1.000000 0.000001
vn -0.820873 0.515958 -0.244856
vn -0.820873 0.515958 -0.244856
vn -0.820873 0.515958 -0.244856
vn 0.000000 0.000000 -1.000000
vn 0.000000 0.000000 -1.000000
vn 0.000000 0.000000 -1.000000
vn 0.000000 0.000000 -1.000000
vn 0.000000 1.000000 0.000001
vn 0.000000 1.000000 0.000001
vn 0.000000 1.000000 0.000001
vn 0.000000 1.000000 -0.000000
vn 0.000000 1.000000 -0.000000
vn 0.000000 1.000000 -0.000000
vn 0.000000 1.000000 -0.000000
vn -0.000000 1.000000 -0.000001
vn -0.000000 1.000000 -0.000001
vn -0.000000 1.000000 -0.000001
vn -0.000000 1.000000 -0.000001
vn 0.000000 1.000000 0.000001
vn 0.000000 1.000000 0.000001
vn 0.000000 1.000000 0.000001
vn 0.373984 0.913719 0.158916
vn 0.373984 0.913719 0.158916
vn 0.373984 0.913719 0.158916
vn 0.000000 0.000000 -1.000000
vn 0.000000 0.000000 -1.000000
vn 0.000000 0.000000 -1.000000
vn 0.000000 0.000000 -1.000000
vn 0.000000 -1.000000 0.000000
vn 0.000000 -1.000000 0.000000
vn 0.000000 -1.000000 0.000000
vn 0.000000 -1.000000 0.000000
vn -1.000000 -0.000003 0.000000
vn -1.000000 -0.000003 0.000000
vn -1.000000 -0.000003 0.000000
vn -1.000000 -0.000003 0.000000
vn 0.074717 0.701685 0.708559
vn 0.074717 0.701685 0.708559
vn 0.074717 0.701685 0.708559
vn 1.000000 -0.000002 -0.000000
vn 1.000000 -0.000002 -0.000000
vn 1.000000 -0.000002 -0.000000
vn 1.000000 -0.000002 -0.000000
vn 0.000000 0.000000 1.000000
vn 0.000000 0.000000 1.000000
vn 0.000000 0.000000 1.000000
vn -0.000000 0.000000 1.000000
vn -0.000000 0.000000 1.000000
vn -0.000000 0.000000 1.000000
vn -0.000000 0.000000 1.000000
vn -0.099804 0.822395 0.560094
vn -0.099804 0.822395 0.560094
vn -0.099804 0.822395 0.560094
vn 0.005307 0.783051 0.621934
vn 0.005307 0.783051 0.621934
vn 0.005307 0.783051 0.621934
vn 0.005307 0.783051 0.621934
vn 0.000000 0.000000 1.000000
vn 0.000000 0.000000 1.000000
vn 0.000000 0.000000 1.000000
vn 0.000000 0.000000 1.000000
vn 0.000000 0.000000 1.000000
vn 0.000000 0.000000 1.000000
vn 0.000000 0.000000 1.000000
vn -0.000000 0.000000 1.000000
vn -0.000000 0.000000 1.000000
vn -0.000000 0.000000 1.000000
vn -0.000000 0.000000 1.000000
vn 0.000000 1.000000 0.000000
vn 0.000000 1.000000 0.000000
vn 0.000000 1.000000 0.000000
vn -0.113035 0.878035 -0.465056
vn -0.113035 0.878035 -0.465056
vn -0.113035 0.878035 -0.465056
vn 0.110485 0.852386 -0.511108
vn 0.110485 0.852386 -0.511108
vn 0.110485 0.852386 -0.511108
vn -0.000000 1.000000 0.000000
vn -0.000000 1.000000 0.000000
vn -0.000000 1.000000 0.000000
vn -0.000000 1.000000 0.000000
vn -0.148489 0.690977 -0.707462
vn -0.148489 0.690977 -0.707462
vn -0.148489 0.690977 -0.707462
vn 0.020447 0.180123 -0.983432
vn 0.020447 0.180123 -0.983432
vn 0.020447 0.180123 -0.983432
vn 0.020447 0.180123 -0.983432
vn 0.000000 0.000000 1.000000
vn 0.000000 0.000000 1.000000
vn 0.000000 0.000000 1.000000
vn -0.365520 0.748232 0.553664
vn -0.365520 0.748232 0.553664
vn -0.365520 0.748232 0.553664
vn -0.000000 1.000000 0.000000
vn -0.000000 1.000000 0.000000
vn -0.000000 1.000000 0.000000
vn -0.000000 1.000000 0.000000
vn 0.000000 1.000000 0.000000
vn 0.000000 1.000000 0.000000
vn 0.000000 1.000000 0.000000
vn 0.000000 1.000000 0.000000
vn 0.000000 0.000000 -1.000000
vn 0.000000 0.000000 -1.000000
vn 0.000000 0.000000 -1.000000
vn 0.000000 0.000000 -1.000000
vn 0.000000 0.000000 -1.000000
vn 0.000000 0.000000 -1.000000
vn 0.000000 0.000000 -1.000000
vn -1.000000 0.000000 0.000000
vn -1.000000 0.000000 0.000000
vn -1.000000 0.000000 0.000000
vn -1.000000 0.000000 0.000000
vn 0.000000 0.000000 -1.000000
vn 0.000000 0.000000 -1.000000
vn 0.000000 0.000000 -1.000000
vn 0.000000 0.000000 -1.000000
vn -0.000000 1.000000 0.000000
vn -0.000000 1.000000 0.000000
vn -0.000000 1.000000 0.000000
vn -0.000000 1.000000 0.000000
vn 0.000000 1.000000 0.000000
vn 0.000000 1.000000 0.000000
vn 0.000000 1.000000 0.000000
vn 0.000000 1.000000 0.000000
vn 0.000000 1.000000 -0.000000
vn 0.000000 1.000000 -0.000000
vn 0.000000 1.000000 -0.000000
vn 0.224154 0.524035 -0.821670
vn 0.224154 0.524035 -0.821670
vn 0.224154 0.524035 -0.821670
vn 1.000000 0.000000 -0.000000
vn 1.000000 0.000000 -0.000000
vn 1.000000 0.000000 -0.000000
vn 1.000000 0.000000 -0.000000
vn 0.000001 0.000000 -1.000000
vn 0.000001 0.000000 -1.000000
vn 0.000001 0.000000 -1.000000
vn 0.000000 1.000000 0.000000
vn 0.000000 1.000000 0.000000
vn 0.000000 1.000000 0.000000
vn 0.000000 1.000000 0.000000
vn -0.012633 0.136294 -0.990588
vn -0.012633 0.136294 -0.990588
vn -0.012633 0.136294 -0.990588
vn -0.012633 0.136294 -0.990588
vn 0.000000 -1.000000 0.000000
vn 0.000000 -1.000000 0.000000
vn 0.000000 -1.000000 0.000000
s off
f 9/1/1 10/2/2 15/3/3 16/4/4
f 3/5/5 4/6/6 6/7/7 5/8/8
f 13/9/9 14/10/10 11/11/11 12/12/12
f 7/13/13 8/14/14 2/15/15 1/16/16
f 10/2/17 11/11/18 14/10/19 15/3/20
f 12/12/21 9/1/22 16/4/23 13/9/24
f 1/16/25 2/15/26 10/2/27 9/1/28
f 2/15/29 8/14/30 11/11/31 10/2/32
f 12/12/33 11/11/34 8/14/35 7/13/36
f 7/13/37 1/16/38 9/1/39 12/12/40
f 17/17/41 18/18/42 14/10/43 13/9/44
f 15/3/45 14/10/46 18/18/47 19/19/48
f 16/4/49 15/3/50 19/19/51 20/20/52
f 13/9/53 16/4/54 20/20/55 17/17/56
f 5/8/57 6/7/58 18/18/59 17/17/60
f 19/19/61 18/18/62 6/7/63 4/6/64
f 20/20/65 19/19/66 4/6/67 3/5/68
f 17/17/69 20/20/70 3/5/71 5/8/72
f 29/21/73 30/22/74 35/23/75 36/24/76
f 23/25/77 24/26/78 26/27/79 25/28/80
f 33/29/81 34/30/82 31/31/83 32/32/84
f 27/33/85 28/34/86 22/35/87 21/36/88
f 30/22/89 31/31/90 34/30/91 35/23/92
f 32/32/93 29/21/94 36/24/95 33/29/96
f 21/36/97 22/35/98 30/22/99 29/21/100
f 22/35/101 28/34/102 31/31/103 30/22/104
f 32/32/105 31/31/106 28/34/107 27/33/108
f 27/33/109 21/36/110 29/21/111 32/32/112
f 37/37/113 38/38/114 34/30/115 33/29/116
f 35/23/117 34/30/118 38/38/119 39/39/120
f 36/24/121 35/23/122 39/39/123 40/40/124
f 33/29/125 36/24/126 40/40/127 37/37/128
f 25/28/129 26/27/130 38/38/131 37/37/132
f 39/39/133 38/38/134 26/27/135 24/26/136
f 40/40/137 39/39/138 24/26/139 23/25/140
f 37/37/141 40/40/142 23/25/143 25/28/144
f 49/83/145 50/84/146 44/85/147
f 47/44/148 58/45/149 48/46/150
f 47/86/151 48/87/152 42/88/153 41/89/154
f 81/81/155 47/44/156 41/48/157 45/50/158
f 41/48/159 43/49/160 45/50/161
f 43/49/162 51/51/163 53/52/164 57/53/165
f 51/90/166 54/91/167 53/92/168
f 44/43/169 42/47/170 48/46/171 49/41/172
f 48/46/173 46/55/174 49/41/175
f 41/48/176 54/54/177 51/51/178 43/49/179
f 53/92/180 54/91/181 52/93/182
f 52/56/183 54/54/184 42/47/185 44/43/186
f 44/43/187 50/42/188 52/56/189
f 58/94/190 57/95/191 56/96/192
f 55/97/193 57/95/194 58/94/195
f 57/53/196 53/52/197 46/55/198 56/57/199
f 45/98/200 82/99/201 81/100/202
f 48/46/203 58/45/204 56/57/205 46/55/206
f 53/52/207 52/56/208 46/55/209
f 49/41/210 46/55/211 52/56/212 50/42/213
f 43/49/214 57/53/215 55/58/216 45/50/217
f 55/58/218 82/82/219 45/50/220
f 67/101/221 68/102/222 62/103/223
f 78/63/224 88/132/225 65/62/226 83/121/227
f 65/104/228 88/133/229 60/106/230 59/107/231
f 79/79/232 80/80/233 63/68/234 83/121/235
f 69/108/236 73/109/237 71/110/238
f 67/59/239 62/61/240 85/126/241 64/74/242
f 73/73/243 69/69/244 59/66/245
f 79/79/246 59/66/247 69/69/248 61/67/249
f 72/111/250 74/112/251 70/113/252
f 71/110/253 73/109/254 74/112/255 72/111/256
f 74/76/257 60/65/258 70/77/259
f 70/77/260 60/65/261 62/61/262 68/60/263
f 59/66/264 60/65/265 74/76/266 73/73/267
f 70/77/268 68/60/269 67/59/270
f 78/114/271 77/115/272 76/116/273
f 75/117/274 77/115/275 78/114/276
f 76/78/277 77/71/278 71/70/279 72/75/280
f 63/123/281 84/124/282 83/125/283
f 87/131/284 88/132/285 78/63/286 76/78/287
f 41/48/288 42/47/289 54/54/290
f 80/118/291 79/119/292 61/120/293
f 61/67/294 69/69/295 75/72/296 84/122/297
f 75/72/298 69/69/299 71/70/300 77/71/301
f 58/45/302 47/44/303 55/58/304
f 55/58/305 47/44/306 81/81/307 82/82/308
f 83/121/309 65/62/310 59/66/311 79/79/312
f 83/121/313 84/122/314 75/72/315 78/63/316
f 80/80/317 61/67/318 84/122/319 63/68/320
f 64/74/321 72/75/322 70/77/323 67/59/324
f 72/75/325 87/131/326 76/78/327
f 85/128/328 86/129/329 64/130/330
f 85/126/331 62/61/332 60/65/333 66/64/334
f 66/64/335 86/127/336 85/126/337
f 64/74/338 86/127/339 87/131/340 72/75/341
f 66/64/342 88/132/343 87/131/344 86/127/345
f 60/106/346 88/133/347 66/105/348
