# This file uses centimeters as units for non-parametric coordinates.

v -60.930710 4.138640 40.237705
v 61.982498 4.138640 40.237705
v -60.930710 4.138640 -41.186783
v 61.982498 3.368103 -41.186783
v -61.982513 4.138640 -13.497852
v 62.186981 4.138640 -29.432213
v 67.427887 1.272102 -32.346497
v 67.006783 0.000001 -32.144485
v 64.888832 0.000001 -28.729473
v -67.006805 0.000001 -16.727409
v -67.427902 1.272102 -16.832542
v 67.006783 0.000001 -22.092911
v 67.427887 1.272102 -22.406403
v 64.492485 2.758425 -29.064493
v -44.217896 4.052091 -15.276543
v 48.858719 4.052091 -1.868864
v 41.863113 3.390299 -29.810314
v -46.674210 2.765236 -30.381552
v -48.192238 2.765236 31.806038
v 48.883381 4.052091 30.131170
v 10.814743 4.138640 40.237705
v -13.454624 4.138640 -40.229801
v -14.702301 1.272102 -46.205116
v -14.516266 0.000000 -45.916557
v 12.558596 1.272102 45.256042
v 12.574375 0.000000 44.973389
v -6.721231 4.329101 -14.505850
v -9.775002 4.052091 -29.229712
v 8.308802 4.052091 31.806038
v 12.265953 2.574130 8.850185
v -25.671822 3.779271 12.108522
v -22.159916 4.052091 30.629583
v -21.122381 3.534901 39.395340
v -3.422239 4.138640 41.186787
v -18.727150 1.272102 46.205090
v -18.610674 0.000000 45.916546
v 67.118423 1.648303 -44.904461
v 66.699257 0.000001 -44.624004
v 57.347679 0.000000 -38.847507
v -65.075424 1.272102 -44.904461
v -64.669006 0.000001 -44.624004
v -56.122414 0.000000 -38.847507
v 66.199379 1.406702 43.193474
v 66.699257 0.000000 43.680809
v 57.347679 0.000000 37.898331
v -65.088417 1.272102 43.993736
v -64.681923 0.000000 43.718987
v -56.122414 0.000000 37.898331
v 62.092926 4.138640 2.613674
v 67.427887 1.272102 13.494656
v 67.006783 0.000001 15.317513
v -29.528353 4.138640 41.116577
vt 0.922871 0.179468
vt 0.862018 0.178925
vt 0.863145 0.173999
vt 0.927579 0.175894
vt 0.796822 0.238457
vt 0.841492 0.237506
vt 0.837864 0.253054
vt 0.793789 0.254329
vt 0.768977 0.240101
vt 0.773066 0.236649
vt 0.774685 0.266338
vt 0.769341 0.270739
vt 0.769238 0.270626
vt 0.831414 0.270698
vt 0.907405 0.183243
vt 0.927567 0.268910
vt 0.928263 0.269059
vt 0.928383 0.255852
vt 0.908854 0.183004
vt 0.908842 0.181717
vt 0.907880 0.181699
vt 0.906469 0.182750
vt 0.922993 0.265342
vt 0.833563 0.264690
vt 0.923515 0.252997
vt 0.925627 0.252517
vt 0.907325 0.181685
vt 0.906665 0.181827
vt 0.908670 0.181820
vt 0.917209 0.251115
vt 0.899039 0.253428
vt 0.774067 0.179939
vt 0.791693 0.188911
vt 0.818692 0.209498
vt 0.822831 0.189934
vt 0.859056 0.188576
vt 0.863428 0.212830
vt 0.923218 0.219166
vt 0.928120 0.207802
vt 0.928326 0.245430
vt 0.908854 0.182833
vt 0.908850 0.182198
vt 0.908676 0.183114
vt 0.768605 0.175078
vt 0.768707 0.174941
vt 0.908816 0.182946
vt 0.823293 0.181571
vt 0.842485 0.180049
vt 0.907464 0.223949
vt 0.907313 0.190187
vt 0.826197 0.175151
vt 0.814034 0.180179
vt 0.927586 0.205850
vt 0.927058 0.176032
vt 0.906506 0.181725
vt 0.825947 0.175295
vt 0.906513 0.183224
vt 0.831263 0.270581
vt 0.768882 0.240066
vt 0.908850 0.183216
vt 0.927859 0.255775
vt 0.862909 0.174141
vt 0.927802 0.245199
vt 0.925328 0.252190
vt 0.920843 0.251103
vt 0.920831 0.248759
vt 0.906671 0.183121
vt 0.917199 0.248771
vn 0.010151 0.821941 0.569482
vn 0.010151 0.821941 0.569482
vn 0.010151 0.821941 0.569482
vn 0.010151 0.821941 0.569482
vn -0.019733 0.998618 -0.048710
vn -0.019733 0.998618 -0.048710
vn -0.019733 0.998618 -0.048710
vn -0.019733 0.998618 -0.048710
vn -0.496367 0.867584 -0.030304
vn -0.496367 0.867584 -0.030304
vn -0.496367 0.867584 -0.030304
vn -0.496367 0.867584 -0.030304
vn -0.025134 -0.223761 -0.974320
vn -0.025134 -0.223761 -0.974320
vn -0.025134 -0.223761 -0.974320
vn -0.025134 -0.223761 -0.974320
vn 0.959406 -0.280650 -0.027859
vn 0.959406 -0.280650 -0.027859
vn 0.959406 -0.280650 -0.027859
vn 0.959406 -0.280650 -0.027859
vn 0.030911 0.082064 0.996148
vn 0.030911 0.082064 0.996148
vn 0.030911 0.082064 0.996148
vn 0.030911 0.082064 0.996148
vn -0.944390 -0.319160 -0.079142
vn -0.944390 -0.319160 -0.079142
vn -0.944390 -0.319160 -0.079142
vn -0.944390 -0.319160 -0.079142
vn 0.003200 0.904412 -0.426648
vn 0.003200 0.904412 -0.426648
vn 0.003200 0.904412 -0.426648
vn 0.003200 0.904412 -0.426648
vn 0.520166 0.851598 -0.064873
vn 0.520166 0.851598 -0.064873
vn 0.520166 0.851598 -0.064873
vn 0.000000 -1.000000 0.000000
vn 0.000000 -1.000000 0.000000
vn 0.000000 -1.000000 0.000000
vn 0.000000 -1.000000 0.000000
vn -0.000000 -1.000000 0.000000
vn -0.000000 -1.000000 0.000000
vn -0.000000 -1.000000 0.000000
vn 0.011406 0.999872 0.011256
vn 0.011406 0.999872 0.011256
vn 0.011406 0.999872 0.011256
vn 0.011406 0.999872 0.011256
vn 0.054467 0.998009 -0.031799
vn 0.054467 0.998009 -0.031799
vn 0.054467 0.998009 -0.031799
vn 0.054467 0.998009 -0.031799
vn 0.052568 0.998515 0.014269
vn 0.052568 0.998515 0.014269
vn 0.052568 0.998515 0.014269
vn 0.052568 0.998515 0.014269
vn 0.016321 0.998985 -0.041993
vn 0.016321 0.998985 -0.041993
vn 0.016321 0.998985 -0.041993
vn 0.016321 0.998985 -0.041993
vn 0.475709 0.879602 0.000658
vn 0.475709 0.879602 0.000658
vn 0.475709 0.879602 0.000658
vn 0.475709 0.879602 0.000658
vn 0.949338 -0.314258 -0.000000
vn 0.949338 -0.314258 -0.000000
vn 0.949338 -0.314258 -0.000000
vn 0.949338 -0.314258 -0.000000
vn 0.000000 -1.000000 0.000000
vn 0.000000 -1.000000 0.000000
vn 0.000000 -1.000000 0.000000
vn 0.000000 -1.000000 0.000000
vn -0.000000 -1.000000 -0.000000
vn -0.000000 -1.000000 -0.000000
vn -0.000000 -1.000000 -0.000000
vn -0.949599 -0.311334 0.036523
vn -0.949599 -0.311334 0.036523
vn -0.949598 -0.311334 0.036523
vn -0.949599 -0.311334 0.036523
vn -0.512053 0.858820 0.015158
vn -0.512053 0.858820 0.015158
vn -0.512053 0.858820 0.015158
vn -0.512053 0.858820 0.015158
vn 0.803872 0.073701 0.590218
vn 0.803872 0.073701 0.590218
vn 0.803872 0.073701 0.590218
vn 0.803872 0.073701 0.590218
vn 0.930460 -0.063769 -0.360801
vn 0.930460 -0.063769 -0.360801
vn 0.930460 -0.063769 -0.360801
vn 0.930460 -0.063769 -0.360801
vn -0.035516 0.997269 -0.064755
vn -0.035516 0.997269 -0.064755
vn -0.035516 0.997269 -0.064755
vn 0.000047 0.999958 -0.009168
vn 0.000047 0.999958 -0.009168
vn 0.000047 0.999958 -0.009168
vn 0.000047 0.999958 -0.009168
vn -0.040451 0.997154 0.063621
vn -0.040451 0.997154 0.063621
vn -0.040451 0.997154 0.063621
vn -0.006569 0.999978 -0.000008
vn -0.006569 0.999978 -0.000008
vn -0.006569 0.999978 -0.000008
vn -0.006569 0.999978 -0.000008
vn 0.021587 0.855280 0.517716
vn 0.021587 0.855280 0.517716
vn 0.021587 0.855280 0.517716
vn 0.021587 0.855280 0.517716
vn 0.011532 0.999628 -0.024712
vn 0.011532 0.999628 -0.024712
vn 0.011532 0.999628 -0.024712
vn 0.011532 0.999628 -0.024712
vn 0.016050 -0.192455 -0.981175
vn 0.016050 -0.192455 -0.981175
vn 0.016050 -0.192455 -0.981175
vn 0.016050 -0.192455 -0.981175
vn 0.029551 -0.217498 0.975613
vn 0.029551 -0.217498 0.975613
vn 0.029551 -0.217498 0.975613
vn 0.029551 -0.217498 0.975613
vn -0.001785 0.861150 -0.508348
vn -0.001785 0.861150 -0.508348
vn -0.001785 0.861150 -0.508348
vn -0.001785 0.861150 -0.508348
vn 0.000000 -1.000000 0.000000
vn 0.000000 -1.000000 0.000000
vn 0.000000 -1.000000 0.000000
vn -0.017221 0.996574 0.080890
vn -0.017221 0.996574 0.080890
vn -0.017221 0.996574 0.080890
vn -0.017221 0.996574 0.080890
vn -0.014786 0.996110 0.086868
vn -0.014786 0.996110 0.086868
vn -0.014786 0.996110 0.086868
vn -0.000168 0.999958 -0.009196
vn -0.000168 0.999958 -0.009196
vn -0.000168 0.999958 -0.009196
vn -0.000168 0.999958 -0.009196
vn -0.007698 0.999855 0.015175
vn -0.007698 0.999855 0.015175
vn -0.007698 0.999855 0.015175
vn -0.049611 0.998755 -0.005305
vn -0.049611 0.998755 -0.005305
vn -0.049611 0.998755 -0.005305
vn 0.011389 0.985682 -0.168229
vn 0.011389 0.985682 -0.168229
vn 0.011389 0.985682 -0.168229
vn 0.011389 0.985682 -0.168229
vn -0.046371 0.996852 0.064304
vn -0.046371 0.996852 0.064304
vn -0.046371 0.996852 0.064304
vn -0.066008 0.939732 0.335479
vn -0.066008 0.939732 0.335479
vn -0.066008 0.939732 0.335479
vn -0.046423 -0.225022 0.973247
vn -0.046423 -0.225022 0.973247
vn -0.046423 -0.225022 0.973247
vn -0.046423 -0.225022 0.973247
vn -0.000000 -1.000000 -0.000000
vn -0.000000 -1.000000 -0.000000
vn -0.000000 -1.000000 -0.000000
vn -0.000000 -1.000000 -0.000000
vn 0.000000 -1.000000 -0.000000
vn 0.000000 -1.000000 -0.000000
vn 0.000000 -1.000000 -0.000000
vn 0.000000 -1.000000 0.000000
vn 0.000000 -1.000000 0.000000
vn 0.000000 -1.000000 0.000000
vn 0.000000 -1.000000 -0.000000
vn 0.000000 -1.000000 -0.000000
vn 0.000000 -1.000000 -0.000000
vn 0.000000 -1.000000 -0.000000
vn 0.000000 -1.000000 -0.000000
vn 0.000000 -1.000000 -0.000000
vn 0.000000 -1.000000 -0.000000
vn 0.000000 -1.000000 0.000000
vn 0.000000 -1.000000 0.000000
vn 0.000000 -1.000000 0.000000
vn -0.023729 0.999310 -0.028573
vn -0.023729 0.999310 -0.028573
vn -0.023729 0.999310 -0.028573
vn -0.023729 0.999310 -0.028573
vn 0.035665 0.998304 0.046019
vn 0.035665 0.998304 0.046019
vn 0.035665 0.998304 0.046019
vn -0.022792 0.999418 0.025392
vn -0.022792 0.999418 0.025392
vn -0.022792 0.999418 0.025392
vn 0.496835 0.867807 0.008146
vn 0.496835 0.867807 0.008146
vn 0.496835 0.867807 0.008146
vn 0.496835 0.867807 0.008146
vn 0.998299 0.052033 0.026289
vn 0.998299 0.052033 0.026289
vn 0.998299 0.052033 0.026289
vn 0.998299 0.052033 0.026289
vn 0.000000 -1.000000 -0.000000
vn 0.000000 -1.000000 -0.000000
vn 0.000000 -1.000000 -0.000000
vn 0.000000 -1.000000 0.000000
vn 0.000000 -1.000000 0.000000
vn 0.000000 -1.000000 0.000000
vn -0.000000 -1.000000 0.000000
vn -0.000000 -1.000000 0.000000
vn -0.000000 -1.000000 0.000000
vn 0.517677 0.854758 -0.037421
vn 0.517677 0.854758 -0.037421
vn 0.517677 0.854758 -0.037421
vn 0.365713 0.930716 -0.004600
vn 0.365713 0.930716 -0.004600
vn 0.365713 0.930716 -0.004600
vn 0.365713 0.930716 -0.004600
vn -0.022072 0.831279 0.555418
vn -0.022072 0.831279 0.555418
vn -0.022072 0.831279 0.555418
vn -0.022072 0.831279 0.555418
vn 0.124449 0.953877 0.273189
vn 0.124449 0.953877 0.273189
vn 0.124449 0.953876 0.273189
vn -0.023668 0.999685 -0.008306
vn -0.023668 0.999685 -0.008306
vn -0.023668 0.999685 -0.008306
vn -0.023668 0.999685 -0.008306
s off
f 2/1/1 21/2/2 25/3/3 43/4/4
f 15/5/5 27/6/6 28/7/7 18/8/8
f 11/9/9 5/10/10 3/11/11 40/12/12
f 41/13/13 40/12/14 23/14/15 24/58/16
f 38/16/17 37/17/18 7/18/19 8/61/20
f 44/54/21 43/4/22 25/3/23 26/62/24
f 10/59/25 11/9/26 40/12/27 41/13/28
f 4/23/29 37/17/30 23/14/31 22/24/32
f 6/25/33 14/26/34 4/23/35
f 26/21/36 36/27/37 48/28/38 45/29/39
f 10/22/40 41/57/41 42/67/42
f 17/31/43 4/23/44 22/24/45 28/7/46
f 3/11/47 5/10/48 15/5/49 18/8/50
f 5/10/51 1/32/52 19/33/53 15/5/54
f 31/34/55 32/35/56 29/36/57 30/37/58
f 49/38/59 50/39/60 13/40/61 6/25/62
f 12/63/63 13/40/64 50/39/65 51/53/66
f 42/30/67 39/65/68 45/66/69 48/68/70
f 48/28/71 47/55/72 10/22/73
f 47/44/74 46/45/75 11/9/76 10/59/77
f 1/32/78 5/10/79 11/9/80 46/45/81
f 8/61/82 7/18/83 14/26/84 9/64/85
f 9/64/86 14/26/87 13/40/88 12/63/89
f 6/25/90 4/23/91 17/31/92
f 34/48/93 21/2/94 29/36/95 32/35/96
f 32/35/97 33/47/98 34/48/99
f 16/49/100 20/50/101 2/1/102 49/38/103
f 25/3/104 21/2/105 34/48/106 35/51/107
f 28/7/108 27/6/109 16/49/110 17/31/111
f 24/58/112 23/14/113 37/17/114 38/16/115
f 26/62/116 25/3/117 35/51/118 36/56/119
f 22/24/120 23/14/121 40/12/122 3/11/123
f 45/29/124 44/20/125 26/21/126
f 22/24/127 3/11/128 18/8/129 28/7/130
f 27/6/131 30/37/132 16/49/133
f 2/1/134 20/50/135 29/36/136 21/2/137
f 15/5/138 31/34/139 27/6/140
f 19/33/141 32/35/142 31/34/143
f 19/33/144 1/32/145 52/52/146 33/47/147
f 32/35/148 19/33/149 33/47/150
f 34/48/151 33/47/152 35/51/153
f 36/56/154 35/51/155 46/45/156 47/44/157
f 24/15/158 39/43/159 42/67/160 41/57/161
f 39/43/162 24/15/163 38/60/164
f 8/19/165 39/43/166 38/60/167
f 12/41/168 39/43/169 9/46/170
f 45/29/171 39/43/172 12/41/173 51/42/174
f 9/46/175 39/43/176 8/19/177
f 16/49/178 30/37/179 29/36/180 20/50/181
f 27/6/182 31/34/183 30/37/184
f 19/33/185 31/34/186 15/5/187
f 2/1/188 43/4/189 50/39/190 49/38/191
f 51/53/192 50/39/193 43/4/194 44/54/195
f 45/29/196 51/42/197 44/20/198
f 48/28/199 36/27/200 47/55/201
f 48/28/202 10/22/203 42/67/204
f 6/25/205 13/40/206 14/26/207
f 4/23/208 14/26/209 7/18/210 37/17/211
f 35/51/212 52/52/213 1/32/214 46/45/215
f 33/47/216 52/52/217 35/51/218
f 6/25/219 17/31/220 16/49/221 49/38/222
