# This file uses centimeters as units for non-parametric coordinates.

v -2.939353 -0.519394 6.944235
v 2.948069 -0.519394 6.944235
v -2.939353 0.387192 7.045619
v 2.948069 0.387192 7.045619
v -0.729564 1.316483 -14.893310
v 0.735515 1.316483 -14.893310
v -0.729564 0.481111 -15.116306
v 0.735515 0.481111 -15.116306
v -0.958019 0.912550 4.822142
v 0.964474 0.912550 4.822142
v 0.964474 0.181295 4.667200
v -0.958019 0.181295 4.667200
v -3.178522 -0.732077 9.245988
v 3.178522 -0.732077 9.245988
v 3.178522 0.059540 9.373128
v -3.178522 0.059540 9.373128
v -0.750298 0.380950 1.507468
v 0.756271 0.380950 1.507468
v 0.756271 1.333073 1.631203
v -0.750298 1.333073 1.631203
v 0.977135 0.027332 15.116306
v 0.977135 0.818949 15.043530
v -0.977102 0.027332 15.116306
v -0.977102 0.818949 15.043530
v 2.686310 -0.503330 11.870478
v 2.686310 0.288287 11.721678
v -2.686327 0.288287 11.721678
v -2.686327 -0.503330 11.870478
v 0.001576 -0.187707 7.212338
v -0.000008 -0.230481 11.809088
v -0.217131 -1.269071 11.652455
v -0.133686 -1.497818 9.397630
v -0.251301 -1.398220 6.944235
v 0.000966 -0.616301 9.399423
v 1.115069 0.057771 -9.106157
v -1.109109 0.057771 -9.106157
v -1.109109 1.096688 -8.982914
v 1.115069 1.096688 -8.982914
v -0.121751 1.096688 -9.519878
v 1.277369 1.113671 -12.137249
v -1.271419 1.113671 -12.137249
v 0.002975 1.304047 -14.075879
v -0.052184 1.382425 -10.807543
v 0.744152 1.387097 -12.149940
v -0.738201 1.387097 -12.149940
v 0.002975 1.497818 -13.277436
v 1.966840 0.128467 -13.191912
v 1.571714 0.007828 -11.323028
v 1.571608 1.060163 -11.158521
v 1.953639 1.117403 -13.037838
v -1.565763 0.007828 -11.323028
v -1.960889 0.128467 -13.191912
v -1.947688 1.117403 -13.037838
v -1.565657 1.060163 -11.158522
v 1.071475 0.248868 -14.153305
v 1.066514 1.216860 -13.964798
v -1.106807 1.208195 -13.884040
v -1.112206 0.228669 -14.069547
v -1.852305 0.033779 -10.043075
v -1.852232 1.079142 -9.900010
v 1.860485 0.033639 -10.049284
v 1.860412 1.079040 -9.906103
v -0.010814 1.223470 -12.096214
v -1.081888 0.099640 -7.405397
v -1.081888 1.056626 -7.342646
v 1.087851 1.056626 -7.342646
v 1.087851 0.099640 -7.405397
v 1.471832 0.077191 -8.317310
v 1.471832 1.317199 -8.192570
v -1.465871 1.317199 -8.192570
v -1.465871 0.077191 -8.317310
vt 0.215277 0.108716
vt 0.215332 0.108690
vt 0.215403 0.108750
vt 0.215356 0.108773
vt 0.215653 0.109065
vt 0.215357 0.108802
vt 0.215404 0.108780
vt 0.215334 0.108713
vt 0.215280 0.108739
vt 0.215326 0.108661
vt 0.215326 0.108637
vt 0.215247 0.108719
vt 0.215181 0.108730
vt 0.215180 0.108706
vt 0.215290 0.108586
vt 0.215292 0.108610
vt 0.215113 0.108694
vt 0.215111 0.108670
vt 0.215195 0.108672
vt 0.215220 0.108555
vt 0.215225 0.108536
vt 0.215125 0.108494
vt 0.215123 0.108514
vt 0.215074 0.108607
vt 0.215070 0.108625
vt 0.215068 0.108539
vt 0.215070 0.108519
vt 0.215143 0.108618
vt 0.215249 0.108682
vt 0.215200 0.108646
vt 0.215147 0.108584
vt 0.215571 0.108959
vt 0.215684 0.109053
vt 0.215577 0.108959
vt 0.215662 0.108974
vt 0.215570 0.109021
vt 0.215684 0.109053
vt 0.215619 0.108937
vt 0.215657 0.108980
vt 0.215712 0.109034
vt 0.215715 0.109064
vt 0.215645 0.109000
vt 0.215566 0.109039
vt 0.215580 0.109019
vt 0.215619 0.108969
vt 0.215659 0.109092
vt 0.215535 0.109011
vt 0.215535 0.108980
vt 0.215676 0.108989
vt 0.215591 0.109065
vt 0.215560 0.109007
vt 0.215677 0.109024
vt 0.215651 0.108963
vt 0.215592 0.109031
vt 0.215696 0.109044
vt 0.215694 0.109011
vt 0.215620 0.109046
vt 0.215622 0.109077
vt 0.215547 0.109026
vt 0.215547 0.108993
vt 0.215634 0.108983
vt 0.215635 0.108950
vt 0.215623 0.109002
vt 0.215512 0.108984
vt 0.215512 0.108953
vt 0.215591 0.108913
vt 0.215591 0.108944
vt 0.215606 0.108957
vt 0.215606 0.108926
vt 0.215524 0.108967
vt 0.215524 0.108999
vn 0.000000 0.991428 0.130657
vn 0.000000 0.991428 0.130657
vn 0.000000 0.991428 0.130657
vn 0.000000 0.991428 0.130657
vn 0.000000 0.257912 -0.966168
vn 0.000000 0.257912 -0.966168
vn 0.000000 0.257912 -0.966168
vn 0.000000 0.257912 -0.966168
vn 0.000000 -0.998010 -0.063062
vn 0.000000 -0.998010 -0.063062
vn 0.000000 -0.998010 -0.063062
vn 0.000000 -0.998010 -0.063062
vn 0.997868 0.010659 -0.064388
vn 0.997868 0.010659 -0.064388
vn 0.997868 0.010659 -0.064388
vn 0.997868 0.010659 -0.064388
vn -0.997878 0.010635 -0.064240
vn -0.997878 0.010635 -0.064240
vn -0.997878 0.010635 -0.064240
vn -0.997878 0.010635 -0.064240
vn 0.759782 0.100531 -0.642359
vn 0.759782 0.100531 -0.642359
vn 0.759782 0.100531 -0.642359
vn 0.759782 0.100531 -0.642359
vn 0.234282 -0.852905 -0.466546
vn 0.234282 -0.852905 -0.466546
vn 0.234282 -0.852905 -0.466546
vn -0.760148 0.100464 -0.641936
vn -0.760148 0.100464 -0.641936
vn -0.760148 0.100464 -0.641936
vn -0.760148 0.100464 -0.641936
vn 0.995144 0.013127 -0.097548
vn 0.995144 0.013127 -0.097548
vn 0.995144 0.013127 -0.097548
vn 0.995144 0.013127 -0.097548
vn -0.994773 0.013619 -0.101199
vn -0.994773 0.013619 -0.101199
vn -0.994773 0.013619 -0.101199
vn -0.994773 0.013619 -0.101199
vn 0.242284 -0.966799 -0.081227
vn 0.242284 -0.966799 -0.081227
vn 0.242284 -0.966799 -0.081227
vn 0.242284 -0.966799 -0.081227
vn 0.777986 -0.079634 0.623215
vn 0.777986 -0.079634 0.623215
vn 0.777986 -0.079634 0.623215
vn 0.777986 -0.079634 0.623215
vn -0.974811 0.032437 -0.220660
vn -0.974811 0.032437 -0.220660
vn -0.974811 0.032437 -0.220660
vn -0.974811 0.032437 -0.220660
vn 0.000000 -0.997923 -0.064417
vn 0.000000 -0.997923 -0.064417
vn 0.000000 -0.997923 -0.064417
vn 0.000000 -0.997923 -0.064417
vn 0.728729 0.124642 -0.673364
vn 0.728729 0.124642 -0.673364
vn 0.728729 0.124642 -0.673364
vn 0.728729 0.124642 -0.673364
vn -0.715446 0.125333 -0.687334
vn -0.715446 0.125333 -0.687334
vn -0.715446 0.125333 -0.687334
vn -0.715446 0.125333 -0.687334
vn 0.889417 0.063354 0.452686
vn 0.889417 0.063354 0.452686
vn 0.889417 0.063354 0.452686
vn 0.889417 0.063354 0.452686
vn -0.889411 0.063356 0.452696
vn -0.889411 0.063356 0.452696
vn -0.889411 0.063356 0.452696
vn -0.889411 0.063356 0.452696
vn 0.226245 -0.935309 0.272050
vn 0.226245 -0.935308 0.272050
vn 0.226245 -0.935308 0.272050
vn 0.981008 0.002653 0.193948
vn 0.981008 0.002653 0.193948
vn 0.981008 0.002653 0.193948
vn 0.981008 0.002653 0.193948
vn -0.981009 0.002653 0.193942
vn -0.981009 0.002653 0.193942
vn -0.981009 0.002653 0.193942
vn -0.981009 0.002653 0.193942
vn 0.236365 -0.964434 0.118313
vn 0.236365 -0.964434 0.118313
vn 0.236365 -0.964434 0.118313
vn 0.236365 -0.964434 0.118313
vn -0.159100 0.919594 0.359214
vn -0.159100 0.919594 0.359214
vn -0.159100 0.919594 0.359214
vn 0.000000 0.908380 0.418146
vn 0.000000 0.908380 0.418146
vn 0.000000 0.908380 0.418146
vn 0.159382 0.919517 0.359286
vn 0.159382 0.919517 0.359286
vn 0.159382 0.919517 0.359286
vn 0.192021 0.966193 0.172047
vn 0.192021 0.966193 0.172047
vn 0.192021 0.966192 0.172047
vn 0.192021 0.966193 0.172047
vn 0.191425 0.949105 -0.250114
vn 0.191425 0.949105 -0.250114
vn 0.191425 0.949105 -0.250114
vn 0.000000 0.951186 -0.308617
vn 0.000000 0.951186 -0.308617
vn 0.000000 0.951186 -0.308617
vn -0.191425 0.949105 -0.250111
vn -0.191425 0.949105 -0.250111
vn -0.191425 0.949105 -0.250111
vn -0.191938 0.966282 0.171635
vn -0.191938 0.966282 0.171635
vn -0.191938 0.966282 0.171635
vn -0.191938 0.966282 0.171635
vn -0.260396 -0.921611 0.287797
vn -0.260396 -0.921611 0.287797
vn -0.260396 -0.921611 0.287797
vn 0.000000 -0.936555 0.350521
vn 0.000000 -0.936555 0.350521
vn 0.000000 -0.936555 0.350521
vn -0.264678 -0.957813 0.111979
vn -0.264678 -0.957813 0.111979
vn -0.264678 -0.957813 0.111979
vn -0.264678 -0.957813 0.111979
vn -0.273357 -0.959363 -0.069991
vn -0.273357 -0.959363 -0.069991
vn -0.273357 -0.959363 -0.069991
vn -0.273357 -0.959363 -0.069991
vn -0.270799 -0.828290 -0.490514
vn -0.270799 -0.828290 -0.490514
vn -0.270799 -0.828290 -0.490514
vn 0.000000 -0.821667 -0.569967
vn 0.000000 -0.821667 -0.569967
vn 0.000000 -0.821667 -0.569967
vn 0.200140 0.968858 -0.145799
vn 0.200140 0.968858 -0.145799
vn 0.200140 0.968858 -0.145799
vn 0.200140 0.968858 -0.145799
vn -0.200203 0.968833 -0.145885
vn -0.200203 0.968833 -0.145885
vn -0.200203 0.968833 -0.145885
vn -0.200203 0.968833 -0.145885
vn 0.000000 0.091548 0.995801
vn 0.000000 0.091548 0.995801
vn 0.000000 0.091548 0.995801
vn 0.000000 0.091548 0.995801
vn -0.000000 -0.999697 0.024610
vn -0.000000 -0.999697 0.024610
vn -0.000000 -0.999697 0.024610
vn -0.000000 -0.999697 0.024610
vn -0.917839 -0.033753 0.395514
vn -0.917839 -0.033753 0.395514
vn -0.917839 -0.033753 0.395514
vn -0.917839 -0.033753 0.395514
vn 0.000000 0.956076 0.293118
vn 0.000000 0.956076 0.293118
vn 0.000000 0.956076 0.293118
vn 0.000000 0.956076 0.293118
vn 0.917840 -0.033753 0.395513
vn 0.917840 -0.033753 0.395513
vn 0.917840 -0.033753 0.395513
vn 0.917840 -0.033753 0.395513
vn 0.000000 0.999884 0.015212
vn 0.000000 0.999884 0.015212
vn 0.000000 0.999884 0.015212
vn -0.072088 0.994207 0.079727
vn -0.072088 0.994207 0.079727
vn -0.072088 0.994207 0.079727
vn 0.410816 0.881550 0.232594
vn 0.410815 0.881550 0.232594
vn 0.410816 0.881550 0.232594
vn 0.410816 0.881550 0.232594
vn -0.408404 0.891902 0.194207
vn -0.408404 0.891902 0.194207
vn -0.408404 0.891902 0.194207
vn -0.408404 0.891902 0.194207
vn 0.450022 0.867827 -0.210609
vn 0.450023 0.867827 -0.210609
vn 0.450022 0.867827 -0.210609
vn 0.450022 0.867827 -0.210609
vn -0.450022 0.867827 -0.210609
vn -0.450022 0.867827 -0.210609
vn -0.450022 0.867827 -0.210609
vn -0.450022 0.867827 -0.210609
vn 0.069678 0.996403 0.048220
vn 0.069678 0.996403 0.048220
vn 0.069678 0.996403 0.048220
vn 0.069678 0.996403 0.048220
vn -0.000002 -0.999795 0.020265
vn -0.000002 -0.999795 0.020265
vn -0.000002 -0.999795 0.020265
vn -0.000002 -0.999795 0.020265
vn -0.006762 0.999859 -0.015367
vn -0.006762 0.999859 -0.015367
vn -0.006762 0.999859 -0.015367
vn -0.006762 0.999859 -0.015367
vn 0.979101 -0.025115 0.201816
vn 0.979101 -0.025115 0.201816
vn 0.979101 -0.025115 0.201816
vn 0.979101 -0.025115 0.201816
vn -0.979101 -0.025115 0.201816
vn -0.979101 -0.025115 0.201816
vn -0.979101 -0.025115 0.201816
vn -0.979101 -0.025115 0.201816
vn 0.047956 0.998042 0.040146
vn 0.047956 0.998042 0.040146
vn 0.047956 0.998042 0.040146
vn -0.047956 0.998042 0.040147
vn -0.047956 0.998042 0.040147
vn -0.047956 0.998042 0.040147
vn 0.057555 0.997648 0.037239
vn 0.057555 0.997648 0.037239
vn 0.057555 0.997648 0.037239
vn 0.944477 0.075565 -0.319770
vn 0.944477 0.075565 -0.319770
vn 0.944477 0.075565 -0.319770
vn 0.944477 0.075565 -0.319770
vn -0.939504 0.077875 -0.333567
vn -0.939504 0.077875 -0.333567
vn -0.939505 0.077875 -0.333567
vn -0.939504 0.077875 -0.333567
vn 0.073073 0.994064 0.080607
vn 0.073073 0.994064 0.080607
vn 0.073073 0.994064 0.080607
vn -0.070165 0.996413 0.047306
vn -0.070165 0.996413 0.047306
vn -0.070165 0.996413 0.047306
vn -0.070165 0.996413 0.047306
vn -0.776871 -0.079776 0.624586
vn -0.776871 -0.079776 0.624586
vn -0.776871 -0.079776 0.624586
vn -0.776871 -0.079776 0.624586
vn 0.974192 0.032838 -0.223318
vn 0.974192 0.032838 -0.223318
vn 0.974192 0.032838 -0.223318
vn 0.974192 0.032838 -0.223318
vn 0.225958 0.967665 -0.112105
vn 0.225958 0.967665 -0.112105
vn 0.225958 0.967665 -0.112105
vn -0.218699 0.967575 -0.126369
vn -0.218699 0.967575 -0.126369
vn -0.218699 0.967575 -0.126369
vn -0.191656 0.956506 0.219918
vn -0.191656 0.956506 0.219918
vn -0.191656 0.956506 0.219918
vn 0.198119 0.954252 0.223945
vn 0.198119 0.954252 0.223945
vn 0.198119 0.954252 0.223945
vn 0.000000 1.000000 0.000000
vn 0.000000 1.000000 0.000000
vn 0.000000 1.000000 0.000000
vn -0.999303 -0.003630 0.037164
vn -0.999303 -0.003630 0.037164
vn -0.999303 -0.003630 0.037164
vn -0.999303 -0.003630 0.037164
vn 0.000000 0.999526 -0.030791
vn 0.000000 0.999526 -0.030791
vn 0.000000 0.999526 -0.030791
vn 0.000000 0.999526 -0.030791
vn 0.999303 -0.003630 0.037163
vn 0.999303 -0.003630 0.037163
vn 0.999303 -0.003630 0.037163
vn 0.999303 -0.003630 0.037163
vn -0.000000 -0.999502 0.031547
vn -0.000000 -0.999502 0.031547
vn -0.000000 -0.999502 0.031547
vn -0.000000 -0.999502 0.031547
vn 0.907753 0.045381 -0.417044
vn 0.907753 0.045381 -0.417044
vn 0.907753 0.045381 -0.417044
vn 0.907753 0.045381 -0.417044
vn 0.000000 0.963212 -0.268743
vn 0.000000 0.963212 -0.268743
vn 0.000000 0.963212 -0.268743
vn 0.000000 0.963212 -0.268743
vn -0.907753 0.045381 -0.417043
vn -0.907753 0.045381 -0.417043
vn -0.907753 0.045381 -0.417043
vn -0.907753 0.045381 -0.417043
vn -0.000000 -0.999697 0.024610
vn -0.000000 -0.999697 0.024610
vn -0.000000 -0.999697 0.024610
vn -0.000000 -0.999697 0.024610
vn -0.064944 0.997275 0.034997
vn -0.064944 0.997275 0.034997
vn -0.064944 0.997275 0.034997
vn 0.005872 0.999862 -0.015554
vn 0.005872 0.999862 -0.015554
vn 0.005872 0.999862 -0.015554
vn 0.005872 0.999862 -0.015554
vn 0.000003 -0.999673 0.025589
vn 0.000003 -0.999673 0.025589
vn 0.000003 -0.999673 0.025589
vn 0.000003 -0.999673 0.025589
vn -0.000000 -0.972130 -0.234444
vn -0.000000 -0.972130 -0.234444
vn -0.000000 -0.972130 -0.234444
vn -0.000000 -0.972130 -0.234444
vn 0.001649 -0.992876 -0.119144
vn 0.001649 -0.992876 -0.119144
vn 0.001649 -0.992876 -0.119144
vn 0.001649 -0.992876 -0.119144
s off
f 9/1/1 10/2/2 19/3/3 20/4/4
f 5/5/5 6/40/6 8/41/7 7/46/8
f 17/6/9 18/7/10 11/8/11 12/9/12
f 10/2/13 11/8/14 18/7/15 19/3/16
f 20/4/17 17/6/18 12/9/19 9/1/20
f 2/10/21 11/8/22 10/2/23 4/11/24
f 33/12/25 11/8/26 2/10/27
f 9/1/28 12/9/29 1/13/30 3/14/31
f 2/10/32 4/11/33 15/15/34 14/16/35
f 3/14/36 1/13/37 13/17/38 16/18/39
f 32/19/40 33/12/41 2/10/42 14/16/43
f 38/38/44 35/45/45 61/61/46 62/62/47
f 54/51/48 51/43/49 59/59/50 60/60/51
f 52/50/52 47/52/53 48/42/54 51/43/55
f 47/52/56 55/55/57 56/56/58 50/49/59
f 58/58/60 52/50/61 53/54/62 57/57/63
f 25/20/64 26/21/65 22/22/66 21/23/67
f 27/24/68 28/25/69 23/26/70 24/27/71
f 21/23/72 31/28/73 25/20/74
f 14/16/75 15/15/76 26/21/77 25/20/78
f 16/18/79 13/17/80 28/25/81 27/24/82
f 31/28/83 32/19/84 14/16/85 25/20/86
f 4/11/87 10/2/88 29/29/89
f 10/2/90 9/1/91 29/29/92
f 9/1/93 3/14/94 29/29/95
f 29/29/96 3/14/97 16/18/98 34/30/99
f 27/24/100 24/27/101 30/31/102
f 24/27/103 22/22/104 30/31/105
f 22/22/106 26/21/107 30/31/108
f 29/29/109 34/30/110 15/15/111 4/11/112
f 28/25/113 31/28/114 23/26/115
f 23/26/116 31/28/117 21/23/118
f 13/17/119 32/19/120 31/28/121 28/25/122
f 1/13/123 33/12/124 32/19/125 13/17/126
f 12/9/127 33/12/128 1/13/129
f 12/9/130 11/8/131 33/12/132
f 16/18/133 27/24/134 30/31/135 34/30/136
f 26/21/137 15/15/138 34/30/139 30/31/140
f 23/26/141 21/23/142 22/22/143 24/27/144
f 71/71/145 68/68/146 67/67/147 64/64/148
f 70/70/149 71/71/150 64/64/151 65/65/152
f 65/65/153 66/66/154 69/69/155 70/70/156
f 66/66/157 67/67/158 68/68/159 69/69/160
f 6/40/161 5/5/162 42/33/163
f 57/57/164 42/33/165 5/5/166
f 44/35/167 43/34/168 39/32/169 40/39/170
f 43/34/171 45/36/172 41/44/173 39/32/174
f 42/33/175 46/37/176 44/35/177 40/39/178
f 41/44/179 45/36/180 46/37/181 42/33/182
f 56/56/183 42/33/184 40/39/185 50/49/186
f 51/43/187 48/42/188 61/61/189 59/59/190
f 39/32/191 54/51/192 60/60/193 37/48/194
f 48/42/195 47/52/196 50/49/197 49/53/198
f 52/50/199 51/43/200 54/51/201 53/54/202
f 40/39/203 49/53/204 50/49/205
f 41/44/206 53/54/207 54/51/208
f 39/32/209 49/53/210 40/39/211
f 56/56/212 55/55/213 8/41/214 6/40/215
f 7/46/216 58/58/217 57/57/218 5/5/219
f 42/33/220 56/56/221 6/40/222
f 53/54/223 41/44/224 42/33/225 57/57/226
f 60/60/227 59/59/228 36/47/229 37/48/230
f 62/62/231 61/61/232 48/42/233 49/53/234
f 45/36/235 43/34/236 63/63/237
f 43/34/238 44/35/239 63/63/240
f 44/35/241 46/37/242 63/63/243
f 46/37/244 45/36/245 63/63/246
f 37/48/247 38/38/248 39/32/249
f 65/65/250 64/64/251 17/6/252 20/4/253
f 20/4/254 19/3/255 66/66/256 65/65/257
f 19/3/258 18/7/259 67/67/260 66/66/261
f 64/64/262 67/67/263 18/7/264 17/6/265
f 69/69/266 68/68/267 35/45/268 38/38/269
f 70/70/270 69/69/271 38/38/272 37/48/273
f 37/48/274 36/47/275 71/71/276 70/70/277
f 36/47/278 35/45/279 68/68/280 71/71/281
f 41/44/282 54/51/283 39/32/284
f 39/32/285 38/38/286 62/62/287 49/53/288
f 59/59/289 61/61/290 35/45/291 36/47/292
f 7/46/293 8/41/294 55/55/295 58/58/296
f 58/58/297 55/55/298 47/52/299 52/50/300
