# This file uses centimeters as units for non-parametric coordinates.

v 18.728765 0.000000 0.000000
v 19.616385 8.166092 0.000000
v 18.551243 18.639999 0.000000
v 14.823241 22.545532 0.000000
v 10.454701 23.433151 0.000000
v 6.727633 24.642960 0.000000
v 4.980634 29.009033 0.000000
v 5.771297 33.335602 0.000000
v 7.284264 35.275467 0.000000
v 10.565318 38.411713 0.000000
v 13.111241 43.441559 0.000000
v 15.460604 50.517853 0.000000
v 15.396225 60.858627 0.000000
v 12.187469 68.127228 0.000000
v 5.349840 72.476578 0.000000
v -0.153622 73.566360 0.000000
v -6.878768 72.126465 0.000000
v -12.864536 68.186417 0.000000
v -15.335682 61.864594 0.000000
v -16.476192 54.586105 0.000000
v -14.719997 47.263245 0.000000
v -11.558811 39.348663 0.000000
v -7.828432 36.064468 0.000000
v -5.481601 33.658035 0.000000
v -4.275790 29.113907 0.000000
v -5.726496 24.853333 0.000000
v -9.362139 23.255630 0.000000
v -14.335889 21.776352 0.000000
v -17.148359 18.995056 0.000000
v -18.373718 14.201904 0.000000
v -18.196194 7.633530 0.000000
v -17.131052 0.000000 0.000000
v 10.674866 54.767200 0.000000
v 8.254859 51.292011 0.000000
v 5.059430 48.984196 0.000000
v 1.864000 48.629154 0.000000
v 0.621333 51.824589 0.000000
v 3.284191 56.085163 0.000000
v 6.302097 58.392963 0.000000
v 10.385145 57.327824 0.000000
v -1.251186 51.705788 0.000000
v -2.460972 48.652603 0.000000
v -6.368199 49.067165 0.000000
v -9.924584 51.602219 0.000000
v -11.738470 54.763226 0.000000
v -10.482016 57.195488 0.000000
v -7.755385 58.405594 0.000000
v -4.790526 56.648491 0.000000
v -2.409729 53.948929 0.000000
vt 0.008082 0.007365
vt 0.008003 0.007189
vt 0.008060 0.007185
vt 0.008134 0.007321
vt 0.007762 0.007022
vt 0.007831 0.007067
vt 0.007827 0.007102
vt 0.007762 0.007165
vt 0.007929 0.007084
vt 0.008006 0.007112
vt 0.007987 0.007144
vt 0.007966 0.007143
vt 0.007887 0.007052
vt 0.008086 0.007050
vt 0.008042 0.007074
vt 0.008204 0.007111
vt 0.008142 0.007106
vt 0.008126 0.007069
vt 0.008189 0.007010
vt 0.008178 0.007213
vt 0.008114 0.007151
vt 0.007949 0.007188
vt 0.007875 0.007374
vt 0.007830 0.007331
vt 0.007905 0.007182
vt 0.007861 0.007150
vt 0.007795 0.007262
vt 0.008156 0.006920
vt 0.007805 0.006920
vt 0.007977 0.006843
vt 0.008072 0.006864
vt 0.007900 0.006859
vt 0.008050 0.007397
vt 0.007896 0.007400
vt 0.008033 0.007458
vt 0.007907 0.007458
vt 0.008052 0.007515
vt 0.007884 0.007516
vt 0.008204 0.007843
vt 0.007726 0.007834
vt 0.007713 0.007729
vt 0.008220 0.007745
vt 0.007725 0.007593
vt 0.007775 0.007542
vt 0.007833 0.007531
vt 0.008102 0.007537
vt 0.008223 0.007659
vt 0.008169 0.007558
vt 0.008207 0.007595
vt 0.013325 0.124293
vt 0.013185 0.124277
vt 0.013380 0.124154
vt 0.013262 0.123966
vt 0.013045 0.124175
vt 0.012939 0.124022
vt 0.013130 0.123863
vt 0.012951 0.123910
vt 0.013678 0.124286
vt 0.013497 0.124298
vt 0.013447 0.124155
vt 0.013504 0.124053
vt 0.013848 0.124176
vt 0.013620 0.123933
vt 0.013761 0.123856
vt 0.013885 0.123918
vt 0.013939 0.124033
vn 0.000000 0.000000 1.000000
vn 0.000000 0.000000 1.000000
vn 0.000000 0.000000 1.000000
vn 0.000000 0.000000 1.000000
vn 0.000000 0.000000 1.000000
vn 0.000000 0.000000 1.000000
vn 0.000000 0.000000 1.000000
vn 0.000000 0.000000 1.000000
vn 0.000000 0.000000 1.000000
vn 0.000000 0.000000 1.000000
vn 0.000000 0.000000 1.000000
vn 0.000000 0.000000 1.000000
vn 0.000000 0.000000 1.000000
vn 0.000000 0.000000 1.000000
vn 0.000000 0.000000 1.000000
vn 0.000000 0.000000 1.000000
vn 0.000000 0.000000 1.000000
vn 0.000000 0.000000 1.000000
vn 0.000000 0.000000 1.000000
vn 0.000000 0.000000 1.000000
vn 0.000000 0.000000 1.000000
vn 0.000000 0.000000 1.000000
vn 0.000000 0.000000 1.000000
vn 0.000000 0.000000 1.000000
vn 0.000000 0.000000 1.000000
vn 0.000000 0.000000 1.000000
vn 0.000000 0.000000 1.000000
vn 0.000000 0.000000 1.000000
vn 0.000000 0.000000 1.000000
vn 0.000000 0.000000 1.000000
vn 0.000000 0.000000 1.000000
vn 0.000000 0.000000 1.000000
vn 0.000000 0.000000 1.000000
vn 0.000000 0.000000 1.000000
vn 0.000000 0.000000 1.000000
vn 0.000000 0.000000 1.000000
vn 0.000000 0.000000 1.000000
vn 0.000000 0.000000 1.000000
vn 0.000000 0.000000 1.000000
vn 0.000000 0.000000 1.000000
vn 0.000000 0.000000 1.000000
vn 0.000000 0.000000 1.000000
vn 0.000000 0.000000 1.000000
vn 0.000000 0.000000 1.000000
vn 0.000000 0.000000 1.000000
vn 0.000000 0.000000 1.000000
vn 0.000000 0.000000 1.000000
vn 0.000000 0.000000 1.000000
vn 0.000000 0.000000 1.000000
vn 0.000000 0.000000 1.000000
vn 0.000000 0.000000 1.000000
vn 0.000000 0.000000 1.000000
vn 0.000000 0.000000 1.000000
vn 0.000000 0.000000 1.000000
vn 0.000000 0.000000 1.000000
vn 0.000000 0.000000 1.000000
vn 0.000000 0.000000 1.000000
vn 0.000000 0.000000 1.000000
vn 0.000000 0.000000 1.000000
vn 0.000000 0.000000 1.000000
vn 0.000000 0.000000 1.000000
vn 0.000000 0.000000 1.000000
vn 0.000000 0.000000 1.000000
vn 0.000000 0.000000 1.000000
vn 0.000000 0.000000 1.000000
vn 0.000000 0.000000 1.000000
vn 0.000000 0.000000 1.000000
vn 0.000000 0.000000 1.000000
vn 0.000000 0.000000 1.000000
vn 0.000000 0.000000 1.000000
vn 0.000000 0.000000 1.000000
vn 0.000000 0.000000 1.000000
vn 0.000000 0.000000 1.000000
vn 0.000000 0.000000 1.000000
vn 0.000000 0.000000 1.000000
vn 0.000000 0.000000 1.000000
vn 0.000000 0.000000 1.000000
vn 0.000000 0.000000 1.000000
vn 0.000000 0.000000 1.000000
vn 0.000000 0.000000 1.000000
vn 0.000000 0.000000 1.000000
vn 0.000000 0.000000 1.000000
vn 0.000000 0.000000 1.000000
vn 0.000000 0.000000 1.000000
vn 0.000000 0.000000 1.000000
vn 0.000000 0.000000 1.000000
vn 0.000000 0.000000 1.000000
vn 0.000000 0.000000 1.000000
vn 0.000000 0.000000 1.000000
vn 0.000000 0.000000 1.000000
vn 0.000000 0.000000 1.000000
vn 0.000000 0.000000 1.000000
vn 0.000000 0.000000 1.000000
vn 0.000000 0.000000 1.000000
vn 0.000000 0.000000 1.000000
vn 0.000000 0.000000 1.000000
vn 0.000000 0.000000 1.000000
vn 0.000000 0.000000 1.000000
vn 0.000000 0.000000 1.000000
vn 0.000000 0.000000 1.000000
vn 0.000000 0.000000 1.000000
vn 0.000000 0.000000 1.000000
vn 0.000000 0.000000 1.000000
vn 0.000000 0.000000 1.000000
vn 0.000000 0.000000 1.000000
vn 0.000000 0.000000 1.000000
vn 0.000000 0.000000 1.000000
vn 0.000000 0.000000 1.000000
vn 0.000000 0.000000 1.000000
vn 0.000000 0.000000 1.000000
vn 0.000000 0.000000 1.000000
vn 0.000000 0.000000 1.000000
vn 0.000000 0.000000 1.000000
vn 0.000000 0.000000 1.000000
vn 0.000000 0.000000 1.000000
vn 0.000000 0.000000 1.000000
vn 0.000000 0.000000 1.000000
vn 0.000000 0.000000 1.000000
vn 0.000000 0.000000 1.000000
vn 0.000000 0.000000 1.000000
vn 0.000000 0.000000 1.000000
vn 0.000000 0.000000 1.000000
vn 0.000000 0.000000 1.000000
vn 0.000000 0.000000 1.000000
vn 0.000000 0.000000 1.000000
vn 0.000000 0.000000 1.000000
vn 0.000000 0.000000 1.000000
vn 0.000000 0.000000 1.000000
vn 0.000000 0.000000 1.000000
vn 0.000000 0.000000 1.000000
vn 0.000000 0.000000 1.000000
vn 0.000000 0.000000 1.000000
vn 0.000000 0.000000 1.000000
vn 0.000000 0.000000 1.000000
vn 0.000000 0.000000 1.000000
vn 0.000000 0.000000 1.000000
vn 0.000000 0.000000 1.000000
vn 0.000000 0.000000 1.000000
s off
f 23/1/1 42/2/2 43/3/3 22/4/4
f 36/50/5 35/51/6 37/52/7
f 38/53/8 37/52/9 35/51/10 34/54/11
f 38/53/12 34/54/13 33/55/14 39/56/15
f 33/55/16 40/57/17 39/56/18
f 13/5/19 40/6/20 33/7/21 12/8/22
f 38/9/23 49/10/24 41/11/25 37/12/26
f 43/58/27 42/59/28 41/60/29 49/61/30
f 44/62/31 43/58/32 49/61/33 48/63/34
f 44/62/35 48/63/36 47/64/37 46/65/38
f 46/65/39 45/66/40 44/62/41
f 39/13/42 47/14/43 48/15/44
f 20/16/45 45/17/46 46/18/47 19/19/48
f 21/20/49 44/21/50 45/17/51 20/16/52
f 22/4/53 43/3/54 44/21/55 21/20/56
f 42/2/57 36/22/58 37/12/59 41/11/60
f 36/22/61 9/23/62 10/24/63 35/25/64
f 23/1/65 9/23/66 36/22/67 42/2/68
f 34/26/69 11/27/70 12/8/71 33/7/72
f 35/25/73 10/24/74 11/27/75 34/26/76
f 39/13/77 48/15/78 49/10/79 38/9/80
f 19/19/81 46/18/82 47/14/83 18/28/84
f 18/28/85 47/14/86 39/13/87 14/29/88
f 14/29/89 39/13/90 40/6/91 13/5/92
f 18/28/93 16/30/94 17/31/95
f 16/30/96 14/29/97 15/32/98
f 18/28/99 14/29/100 16/30/101
f 24/33/102 8/34/103 9/23/104 23/1/105
f 25/35/106 7/36/107 8/34/108 24/33/109
f 26/37/110 6/38/111 7/36/112 25/35/113
f 32/39/114 1/40/115 2/41/116 31/42/117
f 31/42/118 2/41/119 3/43/120 4/44/121
f 4/44/122 5/45/123 31/42/124
f 31/42/125 5/45/126 6/38/127 26/37/128
f 26/37/129 27/46/130 31/42/131
f 30/47/132 31/42/133 27/46/134 28/48/135
f 28/48/136 29/49/137 30/47/138
