# This file uses centimeters as units for non-parametric coordinates.

v -30.876518 -47.010361 0.000000
v -30.876518 -47.010361 4.678345
v -45.601845 -62.532608 0.000000
v -43.967224 -61.277122 4.678345
v -45.881317 -60.374023 4.678345
v -47.540665 -61.200825 0.000000
v -31.218719 -46.508686 0.000000
v -31.218719 -46.508686 4.678345
v -31.343414 -47.148087 0.000000
v -31.450533 -47.169296 3.343412
v -44.357990 -60.388050 3.343414
v -45.992733 -61.480007 0.000000
v -43.196106 -61.686001 4.678345
v -44.742607 -63.043121 0.000000
v 34.872555 -47.010361 0.000000
v 34.872555 -47.010361 4.678343
v 49.597885 -62.532608 0.000000
v 47.963261 -61.277122 4.678345
v 49.877357 -60.374023 4.678345
v 51.536701 -61.200825 0.000000
v 35.214756 -46.508686 0.000000
v 35.214756 -46.508686 4.678343
v 35.339447 -47.148087 0.000000
v 35.446571 -47.169296 3.343414
v 48.354031 -60.388050 3.343414
v 49.988770 -61.480007 0.000000
v 47.192142 -61.686001 4.678345
v 48.738647 -63.043121 0.000000
v -30.876518 46.937576 0.000000
v -30.876518 46.937576 4.678345
v -45.601845 62.459831 0.000000
v -43.967224 61.204346 4.678345
v -45.881317 60.301231 4.678345
v -47.540665 61.128033 0.000000
v -31.218719 46.435905 0.000000
v -31.218719 46.435905 4.678345
v -31.343414 47.075302 0.000000
v -31.450533 47.096512 3.343412
v -44.357990 60.315266 3.343414
v -45.992733 61.407223 0.000000
v -43.196106 61.613216 4.678345
v -44.742607 62.970329 0.000000
v 34.872555 46.937576 0.000000
v 34.872555 46.937576 4.678343
v 49.597885 62.459831 0.000000
v 47.963261 61.204346 4.678345
v 49.877357 60.301231 4.678345
v 51.536701 61.128033 0.000000
v 35.214756 46.435905 0.000000
v 35.214756 46.435905 4.678343
v 35.339447 47.075302 0.000000
v 35.446571 47.096512 3.343414
v 48.354031 60.315266 3.343414
v 49.988770 61.407223 0.000000
v 47.192142 61.613216 4.678345
v 48.738647 62.970329 0.000000
v -36.603046 -53.751911 4.678345
v 40.599083 -53.751911 4.678345
v 41.194244 -52.848782 4.678345
v 41.194244 52.775990 4.678345
v 40.599083 53.679119 4.678345
v -36.603046 53.679119 4.678345
v -37.198212 52.775990 4.678345
v -37.198212 -52.848782 4.678345
v -40.741638 -56.276649 4.678345
v -40.741638 56.203861 4.678345
v -40.116211 57.944305 4.678345
v 44.112255 57.944305 4.678345
v 44.737671 56.203861 4.678345
v 44.737671 -56.276649 4.678345
v -40.116211 -58.017094 4.678345
v 44.112255 -58.017094 4.678345
v -40.116211 -58.017094 5.938957
v -37.036324 -54.348183 5.938957
v 44.112255 -58.017094 5.938957
v 41.032364 -54.348183 5.938957
v -42.215683 -56.907688 5.938957
v -38.550018 -53.441360 5.938957
v -42.215683 56.834904 5.938957
v -38.550018 53.368568 5.938957
v -40.116211 57.944305 5.938957
v -37.036324 54.275391 5.938957
v 44.112255 57.944305 5.938957
v 41.032364 54.275391 5.938957
v 46.211716 56.834904 5.938957
v 42.546059 53.368568 5.938957
v 46.211716 -56.907688 5.938957
v 42.546059 -53.441360 5.938957
vt 0.172210 0.126280
vt 0.172216 0.126099
vt 0.172216 0.123378
vt 0.173435 0.150256
vt 0.173316 0.126338
vt 0.173309 0.126519
vt 0.173435 0.150256
vt 0.173316 0.123618
vt 0.172375 0.126133
vt 0.172373 0.126315
vt 0.173435 0.150256
vt 0.172393 0.123417
vt 0.173435 0.150256
vt 0.172305 0.123398
vt 0.172296 0.126116
vt 0.172291 0.126298
vt 0.173036 0.126277
vt 0.173065 0.126466
vt 0.173435 0.150256
vt 0.172210 0.126280
vt 0.172291 0.126298
vt 0.172296 0.126116
vt 0.172216 0.126099
vt 0.173435 0.150256
vt 0.173435 0.150256
vt 0.172216 0.123378
vt 0.172305 0.123398
vt 0.173065 0.126466
vt 0.173036 0.126277
vt 0.173435 0.150256
vt 0.173316 0.123618
vt 0.172393 0.123417
vt 0.172375 0.126133
vt 0.172373 0.126315
vt 0.173316 0.126338
vt 0.173309 0.126519
vt 0.173435 0.150256
vt 0.173435 0.150256
vt 0.172210 0.126280
vt 0.172216 0.126099
vt 0.172296 0.126116
vt 0.172291 0.126298
vt 0.173435 0.150256
vt 0.172305 0.123398
vt 0.172216 0.123378
vt 0.173435 0.150256
vt 0.173036 0.126277
vt 0.173065 0.126466
vt 0.173435 0.150256
vt 0.173316 0.123618
vt 0.173435 0.150256
vt 0.173435 0.150256
vt 0.173435 0.150256
vt 0.172393 0.123417
vt 0.172375 0.126133
vt 0.172373 0.126315
vt 0.173316 0.126338
vt 0.173309 0.126519
vt 0.172210 0.126280
vt 0.172216 0.126099
vt 0.172296 0.126116
vt 0.172291 0.126298
vt 0.172305 0.123398
vt 0.172216 0.123378
vt 0.173435 0.150256
vt 0.173036 0.126277
vt 0.173065 0.126466
vt 0.173435 0.150256
vt 0.173316 0.123618
vt 0.173435 0.150256
vt 0.173435 0.150256
vt 0.172393 0.123417
vt 0.172375 0.126133
vt 0.172373 0.126315
vt 0.173316 0.126338
vt 0.173309 0.126519
vt 0.173176 0.124948
vt 0.173176 0.124948
vt 0.172384 0.124775
vt 0.172384 0.124775
vt 0.173176 0.124948
vt 0.173176 0.124948
vt 0.172384 0.124775
vt 0.172384 0.124775
vt 0.172379 0.125454
vt 0.172379 0.125454
vt 0.173106 0.125612
vt 0.173106 0.125612
vt 0.172379 0.125454
vt 0.172379 0.125454
vt 0.173106 0.125612
vt 0.173106 0.125612
vt 0.173106 0.125612
vt 0.173176 0.124948
vt 0.173106 0.125612
vt 0.173176 0.124948
vt 0.172379 0.125454
vt 0.172384 0.124775
vt 0.172379 0.125454
vt 0.172384 0.124775
vt 0.173106 0.125612
vt 0.173176 0.124948
vt 0.173106 0.125612
vt 0.173176 0.124948
vt 0.172379 0.125454
vt 0.172384 0.124775
vt 0.172379 0.125454
vt 0.172384 0.124775
vt 0.173435 0.150256
vt 0.173435 0.150256
vt 0.173435 0.150256
vt 0.173435 0.150256
vt 0.173435 0.150256
vt 0.173435 0.150256
vt 0.173435 0.150256
vt 0.173435 0.150256
vt 0.173435 0.150256
vt 0.173435 0.150256
vt 0.173435 0.150256
vt 0.173435 0.150256
vt 0.172068 0.125343
vt 0.173640 0.125416
vt 0.173971 0.125805
vt 0.171737 0.125700
vt 0.172060 0.125331
vt 0.172057 0.125345
vt 0.171716 0.125687
vt 0.171707 0.125662
vt 0.173651 0.125420
vt 0.173648 0.125405
vt 0.174038 0.125765
vt 0.174001 0.125770
vt 0.173992 0.125794
vt 0.173648 0.123246
vt 0.174038 0.122923
vt 0.172057 0.123156
vt 0.172060 0.123171
vt 0.171670 0.122811
vt 0.171707 0.122807
vt 0.171716 0.122783
vt 0.172068 0.123160
vt 0.171737 0.122772
vt 0.171670 0.125654
vt 0.173640 0.123234
vt 0.173971 0.122877
vt 0.173651 0.123231
vt 0.173992 0.122889
vt 0.174001 0.122914
vn -0.912236 -0.092927 0.398987
vn -0.912236 -0.092927 0.398987
vn -0.912236 -0.092927 0.398987
vn -0.912236 -0.092927 0.398987
vn -0.272786 0.962074 -0.001099
vn -0.272786 0.962074 -0.001099
vn -0.272786 0.962074 -0.001099
vn -0.272786 0.962074 -0.001099
vn -0.662391 0.626546 0.410705
vn -0.662391 0.626546 0.410705
vn -0.662391 0.626546 0.410705
vn -0.662391 0.626546 0.410705
vn -0.000000 -0.960407 0.278600
vn -0.000000 -0.960407 0.278600
vn -0.000000 -0.960407 0.278600
vn -0.000000 -0.960407 0.278600
vn 0.000000 1.000000 0.000000
vn 0.000000 1.000000 0.000000
vn 0.000000 1.000000 0.000000
vn 0.000000 1.000000 0.000000
vn -0.000000 0.000000 1.000000
vn -0.000000 0.000000 1.000000
vn -0.000000 0.000000 1.000000
vn -0.000000 0.000000 1.000000
vn 0.961084 -0.275992 0.012104
vn 0.961084 -0.275992 0.012104
vn 0.961084 -0.275992 0.012104
vn 0.961084 -0.275992 0.012104
vn 0.677528 -0.689684 0.255523
vn 0.677528 -0.689684 0.255523
vn 0.677528 -0.689684 0.255523
vn 0.677528 -0.689684 0.255523
vn 0.677528 -0.689684 0.255523
vn 0.677528 -0.689684 0.255523
vn 0.007017 -0.973189 0.229900
vn 0.007017 -0.973189 0.229900
vn 0.007017 -0.973189 0.229900
vn 0.007017 -0.973189 0.229900
vn -0.000000 0.000000 1.000000
vn -0.000000 0.000000 1.000000
vn -0.000000 0.000000 1.000000
vn -0.000000 0.000000 1.000000
vn -0.000000 0.000000 1.000000
vn -0.454454 -0.805875 0.379523
vn -0.454454 -0.805875 0.379523
vn -0.454454 -0.805875 0.379523
vn -0.454454 -0.805875 0.379523
vn 0.912236 -0.092927 0.398986
vn 0.912236 -0.092927 0.398986
vn 0.912236 -0.092927 0.398986
vn 0.912236 -0.092927 0.398986
vn 0.272786 0.962074 -0.001099
vn 0.272786 0.962074 -0.001099
vn 0.272786 0.962074 -0.001099
vn 0.272786 0.962074 -0.001099
vn 0.662390 0.626545 0.410707
vn 0.662390 0.626545 0.410707
vn 0.662390 0.626545 0.410708
vn 0.662390 0.626545 0.410708
vn -0.961084 -0.275992 0.012106
vn -0.961084 -0.275992 0.012106
vn -0.961084 -0.275992 0.012106
vn -0.961084 -0.275992 0.012106
vn -0.677528 -0.689685 0.255521
vn -0.677528 -0.689684 0.255521
vn -0.677528 -0.689685 0.255521
vn -0.677528 -0.689684 0.255521
vn -0.677528 -0.689685 0.255521
vn -0.677528 -0.689685 0.255521
vn -0.007017 -0.973189 0.229900
vn -0.007017 -0.973189 0.229900
vn -0.007017 -0.973189 0.229900
vn -0.007017 -0.973189 0.229900
vn -0.000000 -0.000000 1.000000
vn -0.000000 -0.000000 1.000000
vn -0.000000 -0.000000 1.000000
vn -0.000000 -0.000000 1.000000
vn -0.000000 -0.000000 1.000000
vn 0.454453 -0.805874 0.379524
vn 0.454453 -0.805874 0.379524
vn 0.454453 -0.805874 0.379524
vn 0.454453 -0.805874 0.379524
vn 0.942473 0.000000 0.334282
vn 0.942473 0.000000 0.334282
vn 0.942473 0.000000 0.334282
vn 0.942473 0.000000 0.334282
vn -0.000000 0.000000 1.000000
vn -0.000000 0.000000 1.000000
vn -0.000000 0.000000 1.000000
vn -0.000000 0.000000 1.000000
vn -1.000000 0.000000 -0.000000
vn -1.000000 0.000000 -0.000000
vn -1.000000 0.000000 -0.000000
vn -1.000000 0.000000 -0.000000
vn -0.912237 0.092926 0.398985
vn -0.912237 0.092926 0.398985
vn -0.912237 0.092926 0.398985
vn -0.912237 0.092926 0.398985
vn -0.272786 -0.962074 -0.001099
vn -0.272786 -0.962074 -0.001099
vn -0.272786 -0.962074 -0.001099
vn -0.272786 -0.962074 -0.001099
vn -0.662390 -0.626545 0.410708
vn -0.662390 -0.626545 0.410708
vn -0.662390 -0.626545 0.410708
vn -0.662390 -0.626545 0.410708
vn 0.961084 0.275992 0.012105
vn 0.961084 0.275992 0.012105
vn 0.961084 0.275992 0.012105
vn 0.961084 0.275992 0.012105
vn 0.677527 0.689684 0.255525
vn 0.677527 0.689684 0.255525
vn 0.677527 0.689684 0.255525
vn 0.677527 0.689684 0.255525
vn 0.677527 0.689684 0.255525
vn 0.677527 0.689684 0.255525
vn 0.007013 0.973189 0.229901
vn 0.007013 0.973189 0.229901
vn 0.007013 0.973189 0.229901
vn 0.007013 0.973189 0.229901
vn -0.000000 0.000000 1.000000
vn -0.000000 0.000000 1.000000
vn -0.000000 0.000000 1.000000
vn -0.000000 0.000000 1.000000
vn -0.000000 0.000000 1.000000
vn -0.454444 0.805880 0.379522
vn -0.454444 0.805880 0.379522
vn -0.454444 0.805880 0.379522
vn -0.454444 0.805881 0.379522
vn -0.942473 0.000000 0.334283
vn -0.942473 0.000000 0.334283
vn -0.942473 0.000000 0.334283
vn -0.942473 0.000000 0.334283
vn -0.000000 0.000000 1.000000
vn -0.000000 0.000000 1.000000
vn -0.000000 0.000000 1.000000
vn -0.000000 0.000000 1.000000
vn 1.000000 0.000000 0.000000
vn 1.000000 0.000000 0.000000
vn 1.000000 0.000000 0.000000
vn 1.000000 0.000000 0.000000
vn 0.912236 0.092927 0.398987
vn 0.912236 0.092927 0.398987
vn 0.912236 0.092927 0.398987
vn 0.912236 0.092927 0.398987
vn 0.272786 -0.962074 -0.001099
vn 0.272786 -0.962074 -0.001099
vn 0.272786 -0.962074 -0.001099
vn 0.272786 -0.962074 -0.001099
vn 0.662390 -0.626545 0.410708
vn 0.662390 -0.626545 0.410709
vn 0.662390 -0.626545 0.410708
vn 0.662390 -0.626545 0.410708
vn -0.000000 0.960408 0.278599
vn -0.000000 0.960408 0.278599
vn -0.000000 0.960408 0.278599
vn -0.000000 0.960408 0.278599
vn 0.000000 -1.000000 0.000000
vn 0.000000 -1.000000 0.000000
vn 0.000000 -1.000000 0.000000
vn 0.000000 -1.000000 0.000000
vn -0.000000 -0.000000 1.000000
vn -0.000000 -0.000000 1.000000
vn -0.000000 -0.000000 1.000000
vn -0.000000 -0.000000 1.000000
vn -0.961084 0.275992 0.012105
vn -0.961084 0.275992 0.012105
vn -0.961084 0.275992 0.012105
vn -0.961084 0.275992 0.012105
vn -0.677527 0.689684 0.255523
vn -0.677527 0.689685 0.255523
vn -0.677527 0.689685 0.255523
vn -0.677527 0.689684 0.255523
vn -0.677527 0.689685 0.255523
vn -0.677527 0.689685 0.255523
vn -0.007013 0.973189 0.229901
vn -0.007013 0.973189 0.229901
vn -0.007013 0.973189 0.229901
vn -0.007013 0.973189 0.229901
vn -0.000000 0.000000 1.000000
vn -0.000000 0.000000 1.000000
vn -0.000000 0.000000 1.000000
vn -0.000000 0.000000 1.000000
vn -0.000000 0.000000 1.000000
vn 0.454444 0.805880 0.379524
vn 0.454444 0.805880 0.379524
vn 0.454444 0.805880 0.379524
vn 0.454444 0.805880 0.379524
vn -0.000000 0.000000 1.000000
vn -0.000000 0.000000 1.000000
vn -0.000000 0.000000 1.000000
vn -0.000000 0.000000 1.000000
vn -0.000000 0.000000 1.000000
vn -0.000000 0.000000 1.000000
vn -0.000000 0.000000 1.000000
vn -0.000000 0.000000 1.000000
vn -0.000000 0.000000 1.000000
vn -0.000000 0.000000 1.000000
vn -0.000000 0.000000 1.000000
vn -0.000000 0.000000 1.000000
vn -0.000000 0.000000 1.000000
vn -0.000000 0.000000 1.000000
vn -0.000000 0.000000 1.000000
vn -0.000000 0.000000 1.000000
vn -0.000000 0.000000 1.000000
vn -0.000000 0.000000 1.000000
vn -0.000000 0.000000 1.000000
vn -0.000000 0.000000 1.000000
vn -0.000000 -0.000000 1.000000
vn -0.000000 -0.000000 1.000000
vn -0.000000 -0.000000 1.000000
vn -0.000000 -0.000000 1.000000
vn -0.000000 0.000000 1.000000
vn -0.000000 0.000000 1.000000
vn -0.000000 0.000000 1.000000
vn -0.000000 0.000000 1.000000
vn -0.000000 -0.000000 1.000000
vn -0.000000 -0.000000 1.000000
vn -0.000000 -0.000000 1.000000
vn -0.000000 -0.000000 1.000000
vn 0.000000 -1.000000 0.000000
vn 0.000000 -1.000000 0.000000
vn 0.000000 -1.000000 0.000000
vn 0.000000 -1.000000 0.000000
vn -0.768973 0.639000 0.018972
vn -0.768973 0.639000 0.018972
vn -0.768973 0.639000 0.018972
vn -0.768973 0.639000 0.018972
vn 0.768973 0.639000 0.018972
vn 0.768973 0.639000 0.018972
vn 0.768973 0.639000 0.018972
vn 0.768973 0.639000 0.018972
vn -0.000000 0.903977 0.427582
vn -0.000000 0.903977 0.427582
vn -0.000000 0.903977 0.427582
vn -0.000000 0.903977 0.427582
vn 0.636334 -0.665400 0.390284
vn 0.636334 -0.665400 0.390284
vn 0.636334 -0.665400 0.390284
vn 0.636334 -0.665400 0.390284
vn 0.682007 0.000000 0.731346
vn 0.682007 0.000000 0.731346
vn 0.682007 0.000000 0.731346
vn 0.682007 0.000000 0.731346
vn -0.649944 0.000000 -0.759983
vn -0.649944 0.000000 -0.759982
vn -0.649944 0.000000 -0.759983
vn -0.649944 0.000000 -0.759983
vn 0.636336 0.665399 0.390284
vn 0.636336 0.665399 0.390283
vn 0.636336 0.665399 0.390283
vn 0.636336 0.665399 0.390283
vn -0.768973 -0.638999 0.018974
vn -0.768974 -0.638999 0.018974
vn -0.768973 -0.638999 0.018974
vn -0.768973 -0.638999 0.018974
vn -0.000000 -0.903977 0.427582
vn -0.000000 -0.903977 0.427582
vn -0.000000 -0.903977 0.427582
vn -0.000000 -0.903977 0.427582
vn 0.000000 1.000000 0.000000
vn 0.000000 1.000000 0.000000
vn 0.000000 1.000000 0.000000
vn 0.000000 1.000000 0.000000
vn 0.768973 -0.639000 0.018972
vn 0.768973 -0.639000 0.018972
vn 0.768973 -0.639000 0.018972
vn 0.768973 -0.639000 0.018972
vn -0.636335 0.665397 0.390287
vn -0.636335 0.665397 0.390287
vn -0.636335 0.665397 0.390287
vn -0.636335 0.665397 0.390287
vn -0.682008 0.000000 0.731345
vn -0.682008 0.000000 0.731345
vn -0.682008 0.000000 0.731345
vn -0.682008 0.000000 0.731345
vn 0.649943 0.000000 -0.759983
vn 0.649943 0.000000 -0.759983
vn 0.649943 0.000000 -0.759983
vn 0.649943 0.000000 -0.759983
vn -0.636334 -0.665399 0.390286
vn -0.636334 -0.665399 0.390286
vn -0.636334 -0.665399 0.390286
vn -0.636334 -0.665399 0.390286
vn 0.000000 0.000000 -1.000000
vn 0.000000 0.000000 -1.000000
vn 0.000000 0.000000 -1.000000
vn 0.000000 0.000000 -1.000000
vn 0.000000 -0.000000 -1.000000
vn 0.000000 -0.000000 -1.000000
vn 0.000000 -0.000000 -1.000000
vn 0.000000 -0.000000 -1.000000
vn 0.000000 0.000000 -1.000000
vn 0.000000 0.000000 -1.000000
vn 0.000000 0.000000 -1.000000
vn 0.000000 0.000000 -1.000000
vn 0.000000 0.000000 -1.000000
vn 0.000000 0.000000 -1.000000
vn 0.000000 0.000000 -1.000000
vn 0.000000 0.000000 -1.000000
vn 0.000000 -0.000000 -1.000000
vn 0.000000 -0.000000 -1.000000
vn 0.000000 -0.000000 -1.000000
vn 0.000000 0.000000 -1.000000
vn 0.000000 0.000000 -1.000000
vn 0.000000 0.000000 -1.000000
vn 0.000000 0.000000 -1.000000
vn 0.000000 -0.000000 -1.000000
vn 0.000000 -0.000000 -1.000000
vn 0.000000 -0.000000 -1.000000
vn 0.000000 -0.000000 -1.000000
vn 0.000000 -0.000000 -1.000000
vn 0.000000 -0.000000 -1.000000
vn 0.000000 -0.000000 -1.000000
vn 0.000000 0.000000 -1.000000
vn 0.000000 0.000000 -1.000000
vn 0.000000 0.000000 -1.000000
vn 0.000000 0.000000 -1.000000
vn 0.000000 -0.000000 -1.000000
vn 0.000000 -0.000000 -1.000000
vn 0.000000 -0.000000 -1.000000
vn 0.000000 -0.000000 -1.000000
vn 0.000000 0.000000 -1.000000
vn 0.000000 0.000000 -1.000000
vn 0.000000 0.000000 -1.000000
vn 0.000000 0.000000 -1.000000
vn 0.000000 -0.000000 -1.000000
vn 0.000000 -0.000000 -1.000000
vn 0.000000 -0.000000 -1.000000
vn 0.000000 -0.000000 -1.000000
vn 0.000000 0.000000 -1.000000
vn 0.000000 0.000000 -1.000000
vn 0.000000 0.000000 -1.000000
vn 0.000000 0.000000 -1.000000
vn 0.000000 0.000000 -1.000000
vn 0.000000 0.000000 -1.000000
vn 0.000000 0.000000 -1.000000
vn 0.000000 -0.000000 -1.000000
vn 0.000000 -0.000000 -1.000000
vn 0.000000 -0.000000 -1.000000
vn 0.000000 0.000000 -1.000000
vn 0.000000 0.000000 -1.000000
vn 0.000000 0.000000 -1.000000
vn 0.000000 0.000000 -1.000000
s off
f 3/1/1 4/2/2 11/15/3 12/16/4
f 9/4/5 10/7/6 2/11/7 1/13/8
f 10/14/9 11/15/10 4/2/11 2/3/12
f 13/17/13 14/18/14 28/28/15 27/29/16
f 15/38/17 1/13/18 2/11/19 16/43/20
f 16/43/21 2/11/22 57/19/23 58/49/24
f 7/24/25 8/25/26 10/7/27 9/4/28
f 5/9/29 11/15/30 10/14/31 8/12/32 64/84/33 65/85/34
f 12/16/35 11/15/36 5/9/37 6/10/38
f 13/17/39 71/91/40 57/77/41 2/8/42 4/5/43
f 14/18/44 13/17/45 4/5/46 3/6/47
f 17/20/48 26/21/49 25/22/50 18/23/51
f 23/37/52 15/38/53 16/43/54 24/46/55
f 24/27/56 16/26/57 18/23/58 25/22/59
f 21/51/60 23/37/61 24/46/62 22/52/63
f 19/33/64 70/90/65 59/79/66 22/32/67 24/27/68 25/22/69
f 26/21/70 20/34/71 19/33/72 25/22/73
f 27/29/74 18/35/75 16/31/76 58/78/77 72/92/78
f 28/28/79 17/36/80 18/35/81 27/29/82
f 19/33/83 20/34/84 48/74/85 47/73/86
f 50/119/87 22/52/88 59/53/89 60/120/90
f 49/118/91 21/51/92 22/52/93 50/119/94
f 31/39/95 40/42/96 39/41/97 32/40/98
f 37/65/99 29/68/100 30/70/101 38/71/102
f 38/44/103 30/45/104 32/40/105 39/41/106
f 35/110/107 37/65/108 38/71/109 36/111/110
f 33/55/111 66/86/112 63/83/113 36/54/114 38/44/115 39/41/116
f 40/42/117 34/56/118 33/55/119 39/41/120
f 41/47/121 32/57/122 30/50/123 62/82/124 67/87/125
f 42/48/126 31/58/127 32/57/128 41/47/129
f 5/9/130 33/55/131 34/56/132 6/10/133
f 8/25/134 36/111/135 63/112/136 64/30/137
f 7/24/138 35/110/139 36/111/140 8/25/141
f 45/59/142 46/60/143 53/61/144 54/62/145
f 51/113/146 52/114/147 44/115/148 43/116/149
f 52/63/150 53/61/151 46/60/152 44/64/153
f 41/47/154 55/66/155 56/67/156 42/48/157
f 29/68/158 43/116/159 44/115/160 30/70/161
f 30/70/162 44/115/163 61/117/164 62/109/165
f 49/118/166 50/119/167 52/114/168 51/113/169
f 47/73/170 53/61/171 52/63/172 50/72/173 60/80/174 69/89/175
f 54/62/176 53/61/177 47/73/178 48/74/179
f 55/66/180 68/88/181 61/81/182 44/69/183 46/75/184
f 56/67/185 55/66/186 46/75/187 45/76/188
f 74/94/189 73/93/190 75/95/191 76/96/192
f 70/90/193 19/33/194 47/73/195 69/89/196
f 68/88/197 55/66/198 41/47/199 67/87/200
f 66/86/201 33/55/202 5/9/203 65/85/204
f 78/98/205 80/100/206 79/99/207 77/97/208
f 82/102/209 84/104/210 83/103/211 81/101/212
f 86/106/213 88/108/214 87/107/215 85/105/216
f 71/91/217 13/17/218 27/29/219 72/92/220
f 73/93/221 71/91/222 72/92/223 75/95/224
f 57/77/225 71/91/226 73/93/227 74/94/228
f 72/92/229 58/78/230 76/96/231 75/95/232
f 74/94/233 76/96/234 58/78/235 57/77/236
f 65/85/237 64/84/238 78/98/239 77/97/240
f 78/98/241 64/84/242 63/83/243 80/100/244
f 77/97/245 79/99/246 66/86/247 65/85/248
f 63/83/249 66/86/250 79/99/251 80/100/252
f 67/87/253 62/82/254 82/102/255 81/101/256
f 82/102/257 62/82/258 61/81/259 84/104/260
f 81/101/261 83/103/262 68/88/263 67/87/264
f 61/81/265 68/88/266 83/103/267 84/104/268
f 69/89/269 60/80/270 86/106/271 85/105/272
f 86/106/273 60/80/274 59/79/275 88/108/276
f 85/105/277 87/107/278 70/90/279 69/89/280
f 59/79/281 70/90/282 87/107/283 88/108/284
f 1/121/285 15/122/286 28/123/287 14/124/288
f 7/125/289 9/126/290 3/127/291 12/128/292
f 9/126/293 1/121/294 14/124/295 3/127/296
f 23/129/297 21/130/298 20/131/299 26/132/300
f 17/133/301 23/129/302 26/132/303
f 21/130/304 49/134/305 48/135/306 20/131/307
f 40/139/308 35/137/309 34/138/310
f 29/141/311 37/136/312 31/140/313 42/142/314
f 35/137/315 7/125/316 6/143/317 34/138/318
f 43/144/319 29/141/320 42/142/321 56/145/322
f 49/134/323 51/146/324 45/147/325 54/148/326
f 51/146/327 43/144/328 56/145/329 45/147/330
f 7/125/331 12/128/332 6/143/333
f 15/122/334 23/129/335 17/133/336 28/123/337
f 49/134/338 54/148/339 48/135/340
f 37/136/341 35/137/342 40/139/343 31/140/344
