# This file uses centimeters as units for non-parametric coordinates.

v 0.448171 -15.890539 -0.776237
v -0.448168 -15.890541 -0.776238
v -0.896338 -15.890541 0.000008
v -0.448169 -15.890541 0.776245
v 0.448169 -15.890541 0.776246
v 0.896338 -15.890541 0.000008
v 0.807547 -15.317316 -1.398735
v -0.807572 -15.317316 -1.398736
v -1.615120 -15.317314 0.000008
v -0.807576 -15.317314 1.398743
v 0.807575 -15.317314 1.398743
v 1.615120 -15.317314 0.000008
v 1.006998 -14.488985 -1.744195
v -1.007022 -14.488983 -1.744194
v -2.014019 -14.488983 0.000007
v -1.007027 -14.488983 1.744209
v 1.007025 -14.488983 1.744209
v 2.014019 -14.488983 0.000008
v 1.006998 12.933517 -1.744194
v -1.007022 12.933502 -1.744194
v -2.014019 12.933502 0.000008
v -1.007027 12.933517 1.744209
v 1.007025 12.933517 1.744209
v 2.014019 12.933517 0.000008
v 0.000000 -16.095116 0.000008
v -1.007022 11.125717 -1.744194
v 1.006998 11.125732 -1.744194
v 2.014019 11.125717 0.000008
v 1.007025 11.125732 1.744209
v -1.007027 11.125732 1.744209
v -2.014019 11.125717 0.000008
v -1.322388 11.638306 -2.290459
v 1.322393 11.638306 -2.290459
v -1.342237 12.349106 -2.324837
v 1.342245 12.349106 -2.324837
v 2.644808 11.638306 0.000008
v 2.684481 12.349106 0.000008
v 1.322390 11.638306 2.290474
v 1.342241 12.349106 2.324837
v -1.322393 11.638306 2.290474
v -1.342245 12.349106 2.324837
v -2.644812 11.638306 0.000008
v -2.684484 12.349121 0.000008
v 0.717684 12.609131 -1.243080
v -0.717707 12.609131 -1.243080
v -1.435389 12.609131 0.000008
v -0.717711 12.609131 1.243095
v 0.717710 12.609131 1.243095
v 1.435389 12.609131 0.000007
v 0.000000 12.094025 0.000008
v 0.785773 12.388000 -1.361000
v -0.785777 12.388000 -1.361000
v -1.571559 12.388000 0.000008
v -0.785793 12.388016 1.361000
v 0.785757 12.388000 1.361000
v 1.571555 12.388000 0.000008
v 1.268892 15.423025 -2.063952
v 0.985847 16.095123 -1.707543
v -1.181965 15.677292 -2.047218
v -0.996374 16.095123 -1.481226
v -2.363918 15.677292 -0.000008
v -1.971693 16.095123 0.000008
v -1.179550 15.332440 2.113937
v -0.985867 16.095123 1.707558
v 1.181946 15.677277 2.047203
v 0.985862 16.095123 1.707558
v 2.363916 15.677292 -0.000007
v 1.710764 16.095123 0.000007
vt 0.426456 0.334134
vt 0.426484 0.334138
vt 0.426502 0.334114
vt 0.426452 0.334106
vt 0.426490 0.334152
vt 0.426513 0.334139
vt 0.426467 0.334162
vt 0.426471 0.334156
vt 0.426438 0.334157
vt 0.426420 0.334147
vt 0.426433 0.334143
vt 0.426411 0.334122
vt 0.426513 0.334085
vt 0.426450 0.334075
vt 0.426526 0.334116
vt 0.426474 0.334136
vt 0.426409 0.334125
vt 0.426398 0.334094
vt 0.426518 0.333231
vt 0.426449 0.333228
vt 0.426533 0.333239
vt 0.426475 0.333245
vt 0.426403 0.333242
vt 0.426392 0.333233
vt 0.426462 0.334154
vt 0.426445 0.333207
vt 0.426535 0.333211
vt 0.426537 0.333184
vt 0.426445 0.333181
vt 0.426370 0.333214
vt 0.426368 0.333187
vt 0.426384 0.333224
vt 0.426383 0.333196
vt 0.426480 0.333228
vt 0.426480 0.333200
vt 0.426557 0.333193
vt 0.426556 0.333221
vt 0.426518 0.333164
vt 0.426449 0.333162
vt 0.426391 0.333166
vt 0.426403 0.333172
vt 0.426475 0.333175
vt 0.426533 0.333170
vt 0.426502 0.333177
vt 0.426452 0.333176
vt 0.426513 0.333182
vt 0.426471 0.333185
vt 0.426420 0.333183
vt 0.426411 0.333179
vt 0.426462 0.333200
vt 0.188806 0.149293
vt 0.188781 0.149371
vt 0.189238 0.149322
vt 0.189302 0.149404
vt 0.189337 0.149406
vt 0.189417 0.149501
vt 0.189036 0.149460
vt 0.189056 0.149561
vt 0.188417 0.149440
vt 0.188503 0.149353
vt 0.188632 0.149435
vt 0.188576 0.149533
vt 0.188690 0.150213
vt 0.189014 0.150225
vt 0.189254 0.150200
vt 0.188589 0.150176
vt 0.189173 0.150162
vt 0.188831 0.150149
vn 0.000001 -0.735622 -0.677393
vn 0.000001 -0.735622 -0.677393
vn 0.000001 -0.735622 -0.677393
vn 0.000001 -0.735622 -0.677393
vn -0.586645 -0.735618 -0.338696
vn -0.586645 -0.735618 -0.338696
vn -0.586645 -0.735618 -0.338696
vn -0.586645 -0.735618 -0.338696
vn -0.586644 -0.735617 0.338697
vn -0.586644 -0.735617 0.338697
vn -0.586644 -0.735617 0.338697
vn -0.586644 -0.735617 0.338697
vn -0.000000 -0.735620 0.677395
vn -0.000000 -0.735620 0.677395
vn -0.000000 -0.735620 0.677395
vn -0.000000 -0.735620 0.677395
vn 0.586644 -0.735617 0.338697
vn 0.586644 -0.735617 0.338697
vn 0.586644 -0.735617 0.338697
vn 0.586644 -0.735617 0.338697
vn 0.586648 -0.735611 -0.338704
vn 0.586648 -0.735611 -0.338704
vn 0.586648 -0.735611 -0.338704
vn 0.586648 -0.735611 -0.338704
vn -0.000000 -0.384919 -0.922950
vn -0.000000 -0.384919 -0.922950
vn -0.000000 -0.384919 -0.922950
vn -0.000000 -0.384919 -0.922950
vn -0.799303 -0.384918 -0.461468
vn -0.799303 -0.384918 -0.461468
vn -0.799303 -0.384918 -0.461468
vn -0.799303 -0.384918 -0.461468
vn -0.799302 -0.384921 0.461468
vn -0.799302 -0.384921 0.461468
vn -0.799302 -0.384921 0.461468
vn -0.799302 -0.384921 0.461468
vn 0.000000 -0.384927 0.922947
vn 0.000000 -0.384927 0.922947
vn 0.000000 -0.384927 0.922947
vn 0.000000 -0.384927 0.922947
vn 0.799302 -0.384920 0.461468
vn 0.799302 -0.384920 0.461468
vn 0.799302 -0.384920 0.461468
vn 0.799302 -0.384920 0.461468
vn 0.799297 -0.384919 -0.461477
vn 0.799297 -0.384919 -0.461477
vn 0.799297 -0.384919 -0.461477
vn 0.799297 -0.384919 -0.461477
vn -0.000000 0.000000 -1.000000
vn -0.000000 0.000000 -1.000000
vn -0.000000 0.000000 -1.000000
vn -0.000000 0.000000 -1.000000
vn -0.866029 0.000000 -0.499993
vn -0.866029 0.000000 -0.499993
vn -0.866029 0.000000 -0.499993
vn -0.866029 0.000000 -0.499993
vn -0.866030 -0.000000 0.499991
vn -0.866030 -0.000000 0.499991
vn -0.866030 -0.000000 0.499991
vn -0.866030 -0.000000 0.499991
vn 0.000000 0.000000 1.000000
vn 0.000000 0.000000 1.000000
vn 0.000000 0.000000 1.000000
vn 0.000000 0.000000 1.000000
vn 0.866030 0.000000 0.499992
vn 0.866030 0.000000 0.499992
vn 0.866030 0.000000 0.499992
vn 0.866030 0.000000 0.499992
vn 0.866024 0.000000 -0.500002
vn 0.866024 0.000000 -0.500002
vn 0.866024 0.000000 -0.500002
vn 0.866024 0.000000 -0.500002
vn 0.000002 -0.966982 -0.254844
vn 0.000002 -0.966982 -0.254844
vn 0.000002 -0.966982 -0.254844
vn -0.220698 -0.966983 -0.127422
vn -0.220698 -0.966983 -0.127422
vn -0.220698 -0.966983 -0.127422
vn -0.220698 -0.966983 0.127423
vn -0.220698 -0.966983 0.127423
vn -0.220698 -0.966983 0.127423
vn -0.000000 -0.966982 0.254845
vn -0.000000 -0.966982 0.254845
vn -0.000000 -0.966982 0.254845
vn 0.220698 -0.966983 0.127423
vn 0.220698 -0.966983 0.127423
vn 0.220698 -0.966983 0.127423
vn 0.220698 -0.966983 -0.127423
vn 0.220698 -0.966983 -0.127423
vn 0.220698 -0.966983 -0.127423
vn 0.000000 -0.048309 -0.998832
vn 0.000000 -0.048309 -0.998832
vn 0.000000 -0.048309 -0.998832
vn 0.000000 -0.048309 -0.998832
vn 0.865015 -0.048296 -0.499416
vn 0.865015 -0.048296 -0.499416
vn 0.865015 -0.048296 -0.499416
vn 0.865015 -0.048296 -0.499416
vn 0.865014 -0.048291 0.499419
vn 0.865014 -0.048291 0.499419
vn 0.865014 -0.048291 0.499419
vn 0.865014 -0.048291 0.499419
vn 0.000000 -0.048287 0.998833
vn 0.000000 -0.048287 0.998833
vn 0.000000 -0.048287 0.998833
vn 0.000000 -0.048287 0.998833
vn -0.865014 -0.048291 0.499419
vn -0.865014 -0.048291 0.499419
vn -0.865014 -0.048291 0.499419
vn -0.865014 -0.048291 0.499419
vn -0.865013 -0.048295 -0.499420
vn -0.865013 -0.048295 -0.499420
vn -0.865013 -0.048295 -0.499420
vn -0.865013 -0.048295 -0.499420
vn 0.000002 -0.729232 -0.684266
vn 0.000002 -0.729232 -0.684266
vn 0.000002 -0.729232 -0.684266
vn 0.000002 -0.729232 -0.684266
vn -0.000002 0.704820 -0.709386
vn -0.000002 0.704820 -0.709386
vn -0.000002 0.704820 -0.709386
vn -0.000002 0.704820 -0.709386
vn 0.592583 -0.729239 -0.342133
vn 0.592583 -0.729239 -0.342133
vn 0.592583 -0.729239 -0.342133
vn 0.592583 -0.729239 -0.342133
vn 0.614349 0.704817 -0.354694
vn 0.614349 0.704817 -0.354694
vn 0.614349 0.704817 -0.354694
vn 0.614349 0.704817 -0.354694
vn 0.592592 -0.729231 0.342135
vn 0.592592 -0.729231 0.342135
vn 0.592592 -0.729231 0.342135
vn 0.592592 -0.729231 0.342135
vn 0.614359 0.704807 0.354697
vn 0.614359 0.704807 0.354697
vn 0.614359 0.704807 0.354697
vn 0.614359 0.704807 0.354697
vn 0.000000 -0.729237 0.684261
vn 0.000000 -0.729237 0.684261
vn 0.000000 -0.729237 0.684261
vn 0.000000 -0.729237 0.684261
vn 0.000000 0.704806 0.709400
vn 0.000000 0.704806 0.709400
vn 0.000000 0.704806 0.709400
vn 0.000000 0.704806 0.709400
vn -0.592591 -0.729233 0.342134
vn -0.592591 -0.729233 0.342134
vn -0.592591 -0.729233 0.342134
vn -0.592591 -0.729233 0.342134
vn -0.614350 0.704818 0.354691
vn -0.614350 0.704818 0.354691
vn -0.614350 0.704818 0.354691
vn -0.614350 0.704818 0.354691
vn -0.592596 -0.729227 -0.342137
vn -0.592596 -0.729227 -0.342137
vn -0.592596 -0.729227 -0.342137
vn -0.592596 -0.729227 -0.342137
vn -0.614344 0.704824 -0.354691
vn -0.614344 0.704824 -0.354691
vn -0.614344 0.704824 -0.354691
vn -0.614344 0.704824 -0.354691
vn -0.000004 0.839472 0.543404
vn -0.000004 0.839472 0.543404
vn -0.000004 0.839472 0.543404
vn -0.000004 0.839472 0.543404
vn 0.470598 0.839476 0.271695
vn 0.470598 0.839476 0.271695
vn 0.470598 0.839476 0.271695
vn 0.470598 0.839476 0.271695
vn 0.470605 0.839470 -0.271701
vn 0.470605 0.839470 -0.271701
vn 0.470605 0.839470 -0.271701
vn 0.470605 0.839470 -0.271701
vn 0.000000 0.839466 -0.543412
vn 0.000000 0.839466 -0.543412
vn 0.000000 0.839466 -0.543412
vn 0.000000 0.839466 -0.543412
vn -0.470614 0.839464 -0.271703
vn -0.470614 0.839464 -0.271703
vn -0.470614 0.839464 -0.271703
vn -0.470614 0.839464 -0.271703
vn -0.470611 0.839464 0.271710
vn -0.470611 0.839464 0.271710
vn -0.470611 0.839464 0.271710
vn -0.470611 0.839464 0.271710
vn 0.000000 0.923826 0.382811
vn 0.000000 0.923826 0.382811
vn 0.000000 0.923826 0.382811
vn 0.331526 0.923827 0.191403
vn 0.331526 0.923827 0.191403
vn 0.331526 0.923827 0.191403
vn 0.331526 0.923827 -0.191403
vn 0.331526 0.923827 -0.191403
vn 0.331526 0.923827 -0.191403
vn 0.000000 0.923827 -0.382811
vn 0.000000 0.923827 -0.382811
vn 0.000000 0.923827 -0.382811
vn -0.331526 0.923827 -0.191401
vn -0.331526 0.923827 -0.191401
vn -0.331526 0.923827 -0.191401
vn -0.331526 0.923826 0.191406
vn -0.331526 0.923826 0.191406
vn -0.331526 0.923826 0.191406
vn -0.000010 -1.000000 -0.000007
vn -0.000010 -1.000000 -0.000007
vn -0.000010 -1.000000 -0.000007
vn 0.000000 -1.000000 0.000006
vn 0.000000 -1.000000 0.000006
vn 0.000000 -1.000000 0.000006
vn 0.000000 -1.000000 0.000006
vn 0.000000 -1.000000 0.000000
vn 0.000000 -1.000000 0.000000
vn 0.000000 -1.000000 0.000000
vn 0.647342 0.673025 -0.357751
vn 0.647342 0.673025 -0.357751
vn 0.647342 0.673025 -0.357751
vn 0.647342 0.673025 -0.357751
vn -0.004824 0.645745 -0.763538
vn -0.004824 0.645745 -0.763538
vn -0.004824 0.645745 -0.763538
vn -0.004824 0.645745 -0.763538
vn -0.620645 0.686157 -0.379459
vn -0.620645 0.686157 -0.379459
vn -0.620645 0.686157 -0.379459
vn -0.620645 0.686157 -0.379459
vn -0.723651 0.516671 0.457581
vn -0.723651 0.516671 0.457581
vn -0.723651 0.516671 0.457581
vn -0.723651 0.516671 0.457581
vn -0.029477 0.533935 0.845011
vn -0.029477 0.533935 0.845011
vn -0.029477 0.533935 0.845011
vn -0.029477 0.533935 0.845011
vn 0.602723 0.736904 0.306099
vn 0.602723 0.736904 0.306099
vn 0.602723 0.736904 0.306099
vn 0.602723 0.736904 0.306099
vn -0.017608 -0.214277 -0.976614
vn -0.017608 -0.214277 -0.976614
vn -0.017608 -0.214277 -0.976614
vn -0.017608 -0.214277 -0.976614
vn -0.847773 -0.204224 -0.489462
vn -0.847773 -0.204224 -0.489462
vn -0.847773 -0.204224 -0.489462
vn -0.847773 -0.204224 -0.489462
vn -0.857907 -0.219356 0.464627
vn -0.857907 -0.219356 0.464627
vn -0.857907 -0.219356 0.464627
vn -0.857907 -0.219356 0.464627
vn 0.036232 -0.224813 0.973728
vn 0.036232 -0.224813 0.973728
vn 0.036232 -0.224813 0.973728
vn 0.036232 -0.224813 0.973728
vn 0.847770 -0.204222 0.489469
vn 0.847770 -0.204222 0.489469
vn 0.847770 -0.204222 0.489469
vn 0.847770 -0.204222 0.489469
vn 0.861114 -0.224379 -0.456221
vn 0.861114 -0.224379 -0.456221
vn 0.861114 -0.224379 -0.456221
vn 0.861114 -0.224379 -0.456221
vn 0.000000 1.000000 0.000000
vn 0.000000 1.000000 0.000000
vn 0.000000 1.000000 0.000000
vn 0.000000 1.000000 0.000000
vn 0.000000 1.000000 0.000000
vn 0.000000 1.000000 0.000000
vn 0.000000 1.000000 0.000000
vn 0.000000 1.000000 0.000000
vn 0.000000 1.000000 0.000000
vn 0.000000 1.000000 0.000000
s off
f 1/1/1 2/2/2 8/3/3 7/4/4
f 2/2/5 3/5/6 9/6/7 8/3/8
f 3/5/9 4/7/10 10/8/11 9/6/12
f 4/7/13 5/9/14 11/10/15 10/8/16
f 5/9/17 6/11/18 12/12/19 11/10/20
f 6/11/21 1/1/22 7/4/23 12/12/24
f 7/4/25 8/3/26 14/13/27 13/14/28
f 8/3/29 9/6/30 15/15/31 14/13/32
f 9/6/33 10/8/34 16/16/35 15/15/36
f 10/8/37 11/10/38 17/17/39 16/16/40
f 11/10/41 12/12/42 18/18/43 17/17/44
f 12/12/45 7/4/46 13/14/47 18/18/48
f 13/14/49 14/13/50 26/19/51 27/20/52
f 14/13/53 15/15/54 31/21/55 26/19/56
f 15/15/57 16/16/58 30/22/59 31/21/60
f 16/16/61 17/17/62 29/23/63 30/22/64
f 17/17/65 18/18/66 28/24/67 29/23/68
f 18/18/69 13/14/70 27/20/71 28/24/72
f 2/2/73 1/1/74 25/25/75
f 3/5/76 2/2/77 25/25/78
f 4/7/79 3/5/80 25/25/81
f 5/9/82 4/7/83 25/25/84
f 6/11/85 5/9/86 25/25/87
f 1/1/88 6/11/89 25/25/90
f 33/26/91 32/27/92 34/28/93 35/29/94
f 36/30/95 33/26/96 35/29/97 37/31/98
f 38/32/99 36/30/100 37/31/101 39/33/102
f 40/34/103 38/32/104 39/33/105 41/35/106
f 43/36/107 42/37/108 40/34/109 41/35/110
f 32/27/111 42/37/112 43/36/113 34/28/114
f 27/20/115 26/19/116 32/27/117 33/26/118
f 20/38/119 19/39/120 35/29/121 34/28/122
f 28/24/123 27/20/124 33/26/125 36/30/126
f 19/39/127 24/40/128 37/31/129 35/29/130
f 29/23/131 28/24/132 36/30/133 38/32/134
f 24/40/135 23/41/136 39/33/137 37/31/138
f 30/22/139 29/23/140 38/32/141 40/34/142
f 23/41/143 22/42/144 41/35/145 39/33/146
f 31/21/147 30/22/148 40/34/149 42/37/150
f 22/42/151 21/43/152 43/36/153 41/35/154
f 26/19/155 31/21/156 42/37/157 32/27/158
f 21/43/159 20/38/160 34/28/161 43/36/162
f 19/39/163 20/38/164 45/44/165 44/45/166
f 20/38/167 21/43/168 46/46/169 45/44/170
f 21/43/171 22/42/172 47/47/173 46/46/174
f 22/42/175 23/41/176 48/48/177 47/47/178
f 23/41/179 24/40/180 49/49/181 48/48/182
f 24/40/183 19/39/184 44/45/185 49/49/186
f 44/45/187 45/44/188 50/50/189
f 45/44/190 46/46/191 50/50/192
f 46/46/193 47/47/194 50/50/195
f 47/47/196 48/48/197 50/50/198
f 48/48/199 49/49/200 50/50/201
f 49/49/202 44/45/203 50/50/204
f 55/68/205 54/67/206 56/66/207
f 56/66/208 54/67/209 53/65/210 52/64/211
f 52/64/212 51/63/213 56/66/214
f 57/62/215 58/61/216 68/60/217 67/59/218
f 58/61/219 57/62/220 59/58/221 60/57/222
f 60/57/223 59/58/224 61/56/225 62/55/226
f 62/55/227 61/56/228 63/54/229 64/53/230
f 64/53/231 63/54/232 65/52/233 66/51/234
f 66/51/235 65/52/236 67/59/237 68/60/238
f 51/63/239 52/64/240 59/58/241 57/62/242
f 52/64/243 53/65/244 61/56/245 59/58/246
f 53/65/247 54/67/248 63/54/249 61/56/250
f 54/67/251 55/68/252 65/52/253 63/54/254
f 55/68/255 56/66/256 67/59/257 65/52/258
f 56/66/259 51/63/260 57/62/261 67/59/262
f 68/60/263 58/61/264 66/51/265
f 66/51/266 58/61/267 60/57/268 62/55/269
f 62/55/270 64/53/271 66/51/272
