# This file uses centimeters as units for non-parametric coordinates.

v -11.431979 0.000000 133.233215
v 48.201946 0.000000 123.723282
v 96.444199 0.000000 92.828072
v 125.954353 0.000000 45.424446
v 144.671402 0.000000 1.044680
v 138.599686 0.000000 -57.912891
v 107.494690 0.000000 -107.494705
v 58.175694 0.000000 -140.448593
v -0.000007 0.000000 -152.020462
v -58.175720 0.000000 -140.448593
v -107.494728 0.000000 -107.494667
v -140.448608 0.000000 -58.175686
v -152.020462 0.000000 0.000014
v -140.448578 0.000000 58.175743
v -107.494667 0.000000 107.494736
v -68.078201 0.000000 119.651810
v 0.000003 0.000000 0.000002
v -107.494667 3.343652 107.494736
v -68.078201 3.343652 119.651810
v 0.000003 3.343652 0.000002
v -11.431979 3.343652 133.233215
v 48.201946 3.343652 123.723282
v 96.412659 3.343652 92.832565
v 125.954353 3.343652 45.424446
v 144.671402 3.343652 1.044680
v 138.599686 3.343652 -57.912891
v 107.494690 3.343652 -107.494705
v 58.175694 3.343652 -140.448593
v -0.000007 3.343652 -152.020462
v -58.175720 3.343652 -140.448593
v -107.494728 3.343652 -107.494667
v -140.448608 3.343652 -58.175686
v -152.020462 3.343652 0.000014
v -140.448578 3.343652 58.175743
v -31.484447 3.343652 76.010216
v 0.000003 3.343652 62.969006
v 20.308325 3.343652 54.025280
v 40.336761 3.343652 45.121296
v 68.661163 3.343652 32.529152
v -31.484447 0.000000 76.010216
v 0.000003 0.000000 62.969006
v 20.308325 0.000000 54.025280
v 40.336761 0.000000 45.121296
v 68.661163 0.000000 32.529152
v 70.214905 3.343652 67.010002
v 31.440018 3.343652 82.182495
v -9.094904 3.343652 97.605141
v -9.094904 0.000000 97.605141
v 31.440018 0.000000 82.182495
v 70.214905 0.000000 67.010002
v 97.440117 7.302308 38.853806
v 134.748474 7.302308 22.554819
v -87.555336 7.302308 113.739090
v -87.557404 10.645960 113.947884
v 97.349060 10.645960 38.943062
v 134.835480 10.645960 22.561583
v -49.174198 10.645960 100.518860
v -49.337742 7.302308 100.430962
v 54.249229 10.645960 54.855618
v 25.016661 10.645960 66.659409
v -5.021908 10.645960 79.738396
v -5.123313 7.302308 79.612473
v 24.932804 7.302308 66.528381
v 54.186516 7.302308 54.745800
vt 0.444927 0.115308
vt 0.413415 0.115308
vt 0.444927 0.115308
vt 0.413415 0.115308
vt 0.444927 0.115308
vt 0.413415 0.115308
vt 0.444927 0.115308
vt 0.413415 0.115308
vt 0.444927 0.115308
vt 0.413415 0.115308
vt 0.444927 0.115308
vt 0.413415 0.115308
vt 0.444927 0.115308
vt 0.413415 0.115308
vt 0.444927 0.115308
vt 0.413415 0.115308
vt 0.429171 0.194519
vt 0.444927 0.115308
vt 0.413415 0.115308
vt 0.429171 0.194519
vt 0.444927 0.115308
vt 0.429171 0.194519
vt 0.413415 0.115308
vt 0.429171 0.194519
vt 0.444927 0.115308
vt 0.429171 0.194519
vt 0.413415 0.115308
vt 0.429171 0.194519
vt 0.444927 0.115308
vt 0.429171 0.194519
vt 0.413415 0.115308
vt 0.429171 0.194519
vt 0.444927 0.115308
vt 0.429171 0.194519
vt 0.413415 0.115308
vt 0.429171 0.194519
vt 0.444927 0.115308
vt 0.429171 0.194519
vt 0.413415 0.115308
vt 0.429171 0.194519
vt 0.444927 0.115308
vt 0.429171 0.194519
vt 0.413415 0.115308
vt 0.429171 0.194519
vt 0.444927 0.115308
vt 0.429171 0.194519
vt 0.413415 0.115308
vt 0.429171 0.194519
vt 0.444927 0.115308
vt 0.413415 0.115308
vt 0.429171 0.194519
vt 0.413415 0.115308
vt 0.444927 0.115308
vt 0.429171 0.194519
vt 0.444927 0.115308
vt 0.413415 0.115308
vt 0.429171 0.194519
vt 0.413415 0.115308
vt 0.444927 0.115308
vt 0.429171 0.194519
vt 0.444927 0.115308
vt 0.413415 0.115308
vt 0.429171 0.194519
vt 0.413415 0.115308
vt 0.444927 0.115308
vt 0.429171 0.194519
vt 0.444927 0.115308
vt 0.413415 0.115308
vt 0.429171 0.194519
vt 0.413415 0.115308
vt 0.444927 0.115308
vt 0.429171 0.194519
vt 0.444927 0.115308
vt 0.413415 0.115308
vt 0.429171 0.194519
vt 0.413415 0.115308
vt 0.444927 0.115308
vt 0.429171 0.194519
vt 0.444927 0.115308
vt 0.413415 0.115308
vt 0.429171 0.194519
vt 0.413415 0.115308
vt 0.444927 0.115308
vt 0.429171 0.194519
vt 0.444927 0.115308
vt 0.413415 0.115308
vt 0.429171 0.194519
vt 0.413415 0.115308
vt 0.444927 0.115308
vt 0.429171 0.194519
vt 0.444927 0.115308
vt 0.413415 0.115308
vt 0.429171 0.194519
vt 0.413415 0.115308
vt 0.444927 0.115308
vt 0.429171 0.194519
vt 0.444927 0.115308
vt 0.413415 0.115308
vt 0.413415 0.115308
vt 0.444927 0.115308
vt 0.444927 0.115308
vt 0.413415 0.115308
vt 0.413415 0.115308
vt 0.444927 0.115308
vt 0.444927 0.115308
vt 0.413415 0.115308
vt 0.413415 0.115308
vt 0.444927 0.115308
vt 0.444927 0.115308
vt 0.413415 0.115308
vt 0.413415 0.115308
vt 0.444927 0.115308
vt 0.444927 0.115308
vt 0.413415 0.115308
vt 0.413415 0.115308
vt 0.444927 0.115308
vt 0.444927 0.115308
vt 0.413415 0.115308
vt 0.413415 0.115308
vt 0.444927 0.115308
vt 0.444927 0.115308
vt 0.413415 0.115308
vt 0.413415 0.115308
vt 0.444927 0.115308
vt 0.444927 0.115308
vt 0.413415 0.115308
vt 0.413415 0.115308
vt 0.444927 0.115308
vt 0.420644 0.151650
vt 0.420644 0.151650
vt 0.435697 0.161709
vt 0.435697 0.161709
vt 0.423142 0.164206
vt 0.423142 0.164206
vt 0.435697 0.161709
vt 0.435697 0.161709
vt 0.420644 0.151650
vt 0.420644 0.151650
vt 0.420644 0.151650
vt 0.420644 0.151650
vt 0.435697 0.161709
vt 0.435697 0.161709
vt 0.423142 0.164206
vt 0.423142 0.164206
vt 0.435697 0.161709
vt 0.435697 0.161709
vt 0.420644 0.151650
vt 0.420644 0.151650
vt 0.441230 0.133894
vt 0.441230 0.133894
vt 0.418030 0.138508
vt 0.418030 0.138508
vt 0.441230 0.133894
vt 0.441230 0.133894
vt 0.441230 0.133894
vt 0.441230 0.133894
vt 0.418030 0.138508
vt 0.418030 0.138508
vt 0.441230 0.133894
vt 0.441230 0.133894
vt 0.416989 0.133274
vt 0.416989 0.133274
vt 0.429015 0.115308
vt 0.429015 0.115308
vt 0.428885 0.115308
vt 0.428885 0.115308
vt 0.428961 0.115308
vt 0.417006 0.133361
vt 0.417006 0.133361
vt 0.429090 0.115308
vt 0.416986 0.133261
vt 0.416986 0.133261
vt 0.416969 0.133174
vt 0.416969 0.133174
vt 0.438486 0.147689
vt 0.438486 0.147689
vt 0.420562 0.151239
vt 0.420562 0.151239
vt 0.438493 0.147657
vt 0.438493 0.147657
vt 0.438506 0.147590
vt 0.438506 0.147590
vt 0.420550 0.151177
vt 0.420550 0.151177
vt 0.438499 0.147622
vt 0.438499 0.147622
vn 0.000000 1.000000 0.000000
vn 0.000000 1.000000 0.000000
vn 0.000000 1.000000 0.000000
vn 0.000000 1.000000 0.000000
vn 0.000000 1.000000 0.000000
vn 0.000000 1.000000 0.000000
vn -0.000000 1.000000 0.000000
vn -0.000000 1.000000 0.000000
vn -0.000000 1.000000 0.000000
vn 0.000000 1.000000 0.000000
vn 0.000000 1.000000 0.000000
vn 0.000000 1.000000 0.000000
vn 0.000000 1.000000 0.000000
vn 0.000000 1.000000 0.000000
vn 0.000000 1.000000 0.000000
vn 0.000000 1.000000 0.000000
vn 0.000000 1.000000 0.000000
vn 0.000000 1.000000 0.000000
vn 0.000000 1.000000 -0.000000
vn 0.000000 1.000000 -0.000000
vn 0.000000 1.000000 -0.000000
vn 0.000000 1.000000 0.000000
vn 0.000000 1.000000 0.000000
vn 0.000000 1.000000 0.000000
vn 0.000000 1.000000 -0.000000
vn 0.000000 1.000000 -0.000000
vn 0.000000 1.000000 -0.000000
vn 0.000000 1.000000 0.000000
vn 0.000000 1.000000 0.000000
vn 0.000000 1.000000 0.000000
vn 0.000000 1.000000 -0.000000
vn 0.000000 1.000000 -0.000000
vn 0.000000 1.000000 -0.000000
vn 0.000000 1.000000 0.000000
vn 0.000000 1.000000 0.000000
vn 0.000000 1.000000 0.000000
vn 0.000000 1.000000 0.000000
vn 0.000000 1.000000 0.000000
vn 0.000000 1.000000 0.000000
vn 0.000000 1.000000 0.000000
vn 0.000000 1.000000 0.000000
vn 0.000000 1.000000 0.000000
vn 0.000000 1.000000 0.000000
vn 0.000000 1.000000 0.000000
vn 0.000000 1.000000 0.000000
vn 0.000000 1.000000 0.000000
vn 0.000000 1.000000 0.000000
vn 0.000000 1.000000 0.000000
vn 0.162814 -0.895043 0.415199
vn 0.162814 -0.895043 0.415199
vn 0.162814 -0.895043 0.415199
vn 0.162814 -0.895043 0.415199
vn 0.000000 -1.000000 0.000000
vn 0.000000 -1.000000 0.000000
vn 0.000000 -1.000000 0.000000
vn 0.000000 -1.000000 0.000000
vn 0.000000 -1.000000 0.000000
vn 0.000000 -1.000000 0.000000
vn 0.000000 -1.000000 0.000000
vn 0.000000 -1.000000 0.000000
vn 0.000000 -1.000000 0.000000
vn 0.000000 -1.000000 0.000000
vn 0.000000 -1.000000 0.000000
vn 0.000000 -1.000000 0.000000
vn 0.000000 -1.000000 0.000000
vn 0.000000 -1.000000 0.000000
vn -0.154645 -0.922378 -0.353983
vn -0.154645 -0.922378 -0.353983
vn -0.154645 -0.922378 -0.353983
vn 0.000000 -1.000000 0.000000
vn 0.000000 -1.000000 0.000000
vn 0.000000 -1.000000 0.000000
vn 0.000000 -1.000000 0.000000
vn 0.000000 -1.000000 0.000000
vn 0.000000 -1.000000 0.000000
vn 0.000000 -1.000000 0.000000
vn 0.000000 -1.000000 0.000000
vn 0.000000 -1.000000 0.000000
vn 0.000000 -1.000000 0.000000
vn 0.000000 -1.000000 0.000000
vn 0.000000 -1.000000 0.000000
vn 0.000000 -1.000000 0.000000
vn 0.000000 -1.000000 0.000000
vn 0.000000 -1.000000 0.000000
vn 0.000000 -1.000000 0.000000
vn 0.000000 -1.000000 0.000000
vn 0.000000 -1.000000 0.000000
vn 0.000000 -1.000000 0.000000
vn 0.000000 -1.000000 0.000000
vn 0.000000 -1.000000 0.000000
vn 0.000000 -1.000000 0.000000
vn 0.000000 -1.000000 0.000000
vn 0.000000 -1.000000 0.000000
vn 0.000000 -1.000000 0.000000
vn 0.000000 -1.000000 0.000000
vn 0.000000 -1.000000 0.000000
vn 0.000000 -1.000000 0.000000
vn 0.000000 -1.000000 0.000000
vn 0.000000 -1.000000 0.000000
vn -0.293306 -0.029925 0.955550
vn -0.293306 -0.029925 0.955550
vn -0.293306 -0.029925 0.955550
vn -0.293306 -0.029925 0.955550
vn -0.233151 0.000000 0.972441
vn -0.233151 0.000000 0.972441
vn -0.233151 0.000000 0.972441
vn -0.233151 0.000000 0.972441
vn 0.157482 0.000000 0.987522
vn 0.157482 0.000000 0.987522
vn 0.157482 0.000000 0.987522
vn 0.157482 0.000000 0.987522
vn 0.539400 0.001977 0.842048
vn 0.539400 0.001977 0.842048
vn 0.539400 0.001977 0.842048
vn 0.539400 0.001977 0.842048
vn 0.848819 0.003651 0.528672
vn 0.848819 0.003651 0.528672
vn 0.848819 0.003651 0.528672
vn 0.848819 0.003651 0.528672
vn 0.934022 -0.012514 0.356996
vn 0.934022 -0.012514 0.356996
vn 0.934022 -0.012514 0.356996
vn 0.934022 -0.012514 0.356996
vn 0.994739 0.000000 -0.102443
vn 0.994739 0.000000 -0.102443
vn 0.994739 0.000000 -0.102443
vn 0.994739 0.000000 -0.102443
vn 0.847104 0.000000 -0.531428
vn 0.847104 0.000000 -0.531428
vn 0.847104 0.000000 -0.531428
vn 0.847104 0.000000 -0.531428
vn 0.555570 0.000000 -0.831470
vn 0.555570 0.000000 -0.831470
vn 0.555570 0.000000 -0.831470
vn 0.555570 0.000000 -0.831470
vn 0.195090 0.000000 -0.980785
vn 0.195090 0.000000 -0.980785
vn 0.195090 0.000000 -0.980785
vn 0.195090 0.000000 -0.980785
vn -0.195090 0.000000 -0.980785
vn -0.195090 0.000000 -0.980785
vn -0.195090 0.000000 -0.980785
vn -0.195090 0.000000 -0.980785
vn -0.555570 0.000000 -0.831470
vn -0.555570 0.000000 -0.831470
vn -0.555570 0.000000 -0.831470
vn -0.555570 0.000000 -0.831470
vn -0.831470 0.000000 -0.555570
vn -0.831470 0.000000 -0.555570
vn -0.831470 0.000000 -0.555570
vn -0.831470 0.000000 -0.555570
vn -0.980785 0.000000 -0.195090
vn -0.980785 0.000000 -0.195090
vn -0.980785 0.000000 -0.195090
vn -0.980785 0.000000 -0.195090
vn -0.980785 0.000000 0.195091
vn -0.980785 0.000000 0.195091
vn -0.980785 0.000000 0.195091
vn -0.980785 0.000000 0.195091
vn -0.831470 0.000000 0.555570
vn -0.831470 0.000000 0.555570
vn -0.831470 0.000000 0.555570
vn -0.831470 0.000000 0.555570
vn -0.161526 0.897028 -0.411401
vn -0.161526 0.897028 -0.411401
vn -0.161526 0.897028 -0.411401
vn -0.161526 0.897028 -0.411401
vn 0.000000 1.000000 0.000000
vn 0.000000 1.000000 0.000000
vn 0.000000 1.000000 0.000000
vn 0.000000 1.000000 -0.000000
vn 0.000000 1.000000 -0.000000
vn 0.000000 1.000000 -0.000000
vn 0.000000 1.000000 -0.000000
vn 0.000000 1.000000 0.000000
vn 0.000000 1.000000 0.000000
vn 0.000000 1.000000 0.000000
vn 0.000000 1.000000 0.000000
vn 0.000000 1.000000 0.000000
vn 0.000000 1.000000 0.000000
vn 0.000000 1.000000 0.000000
vn 0.155007 0.922039 0.354708
vn 0.155007 0.922039 0.354708
vn 0.155007 0.922039 0.354708
vn 0.000000 -1.000000 0.000000
vn 0.000000 -1.000000 0.000000
vn 0.000000 -1.000000 0.000000
vn 0.000000 -1.000000 0.000000
vn 0.000000 -1.000000 0.000000
vn 0.000000 -1.000000 0.000000
vn 0.000000 -1.000000 0.000000
vn 0.000000 -1.000000 0.000000
vn 0.000000 -1.000000 0.000000
vn 0.000000 -1.000000 0.000000
vn 0.000000 -1.000000 0.000000
vn 0.000000 -1.000000 0.000000
vn 0.000000 -1.000000 0.000000
vn 0.000000 -1.000000 0.000000
vn 0.000000 -1.000000 0.000000
vn 0.000000 -1.000000 0.000000
vn 0.000000 -1.000000 0.000000
vn 0.000000 -1.000000 0.000000
vn 0.142707 0.915501 0.376155
vn 0.142707 0.915501 0.376155
vn 0.142707 0.915501 0.376155
vn 0.142707 0.915501 0.376155
vn 0.145587 0.918747 0.367027
vn 0.145587 0.918747 0.367027
vn 0.145587 0.918747 0.367027
vn 0.145587 0.918747 0.367027
vn 0.156123 0.908945 0.386580
vn 0.156123 0.908945 0.386580
vn 0.156123 0.908945 0.386580
vn 0.156123 0.908945 0.386580
vn 0.191392 0.866564 0.460908
vn 0.191392 0.866564 0.460908
vn 0.191392 0.866564 0.460908
vn 0.191392 0.866564 0.460908
vn -0.189776 -0.869046 -0.456885
vn -0.189776 -0.869046 -0.456885
vn -0.189776 -0.869046 -0.456885
vn -0.189776 -0.869046 -0.456885
vn -0.154876 -0.910455 -0.383518
vn -0.154876 -0.910455 -0.383518
vn -0.154876 -0.910455 -0.383518
vn -0.154876 -0.910455 -0.383518
vn -0.144466 -0.919890 -0.364600
vn -0.144466 -0.919890 -0.364600
vn -0.144466 -0.919890 -0.364600
vn -0.144466 -0.919890 -0.364600
vn -0.141902 -0.916174 -0.374820
vn -0.141902 -0.916174 -0.374820
vn -0.141902 -0.916174 -0.374820
vn -0.141902 -0.916174 -0.374820
vn -0.171066 -0.854051 -0.491258
vn -0.171066 -0.854051 -0.491258
vn -0.171066 -0.854051 -0.491258
vn 0.157347 -0.914331 0.373149
vn 0.157347 -0.914331 0.373149
vn 0.157347 -0.914331 0.373149
vn 0.157347 -0.914331 0.373149
vn -0.295913 -0.029901 0.954747
vn -0.295913 -0.029901 0.954747
vn -0.295913 -0.029901 0.954747
vn -0.295913 -0.029901 0.954747
vn 0.907111 -0.012230 0.420713
vn 0.907111 -0.012230 0.420713
vn 0.907111 -0.012230 0.420713
vn 0.907111 -0.012230 0.420713
vn 0.173603 0.850677 0.496196
vn 0.173603 0.850677 0.496196
vn 0.173603 0.850677 0.496196
vn -0.157020 0.914727 -0.372316
vn -0.157020 0.914727 -0.372316
vn -0.157020 0.914727 -0.372316
vn -0.157020 0.914727 -0.372316
vn -0.158859 0.903503 -0.398053
vn -0.158859 0.903503 -0.398053
vn -0.158859 0.903503 -0.398053
vn -0.158859 0.903503 -0.398053
vn -0.180040 0.885523 -0.428292
vn -0.180040 0.885523 -0.428292
vn -0.180040 0.885523 -0.428292
vn -0.180040 0.885523 -0.428292
vn -0.191692 0.878183 -0.438234
vn -0.191692 0.878183 -0.438234
vn -0.191692 0.878183 -0.438234
vn -0.191692 0.878183 -0.438234
vn -0.186623 0.889375 -0.417353
vn -0.186623 0.889375 -0.417353
vn -0.186623 0.889375 -0.417353
vn -0.186623 0.889375 -0.417353
vn 0.188281 -0.887336 0.420933
vn 0.188281 -0.887336 0.420933
vn 0.188281 -0.887336 0.420933
vn 0.188281 -0.887336 0.420933
vn 0.193391 -0.875835 0.442169
vn 0.193391 -0.875835 0.442169
vn 0.193391 -0.875835 0.442169
vn 0.193391 -0.875835 0.442169
vn 0.181263 -0.883555 0.431827
vn 0.181263 -0.883555 0.431827
vn 0.181263 -0.883555 0.431827
vn 0.181263 -0.883555 0.431827
vn 0.159343 -0.902374 0.400413
vn 0.159343 -0.902374 0.400413
vn 0.159343 -0.902374 0.400413
vn 0.159343 -0.902374 0.400413
s off
f 18/97/1 35/130/2 20/20/3
f 35/129/4 36/131/5 20/22/6
f 36/132/7 37/133/8 20/24/9
f 37/134/10 38/135/11 20/26/12
f 38/136/13 39/137/14 20/28/15
f 39/138/16 25/108/17 20/30/18
f 25/109/19 26/110/20 20/32/21
f 26/111/22 27/112/23 20/34/24
f 27/113/25 28/114/26 20/36/27
f 28/115/28 29/116/29 20/38/30
f 29/117/31 30/118/32 20/40/33
f 30/119/34 31/120/35 20/42/36
f 31/121/37 32/122/38 20/44/39
f 32/123/40 33/124/41 20/46/42
f 33/125/43 34/126/44 20/48/45
f 34/127/46 18/128/47 20/17/48
f 15/49/49 40/139/50 58/173/51 53/166/52
f 16/52/53 48/156/54 1/53/55
f 1/55/56 48/155/57 49/158/58 2/56/59
f 2/58/60 49/157/61 50/160/62 3/59/63
f 3/61/64 50/159/65 4/62/66
f 4/64/67 51/161/68 52/164/69
f 5/67/70 17/69/71 6/68/72
f 6/70/73 17/72/74 7/71/75
f 7/73/76 17/75/77 8/74/78
f 8/76/79 17/78/80 9/77/81
f 9/79/82 17/81/83 10/80/84
f 10/82/85 17/84/86 11/83/87
f 11/85/88 17/87/89 12/86/90
f 12/88/91 17/90/92 13/89/93
f 13/91/94 17/93/95 14/92/96
f 14/94/97 17/96/98 15/95/99
f 15/18/100 53/165/101 54/167/102 18/97/103
f 16/16/104 1/21/105 21/100/106 19/99/107
f 1/1/108 2/23/109 22/102/110 21/101/111
f 2/2/112 3/25/113 23/104/114 22/103/115
f 3/3/116 4/27/117 24/106/118 23/105/119
f 4/4/120 52/163/121 56/170/122 24/107/123
f 5/5/124 6/31/125 26/110/126 25/109/127
f 6/6/128 7/33/129 27/112/130 26/111/131
f 7/7/132 8/35/133 28/114/134 27/113/135
f 8/8/136 9/37/137 29/116/138 28/115/139
f 9/9/140 10/39/141 30/118/142 29/117/143
f 10/10/144 11/41/145 31/120/146 30/119/147
f 11/11/148 12/43/149 32/122/150 31/121/151
f 12/12/152 13/45/153 33/124/154 32/123/155
f 13/13/156 14/47/157 34/126/158 33/125/159
f 14/14/160 15/15/161 18/128/162 34/127/163
f 18/97/164 54/167/165 57/172/166 35/130/167
f 19/99/168 21/100/169 47/153/170
f 21/101/171 22/102/172 46/151/173 47/154/174
f 22/103/175 23/104/176 45/149/177 46/152/178
f 23/105/179 24/106/180 45/150/181
f 24/107/182 56/170/183 55/169/184
f 15/49/185 17/51/186 40/139/187
f 41/142/188 40/140/189 17/54/190
f 42/144/191 41/141/192 17/57/193
f 43/146/194 42/143/195 17/60/196
f 44/148/197 43/145/198 17/63/199
f 5/65/200 44/147/201 17/66/202
f 45/150/203 24/106/204 55/168/205 59/176/206
f 46/152/207 45/149/208 59/175/209 60/178/210
f 47/154/211 46/151/212 60/177/213 61/180/214
f 19/99/215 47/153/216 61/179/217 57/171/218
f 16/52/219 58/174/220 62/182/221 48/156/222
f 49/158/223 48/155/224 62/181/225 63/184/226
f 50/160/227 49/157/228 63/183/229 64/186/230
f 4/62/231 50/159/232 64/185/233 51/162/234
f 53/166/235 58/173/236 16/50/237
f 52/164/238 51/161/239 44/147/240 5/65/241
f 54/167/242 53/165/243 16/19/244 19/98/245
f 56/170/246 52/163/247 5/29/248 25/108/249
f 57/172/250 54/167/251 19/98/252
f 55/169/253 56/170/254 25/108/255 39/138/256
f 59/176/257 55/168/258 39/137/259 38/136/260
f 60/178/261 59/175/262 38/135/263 37/134/264
f 61/180/265 60/177/266 37/133/267 36/132/268
f 57/171/269 61/179/270 36/131/271 35/129/272
f 62/182/273 58/174/274 40/140/275 41/142/276
f 63/184/277 62/181/278 41/141/279 42/144/280
f 64/186/281 63/183/282 42/143/283 43/146/284
f 51/162/285 64/185/286 43/145/287 44/148/288
