# This file uses centimeters as units for non-parametric coordinates.

v -19.952000 0.000000 0.000000
v 19.866049 0.000000 0.000000
v 20.798555 11.147506 0.000000
v 16.788774 16.369545 0.000000
v 10.074725 16.089792 0.000000
v 5.971694 17.022299 0.000000
v 5.691942 21.778086 0.000000
v 8.862466 22.897093 0.000000
v 9.981474 25.041859 0.000000
v 11.007232 29.424643 0.000000
v 13.338499 30.823402 0.000000
v 14.177755 36.977947 0.000000
v 13.245249 39.122715 0.000000
v 11.566736 39.309216 0.000000
v 11.286984 47.049023 0.000000
v 0.003650 49.473541 0.000000
v -11.093184 46.862522 0.000000
v -11.559437 39.215965 0.000000
v -13.237949 39.122715 0.000000
v -14.077206 37.164452 0.000000
v -13.331200 30.730152 0.000000
v -10.720181 29.611143 0.000000
v -9.880924 25.135111 0.000000
v -8.575415 23.176846 0.000000
v -5.684643 22.151089 0.000000
v -5.964395 17.208801 0.000000
v -9.414671 16.183043 0.000000
v -16.315222 16.276295 0.000000
v -20.698006 10.681252 0.000000
v 5.763298 38.358967 0.000000
v 5.665031 35.558357 0.000000
v 2.864424 35.558357 0.000000
v 2.766158 38.408096 0.000000
v -2.933323 38.408096 0.000000
v -2.933323 35.705757 0.000000
v -5.684796 35.705757 0.000000
v -5.733929 38.408096 0.000000
vt 0.012690 0.007130
vt 0.012580 0.007253
vt 0.012568 0.007052
vt 0.012689 0.007073
vt 0.012574 0.006893
vt 0.012751 0.007072
vt 0.012869 0.007073
vt 0.012928 0.007073
vt 0.012926 0.007128
vt 0.012869 0.007128
vt 0.012748 0.007130
vt 0.012922 0.007401
vt 0.013028 0.007253
vt 0.012532 0.007224
vt 0.012514 0.007100
vt 0.013101 0.007100
vt 0.013050 0.007057
vt 0.013085 0.007060
vt 0.013009 0.007343
vt 0.012982 0.007382
vt 0.012689 0.007407
vt 0.012926 0.007499
vt 0.012682 0.007501
vt 0.012624 0.007384
vt 0.012601 0.007341
vt 0.013203 0.007843
vt 0.012403 0.007831
vt 0.012599 0.007518
vt 0.012996 0.007520
vt 0.012811 0.006843
vt 0.013043 0.006899
vt 0.013083 0.007231
vt 0.012533 0.007056
vt 0.012382 0.007612
vt 0.012463 0.007511
vt 0.013138 0.007520
vt 0.013224 0.007631
vt 0.013694 0.124058
vt 0.013939 0.124060
vt 0.013931 0.124291
vt 0.013693 0.124289
vt 0.012939 0.124057
vt 0.013198 0.124055
vt 0.013192 0.124298
vt 0.012950 0.124296
vn 0.000000 0.000000 1.000000
vn 0.000000 0.000000 1.000000
vn 0.000000 0.000000 1.000000
vn 0.000000 0.000000 1.000000
vn 0.000000 0.000000 1.000000
vn 0.000000 0.000000 1.000000
vn 0.000000 0.000000 1.000000
vn 0.000000 0.000000 1.000000
vn 0.000000 0.000000 1.000000
vn 0.000000 0.000000 1.000000
vn 0.000000 0.000000 1.000000
vn 0.000000 0.000000 1.000000
vn 0.000000 0.000000 1.000000
vn 0.000000 0.000000 1.000000
vn 0.000000 0.000000 1.000000
vn 0.000000 0.000000 1.000000
vn 0.000000 0.000000 1.000000
vn 0.000000 0.000000 1.000000
vn 0.000000 0.000000 1.000000
vn 0.000000 0.000000 1.000000
vn 0.000000 0.000000 1.000000
vn 0.000000 0.000000 1.000000
vn 0.000000 0.000000 1.000000
vn 0.000000 0.000000 1.000000
vn 0.000000 0.000000 1.000000
vn 0.000000 0.000000 1.000000
vn 0.000000 0.000000 1.000000
vn 0.000000 0.000000 1.000000
vn 0.000000 0.000000 1.000000
vn 0.000000 0.000000 1.000000
vn 0.000000 0.000000 1.000000
vn 0.000000 0.000000 1.000000
vn 0.000000 0.000000 1.000000
vn 0.000000 0.000000 1.000000
vn 0.000000 0.000000 1.000000
vn 0.000000 0.000000 1.000000
vn 0.000000 0.000000 1.000000
s 1
f 31/1/1 10/2/2 14/3/3 30/4/4
f 15/5/5 33/6/6 30/4/4 14/3/3
f 34/38/7 37/39/8 36/40/9 35/41/10
f 30/42/4 33/43/6 32/44/11 31/45/1
f 25/12/12 35/10/10 36/9/9 22/13/13
f 14/3/3 10/2/2 11/14/14 12/15/15
f 35/10/10 32/11/11 33/6/6 34/7/7
f 20/16/16 18/17/17 19/18/18
f 22/13/13 36/9/9 37/8/8 18/17/17
f 25/12/12 22/13/13 23/19/19 24/20/20
f 32/11/11 7/21/21 10/2/2 31/1/1
f 26/22/22 6/23/23 7/21/21 25/12/12
f 10/2/2 7/21/21 8/24/24 9/25/25
f 25/12/12 7/21/21 32/11/11 35/10/10
f 1/26/26 2/27/27 5/28/28 27/29/29
f 16/30/30 34/7/7 33/6/6
f 16/30/30 33/6/6 15/5/5
f 18/17/17 37/8/8 34/7/7 17/31/31
f 17/31/31 34/7/7 16/30/30
f 22/13/13 18/17/17 20/16/16 21/32/32
f 14/3/3 12/15/15 13/33/33
f 5/28/28 2/27/27 3/34/34 4/35/35
f 27/29/29 5/28/28 6/23/23 26/22/22
f 1/26/26 27/29/29 28/36/36 29/37/37
