# This file uses centimeters as units for non-parametric coordinates.

v 3.130964 -2.546361 1.324465
v 3.755506 2.729448 1.324465
v -0.000018 6.716787 1.324465
v -0.000018 -7.031118 1.324465
v 1.381727 0.277119 1.324465
v 1.381727 1.872619 1.324465
v -0.000018 2.670372 1.324465
v -0.000018 -2.693578 1.324465
v 0.747007 -0.063255 1.324465
v 0.724789 -2.286359 1.324465
v 1.341946 0.268803 0.508418
v 1.341946 1.818423 0.508418
v -0.000018 2.593224 0.508418
v 0.725514 -0.064549 0.508418
v 0.703923 -2.223717 0.508418
v -0.000018 -2.616444 0.508418
v 2.959508 3.738276 1.324465
v 1.273343 5.765455 1.324465
v 1.817626 4.339858 1.324465
v 3.437649 1.423303 1.324465
v 2.710514 -0.741777 1.324465
v 2.236965 -2.734010 1.324465
v 1.088361 -5.263925 1.324465
v 0.747311 -6.378424 1.324465
v 1.962049 -3.835933 1.324465
v 2.824627 0.429255 1.324465
v -3.131053 -2.546361 1.324465
v -3.755595 2.729448 1.324465
v -1.381762 0.277119 1.324465
v -1.381762 1.872619 1.324465
v -0.747096 -0.063255 1.324465
v -0.724834 -2.286359 1.324465
v -1.342036 0.268803 0.508418
v -1.342036 1.818423 0.508418
v -0.725604 -0.064549 0.508418
v -0.704004 -2.223717 0.508418
v -2.959588 3.738276 1.324465
v -1.273441 5.765455 1.324465
v -1.817742 4.339858 1.324465
v -3.437694 1.423303 1.324465
v -2.710559 -0.741777 1.324465
v -2.237037 -2.734010 1.324465
v -1.088442 -5.263925 1.324465
v -0.747401 -6.378424 1.324465
v -1.962138 -3.835933 1.324465
v -2.824672 0.429255 1.324465
v 2.341581 -4.620629 1.324465
v 2.101234 -5.088906 1.324465
v -2.101342 -5.088906 1.324465
v -2.341670 -4.620629 1.324465
v 3.854482 -3.007562 0.000000
v 3.317234 -0.701747 0.000000
v 4.407609 2.871611 0.000000
v 3.351742 4.209806 0.000000
v -0.000018 -7.827725 -0.000000
v 1.270926 -6.717710 0.000000
v 2.297459 4.765234 0.000000
v 1.771839 6.141993 0.000000
v -0.000018 7.465728 -0.000000
v 3.998161 1.189169 0.000000
v 3.408306 0.232668 0.000000
v 2.728104 -3.243983 0.000000
v 1.554105 -5.792337 0.000000
v 2.498356 -5.629179 0.000000
v 2.596813 -3.770319 0.000000
v -3.854571 -3.007562 -0.000000
v -3.317324 -0.701742 -0.000000
v -4.407726 2.871611 -0.000000
v -3.351787 4.209806 -0.000000
v -2.297558 4.765234 -0.000000
v -2.728202 -3.243987 -0.000000
v -3.408378 0.232668 -0.000000
v -3.998233 1.189169 -0.000000
v -1.554194 -5.792337 -0.000000
v -2.498455 -5.629179 -0.000000
v -2.596903 -3.770314 -0.000000
v -1.271015 -6.717715 -0.000000
v -1.771938 6.141993 -0.000000
v 3.011900 -4.628570 0.000000
v -3.012008 -4.628570 -0.000000
v -0.022677 3.673648 1.324465
v 0.821043 4.517368 1.324465
v -0.022677 3.921454 1.583640
v 0.573237 4.517368 1.583640
v -0.618591 4.517368 1.583640
v -0.022677 5.113282 1.583640
v -0.866398 4.517368 1.324465
v -0.022677 5.361088 1.324465
v 0.012969 -5.274601 1.324465
v 0.856689 -4.430882 1.324465
v 0.012969 -5.026795 1.583640
v 0.608883 -4.430882 1.583640
v -0.582945 -4.430881 1.583640
v 0.012969 -3.834967 1.583640
v -0.830751 -4.430881 1.324465
v 0.012969 -3.587161 1.324465
vt 0.102179 0.302264
vt 0.101769 0.302257
vt 0.102409 0.302355
vt 0.101571 0.302341
vt 0.101769 0.302257
vt 0.102179 0.302264
vt 0.102409 0.302355
vt 0.101571 0.302341
vt 0.101710 0.302282
vt 0.101696 0.302288
vt 0.100248 0.277755
vt 0.100248 0.277454
vt 0.100231 0.277432
vt 0.100232 0.277717
vt 0.100513 0.277292
vt 0.100483 0.277278
vt 0.010468 0.009293
vt 0.010464 0.008987
vt 0.010729 0.008829
vt 0.010548 0.009336
vt 0.010558 0.009780
vt 0.010731 0.009829
vt 0.102239 0.302287
vt 0.102323 0.302321
vt 0.102283 0.302305
vt 0.102068 0.302262
vt 0.101905 0.302259
vt 0.101701 0.302286
vt 0.101622 0.302319
vt 0.101593 0.302332
vt 0.101683 0.302293
vt 0.101988 0.302261
vt 0.010548 0.009336
vt 0.010729 0.008829
vt 0.101769 0.302257
vt 0.101905 0.302259
vt 0.101769 0.302257
vt 0.102179 0.302264
vt 0.102239 0.302287
vt 0.102283 0.302305
vt 0.102179 0.302264
vt 0.101701 0.302286
vt 0.010558 0.009780
vt 0.100368 0.277812
vt 0.100346 0.277773
vt 0.102409 0.302355
vt 0.100503 0.278278
vt 0.101710 0.302282
vt 0.100371 0.278214
vt 0.101571 0.302341
vt 0.101696 0.302288
vt 0.100349 0.278155
vt 0.100475 0.278217
vt 0.010468 0.009293
vt 0.010464 0.008987
vt 0.101988 0.302261
vt 0.102068 0.302262
vt 0.101622 0.302319
vt 0.101683 0.302293
vt 0.101571 0.302341
vt 0.101593 0.302332
vt 0.102323 0.302321
vt 0.102409 0.302355
vt 0.101676 0.302297
vt 0.101645 0.302310
vt 0.101645 0.302310
vt 0.101676 0.302297
vt 0.100730 0.230184
vt 0.100702 0.230306
vt 0.100634 0.230316
vt 0.100667 0.230163
vt 0.100710 0.229874
vt 0.100656 0.229948
vt 0.100590 0.229926
vt 0.100660 0.229829
vt 0.100859 0.230539
vt 0.100906 0.230575
vt 0.100879 0.230593
vt 0.100801 0.230534
vt 0.100788 0.229828
vt 0.100731 0.229788
vt 0.100913 0.229654
vt 0.100826 0.229725
vt 0.100766 0.229690
vt 0.100885 0.229593
vt 0.100679 0.230039
vt 0.100620 0.230039
vt 0.100721 0.230105
vt 0.100660 0.230101
vt 0.100762 0.230314
vt 0.100707 0.230325
vt 0.100771 0.230466
vt 0.100837 0.230471
vt 0.100783 0.230479
vt 0.100723 0.230475
vt 0.100780 0.230384
vt 0.100716 0.230358
vt 0.101106 0.230274
vt 0.101083 0.230159
vt 0.101089 0.230135
vt 0.101118 0.230278
vt 0.101155 0.229924
vt 0.101106 0.229858
vt 0.101099 0.229813
vt 0.101163 0.229899
vt 0.101032 0.229819
vt 0.101033 0.229778
vt 0.101050 0.230291
vt 0.101050 0.230298
vt 0.101092 0.230082
vt 0.101132 0.230013
vt 0.101134 0.230011
vt 0.101096 0.230075
vt 0.100975 0.230458
vt 0.101039 0.230441
vt 0.101033 0.230446
vt 0.100976 0.230461
vt 0.101031 0.230363
vt 0.101041 0.230331
vt 0.100953 0.230529
vt 0.100958 0.230519
vt 0.100998 0.229720
vt 0.101001 0.229684
vt 0.100756 0.230437
vt 0.100690 0.230415
vt 0.101054 0.230410
vt 0.101065 0.230382
vt 0.100765 0.277733
vt 0.100724 0.277698
vt 0.100730 0.277415
vt 0.100772 0.277436
vt 0.100647 0.277800
vt 0.100611 0.277762
vt 0.100602 0.278143
vt 0.100636 0.278200
vt 0.102241 0.256745
vt 0.101455 0.256729
vt 0.101409 0.255958
vt 0.102206 0.255972
vt 0.101619 0.255767
vt 0.102378 0.255779
vt 0.101660 0.256504
vt 0.102409 0.256518
vt 0.102241 0.256745
vt 0.101455 0.256729
vt 0.101409 0.255958
vt 0.102206 0.255972
vt 0.101619 0.255767
vt 0.102378 0.255779
vt 0.101660 0.256504
vt 0.102409 0.256518
vn -0.000000 0.000000 1.000000
vn -0.000000 0.000000 1.000000
vn -0.000000 0.000000 1.000000
vn 0.000000 -0.000000 1.000000
vn 0.000000 -0.000000 1.000000
vn 0.000000 -0.000000 1.000000
vn 0.000000 -0.000000 1.000000
vn 0.000000 -0.000000 1.000000
vn 0.000000 -0.000000 1.000000
vn 0.000000 -0.000000 1.000000
vn -0.000000 0.000000 1.000000
vn -0.000000 0.000000 1.000000
vn -0.000000 0.000000 1.000000
vn -0.000000 0.000000 1.000000
vn -0.000000 0.000000 1.000000
vn -0.000000 0.000000 1.000000
vn -0.000000 0.000000 1.000000
vn -0.000000 0.000000 1.000000
vn -0.000000 0.000000 1.000000
vn -0.000000 0.000000 1.000000
vn -0.998814 0.000000 0.048690
vn -0.998814 0.000000 0.048690
vn -0.998814 0.000000 0.048690
vn -0.998814 0.000000 0.048690
vn -0.498337 -0.863134 0.081608
vn -0.498337 -0.863134 0.081608
vn -0.498337 -0.863134 0.081608
vn -0.498337 -0.863134 0.081608
vn -0.474078 0.880393 0.012614
vn -0.474078 0.880393 0.012614
vn -0.474078 0.880393 0.012614
vn -0.474078 0.880393 0.012614
vn -0.486938 0.869700 0.080709
vn -0.486938 0.869700 0.080709
vn -0.486938 0.869700 0.080709
vn -0.486938 0.869700 0.080709
vn -0.999604 0.009993 0.026319
vn -0.999604 0.009993 0.026319
vn -0.999604 0.009993 0.026319
vn -0.999604 0.009993 0.026319
vn 0.000000 -0.000000 1.000000
vn 0.000000 -0.000000 1.000000
vn 0.000000 -0.000000 1.000000
vn 0.000000 -0.000000 1.000000
vn -0.000000 0.000000 1.000000
vn -0.000000 0.000000 1.000000
vn -0.000000 0.000000 1.000000
vn -0.000000 0.000000 1.000000
vn -0.000000 0.000000 1.000000
vn -0.000000 0.000000 1.000000
vn -0.000000 0.000000 1.000000
vn -0.000000 0.000000 1.000000
vn -0.000000 0.000000 1.000000
vn -0.000000 0.000000 1.000000
vn -0.000000 0.000000 1.000000
vn -0.000000 0.000000 1.000000
vn 0.000000 -0.000000 1.000000
vn 0.000000 -0.000000 1.000000
vn 0.000000 -0.000000 1.000000
vn 0.000000 -0.000000 1.000000
vn -0.000000 0.000000 1.000000
vn -0.000000 0.000000 1.000000
vn -0.000000 0.000000 1.000000
vn -0.000000 0.000000 1.000000
vn -0.000000 0.000000 1.000000
vn -0.000000 0.000000 1.000000
vn -0.000000 0.000000 1.000000
vn -0.000000 0.000000 1.000000
vn -0.000000 0.000000 1.000000
vn -0.000000 0.000000 1.000000
vn -0.000000 0.000000 1.000000
vn -0.000000 0.000000 1.000000
vn -0.000000 0.000000 1.000000
vn -0.000000 0.000000 1.000000
vn -0.000000 0.000000 1.000000
vn -0.000000 0.000000 1.000000
vn -0.000000 0.000000 1.000000
vn -0.000000 0.000000 1.000000
vn 0.000000 -0.000000 1.000000
vn 0.000000 -0.000000 1.000000
vn 0.000000 -0.000000 1.000000
vn 0.998817 -0.000000 0.048624
vn 0.998817 -0.000000 0.048624
vn 0.998817 -0.000000 0.048624
vn 0.998817 -0.000000 0.048624
vn 0.498330 -0.863140 0.081592
vn 0.498330 -0.863140 0.081592
vn 0.498330 -0.863140 0.081592
vn 0.498330 -0.863140 0.081592
vn 0.474094 0.880384 0.012600
vn 0.474094 0.880384 0.012600
vn 0.474094 0.880384 0.012600
vn 0.474094 0.880384 0.012600
vn 0.486925 0.869708 0.080699
vn 0.486925 0.869708 0.080699
vn 0.486925 0.869708 0.080699
vn 0.486925 0.869708 0.080699
vn 0.999604 0.010005 0.026297
vn 0.999604 0.010005 0.026297
vn 0.999604 0.010005 0.026297
vn 0.999604 0.010005 0.026297
vn -0.000000 0.000000 1.000000
vn -0.000000 0.000000 1.000000
vn -0.000000 0.000000 1.000000
vn -0.000000 0.000000 1.000000
vn 0.000000 -0.000000 1.000000
vn 0.000000 -0.000000 1.000000
vn 0.000000 -0.000000 1.000000
vn 0.000000 -0.000000 1.000000
vn -0.000000 0.000000 1.000000
vn -0.000000 0.000000 1.000000
vn -0.000000 0.000000 1.000000
vn -0.000000 0.000000 1.000000
vn 0.000000 -0.000000 1.000000
vn 0.000000 -0.000000 1.000000
vn 0.000000 -0.000000 1.000000
vn 0.000000 -0.000000 1.000000
vn -0.000000 0.000000 1.000000
vn -0.000000 0.000000 1.000000
vn -0.000000 0.000000 1.000000
vn -0.000000 0.000000 1.000000
vn -0.000000 0.000000 1.000000
vn -0.000000 0.000000 1.000000
vn -0.000000 0.000000 1.000000
vn -0.000000 0.000000 1.000000
vn 0.000000 -0.000000 1.000000
vn 0.000000 -0.000000 1.000000
vn 0.000000 -0.000000 1.000000
vn 0.000000 -0.000000 1.000000
vn -0.000000 0.000000 1.000000
vn -0.000000 0.000000 1.000000
vn -0.000000 0.000000 1.000000
vn -0.000000 0.000000 1.000000
vn -0.000000 0.000000 1.000000
vn -0.000000 0.000000 1.000000
vn -0.000000 0.000000 1.000000
vn -0.000000 0.000000 1.000000
vn -0.000000 0.000000 1.000000
vn -0.000000 0.000000 1.000000
vn -0.000000 0.000000 1.000000
vn -0.000000 0.000000 1.000000
vn -0.000000 0.000000 1.000000
vn 0.887134 0.206697 0.412637
vn 0.887134 0.206697 0.412637
vn 0.887134 0.206697 0.412637
vn 0.887134 0.206697 0.412637
vn 0.715098 0.564232 0.412646
vn 0.715098 0.564232 0.412646
vn 0.715098 0.564232 0.412646
vn 0.715098 0.564232 0.412646
vn 0.599197 -0.686070 0.412639
vn 0.599197 -0.686070 0.412639
vn 0.599197 -0.686070 0.412639
vn 0.599197 -0.686070 0.412639
vn 0.424571 0.805894 0.412645
vn 0.424571 0.805894 0.412645
vn 0.424571 0.805894 0.412645
vn 0.424571 0.805894 0.412645
vn 0.545178 0.729730 0.412644
vn 0.545178 0.729730 0.412644
vn 0.545178 0.729730 0.412644
vn 0.545178 0.729730 0.412644
vn 0.850980 0.324893 0.412648
vn 0.850980 0.324893 0.412648
vn 0.850980 0.324893 0.412648
vn 0.850980 0.324893 0.412648
vn 0.885063 -0.215390 0.412639
vn 0.885063 -0.215390 0.412639
vn 0.885063 -0.215390 0.412639
vn 0.885063 -0.215390 0.412639
vn 0.906600 -0.088352 0.412638
vn 0.906600 -0.088352 0.412638
vn 0.906600 -0.088352 0.412638
vn 0.906600 -0.088352 0.412638
vn 0.187116 -0.891469 0.412639
vn 0.187116 -0.891469 0.412639
vn 0.187116 -0.891469 0.412639
vn 0.187116 -0.891469 0.412639
vn 0.155097 -0.897590 0.412646
vn 0.155097 -0.897590 0.412646
vn 0.155097 -0.897590 0.412646
vn 0.155097 -0.897590 0.412646
vn 0.871026 -0.266546 0.412634
vn 0.871026 -0.266546 0.412634
vn 0.871026 -0.266546 0.412634
vn 0.871026 -0.266546 0.412634
vn 0.883806 -0.220486 0.412641
vn 0.883806 -0.220486 0.412641
vn 0.883806 -0.220486 0.412641
vn 0.883806 -0.220486 0.412641
vn 0.775320 -0.478129 0.412640
vn 0.775320 -0.478129 0.412640
vn 0.775320 -0.478129 0.412640
vn 0.775320 -0.478129 0.412640
vn -0.887128 0.206705 0.412647
vn -0.887128 0.206705 0.412647
vn -0.887128 0.206705 0.412647
vn -0.887128 0.206705 0.412647
vn -0.715088 0.564248 0.412643
vn -0.715088 0.564248 0.412643
vn -0.715088 0.564248 0.412643
vn -0.715088 0.564248 0.412643
vn -0.424585 0.805889 0.412639
vn -0.424585 0.805889 0.412639
vn -0.424585 0.805889 0.412639
vn -0.424585 0.805889 0.412639
vn -0.187117 -0.891467 0.412643
vn -0.187117 -0.891467 0.412643
vn -0.187117 -0.891467 0.412643
vn -0.187117 -0.891467 0.412643
vn -0.775315 -0.478126 0.412653
vn -0.775315 -0.478126 0.412653
vn -0.775315 -0.478126 0.412653
vn -0.775315 -0.478126 0.412653
vn -0.885051 -0.215413 0.412652
vn -0.885051 -0.215413 0.412652
vn -0.885051 -0.215413 0.412652
vn -0.885051 -0.215413 0.412652
vn -0.906592 -0.088344 0.412658
vn -0.906592 -0.088344 0.412658
vn -0.906592 -0.088344 0.412658
vn -0.906592 -0.088344 0.412658
vn -0.155094 -0.897591 0.412645
vn -0.155094 -0.897591 0.412645
vn -0.155094 -0.897591 0.412645
vn -0.155094 -0.897591 0.412645
vn -0.883804 -0.220482 0.412648
vn -0.883804 -0.220482 0.412648
vn -0.883804 -0.220482 0.412648
vn -0.883804 -0.220482 0.412648
vn -0.599177 -0.686086 0.412642
vn -0.599177 -0.686086 0.412642
vn -0.599177 -0.686086 0.412642
vn -0.599177 -0.686086 0.412642
vn -0.871026 -0.266542 0.412636
vn -0.871026 -0.266542 0.412636
vn -0.871026 -0.266542 0.412636
vn -0.871026 -0.266542 0.412636
vn -0.850980 0.324898 0.412644
vn -0.850980 0.324898 0.412644
vn -0.850980 0.324898 0.412644
vn -0.850980 0.324898 0.412644
vn -0.545163 0.729740 0.412645
vn -0.545163 0.729740 0.412645
vn -0.545163 0.729740 0.412645
vn -0.545163 0.729740 0.412645
vn 0.820018 0.396606 0.412644
vn 0.820018 0.396606 0.412644
vn 0.820018 0.396606 0.412644
vn 0.820018 0.396606 0.412644
vn -0.820013 0.396611 0.412649
vn -0.820013 0.396611 0.412649
vn -0.820013 0.396611 0.412649
vn -0.820013 0.396611 0.412649
vn 0.810391 -0.415924 0.412642
vn 0.810391 -0.415924 0.412642
vn 0.810391 -0.415924 0.412642
vn 0.810391 -0.415924 0.412642
vn -0.810392 -0.415920 0.412644
vn -0.810392 -0.415920 0.412644
vn -0.810392 -0.415920 0.412644
vn -0.810392 -0.415920 0.412644
vn 0.585788 -0.585788 0.560093
vn 0.585788 -0.585788 0.560093
vn 0.585788 -0.585788 0.560093
vn 0.585788 -0.585788 0.560093
vn 0.000000 0.000000 1.000000
vn 0.000000 0.000000 1.000000
vn 0.000000 0.000000 1.000000
vn 0.000000 0.000000 1.000000
vn -0.585788 0.585789 0.560093
vn -0.585788 0.585789 0.560093
vn -0.585788 0.585789 0.560093
vn -0.585788 0.585789 0.560093
vn 0.585788 0.585788 0.560093
vn 0.585788 0.585788 0.560093
vn 0.585788 0.585788 0.560093
vn 0.585788 0.585788 0.560093
vn -0.585788 -0.585788 0.560093
vn -0.585788 -0.585788 0.560093
vn -0.585788 -0.585788 0.560093
vn -0.585788 -0.585788 0.560093
vn 0.585788 -0.585788 0.560093
vn 0.585788 -0.585788 0.560093
vn 0.585788 -0.585788 0.560093
vn 0.585788 -0.585788 0.560093
vn 0.000000 0.000000 1.000000
vn 0.000000 0.000000 1.000000
vn 0.000000 0.000000 1.000000
vn 0.000000 0.000000 1.000000
vn -0.585788 0.585788 0.560093
vn -0.585788 0.585788 0.560093
vn -0.585788 0.585788 0.560093
vn -0.585788 0.585788 0.560093
vn 0.585789 0.585789 0.560092
vn 0.585789 0.585789 0.560092
vn 0.585789 0.585789 0.560092
vn 0.585789 0.585789 0.560092
vn -0.585788 -0.585788 0.560093
vn -0.585788 -0.585788 0.560093
vn -0.585788 -0.585788 0.560093
vn -0.585788 -0.585788 0.560093
vn 0.000000 0.000000 -1.000000
vn 0.000000 -0.000000 -1.000000
vn 0.000000 -0.000000 -1.000000
vn 0.000000 0.000000 -1.000000
vn 0.000000 -0.000000 -1.000000
vn 0.000000 -0.000000 -1.000000
vn 0.000000 0.000000 -1.000000
vn 0.000000 0.000000 -1.000000
vn 0.000000 0.000000 -1.000000
vn 0.000000 0.000000 -1.000000
vn 0.000000 -0.000000 -1.000000
vn 0.000000 -0.000000 -1.000000
vn 0.000000 0.000000 -1.000000
vn 0.000000 0.000000 -1.000000
vn 0.000000 0.000000 -1.000000
vn 0.000000 0.000000 -1.000000
vn 0.000000 -0.000000 -1.000000
vn 0.000000 -0.000000 -1.000000
vn 0.000000 -0.000000 -1.000000
vn 0.000000 -0.000000 -1.000000
vn 0.000000 -0.000000 -1.000000
vn 0.000000 -0.000000 -1.000000
vn 0.000000 -0.000000 -1.000000
vn 0.000000 0.000000 -1.000000
vn 0.000000 -0.000000 -1.000000
vn 0.000000 0.000000 -1.000000
vn 0.000000 0.000000 -1.000000
vn 0.000000 0.000000 -1.000000
vn 0.000000 0.000000 -1.000000
vn 0.000000 0.000000 -1.000000
vn 0.000000 0.000000 -1.000000
vn 0.000000 0.000000 -1.000000
vn 0.000000 -0.000000 -1.000000
vn 0.000000 -0.000000 -1.000000
vn 0.000000 0.000000 -1.000000
vn 0.000000 -0.000000 -1.000000
vn 0.000000 -0.000000 -1.000000
vn 0.000000 -0.000000 -1.000000
vn 0.000000 -0.000000 -1.000000
vn 0.000000 -0.000000 -1.000000
vn 0.000000 -0.000000 -1.000000
vn 0.000000 -0.000000 -1.000000
vn 0.000000 -0.000000 -1.000000
vn 0.000000 -0.000000 -1.000000
vn 0.000000 -0.000000 -1.000000
vn 0.000000 -0.000000 -1.000000
vn 0.000000 -0.000000 -1.000000
vn 0.000000 -0.000000 -1.000000
vn 0.000000 -0.000000 -1.000000
vn 0.000000 -0.000000 -1.000000
vn 0.000000 -0.000000 -1.000000
vn 0.000000 -0.000000 -1.000000
vn 0.000000 -0.000000 -1.000000
vn 0.000000 -0.000000 -1.000000
vn 0.000000 -0.000000 -1.000000
vn 0.000000 -0.000000 -1.000000
vn 0.000000 -0.000000 -1.000000
vn 0.000000 -0.000000 -1.000000
vn 0.000000 -0.000000 -1.000000
vn 0.000000 -0.000000 -1.000000
s off
f 14/20/1 13/34/2 35/33/3
f 1/2/4 21/27/5 5/5/6
f 2/1/7 17/23/8 19/25/9 6/6/10
f 5/5/11 22/28/12 1/2/13
f 16/22/14 15/21/15 36/43/16
f 15/21/17 14/20/18 35/33/19 36/43/20
f 5/11/21 6/12/22 12/13/23 11/14/24
f 6/12/25 7/15/26 13/16/27 12/13/28
f 9/44/29 5/11/30 11/14/31 14/45/32
f 8/47/33 10/49/34 15/52/35 16/53/36
f 10/49/37 9/44/38 14/45/39 15/52/40
f 11/17/41 12/18/42 13/19/43 14/20/44
f 6/6/45 26/32/46 20/26/47 2/1/48
f 5/5/49 21/27/50 26/32/51 6/6/52
f 10/10/53 22/28/54 5/5/55 9/9/56
f 8/8/57 25/31/58 22/28/59 10/10/60
f 4/4/61 24/30/62 23/29/63 8/8/64
f 7/7/65 19/25/66 18/24/67 3/3/68
f 6/6/69 19/25/70 7/7/71
f 27/35/72 29/37/73 41/36/74
f 28/38/75 30/41/76 39/40/77 37/39/78
f 29/37/79 27/35/80 42/42/81
f 29/128/82 33/129/83 34/130/84 30/131/85
f 30/131/86 34/130/87 13/16/88 7/15/89
f 31/132/90 35/133/91 33/129/92 29/128/93
f 8/47/94 16/53/95 36/134/96 32/135/97
f 32/135/98 36/134/99 35/133/100 31/132/101
f 33/54/102 35/33/103 13/34/104 34/55/105
f 30/41/106 28/38/107 40/57/108 46/56/109
f 29/37/110 30/41/111 46/56/112 41/36/113
f 32/51/114 31/48/115 29/37/116 42/42/117
f 8/50/118 32/51/119 42/42/120 45/59/121
f 4/60/122 8/50/123 43/58/124 44/61/125
f 7/46/126 3/63/127 38/62/128 39/40/129
f 30/41/130 7/46/131 39/40/132
f 8/8/133 23/29/134 48/65/135 47/64/136 25/31/137
f 8/50/138 45/59/139 50/67/140 49/66/141 43/58/142
f 21/68/143 1/69/144 51/70/145 52/71/146
f 17/72/147 2/73/148 53/74/149 54/75/150
f 24/76/151 4/77/152 55/78/153 56/79/154
f 19/80/155 17/72/156 54/75/157 57/81/158
f 3/82/159 18/83/160 58/84/161 59/85/162
f 18/83/163 19/80/164 57/81/165 58/84/166
f 2/73/167 20/86/168 60/87/169 53/74/170
f 26/88/171 21/68/172 52/71/173 61/89/174
f 1/69/175 22/90/176 62/91/177 51/70/178
f 48/92/179 23/93/180 63/94/181 64/95/182
f 23/93/183 24/76/184 56/79/185 63/94/186
f 22/90/187 25/96/188 65/97/189 62/91/190
f 20/86/191 26/88/192 61/89/193 60/87/194
f 27/98/195 41/99/196 67/100/197 66/101/198
f 28/102/199 37/103/200 69/104/201 68/105/202
f 37/103/203 39/106/204 70/107/205 69/104/206
f 42/108/207 27/98/208 66/101/209 71/109/210
f 46/110/211 40/111/212 73/112/213 72/113/214
f 40/111/215 28/102/216 68/105/217 73/112/218
f 41/99/219 46/110/220 72/113/221 67/100/222
f 43/114/223 49/115/224 75/116/225 74/117/226
f 45/118/227 42/108/228 71/109/229 76/119/230
f 4/77/231 44/120/232 77/121/233 55/78/234
f 44/120/235 43/114/236 74/117/237 77/121/238
f 39/106/239 38/122/240 78/123/241 70/107/242
f 38/122/243 3/82/244 59/85/245 78/123/246
f 25/96/247 47/124/248 79/125/249 65/97/250
f 50/126/251 45/118/252 76/119/253 80/127/254
f 47/124/255 48/92/256 64/95/257 79/125/258
f 49/115/259 50/126/260 80/127/261 75/116/262
f 81/136/263 82/137/264 84/138/265 83/139/266
f 83/139/267 84/138/268 86/140/269 85/141/270
f 85/141/271 86/140/272 88/142/273 87/143/274
f 82/137/275 88/142/276 86/140/277 84/138/278
f 87/143/279 81/136/280 83/139/281 85/141/282
f 89/144/283 90/145/284 92/146/285 91/147/286
f 91/147/287 92/146/288 94/148/289 93/149/290
f 93/149/291 94/148/292 96/150/293 95/151/294
f 90/145/295 96/150/296 94/148/297 92/146/298
f 95/151/299 89/144/300 91/147/301 93/149/302
f 51/70/303 62/91/304 52/71/305
f 66/101/306 67/100/307 71/109/308
f 55/78/309 77/121/310 56/79/311
f 59/85/312 58/84/313 78/123/314
f 63/94/315 56/79/316 77/121/317 74/117/318
f 70/107/319 78/123/320 58/84/321 57/81/322
f 65/97/323 79/125/324 64/95/325 63/94/326
f 65/97/327 63/94/328 74/117/329 76/119/330
f 74/117/331 75/116/332 80/127/333 76/119/334
f 62/91/335 65/97/336 76/119/337 71/109/338
f 52/71/339 62/91/340 71/109/341 67/100/342
f 61/89/343 52/71/344 67/100/345 72/113/346
f 68/105/347 53/74/348 60/87/349 73/112/350
f 73/112/351 60/87/352 61/89/353 72/113/354
f 70/107/355 57/81/356 54/75/357 69/104/358
f 69/104/359 54/75/360 53/74/361 68/105/362
