# This file uses centimeters as units for non-parametric coordinates.

v 0.843262 13.628929 -1.460562
v -0.843262 13.628929 -1.460562
v -1.686493 13.628929 -0.000001
v -0.843262 13.628929 1.460561
v 0.843262 13.628929 1.460561
v 1.686523 13.628929 0.000000
v 1.268433 17.158821 -2.196970
v 1.057983 17.607224 -1.832458
v -1.268433 17.158821 -2.196970
v -1.057953 17.607224 -1.832458
v -2.536835 17.158821 -0.000000
v -2.115936 17.607224 -0.000000
v -1.268433 17.158821 2.196969
v -1.057983 17.607224 1.832458
v 1.268433 17.158821 2.196969
v 1.057953 17.607224 1.832458
v 2.536835 17.158821 0.000000
v 2.115936 17.607224 0.000000
v 0.000000 0.000000 0.000000
v 3.823303 12.476097 -1.583663
v 2.818359 13.588760 -1.167401
v 1.583679 12.476097 -3.823300
v 1.167389 13.588760 -2.818357
v -1.583649 12.476097 -3.823300
v -1.167389 13.588760 -2.818357
v -3.823303 12.476097 -1.583663
v -2.818359 13.588760 -1.167402
v -3.823303 12.476097 1.583662
v -2.818359 13.588760 1.167401
v -1.583649 12.476097 3.823300
v -1.167389 13.588760 2.818357
v 1.583679 12.476097 3.823301
v 1.167389 13.588760 2.818357
v 3.823303 12.476097 1.583663
v 2.818359 13.588760 1.167401
v 3.058716 0.000000 -1.266962
v 3.823303 0.764588 -1.583664
v 1.266968 0.000000 -3.058716
v 1.583679 0.764588 -3.823299
v -1.266968 0.000000 -3.058716
v -1.583649 0.764588 -3.823299
v -3.058716 0.000000 -1.266962
v -3.823303 0.764588 -1.583664
v -3.058716 0.000000 1.266962
v -3.823303 0.764587 1.583662
v -1.266968 0.000000 3.058716
v -1.583649 0.764587 3.823299
v 1.266968 0.000000 3.058718
v 1.583679 0.764587 3.823301
v 3.058716 0.000000 1.266962
v 3.823303 0.764587 1.583664
v 0.885315 14.937431 -2.137321
v 2.137329 14.937431 -0.885307
v -0.885315 14.937431 -2.137321
v -2.137329 14.937431 -0.885307
v -2.137329 14.937431 0.885307
v -0.885315 14.937431 2.137321
v 0.885315 14.937431 2.137321
v 2.137329 14.937431 0.885307
v 1.274353 14.206589 -3.084496
v 3.076569 14.218155 -1.284727
v 1.123871 14.947250 -2.708385
v 2.713226 14.946144 -1.125855
v -1.274353 14.206589 -3.084496
v -1.123871 14.947250 -2.708385
v -3.076569 14.218155 -1.284727
v -2.713226 14.946144 -1.125855
v -3.076569 14.218155 1.284727
v -2.713226 14.946144 1.125854
v -1.274353 14.206589 3.084496
v -1.123871 14.947250 2.708385
v 1.274353 14.206589 3.084496
v 1.123871 14.947250 2.708385
v 3.076569 14.218155 1.284727
v 2.713226 14.946144 1.125855
v 0.000000 13.777763 0.000000
vt 0.188831 0.150149
vt 0.189173 0.150162
vt 0.188589 0.150176
vt 0.189254 0.150200
vt 0.189014 0.150225
vt 0.188690 0.150213
vt 0.188576 0.149533
vt 0.188632 0.149435
vt 0.188503 0.149353
vt 0.188417 0.149440
vt 0.189056 0.149561
vt 0.189036 0.149460
vt 0.189417 0.149501
vt 0.189337 0.149406
vt 0.189302 0.149404
vt 0.189238 0.149322
vt 0.188781 0.149371
vt 0.188806 0.149293
vt 0.409213 0.382762
vt 0.409262 0.382703
vt 0.409218 0.382734
vt 0.409150 0.382809
vt 0.409379 0.382737
vt 0.409387 0.382686
vt 0.409562 0.382744
vt 0.409525 0.382690
vt 0.409674 0.382779
vt 0.409608 0.382714
vt 0.409645 0.382828
vt 0.409583 0.382746
vt 0.409465 0.382861
vt 0.409450 0.382767
vt 0.409249 0.382852
vt 0.409294 0.382762
vt 0.409283 0.383457
vt 0.409245 0.383407
vt 0.409189 0.383493
vt 0.409241 0.383528
vt 0.409406 0.383417
vt 0.409398 0.383360
vt 0.409543 0.383427
vt 0.409567 0.383372
vt 0.409625 0.383482
vt 0.409671 0.383437
vt 0.409601 0.383557
vt 0.409644 0.383528
vt 0.409471 0.383605
vt 0.409480 0.383589
vt 0.409317 0.383592
vt 0.409282 0.383573
vt 0.409436 0.383505
vt 0.409247 0.382662
vt 0.409383 0.382645
vt 0.409385 0.382605
vt 0.409264 0.382619
vt 0.409534 0.382650
vt 0.409520 0.382609
vt 0.409625 0.382673
vt 0.409600 0.382629
vt 0.409598 0.382707
vt 0.409575 0.382655
vt 0.409453 0.382729
vt 0.409447 0.382673
vt 0.409280 0.382724
vt 0.409295 0.382668
vt 0.409197 0.382694
vt 0.409221 0.382645
vt 0.409391 0.382612
vt 0.409295 0.382624
vt 0.409499 0.382615
vt 0.409561 0.382631
vt 0.409540 0.382652
vt 0.409440 0.382665
vt 0.409321 0.382662
vt 0.409263 0.382644
vt 0.409416 0.382712
vn 0.000000 -1.000000 -0.000002
vn 0.000000 -1.000000 -0.000002
vn 0.000000 -1.000000 -0.000002
vn 0.000000 -1.000000 0.000000
vn 0.000000 -1.000000 0.000000
vn 0.000000 -1.000000 0.000000
vn 0.000000 -1.000000 0.000000
vn 0.000000 -1.000000 0.000000
vn 0.000000 -1.000000 0.000000
vn 0.000000 -1.000000 0.000000
vn 0.672003 0.630782 -0.387976
vn 0.672003 0.630782 -0.387976
vn 0.672003 0.630782 -0.387976
vn 0.672003 0.630782 -0.387976
vn 0.000000 0.630783 -0.775959
vn 0.000000 0.630783 -0.775959
vn 0.000000 0.630783 -0.775959
vn 0.000000 0.630783 -0.775959
vn -0.671991 0.630796 -0.387974
vn -0.671991 0.630796 -0.387974
vn -0.671991 0.630796 -0.387974
vn -0.671991 0.630796 -0.387974
vn -0.672003 0.630782 0.387976
vn -0.672003 0.630782 0.387976
vn -0.672003 0.630782 0.387976
vn -0.672003 0.630782 0.387976
vn 0.000000 0.630783 0.775960
vn 0.000000 0.630783 0.775960
vn 0.000000 0.630783 0.775960
vn 0.000000 0.630783 0.775960
vn 0.671991 0.630796 0.387974
vn 0.671991 0.630796 0.387974
vn 0.671991 0.630796 0.387974
vn 0.671991 0.630796 0.387974
vn 0.000000 -0.204224 -0.978924
vn 0.000000 -0.204224 -0.978924
vn 0.000000 -0.204224 -0.978924
vn 0.000000 -0.204224 -0.978924
vn -0.847777 -0.204226 -0.489455
vn -0.847777 -0.204226 -0.489455
vn -0.847777 -0.204226 -0.489455
vn -0.847777 -0.204226 -0.489455
vn -0.847777 -0.204226 0.489454
vn -0.847777 -0.204226 0.489454
vn -0.847777 -0.204226 0.489454
vn -0.847777 -0.204226 0.489454
vn 0.000000 -0.204224 0.978924
vn 0.000000 -0.204224 0.978924
vn 0.000000 -0.204224 0.978924
vn 0.000000 -0.204224 0.978924
vn 0.847775 -0.204222 0.489460
vn 0.847775 -0.204222 0.489460
vn 0.847775 -0.204222 0.489460
vn 0.847775 -0.204222 0.489460
vn 0.847775 -0.204222 -0.489460
vn 0.847775 -0.204222 -0.489460
vn 0.847775 -0.204222 -0.489460
vn 0.847775 -0.204222 -0.489460
vn 0.000000 1.000000 0.000000
vn 0.000000 1.000000 0.000000
vn 0.000000 1.000000 0.000000
vn 0.000000 1.000000 0.000000
vn 0.000000 1.000000 0.000000
vn 0.000000 1.000000 0.000000
vn 0.000000 1.000000 0.000000
vn 0.000000 1.000000 0.000000
vn 0.000000 1.000000 0.000000
vn 0.000000 1.000000 0.000000
vn 0.742117 0.670271 0.000000
vn 0.742117 0.670271 0.000000
vn 0.742117 0.670271 0.000000
vn 0.742117 0.670271 0.000000
vn 0.524753 0.670274 -0.524754
vn 0.524753 0.670274 -0.524754
vn 0.524753 0.670274 -0.524754
vn 0.524753 0.670274 -0.524754
vn 0.000000 0.670271 -0.742117
vn 0.000000 0.670271 -0.742117
vn 0.000000 0.670271 -0.742117
vn 0.000000 0.670271 -0.742117
vn -0.524754 0.670270 -0.524758
vn -0.524754 0.670270 -0.524758
vn -0.524754 0.670270 -0.524758
vn -0.524754 0.670270 -0.524758
vn -0.742117 0.670271 0.000000
vn -0.742117 0.670271 0.000000
vn -0.742117 0.670271 0.000000
vn -0.742117 0.670271 0.000000
vn -0.524754 0.670270 0.524758
vn -0.524754 0.670270 0.524758
vn -0.524754 0.670270 0.524758
vn -0.524754 0.670270 0.524758
vn -0.000000 0.670271 0.742117
vn -0.000000 0.670271 0.742117
vn -0.000000 0.670271 0.742117
vn -0.000000 0.670271 0.742117
vn 0.524753 0.670274 0.524754
vn 0.524753 0.670274 0.524754
vn 0.524753 0.670274 0.524754
vn 0.524753 0.670274 0.524754
vn 0.707107 -0.707107 -0.000000
vn 0.707107 -0.707107 -0.000000
vn 0.707107 -0.707107 -0.000000
vn 0.707107 -0.707107 -0.000000
vn 0.500001 -0.707108 -0.499998
vn 0.500001 -0.707108 -0.499998
vn 0.500001 -0.707108 -0.499998
vn 0.500001 -0.707108 -0.499998
vn 0.000000 -0.707105 -0.707108
vn 0.000000 -0.707105 -0.707108
vn 0.000000 -0.707105 -0.707108
vn 0.000000 -0.707105 -0.707108
vn -0.500002 -0.707102 -0.500004
vn -0.500002 -0.707102 -0.500004
vn -0.500002 -0.707102 -0.500004
vn -0.500002 -0.707102 -0.500004
vn -0.707107 -0.707107 -0.000000
vn -0.707107 -0.707107 -0.000000
vn -0.707107 -0.707107 -0.000000
vn -0.707107 -0.707107 -0.000000
vn -0.500003 -0.707102 0.500004
vn -0.500003 -0.707102 0.500004
vn -0.500003 -0.707102 0.500004
vn -0.500003 -0.707102 0.500004
vn -0.000000 -0.707105 0.707109
vn -0.000000 -0.707105 0.707109
vn -0.000000 -0.707105 0.707109
vn -0.000000 -0.707105 0.707109
vn 0.500001 -0.707108 0.499998
vn 0.500001 -0.707108 0.499998
vn 0.500001 -0.707108 0.499998
vn 0.500001 -0.707108 0.499998
vn -0.000000 -1.000000 -0.000000
vn -0.000000 -1.000000 -0.000000
vn -0.000000 -1.000000 -0.000000
vn 0.000000 -1.000000 -0.000000
vn 0.000000 -1.000000 -0.000000
vn 0.000000 -1.000000 -0.000000
vn 0.000000 -1.000000 -0.000000
vn 0.000000 -1.000000 -0.000000
vn 0.000000 -1.000000 -0.000000
vn 0.000000 -1.000000 0.000000
vn 0.000000 -1.000000 0.000000
vn 0.000000 -1.000000 0.000000
vn 0.000000 -1.000000 0.000000
vn 0.000000 -1.000000 0.000000
vn 0.000000 -1.000000 0.000000
vn 0.000000 -1.000000 0.000000
vn 0.000000 -1.000000 0.000000
vn 0.000000 -1.000000 0.000000
vn 0.000000 -1.000000 0.000000
vn 0.000000 -1.000000 0.000000
vn 0.000000 -1.000000 0.000000
vn 0.000000 -1.000000 0.000000
vn 0.000000 -1.000000 0.000000
vn 0.000000 -1.000000 0.000000
vn 0.707109 -0.000000 -0.707105
vn 0.707109 -0.000000 -0.707105
vn 0.707109 -0.000000 -0.707105
vn 0.707109 -0.000000 -0.707105
vn 0.000000 -0.000000 -1.000000
vn 0.000000 -0.000000 -1.000000
vn 0.000000 -0.000000 -1.000000
vn 0.000000 -0.000000 -1.000000
vn -0.707104 0.000000 -0.707110
vn -0.707104 0.000000 -0.707110
vn -0.707104 0.000000 -0.707110
vn -0.707104 0.000000 -0.707110
vn -1.000000 0.000000 0.000000
vn -1.000000 0.000000 0.000000
vn -1.000000 0.000000 0.000000
vn -1.000000 0.000000 0.000000
vn -0.707104 -0.000000 0.707109
vn -0.707104 -0.000000 0.707109
vn -0.707104 -0.000000 0.707109
vn -0.707104 -0.000000 0.707109
vn -0.000000 -0.000000 1.000000
vn -0.000000 -0.000000 1.000000
vn -0.000000 -0.000000 1.000000
vn -0.000000 -0.000000 1.000000
vn 0.707109 0.000000 0.707105
vn 0.707109 0.000000 0.707105
vn 0.707109 0.000000 0.707105
vn 0.707109 0.000000 0.707105
vn 1.000000 -0.000000 0.000000
vn 1.000000 -0.000000 0.000000
vn 1.000000 -0.000000 0.000000
vn 1.000000 -0.000000 0.000000
vn 0.629629 0.450773 -0.632749
vn 0.629629 0.450773 -0.632749
vn 0.629629 0.450773 -0.632749
vn 0.629629 0.450773 -0.632749
vn 0.000000 0.452772 -0.891626
vn 0.000000 0.452772 -0.891626
vn 0.000000 0.452772 -0.891626
vn 0.000000 0.452772 -0.891626
vn -0.629629 0.450773 -0.632749
vn -0.629629 0.450773 -0.632749
vn -0.629629 0.450773 -0.632749
vn -0.629629 0.450773 -0.632749
vn -0.894748 0.446572 0.000000
vn -0.894748 0.446572 0.000000
vn -0.894748 0.446572 0.000000
vn -0.894748 0.446572 0.000000
vn -0.629629 0.450774 0.632748
vn -0.629629 0.450774 0.632748
vn -0.629629 0.450774 0.632748
vn -0.629629 0.450774 0.632748
vn 0.000000 0.452772 0.891626
vn 0.000000 0.452772 0.891626
vn 0.000000 0.452772 0.891626
vn 0.000000 0.452772 0.891626
vn 0.629629 0.450773 0.632749
vn 0.629629 0.450773 0.632749
vn 0.629629 0.450773 0.632749
vn 0.629629 0.450773 0.632749
vn 0.894748 0.446572 0.000000
vn 0.894748 0.446572 0.000000
vn 0.894748 0.446572 0.000000
vn 0.894748 0.446572 0.000000
vn 0.651328 -0.390696 -0.650483
vn 0.651328 -0.390696 -0.650483
vn 0.651328 -0.390696 -0.650483
vn 0.651328 -0.390696 -0.650483
vn -0.011187 0.999870 0.011605
vn -0.011187 0.999870 0.011605
vn -0.011187 0.999870 0.011605
vn -0.011187 0.999870 0.011605
vn 0.000000 -0.395620 -0.918414
vn 0.000000 -0.395620 -0.918414
vn 0.000000 -0.395620 -0.918414
vn 0.000000 -0.395620 -0.918414
vn 0.000000 0.999852 0.017192
vn 0.000000 0.999852 0.017192
vn 0.000000 0.999852 0.017192
vn 0.000000 0.999852 0.017192
vn -0.651328 -0.390696 -0.650483
vn -0.651328 -0.390696 -0.650483
vn -0.651328 -0.390696 -0.650483
vn -0.651328 -0.390696 -0.650483
vn 0.011187 0.999870 0.011605
vn 0.011187 0.999870 0.011605
vn 0.011187 0.999870 0.011605
vn 0.011187 0.999870 0.011605
vn -0.925171 -0.379551 0.000000
vn -0.925171 -0.379551 0.000000
vn -0.925171 -0.379551 0.000000
vn -0.925171 -0.379551 0.000000
vn 0.015127 0.999886 0.000000
vn 0.015127 0.999886 0.000000
vn 0.015127 0.999886 0.000000
vn 0.015127 0.999886 0.000000
vn -0.651328 -0.390697 0.650483
vn -0.651328 -0.390697 0.650483
vn -0.651328 -0.390697 0.650483
vn -0.651328 -0.390697 0.650483
vn 0.011187 0.999870 -0.011605
vn 0.011187 0.999870 -0.011605
vn 0.011187 0.999870 -0.011605
vn 0.011187 0.999870 -0.011605
vn -0.000000 -0.395621 0.918414
vn -0.000000 -0.395621 0.918414
vn -0.000000 -0.395621 0.918414
vn -0.000000 -0.395621 0.918414
vn 0.000000 0.999852 -0.017192
vn 0.000000 0.999852 -0.017192
vn 0.000000 0.999852 -0.017192
vn 0.000000 0.999852 -0.017192
vn 0.651328 -0.390696 0.650483
vn 0.651328 -0.390696 0.650483
vn 0.651328 -0.390696 0.650483
vn 0.651328 -0.390696 0.650483
vn -0.011187 0.999870 -0.011605
vn -0.011187 0.999870 -0.011605
vn -0.011187 0.999870 -0.011605
vn -0.011187 0.999870 -0.011605
vn 0.925171 -0.379552 0.000000
vn 0.925171 -0.379552 0.000000
vn 0.925171 -0.379552 0.000000
vn 0.925171 -0.379552 0.000000
vn -0.015127 0.999886 0.000000
vn -0.015127 0.999886 0.000000
vn -0.015127 0.999886 0.000000
vn -0.015127 0.999886 0.000000
vn -0.337221 0.878956 0.337222
vn -0.337221 0.878956 0.337222
vn -0.337221 0.878956 0.337222
vn 0.000000 0.878956 0.476903
vn 0.000000 0.878956 0.476903
vn 0.000000 0.878956 0.476903
vn 0.337221 0.878956 0.337221
vn 0.337221 0.878956 0.337221
vn 0.337221 0.878956 0.337221
vn 0.476902 0.878956 0.000000
vn 0.476902 0.878956 0.000000
vn 0.476902 0.878956 0.000000
vn 0.337221 0.878956 -0.337222
vn 0.337221 0.878956 -0.337222
vn 0.337221 0.878956 -0.337222
vn 0.000000 0.878956 -0.476903
vn 0.000000 0.878956 -0.476903
vn 0.000000 0.878956 -0.476903
vn -0.337221 0.878956 -0.337221
vn -0.337221 0.878956 -0.337221
vn -0.337221 0.878956 -0.337221
vn -0.476902 0.878956 0.000000
vn -0.476902 0.878956 0.000000
vn -0.476902 0.878956 0.000000
s off
f 5/1/1 4/2/2 6/3/3
f 6/3/4 4/2/5 3/4/6 2/5/7
f 2/5/8 1/6/9 6/3/10
f 7/7/11 8/8/12 18/9/13 17/10/14
f 8/8/15 7/7/16 9/11/17 10/12/18
f 10/12/19 9/11/20 11/13/21 12/14/22
f 12/14/23 11/13/24 13/15/25 14/16/26
f 14/16/27 13/15/28 15/17/29 16/18/30
f 16/18/31 15/17/32 17/10/33 18/9/34
f 1/6/35 2/5/36 9/11/37 7/7/38
f 2/5/39 3/4/40 11/13/41 9/11/42
f 3/4/43 4/2/44 13/15/45 11/13/46
f 4/2/47 5/1/48 15/17/49 13/15/50
f 5/1/51 6/3/52 17/10/53 15/17/54
f 6/3/55 1/6/56 7/7/57 17/10/58
f 18/9/59 8/8/60 16/18/61
f 16/18/62 8/8/63 10/12/64 12/14/65
f 12/14/66 14/16/67 16/18/68
f 20/19/69 21/20/70 35/21/71 34/22/72
f 21/20/73 20/19/74 22/23/75 23/24/76
f 23/24/77 22/23/78 24/25/79 25/26/80
f 25/26/81 24/25/82 26/27/83 27/28/84
f 27/28/85 26/27/86 28/29/87 29/30/88
f 29/30/89 28/29/90 30/31/91 31/32/92
f 31/32/93 30/31/94 32/33/95 33/34/96
f 33/34/97 32/33/98 34/22/99 35/21/100
f 36/35/101 37/36/102 51/37/103 50/38/104
f 37/36/105 36/35/106 38/39/107 39/40/108
f 39/40/109 38/39/110 40/41/111 41/42/112
f 41/42/113 40/41/114 42/43/115 43/44/116
f 43/44/117 42/43/118 44/45/119 45/46/120
f 45/46/121 44/45/122 46/47/123 47/48/124
f 47/48/125 46/47/126 48/49/127 49/50/128
f 49/50/129 48/49/130 50/38/131 51/37/132
f 38/39/133 36/35/134 19/51/135
f 40/41/136 38/39/137 19/51/138
f 42/43/139 40/41/140 19/51/141
f 44/45/142 42/43/143 19/51/144
f 46/47/145 44/45/146 19/51/147
f 48/49/148 46/47/149 19/51/150
f 50/38/151 48/49/152 19/51/153
f 36/35/154 50/38/155 19/51/156
f 37/36/157 39/40/158 22/23/159 20/19/160
f 39/40/161 41/42/162 24/25/163 22/23/164
f 41/42/165 43/44/166 26/27/167 24/25/168
f 43/44/169 45/46/170 28/29/171 26/27/172
f 45/46/173 47/48/174 30/31/175 28/29/176
f 47/48/177 49/50/178 32/33/179 30/31/180
f 49/50/181 51/37/182 34/22/183 32/33/184
f 51/37/185 37/36/186 20/19/187 34/22/188
f 61/52/189 60/53/190 62/54/191 63/55/192
f 60/53/193 64/56/194 65/57/195 62/54/196
f 64/56/197 66/58/198 67/59/199 65/57/200
f 66/58/201 68/60/202 69/61/203 67/59/204
f 68/60/205 70/62/206 71/63/207 69/61/208
f 70/62/209 72/64/210 73/65/211 71/63/212
f 72/64/213 74/66/214 75/67/215 73/65/216
f 74/66/217 61/52/218 63/55/219 75/67/220
f 21/20/221 23/24/222 60/53/223 61/52/224
f 52/68/225 53/69/226 63/55/227 62/54/228
f 23/24/229 25/26/230 64/56/231 60/53/232
f 54/70/233 52/68/234 62/54/235 65/57/236
f 25/26/237 27/28/238 66/58/239 64/56/240
f 55/71/241 54/70/242 65/57/243 67/59/244
f 27/28/245 29/30/246 68/60/247 66/58/248
f 56/72/249 55/71/250 67/59/251 69/61/252
f 29/30/253 31/32/254 70/62/255 68/60/256
f 57/73/257 56/72/258 69/61/259 71/63/260
f 31/32/261 33/34/262 72/64/263 70/62/264
f 58/74/265 57/73/266 71/63/267 73/65/268
f 33/34/269 35/21/270 74/66/271 72/64/272
f 59/75/273 58/74/274 73/65/275 75/67/276
f 35/21/277 21/20/278 61/52/279 74/66/280
f 53/69/281 59/75/282 75/67/283 63/55/284
f 53/69/285 52/68/286 76/76/287
f 52/68/288 54/70/289 76/76/290
f 54/70/291 55/71/292 76/76/293
f 55/71/294 56/72/295 76/76/296
f 56/72/297 57/73/298 76/76/299
f 57/73/300 58/74/301 76/76/302
f 58/74/303 59/75/304 76/76/305
f 59/75/306 53/69/307 76/76/308
