# This file uses centimeters as units for non-parametric coordinates.

v 125.000046 4.078682 -0.000015
v 40.000000 4.078682 -0.000015
v 40.000000 0.000000 -0.000015
v 125.000046 0.000000 -0.000015
v 125.578125 0.000000 102.070053
v 41.675140 0.000000 102.070053
v 125.578125 4.078682 102.070053
v 41.675140 4.078682 102.070053
v 210.000000 4.078682 -0.000015
v 210.000000 0.000000 -0.000015
v 213.261597 0.000001 97.198273
v 213.261597 4.078682 97.198273
vt 0.069702 0.302443
vt 0.070033 0.302465
vt 0.070253 0.302087
vt 0.069822 0.302047
vt 0.413932 0.114923
vt 0.497485 0.114923
vt 0.497485 0.114923
vt 0.413932 0.114923
vt 0.497485 0.216329
vt 0.497485 0.216329
vt 0.413932 0.216329
vt 0.069359 0.302419
vt 0.069368 0.302006
vt 0.413932 0.216329
vt 0.497485 0.216329
vt 0.497485 0.216329
vt 0.413932 0.114923
vt 0.497485 0.114923
vt 0.497485 0.114923
vt 0.413932 0.114923
vt 0.497363 0.115052
vt 0.496884 0.114994
vt 0.496880 0.114973
vt 0.497363 0.115030
vt 0.497880 0.115091
vt 0.497877 0.115113
vn 0.000000 0.000000 1.000000
vn 0.000000 0.000000 1.000000
vn 0.000000 0.000000 1.000000
vn 0.000000 0.000000 1.000000
vn 0.000000 -1.000000 0.000000
vn 0.000000 -1.000000 0.000000
vn 0.000000 -1.000000 0.000000
vn 0.000000 -1.000000 0.000000
vn 0.000000 1.000000 0.000000
vn 0.000000 1.000000 0.000000
vn 0.000000 1.000000 0.000000
vn 0.000000 1.000000 0.000000
vn -1.000000 0.000000 0.000000
vn -1.000000 0.000000 0.000000
vn -1.000000 0.000000 0.000000
vn -1.000000 0.000000 0.000000
vn 0.055475 0.000000 0.998460
vn 0.055475 0.000000 0.998460
vn 0.055475 0.000000 0.998460
vn 0.055475 0.000000 0.998460
vn 0.000000 -1.000000 0.000000
vn 0.000000 -1.000000 0.000000
vn 0.000000 -1.000000 0.000000
vn 0.000000 -1.000000 0.000000
vn 0.000000 1.000000 0.000000
vn 0.000000 1.000000 0.000000
vn 0.000000 1.000000 0.000000
vn 0.000000 1.000000 0.000000
vn 0.999261 0.000000 -0.038448
vn 0.999261 0.000000 -0.038448
vn 0.999261 0.000000 -0.038448
vn 0.999261 0.000000 -0.038448
vn 0.000000 0.000000 -1.000000
vn 0.000000 0.000000 -1.000000
vn 0.000000 0.000000 -1.000000
vn 0.000000 0.000000 -1.000000
vn 0.000000 0.000000 -1.000000
vn 0.000000 0.000000 -1.000000
vn 0.000000 0.000000 -1.000000
vn 0.000000 0.000000 -1.000000
s off
f 5/5/1 7/8/2 8/7/3 6/6/4
f 6/3/5 3/2/6 4/1/7 5/4/8
f 8/7/9 7/8/10 1/11/11 2/10/12
f 6/6/13 8/7/14 2/10/15 3/9/16
f 5/20/17 11/19/18 12/18/19 7/17/20
f 11/13/21 5/4/22 4/1/23 10/12/24
f 12/18/25 9/15/26 1/14/27 7/17/28
f 11/19/29 10/16/30 9/15/31 12/18/32
f 4/21/33 3/22/34 2/23/35 1/24/36
f 4/21/37 1/24/38 9/25/39 10/26/40
