# This file uses centimeters as units for non-parametric coordinates.

v -31.916626 0.000000 17.967682
v -31.916626 0.000000 14.027252
v -30.397888 39.445206 19.486511
v -30.397888 39.445206 12.508484
v -37.375854 39.445206 19.486481
v -37.375854 39.445206 12.508453
v -35.857117 0.000000 17.967712
v -35.857117 0.000000 14.027283
v 35.574585 0.000000 17.967773
v 35.574585 0.000000 14.027283
v 37.093384 39.445206 19.486481
v 37.093384 39.445206 12.508514
v 30.115355 39.445206 19.486511
v 30.115356 39.445206 12.508545
v 31.634155 0.000000 17.967743
v 31.634155 0.000000 14.027252
v -31.916626 0.000000 -17.967743
v -31.916626 0.000000 -14.027313
v -30.397886 39.445206 -19.486450
v -30.397888 39.445206 -12.508484
v -37.375854 39.445206 -19.486542
v -37.375854 39.445206 -12.508514
v -35.857117 0.000000 -17.967712
v -35.857117 0.000000 -14.027283
v 35.574585 0.000000 -17.967712
v 35.574585 0.000000 -14.027222
v 37.093384 39.445206 -19.486481
v 37.093384 39.445206 -12.508514
v 30.115356 39.445206 -19.486450
v 30.115356 39.445206 -12.508484
v 31.634155 0.000000 -17.967743
v 31.634155 0.000000 -14.027252
v -38.566467 39.067341 21.936584
v 38.566467 39.067341 21.936554
v -40.337585 43.117424 21.936554
v 40.337585 43.117424 21.936584
v -40.337585 43.117424 -21.936615
v 40.337585 43.117424 -21.936584
v -38.566467 39.067341 -21.936584
v 38.566467 39.067341 -21.936615
v -38.394958 44.389397 20.359802
v 37.959656 44.389397 19.006866
v 37.485901 44.389397 -20.359741
v -37.162537 44.389397 -19.393646
v -30.251709 39.067341 21.936584
v 17.316467 43.117424 21.936584
v 29.972534 43.117424 21.936554
v 23.420532 44.389397 20.359802
v 23.196350 41.341057 21.936584
v -38.394958 44.389397 -4.367371
v -40.337585 43.117424 -2.628479
v -40.337585 43.117424 -5.909515
v -38.566467 39.067341 -4.552246
v -7.843384 43.117424 -21.936615
v 13.892395 43.117424 -21.936615
v 4.198242 44.389397 -19.660004
v 2.947815 40.783001 -21.936615
v 31.674744 31.204670 16.378235
v 31.674744 31.204670 13.852966
v 31.674744 39.445206 16.378235
v 31.674744 39.445206 13.852966
v -34.654541 39.445206 16.378235
v -34.654541 39.445206 13.852966
v -34.654541 31.204670 16.378235
v -34.654541 31.204670 13.852966
v 31.674744 31.204670 -16.378235
v 31.674744 31.204670 -13.852905
v 31.674744 39.445206 -16.378235
v 31.674744 39.445206 -13.852905
v -34.654541 39.445206 -16.378235
v -34.654541 39.445206 -13.852966
v -34.654541 31.204670 -16.378235
v -34.654541 31.204670 -13.852966
v 31.203125 31.204670 -14.428680
v 33.728394 31.204670 -14.428650
v 31.203125 39.445206 -14.428680
v 33.728394 39.445206 -14.428650
v 31.203125 39.445206 13.910980
v 33.728394 39.445206 13.911011
v 31.203125 31.204670 13.910980
v 33.728394 31.204670 13.911011
v -34.360962 31.204670 -14.428650
v -31.835632 31.204670 -14.428680
v -34.360962 39.445206 -14.428650
v -31.835632 39.445206 -14.428680
v -34.360962 39.445206 13.911011
v -31.835632 39.445206 13.910980
v -34.360962 31.204670 13.911011
v -31.835632 31.204670 13.910980
v 36.280090 18.323166 18.673218
v 36.710266 29.494638 19.103363
v 33.952576 21.601316 18.799408
v 36.444397 22.590624 16.790466
vt 0.204795 0.111058
vt 0.204778 0.111036
vt 0.204777 0.112274
vt 0.204786 0.112299
vt 0.204721 0.111066
vt 0.204706 0.111044
vt 0.204737 0.112283
vt 0.204746 0.112308
vt 0.205511 0.110977
vt 0.205484 0.110958
vt 0.205472 0.112118
vt 0.205487 0.112139
vt 0.205447 0.110984
vt 0.205421 0.110965
vt 0.205437 0.112126
vt 0.205452 0.112147
vt 0.204868 0.111154
vt 0.204865 0.112511
vt 0.204876 0.112540
vt 0.204888 0.111180
vt 0.204807 0.111190
vt 0.204789 0.111163
vt 0.204832 0.112552
vt 0.204821 0.112522
vt 0.205632 0.111060
vt 0.205616 0.112323
vt 0.205634 0.112349
vt 0.205665 0.111083
vt 0.205596 0.111092
vt 0.205564 0.111069
vt 0.205596 0.112359
vt 0.205579 0.112333
vt 0.205317 0.125269
vt 0.205280 0.125339
vt 0.204954 0.125300
vt 0.204969 0.125269
vt 0.205301 0.123828
vt 0.205014 0.125236
vt 0.205296 0.122373
vt 0.204934 0.125320
vt 0.205017 0.125293
vt 0.204992 0.125256
vt 0.204929 0.125256
vt 0.205296 0.125320
vt 0.205301 0.125326
vt 0.204915 0.125339
vt 0.204910 0.125269
vt 0.205306 0.125261
vt 0.204933 0.125236
vt 0.204916 0.125247
vt 0.204954 0.125247
vt 0.204937 0.125269
vt 0.205300 0.121491
vt 0.205305 0.125260
vt 0.205313 0.125340
vt 0.205042 0.125256
vt 0.205341 0.124880
vt 0.204749 0.129581
vt 0.204747 0.129316
vt 0.205456 0.129237
vt 0.205455 0.129485
vt 0.204743 0.129571
vt 0.205444 0.129476
vt 0.205445 0.129229
vt 0.204741 0.129307
vt 0.204824 0.129709
vt 0.205581 0.129595
vt 0.205583 0.129328
vt 0.204822 0.129421
vt 0.204832 0.129721
vt 0.205594 0.129606
vt 0.205595 0.129337
vt 0.204830 0.129431
vt 0.205541 0.131524
vt 0.204797 0.131709
vt 0.204798 0.130974
vt 0.205546 0.130818
vt 0.205501 0.131493
vt 0.204760 0.131676
vt 0.204761 0.130946
vt 0.205505 0.130793
vt 0.205479 0.131510
vt 0.204824 0.131641
vt 0.204821 0.131023
vt 0.205479 0.130914
vt 0.205450 0.131489
vt 0.204798 0.131618
vt 0.204795 0.131004
vt 0.205450 0.130896
vt 0.205477 0.111579
vt 0.205481 0.111251
vt 0.205456 0.111486
vt 0.205487 0.111464
vn 0.999260 -0.038474 0.000000
vn 0.999260 -0.038474 0.000000
vn 0.999260 -0.038474 0.000000
vn 0.999260 -0.038474 0.000000
vn 0.000000 1.000000 0.000000
vn 0.000000 1.000000 0.000000
vn 0.000000 1.000000 0.000000
vn 0.000000 1.000000 0.000000
vn -0.999260 -0.038474 0.000000
vn -0.999260 -0.038474 0.000000
vn -0.999260 -0.038474 0.000000
vn -0.999260 -0.038474 0.000000
vn 0.000000 -1.000000 0.000000
vn 0.000000 -1.000000 0.000000
vn 0.000000 -1.000000 0.000000
vn 0.000000 -1.000000 0.000000
vn 0.000000 -0.038476 -0.999260
vn 0.000000 -0.038475 -0.999260
vn 0.000000 -0.038475 -0.999260
vn 0.000000 -0.038476 -0.999260
vn 0.000000 -0.038476 0.999260
vn 0.000000 -0.038475 0.999260
vn 0.000000 -0.038475 0.999260
vn 0.000000 -0.038476 0.999260
vn 0.999260 -0.038474 0.000000
vn 0.999260 -0.038474 0.000000
vn 0.999260 -0.038474 0.000000
vn 0.000000 1.000000 0.000000
vn 0.000000 1.000000 0.000000
vn 0.000000 1.000000 0.000000
vn 0.000000 1.000000 0.000000
vn -0.999260 -0.038476 -0.000000
vn -0.999260 -0.038476 -0.000000
vn -0.999260 -0.038476 -0.000000
vn -0.999260 -0.038476 -0.000000
vn 0.000000 -1.000000 0.000000
vn 0.000000 -1.000000 0.000000
vn 0.000000 -1.000000 0.000000
vn 0.000000 -1.000000 0.000000
vn 0.000000 -0.038474 -0.999260
vn 0.000000 -0.038474 -0.999260
vn 0.000000 -0.038474 -0.999260
vn 0.000000 -0.038474 -0.999260
vn -0.000008 -0.038471 0.999260
vn -0.000008 -0.038471 0.999260
vn -0.000008 -0.038471 0.999260
vn -0.000008 -0.038471 0.999260
vn 0.999260 -0.038474 0.000000
vn 0.999260 -0.038474 0.000000
vn 0.999260 -0.038474 0.000000
vn 0.999260 -0.038474 0.000000
vn 0.000000 1.000000 0.000000
vn 0.000000 1.000000 0.000000
vn 0.000000 1.000000 0.000000
vn 0.000000 1.000000 0.000000
vn -0.999260 -0.038474 0.000000
vn -0.999260 -0.038474 0.000000
vn -0.999260 -0.038474 0.000000
vn -0.999260 -0.038474 0.000000
vn 0.000000 -1.000000 0.000000
vn 0.000000 -1.000000 0.000000
vn 0.000000 -1.000000 0.000000
vn 0.000000 -1.000000 0.000000
vn 0.000000 -0.038475 0.999260
vn 0.000000 -0.038475 0.999260
vn 0.000000 -0.038476 0.999260
vn 0.000000 -0.038476 0.999260
vn 0.000006 -0.038475 -0.999260
vn 0.000006 -0.038475 -0.999260
vn 0.000006 -0.038475 -0.999260
vn 0.000006 -0.038475 -0.999260
vn 0.999260 -0.038476 0.000000
vn 0.999260 -0.038476 0.000000
vn 0.999260 -0.038476 0.000000
vn 0.999260 -0.038476 0.000000
vn 0.000000 1.000000 0.000000
vn 0.000000 1.000000 0.000000
vn 0.000000 1.000000 0.000000
vn 0.000000 1.000000 0.000000
vn -0.999260 -0.038476 0.000000
vn -0.999260 -0.038476 0.000000
vn -0.999260 -0.038476 0.000000
vn -0.999260 -0.038476 0.000000
vn 0.000000 -1.000000 0.000000
vn 0.000000 -1.000000 0.000000
vn 0.000000 -1.000000 0.000000
vn 0.000000 -1.000000 0.000000
vn 0.000000 -0.038474 0.999260
vn 0.000000 -0.038474 0.999260
vn 0.000000 -0.038474 0.999260
vn 0.000000 -0.038474 0.999260
vn 0.000000 -0.038474 -0.999260
vn 0.000000 -0.038474 -0.999260
vn 0.000000 -0.038474 -0.999260
vn 0.000000 -0.038474 -0.999260
vn -0.000000 0.000004 1.000000
vn -0.000000 0.000004 1.000000
vn -0.000000 0.000004 1.000000
vn -0.000000 0.000004 1.000000
vn 0.000000 1.000000 -0.000000
vn 0.000000 1.000000 -0.000000
vn 0.000000 1.000000 -0.000000
vn 0.000001 0.000004 -1.000000
vn 0.000001 0.000004 -1.000000
vn 0.000001 0.000004 -1.000000
vn 0.000001 0.000004 -1.000000
vn 0.000000 -1.000000 0.000000
vn 0.000000 -1.000000 0.000000
vn 0.000000 -1.000000 0.000000
vn 0.916223 -0.400668 0.000000
vn 0.916223 -0.400668 0.000000
vn 0.916223 -0.400668 0.000000
vn 0.916223 -0.400668 0.000000
vn -0.683235 0.047329 -0.728663
vn -0.683235 0.047329 -0.728663
vn -0.683235 0.047329 -0.728663
vn 0.437959 0.898991 -0.002493
vn 0.437959 0.898991 -0.002493
vn 0.437959 0.898991 -0.002493
vn 0.437959 0.898992 -0.002493
vn -0.006629 0.824467 -0.565872
vn -0.006629 0.824467 -0.565872
vn -0.006629 0.824467 -0.565872
vn -0.006629 0.824467 -0.565872
vn 0.024660 0.890691 0.453939
vn 0.024660 0.890691 0.453939
vn 0.024660 0.890691 0.453939
vn 0.024660 0.890691 0.453939
vn 0.135152 0.447360 0.884083
vn 0.135152 0.447360 0.884083
vn 0.135152 0.447360 0.884083
vn -0.121388 0.463066 0.877972
vn -0.121388 0.463066 0.877972
vn -0.121388 0.463066 0.877972
vn -0.434003 0.900747 -0.017224
vn -0.434003 0.900747 -0.017224
vn -0.434003 0.900747 -0.017224
vn -0.434003 0.900747 -0.017224
vn -0.916223 -0.400668 0.000000
vn -0.916223 -0.400668 0.000000
vn -0.916223 -0.400668 0.000000
vn -0.916223 -0.400668 0.000000
vn -0.916223 -0.400668 0.000000
vn -0.916223 -0.400668 0.000000
vn -0.916223 -0.400668 0.000000
vn -0.916223 -0.400668 0.000000
vn -0.618779 -0.007347 0.785531
vn -0.618779 -0.007347 0.785531
vn -0.618779 -0.007347 0.785531
vn -0.001669 0.886528 -0.462672
vn -0.001669 0.886528 -0.462672
vn -0.001669 0.886528 -0.462672
vn -0.001669 0.886528 -0.462672
vn -0.119283 0.559239 -0.820380
vn -0.119283 0.559239 -0.820380
vn -0.119283 0.559239 -0.820380
vn 0.108891 0.503362 -0.857187
vn 0.108891 0.503362 -0.857187
vn 0.108891 0.503362 -0.857187
vn 0.000000 0.000008 1.000000
vn 0.000000 0.000008 1.000000
vn 0.000000 0.000008 1.000000
vn 0.000000 -0.000010 1.000000
vn 0.000000 -0.000010 1.000000
vn 0.000000 -0.000010 1.000000
vn 0.000000 0.000000 1.000000
vn 0.000000 0.000000 1.000000
vn 0.000000 0.000000 1.000000
vn 0.000000 0.000000 1.000000
vn -0.000000 -0.000008 -1.000000
vn -0.000000 -0.000008 -1.000000
vn -0.000000 -0.000008 -1.000000
vn -0.000000 -0.000005 -1.000000
vn -0.000000 -0.000005 -1.000000
vn -0.000000 -0.000005 -1.000000
vn -0.000000 -0.000005 -1.000000
vn 0.000000 1.000000 0.000000
vn 0.000000 1.000000 0.000000
vn 0.000000 1.000000 0.000000
vn 0.000000 1.000000 0.000000
vn -0.547791 0.836615 0.000000
vn -0.547791 0.836615 0.000000
vn -0.547791 0.836615 0.000000
vn -0.547791 0.836615 0.000000
vn -0.000000 0.778320 0.627867
vn -0.000000 0.778320 0.627867
vn -0.000000 0.778320 0.627867
vn -0.000000 0.778320 0.627867
vn 0.000000 1.000000 0.000000
vn 0.000000 1.000000 0.000000
vn 0.000000 1.000000 0.000000
vn 0.000000 1.000000 0.000000
vn 0.000000 -1.000000 0.000000
vn 0.000000 -1.000000 0.000000
vn 0.000000 -1.000000 0.000000
vn 0.000000 -1.000000 0.000000
vn 0.000000 -1.000000 0.000000
vn 0.000000 0.000000 -1.000000
vn 0.000000 0.000000 -1.000000
vn 0.000000 0.000000 -1.000000
vn 0.000000 0.000000 -1.000000
vn 0.000000 -1.000000 0.000000
vn 0.000000 -1.000000 0.000000
vn 0.000000 -1.000000 0.000000
vn 0.000000 -1.000000 0.000000
vn 0.000000 0.000000 1.000000
vn 0.000000 0.000000 1.000000
vn 0.000000 0.000000 1.000000
vn 0.000000 0.000000 1.000000
vn -0.000001 0.000000 1.000000
vn -0.000001 0.000000 1.000000
vn -0.000001 0.000000 1.000000
vn -0.000001 0.000000 1.000000
vn 0.000000 -1.000000 0.000000
vn 0.000000 -1.000000 0.000000
vn 0.000000 -1.000000 0.000000
vn 0.000000 -1.000000 0.000000
vn 0.000000 0.000000 -1.000000
vn 0.000000 0.000000 -1.000000
vn 0.000000 0.000000 -1.000000
vn 0.000000 0.000000 -1.000000
vn 1.000000 0.000000 0.000000
vn 1.000000 0.000000 0.000000
vn 1.000000 0.000000 0.000000
vn 1.000000 0.000000 0.000000
vn 0.000000 -1.000000 0.000000
vn 0.000000 -1.000000 0.000000
vn 0.000000 -1.000000 0.000000
vn 0.000000 -1.000000 0.000000
vn -1.000000 0.000000 0.000000
vn -1.000000 0.000000 0.000000
vn -1.000000 0.000000 0.000000
vn -1.000000 0.000000 0.000000
vn 1.000000 0.000000 0.000000
vn 1.000000 0.000000 0.000000
vn 1.000000 0.000000 0.000000
vn 1.000000 0.000000 0.000000
vn 0.000000 -1.000000 0.000000
vn 0.000000 -1.000000 0.000000
vn 0.000000 -1.000000 0.000000
vn 0.000000 -1.000000 0.000000
vn -1.000000 0.000000 0.000000
vn -1.000000 0.000000 0.000000
vn -1.000000 0.000000 0.000000
vn -1.000000 0.000000 0.000000
vn 0.666501 -0.259764 0.698784
vn 0.666501 -0.259764 0.698784
vn 0.666501 -0.259764 0.698784
vn 0.000000 -0.038476 0.999260
vn 0.000000 -0.038476 0.999260
vn 0.000000 -0.038476 0.999260
vn 0.000000 -0.038476 0.999260
vn 0.000018 -0.038474 0.999260
vn 0.000018 -0.038474 0.999260
vn 0.000018 -0.038474 0.999260
vn 0.999260 -0.038475 -0.000001
vn 0.999260 -0.038475 -0.000001
vn 0.999260 -0.038475 -0.000001
vn 0.999260 -0.038475 -0.000001
vn 0.999260 -0.038476 0.000001
vn 0.999260 -0.038476 0.000001
vn 0.999260 -0.038476 0.000001
vn 0.999260 -0.038476 0.000001
vn 0.509161 0.330924 0.794509
vn 0.509161 0.330924 0.794509
vn 0.509161 0.330924 0.794509
s off
f 4/1/1 3/2/2 1/3/3 2/4/4
f 3/2/5 4/1/6 6/5/7 5/6/8
f 7/7/9 5/6/10 6/5/11 8/8/12
f 7/7/13 8/8/14 2/4/15 1/3/16
f 6/5/17 4/1/18 2/4/19 8/8/20
f 3/2/21 5/6/22 7/7/23 1/3/24
f 12/9/25 11/10/26 91/91/27
f 11/10/28 12/9/29 14/13/30 13/14/31
f 15/15/32 13/14/33 14/13/34 16/16/35
f 15/15/36 16/16/37 10/12/38 9/11/39
f 14/13/40 12/9/41 10/12/42 16/16/43
f 92/92/44 15/15/45 9/11/46 90/90/47
f 20/17/48 18/18/49 17/19/50 19/20/51
f 19/20/52 21/21/53 22/22/54 20/17/55
f 23/23/56 24/24/57 22/22/58 21/21/59
f 23/23/60 17/19/61 18/18/62 24/24/63
f 22/22/64 24/24/65 18/18/66 20/17/67
f 19/20/68 17/19/69 23/23/70 21/21/71
f 28/25/72 26/26/73 25/27/74 27/28/75
f 27/28/76 29/29/77 30/30/78 28/25/79
f 31/31/80 32/32/81 30/30/82 29/29/83
f 31/31/84 25/27/85 26/26/86 32/32/87
f 30/30/88 32/32/89 26/26/90 28/25/91
f 27/28/92 25/27/93 31/31/94 29/29/95
f 35/33/96 45/34/97 49/35/98 46/36/99
f 50/37/100 56/38/101 44/39/102
f 40/40/103 57/41/104 55/42/105 38/43/106
f 39/44/107 40/40/108 53/45/109
f 34/46/110 40/40/111 38/43/112 36/47/113
f 50/37/114 53/45/115 51/48/116
f 36/47/117 38/43/118 43/49/119 42/50/120
f 38/43/121 55/42/122 56/38/123 43/49/124
f 48/51/125 47/52/126 36/47/127 42/50/128
f 49/35/129 48/51/130 46/36/131
f 47/52/132 48/51/133 49/35/134
f 37/53/135 52/54/136 50/37/137 44/39/138
f 39/44/139 53/45/140 52/54/141 37/53/142
f 51/48/143 53/45/144 33/55/145 35/33/146
f 52/54/147 53/45/148 50/37/149
f 56/38/150 54/56/151 37/53/152 44/39/153
f 55/42/154 57/41/155 56/38/156
f 57/41/157 54/56/158 56/38/159
f 33/55/160 45/34/161 35/33/162
f 49/35/163 45/34/164 34/46/165
f 49/35/166 34/46/167 36/47/168 47/52/169
f 39/44/170 57/41/171 40/40/172
f 37/53/173 54/56/174 57/41/175 39/44/176
f 56/38/177 48/51/178 42/50/179 43/49/180
f 50/37/181 51/48/182 35/33/183 41/57/184
f 35/33/185 46/36/186 48/51/187 41/57/188
f 41/57/189 48/51/190 56/38/191 50/37/192
f 53/45/193 40/40/194 34/46/195 45/34/196 33/55/197
f 65/58/198 63/59/199 61/60/200 59/61/201
f 64/62/202 65/58/203 59/61/204 58/63/205
f 60/64/206 62/65/207 64/62/208 58/63/209
f 73/66/210 67/67/211 69/68/212 71/69/213
f 72/70/214 66/71/215 67/67/216 73/66/217
f 68/72/218 66/71/219 72/70/220 70/73/221
f 81/74/222 75/75/223 77/76/224 79/77/225
f 80/78/226 74/79/227 75/75/228 81/74/229
f 76/80/230 74/79/231 80/78/232 78/81/233
f 89/82/234 83/83/235 85/84/236 87/85/237
f 88/86/238 82/87/239 83/83/240 89/82/241
f 84/88/242 82/87/243 88/86/244 86/89/245
f 91/91/246 92/92/247 93/93/248
f 11/10/249 13/14/250 92/92/251 91/91/252
f 92/92/253 13/14/254 15/15/255
f 10/12/256 93/93/257 90/90/258 9/11/259
f 12/9/260 91/91/261 93/93/262 10/12/263
f 92/92/264 90/90/265 93/93/266
