# This file uses centimeters as units for non-parametric coordinates.

v -11.126282 0.000000 16.863770
v 11.126282 0.000000 16.863770
v -11.126282 0.000000 -16.863770
v 7.844666 0.000000 -16.863770
v 11.126282 0.000000 -13.231323
v 7.844666 1.000000 -16.863770
v 11.126282 1.000000 -13.231323
v -11.126282 1.000000 -16.863770
v -11.126282 1.000000 16.863770
v 11.126282 1.000000 16.863770
vt 0.309554 0.314849
vt 0.309554 0.351571
vt 0.333783 0.314849
vt 0.330210 0.351571
vt 0.333783 0.347616
vt 0.333783 0.347616
vt 0.330210 0.351571
vt 0.309554 0.351571
vt 0.309554 0.314849
vt 0.333783 0.314849
vt 0.333783 0.347616
vt 0.330210 0.351571
vt 0.309554 0.351571
vt 0.309554 0.314849
vt 0.333783 0.314849
vn 0.000000 1.000000 0.000000
vn 0.000000 1.000000 0.000000
vn 0.000000 1.000000 0.000000
vn 0.000000 1.000000 0.000000
vn 0.000000 1.000000 0.000000
vn 0.000000 1.000000 0.000000
vn 0.000000 1.000000 0.000000
vn 0.000000 -1.000000 0.000000
vn 0.000000 -1.000000 0.000000
vn 0.000000 -1.000000 0.000000
vn 0.000000 -1.000000 0.000000
vn 0.000000 -1.000000 0.000000
vn 0.000000 -1.000000 0.000000
vn 0.000000 -1.000000 0.000000
vn 0.742027 0.000000 -0.670370
vn 0.742027 0.000000 -0.670370
vn 0.742027 0.000000 -0.670370
vn 0.742027 0.000000 -0.670370
vn 0.000000 0.000000 -1.000000
vn 0.000000 0.000000 -1.000000
vn 0.000000 0.000000 -1.000000
vn 0.000000 0.000000 -1.000000
vn -1.000000 0.000000 0.000000
vn -1.000000 0.000000 0.000000
vn -1.000000 0.000000 0.000000
vn -1.000000 0.000000 0.000000
vn 0.000000 0.000000 1.000000
vn 0.000000 0.000000 1.000000
vn 0.000000 0.000000 1.000000
vn 0.000000 0.000000 1.000000
vn 1.000000 0.000000 0.000000
vn 1.000000 0.000000 0.000000
vn 1.000000 0.000000 0.000000
vn 1.000000 0.000000 0.000000
s off
f 8/13/1 9/14/2 6/12/3
f 7/11/4 6/12/5 9/14/6 10/15/7
f 5/6/8 2/10/9 1/9/10 4/7/11
f 3/8/12 4/7/13 1/9/14
f 5/5/15 4/4/16 6/12/17 7/11/18
f 4/4/19 3/2/20 8/13/21 6/12/22
f 3/2/23 1/1/24 9/14/25 8/13/26
f 1/1/27 2/3/28 10/15/29 9/14/30
f 2/3/31 5/5/32 7/11/33 10/15/34
