# This file uses centimeters as units for non-parametric coordinates.

v -2.789772 -0.453079 5.893440
v 2.925041 -0.451259 6.035393
v -2.792137 0.405162 5.978249
v 2.922676 0.406982 6.120201
v -0.415001 1.343553 -13.525307
v 1.513908 1.344166 -13.477394
v -0.407158 0.592765 -13.831963
v 1.521767 0.593381 -13.784065
v -0.839622 1.069365 3.600243
v 1.087929 1.069979 3.648109
v 1.092094 0.274468 3.490242
v -0.835442 0.273854 3.442360
v -3.185158 -0.654079 8.365868
v 3.188591 -0.652049 8.524193
v 3.185173 0.208563 8.651054
v -3.188591 0.206531 8.492760
v -0.603600 0.446545 0.016228
v 1.030540 0.447065 0.056831
v 1.027199 1.481767 0.177757
v -0.606941 1.481246 0.137169
v -1.102608 -0.110852 -10.698235
v 2.061241 -0.109845 -10.619637
v 2.058571 1.037270 -10.527168
v -1.105278 1.036261 -10.605736
v 0.800163 0.240083 13.831963
v 0.802132 1.097912 13.741997
v -1.063744 0.239489 13.785652
v -1.061775 1.097317 13.695717
v 2.493141 -0.367558 11.351982
v 2.497169 0.489215 11.179588
v -2.627159 0.487582 11.052284
v -2.631187 -0.369189 11.224693
v 0.058647 -0.135370 6.213692
v -0.067360 -0.073207 11.217949
v -0.270226 -1.202243 11.057396
v -0.136406 -1.481767 8.616844
v -0.180519 -1.283017 5.968910
v -0.001457 -0.525322 8.609871
vt 0.215675 0.108190
vt 0.215730 0.108164
vt 0.215800 0.108225
vt 0.215754 0.108248
vt 0.216054 0.108542
vt 0.216110 0.108514
vt 0.216115 0.108540
vt 0.216059 0.108568
vt 0.215755 0.108277
vt 0.215801 0.108254
vt 0.215732 0.108188
vt 0.215678 0.108214
vt 0.215724 0.108136
vt 0.215723 0.108112
vt 0.215644 0.108194
vt 0.215579 0.108205
vt 0.215578 0.108181
vt 0.215688 0.108060
vt 0.215690 0.108085
vt 0.215510 0.108169
vt 0.215508 0.108145
vt 0.215592 0.108146
vt 0.215967 0.108527
vt 0.216059 0.108481
vt 0.216060 0.108449
vt 0.215968 0.108495
vt 0.215618 0.108030
vt 0.215623 0.108011
vt 0.215523 0.107968
vt 0.215520 0.107989
vt 0.215471 0.108081
vt 0.215467 0.108100
vt 0.215466 0.108014
vt 0.215468 0.107993
vt 0.215541 0.108093
vt 0.215647 0.108157
vt 0.215597 0.108120
vt 0.215545 0.108058
vn -0.003245 0.980197 0.197998
vn -0.003245 0.980197 0.197998
vn -0.003245 0.980197 0.197998
vn -0.003245 0.980197 0.197998
vn 0.022867 0.452002 -0.891724
vn 0.022867 0.452002 -0.891724
vn 0.022867 0.452002 -0.891724
vn 0.022867 0.452002 -0.891724
vn 0.001566 -0.991377 -0.131030
vn 0.001566 -0.991377 -0.131030
vn 0.001566 -0.991377 -0.131030
vn 0.001566 -0.991377 -0.131030
vn 0.999831 0.008081 -0.016540
vn 0.999831 0.008081 -0.016540
vn 0.999831 0.008081 -0.016540
vn 0.999831 0.008081 -0.016540
vn -0.997750 0.011469 -0.066050
vn -0.997750 0.011469 -0.066050
vn -0.997750 0.011469 -0.066050
vn -0.997750 0.011469 -0.066050
vn 0.857293 0.119069 -0.500870
vn 0.857293 0.119069 -0.500870
vn 0.857293 0.119069 -0.500870
vn 0.857293 0.119069 -0.500870
vn 0.267782 -0.834531 -0.481508
vn 0.267782 -0.834531 -0.481508
vn 0.267782 -0.834531 -0.481508
vn -0.831375 0.121812 -0.542196
vn -0.831375 0.121812 -0.542197
vn -0.831375 0.121812 -0.542196
vn -0.831375 0.121812 -0.542197
vn 0.977109 0.046238 -0.207654
vn 0.977109 0.046238 -0.207654
vn 0.977109 0.046238 -0.207654
vn 0.977109 0.046238 -0.207654
vn -0.964599 0.050177 -0.258904
vn -0.964599 0.050177 -0.258904
vn -0.964599 0.050177 -0.258904
vn -0.964599 0.050177 -0.258904
vn 0.260050 -0.948518 -0.180798
vn 0.260050 -0.948518 -0.180798
vn 0.260050 -0.948518 -0.180798
vn 0.260050 -0.948518 -0.180798
vn -0.000973 -0.999575 -0.029127
vn -0.000973 -0.999575 -0.029127
vn -0.000973 -0.999575 -0.029127
vn -0.000973 -0.999575 -0.029127
vn 0.995329 -0.014470 0.095445
vn 0.995330 -0.014470 0.095445
vn 0.995330 -0.014470 0.095445
vn 0.995329 -0.014470 0.095445
vn 0.000710 0.999211 0.039712
vn 0.000710 0.999211 0.039712
vn 0.000710 0.999211 0.039712
vn 0.000710 0.999211 0.039712
vn -0.998879 -0.011088 0.046023
vn -0.998879 -0.011088 0.046023
vn -0.998879 -0.011088 0.046023
vn -0.998879 -0.011088 0.046023
vn 0.005723 -0.955090 -0.296261
vn 0.005723 -0.955090 -0.296261
vn 0.005723 -0.955090 -0.296261
vn 0.005723 -0.955090 -0.296261
vn 0.984961 0.054245 -0.164041
vn 0.984961 0.054245 -0.164041
vn 0.984961 0.054245 -0.164041
vn 0.984961 0.054245 -0.164041
vn -0.002900 0.982870 0.184277
vn -0.002900 0.982870 0.184277
vn -0.002900 0.982870 0.184277
vn -0.002900 0.982870 0.184277
vn -0.975436 0.057570 -0.212627
vn -0.975436 0.057570 -0.212627
vn -0.975436 0.057570 -0.212627
vn -0.975436 0.057570 -0.212627
vn 0.823586 0.037229 0.565968
vn 0.823586 0.037229 0.565968
vn 0.823586 0.037229 0.565968
vn 0.823586 0.037229 0.565968
vn -0.850473 0.040069 0.524490
vn -0.850473 0.040069 0.524490
vn -0.850473 0.040069 0.524490
vn -0.850473 0.040069 0.524490
vn 0.219625 -0.927062 0.303843
vn 0.219625 -0.927062 0.303843
vn 0.219625 -0.927062 0.303843
vn 0.978938 -0.011483 0.203836
vn 0.978938 -0.011483 0.203836
vn 0.978938 -0.011483 0.203836
vn 0.978938 -0.011483 0.203836
vn -0.987867 -0.008147 0.155085
vn -0.987867 -0.008147 0.155085
vn -0.987867 -0.008147 0.155085
vn -0.987868 -0.008147 0.155085
vn 0.251496 -0.966106 0.058217
vn 0.251496 -0.966106 0.058217
vn 0.251496 -0.966106 0.058217
vn 0.251496 -0.966106 0.058217
vn -0.178710 0.884069 0.431839
vn -0.178710 0.884069 0.431839
vn -0.178710 0.884069 0.431839
vn -0.010763 0.869525 0.493772
vn -0.010763 0.869525 0.493772
vn -0.010763 0.869525 0.493772
vn 0.160399 0.883426 0.440263
vn 0.160399 0.883426 0.440263
vn 0.160399 0.883426 0.440263
vn 0.205194 0.952464 0.225182
vn 0.205194 0.952464 0.225182
vn 0.205194 0.952464 0.225182
vn 0.205194 0.952465 0.225182
vn 0.212205 0.939798 -0.267858
vn 0.212205 0.939798 -0.267858
vn 0.212205 0.939798 -0.267858
vn 0.010238 0.937086 -0.348949
vn 0.010238 0.937086 -0.348949
vn 0.010238 0.937086 -0.348949
vn -0.195489 0.940491 -0.277958
vn -0.195489 0.940491 -0.277958
vn -0.195489 0.940491 -0.277958
vn -0.212783 0.953292 0.214378
vn -0.212783 0.953292 0.214378
vn -0.212783 0.953292 0.214378
vn -0.212783 0.953292 0.214378
vn -0.270863 -0.910899 0.311281
vn -0.270863 -0.910899 0.311281
vn -0.270863 -0.910899 0.311281
vn -0.011259 -0.920186 0.391321
vn -0.011259 -0.920186 0.391321
vn -0.011259 -0.920186 0.391320
vn -0.287321 -0.957042 0.038966
vn -0.287321 -0.957042 0.038966
vn -0.287321 -0.957042 0.038966
vn -0.287320 -0.957042 0.038966
vn -0.285741 -0.939641 -0.188219
vn -0.285741 -0.939641 -0.188219
vn -0.285741 -0.939641 -0.188219
vn -0.285741 -0.939641 -0.188219
vn -0.286707 -0.809283 -0.512699
vn -0.286707 -0.809283 -0.512699
vn -0.286707 -0.809283 -0.512699
vn 0.013363 -0.804196 -0.594213
vn 0.013363 -0.804196 -0.594213
vn 0.013363 -0.804196 -0.594213
vn 0.219325 0.972868 -0.073653
vn 0.219325 0.972868 -0.073653
vn 0.219325 0.972868 -0.073653
vn 0.219326 0.972868 -0.073653
vn -0.212173 0.973578 -0.084434
vn -0.212173 0.973578 -0.084434
vn -0.212173 0.973578 -0.084434
vn -0.212173 0.973578 -0.084434
vn -0.024730 0.023373 0.999421
vn -0.024730 0.023373 0.999421
vn -0.024730 0.023373 0.999421
vn -0.024730 0.023373 0.999421
s off
f 9/1/1 10/2/2 19/3/3 20/4/4
f 5/5/5 6/6/6 8/7/7 7/8/8
f 17/9/9 18/10/10 11/11/11 12/12/12
f 10/2/13 11/11/14 18/10/15 19/3/16
f 20/4/17 17/9/18 12/12/19 9/1/20
f 2/13/21 11/11/22 10/2/23 4/14/24
f 37/15/25 11/11/26 2/13/27
f 9/1/28 12/12/29 1/16/30 3/17/31
f 2/13/32 4/14/33 15/18/34 14/19/35
f 3/17/36 1/16/37 13/20/38 16/21/39
f 36/22/40 37/15/41 2/13/42 14/19/43
f 21/23/44 22/24/45 18/10/46 17/9/47
f 19/3/48 18/10/49 22/24/50 23/25/51
f 20/4/52 19/3/53 23/25/54 24/26/55
f 24/26/56 21/23/57 17/9/58 20/4/59
f 7/8/60 8/7/61 22/24/62 21/23/63
f 23/25/64 22/24/65 8/7/66 6/6/67
f 24/26/68 23/25/69 6/6/70 5/5/71
f 7/8/72 21/23/73 24/26/74 5/5/75
f 29/27/76 30/28/77 26/29/78 25/30/79
f 31/31/80 32/32/81 27/33/82 28/34/83
f 25/30/84 35/35/85 29/27/86
f 14/19/87 15/18/88 30/28/89 29/27/90
f 16/21/91 13/20/92 32/32/93 31/31/94
f 35/35/95 36/22/96 14/19/97 29/27/98
f 4/14/99 10/2/100 33/36/101
f 10/2/102 9/1/103 33/36/104
f 9/1/105 3/17/106 33/36/107
f 33/36/108 3/17/109 16/21/110 38/37/111
f 31/31/112 28/34/113 34/38/114
f 28/34/115 26/29/116 34/38/117
f 26/29/118 30/28/119 34/38/120
f 33/36/121 38/37/122 15/18/123 4/14/124
f 32/32/125 35/35/126 27/33/127
f 27/33/128 35/35/129 25/30/130
f 13/20/131 36/22/132 35/35/133 32/32/134
f 1/16/135 37/15/136 36/22/137 13/20/138
f 12/12/139 37/15/140 1/16/141
f 12/12/142 11/11/143 37/15/144
f 16/21/145 31/31/146 34/38/147 38/37/148
f 30/28/149 15/18/150 38/37/151 34/38/152
f 27/33/153 25/30/154 26/29/155 28/34/156
