# This file uses centimeters as units for non-parametric coordinates.

v -11.126282 0.000000 16.863739
v 11.126282 0.000000 16.863739
v -11.890228 0.000000 -15.957573
v 11.126282 0.000000 -16.863770
v 9.604053 0.481451 -16.863770
v -11.126282 0.481451 13.882599
v 7.527336 0.000000 -16.651291
v -10.899940 0.000000 11.761429
v 9.587555 1.540808 -16.873993
v 11.259922 1.000000 -16.774673
v -11.142776 1.540808 13.872375
v -10.992638 1.000000 16.952835
v 7.377686 1.000000 -16.750343
v -11.049583 1.000000 11.662376
v 11.126282 1.000000 16.863739
v -11.890228 1.000000 -15.957573
vt 0.275482 0.353642
vt 0.275482 0.390364
vt 0.299710 0.353642
vt 0.299710 0.390364
vt 0.298053 0.390364
vt 0.275482 0.356888
vt 0.296637 0.390364
vt 0.275482 0.360165
vt 0.299710 0.390364
vt 0.298053 0.390364
vt 0.275482 0.356888
vt 0.275482 0.353642
vt 0.296637 0.390364
vt 0.275482 0.360165
vt 0.299710 0.353642
vt 0.275482 0.390364
vt 0.299710 0.390364
vt 0.298053 0.390364
vt 0.275482 0.356888
vt 0.275482 0.353642
vt 0.296637 0.390364
vt 0.275482 0.360165
vt 0.299710 0.353642
vt 0.275482 0.390364
vn 0.260557 0.949703 0.173706
vn 0.260557 0.949703 0.173706
vn 0.260557 0.949703 0.173706
vn 0.260557 0.949703 0.173706
vn -0.289946 0.937603 -0.191916
vn -0.289946 0.937603 -0.191916
vn -0.289946 0.937603 -0.191916
vn -0.289946 0.937603 -0.191916
vn 0.000000 1.000000 0.000000
vn 0.000000 1.000000 0.000000
vn 0.000000 1.000000 0.000000
vn 0.000000 1.000000 0.000000
vn 0.000000 1.000000 0.000000
vn 0.000000 1.000000 0.000000
vn -0.260558 -0.949703 -0.173706
vn -0.260558 -0.949703 -0.173706
vn -0.260558 -0.949703 -0.173706
vn -0.260558 -0.949703 -0.173706
vn 0.289947 -0.937603 0.191917
vn 0.289947 -0.937603 0.191917
vn 0.289947 -0.937603 0.191917
vn 0.289947 -0.937603 0.191917
vn 0.000000 -1.000000 0.000000
vn 0.000000 -1.000000 0.000000
vn 0.000000 -1.000000 0.000000
vn 0.000000 -1.000000 0.000000
vn 0.000000 -1.000000 0.000000
vn 0.000000 -1.000000 0.000000
vn 0.042504 0.035823 -0.998454
vn 0.042504 0.035823 -0.998454
vn 0.042504 0.035823 -0.998454
vn 0.042504 0.035823 -0.998454
vn -0.997879 0.055462 0.034070
vn -0.997879 0.055462 0.034070
vn -0.997879 0.055462 0.034070
vn -0.997879 0.055462 0.034070
vn -0.064276 -0.058049 -0.996242
vn -0.064276 -0.058049 -0.996242
vn -0.064276 -0.058049 -0.996242
vn -0.064276 -0.058049 -0.996242
vn -0.995086 -0.083132 -0.053792
vn -0.995086 -0.083132 -0.053792
vn -0.995086 -0.083132 -0.053792
vn -0.995086 -0.083132 -0.053792
vn 0.002006 -0.044638 0.999001
vn 0.002006 -0.044638 0.999001
vn 0.002006 -0.044638 0.999001
vn 0.002006 -0.044638 0.999001
vn 0.997767 -0.066760 0.001979
vn 0.997767 -0.066760 0.001979
vn 0.997767 -0.066760 0.001979
vn 0.997767 -0.066760 0.001979
vn -0.038344 -0.052291 -0.997896
vn -0.038344 -0.052291 -0.997896
vn -0.038344 -0.052291 -0.997896
vn -0.038344 -0.052291 -0.997896
vn -0.996790 -0.072948 0.032980
vn -0.996790 -0.072948 0.032980
vn -0.996790 -0.072948 0.032980
vn -0.996790 -0.072948 0.032980
s off
f 10/17/1 9/18/2 11/19/3 12/20/4
f 11/19/5 9/18/6 13/21/7 14/22/8
f 10/17/9 12/20/10 15/23/11
f 14/22/12 13/21/13 16/24/14
f 4/9/15 1/12/16 6/11/17 5/10/18
f 6/11/19 8/14/20 7/13/21 5/10/22
f 4/9/23 2/15/24 1/12/25
f 8/14/26 3/16/27 7/13/28
f 4/4/29 5/5/30 9/18/31 10/17/32
f 6/6/33 1/1/34 12/20/35 11/19/36
f 5/5/37 7/7/38 13/21/39 9/18/40
f 8/8/41 6/6/42 11/19/43 14/22/44
f 1/1/45 2/3/46 15/23/47 12/20/48
f 2/3/49 4/4/50 10/17/51 15/23/52
f 7/7/53 3/2/54 16/24/55 13/21/56
f 3/2/57 8/8/58 14/22/59 16/24/60
