# This file uses centimeters as units for non-parametric coordinates.

v 9.722529 0.000000 0.000000
v -9.722538 0.000000 0.000000
v 9.722528 4.422289 4.422280
v -9.722538 4.422289 4.422279
v 6.496323 25.903088 0.000000
v 9.722529 23.632233 0.000000
v 3.889593 29.465179 0.000000
v 9.722528 23.632233 4.422280
v 6.496323 25.903088 4.422280
v 3.889593 29.465179 4.422280
v -6.496332 25.903088 0.000000
v -3.889601 29.465179 0.000000
v -9.722538 23.632233 0.000000
v -9.722538 23.632233 4.422279
v -3.889601 29.465179 4.422280
v -6.496332 25.903088 4.422280
v 7.778217 0.000000 19.706337
v 9.722528 0.000000 17.762020
v 9.722528 4.422289 17.762020
v 7.778217 4.422289 19.706337
v -9.722538 0.000000 17.762020
v -7.778226 0.000000 19.706337
v -9.722538 4.422289 17.762020
v -7.778226 4.422289 19.706337
v 5.984507 4.422289 4.422279
v -6.055483 4.422289 4.422279
v 5.283169 6.772429 4.422279
v -5.212198 6.772429 4.422279
v 5.283169 6.772429 18.042503
v -5.212197 6.772429 18.042503
v 5.984507 4.422289 18.469992
v -6.055484 4.422289 18.469992
v 2.415994 6.772429 4.422279
v -2.415994 6.772429 4.422279
v 2.415995 6.772429 16.491320
v -2.415994 6.772429 16.491320
v 2.415987 26.134327 4.422279
v -2.415987 26.134327 4.422279
v -2.415987 25.320421 8.136937
v 2.415987 25.320421 8.136937
v -2.415987 13.644232 11.497271
v 2.415987 13.644232 11.497271
v 2.415987 17.112122 8.572009
v -2.415987 17.112122 8.572009
v 2.415987 19.773434 8.387787
v -2.415987 19.773434 8.387787
v 2.415987 22.731937 9.676669
v -2.415987 22.731937 9.676669
v 2.415985 12.428192 15.682025
v 2.415991 8.883089 17.314680
v -2.415987 12.428192 15.682024
v -2.415991 8.883089 17.314680
vt 0.173180 0.108997
vt 0.173282 0.109031
vt 0.173160 0.109128
vt 0.173057 0.109093
vt 0.173688 0.109673
vt 0.173685 0.109767
vt 0.173466 0.109987
vt 0.173466 0.109890
vt 0.173085 0.109780
vt 0.173392 0.109901
vt 0.173392 0.109997
vt 0.172990 0.109835
vt 0.172968 0.109306
vt 0.173070 0.109344
vt 0.173370 0.109097
vt 0.173270 0.109063
vt 0.173277 0.109578
vt 0.173372 0.109521
vt 0.173667 0.109725
vt 0.173669 0.109631
vt 0.173018 0.109211
vt 0.173121 0.109247
vt 0.173221 0.109049
vt 0.173322 0.109083
vt 0.173151 0.125782
vt 0.173307 0.125643
vt 0.173632 0.125763
vt 0.173481 0.125909
vt 0.173648 0.125805
vt 0.173476 0.125973
vt 0.173320 0.125683
vt 0.173142 0.125843
vt 0.173185 0.125304
vt 0.173260 0.125243
vt 0.173347 0.125317
vt 0.173273 0.125379
vt 0.173195 0.125743
vt 0.173395 0.125545
vt 0.173323 0.125609
vt 0.173342 0.125535
vt 0.173414 0.125472
vt 0.173323 0.125457
vt 0.173396 0.125394
vt 0.173500 0.125859
vt 0.173349 0.125690
vt 0.173267 0.125679
vt 0.173491 0.125830
vt 0.173569 0.125793
vt 0.173510 0.125700
vt 0.173420 0.125625
vt 0.173440 0.125766
vt 0.173560 0.125763
vn 0.000000 1.000000 0.000000
vn 0.000000 1.000000 0.000000
vn 0.000000 1.000000 0.000000
vn 0.000000 1.000000 0.000000
vn -0.000000 0.000000 1.000000
vn -0.000000 0.000000 1.000000
vn -0.000000 0.000000 1.000000
vn -0.000000 0.000000 1.000000
vn 1.000000 0.000000 0.000000
vn 1.000000 0.000000 0.000000
vn 1.000000 0.000000 0.000000
vn 1.000000 0.000000 0.000000
vn 1.000000 0.000000 0.000000
vn 1.000000 0.000000 0.000000
vn 1.000000 0.000000 0.000000
vn 1.000000 0.000000 0.000000
vn -1.000000 0.000000 -0.000000
vn -1.000000 0.000000 -0.000000
vn -1.000000 0.000000 -0.000000
vn -1.000000 0.000000 -0.000000
vn -1.000000 0.000000 0.000000
vn -1.000000 0.000000 0.000000
vn -1.000000 0.000000 0.000000
vn -1.000000 0.000000 0.000000
vn 0.575589 0.817739 0.000000
vn 0.575589 0.817739 0.000000
vn 0.575589 0.817739 0.000000
vn 0.575589 0.817739 0.000000
vn 0.806996 0.590558 0.000000
vn 0.806996 0.590558 0.000000
vn 0.806996 0.590558 0.000000
vn 0.806996 0.590558 0.000000
vn -0.806996 0.590558 -0.000000
vn -0.806996 0.590558 -0.000000
vn -0.806996 0.590558 -0.000000
vn -0.806996 0.590558 -0.000000
vn -0.575589 0.817739 -0.000000
vn -0.575589 0.817739 -0.000000
vn -0.575589 0.817739 -0.000000
vn -0.575589 0.817739 -0.000000
vn 0.000000 0.000000 -1.000000
vn 0.000000 0.000000 -1.000000
vn 0.000000 0.000000 -1.000000
vn 0.000000 0.000000 -1.000000
vn -0.000000 0.000000 1.000000
vn -0.000000 0.000000 1.000000
vn -0.000000 0.000000 1.000000
vn -0.000000 0.000000 1.000000
vn -0.000000 -0.000000 1.000000
vn -0.000000 -0.000000 1.000000
vn -0.000000 -0.000000 1.000000
vn -0.000000 -0.000000 1.000000
vn -0.000000 0.000000 1.000000
vn -0.000000 0.000000 1.000000
vn -0.000000 0.000000 1.000000
vn -0.000000 0.000000 1.000000
vn 0.000000 1.000000 -0.000000
vn 0.000000 1.000000 -0.000000
vn 0.000000 1.000000 -0.000000
vn 0.000000 1.000000 -0.000000
vn 0.000000 -1.000000 0.000000
vn 0.000000 -1.000000 0.000000
vn 0.000000 -1.000000 0.000000
vn 0.000000 -1.000000 0.000000
vn 0.707108 0.000000 0.707106
vn 0.707108 0.000000 0.707106
vn 0.707108 0.000000 0.707106
vn 0.707108 0.000000 0.707106
vn -0.707108 0.000000 0.707106
vn -0.707108 0.000000 0.707106
vn -0.707108 0.000000 0.707106
vn -0.707108 0.000000 0.707106
vn 0.000000 0.000000 -1.000000
vn 0.000000 0.000000 -1.000000
vn 0.000000 0.000000 -1.000000
vn 0.000000 0.000000 -1.000000
vn 0.000000 0.000000 -1.000000
vn 0.000000 0.000000 -1.000000
vn 0.000000 0.000000 -1.000000
vn 0.000000 0.000000 -1.000000
vn 0.000000 1.000000 0.000000
vn 0.000000 1.000000 0.000000
vn 0.000000 1.000000 0.000000
vn 0.000000 1.000000 0.000000
vn 0.000000 -1.000000 0.000000
vn 0.000000 -1.000000 0.000000
vn 0.000000 -1.000000 0.000000
vn 0.000000 -1.000000 0.000000
vn 0.000000 1.000000 0.000000
vn 0.000000 1.000000 0.000000
vn 0.000000 1.000000 0.000000
vn 0.000000 1.000000 0.000000
vn -0.000000 0.178962 0.983856
vn -0.000000 0.178962 0.983856
vn -0.000000 0.178962 0.983856
vn -0.000000 0.178962 0.983856
vn -0.941240 0.337739 -0.000000
vn -0.941240 0.337739 -0.000000
vn -0.941240 0.337739 -0.000000
vn -0.941240 0.337739 -0.000000
vn 0.958241 0.285962 0.000000
vn 0.958241 0.285962 0.000000
vn 0.958241 0.285962 0.000000
vn 0.958241 0.285962 0.000000
vn -0.000000 0.976827 0.214029
vn -0.000000 0.976827 0.214029
vn -0.000000 0.976827 0.214029
vn -0.000000 0.976827 0.214029
vn -0.000000 -0.363423 0.931624
vn -0.000000 -0.363423 0.931624
vn -0.000000 -0.363423 0.931624
vn -0.000000 -0.363423 0.931624
vn -1.000000 0.000000 0.000001
vn -1.000000 0.000000 0.000001
vn -1.000000 0.000000 0.000001
vn -0.000000 0.644772 0.764375
vn -0.000000 0.644772 0.764375
vn -0.000000 0.644772 0.764375
vn -0.000000 0.644772 0.764375
vn 1.000000 0.000000 0.000001
vn 1.000000 0.000000 0.000001
vn 1.000000 0.000000 0.000001
vn -0.000000 0.960278 0.279045
vn -0.000000 0.960278 0.279045
vn -0.000000 0.960278 0.279045
vn -0.000000 0.960278 0.279045
vn 1.000000 0.000000 0.000001
vn 1.000000 0.000000 0.000001
vn 1.000000 0.000000 0.000001
vn 1.000000 0.000000 0.000001
vn -0.000000 0.069057 0.997613
vn -0.000000 0.069057 0.997613
vn -0.000000 0.069057 0.997613
vn -0.000000 0.069057 0.997613
vn -1.000000 0.000000 0.000001
vn -1.000000 0.000000 0.000001
vn -1.000000 0.000000 0.000001
vn -1.000000 0.000000 0.000001
vn 1.000000 0.000000 -0.000000
vn 1.000000 0.000000 -0.000000
vn 1.000000 0.000000 -0.000000
vn -0.000000 -0.399398 0.916778
vn -0.000000 -0.399398 0.916778
vn -0.000000 -0.399398 0.916778
vn -0.000000 -0.399398 0.916778
vn -1.000000 0.000000 -0.000000
vn -1.000000 0.000000 -0.000000
vn -1.000000 0.000000 -0.000000
vn 1.000000 0.000000 0.000000
vn 1.000000 0.000000 0.000000
vn 1.000000 0.000000 0.000000
vn -0.000000 0.511231 0.859443
vn -0.000000 0.511231 0.859443
vn -0.000000 0.511231 0.859443
vn -0.000000 0.511231 0.859443
vn -1.000000 0.000000 0.000000
vn -1.000000 0.000000 0.000000
vn -1.000000 0.000000 0.000000
vn 1.000000 0.000001 0.000000
vn 1.000000 0.000001 0.000000
vn 1.000000 0.000001 0.000000
vn -1.000000 0.000001 0.000000
vn -1.000000 0.000001 0.000000
vn -1.000000 0.000001 0.000000
vn -1.000000 0.000001 0.000000
vn -0.000000 0.418309 0.908305
vn -0.000000 0.418309 0.908305
vn -0.000000 0.418309 0.908305
vn -0.000000 0.418309 0.908305
vn 1.000000 0.000001 0.000000
vn 1.000000 0.000001 0.000000
vn 1.000000 0.000001 0.000000
vn 1.000000 0.000001 0.000000
vn -1.000000 0.000001 0.000000
vn -1.000000 0.000001 0.000000
vn -1.000000 0.000001 0.000000
s off
f 12/1/1 15/2/2 10/3/3 7/4/4
f 24/5/5 22/6/6 17/7/7 20/8/8
f 3/9/9 19/10/10 18/11/11 1/12/12
f 3/9/13 1/12/14 6/13/15 8/14/16
f 14/15/17 13/16/18 2/17/19 4/18/20
f 4/18/21 2/17/22 21/19/23 23/20/24
f 6/13/25 5/21/26 9/22/27 8/14/28
f 5/21/29 7/4/30 10/3/31 9/22/32
f 12/1/33 11/23/34 16/24/35 15/2/36
f 11/23/37 13/16/38 14/15/39 16/24/40
f 11/23/41 5/21/42 6/13/43 13/16/44
f 14/15/45 4/18/46 3/9/47 8/14/48
f 16/24/49 14/15/50 8/14/51 9/22/52
f 16/24/53 9/22/54 10/3/55 15/2/56
f 23/20/57 19/10/58 3/9/59 4/18/60
f 22/6/61 21/19/62 18/11/63 17/7/64
f 17/7/65 18/11/66 19/10/67 20/8/68
f 21/19/69 22/6/70 24/5/71 23/20/72
f 13/16/73 6/13/74 1/12/75 2/17/76
f 11/23/77 12/1/78 7/4/79 5/21/80
f 24/5/81 20/8/82 19/10/83 23/20/84
f 18/11/85 21/19/86 2/17/87 1/12/88
f 27/25/89 28/26/90 30/27/91 29/28/92
f 29/28/93 30/27/94 32/29/95 31/30/96
f 26/31/97 32/29/98 30/27/99 28/26/100
f 31/30/101 25/32/102 27/25/103 29/28/104
f 37/33/105 38/34/106 39/35/107 40/36/108
f 50/47/109 52/52/110 36/48/111 35/44/112
f 34/46/113 41/50/114 44/38/115
f 41/50/116 42/45/117 43/39/118 44/38/119
f 42/45/120 33/37/121 43/39/122
f 51/49/123 49/51/124 42/45/125 41/50/126
f 43/39/127 33/37/128 37/33/129 45/40/130
f 44/38/131 43/39/132 45/40/133 46/41/134
f 34/46/135 44/38/136 46/41/137 38/34/138
f 45/40/139 37/33/140 47/42/141
f 46/41/142 45/40/143 47/42/144 48/43/145
f 38/34/146 46/41/147 48/43/148
f 47/42/149 37/33/150 40/36/151
f 48/43/152 47/42/153 40/36/154 39/35/155
f 38/34/156 48/43/157 39/35/158
f 49/51/159 33/37/160 42/45/161
f 52/52/162 51/49/163 34/46/164 36/48/165
f 50/47/166 49/51/167 51/49/168 52/52/169
f 49/51/170 50/47/171 35/44/172 33/37/173
f 34/46/174 51/49/175 41/50/176
