# This file uses centimeters as units for non-parametric coordinates.

v -1.910355 -0.822403 9.143799
v 1.910233 -0.822403 9.143799
v -1.910355 1.299076 9.143799
v 1.910233 1.299076 9.143799
v -3.198868 2.014507 -5.916260
v 3.198715 2.014507 -5.916260
v -3.198868 -1.537834 -5.916260
v 3.198715 -1.537834 -5.916260
v -1.551987 -0.623383 18.607422
v 1.551865 -0.623383 18.607422
v -1.551987 1.100060 18.607422
v 1.551865 1.100060 18.607422
v -1.551987 1.100060 9.143799
v 1.551865 1.100060 9.143799
v -1.551987 -0.623383 9.143799
v 1.551865 -0.623383 9.143799
v 10.398788 -5.126438 22.363770
v 0.000015 -5.126438 18.056396
v -10.398819 -5.126438 22.363770
v -14.706131 -5.126438 32.762573
v -10.398819 -5.126438 43.161377
v 0.000015 -5.126438 47.468628
v 10.398788 -5.126438 43.161377
v 14.706131 -5.126438 32.762573
v 10.858688 2.042542 21.903931
v 0.000015 2.042542 17.406006
v -10.858658 2.042542 21.903931
v -15.356522 2.042542 32.762573
v -10.858658 2.042542 43.621216
v 0.000015 2.042542 48.119019
v 10.858688 2.042542 43.621216
v 15.356522 2.042542 32.762573
v 0.000015 -5.126438 32.762573
v 9.598526 2.525688 23.163940
v 0.000015 2.525688 19.188110
v -9.598526 2.525688 23.163940
v -13.574448 2.525688 32.762573
v -9.598526 2.525688 42.361084
v 0.000015 2.525688 46.336914
v 9.598526 2.525688 42.361084
v 13.574356 2.525688 32.762573
v 8.423355 -0.953732 24.339233
v 0.000015 -0.953732 20.849976
v 0.000015 -0.953732 32.762573
v -8.423355 -0.953732 24.339233
v -11.912430 -0.953732 32.762573
v -8.423355 -0.953732 41.185791
v 0.000015 -0.953732 44.674927
v 8.423355 -0.953732 41.185791
v 11.912399 -0.953732 32.762573
vt 0.016230 0.278102
vt 0.016230 0.278102
vt 0.016230 0.278102
vt 0.016230 0.278102
vt 0.016230 0.278102
vt 0.016230 0.278102
vt 0.016230 0.278102
vt 0.016230 0.278102
vt 0.016230 0.278102
vt 0.016230 0.278102
vt 0.016230 0.278102
vt 0.016230 0.278102
vt 0.016230 0.278102
vt 0.016230 0.278102
vt 0.161614 0.149886
vt 0.161614 0.149886
vt 0.161614 0.149886
vt 0.161614 0.149886
vt 0.161614 0.149886
vt 0.161614 0.149886
vt 0.161614 0.149886
vt 0.161614 0.149886
vt 0.161614 0.149886
vt 0.161614 0.149886
vt 0.161614 0.149886
vt 0.161614 0.149886
vt 0.161614 0.149886
vt 0.161614 0.149886
vt 0.161614 0.147783
vt 0.161614 0.147783
vt 0.161614 0.147783
vt 0.161614 0.147783
vt 0.161614 0.147783
vt 0.161614 0.147783
vt 0.161614 0.147783
vt 0.161614 0.147783
vt 0.161614 0.147783
vt 0.161614 0.147783
vt 0.161614 0.147783
vt 0.161614 0.147783
vt 0.161614 0.147783
vt 0.161614 0.147783
vt 0.161614 0.147783
vt 0.161614 0.147783
vt 0.161614 0.147783
vt 0.161614 0.147783
vt 0.161614 0.147783
vt 0.161614 0.147783
vt 0.161614 0.147783
vt 0.161614 0.147783
vt 0.161614 0.147783
vt 0.161614 0.147783
vt 0.161614 0.147783
vt 0.161614 0.147783
vt 0.161614 0.147783
vt 0.161614 0.126106
vt 0.161614 0.126106
vt 0.161614 0.126106
vt 0.161614 0.126106
vt 0.161614 0.126106
vt 0.161614 0.126106
vt 0.161614 0.126106
vt 0.161614 0.126106
vt 0.161614 0.126106
vt 0.161614 0.147783
vt 0.161614 0.147783
vt 0.161614 0.147783
vt 0.161614 0.147783
vt 0.161614 0.147783
vt 0.161614 0.147783
vt 0.161614 0.147783
vt 0.161614 0.147783
vt 0.161614 0.147783
vt 0.161614 0.147783
vt 0.161614 0.147783
vt 0.161614 0.147783
vt 0.161614 0.147783
vt 0.161614 0.147783
vt 0.161614 0.147783
vt 0.161614 0.147783
vt 0.161614 0.126107
vt 0.161614 0.126107
vt 0.161614 0.126107
vt 0.161614 0.126107
vt 0.161614 0.126107
vt 0.161614 0.126107
vt 0.161614 0.126107
vt 0.161614 0.126107
vn 0.000000 0.000000 1.000000
vn 0.000000 0.000000 1.000000
vn 0.000000 0.000000 1.000000
vn 0.000000 0.000000 1.000000
vn 0.000000 0.998874 0.047452
vn 0.000000 0.998874 0.047452
vn 0.000000 0.998874 0.047452
vn 0.000000 0.998874 0.047452
vn 0.000000 0.000000 -1.000000
vn 0.000000 0.000000 -1.000000
vn 0.000000 0.000000 -1.000000
vn 0.000000 0.000000 -1.000000
vn 0.000000 -0.998874 0.047452
vn 0.000000 -0.998874 0.047452
vn 0.000000 -0.998874 0.047452
vn 0.000000 -0.998874 0.047452
vn 0.996360 0.000000 0.085245
vn 0.996360 0.000000 0.085245
vn 0.996360 0.000000 0.085245
vn 0.996360 0.000000 0.085245
vn -0.996360 0.000000 0.085247
vn -0.996360 0.000000 0.085247
vn -0.996360 0.000000 0.085247
vn -0.996360 0.000000 0.085247
vn 0.000000 1.000000 0.000000
vn 0.000000 1.000000 0.000000
vn 0.000000 1.000000 0.000000
vn 0.000000 1.000000 0.000000
vn 0.000000 -1.000000 0.000000
vn 0.000000 -1.000000 0.000000
vn 0.000000 -1.000000 0.000000
vn 0.000000 -1.000000 0.000000
vn 1.000000 0.000000 0.000000
vn 1.000000 0.000000 0.000000
vn 1.000000 0.000000 0.000000
vn 1.000000 0.000000 0.000000
vn -1.000000 0.000000 0.000000
vn -1.000000 0.000000 0.000000
vn -1.000000 0.000000 0.000000
vn -1.000000 0.000000 0.000000
vn 0.381353 -0.083521 -0.920649
vn 0.381353 -0.083521 -0.920649
vn 0.381353 -0.083521 -0.920649
vn 0.381353 -0.083521 -0.920649
vn -0.381352 -0.083519 -0.920649
vn -0.381352 -0.083519 -0.920649
vn -0.381352 -0.083519 -0.920649
vn -0.381352 -0.083519 -0.920649
vn -0.920651 -0.083519 -0.381348
vn -0.920651 -0.083519 -0.381348
vn -0.920651 -0.083519 -0.381348
vn -0.920651 -0.083519 -0.381348
vn -0.920651 -0.083519 0.381348
vn -0.920651 -0.083519 0.381348
vn -0.920651 -0.083519 0.381348
vn -0.920651 -0.083519 0.381348
vn -0.381343 -0.083519 0.920653
vn -0.381343 -0.083519 0.920653
vn -0.381343 -0.083519 0.920653
vn -0.381343 -0.083519 0.920653
vn 0.381344 -0.083521 0.920653
vn 0.381344 -0.083521 0.920653
vn 0.381344 -0.083521 0.920653
vn 0.381344 -0.083521 0.920653
vn 0.920651 -0.083523 0.381348
vn 0.920651 -0.083523 0.381348
vn 0.920651 -0.083523 0.381348
vn 0.920651 -0.083523 0.381348
vn 0.920651 -0.083523 -0.381348
vn 0.920651 -0.083523 -0.381348
vn 0.920651 -0.083523 -0.381348
vn 0.920651 -0.083523 -0.381348
vn 0.000000 -1.000000 0.000000
vn 0.000000 -1.000000 0.000000
vn 0.000000 -1.000000 0.000000
vn 0.000000 -1.000000 0.000000
vn 0.000000 -1.000000 0.000000
vn 0.000000 -1.000000 0.000000
vn 0.000000 -1.000000 0.000000
vn 0.000000 -1.000000 0.000000
vn 0.000000 -1.000000 0.000000
vn 0.000000 -1.000000 0.000000
vn 0.000000 -1.000000 0.000000
vn 0.000000 -1.000000 0.000000
vn 0.000000 -1.000000 0.000000
vn 0.000000 -1.000000 0.000000
vn 0.000000 -1.000000 0.000000
vn 0.000000 -1.000000 0.000000
vn 0.000000 -1.000000 0.000000
vn 0.000000 -1.000000 0.000000
vn 0.000000 -1.000000 0.000000
vn 0.000000 -1.000000 0.000000
vn 0.000000 -1.000000 0.000000
vn 0.000000 -1.000000 0.000000
vn 0.000000 -1.000000 0.000000
vn 0.000000 -1.000000 0.000000
vn 0.000000 1.000000 0.000000
vn 0.000000 1.000000 0.000000
vn 0.000000 1.000000 0.000000
vn 0.000000 1.000000 0.000000
vn 0.000000 1.000000 0.000000
vn 0.000000 1.000000 0.000000
vn 0.000000 1.000000 0.000000
vn 0.000000 1.000000 0.000000
vn 0.000000 1.000000 0.000000
vn 0.000000 1.000000 0.000000
vn 0.000000 1.000000 0.000000
vn 0.000000 1.000000 0.000000
vn 0.000000 1.000000 0.000000
vn 0.000000 1.000000 0.000000
vn 0.000000 1.000000 0.000000
vn 0.000000 1.000000 0.000000
vn 0.000000 1.000000 0.000000
vn 0.000000 1.000000 0.000000
vn 0.000000 1.000000 -0.000000
vn 0.000000 1.000000 -0.000000
vn 0.000000 1.000000 -0.000000
vn 0.000000 1.000000 0.000000
vn 0.000000 1.000000 0.000000
vn 0.000000 1.000000 0.000000
vn 0.107758 0.959537 -0.260148
vn 0.107758 0.959537 -0.260148
vn 0.107758 0.959537 -0.260148
vn 0.107758 0.959537 -0.260148
vn -0.107759 0.959537 -0.260149
vn -0.107759 0.959537 -0.260149
vn -0.107759 0.959537 -0.260149
vn -0.107759 0.959537 -0.260149
vn -0.260147 0.959537 -0.107758
vn -0.260147 0.959538 -0.107758
vn -0.260147 0.959537 -0.107758
vn -0.260147 0.959537 -0.107758
vn -0.260143 0.959539 0.107757
vn -0.260143 0.959539 0.107757
vn -0.260143 0.959539 0.107757
vn -0.260143 0.959539 0.107757
vn -0.107754 0.959539 0.260142
vn -0.107754 0.959539 0.260142
vn -0.107754 0.959539 0.260142
vn -0.107754 0.959539 0.260142
vn 0.107754 0.959540 0.260141
vn 0.107754 0.959540 0.260141
vn 0.107754 0.959539 0.260141
vn 0.107754 0.959540 0.260141
vn 0.260135 0.959541 0.107752
vn 0.260135 0.959541 0.107752
vn 0.260135 0.959541 0.107752
vn 0.260135 0.959541 0.107752
vn 0.260139 0.959540 -0.107753
vn 0.260139 0.959540 -0.107753
vn 0.260139 0.959540 -0.107753
vn 0.260139 0.959540 -0.107753
vn -0.350116 0.403732 0.845233
vn -0.350116 0.403732 0.845233
vn -0.350116 0.403732 0.845233
vn -0.350116 0.403732 0.845233
vn 0.350115 0.403732 0.845234
vn 0.350115 0.403732 0.845234
vn 0.350115 0.403732 0.845234
vn 0.350115 0.403732 0.845234
vn 0.845232 0.403740 0.350109
vn 0.845232 0.403740 0.350109
vn 0.845232 0.403740 0.350109
vn 0.845232 0.403740 0.350109
vn 0.845230 0.403740 -0.350113
vn 0.845230 0.403740 -0.350113
vn 0.845230 0.403740 -0.350113
vn 0.845230 0.403740 -0.350113
vn 0.350108 0.403744 -0.845231
vn 0.350108 0.403744 -0.845231
vn 0.350108 0.403744 -0.845231
vn 0.350108 0.403744 -0.845231
vn -0.350109 0.403744 -0.845230
vn -0.350109 0.403744 -0.845230
vn -0.350109 0.403744 -0.845230
vn -0.350109 0.403745 -0.845230
vn -0.845235 0.403734 -0.350109
vn -0.845235 0.403734 -0.350109
vn -0.845235 0.403734 -0.350109
vn -0.845235 0.403734 -0.350109
vn -0.845237 0.403734 0.350105
vn -0.845237 0.403734 0.350105
vn -0.845237 0.403734 0.350105
vn -0.845237 0.403734 0.350105
s off
f 1/1/1 2/2/2 4/4/3 3/3/4
f 3/3/5 4/4/6 6/6/7 5/5/8
f 5/5/9 6/6/10 8/8/11 7/7/12
f 7/7/13 8/8/14 2/10/15 1/9/16
f 2/2/17 8/11/18 6/12/19 4/4/20
f 7/13/21 1/1/22 3/3/23 5/14/24
f 11/15/25 12/16/26 14/17/27 13/18/28
f 15/19/29 16/20/30 10/21/31 9/22/32
f 10/23/33 16/24/34 14/25/35 12/16/36
f 15/26/37 9/27/38 11/15/39 13/28/40
f 17/29/41 18/30/42 26/31/43 25/32/44
f 18/30/45 19/33/46 27/34/47 26/31/48
f 19/33/49 20/35/50 28/36/51 27/34/52
f 20/35/53 21/37/54 29/38/55 28/36/56
f 21/37/57 22/39/58 30/40/59 29/38/60
f 22/39/61 23/41/62 31/42/63 30/40/64
f 23/41/65 24/43/66 32/44/67 31/42/68
f 24/43/69 17/45/70 25/46/71 32/44/72
f 18/47/73 17/48/74 33/49/75
f 19/50/76 18/47/77 33/49/78
f 20/51/79 19/50/80 33/49/81
f 21/52/82 20/51/83 33/49/84
f 22/53/85 21/52/86 33/49/87
f 23/54/88 22/53/89 33/49/90
f 24/55/91 23/54/92 33/49/93
f 17/48/94 24/55/95 33/49/96
f 42/56/97 43/57/98 44/58/99
f 43/57/100 45/59/101 44/58/102
f 45/59/103 46/60/104 44/58/105
f 46/60/106 47/61/107 44/58/108
f 47/61/109 48/62/110 44/58/111
f 48/62/112 49/63/113 44/58/114
f 49/63/115 50/64/116 44/58/117
f 50/64/118 42/56/119 44/58/120
f 25/65/121 26/66/122 35/67/123 34/68/124
f 26/66/125 27/69/126 36/70/127 35/67/128
f 27/69/129 28/71/130 37/72/131 36/70/132
f 28/71/133 29/73/134 38/74/135 37/72/136
f 29/73/137 30/75/138 39/76/139 38/74/140
f 30/75/141 31/77/142 40/78/143 39/76/144
f 31/77/145 32/79/146 41/80/147 40/78/148
f 32/79/149 25/65/150 34/68/151 41/80/152
f 34/81/153 35/82/154 43/57/155 42/56/156
f 35/82/157 36/83/158 45/59/159 43/57/160
f 36/83/161 37/84/162 46/60/163 45/59/164
f 37/84/165 38/85/166 47/61/167 46/60/168
f 38/85/169 39/86/170 48/62/171 47/61/172
f 39/86/173 40/87/174 49/63/175 48/62/176
f 40/87/177 41/88/178 50/64/179 49/63/180
f 41/88/181 34/81/182 42/56/183 50/64/184
