# This file uses centimeters as units for non-parametric coordinates.

v 23.257101 0.000000 -8.847115
v 16.780563 0.000000 -15.323635
v -16.780560 0.000000 -15.323635
v -23.257092 0.000000 -8.847115
v -23.257092 0.000000 8.847117
v -16.780560 0.000000 15.323654
v 16.780563 0.000000 15.323654
v 23.257101 0.000000 8.847117
v 22.383877 3.240679 -8.342961
v 16.276419 3.240679 -14.450444
v -16.276413 3.240679 -14.450444
v -22.383888 3.240679 -8.342961
v -22.383888 3.240679 8.342975
v -16.276413 3.240679 14.450444
v 16.362734 3.240679 15.269652
v 22.383877 3.240679 8.342975
v 31.978020 3.260565 -13.882141
v 21.815582 3.260565 -24.044571
v 21.695133 4.695221 -23.835957
v 31.769388 4.695221 -13.761685
v -21.815588 3.260565 -24.044571
v -21.695127 4.695221 -23.835957
v -31.978010 3.260565 -13.882141
v -31.769386 4.695221 -13.761685
v -31.978010 3.260565 13.882141
v -31.769386 4.695221 13.761685
v -21.815588 3.260565 24.044571
v -21.695127 4.695221 23.835957
v 21.815582 3.260565 24.044571
v 21.695133 4.695221 23.835957
v 31.978020 3.260565 13.882141
v 31.769388 4.695221 13.761685
v 27.822323 4.128902 -11.482848
v 19.416304 4.128902 -19.888897
v -19.416298 4.128902 -19.888897
v -27.822334 4.128902 -11.482848
v -27.822334 4.128902 11.482855
v -19.416298 4.128902 19.888897
v 19.416304 4.128902 19.888897
v 27.822323 4.128902 11.482855
v 18.654055 3.240679 -7.176834
v 14.605762 3.240679 -11.526145
v -15.066771 3.240679 -11.703737
v -20.364090 3.240679 -7.176834
v -20.364090 3.240679 7.176844
v -15.110279 3.240679 12.430648
v 15.110284 3.240679 12.430648
v 18.654055 3.240679 7.176844
v 3.480961 3.240679 -7.827337
v 12.250471 3.240679 1.816604
v 10.515522 3.240679 3.344787
v 2.058162 3.240679 -6.716178
v 7.252339 3.240679 -3.689561
v 8.638506 3.240679 -2.131725
v 6.847839 3.240679 -0.796482
v 5.548047 3.240679 -2.438394
v 11.397815 3.240679 -7.071090
v 13.026951 3.240679 -5.238671
v 2.803644 3.240679 2.657483
v 1.338100 3.240679 0.520224
v 4.907626 3.240679 0.860571
v 9.142101 3.240679 1.794022
v 2.951602 3.240679 8.560943
v 10.532978 3.240679 10.611334
v -17.147499 3.240679 8.437668
v -10.733564 3.240679 -1.633123
v -5.158749 3.240679 1.920969
v 3.910334 3.240679 10.413539
v 11.579820 3.240679 8.436111
v 3.355921 3.240679 6.969260
v 11.006657 3.240679 6.819299
v -10.667496 3.240679 8.477412
v -7.902514 3.240679 2.188482
v -12.287361 3.240679 8.467477
v -22.797688 4.128902 -15.127150
v -25.802036 4.695221 -18.128702
v -25.960831 3.260565 -18.287348
v -22.884247 4.128902 15.035407
v -25.905788 4.695221 18.019775
v -26.065481 3.260565 18.177515
v 22.606812 4.128902 15.301074
v 25.575623 4.695221 18.338169
v 25.732550 3.260565 18.498693
v 22.489777 4.128902 -15.423290
v 25.435358 4.695221 -18.483616
v 25.591061 3.260565 -18.645367
vt 0.101859 0.350607
vt 0.102060 0.350565
vt 0.236797 0.105622
vt 0.236701 0.105641
vt 0.102483 0.350604
vt 0.236998 0.105640
vt 0.102630 0.350683
vt 0.237068 0.105677
vt 0.102579 0.350902
vt 0.237044 0.105780
vt 0.102337 0.350977
vt 0.236929 0.105815
vt 0.101782 0.350907
vt 0.236665 0.105783
vt 0.101676 0.350796
vt 0.236614 0.105730
vt 0.102054 0.350609
vt 0.101912 0.350654
vt 0.102431 0.350651
vt 0.102528 0.350724
vt 0.102458 0.350897
vt 0.102303 0.350958
vt 0.101853 0.350898
vt 0.101772 0.350814
vt 0.236730 0.105656
vt 0.236807 0.105639
vt 0.236971 0.105655
vt 0.237025 0.105685
vt 0.237000 0.105766
vt 0.236910 0.105792
vt 0.236708 0.105768
vt 0.236665 0.105728
vt 0.101884 0.350605
vt 0.236801 0.105628
vt 0.236987 0.105646
vt 0.237052 0.105680
vt 0.237026 0.105774
vt 0.236921 0.105806
vt 0.236682 0.105777
vt 0.236634 0.105729
vt 0.101920 0.350624
vt 0.236807 0.105639
vt 0.236971 0.105655
vt 0.237025 0.105685
vt 0.237000 0.105766
vt 0.236910 0.105792
vt 0.236708 0.105768
vt 0.236665 0.105728
vt 0.236730 0.105656
vt 0.101786 0.350774
vt 0.101875 0.350857
vt 0.102298 0.350908
vt 0.102484 0.350853
vt 0.102538 0.350685
vt 0.102423 0.350621
vt 0.102082 0.350589
vt 0.236712 0.105647
vt 0.101721 0.350777
vt 0.101820 0.350876
vt 0.102321 0.350938
vt 0.102540 0.350871
vt 0.102593 0.350674
vt 0.102459 0.350602
vt 0.102069 0.350566
vt 0.101920 0.350624
vt 0.101786 0.350774
vt 0.101875 0.350857
vt 0.102298 0.350908
vt 0.102484 0.350853
vt 0.102538 0.350685
vt 0.102423 0.350621
vt 0.102082 0.350589
vt 0.101861 0.350594
vt 0.101679 0.350779
vt 0.101785 0.350888
vt 0.102336 0.350957
vt 0.102576 0.350883
vt 0.102628 0.350668
vt 0.102481 0.350590
vt 0.102061 0.350552
vt 0.236390 0.108150
vt 0.101931 0.350708
vt 0.101939 0.350747
vt 0.102237 0.350686
vt 0.236332 0.108162
vt 0.100678 0.352469
vt 0.236303 0.108188
vt 0.236349 0.108179
vt 0.102098 0.350632
vt 0.102003 0.350649
vt 0.102036 0.350774
vt 0.236349 0.108202
vt 0.236305 0.108199
vt 0.236276 0.108194
vt 0.102043 0.350825
vt 0.236244 0.108240
vt 0.102357 0.350855
vt 0.102318 0.350714
vt 0.236396 0.108195
vt 0.102217 0.350745
vt 0.102055 0.350851
vt 0.236315 0.108247
vt 0.101906 0.350836
vt 0.236309 0.108234
vt 0.102043 0.350825
vt 0.102487 0.351862
vt 0.236460 0.108249
vt 0.236441 0.108181
vt 0.102090 0.350674
vt 0.236336 0.108142
vt 0.102210 0.350649
vt 0.102126 0.350709
vt 0.236402 0.108168
vt 0.102125 0.350756
vt 0.101973 0.350740
vt 0.102033 0.350750
vt 0.236306 0.108210
vt 0.236290 0.108150
vt 0.102012 0.350691
vt 0.236256 0.108178
vt 0.236259 0.108197
vt 0.236250 0.108230
vt 0.101920 0.350816
vt 0.100756 0.352452
vt 0.236332 0.108162
vt 0.100792 0.352487
vt 0.236349 0.108179
vt 0.236294 0.108170
vt 0.236294 0.108170
vt 0.100697 0.352507
vt 0.102485 0.351847
vt 0.102041 0.350809
vt 0.236255 0.108223
vt 0.101930 0.350802
vt 0.236308 0.108227
vt 0.102374 0.351839
vt 0.236309 0.108234
vt 0.102364 0.351854
vt 0.102256 0.350845
vt 0.236411 0.108244
vt 0.102255 0.350759
vt 0.236411 0.108203
vt 0.236425 0.108246
vt 0.102280 0.350847
vt 0.101392 0.351737
vt 0.101366 0.351648
vt 0.101331 0.351642
vt 0.101367 0.351734
vt 0.102526 0.350638
vt 0.237020 0.105663
vt 0.102555 0.350629
vt 0.237033 0.105659
vt 0.102557 0.350643
vt 0.102433 0.350904
vt 0.236975 0.105790
vt 0.102459 0.350919
vt 0.236987 0.105797
vt 0.102461 0.350939
vt 0.101773 0.350829
vt 0.236659 0.105754
vt 0.101734 0.350836
vt 0.236641 0.105758
vt 0.101732 0.350854
vt 0.101983 0.350584
vt 0.236760 0.105637
vt 0.101968 0.350571
vt 0.236752 0.105631
vt 0.101967 0.350584
vn 0.810196 0.151079 -0.566355
vn 0.810196 0.151079 -0.566355
vn 0.810196 0.151079 -0.566355
vn 0.810196 0.151079 -0.566355
vn 0.000000 0.143897 -0.989593
vn 0.000000 0.143897 -0.989593
vn 0.000000 0.143897 -0.989593
vn 0.000000 0.143897 -0.989593
vn -0.583751 0.152326 -0.797516
vn -0.583751 0.152326 -0.797516
vn -0.583751 0.152326 -0.797516
vn -0.583751 0.152326 -0.797516
vn -0.989591 0.143905 0.000000
vn -0.989592 0.143905 0.000000
vn -0.989592 0.143905 0.000000
vn -0.989591 0.143905 0.000000
vn -0.800500 0.152175 0.579691
vn -0.800500 0.152175 0.579691
vn -0.800500 0.152175 0.579691
vn -0.800500 0.152175 0.579691
vn 0.000000 0.143897 0.989593
vn 0.000000 0.143897 0.989593
vn 0.000000 0.143897 0.989593
vn 0.000000 0.143897 0.989593
vn 0.587375 0.152663 0.794786
vn 0.587375 0.152663 0.794786
vn 0.587375 0.152663 0.794786
vn 0.587375 0.152663 0.794786
vn 0.989591 0.143909 0.000000
vn 0.989591 0.143910 0.000000
vn 0.989591 0.143910 0.000000
vn 0.989591 0.143909 0.000000
vn 0.000000 -1.000000 0.000000
vn 0.000000 -1.000000 0.000000
vn 0.000000 -1.000000 0.000000
vn 0.000000 -1.000000 0.000000
vn 0.275785 -0.941675 -0.192847
vn 0.275785 -0.941675 -0.192847
vn 0.275785 -0.941675 -0.192847
vn -0.127492 0.987951 0.087747
vn -0.127492 0.987950 0.087747
vn -0.127492 0.987951 0.087747
vn 0.000000 -0.936674 -0.350202
vn 0.000000 -0.936674 -0.350202
vn 0.000000 -0.936674 -0.350202
vn 0.000000 -0.936674 -0.350202
vn 0.000000 0.986924 0.161187
vn 0.000000 0.986924 0.161187
vn 0.000000 0.986924 0.161187
vn 0.000000 0.986924 0.161187
vn -0.197058 -0.942718 -0.269167
vn -0.197058 -0.942718 -0.269167
vn -0.197058 -0.942718 -0.269167
vn 0.089864 0.988217 0.123902
vn 0.089864 0.988217 0.123902
vn 0.089864 0.988217 0.123902
vn -0.350202 -0.936674 0.000000
vn -0.350202 -0.936674 0.000000
vn -0.350202 -0.936674 0.000000
vn -0.350202 -0.936674 0.000000
vn 0.161187 0.986924 0.000000
vn 0.161187 0.986924 0.000000
vn 0.161187 0.986924 0.000000
vn 0.161187 0.986924 0.000000
vn -0.270700 -0.942482 0.196085
vn -0.270700 -0.942482 0.196085
vn -0.270700 -0.942482 0.196085
vn 0.124924 0.988143 -0.089262
vn 0.124924 0.988143 -0.089262
vn 0.124924 0.988143 -0.089262
vn 0.000000 -0.936674 0.350202
vn 0.000000 -0.936674 0.350202
vn 0.000000 -0.936674 0.350202
vn 0.000000 -0.936674 0.350202
vn 0.001993 0.984758 -0.173916
vn 0.001993 0.984758 -0.173916
vn 0.001993 0.984758 -0.173916
vn 0.001993 0.984758 -0.173916
vn 0.197938 -0.942929 0.267780
vn 0.197938 -0.942929 0.267780
vn 0.197938 -0.942929 0.267780
vn -0.090240 0.988263 -0.123264
vn -0.090240 0.988263 -0.123264
vn -0.090240 0.988263 -0.123264
vn 0.350202 -0.936674 0.000000
vn 0.350202 -0.936674 0.000000
vn 0.350202 -0.936674 0.000000
vn 0.350202 -0.936674 0.000000
vn -0.161187 0.986924 0.000000
vn -0.161187 0.986924 0.000000
vn -0.161187 0.986924 0.000000
vn -0.161187 0.986924 0.000000
vn -0.111246 0.990789 0.077205
vn -0.111246 0.990789 0.077205
vn -0.111246 0.990789 0.077205
vn -0.111246 0.990789 0.077205
vn 0.000000 0.989863 0.142024
vn 0.000000 0.989863 0.142024
vn 0.000000 0.989863 0.142024
vn 0.000000 0.989863 0.142024
vn 0.079061 0.990950 0.108477
vn 0.079061 0.990950 0.108477
vn 0.079061 0.990950 0.108477
vn 0.079061 0.990950 0.108477
vn 0.142024 0.989863 0.000000
vn 0.142024 0.989863 0.000000
vn 0.142024 0.989863 0.000000
vn 0.142024 0.989863 0.000000
vn 0.109087 0.990927 -0.078506
vn 0.109087 0.990927 -0.078506
vn 0.109087 0.990927 -0.078506
vn 0.109087 0.990927 -0.078506
vn 0.000000 0.989863 -0.142024
vn 0.000000 0.989863 -0.142024
vn 0.000000 0.989863 -0.142024
vn 0.000000 0.989863 -0.142024
vn -0.079376 0.990990 -0.107880
vn -0.079376 0.990990 -0.107880
vn -0.079376 0.990990 -0.107880
vn -0.079376 0.990990 -0.107880
vn -0.142024 0.989863 0.000000
vn -0.142024 0.989863 0.000000
vn -0.142024 0.989863 0.000000
vn -0.142024 0.989863 0.000000
vn 0.000000 1.000000 0.000000
vn 0.000000 1.000000 0.000000
vn 0.000000 1.000000 0.000000
vn 0.000000 1.000000 0.000000
vn 0.000000 1.000000 0.000000
vn 0.000000 1.000000 0.000000
vn 0.000000 1.000000 0.000000
vn 0.000000 1.000000 0.000000
vn 0.000000 1.000000 0.000000
vn 0.000000 1.000000 0.000000
vn 0.000000 1.000000 0.000000
vn 0.000000 1.000000 0.000000
vn 0.000000 1.000000 0.000000
vn 0.000000 1.000000 0.000000
vn 0.000000 1.000000 0.000000
vn 0.000000 1.000000 0.000000
vn 0.000000 1.000000 0.000000
vn 0.000000 1.000000 0.000000
vn 0.000000 1.000000 0.000000
vn 0.000000 1.000000 0.000000
vn 0.000000 1.000000 0.000000
vn 0.000000 1.000000 0.000000
vn 0.000000 1.000000 0.000000
vn 0.000000 1.000000 0.000000
vn 0.000000 1.000000 -0.000000
vn 0.000000 1.000000 -0.000000
vn 0.000000 1.000000 -0.000000
vn 0.000000 1.000000 -0.000000
vn 0.000000 1.000000 0.000000
vn 0.000000 1.000000 0.000000
vn 0.000000 1.000000 0.000000
vn 0.000000 1.000000 0.000000
vn 0.000000 1.000000 0.000000
vn 0.000000 1.000000 0.000000
vn 0.000000 1.000000 0.000000
vn 0.000000 1.000000 0.000000
vn 0.000000 1.000000 0.000000
vn 0.000000 1.000000 0.000000
vn 0.000000 1.000000 0.000000
vn 0.000000 1.000000 -0.000000
vn 0.000000 1.000000 -0.000000
vn 0.000000 1.000000 -0.000000
vn 0.000000 1.000000 -0.000000
vn 0.000000 1.000000 0.000000
vn 0.000000 1.000000 0.000000
vn 0.000000 1.000000 0.000000
vn 0.000000 1.000000 0.000000
vn 0.000000 1.000000 0.000000
vn 0.000000 1.000000 0.000000
vn 0.000000 1.000000 0.000000
vn 0.000000 1.000000 0.000000
vn 0.000000 1.000000 -0.000000
vn 0.000000 1.000000 -0.000000
vn 0.000000 1.000000 -0.000000
vn 0.000000 1.000000 0.000000
vn 0.000000 1.000000 0.000000
vn 0.000000 1.000000 0.000000
vn 0.000000 1.000000 0.000000
vn 0.000000 1.000000 0.000000
vn 0.000000 1.000000 0.000000
vn 0.000000 1.000000 0.000000
vn 0.000000 1.000000 0.000000
vn 0.000000 1.000000 -0.000000
vn 0.000000 1.000000 -0.000000
vn 0.000000 1.000000 -0.000000
vn 0.000000 1.000000 -0.000000
vn 0.000000 1.000000 0.000000
vn 0.000000 1.000000 0.000000
vn 0.000000 1.000000 0.000000
vn 0.000000 1.000000 0.000000
vn 0.000000 1.000000 0.000000
vn 0.000000 1.000000 0.000000
vn 0.000000 1.000000 -0.000000
vn 0.000000 1.000000 -0.000000
vn 0.000000 1.000000 -0.000000
vn 0.000000 1.000000 0.000000
vn 0.000000 1.000000 0.000000
vn 0.000000 1.000000 0.000000
vn 0.000000 1.000000 0.000000
vn 0.000000 1.000000 0.000000
vn 0.000000 1.000000 0.000000
vn 0.000000 1.000000 0.000000
vn 0.000000 1.000000 0.000000
vn 0.000000 1.000000 -0.000000
vn 0.000000 1.000000 -0.000000
vn 0.000000 1.000000 -0.000000
vn 0.000000 1.000000 -0.000000
vn 0.000000 1.000000 -0.000000
vn 0.000000 1.000000 -0.000000
vn 0.000000 1.000000 -0.000000
vn 0.000000 1.000000 -0.000000
vn 0.000000 1.000000 0.000000
vn 0.000000 1.000000 0.000000
vn 0.000000 1.000000 0.000000
vn 0.000000 1.000000 0.000000
vn 0.000000 1.000000 0.000000
vn 0.000000 1.000000 0.000000
vn 0.000000 1.000000 0.000000
vn 0.000000 1.000000 0.000000
vn 0.000000 1.000000 0.000000
vn 0.000000 1.000000 0.000000
vn 0.000000 1.000000 0.000000
vn 0.000000 1.000000 0.000000
vn 0.000000 1.000000 0.000000
vn 0.000000 1.000000 0.000000
vn 0.000000 1.000000 0.000000
vn 0.000000 1.000000 0.000000
vn 0.000000 1.000000 0.000000
vn 0.000000 1.000000 0.000000
vn 0.000000 1.000000 -0.000000
vn 0.000000 1.000000 -0.000000
vn 0.000000 1.000000 -0.000000
vn 0.000000 1.000000 -0.000000
vn 0.000000 1.000000 0.000000
vn 0.000000 1.000000 0.000000
vn 0.000000 1.000000 0.000000
vn 0.000000 1.000000 0.000000
vn 0.000000 1.000000 0.000000
vn 0.000000 1.000000 0.000000
vn 0.000000 1.000000 0.000000
vn 0.000000 1.000000 0.000000
vn 0.000000 1.000000 0.000000
vn 0.000000 1.000000 0.000000
vn 0.000000 1.000000 0.000000
vn 0.000000 1.000000 0.000000
vn 0.000000 1.000000 0.000000
vn 0.000000 1.000000 0.000000
vn 0.000000 1.000000 0.000000
vn 0.000000 1.000000 0.000000
vn 0.000000 1.000000 0.000000
vn 0.000000 1.000000 0.000000
vn 0.000000 1.000000 0.000000
vn 0.000000 1.000000 0.000000
vn 0.000000 1.000000 0.000000
vn 0.000000 1.000000 0.000000
vn 0.000000 1.000000 -0.000000
vn 0.000000 1.000000 -0.000000
vn 0.000000 1.000000 -0.000000
vn 0.000000 1.000000 -0.000000
vn 0.000000 1.000000 0.000000
vn 0.000000 1.000000 0.000000
vn 0.000000 1.000000 0.000000
vn 0.000000 1.000000 0.000000
vn 0.000000 1.000000 -0.000000
vn 0.000000 1.000000 -0.000000
vn 0.000000 1.000000 -0.000000
vn 0.000000 1.000000 -0.000000
vn 0.000000 1.000000 -0.000000
vn 0.000000 1.000000 -0.000000
vn 0.000000 1.000000 -0.000000
vn 0.000000 1.000000 -0.000000
vn 0.000000 1.000000 -0.000000
vn 0.000000 1.000000 -0.000000
vn 0.000000 1.000000 0.000000
vn 0.000000 1.000000 0.000000
vn 0.000000 1.000000 0.000000
vn 0.000000 1.000000 0.000000
vn 0.000000 1.000000 0.000000
vn 0.000000 1.000000 0.000000
vn 0.000000 1.000000 0.000000
vn 0.109460 0.990903 0.078295
vn 0.109460 0.990903 0.078295
vn 0.109460 0.990903 0.078295
vn 0.109460 0.990903 0.078295
vn -0.802183 0.151978 -0.577412
vn -0.802183 0.151978 -0.577412
vn -0.802183 0.151978 -0.577412
vn -0.802183 0.151978 -0.577412
vn -0.271569 -0.942347 -0.195532
vn -0.271569 -0.942347 -0.195532
vn -0.271569 -0.942347 -0.195532
vn 0.078777 0.990922 -0.108944
vn 0.078777 0.990922 -0.108944
vn 0.078777 0.990922 -0.108944
vn 0.078777 0.990922 -0.108944
vn -0.580841 0.152093 0.799682
vn -0.580841 0.152093 0.799682
vn -0.580841 0.152093 0.799682
vn -0.580841 0.152093 0.799682
vn -0.196353 -0.942547 0.270278
vn -0.196353 -0.942547 0.270278
vn -0.196353 -0.942547 0.270278
vn -0.110630 0.990831 -0.077562
vn -0.110630 0.990831 -0.077562
vn -0.110630 0.990831 -0.077562
vn -0.110630 0.990831 -0.077562
vn 0.807483 0.151407 0.570129
vn 0.807483 0.151407 0.570129
vn 0.807483 0.151407 0.570129
vn 0.807483 0.151407 0.570129
vn 0.274345 -0.941907 0.193766
vn 0.274345 -0.941907 0.193766
vn 0.274345 -0.941907 0.193766
vn -0.079701 0.991022 0.107342
vn -0.079701 0.991022 0.107342
vn -0.079701 0.991022 0.107342
vn -0.079701 0.991022 0.107342
vn 0.590724 0.152928 -0.792248
vn 0.590725 0.152928 -0.792248
vn 0.590725 0.152928 -0.792248
vn 0.590724 0.152928 -0.792248
vn 0.198749 -0.943121 -0.266500
vn 0.198749 -0.943121 -0.266500
vn 0.198749 -0.943121 -0.266500
vn 0.125348 0.988112 0.089012
vn 0.125348 0.988112 0.089012
vn 0.125348 0.988112 0.089012
vn 0.121562 0.985112 0.121562
vn 0.121562 0.985112 0.121562
vn 0.121562 0.985112 0.121562
vn -0.090614 0.988307 0.122627
vn -0.090614 0.988307 0.122627
vn -0.090614 0.988307 0.122627
vn -0.121755 0.985064 0.121755
vn -0.121755 0.985064 0.121755
vn -0.121755 0.985064 0.121755
vn -0.139688 0.985419 -0.097143
vn -0.139688 0.985419 -0.097143
vn -0.139688 0.985419 -0.097143
vn -0.139201 0.982844 -0.121003
vn -0.139201 0.982843 -0.121003
vn -0.139201 0.982843 -0.121003
vn 0.089537 0.988177 -0.124457
vn 0.089537 0.988177 -0.124457
vn 0.089537 0.988177 -0.124457
vn 0.121647 0.985091 -0.121647
vn 0.121647 0.985091 -0.121647
vn 0.121647 0.985091 -0.121647
vn 0.000000 -1.000000 0.000000
vn 0.000000 -1.000000 0.000000
vn 0.000000 -1.000000 0.000000
vn 0.000000 -1.000000 0.000000
vn 0.000000 -1.000000 0.000000
vn 0.000000 -1.000000 0.000000
vn 0.000000 -1.000000 0.000000
vn 0.000000 -1.000000 0.000000
vn 0.251314 -0.934710 0.251313
vn 0.251314 -0.934710 0.251313
vn 0.251314 -0.934710 0.251313
vn 0.251219 -0.934761 -0.251220
vn 0.251219 -0.934761 -0.251220
vn 0.251219 -0.934761 -0.251220
vn -0.251007 -0.934875 -0.251007
vn -0.251007 -0.934875 -0.251007
vn -0.251007 -0.934875 -0.251007
vn -0.251101 -0.934825 0.251101
vn -0.251101 -0.934825 0.251101
vn -0.251101 -0.934825 0.251101
s off
f 85/166/1 86/168/2 18/2/3 19/80/4
f 19/80/5 18/2/6 21/5/7 22/79/8
f 76/151/9 77/153/10 23/7/11 24/78/12
f 24/78/13 23/7/14 25/9/15 26/77/16
f 79/156/17 80/158/18 27/11/19 28/76/20
f 28/76/21 27/11/22 29/13/23 30/75/24
f 82/161/25 83/163/26 31/15/27 32/74/28
f 32/74/29 31/15/30 17/1/31 20/73/32
f 7/23/33 6/22/34 3/19/35 2/17/36
f 86/168/37 2/17/38 18/2/39
f 84/164/40 34/64/41 10/72/42
f 21/5/43 18/2/44 2/17/45 3/19/46
f 10/72/47 34/64/48 35/63/49 11/71/50
f 77/153/51 4/20/52 23/7/53
f 75/149/54 36/62/55 12/70/56
f 25/9/57 23/7/58 4/20/59 5/21/60
f 12/70/61 36/62/62 37/61/63 13/69/64
f 80/158/65 6/22/66 27/11/67
f 78/154/68 38/60/69 14/68/70
f 29/13/71 27/11/72 6/22/73 7/23/74
f 14/68/75 38/60/76 39/59/77 15/67/78
f 83/163/79 8/24/80 31/15/81
f 81/159/82 40/58/83 16/66/84
f 17/1/85 31/15/86 8/24/87 1/18/88
f 16/66/89 40/58/90 33/33/91 9/65/92
f 34/34/93 84/165/94 85/167/95 19/3/96
f 34/34/97 19/3/98 22/6/99 35/35/100
f 36/36/101 75/150/102 76/152/103 24/8/104
f 36/36/105 24/8/106 26/10/107 37/37/108
f 38/38/109 78/155/110 79/157/111 28/12/112
f 38/38/113 28/12/114 30/14/115 39/39/116
f 40/40/117 81/160/118 82/162/119 32/16/120
f 40/40/121 32/16/122 20/4/123 33/57/124
f 10/26/125 42/42/126 41/49/127 9/25/128
f 42/42/129 10/26/130 11/27/131 43/43/132
f 12/28/133 44/44/134 43/43/135 11/27/136
f 44/44/137 12/28/138 13/29/139 45/45/140
f 14/30/141 46/46/142 45/45/143 13/29/144
f 46/46/145 14/30/146 15/31/147 47/47/148
f 16/32/149 48/48/150 47/47/151 15/31/152
f 48/48/153 16/32/154 9/25/155 41/49/156
f 61/93/157 62/94/158 55/87/159
f 54/129/160 55/87/161 62/94/162 50/120/163
f 43/55/164 52/84/165 49/111/166 42/56/167
f 57/110/168 53/85/169 54/128/170 58/118/171
f 53/124/172 56/126/173 55/130/174 54/86/175
f 61/93/176 60/92/177 59/117/178
f 49/81/179 52/113/180 56/88/181 53/125/182
f 45/53/183 65/97/184 66/98/185 44/54/186
f 53/109/187 57/89/188 42/56/189 49/111/190
f 67/99/191 72/140/192 63/104/193
f 67/100/194 66/98/195 73/141/196
f 44/54/197 66/98/198 43/55/199
f 59/91/200 63/105/201 70/132/202 61/116/203
f 43/55/204 66/98/205 67/100/206 52/84/207
f 52/84/208 67/100/209 60/114/210 56/112/211
f 60/114/212 67/100/213 63/105/214 59/91/215
f 56/127/216 60/92/217 61/93/218 55/87/219
f 50/120/220 62/94/221 51/121/222
f 42/56/223 57/89/224 58/90/225 41/41/226
f 41/41/227 58/90/228 50/82/229 48/50/230
f 50/82/231 58/90/232 54/119/233
f 71/134/234 48/50/235 50/82/236 51/83/237
f 46/52/238 65/97/239 45/53/240
f 47/51/241 64/103/242 68/101/243 46/52/244
f 46/52/245 72/139/246 74/144/247
f 69/122/248 63/137/249 68/102/250 64/96/251
f 48/50/252 69/123/253 64/103/254 47/51/255
f 61/93/256 70/135/257 71/133/258 62/94/259
f 71/136/260 70/131/261 63/106/262 69/138/263
f 74/145/264 72/148/265 67/147/266 73/146/267
f 65/107/268 74/143/269 73/142/270 66/108/271
f 71/134/272 51/83/273 62/115/274
f 69/123/275 48/50/276 71/134/277
f 46/52/278 74/144/279 65/97/280
f 63/95/281 72/139/282 46/52/283 68/101/284
f 76/152/285 75/150/286 35/35/287 22/6/288
f 21/5/289 77/153/290 76/151/291 22/79/292
f 3/19/293 77/153/294 21/5/295
f 79/157/296 78/155/297 37/37/298 26/10/299
f 25/9/300 80/158/301 79/156/302 26/77/303
f 5/21/304 80/158/305 25/9/306
f 82/162/307 81/160/308 39/39/309 30/14/310
f 29/13/311 83/163/312 82/161/313 30/75/314
f 7/23/315 83/163/316 29/13/317
f 85/167/318 84/165/319 33/57/320 20/4/321
f 17/1/322 86/168/323 85/166/324 20/73/325
f 1/18/326 86/168/327 17/1/328
f 75/149/329 11/71/330 35/63/331
f 75/149/332 12/70/333 11/71/334
f 84/164/335 9/65/336 33/33/337
f 84/164/338 10/72/339 9/65/340
f 81/159/341 15/67/342 39/59/343
f 81/159/344 16/66/345 15/67/346
f 78/154/347 13/69/348 37/61/349
f 78/154/350 14/68/351 13/69/352
f 3/19/353 6/22/354 5/21/355 4/20/356
f 7/23/357 2/17/358 1/18/359 8/24/360
f 83/163/361 7/23/362 8/24/363
f 1/18/364 2/17/365 86/168/366
f 3/19/367 4/20/368 77/153/369
f 80/158/370 5/21/371 6/22/372
