# This file uses centimeters as units for non-parametric coordinates.

v -10.497463 0.000001 14.419264
v -10.497463 6.387759 14.419264
v -10.497463 0.000002 -14.419264
v -10.497463 6.387758 -14.419264
v 11.824762 0.000002 -14.419264
v 11.824762 6.387758 -14.419264
v 11.824762 0.000001 14.419264
v 11.824762 6.387759 14.419264
v -11.824762 3.193869 -14.419264
v -11.824762 3.193868 14.419264
v -9.261346 0.968052 -14.419263
v -10.512209 3.193869 -14.419264
v -9.261347 5.419697 -14.419263
v 11.775457 5.419697 -14.419264
v 11.775457 0.968052 -14.419264
v 11.775457 5.419696 14.419264
v 11.775457 0.968052 14.419264
v -9.261345 5.419696 14.419264
v -10.512209 3.193868 14.419264
v -9.261346 0.968052 14.419264
v -9.008634 0.968052 -13.242713
v -10.259497 3.193869 -13.242714
v -9.008635 5.419697 -13.242713
v 11.084759 5.419697 -13.242714
v 11.084759 0.968052 -13.242714
v 11.084759 5.419697 13.242722
v 11.084759 0.968052 13.242722
v -9.008633 5.419697 13.242722
v -10.259497 3.193868 13.242722
v -9.008634 0.968052 13.242722
v -10.497463 0.000002 -8.651560
v -11.824762 3.193869 -8.651560
v -10.497463 6.387758 -8.651560
v -10.497463 0.000000 -5.282131
v -11.824762 3.193869 -5.282158
v -10.497463 6.387760 -5.282131
vt 0.162284 0.107801
vt 0.162284 0.107801
vt 0.162284 0.107801
vt 0.162284 0.107801
vt 0.162284 0.107801
vt 0.162284 0.107801
vt 0.162284 0.107801
vt 0.162284 0.107801
vt 0.162284 0.107801
vt 0.162284 0.107801
vt 0.162284 0.107801
vt 0.162284 0.107801
vt 0.162284 0.107801
vt 0.162284 0.107801
vt 0.162284 0.107801
vt 0.162284 0.107801
vt 0.162284 0.107801
vt 0.162284 0.107801
vt 0.162284 0.107801
vt 0.162284 0.107801
vt 0.162284 0.107801
vt 0.162284 0.107801
vt 0.162284 0.107801
vt 0.162284 0.107801
vt 0.162284 0.107801
vt 0.162284 0.107801
vt 0.162284 0.107801
vt 0.162284 0.107801
vt 0.162284 0.107801
vt 0.162284 0.107801
vt 0.162284 0.107801
vt 0.162284 0.107801
vt 0.162284 0.107801
vt 0.162284 0.107801
vt 0.162284 0.107801
vt 0.162284 0.107801
vt 0.162284 0.107801
vt 0.037976 0.353544
vt 0.037976 0.353544
vt 0.037976 0.353544
vt 0.037976 0.353544
vt 0.037976 0.353544
vt 0.037976 0.353544
vt 0.037976 0.353544
vt 0.037976 0.353544
vt 0.037976 0.353544
vt 0.037976 0.353544
vt 0.162284 0.107801
vt 0.162284 0.107801
vt 0.162284 0.107801
vt 0.162284 0.107801
vt 0.162284 0.107801
vt 0.162284 0.107801
vt 0.050285 0.208712
vt 0.050285 0.208712
vt 0.050285 0.208712
vt 0.050285 0.208712
vt 0.050285 0.208712
vt 0.050285 0.208712
vn -0.923435 0.383756 0.000000
vn -0.923435 0.383756 0.000000
vn -0.923435 0.383756 0.000000
vn -0.923435 0.383756 0.000000
vn -0.000000 0.000000 -1.000000
vn -0.000000 0.000000 -1.000000
vn -0.000000 0.000000 -1.000000
vn -0.000000 0.000000 -1.000000
vn -0.000000 0.000000 -1.000000
vn -0.000000 0.000000 -1.000000
vn -0.000000 0.000000 -1.000000
vn 1.000000 0.000000 -0.000000
vn 1.000000 0.000000 -0.000000
vn 1.000000 0.000000 -0.000000
vn 1.000000 0.000000 -0.000000
vn 0.000000 0.000000 1.000000
vn 0.000000 0.000000 1.000000
vn 0.000000 0.000000 1.000000
vn 0.000000 0.000000 1.000000
vn 0.000000 0.000000 1.000000
vn 0.000000 0.000000 1.000000
vn 0.000000 0.000000 1.000000
vn 0.000000 1.000000 0.000000
vn 0.000000 1.000000 0.000000
vn 0.000000 1.000000 0.000000
vn 0.000000 1.000000 0.000000
vn 0.000000 1.000000 0.000000
vn 0.000000 1.000000 0.000000
vn 0.000000 1.000000 0.000000
vn 0.000000 -1.000000 0.000000
vn 0.000000 -1.000000 0.000000
vn 0.000000 -1.000000 0.000000
vn -0.923434 -0.383758 0.000000
vn -0.923434 -0.383758 0.000000
vn -0.923434 -0.383758 0.000000
vn -0.923434 -0.383758 0.000000
vn -0.000001 0.000000 -1.000000
vn -0.000001 0.000000 -1.000000
vn -0.000001 0.000000 -1.000000
vn -0.000001 0.000000 -1.000000
vn -0.000000 0.000000 -1.000000
vn -0.000000 0.000000 -1.000000
vn -0.000000 0.000000 -1.000000
vn -0.000000 0.000000 -1.000000
vn -0.000000 0.000000 -1.000000
vn -0.000000 0.000000 -1.000000
vn -0.000000 0.000000 -1.000000
vn -0.000000 0.000000 -1.000000
vn -0.000000 0.000000 -1.000000
vn -0.000000 0.000000 -1.000000
vn -0.000000 0.000000 -1.000000
vn -0.000000 0.000000 -1.000000
vn 0.998706 -0.050866 -0.000000
vn 0.998706 -0.050866 -0.000000
vn 0.998706 -0.050866 -0.000000
vn 0.998706 -0.050866 -0.000000
vn 0.998705 0.050867 -0.000000
vn 0.998705 0.050867 -0.000000
vn 0.998705 0.050867 -0.000000
vn 0.998705 0.050867 -0.000000
vn 0.000000 0.000000 1.000000
vn 0.000000 0.000000 1.000000
vn 0.000000 0.000000 1.000000
vn 0.000000 0.000000 1.000000
vn 0.000000 0.000000 1.000000
vn 0.000000 0.000000 1.000000
vn 0.000000 0.000000 1.000000
vn 0.000000 0.000000 1.000000
vn 0.000000 0.000000 1.000000
vn 0.000000 0.000000 1.000000
vn 0.000000 0.000000 1.000000
vn 0.000000 0.000000 1.000000
vn 0.000000 0.000000 1.000000
vn 0.000000 0.000000 1.000000
vn 0.000000 0.000000 1.000000
vn 0.000000 0.000000 1.000000
vn 0.856877 0.481548 -0.184049
vn 0.856877 0.481548 -0.184050
vn 0.856877 0.481548 -0.184049
vn 0.856877 0.481548 -0.184050
vn 0.856878 -0.481545 -0.184050
vn 0.856878 -0.481545 -0.184049
vn 0.856878 -0.481545 -0.184050
vn 0.856878 -0.481545 -0.184049
vn -0.000000 -1.000000 -0.000000
vn -0.000000 -1.000000 -0.000000
vn -0.000000 -1.000000 -0.000000
vn -0.000000 -1.000000 -0.000000
vn 0.000000 1.000000 0.000000
vn 0.000000 1.000000 0.000000
vn 0.000000 1.000000 0.000000
vn 0.000000 1.000000 0.000000
vn 0.000000 -1.000000 0.000000
vn 0.000000 -1.000000 0.000000
vn 0.000000 -1.000000 0.000000
vn 0.000000 -1.000000 0.000000
vn 0.000000 1.000000 0.000000
vn 0.000000 1.000000 0.000000
vn 0.000000 1.000000 0.000000
vn 0.000000 1.000000 0.000000
vn -0.000000 -1.000000 -0.000000
vn -0.000000 -1.000000 -0.000000
vn -0.000000 -1.000000 -0.000000
vn -0.000000 -1.000000 -0.000000
vn 0.856878 -0.481545 0.184051
vn 0.856878 -0.481545 0.184051
vn 0.856878 -0.481545 0.184051
vn 0.856878 -0.481545 0.184051
vn 0.856877 0.481547 0.184050
vn 0.856877 0.481547 0.184050
vn 0.856877 0.481547 0.184050
vn 0.856877 0.481547 0.184050
vn -0.000000 1.000000 -0.000000
vn -0.000000 1.000000 -0.000000
vn -0.000000 1.000000 -0.000000
vn -0.000000 1.000000 -0.000000
vn -0.923433 -0.383758 0.000000
vn -0.923433 -0.383758 0.000000
vn -0.923434 -0.383758 0.000000
vn -0.923434 -0.383758 0.000000
vn -0.923435 0.383756 0.000000
vn -0.923435 0.383756 0.000000
vn -0.923435 0.383756 0.000000
vn -0.923434 0.383756 0.000000
vn -0.923433 -0.383758 0.000000
vn -0.923433 -0.383758 0.000000
vn -0.923433 -0.383758 0.000000
vn -0.923433 -0.383758 0.000000
vn -0.923434 0.383756 0.000000
vn -0.923435 0.383756 0.000000
vn -0.923435 0.383756 0.000000
vn -0.923435 0.383756 0.000000
vn 0.000000 1.000000 0.000000
vn 0.000000 1.000000 0.000000
vn 0.000000 1.000000 0.000000
vn 0.000000 -1.000000 0.000000
vn 0.000000 -1.000000 0.000000
vn 0.000000 -1.000000 0.000000
vn 0.000000 -1.000000 0.000000
vn 0.000000 -1.000000 0.000000
vn 0.000000 -1.000000 0.000000
vn 0.000000 -1.000000 0.000000
s off
f 9/15/1 32/49/2 33/50/3 4/4/4
f 23/40/5 24/41/6 25/42/7 22/39/8
f 21/38/9 22/39/10 25/42/11
f 25/42/12 24/41/13 26/43/14 27/44/15
f 30/47/16 27/44/17 26/43/18 29/46/19
f 26/43/20 28/45/21 29/46/22
f 33/50/23 36/53/24 8/11/25 6/12/26
f 33/50/27 6/12/28 4/4/29
f 34/51/30 7/13/31 1/1/32
f 31/48/33 32/49/34 9/15/35 3/3/36
f 3/3/37 9/15/38 12/19/39 11/18/40
f 9/15/41 4/4/42 13/20/43 12/19/44
f 4/4/45 6/6/46 14/21/47 13/20/48
f 5/5/49 3/3/50 11/18/51 15/22/52
f 6/6/53 8/8/54 16/23/55 14/21/56
f 7/7/57 5/5/58 15/22/59 17/24/60
f 8/8/61 2/10/62 18/25/63 16/23/64
f 2/10/65 10/17/66 19/26/67 18/25/68
f 10/17/69 1/9/70 20/27/71 19/26/72
f 1/9/73 7/7/74 17/24/75 20/27/76
f 11/18/77 12/19/78 22/29/79 21/28/80
f 12/19/81 13/20/82 23/30/83 22/29/84
f 13/20/85 14/21/86 24/31/87 23/30/88
f 15/22/89 11/18/90 21/28/91 25/32/92
f 14/21/93 16/23/94 26/33/95 24/31/96
f 17/24/97 15/22/98 25/32/99 27/34/100
f 16/23/101 18/25/102 28/35/103 26/33/104
f 18/25/105 19/26/106 29/36/107 28/35/108
f 19/26/109 20/27/110 30/37/111 29/36/112
f 20/27/113 17/24/114 27/34/115 30/37/116
f 34/54/117 35/55/118 32/56/119 31/57/120
f 33/58/121 32/56/122 35/55/123 36/59/124
f 1/1/125 10/16/126 35/52/127 34/51/128
f 36/53/129 35/52/130 10/16/131 2/2/132
f 36/53/133 2/2/134 8/11/135
f 5/14/136 31/48/137 3/3/138
f 5/14/139 7/13/140 34/51/141 31/48/142
