# This file uses centimeters as units for non-parametric coordinates.

v 5.271118 0.000000 -5.271152
v -0.000031 0.000000 -7.454536
v -5.271179 0.000000 -5.271152
v -7.454567 0.000000 0.000000
v -5.271179 0.000000 5.271152
v -0.000031 0.000000 7.454536
v 5.271118 0.000000 5.271153
v 7.454506 0.000000 0.000000
v 2.884796 22.467299 -2.884825
v -0.000031 22.467299 -4.079761
v -2.884857 22.467299 -2.884825
v -4.079796 22.467299 0.000000
v -2.884857 22.467299 2.884825
v -0.000031 22.467299 4.079761
v 2.884796 22.467299 2.884825
v 3.889989 22.898094 0.000000
v 7.488945 13.997852 -7.488975
v 10.591043 13.876086 0.000000
v 7.488945 13.997852 7.488978
v -0.000031 13.202513 10.591010
v -7.489006 13.997852 7.488975
v -10.591042 13.997852 0.000000
v -7.489006 13.997852 -7.488975
v -0.000031 13.997852 -10.591010
v 1.612793 22.467299 -1.612825
v -0.000031 22.467299 -2.280880
v -1.612854 22.467299 -1.612825
v -2.280914 22.467299 0.000000
v -1.612854 22.467299 1.612825
v -0.000031 22.467299 2.280880
v 1.612793 22.467299 1.612825
v 2.280853 22.467299 0.000000
v 6.056564 14.419525 -6.056597
v -0.000031 14.419525 -8.565326
v -6.056625 14.419525 -6.056597
v -8.565353 14.419525 0.000000
v -6.056625 14.419525 6.056597
v -0.000031 14.419525 8.565326
v 6.056564 14.419525 6.056597
v 8.565292 14.419525 0.000000
v -0.000031 1.791407 0.000000
v -0.000031 0.000000 0.000000
v 6.657883 18.016979 -6.657913
v -0.000031 18.016979 -9.415715
v -6.657944 18.016979 -6.657913
v -9.415741 18.016979 0.000000
v -6.657944 18.016979 6.657913
v -0.000031 18.016979 9.415715
v 6.657883 18.016979 6.657916
v 9.415680 18.016979 0.000000
v -0.000031 35.924305 -3.886237
v 2.723953 35.924305 -2.747983
v -0.000031 35.924305 -2.530445
v 1.773636 35.924305 -1.789293
v -2.724014 35.924305 -2.747983
v -1.773697 35.924305 -1.789293
v -3.852333 35.924305 0.000000
v -2.508377 35.924305 0.000000
v -2.724014 35.924305 2.747983
v -1.773697 35.924305 1.789293
v -0.000031 35.924305 3.886237
v -0.000031 35.924305 2.530445
v 2.723953 35.924305 2.747983
v 1.773636 35.924305 1.789293
v 3.852272 35.924305 0.000000
v 2.508316 35.924305 0.000000
v -0.000031 27.164497 -3.065213
v -2.158516 27.164497 -2.167432
v -3.052597 27.164497 0.000000
v -2.158516 27.164497 2.167432
v -0.000031 27.164497 3.065213
v 2.158455 27.164497 2.167432
v 3.052536 27.164497 0.000000
v 2.158455 27.164497 -2.167432
v -0.000031 34.032921 -3.708965
v 2.601853 34.032921 -2.622633
v 3.679596 34.032921 0.000000
v 2.601853 34.032921 2.622633
v -0.000031 34.032921 3.708965
v -2.601914 34.032921 2.622633
v -3.679657 34.032921 0.000000
v -2.601914 34.032921 -2.622633
v -0.000031 31.302443 -3.453047
v -2.425645 31.302443 -2.441672
v -3.430375 31.302443 0.000000
v -2.425645 31.185551 2.441672
v -0.000031 31.302443 3.453047
v 2.425584 31.302443 2.441672
v 3.430314 31.302443 0.000000
v 2.425584 31.302443 -2.441672
vt 0.102047 0.352336
vt 0.101937 0.352341
vt 0.101939 0.352632
vt 0.102093 0.352633
vt 0.101824 0.352337
vt 0.101782 0.352632
vt 0.101768 0.352325
vt 0.101699 0.352634
vt 0.101806 0.352312
vt 0.101750 0.352635
vt 0.101924 0.352636
vt 0.101926 0.352306
vt 0.102050 0.352311
vt 0.102103 0.352636
vt 0.102097 0.352323
vt 0.102167 0.352634
vt 0.102141 0.352723
vt 0.101566 0.351463
vt 0.101674 0.351567
vt 0.102077 0.351617
vt 0.102471 0.351564
vt 0.102566 0.351459
vt 0.102379 0.351377
vt 0.102060 0.351348
vt 0.102295 0.352909
vt 0.102013 0.352937
vt 0.102579 0.352935
vt 0.102741 0.353008
vt 0.102652 0.353099
vt 0.102309 0.353144
vt 0.101960 0.353102
vt 0.101860 0.353012
vt 0.102076 0.352717
vt 0.101996 0.352816
vt 0.102022 0.352821
vt 0.102083 0.352730
vt 0.101995 0.352826
vt 0.101929 0.352828
vt 0.101925 0.352732
vt 0.101865 0.352826
vt 0.101772 0.352729
vt 0.101725 0.352722
vt 0.101842 0.352821
vt 0.101798 0.352716
vt 0.101872 0.352816
vt 0.101938 0.352715
vt 0.101935 0.352814
vt 0.101968 0.352818
vt 0.101933 0.352817
vt 0.101938 0.352641
vt 0.102064 0.352642
vt 0.101898 0.352818
vt 0.101809 0.352642
vt 0.101882 0.352821
vt 0.101744 0.352643
vt 0.101895 0.352824
vt 0.101787 0.352645
vt 0.101930 0.352825
vt 0.101925 0.352646
vt 0.101744 0.351379
vt 0.101967 0.352824
vt 0.102069 0.352645
vt 0.101982 0.352821
vt 0.102122 0.352643
vt 0.101932 0.352364
vt 0.101932 0.352324
vt 0.101978 0.352928
vt 0.102294 0.352897
vt 0.102295 0.352909
vt 0.102013 0.352937
vt 0.102613 0.352925
vt 0.102579 0.352935
vt 0.102800 0.353008
vt 0.102741 0.353008
vt 0.102706 0.353112
vt 0.102652 0.353099
vt 0.102311 0.353166
vt 0.102309 0.353144
vt 0.101908 0.353116
vt 0.101960 0.353102
vt 0.101800 0.353012
vt 0.101860 0.353012
vt 0.102294 0.352897
vt 0.102379 0.351377
vt 0.102566 0.351459
vt 0.102471 0.351564
vt 0.102077 0.351617
vt 0.101674 0.351567
vt 0.101566 0.351463
vt 0.101744 0.351379
vt 0.101978 0.352928
vt 0.102060 0.351348
vt 0.101800 0.353012
vt 0.101908 0.353116
vt 0.102311 0.353166
vt 0.102706 0.353112
vt 0.102800 0.353008
vt 0.102613 0.352925
vt 0.236989 0.107638
vt 0.236837 0.107653
vt 0.236752 0.107693
vt 0.236804 0.107743
vt 0.236997 0.107767
vt 0.237186 0.107741
vt 0.237231 0.107691
vt 0.237141 0.107651
vt 0.236989 0.107638
vt 0.102613 0.352925
vt 0.102800 0.353008
vt 0.102706 0.353112
vt 0.102311 0.353166
vt 0.101908 0.353116
vt 0.101800 0.353012
vt 0.101978 0.352928
vt 0.236837 0.107653
vt 0.102294 0.352897
vt 0.236752 0.107693
vt 0.236804 0.107743
vt 0.236997 0.107767
vt 0.237186 0.107741
vt 0.237231 0.107691
vt 0.237141 0.107651
vt 0.102613 0.352925
vt 0.102294 0.352897
vt 0.102800 0.353008
vt 0.102706 0.353112
vt 0.102311 0.353166
vt 0.101908 0.353116
vt 0.101800 0.353012
vt 0.101978 0.352928
vn 0.374738 -0.202714 -0.904698
vn 0.374738 -0.202714 -0.904698
vn 0.374738 -0.202714 -0.904698
vn 0.374738 -0.202714 -0.904698
vn -0.374738 -0.202714 -0.904698
vn -0.374738 -0.202714 -0.904698
vn -0.374738 -0.202714 -0.904698
vn -0.374738 -0.202714 -0.904698
vn -0.904698 -0.202714 -0.374738
vn -0.904698 -0.202714 -0.374738
vn -0.904698 -0.202714 -0.374738
vn -0.904698 -0.202714 -0.374738
vn -0.904698 -0.202714 0.374738
vn -0.904698 -0.202714 0.374738
vn -0.904698 -0.202714 0.374738
vn -0.904698 -0.202714 0.374738
vn -0.385341 -0.208373 0.898940
vn -0.385341 -0.208373 0.898940
vn -0.385341 -0.208373 0.898940
vn -0.385341 -0.208373 0.898940
vn 0.385341 -0.208373 0.898940
vn 0.385341 -0.208373 0.898940
vn 0.385341 -0.208373 0.898940
vn 0.385341 -0.208373 0.898940
vn 0.903845 -0.203565 0.376332
vn 0.903845 -0.203565 0.376332
vn 0.903845 -0.203565 0.376332
vn 0.903845 -0.203565 0.376332
vn 0.903845 -0.203565 -0.376332
vn 0.903845 -0.203565 -0.376332
vn 0.903845 -0.203565 -0.376332
vn 0.903845 -0.203565 -0.376332
vn 0.621778 0.732104 -0.278236
vn 0.621778 0.732104 -0.278236
vn 0.621778 0.732104 -0.278236
vn 0.621778 0.732104 -0.278236
vn 0.621778 0.732104 0.278236
vn 0.621778 0.732104 0.278236
vn 0.621778 0.732104 0.278236
vn 0.621778 0.732104 0.278236
vn 0.256432 0.742281 0.619081
vn 0.256432 0.742281 0.619081
vn 0.256432 0.742281 0.619081
vn 0.256432 0.742281 0.619081
vn -0.256432 0.742281 0.619081
vn -0.256432 0.742281 0.619081
vn -0.256432 0.742281 0.619081
vn -0.256432 0.742281 0.619081
vn -0.619081 0.742281 0.256432
vn -0.619081 0.742281 0.256432
vn -0.619081 0.742281 0.256432
vn -0.619081 0.742281 0.256432
vn -0.619081 0.742281 -0.256432
vn -0.619081 0.742281 -0.256432
vn -0.619081 0.742281 -0.256432
vn -0.619081 0.742281 -0.256432
vn -0.256432 0.742281 -0.619081
vn -0.256432 0.742281 -0.619081
vn -0.256432 0.742281 -0.619081
vn -0.256432 0.742281 -0.619081
vn 0.256432 0.742281 -0.619081
vn 0.256432 0.742281 -0.619081
vn 0.256432 0.742281 -0.619081
vn 0.256432 0.742281 -0.619081
vn 0.000000 1.000000 0.000000
vn 0.000000 1.000000 0.000000
vn 0.000000 1.000000 0.000000
vn 0.000000 1.000000 0.000000
vn 0.000000 1.000000 0.000000
vn 0.000000 1.000000 0.000000
vn 0.000000 1.000000 0.000000
vn 0.000000 1.000000 0.000000
vn 0.000000 1.000000 0.000000
vn 0.000000 1.000000 0.000000
vn 0.000000 1.000000 0.000000
vn 0.000000 1.000000 0.000000
vn 0.000000 1.000000 0.000000
vn 0.000000 1.000000 0.000000
vn 0.000000 1.000000 0.000000
vn 0.000000 1.000000 0.000000
vn 0.000000 1.000000 0.000000
vn 0.000000 1.000000 0.000000
vn 0.000000 1.000000 0.000000
vn 0.000000 1.000000 0.000000
vn 0.000000 1.000000 0.000000
vn 0.000000 1.000000 0.000000
vn 0.000000 1.000000 0.000000
vn 0.000000 1.000000 0.000000
vn 0.000000 1.000000 0.000000
vn 0.000000 1.000000 0.000000
vn 0.000000 1.000000 0.000000
vn 0.000000 1.000000 0.000000
vn 0.000000 1.000000 0.000000
vn 0.000000 1.000000 0.000000
vn 0.000000 1.000000 0.000000
vn 0.000000 1.000000 0.000000
vn -0.310348 -0.585079 0.749244
vn -0.310348 -0.585079 0.749244
vn -0.310348 -0.585079 0.749244
vn -0.310348 -0.585079 0.749244
vn 0.310348 -0.585079 0.749244
vn 0.310348 -0.585079 0.749244
vn 0.310348 -0.585079 0.749244
vn 0.310348 -0.585079 0.749244
vn 0.749244 -0.585079 0.310348
vn 0.749244 -0.585079 0.310348
vn 0.749244 -0.585079 0.310348
vn 0.749244 -0.585079 0.310348
vn 0.749244 -0.585079 -0.310348
vn 0.749244 -0.585079 -0.310348
vn 0.749244 -0.585079 -0.310348
vn 0.749244 -0.585079 -0.310348
vn 0.310348 -0.585079 -0.749244
vn 0.310348 -0.585079 -0.749244
vn 0.310348 -0.585079 -0.749244
vn 0.310348 -0.585079 -0.749244
vn -0.310348 -0.585079 -0.749244
vn -0.310348 -0.585079 -0.749244
vn -0.310348 -0.585079 -0.749244
vn -0.310348 -0.585079 -0.749244
vn -0.749244 -0.585079 -0.310348
vn -0.749244 -0.585079 -0.310348
vn -0.749244 -0.585079 -0.310348
vn -0.749244 -0.585079 -0.310348
vn -0.749244 -0.585079 0.310348
vn -0.749244 -0.585079 0.310348
vn -0.749244 -0.585079 0.310348
vn -0.749244 -0.585079 0.310348
vn -0.324276 0.531000 0.782869
vn -0.324276 0.531000 0.782869
vn -0.324276 0.531000 0.782869
vn 0.324276 0.531000 0.782869
vn 0.324276 0.531000 0.782869
vn 0.324276 0.531000 0.782869
vn 0.782869 0.531000 0.324276
vn 0.782869 0.531000 0.324276
vn 0.782869 0.531000 0.324276
vn 0.782869 0.531000 -0.324276
vn 0.782869 0.531000 -0.324276
vn 0.782869 0.531000 -0.324276
vn 0.324276 0.531000 -0.782869
vn 0.324276 0.531000 -0.782869
vn 0.324276 0.531000 -0.782869
vn -0.324276 0.531000 -0.782869
vn -0.324276 0.531000 -0.782869
vn -0.324276 0.531000 -0.782869
vn -0.782869 0.531000 -0.324276
vn -0.782869 0.531000 -0.324276
vn -0.782869 0.531000 -0.324276
vn -0.782869 0.531000 0.324276
vn -0.782869 0.531000 0.324276
vn -0.782869 0.531000 0.324276
vn 0.000000 -1.000000 0.000000
vn 0.000000 -1.000000 0.000000
vn 0.000000 -1.000000 0.000000
vn 0.000000 -1.000000 0.000000
vn 0.000000 -1.000000 0.000000
vn 0.000000 -1.000000 0.000000
vn 0.000000 -1.000000 0.000000
vn 0.000000 -1.000000 0.000000
vn 0.000000 -1.000000 0.000000
vn 0.000000 -1.000000 0.000000
vn 0.000000 -1.000000 0.000000
vn 0.000000 -1.000000 0.000000
vn 0.000000 -1.000000 0.000000
vn 0.000000 -1.000000 0.000000
vn 0.000000 -1.000000 0.000000
vn 0.000000 -1.000000 0.000000
vn 0.000000 -1.000000 0.000000
vn 0.000000 -1.000000 0.000000
vn 0.000000 -1.000000 0.000000
vn 0.000000 -1.000000 0.000000
vn 0.000000 -1.000000 0.000000
vn 0.000000 -1.000000 0.000000
vn 0.000000 -1.000000 0.000000
vn 0.000000 -1.000000 0.000000
vn 0.369439 0.260816 -0.891903
vn 0.369438 0.260816 -0.891903
vn 0.369439 0.260816 -0.891903
vn 0.369439 0.260816 -0.891903
vn -0.369438 0.260815 -0.891903
vn -0.369439 0.260815 -0.891903
vn -0.369439 0.260815 -0.891903
vn -0.369439 0.260816 -0.891903
vn -0.891903 0.260816 -0.369438
vn -0.891903 0.260816 -0.369438
vn -0.891903 0.260816 -0.369438
vn -0.891903 0.260816 -0.369438
vn -0.891903 0.260816 0.369438
vn -0.891903 0.260816 0.369438
vn -0.891903 0.260816 0.369438
vn -0.891903 0.260816 0.369438
vn -0.360135 0.238715 0.901842
vn -0.360135 0.238715 0.901842
vn -0.360135 0.238715 0.901841
vn -0.360135 0.238715 0.901842
vn 0.360134 0.238715 0.901842
vn 0.360134 0.238715 0.901842
vn 0.360134 0.238715 0.901842
vn 0.360134 0.238715 0.901842
vn 0.893581 0.257189 0.367923
vn 0.893581 0.257189 0.367923
vn 0.893581 0.257189 0.367923
vn 0.893581 0.257189 0.367923
vn 0.893581 0.257189 -0.367923
vn 0.893581 0.257189 -0.367923
vn 0.893581 0.257189 -0.367923
vn 0.893581 0.257189 -0.367923
vn 0.383647 -0.085942 -0.919472
vn 0.383647 -0.085942 -0.919472
vn 0.383647 -0.085942 -0.919472
vn 0.383647 -0.085942 -0.919472
vn -0.384135 0.016908 0.923122
vn -0.384135 0.016908 0.923122
vn -0.384135 0.016908 0.923122
vn -0.384135 0.016908 0.923122
vn -0.383647 -0.085942 -0.919472
vn -0.383647 -0.085942 -0.919472
vn -0.383647 -0.085942 -0.919472
vn -0.383647 -0.085942 -0.919472
vn 0.384135 0.016908 0.923122
vn 0.384135 0.016908 0.923122
vn 0.384135 0.016908 0.923122
vn 0.384135 0.016908 0.923122
vn -0.921562 -0.084371 -0.378952
vn -0.921562 -0.084371 -0.378952
vn -0.921562 -0.084371 -0.378952
vn -0.921562 -0.084371 -0.378952
vn 0.924383 0.015836 0.381136
vn 0.924383 0.015836 0.381136
vn 0.924383 0.015836 0.381136
vn 0.924383 0.015836 0.381136
vn -0.922368 -0.082614 0.377377
vn -0.922368 -0.082614 0.377377
vn -0.922368 -0.082613 0.377377
vn -0.922368 -0.082614 0.377377
vn 0.924383 0.015836 -0.381136
vn 0.924383 0.015836 -0.381136
vn 0.924383 0.015836 -0.381136
vn 0.924383 0.015836 -0.381136
vn -0.382038 -0.084155 0.920307
vn -0.382038 -0.084155 0.920307
vn -0.382038 -0.084155 0.920307
vn -0.382038 -0.084155 0.920307
vn 0.384135 0.016908 -0.923122
vn 0.384135 0.016908 -0.923122
vn 0.384135 0.016908 -0.923122
vn 0.384135 0.016908 -0.923122
vn 0.383647 -0.085942 0.919472
vn 0.383647 -0.085942 0.919472
vn 0.383647 -0.085942 0.919472
vn 0.383647 -0.085942 0.919472
vn -0.384135 0.016908 -0.923122
vn -0.384135 0.016908 -0.923122
vn -0.384135 0.016908 -0.923122
vn -0.384135 0.016908 -0.923122
vn 0.921562 -0.084371 0.378952
vn 0.921562 -0.084371 0.378952
vn 0.921562 -0.084371 0.378952
vn 0.921562 -0.084371 0.378952
vn -0.924383 0.015836 -0.381136
vn -0.924383 0.015836 -0.381136
vn -0.924383 0.015836 -0.381136
vn -0.924383 0.015836 -0.381136
vn 0.921562 -0.084371 -0.378952
vn 0.921562 -0.084371 -0.378952
vn 0.921562 -0.084371 -0.378952
vn 0.921562 -0.084371 -0.378952
vn -0.924383 0.015836 0.381136
vn -0.924383 0.015836 0.381136
vn -0.924383 0.015836 0.381136
vn -0.924383 0.015836 0.381136
vn -0.375826 0.196035 -0.905718
vn -0.375827 0.196035 -0.905718
vn -0.375826 0.196035 -0.905718
vn -0.375826 0.196035 -0.905718
vn -0.905880 0.197693 -0.374565
vn -0.905880 0.197693 -0.374565
vn -0.905880 0.197693 -0.374565
vn -0.905880 0.197693 -0.374565
vn -0.905880 0.197693 0.374565
vn -0.905880 0.197693 0.374565
vn -0.905880 0.197693 0.374565
vn -0.905880 0.197693 0.374565
vn -0.375827 0.196035 0.905718
vn -0.375826 0.196035 0.905718
vn -0.375826 0.196035 0.905718
vn -0.375826 0.196035 0.905718
vn 0.375826 0.196035 0.905718
vn 0.375827 0.196035 0.905718
vn 0.375826 0.196035 0.905718
vn 0.375826 0.196035 0.905718
vn 0.913919 0.188224 0.359615
vn 0.913919 0.188224 0.359615
vn 0.913919 0.188224 0.359615
vn 0.913919 0.188224 0.359615
vn 0.913919 0.188224 -0.359616
vn 0.913919 0.188224 -0.359616
vn 0.913919 0.188224 -0.359616
vn 0.913919 0.188224 -0.359616
vn 0.375827 0.196035 -0.905718
vn 0.375826 0.196035 -0.905718
vn 0.375826 0.196035 -0.905718
vn 0.375826 0.196035 -0.905718
vn 0.383997 -0.085941 -0.919326
vn 0.383997 -0.085941 -0.919326
vn 0.383997 -0.085941 -0.919326
vn 0.383997 -0.085941 -0.919326
vn 0.921705 -0.084371 -0.378604
vn 0.921705 -0.084371 -0.378604
vn 0.921705 -0.084371 -0.378604
vn 0.921705 -0.084371 -0.378604
vn 0.921705 -0.084371 0.378604
vn 0.921705 -0.084371 0.378604
vn 0.921705 -0.084371 0.378604
vn 0.921705 -0.084371 0.378604
vn 0.383997 -0.085941 0.919326
vn 0.383997 -0.085941 0.919326
vn 0.383997 -0.085941 0.919326
vn 0.383997 -0.085941 0.919326
vn -0.383997 -0.085941 0.919326
vn -0.383997 -0.085941 0.919326
vn -0.383997 -0.085941 0.919326
vn -0.383997 -0.085941 0.919326
vn -0.921705 -0.084371 0.378604
vn -0.921705 -0.084371 0.378604
vn -0.921705 -0.084371 0.378604
vn -0.921705 -0.084371 0.378604
vn -0.921705 -0.084371 -0.378604
vn -0.921705 -0.084371 -0.378604
vn -0.921705 -0.084371 -0.378604
vn -0.921705 -0.084371 -0.378604
vn -0.383997 -0.085941 -0.919326
vn -0.383997 -0.085941 -0.919326
vn -0.383997 -0.085941 -0.919326
vn -0.383997 -0.085941 -0.919326
vn -0.383041 -0.085942 -0.919725
vn -0.383041 -0.085942 -0.919725
vn -0.383041 -0.085942 -0.919725
vn -0.383041 -0.085942 -0.919725
vn -0.921315 -0.084372 -0.379554
vn -0.921315 -0.084372 -0.379554
vn -0.921315 -0.084372 -0.379554
vn -0.921315 -0.084372 -0.379554
vn -0.921983 -0.085570 0.377659
vn -0.921983 -0.085570 0.377659
vn -0.921983 -0.085570 0.377659
vn -0.921983 -0.085570 0.377659
vn -0.381105 -0.087166 0.920413
vn -0.381105 -0.087166 0.920413
vn -0.381105 -0.087166 0.920413
vn -0.381105 -0.087166 0.920413
vn 0.383041 -0.085942 0.919725
vn 0.383041 -0.085942 0.919725
vn 0.383041 -0.085942 0.919725
vn 0.383041 -0.085942 0.919725
vn 0.921315 -0.084372 0.379554
vn 0.921315 -0.084372 0.379554
vn 0.921315 -0.084372 0.379554
vn 0.921315 -0.084372 0.379554
vn 0.921315 -0.084372 -0.379554
vn 0.921315 -0.084372 -0.379554
vn 0.921315 -0.084372 -0.379554
vn 0.921315 -0.084372 -0.379554
vn 0.383041 -0.085942 -0.919725
vn 0.383041 -0.085942 -0.919725
vn 0.383041 -0.085942 -0.919725
vn 0.383041 -0.085942 -0.919725
s off
f 1/1/1 2/2/2 24/3/3 17/4/4
f 2/2/5 3/5/6 23/6/7 24/3/8
f 3/5/9 4/7/10 22/8/11 23/6/12
f 4/7/13 5/9/14 21/10/15 22/8/16
f 20/11/17 21/10/18 5/9/19 6/12/20
f 20/11/21 6/12/22 7/13/23 19/14/24
f 7/13/25 8/15/26 18/16/27 19/14/28
f 8/15/29 1/1/30 17/4/31 18/16/32
f 50/17/33 43/33/34 9/34/35 16/35/36
f 49/36/37 50/17/38 16/35/39 15/37/40
f 14/38/41 48/39/42 49/36/43 15/37/44
f 48/39/45 14/38/46 13/40/47 47/41/48
f 46/42/49 47/41/50 13/40/51 12/43/52
f 45/44/53 46/42/54 12/43/55 11/45/56
f 44/46/57 45/44/58 11/45/59 10/47/60
f 43/33/61 44/46/62 10/47/63 9/34/64
f 52/67/65 51/68/66 53/69/67 54/70/68
f 51/68/69 55/71/70 56/72/71 53/69/72
f 55/71/73 57/73/74 58/74/75 56/72/76
f 57/73/77 59/75/78 60/76/79 58/74/80
f 59/75/81 61/77/82 62/78/83 60/76/84
f 61/77/85 63/79/86 64/80/87 62/78/88
f 63/79/89 65/81/90 66/82/91 64/80/92
f 65/81/93 52/67/94 54/70/95 66/82/96
f 25/48/97 26/49/98 34/50/99 33/51/100
f 26/49/101 27/52/102 35/53/103 34/50/104
f 27/52/105 28/54/106 36/55/107 35/53/108
f 28/54/109 29/56/110 37/57/111 36/55/112
f 29/56/113 30/58/114 38/59/115 37/57/116
f 30/58/117 31/61/118 39/62/119 38/59/120
f 31/61/121 32/63/122 40/64/123 39/62/124
f 32/63/125 25/48/126 33/51/127 40/64/128
f 33/51/129 34/50/130 41/65/131
f 34/50/132 35/53/133 41/65/134
f 35/53/135 36/55/136 41/65/137
f 36/55/138 37/57/139 41/65/140
f 37/57/141 38/59/142 41/65/143
f 38/59/144 39/62/145 41/65/146
f 39/62/147 40/64/148 41/65/149
f 40/64/150 33/51/151 41/65/152
f 1/1/153 8/15/154 42/66/155
f 8/15/156 7/13/157 42/66/158
f 7/13/159 6/12/160 42/66/161
f 6/12/162 5/9/163 42/66/164
f 5/9/165 4/7/166 42/66/167
f 4/7/168 3/5/169 42/66/170
f 3/5/171 2/2/172 42/66/173
f 2/2/174 1/1/175 42/66/176
f 17/4/177 24/3/178 44/46/179 43/33/180
f 24/3/181 23/6/182 45/44/183 44/46/184
f 23/6/185 22/8/186 46/42/187 45/44/188
f 22/8/189 21/10/190 47/41/191 46/42/192
f 20/11/193 48/39/194 47/41/195 21/10/196
f 48/39/197 20/11/198 19/14/199 49/36/200
f 19/14/201 18/16/202 50/17/203 49/36/204
f 18/16/205 17/4/206 43/33/207 50/17/208
f 90/115/209 83/107/210 75/99/211 76/100/212
f 26/25/213 25/26/214 54/70/215 53/69/216
f 83/107/217 84/122/218 82/106/219 75/99/220
f 27/27/221 26/25/222 53/69/223 56/72/224
f 84/122/225 85/121/226 81/105/227 82/106/228
f 28/28/229 27/27/230 56/72/231 58/74/232
f 85/121/233 86/120/234 80/104/235 81/105/236
f 29/29/237 28/28/238 58/74/239 60/76/240
f 86/120/241 87/119/242 79/103/243 80/104/244
f 30/30/245 29/29/246 60/76/247 62/78/248
f 87/119/249 88/118/250 78/102/251 79/103/252
f 31/31/253 30/30/254 62/78/255 64/80/256
f 88/118/257 89/117/258 77/101/259 78/102/260
f 32/32/261 31/31/262 64/80/263 66/82/264
f 89/117/265 90/115/266 76/100/267 77/101/268
f 25/26/269 32/32/270 66/82/271 54/70/272
f 10/24/273 11/23/274 68/84/275 67/92/276
f 11/23/277 12/22/278 69/85/279 68/84/280
f 12/22/281 13/21/282 70/86/283 69/85/284
f 13/21/285 14/20/286 71/87/287 70/86/288
f 14/20/289 15/19/290 72/88/291 71/87/292
f 15/19/293 16/18/294 73/89/295 72/88/296
f 16/18/297 9/60/298 74/90/299 73/89/300
f 9/60/301 10/24/302 67/92/303 74/90/304
f 76/130/305 75/124/306 51/68/307 52/67/308
f 77/129/309 76/130/310 52/67/311 65/81/312
f 78/128/313 77/129/314 65/81/315 63/79/316
f 79/127/317 78/128/318 63/79/319 61/77/320
f 80/126/321 79/127/322 61/77/323 59/75/324
f 81/125/325 80/126/326 59/75/327 57/73/328
f 82/123/329 81/125/330 57/73/331 55/71/332
f 75/124/333 82/123/334 55/71/335 51/68/336
f 67/83/337 68/98/338 84/108/339 83/116/340
f 68/98/341 69/97/342 85/109/343 84/108/344
f 69/97/345 70/96/346 86/110/347 85/109/348
f 70/96/349 71/95/350 87/111/351 86/110/352
f 71/95/353 72/94/354 88/112/355 87/111/356
f 72/94/357 73/93/358 89/113/359 88/112/360
f 73/93/361 74/91/362 90/114/363 89/113/364
f 74/91/365 67/83/366 83/116/367 90/114/368
