# This file uses centimeters as units for non-parametric coordinates.

v -35.722107 47.585037 0.495361
v -35.722107 -47.585037 0.495361
v 35.722107 47.585037 0.495361
v 35.722107 -47.585037 0.495361
v 12.870300 -47.585037 0.495361
v 22.494507 -42.733009 0.495361
v 30.976929 -31.706657 0.495361
v 35.722107 -17.931141 0.495361
v 32.331360 -27.774715 0.495361
v 33.217529 -28.794134 0.495361
v 26.300781 -37.785252 0.495361
v 29.090820 -34.158493 0.495361
v 28.518005 -44.942497 0.495361
v 26.731384 -40.613132 0.495361
v 28.143311 -40.142719 0.495361
v 16.848389 47.585037 0.495361
v 21.727844 47.585037 0.495361
v 19.082214 36.316326 0.495361
v 20.921753 36.680298 0.495361
v 21.918457 24.463177 0.495361
v 19.353760 29.165237 0.495361
v 21.919678 29.666868 0.495361
v 16.539124 42.846268 0.495361
v 16.848389 44.468788 0.495361
v 7.870056 47.585037 0.495361
v 21.727844 42.716667 0.495361
v 26.743164 45.726215 0.495361
vt 0.008645 0.990442
vt 0.007466 0.009708
vt 0.992277 0.990332
vt 0.057899 0.230730
vt 0.678082 0.009558
vt 0.810844 0.059534
vt 0.927772 0.173148
vt 0.993088 0.315107
vt 0.946415 0.213667
vt 0.958658 0.203158
vt 0.057899 0.230730
vt 0.057899 0.230730
vt 0.057899 0.230730
vt 0.057899 0.230730
vt 0.057899 0.230730
vt 0.057899 0.230730
vt 0.863312 0.110515
vt 0.057899 0.230730
vt 0.901772 0.147885
vt 0.057899 0.230730
vt 0.057899 0.230730
vt 0.057899 0.230730
vt 0.057899 0.230730
vt 0.057899 0.230730
vt 0.057899 0.230730
vt 0.057899 0.230730
vt 0.057899 0.230730
vt 0.057899 0.230730
vt 0.057899 0.230730
vt 0.057899 0.230730
vt 0.758176 0.864379
vt 0.816375 0.876877
vt 0.802444 0.752057
vt 0.767081 0.800522
vt 0.824330 0.808974
vt 0.747414 0.941545
vt 0.057899 0.230730
vt 0.057899 0.230730
vt 0.057899 0.230730
vt 0.057899 0.230730
vt 0.057899 0.230730
vt 0.057899 0.230730
vt 0.884850 0.974715
vt 0.806253 0.963288
vt 0.608815 0.990375
vt 0.745083 0.958259
vn -0.000000 0.000000 1.000000
vn -0.000000 0.000000 1.000000
vn -0.000000 0.000000 1.000000
vn -0.000000 0.000000 1.000000
vn -0.000000 0.000000 1.000000
vn -0.000000 0.000000 1.000000
vn -0.000000 0.000000 1.000000
vn -0.000000 0.000000 1.000000
vn -0.000000 0.000000 1.000000
vn -0.000000 0.000000 1.000000
vn -0.000000 0.000000 1.000000
vn -0.000000 0.000000 1.000000
vn -0.000000 0.000000 1.000000
vn -0.000000 0.000000 1.000000
vn -0.000000 0.000000 1.000000
vn -0.000000 0.000000 1.000000
vn -0.000000 0.000000 1.000000
vn -0.000000 0.000000 1.000000
vn -0.000000 0.000000 1.000000
vn -0.000000 0.000000 1.000000
vn -0.000000 0.000000 1.000000
vn -0.000000 0.000000 1.000000
vn -0.000000 0.000000 1.000000
vn -0.000000 0.000000 1.000000
vn -0.000000 0.000000 1.000000
vn -0.000000 0.000000 1.000000
vn -0.000000 0.000000 1.000000
vn -0.000000 0.000000 1.000000
vn -0.000000 0.000000 1.000000
vn -0.000000 0.000000 1.000000
vn -0.000000 0.000000 1.000000
vn -0.000000 0.000000 1.000000
vn -0.000000 0.000000 1.000000
vn -0.000000 0.000000 1.000000
vn -0.000000 0.000000 1.000000
vn -0.000000 0.000000 1.000000
vn -0.000000 0.000000 1.000000
vn -0.000000 0.000000 1.000000
vn -0.000000 0.000000 1.000000
vn -0.000000 0.000000 1.000000
vn -0.000000 0.000000 1.000000
vn -0.000000 0.000000 1.000000
vn -0.000000 0.000000 1.000000
vn -0.000000 0.000000 1.000000
vn -0.000000 0.000000 1.000000
vn -0.000000 0.000000 1.000000
vn -0.000000 0.000000 1.000000
vn -0.000000 0.000000 1.000000
vn -0.000000 0.000000 1.000000
vn -0.000000 0.000000 1.000000
vn -0.000000 0.000000 1.000000
vn -0.000000 0.000000 1.000000
vn -0.000000 0.000000 1.000000
vn -0.000000 0.000000 1.000000
vn -0.000000 0.000000 1.000000
vn -0.000000 0.000000 1.000000
vn -0.000000 0.000000 1.000000
vn -0.000000 0.000000 1.000000
vn -0.000000 0.000000 1.000000
vn -0.000000 0.000000 1.000000
vn -0.000000 0.000000 1.000000
vn -0.000000 0.000000 1.000000
vn -0.000000 0.000000 1.000000
vn -0.000000 0.000000 1.000000
vn -0.000000 0.000000 1.000000
vn -0.000000 0.000000 1.000000
vn -0.000000 0.000000 1.000000
vn -0.000000 0.000000 1.000000
vn -0.000000 0.000000 1.000000
vn -0.000000 0.000000 1.000000
vn -0.000000 0.000000 1.000000
vn -0.000000 0.000000 1.000000
vn -0.000000 0.000000 1.000000
vn -0.000000 0.000000 1.000000
vn -0.000000 0.000000 1.000000
vn -0.000000 0.000000 1.000000
vn -0.000000 0.000000 1.000000
vn -0.000000 0.000000 1.000000
vn -0.000000 0.000000 1.000000
vn -0.000000 0.000000 1.000000
vn -0.000000 0.000000 1.000000
vn -0.000000 0.000000 1.000000
vn -0.000000 0.000000 1.000000
vn -0.000000 0.000000 1.000000
vn -0.000000 0.000000 1.000000
vn -0.000000 0.000000 1.000000
vn -0.000000 0.000000 1.000000
vn -0.000000 0.000000 1.000000
vn -0.000000 0.000000 1.000000
vn -0.000000 0.000000 1.000000
vn -0.000000 0.000000 1.000000
vn -0.000000 0.000000 1.000000
vn -0.000000 0.000000 1.000000
vn -0.000000 0.000000 1.000000
vn -0.000000 0.000000 1.000000
vn -0.000000 0.000000 1.000000
vn -0.000000 0.000000 1.000000
vn -0.000000 0.000000 1.000000
vn -0.000000 0.000000 1.000000
vn -0.000000 0.000000 1.000000
vn -0.000000 0.000000 1.000000
s off
f 17/4/1 16/11/2 24/12/3 26/13/4
f 4/14/5 8/15/6 9/16/7 10/18/8
f 10/10/9 9/9/10 7/7/11
f 4/14/12 13/20/13 6/21/14 5/22/15
f 14/23/16 15/24/17 12/25/18 11/26/19
f 4/14/20 10/18/21 7/27/22
f 6/21/23 14/23/24 11/26/25
f 15/24/26 7/27/27 12/25/28
f 13/20/29 14/23/30 6/21/31
f 13/20/32 15/24/33 14/23/34
f 4/14/35 15/24/36 13/20/37
f 4/14/38 7/27/39 15/24/40
f 20/33/41 5/5/42 6/6/43 11/17/44
f 17/4/45 27/28/46 3/29/47
f 19/30/48 18/37/49 21/38/50 22/39/51
f 20/33/52 11/17/53 12/19/54
f 22/39/55 21/38/56 20/40/57
f 9/9/58 20/33/59 12/19/60 7/7/61
f 8/8/62 20/33/63 9/9/64
f 20/33/65 2/2/66 5/5/67
f 1/1/68 20/33/69 21/34/70 18/31/71 23/36/72 24/46/73 25/45/74
f 1/1/75 2/2/76 20/33/77
f 3/3/78 20/33/79 8/8/80
f 19/30/81 23/41/82 18/37/83
f 25/42/84 24/12/85 16/11/86
f 3/3/87 27/43/88 26/44/89 19/32/90 22/35/91 20/33/92
f 26/13/93 24/12/94 23/41/95
f 26/13/96 23/41/97 19/30/98
f 17/4/99 26/13/100 27/28/101
