# This file uses centimeters as units for non-parametric coordinates.

v -11.126282 0.000000 16.863770
v 10.655426 0.000000 16.710815
v -11.126282 0.000000 -16.863770
v 11.126282 0.000000 -16.863770
v 11.320251 0.000000 7.633240
v 3.770630 0.000000 16.206604
v 2.763855 0.443506 16.651733
v 11.130127 0.443506 6.040283
v 1.156982 0.000000 16.863770
v 11.126282 0.000000 3.608704
v -11.126282 1.000000 -16.863770
v 11.126282 1.000000 -16.863770
v -11.126282 1.000000 16.863770
v 1.026855 1.000000 16.763733
v 10.996155 1.000000 3.508667
v 3.963989 1.000000 16.367004
v 11.513611 1.000000 7.793640
v 10.655426 1.000000 16.710815
v 2.829346 1.529440 16.715332
v 11.195618 1.529441 6.103821
vt 0.343524 0.353642
vt 0.343524 0.390364
vt 0.367752 0.353642
vt 0.367752 0.390364
vt 0.367752 0.363552
vt 0.360236 0.353642
vt 0.358643 0.353642
vt 0.367752 0.365196
vt 0.356898 0.353642
vt 0.367752 0.368074
vt 0.367752 0.390364
vt 0.343524 0.390364
vt 0.343524 0.353642
vt 0.356898 0.353642
vt 0.367752 0.368074
vt 0.367752 0.363552
vt 0.360236 0.353642
vt 0.367752 0.353642
vt 0.367752 0.365196
vt 0.358643 0.353642
vt 0.367752 0.390364
vt 0.343524 0.390364
vt 0.343524 0.353642
vt 0.356898 0.353642
vt 0.367752 0.368074
vt 0.360236 0.353642
vt 0.367752 0.353642
vt 0.367752 0.363552
vt 0.358643 0.353642
vt 0.367752 0.365196
vn -0.000000 1.000000 -0.000000
vn -0.000000 1.000000 -0.000000
vn -0.000000 1.000000 -0.000000
vn -0.000000 1.000000 -0.000000
vn -0.000000 1.000000 -0.000000
vn -0.000000 1.000000 -0.000000
vn -0.000000 1.000000 -0.000000
vn 0.000000 1.000000 0.000000
vn 0.000000 1.000000 0.000000
vn 0.000000 1.000000 0.000000
vn 0.363725 0.881278 0.301750
vn 0.363725 0.881278 0.301750
vn 0.363725 0.881278 0.301750
vn 0.363725 0.881278 0.301750
vn -0.253467 0.947542 -0.194727
vn -0.253467 0.947542 -0.194727
vn -0.253467 0.947542 -0.194727
vn -0.253467 0.947542 -0.194727
vn 0.000000 -1.000000 0.000000
vn 0.000000 -1.000000 0.000000
vn 0.000000 -1.000000 0.000000
vn 0.000000 -1.000000 0.000000
vn 0.000000 -1.000000 0.000000
vn 0.000000 -1.000000 0.000000
vn 0.000000 -1.000000 0.000000
vn 0.000000 -1.000000 0.000000
vn 0.000000 -1.000000 0.000000
vn 0.000000 -1.000000 0.000000
vn -0.363724 -0.881279 -0.301748
vn -0.363724 -0.881279 -0.301748
vn -0.363724 -0.881279 -0.301748
vn -0.363724 -0.881279 -0.301748
vn 0.253467 -0.947542 0.194728
vn 0.253467 -0.947542 0.194728
vn 0.253467 -0.947542 0.194728
vn 0.253467 -0.947542 0.194728
vn -0.000000 0.000000 -1.000000
vn -0.000000 0.000000 -1.000000
vn -0.000000 0.000000 -1.000000
vn -0.000000 0.000000 -1.000000
vn -1.000000 0.000000 0.000000
vn -1.000000 0.000000 0.000000
vn -1.000000 0.000000 0.000000
vn -1.000000 0.000000 0.000000
vn 0.004086 0.050194 0.998731
vn 0.004086 0.050194 0.998731
vn 0.004086 0.050194 0.998731
vn 0.004086 0.050194 0.998731
vn 0.997874 0.065092 0.003179
vn 0.997874 0.065092 0.003179
vn 0.997874 0.065092 0.003179
vn 0.997874 0.065092 0.003179
vn -0.062176 -0.073812 0.995332
vn -0.062176 -0.073812 0.995332
vn -0.062176 -0.073812 0.995332
vn -0.062176 -0.073812 0.995332
vn 0.991185 -0.102546 0.083890
vn 0.991185 -0.102546 0.083890
vn 0.991185 -0.102546 0.083890
vn 0.991185 -0.102546 0.083890
vn 0.288581 -0.137531 0.947526
vn 0.288581 -0.137531 0.947526
vn 0.288581 -0.137531 0.947526
vn 0.288581 -0.137531 0.947526
vn 0.978086 -0.101860 -0.181581
vn 0.978086 -0.101860 -0.181581
vn 0.978086 -0.101860 -0.181581
vn 0.978086 -0.101860 -0.181581
vn 0.070592 0.019606 0.997313
vn 0.070592 0.019606 0.997313
vn 0.070592 0.019606 0.997313
vn 0.070592 0.019606 0.997313
vn 0.998476 0.030150 -0.046221
vn 0.998476 0.030150 -0.046221
vn 0.998476 0.030150 -0.046221
vn 0.998476 0.030150 -0.046221
s off
f 12/21/1 11/22/2 15/25/3
f 11/22/4 13/23/5 14/24/6 15/25/7
f 17/28/8 16/26/9 18/27/10
f 20/30/11 19/29/12 16/26/13 17/28/14
f 15/25/15 14/24/16 19/29/17 20/30/18
f 4/11/19 10/15/20 3/12/21
f 9/14/22 1/13/23 3/12/24 10/15/25
f 5/16/26 2/18/27 6/17/28
f 8/19/29 5/16/30 6/17/31 7/20/32
f 10/15/33 8/19/34 7/20/35 9/14/36
f 4/4/37 3/2/38 11/22/39 12/21/40
f 3/2/41 1/1/42 13/23/43 11/22/44
f 1/1/45 9/9/46 14/24/47 13/23/48
f 10/10/49 4/4/50 12/21/51 15/25/52
f 6/6/53 2/3/54 18/27/55 16/26/56
f 2/3/57 5/5/58 17/28/59 18/27/60
f 7/7/61 6/6/62 16/26/63 19/29/64
f 5/5/65 8/8/66 20/30/67 17/28/68
f 9/9/69 7/7/70 19/29/71 14/24/72
f 8/8/73 10/10/74 15/25/75 20/30/76
