# This file uses centimeters as units for non-parametric coordinates.

v -6.775543 0.438686 -14.498580
v 0.945313 0.438686 18.368595
v -20.130844 0.438686 22.785446
v -27.336052 0.438686 -5.288753
v -22.645981 0.438686 -10.203123
v -12.186310 0.438686 20.711548
v -21.255417 0.438686 18.477501
v -6.190399 0.438686 -12.336661
v -26.222458 0.438686 -1.174347
v -8.975098 0.920699 20.355274
v -21.978958 0.920699 16.375933
v -4.759369 0.438686 19.653896
v -22.803055 0.438686 14.205363
v -5.663361 0.944781 -11.196736
v -25.930481 0.944781 -0.599570
v -5.414841 0.438686 -9.860368
v -25.799164 0.438686 0.907423
v 13.801514 0.241741 8.399814
v -1.659256 0.241741 24.404236
v 38.058899 0.241741 31.833199
v 22.351883 0.241741 47.035717
v 30.284058 0.241741 39.471424
v 19.507431 0.241741 44.052917
v 32.374313 0.751768 37.717686
v 18.175262 0.751768 43.564976
v 34.642761 0.241741 35.369473
v 17.109787 0.241741 42.535698
v -21.045288 0.241741 41.621803
v -10.288025 0.241741 22.142124
v -50.570023 0.241741 25.317364
v -41.399170 0.241741 8.710401
v -36.632973 0.241741 7.593661
v 13.845764 0.241741 -30.246742
v 24.044434 0.241741 -10.468888
v 43.822418 0.241741 -45.704556
v 54.021103 0.241741 -25.926701
v -2.449081 0.421467 -2.652676
v 8.521881 0.421467 -33.400318
v 29.527863 0.421467 -26.056965
v 20.002335 0.421467 1.191266
v 15.890778 0.421467 4.904745
v -0.342117 0.421467 -7.355150
v 7.771011 0.421467 1.926474
v -0.195190 0.842182 -8.464750
v 10.436890 0.842182 2.998161
v 0.233444 0.421467 -9.690902
v 12.843796 0.421467 3.839571
v 2.341125 0.241741 -9.340055
v -36.769226 0.241741 1.119104
v -28.765495 0.241741 -19.644249
v -9.969757 0.241741 10.114661
v -2.734680 0.241741 6.793496
v -21.037766 0.241741 -16.744015
v -35.455017 0.241741 1.636059
v -20.265839 0.517724 -16.588184
v -34.388962 0.517724 2.296380
v -18.853516 0.241741 -16.008141
v -33.074432 0.241741 2.845656
v -9.194839 0.241741 -42.006390
v -25.098022 0.241741 -57.571266
v -31.606216 0.241741 -18.015713
v -48.689209 0.241741 -33.467319
v -47.601326 0.723192 -32.402573
v -11.280045 0.723192 -39.875866
v -45.968536 0.241741 -31.101833
v -12.925476 0.241741 -38.518250
v -11.805756 0.509606 -23.014965
v 5.628342 0.509606 -9.956708
v 8.602554 0.509606 -49.867245
v 26.319031 0.509606 -36.402348
v 11.650467 0.509606 -16.781593
v 0.452118 0.509606 -14.524089
v -0.618805 0.953112 -14.778903
v 12.462982 0.953112 -18.164871
v -2.026382 0.509606 -15.582421
v 13.931259 0.509606 -20.103127
vt 0.343524 0.314849
vt 0.343524 0.351571
vt 0.367752 0.351571
vt 0.367752 0.318679
vt 0.361425 0.314849
vt 0.358812 0.351571
vt 0.367752 0.346724
vt 0.343524 0.317287
vt 0.367752 0.323320
vt 0.354892 0.351571
vt 0.367752 0.344232
vt 0.349891 0.351571
vt 0.367752 0.341466
vt 0.343524 0.318500
vt 0.367752 0.324249
vt 0.343524 0.320065
vt 0.367752 0.326624
vt 0.401619 0.351571
vt 0.389685 0.351571
vt 0.401619 0.347084
vt 0.386299 0.351571
vt 0.401619 0.344876
vt 0.382744 0.351571
vt 0.401619 0.343263
vt 0.377391 0.351571
vt 0.377391 0.314849
vt 0.401619 0.314849
vt 0.333783 0.347616
vt 0.330210 0.351571
vt 0.309554 0.351571
vt 0.309554 0.314849
vt 0.333783 0.314849
vt 0.333783 0.390364
vt 0.309554 0.390364
vt 0.309554 0.353642
vt 0.333783 0.353642
vt 0.299710 0.351571
vt 0.275482 0.351571
vt 0.275482 0.324224
vt 0.293304 0.314849
vt 0.296819 0.314849
vt 0.299710 0.320143
vt 0.287675 0.314849
vt 0.275482 0.320459
vt 0.275482 0.314849
vt 0.290528 0.314849
vt 0.275482 0.322810
vt 0.401619 0.390364
vt 0.377391 0.390364
vt 0.377391 0.388786
vt 0.401619 0.381048
vt 0.377391 0.388003
vt 0.401619 0.379506
vt 0.377391 0.386443
vt 0.401619 0.377834
vt 0.377391 0.360071
vt 0.383204 0.353642
vt 0.401619 0.353642
vt 0.299710 0.390364
vt 0.298053 0.390364
vt 0.275482 0.356888
vt 0.275482 0.353642
vt 0.296637 0.390364
vt 0.275482 0.360165
vt 0.299710 0.353642
vt 0.275482 0.390364
vt 0.367752 0.390364
vt 0.343524 0.390364
vt 0.343524 0.353642
vt 0.356898 0.353642
vt 0.367752 0.368074
vt 0.367752 0.363552
vt 0.360236 0.353642
vt 0.367752 0.353642
vt 0.367752 0.365196
vt 0.358643 0.353642
vn 0.000000 1.000000 0.000000
vn 0.000000 1.000000 0.000000
vn 0.000000 1.000000 0.000000
vn -0.081907 0.953218 0.290974
vn -0.081907 0.953218 0.290974
vn -0.081907 0.953218 0.290974
vn -0.081907 0.953218 0.290974
vn 0.000000 1.000000 0.000000
vn 0.000000 1.000000 0.000000
vn 0.000000 1.000000 0.000000
vn 0.000000 1.000000 0.000000
vn 0.000000 1.000000 0.000000
vn 0.000000 1.000000 0.000000
vn 0.000000 1.000000 0.000000
vn 0.072642 0.968243 -0.239223
vn 0.072642 0.968243 -0.239223
vn 0.072642 0.968243 -0.239223
vn 0.072642 0.968243 -0.239223
vn 0.000000 1.000000 0.000000
vn 0.000000 1.000000 0.000000
vn 0.000000 1.000000 0.000000
vn 0.000000 1.000000 0.000000
vn 0.000000 1.000000 0.000000
vn 0.000000 1.000000 0.000000
vn 0.000000 1.000000 0.000000
vn -0.223576 0.882361 -0.414069
vn -0.223576 0.882361 -0.414069
vn -0.223576 0.882361 -0.414069
vn -0.223576 0.882361 -0.414069
vn 0.163646 0.936091 0.311372
vn 0.163646 0.936091 0.311372
vn 0.163646 0.936091 0.311372
vn 0.163646 0.936091 0.311372
vn 0.000000 1.000000 0.000000
vn 0.000000 1.000000 0.000000
vn 0.000000 1.000000 0.000000
vn 0.191867 0.867207 0.459498
vn 0.191867 0.867207 0.459498
vn 0.191867 0.867207 0.459498
vn 0.191867 0.867207 0.459498
vn -0.135484 0.934080 -0.330362
vn -0.135484 0.934080 -0.330362
vn -0.135484 0.934080 -0.330362
vn -0.135484 0.934080 -0.330362
vn 0.000000 1.000000 0.000000
vn 0.000000 1.000000 0.000000
vn 0.000000 1.000000 0.000000
vn 0.000000 1.000000 0.000000
vn 0.000000 1.000000 0.000000
vn 0.000000 1.000000 0.000000
vn 0.000000 1.000000 0.000000
vn 0.000000 1.000000 0.000000
vn 0.000000 1.000000 0.000000
vn 0.000000 1.000000 0.000000
vn 0.000000 1.000000 0.000000
vn 0.000000 1.000000 0.000000
vn 0.000000 1.000000 0.000000
vn 0.000000 1.000000 0.000000
vn 0.000000 1.000000 0.000000
vn 0.000000 1.000000 0.000000
vn 0.000000 1.000000 0.000000
vn 0.000000 1.000000 0.000000
vn 0.000000 1.000000 0.000000
vn 0.000000 1.000000 0.000000
vn 0.000000 1.000000 0.000000
vn 0.000000 1.000000 0.000000
vn 0.000000 1.000000 0.000000
vn 0.000000 1.000000 0.000000
vn 0.000000 1.000000 0.000000
vn 0.000000 1.000000 0.000000
vn 0.000000 1.000000 0.000000
vn 0.000000 1.000000 0.000000
vn 0.000000 1.000000 0.000000
vn -0.274563 0.929011 0.248101
vn -0.274563 0.929011 0.248101
vn -0.274563 0.929011 0.248101
vn -0.274563 0.929011 0.248101
vn 0.247934 0.940940 -0.230565
vn 0.247934 0.940940 -0.230565
vn 0.247934 0.940940 -0.230565
vn 0.247934 0.940940 -0.230565
vn 0.000000 1.000000 0.000000
vn 0.000000 1.000000 0.000000
vn 0.000000 1.000000 0.000000
vn 0.000000 1.000000 0.000000
vn -0.215669 0.962394 -0.165178
vn -0.215669 0.962394 -0.165178
vn -0.215669 0.962394 -0.165178
vn -0.215669 0.962394 -0.165178
vn 0.151594 0.981863 0.113857
vn 0.151594 0.981863 0.113857
vn 0.151594 0.981863 0.113857
vn 0.151594 0.981863 0.113857
vn 0.000000 1.000000 0.000000
vn 0.000000 1.000000 0.000000
vn 0.000000 1.000000 0.000000
vn 0.000000 1.000000 0.000000
vn 0.000000 1.000000 0.000000
vn 0.000000 1.000000 0.000000
vn 0.000000 1.000000 0.000000
vn -0.064711 0.949703 -0.306393
vn -0.064711 0.949703 -0.306393
vn -0.064711 0.949703 -0.306393
vn -0.064711 0.949703 -0.306393
vn 0.072976 0.937603 0.339963
vn 0.072976 0.937603 0.339963
vn 0.072976 0.937603 0.339963
vn 0.072976 0.937603 0.339963
vn 0.000000 1.000000 0.000000
vn 0.000000 1.000000 0.000000
vn 0.000000 1.000000 0.000000
vn 0.000000 1.000000 0.000000
vn 0.000000 1.000000 0.000000
vn 0.000000 1.000000 0.000000
vn 0.000000 1.000000 0.000000
vn 0.000000 1.000000 0.000000
vn 0.000000 1.000000 0.000000
vn 0.000000 1.000000 0.000000
vn 0.000000 1.000000 0.000000
vn 0.000000 1.000000 0.000000
vn 0.000000 1.000000 0.000000
vn 0.000000 1.000000 0.000000
vn 0.000000 1.000000 0.000000
vn 0.000000 1.000000 0.000000
vn 0.106994 0.881279 0.460326
vn 0.106994 0.881279 0.460326
vn 0.106994 0.881279 0.460326
vn 0.106994 0.881279 0.460326
vn -0.083971 0.947542 -0.308405
vn -0.083971 0.947542 -0.308405
vn -0.083971 0.947542 -0.308405
vn -0.083971 0.947542 -0.308405
s off
f 3/3/1 6/6/2 7/7/3
f 7/7/4 6/6/5 10/10/6 11/11/7
f 9/9/8 8/8/9 4/4/10
f 5/5/11 4/4/12 8/8/13 1/1/14
f 11/11/15 10/10/16 12/12/17 13/13/18
f 2/2/19 16/16/20 17/17/21 12/12/22
f 13/13/23 12/12/24 17/17/25
f 15/15/26 14/14/27 8/8/28 9/9/29
f 17/17/30 16/16/31 14/14/32 15/15/33
f 21/18/34 22/19/35 23/20/36
f 23/20/37 22/19/38 24/21/39 25/22/40
f 25/22/41 24/21/42 26/23/43 27/24/44
f 20/25/45 18/26/46 26/23/47
f 27/24/48 26/23/49 18/26/50 19/27/51
f 30/30/52 28/31/53 31/29/54
f 32/28/55 31/29/56 28/31/57 29/32/58
f 36/33/59 35/34/60 33/35/61 34/36/62
f 40/42/63 39/37/64 38/38/65 41/41/66
f 47/40/67 41/41/68 38/38/69 46/39/70
f 43/43/71 42/44/72 37/45/73
f 45/46/74 44/47/75 42/44/76 43/43/77
f 47/40/78 46/39/79 44/47/80 45/46/81
f 50/48/82 49/49/83 54/50/84 53/51/85
f 53/51/86 54/50/87 56/52/88 55/53/89
f 55/53/90 56/52/91 58/54/92 57/55/93
f 58/54/94 51/56/95 57/55/96
f 57/55/97 51/56/98 52/57/99 48/58/100
f 62/59/101 63/60/102 64/61/103 59/62/104
f 64/61/105 63/60/106 65/63/107 66/64/108
f 62/59/109 59/62/110 60/65/111
f 66/64/112 65/63/113 61/66/114
f 70/67/115 69/68/116 76/71/117
f 69/68/118 67/69/119 75/70/120 76/71/121
f 71/72/122 72/73/123 68/74/124
f 74/75/125 73/76/126 72/73/127 71/72/128
f 76/71/129 75/70/130 73/76/131 74/75/132
