# This file uses centimeters as units for non-parametric coordinates.

v 0.295288 0.000000 -211.347931
v -81.894775 0.000001 -205.853302
v 0.295288 4.078682 -211.347931
v -81.894775 4.078682 -205.853302
v -1.684692 4.078682 -115.360855
v -77.784912 4.078682 -115.377945
v -77.784912 0.000000 -115.377945
v -1.684692 0.000000 -115.360855
v 0.295288 0.000000 -57.688904
v -77.784912 0.000000 -57.688904
v 0.295288 4.078682 -57.688904
v -77.784912 4.078682 -57.688904
v -0.740845 4.078682 -0.481537
v -77.784912 4.078682 -0.000092
v -77.784912 0.000000 -0.000092
v -0.740845 0.000000 -0.481537
v 0.295288 0.000000 57.688934
v -71.823486 9.793109 51.287079
v 0.295288 4.078682 57.688934
v -71.823486 13.871792 51.287079
v 2.275269 4.078682 115.360657
v -77.784912 4.078682 115.377747
v -77.784912 0.000000 115.377747
v 2.275269 0.000000 115.360657
v 0.295288 0.000000 211.347900
v -77.784912 0.000000 211.347900
v 0.295288 4.078682 211.347900
v -77.784912 4.078682 211.347900
v 78.375488 0.000000 -211.347931
v 78.375488 4.078682 -211.347931
v 78.375488 4.078682 -115.377945
v 78.375488 0.000000 -115.377945
v 72.414063 9.793109 -51.287292
v 72.414063 13.871792 -51.287292
v 78.375488 4.078682 -0.000092
v 78.375488 0.000000 -0.000092
v 78.375427 0.000000 57.688934
v 78.375427 4.078682 57.688934
v 78.375427 4.078682 115.377747
v 78.375427 0.000000 115.377747
v 81.893982 0.000001 206.814209
v 81.893982 4.078682 206.814209
vt 0.436506 0.115140
vt 0.498595 0.115140
vt 0.498595 0.115140
vt 0.436506 0.115140
vt 0.069718 0.303006
vt 0.069534 0.302999
vt 0.436506 0.190496
vt 0.498595 0.190496
vt 0.498595 0.190496
vt 0.069565 0.302896
vt 0.069777 0.302905
vt 0.498595 0.190496
vt 0.069821 0.302828
vt 0.069589 0.302818
vt 0.498595 0.143675
vt 0.436506 0.143675
vt 0.436506 0.190496
vt 0.498595 0.190496
vt 0.498595 0.143675
vt 0.069618 0.302721
vt 0.069876 0.302734
vt 0.069945 0.302617
vt 0.498595 0.190496
vt 0.498595 0.143675
vt 0.498595 0.190496
vt 0.436506 0.190496
vt 0.436506 0.143675
vt 0.498595 0.143675
vt 0.069655 0.302600
vt 0.069702 0.302443
vt 0.070033 0.302465
vt 0.498595 0.190496
vt 0.498595 0.143675
vt 0.498595 0.190496
vt 0.436506 0.190496
vt 0.436506 0.143675
vt 0.498595 0.143675
vt 0.070253 0.302087
vt 0.498595 0.190496
vt 0.069822 0.302047
vt 0.069346 0.302992
vt 0.498595 0.143675
vt 0.436506 0.143675
vt 0.436506 0.190496
vt 0.498595 0.190496
vt 0.498595 0.143675
vt 0.436506 0.115140
vt 0.498595 0.115140
vt 0.498595 0.115140
vt 0.436506 0.115140
vt 0.069349 0.302887
vt 0.069350 0.302806
vt 0.069353 0.302707
vt 0.498595 0.190496
vt 0.498595 0.190496
vt 0.436506 0.190496
vt 0.436506 0.115140
vt 0.436506 0.115140
vt 0.498595 0.115140
vt 0.498595 0.115140
vt 0.069355 0.302582
vt 0.498595 0.190496
vt 0.069359 0.302419
vt 0.069368 0.302006
vt 0.436506 0.190496
vt 0.498595 0.190496
vt 0.436506 0.190496
vt 0.498595 0.190496
vt 0.498595 0.190496
vt 0.498595 0.190496
vt 0.498595 0.143675
vt 0.436506 0.143675
vt 0.436506 0.190496
vt 0.498595 0.190496
vt 0.498595 0.143675
vt 0.436506 0.115140
vt 0.498595 0.115140
vt 0.498595 0.115140
vt 0.498595 0.190496
vt 0.498595 0.143675
vt 0.498595 0.190496
vt 0.436506 0.190496
vt 0.436506 0.143675
vt 0.498595 0.143675
vt 0.436506 0.115140
vt 0.498595 0.143675
vt 0.498595 0.190496
vt 0.498595 0.190496
vt 0.498595 0.143675
vt 0.498595 0.190496
vt 0.436506 0.190496
vt 0.436506 0.143675
vt 0.498595 0.143675
vt 0.436506 0.190496
vt 0.498595 0.190496
vt 0.436506 0.143675
vt 0.498595 0.143675
vn -0.066704 0.000000 -0.997773
vn -0.066704 0.000000 -0.997773
vn -0.066704 0.000000 -0.997773
vn -0.066704 0.000000 -0.997773
vn -0.000000 -1.000000 -0.000000
vn -0.000000 -1.000000 -0.000000
vn -0.000000 -1.000000 -0.000000
vn -0.000000 -1.000000 -0.000000
vn 0.000000 1.000000 0.000000
vn 0.000000 1.000000 0.000000
vn 0.000000 1.000000 0.000000
vn 0.000000 1.000000 0.000000
vn -0.998970 0.000000 0.045378
vn -0.998970 0.000000 0.045378
vn -0.998970 0.000000 0.045378
vn -0.998970 0.000000 0.045378
vn 0.000000 -1.000000 0.000000
vn 0.000000 -1.000000 0.000000
vn 0.000000 -1.000000 0.000000
vn 0.000000 -1.000000 0.000000
vn 0.000000 1.000000 0.000000
vn 0.000000 1.000000 0.000000
vn 0.000000 1.000000 0.000000
vn 0.000000 1.000000 0.000000
vn -1.000000 0.000000 0.000000
vn -1.000000 0.000000 0.000000
vn -1.000000 0.000000 0.000000
vn -1.000000 0.000000 0.000000
vn -0.051326 -0.996263 0.069468
vn -0.078761 -0.991178 0.106600
vn 0.000000 -1.000000 0.000000
vn 0.149378 0.967889 -0.202178
vn 0.051326 0.996263 -0.069468
vn 0.078761 0.991178 -0.106600
vn -0.993312 0.000000 0.115459
vn -0.993312 0.000000 0.115459
vn -0.993312 0.000000 0.115459
vn -0.993312 0.000000 0.115459
vn 0.000000 -1.000000 0.000000
vn 0.000000 -1.000000 0.000000
vn 0.000000 -1.000000 0.000000
vn 0.000000 -1.000000 0.000000
vn 0.000000 1.000000 0.000000
vn 0.000000 1.000000 0.000000
vn 0.000000 1.000000 0.000000
vn 0.000000 1.000000 0.000000
vn -1.000000 0.000000 0.000000
vn -1.000000 0.000000 0.000000
vn -1.000000 0.000000 0.000000
vn -1.000000 0.000000 0.000000
vn -0.069203 -0.993196 -0.093664
vn -0.052367 -0.996109 -0.070877
vn 0.000000 -1.000000 0.000000
vn 0.118780 0.979819 0.160766
vn 0.069203 0.993196 0.093664
vn 0.052367 0.996109 0.070877
vn -0.995702 0.000000 -0.092616
vn -0.995702 0.000000 -0.092616
vn -0.995702 0.000000 -0.092616
vn -0.995702 0.000000 -0.092616
vn 0.000000 0.000000 1.000000
vn 0.000000 0.000000 1.000000
vn 0.000000 0.000000 1.000000
vn 0.000000 0.000000 1.000000
vn 0.000000 -1.000000 0.000000
vn 0.000000 -1.000000 0.000000
vn 0.000000 -1.000000 0.000000
vn 0.000000 -1.000000 0.000000
vn 0.000000 1.000000 0.000000
vn 0.000000 1.000000 0.000000
vn 0.000000 1.000000 0.000000
vn 0.000000 1.000000 0.000000
vn -1.000000 0.000000 0.000000
vn -1.000000 0.000000 0.000000
vn -1.000000 0.000000 0.000000
vn -1.000000 0.000000 0.000000
vn 0.000000 0.000000 -1.000000
vn 0.000000 0.000000 -1.000000
vn 0.000000 0.000000 -1.000000
vn 0.000000 0.000000 -1.000000
vn 0.000000 -1.000000 0.000000
vn 0.000000 -1.000000 0.000000
vn 0.000000 -1.000000 0.000000
vn 0.000000 -1.000000 0.000000
vn 0.000000 1.000000 0.000000
vn 0.000000 1.000000 0.000000
vn 0.000000 1.000000 0.000000
vn 0.000000 1.000000 0.000000
vn 1.000000 0.000000 0.000000
vn 1.000000 0.000000 0.000000
vn 1.000000 0.000000 0.000000
vn 1.000000 0.000000 0.000000
vn 0.149377 -0.967890 -0.202178
vn 0.079118 -0.991097 -0.107085
vn 0.049700 -0.996496 -0.067267
vn -0.079118 0.991097 0.107085
vn -0.049700 0.996496 0.067267
vn 0.000000 1.000000 -0.000000
vn 0.993312 0.000000 -0.115459
vn 0.993312 0.000000 -0.115459
vn 0.993312 0.000000 -0.115459
vn 0.993312 0.000000 -0.115459
vn 0.000000 -1.000000 0.000000
vn 0.000000 -1.000000 0.000000
vn 0.000000 -1.000000 0.000000
vn 0.000000 -1.000000 0.000000
vn 0.000000 1.000000 0.000000
vn 0.000000 1.000000 0.000000
vn 0.000000 1.000000 0.000000
vn 0.000000 1.000000 0.000000
vn 1.000000 0.000000 0.000001
vn 1.000000 0.000000 0.000001
vn 1.000000 0.000000 0.000001
vn 1.000000 0.000000 0.000001
vn 0.118781 -0.979819 0.160766
vn 0.052367 -0.996109 0.070877
vn 0.069203 -0.993196 0.093664
vn -0.052367 0.996109 -0.070877
vn -0.069203 0.993196 -0.093664
vn 0.000000 1.000000 0.000000
vn 0.995702 0.000000 0.092616
vn 0.995702 0.000000 0.092616
vn 0.995702 0.000000 0.092616
vn 0.995702 0.000000 0.092616
vn 0.000000 -1.000000 0.000000
vn 0.000000 -1.000000 0.000000
vn 0.000000 -1.000000 0.000000
vn 0.000000 -1.000000 0.000000
vn 0.000000 1.000000 0.000000
vn 0.000000 1.000000 0.000000
vn 0.000000 1.000000 0.000000
vn 0.000000 1.000000 0.000000
vn 1.000000 0.000000 0.000000
vn 1.000000 0.000000 0.000000
vn 1.000000 0.000000 0.000000
vn 1.000000 0.000000 0.000000
vn 0.055475 0.000000 0.998460
vn 0.055475 0.000000 0.998460
vn 0.055475 0.000000 0.998460
vn 0.055475 0.000000 0.998460
vn 0.000000 -1.000000 0.000000
vn 0.000000 -1.000000 0.000000
vn 0.000000 -1.000000 0.000000
vn 0.000000 -1.000000 0.000000
vn 0.000000 1.000000 0.000000
vn 0.000000 1.000000 0.000000
vn 0.000000 1.000000 0.000000
vn 0.000000 1.000000 0.000000
vn 0.999260 0.000000 -0.038452
vn 0.999260 0.000000 -0.038452
vn 0.999260 0.000000 -0.038452
vn 0.999260 0.000000 -0.038452
vn 0.052367 0.996109 0.070877
vn 0.069203 0.993196 0.093664
vn 0.000000 1.000000 -0.000000
vn 0.078761 0.991178 -0.106600
vn 0.051326 0.996263 -0.069468
vn 0.000000 1.000000 0.000000
vn -0.149377 0.967890 0.202178
vn -0.049700 0.996496 0.067267
vn -0.079118 0.991097 0.107085
vn -0.118781 0.979819 -0.160766
vn -0.069203 0.993196 -0.093664
vn -0.052367 0.996109 -0.070877
vn -0.118780 -0.979819 -0.160766
vn -0.052367 -0.996109 -0.070877
vn -0.069203 -0.993196 -0.093664
vn -0.149378 -0.967889 0.202178
vn -0.078761 -0.991178 0.106600
vn -0.051326 -0.996263 0.069468
vn 0.049700 -0.996496 -0.067267
vn 0.079118 -0.991097 -0.107085
vn 0.000000 -1.000000 0.000000
vn 0.069203 -0.993196 0.093664
vn 0.052367 -0.996109 0.070877
vn 0.000000 -1.000000 0.000000
s off
f 1/1/1 2/2/2 4/3/3 3/4/4
f 2/5/5 1/6/6 8/10/7 7/11/8
f 4/3/9 6/8/10 5/7/11 3/4/12
f 2/2/13 7/9/14 6/8/15 4/3/16
f 10/13/17 9/14/18 16/20/19 15/21/20
f 12/15/21 14/18/22 13/17/23 11/16/24
f 10/19/25 15/12/26 14/18/27 12/15/28
f 17/29/29 15/21/30 16/20/31
f 20/24/32 19/27/33 14/25/34
f 18/28/35 20/24/36 14/25/37 15/23/38
f 10/13/39 7/11/40 8/10/41 9/14/42
f 12/33/43 11/36/44 5/35/45 6/34/46
f 10/37/47 12/33/48 6/34/49 7/32/50
f 23/31/51 17/29/52 24/30/53
f 20/42/54 22/45/55 19/43/56
f 18/46/57 23/39/58 22/45/59 20/42/60
f 25/47/61 27/50/62 28/49/63 26/48/64
f 26/38/65 23/31/66 24/30/67 25/40/68
f 28/49/69 27/50/70 21/56/71 22/55/72
f 26/48/73 28/49/74 22/55/75 23/54/76
f 1/57/77 3/58/78 30/59/79 29/60/80
f 29/41/81 32/51/82 8/10/83 1/6/84
f 30/59/85 3/58/86 5/65/87 31/66/88
f 29/60/89 30/59/90 31/66/91 32/62/92
f 33/52/93 36/53/94 9/14/95
f 35/74/96 11/72/97 13/73/98
f 33/75/99 34/71/100 35/74/101 36/68/102
f 37/61/103 17/29/104 16/20/105 36/53/106
f 38/80/107 35/81/108 13/82/109 19/83/110
f 37/84/111 36/79/112 35/81/113 38/80/114
f 33/52/115 9/14/116 32/51/117
f 11/92/118 31/90/119 5/91/120
f 33/93/121 32/88/122 31/90/123 34/89/124
f 37/61/125 40/63/126 24/30/127 17/29/128
f 38/97/129 19/96/130 21/94/131 39/87/132
f 37/86/133 38/97/134 39/87/135 40/95/136
f 25/85/137 41/78/138 42/77/139 27/76/140
f 41/64/141 25/40/142 24/30/143 40/63/144
f 42/77/145 39/69/146 21/67/147 27/76/148
f 41/78/149 40/70/150 39/69/151 42/77/152
f 19/43/153 22/45/154 21/44/155
f 14/25/156 19/27/157 13/26/158
f 34/71/159 11/72/160 35/74/161
f 34/89/162 31/90/163 11/92/164
f 18/22/165 17/29/166 23/31/167
f 18/22/168 15/21/169 17/29/170
f 9/14/171 36/53/172 16/20/173
f 32/51/174 9/14/175 8/10/176
