# This file uses centimeters as units for non-parametric coordinates.

v -9.770966 13.015812 0.850464
v -9.770981 -13.015810 0.850464
v 9.770966 13.015810 0.850464
v 9.770966 -13.015810 0.850464
v -10.935303 -14.566780 2.179443
v 10.935303 -14.566780 2.179443
v 10.935303 14.566867 2.179443
v -10.935303 14.566867 2.179443
v -14.507065 -17.751902 2.179443
v 14.507080 -17.751902 2.179443
v -14.507065 17.751896 2.179443
v -14.507065 -17.751902 0.000000
v 14.507080 -17.751902 0.000000
v 14.507080 17.751904 0.000000
v -14.507065 17.751904 0.000000
v 12.265686 15.436610 2.179443
v 14.507080 12.426326 2.179443
v 11.065857 17.751896 2.179443
v 14.507080 17.751904 0.929565
v -14.507065 -1.278314 2.179443
v -13.218613 -10.387097 2.179443
v -14.507065 -10.536128 1.210693
vt 0.140660 0.170617
vt 0.141130 0.170551
vt 0.141145 0.170562
vt 0.140669 0.170630
vt 0.140642 0.169917
vt 0.140652 0.169920
vt 0.141146 0.169899
vt 0.141162 0.169902
vt 0.141246 0.170656
vt 0.140547 0.170769
vt 0.140580 0.169851
vt 0.140503 0.169780
vt 0.140894 0.169776
vt 0.141213 0.170481
vt 0.141278 0.169770
vt 0.141261 0.170245
vt 0.141221 0.170636
vt 0.140534 0.170745
vt 0.141241 0.170467
vt 0.141250 0.169768
vt 0.140496 0.169779
vt 0.140528 0.170275
vt 0.017954 0.009132
vt 0.955101 0.009132
vt 0.955101 0.990868
vt 0.017954 0.990868
vn 0.000000 -0.000000 1.000000
vn 0.000000 -0.000000 1.000000
vn 0.000000 -0.000000 1.000000
vn 0.000000 -0.000000 1.000000
vn 0.000000 0.650654 0.759374
vn 0.000000 0.650654 0.759374
vn 0.000000 0.650654 0.759374
vn 0.000000 0.650654 0.759374
vn -0.752153 -0.000001 0.658988
vn -0.752153 -0.000001 0.658988
vn -0.752153 -0.000001 0.658988
vn -0.752153 -0.000001 0.658988
vn -0.000000 -0.650645 0.759382
vn -0.000000 -0.650645 0.759382
vn -0.000000 -0.650645 0.759382
vn -0.000000 -0.650645 0.759382
vn 0.752153 -0.000001 0.658988
vn 0.752153 -0.000001 0.658988
vn 0.752153 -0.000001 0.658988
vn 0.752153 -0.000001 0.658988
vn 0.000000 0.000008 1.000000
vn 0.000000 0.000008 1.000000
vn 0.000000 0.000008 1.000000
vn 0.000000 0.000008 1.000000
vn 0.336176 0.174210 0.925547
vn 0.336176 0.174210 0.925547
vn 0.336176 0.174210 0.925547
vn -0.000005 -0.000000 1.000000
vn -0.000005 -0.000000 1.000000
vn -0.000005 -0.000000 1.000000
vn -0.000005 -0.000000 1.000000
vn -0.000000 -1.000000 0.000000
vn -0.000000 -1.000000 0.000000
vn -0.000000 -1.000000 0.000000
vn -0.000000 -1.000000 0.000000
vn -1.000000 -0.000000 0.000003
vn -1.000000 -0.000000 0.000003
vn -1.000000 -0.000000 0.000003
vn -0.000000 -0.000000 -1.000000
vn -0.000000 -0.000000 -1.000000
vn -0.000000 -0.000000 -1.000000
vn -0.000000 -0.000000 -1.000000
vn 1.000000 0.000000 0.000001
vn 1.000000 0.000000 0.000001
vn 1.000000 0.000000 0.000001
vn 1.000000 0.000000 0.000001
vn 1.000000 0.000000 0.000001
vn -0.000000 1.000000 0.000003
vn -0.000000 1.000000 0.000003
vn -0.000000 1.000000 0.000003
vn -0.000000 1.000000 0.000003
vn -0.000000 1.000000 0.000003
vn 0.000000 0.000007 1.000000
vn 0.000000 0.000007 1.000000
vn 0.000000 0.000007 1.000000
vn 0.000000 0.000007 1.000000
vn 0.000000 0.000007 1.000000
vn -0.000001 -0.000001 1.000000
vn -0.000001 -0.000001 1.000000
vn -0.000001 -0.000001 1.000000
vn -0.000001 -0.000001 1.000000
vn -0.000001 -0.000001 1.000000
vn 0.293370 0.218436 0.930709
vn 0.293370 0.218436 0.930709
vn 0.293370 0.218436 0.930709
vn -0.592648 -0.083831 0.801088
vn -0.592648 -0.083831 0.801088
vn -0.592648 -0.083831 0.801088
vn -1.000000 0.000000 0.000000
vn -1.000000 0.000000 0.000000
vn -1.000000 0.000000 0.000000
vn -0.605393 0.105913 0.788849
vn -0.605393 0.105913 0.788849
vn -0.605393 0.105913 0.788849
vn 0.000007 -0.000000 1.000000
vn 0.000007 -0.000000 1.000000
vn 0.000007 -0.000000 1.000000
vn 0.000005 -0.000001 1.000000
vn 0.000005 -0.000001 1.000000
vn 0.000005 -0.000001 1.000000
vn -1.000000 -0.000000 0.000000
vn -1.000000 -0.000000 0.000000
vn -1.000000 -0.000000 0.000000
vn -1.000000 -0.000000 0.000000
s off
f 2/23/1 4/24/2 3/25/3 1/26/4
f 4/1/5 2/2/6 5/3/7 6/4/8
f 3/5/9 4/1/10 6/4/11 7/6/12
f 1/7/13 3/5/14 7/6/15 8/8/16
f 2/2/17 1/7/18 8/8/19 5/3/20
f 6/4/21 5/3/22 9/9/23 10/10/24
f 16/11/25 19/12/26 18/13/27
f 21/14/28 8/8/29 11/15/30 20/16/31
f 10/10/32 9/9/33 12/17/34 13/18/35
f 12/17/36 22/19/37 15/20/38
f 13/18/39 12/17/40 15/20/41 14/21/42
f 19/12/43 17/22/44 10/10/45 13/18/46 14/21/47
f 11/15/48 18/13/49 19/12/50 14/21/51 15/20/52
f 8/8/53 7/6/54 16/11/55 18/13/56 11/15/57
f 7/6/58 6/4/59 10/10/60 17/22/61 16/11/62
f 17/22/63 19/12/64 16/11/65
f 22/19/66 21/14/67 20/16/68
f 9/9/69 22/19/70 12/17/71
f 9/9/72 21/14/73 22/19/74
f 5/3/75 21/14/76 9/9/77
f 5/3/78 8/8/79 21/14/80
f 15/20/81 22/19/82 20/16/83 11/15/84
