# This file uses centimeters as units for non-parametric coordinates.

v -0.789429 -20.632109 -1.726261
v -1.682465 -20.632187 -0.179466
v -0.789429 -20.632141 1.367325
v 0.996658 -20.632202 1.367325
v 1.889709 -20.632187 -0.179470
v 0.996658 -20.632172 -1.726257
v -1.156403 17.726639 -2.361572
v -2.416458 17.726639 -0.179085
v -1.156403 17.726608 2.003403
v 1.363724 17.726608 2.003395
v 2.623779 17.726639 -0.179092
v 1.363708 17.726639 -2.361580
v -1.006088 5.894058 -2.101311
v -2.115814 5.894059 -0.179203
v -1.006088 5.894028 1.742897
v 1.213379 5.894028 1.742897
v 2.323120 5.894058 -0.179207
v 1.213379 5.894089 -2.101311
v -0.944763 -5.077682 -1.995201
v -1.993179 -5.077713 -0.179314
v -0.944763 -5.077713 1.636574
v 1.152039 -5.077713 1.636570
v 2.200439 -5.077682 -0.179314
v 1.152039 -5.077652 -1.995205
v -1.156433 -15.285202 -2.361900
v -2.416504 -15.285263 -0.179413
v -1.156433 -15.285263 2.003075
v 1.363678 -15.285233 2.003071
v 2.623749 -15.285263 -0.179417
v 1.363678 -15.285172 -2.361900
v -0.944763 -0.982467 -1.995159
v -1.993164 -0.982467 -0.179272
v -0.944763 -0.982498 1.636612
v 1.152039 -0.982498 1.636612
v 2.200455 -0.982437 -0.179276
v 1.152039 -0.982437 -1.995163
v 6.845856 23.625320 -0.179039
v 6.845833 17.822723 -0.179092
v 2.896347 13.719635 -0.179131
v -2.689041 13.719604 -0.179123
v -6.638519 17.822739 -0.179085
v -6.638504 23.625397 -0.179024
v -2.689011 27.728363 -0.178993
v 2.896378 27.728394 -0.178993
v -5.931091 23.321075 -8.248894
v -4.504761 22.707232 -9.496399
v -5.931107 18.127258 -8.248955
v -4.504745 18.740997 -9.496437
v -2.396027 14.454667 -8.248985
v -1.805206 15.936508 -9.496468
v 2.603333 14.454667 -8.248993
v 2.012512 15.936508 -9.496468
v 6.138420 18.127197 -8.248962
v 4.712082 18.741043 -9.496445
v 6.138428 23.321045 -8.248901
v 4.712067 22.707214 -9.496399
v 2.603348 26.993607 -8.248863
v 2.012527 25.511705 -9.496376
v -2.396011 26.993576 -8.248856
v -1.805191 25.511736 -9.496368
v -4.504745 22.707047 9.138329
v -5.931076 23.320923 7.890831
v -4.504730 18.740814 9.138290
v -5.931091 18.127106 7.890785
v -1.805191 15.936325 9.138260
v -2.396027 14.454514 7.890751
v 2.012527 15.936325 9.138260
v 2.603333 14.454514 7.890747
v 4.712090 18.740860 9.138283
v 6.138428 18.127045 7.890785
v 4.712074 22.707031 9.138321
v 6.138435 23.320862 7.890823
v 2.012543 25.511520 9.138351
v 2.603363 26.993423 7.890862
v -1.805176 25.511551 9.138359
v -2.395996 26.993423 7.890862
vt 0.167719 0.111113
vt 0.167718 0.111079
vt 0.167605 0.111077
vt 0.167605 0.111124
vt 0.167718 0.111048
vt 0.167604 0.111033
vt 0.167718 0.111050
vt 0.167603 0.111036
vt 0.167719 0.111084
vt 0.167603 0.111083
vt 0.167719 0.111115
vt 0.167604 0.111128
vt 0.167167 0.111113
vt 0.167170 0.111072
vt 0.166936 0.111069
vt 0.166932 0.111114
vt 0.167167 0.111035
vt 0.166932 0.111027
vt 0.167161 0.111037
vt 0.166923 0.111029
vt 0.167159 0.111077
vt 0.166918 0.111075
vt 0.167162 0.111116
vt 0.166923 0.111118
vt 0.167391 0.111114
vt 0.167392 0.111075
vt 0.167308 0.111074
vt 0.167307 0.111113
vt 0.167391 0.111039
vt 0.167306 0.111038
vt 0.167388 0.111041
vt 0.167303 0.111040
vt 0.167387 0.111080
vt 0.167301 0.111079
vt 0.167388 0.111116
vt 0.167303 0.111115
vt 0.167494 0.130307
vt 0.167191 0.130300
vt 0.167214 0.129871
vt 0.167483 0.129873
vt 0.167740 0.130292
vt 0.167702 0.129868
vt 0.167779 0.130266
vt 0.167738 0.129858
vt 0.167605 0.130245
vt 0.167584 0.129850
vt 0.167327 0.130240
vt 0.167334 0.129848
vt 0.167090 0.130253
vt 0.167123 0.129853
vt 0.167027 0.130277
vt 0.167068 0.129862
vt 0.167335 0.130640
vt 0.167352 0.130713
vt 0.167545 0.130719
vt 0.167587 0.130648
vt 0.167123 0.130659
vt 0.167189 0.130728
vt 0.167664 0.130744
vt 0.167742 0.130678
vt 0.167634 0.130773
vt 0.167706 0.130715
vt 0.167466 0.130790
vt 0.167485 0.130735
vt 0.167261 0.130782
vt 0.167215 0.130726
vt 0.167148 0.130756
vt 0.167067 0.130694
vt 0.167350 0.129790
vt 0.167543 0.129791
vt 0.167188 0.129793
vt 0.167660 0.129796
vt 0.167631 0.129801
vt 0.167464 0.129805
vt 0.167260 0.129803
vt 0.167148 0.129798
vn -0.859967 -0.118053 -0.496508
vn -0.859967 -0.118053 -0.496508
vn -0.859967 -0.118053 -0.496508
vn -0.859967 -0.118053 -0.496508
vn -0.859967 -0.118063 0.496505
vn -0.859967 -0.118063 0.496505
vn -0.859967 -0.118063 0.496505
vn -0.859967 -0.118063 0.496505
vn 0.000000 -0.118068 0.993006
vn 0.000000 -0.118068 0.993006
vn 0.000000 -0.118068 0.993006
vn 0.000000 -0.118068 0.993006
vn 0.859966 -0.118063 0.496507
vn 0.859966 -0.118063 0.496507
vn 0.859966 -0.118063 0.496507
vn 0.859966 -0.118063 0.496507
vn 0.859966 -0.118053 -0.496511
vn 0.859966 -0.118053 -0.496511
vn 0.859965 -0.118053 -0.496511
vn 0.859966 -0.118053 -0.496511
vn 0.000000 -0.118048 -0.993008
vn 0.000000 -0.118048 -0.993008
vn 0.000000 -0.118048 -0.993008
vn 0.000000 -0.118048 -0.993008
vn -0.000000 -1.000000 -0.000011
vn -0.000000 -1.000000 -0.000011
vn -0.000000 -1.000000 -0.000011
vn -0.000009 -1.000000 0.000006
vn -0.000009 -1.000000 0.000006
vn -0.000009 -1.000000 0.000006
vn -0.000009 -1.000000 0.000006
vn -0.000035 -1.000000 -0.000072
vn -0.000035 -1.000000 -0.000072
vn -0.000035 -1.000000 -0.000072
vn -0.865817 -0.021994 -0.499878
vn -0.865817 -0.021994 -0.499878
vn -0.865817 -0.021994 -0.499878
vn -0.865817 -0.021994 -0.499878
vn -0.865816 -0.022004 0.499878
vn -0.865816 -0.022004 0.499878
vn -0.865816 -0.022004 0.499878
vn -0.865816 -0.022004 0.499878
vn 0.000002 -0.022010 0.999758
vn 0.000002 -0.022010 0.999758
vn 0.000002 -0.022010 0.999758
vn 0.000002 -0.022010 0.999758
vn 0.865815 -0.022005 0.499880
vn 0.865815 -0.022005 0.499880
vn 0.865815 -0.022005 0.499880
vn 0.865815 -0.022005 0.499880
vn 0.865814 -0.021995 -0.499883
vn 0.865814 -0.021995 -0.499883
vn 0.865814 -0.021995 -0.499883
vn 0.865814 -0.021995 -0.499883
vn -0.000001 -0.021990 -0.999758
vn -0.000001 -0.021990 -0.999758
vn -0.000001 -0.021990 -0.999758
vn -0.000001 -0.021990 -0.999758
vn -0.866024 0.000007 -0.500002
vn -0.866024 0.000007 -0.500002
vn -0.866024 0.000007 -0.500002
vn -0.866024 0.000007 -0.500002
vn -0.866024 -0.000003 0.500002
vn -0.866024 -0.000003 0.500002
vn -0.866024 -0.000003 0.500002
vn -0.866024 -0.000003 0.500002
vn 0.000001 -0.000010 1.000000
vn 0.000001 -0.000010 1.000000
vn 0.000001 -0.000010 1.000000
vn 0.000001 -0.000010 1.000000
vn 0.866024 -0.000007 0.500002
vn 0.866024 -0.000007 0.500002
vn 0.866024 -0.000007 0.500002
vn 0.866024 -0.000007 0.500002
vn 0.866024 0.000003 -0.500002
vn 0.866024 0.000003 -0.500002
vn 0.866025 0.000003 -0.500002
vn 0.866025 0.000003 -0.500002
vn -0.000002 0.000010 -1.000000
vn -0.000002 0.000010 -1.000000
vn -0.000002 0.000010 -1.000000
vn -0.000002 0.000010 -1.000000
vn -0.865465 0.035897 -0.499681
vn -0.865465 0.035897 -0.499681
vn -0.865465 0.035897 -0.499681
vn -0.865465 0.035897 -0.499681
vn -0.865465 0.035888 0.499682
vn -0.865465 0.035888 0.499682
vn -0.865465 0.035888 0.499682
vn -0.865465 0.035888 0.499682
vn 0.000001 0.035882 0.999356
vn 0.000001 0.035882 0.999356
vn 0.000001 0.035882 0.999356
vn 0.000001 0.035882 0.999356
vn 0.865467 0.035886 0.499680
vn 0.865467 0.035886 0.499680
vn 0.865467 0.035886 0.499680
vn 0.865467 0.035886 0.499680
vn 0.865467 0.035895 -0.499678
vn 0.865467 0.035895 -0.499678
vn 0.865467 0.035895 -0.499678
vn 0.865467 0.035895 -0.499678
vn -0.000001 0.035901 -0.999355
vn -0.000001 0.035901 -0.999355
vn -0.000001 0.035901 -0.999355
vn -0.000001 0.035901 -0.999355
vn -0.865923 -0.015440 -0.499939
vn -0.865923 -0.015440 -0.499939
vn -0.865923 -0.015440 -0.499939
vn -0.865923 -0.015440 -0.499939
vn -0.865922 -0.015450 0.499940
vn -0.865922 -0.015450 0.499940
vn -0.865922 -0.015450 0.499940
vn -0.865922 -0.015450 0.499940
vn 0.000000 -0.015454 0.999881
vn 0.000000 -0.015454 0.999881
vn 0.000000 -0.015454 0.999881
vn 0.000000 -0.015454 0.999881
vn 0.865919 -0.015452 0.499945
vn 0.865919 -0.015452 0.499945
vn 0.865920 -0.015452 0.499945
vn 0.865919 -0.015452 0.499945
vn 0.865919 -0.015442 -0.499945
vn 0.865919 -0.015442 -0.499945
vn 0.865919 -0.015442 -0.499945
vn 0.865919 -0.015442 -0.499945
vn -0.000001 -0.015435 -0.999881
vn -0.000001 -0.015435 -0.999881
vn -0.000001 -0.015435 -0.999881
vn -0.000001 -0.015435 -0.999881
vn 0.996180 -0.000004 0.087326
vn 0.996180 -0.000004 0.087326
vn 0.996180 -0.000004 0.087326
vn 0.996180 -0.000004 0.087326
vn 0.717605 -0.690746 0.088956
vn 0.717605 -0.690746 0.088956
vn 0.717605 -0.690746 0.088956
vn 0.717605 -0.690746 0.088956
vn 0.000003 -0.995879 0.090691
vn 0.000003 -0.995879 0.090691
vn 0.000003 -0.995879 0.090691
vn 0.000003 -0.995879 0.090691
vn -0.717611 -0.690739 0.088960
vn -0.717611 -0.690739 0.088960
vn -0.717611 -0.690739 0.088960
vn -0.717611 -0.690739 0.088960
vn -0.996180 0.000002 0.087328
vn -0.996180 0.000002 0.087328
vn -0.996180 0.000002 0.087328
vn -0.996180 0.000002 0.087328
vn -0.717599 0.690751 0.088967
vn -0.717599 0.690751 0.088967
vn -0.717599 0.690751 0.088967
vn -0.717599 0.690751 0.088967
vn -0.000003 0.995878 0.090699
vn -0.000003 0.995878 0.090699
vn -0.000003 0.995878 0.090699
vn -0.000003 0.995878 0.090699
vn 0.717607 0.690742 0.088967
vn 0.717607 0.690742 0.088967
vn 0.717607 0.690742 0.088967
vn 0.717607 0.690742 0.088967
vn -0.658337 0.000008 -0.752723
vn -0.658337 0.000008 -0.752723
vn -0.658337 0.000008 -0.752723
vn -0.658337 0.000008 -0.752723
vn -0.469256 0.451706 -0.758789
vn -0.469256 0.451706 -0.758789
vn -0.469256 0.451706 -0.758789
vn -0.469256 0.451706 -0.758789
vn -0.469267 -0.451693 -0.758790
vn -0.469267 -0.451693 -0.758790
vn -0.469267 -0.451693 -0.758790
vn -0.469267 -0.451693 -0.758790
vn -0.000001 -0.644019 -0.765010
vn -0.000001 -0.644019 -0.765010
vn -0.000001 -0.644019 -0.765010
vn -0.000001 -0.644019 -0.765010
vn 0.469258 -0.451689 -0.758797
vn 0.469258 -0.451689 -0.758797
vn 0.469258 -0.451690 -0.758797
vn 0.469258 -0.451689 -0.758797
vn 0.658336 0.000009 -0.752725
vn 0.658336 0.000009 -0.752725
vn 0.658336 0.000009 -0.752725
vn 0.658335 0.000009 -0.752725
vn 0.469253 0.451696 -0.758796
vn 0.469253 0.451696 -0.758796
vn 0.469253 0.451696 -0.758796
vn 0.469253 0.451696 -0.758796
vn -0.000001 0.644022 -0.765007
vn -0.000001 0.644022 -0.765007
vn -0.000001 0.644022 -0.765007
vn -0.000001 0.644022 -0.765007
vn -0.658340 -0.000007 0.752721
vn -0.658340 -0.000007 0.752721
vn -0.658340 -0.000007 0.752721
vn -0.658340 -0.000007 0.752721
vn -0.469257 0.451691 0.758797
vn -0.469257 0.451691 0.758797
vn -0.469257 0.451691 0.758797
vn -0.469257 0.451691 0.758797
vn -0.469268 -0.451708 0.758781
vn -0.469268 -0.451708 0.758781
vn -0.469268 -0.451708 0.758781
vn -0.469268 -0.451708 0.758781
vn 0.000000 -0.644036 0.764995
vn 0.000000 -0.644036 0.764995
vn 0.000000 -0.644036 0.764995
vn 0.000000 -0.644036 0.764995
vn 0.469262 -0.451706 0.758785
vn 0.469262 -0.451706 0.758785
vn 0.469262 -0.451706 0.758785
vn 0.469262 -0.451706 0.758785
vn 0.658338 -0.000006 0.752723
vn 0.658338 -0.000006 0.752723
vn 0.658338 -0.000006 0.752723
vn 0.658338 -0.000006 0.752723
vn 0.469259 0.451686 0.758799
vn 0.469259 0.451686 0.758799
vn 0.469259 0.451686 0.758799
vn 0.469259 0.451686 0.758799
vn 0.000003 0.644011 0.765016
vn 0.000003 0.644011 0.765016
vn 0.000003 0.644011 0.765016
vn 0.000003 0.644011 0.765016
vn -0.996180 0.000004 -0.087326
vn -0.996180 0.000004 -0.087326
vn -0.996180 0.000004 -0.087326
vn -0.996180 0.000004 -0.087326
vn -0.717610 -0.690738 -0.088973
vn -0.717610 -0.690738 -0.088973
vn -0.717610 -0.690738 -0.088973
vn -0.717610 -0.690738 -0.088973
vn 0.000003 -0.995877 -0.090710
vn 0.000003 -0.995877 -0.090710
vn 0.000003 -0.995877 -0.090710
vn 0.000003 -0.995877 -0.090710
vn 0.717605 -0.690744 -0.088970
vn 0.717605 -0.690744 -0.088970
vn 0.717605 -0.690744 -0.088970
vn 0.717605 -0.690744 -0.088970
vn 0.996180 -0.000002 -0.087327
vn 0.996180 -0.000002 -0.087327
vn 0.996180 -0.000002 -0.087327
vn 0.996180 -0.000002 -0.087327
vn 0.717607 0.690745 -0.088952
vn 0.717607 0.690745 -0.088952
vn 0.717607 0.690744 -0.088952
vn 0.717607 0.690745 -0.088952
vn -0.000006 0.995880 -0.090678
vn -0.000006 0.995880 -0.090678
vn -0.000006 0.995880 -0.090678
vn -0.000006 0.995880 -0.090678
vn -0.717599 0.690753 -0.088952
vn -0.717599 0.690753 -0.088952
vn -0.717599 0.690753 -0.088952
vn -0.717599 0.690753 -0.088952
vn -0.000000 0.000010 -1.000000
vn -0.000000 0.000010 -1.000000
vn -0.000000 0.000010 -1.000000
vn -0.000000 0.000010 -1.000000
vn -0.000000 0.000010 -1.000000
vn -0.000000 0.000010 -1.000000
vn -0.000000 0.000010 -1.000000
vn -0.000000 0.000010 -1.000000
vn 0.000000 -0.000010 1.000000
vn 0.000000 -0.000010 1.000000
vn 0.000000 -0.000010 1.000000
vn 0.000000 -0.000010 1.000000
vn 0.000001 -0.000010 1.000000
vn 0.000001 -0.000010 1.000000
vn 0.000001 -0.000010 1.000000
vn 0.000001 -0.000010 1.000000
vn 0.000001 -0.000010 1.000000
vn 0.000001 -0.000010 1.000000
vn 0.000001 -0.000010 1.000000
vn 0.000001 -0.000010 1.000000
vn -0.000001 0.000010 -1.000000
vn -0.000001 0.000010 -1.000000
vn -0.000001 0.000010 -1.000000
vn -0.000001 0.000010 -1.000000
s off
f 1/1/1 2/2/2 26/3/3 25/4/4
f 2/2/5 3/5/6 27/6/7 26/3/8
f 3/5/9 4/7/10 28/8/11 27/6/12
f 4/7/13 5/9/14 29/10/15 28/8/16
f 5/9/17 6/11/18 30/12/19 29/10/20
f 6/11/21 1/1/22 25/4/23 30/12/24
f 5/9/25 4/7/26 6/11/27
f 6/11/28 4/7/29 3/5/30 2/2/31
f 2/2/32 1/1/33 6/11/34
f 13/13/35 14/14/36 8/15/37 7/16/38
f 14/14/39 15/17/40 9/18/41 8/15/42
f 15/17/43 16/19/44 10/20/45 9/18/46
f 16/19/47 17/21/48 11/22/49 10/20/50
f 17/21/51 18/23/52 12/24/53 11/22/54
f 18/23/55 13/13/56 7/16/57 12/24/58
f 19/25/59 20/26/60 32/27/61 31/28/62
f 20/26/63 21/29/64 33/30/65 32/27/66
f 21/29/67 22/31/68 34/32/69 33/30/70
f 22/31/71 23/33/72 35/34/73 34/32/74
f 23/33/75 24/35/76 36/36/77 35/34/78
f 24/35/79 19/25/80 31/28/81 36/36/82
f 25/4/83 26/3/84 20/26/85 19/25/86
f 26/3/87 27/6/88 21/29/89 20/26/90
f 27/6/91 28/8/92 22/31/93 21/29/94
f 28/8/95 29/10/96 23/33/97 22/31/98
f 29/10/99 30/12/100 24/35/101 23/33/102
f 30/12/103 25/4/104 19/25/105 24/35/106
f 31/28/107 32/27/108 14/14/109 13/13/110
f 32/27/111 33/30/112 15/17/113 14/14/114
f 33/30/115 34/32/116 16/19/117 15/17/118
f 34/32/119 35/34/120 17/21/121 16/19/122
f 35/34/123 36/36/124 18/23/125 17/21/126
f 36/36/127 31/28/128 13/13/129 18/23/130
f 38/37/131 37/38/132 72/39/133 70/40/134
f 39/41/135 38/37/136 70/40/137 68/42/138
f 40/43/139 39/41/140 68/42/141 66/44/142
f 41/45/143 40/43/144 66/44/145 64/46/146
f 42/47/147 41/45/148 64/46/149 62/48/150
f 43/49/151 42/47/152 62/48/153 76/50/154
f 44/51/155 43/49/156 76/50/157 74/52/158
f 37/38/159 44/51/160 74/52/161 72/39/162
f 45/53/163 46/54/164 48/55/165 47/56/166
f 46/54/167 45/53/168 59/57/169 60/58/170
f 47/56/171 48/55/172 50/59/173 49/60/174
f 49/60/175 50/59/176 52/61/177 51/62/178
f 51/62/179 52/61/180 54/63/181 53/64/182
f 53/64/183 54/63/184 56/65/185 55/66/186
f 55/66/187 56/65/188 58/67/189 57/68/190
f 57/68/191 58/67/192 60/58/193 59/57/194
f 61/69/195 62/48/196 64/46/197 63/70/198
f 62/48/199 61/69/200 75/71/201 76/50/202
f 63/70/203 64/46/204 66/44/205 65/72/206
f 65/72/207 66/44/208 68/42/209 67/73/210
f 67/73/211 68/42/212 70/40/213 69/74/214
f 69/74/215 70/40/216 72/39/217 71/75/218
f 71/75/219 72/39/220 74/52/221 73/76/222
f 73/76/223 74/52/224 76/50/225 75/71/226
f 42/47/227 45/53/228 47/56/229 41/45/230
f 41/45/231 47/56/232 49/60/233 40/43/234
f 40/43/235 49/60/236 51/62/237 39/41/238
f 39/41/239 51/62/240 53/64/241 38/37/242
f 38/37/243 53/64/244 55/66/245 37/38/246
f 37/38/247 55/66/248 57/68/249 44/51/250
f 44/51/251 57/68/252 59/57/253 43/49/254
f 43/49/255 59/57/256 45/53/257 42/47/258
f 52/61/259 58/67/260 56/65/261 54/63/262
f 60/58/263 50/59/264 48/55/265 46/54/266
f 65/72/267 75/71/268 61/69/269 63/70/270
f 73/76/271 67/73/272 69/74/273 71/75/274
f 73/76/275 75/71/276 65/72/277 67/73/278
f 60/58/279 58/67/280 52/61/281 50/59/282
