# This file uses centimeters as units for non-parametric coordinates.

v -11.446329 0.171928 0.000010
v -5.723028 0.171928 9.912806
v -5.168408 2.534855 8.952092
v -10.337063 2.534855 0.000009
v 5.723631 0.171928 9.912773
v 5.168903 2.534832 8.952058
v 11.446341 0.171879 0.000010
v 10.337074 2.534832 0.000009
v 5.723631 0.171928 -9.912746
v 5.168903 2.534832 -8.952040
v -5.723028 0.171928 -9.912786
v -5.168408 2.534855 -8.952085
v -4.669896 3.229208 0.000006
v -2.334891 3.229208 4.044225
v 2.335121 3.229195 4.044209
v 4.669908 3.229195 0.000006
v 2.335121 3.229195 -4.044196
v -2.334891 3.229208 -4.044219
v -2.211935 4.201328 0.000005
v -1.105939 4.201328 1.915585
v 1.106053 4.201319 1.915577
v 2.211947 4.201319 0.000005
v 1.106053 4.201319 -1.915567
v -1.105939 4.201328 -1.915578
v -2.211935 14.861164 0.000005
v -1.105939 14.861164 1.915585
v 1.106053 14.861156 1.915577
v 2.211947 14.861156 0.000005
v 1.106053 14.861156 -1.915567
v -1.105939 14.861164 -1.915578
v 0.000031 8.685722 0.000005
v -1.880027 18.582798 0.000004
v -0.939988 18.582798 1.628145
v 0.940087 18.582794 1.628139
v 1.880038 18.582794 0.000004
v 0.940087 18.582794 -1.628130
v -0.939988 18.582798 -1.628139
v -1.621066 14.861164 2.807825
v -3.242215 14.861164 0.000005
v -1.621066 18.560558 2.807825
v -3.242215 18.560558 0.000005
v 1.621229 14.861156 2.807814
v 1.621229 18.560551 2.807814
v 3.242227 14.861156 0.000005
v 3.242227 18.560551 0.000005
v 1.621229 14.861156 -2.807803
v 1.621229 18.560551 -2.807803
v -1.621066 14.861164 -2.807818
v -1.621066 18.560558 -2.807818
v -1.657416 5.334045 2.870786
v -3.314917 5.334045 0.000005
v -1.657416 7.775116 2.870786
v -3.314917 7.775116 0.000005
v 1.657582 5.334036 2.870775
v 1.657582 7.775108 2.870775
v 3.314928 5.334036 0.000005
v 3.314928 7.775108 0.000005
v 1.657582 5.334036 -2.870764
v 1.657582 7.775108 -2.870764
v -1.657416 5.334045 -2.870780
v -1.657416 7.775116 -2.870780
vt 0.090445 0.327757
vt 0.090445 0.327757
vt 0.090445 0.327757
vt 0.090445 0.327757
vt 0.090445 0.327757
vt 0.090445 0.327757
vt 0.090445 0.327757
vt 0.090445 0.327757
vt 0.090445 0.327757
vt 0.090445 0.327757
vt 0.090445 0.327757
vt 0.090445 0.327757
vt 0.078131 0.231587
vt 0.090445 0.327757
vt 0.090445 0.327757
vt 0.090445 0.327757
vt 0.090445 0.327757
vt 0.090445 0.327757
vt 0.090445 0.327757
vt 0.090445 0.327757
vt 0.090445 0.327757
vt 0.090445 0.327757
vt 0.090445 0.327757
vt 0.090445 0.327757
vt 0.090445 0.327757
vt 0.090445 0.327757
vt 0.090445 0.327757
vt 0.090445 0.327757
vt 0.090445 0.327757
vt 0.090445 0.327757
vt 0.090445 0.327757
vt 0.090445 0.275769
vt 0.090445 0.275769
vt 0.090445 0.275769
vt 0.090445 0.275769
vt 0.090445 0.275769
vt 0.090445 0.275769
vt 0.090445 0.275769
vt 0.090445 0.275769
vt 0.090445 0.275769
vt 0.090445 0.275769
vt 0.090445 0.275769
vt 0.090445 0.275769
vt 0.090445 0.275769
vt 0.090445 0.275769
vt 0.090445 0.275769
vt 0.090445 0.275769
vt 0.090445 0.275769
vt 0.090445 0.275769
vt 0.089717 0.231454
vt 0.089328 0.231228
vt 0.089341 0.230794
vt 0.089734 0.230587
vt 0.090118 0.230805
vt 0.090114 0.231239
vt 0.090445 0.275769
vt 0.090445 0.275769
vt 0.090445 0.275769
vt 0.090445 0.275769
vt 0.090445 0.275769
vt 0.090445 0.275769
vt 0.090445 0.275769
vt 0.090445 0.275769
vt 0.090445 0.275769
vt 0.090445 0.275769
vt 0.090445 0.275769
vt 0.090445 0.275769
vt 0.090445 0.275769
vt 0.090445 0.275769
vt 0.090445 0.275769
vt 0.090445 0.275769
vt 0.090445 0.275769
vt 0.090445 0.275769
vn -0.802252 0.376620 0.463194
vn -0.802252 0.376620 0.463194
vn -0.802252 0.376620 0.463194
vn -0.802252 0.376620 0.463194
vn 0.000003 0.376639 0.926360
vn 0.000003 0.376639 0.926360
vn 0.000003 0.376639 0.926360
vn 0.000003 0.376639 0.926360
vn 0.802266 0.376636 0.463157
vn 0.802266 0.376636 0.463157
vn 0.802266 0.376636 0.463157
vn 0.802266 0.376636 0.463157
vn 0.802266 0.376635 -0.463157
vn 0.802266 0.376635 -0.463157
vn 0.802266 0.376635 -0.463157
vn 0.802266 0.376635 -0.463157
vn 0.000004 0.376636 -0.926361
vn 0.000004 0.376636 -0.926361
vn 0.000004 0.376636 -0.926361
vn 0.000004 0.376636 -0.926361
vn -0.802253 0.376619 -0.463194
vn -0.802253 0.376619 -0.463194
vn -0.802253 0.376619 -0.463194
vn -0.802253 0.376619 -0.463194
vn 0.000000 -0.999850 0.017341
vn -0.015018 -0.999850 0.008670
vn -0.015018 -0.999850 0.008670
vn 0.015014 -0.999850 0.008673
vn 0.854532 0.162328 -0.493381
vn 0.854532 0.162328 -0.493381
vn 0.854532 0.162328 -0.493381
vn -0.000003 0.162325 -0.986737
vn -0.000003 0.162325 -0.986737
vn -0.000003 0.162325 -0.986737
vn -0.854551 0.162327 -0.493348
vn -0.854551 0.162327 -0.493348
vn -0.854551 0.162327 -0.493348
vn 0.000000 -0.999850 -0.017341
vn 0.015014 -0.999850 -0.008673
vn 0.015014 -0.999850 -0.008673
vn -0.015018 -0.999850 -0.008671
vn -0.854551 0.162327 0.493348
vn -0.854551 0.162327 0.493348
vn -0.854551 0.162327 0.493348
vn -0.000004 0.162325 0.986737
vn -0.000004 0.162325 0.986737
vn -0.000004 0.162325 0.986737
vn 0.854532 0.162328 0.493381
vn 0.854532 0.162328 0.493381
vn 0.854532 0.162328 0.493381
vn -0.121314 0.990140 0.070043
vn -0.121314 0.990140 0.070043
vn -0.121314 0.990140 0.070043
vn -0.121314 0.990140 0.070043
vn 0.000003 0.990140 0.140084
vn 0.000003 0.990140 0.140084
vn 0.000003 0.990140 0.140084
vn 0.000003 0.990140 0.140084
vn 0.121316 0.990140 0.070038
vn 0.121316 0.990140 0.070038
vn 0.121316 0.990140 0.070038
vn 0.121316 0.990140 0.070038
vn 0.121316 0.990140 -0.070039
vn 0.121316 0.990140 -0.070039
vn 0.121316 0.990140 -0.070039
vn 0.121316 0.990140 -0.070039
vn 0.000003 0.990140 -0.140084
vn 0.000003 0.990140 -0.140084
vn 0.000003 0.990140 -0.140084
vn 0.000003 0.990140 -0.140084
vn -0.121314 0.990140 -0.070043
vn -0.121314 0.990140 -0.070043
vn -0.121314 0.990140 -0.070043
vn -0.121314 0.990140 -0.070043
vn -0.359758 0.909632 0.207713
vn -0.359758 0.909632 0.207713
vn -0.359758 0.909632 0.207713
vn -0.359758 0.909632 0.207713
vn 0.000004 0.909631 0.415418
vn 0.000004 0.909631 0.415418
vn 0.000004 0.909631 0.415418
vn 0.000004 0.909631 0.415418
vn 0.359760 0.909635 0.207696
vn 0.359760 0.909635 0.207696
vn 0.359760 0.909635 0.207696
vn 0.359760 0.909635 0.207696
vn 0.359761 0.909634 -0.207696
vn 0.359761 0.909634 -0.207696
vn 0.359761 0.909634 -0.207696
vn 0.359761 0.909634 -0.207696
vn 0.000005 0.909631 -0.415418
vn 0.000005 0.909631 -0.415418
vn 0.000005 0.909631 -0.415418
vn 0.000005 0.909631 -0.415418
vn -0.359758 0.909631 -0.207713
vn -0.359758 0.909631 -0.207713
vn -0.359758 0.909631 -0.207713
vn -0.359758 0.909631 -0.207713
vn -0.866018 0.000000 0.500012
vn -0.866018 0.000000 0.500012
vn -0.866018 0.000000 0.500012
vn -0.866018 0.000000 0.500012
vn 0.000004 0.000000 1.000000
vn 0.000004 0.000000 1.000000
vn 0.000004 0.000000 1.000000
vn 0.000004 0.000000 1.000000
vn 0.866038 0.000000 0.499979
vn 0.866038 0.000000 0.499979
vn 0.866038 0.000000 0.499979
vn 0.866038 0.000000 0.499979
vn 0.866038 0.000000 -0.499979
vn 0.866038 0.000000 -0.499979
vn 0.866038 0.000000 -0.499979
vn 0.866038 0.000000 -0.499979
vn 0.000005 0.000000 -1.000000
vn 0.000005 0.000000 -1.000000
vn 0.000005 0.000000 -1.000000
vn 0.000005 0.000000 -1.000000
vn -0.866019 0.000000 -0.500012
vn -0.866019 0.000000 -0.500012
vn -0.866019 0.000000 -0.500012
vn -0.866019 0.000000 -0.500012
vn -0.866018 0.000000 0.500012
vn -0.866018 0.000000 0.500012
vn -0.866018 0.000000 0.500012
vn -0.866018 0.000000 0.500012
vn 0.000003 0.000000 1.000000
vn 0.000003 0.000000 1.000000
vn 0.000003 0.000000 1.000000
vn 0.000003 0.000000 1.000000
vn 0.866038 0.000000 0.499979
vn 0.866038 0.000000 0.499979
vn 0.866038 0.000000 0.499979
vn 0.866038 0.000000 0.499979
vn 0.866038 0.000000 -0.499979
vn 0.866038 0.000000 -0.499979
vn 0.866038 0.000000 -0.499979
vn 0.866038 0.000000 -0.499979
vn 0.000005 0.000000 -1.000000
vn 0.000005 0.000000 -1.000000
vn 0.000005 0.000000 -1.000000
vn 0.000005 0.000000 -1.000000
vn -0.866019 0.000000 -0.500012
vn -0.866019 0.000000 -0.500012
vn -0.866019 0.000000 -0.500012
vn -0.866019 0.000000 -0.500012
vn 0.000000 -1.000000 0.000000
vn 0.000000 -1.000000 0.000000
vn 0.000000 -1.000000 0.000000
vn 0.000000 -1.000000 0.000000
vn -0.016324 0.999822 0.009424
vn -0.016324 0.999822 0.009424
vn -0.016324 0.999822 0.009424
vn -0.016324 0.999822 0.009424
vn -0.000003 -1.000000 -0.000001
vn -0.000003 -1.000000 -0.000001
vn -0.000003 -1.000000 -0.000001
vn -0.000003 -1.000000 -0.000001
vn 0.000002 0.999822 0.018849
vn 0.000002 0.999822 0.018849
vn 0.000002 0.999822 0.018849
vn 0.000002 0.999822 0.018849
vn 0.000000 -1.000000 0.000002
vn 0.000000 -1.000000 0.000002
vn 0.000000 -1.000000 0.000002
vn 0.000000 -1.000000 0.000002
vn 0.016326 0.999822 0.009425
vn 0.016326 0.999822 0.009425
vn 0.016326 0.999822 0.009425
vn 0.016326 0.999822 0.009425
vn 0.000000 -1.000000 0.000000
vn 0.000000 -1.000000 0.000000
vn 0.000000 -1.000000 0.000000
vn 0.000000 -1.000000 0.000000
vn 0.016326 0.999822 -0.009425
vn 0.016326 0.999822 -0.009425
vn 0.016326 0.999822 -0.009425
vn 0.016326 0.999822 -0.009425
vn -0.000003 -1.000000 -0.000001
vn -0.000003 -1.000000 -0.000001
vn -0.000003 -1.000000 -0.000001
vn -0.000003 -1.000000 -0.000001
vn 0.000002 0.999822 -0.018850
vn 0.000002 0.999822 -0.018850
vn 0.000002 0.999822 -0.018850
vn 0.000002 0.999822 -0.018850
vn 0.000000 -1.000000 -0.000001
vn 0.000000 -1.000000 -0.000001
vn 0.000000 -1.000000 -0.000001
vn 0.000000 -1.000000 -0.000001
vn -0.016324 0.999822 -0.009424
vn -0.016324 0.999822 -0.009424
vn -0.016324 0.999822 -0.009424
vn -0.016324 0.999822 -0.009424
vn -0.866018 0.000000 0.500012
vn -0.866018 0.000000 0.500012
vn -0.866018 0.000000 0.500012
vn -0.866018 0.000000 0.500012
vn 0.000003 0.000000 1.000000
vn 0.000003 0.000000 1.000000
vn 0.000003 0.000000 1.000000
vn 0.000003 0.000000 1.000000
vn 0.866038 0.000000 0.499979
vn 0.866038 0.000000 0.499979
vn 0.866038 0.000000 0.499979
vn 0.866038 0.000000 0.499979
vn 0.866038 0.000000 -0.499979
vn 0.866038 0.000000 -0.499979
vn 0.866038 0.000000 -0.499979
vn 0.866038 0.000000 -0.499979
vn 0.000005 0.000000 -1.000000
vn 0.000005 0.000000 -1.000000
vn 0.000005 0.000000 -1.000000
vn 0.000005 0.000000 -1.000000
vn -0.866019 0.000000 -0.500012
vn -0.866019 0.000000 -0.500012
vn -0.866019 0.000000 -0.500012
vn -0.866019 0.000000 -0.500012
vn -0.000002 -1.000000 0.000000
vn -0.000002 -1.000000 0.000000
vn -0.000002 -1.000000 0.000000
vn -0.000002 -1.000000 0.000000
vn 0.000002 1.000000 0.000001
vn 0.000002 1.000000 0.000001
vn 0.000002 1.000000 0.000001
vn 0.000002 1.000000 0.000001
vn -0.000002 -1.000000 0.000000
vn -0.000002 -1.000000 0.000000
vn -0.000002 -1.000000 0.000000
vn -0.000002 -1.000000 0.000000
vn 0.000002 1.000000 0.000000
vn 0.000002 1.000000 0.000000
vn 0.000002 1.000000 0.000000
vn 0.000002 1.000000 0.000000
s off
f 1/1/1 2/2/2 3/3/3 4/4/4
f 2/2/5 5/5/6 6/6/7 3/3/8
f 5/5/9 7/7/10 8/8/11 6/6/12
f 7/7/13 9/9/14 10/10/15 8/8/16
f 9/9/17 11/11/18 12/12/19 10/10/20
f 11/11/21 1/1/22 4/4/23 12/12/24
f 5/5/25 2/2/26 1/1/27 7/7/28
f 31/13/29 32/50/30 33/51/31
f 31/13/32 33/51/33 34/52/34
f 31/13/35 34/52/36 35/53/37
f 11/11/38 9/9/39 7/7/40 1/1/41
f 31/13/42 35/53/43 36/54/44
f 31/13/45 36/54/46 37/55/47
f 31/13/48 37/55/49 32/50/50
f 4/4/51 3/3/52 14/15/53 13/14/54
f 3/3/55 6/6/56 15/16/57 14/15/58
f 6/6/59 8/8/60 16/17/61 15/16/62
f 8/8/63 10/10/64 17/18/65 16/17/66
f 10/10/67 12/12/68 18/19/69 17/18/70
f 12/12/71 4/4/72 13/14/73 18/19/74
f 13/14/75 14/15/76 20/21/77 19/20/78
f 14/15/79 15/16/80 21/22/81 20/21/82
f 15/16/83 16/17/84 22/23/85 21/22/86
f 16/17/87 17/18/88 23/24/89 22/23/90
f 17/18/91 18/19/92 24/25/93 23/24/94
f 18/19/95 13/14/96 19/20/97 24/25/98
f 25/26/99 19/20/100 20/21/101 26/27/102
f 26/27/103 20/21/104 21/22/105 27/28/106
f 27/28/107 21/22/108 22/23/109 28/29/110
f 28/29/111 22/23/112 23/24/113 29/30/114
f 29/30/115 23/24/116 24/25/117 30/31/118
f 30/31/119 24/25/120 19/20/121 25/26/122
f 39/38/123 38/39/124 40/40/125 41/41/126
f 38/39/127 42/42/128 43/43/129 40/40/130
f 42/42/131 44/44/132 45/45/133 43/43/134
f 44/44/135 46/46/136 47/47/137 45/45/138
f 46/46/139 48/48/140 49/49/141 47/47/142
f 48/48/143 39/38/144 41/41/145 49/49/146
f 25/56/147 26/61/148 38/39/149 39/38/150
f 33/33/151 32/32/152 41/41/153 40/40/154
f 26/61/155 27/60/156 42/42/157 38/39/158
f 34/34/159 33/33/160 40/40/161 43/43/162
f 27/60/163 28/59/164 44/44/165 42/42/166
f 35/35/167 34/34/168 43/43/169 45/45/170
f 28/59/171 29/58/172 46/46/173 44/44/174
f 36/36/175 35/35/176 45/45/177 47/47/178
f 29/58/179 30/57/180 48/48/181 46/46/182
f 37/37/183 36/36/184 47/47/185 49/49/186
f 30/57/187 25/56/188 39/38/189 48/48/190
f 32/32/191 37/37/192 49/49/193 41/41/194
f 51/62/195 50/63/196 52/64/197 53/65/198
f 50/63/199 54/66/200 55/67/201 52/64/202
f 54/66/203 56/68/204 57/69/205 55/67/206
f 56/68/207 58/70/208 59/71/209 57/69/210
f 58/70/211 60/72/212 61/73/213 59/71/214
f 60/72/215 51/62/216 53/65/217 61/73/218
f 54/66/219 50/63/220 51/62/221 56/68/222
f 55/67/223 57/69/224 53/65/225 52/64/226
f 60/72/227 58/70/228 56/68/229 51/62/230
f 61/73/231 53/65/232 57/69/233 59/71/234
