# This file uses centimeters as units for non-parametric coordinates.

v 1.364389 137.965042 -16.255451
v 8.302250 142.323456 -11.008828
v 0.087882 155.936523 -4.016702
v -9.096036 150.451675 1.882340
v 1.383184 121.917587 2.862454
v -2.177374 149.893890 -11.349314
v 3.990546 146.144073 -11.323038
v 8.204781 149.163895 -8.586185
v -13.869799 149.577271 -2.140511
v -7.022750 144.716110 -12.516750
v -0.292191 130.086853 -13.296165
v -8.191682 126.092560 -8.012365
v -11.104135 137.503006 -11.243082
v 7.251760 124.257416 -6.588777
v 0.382676 122.162132 -8.137349
v 4.001811 127.838608 -10.458970
v 12.060381 134.969803 -11.978529
v 9.921910 152.068344 -0.241927
v 2.030793 156.797119 3.119555
v -15.255048 133.832108 -3.912929
v -13.427933 131.102753 3.762449
v -12.617655 126.669998 -2.791314
v -2.783857 123.832581 -5.820347
v 5.072531 121.896706 -1.371497
v 14.367437 130.527557 -1.907758
v 15.291600 133.740067 2.353353
v 14.662994 143.956161 -3.323684
v 16.204454 141.717392 2.057411
v 13.140521 141.954926 6.280884
v -7.732128 151.056641 6.462162
v -11.302639 139.025803 7.991779
v -15.553476 137.826538 3.628298
v -7.886745 126.351288 6.117581
v -3.113973 122.189888 1.408016
v 12.510958 132.675964 9.058001
v 3.476113 125.767960 12.683260
v 11.639357 127.425171 2.954152
v 5.951044 136.038895 14.929255
v 2.990495 143.325821 14.835656
v 8.314858 144.141037 12.931864
v 2.461935 149.034485 11.805055
v -10.614768 130.370514 12.217556
v -9.145870 143.801559 10.571736
v -4.265673 129.934875 12.845143
v 3.193822 131.144928 14.030097
v -0.262786 110.056709 -1.898371
v -1.035398 110.025024 1.064357
v 0.450355 110.520889 2.325802
v 1.826611 110.707428 0.372140
v 1.678674 110.406418 -1.847272
v -1.873456 116.373131 -0.548331
v -2.111975 115.097076 1.203565
v 0.180453 114.866592 1.462363
v 1.448763 116.130791 -0.090137
v 0.109060 117.704674 -1.673521
v -0.403617 121.543396 -0.877817
v -0.860965 120.315727 1.032203
v 0.711544 119.540619 1.392961
v 1.907846 119.902824 0.276684
v 1.346197 121.132233 -1.180275
v -0.747200 125.355408 -0.046696
v -1.034048 124.920677 1.748451
v 0.520408 124.861839 2.392251
v 1.511772 125.146797 1.476328
v 0.875689 125.513809 -0.056835
vt 0.305054 0.187922
vt 0.305133 0.187592
vt 0.304964 0.187696
vt 0.304845 0.187801
vt 0.305034 0.187421
vt 0.304836 0.187612
vt 0.305372 0.187939
vt 0.305269 0.187736
vt 0.305454 0.188052
vt 0.305389 0.187626
vt 0.305085 0.188136
vt 0.305272 0.188259
vt 0.305111 0.188323
vt 0.304953 0.188200
vt 0.304843 0.188304
vt 0.305032 0.188358
vt 0.304762 0.188000
vt 0.304738 0.187531
vt 0.304939 0.187393
vt 0.305260 0.187577
vt 0.305371 0.188256
vt 0.305365 0.188141
vt 0.305081 0.188385
vt 0.305193 0.188280
vt 0.304871 0.188382
vt 0.304948 0.188393
vt 0.304623 0.188135
vt 0.304627 0.187759
vt 0.304570 0.188051
vt 0.304574 0.187835
vt 0.304749 0.188005
vt 0.304605 0.187822
vt 0.305197 0.187560
vt 0.304872 0.187620
vt 0.305431 0.187947
vt 0.305287 0.187915
vt 0.304840 0.188285
vt 0.304665 0.188232
vt 0.304602 0.188092
vt 0.304696 0.187764
vt 0.304837 0.187791
vt 0.305214 0.187776
vt 0.305226 0.188165
vt 0.305054 0.188186
vt 0.304832 0.188149
vt 0.014983 0.250764
vt 0.015022 0.250746
vt 0.015038 0.250685
vt 0.015024 0.250666
vt 0.015018 0.250732
vt 0.015030 0.250670
vt 0.014988 0.250737
vt 0.015018 0.250647
vt 0.014966 0.250762
vt 0.015012 0.250643
vt 0.015117 0.250621
vt 0.015119 0.250604
vt 0.015109 0.250605
vt 0.015105 0.250585
vt 0.015110 0.250582
vt 0.015216 0.250592
vt 0.015210 0.250581
vt 0.015216 0.250576
vt 0.015211 0.250561
vt 0.015207 0.250562
vn 0.267104 0.433318 -0.860750
vn 0.267104 0.433318 -0.860750
vn 0.267104 0.433318 -0.860750
vn 0.395725 0.377747 -0.837084
vn 0.395725 0.377747 -0.837084
vn 0.395725 0.377747 -0.837084
vn 0.395095 0.645296 -0.653830
vn 0.395095 0.645296 -0.653830
vn 0.395095 0.645296 -0.653830
vn 0.345791 0.317625 -0.882917
vn 0.345791 0.317625 -0.882917
vn 0.345791 0.317625 -0.882917
vn -0.374094 0.048138 -0.926141
vn -0.374094 0.048138 -0.926141
vn -0.374094 0.048138 -0.926141
vn -0.140132 0.340745 -0.929654
vn -0.140132 0.340745 -0.929654
vn -0.140132 0.340745 -0.929654
vn -0.889104 0.127700 -0.439530
vn -0.889104 0.127700 -0.439530
vn -0.889104 0.127700 -0.439530
vn -0.725090 0.300899 -0.619439
vn -0.725090 0.300899 -0.619439
vn -0.725090 0.300899 -0.619439
vn -0.501343 0.607970 -0.615653
vn -0.501343 0.607970 -0.615653
vn -0.501343 0.607970 -0.615653
vn -0.413903 0.761131 -0.499364
vn -0.413903 0.761131 -0.499364
vn -0.413903 0.761131 -0.499364
vn -0.351379 -0.263568 -0.898368
vn -0.351379 -0.263568 -0.898368
vn -0.351379 -0.263568 -0.898368
vn -0.396593 -0.342391 -0.851753
vn -0.396593 -0.342391 -0.851753
vn -0.396593 -0.342391 -0.851753
vn -0.052568 -0.757235 -0.651023
vn -0.052568 -0.757235 -0.651023
vn -0.052568 -0.757235 -0.651023
vn 0.354626 -0.393217 -0.848305
vn 0.354626 -0.393217 -0.848305
vn 0.354626 -0.393217 -0.848305
vn 0.337444 -0.532597 -0.776191
vn 0.337444 -0.532597 -0.776191
vn 0.337444 -0.532597 -0.776191
vn 0.273424 -0.508313 -0.816613
vn 0.273424 -0.508313 -0.816613
vn 0.273424 -0.508313 -0.816613
vn -0.669754 -0.444347 -0.594967
vn -0.669754 -0.444347 -0.594967
vn -0.669754 -0.444347 -0.594967
vn 0.674090 -0.226817 -0.702963
vn 0.674090 -0.226817 -0.702963
vn 0.674090 -0.226817 -0.702963
vn -0.205642 0.023915 -0.978335
vn -0.205642 0.023915 -0.978335
vn -0.205642 0.023915 -0.978335
vn 0.330163 -0.538321 -0.775373
vn 0.330163 -0.538321 -0.775373
vn 0.330163 -0.538321 -0.775373
vn 0.967796 0.096182 -0.232637
vn 0.967796 0.096182 -0.232637
vn 0.967796 0.096182 -0.232637
vn -0.170664 0.781749 -0.599786
vn -0.170664 0.781749 -0.599786
vn -0.170664 0.781749 -0.599786
vn 0.355575 0.857570 -0.371673
vn 0.355575 0.857570 -0.371673
vn 0.355575 0.857570 -0.371673
vn 0.800374 0.529181 -0.281726
vn 0.800374 0.529181 -0.281726
vn 0.800374 0.529181 -0.281726
vn -0.373603 0.893508 0.249129
vn -0.373603 0.893508 0.249129
vn -0.373603 0.893508 0.249129
vn -0.732839 -0.351928 -0.582317
vn -0.732839 -0.351928 -0.582317
vn -0.732839 -0.351928 -0.582317
vn -0.723695 -0.358814 -0.589506
vn -0.723695 -0.358814 -0.589506
vn -0.723695 -0.358814 -0.589506
vn -0.938357 -0.328876 0.106427
vn -0.938357 -0.328876 0.106427
vn -0.938357 -0.328876 0.106427
vn -0.296888 -0.928150 -0.224487
vn -0.296888 -0.928150 -0.224487
vn -0.296888 -0.928150 -0.224487
vn -0.347339 -0.917674 -0.192953
vn -0.347339 -0.917674 -0.192953
vn -0.347339 -0.917674 -0.192953
vn -0.497285 -0.835382 0.234189
vn -0.497285 -0.835382 0.234189
vn -0.497285 -0.835382 0.234189
vn -0.691177 -0.635396 0.344307
vn -0.691177 -0.635396 0.344307
vn -0.691177 -0.635396 0.344307
vn 0.335886 -0.902898 -0.268245
vn 0.335886 -0.902898 -0.268245
vn 0.335886 -0.902898 -0.268245
vn -0.339295 -0.919364 0.199121
vn -0.339295 -0.919364 0.199121
vn -0.339295 -0.919364 0.199121
vn -0.163031 -0.977029 -0.137243
vn -0.163031 -0.977029 -0.137243
vn -0.163031 -0.977029 -0.137243
vn 0.739825 -0.536417 -0.406098
vn 0.739825 -0.536417 -0.406098
vn 0.739825 -0.536417 -0.406098
vn 0.968974 -0.046914 -0.242671
vn 0.968974 -0.046914 -0.242671
vn 0.968974 -0.046914 -0.242671
vn 0.982399 -0.040841 -0.182275
vn 0.982399 -0.040841 -0.182275
vn 0.982399 -0.040841 -0.182275
vn 0.654428 0.417574 -0.630362
vn 0.654428 0.417574 -0.630362
vn 0.654428 0.417574 -0.630362
vn 0.940197 -0.119422 -0.319012
vn 0.940197 -0.119422 -0.319012
vn 0.940197 -0.119422 -0.319012
vn 0.794858 -0.068590 0.602907
vn 0.794858 -0.068590 0.602907
vn 0.794858 -0.068590 0.602907
vn 0.574665 0.561896 -0.595007
vn 0.574665 0.561896 -0.595007
vn 0.574665 0.561896 -0.595007
vn 0.875902 0.425487 0.227500
vn 0.875902 0.425487 0.227500
vn 0.875902 0.425487 0.227500
vn 0.409729 0.877886 0.247868
vn 0.409729 0.877886 0.247868
vn 0.409729 0.877886 0.247868
vn 0.585701 0.562672 0.583399
vn 0.585701 0.562672 0.583399
vn 0.585701 0.562672 0.583399
vn 0.801036 -0.114541 0.587556
vn 0.801036 -0.114541 0.587556
vn 0.801036 -0.114541 0.587556
vn -0.496595 0.867343 0.033321
vn -0.496595 0.867343 0.033321
vn -0.496595 0.867343 0.033321
vn -0.498631 0.866249 0.031291
vn -0.498631 0.866249 0.031291
vn -0.498631 0.866249 0.031291
vn -0.201134 0.725389 0.658298
vn -0.201134 0.725389 0.658298
vn -0.201134 0.725389 0.658298
vn -0.947302 -0.297073 0.119866
vn -0.947302 -0.297073 0.119866
vn -0.947302 -0.297073 0.119866
vn -0.991091 0.097420 -0.090821
vn -0.991091 0.097420 -0.090821
vn -0.991091 0.097420 -0.090821
vn -0.561861 -0.267194 0.782892
vn -0.561861 -0.267194 0.782892
vn -0.561861 -0.267194 0.782892
vn -0.674095 -0.198904 0.711360
vn -0.674095 -0.198904 0.711360
vn -0.674095 -0.198904 0.711360
vn -0.710965 0.389359 0.585601
vn -0.710965 0.389359 0.585601
vn -0.710965 0.389359 0.585601
vn -0.620005 0.459709 0.635815
vn -0.620005 0.459709 0.635815
vn -0.620005 0.459709 0.635815
vn 0.012443 -0.975183 -0.221049
vn 0.012443 -0.975183 -0.221049
vn 0.012443 -0.975183 -0.221049
vn -0.181456 -0.901792 0.392230
vn -0.181456 -0.901792 0.392230
vn -0.181456 -0.901792 0.392230
vn -0.299439 -0.844957 0.443152
vn -0.299439 -0.844957 0.443152
vn -0.299439 -0.844957 0.443152
vn 0.678137 -0.733330 -0.048563
vn 0.678137 -0.733330 -0.048563
vn 0.678137 -0.733330 -0.048563
vn 0.859333 -0.480282 0.175716
vn 0.859333 -0.480282 0.175716
vn 0.859333 -0.480282 0.175716
vn 0.675018 -0.732460 -0.088621
vn 0.675018 -0.732460 -0.088621
vn 0.675018 -0.732460 -0.088621
vn 0.667536 0.641136 0.378604
vn 0.667536 0.641136 0.378604
vn 0.667536 0.641136 0.378604
vn 0.843080 -0.461298 0.276441
vn 0.843080 -0.461298 0.276441
vn 0.843080 -0.461298 0.276441
vn 0.650161 -0.619419 0.440011
vn 0.650161 -0.619419 0.440011
vn 0.650161 -0.619419 0.440011
vn 0.502253 -0.817381 0.282189
vn 0.502253 -0.817381 0.282189
vn 0.502253 -0.817381 0.282189
vn 0.322229 -0.902669 0.285232
vn 0.322229 -0.902669 0.285232
vn 0.322229 -0.902669 0.285232
vn 0.793471 -0.082855 0.602942
vn 0.793471 -0.082855 0.602942
vn 0.793471 -0.082855 0.602942
vn 0.643363 0.586400 0.492157
vn 0.643363 0.586400 0.492157
vn 0.643363 0.586400 0.492157
vn 0.608425 0.771017 0.188019
vn 0.608425 0.771017 0.188019
vn 0.608425 0.771017 0.188019
vn 0.231607 0.472792 0.850192
vn 0.231607 0.472792 0.850192
vn 0.231607 0.472792 0.850192
vn 0.314338 0.139771 0.938965
vn 0.314338 0.139771 0.938965
vn 0.314338 0.139771 0.938965
vn -0.333241 -0.123383 0.934734
vn -0.333241 -0.123383 0.934734
vn -0.333241 -0.123383 0.934734
vn -0.921167 0.311580 0.233174
vn -0.921167 0.311580 0.233174
vn -0.921167 0.311580 0.233174
vn -0.316236 0.513476 0.797707
vn -0.316236 0.513476 0.797707
vn -0.316236 0.513476 0.797707
vn -0.284433 0.428854 0.857428
vn -0.284433 0.428854 0.857428
vn -0.284433 0.428854 0.857428
vn -0.927950 0.298523 0.223142
vn -0.927950 0.298523 0.223142
vn -0.927950 0.298523 0.223142
vn -0.936575 -0.211041 -0.279801
vn -0.936575 -0.211041 -0.279801
vn -0.936575 -0.211041 -0.279801
vn -0.878253 0.151625 0.453521
vn -0.878253 0.151625 0.453521
vn -0.878253 0.151625 0.453521
vn -0.088639 0.130695 0.987452
vn -0.088639 0.130695 0.987452
vn -0.088639 0.130695 0.987452
vn -0.374898 -0.719255 0.584913
vn -0.374898 -0.719255 0.584913
vn -0.374898 -0.719255 0.584913
vn -0.109096 -0.851769 0.512433
vn -0.109096 -0.851769 0.512433
vn -0.109096 -0.851769 0.512433
vn -0.112817 -0.246995 0.962427
vn -0.112817 -0.246995 0.962427
vn -0.112817 -0.246995 0.962427
vn -0.171923 0.100163 0.980005
vn -0.171923 0.100163 0.980005
vn -0.171923 0.100163 0.980005
vn 0.486286 -0.188205 0.853291
vn 0.486286 -0.188205 0.853291
vn 0.486286 -0.188205 0.853291
vn 0.480679 -0.412938 0.773582
vn 0.480679 -0.412938 0.773582
vn 0.480679 -0.412938 0.773582
vn -0.284721 -0.015691 0.958482
vn -0.284721 -0.015691 0.958482
vn -0.284721 -0.015691 0.958482
vn -0.953974 -0.236548 -0.184333
vn -0.953974 -0.236548 -0.184333
vn -0.953974 -0.236548 -0.184333
vn -0.953974 -0.236548 -0.184333
vn -0.374304 0.017782 0.927135
vn -0.374304 0.017782 0.927135
vn -0.374304 0.017782 0.927135
vn -0.374304 0.017782 0.927135
vn 0.762970 0.136341 0.631893
vn 0.762970 0.136341 0.631893
vn 0.762970 0.136341 0.631893
vn 0.762970 0.136341 0.631893
vn 0.937218 0.136191 -0.321051
vn 0.937218 0.136191 -0.321051
vn 0.937218 0.136191 -0.321051
vn 0.937218 0.136191 -0.321051
vn -0.213750 0.039090 -0.976106
vn -0.213750 0.039090 -0.976106
vn -0.213750 0.039090 -0.976106
vn -0.213750 0.039090 -0.976106
vn -0.915756 0.320777 0.241854
vn -0.915756 0.320777 0.241854
vn -0.915756 0.320777 0.241854
vn -0.915756 0.320777 0.241854
vn -0.145327 0.050228 0.988108
vn -0.145327 0.050228 0.988108
vn -0.145327 0.050228 0.988108
vn -0.145327 0.050228 0.988108
vn 0.763091 -0.111876 0.636534
vn 0.763091 -0.111876 0.636534
vn 0.763091 -0.111876 0.636534
vn 0.763091 -0.111876 0.636534
vn 0.791289 -0.114680 -0.600591
vn 0.791289 -0.114680 -0.600591
vn 0.791289 -0.114680 -0.600591
vn 0.791289 -0.114680 -0.600591
vn -0.292559 0.156470 -0.943359
vn -0.292559 0.156470 -0.943359
vn -0.292559 0.156470 -0.943359
vn -0.292559 0.156470 -0.943359
vn -0.978219 -0.022103 -0.206396
vn -0.978219 -0.022103 -0.206396
vn -0.978219 -0.022103 -0.206396
vn -0.978219 -0.022103 -0.206396
vn -0.342622 -0.172190 0.923559
vn -0.342622 -0.172190 0.923559
vn -0.342622 -0.172190 0.923559
vn -0.342622 -0.172190 0.923559
vn 0.693705 -0.109606 0.711870
vn 0.693705 -0.109606 0.711870
vn 0.693705 -0.109606 0.711870
vn 0.693705 -0.109606 0.711870
vn 0.942867 0.155943 -0.294420
vn 0.942867 0.155943 -0.294420
vn 0.942867 0.155943 -0.294420
vn 0.942867 0.155943 -0.294420
vn -0.073236 0.224523 -0.971713
vn -0.073236 0.224523 -0.971713
vn -0.073236 0.224523 -0.971713
vn -0.073236 0.224523 -0.971713
s off
f 1/1/1 6/2/2 7/3/3
f 1/1/4 7/3/5 2/4/6
f 6/2/7 3/5/8 7/3/9
f 7/3/10 8/6/11 2/4/12
f 13/7/13 10/8/14 1/1/15
f 1/1/16 10/8/17 6/2/18
f 13/7/19 20/9/20 9/10/21
f 13/7/22 9/10/23 10/8/24
f 10/8/25 9/10/26 6/2/27
f 6/2/28 9/10/29 3/5/30
f 1/1/31 11/11/32 13/7/33
f 11/11/34 12/12/35 13/7/36
f 11/11/37 23/13/38 12/12/39
f 1/1/40 16/14/41 11/11/42
f 16/14/43 14/15/44 15/16/45
f 16/14/46 15/16/47 11/11/48
f 11/11/49 15/16/50 23/13/51
f 1/1/52 2/4/53 16/14/54
f 2/4/55 17/17/56 16/14/57
f 16/14/58 17/17/59 14/15/60
f 2/4/61 8/6/62 18/18/63
f 8/6/64 7/3/65 19/19/66
f 8/6/67 19/19/68 18/18/69
f 7/3/70 3/5/71 19/19/72
f 3/5/73 9/10/74 4/20/75
f 13/7/76 12/12/77 22/21/78
f 13/7/79 22/21/80 20/9/81
f 20/9/82 22/21/83 21/22/84
f 12/12/85 23/13/86 34/23/87
f 12/12/88 34/23/89 22/21/90
f 22/21/91 34/23/92 33/24/93
f 22/21/94 33/24/95 21/22/96
f 15/16/97 14/15/98 24/25/99
f 15/16/100 24/25/101 23/13/102
f 23/13/103 24/25/104 5/26/105
f 14/15/106 17/17/107 25/27/108
f 17/17/109 27/28/110 25/27/111
f 25/27/112 27/28/113 26/29/114
f 17/17/115 2/4/116 27/28/117
f 27/28/118 28/30/119 26/29/120
f 26/29/121 28/30/122 38/31/123
f 2/4/124 18/18/125 27/28/126
f 18/18/127 29/32/128 27/28/129
f 27/28/130 29/32/131 28/30/132
f 18/18/133 19/19/134 29/32/135
f 28/30/136 29/32/137 38/31/138
f 4/20/139 30/33/140 3/5/141
f 3/5/142 30/33/143 19/19/144
f 30/33/145 41/34/146 19/19/147
f 20/9/148 21/22/149 32/35/150
f 20/9/151 32/35/152 9/10/153
f 21/22/154 33/24/155 31/36/156
f 21/22/157 31/36/158 32/35/159
f 32/35/160 31/36/161 9/10/162
f 9/10/163 31/36/164 4/20/165
f 23/13/166 5/26/167 34/23/168
f 5/26/169 36/37/170 34/23/171
f 34/23/172 36/37/173 33/24/174
f 14/15/175 25/27/176 24/25/177
f 25/27/178 26/29/179 37/38/180
f 25/27/181 37/38/182 24/25/183
f 26/29/184 38/31/185 35/39/186
f 26/29/187 35/39/188 37/38/189
f 37/38/190 35/39/191 36/37/192
f 37/38/193 36/37/194 24/25/195
f 24/25/196 36/37/197 5/26/198
f 29/32/199 40/40/200 38/31/201
f 29/32/202 19/19/203 41/34/204
f 29/32/205 41/34/206 40/40/207
f 40/40/208 41/34/209 39/41/210
f 40/40/211 39/41/212 38/31/213
f 38/31/214 39/41/215 43/42/216
f 30/33/217 4/20/218 43/42/219
f 30/33/220 43/42/221 41/34/222
f 41/34/223 43/42/224 39/41/225
f 4/20/226 31/36/227 43/42/228
f 31/36/229 33/24/230 42/43/231
f 31/36/232 42/43/233 43/42/234
f 43/42/235 42/43/236 44/44/237
f 33/24/238 36/37/239 44/44/240
f 33/24/241 44/44/242 42/43/243
f 44/44/244 36/37/245 45/45/246
f 44/44/247 45/45/248 43/42/249
f 36/37/250 35/39/251 45/45/252
f 35/39/253 38/31/254 45/45/255
f 45/45/256 38/31/257 43/42/258
f 46/46/259 47/47/260 52/48/261 51/49/262
f 47/47/263 48/50/264 53/51/265 52/48/266
f 48/50/267 49/52/268 54/53/269 53/51/270
f 49/52/271 50/54/272 55/55/273 54/53/274
f 50/54/275 46/46/276 51/49/277 55/55/278
f 51/49/279 52/48/280 57/56/281 56/57/282
f 52/48/283 53/51/284 58/58/285 57/56/286
f 53/51/287 54/53/288 59/59/289 58/58/290
f 54/53/291 55/55/292 60/60/293 59/59/294
f 55/55/295 51/49/296 56/57/297 60/60/298
f 56/57/299 57/56/300 62/61/301 61/62/302
f 57/56/303 58/58/304 63/63/305 62/61/306
f 58/58/307 59/59/308 64/64/309 63/63/310
f 59/59/311 60/60/312 65/65/313 64/64/314
f 60/60/315 56/57/316 61/62/317 65/65/318
