# This file uses centimeters as units for non-parametric coordinates.

v 11.126282 0.000000 16.863770
v -10.588165 0.000000 -17.304932
v 11.620117 0.000000 -15.901367
v -11.126282 0.000000 10.958862
v -5.786896 0.000000 16.863770
v 11.172729 0.000000 -7.659485
v -10.686890 0.000000 -15.896118
v 11.255737 0.275983 -6.876343
v -10.996826 0.275983 -14.681030
v 11.126282 0.000000 -5.355103
v -11.126282 0.000000 -13.262268
v -10.588165 1.000000 -17.304932
v 11.620117 1.000000 -15.901367
v -10.639557 1.000000 -16.026245
v 11.220032 1.000000 -7.789612
v -10.981140 1.302822 -14.721436
v 11.271423 1.302821 -6.916809
v -11.158142 1.000000 -13.172058
v 11.094421 1.000000 -5.264893
v -11.126282 1.000000 10.958862
v -5.786896 1.000000 16.863770
v 11.126282 1.000000 16.863770
vt 0.377391 0.390364
vt 0.401619 0.353642
vt 0.401619 0.390364
vt 0.377391 0.360071
vt 0.383204 0.353642
vt 0.401619 0.381048
vt 0.377391 0.388786
vt 0.401619 0.379506
vt 0.377391 0.388003
vt 0.401619 0.377834
vt 0.377391 0.386443
vt 0.401619 0.390364
vt 0.377391 0.390364
vt 0.377391 0.388786
vt 0.401619 0.381048
vt 0.377391 0.388003
vt 0.401619 0.379506
vt 0.377391 0.386443
vt 0.401619 0.377834
vt 0.377391 0.360071
vt 0.383204 0.353642
vt 0.401619 0.353642
vt 0.401619 0.390364
vt 0.377391 0.390364
vt 0.377391 0.388786
vt 0.401619 0.381048
vt 0.377391 0.388003
vt 0.401619 0.379506
vt 0.377391 0.386443
vt 0.401619 0.377834
vt 0.377391 0.360071
vt 0.383204 0.353642
vt 0.401619 0.353642
vn 0.000000 1.000000 0.000000
vn 0.000000 1.000000 0.000000
vn 0.000000 1.000000 0.000000
vn 0.000000 1.000000 0.000000
vn 0.092839 0.962395 -0.255299
vn 0.092839 0.962395 -0.255299
vn 0.092839 0.962395 -0.255299
vn 0.092839 0.962395 -0.255299
vn -0.063114 0.981864 0.178775
vn -0.063114 0.981864 0.178775
vn -0.063114 0.981864 0.178775
vn -0.063114 0.981864 0.178775
vn 0.000000 1.000000 0.000000
vn 0.000000 1.000000 0.000000
vn 0.000000 1.000000 0.000000
vn 0.000000 1.000000 0.000000
vn 0.000000 1.000000 0.000000
vn 0.000000 1.000000 0.000000
vn 0.000000 1.000000 0.000000
vn 0.000000 -1.000000 0.000000
vn 0.000000 -1.000000 0.000000
vn 0.000000 -1.000000 0.000000
vn 0.000000 -1.000000 0.000000
vn -0.092839 -0.962395 0.255299
vn -0.092839 -0.962395 0.255299
vn -0.092839 -0.962395 0.255299
vn -0.092839 -0.962395 0.255299
vn 0.063114 -0.981863 -0.178776
vn 0.063114 -0.981863 -0.178776
vn 0.063114 -0.981863 -0.178776
vn 0.063114 -0.981863 -0.178776
vn 0.000000 -1.000000 0.000000
vn 0.000000 -1.000000 0.000000
vn 0.000000 -1.000000 0.000000
vn 0.000000 -1.000000 0.000000
vn 0.000000 -1.000000 0.000000
vn 0.000000 -1.000000 0.000000
vn 0.000000 -1.000000 0.000000
vn 0.063072 0.000000 -0.998009
vn 0.063072 0.000000 -0.998009
vn 0.063072 0.000000 -0.998009
vn 0.063072 0.000000 -0.998009
vn -0.998244 0.019987 -0.055764
vn -0.998244 0.019987 -0.055764
vn -0.998244 0.019987 -0.055764
vn -0.998244 0.019987 -0.055764
vn 0.998455 -0.020253 0.051740
vn 0.998455 -0.020253 0.051740
vn 0.998455 -0.020253 0.051740
vn 0.998455 -0.020253 0.051740
vn -0.967630 0.008862 -0.252219
vn -0.967630 0.008862 -0.252219
vn -0.967630 0.008862 -0.252219
vn -0.967630 0.008862 -0.252219
vn 0.997002 -0.036723 -0.068100
vn 0.997002 -0.036723 -0.068100
vn 0.997002 -0.036723 -0.068100
vn 0.997002 -0.036723 -0.068100
vn -0.994591 -0.005377 -0.103735
vn -0.994591 -0.005377 -0.103735
vn -0.994591 -0.005377 -0.103735
vn -0.994591 -0.005377 -0.103735
vn 0.995257 0.005542 0.097128
vn 0.995257 0.005542 0.097128
vn 0.995257 0.005542 0.097128
vn 0.995257 0.005542 0.097128
vn -0.999873 -0.015951 0.000659
vn -0.999873 -0.015951 0.000659
vn -0.999873 -0.015951 0.000659
vn -0.999873 -0.015951 0.000659
vn -0.741729 0.000000 0.670700
vn -0.741729 0.000000 0.670700
vn -0.741729 0.000000 0.670700
vn -0.741729 0.000000 0.670700
vn 0.000000 0.000000 1.000000
vn 0.000000 0.000000 1.000000
vn 0.000000 0.000000 1.000000
vn 0.000000 0.000000 1.000000
vn 0.999873 0.015953 -0.000718
vn 0.999873 0.015953 -0.000718
vn 0.999873 0.015953 -0.000718
vn 0.999873 0.015953 -0.000718
s off
f 13/23/1 12/24/2 14/25/3 15/26/4
f 15/26/5 14/25/6 16/27/7 17/28/8
f 17/28/9 16/27/10 18/29/11 19/30/12
f 18/29/13 20/31/14 19/30/15
f 19/30/16 20/31/17 21/32/18 22/33/19
f 3/12/20 6/15/21 7/14/22 2/13/23
f 6/15/24 8/17/25 9/16/26 7/14/27
f 8/17/28 10/19/29 11/18/30 9/16/31
f 11/18/32 10/19/33 4/20/34
f 5/21/35 4/20/36 10/19/37 1/22/38
f 3/3/39 2/1/40 12/24/41 13/23/42
f 2/1/43 7/7/44 14/25/45 12/24/46
f 6/6/47 3/3/48 13/23/49 15/26/50
f 7/7/51 9/9/52 16/27/53 14/25/54
f 8/8/55 6/6/56 15/26/57 17/28/58
f 9/9/59 11/11/60 18/29/61 16/27/62
f 10/10/63 8/8/64 17/28/65 19/30/66
f 11/11/67 4/4/68 20/31/69 18/29/70
f 4/4/71 5/5/72 21/32/73 20/31/74
f 5/5/75 1/2/76 22/33/77 21/32/78
f 1/2/79 10/10/80 19/30/81 22/33/82
