# This file uses centimeters as units for non-parametric coordinates.

v 1.492021 -0.861418 6.736343
v 1.492021 0.861418 6.736343
v -0.000000 1.722837 6.736343
v -1.492019 0.861418 6.736343
v -1.492019 -0.861418 6.736343
v -0.000000 -1.722837 6.736343
v 1.343295 -0.775551 7.784102
v 1.343295 0.775551 7.784102
v -0.000000 1.551103 7.784102
v -1.343293 0.775551 7.784102
v -1.343293 -0.775551 7.784102
v -0.000000 -1.551103 7.784102
v 2.852450 2.852447 4.531171
v -0.000000 4.033970 4.531171
v -2.852436 2.852447 4.531171
v -4.033967 -0.000000 4.531171
v -2.852436 -2.852443 4.531171
v -0.000000 -4.033967 4.531171
v 2.852450 -2.852447 4.531171
v 4.033981 -0.000000 4.531171
v 0.000006 0.000001 7.021880
v 2.337955 2.337952 6.010023
v 3.306374 0.000000 6.010023
v 2.337955 -2.337951 6.010023
v 0.000001 -3.306360 6.010023
v -2.337941 -2.337948 6.010023
v -3.306359 0.000000 6.010023
v -2.337941 2.337952 6.010023
v 0.000001 3.306364 6.010023
v 1.443155 1.443151 6.775780
v 2.040933 0.000001 6.775780
v 1.443155 -1.443149 6.775780
v 0.000003 -2.040922 6.775780
v -1.443141 -1.443148 6.775780
v -2.040918 0.000001 6.775780
v -1.443141 1.443151 6.775780
v 0.000003 2.040925 6.775780
v 4.846600 4.846594 0.000000
v 0.000000 6.854121 0.000000
v -4.846574 4.846594 0.000000
v -6.854115 0.000000 0.000000
v -4.846574 -4.846587 -0.000000
v 0.000000 -6.854115 -0.000000
v 4.846600 -4.846594 -0.000000
v 6.854140 0.000000 0.000000
v 3.281535 3.281528 4.531171
v 0.000004 4.640784 4.531171
v -3.281510 3.281528 4.531171
v -4.640773 0.000001 4.531171
v -3.281510 -3.281522 4.531171
v 0.000004 -4.640776 4.531171
v 3.281535 -3.281526 4.531171
v 4.640799 0.000001 4.531171
v 4.825064 4.825058 0.958496
v 6.823685 0.000000 0.958496
v 4.825064 -4.825058 0.958496
v 0.000000 -6.823659 0.958496
v -4.825039 -4.825051 0.958496
v -6.823658 0.000000 0.958496
v -4.825039 4.825058 0.958496
v 0.000000 6.823665 0.958496
v 4.362669 4.362661 1.099601
v 6.169755 0.000000 1.099601
v 4.362669 -4.362661 1.099601
v 0.000001 -6.169731 1.099601
v -4.362642 -4.362655 1.099601
v -6.169728 0.000000 1.099601
v -4.362642 4.362661 1.099601
v 0.000001 6.169737 1.099601
v 4.015259 4.015253 2.524676
v 5.678444 0.000001 2.524676
v 4.015259 -4.015252 2.524676
v 0.000002 -5.678420 2.524676
v -4.015233 -4.015246 2.524676
v -5.678418 0.000001 2.524676
v -4.015233 4.015253 2.524676
v 0.000002 5.678426 2.524676
v 3.796570 3.796563 2.758909
v 5.369170 0.000001 2.758909
v 3.796570 -3.796561 2.758909
v 0.000003 -5.369147 2.758909
v -3.796543 -3.796557 2.758909
v -5.369143 0.000001 2.758909
v -3.796543 3.796563 2.758909
v 0.000003 5.369153 2.758909
v 3.905375 3.905368 3.071938
v 5.523045 0.000001 3.071938
v 3.905375 -3.905366 3.071938
v 0.000003 -5.523021 3.071938
v -3.905349 -3.905361 3.071938
v -5.523018 0.000001 3.071938
v -3.905349 3.905368 3.071938
v 0.000003 5.523026 3.071938
v 3.359001 3.358993 4.083460
v 4.750352 0.000001 4.083460
v 3.359001 -3.358991 4.083460
v 0.000004 -4.750329 4.083460
v -3.358975 -3.358987 4.083460
v -4.750326 0.000001 4.083460
v -3.358975 3.358993 4.083460
v 0.000004 4.750336 4.083460
vt 0.091195 0.324926
vt 0.091600 0.324934
vt 0.091626 0.324152
vt 0.091216 0.324145
vt 0.091825 0.325041
vt 0.091856 0.324243
vt 0.091637 0.325145
vt 0.091666 0.324331
vt 0.091215 0.325137
vt 0.091237 0.324324
vt 0.090998 0.325025
vt 0.091017 0.324229
vt 0.100325 0.379514
vt 0.100329 0.379436
vt 0.100669 0.379293
vt 0.100612 0.379393
vt 0.101019 0.379448
vt 0.100906 0.379526
vt 0.101163 0.379816
vt 0.101027 0.379836
vt 0.101011 0.380167
vt 0.100901 0.380132
vt 0.100665 0.380293
vt 0.100610 0.380239
vt 0.100333 0.380132
vt 0.100328 0.380103
vt 0.100195 0.379782
vt 0.100211 0.379806
vt 0.100401 0.379639
vt 0.100328 0.379823
vt 0.100402 0.380011
vt 0.100580 0.380096
vt 0.100761 0.380027
vt 0.100839 0.379842
vt 0.100763 0.379649
vt 0.100580 0.379565
vt 0.100570 0.379836
vt 0.079431 0.278532
vt 0.079677 0.278451
vt 0.079619 0.278465
vt 0.079377 0.278545
vt 0.079960 0.278704
vt 0.079901 0.278722
vt 0.080056 0.279146
vt 0.079999 0.279168
vt 0.079899 0.279428
vt 0.079846 0.279451
vt 0.079640 0.279405
vt 0.079590 0.279425
vt 0.079430 0.279160
vt 0.079381 0.279177
vt 0.079347 0.278824
vt 0.079296 0.278838
vt 0.151123 0.127866
vt 0.151332 0.127777
vt 0.151557 0.127905
vt 0.151651 0.128180
vt 0.151553 0.128424
vt 0.151335 0.128489
vt 0.151130 0.128354
vt 0.151044 0.128102
vt 0.079390 0.278587
vt 0.079315 0.278853
vt 0.079392 0.279163
vt 0.079583 0.279389
vt 0.079814 0.279408
vt 0.079948 0.279151
vt 0.079859 0.278753
vt 0.079609 0.278520
vt 0.151105 0.128053
vt 0.151206 0.127754
vt 0.151162 0.127796
vt 0.151069 0.128074
vt 0.151212 0.128366
vt 0.151169 0.128367
vt 0.151472 0.128536
vt 0.151410 0.128526
vt 0.151755 0.128457
vt 0.151671 0.128451
vt 0.151888 0.128146
vt 0.151792 0.128163
vt 0.151768 0.127794
vt 0.151680 0.127836
vt 0.151476 0.127636
vt 0.151411 0.127688
vt 0.151167 0.127814
vt 0.151078 0.128078
vt 0.151173 0.128357
vt 0.151403 0.128508
vt 0.151650 0.128436
vt 0.151763 0.128163
vt 0.151658 0.127854
vt 0.151403 0.127713
vt 0.151149 0.127808
vt 0.151058 0.128080
vt 0.151156 0.128368
vt 0.151392 0.128523
vt 0.151647 0.128450
vt 0.151764 0.128168
vt 0.151655 0.127848
vt 0.151392 0.127702
vt 0.151138 0.127856
vt 0.151058 0.128096
vt 0.151145 0.128352
vt 0.151353 0.128489
vt 0.151576 0.128423
vt 0.151677 0.128175
vt 0.151581 0.127895
vt 0.151352 0.127765
vn 0.990075 0.000000 0.140538
vn 0.990075 0.000000 0.140538
vn 0.990075 0.000000 0.140538
vn 0.990075 0.000000 0.140538
vn 0.495038 0.857430 0.140538
vn 0.495038 0.857430 0.140538
vn 0.495038 0.857430 0.140538
vn 0.495038 0.857430 0.140538
vn -0.495038 0.857430 0.140538
vn -0.495038 0.857430 0.140538
vn -0.495038 0.857430 0.140538
vn -0.495038 0.857430 0.140538
vn -0.990075 0.000000 0.140538
vn -0.990075 0.000000 0.140538
vn -0.990075 0.000000 0.140538
vn -0.990075 0.000000 0.140538
vn -0.495038 -0.857430 0.140538
vn -0.495038 -0.857430 0.140538
vn -0.495038 -0.857430 0.140538
vn -0.495038 -0.857430 0.140538
vn 0.495038 -0.857430 0.140538
vn 0.495038 -0.857430 0.140538
vn 0.495038 -0.857430 0.140538
vn 0.495038 -0.857430 0.140538
vn -0.000000 0.000000 1.000000
vn -0.000000 0.000000 1.000000
vn -0.000000 0.000000 1.000000
vn -0.000000 0.000000 1.000000
vn -0.000000 0.000000 1.000000
vn -0.000000 0.000000 1.000000
vn -0.000000 0.000000 1.000000
vn -0.000000 0.000000 1.000000
vn 0.352254 0.850416 0.390782
vn 0.352254 0.850416 0.390782
vn 0.352254 0.850416 0.390782
vn 0.352254 0.850416 0.390782
vn -0.352255 0.850415 0.390782
vn -0.352255 0.850415 0.390782
vn -0.352255 0.850415 0.390782
vn -0.352255 0.850415 0.390782
vn -0.850415 0.352256 0.390782
vn -0.850415 0.352256 0.390782
vn -0.850415 0.352256 0.390782
vn -0.850415 0.352256 0.390782
vn -0.850415 -0.352256 0.390782
vn -0.850415 -0.352256 0.390782
vn -0.850415 -0.352256 0.390782
vn -0.850415 -0.352256 0.390782
vn -0.352255 -0.850415 0.390782
vn -0.352255 -0.850415 0.390782
vn -0.352255 -0.850415 0.390782
vn -0.352255 -0.850415 0.390782
vn 0.352253 -0.850416 0.390782
vn 0.352253 -0.850416 0.390782
vn 0.352253 -0.850416 0.390782
vn 0.352253 -0.850416 0.390782
vn 0.850415 -0.352256 0.390782
vn 0.850415 -0.352256 0.390782
vn 0.850415 -0.352256 0.390782
vn 0.850415 -0.352256 0.390782
vn 0.850415 0.352256 0.390782
vn 0.850415 0.352256 0.390782
vn 0.850415 0.352256 0.390782
vn 0.850415 0.352256 0.390782
vn 0.530468 0.219729 0.818732
vn 0.530468 0.219729 0.818732
vn 0.530468 0.219729 0.818732
vn 0.530468 0.219729 0.818732
vn 0.530468 -0.219729 0.818732
vn 0.530468 -0.219729 0.818732
vn 0.530468 -0.219729 0.818732
vn 0.530468 -0.219729 0.818732
vn 0.219727 -0.530469 0.818732
vn 0.219727 -0.530469 0.818732
vn 0.219727 -0.530469 0.818732
vn 0.219727 -0.530469 0.818732
vn -0.219729 -0.530469 0.818732
vn -0.219729 -0.530469 0.818732
vn -0.219729 -0.530469 0.818732
vn -0.219729 -0.530469 0.818732
vn -0.530468 -0.219729 0.818732
vn -0.530468 -0.219729 0.818732
vn -0.530468 -0.219729 0.818732
vn -0.530468 -0.219729 0.818732
vn -0.530469 0.219729 0.818732
vn -0.530469 0.219729 0.818732
vn -0.530469 0.219729 0.818732
vn -0.530469 0.219729 0.818732
vn -0.219729 0.530469 0.818732
vn -0.219729 0.530469 0.818732
vn -0.219729 0.530469 0.818732
vn -0.219729 0.530469 0.818732
vn 0.219728 0.530470 0.818732
vn 0.219728 0.530470 0.818732
vn 0.219728 0.530470 0.818732
vn 0.219728 0.530470 0.818732
vn 0.127865 0.052964 0.990376
vn 0.127865 0.052964 0.990376
vn 0.127865 0.052964 0.990376
vn 0.127865 -0.052964 0.990376
vn 0.127865 -0.052964 0.990376
vn 0.127865 -0.052964 0.990376
vn 0.052963 -0.127866 0.990376
vn 0.052963 -0.127866 0.990376
vn 0.052963 -0.127866 0.990376
vn -0.052964 -0.127865 0.990376
vn -0.052964 -0.127865 0.990376
vn -0.052964 -0.127865 0.990376
vn -0.127865 -0.052964 0.990376
vn -0.127865 -0.052964 0.990376
vn -0.127865 -0.052964 0.990376
vn -0.127865 0.052964 0.990376
vn -0.127865 0.052964 0.990376
vn -0.127865 0.052964 0.990376
vn -0.052964 0.127865 0.990376
vn -0.052964 0.127865 0.990376
vn -0.052964 0.127865 0.990376
vn 0.052964 0.127865 0.990376
vn 0.052964 0.127865 0.990376
vn 0.052964 0.127865 0.990376
vn 0.382519 0.923482 0.029344
vn 0.382519 0.923482 0.029344
vn 0.382519 0.923482 0.029344
vn 0.382519 0.923482 0.029344
vn -0.382520 0.923481 0.029344
vn -0.382520 0.923481 0.029344
vn -0.382520 0.923481 0.029344
vn -0.382520 0.923481 0.029344
vn -0.923481 0.382521 0.029344
vn -0.923481 0.382521 0.029344
vn -0.923481 0.382521 0.029344
vn -0.923481 0.382521 0.029344
vn -0.923481 -0.382522 0.029343
vn -0.923481 -0.382522 0.029343
vn -0.923481 -0.382522 0.029343
vn -0.923481 -0.382522 0.029343
vn -0.382520 -0.923481 0.029343
vn -0.382520 -0.923481 0.029343
vn -0.382520 -0.923481 0.029343
vn -0.382520 -0.923481 0.029343
vn 0.382518 -0.923482 0.029344
vn 0.382518 -0.923482 0.029344
vn 0.382518 -0.923482 0.029344
vn 0.382518 -0.923482 0.029344
vn 0.923481 -0.382521 0.029343
vn 0.923481 -0.382521 0.029343
vn 0.923481 -0.382521 0.029343
vn 0.923481 -0.382521 0.029343
vn 0.923481 0.382521 0.029343
vn 0.923481 0.382521 0.029343
vn 0.923481 0.382521 0.029343
vn 0.923481 0.382521 0.029343
vn 0.000000 0.000000 -1.000000
vn 0.000000 0.000000 -1.000000
vn 0.000000 0.000000 -1.000000
vn 0.000000 0.000000 -1.000000
vn 0.000000 0.000000 -1.000000
vn 0.000000 0.000000 -1.000000
vn 0.000000 0.000000 -1.000000
vn 0.000000 0.000000 -1.000000
vn 0.000000 -0.000000 1.000000
vn 0.000000 -0.000000 1.000000
vn 0.000000 -0.000000 1.000000
vn 0.000000 -0.000000 1.000000
vn 0.000000 -0.000000 1.000000
vn 0.000000 -0.000000 1.000000
vn 0.000000 -0.000000 1.000000
vn 0.000000 -0.000000 1.000000
vn 0.210126 0.087038 0.973792
vn 0.210126 0.087038 0.973792
vn 0.210126 0.087038 0.973792
vn 0.210126 0.087038 0.973792
vn 0.210126 -0.087038 0.973792
vn 0.210126 -0.087038 0.973792
vn 0.210126 -0.087038 0.973792
vn 0.210126 -0.087038 0.973792
vn 0.087037 -0.210127 0.973792
vn 0.087037 -0.210127 0.973792
vn 0.087037 -0.210127 0.973792
vn 0.087037 -0.210127 0.973792
vn -0.087038 -0.210126 0.973792
vn -0.087038 -0.210126 0.973792
vn -0.087038 -0.210126 0.973792
vn -0.087038 -0.210126 0.973792
vn -0.210126 -0.087038 0.973792
vn -0.210126 -0.087038 0.973792
vn -0.210126 -0.087038 0.973792
vn -0.210126 -0.087038 0.973792
vn -0.210126 0.087038 0.973792
vn -0.210126 0.087038 0.973792
vn -0.210126 0.087038 0.973792
vn -0.210126 0.087038 0.973792
vn -0.087038 0.210126 0.973792
vn -0.087038 0.210126 0.973792
vn -0.087038 0.210126 0.973792
vn -0.087038 0.210126 0.973792
vn 0.087037 0.210127 0.973792
vn 0.087037 0.210127 0.973792
vn 0.087037 0.210127 0.973792
vn 0.087037 0.210127 0.973792
vn 0.879790 0.364424 0.305229
vn 0.879790 0.364424 0.305229
vn 0.879790 0.364424 0.305229
vn 0.879790 0.364424 0.305229
vn 0.879790 -0.364424 0.305230
vn 0.879790 -0.364424 0.305230
vn 0.879790 -0.364424 0.305230
vn 0.879790 -0.364424 0.305230
vn 0.364420 -0.879791 0.305230
vn 0.364420 -0.879791 0.305230
vn 0.364420 -0.879791 0.305230
vn 0.364420 -0.879791 0.305230
vn -0.364423 -0.879790 0.305230
vn -0.364423 -0.879790 0.305230
vn -0.364423 -0.879790 0.305230
vn -0.364423 -0.879790 0.305230
vn -0.879790 -0.364424 0.305230
vn -0.879790 -0.364424 0.305230
vn -0.879790 -0.364424 0.305230
vn -0.879790 -0.364424 0.305230
vn -0.879790 0.364424 0.305229
vn -0.879790 0.364424 0.305229
vn -0.879790 0.364424 0.305229
vn -0.879790 0.364424 0.305229
vn -0.364423 0.879790 0.305230
vn -0.364423 0.879790 0.305230
vn -0.364423 0.879790 0.305230
vn -0.364423 0.879790 0.305230
vn 0.364421 0.879791 0.305229
vn 0.364421 0.879791 0.305229
vn 0.364421 0.879791 0.305229
vn 0.364421 0.879791 0.305229
vn 0.514757 0.213221 0.830399
vn 0.514757 0.213221 0.830399
vn 0.514757 0.213221 0.830399
vn 0.514757 0.213221 0.830399
vn 0.514757 -0.213221 0.830399
vn 0.514757 -0.213221 0.830399
vn 0.514757 -0.213221 0.830399
vn 0.514757 -0.213221 0.830399
vn 0.213219 -0.514758 0.830399
vn 0.213219 -0.514758 0.830399
vn 0.213219 -0.514758 0.830399
vn 0.213219 -0.514758 0.830399
vn -0.213220 -0.514757 0.830399
vn -0.213220 -0.514757 0.830399
vn -0.213220 -0.514757 0.830399
vn -0.213220 -0.514757 0.830399
vn -0.514756 -0.213221 0.830399
vn -0.514756 -0.213221 0.830399
vn -0.514756 -0.213221 0.830399
vn -0.514756 -0.213221 0.830399
vn -0.514756 0.213221 0.830400
vn -0.514756 0.213221 0.830400
vn -0.514756 0.213221 0.830400
vn -0.514756 0.213221 0.830400
vn -0.213220 0.514756 0.830399
vn -0.213220 0.514756 0.830399
vn -0.213220 0.514756 0.830399
vn -0.213220 0.514756 0.830399
vn 0.213219 0.514757 0.830399
vn 0.213219 0.514757 0.830399
vn 0.213219 0.514757 0.830399
vn 0.213219 0.514757 0.830399
vn 0.807852 0.334626 -0.485181
vn 0.807852 0.334626 -0.485181
vn 0.807852 0.334626 -0.485181
vn 0.807852 0.334626 -0.485181
vn 0.807852 -0.334626 -0.485182
vn 0.807852 -0.334626 -0.485182
vn 0.807852 -0.334626 -0.485182
vn 0.807852 -0.334626 -0.485182
vn 0.334623 -0.807853 -0.485181
vn 0.334623 -0.807853 -0.485181
vn 0.334623 -0.807853 -0.485181
vn 0.334623 -0.807853 -0.485181
vn -0.334625 -0.807852 -0.485182
vn -0.334625 -0.807852 -0.485182
vn -0.334625 -0.807852 -0.485182
vn -0.334625 -0.807852 -0.485182
vn -0.807850 -0.334626 -0.485184
vn -0.807850 -0.334626 -0.485184
vn -0.807850 -0.334626 -0.485184
vn -0.807850 -0.334626 -0.485184
vn -0.807850 0.334625 -0.485184
vn -0.807850 0.334625 -0.485184
vn -0.807850 0.334625 -0.485184
vn -0.807850 0.334625 -0.485184
vn -0.334625 0.807852 -0.485181
vn -0.334625 0.807852 -0.485181
vn -0.334625 0.807852 -0.485181
vn -0.334625 0.807852 -0.485181
vn 0.334624 0.807853 -0.485181
vn 0.334624 0.807853 -0.485181
vn 0.334624 0.807853 -0.485181
vn 0.334624 0.807853 -0.485181
vn 0.758939 0.314365 0.570251
vn 0.758939 0.314365 0.570251
vn 0.758939 0.314365 0.570251
vn 0.758939 0.314365 0.570251
vn 0.758939 -0.314365 0.570251
vn 0.758939 -0.314365 0.570251
vn 0.758939 -0.314365 0.570251
vn 0.758939 -0.314365 0.570251
vn 0.314362 -0.758940 0.570251
vn 0.314362 -0.758940 0.570251
vn 0.314362 -0.758940 0.570251
vn 0.314362 -0.758940 0.570251
vn -0.314365 -0.758939 0.570251
vn -0.314365 -0.758939 0.570251
vn -0.314365 -0.758939 0.570251
vn -0.314365 -0.758939 0.570251
vn -0.758939 -0.314366 0.570251
vn -0.758939 -0.314366 0.570251
vn -0.758939 -0.314366 0.570251
vn -0.758939 -0.314366 0.570251
vn -0.758939 0.314365 0.570251
vn -0.758939 0.314365 0.570251
vn -0.758939 0.314365 0.570251
vn -0.758939 0.314365 0.570251
vn -0.314365 0.758939 0.570251
vn -0.314365 0.758939 0.570251
vn -0.314365 0.758939 0.570251
vn -0.314365 0.758939 0.570251
vn 0.314363 0.758940 0.570250
vn 0.314363 0.758940 0.570250
vn 0.314363 0.758940 0.570250
vn 0.314363 0.758940 0.570250
vn 0.901138 0.373267 0.220504
vn 0.901138 0.373267 0.220504
vn 0.901138 0.373267 0.220504
vn 0.901138 0.373267 0.220504
vn 0.901138 -0.373267 0.220504
vn 0.901138 -0.373267 0.220504
vn 0.901138 -0.373267 0.220504
vn 0.901138 -0.373267 0.220504
vn 0.373263 -0.901140 0.220504
vn 0.373263 -0.901140 0.220504
vn 0.373263 -0.901140 0.220504
vn 0.373263 -0.901140 0.220504
vn -0.373266 -0.901139 0.220503
vn -0.373266 -0.901139 0.220503
vn -0.373266 -0.901139 0.220503
vn -0.373266 -0.901139 0.220503
vn -0.901138 -0.373267 0.220503
vn -0.901138 -0.373267 0.220503
vn -0.901138 -0.373267 0.220503
vn -0.901138 -0.373267 0.220503
vn -0.901138 0.373267 0.220503
vn -0.901138 0.373267 0.220503
vn -0.901138 0.373267 0.220503
vn -0.901138 0.373267 0.220503
vn -0.373266 0.901139 0.220503
vn -0.373266 0.901139 0.220503
vn -0.373266 0.901139 0.220503
vn -0.373266 0.901139 0.220503
vn 0.373264 0.901139 0.220503
vn 0.373264 0.901139 0.220503
vn 0.373264 0.901139 0.220503
vn 0.373264 0.901139 0.220503
s off
f 1/1/1 2/2/2 8/3/3 7/4/4
f 2/2/5 3/5/6 9/6/7 8/3/8
f 3/5/9 4/7/10 10/8/11 9/6/12
f 4/7/13 5/9/14 11/10/15 10/8/16
f 5/9/17 6/11/18 12/12/19 11/10/20
f 6/11/21 1/1/22 7/4/23 12/12/24
f 7/4/25 8/3/26 9/6/27 12/12/28
f 12/12/29 9/6/30 10/8/31 11/10/32
f 22/13/33 13/14/34 14/15/35 29/16/36
f 14/15/37 15/17/38 28/18/39 29/16/40
f 15/17/41 16/19/42 27/20/43 28/18/44
f 16/19/45 17/21/46 26/22/47 27/20/48
f 17/21/49 18/23/50 25/24/51 26/22/52
f 18/23/53 19/25/54 24/26/55 25/24/56
f 19/25/57 20/27/58 23/28/59 24/26/60
f 20/27/61 13/14/62 22/13/63 23/28/64
f 23/28/65 22/13/66 30/29/67 31/30/68
f 24/26/69 23/28/70 31/30/71 32/31/72
f 25/24/73 24/26/74 32/31/75 33/32/76
f 26/22/77 25/24/78 33/32/79 34/33/80
f 27/20/81 26/22/82 34/33/83 35/34/84
f 28/18/85 27/20/86 35/34/87 36/35/88
f 29/16/89 28/18/90 36/35/91 37/36/92
f 30/29/93 22/13/94 29/16/95 37/36/96
f 31/30/97 30/29/98 21/37/99
f 32/31/100 31/30/101 21/37/102
f 33/32/103 32/31/104 21/37/105
f 34/33/106 33/32/107 21/37/108
f 35/34/109 34/33/110 21/37/111
f 36/35/112 35/34/113 21/37/114
f 37/36/115 36/35/116 21/37/117
f 30/29/118 37/36/119 21/37/120
f 38/38/121 39/39/122 61/40/123 54/41/124
f 39/39/125 40/42/126 60/43/127 61/40/128
f 40/42/129 41/44/130 59/45/131 60/43/132
f 41/44/133 42/46/134 58/47/135 59/45/136
f 42/46/137 43/48/138 57/49/139 58/47/140
f 43/48/141 44/50/142 56/51/143 57/49/144
f 44/50/145 45/52/146 55/53/147 56/51/148
f 45/52/149 38/38/150 54/41/151 55/53/152
f 38/38/153 45/52/154 44/50/155 43/48/156 42/46/157 41/44/158 40/42/159 39/39/160
f 46/54/161 47/55/162 48/56/163 49/57/164 50/58/165 51/59/166 52/60/167 53/61/168
f 55/53/169 54/41/170 62/62/171 63/63/172
f 56/51/173 55/53/174 63/63/175 64/64/176
f 57/49/177 56/51/178 64/64/179 65/65/180
f 58/47/181 57/49/182 65/65/183 66/66/184
f 59/45/185 58/47/186 66/66/187 67/67/188
f 60/43/189 59/45/190 67/67/191 68/68/192
f 61/40/193 60/43/194 68/68/195 69/69/196
f 54/41/197 61/40/198 69/69/199 62/62/200
f 63/70/201 62/71/202 70/72/203 71/73/204
f 64/74/205 63/70/206 71/73/207 72/75/208
f 65/76/209 64/74/210 72/75/211 73/77/212
f 66/78/213 65/76/214 73/77/215 74/79/216
f 67/80/217 66/78/218 74/79/219 75/81/220
f 68/82/221 67/80/222 75/81/223 76/83/224
f 69/84/225 68/82/226 76/83/227 77/85/228
f 62/71/229 69/84/230 77/85/231 70/72/232
f 71/73/233 70/72/234 78/86/235 79/87/236
f 72/75/237 71/73/238 79/87/239 80/88/240
f 73/77/241 72/75/242 80/88/243 81/89/244
f 74/79/245 73/77/246 81/89/247 82/90/248
f 75/81/249 74/79/250 82/90/251 83/91/252
f 76/83/253 75/81/254 83/91/255 84/92/256
f 77/85/257 76/83/258 84/92/259 85/93/260
f 70/72/261 77/85/262 85/93/263 78/86/264
f 79/87/265 78/86/266 86/94/267 87/95/268
f 80/88/269 79/87/270 87/95/271 88/96/272
f 81/89/273 80/88/274 88/96/275 89/97/276
f 82/90/277 81/89/278 89/97/279 90/98/280
f 83/91/281 82/90/282 90/98/283 91/99/284
f 84/92/285 83/91/286 91/99/287 92/100/288
f 85/93/289 84/92/290 92/100/291 93/101/292
f 78/86/293 85/93/294 93/101/295 86/94/296
f 87/95/297 86/94/298 94/102/299 95/103/300
f 88/96/301 87/95/302 95/103/303 96/104/304
f 89/97/305 88/96/306 96/104/307 97/105/308
f 90/98/309 89/97/310 97/105/311 98/106/312
f 91/99/313 90/98/314 98/106/315 99/107/316
f 92/100/317 91/99/318 99/107/319 100/108/320
f 93/101/321 92/100/322 100/108/323 101/109/324
f 86/94/325 93/101/326 101/109/327 94/102/328
f 95/103/329 94/102/330 46/54/331 53/61/332
f 96/104/333 95/103/334 53/61/335 52/60/336
f 97/105/337 96/104/338 52/60/339 51/59/340
f 98/106/341 97/105/342 51/59/343 50/58/344
f 99/107/345 98/106/346 50/58/347 49/57/348
f 100/108/349 99/107/350 49/57/351 48/56/352
f 101/109/353 100/108/354 48/56/355 47/55/356
f 94/102/357 101/109/358 47/55/359 46/54/360
v 0.927458 -0.535468 7.725703
v 0.927458 0.535468 7.725703
v 0.000000 1.070936 7.725701
v -0.927457 0.535468 7.725701
v -0.927457 -0.535468 7.725701
v 0.000000 -1.070936 7.725701
v 0.835008 -0.482092 8.679365
v 0.835008 0.482092 8.679365
v 0.000000 0.964184 8.679363
v -0.835007 0.482092 8.679363
v -0.835007 -0.482092 8.679363
v 0.000000 -0.964184 8.679363
vt 0.193761 0.126730
vt 0.193757 0.126238
vt 0.193733 0.126292
vt 0.193737 0.126741
vt 0.194160 0.126015
vt 0.194100 0.126090
vt 0.194578 0.126302
vt 0.194480 0.126352
vt 0.194573 0.126811
vt 0.194477 0.126816
vt 0.194160 0.127016
vt 0.194101 0.127003
vn 0.995334 0.000000 0.096490
vn 0.995334 0.000000 0.096490
vn 0.995334 0.000000 0.096490
vn 0.995334 0.000000 0.096490
vn 0.497667 0.861985 0.096490
vn 0.497667 0.861985 0.096490
vn 0.497667 0.861985 0.096490
vn 0.497667 0.861984 0.096490
vn -0.497667 0.861984 0.096490
vn -0.497667 0.861984 0.096490
vn -0.497667 0.861984 0.096490
vn -0.497667 0.861984 0.096490
vn -0.995334 0.000000 0.096490
vn -0.995334 0.000000 0.096490
vn -0.995334 0.000000 0.096490
vn -0.995334 0.000000 0.096490
vn -0.497667 -0.861984 0.096490
vn -0.497667 -0.861984 0.096490
vn -0.497667 -0.861984 0.096490
vn -0.497667 -0.861984 0.096490
vn 0.497667 -0.861985 0.096490
vn 0.497667 -0.861985 0.096490
vn 0.497667 -0.861985 0.096490
vn 0.497667 -0.861985 0.096490
vn 0.000001 0.000000 -1.000000
vn 0.000001 0.000000 -1.000000
vn 0.000000 0.000000 -1.000000
vn 0.000000 0.000000 -1.000000
vn -0.000003 0.000000 1.000000
vn -0.000003 0.000000 1.000000
vn -0.000001 0.000000 1.000000
vn -0.000001 0.000000 1.000000
vn -0.000001 0.000000 1.000000
vn -0.000001 0.000000 1.000000
vn 0.000000 0.000000 1.000000
vn 0.000000 0.000000 1.000000
vn 0.000003 0.000000 -1.000000
vn 0.000001 0.000000 -1.000000
vn 0.000001 0.000000 -1.000000
vn 0.000003 0.000000 -1.000000
s off
f 102/110/361 103/111/362 109/112/363 108/113/364
f 103/111/365 104/114/366 110/115/367 109/112/368
f 104/114/369 105/116/370 111/117/371 110/115/372
f 105/116/373 106/118/374 112/119/375 111/117/376
f 106/118/377 107/120/378 113/121/379 112/119/380
f 107/120/381 102/110/382 108/113/383 113/121/384
f 104/114/385 107/120/386 106/118/387 105/116/388
f 108/113/389 109/112/390 110/115/391 113/121/392
f 113/121/393 110/115/394 111/117/395 112/119/396
f 102/110/397 107/120/398 104/114/399 103/111/400
