# This file uses centimeters as units for non-parametric coordinates.

v -11.126282 0.000000 16.863770
v 11.126282 0.000000 16.863770
v -11.126282 0.000000 -16.863770
v 10.720642 0.000000 -16.129517
v -0.230896 0.000000 -16.578918
v 10.551636 0.000000 -12.011292
v -2.944489 0.510027 -16.863770
v 11.126282 0.510027 -10.714172
v -6.209442 0.000000 -16.863770
v 11.126282 0.000000 -9.232727
v -0.125305 1.000000 -16.823792
v 10.720642 1.000000 -16.129517
v 10.657227 1.000000 -12.256165
v -2.911591 1.613590 -16.943542
v 11.159180 1.613591 -10.794006
v -6.283630 1.000000 -16.694702
v 11.052094 1.000000 -9.063660
v -11.126282 1.000000 -16.863770
v -11.126282 1.000000 16.863770
v 11.126282 1.000000 16.863770
vt 0.377391 0.314849
vt 0.377391 0.351571
vt 0.401619 0.314849
vt 0.401619 0.351571
vt 0.389685 0.351571
vt 0.401619 0.347084
vt 0.386299 0.351571
vt 0.401619 0.344876
vt 0.382744 0.351571
vt 0.401619 0.343263
vt 0.401619 0.351571
vt 0.389685 0.351571
vt 0.401619 0.347084
vt 0.386299 0.351571
vt 0.401619 0.344876
vt 0.382744 0.351571
vt 0.401619 0.343263
vt 0.377391 0.351571
vt 0.377391 0.314849
vt 0.401619 0.314849
vt 0.401619 0.351571
vt 0.389685 0.351571
vt 0.401619 0.347084
vt 0.386299 0.351571
vt 0.401619 0.344876
vt 0.382744 0.351571
vt 0.401619 0.343263
vt 0.377391 0.351571
vt 0.377391 0.314849
vt 0.401619 0.314849
vn 0.000000 1.000000 0.000000
vn 0.000000 1.000000 0.000000
vn 0.000000 1.000000 0.000000
vn 0.197173 0.867207 -0.457247
vn 0.197173 0.867207 -0.457247
vn 0.197173 0.867207 -0.457247
vn 0.197173 0.867207 -0.457247
vn -0.143470 0.934080 0.326973
vn -0.143470 0.934080 0.326973
vn -0.143470 0.934080 0.326973
vn -0.143470 0.934080 0.326973
vn 0.000000 1.000000 0.000000
vn 0.000000 1.000000 0.000000
vn 0.000000 1.000000 0.000000
vn 0.000000 1.000000 0.000000
vn 0.000000 1.000000 0.000000
vn 0.000000 1.000000 0.000000
vn 0.000000 1.000000 0.000000
vn 0.000000 -1.000000 0.000000
vn 0.000000 -1.000000 0.000000
vn 0.000000 -1.000000 0.000000
vn -0.197172 -0.867208 0.457246
vn -0.197172 -0.867208 0.457246
vn -0.197172 -0.867208 0.457246
vn -0.197172 -0.867208 0.457246
vn 0.143470 -0.934080 -0.326973
vn 0.143470 -0.934080 -0.326973
vn 0.143470 -0.934080 -0.326973
vn 0.143470 -0.934080 -0.326973
vn 0.000000 -1.000000 0.000000
vn 0.000000 -1.000000 0.000000
vn 0.000000 -1.000000 0.000000
vn 0.000000 -1.000000 0.000000
vn 0.000000 -1.000000 0.000000
vn 0.000000 -1.000000 0.000000
vn 0.000000 -1.000000 0.000000
vn 0.051991 -0.124072 -0.990910
vn 0.051991 -0.124072 -0.990910
vn 0.051991 -0.124072 -0.990910
vn 0.051991 -0.124072 -0.990910
vn 0.998369 -0.049156 0.029031
vn 0.998369 -0.049156 0.029031
vn 0.998369 -0.049156 0.029031
vn 0.998369 -0.049156 0.029031
vn 0.040948 -0.155051 -0.987057
vn 0.040948 -0.155051 -0.987057
vn 0.040948 -0.155051 -0.987057
vn 0.040948 -0.155051 -0.987057
vn 0.940331 -0.111528 -0.321463
vn 0.940331 -0.111528 -0.321463
vn 0.940331 -0.111528 -0.321463
vn 0.940331 -0.111528 -0.321463
vn -0.044450 0.041477 -0.998150
vn -0.044450 0.041477 -0.998150
vn -0.044450 0.041477 -0.998150
vn -0.044450 0.041477 -0.998150
vn 0.999056 0.017927 0.039581
vn 0.999056 0.017927 0.039581
vn 0.999056 0.017927 0.039581
vn 0.999056 0.017927 0.039581
vn 0.017258 0.084852 -0.996244
vn 0.017258 0.084852 -0.996244
vn 0.017258 0.084852 -0.996244
vn 0.017258 0.084852 -0.996244
vn -1.000000 0.000000 0.000000
vn -1.000000 0.000000 0.000000
vn -1.000000 0.000000 0.000000
vn -1.000000 0.000000 0.000000
vn 0.000000 0.000000 1.000000
vn 0.000000 0.000000 1.000000
vn 0.000000 0.000000 1.000000
vn 0.000000 0.000000 1.000000
vn 0.999307 0.037186 -0.001425
vn 0.999307 0.037186 -0.001425
vn 0.999307 0.037186 -0.001425
vn 0.999307 0.037186 -0.001425
s off
f 12/21/1 11/22/2 13/23/3
f 13/23/4 11/22/5 14/24/6 15/25/7
f 15/25/8 14/24/9 16/26/10 17/27/11
f 18/28/12 19/29/13 16/26/14
f 17/27/15 16/26/16 19/29/17 20/30/18
f 4/11/19 6/13/20 5/12/21
f 6/13/22 8/15/23 7/14/24 5/12/25
f 8/15/26 10/17/27 9/16/28 7/14/29
f 10/17/30 2/20/31 1/19/32 9/16/33
f 3/18/34 9/16/35 1/19/36
f 4/4/37 5/5/38 11/22/39 12/21/40
f 6/6/41 4/4/42 12/21/43 13/23/44
f 5/5/45 7/7/46 14/24/47 11/22/48
f 8/8/49 6/6/50 13/23/51 15/25/52
f 7/7/53 9/9/54 16/26/55 14/24/56
f 10/10/57 8/8/58 15/25/59 17/27/60
f 9/9/61 3/2/62 18/28/63 16/26/64
f 3/2/65 1/1/66 19/29/67 18/28/68
f 1/1/69 2/3/70 20/30/71 19/29/72
f 2/3/73 10/10/74 17/27/75 20/30/76
