# This file uses centimeters as units for non-parametric coordinates.

v 5.638056 0.000000 -5.638056
v -0.000000 0.000000 -7.973416
v -5.638056 0.000000 -5.638056
v -7.973416 0.000000 0.000000
v -5.638056 0.000000 5.638056
v -0.000000 0.000000 7.973416
v 5.638056 0.000000 5.638057
v 7.973416 0.000000 0.000000
v 8.331687 13.457615 -8.331691
v -0.000000 13.457615 -11.782795
v -8.331690 13.457615 -8.331691
v -11.782796 13.457615 0.000000
v -8.331690 13.457615 8.331691
v -0.000000 13.457615 11.782795
v 8.331692 13.457615 8.331691
v 11.782796 13.457615 0.000000
v 5.638056 1.517623 -5.638056
v 7.973416 1.517623 0.000000
v 5.638056 1.517623 5.638057
v -0.000000 1.517623 7.973416
v -5.638056 1.517623 5.638056
v -7.973416 1.517623 0.000000
v -5.638056 1.517623 -5.638056
v -0.000000 1.517623 -7.973416
v 8.379994 4.352793 -8.379994
v 11.851103 4.352793 0.000000
v 8.379998 4.352793 8.379998
v -0.000000 4.352793 11.851103
v -8.379994 4.352793 8.379994
v -11.851103 4.352793 0.000000
v -8.379994 4.352793 -8.379994
v -0.000000 4.352793 -11.851103
v 6.750018 13.457615 -6.750020
v 0.000000 13.457615 -9.545975
v -6.750019 13.457615 -6.750020
v -9.545975 13.457615 0.000000
v -6.750019 13.457615 6.750020
v 0.000000 13.457615 9.545975
v 6.750020 13.457615 6.750020
v 9.545977 13.457615 0.000000
v 6.515473 4.824636 -6.515473
v 0.000000 4.824636 -9.214277
v -6.515473 4.824636 -6.515473
v -9.214277 4.824636 0.000000
v -6.515473 4.824636 6.515473
v 0.000000 4.824636 9.214277
v 6.515474 4.824636 6.515474
v 9.214278 4.824636 0.000000
v -0.000000 1.916099 0.000000
v -0.000000 0.000000 0.000000
v 8.347793 10.422013 -8.347795
v -0.000000 10.422013 -11.805570
v -8.347795 10.422013 -8.347795
v -11.805571 10.422013 0.000000
v -8.347795 10.422013 8.347795
v -0.000000 10.422013 11.805570
v 8.347797 10.422013 8.347797
v 11.805571 10.422013 0.000000
vt 0.102143 0.353258
vt 0.102298 0.353236
vt 0.102298 0.353189
vt 0.102142 0.353210
vt 0.102454 0.353257
vt 0.102455 0.353209
vt 0.102532 0.353312
vt 0.102533 0.353262
vt 0.102476 0.353374
vt 0.102477 0.353322
vt 0.102305 0.353403
vt 0.102305 0.353349
vt 0.102131 0.353376
vt 0.102130 0.353324
vt 0.102070 0.353315
vt 0.102069 0.353264
vt 0.102023 0.353083
vt 0.101876 0.353170
vt 0.101974 0.353273
vt 0.102309 0.353321
vt 0.102638 0.353270
vt 0.102725 0.353165
vt 0.102570 0.353081
vt 0.102295 0.353051
vt 0.236476 0.107265
vt 0.101800 0.353012
vt 0.101908 0.353116
vt 0.102311 0.353166
vt 0.102706 0.353112
vt 0.102800 0.353008
vt 0.102613 0.352925
vt 0.102294 0.352897
vt 0.102295 0.352909
vt 0.102013 0.352937
vt 0.102579 0.352935
vt 0.102741 0.353008
vt 0.102652 0.353099
vt 0.102309 0.353144
vt 0.101960 0.353102
vt 0.101860 0.353012
vt 0.102297 0.353058
vt 0.102092 0.353083
vt 0.102504 0.353081
vt 0.102613 0.353143
vt 0.102542 0.353216
vt 0.102307 0.353250
vt 0.102067 0.353218
vt 0.101989 0.353146
vt 0.102301 0.353206
vt 0.102301 0.353316
vt 0.236483 0.107290
vt 0.102295 0.352948
vt 0.102599 0.352977
vt 0.102775 0.353060
vt 0.102683 0.353165
vt 0.102310 0.353218
vt 0.101930 0.353169
vt 0.101825 0.353065
vt 0.236402 0.107331
vt 0.101993 0.352980
vt 0.236452 0.107381
vt 0.236635 0.107404
vt 0.236813 0.107379
vt 0.236857 0.107329
vt 0.236773 0.107289
vt 0.236627 0.107275
vt 0.236627 0.107250
vt 0.101978 0.352928
vt 0.236780 0.107264
vt 0.236869 0.107304
vt 0.236824 0.107354
vt 0.236635 0.107379
vt 0.236442 0.107355
vt 0.236390 0.107305
vn 0.382684 0.000000 -0.923879
vn 0.382684 0.000000 -0.923879
vn 0.382684 0.000000 -0.923879
vn 0.382684 0.000000 -0.923879
vn -0.382684 0.000000 -0.923879
vn -0.382684 0.000000 -0.923879
vn -0.382684 0.000000 -0.923879
vn -0.382684 0.000000 -0.923879
vn -0.923879 0.000000 -0.382684
vn -0.923879 0.000000 -0.382684
vn -0.923879 0.000000 -0.382684
vn -0.923879 0.000000 -0.382684
vn -0.923879 0.000000 0.382684
vn -0.923879 0.000000 0.382684
vn -0.923879 0.000000 0.382684
vn -0.923879 0.000000 0.382684
vn -0.382684 0.000000 0.923879
vn -0.382684 0.000000 0.923879
vn -0.382684 0.000000 0.923879
vn -0.382684 0.000000 0.923879
vn 0.382683 0.000000 0.923880
vn 0.382683 0.000000 0.923880
vn 0.382683 0.000000 0.923880
vn 0.382683 0.000000 0.923880
vn 0.923880 0.000000 0.382684
vn 0.923880 0.000000 0.382684
vn 0.923880 0.000000 0.382684
vn 0.923880 0.000000 0.382684
vn 0.923879 0.000000 -0.382684
vn 0.923879 0.000000 -0.382684
vn 0.923879 0.000000 -0.382684
vn 0.923879 0.000000 -0.382684
vn 0.573332 -0.784151 -0.237482
vn 0.573332 -0.784151 -0.237482
vn 0.573332 -0.784151 -0.237482
vn 0.573332 -0.784151 -0.237482
vn 0.573332 -0.784151 0.237482
vn 0.573332 -0.784151 0.237482
vn 0.573332 -0.784151 0.237482
vn 0.573332 -0.784151 0.237482
vn 0.237482 -0.784151 0.573332
vn 0.237482 -0.784151 0.573332
vn 0.237482 -0.784151 0.573332
vn 0.237482 -0.784151 0.573332
vn -0.237482 -0.784151 0.573332
vn -0.237482 -0.784151 0.573332
vn -0.237482 -0.784151 0.573332
vn -0.237482 -0.784151 0.573332
vn -0.573332 -0.784151 0.237482
vn -0.573332 -0.784151 0.237482
vn -0.573332 -0.784151 0.237482
vn -0.573332 -0.784151 0.237482
vn -0.573332 -0.784151 -0.237482
vn -0.573332 -0.784151 -0.237482
vn -0.573332 -0.784151 -0.237482
vn -0.573332 -0.784151 -0.237482
vn -0.237482 -0.784151 -0.573332
vn -0.237482 -0.784151 -0.573332
vn -0.237482 -0.784151 -0.573332
vn -0.237482 -0.784151 -0.573332
vn 0.237482 -0.784151 -0.573332
vn 0.237482 -0.784151 -0.573332
vn 0.237482 -0.784151 -0.573332
vn 0.237482 -0.784151 -0.573332
vn 0.923857 0.006931 -0.382675
vn 0.923857 0.006931 -0.382675
vn 0.923857 0.006931 -0.382675
vn 0.923857 0.006931 -0.382675
vn 0.923857 0.006932 0.382675
vn 0.923857 0.006932 0.382675
vn 0.923857 0.006932 0.382675
vn 0.923857 0.006932 0.382675
vn 0.382674 0.006932 0.923857
vn 0.382674 0.006932 0.923857
vn 0.382674 0.006932 0.923857
vn 0.382674 0.006932 0.923857
vn -0.382675 0.006931 0.923857
vn -0.382675 0.006931 0.923857
vn -0.382675 0.006931 0.923857
vn -0.382675 0.006931 0.923857
vn -0.923857 0.006931 0.382675
vn -0.923857 0.006931 0.382675
vn -0.923857 0.006931 0.382675
vn -0.923857 0.006931 0.382675
vn -0.923857 0.006931 -0.382675
vn -0.923857 0.006931 -0.382675
vn -0.923857 0.006931 -0.382675
vn -0.923857 0.006931 -0.382675
vn -0.382675 0.006931 -0.923857
vn -0.382675 0.006931 -0.923857
vn -0.382675 0.006931 -0.923857
vn -0.382675 0.006931 -0.923857
vn 0.382675 0.006931 -0.923857
vn 0.382675 0.006931 -0.923857
vn 0.382675 0.006931 -0.923857
vn 0.382675 0.006931 -0.923857
vn 0.000000 1.000000 0.000000
vn 0.000000 1.000000 0.000000
vn 0.000000 1.000000 0.000000
vn 0.000000 1.000000 0.000000
vn 0.000000 1.000000 0.000000
vn 0.000000 1.000000 0.000000
vn 0.000000 1.000000 0.000000
vn 0.000000 1.000000 0.000000
vn 0.000000 1.000000 0.000000
vn 0.000000 1.000000 0.000000
vn 0.000000 1.000000 0.000000
vn 0.000000 1.000000 0.000000
vn 0.000000 1.000000 0.000000
vn 0.000000 1.000000 0.000000
vn 0.000000 1.000000 0.000000
vn 0.000000 1.000000 0.000000
vn 0.000000 1.000000 0.000000
vn 0.000000 1.000000 0.000000
vn 0.000000 1.000000 0.000000
vn 0.000000 1.000000 0.000000
vn 0.000000 1.000000 0.000000
vn 0.000000 1.000000 0.000000
vn 0.000000 1.000000 0.000000
vn 0.000000 1.000000 0.000000
vn 0.000000 1.000000 0.000000
vn 0.000000 1.000000 0.000000
vn 0.000000 1.000000 0.000000
vn 0.000000 1.000000 0.000000
vn 0.000000 1.000000 0.000000
vn 0.000000 1.000000 0.000000
vn 0.000000 1.000000 0.000000
vn 0.000000 1.000000 0.000000
vn -0.382443 0.035475 0.923298
vn -0.382443 0.035475 0.923298
vn -0.382443 0.035475 0.923298
vn -0.382443 0.035475 0.923298
vn 0.382443 0.035475 0.923298
vn 0.382443 0.035475 0.923298
vn 0.382443 0.035475 0.923298
vn 0.382443 0.035475 0.923298
vn 0.923298 0.035475 0.382443
vn 0.923298 0.035475 0.382443
vn 0.923298 0.035475 0.382443
vn 0.923298 0.035475 0.382443
vn 0.923298 0.035475 -0.382443
vn 0.923298 0.035475 -0.382443
vn 0.923298 0.035475 -0.382443
vn 0.923298 0.035475 -0.382443
vn 0.382443 0.035475 -0.923298
vn 0.382443 0.035475 -0.923298
vn 0.382443 0.035475 -0.923298
vn 0.382443 0.035475 -0.923298
vn -0.382443 0.035475 -0.923298
vn -0.382443 0.035475 -0.923298
vn -0.382443 0.035475 -0.923298
vn -0.382443 0.035475 -0.923298
vn -0.923298 0.035475 -0.382443
vn -0.923298 0.035475 -0.382443
vn -0.923298 0.035475 -0.382443
vn -0.923298 0.035475 -0.382443
vn -0.923298 0.035475 0.382444
vn -0.923298 0.035475 0.382444
vn -0.923298 0.035475 0.382444
vn -0.923298 0.035475 0.382444
vn -0.123727 0.946292 0.298702
vn -0.123727 0.946292 0.298702
vn -0.123727 0.946292 0.298702
vn 0.123727 0.946292 0.298702
vn 0.123727 0.946292 0.298702
vn 0.123727 0.946292 0.298702
vn 0.298702 0.946292 0.123727
vn 0.298702 0.946292 0.123727
vn 0.298702 0.946292 0.123727
vn 0.298702 0.946292 -0.123727
vn 0.298702 0.946292 -0.123727
vn 0.298702 0.946292 -0.123727
vn 0.123727 0.946292 -0.298702
vn 0.123727 0.946292 -0.298702
vn 0.123727 0.946292 -0.298702
vn -0.123727 0.946292 -0.298702
vn -0.123727 0.946292 -0.298702
vn -0.123727 0.946292 -0.298702
vn -0.298702 0.946292 -0.123727
vn -0.298702 0.946292 -0.123727
vn -0.298702 0.946292 -0.123727
vn -0.298702 0.946292 0.123727
vn -0.298702 0.946292 0.123727
vn -0.298702 0.946292 0.123727
vn 0.000000 -1.000000 0.000000
vn 0.000000 -1.000000 0.000000
vn 0.000000 -1.000000 0.000000
vn 0.000000 -1.000000 0.000000
vn 0.000000 -1.000000 0.000000
vn 0.000000 -1.000000 0.000000
vn 0.000000 -1.000000 0.000000
vn 0.000000 -1.000000 0.000000
vn 0.000000 -1.000000 0.000000
vn 0.000000 -1.000000 0.000000
vn 0.000000 -1.000000 0.000000
vn 0.000000 -1.000000 0.000000
vn 0.000000 -1.000000 0.000000
vn 0.000000 -1.000000 0.000000
vn 0.000000 -1.000000 0.000000
vn 0.000000 -1.000000 0.000000
vn 0.000000 -1.000000 0.000000
vn 0.000000 -1.000000 0.000000
vn 0.000000 -1.000000 0.000000
vn 0.000000 -1.000000 0.000000
vn 0.000000 -1.000000 0.000000
vn 0.000000 -1.000000 0.000000
vn 0.000000 -1.000000 0.000000
vn 0.000000 -1.000000 0.000000
vn 0.382675 0.006931 -0.923857
vn 0.382675 0.006931 -0.923857
vn 0.382675 0.006931 -0.923857
vn 0.382675 0.006931 -0.923857
vn -0.382675 0.006931 -0.923857
vn -0.382675 0.006931 -0.923857
vn -0.382675 0.006931 -0.923857
vn -0.382675 0.006931 -0.923857
vn -0.923857 0.006931 -0.382675
vn -0.923857 0.006931 -0.382675
vn -0.923857 0.006931 -0.382675
vn -0.923857 0.006931 -0.382675
vn -0.923857 0.006931 0.382675
vn -0.923857 0.006931 0.382675
vn -0.923857 0.006931 0.382675
vn -0.923857 0.006931 0.382675
vn -0.382675 0.006931 0.923857
vn -0.382675 0.006931 0.923857
vn -0.382675 0.006931 0.923857
vn -0.382675 0.006931 0.923857
vn 0.382674 0.006931 0.923857
vn 0.382674 0.006931 0.923857
vn 0.382674 0.006931 0.923857
vn 0.382674 0.006931 0.923857
vn 0.923857 0.006932 0.382674
vn 0.923857 0.006932 0.382674
vn 0.923857 0.006932 0.382674
vn 0.923857 0.006932 0.382674
vn 0.923857 0.006932 -0.382675
vn 0.923857 0.006932 -0.382675
vn 0.923857 0.006932 -0.382675
vn 0.923857 0.006932 -0.382675
s off
f 1/1/1 2/2/2 24/3/3 17/4/4
f 2/2/5 3/5/6 23/6/7 24/3/8
f 3/5/9 4/7/10 22/8/11 23/6/12
f 4/7/13 5/9/14 21/10/15 22/8/16
f 5/9/17 6/11/18 20/12/19 21/10/20
f 6/11/21 7/13/22 19/14/23 20/12/24
f 7/13/25 8/15/26 18/16/27 19/14/28
f 8/15/29 1/1/30 17/4/31 18/16/32
f 18/16/33 17/4/34 25/17/35 26/18/36
f 19/14/37 18/16/38 26/18/39 27/19/40
f 20/12/41 19/14/42 27/19/43 28/20/44
f 21/10/45 20/12/46 28/20/47 29/21/48
f 22/8/49 21/10/50 29/21/51 30/22/52
f 23/6/53 22/8/54 30/22/55 31/23/56
f 24/3/57 23/6/58 31/23/59 32/24/60
f 17/4/61 24/3/62 32/24/63 25/17/64
f 58/59/65 51/51/66 9/25/67 16/74/68
f 57/61/69 58/59/70 16/74/71 15/73/72
f 56/62/73 57/61/74 15/73/75 14/72/76
f 55/63/77 56/62/78 14/72/79 13/71/80
f 54/64/81 55/63/82 13/71/83 12/70/84
f 53/65/85 54/64/86 12/70/87 11/69/88
f 52/66/89 53/65/90 11/69/91 10/67/92
f 51/51/93 52/66/94 10/67/95 9/25/96
f 9/68/97 10/32/98 34/33/99 33/34/100
f 10/32/101 11/31/102 35/35/103 34/33/104
f 11/31/105 12/30/106 36/36/107 35/35/108
f 12/30/109 13/29/110 37/37/111 36/36/112
f 13/29/113 14/28/114 38/38/115 37/37/116
f 14/28/117 15/27/118 39/39/119 38/38/120
f 15/27/121 16/26/122 40/40/123 39/39/124
f 16/26/125 9/68/126 33/34/127 40/40/128
f 33/34/129 34/33/130 42/41/131 41/42/132
f 34/33/133 35/35/134 43/43/135 42/41/136
f 35/35/137 36/36/138 44/44/139 43/43/140
f 36/36/141 37/37/142 45/45/143 44/44/144
f 37/37/145 38/38/146 46/46/147 45/45/148
f 38/38/149 39/39/150 47/47/151 46/46/152
f 39/39/153 40/40/154 48/48/155 47/47/156
f 40/40/157 33/34/158 41/42/159 48/48/160
f 41/42/161 42/41/162 49/49/163
f 42/41/164 43/43/165 49/49/166
f 43/43/167 44/44/168 49/49/169
f 44/44/170 45/45/171 49/49/172
f 45/45/173 46/46/174 49/49/175
f 46/46/176 47/47/177 49/49/178
f 47/47/179 48/48/180 49/49/181
f 48/48/182 41/42/183 49/49/184
f 1/1/185 8/15/186 50/50/187
f 8/15/188 7/13/189 50/50/190
f 7/13/191 6/11/192 50/50/193
f 6/11/194 5/9/195 50/50/196
f 5/9/197 4/7/198 50/50/199
f 4/7/200 3/5/201 50/50/202
f 3/5/203 2/2/204 50/50/205
f 2/2/206 1/1/207 50/50/208
f 25/17/209 32/24/210 52/52/211 51/60/212
f 32/24/213 31/23/214 53/53/215 52/52/216
f 31/23/217 30/22/218 54/54/219 53/53/220
f 30/22/221 29/21/222 55/55/223 54/54/224
f 29/21/225 28/20/226 56/56/227 55/55/228
f 28/20/229 27/19/230 57/57/231 56/56/232
f 27/19/233 26/18/234 58/58/235 57/57/236
f 26/18/237 25/17/238 51/60/239 58/58/240
