# This file uses centimeters as units for non-parametric coordinates.

v 3.162182 -25.574863 -5.477061
v -3.162182 -25.574863 -5.477061
v -6.324364 -25.574863 -0.000001
v -3.162182 -25.574863 5.477054
v 3.162182 -25.574863 5.477054
v 6.324364 -25.574863 -0.000001
v -0.000000 -27.239067 -0.000004
v 4.054657 -18.542109 -7.022873
v 8.109314 -18.542109 0.000000
v 4.054657 -18.542109 7.022865
v -4.054657 -18.542109 7.022865
v -8.109314 -18.542109 0.000000
v -4.054657 -18.542109 -7.022873
v 2.304350 -11.798309 -3.991255
v 4.608699 -11.798309 -0.000002
v 2.304350 -11.798309 3.991247
v -2.304350 -11.798309 3.991247
v -4.608699 -11.798309 -0.000002
v -2.304350 -11.798309 -3.991255
v 2.785420 -4.777679 -4.824495
v -2.785420 -4.777679 -4.824495
v -5.570840 -4.777679 -0.000001
v -2.785420 -4.777679 4.824487
v 2.785420 -4.777679 4.824487
v 5.570841 -4.777679 -0.000001
v 3.103364 -11.261167 -5.375188
v 6.206727 -11.261166 -0.000001
v 3.103364 -11.261165 5.375181
v -3.103364 -11.261165 5.375180
v -6.206727 -11.261166 -0.000001
v -3.103364 -11.261167 -5.375189
v 1.424231 0.000000 -2.466844
v -1.424230 0.000000 -2.466844
v -2.848461 0.000000 -0.000002
v -1.424230 0.000000 2.466836
v 1.424231 0.000000 2.466836
v 2.848461 0.000000 -0.000003
vt 0.003668 0.123894
vt 0.004072 0.123901
vt 0.080595 0.302852
vt 0.080185 0.302846
vt 0.004298 0.124009
vt 0.080824 0.302944
vt 0.004110 0.124113
vt 0.080634 0.303032
vt 0.003688 0.124104
vt 0.080206 0.303025
vt 0.003471 0.123993
vt 0.079986 0.302930
vt 0.003889 0.124003
vt 0.003675 0.123638
vt 0.003478 0.123732
vt 0.003695 0.123838
vt 0.004120 0.123846
vt 0.004308 0.123748
vt 0.004081 0.123645
vt 0.080177 0.303120
vt 0.079979 0.303209
vt 0.080198 0.303310
vt 0.080624 0.303317
vt 0.080814 0.303224
vt 0.080585 0.303127
vt 0.079979 0.303209
vt 0.080177 0.303120
vt 0.080198 0.303310
vt 0.080624 0.303317
vt 0.080814 0.303224
vt 0.080585 0.303127
vt 0.080185 0.302846
vt 0.080595 0.302852
vt 0.080824 0.302944
vt 0.080634 0.303032
vt 0.080206 0.303025
vt 0.079986 0.302930
vt 0.004090 0.123394
vt 0.003682 0.123387
vt 0.004318 0.123491
vt 0.004129 0.123584
vt 0.003702 0.123577
vt 0.003484 0.123476
vn 0.000000 -0.214677 -0.976685
vn 0.000000 -0.214677 -0.976685
vn 0.000000 -0.214677 -0.976685
vn 0.000000 -0.214677 -0.976685
vn -0.845834 -0.214677 -0.488342
vn -0.845834 -0.214677 -0.488342
vn -0.845834 -0.214677 -0.488342
vn -0.845834 -0.214677 -0.488342
vn -0.845834 -0.214677 0.488343
vn -0.845834 -0.214677 0.488343
vn -0.845834 -0.214677 0.488343
vn -0.845834 -0.214677 0.488343
vn 0.000000 -0.214677 0.976685
vn 0.000000 -0.214677 0.976685
vn 0.000000 -0.214677 0.976685
vn 0.000000 -0.214677 0.976685
vn 0.845834 -0.214677 0.488343
vn 0.845834 -0.214677 0.488343
vn 0.845834 -0.214677 0.488343
vn 0.845834 -0.214677 0.488343
vn 0.845834 -0.214677 -0.488342
vn 0.845834 -0.214677 -0.488342
vn 0.845834 -0.214677 -0.488342
vn 0.845834 -0.214677 -0.488342
vn -0.251776 -0.956807 0.145363
vn -0.251776 -0.956807 0.145363
vn -0.251776 -0.956807 0.145363
vn 0.000000 1.000000 0.000000
vn 0.000000 1.000000 0.000000
vn 0.000000 1.000000 0.000000
vn 0.000000 1.000000 0.000000
vn 0.251776 -0.956807 -0.145363
vn 0.251776 -0.956807 -0.145363
vn 0.251776 -0.956807 -0.145363
vn 0.251776 -0.956807 0.145363
vn 0.251776 -0.956807 0.145363
vn 0.251776 -0.956807 0.145363
vn 0.000000 -0.956807 0.290725
vn 0.000000 -0.956807 0.290725
vn 0.000000 -0.956807 0.290725
vn -0.251776 -0.956806 -0.145363
vn -0.251776 -0.956806 -0.145363
vn -0.251776 -0.956806 -0.145363
vn 0.000000 -0.956807 -0.290725
vn 0.000000 -0.956807 -0.290725
vn 0.000000 -0.956807 -0.290725
vn 0.789883 0.410017 -0.456039
vn 0.789883 0.410017 -0.456039
vn 0.789883 0.410017 -0.456039
vn 0.789883 0.410017 -0.456039
vn 0.789882 0.410017 0.456039
vn 0.789882 0.410017 0.456039
vn 0.789882 0.410017 0.456039
vn 0.789882 0.410017 0.456039
vn 0.000000 0.410017 0.912078
vn 0.000000 0.410017 0.912078
vn 0.000000 0.410017 0.912078
vn 0.000000 0.410017 0.912078
vn -0.789882 0.410017 0.456039
vn -0.789882 0.410017 0.456039
vn -0.789882 0.410017 0.456039
vn -0.789882 0.410017 0.456039
vn -0.789883 0.410017 -0.456039
vn -0.789883 0.410017 -0.456039
vn -0.789883 0.410017 -0.456039
vn -0.789883 0.410017 -0.456039
vn 0.000000 0.410017 -0.912078
vn 0.000000 0.410017 -0.912078
vn 0.000000 0.410017 -0.912078
vn 0.000000 0.410017 -0.912078
vn 0.862918 0.084633 -0.498206
vn 0.862918 0.084633 -0.498206
vn 0.862918 0.084633 -0.498206
vn 0.862918 0.084633 -0.498206
vn 0.862918 0.084633 0.498206
vn 0.862918 0.084633 0.498206
vn 0.862918 0.084633 0.498206
vn 0.862918 0.084633 0.498206
vn -0.000000 0.084633 0.996412
vn -0.000000 0.084633 0.996412
vn -0.000000 0.084633 0.996412
vn -0.000000 0.084633 0.996412
vn -0.862918 0.084633 0.498206
vn -0.862918 0.084633 0.498206
vn -0.862918 0.084633 0.498206
vn -0.862918 0.084633 0.498206
vn -0.862918 0.084633 -0.498206
vn -0.862918 0.084633 -0.498206
vn -0.862918 0.084633 -0.498206
vn -0.862918 0.084633 -0.498206
vn 0.000000 0.084633 -0.996412
vn 0.000000 0.084633 -0.996412
vn 0.000000 0.084633 -0.996412
vn 0.000000 0.084633 -0.996412
vn 0.313354 -0.932244 -0.180915
vn 0.313354 -0.932244 -0.180915
vn 0.313354 -0.932244 -0.180915
vn 0.313354 -0.932244 -0.180915
vn 0.313354 -0.932244 0.180915
vn 0.313354 -0.932244 0.180915
vn 0.313354 -0.932244 0.180915
vn 0.313354 -0.932244 0.180915
vn -0.000000 -0.932244 0.361830
vn -0.000000 -0.932244 0.361830
vn -0.000000 -0.932244 0.361830
vn -0.000000 -0.932244 0.361830
vn -0.313354 -0.932244 0.180915
vn -0.313354 -0.932244 0.180915
vn -0.313354 -0.932244 0.180915
vn -0.313354 -0.932244 0.180915
vn -0.313354 -0.932244 -0.180915
vn -0.313354 -0.932244 -0.180915
vn -0.313354 -0.932244 -0.180915
vn -0.313354 -0.932244 -0.180915
vn 0.000000 -0.932244 -0.361830
vn 0.000000 -0.932244 -0.361830
vn 0.000000 -0.932244 -0.361830
vn 0.000000 -0.932244 -0.361830
vn 0.000000 0.442524 -0.896757
vn 0.000000 0.442524 -0.896757
vn 0.000000 0.442524 -0.896757
vn 0.000000 0.442524 -0.896757
vn -0.776614 0.442524 -0.448378
vn -0.776614 0.442524 -0.448378
vn -0.776614 0.442524 -0.448378
vn -0.776614 0.442524 -0.448378
vn -0.776614 0.442524 0.448378
vn -0.776614 0.442524 0.448378
vn -0.776614 0.442524 0.448378
vn -0.776614 0.442524 0.448378
vn 0.000000 0.442524 0.896757
vn 0.000000 0.442524 0.896757
vn 0.000000 0.442524 0.896757
vn 0.000000 0.442524 0.896757
vn 0.776614 0.442524 0.448378
vn 0.776614 0.442524 0.448378
vn 0.776614 0.442524 0.448378
vn 0.776614 0.442524 0.448378
vn 0.776614 0.442524 -0.448378
vn 0.776614 0.442524 -0.448378
vn 0.776614 0.442524 -0.448378
vn 0.776614 0.442524 -0.448378
vn 0.000000 1.000000 0.000000
vn 0.000000 1.000000 0.000000
vn 0.000000 1.000000 0.000000
vn 0.000000 1.000000 0.000000
s off
f 1/1/1 2/2/2 13/19/3 8/14/4
f 2/2/5 3/5/6 12/18/7 13/19/8
f 3/5/9 4/7/10 11/17/11 12/18/12
f 4/7/13 5/9/14 10/16/15 11/17/16
f 5/9/17 6/11/18 9/15/19 10/16/20
f 6/11/21 1/1/22 8/14/23 9/15/24
f 3/5/25 7/13/26 4/7/27
f 32/32/28 33/33/29 34/34/30 37/37/31
f 1/1/32 6/11/33 7/13/34
f 7/13/35 6/11/36 5/9/37
f 7/13/38 5/9/39 4/7/40
f 2/2/41 7/13/42 3/5/43
f 1/1/44 7/13/45 2/2/46
f 9/15/47 8/14/48 14/39/49 15/43/50
f 10/16/51 9/15/52 15/43/53 16/42/54
f 11/17/55 10/16/56 16/42/57 17/41/58
f 12/18/59 11/17/60 17/41/61 18/40/62
f 13/19/63 12/18/64 18/40/65 19/38/66
f 8/14/67 13/19/68 19/38/69 14/39/70
f 27/26/71 26/27/72 20/4/73 25/12/74
f 28/28/75 27/26/76 25/12/77 24/10/78
f 29/29/79 28/28/80 24/10/81 23/8/82
f 30/30/83 29/29/84 23/8/85 22/6/86
f 31/31/87 30/30/88 22/6/89 21/3/90
f 26/27/91 31/31/92 21/3/93 20/4/94
f 15/21/95 14/20/96 26/27/97 27/26/98
f 16/22/99 15/21/100 27/26/101 28/28/102
f 17/23/103 16/22/104 28/28/105 29/29/106
f 18/24/107 17/23/108 29/29/109 30/30/110
f 19/25/111 18/24/112 30/30/113 31/31/114
f 14/20/115 19/25/116 31/31/117 26/27/118
f 20/4/119 21/3/120 33/33/121 32/32/122
f 21/3/123 22/6/124 34/34/125 33/33/126
f 22/6/127 23/8/128 35/35/129 34/34/130
f 23/8/131 24/10/132 36/36/133 35/35/134
f 24/10/135 25/12/136 37/37/137 36/36/138
f 25/12/139 20/4/140 32/32/141 37/37/142
f 37/37/143 34/34/144 35/35/145 36/36/146
v -1.013169 0.000000 1.013169
v 1.013169 0.000000 1.013169
v -1.013169 149.999939 1.013169
v 1.013169 149.999939 1.013169
v -1.013169 149.999939 -1.013170
v 1.013169 149.999939 -1.013170
v -1.013169 0.000000 -1.013170
v 1.013169 0.000000 -1.013170
vt 0.080852 0.278925
vt 0.080066 0.278910
vt 0.080020 0.278139
vt 0.080817 0.278152
vt 0.080230 0.277947
vt 0.080990 0.277960
vt 0.080271 0.278684
vt 0.081020 0.278698
vn 0.000000 0.000000 1.000000
vn 0.000000 0.000000 1.000000
vn 0.000000 0.000000 1.000000
vn 0.000000 0.000000 1.000000
vn 0.000000 1.000000 0.000000
vn 0.000000 1.000000 0.000000
vn 0.000000 1.000000 0.000000
vn 0.000000 1.000000 0.000000
vn 0.000000 0.000000 -1.000000
vn 0.000000 0.000000 -1.000000
vn 0.000000 0.000000 -1.000000
vn 0.000000 0.000000 -1.000000
vn 0.000000 -1.000000 0.000000
vn 0.000000 -1.000000 0.000000
vn 0.000000 -1.000000 0.000000
vn 0.000000 -1.000000 0.000000
vn 1.000000 0.000000 0.000000
vn 1.000000 0.000000 0.000000
vn 1.000000 0.000000 0.000000
vn 1.000000 0.000000 0.000000
vn -1.000000 0.000000 0.000000
vn -1.000000 0.000000 0.000000
vn -1.000000 0.000000 0.000000
vn -1.000000 0.000000 0.000000
s off
f 38/44/147 39/45/148 41/46/149 40/47/150
f 40/47/151 41/46/152 43/48/153 42/49/154
f 42/49/155 43/48/156 45/50/157 44/51/158
f 44/51/159 45/50/160 39/45/161 38/44/162
f 39/45/163 45/50/164 43/48/165 41/46/166
f 44/51/167 38/44/168 40/47/169 42/49/170
