# This file uses centimeters as units for non-parametric coordinates.

v -9.770981 13.015808 0.850464
v -9.770981 -13.015806 0.850464
v 9.770966 13.015808 0.850464
v 9.770966 -13.015806 0.850464
v -10.935303 -14.566776 2.179443
v 10.935303 -14.566776 2.179443
v 10.935303 14.566872 2.179443
v -10.935303 14.566872 2.179443
v -14.507065 -17.751900 2.179443
v 14.507050 -17.751900 2.179443
v -14.507065 17.751900 2.179443
v -14.507065 -17.751904 0.000000
v 14.507080 -17.751900 0.000000
v 14.507050 17.751900 0.000000
v -14.507065 17.751900 0.000000
v 12.265686 15.436607 2.179443
v 14.507050 12.426332 2.179443
v 11.065857 17.751900 2.179443
v 14.507080 17.751900 0.929565
v -14.507065 -1.278313 2.179443
v -13.218613 -10.387094 2.179443
v -14.507065 -10.536123 1.210693
vt 0.141327 0.128342
vt 0.141797 0.128276
vt 0.141812 0.128287
vt 0.141336 0.128355
vt 0.141309 0.127642
vt 0.141319 0.127645
vt 0.141813 0.127624
vt 0.141829 0.127627
vt 0.141913 0.128381
vt 0.141214 0.128494
vt 0.141945 0.127496
vt 0.141888 0.128362
vt 0.141201 0.128470
vt 0.141163 0.127504
vt 0.141917 0.127494
vt 0.141248 0.127576
vt 0.141195 0.128000
vt 0.141561 0.127501
vt 0.141170 0.127506
vt 0.141928 0.127970
vt 0.141880 0.128206
vt 0.141909 0.128193
vt 0.017954 0.009132
vt 0.955101 0.009132
vt 0.955101 0.990868
vt 0.017954 0.990868
vn 0.000000 -0.000000 1.000000
vn 0.000000 -0.000000 1.000000
vn 0.000000 -0.000000 1.000000
vn 0.000000 -0.000000 1.000000
vn 0.000000 0.650654 0.759374
vn 0.000000 0.650654 0.759374
vn 0.000000 0.650654 0.759374
vn 0.000000 0.650654 0.759374
vn -0.752154 -0.000000 0.658988
vn -0.752154 -0.000000 0.658988
vn -0.752154 -0.000000 0.658988
vn -0.752154 -0.000000 0.658988
vn 0.000000 -0.650644 0.759383
vn 0.000000 -0.650644 0.759383
vn 0.000000 -0.650644 0.759383
vn 0.000000 -0.650644 0.759383
vn 0.752154 -0.000000 0.658987
vn 0.752154 -0.000000 0.658987
vn 0.752154 -0.000000 0.658987
vn 0.752154 -0.000000 0.658987
vn 0.000000 0.000007 1.000000
vn 0.000000 0.000007 1.000000
vn 0.000000 0.000007 1.000000
vn 0.000000 0.000007 1.000000
vn 0.336175 0.174211 0.925547
vn 0.336175 0.174211 0.925547
vn 0.336175 0.174211 0.925547
vn -0.000005 -0.000000 1.000000
vn -0.000005 -0.000000 1.000000
vn -0.000005 -0.000000 1.000000
vn -0.000005 -0.000000 1.000000
vn 0.000000 -1.000000 0.000000
vn 0.000000 -1.000000 0.000000
vn 0.000000 -1.000000 0.000000
vn 0.000000 -1.000000 0.000000
vn -1.000000 -0.000000 -0.000003
vn -1.000000 -0.000000 -0.000003
vn -1.000000 -0.000000 -0.000003
vn -0.000000 -0.000000 -1.000000
vn -0.000000 -0.000000 -1.000000
vn -0.000000 -0.000000 -1.000000
vn -0.000000 -0.000000 -1.000000
vn 1.000000 -0.000000 0.000000
vn 1.000000 -0.000000 0.000000
vn 1.000000 -0.000000 0.000000
vn 1.000000 -0.000000 0.000000
vn 1.000000 -0.000000 0.000000
vn -0.000000 1.000000 0.000000
vn -0.000000 1.000000 0.000000
vn -0.000000 1.000000 0.000000
vn -0.000000 1.000000 0.000000
vn -0.000000 1.000000 0.000000
vn 0.000000 0.000007 1.000000
vn 0.000000 0.000007 1.000000
vn 0.000000 0.000007 1.000000
vn 0.000000 0.000007 1.000000
vn 0.000000 0.000007 1.000000
vn -0.000000 -0.000000 1.000000
vn -0.000000 -0.000000 1.000000
vn -0.000000 -0.000000 1.000000
vn -0.000000 -0.000000 1.000000
vn -0.000000 -0.000000 1.000000
vn 0.293370 0.218436 0.930709
vn 0.293370 0.218436 0.930709
vn 0.293370 0.218436 0.930709
vn -0.592648 -0.083831 0.801087
vn -0.592648 -0.083831 0.801087
vn -0.592648 -0.083831 0.801087
vn -1.000000 -0.000000 0.000000
vn -1.000000 -0.000000 0.000000
vn -1.000000 -0.000000 0.000000
vn -0.605393 0.105913 0.788849
vn -0.605393 0.105913 0.788849
vn -0.605393 0.105913 0.788849
vn 0.000007 -0.000000 1.000000
vn 0.000007 -0.000000 1.000000
vn 0.000007 -0.000000 1.000000
vn 0.000005 -0.000001 1.000000
vn 0.000005 -0.000001 1.000000
vn 0.000005 -0.000001 1.000000
vn -1.000000 0.000000 0.000000
vn -1.000000 0.000000 0.000000
vn -1.000000 0.000000 0.000000
vn -1.000000 0.000000 0.000000
s off
f 2/23/1 4/24/2 3/25/3 1/26/4
f 4/1/5 2/2/6 5/3/7 6/4/8
f 3/5/9 4/1/10 6/4/11 7/6/12
f 1/7/13 3/5/14 7/6/15 8/8/16
f 2/2/17 1/7/18 8/8/19 5/3/20
f 6/4/21 5/3/22 9/9/23 10/10/24
f 16/16/25 19/19/26 18/18/27
f 21/21/28 8/8/29 11/11/30 20/20/31
f 10/10/32 9/9/33 12/12/34 13/13/35
f 12/12/36 22/22/37 15/15/38
f 13/13/39 12/12/40 15/15/41 14/14/42
f 19/19/43 17/17/44 10/10/45 13/13/46 14/14/47
f 11/11/48 18/18/49 19/19/50 14/14/51 15/15/52
f 8/8/53 7/6/54 16/16/55 18/18/56 11/11/57
f 7/6/58 6/4/59 10/10/60 17/17/61 16/16/62
f 17/17/63 19/19/64 16/16/65
f 22/22/66 21/21/67 20/20/68
f 9/9/69 22/22/70 12/12/71
f 9/9/72 21/21/73 22/22/74
f 5/3/75 21/21/76 9/9/77
f 5/3/78 8/8/79 21/21/80
f 15/15/81 22/22/82 20/20/83 11/11/84
