# This file uses centimeters as units for non-parametric coordinates.

v -2.260422 -1.260108 4.373268
v 2.266830 -1.260108 4.373268
v -2.260422 -0.404398 4.480675
v 2.266830 -0.404398 4.480675
v -0.961548 1.285522 -15.386742
v 0.967941 1.285522 -15.386742
v -0.961548 0.543074 -15.713142
v 0.967941 0.543074 -15.713142
v -0.960892 0.560364 1.730934
v 0.967255 0.560364 1.730934
v 0.967255 -0.230713 1.552101
v -0.960892 -0.230713 1.552101
v -2.472412 -1.285522 6.267250
v 2.472412 -1.285522 6.267250
v 2.472412 -0.425621 6.199913
v -2.472412 -0.425621 6.199913
v -1.377777 -1.078947 7.071724
v -1.377777 -0.238396 6.883919
v -0.593842 -1.078947 7.071724
v -0.593842 -0.238396 6.883919
v 0.600204 -1.078947 7.071724
v 0.600204 -0.238396 6.883919
v 1.377762 -1.078947 7.071724
v 1.377762 -0.238396 6.883919
v -1.818344 0.472010 15.713142
v -1.101059 0.472010 15.713142
v -1.101059 1.051279 15.520638
v -1.818344 1.051279 15.520638
v -0.347488 0.472010 15.713142
v -0.347488 1.051279 15.520638
v 0.353210 0.472010 15.713142
v 0.353210 1.051279 15.520638
v 1.100937 0.472010 15.713142
v 1.100937 1.051279 15.520638
v 1.818588 0.472010 15.713142
v 1.818588 1.051279 15.520638
v -0.814148 0.032207 -1.872993
v 0.820526 0.032207 -1.872993
v 0.820526 1.063364 -1.724800
v -0.814148 1.063364 -1.724800
v -1.579254 -0.243048 -12.582710
v 1.585648 -0.243048 -12.582710
v 1.585648 0.901234 -12.460030
v -1.579254 0.901234 -12.460030
vt 0.215466 0.107991
vt 0.215486 0.107982
vt 0.215490 0.107971
vt 0.215469 0.107980
vt 0.215693 0.108189
vt 0.215748 0.108163
vt 0.215814 0.108224
vt 0.215767 0.108247
vt 0.216053 0.108543
vt 0.216110 0.108514
vt 0.216115 0.108540
vt 0.216059 0.108568
vt 0.215769 0.108275
vt 0.215816 0.108253
vt 0.215751 0.108186
vt 0.215696 0.108212
vt 0.215601 0.108174
vt 0.215729 0.108113
vt 0.215730 0.108136
vt 0.215602 0.108197
vt 0.215559 0.108161
vt 0.215597 0.108115
vt 0.215575 0.108126
vt 0.215701 0.108076
vt 0.215699 0.108096
vt 0.215635 0.108083
vt 0.215657 0.108072
vt 0.215561 0.108142
vt 0.215579 0.108109
vt 0.215601 0.108098
vt 0.215511 0.107961
vt 0.215507 0.107972
vt 0.215527 0.107963
vt 0.215531 0.107952
vt 0.215631 0.108099
vt 0.215652 0.108089
vt 0.215552 0.107943
vt 0.215548 0.107953
vt 0.215568 0.107944
vt 0.215572 0.107934
vt 0.215971 0.108526
vt 0.216063 0.108480
vt 0.216063 0.108449
vt 0.215971 0.108495
vn 0.000000 0.252499 0.967597
vn 0.000000 0.252499 0.967597
vn 0.000000 0.252499 0.967597
vn 0.000000 0.252499 0.967597
vn 0.000000 0.978008 0.208569
vn 0.000000 0.978008 0.208569
vn 0.000000 0.978008 0.208569
vn 0.000000 0.978008 0.208569
vn 0.000000 0.461588 -0.887094
vn 0.000000 0.461588 -0.887094
vn 0.000000 0.461588 -0.887094
vn 0.000000 0.461588 -0.887094
vn 0.000000 -0.989909 -0.141705
vn 0.000000 -0.989909 -0.141705
vn 0.000000 -0.989909 -0.141705
vn 0.000000 -0.989909 -0.141705
vn 0.999099 0.010219 -0.041196
vn 0.999099 0.010219 -0.041196
vn 0.999099 0.010219 -0.041196
vn 0.999099 0.010219 -0.041196
vn -0.999099 0.010220 -0.041201
vn -0.999099 0.010220 -0.041201
vn -0.999099 0.010220 -0.041201
vn -0.999099 0.010220 -0.041201
vn 0.000000 0.919886 0.392185
vn 0.000000 0.919886 0.392185
vn 0.000000 0.919886 0.392185
vn 0.000000 0.919886 0.392185
vn 0.913347 0.095865 -0.395737
vn 0.913346 0.095865 -0.395737
vn 0.913347 0.095865 -0.395737
vn 0.913346 0.095865 -0.395737
vn 0.000000 -0.914938 -0.403595
vn 0.000000 -0.914938 -0.403595
vn 0.000000 -0.914938 -0.403595
vn 0.000000 -0.914938 -0.403595
vn -0.913351 0.095862 -0.395727
vn -0.913351 0.095862 -0.395727
vn -0.913351 0.095862 -0.395727
vn -0.913351 0.095862 -0.395727
vn 0.000000 -0.982791 0.184720
vn 0.000000 -0.982791 0.184720
vn 0.000000 -0.982791 0.184720
vn 0.993589 0.010040 -0.112611
vn 0.993588 0.010040 -0.112611
vn 0.993588 0.010040 -0.112611
vn 0.993588 0.010040 -0.112611
vn 0.000000 0.979747 -0.200241
vn 0.000000 0.979747 -0.200241
vn 0.000000 0.979747 -0.200241
vn -0.993186 0.010349 -0.116078
vn -0.993186 0.010349 -0.116078
vn -0.993186 0.010349 -0.116078
vn -0.993186 0.010349 -0.116078
vn 0.000000 0.153641 0.988127
vn 0.000000 0.153641 0.988127
vn 0.000000 0.153641 0.988127
vn 0.000000 0.153641 0.988127
vn 0.000000 0.252499 0.967597
vn 0.000000 0.252499 0.967597
vn 0.000000 0.252499 0.967597
vn 0.000000 0.252499 0.967597
vn 0.000000 0.153641 0.988127
vn 0.000000 0.153641 0.988127
vn 0.000000 0.153641 0.988127
vn 0.000000 0.153641 0.988127
vn 0.000000 0.252499 0.967597
vn 0.000000 0.252499 0.967597
vn 0.000000 0.252499 0.967597
vn 0.000000 0.252499 0.967597
vn -0.023285 -0.971873 0.234353
vn -0.023285 -0.971873 0.234353
vn -0.023285 -0.971873 0.234353
vn -0.023285 -0.971873 0.234353
vn 0.998639 -0.010164 -0.051155
vn 0.998639 -0.010164 -0.051155
vn 0.998639 -0.010164 -0.051155
vn 0.998639 -0.010164 -0.051155
vn -0.003860 0.981666 -0.190568
vn -0.003860 0.981666 -0.190568
vn -0.003860 0.981666 -0.190568
vn -0.003860 0.981666 -0.190568
vn -0.994187 0.012148 0.106984
vn -0.994187 0.012148 0.106984
vn -0.994187 0.012148 0.106984
vn -0.994186 0.012148 0.106984
vn -0.998921 0.009051 0.045553
vn -0.998921 0.009051 0.045553
vn -0.998921 0.009051 0.045553
vn -0.998921 0.009051 0.045553
vn 0.000000 -0.971684 0.236284
vn 0.000000 -0.971684 0.236284
vn 0.000000 -0.971684 0.236284
vn 0.000000 -0.971684 0.236284
vn 0.998915 0.009075 0.045672
vn 0.998915 0.009075 0.045672
vn 0.998915 0.009075 0.045672
vn 0.998915 0.009075 0.045672
vn 0.000000 0.981735 -0.190253
vn 0.000000 0.981735 -0.190252
vn 0.000000 0.981735 -0.190252
vn 0.000000 0.981735 -0.190253
vn -0.998638 -0.010169 -0.051176
vn -0.998638 -0.010169 -0.051176
vn -0.998638 -0.010169 -0.051176
vn -0.998638 -0.010169 -0.051176
vn 0.023279 -0.971873 0.234352
vn 0.023279 -0.971873 0.234352
vn 0.023279 -0.971873 0.234352
vn 0.023279 -0.971873 0.234352
vn 0.994191 0.012143 0.106946
vn 0.994191 0.012143 0.106946
vn 0.994191 0.012143 0.106946
vn 0.994191 0.012143 0.106946
vn 0.003859 0.981666 -0.190568
vn 0.003859 0.981666 -0.190568
vn 0.003859 0.981666 -0.190568
vn 0.003859 0.981666 -0.190568
vn 0.000000 -0.996882 -0.078906
vn 0.000000 -0.996882 -0.078906
vn 0.000000 -0.996882 -0.078906
vn 0.000000 -0.996882 -0.078906
vn 0.000000 0.996966 0.077836
vn 0.000000 0.996966 0.077836
vn 0.000000 0.996966 0.077836
vn 0.000000 0.996966 0.077836
vn 0.000000 -0.982791 0.184719
vn 0.000000 -0.982791 0.184719
vn 0.000000 -0.982791 0.184719
vn 0.000000 0.979747 -0.200241
vn 0.000000 0.979747 -0.200240
vn 0.000000 0.979747 -0.200241
vn 0.000000 0.979747 -0.200241
vn 0.000000 -0.982791 0.184719
vn 0.000000 -0.982791 0.184719
vn 0.000000 -0.982791 0.184719
vn 0.000000 -0.982791 0.184719
vn 0.000000 0.979747 -0.200241
vn 0.000000 0.979747 -0.200241
vn 0.000000 0.979747 -0.200241
vn 0.000000 -0.999205 -0.039865
vn 0.000000 -0.999205 -0.039865
vn 0.000000 -0.999205 -0.039865
vn 0.000000 -0.999205 -0.039865
vn 0.997412 -0.013541 0.070617
vn 0.997412 -0.013541 0.070617
vn 0.997412 -0.013541 0.070617
vn 0.997412 -0.013541 0.070617
vn 0.000000 0.998727 0.050448
vn 0.000000 0.998727 0.050448
vn 0.000000 0.998727 0.050448
vn 0.000000 0.998727 0.050448
vn -0.997412 -0.013541 0.070619
vn -0.997411 -0.013541 0.070619
vn -0.997412 -0.013541 0.070619
vn -0.997411 -0.013541 0.070619
vn 0.000000 -0.951842 -0.306588
vn 0.000000 -0.951842 -0.306588
vn 0.000000 -0.951843 -0.306588
vn 0.000000 -0.951843 -0.306588
vn 0.980499 0.057937 -0.187790
vn 0.980499 0.057937 -0.187790
vn 0.980499 0.057937 -0.187790
vn 0.980499 0.057937 -0.187790
vn 0.000000 0.980828 0.194873
vn 0.000000 0.980828 0.194873
vn 0.000000 0.980828 0.194873
vn 0.000000 0.980828 0.194873
vn -0.980497 0.057940 -0.187800
vn -0.980497 0.057940 -0.187800
vn -0.980497 0.057940 -0.187800
vn -0.980497 0.057940 -0.187800
s off
f 25/1/1 26/2/2 27/3/3 28/4/4
f 9/5/5 10/6/6 39/7/7 40/8/8
f 5/9/9 6/10/10 8/11/11 7/12/12
f 37/13/13 38/14/14 11/15/15 12/16/16
f 10/6/17 11/15/18 38/14/19 39/7/20
f 40/8/21 37/13/22 12/16/23 9/5/24
f 3/17/25 4/18/26 10/6/27 9/5/28
f 2/19/29 11/15/30 10/6/31 4/18/32
f 12/16/33 11/15/34 2/19/35 1/20/36
f 9/5/37 12/16/38 1/20/39 3/17/40
f 13/21/41 19/22/42 17/23/43
f 2/19/44 4/18/45 15/24/46 14/25/47
f 15/24/48 22/26/49 24/27/50
f 3/17/51 1/20/52 13/21/53 16/28/54
f 18/29/55 17/23/56 19/22/57 20/30/58
f 30/31/59 29/32/60 31/33/61 32/34/62
f 22/26/63 21/35/64 23/36/65 24/27/66
f 34/37/67 33/38/68 35/39/69 36/40/70
f 13/21/71 17/23/72 26/2/73 25/1/74
f 17/23/75 18/29/76 27/3/77 26/2/78
f 18/29/79 16/28/80 28/4/81 27/3/82
f 16/28/83 13/21/84 25/1/85 28/4/86
f 20/30/87 19/22/88 29/32/89 30/31/90
f 19/22/91 21/35/92 31/33/93 29/32/94
f 21/35/95 22/26/96 32/34/97 31/33/98
f 22/26/99 20/30/100 30/31/101 32/34/102
f 24/27/103 23/36/104 33/38/105 34/37/106
f 23/36/107 14/25/108 35/39/109 33/38/110
f 14/25/111 15/24/112 36/40/113 35/39/114
f 15/24/115 24/27/116 34/37/117 36/40/118
f 1/20/119 2/19/120 14/25/121 13/21/122
f 4/18/123 3/17/124 16/28/125 15/24/126
f 21/35/127 14/25/128 23/36/129
f 15/24/130 16/28/131 20/30/132 22/26/133
f 13/21/134 14/25/135 21/35/136 19/22/137
f 20/30/138 16/28/139 18/29/140
f 41/41/141 42/42/142 38/14/143 37/13/144
f 39/7/145 38/14/146 42/42/147 43/43/148
f 40/8/149 39/7/150 43/43/151 44/44/152
f 44/44/153 41/41/154 37/13/155 40/8/156
f 7/12/157 8/11/158 42/42/159 41/41/160
f 43/43/161 42/42/162 8/11/163 6/10/164
f 44/44/165 43/43/166 6/10/167 5/9/168
f 7/12/169 41/41/170 44/44/171 5/9/172
