# This file uses centimeters as units for non-parametric coordinates.

v 35.339447 -47.075294 0.000000
v 35.816193 -47.552040 1.838623
v 46.865570 -56.886906 0.000000
v 46.865570 -56.886906 3.300076
v -46.865570 -56.880032 0.000000
v -46.865570 -56.880032 3.300076
v -35.339447 -47.075294 0.000000
v -35.816193 -47.552040 1.838623
v 40.098953 -51.834812 3.300076
v -40.098961 -51.834812 3.300076
v 39.550983 -51.012836 1.603107
v -39.276985 -51.012836 2.404663
v 36.502148 -48.237999 1.838623
v -36.502148 -48.237999 1.838623
v 36.873032 -48.608883 2.404663
v -36.873032 -48.608883 2.404663
v -35.339447 -47.075302 0.000000
v -45.655548 58.601425 0.000000
v -45.655548 58.601425 3.300076
v -35.339447 47.075302 0.000000
v -35.816193 47.552048 1.838623
v -40.098961 51.834816 3.300076
v -39.276985 51.012844 2.404663
v -36.502148 48.238007 1.838623
v -36.873032 48.608891 2.404663
v 35.339447 47.075302 0.000000
v 35.816193 47.552048 1.838623
v 46.865570 57.099300 0.000000
v 46.865570 57.099300 3.300076
v 35.339447 -47.075302 0.000000
v 40.098953 51.834816 3.300076
v 39.276978 51.012844 2.404663
v 36.502148 48.238007 1.838623
v 36.873032 48.608891 2.404663
v -35.339447 47.075302 0.000000
v 35.339447 47.075302 0.000000
v 46.865570 -30.238342 3.300076
v 46.865570 -14.882295 3.300076
v 44.555748 -24.660341 3.300076
v 46.865570 -24.660341 1.732830
v -11.119820 -58.601421 0.000000
v -11.119820 -58.601421 1.632296
v -10.889172 -52.634449 3.300075
v -10.728825 -51.510113 2.017548
v -10.779213 -49.445004 2.404663
v -10.766566 -48.580853 1.838623
v -10.743189 -47.742382 1.838623
v -10.726940 -47.075294 0.000000
v -46.865570 57.101734 0.000000
v -46.865570 57.691711 3.300076
v 45.996536 58.601425 3.300076
v 45.708061 58.601425 0.000000
v -45.090878 -58.601421 3.300076
v -44.920361 -58.601421 0.000000
v 45.574738 -58.601414 3.300076
v 45.308662 -58.601421 0.000000
v -11.043775 -56.633972 3.300075
v 9.682346 -58.601421 3.300075
v 35.339447 5.894106 0.000000
v 35.674202 6.040775 1.838623
v 36.892952 5.994516 1.838623
v 37.517715 6.024557 2.404663
v 39.414192 5.814161 2.003258
v 40.098953 5.894109 3.300076
vt 0.173156 0.124845
vt 0.173156 0.125046
vt 0.173022 0.125122
vt 0.173022 0.124920
vt 0.173022 0.126043
vt 0.173022 0.126155
vt 0.173156 0.126080
vt 0.173156 0.125967
vt 0.173022 0.125771
vt 0.173156 0.125696
vt 0.173156 0.125705
vt 0.173022 0.125781
vt 0.173156 0.126013
vt 0.173022 0.126088
vt 0.093736 0.210278
vt 0.093736 0.210278
vt 0.173156 0.124845
vt 0.173156 0.125046
vt 0.173022 0.125122
vt 0.173022 0.124920
vt 0.173022 0.126043
vt 0.173022 0.126155
vt 0.173156 0.126080
vt 0.173156 0.125967
vt 0.093736 0.210278
vt 0.093736 0.210278
vt 0.173022 0.125771
vt 0.173156 0.125696
vt 0.173156 0.125705
vt 0.173022 0.125781
vt 0.173022 0.126088
vt 0.173156 0.126013
vt 0.173156 0.124845
vt 0.173156 0.125046
vt 0.173022 0.125122
vt 0.173022 0.124920
vt 0.173022 0.126043
vt 0.173022 0.126155
vt 0.173156 0.126080
vt 0.173156 0.125967
vt 0.093736 0.210278
vt 0.093736 0.210278
vt 0.173022 0.125771
vt 0.173156 0.125696
vt 0.173156 0.125705
vt 0.173022 0.125781
vt 0.173022 0.126088
vt 0.173156 0.126013
vt 0.173156 0.124845
vt 0.173156 0.125046
vt 0.173022 0.125122
vt 0.173022 0.124920
vt 0.173022 0.126043
vt 0.173022 0.126155
vt 0.173156 0.126080
vt 0.173156 0.125967
vt 0.093736 0.210278
vt 0.093736 0.210278
vt 0.173022 0.125771
vt 0.173156 0.125696
vt 0.173156 0.125705
vt 0.173022 0.125781
vt 0.173022 0.126088
vt 0.173156 0.126013
vt 0.173054 0.125104
vt 0.173067 0.125096
vt 0.173061 0.125100
vt 0.173061 0.125100
vt 0.173087 0.124884
vt 0.173087 0.125085
vt 0.173087 0.125744
vt 0.173087 0.125735
vt 0.093736 0.210278
vt 0.173087 0.126052
vt 0.173087 0.126119
vt 0.173087 0.126006
vt 0.173042 0.124909
vt 0.173041 0.125111
vt 0.173039 0.125112
vt 0.173040 0.124910
vt 0.173032 0.125116
vt 0.173032 0.124914
vt 0.173146 0.125052
vt 0.173145 0.124851
vt 0.173087 0.125303
vt 0.173108 0.125073
vt 0.173089 0.126005
vt 0.173089 0.126117
vt 0.173089 0.126050
vt 0.093736 0.210278
vt 0.173089 0.125734
vt 0.173089 0.125743
vt 0.093736 0.210278
vt 0.093736 0.210278
vt 0.093736 0.210278
vt 0.093736 0.210278
vt 0.093736 0.210278
vt 0.093736 0.210278
vt 0.093736 0.210278
vt 0.093736 0.210278
vt 0.173837 0.126897
vt 0.173837 0.124297
vt 0.174119 0.124091
vt 0.174119 0.127238
vt 0.171856 0.126758
vt 0.172110 0.126498
vt 0.173837 0.126897
vt 0.173819 0.126928
vt 0.174089 0.127273
vt 0.172110 0.126498
vt 0.171828 0.126710
vt 0.171828 0.123563
vt 0.172110 0.123898
vt 0.172068 0.123898
vt 0.172110 0.123898
vt 0.172110 0.125361
vt 0.172068 0.126524
vt 0.171866 0.123524
vt 0.173236 0.124158
vt 0.173245 0.123842
vt 0.173819 0.124302
vt 0.173837 0.124297
vt 0.174071 0.124032
vn -0.000000 -1.000000 -0.000000
vn -0.000000 -1.000000 -0.000000
vn -0.000000 -1.000000 -0.000000
vn -0.000000 -1.000000 -0.000000
vn 0.003657 0.954726 0.297464
vn 0.003657 0.954726 0.297464
vn 0.003657 0.954726 0.297464
vn 0.003657 0.954726 0.297464
vn 0.004888 -0.088852 0.996033
vn 0.004888 -0.088852 0.996033
vn 0.004888 -0.088852 0.996033
vn 0.004888 -0.088852 0.996033
vn -0.000000 -0.000000 1.000000
vn -0.000000 -0.000000 1.000000
vn -0.000000 -0.000000 1.000000
vn 0.021133 0.740723 0.671478
vn 0.021133 0.740723 0.671478
vn 0.021133 0.740723 0.671478
vn 0.021133 0.740723 0.671478
vn -0.000000 -0.000000 1.000000
vn -0.000000 -0.000000 1.000000
vn -0.000000 -0.000000 1.000000
vn -0.000000 -0.000000 1.000000
vn 0.015310 0.673047 0.739442
vn 0.015310 0.673047 0.739442
vn 0.015310 0.673047 0.739442
vn 0.015310 0.673047 0.739442
vn -0.704137 0.707244 -0.063221
vn -0.704137 0.707244 -0.063221
vn -0.704137 0.707244 -0.063221
vn -0.704137 0.707244 -0.063221
vn 0.967988 0.000000 0.250995
vn 0.967988 0.000000 0.250995
vn 0.967988 0.000000 0.250995
vn 0.967988 0.000000 0.250995
vn -0.000000 0.000000 1.000000
vn -0.000000 0.000000 1.000000
vn -0.000000 0.000000 1.000000
vn -0.000000 0.000000 1.000000
vn -0.000000 0.000000 1.000000
vn -0.000000 0.000000 1.000000
vn -0.000000 0.000000 1.000000
vn 0.736669 0.000000 0.676253
vn 0.736669 0.000000 0.676253
vn 0.736669 0.000000 0.676253
vn 0.736669 0.000000 0.676253
vn -0.000000 0.000000 1.000000
vn -0.000000 0.000000 1.000000
vn -0.000000 0.000000 1.000000
vn -0.000000 0.000000 1.000000
vn 0.836440 0.000000 0.548058
vn 0.836440 0.000000 0.548058
vn 0.836440 0.000000 0.548058
vn 0.836440 0.000000 0.548058
vn 0.556594 -0.131482 0.820314
vn 0.556594 -0.131482 0.820314
vn 0.556594 -0.131482 0.820314
vn -0.976563 0.001677 0.215224
vn -0.976563 0.001677 0.215224
vn -0.976563 0.001677 0.215224
vn -0.976563 0.001677 0.215224
vn 0.094811 -0.003708 0.995488
vn 0.094811 -0.003708 0.995488
vn 0.094811 -0.003708 0.995488
vn 0.094811 -0.003708 0.995488
vn -0.000000 0.000000 1.000000
vn -0.000000 0.000000 1.000000
vn -0.000000 0.000000 1.000000
vn -0.823391 -0.003739 0.567462
vn -0.823391 -0.003739 0.567462
vn -0.823391 -0.003739 0.567462
vn -0.823391 -0.003739 0.567462
vn -0.000000 0.000000 1.000000
vn -0.000000 0.000000 1.000000
vn -0.000000 0.000000 1.000000
vn -0.000000 0.000000 1.000000
vn -0.749263 -0.009146 0.662209
vn -0.749263 -0.009146 0.662209
vn -0.749263 -0.009146 0.662209
vn -0.749263 -0.009146 0.662209
vn -0.000000 1.000000 -0.000000
vn -0.000000 1.000000 -0.000000
vn -0.000000 1.000000 -0.000000
vn -0.000000 1.000000 -0.000000
vn 0.000000 -0.967989 0.250995
vn 0.000000 -0.967988 0.250994
vn 0.000000 -0.967988 0.250994
vn 0.000000 -0.967989 0.250995
vn -0.000000 -0.000000 1.000000
vn -0.000000 -0.000000 1.000000
vn -0.000000 -0.000000 1.000000
vn -0.000000 -0.000000 1.000000
vn -0.000000 -0.000000 1.000000
vn -0.000000 -0.000000 1.000000
vn -0.000000 -0.000000 1.000000
vn -0.000000 -0.736671 0.676251
vn -0.000000 -0.736671 0.676251
vn -0.000000 -0.736671 0.676251
vn -0.000000 -0.736671 0.676251
vn -0.000000 -0.000000 1.000000
vn -0.000000 -0.000000 1.000000
vn -0.000000 -0.000000 1.000000
vn -0.000000 -0.000000 1.000000
vn -0.000000 -0.836441 0.548057
vn -0.000000 -0.836441 0.548057
vn -0.000000 -0.836441 0.548057
vn -0.000000 -0.836441 0.548057
vn -0.000000 0.000000 1.000000
vn -0.000000 0.000000 1.000000
vn -0.000000 0.000000 1.000000
vn -0.000000 0.000000 1.000000
vn -0.000000 0.000000 1.000000
vn -0.000000 0.000000 1.000000
vn -0.000000 0.000000 1.000000
vn -0.000000 0.000000 1.000000
vn -0.000000 0.000000 1.000000
vn 1.000000 0.000000 -0.000001
vn 1.000000 0.000000 -0.000001
vn 1.000000 0.000000 -0.000001
vn 0.546882 0.226461 0.806000
vn 0.546882 0.226461 0.806000
vn 0.546882 0.226461 0.806000
vn 1.000000 0.000000 -0.000012
vn 1.000000 0.000000 -0.000012
vn 1.000000 0.000000 -0.000012
vn 1.000000 0.000000 0.000000
vn 1.000000 0.000000 0.000000
vn 1.000000 0.000000 0.000000
vn -0.000000 0.000000 1.000000
vn -0.000000 0.000000 1.000000
vn -0.000000 0.000000 1.000000
vn 1.000000 0.000000 0.000000
vn 1.000000 0.000000 0.000000
vn 1.000000 0.000000 0.000000
vn 1.000000 0.000000 0.000000
vn 1.000000 0.000000 0.000000
vn 1.000000 0.000000 0.000000
vn 0.768929 -0.638583 -0.030997
vn 0.768929 -0.638583 -0.030997
vn 0.768929 -0.638583 -0.030997
vn 0.768929 -0.638583 -0.030997
vn -0.000000 -0.000000 1.000000
vn -0.000000 -0.000000 1.000000
vn -0.000000 -0.000000 1.000000
vn -0.000000 -0.000000 1.000000
vn -0.008474 0.836668 0.547644
vn -0.008474 0.836668 0.547644
vn -0.008474 0.836668 0.547644
vn -0.008474 0.836668 0.547644
vn 0.007535 -0.252735 0.967506
vn 0.007535 -0.252735 0.967506
vn 0.007535 -0.252735 0.967506
vn 0.007535 -0.252735 0.967506
vn -0.008376 0.674368 0.738348
vn -0.008376 0.674368 0.738348
vn -0.008376 0.674368 0.738348
vn -0.008376 0.674368 0.738348
vn -0.000000 0.000000 1.000000
vn -0.000000 0.000000 1.000000
vn -0.000000 0.000000 1.000000
vn -0.000000 0.000000 1.000000
vn -0.001962 0.954800 0.297243
vn -0.001962 0.954800 0.297243
vn -0.001962 0.954800 0.297243
vn -0.001962 0.954800 0.297243
vn -1.000000 0.000000 -0.000001
vn -1.000000 0.000000 -0.000001
vn -1.000000 0.000000 -0.000001
vn -1.000000 0.000000 -0.000001
vn -0.000000 0.000000 1.000000
vn -0.000000 0.000000 1.000000
vn -0.000000 0.000000 1.000000
vn -0.000000 0.000000 1.000000
vn 0.828475 0.558855 -0.036211
vn 0.828475 0.558855 -0.036211
vn 0.828475 0.558855 -0.036211
vn 0.828475 0.558855 -0.036211
vn -0.000000 -0.000000 1.000000
vn -0.000000 -0.000000 1.000000
vn -0.000000 -0.000000 1.000000
vn -0.000000 -0.000000 1.000000
vn -0.679136 -0.733803 -0.017545
vn -0.679136 -0.733803 -0.017545
vn -0.679136 -0.733803 -0.017545
vn -0.679136 -0.733803 -0.017545
vn -0.000000 0.000000 1.000000
vn -0.000000 0.000000 1.000000
vn -0.000000 0.000000 1.000000
vn -0.000000 0.000000 1.000000
vn 0.000000 -1.000000 0.000002
vn 0.000000 -1.000000 0.000002
vn 0.000000 -1.000000 0.000002
vn -0.000000 0.000000 1.000000
vn -0.000000 0.000000 1.000000
vn -0.000000 0.000000 1.000000
vn 0.037388 -0.647012 0.761563
vn 0.037388 -0.647012 0.761563
vn 0.037388 -0.647012 0.761563
vn -0.061136 -0.644037 0.762547
vn -0.061136 -0.644037 0.762547
vn -0.061136 -0.644037 0.762547
vn -0.000000 0.000000 1.000000
vn -0.000000 0.000000 1.000000
vn -0.000000 0.000000 1.000000
vn 0.000000 -1.000000 0.000000
vn 0.000000 -1.000000 0.000000
vn 0.000000 -1.000000 0.000000
vn 0.000000 -1.000000 0.000000
vn -0.976528 -0.001301 0.215386
vn -0.976528 -0.001301 0.215386
vn -0.976528 -0.001301 0.215386
vn -0.976528 -0.001301 0.215386
vn -0.000000 -0.000000 1.000000
vn -0.000000 -0.000000 1.000000
vn -0.000000 -0.000000 1.000000
vn -0.000000 -0.000000 1.000000
vn -0.749820 0.007132 0.661603
vn -0.749820 0.007132 0.661603
vn -0.749820 0.007132 0.661603
vn -0.749820 0.007132 0.661603
vn 0.251853 -0.004622 0.967754
vn 0.251853 -0.004622 0.967754
vn 0.251853 -0.004622 0.967754
vn 0.251853 -0.004622 0.967754
vn -0.924888 -0.002433 0.380233
vn -0.924888 -0.002433 0.380233
vn -0.924888 -0.002433 0.380233
vn -0.924888 -0.002433 0.380233
vn -0.000000 0.000000 1.000000
vn -0.000000 0.000000 1.000000
vn -0.000000 0.000000 1.000000
vn 0.000000 0.000000 -1.000000
vn 0.000000 0.000000 -1.000000
vn 0.000000 0.000000 -1.000000
vn 0.000000 0.000000 -1.000000
vn 0.000000 0.000000 -1.000000
vn 0.000000 0.000000 -1.000000
vn 0.000000 0.000000 -1.000000
vn 0.000000 0.000000 -0.000000
vn 0.000000 0.000000 -1.000000
vn 0.000000 0.000000 -1.000000
vn 0.000000 -0.000000 -1.000000
vn 0.000000 -0.000000 -1.000000
vn 0.000000 -0.000000 -1.000000
vn 0.000000 0.000000 -1.000000
vn 0.000000 0.000000 -1.000000
vn 0.000000 0.000000 -1.000000
vn 0.000000 0.000000 -1.000000
vn 0.000000 0.000000 -0.000000
vn 0.000000 0.000000 -1.000000
vn 0.000000 0.000000 -1.000000
vn 0.000000 0.000000 -1.000000
vn 0.000000 0.000000 -1.000000
vn 0.000000 0.000000 -1.000000
vn 0.000000 0.000000 -0.000000
vn 0.000000 0.000000 -1.000000
vn 0.000000 0.000000 -1.000000
vn 0.000000 0.000000 -1.000000
vn 0.000000 0.000000 -1.000000
vn -0.000000 -0.000000 -1.000000
vn -0.000000 -0.000000 -1.000000
vn -0.000000 -0.000000 -1.000000
vn -0.000000 -0.000000 -0.000000
vn -0.000000 -0.000000 -1.000000
vn 0.000000 0.000000 -1.000000
vn 0.000000 0.000000 -1.000000
vn 0.000000 0.000000 -1.000000
vn 0.000000 0.000000 -1.000000
vn 0.000000 0.000000 -1.000000
vn 0.000000 0.000000 -1.000000
vn 0.000000 0.000000 -1.000000
vn 0.000000 0.000000 -1.000000
vn 0.000000 0.000000 -1.000000
vn 0.000000 -0.000000 -1.000000
vn 0.000000 -0.000000 -1.000000
vn 0.000000 -0.000000 -1.000000
s off
f 41/69/1 42/70/2 53/81/3 54/82/4
f 7/5/5 8/6/6 47/75/7 48/76/8
f 45/15/9 16/16/10 12/25/11 44/26/12
f 53/81/13 10/12/14 6/3/15
f 44/72/16 12/9/17 10/12/18 43/71/19
f 47/75/20 8/6/21 14/14/22 46/74/23
f 46/41/24 14/42/25 16/16/26 45/15/27
f 49/77/28 50/78/29 19/19/30 18/20/31
f 20/21/32 21/22/33 8/23/34 17/24/35
f 16/16/36 25/57/37 23/58/38 12/25/39
f 50/78/40 22/30/41 19/19/42
f 12/28/43 23/27/44 22/30/45 10/29/46
f 8/23/47 21/22/48 24/31/49 14/32/50
f 14/42/51 24/73/52 25/57/53 16/16/54
f 39/67/55 40/68/56 38/66/57
f 59/87/58 60/88/59 27/39/60 26/40/61
f 34/90/62 62/93/63 63/94/64 32/95/65
f 39/67/66 9/46/67 37/65/68
f 32/44/69 63/91/70 64/92/71 31/45/72
f 27/39/73 60/88/74 61/89/75 33/48/76
f 33/96/77 61/97/78 62/93/79 34/90/80
f 18/49/81 19/50/82 51/79/83 52/80/84
f 36/53/85 27/54/86 21/55/87 35/56/88
f 25/57/89 34/90/90 32/95/91 23/58/92
f 51/79/93 31/62/94 29/51/95
f 23/60/96 32/59/97 31/62/98 22/61/99
f 21/55/100 27/54/101 33/63/102 24/64/103
f 24/73/104 33/96/105 34/90/106 25/57/107
f 37/65/108 9/46/109 4/35/110
f 31/45/111 38/66/112 29/34/113
f 31/45/114 64/92/115 39/67/116
f 40/68/117 29/34/118 38/66/119
f 37/65/120 40/68/121 39/67/122
f 4/35/123 40/68/124 37/65/125
f 28/33/126 40/68/127 3/36/128
f 31/45/129 39/67/130 38/66/131
f 3/36/132 40/68/133 4/35/134
f 28/33/135 29/34/136 40/68/137
f 3/1/138 4/2/139 55/83/140 56/84/141
f 9/11/142 43/71/143 57/85/144 58/86/145
f 11/10/146 44/72/147 43/71/148 9/11/149
f 15/98/150 45/15/151 44/26/152 11/99/153
f 13/100/154 46/41/155 45/15/156 15/98/157
f 2/7/158 47/75/159 46/74/160 13/13/161
f 48/76/162 47/75/163 2/7/164 1/8/165
f 5/17/166 6/18/167 50/78/168 49/77/169
f 10/29/170 22/30/171 50/78/172 6/18/173
f 52/80/174 51/79/175 29/51/176 28/52/177
f 22/61/178 31/62/179 51/79/180 19/50/181
f 54/82/182 53/81/183 6/3/184 5/4/185
f 43/71/186 10/12/187 53/81/188 57/85/189
f 56/84/190 55/83/191 58/86/192
f 9/11/193 55/83/194 4/2/195
f 57/85/196 53/81/197 42/70/198
f 58/86/199 57/85/200 42/70/201
f 9/11/202 58/86/203 55/83/204
f 56/84/205 58/86/206 42/70/207 41/69/208
f 30/37/209 2/38/210 60/88/211 59/87/212
f 61/89/213 60/88/214 2/38/215 13/47/216
f 62/93/217 61/97/218 13/100/219 15/98/220
f 63/94/221 62/93/222 15/98/223 11/99/224
f 64/92/225 63/91/226 11/43/227 9/46/228
f 39/67/229 64/92/230 9/46/231
f 20/101/232 17/102/233 5/103/234 49/104/235
f 52/105/236 36/106/237 35/107/238 21/108/239 20/101/240 18/109/241
f 18/109/242 20/101/243 49/104/244
f 26/110/245 28/111/246 3/112/247 1/113/248 2/114/249 30/115/250 59/116/251
f 52/105/252 28/111/253 26/110/254 27/117/255 36/106/256
f 1/113/257 3/112/258 56/118/259
f 48/119/260 41/120/261 17/102/262 8/121/263 7/122/264
f 17/102/265 54/123/266 5/103/267
f 17/102/268 41/120/269 54/123/270
f 1/113/271 56/118/272 41/120/273
f 1/113/274 41/120/275 48/119/276
