# This file uses centimeters as units for non-parametric coordinates.

v -8.652466 0.000000 26.629639
v 8.652466 0.000000 26.629639
v 22.652466 0.000000 16.458008
v 28.000000 0.000000 0.000000
v 22.652466 0.000000 -16.458008
v 8.652466 0.000000 -26.629639
v -8.652466 0.000000 -26.629639
v -22.652466 0.000000 -16.458008
v -28.000000 0.000000 0.000000
v -22.652466 0.000000 16.458008
v 0.000000 0.000000 0.000000
v -8.652466 1.041668 26.629639
v 8.652466 1.041668 26.629639
v 0.000000 1.041668 0.000000
v 22.652466 1.041668 16.458008
v 28.000000 1.041668 0.000000
v 22.652466 1.041668 -16.458008
v 8.652466 1.041668 -26.629639
v -8.652466 1.041668 -26.629639
v -22.652466 1.041668 -16.458008
v -28.000000 1.041668 0.000000
v -22.652466 1.041668 16.458008
vt 0.616262 0.366400
vt 0.616262 0.366400
vt 0.616262 0.366400
vt 0.616262 0.366400
vt 0.616262 0.366400
vt 0.616262 0.366400
vt 0.616262 0.366400
vt 0.616262 0.366400
vt 0.616262 0.366400
vt 0.616262 0.366400
vt 0.625381 0.322831
vt 0.634498 0.366400
vt 0.625381 0.322831
vt 0.625381 0.322831
vt 0.625381 0.322831
vt 0.625381 0.322831
vt 0.625381 0.322831
vt 0.625381 0.322831
vt 0.625381 0.322831
vt 0.625381 0.322831
vt 0.625381 0.322831
vt 0.634499 0.366400
vt 0.634499 0.366400
vt 0.634498 0.366400
vt 0.634498 0.366400
vt 0.634498 0.366400
vt 0.634498 0.366400
vt 0.634498 0.366400
vt 0.634499 0.366400
vt 0.634498 0.366400
vt 0.634499 0.366400
vt 0.616262 0.366400
vt 0.625381 0.322831
vt 0.634498 0.366400
vt 0.616262 0.366400
vt 0.625381 0.322831
vt 0.634498 0.366400
vt 0.616262 0.366400
vt 0.625381 0.322831
vt 0.634498 0.366400
vt 0.616262 0.366400
vt 0.625381 0.322831
vt 0.634498 0.366400
vt 0.616262 0.366400
vt 0.625381 0.322831
vt 0.634498 0.366400
vt 0.616262 0.366400
vt 0.625381 0.322831
vt 0.634498 0.366400
vt 0.616262 0.366400
vt 0.625381 0.322831
vt 0.634499 0.366400
vt 0.616262 0.366400
vt 0.625381 0.322831
vt 0.634499 0.366400
vt 0.616262 0.366400
vt 0.625381 0.322831
vt 0.634498 0.366400
vt 0.616262 0.366400
vt 0.625381 0.322831
vt 0.634499 0.366400
vt 0.616262 0.366400
vt 0.634498 0.366400
vt 0.616262 0.366400
vt 0.634498 0.366400
vt 0.616262 0.366400
vt 0.634498 0.366400
vt 0.616262 0.366400
vt 0.634498 0.366400
vt 0.616262 0.366400
vt 0.634498 0.366400
vt 0.616262 0.366400
vt 0.634498 0.366400
vt 0.616262 0.366400
vt 0.634499 0.366400
vt 0.616262 0.366400
vt 0.634499 0.366400
vt 0.616262 0.366400
vt 0.634498 0.366400
vt 0.616262 0.366400
vn 0.000000 1.000000 0.000000
vn 0.000000 1.000000 0.000000
vn 0.000000 1.000000 0.000000
vn 0.000000 1.000000 0.000000
vn 0.000000 1.000000 0.000000
vn 0.000000 1.000000 0.000000
vn 0.000000 1.000000 0.000000
vn 0.000000 1.000000 0.000000
vn 0.000000 1.000000 0.000000
vn 0.000000 1.000000 0.000000
vn 0.000000 1.000000 0.000000
vn 0.000000 1.000000 0.000000
vn 0.000000 1.000000 0.000000
vn 0.000000 1.000000 0.000000
vn 0.000000 1.000000 0.000000
vn 0.000000 1.000000 0.000000
vn 0.000000 1.000000 0.000000
vn 0.000000 1.000000 0.000000
vn 0.000000 1.000000 0.000000
vn 0.000000 1.000000 0.000000
vn 0.000000 1.000000 0.000000
vn 0.000000 1.000000 0.000000
vn 0.000000 1.000000 0.000000
vn 0.000000 1.000000 0.000000
vn 0.000000 1.000000 0.000000
vn 0.000000 1.000000 0.000000
vn 0.000000 1.000000 0.000000
vn 0.000000 1.000000 0.000000
vn 0.000000 1.000000 0.000000
vn 0.000000 1.000000 0.000000
vn 0.000000 -1.000000 0.000000
vn 0.000000 -1.000000 0.000000
vn 0.000000 -1.000000 0.000000
vn 0.000000 -1.000000 0.000000
vn 0.000000 -1.000000 0.000000
vn 0.000000 -1.000000 0.000000
vn 0.000000 -1.000000 0.000000
vn 0.000000 -1.000000 0.000000
vn 0.000000 -1.000000 0.000000
vn 0.000000 -1.000000 0.000000
vn 0.000000 -1.000000 0.000000
vn 0.000000 -1.000000 0.000000
vn 0.000000 -1.000000 0.000000
vn 0.000000 -1.000000 0.000000
vn 0.000000 -1.000000 0.000000
vn 0.000000 -1.000000 0.000000
vn 0.000000 -1.000000 0.000000
vn 0.000000 -1.000000 0.000000
vn 0.000000 -1.000000 0.000000
vn 0.000000 -1.000000 0.000000
vn 0.000000 -1.000000 0.000000
vn 0.000000 -1.000000 0.000000
vn 0.000000 -1.000000 0.000000
vn 0.000000 -1.000000 0.000000
vn 0.000000 -1.000000 0.000000
vn 0.000000 -1.000000 0.000000
vn 0.000000 -1.000000 0.000000
vn 0.000000 -1.000000 0.000000
vn 0.000000 -1.000000 0.000000
vn 0.000000 -1.000000 0.000000
vn 0.000000 0.000000 1.000000
vn 0.000000 0.000000 1.000000
vn 0.000000 0.000000 1.000000
vn 0.000000 0.000000 1.000000
vn 0.587787 0.000000 0.809016
vn 0.587787 0.000000 0.809016
vn 0.587787 0.000000 0.809016
vn 0.587787 0.000000 0.809016
vn 0.951056 0.000000 0.309017
vn 0.951056 0.000000 0.309017
vn 0.951056 0.000000 0.309017
vn 0.951056 0.000000 0.309017
vn 0.951056 0.000000 -0.309017
vn 0.951056 0.000000 -0.309017
vn 0.951056 0.000000 -0.309017
vn 0.951056 0.000000 -0.309017
vn 0.587787 0.000000 -0.809016
vn 0.587787 0.000000 -0.809016
vn 0.587787 0.000000 -0.809016
vn 0.587787 0.000000 -0.809016
vn 0.000000 0.000000 -1.000000
vn 0.000000 0.000000 -1.000000
vn 0.000000 0.000000 -1.000000
vn 0.000000 0.000000 -1.000000
vn -0.587787 0.000000 -0.809016
vn -0.587787 0.000000 -0.809016
vn -0.587787 0.000000 -0.809016
vn -0.587787 0.000000 -0.809016
vn -0.951056 0.000000 -0.309017
vn -0.951056 0.000000 -0.309017
vn -0.951056 0.000000 -0.309017
vn -0.951056 0.000000 -0.309017
vn -0.951056 0.000000 0.309017
vn -0.951056 0.000000 0.309017
vn -0.951056 0.000000 0.309017
vn -0.951056 0.000000 0.309017
vn -0.587787 0.000000 0.809016
vn -0.587787 0.000000 0.809016
vn -0.587787 0.000000 0.809016
vn -0.587787 0.000000 0.809016
s off
f 12/61/1 13/62/2 14/20/3
f 13/63/4 15/64/5 14/19/6
f 15/65/7 16/66/8 14/18/9
f 16/67/10 17/68/11 14/17/12
f 17/69/13 18/70/14 14/16/15
f 18/71/16 19/72/17 14/15/18
f 19/73/19 20/74/20 14/14/21
f 20/75/22 21/76/23 14/13/24
f 21/77/25 22/78/26 14/11/27
f 22/79/28 12/80/29 14/21/30
f 1/31/31 11/33/32 2/32/33
f 2/34/34 11/36/35 3/35/36
f 3/37/37 11/39/38 4/38/39
f 4/40/40 11/42/41 5/41/42
f 5/43/43 11/45/44 6/44/45
f 6/46/46 11/48/47 7/47/48
f 7/49/49 11/51/50 8/50/51
f 8/52/52 11/54/53 9/53/54
f 9/55/55 11/57/56 10/56/57
f 10/58/58 11/60/59 1/59/60
f 1/29/61 2/2/62 13/62/63 12/61/64
f 2/30/65 3/3/66 15/64/67 13/63/68
f 3/28/69 4/4/70 16/66/71 15/65/72
f 4/27/73 5/5/74 17/68/75 16/67/76
f 5/26/77 6/6/78 18/70/79 17/69/80
f 6/25/81 7/7/82 19/72/83 18/71/84
f 7/24/85 8/8/86 20/74/87 19/73/88
f 8/23/89 9/9/90 21/76/91 20/75/92
f 9/22/93 10/10/94 22/78/95 21/77/96
f 10/12/97 1/1/98 12/80/99 22/79/100
