# This file uses centimeters as units for non-parametric coordinates.

v 9.727543 0.140389 -5.147985
v 20.659367 0.140389 13.692435
v 39.018036 0.140389 -21.869579
v 50.050526 0.140389 -2.544445
v 28.872381 0.140389 9.769258
v 17.683910 0.140389 7.463397
v 16.798168 0.583895 6.809737
v 30.161524 0.583895 8.814394
v 15.817409 0.140389 5.519372
v 32.271317 0.140389 7.605494
v -9.265551 0.140389 42.806583
v -39.383591 0.140389 29.740372
v -30.557018 0.140389 8.464264
v -31.195179 0.621840 9.846262
v -11.972062 0.621840 41.556801
v -31.872904 0.140389 11.820747
v -13.802942 0.140389 40.462044
v -7.662633 0.140389 19.036259
v -3.837406 0.140389 31.051569
v -11.467707 0.140389 28.449709
v -10.634875 0.140389 27.963882
v -40.582733 0.140389 -36.097790
v -21.924765 0.140389 -0.168787
v -43.926582 0.140389 -3.499989
v -18.928589 0.140389 -28.278458
v -23.733746 0.140389 -34.625652
v -42.763512 0.140389 -11.671664
v -21.703810 0.140389 -1.563616
v -42.778057 0.416372 -12.459045
v -21.289272 0.416372 -2.747113
v -42.516678 0.140389 -13.963305
v -21.036816 0.140389 -4.149239
v -22.434122 0.244163 3.329860
v 0.836284 0.244163 -21.083929
v 16.943892 0.244163 -5.730695
v -11.697857 0.244163 13.563314
v -2.205932 0.244163 14.360044
v -5.602382 0.244163 9.174744
v -5.887886 0.244163 10.231945
v 10.788497 0.302392 -10.006418
v 30.840656 0.302392 -44.185318
v 32.920029 0.302392 -15.395082
v 30.621403 0.302392 -10.354128
v 10.854631 0.302392 -15.158907
v 21.986633 0.302392 -9.862717
v 10.548798 0.723107 -16.235590
v 24.858889 0.723107 -9.937937
v 10.455227 0.302392 -17.531136
v 27.402006 0.302392 -10.121607
v 16.690437 0.302392 -43.163322
v 9.345362 0.302392 -32.897938
v 18.542746 0.302392 -37.239571
v 17.583740 0.302392 -37.664833
v 24.211445 0.226693 41.504669
v -0.117775 0.226693 18.096277
v 36.476746 0.226693 22.607090
v 35.206509 0.226693 29.280495
v 22.546219 0.226693 40.006889
v 33.307625 0.226693 19.756617
v 3.974918 0.226693 13.919518
v 21.484707 0.732789 39.335762
v 32.750351 0.732789 19.432482
v 20.550404 0.226693 38.348488
v 31.821840 0.226693 18.238272
v 25.922989 0.226693 12.458138
v 18.838287 0.226693 24.176773
v 18.498758 0.226693 23.178684
v 0.429953 0.370233 -10.294964
v -26.490982 0.370233 -40.427757
v -4.769531 0.370233 -42.878456
v -15.669995 0.370233 -41.730400
v -4.337823 0.370233 -38.779465
v -18.396168 0.880260 -41.617622
v -3.580661 0.880260 -37.579689
v -21.626411 0.370233 -41.142803
v -3.365220 0.370233 -36.114017
v -8.743956 0.370233 -8.946476
v -11.454078 0.370233 -20.948484
v -23.178913 0.370233 -17.895340
v -12.085422 0.370233 -19.942783
vt 0.343524 0.353642
vt 0.343524 0.390364
vt 0.367752 0.353642
vt 0.367752 0.390364
vt 0.367752 0.363552
vt 0.360236 0.353642
vt 0.358643 0.353642
vt 0.367752 0.365196
vt 0.356898 0.353642
vt 0.367752 0.368074
vt 0.299710 0.390364
vt 0.298053 0.390364
vt 0.275482 0.356888
vt 0.275482 0.353642
vt 0.296637 0.390364
vt 0.275482 0.360165
vt 0.275482 0.390364
vt 0.288668 0.362372
vt 0.297381 0.359620
vt 0.297446 0.359705
vt 0.296498 0.359607
vt 0.289579 0.353642
vt 0.299710 0.362908
vt 0.294954 0.354801
vt 0.295276 0.355490
vt 0.294753 0.355801
vt 0.297498 0.358718
vt 0.401619 0.390364
vt 0.377391 0.390364
vt 0.377391 0.388786
vt 0.401619 0.381048
vt 0.377391 0.388003
vt 0.401619 0.379506
vt 0.377391 0.386443
vt 0.401619 0.377834
vt 0.377391 0.360071
vt 0.383204 0.353642
vt 0.401619 0.353642
vt 0.327210 0.361680
vt 0.309554 0.390364
vt 0.309554 0.353642
vt 0.325703 0.353642
vt 0.331111 0.359446
vt 0.331110 0.359339
vt 0.331624 0.359936
vt 0.333783 0.390364
vt 0.333783 0.360144
vt 0.329777 0.356208
vt 0.330266 0.355903
vt 0.330777 0.356375
vt 0.330624 0.359759
vt 0.299710 0.320143
vt 0.299710 0.351571
vt 0.284263 0.351571
vt 0.285810 0.344993
vt 0.293304 0.314849
vt 0.275482 0.340999
vt 0.275482 0.324224
vt 0.287675 0.314849
vt 0.275482 0.320459
vt 0.275482 0.314849
vt 0.290528 0.314849
vt 0.275482 0.322810
vt 0.273737 0.325896
vt 0.273645 0.325931
vt 0.273857 0.325391
vt 0.296819 0.314849
vt 0.279294 0.349707
vt 0.278550 0.349214
vt 0.278667 0.348707
vt 0.274481 0.326391
vt 0.367752 0.323320
vt 0.343524 0.317287
vt 0.367752 0.318679
vt 0.361425 0.314849
vt 0.343524 0.314849
vt 0.353240 0.332196
vt 0.343524 0.320065
vt 0.367752 0.326624
vt 0.367752 0.324249
vt 0.343524 0.318500
vt 0.367752 0.335616
vt 0.367052 0.336335
vt 0.367599 0.336626
vt 0.367612 0.336668
vt 0.343524 0.351571
vt 0.349891 0.351571
vt 0.363041 0.348828
vt 0.363202 0.349828
vt 0.362610 0.349252
vt 0.368052 0.336015
vt 0.401619 0.351571
vt 0.389685 0.351571
vt 0.401619 0.347084
vt 0.386299 0.351571
vt 0.401619 0.344876
vt 0.382744 0.351571
vt 0.401619 0.343263
vt 0.390505 0.328207
vt 0.377391 0.351571
vt 0.377391 0.326774
vt 0.380383 0.320551
vt 0.381242 0.320707
vt 0.380433 0.320619
vt 0.391524 0.314849
vt 0.401619 0.314849
vt 0.378776 0.317156
vt 0.378966 0.316344
vt 0.379776 0.316431
vt 0.380206 0.320754
vn 0.000000 1.000000 0.000000
vn 0.000000 1.000000 0.000000
vn 0.000000 1.000000 0.000000
vn 0.000000 1.000000 0.000000
vn 0.000000 1.000000 0.000000
vn 0.000000 1.000000 0.000000
vn 0.000000 1.000000 0.000000
vn 0.000000 1.000000 0.000000
vn 0.000000 1.000000 0.000000
vn 0.000000 1.000000 0.000000
vn -0.081723 0.881279 0.465478
vn -0.081723 0.881279 0.465478
vn -0.081723 0.881279 0.465478
vn -0.081723 0.881279 0.465478
vn 0.043445 0.947542 -0.316666
vn 0.043445 0.947542 -0.316666
vn 0.043445 0.947542 -0.316666
vn 0.043445 0.947542 -0.316666
vn 0.266939 0.949703 -0.163731
vn 0.266939 0.949703 -0.163731
vn 0.266939 0.949703 -0.163731
vn 0.266939 0.949703 -0.163731
vn -0.295792 0.937603 0.182778
vn -0.295792 0.937603 0.182778
vn -0.295792 0.937603 0.182778
vn -0.295792 0.937603 0.182778
vn -0.000000 1.000000 -0.000000
vn -0.000000 1.000000 -0.000000
vn -0.000000 1.000000 -0.000000
vn -0.000000 1.000000 -0.000000
vn -0.000000 1.000000 -0.000000
vn 0.000000 1.000000 0.000000
vn 0.000000 1.000000 0.000000
vn 0.000000 1.000000 0.000000
vn 0.000000 1.000000 0.000000
vn 0.000000 1.000000 0.000000
vn -0.000000 1.000000 -0.000000
vn 0.000000 1.000000 0.000000
vn -0.000000 1.000000 -0.000000
vn 0.000000 1.000000 0.000000
vn 0.000000 1.000000 0.000000
vn 0.000000 1.000000 0.000000
vn 0.000000 1.000000 0.000000
vn 0.000000 1.000000 0.000000
vn 0.000000 1.000000 0.000000
vn 0.000000 1.000000 0.000000
vn 0.000000 1.000000 0.000000
vn 0.000000 1.000000 0.000000
vn 0.000000 1.000000 0.000000
vn 0.000000 1.000000 0.000000
vn 0.000000 1.000000 0.000000
vn -0.114708 0.962394 0.246250
vn -0.114708 0.962394 0.246250
vn -0.114708 0.962394 0.246250
vn -0.114708 0.962394 0.246250
vn 0.078435 0.981863 -0.172604
vn 0.078435 0.981863 -0.172604
vn 0.078435 0.981863 -0.172604
vn 0.078435 0.981863 -0.172604
vn 0.000000 1.000000 0.000000
vn 0.000000 1.000000 0.000000
vn 0.000000 1.000000 0.000000
vn 0.000000 1.000000 0.000000
vn 0.000000 1.000000 0.000000
vn 0.000000 1.000000 0.000000
vn 0.000000 1.000000 0.000000
vn 0.000000 1.000000 0.000000
vn 0.000000 1.000000 0.000000
vn 0.000000 1.000000 0.000000
vn 0.000000 1.000000 0.000000
vn 0.000000 1.000000 0.000000
vn 0.000000 1.000000 0.000000
vn 0.000000 1.000000 0.000000
vn 0.000000 1.000000 0.000000
vn 0.000000 1.000000 0.000000
vn 0.000000 1.000000 0.000000
vn 0.000000 1.000000 0.000000
vn 0.000000 1.000000 0.000000
vn 0.000000 1.000000 0.000000
vn 0.000000 1.000000 0.000000
vn 0.000000 1.000000 0.000000
vn 0.000000 1.000000 0.000000
vn 0.000000 1.000000 0.000000
vn 0.000000 1.000000 0.000000
vn 0.000000 1.000000 0.000000
vn 0.000000 1.000000 0.000000
vn 0.000000 1.000000 0.000000
vn 0.000000 1.000000 0.000000
vn 0.000000 1.000000 0.000000
vn 0.000000 1.000000 0.000000
vn 0.000000 1.000000 0.000000
vn 0.000000 1.000000 0.000000
vn 0.000000 1.000000 0.000000
vn 0.000000 1.000000 0.000000
vn -0.153449 0.929012 0.336735
vn -0.153449 0.929012 0.336735
vn -0.153449 0.929012 0.336735
vn -0.153449 0.929012 0.336735
vn 0.135975 0.940940 -0.310068
vn 0.135975 0.940940 -0.310068
vn 0.135975 0.940940 -0.310068
vn 0.135975 0.940940 -0.310068
vn 0.000000 1.000000 0.000000
vn 0.000000 1.000000 0.000000
vn 0.000000 1.000000 0.000000
vn 0.000000 1.000000 0.000000
vn 0.000000 1.000000 0.000000
vn 0.000000 1.000000 0.000000
vn 0.000000 1.000000 0.000000
vn 0.000000 1.000000 0.000000
vn 0.000000 1.000000 0.000000
vn 0.000000 1.000000 0.000000
vn 0.000000 1.000000 0.000000
vn 0.000000 1.000000 0.000000
vn 0.000000 1.000000 0.000000
vn 0.000000 1.000000 0.000000
vn 0.000000 1.000000 0.000000
vn 0.000000 1.000000 0.000000
vn 0.000000 1.000000 0.000000
vn 0.000000 1.000000 0.000000
vn 0.000000 1.000000 0.000000
vn 0.000000 1.000000 0.000000
vn 0.000000 1.000000 0.000000
vn 0.000000 1.000000 0.000000
vn 0.000000 1.000000 0.000000
vn 0.412572 0.882361 0.226325
vn 0.412572 0.882361 0.226325
vn 0.412572 0.882361 0.226325
vn 0.412572 0.882361 0.226325
vn -0.306486 0.936091 -0.172624
vn -0.306486 0.936091 -0.172624
vn -0.306486 0.936091 -0.172624
vn -0.306486 0.936091 -0.172624
vn 0.000000 1.000000 0.000000
vn 0.000000 1.000000 0.000000
vn 0.000000 1.000000 0.000000
vn 0.000000 1.000000 0.000000
vn 0.000000 1.000000 0.000000
vn 0.000000 1.000000 0.000000
vn 0.000000 1.000000 0.000000
vn 0.000000 1.000000 0.000000
vn 0.000000 1.000000 0.000000
vn 0.000000 1.000000 0.000000
vn 0.000000 1.000000 0.000000
vn 0.000000 1.000000 0.000000
vn 0.000000 1.000000 0.000000
vn 0.000000 1.000000 0.000000
vn 0.000000 1.000000 0.000000
vn 0.000000 1.000000 0.000000
vn 0.000000 1.000000 0.000000
vn 0.000000 1.000000 0.000000
vn 0.000000 1.000000 0.000000
vn 0.128581 0.867205 -0.481063
vn 0.128581 0.867205 -0.481063
vn 0.128581 0.867205 -0.481063
vn 0.128581 0.867205 -0.481063
vn -0.094394 0.934080 0.344362
vn -0.094394 0.934080 0.344362
vn -0.094394 0.934080 0.344362
vn -0.094394 0.934080 0.344362
vn 0.000000 1.000000 0.000000
vn 0.000000 1.000000 0.000000
vn 0.000000 1.000000 0.000000
vn 0.000000 1.000000 0.000000
vn 0.000000 1.000000 0.000000
vn 0.000000 1.000000 0.000000
vn 0.000000 1.000000 0.000000
vn 0.000000 1.000000 0.000000
vn 0.000000 1.000000 0.000000
vn 0.000000 1.000000 0.000000
vn 0.000000 1.000000 0.000000
vn 0.000000 1.000000 0.000000
vn 0.000000 1.000000 0.000000
vn 0.000000 1.000000 0.000000
vn 0.000000 1.000000 0.000000
vn 0.000000 1.000000 0.000000
vn 0.000000 1.000000 0.000000
vn 0.000000 1.000000 0.000000
vn 0.000000 1.000000 0.000000
vn 0.000000 1.000000 0.000000
s off
f 4/4/1 3/2/2 10/10/3
f 3/2/4 1/1/5 9/9/6 10/10/7
f 5/5/8 6/6/9 2/3/10
f 8/8/11 7/7/12 6/6/13 5/5/14
f 10/10/15 9/9/16 7/7/17 8/8/18
f 13/11/19 14/12/20 15/13/21 11/14/22
f 15/13/23 14/12/24 16/15/25 17/16/26
f 17/16/27 16/15/28 12/17/29
f 13/11/30 11/14/31 20/18/32
f 21/19/33 20/20/34 19/21/35
f 20/18/36 11/14/37 19/22/38
f 13/11/39 20/18/40 18/23/41
f 18/24/42 21/25/43 19/26/44
f 18/27/45 20/20/46 21/19/47
f 24/28/48 23/29/49 28/30/50 27/31/51
f 27/31/52 28/30/53 30/32/54 29/33/55
f 29/33/56 30/32/57 32/34/58 31/35/59
f 32/34/60 25/36/61 31/35/62
f 31/35/63 25/36/64 26/37/65 22/38/66
f 38/39/67 34/40/68 33/41/69 36/42/70
f 39/43/71 38/44/72 36/45/73
f 35/46/74 34/40/75 38/39/76 37/47/77
f 37/48/78 39/49/79 36/50/80
f 37/51/81 38/44/82 39/43/83
f 42/52/84 41/53/85 50/54/86 52/55/87
f 49/56/88 52/55/89 51/57/90 48/58/91
f 45/59/92 44/60/93 40/61/94
f 47/62/95 46/63/96 44/60/97 45/59/98
f 49/56/99 48/58/100 46/63/101 47/62/102
f 53/64/103 52/65/104 50/66/105
f 43/67/106 42/52/107 52/55/108 49/56/109
f 51/68/110 53/69/111 50/70/112
f 51/71/113 52/65/114 53/64/115
f 59/72/116 58/73/117 56/74/118
f 57/75/119 56/74/120 58/73/121 54/76/122
f 66/77/123 63/78/124 64/79/125
f 62/80/126 61/81/127 58/73/128 59/72/129
f 64/79/130 63/78/131 61/81/132 62/80/133
f 65/82/134 66/77/135 64/79/136
f 65/83/137 67/84/138 66/85/139
f 55/86/140 63/78/141 66/77/142 60/87/143
f 65/88/144 60/89/145 67/90/146
f 66/85/147 67/84/148 60/91/149
f 70/92/150 71/93/151 72/94/152
f 72/94/153 71/93/154 73/95/155 74/96/156
f 74/96/157 73/95/158 75/97/159 76/98/160
f 76/98/161 75/97/162 78/99/163
f 69/100/164 79/101/165 78/99/166 75/97/167
f 78/102/168 79/103/169 80/104/170
f 76/98/171 78/99/172 77/105/173 68/106/174
f 77/107/175 80/108/176 79/109/177
f 78/102/178 80/104/179 77/110/180
