# This file uses centimeters as units for non-parametric coordinates.

v -2.342064 -1.191636 4.738832
v 2.342064 -1.191636 4.738832
v -2.342064 -0.401706 4.827169
v 2.342064 -0.401706 4.827169
v -1.094173 0.453150 3.082332
v 1.094135 0.453150 3.082332
v 1.094135 -0.278105 2.927391
v -1.094173 -0.278105 2.927391
v -2.281651 -1.191477 7.285850
v 2.275738 -1.191477 7.285850
v 2.275738 -0.399859 7.213074
v -2.281651 -0.399859 7.213074
v -1.272785 -0.991088 8.024638
v -1.272785 -0.218804 7.841097
v -0.550274 -0.991088 8.024638
v -0.550274 -0.218804 7.841097
v 0.550220 -0.991088 8.024638
v 0.550220 -0.218804 7.841097
v 1.266872 -0.991088 8.024638
v 1.266872 -0.218804 7.841097
v -1.678829 0.545805 15.044803
v -1.017742 0.545805 15.044803
v -1.017742 1.077244 14.860188
v -1.678829 1.077244 14.860188
v -0.323223 0.545805 15.044803
v -0.323223 1.077244 14.860188
v 0.322575 0.545805 15.044803
v 0.322575 1.077244 14.860188
v 1.011723 0.545805 15.044803
v 1.011723 1.077244 14.860188
v 1.673138 0.545805 15.044803
v 1.673138 1.077244 14.860188
v -0.741886 -0.078450 -0.232341
v 0.741867 -0.078450 -0.232341
v 0.741867 0.873674 -0.108607
v -0.741886 0.873674 -0.108607
v -1.024040 -0.391322 -7.351171
v 1.023575 -0.391322 -7.351171
v 1.023575 0.687156 -7.279775
v -1.024040 0.687156 -7.279775
v -0.757813 1.010301 -14.821806
v 0.707260 1.010301 -14.821806
v -0.757813 0.174929 -15.044803
v 0.707260 0.174929 -15.044803
v 1.086815 -0.248410 -8.916456
v -1.137360 -0.248410 -8.916456
v -1.137360 0.790506 -8.911409
v 1.086815 0.790506 -8.911409
v -0.150002 0.790506 -9.448375
v 1.249115 0.807490 -12.065745
v -1.299667 0.807490 -12.065745
v -0.025276 0.997865 -14.004375
v -0.080437 1.076244 -10.736039
v 0.715904 1.080915 -12.078437
v -0.766449 1.080915 -12.078437
v -0.025276 1.191636 -13.205933
v 1.938591 -0.177715 -13.120408
v 1.543465 -0.298354 -11.229105
v 1.543358 0.753982 -11.087017
v 1.925385 0.811221 -12.966334
v -1.594009 -0.298354 -11.229105
v -1.989136 -0.177715 -13.120408
v -1.975937 0.811221 -12.966334
v -1.593910 0.753982 -11.087018
v 1.043221 -0.057313 -14.081801
v 1.038261 0.910678 -13.893294
v -1.135056 0.902013 -13.812536
v -1.140457 -0.077513 -13.998043
v -1.880554 -0.272402 -9.892552
v -1.880478 0.772961 -9.828506
v 1.832230 -0.272542 -9.898762
v 1.832161 0.772858 -9.834599
v -0.039063 0.917289 -12.024711
v 1.443581 -0.533659 -8.127609
v 1.443581 1.011018 -8.121066
v -1.494118 1.011018 -8.121066
v -1.494118 -0.533659 -8.127609
vt 0.215068 0.108516
vt 0.215088 0.108507
vt 0.215092 0.108496
vt 0.215072 0.108506
vt 0.215295 0.108714
vt 0.215350 0.108688
vt 0.215417 0.108750
vt 0.215370 0.108772
vt 0.215371 0.108801
vt 0.215418 0.108778
vt 0.215353 0.108711
vt 0.215298 0.108737
vt 0.215203 0.108699
vt 0.215331 0.108638
vt 0.215332 0.108661
vt 0.215204 0.108722
vt 0.215161 0.108687
vt 0.215199 0.108641
vt 0.215177 0.108651
vt 0.215303 0.108602
vt 0.215301 0.108621
vt 0.215237 0.108608
vt 0.215259 0.108598
vt 0.215163 0.108667
vt 0.215181 0.108634
vt 0.215203 0.108624
vt 0.215113 0.108487
vt 0.215109 0.108497
vt 0.215129 0.108488
vt 0.215133 0.108478
vt 0.215233 0.108625
vt 0.215255 0.108615
vt 0.215154 0.108468
vt 0.215150 0.108479
vt 0.215170 0.108469
vt 0.215174 0.108459
vt 0.215573 0.109052
vt 0.215665 0.109005
vt 0.215665 0.108974
vt 0.215573 0.109021
vt 0.215653 0.109065
vt 0.215712 0.109034
vt 0.215715 0.109064
vt 0.215659 0.109092
vt 0.215619 0.108937
vt 0.215619 0.108969
vt 0.215634 0.108983
vt 0.215635 0.108950
vt 0.215560 0.109007
vt 0.215566 0.109039
vt 0.215547 0.109026
vt 0.215547 0.108993
vt 0.215591 0.109065
vt 0.215677 0.109024
vt 0.215645 0.109000
vt 0.215696 0.109044
vt 0.215694 0.109011
vt 0.215676 0.108989
vt 0.215622 0.109077
vt 0.215592 0.109031
vt 0.215620 0.109046
vt 0.215524 0.108999
vt 0.215606 0.108957
vt 0.215591 0.108944
vt 0.215512 0.108984
vt 0.215524 0.108967
vt 0.215512 0.108953
vt 0.215591 0.108913
vt 0.215606 0.108926
vt 0.215684 0.109053
vt 0.215662 0.108974
vt 0.215577 0.108959
vt 0.215571 0.108959
vt 0.215657 0.108980
vt 0.215570 0.109021
vt 0.215580 0.109019
vt 0.215684 0.109053
vt 0.215535 0.108980
vt 0.215651 0.108963
vt 0.215535 0.109011
vt 0.215623 0.109002
vn 0.000000 0.328149 0.944626
vn 0.000000 0.328149 0.944626
vn 0.000000 0.328149 0.944626
vn 0.000000 0.328149 0.944626
vn 0.000000 0.991428 0.130657
vn 0.000000 0.991428 0.130657
vn 0.000000 0.991428 0.130657
vn 0.000000 0.991428 0.130657
vn 0.000000 -0.998010 -0.063062
vn 0.000000 -0.998010 -0.063062
vn 0.000000 -0.998010 -0.063062
vn 0.000000 -0.998010 -0.063062
vn 0.993933 0.017964 -0.108512
vn 0.993933 0.017964 -0.108512
vn 0.993933 0.017964 -0.108512
vn 0.993933 0.017964 -0.108512
vn -0.993932 0.017965 -0.108517
vn -0.993932 0.017965 -0.108517
vn -0.993932 0.017965 -0.108517
vn -0.993932 0.017965 -0.108517
vn 0.000000 0.898013 0.439968
vn 0.000000 0.898013 0.439968
vn 0.000000 0.898013 0.439968
vn 0.000000 0.898013 0.439968
vn 0.835232 0.086840 -0.542998
vn 0.835232 0.086840 -0.542998
vn 0.835232 0.086840 -0.542998
vn 0.835232 0.086840 -0.542998
vn 0.000000 -0.892882 -0.450291
vn 0.000000 -0.892882 -0.450291
vn 0.000000 -0.892882 -0.450291
vn 0.000000 -0.892882 -0.450291
vn -0.835240 0.086838 -0.542986
vn -0.835240 0.086838 -0.542986
vn -0.835239 0.086838 -0.542986
vn -0.835240 0.086838 -0.542986
vn 0.000000 -0.965128 0.261780
vn 0.000000 -0.965127 0.261780
vn 0.000000 -0.965128 0.261780
vn 0.999639 -0.000264 0.026882
vn 0.999639 -0.000264 0.026882
vn 0.999639 -0.000264 0.026882
vn 0.999639 -0.000264 0.026882
vn 0.000000 0.960866 -0.277012
vn 0.000000 0.960866 -0.277012
vn 0.000000 0.960866 -0.277012
vn -0.999700 -0.000241 0.024487
vn -0.999700 -0.000241 0.024487
vn -0.999700 -0.000241 0.024487
vn -0.999700 -0.000241 0.024487
vn 0.000000 0.231220 0.972902
vn 0.000000 0.231220 0.972902
vn 0.000000 0.231220 0.972902
vn 0.000000 0.231220 0.972902
vn 0.000000 0.328149 0.944626
vn 0.000000 0.328149 0.944626
vn 0.000000 0.328149 0.944626
vn 0.000000 0.328149 0.944626
vn 0.000000 0.231220 0.972901
vn 0.000000 0.231220 0.972901
vn 0.000000 0.231220 0.972901
vn 0.000000 0.231220 0.972901
vn 0.000000 0.328149 0.944626
vn 0.000000 0.328149 0.944626
vn 0.000000 0.328149 0.944626
vn 0.000000 0.328149 0.944626
vn 0.022032 -0.976360 0.215025
vn 0.022032 -0.976360 0.215025
vn 0.022032 -0.976360 0.215025
vn 0.022032 -0.976360 0.215024
vn 0.999363 -0.009701 -0.034352
vn 0.999363 -0.009701 -0.034352
vn 0.999363 -0.009701 -0.034352
vn 0.999363 -0.009701 -0.034352
vn -0.037474 0.982297 -0.183545
vn -0.037474 0.982297 -0.183545
vn -0.037474 0.982297 -0.183545
vn -0.037474 0.982297 -0.183545
vn -0.997078 0.014588 0.074985
vn -0.997078 0.014588 0.074985
vn -0.997078 0.014588 0.074985
vn -0.997078 0.014588 0.074985
vn -0.999495 0.008637 0.030586
vn -0.999495 0.008637 0.030586
vn -0.999495 0.008637 0.030586
vn -0.999495 0.008637 0.030586
vn 0.000000 -0.976864 0.213860
vn 0.000000 -0.976864 0.213860
vn 0.000000 -0.976864 0.213860
vn 0.000000 -0.976864 0.213860
vn 0.999492 0.008660 0.030666
vn 0.999492 0.008660 0.030666
vn 0.999492 0.008660 0.030666
vn 0.999492 0.008660 0.030666
vn 0.000000 0.983377 -0.181577
vn 0.000000 0.983377 -0.181577
vn 0.000000 0.983377 -0.181577
vn 0.000000 0.983377 -0.181577
vn -0.999362 -0.009705 -0.034367
vn -0.999362 -0.009705 -0.034367
vn -0.999362 -0.009705 -0.034367
vn -0.999362 -0.009705 -0.034367
vn -0.022028 -0.976360 0.215025
vn -0.022028 -0.976360 0.215025
vn -0.022028 -0.976360 0.215025
vn -0.022028 -0.976360 0.215025
vn 0.997080 0.014583 0.074958
vn 0.997080 0.014583 0.074958
vn 0.997080 0.014583 0.074958
vn 0.997080 0.014583 0.074958
vn 0.037466 0.982297 -0.183546
vn 0.037466 0.982297 -0.183546
vn 0.037466 0.982297 -0.183546
vn 0.037466 0.982297 -0.183546
vn 0.000000 -1.000000 0.000063
vn 0.000000 -1.000000 0.000063
vn 0.000000 -1.000000 0.000063
vn 0.000000 -1.000000 0.000063
vn 0.000000 1.000000 -0.000774
vn 0.000000 1.000000 -0.000774
vn 0.000000 1.000000 -0.000774
vn 0.000000 1.000000 -0.000774
vn 0.000000 -0.965127 0.261781
vn 0.000000 -0.965127 0.261781
vn 0.000000 -0.965127 0.261781
vn 0.000000 0.960866 -0.277012
vn 0.000000 0.960866 -0.277012
vn 0.000000 0.960866 -0.277012
vn 0.000000 0.960866 -0.277012
vn 0.000000 -0.965128 0.261780
vn 0.000000 -0.965128 0.261780
vn 0.000000 -0.965128 0.261780
vn 0.000000 -0.965128 0.261780
vn 0.000000 0.960867 -0.277012
vn 0.000000 0.960867 -0.277012
vn 0.000000 0.960866 -0.277012
vn 0.000000 -0.999036 0.043908
vn 0.000000 -0.999036 0.043908
vn 0.000000 -0.999036 0.043908
vn 0.000000 -0.999036 0.043908
vn 0.999211 -0.003799 0.039529
vn 0.999211 -0.003799 0.039529
vn 0.999211 -0.003799 0.039529
vn 0.999211 -0.003799 0.039529
vn 0.000000 0.999662 -0.026001
vn 0.000000 0.999662 -0.026001
vn 0.000000 0.999662 -0.026001
vn 0.000000 0.999662 -0.026001
vn -0.999209 -0.003804 0.039591
vn -0.999209 -0.003804 0.039591
vn -0.999209 -0.003804 0.039591
vn -0.999209 -0.003804 0.039591
vn 0.000000 0.257912 -0.966168
vn 0.000000 0.257912 -0.966168
vn 0.000000 0.257912 -0.966168
vn 0.000000 0.257912 -0.966168
vn 0.787223 -0.020439 0.616330
vn 0.787222 -0.020439 0.616330
vn 0.787223 -0.020439 0.616330
vn 0.787223 -0.020439 0.616330
vn -0.976171 0.021302 -0.215953
vn -0.976171 0.021302 -0.215953
vn -0.976171 0.021302 -0.215953
vn -0.976171 0.021302 -0.215953
vn 0.000000 -0.997972 -0.063657
vn 0.000000 -0.997972 -0.063657
vn 0.000000 -0.997972 -0.063657
vn 0.000000 -0.997972 -0.063657
vn 0.728728 0.124644 -0.673364
vn 0.728728 0.124644 -0.673364
vn 0.728728 0.124644 -0.673364
vn 0.728728 0.124644 -0.673364
vn -0.715447 0.125333 -0.687334
vn -0.715447 0.125333 -0.687334
vn -0.715447 0.125333 -0.687334
vn -0.715447 0.125333 -0.687334
vn 0.000000 -0.983609 0.180316
vn 0.000000 -0.983609 0.180316
vn 0.000000 -0.983609 0.180316
vn 0.000000 -0.983609 0.180316
vn -0.865226 -0.014890 0.501161
vn -0.865226 -0.014890 0.501161
vn -0.865226 -0.014890 0.501161
vn -0.865226 -0.014890 0.501161
vn 0.000000 0.933238 0.359258
vn 0.000000 0.933238 0.359258
vn 0.000000 0.933238 0.359258
vn 0.000000 0.933238 0.359258
vn 0.888031 -0.013655 0.459581
vn 0.888031 -0.013655 0.459581
vn 0.888031 -0.013655 0.459581
vn 0.888031 -0.013655 0.459581
vn 0.000000 0.999884 0.015212
vn 0.000000 0.999884 0.015212
vn 0.000000 0.999884 0.015212
vn -0.072089 0.994207 0.079727
vn -0.072089 0.994207 0.079727
vn -0.072089 0.994207 0.079727
vn 0.410817 0.881549 0.232595
vn 0.410817 0.881549 0.232595
vn 0.410817 0.881549 0.232595
vn 0.410817 0.881549 0.232595
vn -0.408405 0.891902 0.194207
vn -0.408405 0.891902 0.194207
vn -0.408405 0.891902 0.194207
vn -0.408405 0.891902 0.194207
vn 0.450025 0.867825 -0.210610
vn 0.450025 0.867826 -0.210610
vn 0.450025 0.867825 -0.210610
vn 0.450025 0.867825 -0.210610
vn -0.450023 0.867827 -0.210608
vn -0.450023 0.867827 -0.210608
vn -0.450023 0.867827 -0.210608
vn -0.450023 0.867827 -0.210608
vn 0.069678 0.996403 0.048221
vn 0.069678 0.996403 0.048221
vn 0.069678 0.996403 0.048221
vn 0.069678 0.996403 0.048221
vn -0.000003 -0.999812 0.019406
vn -0.000003 -0.999812 0.019406
vn -0.000003 -0.999812 0.019406
vn -0.000003 -0.999812 0.019406
vn -0.006762 0.999859 -0.015367
vn -0.006762 0.999859 -0.015367
vn -0.006762 0.999859 -0.015367
vn -0.006762 0.999859 -0.015367
vn 0.979372 -0.022743 0.200783
vn 0.979372 -0.022743 0.200783
vn 0.979372 -0.022743 0.200783
vn 0.979372 -0.022743 0.200783
vn -0.979372 -0.022751 0.200783
vn -0.979372 -0.022751 0.200783
vn -0.979372 -0.022751 0.200783
vn -0.979372 -0.022751 0.200783
vn 0.047956 0.998042 0.040146
vn 0.047956 0.998042 0.040146
vn 0.047956 0.998042 0.040146
vn -0.047956 0.998042 0.040146
vn -0.047956 0.998042 0.040146
vn -0.047956 0.998042 0.040146
vn 0.057554 0.997648 0.037239
vn 0.057554 0.997648 0.037239
vn 0.057554 0.997648 0.037239
vn 0.944477 0.075565 -0.319772
vn 0.944477 0.075565 -0.319772
vn 0.944477 0.075565 -0.319772
vn 0.944477 0.075565 -0.319772
vn -0.939504 0.077877 -0.333568
vn -0.939504 0.077877 -0.333568
vn -0.939504 0.077877 -0.333568
vn -0.939504 0.077877 -0.333568
vn 0.073073 0.994064 0.080607
vn 0.073073 0.994064 0.080607
vn 0.073073 0.994064 0.080607
vn -0.070165 0.996413 0.047306
vn -0.070165 0.996413 0.047306
vn -0.070165 0.996413 0.047306
vn -0.070165 0.996413 0.047306
vn -0.786177 -0.020447 0.617663
vn -0.786177 -0.020447 0.617663
vn -0.786177 -0.020447 0.617663
vn -0.786177 -0.020447 0.617663
vn 0.975590 0.021568 -0.218539
vn 0.975590 0.021568 -0.218539
vn 0.975590 0.021568 -0.218539
vn 0.975590 0.021568 -0.218539
vn 0.225958 0.967665 -0.112105
vn 0.225958 0.967665 -0.112105
vn 0.225958 0.967665 -0.112105
vn -0.218699 0.967575 -0.126370
vn -0.218699 0.967575 -0.126370
vn -0.218699 0.967575 -0.126370
vn -0.191657 0.956506 0.219919
vn -0.191657 0.956506 0.219919
vn -0.191657 0.956506 0.219919
vn 0.198120 0.954252 0.223944
vn 0.198120 0.954252 0.223945
vn 0.198119 0.954252 0.223944
vn 0.000000 1.000000 0.000000
vn 0.000000 1.000000 0.000000
vn 0.000000 1.000000 0.000000
vn 0.911322 0.001847 -0.411691
vn 0.911322 0.001847 -0.411691
vn 0.911322 0.001847 -0.411691
vn 0.911322 0.001847 -0.411691
vn 0.000000 0.963212 -0.268743
vn 0.000000 0.963212 -0.268743
vn 0.000000 0.963212 -0.268743
vn 0.000000 0.963212 -0.268743
vn -0.911325 0.001847 -0.411683
vn -0.911325 0.001847 -0.411683
vn -0.911325 0.001847 -0.411683
vn -0.911325 0.001847 -0.411683
vn 0.000000 -0.940406 -0.340053
vn 0.000000 -0.940406 -0.340053
vn 0.000000 -0.940406 -0.340053
vn 0.000000 -0.940406 -0.340053
vn -0.064944 0.997275 0.034997
vn -0.064944 0.997275 0.034997
vn -0.064944 0.997275 0.034997
vn 0.005872 0.999862 -0.015554
vn 0.005872 0.999862 -0.015554
vn 0.005872 0.999862 -0.015554
vn 0.005872 0.999862 -0.015554
vn 0.000002 -0.999698 0.024566
vn 0.000002 -0.999698 0.024566
vn 0.000002 -0.999698 0.024566
vn 0.000002 -0.999698 0.024566
vn 0.000000 -0.972130 -0.234444
vn 0.000000 -0.972130 -0.234444
vn 0.000000 -0.972130 -0.234444
vn 0.000000 -0.972130 -0.234444
vn 0.001649 -0.992876 -0.119144
vn 0.001649 -0.992876 -0.119144
vn 0.001649 -0.992876 -0.119144
vn 0.001649 -0.992876 -0.119144
s off
f 21/1/1 22/2/2 23/3/3 24/4/4
f 5/5/5 6/6/6 35/7/7 36/8/8
f 33/9/9 34/10/10 7/11/11 8/12/12
f 6/6/13 7/11/14 34/10/15 35/7/16
f 36/8/17 33/9/18 8/12/19 5/5/20
f 3/13/21 4/14/22 6/6/23 5/5/24
f 2/15/25 7/11/26 6/6/27 4/14/28
f 8/12/29 7/11/30 2/15/31 1/16/32
f 5/5/33 8/12/34 1/16/35 3/13/36
f 9/17/37 15/18/38 13/19/39
f 2/15/40 4/14/41 11/20/42 10/21/43
f 11/20/44 18/22/45 20/23/46
f 3/13/47 1/16/48 9/17/49 12/24/50
f 14/25/51 13/19/52 15/18/53 16/26/54
f 26/27/55 25/28/56 27/29/57 28/30/58
f 18/22/59 17/31/60 19/32/61 20/23/62
f 30/33/63 29/34/64 31/35/65 32/36/66
f 9/17/67 13/19/68 22/2/69 21/1/70
f 13/19/71 14/25/72 23/3/73 22/2/74
f 14/25/75 12/24/76 24/4/77 23/3/78
f 12/24/79 9/17/80 21/1/81 24/4/82
f 16/26/83 15/18/84 25/28/85 26/27/86
f 15/18/87 17/31/88 27/29/89 25/28/90
f 17/31/91 18/22/92 28/30/93 27/29/94
f 18/22/95 16/26/96 26/27/97 28/30/98
f 20/23/99 19/32/100 29/34/101 30/33/102
f 19/32/103 10/21/104 31/35/105 29/34/106
f 10/21/107 11/20/108 32/36/109 31/35/110
f 11/20/111 20/23/112 30/33/113 32/36/114
f 1/16/115 2/15/116 10/21/117 9/17/118
f 4/14/119 3/13/120 12/24/121 11/20/122
f 17/31/123 10/21/124 19/32/125
f 11/20/126 12/24/127 16/26/128 18/22/129
f 9/17/130 10/21/131 17/31/132 15/18/133
f 16/26/134 12/24/135 14/25/136
f 37/37/137 38/38/138 34/10/139 33/9/140
f 35/7/141 34/10/142 38/38/143 39/39/144
f 36/8/145 35/7/146 39/39/147 40/40/148
f 40/40/149 37/37/150 33/9/151 36/8/152
f 41/41/153 42/42/154 44/43/155 43/44/156
f 48/45/157 45/46/158 71/47/159 72/48/160
f 64/49/161 61/50/162 69/51/163 70/52/164
f 62/53/165 57/54/166 58/55/167 61/50/168
f 57/54/169 65/56/170 66/57/171 60/58/172
f 68/59/173 62/53/174 63/60/175 67/61/176
f 77/62/177 74/63/178 38/64/179 37/65/180
f 76/66/181 77/62/182 37/65/183 40/67/184
f 40/67/185 39/68/186 75/69/187 76/66/188
f 39/68/189 38/64/190 74/63/191 75/69/192
f 42/42/193 41/41/194 52/70/195
f 67/61/196 52/70/197 41/41/198
f 54/71/199 53/72/200 49/73/201 50/74/202
f 53/72/203 55/75/204 51/76/205 49/73/206
f 52/70/207 56/77/208 54/71/209 50/74/210
f 51/76/211 55/75/212 56/77/213 52/70/214
f 66/57/215 52/70/216 50/74/217 60/58/218
f 61/50/219 58/55/220 71/47/221 69/51/222
f 49/73/223 64/49/224 70/52/225 47/78/226
f 58/55/227 57/54/228 60/58/229 59/79/230
f 62/53/231 61/50/232 64/49/233 63/60/234
f 50/74/235 59/79/236 60/58/237
f 51/76/238 63/60/239 64/49/240
f 49/73/241 59/79/242 50/74/243
f 66/57/244 65/56/245 44/43/246 42/42/247
f 43/44/248 68/59/249 67/61/250 41/41/251
f 52/70/252 66/57/253 42/42/254
f 63/60/255 51/76/256 52/70/257 67/61/258
f 70/52/259 69/51/260 46/80/261 47/78/262
f 72/48/263 71/47/264 58/55/265 59/79/266
f 55/75/267 53/72/268 73/81/269
f 53/72/270 54/71/271 73/81/272
f 54/71/273 56/77/274 73/81/275
f 56/77/276 55/75/277 73/81/278
f 47/78/279 48/45/280 49/73/281
f 75/69/282 74/63/283 45/46/284 48/45/285
f 76/66/286 75/69/287 48/45/288 47/78/289
f 47/78/290 46/80/291 77/62/292 76/66/293
f 46/80/294 45/46/295 74/63/296 77/62/297
f 51/76/298 64/49/299 49/73/300
f 49/73/301 48/45/302 72/48/303 59/79/304
f 69/51/305 71/47/306 45/46/307 46/80/308
f 43/44/309 44/43/310 65/56/311 68/59/312
f 68/59/313 65/56/314 57/54/315 62/53/316
