# This file uses centimeters as units for non-parametric coordinates.

v -16.406494 0.000000 26.568726
v 16.358337 0.000000 26.502686
v -16.406494 28.963181 26.568726
v 16.358337 28.963181 26.502686
v -16.509735 28.963181 -24.724182
v 16.255127 28.963181 -24.790039
v -16.509735 0.000000 -24.724182
v 16.255127 0.000000 -24.790039
v -15.270996 29.788033 25.469648
v 15.221191 29.788033 25.409378
v 15.119583 29.788033 -23.690962
v -15.372253 29.788033 -23.631191
v -14.556030 2.033211 24.885437
v 14.501465 2.033211 24.826599
v 14.404633 2.033211 -23.106750
v -14.652527 2.033211 -23.048401
v -16.376434 33.779190 41.509277
v 16.290607 31.317997 41.940033
v 15.355427 32.141605 41.272408
v -15.443970 34.602798 40.837914
v -16.543396 33.681709 -41.437927
v 16.749161 33.111511 -41.397194
v -15.734177 34.614693 -40.680073
v 15.942901 34.044495 -40.636127
v -30.694210 32.919075 26.325207
v -30.667778 33.286488 -25.120001
v -30.129917 33.433357 25.625990
v -30.100540 33.800770 -24.423531
v 30.904333 31.810442 25.545418
v 30.615078 32.645325 -25.370176
v 29.762691 33.183197 -24.597759
v 30.048742 32.348312 24.777029
v 15.568207 19.722816 25.548660
v -15.621330 14.951167 25.612242
v 15.469955 18.837278 -23.833555
v -15.719604 11.038308 -23.770151
v 14.232285 19.366751 24.288525
v -14.108101 15.304926 24.196821
v 14.115723 18.520987 -22.549551
v -14.180344 11.448123 -22.344042
v 16.370361 30.860733 32.389400
v 15.326828 31.975796 32.391579
v 30.429550 33.815727 -8.483887
v 29.576309 34.353600 -8.116583
v -30.345222 33.749680 21.306238
v -29.780167 34.263962 20.980705
v 15.167313 29.788033 -0.623547
v -15.294022 29.788033 14.304646
v 16.302795 28.963181 -1.102019
v -16.429901 28.963181 14.939285
vt 0.037791 0.327285
vt 0.037921 0.327250
vt 0.037923 0.327126
vt 0.037792 0.327155
vt 0.037803 0.327277
vt 0.037918 0.327247
vt 0.038051 0.327325
vt 0.037933 0.327358
vt 0.037933 0.327237
vt 0.038069 0.327203
vt 0.038063 0.327335
vt 0.037930 0.327373
vt 0.037755 0.327111
vt 0.037884 0.327084
vt 0.037879 0.327083
vt 0.037763 0.327108
vt 0.037978 0.327092
vt 0.038127 0.327166
vt 0.038118 0.327162
vt 0.037980 0.327093
vt 0.038122 0.327208
vt 0.037984 0.327243
vt 0.037989 0.327235
vt 0.038112 0.327204
vt 0.037872 0.327229
vt 0.037734 0.327147
vt 0.037741 0.327146
vt 0.037870 0.327223
vt 0.037804 0.327156
vt 0.037920 0.327130
vt 0.038056 0.327202
vt 0.037936 0.327232
vt 0.037923 0.327166
vt 0.037794 0.327227
vt 0.038067 0.327249
vt 0.037931 0.327322
vt 0.037920 0.327174
vt 0.037806 0.327228
vt 0.038054 0.327252
vt 0.037934 0.327316
vt 0.037908 0.327109
vt 0.037902 0.327108
vt 0.038079 0.327143
vt 0.038074 0.327140
vt 0.037748 0.327155
vt 0.037753 0.327154
vt 0.037992 0.327168
vt 0.037834 0.327173
vt 0.038002 0.327167
vt 0.037824 0.327174
vn -0.002081 0.055015 0.998483
vn -0.002081 0.055015 0.998483
vn -0.002081 0.055015 0.998483
vn -0.002081 0.055015 0.998483
vn 0.006270 -0.067949 -0.997669
vn 0.006270 -0.067949 -0.997669
vn 0.006270 -0.067949 -0.997669
vn 0.006270 -0.067949 -0.997669
vn 0.000000 -1.000000 0.000000
vn 0.000000 -1.000000 0.000000
vn 0.000000 -1.000000 0.000000
vn 0.000000 -1.000000 0.000000
vn 0.038318 0.630345 0.775369
vn 0.038318 0.630345 0.775369
vn 0.038318 0.630345 0.775369
vn 0.038318 0.630345 0.775369
vn 0.524907 0.850047 0.043512
vn 0.524907 0.850047 0.043512
vn 0.524907 0.850047 0.043512
vn 0.524907 0.850047 0.043512
vn 0.012091 0.631241 -0.775493
vn 0.012091 0.631241 -0.775493
vn 0.012091 0.631241 -0.775493
vn 0.012091 0.631241 -0.775493
vn -0.671888 0.740648 -0.002768
vn -0.671888 0.740648 -0.002768
vn -0.671888 0.740648 -0.002768
vn -0.671888 0.740648 -0.002768
vn -0.006071 0.095630 -0.995399
vn -0.006071 0.095630 -0.995399
vn -0.006071 0.095630 -0.995399
vn -0.006071 0.095630 -0.995399
vn -0.995547 0.094249 0.002060
vn -0.995547 0.094249 0.002060
vn -0.995547 0.094249 0.002060
vn -0.005334 0.081717 0.996641
vn -0.005334 0.081717 0.996641
vn -0.005334 0.081717 0.996641
vn -0.005334 0.081717 0.996641
vn 0.997495 0.070560 -0.004998
vn 0.997495 0.070560 -0.004998
vn 0.997495 0.070560 -0.004998
vn 0.997495 0.070560 -0.004998
vn 0.996380 -0.084992 -0.002005
vn 0.996380 -0.084992 -0.002005
vn 0.996380 -0.084992 -0.002005
vn -0.998815 -0.048496 0.004129
vn -0.998815 -0.048496 0.004129
vn -0.998815 -0.048496 0.004129
vn -0.998815 -0.048496 0.004129
vn 0.000618 -0.951775 0.306798
vn 0.000618 -0.951775 0.306798
vn 0.000618 -0.951775 0.306798
vn 0.000618 -0.951775 0.306798
vn 0.707483 0.671712 -0.219708
vn 0.707483 0.671712 -0.219708
vn 0.707483 0.671712 -0.219708
vn 0.707483 0.671712 -0.219708
vn -0.000595 0.954260 -0.298977
vn -0.000595 0.954260 -0.298977
vn -0.000595 0.954260 -0.298977
vn -0.000595 0.954260 -0.298977
vn -0.714622 0.665685 -0.214894
vn -0.714622 0.665685 -0.214894
vn -0.714622 0.665685 -0.214894
vn -0.714622 0.665685 -0.214894
vn -0.008439 -0.966307 -0.257256
vn -0.008439 -0.966307 -0.257256
vn -0.008439 -0.966307 -0.257256
vn -0.008439 -0.966307 -0.257256
vn -0.750626 0.633452 0.187881
vn -0.750626 0.633452 0.187881
vn -0.750626 0.633452 0.187881
vn -0.750626 0.633452 0.187881
vn 0.008926 0.966038 0.258244
vn 0.008926 0.966038 0.258244
vn 0.008926 0.966038 0.258244
vn 0.008926 0.966038 0.258244
vn 0.751950 0.631900 0.187814
vn 0.751950 0.631900 0.187814
vn 0.751950 0.631900 0.187814
vn 0.751950 0.631900 0.187814
vn -0.307387 -0.951562 0.006556
vn -0.307387 -0.951562 0.006556
vn -0.307387 -0.951562 0.006556
vn -0.307387 -0.951562 0.006556
vn 0.180372 0.699562 0.691433
vn 0.180372 0.699562 0.691433
vn 0.180372 0.699562 0.691433
vn 0.180372 0.699562 0.691433
vn 0.278421 0.958818 0.056126
vn 0.278421 0.958818 0.056126
vn 0.278421 0.958818 0.056126
vn 0.278421 0.958818 0.056126
vn 0.221853 0.667455 -0.710834
vn 0.221853 0.667455 -0.710834
vn 0.221853 0.667455 -0.710834
vn 0.221853 0.667455 -0.710834
vn 0.250070 -0.967643 -0.033634
vn 0.250070 -0.967643 -0.033634
vn 0.250070 -0.967643 -0.033634
vn 0.250070 -0.967643 -0.033634
vn -0.201580 0.677453 -0.707406
vn -0.201580 0.677453 -0.707406
vn -0.201580 0.677453 -0.707406
vn -0.201580 0.677453 -0.707406
vn -0.272062 0.961830 -0.029418
vn -0.272062 0.961830 -0.029418
vn -0.272062 0.961830 -0.029418
vn -0.272062 0.961830 -0.029418
vn -0.102083 0.747472 0.656403
vn -0.102083 0.747472 0.656403
vn -0.102083 0.747472 0.656403
vn -0.102083 0.747472 0.656403
vn 0.008130 -0.081887 0.996608
vn 0.008130 -0.081887 0.996608
vn 0.008130 -0.081887 0.996608
vn 0.008130 -0.081887 0.996608
vn -0.009799 0.063817 -0.997914
vn -0.009799 0.063817 -0.997914
vn -0.009799 0.063817 -0.997914
vn -0.009799 0.063817 -0.997914
vn 0.003408 -0.040069 -0.999191
vn 0.003408 -0.040069 -0.999191
vn 0.003408 -0.040069 -0.999191
vn 0.003408 -0.040069 -0.999191
vn 0.010603 -0.048718 0.998756
vn 0.010603 -0.048718 0.998756
vn 0.010603 -0.048718 0.998756
vn 0.010603 -0.048718 0.998756
vn 0.999179 -0.040524 -0.000130
vn 0.999179 -0.040524 -0.000130
vn 0.999179 -0.040524 -0.000130
vn 0.999179 -0.040524 -0.000130
vn 0.999164 0.040819 -0.002358
vn 0.999164 0.040819 -0.002358
vn 0.999164 0.040819 -0.002358
vn 0.999164 0.040819 -0.002358
vn -0.075663 -0.996023 0.047056
vn -0.075663 -0.996023 0.047056
vn -0.075663 -0.996023 0.047056
vn 0.703447 0.710405 -0.022063
vn 0.703447 0.710405 -0.022063
vn 0.703447 0.710405 -0.022063
vn 0.703447 0.710405 -0.022063
vn 0.079907 0.996624 -0.018864
vn 0.079907 0.996624 -0.018864
vn 0.079907 0.996624 -0.018864
vn 0.000000 1.000000 -0.000000
vn 0.000000 1.000000 -0.000000
vn 0.000000 1.000000 -0.000000
vn 0.000000 1.000000 -0.000000
vn 0.506243 0.860653 -0.054734
vn 0.506243 0.860653 -0.054734
vn 0.506243 0.860653 -0.054734
vn 0.506243 0.860653 -0.054734
vn -0.625946 0.774892 0.087942
vn -0.625946 0.774892 0.087942
vn -0.625946 0.774892 0.087942
vn -0.625946 0.774892 0.087942
vn -0.995893 0.090527 0.001245
vn -0.995893 0.090527 0.001245
vn -0.995893 0.090527 0.001245
vn -0.995893 0.090527 0.001245
vn 0.996776 0.080215 -0.002056
vn 0.996776 0.080215 -0.002056
vn 0.996776 0.080215 -0.002056
vn 0.996820 -0.079686 -0.001025
vn 0.996820 -0.079686 -0.001025
vn 0.996820 -0.079686 -0.001025
vn 0.996820 -0.079686 -0.001025
vn -0.998424 -0.056084 0.002010
vn -0.998424 -0.056084 0.002010
vn -0.998424 -0.056084 0.002010
vn -0.306221 -0.950461 -0.053408
vn -0.306221 -0.950461 -0.053408
vn -0.306221 -0.950461 -0.053408
vn -0.306221 -0.950461 -0.053408
vn 0.277779 0.960622 -0.006668
vn 0.277779 0.960622 -0.006668
vn 0.277779 0.960622 -0.006668
vn 0.277779 0.960622 -0.006668
vn 0.294197 -0.955318 0.028557
vn 0.294197 -0.955318 0.028557
vn 0.294197 -0.955318 0.028557
vn 0.294197 -0.955318 0.028557
vn -0.227421 0.973162 0.035148
vn -0.227421 0.973162 0.035148
vn -0.227421 0.973162 0.035148
vn -0.227421 0.973162 0.035148
vn -0.999861 -0.016500 0.002399
vn -0.999861 -0.016500 0.002399
vn -0.999861 -0.016500 0.002399
vn -0.999861 -0.016500 0.002399
vn -0.998168 0.060502 -0.000353
vn -0.998168 0.060502 -0.000353
vn -0.998168 0.060502 -0.000353
vn -0.998168 0.060502 -0.000353
s off
f 1/1/1 2/2/2 33/33/3 34/34/4
f 5/9/5 6/10/6 35/35/7 36/36/8
f 7/12/9 8/11/10 2/2/11 1/1/12
f 17/13/13 18/14/14 19/15/15 20/16/16
f 29/17/17 43/43/18 44/44/19 32/20/20
f 22/21/21 21/22/22 23/23/23 24/24/24
f 26/25/25 45/45/26 46/46/27 28/28/28
f 9/29/29 10/30/30 37/37/31 38/38/32
f 10/30/33 47/47/34 37/37/35
f 11/31/36 12/32/37 40/40/38 39/39/39
f 12/32/40 48/48/41 38/38/42 40/40/43
f 4/3/44 33/33/45 49/49/46
f 5/9/47 36/36/48 34/34/49 50/50/50
f 3/4/51 4/3/52 41/41/53 17/13/54
f 4/3/55 10/30/56 42/42/57 41/41/58
f 10/30/59 9/29/60 20/16/61 42/42/62
f 9/29/63 3/4/64 17/13/65 20/16/66
f 6/10/67 5/9/68 21/22/69 22/21/70
f 5/9/71 12/32/72 23/23/73 21/22/74
f 12/32/75 11/31/76 24/24/77 23/23/78
f 11/31/79 6/10/80 22/21/81 24/24/82
f 5/9/83 50/50/84 45/45/85 26/25/86
f 3/4/87 9/29/88 27/27/89 25/26/90
f 9/29/91 48/48/92 46/46/93 27/27/94
f 12/32/95 5/9/96 26/25/97 28/28/98
f 4/3/99 49/49/100 43/43/101 29/17/102
f 6/10/103 11/31/104 31/19/105 30/18/106
f 11/31/107 47/47/108 44/44/109 31/19/110
f 10/30/111 4/3/112 29/17/113 32/20/114
f 34/34/115 33/33/116 4/3/117 3/4/118
f 36/36/119 35/35/120 8/11/121 7/12/122
f 38/38/123 37/37/124 14/6/125 13/5/126
f 39/39/127 40/40/128 16/8/129 15/7/130
f 40/40/131 38/38/132 13/5/133 16/8/134
f 35/35/135 33/33/136 2/2/137 8/11/138
f 17/13/139 41/41/140 18/14/141
f 41/41/142 42/42/143 19/15/144 18/14/145
f 42/42/146 20/16/147 19/15/148
f 13/5/149 14/6/150 15/7/151 16/8/152
f 44/44/153 43/43/154 30/18/155 31/19/156
f 46/46/157 45/45/158 25/26/159 27/27/160
f 37/37/161 47/47/162 11/31/163 39/39/164
f 38/38/165 48/48/166 9/29/167
f 49/49/168 33/33/169 35/35/170 6/10/171
f 50/50/172 34/34/173 3/4/174
f 45/45/175 50/50/176 3/4/177 25/26/178
f 46/46/179 48/48/180 12/32/181 28/28/182
f 43/43/183 49/49/184 6/10/185 30/18/186
f 44/44/187 47/47/188 10/30/189 32/20/190
f 14/6/191 37/37/192 39/39/193 15/7/194
f 1/1/195 34/34/196 36/36/197 7/12/198
