# This file uses centimeters as units for non-parametric coordinates.

v -61.500896 3.362150 40.601898
v 61.412285 3.362150 40.601898
v -61.500896 3.362150 -40.822556
v 61.412285 3.362150 -40.822556
v -62.552711 3.362150 -13.133625
v 61.616776 3.362150 -29.067986
v 66.857658 0.929604 -31.982269
v 66.857658 0.000001 -31.982269
v 64.726387 0.000001 -28.545803
v -67.998100 0.000001 -16.468281
v -67.998100 0.929604 -16.468281
v 66.857658 0.000001 -21.867523
v 66.857658 0.929604 -22.042175
v 63.922287 2.240890 -28.700281
v -44.788097 3.291839 -14.382353
v 47.352898 3.291839 -1.504635
v 46.910290 3.291839 -30.727602
v -47.244415 3.291839 -28.956123
v -48.762444 3.291839 31.044502
v 48.313168 3.291839 29.428518
v 10.244545 3.362150 40.160992
v -14.026704 3.362150 -41.550972
v -15.274394 0.929604 -46.569313
v -15.179594 0.000000 -46.569313
v 11.988391 0.929604 45.179241
v 12.083185 0.000000 45.179241
v -7.291437 3.516876 -14.141623
v -10.345205 3.291839 -27.844870
v 7.738604 3.291839 31.044502
v 11.695728 3.136588 9.214396
v -26.242025 3.070205 12.472733
v -22.730137 3.291839 29.909426
v -21.692568 2.871684 39.598789
v -15.482202 3.362150 41.550995
v -19.297375 0.929604 46.569298
v -19.297852 0.000000 46.569298
v 64.256325 1.235221 -45.840908
v 66.857658 1.235221 -43.239559
v 64.256325 0.000000 -45.840908
v 66.857658 0.000001 -43.239559
v 56.777466 0.000000 -38.483261
v -66.946320 0.929604 -43.239559
v -64.344971 0.929604 -45.840908
v -66.946320 0.000001 -43.239559
v -64.344971 0.000000 -45.840908
v -56.692646 0.000000 -38.483261
v 64.256325 0.929604 45.620186
v 66.857658 0.929604 43.018890
v 64.256325 0.000000 45.620186
v 56.777466 0.000000 38.262573
v 66.857658 0.000000 43.018890
v -66.946320 0.929604 43.044411
v -64.370987 0.929604 45.671509
v -66.946320 0.000000 43.044411
v -56.692646 0.000000 38.262573
v -64.370987 0.000000 45.671509
v 62.663128 3.362150 4.852016
v 67.998085 0.929604 15.732981
v 67.998093 0.000000 17.652124
v -30.098539 3.362150 41.480804
vt 0.936466 0.169849
vt 0.864051 0.169815
vt 0.867718 0.163402
vt 0.941269 0.163437
vt 0.786667 0.242853
vt 0.839502 0.242578
vt 0.835408 0.260730
vt 0.783318 0.262176
vt 0.755731 0.245396
vt 0.761510 0.241189
vt 0.763242 0.277901
vt 0.757449 0.280678
vt 0.761824 0.283939
vt 0.761122 0.284105
vt 0.829978 0.284141
vt 0.830660 0.283974
vt 0.945512 0.280615
vt 0.945124 0.280827
vt 0.945184 0.265945
vt 0.945476 0.265818
vt 0.941571 0.163538
vt 0.868317 0.163504
vt 0.756445 0.245316
vt 0.758158 0.280519
vt 0.936754 0.277989
vt 0.941479 0.284253
vt 0.830259 0.277935
vt 0.937002 0.262411
vt 0.940624 0.261783
vt 0.824252 0.162230
vt 0.943918 0.174832
vt 0.943146 0.174869
vt 0.942224 0.174701
vt 0.819192 0.170830
vt 0.827636 0.168534
vt 0.762519 0.169767
vt 0.812808 0.207210
vt 0.817506 0.184028
vt 0.860597 0.182538
vt 0.866398 0.211563
vt 0.936756 0.219885
vt 0.945034 0.205451
vt 0.945151 0.252842
vt 0.945443 0.252515
vt 0.945321 0.202928
vt 0.944974 0.174677
vt 0.757386 0.166855
vt 0.756673 0.166760
vt 0.942479 0.261298
vt 0.916266 0.264592
vt 0.916770 0.225825
vt 0.918000 0.184715
vt 0.780676 0.182500
vt 0.823688 0.162125
vt 0.941878 0.284031
vt 0.760273 0.163284
vt 0.760978 0.163386
vt 0.944939 0.166882
vt 0.945232 0.166976
vt 0.806951 0.168618
vt 0.942015 0.173706
vt 0.942062 0.173303
vt 0.934412 0.177642
vt 0.944564 0.173353
vt 0.941969 0.174804
vt 0.945205 0.174830
vt 0.944681 0.173247
vt 0.944745 0.173283
vt 0.942116 0.173266
vt 0.945251 0.174774
vt 0.942029 0.174860
vt 0.943097 0.173248
vt 0.944800 0.173446
vt 0.944852 0.173599
vt 0.944773 0.173498
vt 0.945106 0.174271
vt 0.935463 0.177634
vt 0.935650 0.178240
vt 0.942266 0.173370
vt 0.934393 0.178251
vn -0.003731 0.899176 0.437570
vn -0.003731 0.899176 0.437570
vn -0.003731 0.899176 0.437570
vn -0.003731 0.899176 0.437571
vn -0.002890 0.999968 -0.007395
vn -0.002890 0.999968 -0.007395
vn -0.002890 0.999969 -0.007395
vn -0.002890 0.999969 -0.007395
vn -0.400989 0.915952 -0.015489
vn -0.400989 0.915952 -0.015489
vn -0.400989 0.915952 -0.015489
vn -0.400989 0.915952 -0.015489
vn -0.014828 -0.000756 -0.999890
vn -0.014828 -0.000756 -0.999890
vn -0.014828 -0.000756 -0.999890
vn -0.014828 -0.000756 -0.999890
vn 1.000000 0.000000 0.000000
vn 1.000000 0.000000 0.000000
vn 1.000000 0.000000 0.000000
vn 1.000000 0.000000 0.000000
vn -0.008444 -0.000430 0.999964
vn -0.008444 -0.000430 0.999964
vn -0.008444 -0.000430 0.999964
vn -0.008444 -0.000430 0.999964
vn -0.999229 0.000000 -0.039257
vn -0.999229 0.000000 -0.039257
vn -0.999229 0.000000 -0.039257
vn -0.999229 0.000000 -0.039257
vn 0.002090 0.910580 -0.413327
vn 0.002090 0.910581 -0.413327
vn 0.002090 0.910581 -0.413327
vn 0.002090 0.910580 -0.413327
vn 0.438329 0.898782 -0.007625
vn 0.438329 0.898782 -0.007625
vn 0.438329 0.898782 -0.007625
vn 0.000000 -1.000000 0.000000
vn 0.000000 -1.000000 0.000000
vn 0.000000 -1.000000 0.000000
vn 0.000000 -1.000000 0.000000
vn -0.000000 -1.000000 -0.000000
vn -0.000000 -1.000000 -0.000000
vn -0.000000 -1.000000 -0.000000
vn 0.000097 0.999982 0.005952
vn 0.000097 0.999982 0.005952
vn 0.000097 0.999982 0.005952
vn 0.000097 0.999982 0.005952
vn 0.004440 0.999990 -0.000148
vn 0.004440 0.999990 -0.000148
vn 0.004440 0.999990 -0.000148
vn 0.004440 0.999990 -0.000148
vn 0.004659 0.999989 0.000137
vn 0.004659 0.999989 0.000137
vn 0.004659 0.999989 0.000137
vn 0.004659 0.999989 0.000137
vn -0.001269 0.999953 -0.009612
vn -0.001269 0.999953 -0.009612
vn -0.001269 0.999953 -0.009612
vn -0.001269 0.999953 -0.009612
vn 0.436397 0.899656 -0.013311
vn 0.436397 0.899656 -0.013311
vn 0.436397 0.899656 -0.013311
vn 0.436397 0.899656 -0.013311
vn 0.999014 -0.033197 -0.029479
vn 0.999014 -0.033197 -0.029480
vn 0.999014 -0.033197 -0.029480
vn 0.999014 -0.033197 -0.029480
vn 0.000000 -1.000000 0.000000
vn 0.000000 -1.000000 0.000000
vn 0.000000 -1.000000 0.000000
vn 0.000000 -1.000000 0.000000
vn -0.000000 -1.000000 -0.000000
vn -0.000000 -1.000000 -0.000000
vn -0.000000 -1.000000 -0.000000
vn -0.999844 0.000000 0.017670
vn -0.999844 0.000000 0.017670
vn -0.999844 0.000000 0.017670
vn -0.999844 0.000000 0.017670
vn -0.408375 0.912783 0.007586
vn -0.408375 0.912783 0.007586
vn -0.408375 0.912783 0.007586
vn -0.408375 0.912783 0.007586
vn 0.798103 0.229558 0.557076
vn 0.798104 0.229558 0.557076
vn 0.798103 0.229558 0.557076
vn 0.798103 0.229558 0.557076
vn 0.922356 0.199593 -0.330789
vn 0.922356 0.199593 -0.330789
vn 0.922356 0.199593 -0.330789
vn 0.922356 0.199593 -0.330789
vn -0.004714 0.999989 0.000111
vn -0.004714 0.999989 0.000111
vn -0.004714 0.999989 0.000111
vn -0.004714 0.999989 0.000111
vn -0.008699 0.999961 -0.001296
vn -0.008699 0.999961 -0.001296
vn -0.008699 0.999961 -0.001296
vn -0.008699 0.999961 -0.001296
vn -0.008699 0.999961 -0.001296
vn -0.004937 0.999988 -0.000022
vn -0.004937 0.999988 -0.000022
vn -0.004937 0.999988 -0.000022
vn -0.004937 0.999988 -0.000022
vn 0.021439 0.897903 0.439672
vn 0.021439 0.897903 0.439672
vn 0.021439 0.897903 0.439672
vn 0.021439 0.897903 0.439672
vn 0.002486 0.999982 -0.005445
vn 0.002486 0.999982 -0.005445
vn 0.002486 0.999982 -0.005445
vn 0.002486 0.999982 -0.005445
vn 0.009163 0.000401 -0.999958
vn 0.009163 0.000401 -0.999958
vn 0.009163 0.000401 -0.999958
vn 0.009163 0.000401 -0.999958
vn 0.044320 0.002248 0.999015
vn 0.044320 0.002248 0.999015
vn 0.044320 0.002248 0.999015
vn 0.044320 0.002248 0.999015
vn -0.006549 0.900882 -0.434015
vn -0.006549 0.900882 -0.434015
vn -0.006549 0.900882 -0.434015
vn -0.006549 0.900882 -0.434015
vn 0.000000 -1.000000 0.000000
vn 0.000000 -1.000000 0.000000
vn 0.000000 -1.000000 0.000000
vn -0.000025 0.999985 0.005516
vn -0.000025 0.999985 0.005516
vn -0.000025 0.999985 0.005516
vn -0.000025 0.999985 0.005516
vn 0.000434 0.999873 0.015927
vn 0.000434 0.999873 0.015927
vn 0.000434 0.999873 0.015927
vn -0.000088 0.999976 -0.006863
vn -0.000088 0.999977 -0.006863
vn -0.000088 0.999977 -0.006863
vn -0.000088 0.999977 -0.006863
vn -0.006081 0.999904 0.012452
vn -0.006081 0.999904 0.012452
vn -0.006081 0.999904 0.012452
vn -0.000549 0.999920 -0.012599
vn -0.000549 0.999921 -0.012599
vn -0.000549 0.999921 -0.012599
vn 0.008035 0.999967 -0.001477
vn 0.008035 0.999967 -0.001477
vn 0.008035 0.999967 -0.001477
vn 0.008035 0.999967 -0.001477
vn 0.008035 0.999967 -0.001477
vn -0.173944 0.931549 0.319313
vn -0.173944 0.931549 0.319313
vn -0.173944 0.931549 0.319313
vn -0.019914 0.000005 0.999802
vn -0.019914 0.000005 0.999802
vn -0.019914 0.000005 0.999802
vn -0.019914 0.000005 0.999802
vn 0.707109 0.000000 -0.707105
vn 0.707109 0.000000 -0.707105
vn 0.707109 0.000000 -0.707105
vn 0.707109 0.000000 -0.707105
vn -0.707107 0.000000 -0.707107
vn -0.707107 0.000000 -0.707107
vn -0.707107 0.000000 -0.707107
vn -0.707107 0.000000 -0.707107
vn 0.707102 0.000000 0.707112
vn 0.707102 0.000000 0.707112
vn 0.707102 0.000000 0.707112
vn 0.707102 0.000000 0.707112
vn -0.714108 0.000000 0.700036
vn -0.714108 0.000000 0.700036
vn -0.714108 0.000000 0.700036
vn -0.714108 0.000000 0.700036
vn 0.252661 0.933984 -0.252660
vn 0.252661 0.933984 -0.252660
vn 0.252661 0.933984 -0.252660
vn 0.000000 -1.000000 0.000000
vn 0.000000 -1.000000 0.000000
vn 0.000000 -1.000000 0.000000
vn -0.283444 0.916143 -0.283445
vn -0.283444 0.916143 -0.283445
vn -0.283444 0.916143 -0.283445
vn -0.000000 -1.000000 0.000000
vn -0.000000 -1.000000 0.000000
vn -0.000000 -1.000000 0.000000
vn 0.283444 0.916142 0.283449
vn 0.283444 0.916142 0.283449
vn 0.283444 0.916142 0.283449
vn 0.000000 -1.000000 0.000000
vn 0.000000 -1.000000 0.000000
vn 0.000000 -1.000000 0.000000
vn -0.284579 0.917164 0.278972
vn -0.284579 0.917164 0.278971
vn -0.284579 0.917164 0.278971
vn 0.000000 -1.000000 0.000000
vn 0.000000 -1.000000 0.000000
vn 0.000000 -1.000000 0.000000
vn 0.000000 -1.000000 0.000000
vn 0.000000 -1.000000 0.000000
vn 0.000000 -1.000000 0.000000
vn 0.000000 -1.000000 0.000000
vn 0.000000 -1.000000 0.000000
vn 0.000000 -1.000000 0.000000
vn 0.000000 -1.000000 0.000000
vn 0.000000 -1.000000 0.000000
vn 0.000000 -1.000000 0.000000
vn 0.000000 -1.000000 0.000000
vn 0.000000 -1.000000 -0.000000
vn 0.000000 -1.000000 -0.000000
vn 0.000000 -1.000000 -0.000000
vn 0.000000 -1.000000 -0.000000
vn 0.000000 -1.000000 -0.000000
vn 0.000000 -1.000000 -0.000000
vn 0.000000 -1.000000 -0.000000
vn 0.000000 -1.000000 0.000000
vn 0.000000 -1.000000 0.000000
vn 0.000000 -1.000000 0.000000
vn -0.002536 0.999992 -0.003086
vn -0.002536 0.999992 -0.003086
vn -0.002536 0.999992 -0.003086
vn -0.002536 0.999992 -0.003086
vn -0.000328 0.999863 0.016547
vn -0.000328 0.999863 0.016547
vn -0.000328 0.999863 0.016547
vn 0.010606 0.999943 0.000928
vn 0.010606 0.999943 0.000928
vn 0.010606 0.999943 0.000928
vn 0.395850 0.918192 0.015017
vn 0.395850 0.918192 0.015017
vn 0.395850 0.918192 0.015017
vn 0.395850 0.918192 0.015017
vn 0.998068 0.044626 0.043235
vn 0.998068 0.044626 0.043235
vn 0.998068 0.044626 0.043235
vn 0.998068 0.044626 0.043235
vn 0.000000 -1.000000 -0.000000
vn 0.000000 -1.000000 -0.000000
vn 0.000000 -1.000000 -0.000000
vn 0.000000 -1.000000 0.000000
vn 0.000000 -1.000000 0.000000
vn 0.000000 -1.000000 0.000000
vn -0.000000 -1.000000 0.000000
vn -0.000000 -1.000000 0.000000
vn -0.000000 -1.000000 0.000000
vn 0.439473 0.898097 -0.016874
vn 0.439473 0.898098 -0.016874
vn 0.439473 0.898098 -0.016874
vn 0.387988 0.921549 0.014589
vn 0.387988 0.921549 0.014589
vn 0.387988 0.921549 0.014589
vn 0.387988 0.921549 0.014589
vn -0.010185 0.898729 0.438386
vn -0.010185 0.898729 0.438386
vn -0.010185 0.898729 0.438386
vn -0.010185 0.898729 0.438386
vn 0.108362 0.966641 0.232084
vn 0.108362 0.966641 0.232084
vn 0.108362 0.966641 0.232084
vn -0.004790 0.999989 0.000083
vn -0.004790 0.999989 0.000083
vn -0.004790 0.999989 0.000083
s off
f 2/1/1 21/2/2 25/3/3 47/4/4
f 15/5/5 27/6/6 28/7/7 18/8/8
f 11/9/9 5/10/10 3/11/11 42/12/12
f 45/13/13 43/14/14 23/15/15 24/16/16
f 40/17/17 38/18/18 7/19/19 8/20/20
f 49/21/21 47/4/22 25/3/23 26/22/24
f 10/23/25 11/9/26 42/12/27 44/24/28
f 4/25/29 37/26/30 23/15/31 22/27/32
f 6/28/33 14/29/34 4/25/35
f 26/31/36 36/32/37 55/33/38 50/46/39
f 10/61/40 44/62/41 46/79/42
f 17/50/43 4/25/44 22/27/45 28/7/46
f 3/11/47 5/10/48 15/5/49 18/8/50
f 5/10/51 1/36/52 19/53/53 15/5/54
f 31/37/55 32/38/56 29/39/57 30/40/58
f 57/41/59 58/42/60 13/43/61 6/28/62
f 12/44/63 13/43/64 58/42/65 59/45/66
f 46/63/67 41/77/68 50/78/69 55/80/70
f 55/33/71 54/65/72 10/61/73
f 54/47/74 52/48/75 11/9/76 10/23/77
f 1/36/78 5/10/79 11/9/80 52/48/81
f 8/20/82 7/19/83 14/29/84 9/49/85
f 9/49/86 14/29/87 13/43/88 12/44/89
f 6/28/90 17/50/91 16/51/92 57/41/93
f 21/2/94 29/39/95 32/38/96 33/34/97 34/35/98
f 16/51/99 20/52/100 2/1/101 57/41/102
f 25/3/103 21/2/104 34/35/105 35/54/106
f 28/7/107 27/6/108 16/51/109 17/50/110
f 24/16/111 23/15/112 37/26/113 39/55/114
f 26/22/115 25/3/116 35/54/117 36/30/118
f 22/27/119 23/15/120 43/14/121 3/11/122
f 50/46/123 49/66/124 26/31/125
f 22/27/126 3/11/127 18/8/128 28/7/129
f 27/6/130 30/40/131 16/51/132
f 2/1/133 20/52/134 29/39/135 21/2/136
f 15/5/137 31/37/138 27/6/139
f 19/53/140 32/38/141 31/37/142
f 33/34/143 32/38/144 19/53/145 1/36/146 60/60/147
f 34/35/148 33/34/149 35/54/150
f 36/30/151 35/54/152 53/56/153 56/57/154
f 37/26/155 38/18/156 40/17/157 39/55/158
f 42/12/159 43/14/160 45/13/161 44/24/162
f 48/58/163 47/4/164 49/21/165 51/59/166
f 53/56/167 52/48/168 54/47/169 56/57/170
f 37/26/171 4/25/172 38/18/173
f 39/67/174 40/68/175 41/64/176
f 42/12/177 3/11/178 43/14/179
f 44/62/180 45/69/181 46/79/182
f 47/4/183 48/58/184 2/1/185
f 49/66/186 50/46/187 51/70/188
f 52/48/189 53/56/190 1/36/191
f 54/65/192 55/33/193 56/71/194
f 24/72/195 41/64/196 46/79/197 45/69/198
f 41/64/199 24/72/200 39/67/201
f 8/73/202 41/64/203 40/68/204
f 12/74/205 41/64/206 9/75/207
f 50/46/208 41/64/209 12/74/210 59/76/211
f 9/75/212 41/64/213 8/73/214
f 16/51/215 30/40/216 29/39/217 20/52/218
f 27/6/219 31/37/220 30/40/221
f 19/53/222 31/37/223 15/5/224
f 2/1/225 48/58/226 58/42/227 57/41/228
f 59/45/229 58/42/230 48/58/231 51/59/232
f 50/46/233 59/76/234 51/70/235
f 55/33/236 36/32/237 56/71/238
f 55/33/239 10/61/240 46/79/241
f 6/28/242 13/43/243 14/29/244
f 4/25/245 14/29/246 7/19/247 38/18/248
f 35/54/249 60/60/250 1/36/251 53/56/252
f 33/34/253 60/60/254 35/54/255
f 6/28/256 4/25/257 17/50/258
