# This file uses centimeters as units for non-parametric coordinates.

v -10.818298 0.000000 16.896667
v -11.126282 0.000000 -16.863770
v 10.405273 0.000000 -16.540161
v 11.263702 0.000000 12.431213
v 5.608154 0.000000 16.194519
v 2.199158 0.000000 -16.263123
v 10.555481 0.000000 -12.090393
v -10.913940 0.000000 14.658997
v 11.081665 0.000000 8.172668
v -1.011780 0.482013 -16.621399
v 10.799408 0.482013 -9.881165
v -5.278625 0.000000 -16.863770
v 11.126282 0.000000 -7.582520
v -11.177551 0.506095 13.431152
v 10.923157 0.506095 7.547729
v -11.126282 0.000000 12.072815
v 11.126282 0.000000 6.048767
v 2.272827 1.000000 -16.399231
v 10.405273 1.000000 -16.540161
v 10.629150 1.000000 -12.226501
v -1.000732 1.522108 -16.647644
v 10.810455 1.522109 -9.907410
v -10.846436 1.000000 14.899719
v 11.149170 1.000000 8.413330
v -10.818298 1.000000 16.896667
v 5.608154 1.000000 16.194519
v 11.263702 1.000000 12.431213
v -5.341309 1.000000 -16.753296
v 11.063568 1.000000 -7.472107
v -11.126282 1.000000 -16.863770
v -11.173401 1.000000 11.897339
v 11.079163 1.000000 5.873291
v -11.155945 1.601248 13.499390
v 10.944763 1.601249 7.616028
vt 0.343524 0.314849
vt 0.343524 0.351571
vt 0.367752 0.351571
vt 0.367752 0.318679
vt 0.361425 0.314849
vt 0.358812 0.351571
vt 0.367752 0.346724
vt 0.343524 0.317287
vt 0.367752 0.323320
vt 0.354892 0.351571
vt 0.367752 0.344232
vt 0.349891 0.351571
vt 0.367752 0.341466
vt 0.343524 0.318500
vt 0.367752 0.324249
vt 0.343524 0.320065
vt 0.367752 0.326624
vt 0.367752 0.351571
vt 0.358812 0.351571
vt 0.367752 0.346724
vt 0.354892 0.351571
vt 0.367752 0.344232
vt 0.367752 0.323320
vt 0.343524 0.317287
vt 0.343524 0.314849
vt 0.361425 0.314849
vt 0.367752 0.318679
vt 0.349891 0.351571
vt 0.367752 0.341466
vt 0.343524 0.351571
vt 0.343524 0.320065
vt 0.367752 0.326624
vt 0.367752 0.324249
vt 0.343524 0.318500
vt 0.367752 0.351571
vt 0.358812 0.351571
vt 0.367752 0.346724
vt 0.354892 0.351571
vt 0.367752 0.344232
vt 0.343524 0.317287
vt 0.343524 0.314849
vt 0.361425 0.314849
vt 0.367752 0.318679
vt 0.367752 0.323320
vt 0.349891 0.351571
vt 0.367752 0.341466
vt 0.343524 0.351571
vt 0.343524 0.320065
vt 0.367752 0.326624
vt 0.343524 0.318500
vt 0.367752 0.324249
vn 0.000000 1.000000 0.000000
vn 0.000000 1.000000 0.000000
vn 0.000000 1.000000 0.000000
vn 0.143859 0.953219 -0.265856
vn 0.143859 0.953219 -0.265856
vn 0.143859 0.953219 -0.265856
vn 0.143859 0.953219 -0.265856
vn 0.000000 1.000000 0.000000
vn 0.000000 1.000000 0.000000
vn 0.000000 1.000000 0.000000
vn 0.000000 1.000000 0.000000
vn 0.000000 1.000000 0.000000
vn 0.000000 1.000000 0.000000
vn 0.000000 1.000000 0.000000
vn -0.123446 0.968243 0.217407
vn -0.123446 0.968243 0.217407
vn -0.123446 0.968243 0.217407
vn -0.123446 0.968243 0.217407
vn 0.000000 1.000000 0.000000
vn 0.000000 1.000000 0.000000
vn 0.000000 1.000000 0.000000
vn 0.000000 1.000000 0.000000
vn 0.000000 1.000000 0.000000
vn 0.000000 1.000000 0.000000
vn 0.000000 1.000000 0.000000
vn 0.127098 0.882361 0.453084
vn 0.127098 0.882361 0.453084
vn 0.127098 0.882361 0.453084
vn 0.127098 0.882361 0.453084
vn -0.091206 0.936092 -0.339726
vn -0.091206 0.936092 -0.339726
vn -0.091206 0.936092 -0.339726
vn -0.091206 0.936092 -0.339726
vn 0.000000 -1.000000 0.000000
vn 0.000000 -1.000000 0.000000
vn 0.000000 -1.000000 0.000000
vn -0.143859 -0.953219 0.265856
vn -0.143859 -0.953219 0.265856
vn -0.143859 -0.953219 0.265856
vn -0.143859 -0.953219 0.265856
vn -0.000000 -1.000000 -0.000000
vn -0.000000 -1.000000 -0.000000
vn -0.000000 -1.000000 -0.000000
vn -0.000000 -1.000000 -0.000000
vn -0.000000 -1.000000 -0.000000
vn -0.000000 -1.000000 -0.000000
vn -0.000000 -1.000000 -0.000000
vn 0.123446 -0.968243 -0.217407
vn 0.123446 -0.968243 -0.217407
vn 0.123446 -0.968243 -0.217407
vn 0.123446 -0.968243 -0.217407
vn 0.000000 -1.000000 0.000000
vn 0.000000 -1.000000 0.000000
vn 0.000000 -1.000000 0.000000
vn 0.000000 -1.000000 0.000000
vn 0.000000 -1.000000 0.000000
vn 0.000000 -1.000000 0.000000
vn 0.000000 -1.000000 0.000000
vn -0.127098 -0.882361 -0.453084
vn -0.127098 -0.882361 -0.453084
vn -0.127098 -0.882361 -0.453084
vn -0.127098 -0.882361 -0.453084
vn 0.091206 -0.936092 0.339726
vn 0.091206 -0.936092 0.339726
vn 0.091206 -0.936092 0.339726
vn 0.091206 -0.936092 0.339726
vn -0.025512 -0.066940 -0.997431
vn -0.025512 -0.066940 -0.997431
vn -0.025512 -0.066940 -0.997431
vn -0.025512 -0.066940 -0.997431
vn 0.998304 -0.039664 -0.042612
vn 0.998304 -0.039664 -0.042612
vn 0.998304 -0.039664 -0.042612
vn 0.998304 -0.039664 -0.042612
vn 0.080171 -0.082371 -0.993372
vn 0.080171 -0.082371 -0.993372
vn 0.080171 -0.082371 -0.993372
vn 0.080171 -0.082371 -0.993372
vn 0.995409 -0.047922 -0.082850
vn 0.995409 -0.047922 -0.082850
vn 0.995409 -0.047922 -0.082850
vn 0.995409 -0.047922 -0.082850
vn -0.999117 0.030215 0.029205
vn -0.999117 0.030215 0.029205
vn -0.999117 0.030215 0.029205
vn -0.999117 0.030215 0.029205
vn 0.042706 0.000000 0.999088
vn 0.042706 0.000000 0.999088
vn 0.042706 0.000000 0.999088
vn 0.042706 0.000000 0.999088
vn 0.553984 0.000000 0.832527
vn 0.553984 0.000000 0.832527
vn 0.553984 0.000000 0.832527
vn 0.553984 0.000000 0.832527
vn 0.998926 -0.029416 -0.035792
vn 0.998926 -0.029416 -0.035792
vn 0.998926 -0.029416 -0.035792
vn 0.998926 -0.029416 -0.035792
vn 0.035462 0.042126 -0.998483
vn 0.035462 0.042126 -0.998483
vn 0.035462 0.042126 -0.998483
vn 0.035462 0.042126 -0.998483
vn 0.992881 0.029906 -0.115298
vn 0.992881 0.029906 -0.115298
vn 0.992881 0.029906 -0.115298
vn 0.992881 0.029906 -0.115298
vn 0.009481 0.055439 -0.998417
vn 0.009481 0.055439 -0.998417
vn 0.009481 0.055439 -0.998417
vn 0.009481 0.055439 -0.998417
vn -0.999721 -0.023619 -0.000816
vn -0.999721 -0.023619 -0.000816
vn -0.999721 -0.023619 -0.000816
vn -0.999721 -0.023619 -0.000816
vn 0.998497 0.054812 -0.000578
vn 0.998497 0.054812 -0.000578
vn 0.998497 0.054812 -0.000578
vn 0.998497 0.054812 -0.000578
vn -0.976151 0.009547 0.216882
vn -0.976151 0.009547 0.216882
vn -0.976151 0.009547 0.216882
vn -0.976151 0.009547 0.216882
vn 0.968142 -0.004267 -0.250366
vn 0.968142 -0.004267 -0.250366
vn 0.968142 -0.004267 -0.250366
vn 0.968142 -0.004267 -0.250366
vn -0.999899 -0.012511 -0.006750
vn -0.999899 -0.012511 -0.006750
vn -0.999899 -0.012511 -0.006750
vn -0.999899 -0.012511 -0.006750
vn 0.995063 0.017109 0.097760
vn 0.995063 0.017109 0.097760
vn 0.995063 0.017109 0.097760
vn 0.995063 0.017109 0.097760
s off
f 19/35/1 18/36/2 20/37/3
f 20/37/4 18/36/5 21/38/6 22/39/7
f 24/44/8 23/40/9 27/43/10
f 26/42/11 27/43/12 23/40/13 25/41/14
f 22/39/15 21/38/16 28/45/17 29/46/18
f 30/47/19 31/48/20 32/49/21 28/45/22
f 29/46/23 28/45/24 32/49/25
f 34/51/26 33/50/27 23/40/28 24/44/29
f 32/49/30 31/48/31 33/50/32 34/51/33
f 3/18/34 7/20/35 6/19/36
f 7/20/37 11/22/38 10/21/39 6/19/40
f 9/23/41 4/27/42 8/24/43
f 8/24/44 4/27/45 5/26/46 1/25/47
f 11/22/48 13/29/49 12/28/50 10/21/51
f 17/32/52 16/31/53 2/30/54 12/28/55
f 13/29/56 17/32/57 12/28/58
f 15/33/59 9/23/60 8/24/61 14/34/62
f 17/32/63 15/33/64 14/34/65 16/31/66
f 3/3/67 6/6/68 18/36/69 19/35/70
f 7/7/71 3/3/72 19/35/73 20/37/74
f 6/6/75 10/10/76 21/38/77 18/36/78
f 11/11/79 7/7/80 20/37/81 22/39/82
f 8/8/83 1/1/84 25/41/85 23/40/86
f 1/1/87 5/5/88 26/42/89 25/41/90
f 5/5/91 4/4/92 27/43/93 26/42/94
f 4/4/95 9/9/96 24/44/97 27/43/98
f 10/10/99 12/12/100 28/45/101 21/38/102
f 13/13/103 11/11/104 22/39/105 29/46/106
f 12/12/107 2/2/108 30/47/109 28/45/110
f 2/2/111 16/16/112 31/48/113 30/47/114
f 17/17/115 13/13/116 29/46/117 32/49/118
f 14/14/119 8/8/120 23/40/121 33/50/122
f 9/9/123 15/15/124 34/51/125 24/44/126
f 16/16/127 14/14/128 33/50/129 31/48/130
f 15/15/131 17/17/132 32/49/133 34/51/134
