# This file uses centimeters as units for non-parametric coordinates.

v 114.415314 0.000000 -61.991997
v 100.600487 0.000000 -96.041290
v 68.051498 0.000000 -112.734550
v -65.928986 0.000000 -114.440102
v -99.168266 0.000000 -99.168205
v -114.440147 0.000000 -65.746994
v -114.440338 0.000000 65.746994
v -99.168396 0.000000 99.167915
v -65.928078 0.000000 114.440140
v 60.881992 0.000000 113.890518
v 94.602722 0.000000 99.712639
v 110.958168 0.000000 66.808243
v 64.138916 0.000000 64.886642
v 65.948845 0.000000 -64.086891
v -65.928703 0.000000 -65.747009
v -65.928284 0.000000 65.747017
v 0.000290 0.000000 114.440079
v 0.000198 0.000000 65.747040
v -0.000042 0.000000 -65.747040
v -0.000191 0.000000 -114.440125
v -112.671509 0.000000 0.000000
v -64.159760 0.000000 0.000004
v 0.000078 0.000000 0.000000
v 65.049843 0.000000 -0.454397
v 113.553207 0.000000 0.438192
v 65.928673 0.000000 48.511673
v 48.693264 0.000000 65.747063
v 111.424004 0.000000 18.866020
v 14.334231 0.000000 113.579636
v 65.259140 3.660973 57.156300
v 7.695064 3.660973 114.228531
v 56.807697 3.660973 65.535530
v 112.717094 3.660973 9.483536
v 0.000078 3.344006 0.000000
v -0.000042 3.344006 -65.747040
v -65.928703 3.344006 -65.747009
v -64.159760 3.344006 0.000004
v 0.000290 3.344006 114.440079
v 0.000198 3.344006 65.747040
v -65.928284 3.344006 65.747017
v -65.928078 3.344006 114.440140
v 64.138916 3.344006 64.886642
v 110.958168 3.344006 66.808243
v 94.602722 3.344006 99.712639
v 114.415314 3.344006 -61.991997
v 65.948845 3.344006 -64.086891
v 65.049843 3.344006 -0.454397
v 113.553207 3.344006 0.438192
v 100.600487 3.344006 -96.041290
v 68.051498 3.344006 -112.734550
v -65.928986 3.344006 -114.440102
v -0.000191 3.344006 -114.440125
v -99.168266 3.344006 -99.168205
v -114.440147 3.344006 -65.746994
v -112.671509 3.344006 0.000000
v -99.168396 3.344006 99.167915
v 60.881992 3.344006 113.890518
v -114.440338 3.344006 65.746994
v 14.334231 3.344006 113.579636
v 65.259140 7.004979 57.156300
v 56.807697 7.004979 65.535530
v 111.424004 3.344006 18.866020
v 65.928673 3.344006 48.511673
v 48.693264 3.344006 65.747063
v 112.717094 7.004979 9.483536
v 7.695064 7.004979 114.228531
vt 0.397216 0.216450
vt 0.397216 0.158234
vt 0.455592 0.158234
vt 0.455592 0.216450
vt 0.397216 0.115120
vt 0.397216 0.158235
vt 0.455592 0.158235
vt 0.455616 0.115128
vt 0.498550 0.158231
vt 0.455592 0.158235
vt 0.498644 0.115137
vt 0.498546 0.158234
vt 0.455592 0.158234
vt 0.455592 0.216450
vt 0.498546 0.216450
vt 0.498644 0.115137
vt 0.455617 0.115128
vt 0.455592 0.115120
vt 0.397216 0.115120
vt 0.498644 0.115137
vt 0.498550 0.158231
vt 0.498546 0.216450
vt 0.498644 0.115137
vt 0.455592 0.115120
vt 0.498546 0.158235
vt 0.455592 0.216450
vt 0.498546 0.216450
vt 0.397216 0.216450
vt 0.397216 0.158235
vt 0.397216 0.115120
vt 0.397216 0.216450
vt 0.455592 0.216450
vt 0.498546 0.216450
vt 0.397216 0.216450
vt 0.397216 0.158234
vt 0.397216 0.115120
vt 0.455590 0.158238
vt 0.498644 0.115137
vt 0.498644 0.115137
vt 0.455590 0.158237
vt 0.455590 0.158238
vt 0.498644 0.115137
vt 0.455590 0.158238
vt 0.498644 0.115137
vt 0.455592 0.115120
vt 0.455617 0.115128
vt 0.455592 0.115120
vt 0.455617 0.115128
vt 0.455592 0.158235
vt 0.455592 0.158235
vt 0.455592 0.158235
vt 0.455592 0.158235
vt 0.498546 0.158234
vt 0.498550 0.158231
vt 0.498546 0.158235
vt 0.498550 0.158231
vt 0.455592 0.173496
vt 0.440331 0.158235
vt 0.498546 0.199339
vt 0.411493 0.115120
vt 0.455592 0.165654
vt 0.404622 0.115120
vt 0.448109 0.158235
vt 0.498546 0.208241
vt 0.397216 0.216450
vt 0.397216 0.158234
vt 0.455592 0.158234
vt 0.455592 0.216450
vt 0.397216 0.115120
vt 0.397216 0.158235
vt 0.455592 0.158235
vt 0.455592 0.115120
vt 0.498550 0.158231
vt 0.455592 0.158235
vt 0.498644 0.115137
vt 0.498546 0.158234
vt 0.455592 0.158234
vt 0.455592 0.216450
vt 0.498546 0.216450
vt 0.455590 0.158238
vt 0.498644 0.115137
vt 0.455617 0.115128
vt 0.455592 0.115120
vt 0.397216 0.115120
vt 0.498644 0.115137
vt 0.455590 0.158237
vt 0.455617 0.115128
vt 0.498546 0.158234
vt 0.498546 0.216450
vt 0.455616 0.115128
vt 0.455590 0.158238
vt 0.498644 0.115137
vt 0.498644 0.115137
vt 0.455590 0.158238
vt 0.455617 0.115128
vt 0.498644 0.115137
vt 0.455592 0.158235
vt 0.498550 0.158231
vt 0.498550 0.158231
vt 0.455592 0.158235
vt 0.498644 0.115137
vt 0.498550 0.158231
vt 0.498644 0.115137
vt 0.455592 0.158235
vt 0.455592 0.115120
vt 0.455592 0.158235
vt 0.411493 0.115120
vt 0.397216 0.158234
vt 0.397216 0.216450
vt 0.397216 0.115120
vt 0.455592 0.115120
vt 0.455592 0.216450
vt 0.498546 0.216450
vt 0.498546 0.158235
vt 0.397216 0.216450
vt 0.455592 0.165654
vt 0.448109 0.158235
vt 0.498546 0.199339
vt 0.498546 0.158235
vt 0.498546 0.216450
vt 0.455592 0.216450
vt 0.455592 0.173496
vt 0.440331 0.158235
vt 0.397216 0.216450
vt 0.397216 0.158235
vt 0.397216 0.115120
vt 0.498546 0.208241
vt 0.404622 0.115120
vt 0.455592 0.115120
vt 0.397216 0.115120
vt 0.498644 0.115137
vt 0.498550 0.158231
vt 0.498546 0.216450
vt 0.498546 0.158234
vt 0.498644 0.115137
vt 0.455617 0.115128
vt 0.397216 0.115120
vt 0.455592 0.115120
vt 0.455617 0.115128
vt 0.498644 0.115137
vt 0.498546 0.158234
vt 0.498546 0.216450
vt 0.498644 0.115137
vt 0.455616 0.115128
vt 0.455617 0.115128
vt 0.498644 0.115137
vt 0.498550 0.158231
vt 0.498644 0.115137
vt 0.498644 0.115137
vt 0.498550 0.158231
vt 0.498550 0.158231
vt 0.498644 0.115137
vt 0.411493 0.115120
vt 0.455592 0.115120
vt 0.455592 0.115120
vt 0.397216 0.115120
vt 0.498546 0.216450
vt 0.498546 0.158235
vt 0.498546 0.158235
vt 0.498546 0.199339
vt 0.498546 0.208241
vt 0.498546 0.216450
vt 0.404622 0.115120
vt 0.397216 0.115120
vn 0.000000 1.000000 0.000000
vn 0.000000 1.000000 0.000000
vn 0.000000 1.000000 0.000000
vn 0.000000 1.000000 0.000000
vn 0.000000 1.000000 0.000000
vn 0.000000 1.000000 0.000000
vn 0.000000 1.000000 0.000000
vn 0.000000 1.000000 0.000000
vn 0.000000 1.000000 0.000000
vn 0.000000 1.000000 0.000000
vn 0.000000 1.000000 0.000000
vn 0.000000 1.000000 0.000000
vn 0.000000 1.000000 0.000000
vn 0.000000 1.000000 0.000000
vn 0.000000 1.000000 0.000000
vn 0.000000 1.000000 0.000000
vn 0.000000 1.000000 0.000000
vn 0.000000 1.000000 0.000000
vn 0.000000 1.000000 0.000000
vn 0.000000 1.000000 0.000000
vn 0.000000 1.000000 0.000000
vn 0.000000 1.000000 0.000000
vn 0.000000 1.000000 0.000000
vn 0.000000 1.000000 0.000000
vn 0.000000 1.000000 0.000000
vn 0.000000 1.000000 0.000000
vn 0.000000 1.000000 0.000000
vn 0.000000 1.000000 0.000000
vn 0.000000 1.000000 0.000000
vn 0.000000 1.000000 0.000000
vn 0.000000 1.000000 0.000000
vn 0.000000 1.000000 0.000000
vn 0.000000 1.000000 0.000000
vn 0.000000 1.000000 0.000000
vn 0.000000 1.000000 0.000000
vn 0.000000 1.000000 0.000000
vn 0.000000 1.000000 0.000000
vn 0.000000 1.000000 0.000000
vn 0.000000 1.000000 0.000000
vn 0.000000 1.000000 0.000000
vn 0.000000 1.000000 0.000000
vn 0.000000 1.000000 -0.000000
vn 0.000000 1.000000 -0.000000
vn 0.000000 1.000000 -0.000000
vn 0.000000 1.000000 0.000000
vn 0.000000 1.000000 0.000000
vn 0.000000 1.000000 0.000000
vn 0.000000 1.000000 -0.000000
vn 0.000000 1.000000 -0.000000
vn 0.000000 1.000000 -0.000000
vn 0.000000 1.000000 -0.000000
vn 0.000000 1.000000 0.000000
vn 0.000000 1.000000 0.000000
vn 0.000000 1.000000 0.000000
vn 0.000000 1.000000 0.000000
vn 0.000000 1.000000 0.000000
vn 0.000000 1.000000 0.000000
vn 0.000000 1.000000 0.000000
vn 0.000000 1.000000 0.000000
vn 0.000000 1.000000 -0.000000
vn 0.000000 1.000000 -0.000000
vn 0.000000 1.000000 -0.000000
vn 0.000000 1.000000 -0.000000
vn 0.432604 0.788966 0.436332
vn 0.432604 0.788966 0.436332
vn 0.432604 0.788966 0.436332
vn 0.000000 1.000000 -0.000000
vn 0.000000 1.000000 -0.000000
vn 0.000000 1.000000 -0.000000
vn 0.000000 1.000000 0.000000
vn 0.000000 1.000000 0.000000
vn 0.000000 1.000000 0.000000
vn 0.000000 1.000000 0.000000
vn 0.000000 1.000000 0.000000
vn 0.000000 1.000000 0.000000
vn 0.000000 1.000000 0.000000
vn 0.000000 1.000000 0.000000
vn 0.000000 1.000000 -0.000000
vn 0.000000 1.000000 -0.000000
vn 0.000000 1.000000 -0.000000
vn -0.383533 0.841331 -0.380874
vn -0.383533 0.841331 -0.380874
vn -0.383533 0.841331 -0.380874
vn -0.383533 0.841331 -0.380874
vn 0.446428 0.771419 0.453447
vn 0.446428 0.771419 0.453447
vn 0.446428 0.771419 0.453447
vn 0.446428 0.771419 0.453447
vn -0.385691 0.837642 -0.386779
vn -0.385691 0.837642 -0.386779
vn -0.385691 0.837642 -0.386779
vn -0.385691 0.837642 -0.386779
vn 0.402950 0.819514 0.407465
vn 0.402950 0.819514 0.407465
vn 0.402950 0.819514 0.407465
vn 0.402950 0.819514 0.407465
vn -0.394566 0.829031 -0.396266
vn -0.394566 0.829031 -0.396266
vn -0.394566 0.829031 -0.396266
vn -0.394566 0.829031 -0.396266
vn 0.000000 -1.000000 0.000000
vn 0.000000 -1.000000 0.000000
vn 0.000000 -1.000000 0.000000
vn 0.000000 -1.000000 0.000000
vn 0.000000 -1.000000 0.000000
vn 0.000000 -1.000000 0.000000
vn 0.000000 -1.000000 0.000000
vn 0.000000 -1.000000 0.000000
vn 0.000000 -1.000000 0.000000
vn 0.000000 -1.000000 0.000000
vn 0.000000 -1.000000 0.000000
vn 0.000000 -1.000000 0.000000
vn 0.000000 -1.000000 0.000000
vn 0.000000 -1.000000 0.000000
vn 0.000000 -1.000000 0.000000
vn 0.000000 -1.000000 0.000000
vn 0.000000 -1.000000 0.000000
vn 0.000000 -1.000000 0.000000
vn 0.000000 -1.000000 0.000000
vn 0.000000 -1.000000 0.000000
vn 0.000000 -1.000000 0.000000
vn 0.000000 -1.000000 0.000000
vn 0.000000 -1.000000 0.000000
vn 0.000000 -1.000000 0.000000
vn 0.000000 -1.000000 0.000000
vn 0.000000 -1.000000 0.000000
vn 0.000000 -1.000000 0.000000
vn 0.000000 -1.000000 0.000000
vn 0.000000 -1.000000 0.000000
vn 0.000000 -1.000000 0.000000
vn 0.000000 -1.000000 0.000000
vn 0.000000 -1.000000 0.000000
vn 0.000000 -1.000000 0.000000
vn 0.000000 -1.000000 0.000000
vn 0.000000 -1.000000 0.000000
vn 0.000000 -1.000000 0.000000
vn 0.000000 -1.000000 0.000000
vn 0.000000 -1.000000 0.000000
vn 0.000000 -1.000000 0.000000
vn 0.000000 -1.000000 0.000000
vn 0.000000 -1.000000 0.000000
vn 0.000000 -1.000000 0.000000
vn 0.000000 -1.000000 0.000000
vn 0.000000 -1.000000 0.000000
vn 0.000000 -1.000000 0.000000
vn 0.000000 -1.000000 0.000000
vn 0.000000 -1.000000 0.000000
vn 0.000000 -1.000000 0.000000
vn 0.000000 -1.000000 0.000000
vn 0.000000 -1.000000 0.000000
vn 0.000000 -1.000000 0.000000
vn 0.000000 -1.000000 0.000000
vn 0.000000 -1.000000 0.000000
vn 0.000000 -1.000000 0.000000
vn 0.000000 -1.000000 0.000000
vn 0.000000 -1.000000 0.000000
vn 0.000000 -1.000000 0.000000
vn 0.000000 -1.000000 0.000000
vn 0.000000 -1.000000 0.000000
vn 0.000000 -1.000000 0.000000
vn 0.000000 -1.000000 0.000000
vn 0.000000 -1.000000 0.000000
vn 0.000000 -1.000000 0.000000
vn -0.432604 -0.788966 -0.436332
vn -0.432604 -0.788966 -0.436332
vn -0.432604 -0.788966 -0.436332
vn 0.000000 -1.000000 0.000000
vn 0.000000 -1.000000 0.000000
vn 0.000000 -1.000000 0.000000
vn 0.000000 -1.000000 0.000000
vn 0.000000 -1.000000 0.000000
vn 0.000000 -1.000000 0.000000
vn 0.000000 -1.000000 0.000000
vn 0.000000 -1.000000 0.000000
vn 0.000000 -1.000000 0.000000
vn 0.000000 -1.000000 0.000000
vn 0.000000 -1.000000 0.000000
vn 0.000000 -1.000000 0.000000
vn 0.000000 -1.000000 0.000000
vn 0.000000 -1.000000 0.000000
vn 0.383533 -0.841331 0.380874
vn 0.383533 -0.841331 0.380874
vn 0.383533 -0.841331 0.380874
vn 0.383533 -0.841331 0.380874
vn -0.446428 -0.771419 -0.453447
vn -0.446428 -0.771419 -0.453447
vn -0.446428 -0.771419 -0.453447
vn -0.446428 -0.771419 -0.453447
vn 0.385691 -0.837642 0.386779
vn 0.385691 -0.837642 0.386779
vn 0.385691 -0.837642 0.386779
vn 0.385691 -0.837642 0.386779
vn -0.402950 -0.819514 -0.407465
vn -0.402950 -0.819514 -0.407465
vn -0.402950 -0.819514 -0.407465
vn -0.402950 -0.819514 -0.407465
vn 0.394566 -0.829031 0.396265
vn 0.394566 -0.829031 0.396265
vn 0.394566 -0.829031 0.396265
vn 0.394566 -0.829031 0.396265
vn 0.000001 0.000000 1.000000
vn 0.000001 0.000000 1.000000
vn 0.000001 0.000000 1.000000
vn 0.000001 0.000000 1.000000
vn 0.895478 0.000000 0.445106
vn 0.895478 0.000000 0.445106
vn 0.895478 0.000000 0.445106
vn 0.895478 0.000000 0.445106
vn 0.999905 0.000000 0.013808
vn 0.999905 0.000000 0.013808
vn 0.999905 0.000000 0.013808
vn 0.999905 0.000000 0.013808
vn 0.456348 0.000000 -0.889801
vn 0.456348 0.000000 -0.889801
vn 0.456348 0.000000 -0.889801
vn 0.456348 0.000000 -0.889801
vn -0.000000 0.000000 -1.000000
vn -0.000000 0.000000 -1.000000
vn -0.000000 0.000000 -1.000000
vn -0.000000 0.000000 -1.000000
vn -0.417495 0.000000 -0.908679
vn -0.417495 0.000000 -0.908679
vn -0.417495 0.000000 -0.908679
vn -0.417495 0.000000 -0.908679
vn -0.999638 0.000000 0.026891
vn -0.999638 0.000000 0.026891
vn -0.999638 0.000000 0.026891
vn -0.999638 0.000000 0.026891
vn -0.417492 0.000000 0.908680
vn -0.417492 0.000000 0.908680
vn -0.417492 0.000000 0.908680
vn -0.417492 0.000000 0.908680
vn 0.387585 0.000000 0.921834
vn 0.387585 0.000000 0.921834
vn 0.387585 0.000000 0.921834
vn 0.387585 0.000000 0.921834
vn -0.909538 0.000000 0.415620
vn -0.909538 0.000000 0.415620
vn -0.909538 0.000000 0.415620
vn -0.909538 0.000000 0.415620
vn -0.909540 0.000000 -0.415616
vn -0.909540 0.000000 -0.415616
vn -0.909540 0.000000 -0.415616
vn -0.909540 0.000000 -0.415616
vn 0.926634 0.000000 -0.375964
vn 0.926634 0.000000 -0.375964
vn 0.926634 0.000000 -0.375964
vn 0.926634 0.000000 -0.375964
vn -0.006679 0.000000 0.999978
vn -0.006679 0.000000 0.999978
vn -0.006679 0.000000 0.999978
vn -0.006679 0.000000 0.999978
vn 0.025055 0.000000 -0.999686
vn 0.025055 0.000000 -0.999686
vn 0.025055 0.000000 -0.999686
vn 0.025055 0.000000 -0.999686
vn -0.999638 0.000000 -0.026894
vn -0.999638 0.000000 -0.026894
vn -0.999638 0.000000 -0.026894
vn -0.999638 0.000000 -0.026894
vn 0.999953 0.000000 0.009716
vn 0.999953 0.000000 0.009716
vn 0.999953 0.000000 0.009716
vn 0.999953 0.000000 0.009716
vn 0.995755 0.000000 0.092043
vn 0.995755 0.000000 0.092043
vn 0.995755 0.000000 0.092043
vn 0.995755 0.000000 0.092043
vn 0.097273 0.000000 0.995258
vn 0.097273 0.000000 0.995258
vn 0.097273 0.000000 0.995258
vn 0.097273 0.000000 0.995258
vn 0.990636 0.000000 0.136529
vn 0.990636 0.000000 0.136529
vn 0.990636 0.000000 0.136529
vn 0.990636 0.000000 0.136529
vn 0.027482 0.000000 0.999622
vn 0.027482 0.000000 0.999622
vn 0.027482 0.000000 0.999622
vn 0.027482 0.000000 0.999622
s off
f 34/31/1 35/2/2 36/3/3 37/32/4
f 38/130/5 39/29/6 40/7/7 41/129/8
f 43/132/9 42/52/10 44/131/11
f 45/134/12 46/13/13 47/26/14 48/133/15
f 46/37/16 49/135/17 50/136/18
f 51/138/19 36/3/20 35/2/21 52/137/22
f 53/140/23 36/40/24 51/139/25
f 37/32/26 36/3/27 54/141/28 55/142/29
f 41/144/30 40/41/31 56/143/32
f 44/146/33 42/43/34 57/145/35
f 56/148/36 40/51/37 58/147/38
f 54/150/39 36/50/40 53/149/41
f 45/151/42 49/152/43 46/49/44
f 57/154/45 42/10/46 59/153/47
f 47/26/48 46/13/49 35/35/50 34/34/51
f 52/156/52 35/35/53 46/13/54 50/155/55
f 40/7/56 37/4/57 55/157/58 58/158/59
f 39/29/60 34/28/61 37/4/62 40/7/63
f 42/10/64 60/61/65 61/63/66
f 62/160/67 42/10/68 43/159/69
f 48/162/70 47/14/71 63/57/72
f 64/58/73 63/57/74 47/14/75 34/1/76 39/6/77
f 38/164/78 64/58/79 39/6/80
f 48/162/81 63/57/82 60/61/83 65/161/84
f 59/153/85 42/10/86 61/63/87 66/163/88
f 61/63/89 60/61/90 63/57/91 64/58/92
f 65/161/93 60/61/94 42/10/95 62/160/96
f 66/163/97 61/63/98 64/58/99 38/164/100
f 23/65/101 22/68/102 15/67/103 19/66/104
f 17/69/105 9/72/106 16/71/107 18/70/108
f 12/73/109 11/75/110 13/74/111
f 1/76/112 25/79/113 24/78/114 14/77/115
f 14/80/116 3/82/117 2/81/118
f 4/83/119 20/84/120 19/66/121 15/67/122
f 5/85/123 4/87/124 15/86/125
f 22/68/126 21/89/127 6/88/128 15/67/129
f 9/90/130 8/92/131 16/91/132
f 11/93/133 10/95/134 13/94/135
f 8/96/136 7/98/137 16/97/138
f 6/99/139 5/101/140 15/100/141
f 1/102/142 14/104/143 2/103/144
f 10/105/145 29/107/146 13/106/147
f 24/78/148 23/109/149 19/108/150 14/77/151
f 20/110/152 3/111/153 14/77/154 19/108/155
f 16/71/156 7/114/157 21/113/158 22/112/159
f 18/70/160 16/71/161 22/112/162 23/115/163
f 13/106/164 32/117/165 30/116/166
f 28/118/167 12/119/168 13/106/169
f 25/120/170 26/122/171 24/121/172
f 27/123/173 18/125/174 23/124/175 24/121/176 26/122/177
f 17/126/178 18/125/179 27/123/180
f 25/120/181 33/127/182 30/116/183 26/122/184
f 29/107/185 31/128/186 32/117/187 13/106/188
f 32/117/189 27/123/190 26/122/191 30/116/192
f 33/127/193 28/118/194 13/106/195 30/116/196
f 31/128/197 17/126/198 27/123/199 32/117/200
f 9/45/201 17/5/202 38/130/203 41/129/204
f 11/44/205 12/9/206 43/132/207 44/131/208
f 25/27/209 1/12/210 45/134/211 48/133/212
f 2/38/213 3/17/214 50/136/215 49/135/216
f 20/36/217 4/18/218 51/138/219 52/137/220
f 4/46/221 5/20/222 53/140/223 51/139/224
f 6/53/225 21/22/226 55/142/227 54/141/228
f 8/42/229 9/8/230 41/144/231 56/143/232
f 10/48/233 11/11/234 44/146/235 57/145/236
f 7/56/237 8/23/238 56/148/239 58/147/240
f 5/39/241 6/21/242 54/150/243 53/149/244
f 1/54/245 2/16/246 49/152/247 45/151/248
f 29/60/249 10/24/250 57/154/251 59/153/252
f 3/47/253 20/19/254 52/156/255 50/155/256
f 21/33/257 7/25/258 58/158/259 55/157/260
f 12/55/261 28/59/262 62/160/263 43/159/264
f 33/64/265 25/15/266 48/162/267 65/161/268
f 31/62/269 29/60/270 59/153/271 66/163/272
f 28/59/273 33/64/274 65/161/275 62/160/276
f 17/30/277 31/62/278 66/163/279 38/164/280
