# This file uses centimeters as units for non-parametric coordinates.

v -9.770966 29.939758 -1.426758
v -9.770966 4.795147 5.310791
v 9.770966 29.939758 -1.426758
v 9.770966 4.795147 5.310791
v -10.935303 3.640974 6.995850
v 10.935303 3.640974 6.995850
v 10.935303 31.781929 -0.544556
v -10.935303 31.781929 -0.544556
v -14.507065 0.564388 7.820190
v 14.507080 0.564388 7.820190
v -14.507065 34.858421 -1.368896
v -14.507065 0.000302 5.714966
v 14.507080 0.000302 5.714966
v 14.507080 34.294342 -3.474121
v -14.507065 34.294342 -3.474121
v 12.265686 32.622025 -0.769653
v 14.507080 29.714317 0.009521
v 11.065857 34.858421 -1.368896
v 14.507080 34.534927 -2.576172
v -14.507065 16.476650 3.556519
v -13.218613 7.678242 5.914063
v -14.507065 7.283546 5.016846
v -4.727722 0.005211 -5.562500
v 4.727722 0.005211 -5.562500
v 2.956223 21.097340 0.089233
v -2.956223 21.097340 0.089233
v -4.727722 0.000000 -7.820190
v 4.727722 0.000000 -7.820190
v 2.956223 25.445496 -1.002075
v -2.956223 25.445496 -1.002075
vt 0.142168 0.143776
vt 0.142279 0.143760
vt 0.142282 0.143763
vt 0.142170 0.143779
vt 0.142164 0.143611
vt 0.142166 0.143612
vt 0.142282 0.143607
vt 0.142286 0.143607
vt 0.142306 0.143785
vt 0.142141 0.143811
vt 0.142313 0.143576
vt 0.142300 0.143780
vt 0.142138 0.143806
vt 0.142129 0.143578
vt 0.142307 0.143576
vt 0.142149 0.143595
vt 0.142137 0.143695
vt 0.142223 0.143578
vt 0.142131 0.143579
vt 0.142309 0.143688
vt 0.142298 0.143744
vt 0.142305 0.143740
vt 0.139779 0.133502
vt 0.139893 0.133500
vt 0.139888 0.133632
vt 0.139784 0.133649
vt 0.139884 0.133629
vt 0.139782 0.133645
vt 0.139777 0.133502
vt 0.139889 0.133500
vt 0.018020 0.009132
vt 0.988226 0.009132
vt 0.988226 0.990868
vt 0.018020 0.990868
vn 0.000000 0.258819 0.965926
vn 0.000000 0.258819 0.965926
vn 0.000000 0.258819 0.965926
vn 0.000000 0.258819 0.965926
vn 0.000000 0.825024 0.565097
vn 0.000000 0.825024 0.565097
vn 0.000000 0.825024 0.565097
vn 0.000000 0.825024 0.565097
vn -0.752154 0.170558 0.636533
vn -0.752154 0.170558 0.636533
vn -0.752154 0.170558 0.636533
vn -0.752154 0.170558 0.636533
vn 0.000000 -0.431931 0.901906
vn 0.000000 -0.431931 0.901906
vn 0.000000 -0.431931 0.901906
vn 0.000000 -0.431931 0.901906
vn 0.752154 0.170558 0.636533
vn 0.752154 0.170558 0.636533
vn 0.752154 0.170558 0.636533
vn 0.752154 0.170558 0.636533
vn 0.000000 0.258826 0.965924
vn 0.000000 0.258826 0.965924
vn 0.000000 0.258826 0.965924
vn 0.000000 0.258826 0.965924
vn 0.336175 0.407823 0.848921
vn 0.336175 0.407823 0.848921
vn 0.336175 0.407823 0.848921
vn -0.000005 0.258819 0.965926
vn -0.000005 0.258819 0.965926
vn -0.000005 0.258819 0.965926
vn -0.000005 0.258819 0.965926
vn 0.000000 -0.965926 0.258819
vn 0.000000 -0.965926 0.258819
vn 0.000000 -0.965926 0.258819
vn 0.000000 -0.965926 0.258819
vn -1.000000 0.000000 0.000000
vn -1.000000 0.000000 0.000000
vn -1.000000 0.000000 0.000000
vn 0.000000 -0.258819 -0.965926
vn 0.000000 -0.258819 -0.965926
vn 0.000000 -0.258819 -0.965926
vn 0.000000 -0.258819 -0.965926
vn 1.000000 0.000000 0.000000
vn 1.000000 0.000000 0.000000
vn 1.000000 0.000000 0.000000
vn 1.000000 0.000000 0.000000
vn 1.000000 0.000000 0.000000
vn -0.000000 0.965927 -0.258816
vn -0.000000 0.965927 -0.258816
vn -0.000000 0.965927 -0.258816
vn -0.000000 0.965927 -0.258816
vn -0.000000 0.965927 -0.258816
vn 0.000000 0.258826 0.965924
vn 0.000000 0.258826 0.965924
vn 0.000000 0.258826 0.965924
vn 0.000000 0.258826 0.965924
vn 0.000000 0.258826 0.965924
vn -0.000000 0.258819 0.965926
vn -0.000000 0.258819 0.965926
vn -0.000000 0.258819 0.965926
vn -0.000000 0.258819 0.965926
vn -0.000000 0.258819 0.965926
vn 0.293370 0.451879 0.842461
vn 0.293370 0.451879 0.842461
vn 0.293370 0.451879 0.842461
vn -0.592648 0.126362 0.795488
vn -0.592648 0.126362 0.795488
vn -0.592648 0.126362 0.795488
vn -1.000000 0.000000 0.000000
vn -1.000000 0.000000 0.000000
vn -1.000000 0.000000 0.000000
vn -0.605392 0.306473 0.734558
vn -0.605392 0.306473 0.734558
vn -0.605392 0.306473 0.734558
vn 0.000007 0.258819 0.965926
vn 0.000007 0.258819 0.965926
vn 0.000007 0.258819 0.965926
vn 0.000005 0.258818 0.965926
vn 0.000005 0.258818 0.965926
vn 0.000005 0.258818 0.965926
vn -1.000000 0.000000 0.000000
vn -1.000000 0.000000 0.000000
vn -1.000000 0.000000 0.000000
vn -1.000000 0.000000 0.000000
vn 0.000000 -0.258819 0.965926
vn 0.000000 -0.258819 0.965926
vn 0.000000 -0.258819 0.965926
vn 0.000000 -0.258819 0.965926
vn 0.000000 -0.999997 0.002308
vn 0.000000 -0.999997 0.002308
vn 0.000000 -0.999997 0.002308
vn 0.000000 -0.999997 0.002308
vn 0.995747 0.056259 0.072957
vn 0.995747 0.056259 0.072957
vn 0.995747 0.056259 0.072957
vn 0.995747 0.056259 0.072957
vn 0.000000 0.243421 0.969921
vn 0.000000 0.243421 0.969921
vn 0.000000 0.243421 0.969921
vn 0.000000 0.243421 0.969921
vn -0.995747 0.056259 0.072957
vn -0.995747 0.056259 0.072957
vn -0.995747 0.056259 0.072957
vn -0.995747 0.056259 0.072957
vn 0.000000 0.258819 -0.965926
vn 0.000000 0.258819 -0.965926
vn 0.000000 0.258819 -0.965926
vn 0.000000 0.258819 -0.965926
s off
f 2/31/1 4/32/2 3/33/3 1/34/4
f 4/1/5 2/2/6 5/3/7 6/4/8
f 3/5/9 4/1/10 6/4/11 7/6/12
f 1/7/13 3/5/14 7/6/15 8/8/16
f 2/2/17 1/7/18 8/8/19 5/3/20
f 6/4/21 5/3/22 9/9/23 10/10/24
f 16/16/25 19/19/26 18/18/27
f 21/21/28 8/8/29 11/11/30 20/20/31
f 10/10/32 9/9/33 12/12/34 13/13/35
f 12/12/36 22/22/37 15/15/38
f 13/13/39 12/12/40 15/15/41 14/14/42
f 19/19/43 17/17/44 10/10/45 13/13/46 14/14/47
f 11/11/48 18/18/49 19/19/50 14/14/51 15/15/52
f 8/8/53 7/6/54 16/16/55 18/18/56 11/11/57
f 7/6/58 6/4/59 10/10/60 17/17/61 16/16/62
f 17/17/63 19/19/64 16/16/65
f 22/22/66 21/21/67 20/20/68
f 9/9/69 22/22/70 12/12/71
f 9/9/72 21/21/73 22/22/74
f 5/3/75 21/21/76 9/9/77
f 5/3/78 8/8/79 21/21/80
f 15/15/81 22/22/82 20/20/83 11/11/84
f 25/23/85 26/24/86 23/25/87 24/26/88
f 24/26/89 23/25/90 27/27/91 28/28/92
f 25/23/93 24/26/94 28/28/95 29/29/96
f 26/24/97 25/23/98 29/29/99 30/30/100
f 23/25/101 26/24/102 30/30/103 27/27/104
f 28/28/105 27/27/106 30/30/107 29/29/108
