# This file uses centimeters as units for non-parametric coordinates.

v -11.126280 0.000000 16.863739
v 11.126282 0.000000 16.863739
v -11.126280 0.000000 -16.863770
v 11.126282 0.000000 -16.863770
v -11.126280 1.000000 -16.863770
v 11.126282 1.000000 -16.863770
v -11.126280 1.000000 16.863739
v 11.126282 1.000000 16.863739
vt 0.309554 0.353642
vt 0.309554 0.390364
vt 0.333783 0.353642
vt 0.333783 0.390364
vt 0.333783 0.390364
vt 0.309554 0.390364
vt 0.309554 0.353642
vt 0.333783 0.353642
vt 0.333783 0.390364
vt 0.309554 0.390364
vt 0.309554 0.353642
vt 0.333783 0.353642
vn 0.000000 1.000000 0.000000
vn 0.000000 1.000000 0.000000
vn 0.000000 1.000000 0.000000
vn 0.000000 1.000000 0.000000
vn 0.000000 -1.000000 0.000000
vn 0.000000 -1.000000 0.000000
vn 0.000000 -1.000000 0.000000
vn 0.000000 -1.000000 0.000000
vn 0.000000 0.000000 -1.000000
vn 0.000000 0.000000 -1.000000
vn 0.000000 0.000000 -1.000000
vn 0.000000 0.000000 -1.000000
vn -1.000000 0.000000 0.000000
vn -1.000000 0.000000 0.000000
vn -1.000000 0.000000 0.000000
vn -1.000000 0.000000 0.000000
vn 0.000000 0.000000 1.000000
vn 0.000000 0.000000 1.000000
vn 0.000000 0.000000 1.000000
vn 0.000000 0.000000 1.000000
vn 1.000000 0.000000 0.000000
vn 1.000000 0.000000 0.000000
vn 1.000000 0.000000 0.000000
vn 1.000000 0.000000 0.000000
s off
f 6/9/1 5/10/2 7/11/3 8/12/4
f 4/5/5 2/8/6 1/7/7 3/6/8
f 4/4/9 3/2/10 5/10/11 6/9/12
f 3/2/13 1/1/14 7/11/15 5/10/16
f 1/1/17 2/3/18 8/12/19 7/11/20
f 2/3/21 4/4/22 6/9/23 8/12/24
