# This file uses centimeters as units for non-parametric coordinates.

v 27.716377 0.000000 -11.480469
v 21.213203 0.000000 -21.213135
v 11.480507 0.000000 -27.716431
v 0.000008 0.000000 -30.000000
v -11.480492 0.000000 -27.716431
v -21.213203 0.000000 -21.213135
v -27.716393 0.000000 -11.480469
v -30.000008 0.000000 0.000000
v -27.716393 0.000000 11.480469
v -21.213219 0.000000 21.213135
v -11.480522 0.000000 27.716309
v -0.000008 0.000000 30.000000
v 11.480492 0.000000 27.716309
v 21.213188 0.000000 21.213135
v 27.716377 0.000000 11.480469
v 30.000008 0.000000 0.000000
v -0.000008 0.000000 0.000000
v 27.716377 1.041668 -11.480469
v 21.213203 1.041668 -21.213135
v -0.000008 1.041668 0.000000
v 11.480507 1.041668 -27.716431
v 0.000008 1.041668 -30.000000
v -11.480492 1.041668 -27.716431
v -21.213203 1.041668 -21.213135
v -27.716393 1.041668 -11.480469
v -30.000008 1.041668 0.000000
v -27.716393 1.041668 11.480469
v -21.213219 1.041668 21.213135
v -11.480522 1.041668 27.716309
v -0.000008 1.041668 30.000000
v 11.480492 1.041668 27.716309
v 21.213188 1.041668 21.213135
v 27.716377 1.041668 11.480469
v 30.000008 1.041668 0.000000
vt 0.632354 0.368812
vt 0.619079 0.368812
vt 0.619079 0.368812
vt 0.619079 0.368812
vt 0.619079 0.368812
vt 0.619079 0.368812
vt 0.619079 0.368812
vt 0.619079 0.368812
vt 0.619079 0.368812
vt 0.619079 0.368812
vt 0.619079 0.368812
vt 0.619079 0.368812
vt 0.619079 0.368812
vt 0.619079 0.368812
vt 0.619079 0.368812
vt 0.619079 0.368812
vt 0.619079 0.368812
vt 0.625717 0.321111
vt 0.625717 0.321111
vt 0.625717 0.321111
vt 0.625717 0.321111
vt 0.625717 0.321111
vt 0.625717 0.321111
vt 0.625717 0.321111
vt 0.625717 0.321111
vt 0.625717 0.321111
vt 0.625717 0.321111
vt 0.625717 0.321111
vt 0.625717 0.321111
vt 0.625717 0.321111
vt 0.625717 0.321111
vt 0.625717 0.321111
vt 0.625717 0.321111
vt 0.632354 0.368812
vt 0.632354 0.368812
vt 0.632354 0.368812
vt 0.632354 0.368812
vt 0.632354 0.368812
vt 0.632354 0.368812
vt 0.632354 0.368812
vt 0.632354 0.368812
vt 0.632354 0.368812
vt 0.632354 0.368812
vt 0.632354 0.368812
vt 0.632354 0.368812
vt 0.632354 0.368812
vt 0.632354 0.368812
vt 0.632354 0.368812
vt 0.632354 0.368812
vt 0.619079 0.368812
vt 0.625717 0.321111
vt 0.632354 0.368812
vt 0.619079 0.368812
vt 0.625717 0.321111
vt 0.632354 0.368812
vt 0.619079 0.368812
vt 0.625717 0.321111
vt 0.632354 0.368812
vt 0.619079 0.368812
vt 0.625717 0.321111
vt 0.632354 0.368812
vt 0.619079 0.368812
vt 0.625717 0.321111
vt 0.632354 0.368812
vt 0.619079 0.368812
vt 0.625717 0.321111
vt 0.632354 0.368812
vt 0.619079 0.368812
vt 0.625717 0.321111
vt 0.632354 0.368812
vt 0.619079 0.368812
vt 0.625717 0.321111
vt 0.632354 0.368812
vt 0.619079 0.368812
vt 0.625717 0.321111
vt 0.632354 0.368812
vt 0.619079 0.368812
vt 0.625717 0.321111
vt 0.632354 0.368812
vt 0.619079 0.368812
vt 0.625717 0.321111
vt 0.632354 0.368812
vt 0.619079 0.368812
vt 0.625717 0.321111
vt 0.632354 0.368812
vt 0.619079 0.368812
vt 0.625717 0.321111
vt 0.632354 0.368812
vt 0.619079 0.368812
vt 0.625717 0.321111
vt 0.632354 0.368812
vt 0.619079 0.368812
vt 0.625717 0.321111
vt 0.632354 0.368812
vt 0.619079 0.368812
vt 0.625717 0.321111
vt 0.632354 0.368812
vt 0.619079 0.368812
vt 0.632354 0.368812
vt 0.619079 0.368812
vt 0.632354 0.368812
vt 0.619079 0.368812
vt 0.632354 0.368812
vt 0.619079 0.368812
vt 0.632354 0.368812
vt 0.619079 0.368812
vt 0.632354 0.368812
vt 0.619079 0.368812
vt 0.632354 0.368812
vt 0.619079 0.368812
vt 0.632354 0.368812
vt 0.619079 0.368812
vt 0.632354 0.368812
vt 0.619079 0.368812
vt 0.632354 0.368812
vt 0.619079 0.368812
vt 0.632354 0.368812
vt 0.619079 0.368812
vt 0.632354 0.368812
vt 0.619079 0.368812
vt 0.632354 0.368812
vt 0.619079 0.368812
vt 0.632354 0.368812
vt 0.619079 0.368812
vt 0.632354 0.368812
vt 0.619079 0.368812
vt 0.632354 0.368812
vt 0.619079 0.368812
vn 0.000000 1.000000 0.000000
vn 0.000000 1.000000 0.000000
vn 0.000000 1.000000 0.000000
vn 0.000000 1.000000 0.000000
vn 0.000000 1.000000 0.000000
vn 0.000000 1.000000 0.000000
vn 0.000000 1.000000 0.000000
vn 0.000000 1.000000 0.000000
vn 0.000000 1.000000 0.000000
vn 0.000000 1.000000 0.000000
vn 0.000000 1.000000 0.000000
vn 0.000000 1.000000 0.000000
vn 0.000000 1.000000 0.000000
vn 0.000000 1.000000 0.000000
vn 0.000000 1.000000 0.000000
vn 0.000000 1.000000 0.000000
vn 0.000000 1.000000 0.000000
vn 0.000000 1.000000 0.000000
vn 0.000000 1.000000 0.000000
vn 0.000000 1.000000 0.000000
vn 0.000000 1.000000 0.000000
vn 0.000000 1.000000 0.000000
vn 0.000000 1.000000 0.000000
vn 0.000000 1.000000 0.000000
vn 0.000000 1.000000 0.000000
vn 0.000000 1.000000 0.000000
vn 0.000000 1.000000 0.000000
vn 0.000000 1.000000 0.000000
vn 0.000000 1.000000 0.000000
vn 0.000000 1.000000 0.000000
vn 0.000000 1.000000 0.000000
vn 0.000000 1.000000 0.000000
vn 0.000000 1.000000 0.000000
vn 0.000000 1.000000 0.000000
vn 0.000000 1.000000 0.000000
vn 0.000000 1.000000 0.000000
vn 0.000000 1.000000 -0.000000
vn 0.000000 1.000000 -0.000000
vn 0.000000 1.000000 -0.000000
vn 0.000000 1.000000 0.000000
vn 0.000000 1.000000 0.000000
vn 0.000000 1.000000 0.000000
vn 0.000000 1.000000 0.000000
vn 0.000000 1.000000 0.000000
vn 0.000000 1.000000 0.000000
vn 0.000000 1.000000 0.000000
vn 0.000000 1.000000 0.000000
vn 0.000000 1.000000 0.000000
vn -0.000000 -1.000000 0.000000
vn -0.000000 -1.000000 0.000000
vn -0.000000 -1.000000 0.000000
vn -0.000000 -1.000000 0.000000
vn -0.000000 -1.000000 0.000000
vn -0.000000 -1.000000 0.000000
vn -0.000000 -1.000000 0.000000
vn -0.000000 -1.000000 0.000000
vn -0.000000 -1.000000 0.000000
vn 0.000000 -1.000000 0.000000
vn 0.000000 -1.000000 0.000000
vn 0.000000 -1.000000 0.000000
vn 0.000000 -1.000000 0.000000
vn 0.000000 -1.000000 0.000000
vn 0.000000 -1.000000 0.000000
vn 0.000000 -1.000000 0.000000
vn 0.000000 -1.000000 0.000000
vn 0.000000 -1.000000 0.000000
vn 0.000000 -1.000000 0.000000
vn 0.000000 -1.000000 0.000000
vn 0.000000 -1.000000 0.000000
vn 0.000000 -1.000000 -0.000000
vn 0.000000 -1.000000 -0.000000
vn 0.000000 -1.000000 -0.000000
vn 0.000000 -1.000000 -0.000000
vn 0.000000 -1.000000 -0.000000
vn 0.000000 -1.000000 -0.000000
vn 0.000000 -1.000000 -0.000000
vn 0.000000 -1.000000 -0.000000
vn 0.000000 -1.000000 -0.000000
vn 0.000000 -1.000000 -0.000000
vn 0.000000 -1.000000 -0.000000
vn 0.000000 -1.000000 -0.000000
vn -0.000000 -1.000000 -0.000000
vn -0.000000 -1.000000 -0.000000
vn -0.000000 -1.000000 -0.000000
vn -0.000000 -1.000000 -0.000000
vn -0.000000 -1.000000 -0.000000
vn -0.000000 -1.000000 -0.000000
vn -0.000000 -1.000000 -0.000000
vn -0.000000 -1.000000 -0.000000
vn -0.000000 -1.000000 -0.000000
vn -0.000000 -1.000000 -0.000000
vn -0.000000 -1.000000 -0.000000
vn -0.000000 -1.000000 -0.000000
vn -0.000000 -1.000000 0.000000
vn -0.000000 -1.000000 0.000000
vn -0.000000 -1.000000 0.000000
vn 0.831469 0.000000 -0.555571
vn 0.831469 0.000000 -0.555571
vn 0.831469 0.000000 -0.555571
vn 0.831469 0.000000 -0.555571
vn 0.555577 0.000000 -0.831465
vn 0.555577 0.000000 -0.831465
vn 0.555577 0.000000 -0.831465
vn 0.555577 0.000000 -0.831465
vn 0.195087 0.000000 -0.980786
vn 0.195087 0.000000 -0.980786
vn 0.195087 0.000000 -0.980786
vn 0.195087 0.000000 -0.980786
vn -0.195087 0.000000 -0.980786
vn -0.195087 0.000000 -0.980786
vn -0.195087 0.000000 -0.980786
vn -0.195087 0.000000 -0.980786
vn -0.555576 0.000000 -0.831465
vn -0.555576 0.000000 -0.831465
vn -0.555576 0.000000 -0.831465
vn -0.555576 0.000000 -0.831465
vn -0.831468 0.000000 -0.555572
vn -0.831468 0.000000 -0.555572
vn -0.831468 0.000000 -0.555572
vn -0.831468 0.000000 -0.555572
vn -0.980785 0.000000 -0.195091
vn -0.980785 0.000000 -0.195091
vn -0.980785 0.000000 -0.195091
vn -0.980785 0.000000 -0.195091
vn -0.980785 0.000000 0.195091
vn -0.980785 0.000000 0.195091
vn -0.980785 0.000000 0.195091
vn -0.980785 0.000000 0.195091
vn -0.831469 0.000000 0.555571
vn -0.831469 0.000000 0.555571
vn -0.831469 0.000000 0.555571
vn -0.831469 0.000000 0.555571
vn -0.555570 0.000000 0.831470
vn -0.555570 0.000000 0.831470
vn -0.555570 0.000000 0.831470
vn -0.555570 0.000000 0.831470
vn -0.195097 0.000000 0.980784
vn -0.195097 0.000000 0.980784
vn -0.195097 0.000000 0.980784
vn -0.195097 0.000000 0.980784
vn 0.195097 0.000000 0.980784
vn 0.195097 0.000000 0.980784
vn 0.195097 0.000000 0.980784
vn 0.195097 0.000000 0.980784
vn 0.555570 0.000000 0.831470
vn 0.555570 0.000000 0.831470
vn 0.555570 0.000000 0.831470
vn 0.555570 0.000000 0.831470
vn 0.831468 0.000000 0.555572
vn 0.831468 0.000000 0.555572
vn 0.831468 0.000000 0.555572
vn 0.831468 0.000000 0.555572
vn 0.980785 0.000000 0.195092
vn 0.980785 0.000000 0.195092
vn 0.980785 0.000000 0.195092
vn 0.980785 0.000000 0.195092
vn 0.980785 0.000000 -0.195092
vn 0.980785 0.000000 -0.195092
vn 0.980785 0.000000 -0.195092
vn 0.980785 0.000000 -0.195092
s off
f 18/97/1 19/98/2 20/18/3
f 19/99/4 21/100/5 20/19/6
f 21/101/7 22/102/8 20/20/9
f 22/103/10 23/104/11 20/21/12
f 23/105/13 24/106/14 20/22/15
f 24/107/16 25/108/17 20/23/18
f 25/109/19 26/110/20 20/24/21
f 26/111/22 27/112/23 20/25/24
f 27/113/25 28/114/26 20/26/27
f 28/115/28 29/116/29 20/27/30
f 29/117/31 30/118/32 20/28/33
f 30/119/34 31/120/35 20/29/36
f 31/121/37 32/122/38 20/30/39
f 32/123/40 33/124/41 20/31/42
f 33/125/43 34/126/44 20/32/45
f 34/127/46 18/128/47 20/33/48
f 1/49/49 17/51/50 2/50/51
f 2/52/52 17/54/53 3/53/54
f 3/55/55 17/57/56 4/56/57
f 4/58/58 17/60/59 5/59/60
f 5/61/61 17/63/62 6/62/63
f 6/64/64 17/66/65 7/65/66
f 7/67/67 17/69/68 8/68/69
f 8/70/70 17/72/71 9/71/72
f 9/73/73 17/75/74 10/74/75
f 10/76/76 17/78/77 11/77/78
f 11/79/79 17/81/80 12/80/81
f 12/82/82 17/84/83 13/83/84
f 13/85/85 17/87/86 14/86/87
f 14/88/88 17/90/89 15/89/90
f 15/91/91 17/93/92 16/92/93
f 16/94/94 17/96/95 1/95/96
f 1/1/97 2/2/98 19/98/99 18/97/100
f 2/48/101 3/3/102 21/100/103 19/99/104
f 3/47/105 4/4/106 22/102/107 21/101/108
f 4/46/109 5/5/110 23/104/111 22/103/112
f 5/45/113 6/6/114 24/106/115 23/105/116
f 6/44/117 7/7/118 25/108/119 24/107/120
f 7/43/121 8/8/122 26/110/123 25/109/124
f 8/42/125 9/9/126 27/112/127 26/111/128
f 9/41/129 10/10/130 28/114/131 27/113/132
f 10/40/133 11/11/134 29/116/135 28/115/136
f 11/39/137 12/12/138 30/118/139 29/117/140
f 12/38/141 13/13/142 31/120/143 30/119/144
f 13/37/145 14/14/146 32/122/147 31/121/148
f 14/36/149 15/15/150 33/124/151 32/123/152
f 15/35/153 16/16/154 34/126/155 33/125/156
f 16/34/157 1/17/158 18/128/159 34/127/160
