# This file uses centimeters as units for non-parametric coordinates.

v -11.126282 0.000000 16.863741
v 11.126282 0.000000 16.863741
v -11.126282 16.218639 16.863741
v 11.126282 16.218639 16.863741
v -11.126282 16.218639 -16.863766
v 11.126282 16.218639 -16.863766
v -11.126282 0.000000 -16.863766
v 11.126282 0.000000 -16.863766
v -10.553314 9.983023 16.966114
v 11.174286 13.885047 17.349913
v -10.855695 7.519746 -16.971115
v 11.880728 10.900340 -17.412880
v -10.358624 6.258005 17.022873
v 11.863372 3.541562 17.750139
v -10.369087 3.579994 -17.362614
v 10.326438 3.337668 -17.475933
v 4.595831 0.000000 16.863741
v 4.602231 16.012838 16.448269
v -5.488208 16.550528 -16.866629
v -5.865860 0.000000 -16.863766
v 4.610255 11.687822 16.825272
v -4.804360 8.408886 -16.183323
v 4.084362 3.826232 16.682344
v -5.115812 3.484161 -16.995768
v -5.280548 4.402104 19.434690
v 15.422634 4.187705 12.756699
v -15.576717 3.764650 -12.425389
v 5.456422 4.369900 -19.570236
v -15.814363 4.794621 -12.432917
v -5.280548 5.459163 19.434690
v 5.456422 5.426958 -19.570236
v 15.821226 5.159840 12.640715
v -9.844205 4.706371 -14.516481
v -9.716483 4.706371 6.072205
v -9.730152 5.763430 6.030595
v -9.857588 5.763430 -14.512085
v 6.315051 4.706371 -16.426220
v 6.342596 5.763430 -16.342369
v -4.865099 4.706371 -16.152182
v -5.143127 5.763430 -16.060848
v 10.594730 4.706371 14.269894
v 10.701687 5.763430 14.234759
v 10.441874 4.706371 -3.864105
v 10.551950 5.763430 -3.529030
v 3.599169 4.706371 16.568029
v 3.385411 5.763430 16.638252
v -6.305157 4.706371 16.456333
v -6.281207 5.763430 16.529240
v -16.607670 10.837273 5.219810
v -1.612525 10.453906 -21.121725
v 16.620178 11.272942 -11.788000
v -1.911753 11.355656 -21.585062
v -16.836098 11.867743 5.162178
v 16.973015 12.268291 -11.741587
v -10.697248 12.637368 -7.029036
v -10.647181 12.637368 9.174399
v -10.703664 13.694427 -7.017445
v -10.653644 13.694427 9.170822
v 9.182086 12.637368 -16.745853
v -5.344043 12.637367 -16.287727
v -5.353262 13.694427 -16.271063
v 9.211977 13.694427 -16.729311
v 11.025043 12.637368 -0.323810
v 10.874402 13.694427 -0.051623
v 10.850397 12.637367 -15.822525
v 10.695723 13.694427 -15.908131
v -16.149288 0.618636 11.884724
v 4.490661 0.951507 19.698067
v -4.490652 1.240221 -19.698092
v 15.979764 0.403665 -11.908033
v -4.490652 2.297280 -19.698092
v -16.452518 1.628870 11.815070
v 16.282106 1.414706 -11.846729
v 4.490661 2.008565 19.698067
v 3.391659 1.521913 -16.739510
v -5.642400 1.521913 -16.629581
v -5.631851 2.578972 -16.657684
v 3.319471 2.578972 -16.766607
v 10.397953 1.521913 3.959742
v 10.340006 2.578972 4.114126
v 10.126575 1.521913 -14.211599
v 10.065981 2.578972 -14.234345
v -4.689683 1.521913 16.252281
v -4.938252 2.578972 16.158979
v 5.697873 1.521913 16.481789
v 5.730560 2.578972 16.394703
v -10.564934 1.521913 14.047041
v -10.422951 2.578972 14.100333
v -10.254691 1.521913 -4.341420
v -10.105083 2.578972 -4.740006
v -12.414639 6.622233 21.925537
v 9.729847 8.070423 19.873980
v -15.916464 7.276582 -10.071767
v -16.293470 8.264080 -10.081078
v -12.364337 7.310645 22.726122
v 9.780149 8.758835 20.674562
v -13.250988 8.532196 16.678951
v 9.318666 9.212668 16.677441
v -13.254205 9.589254 16.655346
v 9.315449 10.269727 16.653839
v -10.073328 9.212667 -10.921524
v -10.575638 7.347416 21.806055
v -10.113096 10.269727 -10.916105
v -10.565275 8.034445 22.610338
v -10.465763 10.269727 16.736464
v -10.426386 9.212668 16.761375
vt 0.305050 0.359236
vt 0.304264 0.359221
vt 0.304219 0.358450
vt 0.305016 0.358463
vt 0.304429 0.358258
vt 0.305188 0.358270
vt 0.304470 0.358995
vt 0.305219 0.359009
vt 0.305029 0.358755
vt 0.304227 0.358593
vt 0.305204 0.358648
vt 0.304442 0.358494
vt 0.305038 0.358973
vt 0.304253 0.359028
vt 0.305210 0.358801
vt 0.304462 0.358855
vt 0.304495 0.359225
vt 0.304442 0.358453
vt 0.304999 0.358268
vt 0.305042 0.359006
vt 0.304455 0.358639
vt 0.305018 0.358611
vt 0.304481 0.359012
vt 0.305031 0.358814
vt 0.275482 0.353642
vt 0.292607 0.354094
vt 0.281620 0.390368
vt 0.275482 0.390364
vt 0.299710 0.353642
vt 0.299710 0.390364
vt 0.305050 0.359236
vt 0.304727 0.359230
vt 0.305066 0.359215
vt 0.305050 0.359236
vt 0.305066 0.359215
vt 0.304719 0.359230
vt 0.305050 0.359236
vt 0.304719 0.359230
vt 0.305066 0.359215
vt 0.305219 0.359009
vt 0.305007 0.359005
vt 0.305006 0.359005
vt 0.305219 0.359009
vt 0.304470 0.358995
vt 0.304470 0.358995
vt 0.304449 0.359017
vt 0.304450 0.359017
vt 0.305121 0.359141
vt 0.305006 0.359005
vt 0.305121 0.359141
vt 0.305219 0.359009
vt 0.305121 0.359141
vt 0.304840 0.359002
vt 0.304450 0.359017
vt 0.304830 0.359002
vt 0.304470 0.358995
vt 0.304830 0.359002
vt 0.304367 0.359107
vt 0.304455 0.359224
vt 0.304264 0.359221
vt 0.304459 0.359224
vt 0.304370 0.359105
vt 0.304264 0.359221
vt 0.304459 0.359224
vt 0.304264 0.359221
vt 0.304370 0.359105
vt 0.304127 0.371244
vt 0.303848 0.371238
vt 0.304200 0.371144
vt 0.304127 0.371244
vt 0.304201 0.371144
vt 0.303848 0.371238
vt 0.304127 0.371244
vt 0.303848 0.371238
vt 0.304201 0.371144
vt 0.304295 0.371017
vt 0.303867 0.371009
vt 0.303868 0.371009
vt 0.304295 0.371017
vt 0.303546 0.371003
vt 0.303546 0.371003
vt 0.303458 0.371099
vt 0.303460 0.371097
vt 0.304258 0.371067
vt 0.303868 0.371009
vt 0.304258 0.371066
vt 0.304295 0.371017
vt 0.304258 0.371066
vt 0.303810 0.371008
vt 0.303460 0.371097
vt 0.303804 0.371007
vt 0.303546 0.371003
vt 0.303804 0.371007
vt 0.304229 0.373091
vt 0.304006 0.373087
vt 0.304318 0.372972
vt 0.304229 0.373091
vt 0.304316 0.372974
vt 0.304011 0.373087
vt 0.304229 0.373091
vt 0.304011 0.373087
vt 0.304316 0.372974
vt 0.304398 0.372864
vt 0.304117 0.372859
vt 0.304114 0.372859
vt 0.304398 0.372864
vt 0.303649 0.372850
vt 0.303649 0.372850
vt 0.303545 0.372964
vt 0.303546 0.372963
vt 0.304381 0.372886
vt 0.304114 0.372859
vt 0.304381 0.372886
vt 0.304398 0.372864
vt 0.304381 0.372886
vt 0.303874 0.372854
vt 0.303546 0.372963
vt 0.303872 0.372854
vt 0.303649 0.372850
vt 0.303872 0.372854
vt 0.303465 0.373052
vt 0.303799 0.373082
vt 0.303443 0.373075
vt 0.303790 0.373082
vt 0.303464 0.373052
vt 0.303443 0.373075
vt 0.303790 0.373082
vt 0.303443 0.373075
vt 0.303464 0.373052
vt 0.313671 0.370525
vt 0.313627 0.370524
vt 0.313625 0.370481
vt 0.313705 0.370480
vt 0.313671 0.370525
vt 0.313705 0.370480
vt 0.313624 0.370481
vt 0.313625 0.370524
vt 0.313671 0.370525
vt 0.313625 0.370524
vt 0.313705 0.370480
vt 0.313839 0.370298
vt 0.313628 0.370294
vt 0.313626 0.370294
vt 0.313839 0.370298
vt 0.312903 0.370490
vt 0.312903 0.370490
vt 0.312885 0.370510
vt 0.312885 0.370510
vt 0.312903 0.370490
vt 0.312885 0.370510
vt 0.313626 0.370294
vt 0.313839 0.370298
vn 0.011443 0.001917 0.999933
vn 0.011443 0.001917 0.999933
vn 0.011443 0.001917 0.999933
vn 0.011443 0.001917 0.999933
vn -0.005727 0.999944 0.008882
vn -0.005727 0.999944 0.008882
vn -0.005727 0.999944 0.008882
vn -0.005727 0.999944 0.008882
vn 0.070099 -0.030128 -0.997085
vn 0.070099 -0.030128 -0.997085
vn 0.070099 -0.030128 -0.997085
vn 0.070099 -0.030128 -0.997085
vn 0.000000 -1.000000 0.000000
vn 0.000000 -1.000000 0.000000
vn 0.000000 -1.000000 0.000000
vn 0.000000 -1.000000 0.000000
vn 0.999701 0.010009 -0.022312
vn 0.999701 0.010009 -0.022312
vn 0.999701 0.010009 -0.022312
vn 0.999701 0.010009 -0.022312
vn -0.988214 0.152967 -0.005862
vn -0.988214 0.152967 -0.005862
vn -0.988214 0.152967 -0.005862
vn -0.988214 0.152967 -0.005862
vn 0.015745 0.046205 0.998808
vn 0.015745 0.046205 0.998808
vn 0.015745 0.046205 0.998808
vn 0.015745 0.046205 0.998808
vn 0.091233 0.135790 -0.986528
vn 0.091233 0.135790 -0.986528
vn 0.091233 0.135790 -0.986528
vn 0.091233 0.135790 -0.986528
vn 0.994535 0.104250 0.005715
vn 0.994535 0.104250 0.005715
vn 0.994535 0.104250 0.005715
vn 0.994535 0.104250 0.005715
vn -0.998387 -0.056394 0.006515
vn -0.998387 -0.056394 0.006515
vn -0.998387 -0.056394 0.006515
vn -0.998387 -0.056394 0.006515
vn 0.016063 -0.007895 0.999840
vn 0.016063 -0.007895 0.999840
vn 0.016063 -0.007895 0.999840
vn 0.016063 -0.007895 0.999840
vn 0.998779 -0.048442 -0.009645
vn 0.998779 -0.048442 -0.009645
vn 0.998779 -0.048442 -0.009645
vn 0.998779 -0.048442 -0.009645
vn -0.995966 -0.089020 0.011259
vn -0.995966 -0.089020 0.011259
vn -0.995966 -0.089020 0.011259
vn -0.995966 -0.089020 0.011259
vn 0.033835 -0.096058 -0.994800
vn 0.033835 -0.096058 -0.994800
vn 0.033835 -0.096058 -0.994800
vn 0.033835 -0.096058 -0.994800
vn -0.075928 -0.092673 0.992797
vn -0.075928 -0.092673 0.992797
vn -0.075928 -0.092673 0.992797
vn -0.075928 -0.092673 0.992797
vn 0.005318 0.999960 0.007219
vn 0.005318 0.999960 0.007219
vn 0.005318 0.999960 0.007219
vn 0.005318 0.999960 0.007219
vn -0.035916 -0.013800 -0.999260
vn -0.035916 -0.013800 -0.999260
vn -0.035916 -0.013800 -0.999260
vn -0.035916 -0.013800 -0.999260
vn 0.000000 -1.000000 0.000000
vn 0.000000 -1.000000 0.000000
vn 0.000000 -1.000000 0.000000
vn 0.000000 -1.000000 0.000000
vn -0.094279 0.127204 0.987386
vn -0.094279 0.127204 0.987386
vn -0.094279 0.127204 0.987386
vn -0.094279 0.127204 0.987386
vn -0.058693 0.078542 -0.995182
vn -0.058693 0.078542 -0.995182
vn -0.058693 0.078542 -0.995182
vn -0.058693 0.078542 -0.995182
vn -0.112055 0.013039 0.993616
vn -0.112055 0.013039 0.993616
vn -0.112055 0.013039 0.993616
vn -0.112055 0.013039 0.993616
vn -0.015205 -0.108541 -0.993976
vn -0.015205 -0.108541 -0.993976
vn -0.015205 -0.108541 -0.993976
vn -0.015205 -0.108541 -0.993976
vn 0.000000 1.000000 0.000000
vn -0.001179 0.994519 0.104555
vn -0.001179 0.994518 0.104555
vn 0.000000 -1.000000 0.000000
vn 0.001151 -0.994781 -0.102022
vn 0.001151 -0.994782 -0.102022
vn 0.312104 0.000000 0.950048
vn 0.312104 0.000000 0.950048
vn 0.307177 -0.000552 0.951652
vn 0.307177 -0.000552 0.951652
vn -0.950048 0.000000 0.312103
vn -0.950048 0.000000 0.312103
vn -0.945569 -0.000510 0.325422
vn -0.945569 -0.000510 0.325422
vn -0.312104 0.000000 -0.950048
vn -0.329769 -0.041080 -0.943167
vn -0.329769 -0.041080 -0.943167
vn -0.312104 0.000000 -0.950048
vn 0.950048 0.000000 -0.312103
vn 0.950048 0.000000 -0.312103
vn 0.964548 -0.002101 -0.263899
vn 0.964548 -0.002101 -0.263899
vn -0.160192 0.987085 0.000994
vn -0.160192 0.987085 0.000994
vn 0.000000 1.000000 0.000000
vn 0.161748 -0.986832 -0.001003
vn 0.161748 -0.986832 -0.001003
vn 0.000000 -1.000000 0.000000
vn -0.944520 -0.106422 0.310735
vn -0.944520 -0.106422 0.310735
vn -0.950048 0.000000 0.312103
vn -0.950048 0.000000 0.312103
vn -0.002524 0.994679 -0.102992
vn -0.002524 0.994679 -0.102992
vn 0.000000 1.000000 0.000000
vn 0.002591 -0.994393 0.105712
vn 0.002591 -0.994393 0.105712
vn 0.000000 -1.000000 0.000000
vn -0.314348 -0.000328 -0.949308
vn -0.314348 -0.000328 -0.949308
vn -0.312104 0.000000 -0.950048
vn -0.312104 0.000000 -0.950048
vn 0.116786 0.993157 -0.000984
vn 0.116786 0.993157 -0.000984
vn 0.000000 1.000000 0.000000
vn -0.106538 -0.994308 0.000898
vn -0.106538 -0.994308 0.000898
vn 0.000000 -1.000000 0.000000
vn 0.297837 -0.003110 0.954612
vn 0.297837 -0.003110 0.954612
vn 0.312104 0.000000 0.950048
vn 0.312104 0.000000 0.950048
vn 0.932869 -0.201618 -0.298507
vn 0.932869 -0.201618 -0.298507
vn 0.950048 0.000000 -0.312103
vn 0.950048 0.000000 -0.312103
vn -0.000000 1.000000 0.000000
vn -0.283876 0.958861 0.000877
vn -0.283876 0.958861 0.000877
vn 0.000000 -1.000000 0.000000
vn 0.289652 -0.957132 -0.000895
vn 0.289652 -0.957132 -0.000895
vn -0.484235 0.000000 0.874938
vn -0.484235 0.000000 0.874938
vn -0.540454 -0.036165 0.840596
vn -0.540454 -0.036165 0.840596
vn -0.874938 0.000000 -0.484235
vn -0.874938 0.000000 -0.484235
vn -0.884987 -0.109541 -0.452548
vn -0.884987 -0.109541 -0.452548
vn 0.484235 0.000000 -0.874938
vn 0.409770 -0.148930 -0.899949
vn 0.409770 -0.148930 -0.899949
vn 0.484235 0.000000 -0.874938
vn 0.874938 0.000000 0.484235
vn 0.874938 0.000000 0.484235
vn 0.873708 -0.157519 0.460241
vn 0.873708 -0.157519 0.460241
vn -0.012892 0.912095 -0.409776
vn -0.012892 0.912095 -0.409776
vn -0.000000 1.000000 0.000000
vn 0.013249 -0.907389 0.420084
vn 0.013249 -0.907389 0.420084
vn 0.000000 -1.000000 0.000000
vn -0.839866 -0.242936 -0.485394
vn -0.839866 -0.242936 -0.485394
vn -0.874938 0.000000 -0.484235
vn -0.874938 0.000000 -0.484235
vn 0.223130 0.974786 -0.002514
vn 0.223130 0.974785 -0.002514
vn 0.000000 1.000000 0.000000
vn -0.231860 -0.972746 0.002613
vn -0.231860 -0.972746 0.002613
vn 0.000000 -1.000000 0.000000
vn 0.550417 -0.069032 -0.832031
vn 0.550417 -0.069032 -0.832031
vn 0.484235 0.000000 -0.874938
vn 0.484235 0.000000 -0.874938
vn -0.154687 0.987960 -0.002610
vn -0.154687 0.987960 -0.002610
vn -0.154687 0.987960 -0.002610
vn 0.158665 -0.987329 0.002677
vn 0.158665 -0.987329 0.002677
vn 0.158665 -0.987329 0.002677
vn -0.354729 -0.020271 0.934749
vn -0.354729 -0.020271 0.934749
vn -0.354729 -0.020271 0.934749
vn -0.354729 -0.020271 0.934749
vn -0.923613 -0.148663 -0.353325
vn -0.923613 -0.148663 -0.353325
vn -0.923613 -0.148663 -0.353325
vn -0.923613 -0.148663 -0.353325
vn 0.351406 -0.000001 -0.936223
vn 0.351406 -0.000001 -0.936223
vn 0.351406 -0.000001 -0.936223
vn 0.351406 -0.000001 -0.936223
vn 0.926857 -0.145619 0.346022
vn 0.926857 -0.145619 0.346022
vn 0.926857 -0.145619 0.346022
vn 0.926857 -0.145619 0.346022
vn -0.001128 0.995696 -0.092674
vn -0.001128 0.995696 -0.092674
vn -0.001128 0.995696 -0.092674
vn 0.001117 -0.995774 0.091832
vn 0.001117 -0.995774 0.091832
vn 0.001117 -0.995774 0.091832
vn -0.936223 0.000000 -0.351406
vn -0.936223 0.000000 -0.351406
vn -0.936223 0.000000 -0.351406
vn -0.936223 0.000000 -0.351406
vn 0.185122 0.982712 -0.002765
vn 0.185122 0.982712 -0.002765
vn 0.185122 0.982712 -0.002765
vn -0.188725 -0.982026 0.002818
vn -0.188725 -0.982026 0.002818
vn -0.188725 -0.982026 0.002818
vn 0.358152 -0.024464 -0.933343
vn 0.358152 -0.024464 -0.933343
vn 0.358152 -0.024464 -0.933343
vn 0.358152 -0.024464 -0.933343
vn -0.003729 0.985644 0.168796
vn -0.003729 0.985644 0.168796
vn -0.003729 0.985644 0.168796
vn 0.003827 -0.984874 -0.173231
vn 0.003827 -0.984874 -0.173231
vn 0.003827 -0.984874 -0.173231
vn -0.351406 0.000001 0.936223
vn -0.351406 0.000001 0.936223
vn -0.351406 0.000001 0.936223
vn -0.351406 0.000001 0.936223
vn 0.936223 0.000000 0.351406
vn 0.936223 0.000000 0.351406
vn 0.936223 0.000000 0.351406
vn 0.936223 0.000000 0.351406
vn -0.271076 0.894342 0.355909
vn -0.271076 0.894342 0.355909
vn -0.271076 0.894342 0.355909
vn -0.271076 0.894342 0.355909
vn 0.268067 -0.898540 -0.347515
vn 0.268067 -0.898540 -0.347515
vn 0.268067 -0.898540 -0.347515
vn 0.268067 -0.898540 -0.347515
vn 0.327461 -0.723510 0.607703
vn 0.327461 -0.723510 0.607703
vn 0.327461 -0.723510 0.607703
vn 0.327461 -0.723510 0.607703
vn -0.989807 -0.034773 0.138104
vn -0.989807 -0.034773 0.138104
vn -0.989807 -0.034773 0.138104
vn -0.989807 -0.034773 0.138104
vn -0.129606 -0.028306 -0.991161
vn -0.129606 -0.028306 -0.991161
vn -0.129606 -0.028306 -0.991161
vn -0.129606 -0.028306 -0.991161
vn -0.287596 0.957708 -0.009128
vn -0.287596 0.957708 -0.009128
vn -0.287596 0.957708 -0.009128
vn -0.287596 0.957708 -0.009128
vn -0.977183 -0.179908 0.112903
vn -0.977183 -0.179908 0.112903
vn -0.977183 -0.179908 0.112903
vn -0.977183 -0.179908 0.112903
vn 0.993432 0.023089 -0.112074
vn 0.993432 0.023089 -0.112074
vn 0.993432 0.023089 -0.112074
vn 0.993432 0.023089 -0.112074
vn 0.000926 0.935226 0.354050
vn 0.000926 0.935226 0.354050
vn 0.000926 0.935226 0.354050
vn 0.000926 0.935226 0.354050
vn -0.000298 -0.939404 -0.342811
vn -0.000298 -0.939404 -0.342811
vn -0.000298 -0.939404 -0.342811
vn -0.000298 -0.939404 -0.342811
vn 0.088479 -0.757966 0.646266
vn 0.088479 -0.757966 0.646266
vn 0.088479 -0.757966 0.646266
vn 0.088479 -0.757966 0.646266
vn 0.289771 -0.957046 0.009766
vn 0.289771 -0.957046 0.009766
vn 0.289771 -0.957046 0.009766
vn 0.289771 -0.957046 0.009766
s off
f 1/1/1 17/17/2 23/23/3 13/13/4
f 3/25/5 18/26/6 19/27/7 5/28/8
f 5/6/9 19/19/10 22/22/11 11/11/12
f 7/8/13 20/20/14 17/17/15 1/1/16
f 2/2/17 8/7/18 16/16/19 14/14/20
f 7/8/21 1/1/22 13/13/23 15/15/24
f 9/9/25 21/21/26 18/18/27 3/4/28
f 11/11/29 22/22/30 24/24/31 15/15/32
f 10/10/33 12/12/34 6/5/35 4/3/36
f 11/11/37 9/9/38 3/4/39 5/6/40
f 13/13/41 23/23/42 21/21/43 9/9/44
f 14/14/45 16/16/46 12/12/47 10/10/48
f 15/15/49 13/13/50 9/9/51 11/11/52
f 15/15/53 24/24/54 20/20/55 7/8/56
f 23/23/57 17/17/58 2/2/59 14/14/60
f 19/27/61 18/26/62 4/29/63 6/30/64
f 22/22/65 19/19/66 6/5/67 12/12/68
f 17/17/69 20/20/70 8/7/71 2/2/72
f 18/18/73 21/21/74 10/10/75 4/3/76
f 24/24/77 22/22/78 12/12/79 16/16/80
f 21/21/81 23/23/82 14/14/83 10/10/84
f 20/20/85 24/24/86 16/16/87 8/7/88
f 30/31/89 46/32/90 48/33/91
f 25/34/92 47/35/93 45/36/94
f 30/31/95 25/37/96 45/38/97 46/32/98
f 25/37/99 30/31/100 48/33/101 47/39/102
f 29/40/103 36/41/104 33/42/105 27/43/106
f 28/44/107 31/45/108 38/46/109 37/47/110
f 35/48/111 36/41/112 29/40/113
f 33/49/114 34/50/115 27/51/116
f 34/52/117 35/48/118 29/40/119 27/43/120
f 40/53/121 38/46/122 31/45/123
f 37/54/124 39/55/125 28/56/126
f 39/57/127 40/53/128 31/45/129 28/44/130
f 44/58/131 42/59/132 32/60/133
f 41/61/134 43/62/135 26/63/136
f 42/59/137 41/64/138 26/65/139 32/60/140
f 43/66/141 44/58/142 32/60/143 26/65/144
f 53/67/145 58/68/146 57/69/147
f 49/70/148 55/71/149 56/72/150
f 53/67/151 49/73/152 56/74/153 58/68/154
f 49/73/155 53/67/156 57/69/157 55/75/158
f 52/76/159 62/77/160 59/78/161 50/79/162
f 51/80/163 54/81/164 64/82/165 63/83/166
f 61/84/167 62/77/168 52/76/169
f 59/85/170 60/86/171 50/87/172
f 60/88/173 61/84/174 52/76/175 50/79/176
f 66/89/177 64/82/178 54/81/179
f 63/90/180 65/91/181 51/92/182
f 65/93/183 66/89/184 54/81/185 51/80/186
f 72/94/187 88/95/188 90/96/189
f 67/97/190 89/98/191 87/99/192
f 72/94/193 67/100/194 87/101/195 88/95/196
f 67/100/197 72/94/198 90/96/199 89/102/200
f 71/103/201 78/104/202 75/105/203 69/106/204
f 70/107/205 73/108/206 80/109/207 79/110/208
f 77/111/209 78/104/210 71/103/211
f 75/112/212 76/113/213 69/114/214
f 76/115/215 77/111/216 71/103/217 69/106/218
f 82/116/219 80/109/220 73/108/221
f 79/117/222 81/118/223 70/119/224
f 81/120/225 82/116/226 73/108/227 70/107/228
f 86/121/229 84/122/230 74/123/231
f 83/124/232 85/125/233 68/126/234
f 84/122/235 83/127/236 68/128/237 74/123/238
f 85/129/239 86/121/240 74/123/241 68/128/242
f 95/130/243 104/131/244 105/132/245 99/133/246
f 91/134/247 97/135/248 106/136/249 102/137/250
f 95/130/251 91/138/252 102/139/253 104/131/254
f 91/138/255 95/130/256 99/133/257 97/140/258
f 94/141/259 103/142/260 101/143/261 93/144/262
f 99/133/263 105/132/264 103/142/265 94/141/266
f 97/140/267 99/133/268 94/141/269 93/144/270
f 98/145/271 100/146/272 96/147/273 92/148/274
f 105/132/275 104/131/276 96/147/277 100/146/278
f 102/137/279 106/136/280 98/149/281 92/150/282
f 104/131/283 102/139/284 92/148/285 96/147/286
f 101/151/287 106/136/288 97/135/289 93/152/290
