# This file uses centimeters as units for non-parametric coordinates.

v 0.000000 0.446827 -111.863861
v -73.815552 0.446827 -111.863861
v 0.000000 4.637869 -111.863861
v -73.815552 3.790479 -111.863861
v -1.264283 3.790479 0.684113
v -73.815552 5.181293 2.232666
v -1.264283 0.446827 0.684113
v -73.815552 0.446827 2.232666
v 69.188446 0.446827 -116.328995
v 69.188446 3.790479 -116.328995
v 73.815552 4.637869 2.232666
v 73.815552 0.446827 2.232666
v 0.000000 0.446827 116.329178
v -73.535255 0.446827 108.719467
v 0.000000 5.181293 116.329178
v -73.535255 3.790479 108.719467
v 73.815552 0.446827 116.329178
v 73.815552 3.790479 116.329178
v -25.478424 0.446827 113.028030
v -26.013245 5.181293 113.028030
v -69.658295 5.181293 51.598404
v -69.658295 0.446827 50.845413
v 33.997799 0.000000 -109.013580
v 32.943539 4.191042 -109.013580
v 69.841583 4.191042 -31.783829
v 69.841583 0.000000 -34.072174
v -13.632395 4.349449 114.563187
v -13.918814 9.083916 114.563187
v -71.591202 9.083916 28.646038
v -71.591202 4.349449 28.243130
v 17.192287 4.022464 -110.422363
v 16.659021 8.213506 -110.422363
v 71.806145 8.213506 -14.968378
v 71.806145 4.022464 -16.125465
vt 0.450259 0.165542
vt 0.449893 0.165486
vt 0.436356 0.114687
vt 0.498550 0.114687
vt 0.436356 0.199583
vt 0.498550 0.199583
vt 0.449890 0.165477
vt 0.450262 0.165534
vt 0.449995 0.165262
vt 0.449996 0.165271
vt 0.450265 0.165301
vt 0.450259 0.165542
vt 0.449893 0.165486
vt 0.449890 0.165477
vt 0.450262 0.165534
vt 0.436356 0.114687
vt 0.498550 0.114687
vt 0.498550 0.199583
vt 0.436356 0.199583
vt 0.450265 0.165301
vt 0.449996 0.165271
vt 0.449995 0.165262
vt 0.450259 0.165542
vt 0.450262 0.165534
vt 0.449890 0.165477
vt 0.449893 0.165486
vt 0.436356 0.114687
vt 0.436356 0.199583
vt 0.498550 0.199583
vt 0.498550 0.114687
vt 0.450265 0.165301
vt 0.449996 0.165271
vt 0.449995 0.165262
vt 0.450259 0.165542
vt 0.449893 0.165486
vt 0.449890 0.165477
vt 0.450262 0.165534
vt 0.436356 0.114687
vt 0.498550 0.114687
vt 0.498550 0.199583
vt 0.436356 0.199583
vt 0.450265 0.165301
vt 0.449996 0.165271
vt 0.449995 0.165262
vt 0.450112 0.165520
vt 0.450110 0.165511
vt 0.461669 0.114687
vt 0.449946 0.165362
vt 0.498550 0.161181
vt 0.449949 0.165369
vt 0.450071 0.165513
vt 0.450076 0.165505
vt 0.467370 0.114687
vt 0.449964 0.165326
vt 0.498550 0.175297
vt 0.449963 0.165340
vt 0.450180 0.165530
vt 0.450180 0.165521
vt 0.449815 0.114687
vt 0.449969 0.165315
vt 0.498550 0.179714
vt 0.449971 0.165323
vt 0.450164 0.165528
vt 0.450168 0.165519
vt 0.451949 0.114687
vt 0.449979 0.165295
vt 0.498550 0.188024
vt 0.449979 0.165306
vn -0.000000 0.000000 -1.000000
vn -0.000000 0.000000 -1.000000
vn -0.000000 0.000000 -1.000000
vn -0.000000 0.000000 -1.000000
vn 0.003688 0.999990 -0.002377
vn 0.003688 0.999990 -0.002377
vn 0.003688 0.999990 -0.002377
vn 0.003688 0.999990 -0.002377
vn 0.000000 -1.000000 -0.000000
vn 0.000000 -1.000000 -0.000000
vn 0.000000 -1.000000 -0.000000
vn 0.000000 -1.000000 -0.000000
vn -1.000000 0.000000 0.000000
vn -1.000000 0.000000 0.000000
vn -1.000000 0.000000 0.000000
vn -1.000000 0.000000 0.000000
vn 0.088892 0.016836 -0.995899
vn 0.088892 0.016836 -0.995899
vn 0.088892 0.016836 -0.995899
vn 0.088892 0.016836 -0.995899
vn 0.330978 0.927000 -0.176420
vn 0.330978 0.927000 -0.176420
vn 0.330978 0.927000 -0.176420
vn 0.330978 0.927000 -0.176420
vn -0.317021 -0.933159 0.169447
vn -0.317021 -0.933159 0.169447
vn -0.317021 -0.933159 0.169447
vn -0.317021 -0.933159 0.169447
vn 0.999967 0.002377 -0.007830
vn 0.999967 0.002377 -0.007830
vn 0.999967 0.002377 -0.007830
vn 0.999967 0.002377 -0.007830
vn -0.123755 -0.010733 0.992255
vn -0.123755 -0.010733 0.992255
vn -0.123755 -0.010733 0.992255
vn -0.123755 -0.010733 0.992255
vn 0.018904 0.999747 -0.012230
vn 0.018904 0.999747 -0.012230
vn 0.018904 0.999747 -0.012230
vn 0.298170 -0.932222 -0.205079
vn 0.298170 -0.932222 -0.205079
vn 0.298170 -0.932222 -0.205079
vn 0.298170 -0.932222 -0.205079
vn -0.997720 0.006263 -0.067199
vn -0.997720 0.006263 -0.067199
vn -0.997720 0.006263 -0.067199
vn -0.997720 0.006263 -0.067199
vn -0.000000 0.000000 1.000000
vn -0.000000 0.000000 1.000000
vn -0.000000 0.000000 1.000000
vn -0.000000 0.000000 1.000000
vn 0.003674 0.999990 -0.002386
vn 0.003674 0.999990 -0.002386
vn 0.003674 0.999990 -0.002386
vn 0.003674 0.999990 -0.002386
vn 0.000000 -1.000000 0.000000
vn 0.000000 -1.000000 0.000000
vn 0.000000 -1.000000 0.000000
vn 0.000000 -1.000000 0.000000
vn 1.000000 0.000000 0.000000
vn 1.000000 0.000000 0.000000
vn 1.000000 0.000000 0.000000
vn 1.000000 0.000000 0.000000
vn -0.089706 -0.005939 0.995951
vn -0.089706 -0.005939 0.995951
vn -0.089706 -0.005939 0.995951
vn -0.089706 -0.005939 0.995951
vn -0.031259 0.999265 0.022209
vn -0.031259 0.999265 0.022209
vn -0.031259 0.999265 0.022209
vn 0.000000 -1.000000 -0.000000
vn 0.000000 -1.000000 -0.000000
vn 0.000000 -1.000000 -0.000000
vn -0.996512 -0.010111 0.082833
vn -0.996512 -0.010111 0.082833
vn -0.996512 -0.010111 0.082833
vn -0.996512 -0.010111 0.082833
vn -0.200550 -0.028061 -0.979281
vn -0.200550 -0.028061 -0.979282
vn -0.200550 -0.028061 -0.979282
vn -0.200550 -0.028061 -0.979281
vn 0.010079 0.999938 -0.004815
vn 0.010079 0.999938 -0.004815
vn 0.010079 0.999938 -0.004815
vn 0.011548 -0.999918 -0.005523
vn 0.011548 -0.999918 -0.005523
vn 0.011548 -0.999918 -0.005523
vn 0.991004 0.050881 -0.123787
vn 0.991003 0.050881 -0.123787
vn 0.991003 0.050881 -0.123787
vn 0.991004 0.050881 -0.123788
vn -0.011438 0.999907 0.007400
vn -0.011438 0.999907 0.007400
vn -0.011438 0.999907 0.007400
vn -0.293101 0.934598 0.201540
vn -0.293101 0.934598 0.201540
vn -0.293101 0.934598 0.201540
vn -0.293101 0.934598 0.201540
vn -0.128236 -0.003879 0.991736
vn -0.128236 -0.003879 0.991736
vn -0.128236 -0.003879 0.991736
vn -0.128236 -0.003879 0.991736
vn 0.265306 0.948258 -0.174411
vn 0.265306 0.948258 -0.174411
vn 0.265306 0.948258 -0.174411
vn 0.265306 0.948258 -0.174411
vn -0.996367 -0.003620 0.085091
vn -0.996367 -0.003620 0.085091
vn -0.996367 -0.003620 0.085091
vn -0.996367 -0.003620 0.085091
vn -0.070010 -0.996484 0.046032
vn -0.070010 -0.996484 0.046032
vn -0.070010 -0.996484 0.046032
vn -0.070010 -0.996484 0.046032
vn -0.070010 -0.996484 0.046032
vn 0.083741 0.005328 -0.996473
vn 0.083741 0.005328 -0.996473
vn 0.083741 0.005328 -0.996473
vn 0.083741 0.005328 -0.996473
vn -0.277658 0.945361 0.170878
vn -0.277658 0.945361 0.170878
vn -0.277658 0.945361 0.170878
vn -0.277658 0.945361 0.170878
vn 0.993895 0.015086 -0.109294
vn 0.993895 0.015086 -0.109294
vn 0.993895 0.015086 -0.109294
vn 0.993895 0.015086 -0.109294
vn 0.066800 -0.996917 -0.041168
vn 0.066800 -0.996917 -0.041168
vn 0.066800 -0.996917 -0.041168
vn 0.066800 -0.996917 -0.041168
vn 0.066800 -0.996917 -0.041168
s off
f 1/1/1 2/2/2 4/7/3 3/8/4
f 3/3/5 4/4/6 6/6/7 5/5/8
f 7/11/9 8/10/10 2/2/11 1/1/12
f 2/2/13 8/10/14 6/9/15 4/7/16
f 31/63/17 32/64/18 24/52/19 23/51/20
f 32/65/21 33/67/22 25/55/23 24/53/24
f 34/68/25 31/63/26 23/51/27 26/56/28
f 9/13/29 10/14/30 25/54/31 26/56/32
f 27/57/33 28/58/34 20/46/35 19/45/36
f 15/27/37 5/28/38 6/29/39
f 30/62/40 27/57/41 19/45/42 22/50/43
f 14/26/44 16/25/45 21/48/46 22/50/47
f 13/34/48 17/35/49 18/36/50 15/37/51
f 15/38/52 18/39/53 11/40/54 5/41/55
f 7/42/56 12/43/57 17/35/58 13/34/59
f 17/35/60 12/43/61 11/44/62 18/36/63
f 19/45/64 20/46/65 16/25/66 14/26/67
f 20/47/68 21/49/69 16/30/70
f 22/50/71 19/45/72 14/26/73
f 22/50/74 21/48/75 29/60/76 30/62/77
f 23/51/78 24/52/79 10/14/80 9/13/81
f 24/53/82 25/55/83 10/17/84
f 26/56/85 23/51/86 9/13/87
f 26/56/88 25/54/89 33/66/90 34/68/91
f 3/16/92 5/19/93 11/18/94
f 28/59/95 29/61/96 21/49/97 20/47/98
f 13/23/99 15/24/100 28/58/101 27/57/102
f 15/27/103 6/29/104 29/61/105 28/59/106
f 30/62/107 29/60/108 6/33/109 8/32/110
f 7/31/111 13/23/112 27/57/113 30/62/114 8/32/115
f 1/12/116 3/15/117 32/64/118 31/63/119
f 3/16/120 11/18/121 33/67/122 32/65/123
f 34/68/124 33/66/125 11/22/126 12/21/127
f 7/20/128 1/12/129 31/63/130 34/68/131 12/21/132
