# This file uses centimeters as units for non-parametric coordinates.

v -1.063490 -1.842201 10.084319
v -1.173258 -1.869167 -15.080158
v 1.063490 -1.842201 10.084319
v 1.173258 -1.869167 -15.080158
v 1.173258 1.869311 -15.080159
v -1.173258 1.869311 -15.080159
v -1.173258 2.010335 -19.472593
v -1.173258 -2.065556 -19.499660
v 1.173258 2.010335 -19.472593
v 1.173258 -2.065556 -19.499660
v -1.173258 -0.095455 -20.363718
v 1.173258 -0.095455 -20.363718
v 1.063490 -1.090018 8.710349
v 1.173258 -1.134385 -14.114403
v 1.173258 1.134493 -14.114404
v 1.063490 1.232575 8.710359
v -1.063490 1.232575 8.710359
v -1.173258 1.134493 -14.114404
v -1.173258 -1.134385 -14.114403
v -1.063490 -1.090018 8.710349
v 0.741291 -0.723533 7.672699
v 0.817823 -0.776374 -12.969589
v 0.817823 0.776482 -12.969589
v 0.741291 0.866094 7.672699
v -0.741291 0.866094 7.672699
v -0.817823 0.776482 -12.969589
v -0.817823 -0.776374 -12.969589
v -0.741291 -0.723533 7.672699
v -1.173258 1.338005 -16.242802
v -1.173258 -1.338100 -16.242802
v -1.173258 1.378239 -19.055378
v -1.173258 -1.433604 -19.082445
v 1.173258 -1.338100 -16.242802
v 1.173258 1.338005 -16.242802
v 1.173258 -1.433604 -19.082445
v 1.173258 1.378239 -19.055378
v 1.173258 0.000053 -15.080159
v -1.173258 0.000053 -15.080159
v -1.173258 0.000048 -15.672738
v -1.173258 -0.095455 -19.652510
v 1.173258 -0.095455 -19.652510
v 1.173258 0.000048 -15.672738
v -1.173258 2.579826 -17.712420
v 1.173258 2.579826 -17.712420
v 1.173258 1.986869 -17.670666
v 1.173258 -1.909637 -17.576939
v 1.173258 -2.504015 -17.576939
v -1.173258 -2.504015 -17.576939
v -1.173258 -1.909637 -17.576939
v -1.173258 1.986869 -17.670666
v -1.063490 3.432715 11.347905
v -1.063490 -2.730283 12.592606
v 1.063490 -2.730283 12.592606
v 1.063490 3.432715 11.347905
v -1.063490 5.540884 12.304335
v 1.063490 5.540884 12.304335
v -1.063490 5.867512 16.870365
v 1.063490 5.867512 16.870365
v -1.063490 4.487629 18.282310
v 1.063490 4.487629 18.282310
v 0.000000 4.487629 18.282310
v 1.063538 6.263226 14.808702
v -1.063490 6.263226 14.808702
v -1.063490 -2.875913 15.449234
v 1.063490 -2.875841 15.449215
v 1.063490 2.468143 13.601945
v 1.063490 3.308043 14.107067
v -1.063490 2.468143 13.601945
v -1.063490 3.308043 14.107067
v -1.063490 -2.130760 18.145105
v 1.063490 -2.130688 18.145086
v 1.063490 0.125443 17.393822
v -1.063490 0.125443 17.393822
v 1.063490 0.621155 19.385508
v -1.063490 0.621155 19.385508
v -1.063490 -0.437532 15.131889
v -1.063490 -0.012848 14.425741
v 1.063490 -0.437532 15.131889
v 1.063490 -0.012848 14.425741
v 1.063490 -2.730283 12.592606
v 1.063490 2.421959 10.090508
v -1.063490 2.421959 10.090508
vt 0.216452 0.149791
vt 0.215848 0.149793
vt 0.215826 0.149804
vt 0.216455 0.149800
vt 0.214478 0.107613
vt 0.215318 0.107620
vt 0.215322 0.107557
vt 0.214478 0.107551
vt 0.216453 0.149690
vt 0.216454 0.149695
vt 0.215820 0.149711
vt 0.215843 0.149704
vt 0.214475 0.107555
vt 0.215367 0.107563
vt 0.215362 0.107629
vt 0.214475 0.107621
vt 0.215777 0.149687
vt 0.215752 0.149693
vt 0.215712 0.149708
vt 0.215739 0.149702
vt 0.215765 0.149819
vt 0.215789 0.149808
vt 0.215738 0.149798
vt 0.215712 0.149809
vt 0.215686 0.149760
vt 0.215714 0.149751
vt 0.215850 0.149785
vt 0.216421 0.149782
vt 0.215823 0.149757
vt 0.215846 0.149729
vt 0.216421 0.149725
vt 0.216563 0.149755
vt 0.215870 0.149776
vt 0.215846 0.149749
vt 0.216419 0.149774
vt 0.216556 0.149748
vt 0.216537 0.149689
vt 0.216483 0.149665
vt 0.216419 0.149718
vt 0.215867 0.149722
vt 0.215831 0.149749
vt 0.215819 0.149781
vt 0.215779 0.149701
vt 0.215750 0.149717
vt 0.215731 0.149751
vt 0.215747 0.149783
vt 0.215788 0.149794
vt 0.215808 0.149757
vt 0.215796 0.149791
vt 0.215764 0.149805
vt 0.215721 0.149793
vt 0.215704 0.149760
vt 0.215754 0.149708
vt 0.215724 0.149724
vt 0.215815 0.149717
vt 0.215792 0.149724
vt 0.216516 0.149822
vt 0.216511 0.149812
vt 0.216487 0.149670
vt 0.216516 0.149822
vt 0.216587 0.149825
vt 0.216579 0.149815
vt 0.216507 0.149614
vt 0.216512 0.149617
vt 0.216575 0.149599
vt 0.216568 0.149597
vt 0.216618 0.149606
vt 0.216627 0.149609
vt 0.216651 0.149640
vt 0.216661 0.149643
vt 0.216556 0.149673
vt 0.216543 0.149694
vt 0.216549 0.149668
vt 0.216656 0.149641
vt 0.216653 0.149807
vt 0.216686 0.149739
vt 0.216675 0.149732
vt 0.216643 0.149797
vt 0.216580 0.149766
vt 0.216636 0.149752
vt 0.216572 0.149758
vt 0.216627 0.149744
vt 0.214438 0.107626
vt 0.215355 0.107633
vt 0.215362 0.107542
vt 0.214438 0.107536
vt 0.214430 0.107541
vt 0.215430 0.107548
vt 0.215423 0.107647
vt 0.214431 0.107637
vn 0.000000 -0.999999 0.001072
vn 0.000000 -0.999999 0.001072
vn 0.000000 -0.999999 0.001072
vn 0.000000 -0.999999 0.001072
vn 0.999993 -0.000000 0.003708
vn 0.999993 -0.000000 0.003708
vn 0.999993 -0.000000 0.003708
vn 0.999993 -0.000000 0.003708
vn 0.000000 0.999784 -0.020797
vn 0.000000 0.999784 -0.020797
vn 0.000000 0.999784 -0.020797
vn 0.000000 0.999784 -0.020797
vn -0.999993 -0.000000 0.003708
vn -0.999993 -0.000000 0.003708
vn -0.999993 -0.000000 0.003708
vn -0.999993 -0.000000 0.003708
vn 0.000000 0.951441 -0.307832
vn 0.000000 0.951441 -0.307832
vn 0.000000 0.951441 -0.307832
vn 0.000000 0.951441 -0.307832
vn 0.000000 -0.974971 -0.222333
vn 0.000000 -0.974971 -0.222333
vn 0.000000 -0.974971 -0.222333
vn 0.000000 -0.974971 -0.222333
vn 0.000000 0.389719 -0.920934
vn 0.000000 0.389719 -0.920934
vn 0.000000 0.389719 -0.920934
vn 0.000000 0.389719 -0.920934
vn 0.000000 -0.401653 -0.915792
vn 0.000000 -0.401653 -0.915792
vn 0.000000 -0.401653 -0.915792
vn 0.000000 -0.401653 -0.915792
vn 0.999989 0.001255 0.004573
vn 0.999989 0.001255 0.004573
vn 0.999989 0.001255 0.004573
vn 0.999989 0.001255 0.004573
vn 1.000000 0.000000 0.000000
vn 1.000000 0.000000 0.000000
vn 1.000000 0.000000 0.000000
vn 0.999989 -0.000568 0.004599
vn 0.999989 -0.000568 0.004599
vn 0.999989 -0.000568 0.004599
vn 0.999989 -0.000568 0.004599
vn -1.000000 -0.000000 0.000000
vn -1.000000 -0.000000 0.000000
vn -1.000000 -0.000000 0.000000
vn -0.999989 0.001255 0.004573
vn -0.999989 0.001255 0.004573
vn -0.999989 0.001255 0.004573
vn -0.999989 0.001255 0.004573
vn -1.000000 0.000000 0.000000
vn -1.000000 0.000000 0.000000
vn -1.000000 0.000000 0.000000
vn -1.000000 0.000000 0.000000
vn 0.730450 0.682965 0.001603
vn 0.730450 0.682965 0.001603
vn 0.730450 0.682965 0.001603
vn 0.730450 0.682965 0.001603
vn 0.955029 0.000000 0.296512
vn 0.955029 0.000000 0.296512
vn 0.955029 0.000000 0.296512
vn 0.955029 0.000000 0.296512
vn 0.730766 -0.682601 0.006080
vn 0.730766 -0.682601 0.006080
vn 0.730766 -0.682601 0.006080
vn 0.730766 -0.682601 0.006080
vn 0.955020 0.000001 -0.296540
vn 0.955020 0.000001 -0.296540
vn 0.955020 0.000001 -0.296540
vn 0.955020 0.000001 -0.296540
vn -0.730766 -0.682601 0.006080
vn -0.730766 -0.682601 0.006080
vn -0.730766 -0.682601 0.006080
vn -0.730766 -0.682601 0.006080
vn -0.955029 0.000000 0.296512
vn -0.955029 0.000000 0.296512
vn -0.955029 0.000000 0.296512
vn -0.955029 0.000000 0.296512
vn -0.730450 0.682965 0.001603
vn -0.730450 0.682965 0.001603
vn -0.730450 0.682965 0.001603
vn -0.730450 0.682965 0.001603
vn -0.955020 0.000001 -0.296540
vn -0.955020 0.000001 -0.296540
vn -0.955020 0.000001 -0.296540
vn -0.955020 0.000001 -0.296540
vn -1.000000 0.000000 0.000000
vn -1.000000 0.000000 0.000000
vn -1.000000 0.000000 0.000000
vn -1.000000 0.000000 0.000000
vn -1.000000 0.000000 0.000000
vn -1.000000 0.000000 0.000000
vn -1.000000 0.000000 0.000000
vn -1.000000 0.000000 0.000000
vn -1.000000 0.000000 0.000000
vn -1.000000 0.000000 0.000000
vn -1.000000 0.000000 0.000000
vn -1.000000 0.000000 0.000000
vn -1.000000 -0.000000 0.000000
vn -1.000000 -0.000000 0.000000
vn -1.000000 -0.000000 0.000000
vn -1.000000 -0.000000 0.000000
vn 1.000000 0.000000 0.000000
vn 1.000000 0.000000 0.000000
vn 1.000000 0.000000 0.000000
vn 1.000000 0.000000 0.000000
vn 1.000000 -0.000000 0.000000
vn 1.000000 -0.000000 0.000000
vn 1.000000 -0.000000 0.000000
vn 1.000000 -0.000000 0.000000
vn 1.000000 0.000000 0.000000
vn 1.000000 0.000000 0.000000
vn 1.000000 0.000000 0.000000
vn 1.000000 0.000000 0.000000
vn 1.000000 0.000000 0.000000
vn 1.000000 0.000000 0.000000
vn 1.000000 0.000000 0.000000
vn 1.000000 0.000000 0.000000
vn 1.000000 -0.000000 0.000000
vn 1.000000 -0.000000 0.000000
vn 1.000000 -0.000000 0.000000
vn 1.000000 0.000000 0.000000
vn 1.000000 0.000000 0.000000
vn 1.000000 0.000000 0.000000
vn -1.000000 0.000000 0.000000
vn -1.000000 0.000000 0.000000
vn -1.000000 0.000000 0.000000
vn -1.000000 0.000000 0.000000
vn -1.000000 0.000000 0.000000
vn -1.000000 0.000000 0.000000
vn -1.000000 0.000000 0.000000
vn -1.000000 0.000000 0.000000
vn -1.000000 0.000000 0.000000
vn -1.000000 0.000000 0.000000
vn -1.000000 -0.000000 0.000000
vn -1.000000 -0.000000 0.000000
vn -1.000000 -0.000000 0.000000
vn -1.000000 -0.000000 0.000000
vn 1.000000 -0.000000 0.000000
vn 1.000000 -0.000000 0.000000
vn 1.000000 -0.000000 0.000000
vn 1.000000 -0.000000 0.000000
vn 1.000000 0.000000 0.000000
vn 1.000000 0.000000 0.000000
vn 1.000000 0.000000 0.000000
vn 1.000000 0.000000 0.000000
vn 0.000000 0.965447 0.260599
vn 0.000000 0.965447 0.260599
vn 0.000000 0.965447 0.260599
vn 0.000000 0.965447 0.260599
vn 1.000000 -0.000000 0.000000
vn 1.000000 -0.000000 0.000000
vn 1.000000 -0.000000 0.000000
vn 1.000000 -0.000000 0.000000
vn 1.000000 -0.000000 0.000000
vn 1.000000 -0.000000 0.000000
vn 1.000000 -0.000000 0.000000
vn 1.000000 -0.000000 0.000000
vn 0.000000 -0.969162 0.246425
vn 0.000000 -0.969162 0.246425
vn 0.000000 -0.969162 0.246425
vn 0.000000 -0.969162 0.246425
vn -1.000000 -0.000000 0.000000
vn -1.000000 -0.000000 0.000000
vn -1.000000 -0.000000 0.000000
vn -1.000000 -0.000000 0.000000
vn -1.000000 -0.000000 0.000000
vn -1.000000 -0.000000 0.000000
vn -1.000000 -0.000000 0.000000
vn -1.000000 -0.000000 0.000000
vn 0.000000 0.953472 0.301483
vn 0.000000 0.953472 0.301483
vn 0.000000 0.953472 0.301483
vn 0.000000 0.953472 0.301483
vn 0.000000 0.391927 -0.919996
vn 0.000000 0.391927 -0.919996
vn 0.000000 0.391927 -0.919996
vn 0.000000 0.391927 -0.919996
vn 0.000000 0.919204 -0.393782
vn 0.000000 0.919204 -0.393782
vn 0.000000 0.919204 -0.393782
vn 0.000000 0.919204 -0.393782
vn 0.000000 -0.391974 -0.919976
vn 0.000000 -0.391974 -0.919976
vn 0.000000 -0.391974 -0.919976
vn 0.000000 -0.391974 -0.919976
vn 0.000000 0.391928 0.919996
vn 0.000000 0.391928 0.919996
vn 0.000000 0.391928 0.919996
vn 0.000000 0.391928 0.919996
vn 0.000000 -0.375537 0.926808
vn 0.000000 -0.375537 0.926808
vn 0.000000 -0.375537 0.926808
vn 0.000000 -0.375537 0.926808
vn 0.000000 -0.915472 0.402382
vn 0.000000 -0.915472 0.402382
vn 0.000000 -0.915472 0.402382
vn 0.000000 -0.915472 0.402382
vn 0.000000 -0.910406 -0.413716
vn 0.000000 -0.910406 -0.413716
vn 0.000000 -0.910406 -0.413716
vn 0.000000 -0.910406 -0.413716
vn 0.000000 -0.942659 -0.333757
vn 0.000000 -0.942659 -0.333757
vn 0.000000 -0.942659 -0.333757
vn 0.000000 -0.942659 -0.333757
vn 0.000000 0.779404 -0.626522
vn 0.000000 0.779404 -0.626522
vn 0.000000 0.779404 -0.626522
vn 0.000000 0.779404 -0.626522
vn 0.000017 -0.998704 -0.050901
vn 0.000017 -0.998704 -0.050901
vn 0.000017 -0.998704 -0.050901
vn 0.000017 -0.998704 -0.050901
vn 0.000000 0.413148 -0.910664
vn 0.000000 0.413148 -0.910664
vn 0.000000 0.413148 -0.910664
vn 0.000000 0.413148 -0.910664
vn 0.000000 0.982073 0.188498
vn 0.000000 0.982073 0.188498
vn 0.000000 0.982073 0.188498
vn 0.000000 0.982073 0.188498
vn 0.000000 0.715180 0.698940
vn 0.000000 0.715180 0.698940
vn 0.000000 0.715180 0.698940
vn 0.000000 0.715180 0.698940
vn 1.000000 0.000000 0.000000
vn 1.000000 0.000000 0.000000
vn 1.000000 0.000000 0.000000
vn 1.000000 0.000000 0.000000
vn 1.000000 -0.000000 0.000000
vn 1.000000 -0.000000 0.000000
vn 1.000000 -0.000000 0.000000
vn -1.000000 -0.000000 0.000000
vn -1.000000 -0.000000 0.000000
vn -1.000000 -0.000000 0.000000
vn -1.000000 -0.000000 0.000000
vn -1.000000 -0.000000 0.000000
vn -1.000000 -0.000000 0.000000
vn 0.000000 0.000000 0.000000
vn 0.000000 0.000000 0.000000
vn 0.000000 0.000000 0.000000
vn 0.000000 0.315126 0.949050
vn 0.000000 0.315126 0.949050
vn 0.000000 0.315126 0.949050
vn 0.000000 0.315126 0.949050
vn 0.000000 -0.962332 0.271877
vn 0.000000 -0.962332 0.271877
vn 0.000000 -0.962332 0.271877
vn 0.000000 -0.962332 0.271877
vn 0.000000 -0.962332 0.271877
vn 0.000011 -0.410934 0.911665
vn 0.000011 -0.410934 0.911665
vn 0.000011 -0.410934 0.911665
vn 0.000011 -0.410934 0.911665
vn 1.000000 -0.000013 -0.000015
vn 1.000000 -0.000013 -0.000015
vn 1.000000 -0.000013 -0.000015
vn 0.000000 0.960831 -0.277135
vn 0.000000 0.960831 -0.277135
vn 0.000000 0.960831 -0.277135
vn 0.000000 0.960831 -0.277135
vn -1.000000 0.000000 0.000000
vn -1.000000 0.000000 0.000000
vn -1.000000 0.000000 0.000000
vn 1.000000 -0.000021 0.000019
vn 1.000000 -0.000021 0.000019
vn 1.000000 -0.000021 0.000019
vn -1.000000 0.000000 0.000000
vn -1.000000 0.000000 0.000000
vn -1.000000 0.000000 0.000000
vn -1.000000 0.000000 0.000000
vn 0.000000 -0.515382 0.856960
vn 0.000000 -0.515382 0.856960
vn 0.000000 -0.515382 0.856960
vn 0.000000 -0.515382 0.856960
vn 1.000000 0.000000 0.000000
vn 1.000000 0.000000 0.000000
vn 1.000000 0.000000 0.000000
vn 1.000000 0.000000 0.000000
vn 0.000035 -0.963858 0.266416
vn 0.000035 -0.963858 0.266416
vn 0.000035 -0.963858 0.266416
vn 0.000035 -0.963858 0.266416
vn 1.000000 -0.000000 0.000000
vn 1.000000 -0.000000 0.000000
vn 1.000000 -0.000000 0.000000
vn 1.000000 -0.000000 0.000000
vn 0.000000 0.970395 -0.241523
vn 0.000000 0.970395 -0.241523
vn 0.000000 0.970395 -0.241523
vn 0.000000 0.970395 -0.241523
vn 1.000000 0.000000 0.000000
vn 1.000000 0.000000 0.000000
vn 1.000000 0.000000 0.000000
vn 0.000000 0.970395 -0.241522
vn 0.000000 0.970395 -0.241522
vn 0.000000 0.970395 -0.241522
vn 0.000000 0.970395 -0.241522
vn -1.000000 0.000000 0.000000
vn -1.000000 0.000000 0.000000
vn -1.000000 0.000000 0.000000
vn -1.000000 0.000000 0.000000
vn -1.000000 0.000000 0.000000
vn -1.000000 0.000000 0.000000
vn -1.000000 0.000000 0.000000
vn 0.000000 0.856959 0.515384
vn 0.000000 0.856959 0.515384
vn 0.000000 0.856959 0.515384
vn 0.000000 0.856959 0.515384
vn -1.000000 0.000000 0.000000
vn -1.000000 0.000000 0.000000
vn -1.000000 0.000000 0.000000
vn -1.000000 0.000000 0.000000
vn 0.000000 0.000000 0.000000
vn 0.000000 0.000000 0.000000
vn 0.000000 0.000000 0.000000
vn -1.000000 -0.000000 0.000000
vn -1.000000 -0.000000 0.000000
vn -1.000000 -0.000000 0.000000
vn -0.999989 -0.000568 0.004599
vn -0.999989 -0.000568 0.004599
vn -0.999989 -0.000568 0.004599
vn -0.999989 -0.000568 0.004599
vn -1.000000 0.000000 0.000000
vn -1.000000 0.000000 0.000000
vn -1.000000 0.000000 0.000000
vn 1.000000 0.000000 0.000000
vn 1.000000 0.000000 0.000000
vn 1.000000 0.000000 0.000000
vn 1.000000 0.000000 0.000000
vn 1.000000 -0.000000 0.000000
vn 1.000000 -0.000000 0.000000
vn 1.000000 -0.000000 0.000000
vn 1.000000 -0.000000 0.000000
vn 1.000000 -0.000000 0.000000
vn 1.000000 -0.000000 0.000000
vn 1.000000 -0.000000 0.000000
vn 1.000000 -0.000000 0.000000
vn -1.000000 0.000000 0.000000
vn -1.000000 0.000000 0.000000
vn -1.000000 0.000000 0.000000
vn -1.000000 0.000000 0.000000
vn 1.000000 -0.000000 0.000000
vn 1.000000 -0.000000 0.000000
vn 1.000000 -0.000000 0.000000
s off
f 1/1/1 2/2/2 4/3/3 3/4/4
f 21/5/5 22/6/6 23/7/7 24/8/8
f 82/9/9 81/10/10 5/11/11 6/12/12
f 25/13/13 26/14/14 27/15/15 28/16/16
f 43/17/17 44/18/18 9/19/19 7/20/20
f 47/21/21 48/22/22 8/23/23 10/24/24
f 7/20/25 9/19/26 12/25/27 11/26/28
f 10/24/29 8/23/30 11/26/31 12/25/32
f 3/4/33 4/3/34 14/27/35 13/28/36
f 14/27/37 37/29/38 15/30/39
f 5/11/40 81/10/41 16/31/42 15/30/43
f 19/33/44 38/34/45 2/2/46
f 2/2/47 1/1/48 20/35/49 19/33/50
f 77/36/51 68/37/52 51/38/53 82/9/54
f 13/83/55 14/84/56 22/6/57 21/5/58
f 14/84/59 15/85/60 23/7/61 22/6/62
f 15/85/63 16/86/64 24/8/65 23/7/66
f 16/86/67 13/83/68 21/5/69 24/8/70
f 17/87/71 18/88/72 26/14/73 25/13/74
f 18/88/75 19/89/76 27/15/77 26/14/78
f 19/89/79 20/90/80 28/16/81 27/15/82
f 20/90/83 17/87/84 25/13/85 28/16/86
f 2/2/87 38/34/88 39/41/89 30/42/90
f 50/43/91 43/17/92 7/20/93 31/44/94
f 40/45/95 11/26/96 8/23/97 32/46/98
f 8/23/99 48/22/100 49/47/101 32/46/102
f 42/48/103 37/29/104 4/3/105 33/49/106
f 46/50/107 47/21/108 10/24/109 35/51/110
f 10/24/111 12/25/112 41/52/113 35/51/114
f 9/19/115 44/18/116 45/53/117 36/54/118
f 4/3/119 37/29/120 14/27/121
f 15/30/122 37/29/123 5/11/124
f 6/12/125 38/34/126 18/40/127
f 18/40/128 38/34/129 19/33/130
f 39/41/131 38/34/132 6/12/133 29/55/134
f 7/20/135 11/26/136 40/45/137 31/44/138
f 41/52/139 12/25/140 9/19/141 36/54/142
f 5/11/143 37/29/144 42/48/145 34/56/146
f 6/12/147 5/11/148 44/18/149 43/17/150
f 45/53/151 44/18/152 5/11/153 34/56/154
f 4/3/155 47/21/156 46/50/157 33/49/158
f 4/3/159 2/2/160 48/22/161 47/21/162
f 49/47/163 48/22/164 2/2/165 30/42/166
f 6/12/167 43/17/168 50/43/169 29/55/170
f 32/46/171 49/47/172 46/50/173 35/51/174
f 30/42/175 39/41/176 42/48/177 33/49/178
f 49/47/179 30/42/180 33/49/181 46/50/182
f 39/41/183 29/55/184 34/56/185 42/48/186
f 32/46/187 35/51/188 41/52/189 40/45/190
f 40/45/191 41/52/192 36/54/193 31/44/194
f 31/44/195 36/54/196 45/53/197 50/43/198
f 50/43/199 45/53/200 34/56/201 29/55/202
f 1/1/203 3/4/204 53/57/205 52/58/206
f 81/10/207 82/9/208 51/38/209 54/59/210
f 52/58/211 80/60/212 65/61/213 64/62/214
f 51/38/215 55/63/216 56/64/217 54/59/218
f 62/65/219 63/66/220 57/67/221 58/68/222
f 58/68/223 57/67/224 59/69/225 60/70/226
f 54/59/227 56/64/228 67/71/229 66/72/230
f 60/70/231 67/71/232 58/68/233
f 57/67/234 69/73/235 59/69/236
f 63/66/237 69/73/238 57/67/239
f 60/70/240 59/69/241 61/74/242
f 66/72/243 68/37/244 77/36/245 79/32/246
f 69/73/247 67/71/248 60/70/249 61/74/250 59/69/251
f 71/75/252 74/76/253 75/77/254 70/78/255
f 62/65/256 67/71/257 56/64/258
f 56/64/259 55/63/260 63/66/261 62/65/262
f 55/63/263 69/73/264 63/66/265
f 67/71/266 62/65/267 58/68/268
f 68/37/269 69/73/270 55/63/271 51/38/272
f 66/72/273 67/71/274 69/73/275 68/37/276
f 78/79/277 65/61/278 80/60/279 79/32/280
f 64/62/281 65/61/282 71/75/283 70/78/284
f 65/61/285 78/79/286 72/80/287 71/75/288
f 78/79/289 76/81/290 73/82/291 72/80/292
f 71/75/293 72/80/294 74/76/295
f 72/80/296 73/82/297 75/77/298 74/76/299
f 73/82/300 70/78/301 75/77/302
f 76/81/303 64/62/304 70/78/305 73/82/306
f 77/36/307 76/81/308 78/79/309 79/32/310
f 64/62/311 76/81/312 77/36/313 52/58/314
f 52/58/315 53/57/316 80/60/317
f 77/36/318 1/1/319 52/58/320
f 17/39/321 82/9/322 6/12/323 18/40/324
f 77/36/325 82/9/326 1/1/327
f 79/32/328 81/10/329 54/59/330 66/72/331
f 16/31/332 81/10/333 3/4/334 13/28/335
f 3/4/336 79/32/337 80/60/338 53/57/339
f 1/1/340 82/9/341 17/39/342 20/35/343
f 3/4/344 81/10/345 79/32/346
