# This file uses centimeters as units for non-parametric coordinates.

v -1.654452 -3.897941 -3.021985
v 1.835036 -3.897941 -3.021985
v 1.388539 -4.702744 -2.248629
v -1.207955 -4.702744 -2.248629
v -3.399197 -3.897941 -0.000001
v -2.431204 -2.342942 -0.000000
v -1.170456 -2.342942 -2.183680
v -1.207956 -4.702744 2.248629
v -2.506203 -4.702744 -0.000000
v -1.991075 -6.870903 -0.000000
v -0.950392 -6.870903 1.802514
v -1.654453 -3.897941 3.021985
v 1.351040 -2.342942 -2.183680
v 2.686786 -4.702744 0.000000
v 2.171658 -6.870903 0.000000
v 1.130975 -6.870903 -1.802514
v -1.170457 -2.342942 2.183680
v 2.611786 -2.342942 0.000000
v -1.170456 0.019080 -2.183680
v -2.431204 0.019080 -0.000000
v -1.968750 4.591657 -3.566365
v 3.579780 -3.897941 0.000000
v -4.027793 4.591657 -0.000001
v 1.388538 -4.702744 2.248629
v 1.130974 -6.870903 1.802515
v -1.170457 0.019080 2.183680
v 1.351040 0.019080 -2.183680
v -1.968751 4.591657 3.566365
v 1.835035 -3.897941 3.021985
v 2.611786 0.019080 0.000000
v 4.208376 4.591657 0.000000
v 2.149334 4.591657 -3.566365
v 1.351038 -2.342942 2.183680
v -2.293133 6.209232 -4.128213
v -4.676559 6.209232 -0.000001
v -4.676559 6.907614 -0.000001
v -2.293133 6.907614 -4.128213
v 1.351038 0.019080 2.183680
v 2.149333 4.591657 3.566365
v -1.968750 5.995677 -3.566365
v -4.027793 5.995677 -0.000001
v -4.027793 7.121169 -0.000001
v -1.968750 7.121169 -3.566365
v -0.990894 10.096023 -1.872669
v -2.072081 10.096023 -0.000000
v 2.473717 6.209232 -4.128213
v 2.473717 6.907614 -4.128213
v 2.149334 5.995677 -3.566365
v 1.171478 10.096023 -1.872669
v -0.990895 10.096023 1.872669
v -0.823806 -6.870903 -0.000000
v -0.824050 -6.870903 0.000423
v -0.367137 -6.870903 0.792532
v 0.547202 -6.870903 0.792115
v 1.004490 -6.870903 0.000069
v 1.004450 -6.870903 -0.000000
v -4.027793 8.002023 -0.000001
v -1.968750 8.002023 -3.566365
v 2.252663 10.096023 0.000000
v 2.149334 7.121169 -3.566365
v 1.171477 10.096023 1.872669
v -1.968751 5.995677 3.566365
v 2.149334 8.002023 -3.566365
v -2.293134 6.209232 4.128214
v -2.293134 6.907614 4.128214
v -1.968751 7.121169 3.566365
v -1.968751 8.002023 3.566365
v 4.208376 5.995677 0.000000
v 4.857142 6.209232 0.000000
v 4.857142 6.907614 0.000000
v 4.208376 7.121169 0.000000
v 2.149333 5.995677 3.566365
v 4.208376 8.002023 0.000000
v 2.473716 6.209232 4.128213
v 2.149333 7.121169 3.566365
v 2.149333 8.002023 3.566365
v 2.473716 6.907614 4.128213
v -0.950391 -6.870903 -1.802515
v 0.547319 -6.870903 -0.791353
v -0.366762 -6.870903 -0.791624
v -0.143409 -28.836283 0.404964
v -0.376719 -28.836283 0.000490
v 0.323540 -28.836283 -0.403815
v 0.556982 -28.836283 0.000308
v 0.323478 -28.836283 0.404748
v -0.143215 -28.836283 -0.403950
v 0.090158 -32.076378 0.000415
vt 0.140777 0.148955
vt 0.140714 0.148954
vt 0.140722 0.148969
vt 0.140770 0.148969
vt 0.140819 0.148952
vt 0.140800 0.148921
vt 0.140770 0.148925
vt 0.140783 0.148966
vt 0.140802 0.148968
vt 0.140792 0.149012
vt 0.140776 0.149013
vt 0.140795 0.148947
vt 0.140782 0.148915
vt 0.140724 0.148924
vt 0.140698 0.148967
vt 0.140708 0.149012
vt 0.140727 0.149011
vt 0.140702 0.148919
vt 0.140681 0.148950
vt 0.140781 0.148812
vt 0.140770 0.148883
vt 0.140799 0.148876
vt 0.140827 0.148795
vt 0.140728 0.148965
vt 0.140732 0.149014
vt 0.140782 0.148867
vt 0.140802 0.148770
vt 0.140725 0.148881
vt 0.140719 0.148946
vt 0.140675 0.148788
vt 0.140703 0.148873
vt 0.140712 0.148809
vt 0.140729 0.148915
vt 0.091565 0.346585
vt 0.092017 0.346429
vt 0.091999 0.346377
vt 0.091555 0.346535
vt 0.140718 0.148766
vt 0.140730 0.148866
vt 0.140781 0.148790
vt 0.140827 0.148771
vt 0.140827 0.148752
vt 0.140781 0.148772
vt 0.140715 0.148695
vt 0.140792 0.148701
vt 0.140778 0.148683
vt 0.140737 0.148680
vt 0.091578 0.346564
vt 0.091975 0.346425
vt 0.140712 0.148786
vt 0.140769 0.149012
vt 0.140768 0.149012
vt 0.140761 0.149013
vt 0.140742 0.149013
vt 0.140732 0.149012
vt 0.140732 0.149012
vt 0.140826 0.148737
vt 0.140781 0.148759
vt 0.140713 0.148769
vt 0.140802 0.148743
vt 0.140713 0.148755
vt 0.091947 0.346342
vt 0.091561 0.346483
vt 0.140769 0.148714
vt 0.140802 0.148722
vt 0.140802 0.148706
vt 0.140732 0.148712
vt 0.140676 0.148763
vt 0.091196 0.346456
vt 0.091192 0.346405
vt 0.140677 0.148743
vt 0.140718 0.148738
vt 0.140678 0.148728
vt 0.091256 0.346450
vt 0.140719 0.148717
vt 0.140719 0.148700
vt 0.091246 0.346367
vt 0.140766 0.149011
vt 0.140740 0.149012
vt 0.140758 0.149012
vt 0.091634 0.331322
vt 0.091674 0.331323
vt 0.091678 0.332203
vt 0.091660 0.332202
vt 0.091700 0.331319
vt 0.091690 0.332198
vt 0.091686 0.331314
vt 0.092119 0.346110
vt 0.092192 0.346062
vt 0.092167 0.346008
vt 0.092082 0.346024
vt 0.091287 0.346143
vt 0.091223 0.346100
vt 0.091217 0.346047
vt 0.091276 0.346056
vt 0.091754 0.345932
vt 0.091768 0.345847
vt 0.091727 0.345845
vt 0.091750 0.345793
vt 0.091647 0.331313
vt 0.091665 0.332190
vt 0.091683 0.332191
vt 0.091621 0.331317
vt 0.091653 0.332196
vt 0.091621 0.331317
vt 0.091673 0.332313
vt 0.091699 0.331319
vn 0.000000 -0.692879 -0.721054
vn 0.000000 -0.692879 -0.721054
vn 0.000000 -0.692879 -0.721054
vn 0.000000 -0.692879 -0.721054
vn -0.762306 0.474538 -0.440118
vn -0.762306 0.474538 -0.440118
vn -0.762306 0.474538 -0.440118
vn -0.762306 0.474538 -0.440118
vn -0.848256 -0.201535 0.489741
vn -0.848256 -0.201535 0.489741
vn -0.848256 -0.201535 0.489741
vn -0.848256 -0.201535 0.489741
vn -0.762306 0.474538 0.440117
vn -0.762306 0.474538 0.440117
vn -0.762306 0.474538 0.440117
vn -0.762306 0.474538 0.440117
vn 0.000000 0.474538 -0.880235
vn 0.000000 0.474538 -0.880235
vn 0.000000 0.474538 -0.880235
vn 0.000000 0.474538 -0.880235
vn -0.624451 -0.692879 0.360527
vn -0.624451 -0.692879 0.360527
vn -0.624451 -0.692879 0.360527
vn -0.624451 -0.692879 0.360527
vn 0.848256 -0.201535 -0.489741
vn 0.848256 -0.201535 -0.489741
vn 0.848256 -0.201535 -0.489741
vn 0.848256 -0.201535 -0.489741
vn 0.762306 0.474538 -0.440117
vn 0.762306 0.474538 -0.440117
vn 0.762306 0.474538 -0.440117
vn 0.762306 0.474538 -0.440117
vn -0.828955 -0.289443 -0.478598
vn -0.828955 -0.289443 -0.478598
vn -0.828955 -0.289443 -0.478598
vn -0.828955 -0.289443 -0.478598
vn -0.866026 0.000000 -0.500000
vn -0.866026 0.000000 -0.500000
vn -0.866026 0.000000 -0.500000
vn -0.866026 0.000000 -0.500000
vn -0.000000 -0.201535 0.979481
vn -0.000000 -0.201535 0.979481
vn -0.000000 -0.201535 0.979481
vn -0.000000 -0.201535 0.979481
vn -0.828956 -0.289443 0.478597
vn -0.828955 -0.289443 0.478597
vn -0.828955 -0.289443 0.478597
vn -0.828955 -0.289443 0.478597
vn 0.000000 0.000000 -1.000000
vn 0.000000 0.000000 -1.000000
vn 0.000000 0.000000 -1.000000
vn 0.000000 0.000000 -1.000000
vn 0.624451 -0.692879 -0.360527
vn 0.624451 -0.692879 -0.360527
vn 0.624451 -0.692879 -0.360527
vn 0.624451 -0.692879 -0.360527
vn 0.848256 -0.201535 0.489741
vn 0.848256 -0.201535 0.489741
vn 0.848256 -0.201535 0.489741
vn 0.848256 -0.201535 0.489741
vn -0.866026 0.000000 0.500000
vn -0.866026 0.000000 0.500000
vn -0.866026 0.000000 0.500000
vn -0.866026 0.000000 0.500000
vn -0.000000 -0.692879 0.721054
vn -0.000000 -0.692879 0.721054
vn -0.000000 -0.692879 0.721054
vn -0.000000 -0.692879 0.721054
vn 0.828956 -0.289443 -0.478597
vn 0.828955 -0.289443 -0.478597
vn 0.828955 -0.289443 -0.478597
vn 0.828956 -0.289443 -0.478598
vn 0.624451 -0.692879 0.360527
vn 0.624451 -0.692879 0.360527
vn 0.624451 -0.692879 0.360527
vn 0.624451 -0.692879 0.360527
vn 0.000000 -0.289443 -0.957195
vn 0.000000 -0.289443 -0.957195
vn 0.000000 -0.289443 -0.957195
vn 0.000000 -0.289443 -0.957195
vn 0.000000 0.474538 0.880235
vn 0.000000 0.474538 0.880235
vn 0.000000 0.474538 0.880235
vn 0.000000 0.474538 0.880235
vn 0.866026 0.000000 -0.499999
vn 0.866026 0.000000 -0.499999
vn 0.866026 0.000000 -0.499999
vn 0.866026 0.000000 -0.499999
vn -0.866025 0.000000 -0.500000
vn -0.866025 0.000000 -0.500000
vn -0.866025 0.000000 -0.500000
vn -0.866025 0.000000 -0.500000
vn 0.828955 -0.289443 0.478598
vn 0.828955 -0.289443 0.478598
vn 0.828955 -0.289443 0.478598
vn 0.828955 -0.289443 0.478598
vn -0.307694 -0.934754 -0.177648
vn -0.307694 -0.934754 -0.177648
vn -0.307694 -0.934754 -0.177648
vn -0.307694 -0.934754 -0.177648
vn -0.866025 0.000000 -0.500000
vn -0.866025 0.000000 -0.500000
vn -0.866025 0.000000 -0.500000
vn -0.866025 0.000000 -0.500000
vn 0.762306 0.474538 0.440117
vn 0.762306 0.474538 0.440117
vn 0.762306 0.474538 0.440117
vn 0.762306 0.474538 0.440117
vn -0.000000 0.000000 1.000000
vn -0.000000 0.000000 1.000000
vn -0.000000 0.000000 1.000000
vn -0.000000 0.000000 1.000000
vn -0.307694 0.934754 -0.177647
vn -0.307694 0.934754 -0.177647
vn -0.307694 0.934754 -0.177647
vn -0.307694 0.934754 -0.177647
vn 0.000000 1.000000 0.000000
vn 0.000000 1.000000 0.000000
vn 0.000000 1.000000 0.000000
vn 0.000000 1.000000 0.000000
vn 0.000000 0.000000 -1.000000
vn 0.000000 0.000000 -1.000000
vn 0.000000 0.000000 -1.000000
vn 0.000000 0.000000 -1.000000
vn 0.000000 0.000000 -1.000000
vn 0.000000 0.000000 -1.000000
vn 0.000000 0.000000 -1.000000
vn 0.000000 0.000000 -1.000000
vn 0.000000 -0.934754 -0.355295
vn 0.000000 -0.934754 -0.355295
vn 0.000000 -0.934754 -0.355295
vn 0.000000 -0.934754 -0.355295
vn 0.866026 0.000000 0.500000
vn 0.866026 0.000000 0.500000
vn 0.866026 0.000000 0.500000
vn 0.866026 0.000000 0.500000
vn 0.000000 -0.999993 -0.003862
vn 0.000000 -0.999993 -0.003862
vn 0.000000 -0.999993 -0.003862
vn 0.000000 -1.000000 0.000000
vn 0.000000 -1.000000 0.000000
vn 0.000000 -1.000000 0.000000
vn 0.000000 -1.000000 0.000000
vn 0.000000 -1.000000 -0.000000
vn 0.000000 -1.000000 -0.000000
vn 0.000000 -1.000000 -0.000000
vn 0.000000 -1.000000 -0.000000
vn 0.000000 -1.000000 -0.000032
vn 0.000000 -0.000000 -0.000000
vn 0.000000 -1.000000 -0.000032
vn 0.000000 -1.000000 0.000000
vn 0.000000 -1.000000 0.000000
vn 0.000000 -1.000000 0.000000
vn 0.000000 -1.000000 0.000000
vn -0.866025 0.000000 -0.500000
vn -0.866025 0.000000 -0.500000
vn -0.866025 0.000000 -0.500000
vn -0.866025 0.000000 -0.500000
vn 0.000000 0.934755 -0.355294
vn 0.000000 0.934755 -0.355294
vn 0.000000 0.934755 -0.355294
vn 0.000000 0.934755 -0.355294
vn -0.866025 0.000000 0.500000
vn -0.866025 0.000000 0.500000
vn -0.866025 0.000000 0.500000
vn -0.866025 0.000000 0.500000
vn 0.000000 0.000000 -1.000000
vn 0.000000 0.000000 -1.000000
vn 0.000000 0.000000 -1.000000
vn 0.000000 0.000000 -1.000000
vn -0.307694 -0.934754 0.177647
vn -0.307694 -0.934754 0.177647
vn -0.307694 -0.934754 0.177647
vn -0.307694 -0.934754 0.177647
vn -0.866025 0.000000 0.500000
vn -0.866025 0.000000 0.500000
vn -0.866025 0.000000 0.500000
vn -0.866025 0.000000 0.500000
vn -0.000000 -0.289443 0.957195
vn -0.000000 -0.289443 0.957195
vn -0.000000 -0.289443 0.957195
vn -0.000000 -0.289443 0.957195
vn -0.673341 0.628874 -0.388754
vn -0.673341 0.628874 -0.388754
vn -0.673341 0.628874 -0.388754
vn -0.673341 0.628874 -0.388754
vn -0.307694 0.934754 0.177648
vn -0.307694 0.934754 0.177648
vn -0.307694 0.934754 0.177648
vn -0.307694 0.934754 0.177648
vn -0.866025 -0.000000 0.500000
vn -0.866025 -0.000000 0.500000
vn -0.866025 -0.000000 0.500000
vn -0.866025 -0.000000 0.500000
vn 0.000000 0.628874 -0.777507
vn 0.000000 0.628874 -0.777507
vn 0.000000 0.628874 -0.777507
vn 0.000000 0.628874 -0.777507
vn 0.866025 0.000000 -0.500000
vn 0.866025 0.000000 -0.500000
vn 0.866025 0.000000 -0.500000
vn 0.866025 0.000000 -0.500000
vn 0.307694 -0.934754 -0.177647
vn 0.307694 -0.934754 -0.177647
vn 0.307694 -0.934754 -0.177647
vn 0.307694 -0.934754 -0.177647
vn -0.673341 0.628874 0.388753
vn -0.673341 0.628874 0.388754
vn -0.673341 0.628874 0.388754
vn -0.673341 0.628874 0.388753
vn 0.866026 0.000000 -0.500000
vn 0.866026 0.000000 -0.500000
vn 0.866026 0.000000 -0.500000
vn 0.866026 0.000000 -0.500000
vn 0.307694 0.934754 -0.177648
vn 0.307694 0.934754 -0.177648
vn 0.307694 0.934754 -0.177648
vn 0.307694 0.934754 -0.177648
vn 0.000000 0.000000 1.000000
vn 0.000000 0.000000 1.000000
vn 0.000000 0.000000 1.000000
vn 0.000000 0.000000 1.000000
vn 0.866025 0.000000 -0.500000
vn 0.866025 0.000000 -0.500000
vn 0.866025 0.000000 -0.500000
vn 0.866025 0.000000 -0.500000
vn 0.673341 0.628874 -0.388754
vn 0.673341 0.628874 -0.388754
vn 0.673341 0.628874 -0.388754
vn 0.673341 0.628874 -0.388753
vn 0.866025 0.000000 0.500000
vn 0.866025 0.000000 0.500000
vn 0.866025 0.000000 0.500000
vn 0.866025 0.000000 0.500000
vn 0.000000 -0.934754 0.355295
vn 0.000000 -0.934754 0.355295
vn 0.000000 -0.934754 0.355295
vn 0.000000 -0.934754 0.355295
vn 0.000000 0.000000 1.000000
vn 0.000000 0.000000 1.000000
vn 0.000000 0.000000 1.000000
vn 0.000000 0.000000 1.000000
vn 0.000000 0.934754 0.355294
vn 0.000000 0.934754 0.355294
vn 0.000000 0.934755 0.355294
vn 0.000000 0.934754 0.355294
vn 0.000000 0.000000 1.000000
vn 0.000000 0.000000 1.000000
vn 0.000000 0.000000 1.000000
vn 0.000000 0.000000 1.000000
vn 0.000000 0.628874 0.777508
vn 0.000000 0.628874 0.777508
vn 0.000000 0.628874 0.777507
vn 0.000000 0.628874 0.777507
vn 0.307694 -0.934754 0.177648
vn 0.307694 -0.934754 0.177648
vn 0.307694 -0.934754 0.177648
vn 0.307694 -0.934754 0.177648
vn 0.866025 0.000000 0.500000
vn 0.866025 0.000000 0.500000
vn 0.866025 0.000000 0.500000
vn 0.866025 0.000000 0.500000
vn 0.673341 0.628874 0.388754
vn 0.673341 0.628874 0.388754
vn 0.673341 0.628874 0.388754
vn 0.673341 0.628874 0.388754
vn 0.307694 0.934754 0.177648
vn 0.307694 0.934754 0.177648
vn 0.307694 0.934754 0.177648
vn 0.307694 0.934754 0.177648
vn 0.866026 0.000000 0.500000
vn 0.866026 0.000000 0.500000
vn 0.866026 0.000000 0.500000
vn 0.866026 0.000000 0.500000
vn 0.000000 -0.201535 -0.979481
vn 0.000000 -0.201535 -0.979481
vn 0.000000 -0.201535 -0.979481
vn 0.000000 -0.201535 -0.979481
vn -0.624451 -0.692879 -0.360527
vn -0.624451 -0.692879 -0.360527
vn -0.624451 -0.692879 -0.360527
vn -0.624451 -0.692879 -0.360527
vn 0.000000 -1.000000 -0.000000
vn 0.000000 -1.000000 -0.000000
vn 0.000000 -1.000000 -0.000000
vn 0.000000 -1.000000 -0.000000
vn 0.000000 -1.000000 0.000000
vn 0.000000 -1.000000 0.000000
vn 0.000000 -1.000000 0.000000
vn 0.000000 -1.000000 0.000000
vn 0.000000 -1.000000 0.000000
vn 0.000000 -1.000000 0.000000
vn 0.000000 -1.000000 0.000000
vn 0.000000 -1.000000 0.000000
vn -0.848255 -0.201535 -0.489741
vn -0.848255 -0.201535 -0.489741
vn -0.848255 -0.201535 -0.489741
vn -0.848255 -0.201535 -0.489741
vn 0.000455 0.000000 1.000000
vn 0.000455 0.000000 1.000000
vn 0.000455 0.000000 1.000000
vn 0.000455 0.000000 1.000000
vn -0.866220 0.000000 0.499663
vn -0.866220 0.000000 0.499663
vn -0.866220 0.000000 0.499663
vn -0.866220 0.000000 0.499663
vn 0.000296 0.000000 -1.000000
vn 0.000296 0.000000 -1.000000
vn 0.000296 0.000000 -1.000000
vn 0.000296 0.000000 -1.000000
vn 0.865910 0.000000 -0.500199
vn 0.865910 0.000000 -0.500199
vn 0.865910 0.000000 -0.500199
vn 0.865910 0.000000 -0.500199
vn 0.865910 0.000000 -0.500199
vn 0.865910 0.000000 -0.500199
vn 0.865910 0.000000 -0.500199
vn 0.866025 0.000000 0.500000
vn 0.866025 0.000000 0.500000
vn 0.866025 0.000000 0.500000
vn 0.866025 0.000000 0.500000
vn 0.732756 -0.533002 0.423057
vn 0.732756 -0.533002 0.423057
vn 0.732756 -0.533002 0.423057
vn 0.000384 -0.533202 0.845988
vn 0.000384 -0.533202 0.845988
vn 0.000384 -0.533202 0.845988
vn 0.732632 -0.533051 -0.423211
vn 0.732632 -0.533051 -0.423211
vn 0.732632 -0.533051 -0.423211
vn -0.732804 -0.533217 0.422704
vn -0.732804 -0.533217 0.422704
vn -0.732804 -0.533217 0.422704
vn 0.000250 -0.533066 -0.846074
vn 0.000250 -0.533066 -0.846074
vn 0.000250 -0.533066 -0.846074
vn -0.732724 -0.533060 -0.423039
vn -0.732724 -0.533060 -0.423039
vn -0.732724 -0.533060 -0.423039
vn -0.866025 0.000000 -0.500000
vn -0.866025 0.000000 -0.500000
vn -0.866025 0.000000 -0.500000
vn -0.866025 0.000000 -0.500000
vn -0.866025 0.000000 -0.500000
vn -0.866025 0.000000 -0.500000
vn -0.866025 0.000000 -0.500000
vn 0.000000 1.000000 -0.000001
vn 0.000000 1.000000 -0.000001
vn 0.000000 1.000000 -0.000001
vn 0.000000 1.000000 -0.000001
s off
f 1/1/1 2/2/2 3/3/3 4/4/4
f 1/1/5 5/5/6 6/6/7 7/7/8
f 8/8/9 9/9/10 10/10/11 11/11/12
f 6/6/13 5/5/14 12/12/15 17/13/16
f 2/2/17 1/1/18 7/7/19 13/14/20
f 12/12/21 5/5/22 9/9/23 8/8/24
f 3/3/25 14/15/26 15/16/27 16/17/28
f 2/2/29 13/14/30 18/18/31 22/19/32
f 21/20/33 19/21/34 20/22/35 23/23/36
f 7/7/37 6/6/38 20/22/39 19/21/40
f 24/24/41 8/8/42 11/11/43 25/25/44
f 23/23/45 20/22/46 26/26/47 28/27/48
f 13/14/49 7/7/50 19/21/51 27/28/52
f 2/2/53 22/19/54 14/15/55 3/3/56
f 14/15/57 24/24/58 25/25/59 15/16/60
f 6/6/61 17/13/62 26/26/63 20/22/64
f 29/29/65 12/12/66 8/8/67 24/24/68
f 31/30/69 30/31/70 27/28/71 32/32/72
f 22/19/73 29/29/74 24/24/75 14/15/76
f 27/28/77 19/21/78 21/20/79 32/32/80
f 12/12/81 29/29/82 33/33/83 17/13/84
f 18/18/85 13/14/86 27/28/87 30/31/88
f 34/34/89 35/35/90 36/36/91 37/37/92
f 39/38/93 38/39/94 30/31/95 31/30/96
f 40/48/97 41/49/98 35/35/99 34/34/100
f 21/20/101 23/23/102 41/41/103 40/40/104
f 29/29/105 22/19/106 18/18/107 33/33/108
f 17/13/109 33/33/110 38/39/111 26/26/112
f 42/62/113 43/63/114 37/37/115 36/36/116
f 59/44/117 45/45/118 50/46/119 61/47/120
f 46/69/121 34/34/122 37/37/123 47/70/124
f 32/32/125 21/20/126 40/40/127 48/50/128
f 48/74/129 40/48/130 34/34/131 46/69/132
f 33/33/133 18/18/134 30/31/135 38/39/136
f 51/51/137 52/52/138 10/10/139
f 11/11/140 10/10/141 52/52/142 53/53/143
f 25/25/144 11/11/145 53/53/146 54/54/147
f 56/55/148 15/16/149 55/56/150
f 55/56/151 15/16/152 25/25/153 54/54/154
f 43/43/155 42/42/156 57/57/157 58/58/158
f 43/63/159 60/77/160 47/70/161 37/37/162
f 23/23/163 28/27/164 62/60/165 41/41/166
f 60/59/167 43/43/168 58/58/169 63/61/170
f 41/49/171 62/88/172 64/89/173 35/35/174
f 35/35/175 64/89/176 65/90/177 36/36/178
f 26/26/179 38/39/180 39/38/181 28/27/182
f 58/58/183 57/57/184 45/45/185 44/64/186
f 66/91/187 42/62/188 36/36/189 65/90/190
f 42/42/191 66/65/192 67/66/193 57/57/194
f 63/61/195 58/58/196 44/64/197 49/67/198
f 31/30/199 32/32/200 48/50/201 68/68/202
f 68/92/203 48/74/204 46/69/205 69/93/206
f 57/57/207 67/66/208 50/46/209 45/45/210
f 69/93/211 46/69/212 47/70/213 70/94/214
f 60/77/215 71/95/216 70/94/217 47/70/218
f 28/27/219 39/38/220 72/72/221 62/60/222
f 71/71/223 60/59/224 63/61/225 73/73/226
f 73/73/227 63/61/228 49/67/229 59/44/230
f 39/38/231 31/30/232 68/68/233 72/72/234
f 62/88/235 72/96/236 74/97/237 64/89/238
f 66/65/239 75/75/240 76/76/241 67/66/242
f 75/98/243 66/91/244 65/90/245 77/99/246
f 64/89/247 74/97/248 77/99/249 65/90/250
f 67/66/251 76/76/252 61/47/253 50/46/254
f 72/96/255 68/92/256 69/93/257 74/97/258
f 75/75/259 71/71/260 73/73/261 76/76/262
f 76/76/263 73/73/264 59/44/265 61/47/266
f 71/95/267 75/98/268 77/99/269 70/94/270
f 74/97/271 69/93/272 70/94/273 77/99/274
f 4/4/275 3/3/276 16/17/277 78/78/278
f 5/5/279 1/1/280 4/4/281 9/9/282
f 16/17/283 15/16/284 56/55/285 79/79/286
f 51/51/287 10/10/288 78/78/289 80/80/290
f 80/80/291 78/78/292 16/17/293 79/79/294
f 9/9/295 4/4/296 78/78/297 10/10/298
f 54/81/299 53/82/300 81/83/301 85/84/302
f 53/82/303 52/85/304 82/86/305 81/83/306
f 80/87/307 79/100/308 83/101/309 86/102/310
f 83/101/311 79/100/312 56/103/313 84/104/314
f 55/105/315 84/104/316 56/103/317
f 54/81/318 85/84/319 84/104/320 55/105/321
f 84/104/322 85/84/323 87/106/324
f 85/84/325 81/83/326 87/106/327
f 83/101/328 84/104/329 87/106/330
f 81/83/331 82/86/332 87/106/333
f 86/102/334 83/101/335 87/106/336
f 82/86/337 86/102/338 87/106/339
f 52/85/340 51/107/341 82/86/342
f 82/86/343 51/107/344 80/87/345 86/102/346
f 59/44/347 49/67/348 44/64/349 45/45/350
