# This file uses centimeters as units for non-parametric coordinates.

v -1.044183 -62.867683 -5.360871
v 1.044183 -62.867683 -5.360871
v 2.088366 -65.569374 -1.049267
v 0.965222 -65.484703 2.361115
v -0.965221 -65.484703 2.361115
v -2.088365 -65.569374 -1.049266
v 0.000000 -67.178520 -1.331924
v 1.200368 25.610428 -6.244752
v 2.400736 25.610428 -1.275454
v 1.109596 25.610428 1.751140
v -1.109595 25.610428 1.751140
v -2.400735 25.610428 -1.275453
v -1.200368 25.610428 -6.244750
v 3.393042 26.087265 -1.491220
v 1.696520 26.087265 -8.850670
v 1.931268 26.087265 2.443632
v -1.931267 26.087265 2.443632
v -3.393042 26.087265 -1.491219
v -1.696522 26.087265 -8.850668
v 1.747355 33.436790 1.838450
v -1.747354 33.436790 1.838450
v -3.069925 33.800346 -1.491219
v -1.696522 33.436790 -8.850668
v 1.696520 33.436790 -8.850670
v 3.069925 33.800346 -1.491220
v -2.400735 -61.795555 -0.466640
v -1.109595 -61.658104 1.312396
v 1.109596 -61.658104 1.312395
v 2.400736 -61.795555 -0.466641
v 1.200368 -59.871864 -4.020170
v -1.200368 -59.871864 -4.020169
v -1.200368 -41.267021 -6.971823
v 1.200368 -41.267021 -6.971824
v 2.400736 -41.613976 -3.791943
v 1.109596 -41.833000 -1.784596
v -1.109595 -41.833000 -1.784595
v -2.400735 -41.613976 -3.791942
v -1.200368 16.451973 -6.309289
v 1.200368 16.451973 -6.309291
v 2.400736 16.012367 -1.661381
v 1.109596 15.744621 1.169468
v -1.109595 15.744621 1.169468
v -2.400735 16.012367 -1.661380
v -1.109595 0.515427 2.580016
v 1.109596 0.515427 2.580015
v 2.400736 0.341675 0.568244
v 1.200368 0.066429 -2.618644
v -1.200368 0.066429 -2.618643
v -2.400735 0.341675 0.568245
v 0.730129 34.228294 12.467197
v -0.730128 34.228294 12.467197
v -0.806976 21.380112 12.060595
v 0.806976 21.380112 12.060595
v -0.753182 31.222893 13.048973
v 0.753183 31.222893 13.048973
v 0.789149 24.718102 13.332203
v -0.789148 24.718102 13.332203
v 0.172245 34.638145 16.922249
v 0.172245 31.098755 17.479200
v 0.172245 23.197212 17.787254
v 0.172245 18.642937 15.708361
v -2.321917 34.081169 -1.182398
v 2.321917 34.081169 -1.182399
v 1.283152 33.806190 -6.140951
v -1.283153 33.806190 -6.140951
v 1.321600 33.806190 1.360201
v -1.321600 33.806190 1.360201
v -2.140885 35.593048 -1.276580
v 2.140885 35.593048 -1.276580
v 1.183109 35.339508 -5.848532
v -1.183110 35.339508 -5.848532
v 1.218560 35.339508 1.067781
v -1.218559 35.339508 1.067781
v -0.075336 34.595856 16.686108
v -0.077715 31.111563 17.267883
v -0.081426 23.619499 17.422001
v -0.083266 18.925367 15.555518
vt 0.162887 0.110660
vt 0.162899 0.110680
vt 0.162931 0.110814
vt 0.162919 0.110793
vt 0.162936 0.110676
vt 0.162968 0.110819
vt 0.162948 0.110656
vt 0.162977 0.110796
vt 0.162936 0.110638
vt 0.162965 0.110777
vt 0.162911 0.110636
vt 0.162944 0.110777
vt 0.162908 0.110824
vt 0.057841 0.278956
vt 0.057841 0.278956
vt 0.057841 0.278956
vt 0.057841 0.278956
vt 0.057841 0.278956
vt 0.057841 0.278956
vt 0.057841 0.278956
vt 0.057841 0.278956
vt 0.057841 0.278956
vt 0.057841 0.278956
vt 0.057841 0.278956
vt 0.057841 0.278956
vt 0.057841 0.278956
vt 0.057841 0.278956
vt 0.057841 0.278956
vt 0.057841 0.278956
vt 0.057841 0.278956
vt 0.057841 0.278956
vt 0.057841 0.278956
vt 0.057841 0.278956
vt 0.057841 0.278956
vt 0.162918 0.110844
vt 0.162949 0.110843
vt 0.162962 0.110848
vt 0.162985 0.110818
vt 0.162975 0.110801
vt 0.162941 0.110811
vt 0.162877 0.110090
vt 0.162890 0.110100
vt 0.162934 0.110269
vt 0.162920 0.110255
vt 0.162949 0.110097
vt 0.162974 0.110261
vt 0.162971 0.110087
vt 0.162986 0.110245
vt 0.162957 0.110078
vt 0.162972 0.110233
vt 0.162920 0.110077
vt 0.162945 0.110235
vt 0.162874 0.109982
vt 0.162888 0.109990
vt 0.162952 0.109983
vt 0.162976 0.109972
vt 0.162962 0.109965
vt 0.162922 0.109967
vt 0.057841 0.278956
vt 0.132989 0.305341
vt 0.057841 0.278956
vt 0.132989 0.305341
vt 0.132989 0.305341
vt 0.132989 0.305341
vt 0.132989 0.305341
vt 0.132989 0.305341
vt 0.132989 0.305341
vt 0.132989 0.305341
vt 0.132989 0.305341
vt 0.102369 0.351635
vt 0.132989 0.305341
vt 0.132989 0.305341
vt 0.132989 0.305341
vt 0.132989 0.305341
vt 0.132989 0.305341
vt 0.132989 0.305341
vt 0.057841 0.278956
vt 0.132989 0.305341
vt 0.132989 0.305341
vt 0.132989 0.305341
vt 0.057841 0.278956
vt 0.132989 0.305341
vt 0.057841 0.278956
vt 0.132989 0.305341
vt 0.057841 0.278956
vt 0.132989 0.305341
vt 0.102369 0.351635
vt 0.132989 0.305341
vt 0.057841 0.278956
vt 0.132989 0.305341
vt 0.057841 0.278956
vt 0.132989 0.305341
vt 0.102369 0.351635
vt 0.102369 0.351635
vt 0.102369 0.351635
vt 0.102369 0.351635
vt 0.057841 0.278956
vt 0.057841 0.278956
vt 0.057841 0.278956
vt 0.057841 0.278956
vt 0.057841 0.278956
vt 0.057841 0.278956
vt 0.162922 0.109848
vt 0.162949 0.109858
vt 0.162889 0.109866
vt 0.162875 0.109860
vt 0.162953 0.109850
vt 0.162969 0.109856
vt 0.162951 0.109878
vt 0.162887 0.109887
vt 0.162872 0.109880
vt 0.162922 0.109866
vt 0.162956 0.109868
vt 0.162973 0.109875
vt 0.102369 0.351635
vt 0.132989 0.305341
vt 0.132989 0.305341
vt 0.132989 0.305341
vt 0.132989 0.305341
vt 0.132989 0.305341
vt 0.132989 0.305341
vt 0.102369 0.351635
vn -0.000000 -0.156690 -0.987648
vn -0.000000 -0.156690 -0.987648
vn -0.000000 -0.156690 -0.987648
vn -0.000000 -0.156690 -0.987648
vn 0.934153 -0.057012 -0.352290
vn 0.934153 -0.057012 -0.352290
vn 0.934153 -0.057012 -0.352290
vn 0.934153 -0.057012 -0.352290
vn 0.821880 0.090292 0.562460
vn 0.821880 0.090292 0.562460
vn 0.821880 0.090292 0.562460
vn 0.821880 0.090292 0.562460
vn 0.000000 0.154344 0.988017
vn 0.000000 0.154344 0.988017
vn 0.000000 0.154344 0.988017
vn 0.000000 0.154344 0.988017
vn -0.821880 0.090292 0.562460
vn -0.821880 0.090292 0.562460
vn -0.821880 0.090292 0.562460
vn -0.821880 0.090292 0.562460
vn -0.934153 -0.057012 -0.352289
vn -0.934153 -0.057012 -0.352289
vn -0.934153 -0.057012 -0.352289
vn -0.934153 -0.057012 -0.352289
vn 0.000000 -0.682817 -0.730590
vn 0.000000 -0.682817 -0.730590
vn 0.000000 -0.682817 -0.730590
vn 0.560540 -0.633860 -0.532932
vn 0.560540 -0.633860 -0.532932
vn 0.560540 -0.633860 -0.532932
vn 0.578720 -0.787984 0.210154
vn 0.578720 -0.787984 0.210154
vn 0.578720 -0.787984 0.210154
vn 0.000000 -0.908956 0.416892
vn 0.000000 -0.908956 0.416892
vn 0.000000 -0.908956 0.416892
vn -0.578720 -0.787983 0.210158
vn -0.578720 -0.787983 0.210158
vn -0.578720 -0.787983 0.210158
vn -0.560539 -0.633859 -0.532935
vn -0.560539 -0.633859 -0.532935
vn -0.560539 -0.633859 -0.532935
vn 0.978615 0.020993 -0.204629
vn 0.978615 0.020993 -0.204629
vn 0.978615 0.020993 -0.204629
vn 0.978615 0.020993 -0.204629
vn 0.932014 0.045818 0.359515
vn 0.932014 0.045818 0.359515
vn 0.932014 0.045818 0.359515
vn 0.932014 0.045818 0.359515
vn -0.932014 0.045818 0.359515
vn -0.932014 0.045818 0.359515
vn -0.932014 0.045818 0.359515
vn -0.932014 0.045818 0.359515
vn -0.978615 0.020993 -0.204628
vn -0.978615 0.020993 -0.204628
vn -0.978615 0.020993 -0.204628
vn -0.978615 0.020993 -0.204628
vn -0.000001 0.000000 -1.000000
vn -0.000001 0.000000 -1.000000
vn -0.000001 0.000000 -1.000000
vn -0.000001 0.000000 -1.000000
vn 0.403414 -0.910094 -0.094791
vn 0.403414 -0.910094 -0.094791
vn 0.403414 -0.910094 -0.094791
vn 0.403414 -0.910094 -0.094791
vn 0.423887 -0.890068 0.167627
vn 0.423887 -0.890068 0.167627
vn 0.423887 -0.890068 0.167627
vn 0.423887 -0.890068 0.167627
vn 0.000000 -0.823626 0.567133
vn 0.000000 -0.823626 0.567133
vn 0.000000 -0.823626 0.567133
vn 0.000000 -0.823626 0.567133
vn -0.423887 -0.890068 0.167628
vn -0.423887 -0.890068 0.167628
vn -0.423887 -0.890068 0.167628
vn -0.423887 -0.890068 0.167628
vn -0.403414 -0.910095 -0.094790
vn -0.403414 -0.910095 -0.094790
vn -0.403414 -0.910095 -0.094790
vn -0.403414 -0.910095 -0.094790
vn -0.000000 -0.983668 -0.179994
vn -0.000000 -0.983668 -0.179994
vn -0.000000 -0.983668 -0.179994
vn -0.000000 -0.983668 -0.179994
vn -0.905845 -0.028518 0.422648
vn -0.905845 -0.028518 0.422648
vn -0.905845 -0.028518 0.422648
vn -0.905845 -0.028518 0.422648
vn 0.000000 0.264314 0.964437
vn 0.000000 0.264314 0.964437
vn 0.000000 0.264314 0.964437
vn 0.000000 0.264314 0.964437
vn 0.905845 -0.028518 0.422649
vn 0.905845 -0.028518 0.422649
vn 0.905845 -0.028518 0.422649
vn 0.905845 -0.028518 0.422649
vn 0.963068 0.009791 -0.269082
vn 0.963068 0.009791 -0.269082
vn 0.963068 0.009791 -0.269082
vn 0.963068 0.009791 -0.269082
vn -0.000000 0.408484 -0.912765
vn -0.000000 0.408484 -0.912765
vn -0.000000 0.408484 -0.912765
vn -0.000000 0.408484 -0.912765
vn -0.963068 0.009791 -0.269082
vn -0.963068 0.009791 -0.269082
vn -0.963068 0.009791 -0.269082
vn -0.963068 0.009791 -0.269082
vn -0.000000 -0.219733 -0.975560
vn -0.000000 -0.219733 -0.975560
vn -0.000000 -0.219733 -0.975560
vn -0.000000 -0.219733 -0.975560
vn 0.954395 -0.054220 -0.293583
vn 0.954395 -0.054220 -0.293583
vn 0.954395 -0.054220 -0.293583
vn 0.954395 -0.054220 -0.293583
vn 0.880583 0.055444 0.470638
vn 0.880583 0.055444 0.470638
vn 0.880583 0.055444 0.470638
vn 0.880583 0.055444 0.470638
vn 0.000000 0.092227 0.995738
vn 0.000000 0.092227 0.995738
vn 0.000000 0.092227 0.995738
vn 0.000000 0.092227 0.995738
vn -0.880583 0.055444 0.470638
vn -0.880583 0.055444 0.470638
vn -0.880583 0.055444 0.470638
vn -0.880583 0.055444 0.470638
vn -0.954395 -0.054220 -0.293582
vn -0.954395 -0.054220 -0.293582
vn -0.954395 -0.054220 -0.293582
vn -0.954395 -0.054220 -0.293582
vn -0.000001 0.007047 -0.999975
vn -0.000001 0.007047 -0.999975
vn -0.000001 0.007047 -0.999975
vn -0.000001 0.007047 -0.999975
vn 0.970273 0.005811 -0.241943
vn 0.970273 0.005811 -0.241943
vn 0.970273 0.005811 -0.241943
vn 0.970273 0.005811 -0.241943
vn 0.915181 -0.020012 0.402547
vn 0.915181 -0.020012 0.402547
vn 0.915181 -0.020012 0.402547
vn 0.915181 -0.020012 0.402547
vn 0.000000 -0.058856 0.998266
vn 0.000000 -0.058856 0.998266
vn 0.000000 -0.058856 0.998266
vn 0.000000 -0.058856 0.998266
vn -0.915181 -0.020012 0.402547
vn -0.915181 -0.020012 0.402547
vn -0.915181 -0.020012 0.402547
vn -0.915181 -0.020012 0.402547
vn -0.970273 0.005811 -0.241943
vn -0.970273 0.005811 -0.241943
vn -0.970273 0.005811 -0.241943
vn -0.970273 0.005811 -0.241943
vn 0.000000 -0.102521 0.994731
vn 0.000000 -0.102521 0.994731
vn 0.000000 -0.102521 0.994731
vn 0.000000 -0.102521 0.994731
vn 0.840290 -0.055809 0.539257
vn 0.840290 -0.055809 0.539257
vn 0.840290 -0.055809 0.539257
vn 0.840290 -0.055809 0.539257
vn 0.935191 0.036848 -0.352220
vn 0.935191 0.036848 -0.352220
vn 0.935191 0.036848 -0.352220
vn 0.935191 0.036848 -0.352220
vn -0.000000 0.104739 -0.994500
vn -0.000000 0.104739 -0.994500
vn -0.000000 0.104739 -0.994500
vn -0.000000 0.104739 -0.994500
vn -0.935192 0.036848 -0.352220
vn -0.935192 0.036848 -0.352220
vn -0.935192 0.036848 -0.352220
vn -0.935192 0.036848 -0.352220
vn -0.840290 -0.055809 0.539257
vn -0.840290 -0.055809 0.539257
vn -0.840290 -0.055809 0.539257
vn -0.840290 -0.055809 0.539257
vn -0.000000 0.998466 -0.055370
vn -0.000000 0.998466 -0.055370
vn -0.000000 0.998466 -0.055370
vn -0.000000 0.998466 -0.055370
vn 0.000000 0.994203 0.107522
vn 0.000000 0.994203 0.107522
vn 0.000000 0.994203 0.107522
vn 0.000000 0.994203 0.107522
vn 0.000000 0.997239 -0.074262
vn 0.000000 0.997239 -0.074262
vn 0.000000 0.997239 -0.074262
vn 0.000000 0.997239 -0.074262
vn -0.994596 -0.004977 0.103699
vn -0.994596 -0.004977 0.103699
vn -0.994596 -0.004977 0.103699
vn -0.994596 -0.004977 0.103699
vn -0.995070 0.030699 0.094307
vn -0.995070 0.030699 0.094307
vn -0.995070 0.030699 0.094307
vn -0.995070 0.030699 0.094307
vn 0.000000 -0.898181 -0.439627
vn 0.000000 -0.898181 -0.439627
vn 0.000000 -0.898181 -0.439627
vn 0.000000 -0.898181 -0.439627
vn 0.994596 -0.004977 0.103699
vn 0.994596 -0.004977 0.103699
vn 0.994596 -0.004977 0.103699
vn 0.994596 -0.004977 0.103699
vn 0.995070 0.030699 0.094307
vn 0.995070 0.030699 0.094307
vn 0.995070 0.030699 0.094307
vn 0.995070 0.030699 0.094307
vn -0.012339 0.995944 -0.089125
vn -0.012339 0.995944 -0.089125
vn -0.012339 0.995944 -0.089125
vn -0.012339 0.995944 -0.089125
vn -0.667816 0.119340 0.734697
vn -0.667816 0.119340 0.734697
vn -0.667816 0.119340 0.734697
vn -0.667816 0.119340 0.734697
vn 0.991667 0.025465 0.126283
vn 0.991667 0.025465 0.126283
vn 0.991667 0.025465 0.126283
vn 0.991667 0.025465 0.126283
vn -0.828366 -0.219671 0.515320
vn -0.828366 -0.219671 0.515320
vn -0.828366 -0.219671 0.515320
vn -0.828366 -0.219671 0.515320
vn -0.074045 -0.807103 -0.585749
vn -0.074045 -0.807103 -0.585749
vn -0.074045 -0.807103 -0.585749
vn -0.074045 -0.807103 -0.585749
vn 0.990694 -0.051287 0.126080
vn 0.990694 -0.051287 0.126080
vn 0.990694 -0.051287 0.126080
vn 0.990694 -0.051287 0.126080
vn -0.745391 0.020185 0.666321
vn -0.745391 0.020185 0.666321
vn -0.745391 0.020185 0.666321
vn -0.745391 0.020185 0.666321
vn 0.990806 0.008017 0.135057
vn 0.990806 0.008017 0.135057
vn 0.990806 0.008017 0.135057
vn 0.990806 0.008017 0.135057
vn 0.269758 0.957462 -0.102458
vn 0.269758 0.957462 -0.102458
vn 0.269758 0.957462 -0.102458
vn 0.269758 0.957462 -0.102458
vn -0.000000 0.990835 -0.135075
vn -0.000000 0.990835 -0.135075
vn -0.000000 0.990835 -0.135075
vn -0.000000 0.990835 -0.135075
vn -0.269758 0.957462 -0.102458
vn -0.269758 0.957462 -0.102458
vn -0.269758 0.957462 -0.102458
vn -0.269758 0.957462 -0.102458
vn 0.000000 0.791410 0.611286
vn 0.000000 0.791410 0.611286
vn 0.000000 0.791410 0.611286
vn 0.000000 0.791410 0.611286
vn 0.437359 0.858922 0.266401
vn 0.437359 0.858922 0.266401
vn 0.437359 0.858922 0.266401
vn 0.437359 0.858922 0.266401
vn -0.437358 0.858922 0.266403
vn -0.437358 0.858922 0.266403
vn -0.437358 0.858922 0.266403
vn -0.437358 0.858922 0.266403
vn 0.972343 0.103382 -0.209429
vn 0.972343 0.103382 -0.209429
vn 0.972343 0.103382 -0.209429
vn 0.972343 0.103382 -0.209429
vn 0.000000 0.187334 -0.982296
vn 0.000000 0.187334 -0.982296
vn 0.000000 0.187334 -0.982296
vn 0.000000 0.187334 -0.982296
vn -0.972344 0.103382 -0.209429
vn -0.972344 0.103382 -0.209429
vn -0.972344 0.103382 -0.209429
vn -0.972344 0.103382 -0.209429
vn 0.000000 0.187334 0.982296
vn 0.000000 0.187334 0.982296
vn 0.000000 0.187334 0.982296
vn 0.000000 0.187334 0.982296
vn 0.917286 0.133214 0.375288
vn 0.917286 0.133214 0.375288
vn 0.917286 0.133214 0.375288
vn 0.917286 0.133214 0.375288
vn -0.917285 0.133214 0.375289
vn -0.917285 0.133214 0.375289
vn -0.917285 0.133214 0.375289
vn -0.917285 0.133214 0.375289
vn -0.987453 0.031609 0.154716
vn -0.987453 0.031609 0.154716
vn -0.987453 0.031609 0.154716
vn -0.987453 0.031609 0.154716
vn -0.986205 0.007962 0.165338
vn -0.986205 0.007962 0.165338
vn -0.986205 0.007962 0.165338
vn -0.986205 0.007962 0.165338
vn -0.985621 -0.059390 0.158189
vn -0.985621 -0.059390 0.158189
vn -0.985621 -0.059390 0.158189
vn -0.985621 -0.059390 0.158189
s off
f 32/1/1 33/2/2 30/3/3 31/4/4
f 33/2/5 34/5/6 29/6/7 30/3/8
f 34/5/9 35/7/10 28/8/11 29/6/12
f 35/7/13 36/9/14 27/10/15 28/8/16
f 36/9/17 37/11/18 26/12/19 27/10/20
f 37/11/21 32/1/22 31/4/23 26/12/24
f 1/13/25 2/35/26 7/36/27
f 2/35/28 3/37/29 7/36/30
f 3/37/31 4/38/32 7/36/33
f 4/38/34 5/39/35 7/36/36
f 5/39/37 6/40/38 7/36/39
f 6/40/40 1/13/41 7/36/42
f 24/33/43 25/34/44 14/21/45 15/22/46
f 25/34/47 20/28/48 16/23/49 14/21/50
f 21/29/51 22/30/52 18/25/53 17/24/54
f 22/30/55 23/31/56 19/26/57 18/25/58
f 23/32/59 24/33/60 15/22/61 19/27/62
f 9/15/63 8/14/64 15/22/65 14/21/66
f 10/16/67 9/15/68 14/21/69 16/23/70
f 11/17/71 10/16/72 16/23/73 17/24/74
f 12/18/75 11/17/76 17/24/77 18/25/78
f 13/19/79 12/18/80 18/25/81 19/26/82
f 8/14/83 13/20/84 19/27/85 15/22/86
f 27/10/87 26/12/88 6/40/89 5/39/90
f 28/8/91 27/10/92 5/39/93 4/38/94
f 29/6/95 28/8/96 4/38/97 3/37/98
f 30/3/99 29/6/100 3/37/101 2/35/102
f 31/4/103 30/3/104 2/35/105 1/13/106
f 26/12/107 31/4/108 1/13/109 6/40/110
f 38/41/111 39/42/112 47/43/113 48/44/114
f 39/42/115 40/45/116 46/46/117 47/43/118
f 40/45/119 41/47/120 45/48/121 46/46/122
f 41/47/123 42/49/124 44/50/125 45/48/126
f 42/49/127 43/51/128 49/52/129 44/50/130
f 43/51/131 38/41/132 48/44/133 49/52/134
f 13/53/135 8/54/136 39/42/137 38/41/138
f 8/54/139 9/55/140 40/45/141 39/42/142
f 9/55/143 10/56/144 41/47/145 40/45/146
f 10/56/147 11/57/148 42/49/149 41/47/150
f 11/57/151 12/58/152 43/51/153 42/49/154
f 12/58/155 13/53/156 38/41/157 43/51/158
f 45/48/159 44/50/160 36/9/161 35/7/162
f 46/46/163 45/48/164 35/7/165 34/5/166
f 47/43/167 46/46/168 34/5/169 33/2/170
f 48/44/171 47/43/172 33/2/173 32/1/174
f 49/52/175 48/44/176 32/1/177 37/11/178
f 44/50/179 49/52/180 37/11/181 36/9/182
f 68/103/183 69/104/184 70/105/185 71/106/186
f 73/107/187 72/108/188 69/104/189 68/103/190
f 20/28/191 21/29/192 51/91/193 50/59/194
f 17/24/195 52/61/196 57/81/197 54/89/198
f 21/29/199 17/24/200 54/89/201 51/91/202
f 17/24/203 16/23/204 53/77/205 52/61/206
f 56/83/207 53/77/208 16/23/209 55/85/210
f 55/85/211 16/23/212 20/28/213 50/59/214
f 50/70/215 51/87/216 74/115/217 58/93/218
f 74/116/219 75/117/220 59/71/221 58/67/222
f 55/64/223 50/92/224 58/88/225 59/72/226
f 76/119/227 77/121/228 61/78/229 60/75/230
f 52/94/231 53/95/232 61/96/233 77/122/234
f 53/62/235 56/84/236 60/74/237 61/79/238
f 75/118/239 76/120/240 60/76/241 59/68/242
f 56/65/243 55/86/244 59/73/245 60/69/246
f 25/34/247 24/33/248 64/98/249 63/97/250
f 24/33/251 23/31/252 65/99/253 64/98/254
f 23/31/255 22/30/256 62/100/257 65/99/258
f 21/29/259 20/28/260 66/102/261 67/101/262
f 20/28/263 25/34/264 63/97/265 66/102/266
f 22/30/267 21/29/268 67/101/269 62/100/270
f 63/109/271 64/110/272 70/105/273 69/104/274
f 64/110/275 65/111/276 71/106/277 70/105/278
f 65/111/279 62/112/280 68/103/281 71/106/282
f 67/113/283 66/114/284 72/108/285 73/107/286
f 66/114/287 63/109/288 69/104/289 72/108/290
f 62/112/291 67/113/292 73/107/293 68/103/294
f 51/60/295 54/90/296 75/117/297 74/116/298
f 54/63/299 57/82/300 76/120/301 75/118/302
f 57/66/303 52/80/304 77/121/305 76/119/306
