# This file uses centimeters as units for non-parametric coordinates.

v 42.551041 0.000030 120.367050
v -42.550850 0.000030 120.367050
v 42.551041 460.438660 37.342453
v -42.550850 460.438660 37.342453
v 42.551041 460.438660 -37.342262
v -42.550850 460.438660 -37.342262
v 42.551041 0.000030 45.682526
v -42.550850 0.000030 45.682526
v 42.551041 415.904358 37.342453
v -42.550850 415.904358 37.342453
v -42.550850 415.904541 -37.342262
v 42.551041 415.904541 -37.342262
v 33.252300 410.186066 29.181890
v -33.252113 410.186066 29.181890
v -33.252113 410.186432 -29.181700
v 33.252300 410.186432 -29.181700
v 33.252300 372.822876 29.181890
v -33.252113 372.822876 29.181890
v -33.252113 372.822876 -29.181700
v 33.252300 372.822876 -29.181700
v 40.751770 364.806427 39.163490
v -42.550850 364.806427 37.342453
v -38.959885 364.806427 -36.828190
v 42.551041 364.806427 -37.342262
v 42.551041 325.909821 37.342453
v -42.550850 325.909821 37.342453
v -42.550850 325.909821 -37.342262
v 42.551041 325.909821 -37.342262
v 42.551041 282.611237 37.342453
v -26.666880 274.474335 37.342453
v -42.550850 231.252930 -37.342262
v 42.551041 229.478790 -22.917862
v 33.252300 259.588348 29.181890
v -33.252113 266.788391 29.181890
v -33.252113 206.445663 -29.181700
v 33.255440 206.450897 -29.190128
v 33.252300 211.277802 112.206673
v -33.252113 213.235733 112.206673
v -33.252113 162.708435 53.842892
v 33.252300 165.079636 53.842892
v 30.469154 205.845261 120.367050
v -42.550850 200.287781 120.367050
v -32.440926 156.332321 45.682526
v 42.551041 154.894760 45.682526
v -42.550850 294.327484 37.342453
v -42.550850 274.474335 26.083063
v 42.551041 175.449661 120.367050
v 42.551041 205.845261 100.416153
v -42.550850 156.332321 54.619774
v -42.550850 135.903824 45.682526
v 42.551041 238.740402 -37.342262
v 29.137283 219.365417 -37.342262
v -42.550850 42.236279 120.367050
v -42.550850 148.452408 120.367050
v -25.024963 109.118629 120.367050
v -42.550850 110.507492 87.469780
v 42.551041 129.214355 45.682526
v 42.551041 46.065937 45.682526
v 19.664349 87.647858 45.682526
v 42.551041 95.565231 69.580521
v 0.121738 460.438660 37.342453
vt 0.835441 0.460833
vt 0.835441 0.460833
vt 0.835441 0.460833
vt 0.835441 0.460833
vt 0.835441 0.460833
vt 0.835441 0.460833
vt 0.835441 0.460833
vt 0.835441 0.460833
vt 0.835441 0.460833
vt 0.835441 0.460833
vt 0.835441 0.460833
vt 0.835441 0.460833
vt 0.835441 0.460833
vt 0.835441 0.460833
vt 0.835441 0.460833
vt 0.835441 0.460833
vt 0.832523 0.414661
vt 0.832523 0.414661
vt 0.832523 0.414661
vt 0.832523 0.414661
vt 0.832523 0.414661
vt 0.832523 0.414661
vt 0.835441 0.460833
vt 0.835441 0.460833
vt 0.835441 0.460833
vt 0.835441 0.460833
vt 0.835441 0.460833
vt 0.835441 0.460833
vt 0.835441 0.460833
vt 0.835441 0.460833
vt 0.835441 0.460833
vt 0.835441 0.460833
vt 0.835441 0.460833
vt 0.835441 0.460833
vt 0.835441 0.460833
vt 0.835441 0.460833
vt 0.835441 0.460833
vt 0.835441 0.460833
vt 0.835441 0.460833
vt 0.835441 0.460833
vt 0.835441 0.460833
vt 0.835441 0.460833
vt 0.832523 0.414661
vt 0.832523 0.414661
vt 0.832523 0.414661
vt 0.832523 0.414661
vt 0.832523 0.414661
vt 0.832523 0.414661
vt 0.835441 0.460833
vt 0.835441 0.460833
vt 0.835441 0.460833
vt 0.835441 0.460833
vt 0.835441 0.460833
vt 0.835441 0.460833
vt 0.835441 0.460833
vt 0.835441 0.460833
vt 0.835441 0.460833
vt 0.835441 0.460833
vt 0.835441 0.460833
vt 0.835441 0.460833
vt 0.835441 0.460833
vt 0.835441 0.460833
vt 0.835441 0.460833
vt 0.835441 0.460833
vt 0.835441 0.460833
vt 0.835441 0.460833
vt 0.835441 0.460833
vt 0.835441 0.460833
vt 0.835441 0.460833
vt 0.835441 0.460833
vt 0.835441 0.460833
vt 0.835441 0.460833
vt 0.835441 0.460833
vt 0.835441 0.460833
vt 0.835441 0.460833
vt 0.835441 0.460833
vt 0.835441 0.460833
vt 0.835441 0.460833
vt 0.835441 0.460833
vt 0.835441 0.460833
vt 0.835441 0.460833
vt 0.835441 0.460833
vt 0.835441 0.460833
vt 0.835441 0.460833
vt 0.835441 0.460833
vt 0.835441 0.460833
vt 0.835441 0.460833
vt 0.835441 0.460833
vt 0.835441 0.460833
vt 0.835441 0.460833
vt 0.835441 0.460833
vt 0.835441 0.460833
vt 0.835441 0.460833
vt 0.835441 0.460833
vt 0.835441 0.460833
vt 0.835441 0.460833
vt 0.832523 0.414661
vt 0.832523 0.414661
vt 0.835441 0.460833
vt 0.832523 0.414661
vt 0.832523 0.414661
vt 0.835441 0.460833
vt 0.832523 0.414661
vt 0.832523 0.414661
vt 0.832523 0.414661
vt 0.832523 0.414661
vt 0.835441 0.460833
vt 0.835441 0.460833
vt 0.832523 0.414661
vt 0.835441 0.460833
vt 0.835441 0.460833
vt 0.832523 0.414661
vt 0.835440 0.460833
vt 0.835441 0.460833
vt 0.835441 0.460833
vt 0.835441 0.460833
vt 0.835441 0.460833
vt 0.835441 0.460833
vt 0.835441 0.460833
vt 0.835441 0.460833
vt 0.835441 0.460833
vt 0.835441 0.460833
vt 0.835441 0.460833
vt 0.835441 0.460833
vt 0.835441 0.460833
vt 0.835441 0.460833
vt 0.835441 0.460833
vt 0.835441 0.460833
vt 0.835441 0.460833
vt 0.835441 0.460833
vt 0.835441 0.460833
vt 0.835441 0.460833
vt 0.832523 0.414661
vt 0.832523 0.414661
vt 0.835441 0.460833
vt 0.832523 0.414661
vt 0.832523 0.414661
vt 0.835441 0.460833
vt 0.832523 0.414661
vt 0.832523 0.414661
vt 0.832523 0.414661
vt 0.832523 0.414661
vt 0.835441 0.460833
vt 0.835441 0.460833
vt 0.832523 0.414661
vt 0.835441 0.460833
vt 0.835441 0.460833
vt 0.832523 0.414661
vt 0.835441 0.460833
vt 0.835441 0.460833
vt 0.835441 0.460833
vt 0.835441 0.460833
vt 0.835441 0.460833
vt 0.835441 0.460833
vt 0.835441 0.460833
vt 0.835441 0.460833
vt 0.835441 0.460833
vt 0.835441 0.460833
vt 0.835441 0.460833
vt 0.835441 0.460833
vt 0.835441 0.460833
vt 0.835441 0.460833
vt 0.835441 0.460833
vt 0.835441 0.460833
vt 0.835441 0.460833
vt 0.835441 0.460833
vt 0.835440 0.460833
vt 0.835440 0.460833
vt 0.835441 0.460833
vt 0.835441 0.460833
vt 0.835441 0.460833
vt 0.835441 0.460833
vt 0.835441 0.460833
vt 0.835441 0.460833
vt 0.835441 0.460833
vt 0.835441 0.460833
vt 0.835441 0.460833
vt 0.835441 0.460833
vt 0.835441 0.460833
vt 0.835441 0.460833
vt 0.835441 0.460833
vt 0.835441 0.460833
vt 0.835441 0.460833
vt 0.835441 0.460833
vt 0.835441 0.460833
vt 0.835441 0.460833
vt 0.835441 0.460833
vt 0.835441 0.460833
vt 0.835441 0.460833
vt 0.835441 0.460833
vt 0.835441 0.460833
vt 0.835441 0.460833
vt 0.835441 0.460833
vt 0.835441 0.460833
vt 0.835441 0.460833
vn 0.000000 0.000000 1.000000
vn 0.000000 0.000000 1.000000
vn 0.000000 0.000000 1.000000
vn 0.000000 0.000000 1.000000
vn 0.000000 0.000000 1.000000
vn 0.000000 0.000000 1.000000
vn 0.000000 0.000000 1.000000
vn 0.000000 0.000000 1.000000
vn 0.000000 0.000000 1.000000
vn 0.000000 0.000000 -1.000000
vn 0.000000 0.000000 -1.000000
vn 0.000000 0.000000 -1.000000
vn 0.000000 0.000000 -1.000000
vn 0.000000 0.000000 -1.000000
vn 0.000000 0.000000 -1.000000
vn 0.000000 -1.000000 0.000000
vn 0.000000 -1.000000 0.000000
vn 0.000000 -1.000000 0.000000
vn 0.000000 -1.000000 0.000000
vn 0.000000 -1.000000 0.000000
vn 0.000000 -1.000000 0.000000
vn -1.000000 0.000000 0.000000
vn -1.000000 0.000000 0.000000
vn -1.000000 0.000000 0.000000
vn -1.000000 0.000000 0.000000
vn -1.000000 0.000000 0.000000
vn -1.000000 0.000000 0.000000
vn 1.000000 0.000000 0.000000
vn 1.000000 0.000000 0.000000
vn 1.000000 0.000000 0.000000
vn 1.000000 0.000000 0.000000
vn 1.000000 0.000000 0.000000
vn 1.000000 0.000000 0.000000
vn 0.000000 -0.818950 0.573865
vn 0.000000 -0.818950 0.573865
vn 0.000000 -0.818950 0.573865
vn 0.000000 -0.818956 0.573856
vn 0.000000 -0.818956 0.573856
vn 0.000000 -0.818956 0.573856
vn -0.523835 -0.851820 -0.000005
vn -0.523835 -0.851820 -0.000005
vn -0.523835 -0.851820 -0.000005
vn -0.523818 -0.851830 -0.000001
vn -0.523818 -0.851830 -0.000001
vn -0.523818 -0.851830 -0.000001
vn 0.000000 -0.818961 -0.573850
vn 0.000000 -0.818961 -0.573850
vn 0.000000 -0.818961 -0.573850
vn 0.000000 -0.818964 -0.573845
vn 0.000000 -0.818964 -0.573845
vn 0.000000 -0.818964 -0.573845
vn 0.523815 -0.851832 -0.000005
vn 0.523815 -0.851832 -0.000005
vn 0.523815 -0.851832 -0.000005
vn 0.523833 -0.851821 -0.000001
vn 0.523833 -0.851821 -0.000001
vn 0.523833 -0.851821 -0.000001
vn 0.000000 0.000000 1.000000
vn 0.000000 0.000000 1.000000
vn 0.000000 0.000000 1.000000
vn 0.000000 0.000000 1.000000
vn 0.000000 0.000000 1.000000
vn 0.000000 0.000000 1.000000
vn -1.000000 0.000000 0.000000
vn -1.000000 0.000000 0.000000
vn -1.000000 0.000000 0.000000
vn -1.000000 0.000000 0.000000
vn -1.000000 0.000000 0.000000
vn -1.000000 0.000000 0.000000
vn 0.000000 0.000000 -1.000000
vn 0.000000 0.000000 -1.000000
vn 0.000000 0.000000 -1.000000
vn 0.000000 0.000000 -1.000000
vn 0.000000 0.000000 -1.000000
vn 0.000000 0.000000 -1.000000
vn 1.000000 0.000000 0.000000
vn 1.000000 0.000000 0.000000
vn 1.000000 0.000000 0.000000
vn 1.000000 0.000000 0.000000
vn 1.000000 0.000000 0.000000
vn 1.000000 0.000000 0.000000
vn 0.000000 0.779680 0.626179
vn 0.000000 0.779680 0.626179
vn 0.000000 0.779680 0.626179
vn -0.015125 0.721861 0.691873
vn -0.015125 0.721861 0.691873
vn -0.015125 0.721861 0.691873
vn -0.668760 0.742773 -0.032378
vn -0.668760 0.742773 -0.032378
vn -0.668760 0.742773 -0.032378
vn -0.814611 0.580008 0.000000
vn -0.814610 0.580008 0.000000
vn -0.814610 0.580008 0.000000
vn -0.004436 0.710839 -0.703341
vn -0.004436 0.710839 -0.703341
vn -0.004436 0.710839 -0.703341
vn 0.000000 0.690215 -0.723604
vn 0.000000 0.690215 -0.723604
vn 0.000000 0.690215 -0.723604
vn 0.652953 0.757398 0.000000
vn 0.652953 0.757398 0.000000
vn 0.652953 0.757398 0.000000
vn 0.719559 0.694225 0.016922
vn 0.719559 0.694225 0.016922
vn 0.719559 0.694225 0.016922
vn 0.000000 -0.046766 0.998906
vn 0.000000 -0.046766 0.998906
vn 0.000000 -0.046766 0.998906
vn -0.021855 0.000000 0.999761
vn -0.021855 0.000000 0.999761
vn -0.021855 0.000000 0.999761
vn -0.998830 0.000000 -0.048358
vn -0.998830 0.000000 -0.048358
vn -0.998830 0.000000 -0.048358
vn -0.995765 0.091930 0.000000
vn -0.995765 0.091930 0.000000
vn -0.995766 0.091930 0.000000
vn -0.006307 0.000000 -0.999980
vn -0.006307 0.000000 -0.999980
vn -0.006307 0.000000 -0.999980
vn 0.000000 0.013215 -0.999913
vn 0.000000 0.013215 -0.999913
vn 0.000000 0.013215 -0.999913
vn 1.000000 0.000000 0.000000
vn 1.000000 0.000000 0.000000
vn 1.000000 0.000000 0.000000
vn 0.998706 0.045098 0.023488
vn 0.998706 0.045098 0.023488
vn 0.998706 0.045098 0.023488
vn 0.000000 0.000000 1.000000
vn 0.000000 0.000000 1.000000
vn 0.000000 0.000000 1.000000
vn 0.000000 0.000000 1.000000
vn 0.000000 0.000000 1.000000
vn 0.000000 0.000000 1.000000
vn 0.000000 0.000000 1.000000
vn 0.000000 0.000000 1.000000
vn 0.000000 0.000000 1.000000
vn -1.000000 0.000000 0.000000
vn -1.000000 0.000000 0.000000
vn -1.000000 0.000000 0.000000
vn -1.000000 0.000000 0.000000
vn -1.000000 0.000000 0.000000
vn -1.000000 0.000000 0.000000
vn -1.000000 0.000000 0.000000
vn -1.000000 0.000000 0.000000
vn -1.000000 0.000000 0.000000
vn 0.772226 -0.534631 -0.343275
vn 0.772226 -0.534631 -0.343275
vn 0.772226 -0.534631 -0.343275
vn 0.040964 -0.348466 0.936426
vn 0.040964 -0.348466 0.936426
vn 0.040964 -0.348466 0.936426
vn -0.075230 -0.694879 0.715181
vn -0.075230 -0.694879 0.715181
vn -0.075230 -0.694879 0.715181
vn -0.656668 -0.623230 0.424701
vn -0.656669 -0.623230 0.424701
vn -0.656669 -0.623230 0.424701
vn -0.927730 -0.259493 0.268292
vn -0.927730 -0.259493 0.268292
vn -0.927730 -0.259493 0.268292
vn 0.772913 -0.143661 -0.618034
vn 0.772913 -0.143661 -0.618034
vn 0.772913 -0.143661 -0.618034
vn 0.025438 0.864045 0.502771
vn 0.025438 0.864045 0.502771
vn 0.025438 0.864045 0.502771
vn 0.090606 0.836894 0.539813
vn 0.090606 0.836894 0.539813
vn 0.090606 0.836894 0.539813
vn -1.000000 0.000000 0.000000
vn -1.000000 0.000000 0.000000
vn -1.000000 0.000000 0.000000
vn -1.000000 0.000000 0.000000
vn -1.000000 0.000000 0.000000
vn -1.000000 0.000000 0.000000
vn 0.000014 -0.895053 -0.445961
vn 0.000014 -0.895053 -0.445961
vn 0.000014 -0.895053 -0.445961
vn 0.031530 -0.884302 -0.465849
vn 0.031530 -0.884302 -0.465849
vn 0.031530 -0.884302 -0.465849
vn 1.000000 0.000011 0.000043
vn 1.000000 0.000011 0.000043
vn 1.000000 0.000011 0.000043
vn 1.000000 0.000000 0.000000
vn 1.000000 0.000000 0.000000
vn 1.000000 0.000000 0.000000
vn 0.024386 0.828310 0.559739
vn 0.024386 0.828310 0.559739
vn 0.024386 0.828310 0.559739
vn -0.042181 0.554217 0.831303
vn -0.042181 0.554217 0.831303
vn -0.042181 0.554217 0.831303
vn -0.498539 0.658342 -0.563955
vn -0.498539 0.658342 -0.563955
vn -0.498539 0.658342 -0.563955
vn 0.199655 0.717213 -0.667640
vn 0.199655 0.717213 -0.667640
vn 0.199655 0.717213 -0.667640
vn -0.312419 0.744840 -0.589582
vn -0.312419 0.744840 -0.589582
vn -0.312419 0.744840 -0.589582
vn 0.000000 0.000000 1.000000
vn 0.000000 0.000000 1.000000
vn 0.000000 0.000000 1.000000
vn 0.000000 0.000000 1.000000
vn 0.000000 0.000000 1.000000
vn 0.000000 0.000000 1.000000
vn 0.000000 0.000000 1.000000
vn 0.000000 0.000000 1.000000
vn 0.000000 0.000000 1.000000
vn -0.629371 0.311472 -0.711953
vn -0.629371 0.311472 -0.711953
vn -0.629371 0.311472 -0.711953
vn 1.000000 0.000000 0.000000
vn 1.000000 0.000000 0.000000
vn 1.000000 0.000000 0.000000
vn 1.000000 -0.000000 0.000000
vn 1.000000 -0.000000 0.000000
vn 1.000000 -0.000000 0.000000
vn 1.000000 0.000000 0.000000
vn 1.000000 0.000000 0.000000
vn 1.000000 0.000000 0.000000
vn -0.524844 -0.419914 0.740413
vn -0.524844 -0.419914 0.740413
vn -0.524844 -0.419914 0.740413
vn -0.542236 -0.347603 0.764953
vn -0.542236 -0.347603 0.764953
vn -0.542236 -0.347603 0.764953
vn 0.809849 0.321905 0.490430
vn 0.809849 0.321905 0.490430
vn 0.809849 0.321905 0.490430
vn 0.809879 0.321805 0.490447
vn 0.809879 0.321805 0.490447
vn 0.809879 0.321805 0.490447
vn -0.851966 0.395860 -0.342708
vn -0.851966 0.395860 -0.342708
vn -0.851966 0.395860 -0.342708
vn -0.524768 0.707663 -0.473109
vn -0.524768 0.707663 -0.473109
vn -0.524768 0.707663 -0.473109
vn -1.000000 0.000000 0.000000
vn -1.000000 0.000000 0.000000
vn -1.000000 0.000000 0.000000
vn -1.000000 0.000000 0.000000
vn -1.000000 0.000000 0.000000
vn -1.000000 0.000000 0.000000
vn -1.000000 0.000000 0.000000
vn -1.000000 0.000000 0.000000
vn -1.000000 0.000000 0.000000
vn 0.000000 0.000000 -1.000000
vn 0.000000 0.000000 -1.000000
vn 0.000000 0.000000 -1.000000
vn 0.000000 0.000000 -1.000000
vn 0.000000 0.000000 -1.000000
vn 0.000000 0.000000 -1.000000
vn 0.000000 0.000000 -1.000000
vn 0.000000 0.000000 -1.000000
vn 0.000000 0.000000 -1.000000
vn 0.012114 0.631944 -0.774919
vn 0.012114 0.631944 -0.774919
vn 0.012114 0.631944 -0.774919
vn -0.028036 0.786322 -0.617180
vn -0.028036 0.786322 -0.617180
vn -0.028036 0.786322 -0.617180
vn 0.000000 0.000000 -1.000000
vn 0.000000 0.000000 -1.000000
vn 0.000000 0.000000 -1.000000
vn -0.000000 0.000000 -1.000000
vn -0.000000 0.000000 -1.000000
vn -0.000000 0.000000 -1.000000
vn 0.000000 0.000000 -1.000000
vn 0.000000 0.000000 -1.000000
vn 0.000000 0.000000 -1.000000
vn -0.000065 -0.533800 -0.845611
vn -0.000065 -0.533800 -0.845611
vn -0.000065 -0.533800 -0.845611
vn -0.054803 -0.330492 -0.942216
vn -0.054803 -0.330492 -0.942216
vn -0.054803 -0.330492 -0.942216
vn 0.809259 -0.434391 0.395480
vn 0.809259 -0.434391 0.395480
vn 0.809259 -0.434391 0.395480
vn 0.787257 -0.462515 0.407806
vn 0.787257 -0.462515 0.407806
vn 0.787257 -0.462515 0.407806
vn 1.000000 0.000000 0.000000
vn 1.000000 0.000000 0.000000
vn 1.000000 0.000000 0.000000
vn 1.000000 0.000000 0.000000
vn 1.000000 0.000000 0.000000
vn 1.000000 0.000000 0.000000
vn 1.000000 0.000000 0.000000
vn 1.000000 0.000000 0.000000
vn 1.000000 0.000000 0.000000
vn -0.826853 -0.368419 0.424949
vn -0.826853 -0.368419 0.424949
vn -0.826853 -0.368419 0.424949
vn 0.724675 -0.399009 -0.561817
vn 0.724675 -0.399009 -0.561817
vn 0.724675 -0.399009 -0.561817
vn -0.856111 0.224336 0.465561
vn -0.856112 0.224336 0.465561
vn -0.856111 0.224336 0.465561
vn 0.619863 0.341173 -0.706662
vn 0.619863 0.341173 -0.706662
vn 0.619863 0.341173 -0.706662
vn -0.000000 0.000000 1.000000
vn -0.000000 0.000000 1.000000
vn -0.000000 0.000000 1.000000
vn 0.000000 0.000000 1.000000
vn 0.000000 0.000000 1.000000
vn 0.000000 0.000000 1.000000
vn 0.000000 0.000000 1.000000
vn 0.000000 0.000000 1.000000
vn 0.000000 0.000000 1.000000
vn 1.000000 0.000000 0.000000
vn 1.000000 0.000000 0.000000
vn 1.000000 0.000000 0.000000
vn 1.000000 0.000000 0.000000
vn 1.000000 0.000000 0.000000
vn 1.000000 0.000000 0.000000
vn 1.000000 0.000000 0.000000
vn 1.000000 0.000000 0.000000
vn 1.000000 0.000000 0.000000
vn 0.000000 0.000000 -1.000000
vn 0.000000 0.000000 -1.000000
vn 0.000000 0.000000 -1.000000
vn 0.000000 0.000000 -1.000000
vn 0.000000 0.000000 -1.000000
vn 0.000000 0.000000 -1.000000
vn 0.000000 0.000000 -1.000000
vn 0.000000 0.000000 -1.000000
vn 0.000000 0.000000 -1.000000
vn -1.000000 0.000000 0.000000
vn -1.000000 0.000000 0.000000
vn -1.000000 0.000000 0.000000
vn -1.000000 -0.000000 0.000000
vn -1.000000 -0.000000 0.000000
vn -1.000000 -0.000000 0.000000
vn -1.000000 0.000000 0.000000
vn -1.000000 0.000000 0.000000
vn -1.000000 0.000000 0.000000
s off
f 9/157/1 3/67/2 10/153/3
f 3/67/4 61/195/5 10/153/6
f 61/195/7 4/66/8 10/153/9
f 5/63/10 12/159/11 6/64/12
f 6/64/13 12/159/14 11/162/15
f 7/3/16 1/5/17 8/96/18
f 8/96/19 1/5/20 2/6/21
f 10/154/22 4/65/23 11/161/24
f 11/161/25 4/65/26 6/8/27
f 12/160/28 5/10/29 9/156/30
f 9/156/31 5/10/32 3/68/33
f 13/147/34 9/158/35 14/143/36
f 14/143/37 9/158/38 10/12/39
f 14/144/40 10/155/41 15/151/42
f 15/151/43 10/155/44 11/14/45
f 12/16/46 16/149/47 11/13/48
f 11/13/49 16/149/50 15/152/51
f 16/150/52 12/15/53 13/146/54
f 13/146/55 12/15/56 9/11/57
f 17/137/58 13/148/59 18/133/60
f 18/133/61 13/148/62 14/18/63
f 18/134/64 14/145/65 19/141/66
f 19/141/67 14/145/68 15/20/69
f 16/22/70 20/139/71 15/19/72
f 15/19/73 20/139/74 19/142/75
f 20/140/76 16/21/77 17/136/78
f 17/136/79 16/21/80 13/17/81
f 17/138/82 18/24/83 21/127/84
f 21/127/85 18/24/86 22/123/87
f 22/124/88 18/135/89 23/131/90
f 23/131/91 18/135/92 19/26/93
f 24/129/94 23/132/95 20/28/96
f 20/28/97 23/132/98 19/25/99
f 20/27/100 17/23/101 24/130/102
f 24/130/103 17/23/104 21/126/105
f 25/72/106 21/128/107 26/75/108
f 26/75/109 21/128/110 22/30/111
f 22/125/112 23/32/113 26/76/114
f 26/76/115 23/32/116 27/77/117
f 24/34/118 28/69/119 23/31/120
f 23/31/121 28/69/122 27/35/123
f 28/36/124 24/33/125 25/71/126
f 25/71/127 24/33/128 21/29/129
f 25/73/130 26/79/131 29/121/132
f 26/79/133 45/165/134 29/121/135
f 29/121/136 45/165/137 30/117/138
f 31/84/139 46/167/140 27/61/141
f 46/167/142 45/166/143 27/61/144
f 45/166/145 26/78/146 27/61/147
f 51/178/148 32/82/149 52/179/150
f 29/122/151 30/38/152 33/111/153
f 33/111/154 30/38/155 34/107/156
f 46/168/157 31/40/158 34/108/159
f 34/108/160 31/40/161 35/115/162
f 32/42/163 36/113/164 52/180/165
f 37/101/166 33/112/167 38/97/168
f 38/97/169 33/112/170 34/44/171
f 38/98/172 34/109/173 39/105/174
f 39/105/175 34/109/176 35/46/177
f 36/48/178 40/103/179 35/45/180
f 35/45/181 40/103/182 39/106/183
f 36/47/184 33/43/185 40/104/186
f 40/104/187 33/43/188 37/100/189
f 37/102/190 38/50/191 41/87/192
f 41/87/193 38/50/194 42/93/195
f 39/52/196 43/90/197 49/173/198
f 44/86/199 40/53/200 48/171/201
f 48/171/202 40/53/203 37/49/204
f 47/170/205 55/185/206 1/164/207
f 55/185/208 53/181/209 1/164/210
f 1/164/211 53/181/212 2/2/213
f 49/174/214 43/58/215 50/176/216
f 47/169/217 1/1/218 60/192/219
f 60/192/220 1/1/221 58/189/222
f 7/9/223 58/189/224 1/1/225
f 30/118/226 45/166/227 46/167/228
f 34/108/229 30/119/230 46/168/231
f 48/172/232 41/89/233 47/169/234
f 37/49/235 41/55/236 48/171/237
f 38/99/238 39/52/239 42/94/240
f 42/94/241 39/52/242 49/173/243
f 50/176/244 8/7/245 56/186/246
f 56/186/247 8/7/248 53/182/249
f 2/163/250 53/182/251 8/7/252
f 50/175/253 59/191/254 8/4/255
f 59/191/256 58/190/257 8/4/258
f 58/190/259 7/95/260 8/4/261
f 44/85/262 43/91/263 40/54/264
f 40/54/265 43/91/266 39/51/267
f 28/62/268 51/178/269 27/80/270
f 31/39/271 27/80/272 52/179/273
f 51/178/274 52/179/275 27/80/276
f 36/113/277 35/116/278 52/180/279
f 52/180/280 35/116/281 31/83/282
f 36/114/283 32/81/284 33/110/285
f 33/110/286 32/81/287 29/37/288
f 28/70/289 25/74/290 51/177/291
f 25/74/292 29/120/293 51/177/294
f 51/177/295 29/120/296 32/41/297
f 54/183/298 56/193/299 55/185/300
f 57/188/301 60/194/302 59/191/303
f 56/193/304 53/181/305 55/185/306
f 60/194/307 58/190/308 59/191/309
f 55/185/310 47/170/311 54/183/312
f 54/183/313 47/170/314 42/92/315
f 47/170/316 41/88/317 42/92/318
f 60/192/319 57/187/320 47/169/321
f 57/187/322 44/59/323 47/169/324
f 44/59/325 48/172/326 47/169/327
f 59/191/328 50/175/329 57/188/330
f 50/175/331 43/57/332 57/188/333
f 44/60/334 57/188/335 43/57/336
f 42/56/337 49/174/338 54/184/339
f 54/184/340 49/174/341 56/186/342
f 56/186/343 49/174/344 50/176/345
