# This file uses centimeters as units for non-parametric coordinates.

v 46.346664 13.201916 -19.115448
v 46.346664 13.201916 6.414413
v -43.655018 13.201916 -19.115448
v -43.655018 13.201916 6.414413
v -43.655018 1.254439 -19.115448
v -43.655018 1.254439 6.414413
v 46.346664 1.254439 -19.115448
v 46.346664 1.254439 6.414413
v -42.982105 103.389862 -19.115448
v -42.982105 103.389862 3.703690
v -41.376881 13.201916 -19.115448
v -41.376881 13.201916 -0.545883
v 41.590500 13.201916 -19.115448
v 41.590500 13.201916 -0.545883
v 43.056107 103.389862 -19.115448
v 43.056107 103.389862 3.703690
v -34.723663 19.025539 -0.545883
v 33.576965 19.025539 -0.545883
v -34.723663 53.172695 -0.545883
v 33.576965 53.172695 -0.545883
v -34.723663 64.035545 -0.545883
v -35.770416 98.182701 2.726746
v 33.576965 64.035545 -0.545883
v 34.477615 98.182701 2.726746
v 48.853302 115.326576 -19.115448
v 48.853302 115.337395 9.988403
v -48.853302 115.316818 -19.115448
v -48.853302 115.337395 13.081741
v -47.914501 103.389862 -19.115448
v -47.914501 103.389862 10.780334
v 47.913361 102.353844 -19.115448
v 47.913361 102.353844 7.515335
v 33.576965 19.025539 -8.482742
v -34.723663 19.025539 -8.482742
v -34.723663 53.172695 -8.482742
v 33.576965 53.172695 -8.482742
v 33.576965 64.035545 -8.482742
v -34.723663 64.035545 -8.482742
v -35.770416 98.182701 -5.311966
v 34.477615 98.182701 -5.311966
v 40.381622 14.456344 -19.115448
v 40.381622 14.456344 6.414413
v 40.381622 0.000000 6.414413
v 40.381622 0.000000 -19.115448
v -47.336193 11.659658 -19.115448
v -47.336193 2.796698 -19.115448
v -48.775097 11.659658 3.287125
v -48.775097 2.796698 3.287125
v 17.502213 64.035545 -8.482742
v 1.946640 53.172695 -8.482742
v -24.422455 53.172695 -0.545883
v -9.458542 64.035545 -0.545883
v 15.834045 61.345695 -0.545883
v 0.766373 56.347229 -0.545883
v -4.479218 14.622784 -19.115448
v -20.796967 14.638651 5.356216
v -33.335876 0.707185 5.355835
v -17.017746 0.683105 -19.115448
v 8.267593 11.891735 5.427933
v -1.931763 2.164495 5.427933
v 31.669617 14.603400 5.560684
v 21.899796 0.570440 5.560684
v -29.434586 103.508499 10.802841
v 11.985397 114.258675 12.874222
v 2.093506 116.547615 -19.115448
v -40.509411 101.590752 -19.115448
v 35.200119 117.062599 13.414764
v -8.727646 101.438980 10.403824
v -42.660145 101.742508 10.462570
v -35.311890 116.095123 13.228607
v 33.576965 36.767101 -8.482742
v 33.576965 50.062366 -0.545883
v 41.590500 37.225567 -0.545883
v 41.590500 37.225567 -19.115448
v -35.029980 85.843338 -7.554245
v -35.029980 85.843338 0.412750
v -41.471100 82.059982 -0.296783
v -41.963196 89.014389 -19.115448
v -42.222973 92.676483 1.693726
v -39.723206 86.244011 0.487900
v 33.576965 23.636425 -0.545883
v 37.057495 38.418816 -0.545883
vt 0.989048 0.505376
vt 0.989048 0.505376
vt 0.989048 0.505376
vt 0.989048 0.505376
vt 0.989048 0.505376
vt 0.989048 0.505376
vt 0.989048 0.505376
vt 0.989048 0.505376
vt 0.989048 0.505376
vt 0.989048 0.505376
vt 0.989048 0.505376
vt 0.989048 0.505376
vt 0.989048 0.505376
vt 0.989048 0.505376
vt 0.989048 0.505376
vt 0.989048 0.505376
vt 0.989048 0.505376
vt 0.989048 0.505376
vt 0.989048 0.505376
vt 0.989048 0.505376
vt 0.989048 0.505376
vt 0.989048 0.505376
vt 0.989048 0.505376
vt 0.278786 0.029271
vt 0.278786 0.029271
vt 0.278786 0.029271
vt 0.278786 0.029271
vt 0.278786 0.029271
vt 0.278786 0.029271
vt 0.278786 0.029271
vt 0.278786 0.029271
vt 0.278786 0.029271
vt 0.278786 0.029271
vt 0.278786 0.029271
vt 0.278786 0.029271
vt 0.989048 0.505376
vt 0.989048 0.505376
vt 0.989048 0.505376
vt 0.989048 0.505376
vt 0.989048 0.505376
vt 0.989048 0.505376
vt 0.989048 0.505376
vt 0.989048 0.505376
vt 0.989048 0.505376
vt 0.989048 0.505376
vt 0.989048 0.505376
vt 0.989048 0.505376
vt 0.989048 0.505376
vt 0.989048 0.505376
vt 0.989048 0.505376
vt 0.989048 0.505376
vt 0.989048 0.505376
vt 0.989048 0.505376
vt 0.989048 0.505376
vt 0.989048 0.505376
vt 0.989048 0.505376
vt 0.989048 0.505376
vt 0.989048 0.505376
vt 0.989048 0.505376
vt 0.989048 0.505376
vt 0.989048 0.505376
vt 0.989048 0.505376
vt 0.989048 0.505376
vt 0.989048 0.505376
vt 0.989048 0.505376
vt 0.989048 0.505376
vt 0.989048 0.505376
vt 0.989048 0.505376
vt 0.989048 0.505376
vt 0.989048 0.505376
vt 0.989048 0.505376
vt 0.989048 0.505376
vt 0.989048 0.505376
vt 0.990672 0.499871
vt 0.990672 0.499871
vt 0.990672 0.499871
vt 0.990672 0.499871
vt 0.990672 0.499871
vt 0.990672 0.499871
vt 0.990672 0.499871
vt 0.990672 0.499871
vt 0.990672 0.499871
vt 0.990672 0.499871
vt 0.990672 0.499871
vt 0.990672 0.499871
vt 0.990672 0.499871
vt 0.990672 0.499871
vt 0.990672 0.499871
vt 0.990672 0.499871
vt 0.990672 0.499871
vt 0.990672 0.499871
vt 0.990672 0.499871
vt 0.990672 0.499871
vt 0.990672 0.499871
vt 0.989048 0.505376
vt 0.989048 0.505376
vt 0.989048 0.505376
vt 0.989048 0.505376
vt 0.989048 0.505376
vt 0.989048 0.505376
vt 0.989048 0.505376
vt 0.989048 0.505376
vt 0.989048 0.505376
vt 0.989048 0.505376
vt 0.989048 0.505376
vt 0.989048 0.505376
vt 0.989048 0.505376
vt 0.989048 0.505376
vt 0.989048 0.505376
vt 0.989048 0.505376
vt 0.989048 0.505376
vt 0.989048 0.505376
vt 0.989048 0.505376
vt 0.989048 0.505376
vt 0.989048 0.505376
vt 0.989048 0.505376
vt 0.989048 0.505376
vt 0.989048 0.505376
vt 0.990672 0.499871
vt 0.990672 0.499871
vt 0.990672 0.499871
vt 0.989048 0.505376
vt 0.989048 0.505376
vt 0.990672 0.499871
vt 0.990672 0.499871
vt 0.989048 0.505376
vt 0.989048 0.505376
vt 0.989048 0.505376
vt 0.989048 0.505376
vt 0.989048 0.505376
vt 0.989048 0.505376
vt 0.989048 0.505376
vt 0.989048 0.505376
vt 0.989048 0.505376
vt 0.989048 0.505376
vt 0.989048 0.505376
vt 0.989048 0.505376
vt 0.989048 0.505376
vt 0.989048 0.505376
vt 0.989048 0.505376
vt 0.989048 0.505376
vt 0.990672 0.499871
vt 0.990672 0.499871
vt 0.989048 0.505376
vt 0.989048 0.505376
vt 0.989048 0.505376
vt 0.989048 0.505376
vt 0.989048 0.505376
vt 0.989048 0.505376
vt 0.990672 0.499871
vt 0.990672 0.499871
vt 0.989048 0.505376
vt 0.989048 0.505376
vt 0.989048 0.505376
vt 0.989048 0.505376
vt 0.989048 0.505376
vt 0.989048 0.505376
vt 0.989048 0.505376
vt 0.989048 0.505376
vt 0.990672 0.499871
vt 0.990672 0.499871
vt 0.989048 0.505376
vt 0.989048 0.505376
vn -0.062731 0.998030 0.000000
vn -0.062731 0.998030 0.000000
vn -0.062731 0.998031 0.000000
vn -0.036234 0.999035 -0.024809
vn -0.036234 0.999035 -0.024809
vn -0.036234 0.999035 -0.024809
vn -0.052958 -0.998597 0.000000
vn -0.052958 -0.998597 0.000000
vn -0.052958 -0.998597 0.000000
vn -0.021442 -0.999682 -0.013314
vn -0.021442 -0.999682 -0.013314
vn -0.021442 -0.999682 -0.013314
vn 0.048965 -0.044098 0.997827
vn 0.048965 -0.044098 0.997827
vn 0.048965 -0.044098 0.997827
vn 0.102049 0.000000 0.994779
vn 0.102049 0.000000 0.994780
vn 0.102049 0.000000 0.994780
vn 1.000000 0.000000 0.000000
vn 1.000000 0.000000 0.000000
vn 1.000000 0.000000 0.000000
vn 1.000000 0.000000 0.000000
vn 1.000000 0.000000 0.000000
vn 1.000000 0.000000 0.000000
vn -0.997944 0.000000 -0.064097
vn -0.997944 0.000000 -0.064097
vn -0.997944 0.000000 -0.064097
vn -0.997944 0.000000 -0.064097
vn -0.997944 0.000000 -0.064097
vn -0.997944 0.000000 -0.064097
vn -0.927315 -0.370421 0.053612
vn -0.927315 -0.370421 0.053612
vn -0.927315 -0.370421 0.053612
vn 0.000000 0.000000 1.000000
vn 0.000000 0.000000 1.000000
vn 0.000000 0.000000 1.000000
vn 0.000000 0.000000 1.000000
vn 0.000000 0.000000 1.000000
vn 0.000000 0.000000 1.000000
vn 0.000000 0.000000 1.000000
vn 0.000000 0.000000 1.000000
vn 0.000000 0.000000 1.000000
vn 0.000000 0.000000 1.000000
vn 0.000000 0.000000 1.000000
vn 0.000000 0.000000 1.000000
vn 0.000000 -0.178790 0.983887
vn 0.000000 -0.178790 0.983887
vn 0.000000 -0.178790 0.983887
vn -0.015780 -0.092034 0.995631
vn -0.015780 -0.092034 0.995631
vn -0.015780 -0.092034 0.995631
vn 0.000000 -0.042538 0.999095
vn 0.000000 -0.042538 0.999095
vn 0.000000 -0.042538 0.999095
vn 0.000000 -0.042538 0.999095
vn 0.000000 -0.042538 0.999095
vn 0.000000 -0.042538 0.999095
vn 0.000000 0.000000 1.000000
vn 0.000000 0.000000 1.000000
vn 0.000000 0.000000 1.000000
vn 0.000000 0.000000 1.000000
vn 0.000000 0.000000 1.000000
vn 0.000000 0.000000 1.000000
vn 0.000000 -0.184398 0.982852
vn 0.000000 -0.184398 0.982852
vn 0.000000 -0.184398 0.982852
vn 0.000000 -0.184399 0.982852
vn 0.000000 -0.184399 0.982852
vn 0.000000 -0.184399 0.982852
vn 0.000000 0.000000 1.000000
vn 0.000000 0.000000 1.000000
vn 0.000000 0.000000 1.000000
vn -0.055862 0.998438 -0.000638
vn -0.055862 0.998438 -0.000638
vn -0.055862 0.998438 -0.000638
vn -0.024149 0.999611 -0.013943
vn -0.024149 0.999611 -0.013943
vn -0.024149 0.999611 -0.013943
vn -0.236071 -0.971660 -0.012181
vn -0.236071 -0.971660 -0.012181
vn -0.236070 -0.971660 -0.012181
vn -0.299163 -0.954202 0.000000
vn -0.299163 -0.954202 0.000000
vn -0.299163 -0.954202 0.000000
vn 0.000085 -0.189143 0.981950
vn 0.000085 -0.189143 0.981950
vn 0.000085 -0.189143 0.981950
vn -0.000063 -0.189207 0.981937
vn -0.000063 -0.189207 0.981937
vn -0.000063 -0.189207 0.981937
vn 0.997385 -0.072265 0.000000
vn 0.997386 -0.072265 0.000000
vn 0.997385 -0.072265 0.000000
vn 0.997389 -0.072211 0.000027
vn 0.997389 -0.072211 0.000027
vn 0.997389 -0.072211 0.000027
vn -0.996917 -0.078470 0.000000
vn -0.996916 -0.078470 0.000000
vn -0.996916 -0.078470 0.000000
vn -0.996926 -0.078345 0.000050
vn -0.996926 -0.078345 0.000050
vn -0.996926 -0.078345 0.000050
vn 0.000009 -0.184247 0.982880
vn 0.000009 -0.184247 0.982880
vn 0.000009 -0.184247 0.982880
vn 0.000000 0.000000 1.000000
vn 0.000000 0.000000 1.000000
vn 0.000000 0.000000 1.000000
vn -0.000000 0.000000 1.000000
vn -0.000000 0.000000 1.000000
vn -0.000000 0.000000 1.000000
vn 0.000000 1.000000 0.000000
vn 0.000000 1.000000 0.000000
vn 0.000000 1.000000 0.000000
vn 0.000000 1.000000 0.000000
vn 0.000000 1.000000 0.000000
vn 0.000000 1.000000 0.000000
vn 1.000000 0.000000 0.000000
vn 1.000000 0.000000 0.000000
vn 1.000000 0.000000 0.000000
vn 1.000000 0.000000 0.000000
vn 1.000000 0.000000 0.000000
vn 1.000000 0.000000 0.000000
vn 0.115473 -0.916235 0.383641
vn 0.115473 -0.916235 0.383641
vn 0.115473 -0.916235 0.383641
vn -0.910156 0.214298 0.354531
vn -0.910156 0.214298 0.354531
vn -0.910156 0.214298 0.354531
vn 0.099526 0.935840 0.338080
vn 0.099526 0.935840 0.338080
vn 0.099526 0.935840 0.338080
vn 0.000000 -1.000000 0.000000
vn 0.000000 -1.000000 0.000000
vn 0.000000 -1.000000 0.000000
vn 0.000000 -1.000000 0.000000
vn 0.000000 -1.000000 0.000000
vn 0.000000 -1.000000 0.000000
vn -0.999652 0.026366 0.000000
vn -0.999652 0.026366 0.000000
vn -0.999652 0.026366 0.000000
vn -0.999652 0.026367 0.000000
vn -0.999652 0.026367 0.000000
vn -0.999652 0.026367 0.000000
vn -0.121690 0.986650 0.108226
vn -0.121690 0.986650 0.108226
vn -0.121690 0.986650 0.108226
vn 0.000009 -0.189235 0.981932
vn 0.000009 -0.189235 0.981932
vn 0.000009 -0.189235 0.981932
vn -0.000011 -0.189204 0.981938
vn -0.000011 -0.189204 0.981938
vn -0.000011 -0.189204 0.981938
vn -0.097058 -0.990302 0.099406
vn -0.097058 -0.990302 0.099406
vn -0.097058 -0.990302 0.099406
vn 0.205795 0.978595 0.000000
vn 0.205795 0.978595 0.000000
vn 0.205795 0.978595 0.000000
vn 0.205795 0.978595 0.000000
vn 0.205795 0.978595 0.000000
vn 0.205795 0.978595 0.000000
vn 0.000000 0.000000 1.000000
vn 0.000000 0.000000 1.000000
vn 0.000000 0.000000 1.000000
vn -0.000000 0.000000 1.000000
vn -0.000000 0.000000 1.000000
vn -0.000000 0.000000 1.000000
vn 0.205797 -0.978595 0.000000
vn 0.205797 -0.978595 0.000000
vn 0.205797 -0.978595 0.000000
vn 0.205797 -0.978595 0.000000
vn 0.205797 -0.978595 0.000000
vn 0.205797 -0.978595 0.000000
vn -0.386296 0.922041 -0.024812
vn -0.386296 0.922041 -0.024812
vn -0.386296 0.922041 -0.024812
vn -0.288417 0.957505 0.000000
vn -0.288417 0.957505 0.000000
vn -0.288417 0.957505 0.000000
vn -0.521250 0.000000 0.853404
vn -0.521250 0.000000 0.853404
vn -0.521250 0.000000 0.853404
vn -0.521250 0.000000 0.853404
vn -0.521250 0.000000 0.853404
vn -0.521250 0.000000 0.853404
vn -0.288418 -0.957505 0.000000
vn -0.288417 -0.957505 0.000000
vn -0.288418 -0.957505 0.000000
vn -0.386297 -0.922041 -0.024812
vn -0.386297 -0.922041 -0.024812
vn -0.386297 -0.922041 -0.024812
vn 0.000000 1.000000 0.000000
vn 0.000000 1.000000 0.000000
vn 0.000000 1.000000 0.000000
vn 0.000000 -1.000000 0.000000
vn 0.000000 -1.000000 0.000000
vn 0.000000 -1.000000 0.000000
vn 0.000000 -1.000000 0.000000
vn 0.000000 -1.000000 0.000000
vn 0.000000 -1.000000 0.000000
vn 0.000000 -1.000000 0.000000
vn 0.000000 -1.000000 0.000000
vn 0.000000 -1.000000 0.000000
vn 0.000000 0.000000 1.000000
vn 0.000000 0.000000 1.000000
vn 0.000000 0.000000 1.000000
vn 0.000000 0.000000 1.000000
vn 0.000000 0.000000 1.000000
vn 0.000000 0.000000 1.000000
vn 0.000000 1.000000 0.000000
vn 0.000000 1.000000 0.000000
vn 0.000000 1.000000 0.000000
vn 0.000000 1.000000 0.000000
vn 0.000000 1.000000 0.000000
vn 0.000000 1.000000 0.000000
vn -0.143425 0.946070 0.290484
vn -0.143425 0.946070 0.290484
vn -0.143425 0.946070 0.290484
vn 0.000000 0.000000 1.000000
vn 0.000000 0.000000 1.000000
vn 0.000000 0.000000 1.000000
vn 0.000000 0.000000 1.000000
vn 0.000000 0.000000 1.000000
vn 0.000000 0.000000 1.000000
vn -0.089909 -0.929263 0.358311
vn -0.089909 -0.929263 0.358311
vn -0.089909 -0.929263 0.358311
vn 0.093760 0.993670 0.061875
vn 0.093760 0.993670 0.061875
vn 0.093760 0.993670 0.061875
vn -0.002395 0.002128 0.999995
vn -0.002395 0.002128 0.999995
vn -0.002395 0.002128 0.999995
vn -0.002245 0.002354 0.999995
vn -0.002245 0.002354 0.999995
vn -0.002245 0.002354 0.999995
vn 0.046259 -0.998422 0.031829
vn 0.046259 -0.998422 0.031829
vn 0.046259 -0.998422 0.031829
vn -0.114402 0.979064 0.168361
vn -0.114402 0.979064 0.168361
vn -0.114402 0.979064 0.168361
vn -0.005205 0.005458 0.999972
vn -0.005205 0.005458 0.999972
vn -0.005205 0.005458 0.999972
vn -0.006170 0.004296 0.999972
vn -0.006170 0.004296 0.999972
vn -0.006170 0.004296 0.999972
vn -0.066958 -0.992624 0.101070
vn -0.066958 -0.992624 0.101070
vn -0.066958 -0.992624 0.101070
vn 0.003710 0.999982 -0.004650
vn 0.003710 0.999982 -0.004650
vn 0.003710 0.999982 -0.004650
vn 0.016877 0.999858 0.000000
vn 0.016877 0.999858 0.000000
vn 0.016877 0.999858 0.000000
vn -0.045153 0.031436 0.998485
vn -0.045153 0.031436 0.998485
vn -0.045153 0.031436 0.998485
vn -0.097527 0.000000 0.995233
vn -0.097527 0.000000 0.995233
vn -0.097527 0.000000 0.995233
vn -0.030850 -0.999524 0.000000
vn -0.030850 -0.999524 0.000000
vn -0.030850 -0.999524 0.000000
vn -0.011899 -0.999828 0.014201
vn -0.011899 -0.999828 0.014201
vn -0.011899 -0.999828 0.014201
vn 0.000006 -0.189241 0.981931
vn 0.000006 -0.189241 0.981931
vn 0.000006 -0.189241 0.981931
vn 0.000010 -0.189239 0.981931
vn 0.000010 -0.189239 0.981931
vn 0.000010 -0.189239 0.981931
vn 0.039174 0.997474 0.059259
vn 0.039174 0.997474 0.059259
vn 0.039174 0.997474 0.059259
vn 0.131969 -0.991145 0.014682
vn 0.131969 -0.991145 0.014682
vn 0.131969 -0.991145 0.014682
vn 0.125271 0.992123 -0.000369
vn 0.125271 0.992122 -0.000369
vn 0.125271 0.992122 -0.000369
vn 0.026081 0.998762 -0.042354
vn 0.026081 0.998762 -0.042354
vn 0.026081 0.998762 -0.042354
vn 0.215025 -0.197735 0.956381
vn 0.215025 -0.197735 0.956381
vn 0.215025 -0.197735 0.956381
vn 0.053390 -0.331632 0.941897
vn 0.053390 -0.331632 0.941897
vn 0.053390 -0.331632 0.941897
vn 0.016150 -0.999870 0.000000
vn 0.016150 -0.999870 0.000000
vn 0.016150 -0.999870 0.000000
vn 0.008629 -0.999859 -0.014431
vn 0.008629 -0.999859 -0.014431
vn 0.008629 -0.999859 -0.014431
vn -1.000000 0.000000 0.000000
vn -1.000000 0.000000 0.000000
vn -1.000000 0.000000 0.000000
vn -1.000000 0.000000 0.000000
vn -1.000000 0.000000 0.000000
vn -1.000000 0.000000 0.000000
vn -0.098685 -0.061606 0.993210
vn -0.098685 -0.061606 0.993210
vn -0.098685 -0.061606 0.993210
vn -0.409080 0.000000 0.912499
vn -0.409080 0.000000 0.912499
vn -0.409080 0.000000 0.912499
vn -0.409080 0.000000 0.912499
vn -0.409080 0.000000 0.912499
vn -0.409080 0.000000 0.912499
vn -0.056275 -0.093780 0.994001
vn -0.056275 -0.093780 0.994001
vn -0.056275 -0.093780 0.994001
vn 0.999755 -0.022146 0.000000
vn 0.999755 -0.022146 0.000000
vn 0.999755 -0.022146 0.000000
vn 0.999755 -0.022146 0.000000
vn 0.999755 -0.022146 0.000000
vn 0.999755 -0.022146 0.000000
vn 0.999901 0.014045 0.000000
vn 0.999901 0.014045 0.000000
vn 0.999901 0.014045 0.000000
vn 0.999901 0.014045 0.000000
vn 0.999901 0.014045 0.000000
vn 0.999901 0.014045 0.000000
vn 0.003163 -0.003613 0.999989
vn 0.003163 -0.003613 0.999988
vn 0.003163 -0.003613 0.999989
vn 0.036893 0.000000 0.999319
vn 0.036893 0.000000 0.999319
vn 0.036893 0.000000 0.999319
vn 0.036893 0.000000 0.999319
vn 0.036893 0.000000 0.999319
vn 0.036893 0.000000 0.999319
vn -0.083271 -0.044931 0.995514
vn -0.083271 -0.044931 0.995514
vn -0.083271 -0.044931 0.995514
vn -0.999999 -0.001368 0.000000
vn -0.999999 -0.001368 0.000000
vn -0.999999 -0.001368 0.000000
vn -0.999699 -0.007732 0.023284
vn -0.999699 -0.007732 0.023284
vn -0.999699 -0.007732 0.023284
vn -0.997499 -0.070681 0.000000
vn -0.997499 -0.070681 0.000000
vn -0.997499 -0.070681 0.000000
vn -0.997498 -0.070700 -0.000010
vn -0.997498 -0.070700 -0.000010
vn -0.997498 -0.070700 -0.000010
vn -0.000064 -0.184320 0.982866
vn -0.000064 -0.184320 0.982866
vn -0.000064 -0.184320 0.982866
vn 0.000002 -0.184395 0.982852
vn 0.000002 -0.184395 0.982852
vn 0.000002 -0.184395 0.982852
vn 0.998204 0.059899 0.000000
vn 0.998204 0.059899 0.000000
vn 0.998204 0.059899 0.000000
vn 0.998205 0.059898 0.000000
vn 0.998205 0.059898 0.000000
vn 0.998205 0.059898 0.000000
vn 0.000001 -0.184329 0.982865
vn 0.000001 -0.184329 0.982865
vn 0.000001 -0.184329 0.982865
vn -0.921524 0.355793 0.155580
vn -0.921524 0.355793 0.155580
vn -0.921524 0.355793 0.155580
vn 1.000000 0.000000 0.000000
vn 1.000000 0.000000 0.000000
vn 1.000000 0.000000 0.000000
vn 1.000000 0.000000 0.000000
vn 1.000000 0.000000 0.000000
vn 1.000000 0.000000 0.000000
vn -0.000000 0.000000 1.000000
vn -0.000000 0.000000 1.000000
vn -0.000000 0.000000 1.000000
vn 0.000000 0.000000 1.000000
vn 0.000000 0.000000 1.000000
vn 0.000000 0.000000 1.000000
vn -1.000000 0.000000 0.000000
vn -1.000000 0.000000 0.000000
vn -1.000000 0.000000 0.000000
vn -1.000000 0.000000 0.000000
vn -1.000000 0.000000 0.000000
vn -1.000000 0.000000 0.000000
vn -0.863839 -0.258222 0.432555
vn -0.863839 -0.258222 0.432555
vn -0.863839 -0.258222 0.432555
vn 0.000000 0.000000 1.000000
vn 0.000000 0.000000 1.000000
vn 0.000000 0.000000 1.000000
s off
f 4/2/1 56/3/2 3/1/3
f 3/1/4 56/3/5 55/4/6
f 6/6/7 5/7/8 57/5/9
f 57/5/10 5/7/11 58/8/12
f 56/9/13 4/10/14 57/12/15
f 57/12/16 4/10/17 6/11/18
f 7/13/19 1/14/20 8/16/21
f 8/16/22 1/14/23 2/15/24
f 46/17/25 48/18/26 45/20/27
f 45/20/28 48/18/29 47/19/30
f 80/21/31 79/22/32 78/23/33
f 33/24/34 71/25/35 34/29/36
f 34/29/37 71/25/38 35/28/39
f 35/28/40 71/25/41 50/27/42
f 71/25/43 36/26/44 50/27/45
f 39/32/46 75/33/47 40/31/48
f 40/31/49 75/33/50 37/30/51
f 37/30/52 75/33/53 49/35/54
f 75/33/55 38/34/56 49/35/57
f 17/36/58 12/37/59 18/39/60
f 18/39/61 12/37/62 14/38/63
f 16/40/64 10/41/65 24/43/66
f 24/43/67 10/41/68 22/42/69
f 82/44/70 81/45/71 73/46/72
f 28/47/73 70/48/74 27/50/75
f 27/50/76 70/48/77 65/49/78
f 66/51/79 69/52/80 29/54/81
f 29/54/82 69/52/83 30/53/84
f 30/55/85 69/56/86 28/58/87
f 28/58/88 69/56/89 70/57/90
f 31/59/91 25/60/92 32/62/93
f 32/62/94 25/60/95 26/61/96
f 29/63/97 30/64/98 27/66/99
f 27/66/100 30/64/101 28/65/102
f 76/67/103 79/68/104 80/69/105
f 51/70/106 54/71/107 52/73/108
f 52/73/109 54/71/110 53/72/111
f 18/74/112 33/75/113 17/77/114
f 17/77/115 33/75/116 34/76/117
f 17/77/118 34/76/119 19/79/120
f 19/79/121 34/76/122 35/78/123
f 50/80/124 54/81/125 51/82/126
f 71/83/127 81/84/128 82/85/129
f 49/86/130 52/87/131 53/88/132
f 22/89/133 39/90/134 24/92/135
f 24/92/136 39/90/137 40/91/138
f 24/92/139 40/91/140 23/94/141
f 23/94/142 40/91/143 37/93/144
f 65/49/145 64/95/146 67/96/147
f 63/97/148 68/98/149 64/100/150
f 64/100/151 68/98/152 67/99/153
f 68/101/154 63/102/155 66/51/156
f 1/103/157 41/104/158 2/106/159
f 2/106/160 41/104/161 42/105/162
f 43/107/163 8/108/164 42/110/165
f 42/110/166 8/108/167 2/109/168
f 8/111/169 43/112/170 7/114/171
f 7/114/172 43/112/173 44/113/174
f 45/20/175 47/19/176 3/115/177
f 3/115/178 47/19/179 4/116/180
f 4/116/181 47/19/182 6/117/183
f 6/117/184 47/19/185 48/18/186
f 6/117/187 48/18/188 5/118/189
f 5/118/190 48/18/191 46/17/192
f 23/94/193 37/93/194 49/119/195
f 50/80/196 36/120/197 20/121/198
f 19/79/199 35/78/200 51/82/201
f 51/82/202 35/78/203 50/80/204
f 52/73/205 21/122/206 51/70/207
f 51/70/208 21/122/209 19/123/210
f 49/86/211 38/124/212 52/87/213
f 52/87/214 38/124/215 21/125/216
f 49/119/217 53/88/218 23/94/219
f 54/71/220 20/126/221 53/72/222
f 53/72/223 20/126/224 23/127/225
f 50/80/226 20/121/227 54/81/228
f 55/4/229 56/3/230 59/128/231
f 57/12/232 60/129/233 56/9/234
f 56/9/235 60/129/236 59/130/237
f 60/131/238 57/5/239 58/8/240
f 55/4/241 59/128/242 61/132/243
f 60/129/244 62/133/245 59/130/246
f 59/130/247 62/133/248 61/134/249
f 62/135/250 60/131/251 58/8/252
f 55/4/253 61/132/254 41/104/255
f 41/104/256 61/132/257 42/105/258
f 62/133/259 43/107/260 61/134/261
f 61/134/262 43/107/263 42/110/264
f 43/112/265 62/135/266 44/113/267
f 44/113/268 62/135/269 58/8/270
f 69/56/271 63/97/272 70/57/273
f 70/57/274 63/97/275 64/100/276
f 65/49/277 70/48/278 64/95/279
f 63/102/280 69/52/281 66/51/282
f 26/136/283 25/137/284 67/96/285
f 67/96/286 25/137/287 65/49/288
f 26/139/289 67/99/290 32/138/291
f 32/138/292 67/99/293 68/98/294
f 32/141/295 68/101/296 31/140/297
f 31/140/298 68/101/299 66/51/300
f 20/121/301 36/120/302 72/143/303
f 72/143/304 36/120/305 71/142/306
f 73/145/307 16/40/308 72/144/309
f 72/144/310 16/40/311 20/126/312
f 20/126/313 16/40/314 23/127/315
f 16/40/316 24/43/317 23/127/318
f 74/146/319 15/147/320 73/149/321
f 73/149/322 15/147/323 16/148/324
f 38/124/325 75/150/326 21/125/327
f 21/125/328 75/150/329 76/151/330
f 12/37/331 17/36/332 77/153/333
f 17/36/334 19/123/335 77/153/336
f 19/123/337 21/122/338 77/153/339
f 21/122/340 76/152/341 77/153/342
f 12/154/343 77/155/344 11/157/345
f 11/157/346 77/155/347 78/156/348
f 10/158/349 9/159/350 79/22/351
f 79/22/352 9/159/353 78/23/354
f 76/67/355 22/42/356 79/68/357
f 79/68/358 22/42/359 10/41/360
f 75/160/361 39/90/362 76/161/363
f 76/161/364 39/90/365 22/89/366
f 76/152/367 80/69/368 77/153/369
f 77/155/370 80/21/371 78/156/372
f 13/162/373 74/146/374 14/163/375
f 14/163/376 74/146/377 73/149/378
f 18/39/379 14/38/380 81/45/381
f 81/45/382 14/38/383 73/46/384
f 71/83/385 33/75/386 81/84/387
f 81/84/388 33/75/389 18/74/390
f 71/142/391 82/85/392 72/143/393
f 72/144/394 82/44/395 73/145/396
