# This file uses centimeters as units for non-parametric coordinates.

v -129.822540 18.059147 74.315948
v -74.314880 18.059147 129.822510
v 129.823303 18.059147 74.315948
v 74.316406 18.059147 129.822510
v -129.822540 18.059147 -74.315948
v -74.314880 18.059147 -129.822510
v 129.823303 18.059147 -74.315948
v 74.316406 18.059147 -129.822510
v -81.161499 10.979593 141.783463
v 76.128387 9.466064 137.898056
v -141.783905 10.979593 81.162926
v 141.783905 10.979593 81.162926
v -141.783905 10.979593 -81.162926
v -81.161499 10.979593 -141.783463
v 81.163788 10.979593 -141.783463
v 141.783905 10.979593 -81.162926
v -81.161499 -19.449604 141.783463
v 81.163788 -19.449604 141.783463
v -139.478302 -15.779912 79.621796
v 141.783905 -19.449604 81.162926
v -141.783905 -19.449604 -81.162926
v -81.161499 -19.449604 -141.783463
v 81.163788 -19.449604 -141.783463
v 141.783905 -19.449604 -81.162926
v -72.364807 -24.550259 126.415031
v 72.366333 -24.550259 126.415031
v -126.415245 -24.550259 72.365387
v 126.416016 -24.550259 72.365387
v -126.415245 -24.550259 -72.365402
v -72.364807 -24.550259 -126.415031
v 72.366333 -24.550259 -126.415031
v 126.416016 -24.550259 -72.365402
v 60.266876 10.979593 141.783463
v 76.624298 16.056049 133.854645
v 94.715881 10.979593 128.231079
v 81.163788 -0.091469 141.783463
v -42.554474 12.502563 129.822510
v -42.650604 5.423009 141.783463
v -18.321991 18.059147 129.822510
v -18.444061 10.979593 141.783463
v 129.823303 18.059147 34.859688
v 141.783905 10.979593 34.076252
v 129.823303 9.983576 18.044237
v 141.783905 2.904069 15.816263
v 129.823303 18.059147 0.470680
v 141.783905 10.979593 0.177593
v 86.737061 18.059147 -117.402435
v 55.120850 18.059147 -129.822510
v 72.379303 24.550259 -125.830315
v -119.400795 11.583555 -84.737045
v -127.915955 4.504001 -95.029755
v 141.783905 -13.644707 -52.247471
v 126.416016 -18.745386 -53.749596
v 141.783905 -19.449604 -38.400658
v 126.416016 -24.550259 -38.248978
v -51.976776 -19.449604 -141.783463
v 11.291504 -19.449604 -141.783463
v -23.880005 -24.550259 -126.415031
v -24.651337 -6.904948 -141.783386
v -25.354004 -15.343296 -140.155258
v -141.783905 -5.568994 81.162926
v -130.979156 -19.449604 91.967369
v -135.805511 -21.837725 77.740982
v -141.783905 -19.449604 66.218880
v 0.183105 -19.449604 141.783463
v 51.969910 -19.449604 141.783463
v 25.630188 -13.384377 141.783386
v 24.303436 -22.235931 134.427048
v 25.448608 -18.531788 140.297333
v 21.820068 17.208111 -0.934386
v 20.813751 -24.022545 -19.855785
vt 0.852115 0.505299
vt 0.852115 0.505299
vt 0.852115 0.505299
vt 0.852115 0.505299
vt 0.852115 0.505299
vt 0.852115 0.505299
vt 0.852115 0.505299
vt 0.852115 0.505299
vt 0.852115 0.505299
vt 0.852115 0.505299
vt 0.852115 0.505299
vt 0.852115 0.505299
vt 0.852115 0.505299
vt 0.852115 0.505299
vt 0.852115 0.505299
vt 0.852115 0.505299
vt 0.852115 0.505299
vt 0.852115 0.505299
vt 0.852115 0.505299
vt 0.852115 0.505299
vt 0.852115 0.505299
vt 0.852115 0.505299
vt 0.852115 0.505299
vt 0.852115 0.505299
vt 0.852115 0.505299
vt 0.852115 0.505299
vt 0.852115 0.505299
vt 0.852115 0.505299
vt 0.852115 0.505299
vt 0.852115 0.505299
vt 0.852115 0.505299
vt 0.852115 0.505299
vt 0.852115 0.505299
vt 0.852115 0.505299
vt 0.852115 0.505299
vt 0.852115 0.505299
vt 0.852115 0.505299
vt 0.852115 0.505299
vt 0.852115 0.505299
vt 0.852115 0.505299
vt 0.852115 0.505299
vt 0.852115 0.505299
vt 0.852115 0.505299
vt 0.852115 0.505299
vt 0.852115 0.505299
vt 0.852115 0.505299
vt 0.852115 0.505299
vt 0.852115 0.505299
vt 0.852115 0.505299
vt 0.852115 0.505299
vt 0.852115 0.505299
vt 0.852115 0.505299
vt 0.852115 0.505299
vt 0.852115 0.505299
vt 0.852115 0.505299
vt 0.852115 0.505299
vt 0.852115 0.505299
vt 0.852115 0.505299
vt 0.852115 0.505299
vt 0.852115 0.505299
vt 0.852115 0.505299
vt 0.852115 0.505299
vt 0.852115 0.505299
vt 0.852115 0.505299
vt 0.852115 0.505299
vt 0.852115 0.505299
vt 0.852115 0.505299
vt 0.852115 0.505299
vt 0.852115 0.505299
vt 0.852115 0.505299
vt 0.852115 0.505299
vt 0.852115 0.505299
vt 0.852115 0.505299
vt 0.852115 0.505299
vt 0.852115 0.505299
vt 0.852115 0.505299
vt 0.852115 0.505299
vt 0.852115 0.505299
vt 0.852115 0.505299
vt 0.852115 0.505299
vt 0.852115 0.505299
vt 0.852115 0.505299
vt 0.852115 0.505299
vt 0.852115 0.505299
vt 0.852115 0.505299
vt 0.852115 0.505299
vt 0.852115 0.505299
vt 0.852115 0.505299
vt 0.852115 0.505299
vt 0.852115 0.505299
vt 0.852115 0.505299
vt 0.852115 0.505299
vt 0.852115 0.505299
vt 0.852115 0.505299
vt 0.852115 0.505299
vt 0.852115 0.505299
vt 0.852115 0.505299
vt 0.852115 0.505299
vt 0.852115 0.505299
vt 0.852115 0.505299
vt 0.852115 0.505299
vt 0.852115 0.505299
vt 0.852115 0.505299
vt 0.852115 0.505299
vt 0.852115 0.505299
vt 0.852115 0.505299
vt 0.852115 0.505299
vt 0.852115 0.505299
vt 0.852115 0.505299
vt 0.852115 0.505299
vt 0.852115 0.505299
vt 0.852115 0.505299
vt 0.852115 0.505299
vt 0.852115 0.505299
vt 0.852115 0.505299
vt 0.852115 0.505299
vt 0.852115 0.505299
vt 0.852115 0.505299
vt 0.852115 0.505299
vt 0.852115 0.505299
vt 0.852115 0.505299
vt 0.852115 0.505299
vt 0.852115 0.505299
vt 0.852115 0.505299
vt 0.852115 0.505299
vt 0.852115 0.505299
vt 0.852115 0.505299
vt 0.852115 0.505299
vt 0.852115 0.505299
vt 0.852115 0.505299
vt 0.852115 0.505299
vt 0.852115 0.505299
vt 0.852115 0.505299
vt 0.852115 0.505299
vt 0.852115 0.505299
vt 0.852115 0.505299
vt 0.852115 0.505299
vt 0.852115 0.505299
vt 0.852115 0.505299
vt 0.852115 0.505299
vt 0.852115 0.505299
vt 0.852115 0.505299
vt 0.852115 0.505299
vt 0.852115 0.505299
vt 0.852115 0.505299
vt 0.852115 0.505299
vt 0.852115 0.505299
vt 0.852115 0.505299
vt 0.852115 0.505299
vt 0.852115 0.505299
vt 0.852115 0.505299
vt 0.852115 0.505299
vt 0.852115 0.505299
vt 0.852115 0.505299
vt 0.852115 0.505299
vt 0.852115 0.505299
vt 0.852115 0.505299
vt 0.852115 0.505299
vt 0.852115 0.505299
vt 0.852115 0.505299
vt 0.852115 0.505299
vt 0.852115 0.505299
vt 0.852115 0.505299
vt 0.852115 0.505299
vt 0.852115 0.505299
vt 0.852115 0.505299
vt 0.852115 0.505299
vt 0.852115 0.505299
vt 0.852115 0.505299
vt 0.852115 0.505299
vt 0.852115 0.505299
vt 0.852115 0.505299
vt 0.852115 0.505299
vt 0.852115 0.505299
vt 0.852115 0.505299
vt 0.852115 0.505299
vt 0.852115 0.505299
vt 0.852115 0.505299
vt 0.852115 0.505299
vt 0.852115 0.505299
vt 0.852115 0.505299
vt 0.852115 0.505299
vt 0.852115 0.505299
vt 0.852115 0.505299
vt 0.852115 0.505299
vt 0.852115 0.505299
vt 0.852115 0.505299
vt 0.852115 0.505299
vt 0.852115 0.505299
vt 0.852115 0.505299
vt 0.852115 0.505299
vt 0.852115 0.505299
vt 0.852115 0.505299
vt 0.852115 0.505299
vt 0.852115 0.505299
vt 0.852115 0.505299
vt 0.852115 0.505299
vt 0.852115 0.505299
vt 0.852115 0.505299
vt 0.852115 0.505299
vt 0.852115 0.505299
vt 0.852115 0.505299
vt 0.852115 0.505299
vt 0.852115 0.505299
vt 0.852115 0.505299
vt 0.852115 0.505299
vt 0.852115 0.505299
vt 0.852115 0.505299
vt 0.852115 0.505299
vt 0.852115 0.505299
vt 0.852115 0.505299
vt 0.852115 0.505299
vt 0.852115 0.505299
vt 0.852115 0.505299
vt 0.852115 0.505299
vt 0.852115 0.505299
vt 0.852115 0.505299
vt 0.852115 0.505299
vt 0.852115 0.505299
vt 0.852115 0.505299
vt 0.852115 0.505299
vt 0.852115 0.505299
vt 0.852115 0.505299
vt 0.852115 0.505299
vt 0.852115 0.505299
vt 0.852115 0.505299
vt 0.852115 0.505299
vt 0.852115 0.505299
vt 0.852115 0.505299
vt 0.852115 0.505299
vt 0.852115 0.505299
vt 0.852115 0.505299
vt 0.852115 0.505299
vt 0.852115 0.505299
vt 0.852115 0.505299
vt 0.852115 0.505299
vt 0.852115 0.505299
vt 0.852115 0.505299
vt 0.852115 0.505299
vn 0.000000 0.860557 0.509354
vn 0.000000 0.860557 0.509354
vn 0.000000 0.860557 0.509354
vn -0.048089 0.883301 0.466333
vn -0.048089 0.883301 0.466333
vn -0.048089 0.883301 0.466333
vn 0.000000 0.860557 0.509354
vn 0.000000 0.860557 0.509354
vn 0.000000 0.860557 0.509354
vn -0.332269 0.882718 0.332275
vn -0.332269 0.882718 0.332275
vn -0.332269 0.882718 0.332275
vn -0.332258 0.882725 0.332268
vn -0.332258 0.882725 0.332268
vn -0.332258 0.882725 0.332268
vn 0.332273 0.882717 0.332272
vn 0.332273 0.882717 0.332272
vn 0.332273 0.882717 0.332272
vn 0.288459 0.913007 0.288461
vn 0.288459 0.913007 0.288461
vn 0.288459 0.913007 0.288461
vn 0.351094 0.871246 0.343021
vn 0.351094 0.871246 0.343021
vn 0.351094 0.871246 0.343021
vn -0.509340 0.860565 0.000000
vn -0.509340 0.860565 0.000000
vn -0.509340 0.860565 0.000000
vn -0.509342 0.860565 0.000000
vn -0.509341 0.860565 0.000000
vn -0.509341 0.860565 0.000000
vn 0.000000 0.860557 -0.509354
vn 0.000000 0.860557 -0.509354
vn 0.000000 0.860557 -0.509354
vn 0.000000 0.860557 -0.509355
vn 0.000000 0.860557 -0.509355
vn 0.000000 0.860557 -0.509355
vn 0.000000 0.860557 -0.509354
vn 0.000000 0.860557 -0.509354
vn 0.000000 0.860557 -0.509354
vn -0.118077 0.786181 -0.606611
vn -0.118077 0.786181 -0.606611
vn -0.118077 0.786181 -0.606611
vn -0.103621 0.857441 -0.504041
vn -0.103621 0.857441 -0.504041
vn -0.103621 0.857441 -0.504041
vn 0.509365 0.860551 0.000000
vn 0.509365 0.860551 0.000000
vn 0.509365 0.860551 0.000000
vn 0.509365 0.860551 0.000000
vn 0.509365 0.860551 0.000000
vn 0.509365 0.860551 0.000000
vn 0.332273 0.882718 -0.332271
vn 0.332273 0.882718 -0.332271
vn 0.332273 0.882718 -0.332271
vn 0.332252 0.882727 -0.332268
vn 0.332252 0.882727 -0.332268
vn 0.332252 0.882727 -0.332268
vn 0.332272 0.882718 -0.332270
vn 0.332272 0.882718 -0.332271
vn 0.332272 0.882718 -0.332271
vn 0.000000 0.000000 1.000000
vn 0.000000 0.000000 1.000000
vn 0.000000 0.000000 1.000000
vn 0.000000 0.000000 1.000000
vn 0.000000 0.000000 1.000000
vn 0.000000 0.000000 1.000000
vn 0.000000 0.000000 1.000000
vn 0.000000 0.000000 1.000000
vn 0.000000 0.000000 1.000000
vn 0.000000 0.000000 1.000000
vn 0.000000 0.000000 1.000000
vn 0.000000 0.000000 1.000000
vn 0.000005 -0.000011 1.000000
vn 0.000005 -0.000011 1.000000
vn 0.000005 -0.000011 1.000000
vn -0.000003 0.000001 1.000000
vn -0.000003 0.000001 1.000000
vn -0.000003 0.000001 1.000000
vn 0.000000 0.000000 1.000000
vn 0.000000 0.000000 1.000000
vn 0.000000 0.000000 1.000000
vn 0.000001 0.000000 1.000000
vn 0.000001 0.000000 1.000000
vn 0.000001 0.000000 1.000000
vn -0.707096 0.000000 0.707118
vn -0.707096 0.000000 0.707118
vn -0.707096 0.000000 0.707118
vn -0.707096 0.000000 0.707118
vn -0.707096 0.000000 0.707118
vn -0.707096 0.000000 0.707118
vn -0.707096 0.000001 0.707118
vn -0.707096 0.000001 0.707118
vn -0.707096 0.000001 0.707118
vn 0.707108 0.000000 0.707106
vn 0.707108 0.000000 0.707106
vn 0.707108 0.000000 0.707106
vn 0.707109 0.000000 0.707104
vn 0.707109 0.000000 0.707104
vn 0.707109 0.000000 0.707104
vn 0.707110 0.000009 0.707103
vn 0.707110 0.000009 0.707103
vn 0.707110 0.000009 0.707103
vn -1.000000 0.000000 0.000000
vn -1.000000 0.000000 0.000000
vn -1.000000 0.000000 0.000000
vn -1.000000 -0.000001 0.000000
vn -1.000000 -0.000001 0.000000
vn -1.000000 -0.000001 0.000000
vn -1.000000 0.000000 0.000000
vn -1.000000 0.000000 0.000000
vn -1.000000 0.000000 0.000000
vn 0.000000 0.000000 -1.000000
vn 0.000000 0.000000 -1.000000
vn 0.000000 0.000000 -1.000000
vn 0.000000 0.000000 -1.000000
vn 0.000000 0.000000 -1.000000
vn 0.000000 0.000000 -1.000000
vn 0.000003 0.000002 -1.000000
vn 0.000003 0.000002 -1.000000
vn 0.000003 0.000002 -1.000000
vn -0.000003 -0.000010 -1.000000
vn -0.000003 -0.000010 -1.000000
vn -0.000003 -0.000010 -1.000000
vn 0.000000 0.000006 -1.000000
vn 0.000000 0.000006 -1.000000
vn 0.000000 0.000006 -1.000000
vn -0.707079 0.000000 -0.707135
vn -0.707079 0.000000 -0.707135
vn -0.707079 0.000000 -0.707135
vn -0.707096 0.000020 -0.707118
vn -0.707096 0.000020 -0.707118
vn -0.707096 0.000020 -0.707118
vn -0.707101 0.000000 -0.707112
vn -0.707101 0.000000 -0.707112
vn -0.707101 0.000000 -0.707112
vn 1.000000 0.000000 0.000000
vn 1.000000 0.000000 0.000000
vn 1.000000 0.000000 0.000000
vn 1.000000 -0.000001 0.000000
vn 1.000000 -0.000001 0.000000
vn 1.000000 -0.000001 0.000000
vn 1.000000 -0.000000 0.000000
vn 1.000000 -0.000000 0.000000
vn 1.000000 -0.000000 0.000000
vn 1.000000 0.000000 0.000000
vn 1.000000 0.000000 0.000000
vn 1.000000 0.000000 0.000000
vn 1.000000 -0.000001 0.000000
vn 1.000000 -0.000001 0.000000
vn 1.000000 -0.000001 0.000000
vn 1.000000 0.000000 0.000000
vn 1.000000 0.000000 0.000000
vn 1.000000 0.000000 0.000000
vn 1.000000 0.000002 0.000000
vn 1.000000 0.000002 0.000000
vn 1.000000 0.000002 0.000000
vn 0.707109 0.000000 -0.707104
vn 0.707109 0.000000 -0.707104
vn 0.707109 0.000000 -0.707104
vn 0.707109 0.000000 -0.707104
vn 0.707109 0.000000 -0.707104
vn 0.707109 0.000000 -0.707104
vn 0.000000 -0.949093 0.314996
vn 0.000000 -0.949093 0.314996
vn 0.000000 -0.949093 0.314996
vn 0.000000 -0.949093 0.314996
vn 0.000000 -0.949093 0.314996
vn 0.000000 -0.949093 0.314996
vn 0.008710 -0.945544 0.325378
vn 0.008710 -0.945544 0.325378
vn 0.008710 -0.945544 0.325378
vn 0.000000 -0.960722 0.277511
vn 0.000000 -0.960722 0.277511
vn 0.000000 -0.960722 0.277511
vn -0.005514 -0.941008 0.338340
vn -0.005514 -0.941008 0.338340
vn -0.005514 -0.941008 0.338340
vn -0.202252 -0.958220 0.202259
vn -0.202252 -0.958220 0.202259
vn -0.202252 -0.958220 0.202259
vn -0.155643 -0.964208 0.214660
vn -0.155643 -0.964208 0.214660
vn -0.155643 -0.964208 0.214660
vn -0.202248 -0.958223 0.202251
vn -0.202248 -0.958222 0.202251
vn -0.202248 -0.958222 0.202251
vn 0.202254 -0.958221 0.202253
vn 0.202254 -0.958221 0.202253
vn 0.202254 -0.958221 0.202253
vn 0.202250 -0.958222 0.202250
vn 0.202250 -0.958222 0.202250
vn 0.202250 -0.958222 0.202250
vn -0.314993 -0.949094 0.000000
vn -0.314993 -0.949094 0.000000
vn -0.314993 -0.949094 0.000000
vn -0.299480 -0.953170 -0.042170
vn -0.299480 -0.953170 -0.042170
vn -0.299480 -0.953170 -0.042170
vn -0.314991 -0.949095 0.000000
vn -0.314991 -0.949095 0.000000
vn -0.314991 -0.949095 0.000000
vn 0.000000 -0.949093 -0.314996
vn 0.000000 -0.949093 -0.314996
vn 0.000000 -0.949093 -0.314996
vn 0.000000 -0.949093 -0.314996
vn 0.000000 -0.949093 -0.314996
vn 0.000000 -0.949093 -0.314996
vn -0.202246 -0.958223 -0.202252
vn -0.202246 -0.958223 -0.202252
vn -0.202246 -0.958223 -0.202252
vn -0.202254 -0.958220 -0.202257
vn -0.202254 -0.958220 -0.202257
vn -0.202254 -0.958220 -0.202257
vn 0.401270 -0.898042 0.180286
vn 0.401270 -0.898042 0.180286
vn 0.401270 -0.898042 0.180286
vn 0.276539 -0.917434 0.286079
vn 0.276539 -0.917434 0.286079
vn 0.276539 -0.917434 0.286079
vn 0.202251 -0.958222 -0.202250
vn 0.202251 -0.958222 -0.202250
vn 0.202251 -0.958222 -0.202250
vn 0.202254 -0.958221 -0.202254
vn 0.202254 -0.958220 -0.202254
vn 0.202254 -0.958220 -0.202254
vn 0.251123 0.492417 0.833344
vn 0.251123 0.492417 0.833344
vn 0.251123 0.492417 0.833344
vn 0.378983 0.463077 0.801206
vn 0.378983 0.463077 0.801206
vn 0.378983 0.463077 0.801206
vn 0.364197 0.508951 0.779955
vn 0.364197 0.508951 0.779955
vn 0.364197 0.508951 0.779955
vn 0.251852 0.475377 0.842963
vn 0.251852 0.475377 0.842963
vn 0.251852 0.475377 0.842964
vn 0.148789 0.850453 0.504570
vn 0.148789 0.850453 0.504570
vn 0.148789 0.850453 0.504570
vn 0.118774 0.823180 0.555219
vn 0.118774 0.823180 0.555219
vn 0.118774 0.823180 0.555219
vn -0.193786 0.845110 0.498233
vn -0.193786 0.845110 0.498233
vn -0.193786 0.845110 0.498233
vn -0.193946 0.844899 0.498528
vn -0.193946 0.844899 0.498528
vn -0.193946 0.844899 0.498528
vn 0.509365 0.860550 0.000000
vn 0.509365 0.860550 0.000000
vn 0.509365 0.860550 0.000000
vn 0.509365 0.860550 0.000000
vn 0.509366 0.860550 0.000000
vn 0.509366 0.860550 0.000000
vn 0.422378 0.828970 -0.366614
vn 0.422378 0.828970 -0.366614
vn 0.422378 0.828970 -0.366614
vn 0.450930 0.804585 -0.386400
vn 0.450930 0.804585 -0.386400
vn 0.450930 0.804585 -0.386400
vn 0.480618 0.796825 0.366164
vn 0.480618 0.796825 0.366164
vn 0.480618 0.796825 0.366164
vn 0.521623 0.758072 0.391455
vn 0.521623 0.758072 0.391455
vn 0.521623 0.758072 0.391455
vn 0.593963 0.542571 -0.593990
vn 0.593963 0.542571 -0.593990
vn 0.593963 0.542571 -0.593990
vn 0.000000 0.523875 -0.851795
vn 0.000000 0.523875 -0.851795
vn 0.000000 0.523875 -0.851795
vn -0.398461 0.875712 -0.272687
vn -0.398461 0.875712 -0.272687
vn -0.398461 0.875712 -0.272687
vn -0.403983 0.869717 -0.283530
vn -0.403983 0.869718 -0.283530
vn -0.403983 0.869717 -0.283530
vn 0.325194 -0.872112 -0.365609
vn 0.325194 -0.872112 -0.365609
vn 0.325194 -0.872112 -0.365609
vn 0.293797 -0.895156 -0.335229
vn 0.293797 -0.895156 -0.335229
vn 0.293797 -0.895156 -0.335229
vn 0.315006 -0.949090 0.000000
vn 0.315006 -0.949090 0.000000
vn 0.315006 -0.949090 0.000000
vn 0.315006 -0.949090 0.000000
vn 0.315006 -0.949090 0.000000
vn 0.315006 -0.949090 0.000000
vn 0.089935 -0.195897 -0.976492
vn 0.089935 -0.195897 -0.976492
vn 0.089935 -0.195897 -0.976492
vn 0.000000 -0.949093 -0.314996
vn 0.000000 -0.949093 -0.314996
vn 0.000000 -0.949093 -0.314996
vn 0.000000 -0.949093 -0.314996
vn 0.000000 -0.949093 -0.314996
vn 0.000000 -0.949093 -0.314996
vn 0.159584 -0.812093 -0.561282
vn 0.159584 -0.812093 -0.561282
vn 0.159584 -0.812093 -0.561282
vn -0.064187 -0.183903 -0.980846
vn -0.064187 -0.183903 -0.980846
vn -0.064187 -0.183903 -0.980846
vn -0.117268 -0.830782 -0.544105
vn -0.117268 -0.830782 -0.544105
vn -0.117268 -0.830782 -0.544105
vn -0.829549 -0.261761 0.493284
vn -0.829549 -0.261761 0.493284
vn -0.829549 -0.261761 0.493284
vn -0.749509 -0.562694 0.348731
vn -0.749509 -0.562694 0.348731
vn -0.749509 -0.562694 0.348731
vn -0.777017 -0.560220 0.287052
vn -0.777017 -0.560220 0.287052
vn -0.777017 -0.560220 0.287052
vn -0.941360 -0.247214 0.229622
vn -0.941360 -0.247214 0.229622
vn -0.941360 -0.247214 0.229622
vn -0.063270 -0.274755 0.959430
vn -0.063270 -0.274755 0.959430
vn -0.063270 -0.274755 0.959431
vn -0.059347 -0.838954 0.540956
vn -0.059347 -0.838954 0.540956
vn -0.059347 -0.838954 0.540956
vn 0.066482 -0.278922 0.958010
vn 0.066482 -0.278922 0.958010
vn 0.066482 -0.278922 0.958010
vn 0.061681 -0.849486 0.523993
vn 0.061681 -0.849486 0.523993
vn 0.061681 -0.849486 0.523993
vn 0.171102 0.977988 0.119432
vn 0.171102 0.977988 0.119432
vn 0.171102 0.977988 0.119432
vn 0.003751 0.999986 -0.003751
vn 0.003751 0.999986 -0.003751
vn 0.003751 0.999986 -0.003751
vn -0.004644 0.999978 -0.004644
vn -0.004644 0.999978 -0.004644
vn -0.004644 0.999978 -0.004644
vn 0.005612 0.999984 0.000000
vn 0.005612 0.999984 0.000000
vn 0.005612 0.999984 0.000000
vn 0.000000 0.999978 0.006603
vn 0.000000 0.999978 0.006603
vn 0.000000 0.999978 0.006603
vn -0.078080 0.994838 0.064807
vn -0.078080 0.994839 0.064807
vn -0.078080 0.994838 0.064807
vn -0.007879 0.999969 0.000000
vn -0.007879 0.999969 0.000000
vn -0.007879 0.999969 0.000000
vn -0.222877 0.971977 -0.074749
vn -0.222877 0.971977 -0.074749
vn -0.222877 0.971977 -0.074749
vn 0.000000 0.999979 -0.006508
vn 0.000000 0.999979 -0.006508
vn 0.000000 0.999979 -0.006508
vn -0.007879 0.999969 0.000000
vn -0.007879 0.999969 0.000000
vn -0.007879 0.999969 0.000000
vn 0.135121 0.893169 -0.428942
vn 0.135121 0.893169 -0.428942
vn 0.135121 0.893169 -0.428942
vn -0.012591 0.908581 0.417520
vn -0.012591 0.908581 0.417520
vn -0.012591 0.908581 0.417520
vn -0.004692 0.999978 0.004692
vn -0.004692 0.999978 0.004692
vn -0.004692 0.999978 0.004692
vn -0.334585 0.938943 -0.080247
vn -0.334585 0.938943 -0.080247
vn -0.334585 0.938943 -0.080247
vn 0.314365 0.931687 0.182029
vn 0.314365 0.931687 0.182029
vn 0.314365 0.931687 0.182029
vn 0.187281 0.907292 -0.376493
vn 0.187281 0.907292 -0.376493
vn 0.187281 0.907292 -0.376493
vn 0.000000 -0.999994 -0.003608
vn 0.000000 -0.999994 -0.003608
vn 0.000000 -0.999994 -0.003608
vn 0.002204 -0.999995 -0.002204
vn 0.002204 -0.999995 -0.002204
vn 0.002204 -0.999995 -0.002204
vn -0.002668 -0.999993 -0.002668
vn -0.002668 -0.999993 -0.002668
vn -0.002668 -0.999993 -0.002668
vn 0.003584 -0.999994 0.000000
vn 0.003584 -0.999994 0.000000
vn 0.003584 -0.999994 0.000000
vn 0.000000 -0.999988 0.004952
vn 0.000000 -0.999988 0.004952
vn 0.000000 -0.999988 0.004952
vn 0.002642 -0.999993 0.002642
vn 0.002642 -0.999993 0.002642
vn 0.002642 -0.999993 0.002642
vn 0.141804 -0.945016 0.294680
vn 0.141804 -0.945016 0.294680
vn 0.141804 -0.945016 0.294680
vn -0.003338 -0.999989 0.003338
vn -0.003338 -0.999989 0.003338
vn -0.003338 -0.999989 0.003338
vn -0.065622 -0.934467 -0.349951
vn -0.065622 -0.934467 -0.349951
vn -0.065622 -0.934467 -0.349951
vn -0.004997 -0.999988 0.000000
vn -0.004997 -0.999988 0.000000
vn -0.004997 -0.999988 0.000000
vn 0.000000 -0.999988 0.004952
vn 0.000000 -0.999988 0.004952
vn 0.000000 -0.999988 0.004952
s off
f 40/110/1 33/98/2 39/109/3
f 34/101/4 4/2/5 33/98/6
f 4/2/7 39/109/8 33/98/9
f 2/6/10 1/7/11 9/9/12
f 9/9/13 1/7/14 11/8/15
f 12/13/16 3/10/17 35/103/18
f 4/11/19 34/100/20 3/10/21
f 3/10/22 34/100/23 35/103/24
f 1/14/25 5/15/26 11/17/27
f 11/17/28 5/15/29 13/16/30
f 15/20/31 14/21/32 8/19/33
f 8/19/34 14/21/35 48/123/36
f 6/18/37 48/123/38 14/21/39
f 5/22/40 50/126/41 13/25/42
f 13/25/43 50/126/44 51/127/45
f 45/118/46 46/120/47 7/26/48
f 7/26/49 46/120/50 16/29/51
f 16/32/52 15/33/53 7/31/54
f 8/30/55 47/121/56 15/33/57
f 47/121/58 7/31/59 15/33/60
f 9/35/61 17/36/62 38/108/63
f 17/36/64 65/151/65 38/108/66
f 38/108/67 65/151/68 40/111/69
f 40/111/70 65/151/71 33/99/72
f 65/151/73 67/155/74 33/99/75
f 67/155/76 66/153/77 33/99/78
f 66/153/79 18/37/80 33/99/81
f 36/105/82 33/99/83 18/37/84
f 9/38/85 11/39/86 17/41/87
f 11/39/88 61/143/89 17/41/90
f 61/143/91 62/146/92 17/41/93
f 12/42/94 35/102/95 20/45/96
f 18/44/97 20/45/98 36/104/99
f 35/102/100 36/104/101 20/45/102
f 11/46/103 13/47/104 61/144/105
f 61/144/106 13/47/107 64/149/108
f 13/47/109 21/48/110 64/149/111
f 15/51/112 23/52/113 14/50/114
f 22/53/115 14/50/116 56/136/117
f 56/136/118 14/50/119 59/140/120
f 14/50/121 23/52/122 59/140/123
f 23/52/124 57/138/125 59/140/126
f 13/54/127 51/128/128 21/57/129
f 21/57/130 51/128/131 22/56/132
f 51/128/133 14/55/134 22/56/135
f 24/61/136 16/58/137 52/130/138
f 16/58/139 46/119/140 52/130/141
f 52/130/142 46/119/143 54/133/144
f 12/59/145 20/60/146 42/113/147
f 46/119/148 44/116/149 54/133/150
f 54/133/151 44/116/152 20/60/153
f 44/116/154 42/113/155 20/60/156
f 15/62/157 16/63/158 23/65/159
f 23/65/160 16/63/161 24/64/162
f 18/66/163 66/154/164 26/69/165
f 17/67/166 25/68/167 65/152/168
f 66/154/169 68/156/170 26/69/171
f 26/69/172 68/156/173 25/68/174
f 68/156/175 65/152/176 25/68/177
f 17/70/178 62/145/179 25/73/180
f 63/147/181 27/72/182 62/145/183
f 62/145/184 27/72/185 25/73/186
f 20/74/187 18/75/188 28/77/189
f 28/77/190 18/75/191 26/76/192
f 21/79/193 29/80/194 64/150/195
f 63/148/196 64/150/197 27/81/198
f 64/150/199 29/80/200 27/81/201
f 22/82/202 56/135/203 30/85/204
f 30/85/205 56/135/206 58/139/207
f 21/86/208 22/87/209 29/89/210
f 29/89/211 22/87/212 30/88/213
f 24/90/214 52/129/215 32/93/216
f 32/93/217 52/129/218 53/131/219
f 23/94/220 24/95/221 31/97/222
f 31/97/223 24/95/224 32/96/225
f 34/101/226 33/98/227 10/5/228
f 35/103/229 34/100/230 10/12/231
f 36/104/232 35/102/233 10/43/234
f 10/34/235 33/99/236 36/105/237
f 37/106/238 2/3/239 38/107/240
f 38/107/241 2/3/242 9/4/243
f 39/109/244 37/106/245 40/110/246
f 40/110/247 37/106/248 38/107/249
f 41/112/250 3/27/251 42/114/252
f 42/114/253 3/27/254 12/28/255
f 44/117/256 43/115/257 42/114/258
f 42/114/259 43/115/260 41/112/261
f 45/118/262 43/115/263 46/120/264
f 46/120/265 43/115/266 44/117/267
f 49/125/268 47/122/269 8/1/270
f 48/124/271 49/125/272 8/1/273
f 50/126/274 6/23/275 51/127/276
f 51/127/277 6/23/278 14/24/279
f 52/129/280 54/132/281 53/131/282
f 53/131/283 54/132/284 55/134/285
f 55/134/286 54/132/287 28/92/288
f 28/92/289 54/132/290 20/91/291
f 56/136/292 59/140/293 60/142/294
f 58/139/295 57/137/296 31/84/297
f 31/84/298 57/137/299 23/83/300
f 58/139/301 56/135/302 60/141/303
f 60/142/304 59/140/305 57/138/306
f 58/139/307 60/141/308 57/137/309
f 62/146/310 61/143/311 19/40/312
f 63/147/313 62/145/314 19/71/315
f 19/78/316 64/150/317 63/148/318
f 61/144/319 64/149/320 19/49/321
f 66/153/322 67/155/323 69/157/324
f 69/158/325 68/156/326 66/154/327
f 69/157/328 67/155/329 65/151/330
f 65/152/331 68/156/332 69/158/333
f 2/159/334 37/160/335 70/161/336
f 1/162/337 2/163/338 70/164/339
f 4/165/340 3/166/341 70/167/342
f 5/168/343 1/169/344 70/170/345
f 48/171/346 6/172/347 70/173/348
f 6/174/349 50/175/350 70/176/351
f 45/177/352 7/178/353 70/179/354
f 37/180/355 39/181/356 70/182/357
f 39/183/358 4/184/359 70/185/360
f 3/186/361 41/187/362 70/188/363
f 41/189/364 43/190/365 70/191/366
f 43/192/367 45/193/368 70/194/369
f 7/195/370 47/196/371 70/197/372
f 49/198/373 48/199/374 70/200/375
f 47/201/376 49/202/377 70/203/378
f 50/204/379 5/205/380 70/206/381
f 26/207/382 25/208/383 71/209/384
f 25/210/385 27/211/386 71/212/387
f 28/213/388 26/214/389 71/215/390
f 27/216/391 29/217/392 71/218/393
f 30/219/394 58/220/395 71/221/396
f 29/222/397 30/223/398 71/224/399
f 32/225/400 53/226/401 71/227/402
f 31/228/403 32/229/404 71/230/405
f 53/231/406 55/232/407 71/233/408
f 55/234/409 28/235/410 71/236/411
f 58/237/412 31/238/413 71/239/414
