# This file uses centimeters as units for non-parametric coordinates.

v 9.644818 -31.161049 -1.450193
v 172.422668 -4.476478 -1.450193
v 9.644818 25.264717 -1.450193
v 172.422668 -1.419854 -1.450193
v 54.437199 20.582972 0.580794
v 54.437199 -20.472927 0.580794
v 114.001663 2.048754 -4.594689
v 114.001663 -19.823631 -4.594690
v 114.001663 -19.823633 -1.694304
v 172.422668 -4.476477 1.450193
v 172.422668 -1.419854 1.450193
v 114.001663 2.048754 -1.694302
v 9.644818 -31.161047 1.450193
v 54.437199 -20.472925 3.481179
v 54.437199 20.582972 3.481179
v 9.644818 25.264717 1.450193
v 156.849625 -0.495365 0.611974
v 156.849625 -0.495365 -2.288412
v 156.849625 -8.567367 -2.288412
v 156.849625 -8.567366 0.611974
v 9.644818 15.402393 -1.450193
v 9.644818 15.539937 1.450193
v 9.644818 -20.407923 -1.450193
v 9.644818 -19.927811 1.450193
v 3.789258 15.402394 -7.243508
v 3.789258 25.264715 -7.243508
v 3.789258 15.539935 7.243508
v 3.789258 25.264717 7.243508
v 3.789258 -20.407923 -7.243508
v 3.789258 -19.927814 7.243506
v 3.789258 -31.161047 -7.243508
v 3.789258 -31.161049 7.243508
v -6.944081 15.402394 -7.243508
v -6.944081 25.264715 -7.243508
v -6.944081 15.539935 7.243508
v -6.944081 25.264717 7.243508
v -6.944081 -20.407923 -7.243508
v -6.944081 -19.927814 7.243506
v -6.944081 -31.161047 -7.243508
v -6.944081 -31.161049 7.243508
vt 0.612498 0.654019
vt 0.612498 0.654019
vt 0.612498 0.654019
vt 0.612498 0.654019
vt 0.612498 0.654019
vt 0.612498 0.654019
vt 0.612498 0.654019
vt 0.612498 0.654019
vt 0.612498 0.654019
vt 0.612498 0.654019
vt 0.612498 0.654019
vt 0.612498 0.654019
vt 0.612498 0.654019
vt 0.612498 0.654019
vt 0.612498 0.654019
vt 0.612498 0.654019
vt 0.612498 0.654019
vt 0.612498 0.654019
vt 0.612498 0.654019
vt 0.612498 0.654019
vt 0.612498 0.654019
vt 0.612498 0.654019
vt 0.612498 0.654019
vt 0.612498 0.654019
vt 0.612498 0.654019
vt 0.612498 0.654019
vt 0.612498 0.654019
vt 0.612498 0.654019
vt 0.612498 0.654019
vt 0.612498 0.654019
vt 0.612498 0.654019
vt 0.612498 0.654019
vt 0.612498 0.654019
vt 0.612498 0.654019
vt 0.612498 0.654019
vt 0.612498 0.654019
vt 0.612498 0.654019
vt 0.612498 0.654019
vt 0.612498 0.654019
vt 0.612498 0.654019
vt 0.612498 0.654019
vt 0.612498 0.654019
vt 0.612498 0.654019
vt 0.612498 0.654019
vt 0.612498 0.654019
vt 0.612498 0.654019
vt 0.612498 0.654019
vt 0.612498 0.654019
vt 0.612498 0.654019
vt 0.612498 0.654019
vt 0.612498 0.654019
vt 0.612498 0.654019
vn -0.053747 -0.000000 0.998555
vn -0.053747 -0.000000 0.998555
vn -0.053747 -0.000000 0.998555
vn -0.053747 -0.000000 0.998555
vn -0.053747 -0.000000 0.998555
vn -0.053747 -0.000000 0.998555
vn -0.045296 0.000000 0.998974
vn -0.045296 0.000000 0.998974
vn -0.045296 0.000000 0.998974
vn -0.045296 0.000000 0.998974
vn -0.045296 0.000000 0.998974
vn -0.045296 0.000000 0.998974
vn -0.045296 0.000000 0.998974
vn -0.045296 0.000000 0.998974
vn -0.045296 0.000000 0.998974
vn -0.045296 0.000000 0.998974
vn -0.045296 0.000000 0.998974
vn -0.045296 0.000000 0.998974
vn 0.086563 -0.000000 0.996247
vn 0.086563 -0.000000 0.996247
vn 0.086563 -0.000000 0.996246
vn 0.086563 0.000000 0.996246
vn 0.086563 0.000000 0.996247
vn 0.086563 0.000000 0.996246
vn 0.053747 0.000000 -0.998555
vn 0.053747 0.000000 -0.998555
vn 0.053747 0.000000 -0.998555
vn 0.053747 0.000000 -0.998555
vn 0.053747 0.000000 -0.998555
vn 0.053747 0.000000 -0.998555
vn 0.045296 0.000000 -0.998974
vn 0.045296 0.000000 -0.998974
vn 0.045296 0.000000 -0.998974
vn 0.045296 0.000000 -0.998974
vn 0.045296 0.000000 -0.998974
vn 0.045296 0.000000 -0.998974
vn 0.045296 0.000000 -0.998974
vn 0.045296 0.000000 -0.998974
vn 0.045296 0.000000 -0.998974
vn 0.045296 0.000000 -0.998974
vn 0.045296 0.000000 -0.998974
vn 0.045296 0.000000 -0.998974
vn -0.086563 0.000000 -0.996246
vn -0.086563 0.000000 -0.996247
vn -0.086563 0.000000 -0.996246
vn -0.086563 0.000000 -0.996247
vn -0.086563 0.000000 -0.996246
vn -0.086563 0.000000 -0.996246
vn 0.254081 -0.967183 0.000000
vn 0.254081 -0.967183 0.000000
vn 0.254081 -0.967183 0.000000
vn 0.254081 -0.967183 0.000000
vn 0.254081 -0.967183 0.000000
vn 0.254081 -0.967183 0.000000
vn 1.000000 -0.000007 0.000000
vn 1.000000 -0.000007 0.000000
vn 1.000000 -0.000007 0.000000
vn 1.000000 0.000005 0.000000
vn 1.000000 0.000005 0.000000
vn 1.000000 0.000005 0.000000
vn 0.059271 0.998242 0.000000
vn 0.059271 0.998242 0.000000
vn 0.059271 0.998242 0.000000
vn 0.059271 0.998242 -0.000000
vn 0.059271 0.998242 -0.000000
vn 0.059271 0.998242 -0.000000
vn 0.232099 -0.972692 0.000002
vn 0.232099 -0.972692 0.000002
vn 0.232099 -0.972692 0.000002
vn 0.232099 -0.972692 0.000000
vn 0.232099 -0.972692 0.000000
vn 0.232099 -0.972692 0.000000
vn 0.103955 0.994582 0.000000
vn 0.103955 0.994582 0.000000
vn 0.103955 0.994582 0.000000
vn 0.103955 0.994582 0.000000
vn 0.103955 0.994582 0.000000
vn 0.103955 0.994582 0.000000
vn -1.000000 0.000000 0.000000
vn -1.000000 0.000000 0.000000
vn -1.000000 0.000000 0.000000
vn -1.000000 0.000000 0.000000
vn -1.000000 0.000000 0.000000
vn -1.000000 0.000000 0.000000
vn 0.010900 -0.999941 -0.000001
vn 0.010900 -0.999941 -0.000001
vn 0.010900 -0.999941 -0.000001
vn 0.010900 -0.999941 0.000001
vn 0.010900 -0.999941 0.000001
vn 0.010900 -0.999941 0.000001
vn 0.297111 0.954843 0.000000
vn 0.297111 0.954843 0.000000
vn 0.297111 0.954843 0.000000
vn 0.297111 0.954843 0.000000
vn 0.297111 0.954843 0.000000
vn 0.297111 0.954843 0.000000
vn 0.059260 0.998243 -0.000000
vn 0.059260 0.998243 -0.000000
vn 0.059260 0.998243 -0.000000
vn 0.059260 0.998243 0.000000
vn 0.059260 0.998243 0.000000
vn 0.059260 0.998243 0.000000
vn 0.053747 0.000000 -0.998555
vn 0.053747 0.000000 -0.998555
vn 0.053747 0.000000 -0.998555
vn 0.053747 0.000000 -0.998555
vn 0.053747 0.000000 -0.998555
vn 0.053747 0.000000 -0.998555
vn 0.254071 -0.967186 0.000000
vn 0.254071 -0.967186 0.000000
vn 0.254071 -0.967186 0.000000
vn 0.254070 -0.967186 0.000000
vn 0.254070 -0.967186 0.000000
vn 0.254070 -0.967186 0.000000
vn -0.053747 -0.000000 0.998555
vn -0.053747 -0.000000 0.998555
vn -0.053747 -0.000000 0.998555
vn -0.053747 0.000000 0.998555
vn -0.053747 0.000000 0.998555
vn -0.053747 0.000000 0.998555
vn -1.000000 0.000000 0.000000
vn -1.000000 0.000000 0.000000
vn -1.000000 0.000000 0.000000
vn -1.000000 0.000000 0.000000
vn -1.000000 0.000000 0.000000
vn -1.000000 0.000000 0.000000
vn -1.000000 -0.000000 0.000000
vn -1.000000 -0.000000 0.000000
vn -1.000000 -0.000000 0.000000
vn -1.000000 0.000000 0.000000
vn -1.000000 0.000000 0.000000
vn -1.000000 0.000000 0.000000
vn 0.703318 0.000000 -0.710875
vn 0.703318 0.000000 -0.710875
vn 0.703318 0.000000 -0.710875
vn 0.703318 0.000000 -0.710875
vn 0.703318 0.000000 -0.710875
vn 0.703318 0.000000 -0.710875
vn -0.046815 -0.997782 0.047318
vn -0.046815 -0.997782 0.047318
vn -0.046815 -0.997782 0.047318
vn 0.009393 -0.999911 0.009493
vn 0.009393 -0.999911 0.009493
vn 0.009393 -0.999911 0.009493
vn 0.703318 0.000000 0.710875
vn 0.703318 0.000000 0.710875
vn 0.703318 0.000000 0.710875
vn 0.703318 0.000000 0.710875
vn 0.703318 0.000000 0.710875
vn 0.703318 0.000000 0.710875
vn 0.000000 1.000000 0.000000
vn 0.000000 1.000000 0.000000
vn 0.000000 1.000000 0.000000
vn -0.000000 1.000000 0.000000
vn -0.000000 1.000000 0.000000
vn -0.000000 1.000000 0.000000
vn -0.159507 0.973943 -0.161221
vn -0.159507 0.973943 -0.161221
vn -0.159507 0.973943 -0.161221
vn 0.032753 0.998915 -0.033105
vn 0.032753 0.998915 -0.033105
vn 0.032753 0.998915 -0.033105
vn 0.703318 0.000000 -0.710875
vn 0.703318 0.000000 -0.710875
vn 0.703318 0.000000 -0.710875
vn 0.703318 0.000000 -0.710875
vn 0.703318 0.000000 -0.710875
vn 0.703318 0.000000 -0.710875
vn -0.000001 -1.000000 0.000002
vn -0.000001 -1.000000 0.000002
vn -0.000001 -1.000000 0.000002
vn 0.000000 -1.000000 -0.000000
vn 0.000000 -1.000000 -0.000000
vn 0.000000 -1.000000 -0.000000
vn 0.703318 0.000000 0.710875
vn 0.703318 0.000000 0.710875
vn 0.703318 0.000000 0.710875
vn 0.703318 0.000000 0.710875
vn 0.703318 0.000000 0.710875
vn 0.703318 0.000000 0.710875
vn 0.000000 0.000000 -1.000000
vn 0.000000 0.000000 -1.000000
vn 0.000000 0.000000 -1.000000
vn 0.000000 0.000000 -1.000000
vn 0.000000 0.000000 -1.000000
vn 0.000000 0.000000 -1.000000
vn 0.000000 -0.999955 0.009494
vn 0.000000 -0.999955 0.009494
vn 0.000000 -0.999955 0.009494
vn 0.000000 -0.999955 0.009494
vn 0.000000 -0.999955 0.009494
vn 0.000000 -0.999955 0.009494
vn 0.000000 0.000000 1.000000
vn 0.000000 0.000000 1.000000
vn 0.000000 0.000000 1.000000
vn 0.000000 0.000000 1.000000
vn 0.000000 0.000000 1.000000
vn 0.000000 0.000000 1.000000
vn 0.000000 1.000000 0.000000
vn 0.000000 1.000000 0.000000
vn 0.000000 1.000000 0.000000
vn 0.000000 1.000000 0.000000
vn 0.000000 1.000000 0.000000
vn 0.000000 1.000000 0.000000
vn 0.000000 0.999451 -0.033122
vn 0.000000 0.999451 -0.033122
vn 0.000000 0.999451 -0.033122
vn 0.000000 0.999451 -0.033122
vn 0.000000 0.999451 -0.033122
vn 0.000000 0.999451 -0.033122
vn 0.000000 0.000000 -1.000000
vn 0.000000 0.000000 -1.000000
vn 0.000000 0.000000 -1.000000
vn 0.000000 0.000000 -1.000000
vn 0.000000 0.000000 -1.000000
vn 0.000000 0.000000 -1.000000
vn 0.000000 -1.000000 0.000000
vn 0.000000 -1.000000 0.000000
vn 0.000000 -1.000000 0.000000
vn 0.000000 -1.000000 0.000000
vn 0.000000 -1.000000 0.000000
vn 0.000000 -1.000000 0.000000
vn 0.000000 0.000000 1.000000
vn 0.000000 0.000000 1.000000
vn 0.000000 0.000000 1.000000
vn 0.000000 0.000000 1.000000
vn 0.000000 0.000000 1.000000
vn 0.000000 0.000000 1.000000
s off
f 9/17/1 20/30/2 12/20/3
f 12/20/4 20/30/5 17/25/6
f 13/21/7 14/22/8 24/36/9
f 16/24/10 22/33/11 15/23/12
f 15/23/13 22/33/14 14/22/15
f 14/22/16 22/33/17 24/36/18
f 9/17/19 12/20/20 14/22/21
f 14/22/22 12/20/23 15/23/24
f 8/9/25 7/12/26 19/29/27
f 19/29/28 7/12/29 18/26/30
f 1/13/31 23/34/32 6/14/33
f 3/16/34 5/15/35 21/31/36
f 5/15/37 6/14/38 21/31/39
f 23/34/40 21/31/41 6/14/42
f 5/15/43 7/12/44 6/14/45
f 6/14/46 7/12/47 8/9/48
f 8/8/49 19/28/50 9/17/51
f 9/17/52 19/28/53 20/30/54
f 2/2/55 4/4/56 10/18/57
f 10/18/58 4/4/59 11/19/60
f 7/7/61 12/20/62 18/27/63
f 18/27/64 12/20/65 17/25/66
f 1/1/67 6/6/68 13/21/69
f 13/21/70 6/6/71 14/22/72
f 3/3/73 16/24/74 5/5/75
f 5/5/76 16/24/77 15/23/78
f 33/46/79 35/47/80 34/45/81
f 34/45/82 35/47/83 36/48/84
f 8/8/85 9/17/86 6/6/87
f 6/6/88 9/17/89 14/22/90
f 7/7/91 5/5/92 12/20/93
f 12/20/94 5/5/95 15/23/96
f 18/27/97 17/25/98 4/4/99
f 4/4/100 17/25/101 11/19/102
f 19/29/103 18/26/104 2/10/105
f 2/10/106 18/26/107 4/11/108
f 19/28/109 2/2/110 20/30/111
f 20/30/112 2/2/113 10/18/114
f 20/30/115 10/18/116 17/25/117
f 17/25/118 10/18/119 11/19/120
f 22/33/121 21/32/122 24/36/123
f 24/36/124 21/32/125 23/35/126
f 38/49/127 37/50/128 40/52/129
f 40/52/130 37/50/131 39/51/132
f 3/3/133 21/32/134 26/37/135
f 26/37/136 21/32/137 25/38/138
f 21/32/139 22/33/140 25/38/141
f 25/38/142 22/33/143 27/39/144
f 22/33/145 16/24/146 27/39/147
f 27/39/148 16/24/149 28/40/150
f 16/24/151 3/3/152 28/40/153
f 28/40/154 3/3/155 26/37/156
f 24/36/157 23/35/158 30/41/159
f 30/41/160 23/35/161 29/42/162
f 23/35/163 1/1/164 29/42/165
f 29/42/166 1/1/167 31/43/168
f 1/1/169 13/21/170 31/43/171
f 31/43/172 13/21/173 32/44/174
f 13/21/175 24/36/176 32/44/177
f 32/44/178 24/36/179 30/41/180
f 26/37/181 25/38/182 34/45/183
f 34/45/184 25/38/185 33/46/186
f 25/38/187 27/39/188 33/46/189
f 33/46/190 27/39/191 35/47/192
f 27/39/193 28/40/194 35/47/195
f 35/47/196 28/40/197 36/48/198
f 28/40/199 26/37/200 36/48/201
f 36/48/202 26/37/203 34/45/204
f 30/41/205 29/42/206 38/49/207
f 38/49/208 29/42/209 37/50/210
f 29/42/211 31/43/212 37/50/213
f 37/50/214 31/43/215 39/51/216
f 31/43/217 32/44/218 39/51/219
f 39/51/220 32/44/221 40/52/222
f 32/44/223 30/41/224 40/52/225
f 40/52/226 30/41/227 38/49/228
