# This file uses centimeters as units for non-parametric coordinates.

v -7.186893 -5.663705 34.649754
v -6.158443 -6.692290 34.649754
v 7.020950 -5.663705 34.649754
v 5.992508 -6.692290 34.649754
v -7.186893 6.487870 34.649754
v -6.158443 7.516456 34.649754
v 5.992508 7.516456 34.649754
v 7.020950 6.487870 34.649754
v -4.438019 -4.680419 39.130589
v -5.175781 -3.942991 39.130592
v 4.272079 -4.680419 39.130589
v 5.009842 -3.942991 39.130592
v 5.009842 4.767156 39.130592
v 4.272079 5.504584 39.130592
v -4.438019 5.504584 39.130592
v -5.175781 4.767156 39.130592
v 0.714874 1.761460 42.439651
v -2.960583 -6.692290 31.968689
v 7.020950 -2.260828 31.968689
v 7.020950 2.842212 34.649754
v 2.822495 7.516456 31.968689
v -7.186893 0.459194 31.968689
v -4.506302 -7.782698 9.378147
v 6.922913 -5.479860 9.428978
v -7.285309 6.671739 9.386063
v 5.894470 7.700300 9.401131
v 3.274155 -7.202387 9.368896
v -7.285309 -5.479860 9.410191
v -3.926464 8.312440 9.388828
v 6.922913 6.671739 9.404659
v -14.531708 -14.531708 0.000000
v 14.531708 -14.531708 0.000000
v -13.129803 -13.692450 13.976192
v 12.215424 -11.741328 13.976192
v -11.511990 11.933732 13.976192
v 13.326263 13.527322 13.976192
v -14.531708 14.531708 0.000000
v 14.531708 14.531708 0.000000
v -9.178539 -9.178615 13.976192
v 9.178543 -9.178615 13.976192
v 9.178543 9.178615 13.976192
v -9.178539 9.178615 13.976192
v -9.178539 -9.178615 11.943817
v 9.178543 -9.178615 11.943817
v 9.178543 9.178615 11.943817
v -9.178539 9.178615 11.943817
v 14.531708 -14.531707 12.692928
v -14.531708 -14.531707 12.692928
v -14.531708 14.531708 12.692928
v 14.531708 14.531708 12.692928
vt 0.987969 0.357564
vt 0.987969 0.357564
vt 0.987969 0.357564
vt 0.987969 0.357564
vt 0.987969 0.357564
vt 0.987969 0.357564
vt 0.987969 0.357564
vt 0.987969 0.357564
vt 0.085998 0.321505
vt 0.085998 0.321505
vt 0.085998 0.321505
vt 0.085998 0.321505
vt 0.085998 0.321505
vt 0.085998 0.321505
vt 0.085998 0.321505
vt 0.085998 0.321505
vt 0.085998 0.321505
vt 0.085998 0.321505
vt 0.085998 0.321505
vt 0.085998 0.321505
vt 0.085998 0.321505
vt 0.085998 0.321505
vt 0.085998 0.321505
vt 0.085998 0.321505
vt 0.085998 0.321505
vt 0.085998 0.321505
vt 0.987969 0.357564
vt 0.085998 0.321505
vt 0.987969 0.357564
vt 0.085998 0.321505
vt 0.987969 0.357564
vt 0.987969 0.357564
vt 0.085998 0.321505
vt 0.987969 0.357564
vt 0.085998 0.321505
vt 0.987969 0.357564
vt 0.987969 0.357564
vt 0.987969 0.357564
vt 0.987969 0.357564
vt 0.987969 0.357564
vt 0.987969 0.357564
vt 0.987969 0.357564
vt 0.987969 0.357564
vt 0.852137 0.507241
vt 0.852137 0.507241
vt 0.852137 0.507241
vt 0.852137 0.507241
vt 0.170849 0.027936
vt 0.170849 0.027936
vt 0.170849 0.027936
vt 0.170849 0.027936
vt 0.852137 0.507241
vt 0.852137 0.507241
vt 0.852137 0.507241
vt 0.852137 0.507241
vt 0.852137 0.507241
vt 0.852137 0.507241
vt 0.852137 0.507241
vt 0.852137 0.507241
vt 0.852137 0.507241
vt 0.852137 0.507241
vt 0.852137 0.507241
vt 0.852137 0.507241
vt 0.852137 0.507241
vt 0.852137 0.507241
vt 0.852137 0.507241
vt 0.852137 0.507241
vt 0.852137 0.507241
vt 0.852137 0.507241
vt 0.852137 0.507241
vt 0.852137 0.507241
vt 0.852137 0.507241
vt 0.852137 0.507241
vt 0.852137 0.507241
vt 0.852137 0.507241
vn 0.038205 -0.998230 0.045569
vn 0.038205 -0.998230 0.045569
vn 0.038205 -0.998230 0.045569
vn -0.006242 -0.999763 0.020844
vn -0.006242 -0.999763 0.020844
vn -0.006242 -0.999763 0.020844
vn 0.074361 -0.996304 0.043002
vn 0.074361 -0.996304 0.043002
vn 0.074361 -0.996304 0.043002
vn 0.999988 -0.003080 -0.003910
vn 0.999988 -0.003080 -0.003910
vn 0.999988 -0.003080 -0.003910
vn 0.999991 -0.000009 -0.004348
vn 0.999991 -0.000009 -0.004348
vn 0.999991 -0.000009 -0.004348
vn 0.999993 0.000000 -0.003883
vn 0.999993 0.000000 -0.003883
vn 0.999993 0.000000 -0.003883
vn 0.999992 0.001890 -0.003597
vn 0.999992 0.001890 -0.003597
vn 0.999992 0.001890 -0.003597
vn -0.999991 0.001713 0.003912
vn -0.999991 0.001713 0.003912
vn -0.999991 0.001713 0.003912
vn -0.999991 -0.001727 0.003883
vn -0.999991 -0.001727 0.003883
vn -0.999991 -0.001727 0.003883
vn -0.999991 0.000009 0.004360
vn -0.999991 0.000009 0.004360
vn -0.999991 0.000009 0.004360
vn -0.707131 0.707038 0.007900
vn -0.707131 0.707038 0.007900
vn -0.707131 0.707038 0.007900
vn -0.438877 0.898486 -0.010466
vn -0.438877 0.898486 -0.010466
vn -0.438877 0.898486 -0.010466
vn 0.707154 0.707056 0.002404
vn 0.707154 0.707056 0.002404
vn 0.707154 0.707056 0.002404
vn 0.707142 0.707068 0.002403
vn 0.707142 0.707068 0.002403
vn 0.707142 0.707068 0.002403
vn -0.609341 -0.609259 0.507452
vn -0.609341 -0.609259 0.507452
vn -0.609341 -0.609259 0.507452
vn -0.609137 -0.609418 0.507506
vn -0.609137 -0.609418 0.507506
vn -0.609137 -0.609418 0.507506
vn -0.111167 -0.921863 0.371229
vn -0.111167 -0.921863 0.371229
vn -0.111167 -0.921863 0.371229
vn 0.125094 -0.980861 0.149207
vn 0.125094 -0.980861 0.149207
vn 0.125094 -0.980861 0.149207
vn 0.000000 -0.912264 0.409602
vn 0.000000 -0.912264 0.409602
vn 0.000000 -0.912264 0.409602
vn 0.609323 -0.609239 0.507497
vn 0.609323 -0.609239 0.507497
vn 0.609323 -0.609239 0.507497
vn 0.609164 -0.609442 0.507444
vn 0.609164 -0.609442 0.507444
vn 0.609164 -0.609442 0.507444
vn 0.912323 0.000000 0.409472
vn 0.912323 0.000000 0.409472
vn 0.912323 0.000000 0.409472
vn 0.912322 0.000000 0.409473
vn 0.912322 0.000000 0.409473
vn 0.912322 0.000000 0.409473
vn 0.962372 -0.126384 0.240555
vn 0.962372 -0.126384 0.240555
vn 0.962372 -0.126384 0.240555
vn 0.915764 0.248613 0.315545
vn 0.915764 0.248613 0.315545
vn 0.915764 0.248613 0.315545
vn 0.609341 0.609258 0.507453
vn 0.609341 0.609258 0.507453
vn 0.609341 0.609258 0.507453
vn 0.609139 0.609416 0.507505
vn 0.609140 0.609416 0.507505
vn 0.609139 0.609416 0.507505
vn 0.110857 0.921854 0.371344
vn 0.110857 0.921854 0.371344
vn 0.110857 0.921854 0.371344
vn -0.125475 0.980942 0.148357
vn -0.125475 0.980941 0.148357
vn -0.125475 0.980942 0.148357
vn 0.000000 0.912265 0.409602
vn 0.000000 0.912265 0.409602
vn 0.000000 0.912265 0.409602
vn -0.609322 0.609241 0.507495
vn -0.609322 0.609241 0.507495
vn -0.609322 0.609241 0.507495
vn -0.609165 0.609441 0.507444
vn -0.609165 0.609441 0.507444
vn -0.609165 0.609441 0.507444
vn -0.922129 -0.157209 0.353503
vn -0.922129 -0.157209 0.353503
vn -0.922129 -0.157209 0.353503
vn -0.962762 0.000000 0.270351
vn -0.962762 0.000000 0.270351
vn -0.962762 0.000000 0.270351
vn -0.922167 0.155145 0.354313
vn -0.922167 0.155145 0.354313
vn -0.922167 0.155145 0.354313
vn -0.264583 -0.264706 0.927322
vn -0.264583 -0.264706 0.927322
vn -0.264583 -0.264706 0.927322
vn 0.000000 -0.456922 0.889507
vn 0.000000 -0.456922 0.889507
vn 0.000000 -0.456922 0.889507
vn 0.299649 -0.299788 0.905725
vn 0.299649 -0.299788 0.905725
vn 0.299649 -0.299788 0.905725
vn 0.610318 0.000000 0.792157
vn 0.610318 0.000000 0.792157
vn 0.610318 0.000000 0.792157
vn 0.381516 0.381687 0.841879
vn 0.381516 0.381687 0.841879
vn 0.381516 0.381687 0.841879
vn 0.000000 0.662331 0.749212
vn 0.000000 0.662331 0.749212
vn 0.000000 0.662331 0.749212
vn -0.329134 0.329284 0.885010
vn -0.329134 0.329284 0.885010
vn -0.329134 0.329284 0.885010
vn -0.489763 0.000000 0.871856
vn -0.489763 0.000000 0.871856
vn -0.489763 0.000000 0.871856
vn 0.427115 -0.903773 -0.027690
vn 0.427115 -0.903773 -0.027690
vn 0.427115 -0.903773 -0.027690
vn 0.707133 -0.707036 -0.007903
vn 0.707134 -0.707036 -0.007903
vn 0.707133 -0.707036 -0.007903
vn -0.006178 0.999954 0.007305
vn -0.006178 0.999954 0.007305
vn -0.006178 0.999954 0.007305
vn 0.009656 0.999430 0.032346
vn 0.009656 0.999430 0.032346
vn 0.009656 0.999430 0.032346
vn 0.062180 0.997927 0.016594
vn 0.062180 0.997927 0.016594
vn 0.062180 0.997927 0.016594
vn -0.638091 -0.769914 -0.008496
vn -0.638091 -0.769914 -0.008496
vn -0.638091 -0.769914 -0.008496
vn -0.707151 -0.707058 -0.002393
vn -0.707151 -0.707058 -0.002393
vn -0.707151 -0.707058 -0.002393
vn 0.000000 -1.000000 0.000000
vn 0.000000 -1.000000 0.000000
vn 0.000000 -1.000000 0.000000
vn 0.000000 -1.000000 0.000000
vn 0.000000 -1.000000 0.000000
vn 0.000000 -1.000000 0.000000
vn 0.000000 0.000000 1.000000
vn 0.000000 0.000000 1.000000
vn 0.000000 0.000000 1.000000
vn 0.000000 0.000000 1.000000
vn 0.000000 0.000000 1.000000
vn 0.000000 0.000000 1.000000
vn 0.000000 1.000000 0.000000
vn 0.000000 1.000000 0.000000
vn 0.000000 1.000000 0.000000
vn 0.000000 1.000000 0.000000
vn 0.000000 1.000000 0.000000
vn 0.000000 1.000000 0.000000
vn 0.000000 0.000000 -1.000000
vn 0.000000 0.000000 -1.000000
vn 0.000000 0.000000 -1.000000
vn 0.000000 0.000000 -1.000000
vn 0.000000 0.000000 -1.000000
vn 0.000000 0.000000 -1.000000
vn 1.000000 0.000000 0.000000
vn 1.000000 0.000000 0.000000
vn 1.000000 0.000000 0.000000
vn 1.000000 0.000000 0.000000
vn 1.000000 0.000000 0.000000
vn 1.000000 0.000000 0.000000
vn -1.000000 0.000000 0.000000
vn -1.000000 0.000000 0.000000
vn -1.000000 0.000000 0.000000
vn -1.000000 0.000000 0.000000
vn -1.000000 0.000000 0.000000
vn -1.000000 0.000000 0.000000
vn 0.000000 0.000000 1.000000
vn 0.000000 0.000000 1.000000
vn 0.000000 0.000000 1.000000
vn 0.000000 0.000000 1.000000
vn 0.000000 0.000000 1.000000
vn 0.000000 0.000000 1.000000
vn 0.000000 0.000000 1.000000
vn 0.000000 0.000000 1.000000
vn 0.000000 0.000000 1.000000
vn 0.000001 0.000000 1.000000
vn 0.000001 0.000000 1.000000
vn 0.000001 0.000000 1.000000
vn -0.000000 0.000000 1.000000
vn -0.000000 0.000000 1.000000
vn -0.000000 0.000000 1.000000
vn 0.000000 0.000000 1.000000
vn 0.000000 0.000000 1.000000
vn 0.000000 0.000000 1.000000
vn 0.000001 0.000000 1.000000
vn 0.000001 0.000000 1.000000
vn 0.000001 0.000000 1.000000
vn -0.000000 0.000000 1.000000
vn -0.000000 0.000000 1.000000
vn -0.000000 0.000000 1.000000
vn 0.000000 1.000000 0.000000
vn 0.000000 1.000000 0.000000
vn 0.000000 1.000000 0.000000
vn 0.000000 1.000000 0.000000
vn 0.000000 1.000000 0.000000
vn 0.000000 1.000000 0.000000
vn -1.000000 0.000000 0.000000
vn -1.000000 0.000000 0.000000
vn -1.000000 0.000000 0.000000
vn -1.000000 0.000000 0.000000
vn -1.000000 0.000000 0.000000
vn -1.000000 0.000000 0.000000
vn 0.000000 -1.000000 0.000000
vn 0.000000 -1.000000 0.000000
vn 0.000000 -1.000000 0.000000
vn 0.000000 -1.000000 0.000000
vn 0.000000 -1.000000 0.000000
vn 0.000000 -1.000000 0.000000
vn 1.000000 0.000000 0.000000
vn 1.000000 0.000000 0.000000
vn 1.000000 0.000000 0.000000
vn 1.000000 0.000000 0.000000
vn 1.000000 0.000000 0.000000
vn 1.000000 0.000000 0.000000
vn 0.000000 -0.417822 0.908529
vn 0.000000 -0.417822 0.908529
vn 0.000000 -0.417823 0.908529
vn 0.066734 -0.866876 0.494037
vn 0.066734 -0.866876 0.494037
vn 0.066734 -0.866876 0.494037
vn -0.391111 0.000000 0.920344
vn -0.391111 0.000000 0.920344
vn -0.391111 0.000000 0.920344
vn -0.688603 0.043472 0.723834
vn -0.688603 0.043472 0.723834
vn -0.688603 0.043472 0.723834
vn -0.051937 0.809512 0.584801
vn -0.051937 0.809512 0.584801
vn -0.051937 0.809512 0.584801
vn 0.000000 0.442867 0.896587
vn 0.000000 0.442867 0.896587
vn 0.000000 0.442867 0.896587
vn 0.484615 0.000000 0.874728
vn 0.484615 0.000000 0.874727
vn 0.484615 0.000000 0.874727
vn 0.741073 -0.032578 0.670634
vn 0.741072 -0.032578 0.670634
vn 0.741072 -0.032578 0.670634
s off
f 2/1/1 23/36/2 18/27/3
f 4/6/4 18/27/5 27/40/6
f 23/36/7 27/40/8 18/27/9
f 3/4/10 24/37/11 19/29/12
f 24/37/13 30/43/14 19/29/15
f 8/8/16 20/31/17 30/43/18
f 30/43/19 20/31/20 19/29/21
f 1/5/22 22/34/23 28/41/24
f 5/2/25 25/38/26 22/34/27
f 25/38/28 28/41/29 22/34/30
f 5/2/31 6/7/32 25/38/33
f 25/38/34 6/7/35 29/42/36
f 8/8/37 30/43/38 7/3/39
f 7/3/40 30/43/41 26/39/42
f 1/9/43 2/10/44 10/12/45
f 10/12/46 2/10/47 9/11/48
f 4/13/49 11/14/50 18/26/51
f 18/26/52 11/14/53 2/10/54
f 2/10/55 11/14/56 9/11/57
f 4/13/58 3/15/59 11/14/60
f 11/14/61 3/15/62 12/16/63
f 8/17/64 13/18/65 20/30/66
f 13/18/67 12/16/68 20/30/69
f 20/30/70 12/16/71 19/28/72
f 3/15/73 19/28/74 12/16/75
f 8/17/76 7/19/77 13/18/78
f 13/18/79 7/19/80 14/20/81
f 6/21/82 15/22/83 21/33/84
f 21/33/85 15/22/86 7/19/87
f 7/19/88 15/22/89 14/20/90
f 6/21/91 5/23/92 15/22/93
f 15/22/94 5/23/95 16/24/96
f 5/23/97 22/35/98 16/24/99
f 16/24/100 22/35/101 10/12/102
f 22/35/103 1/9/104 10/12/105
f 10/12/106 9/11/107 17/25/108
f 9/11/109 11/14/110 17/25/111
f 11/14/112 12/16/113 17/25/114
f 12/16/115 13/18/116 17/25/117
f 13/18/118 14/20/119 17/25/120
f 14/20/121 15/22/122 17/25/123
f 15/22/124 16/24/125 17/25/126
f 16/24/127 10/12/128 17/25/129
f 27/40/130 24/37/131 4/6/132
f 4/6/133 24/37/134 3/4/135
f 7/3/136 26/39/137 21/32/138
f 6/7/139 21/32/140 29/42/141
f 26/39/142 29/42/143 21/32/144
f 23/36/145 2/1/146 28/41/147
f 28/41/148 2/1/149 1/5/150
f 31/44/151 32/45/152 48/47/153
f 48/47/154 32/45/155 47/46/156
f 43/48/157 44/49/158 46/51/159
f 46/51/160 44/49/161 45/50/162
f 49/52/163 50/53/164 37/55/165
f 37/55/166 50/53/167 38/54/168
f 37/55/169 38/54/170 31/57/171
f 31/57/172 38/54/173 32/56/174
f 32/45/175 38/58/176 47/46/177
f 47/46/178 38/58/179 50/59/180
f 37/60/181 31/44/182 49/61/183
f 49/61/184 31/44/185 48/47/186
f 33/62/187 34/63/188 39/65/189
f 39/65/190 34/63/191 40/64/192
f 36/66/193 41/67/194 34/63/195
f 34/63/196 41/67/197 40/64/198
f 36/66/199 35/68/200 41/67/201
f 41/67/202 35/68/203 42/69/204
f 33/62/205 39/65/206 35/68/207
f 35/68/208 39/65/209 42/69/210
f 39/65/211 40/64/212 43/71/213
f 43/71/214 40/64/215 44/70/216
f 40/64/217 41/67/218 44/70/219
f 44/70/220 41/67/221 45/72/222
f 41/67/223 42/69/224 45/72/225
f 45/72/226 42/69/227 46/73/228
f 42/69/229 39/65/230 46/73/231
f 46/73/232 39/65/233 43/71/234
f 47/46/235 34/63/236 48/47/237
f 48/47/238 34/63/239 33/62/240
f 49/61/241 48/47/242 35/74/243
f 35/74/244 48/47/245 33/62/246
f 36/66/247 50/53/248 35/68/249
f 35/68/250 50/53/251 49/52/252
f 47/46/253 50/59/254 34/63/255
f 34/63/256 50/59/257 36/75/258
