# This file uses centimeters as units for non-parametric coordinates.

v -55.923534 0.000000 -37.899803
v -55.923534 39.291115 -37.899803
v -49.707581 40.331108 17.082764
v 55.923485 39.291115 -37.899803
v 49.707554 40.331108 9.949183
v 55.923485 0.000000 -37.899803
v -49.707554 28.805044 22.874142
v 49.707554 28.805044 15.740657
v -57.990288 15.757270 39.325214
v 58.597828 15.757270 39.325214
v 58.597805 28.201797 37.532307
v -57.990311 28.201797 37.532307
v 71.085594 0.000000 46.742702
v -64.008430 0.000000 43.218304
v 71.085571 13.030651 45.331646
v -64.008446 13.030651 41.807247
v -49.472286 0.000000 -39.729382
v -49.472286 47.938744 -39.729382
v -41.635849 49.240658 27.729488
v -41.635895 34.811867 33.738400
v -41.157051 34.056698 49.973942
v -41.157078 18.478136 51.834183
v -47.795891 16.722828 62.330410
v -47.795940 0.000000 63.794491
v 46.544048 0.000000 66.305130
v 46.544052 16.722828 64.841049
v 37.955357 18.478134 51.621506
v 37.955376 34.056698 49.761272
v 36.971569 34.811867 24.441029
v 36.971619 49.240658 18.432116
v 46.544025 47.938744 -39.729382
v 46.544075 0.000000 -39.729382
v 29.200481 47.938744 -36.340256
v 18.910217 45.156761 21.119572
v 18.910170 34.811867 27.128483
v 21.954226 32.315002 47.339031
v 21.954250 18.478134 49.199177
v -5.761337 12.011245 68.452805
v -5.761337 0.000000 69.916885
v 29.200481 0.000000 -36.340256
v -22.411896 47.938744 -41.905045
v -26.330637 49.240658 22.953297
v -26.330589 34.811867 28.962112
v -13.140870 35.611752 39.375759
v -13.140893 18.478134 41.235996
v -21.266867 16.722828 61.640812
v -21.266914 0.000000 63.104893
v -22.411896 0.000000 -41.905045
vt 0.834540 0.461008
vt 0.834540 0.461008
vt 0.834540 0.461008
vt 0.834540 0.461008
vt 0.834540 0.461008
vt 0.834540 0.461008
vt 0.834540 0.461008
vt 0.834540 0.461008
vt 0.834540 0.461008
vt 0.834540 0.461008
vt 0.834540 0.461008
vt 0.834540 0.461008
vt 0.834540 0.461008
vt 0.834540 0.461008
vt 0.834540 0.461008
vt 0.834540 0.461008
vt 0.834540 0.461008
vt 0.834540 0.461008
vt 0.834540 0.461008
vt 0.834540 0.461008
vt 0.834540 0.461008
vt 0.834540 0.461008
vt 0.834540 0.461008
vt 0.834540 0.461008
vt 0.834540 0.461008
vt 0.834540 0.461008
vt 0.834540 0.461008
vt 0.834540 0.461008
vt 0.834540 0.461008
vt 0.834540 0.461008
vt 0.834540 0.461008
vt 0.834540 0.461008
vt 0.834540 0.461008
vt 0.834540 0.461008
vt 0.834540 0.461008
vt 0.834540 0.461008
vt 0.834540 0.461008
vt 0.834540 0.461008
vt 0.834540 0.461008
vt 0.834540 0.461008
vt 0.834540 0.461008
vt 0.834540 0.461008
vt 0.834540 0.461008
vt 0.834540 0.461008
vt 0.834540 0.461008
vt 0.834540 0.461008
vt 0.834540 0.461008
vt 0.834540 0.461008
vt 0.834540 0.461008
vt 0.834540 0.461008
vt 0.834540 0.461008
vt 0.834540 0.461008
vt 0.834540 0.461008
vt 0.834540 0.461008
vt 0.834540 0.461008
vt 0.834540 0.461008
vt 0.834540 0.461008
vt 0.834540 0.461008
vt 0.834540 0.461008
vt 0.834540 0.461008
vt 0.834540 0.461008
vt 0.834540 0.461008
vt 0.834540 0.461008
vt 0.834540 0.461008
vt 0.834540 0.461008
vn -0.995754 0.041329 0.082257
vn -0.995754 0.041329 0.082257
vn -0.995754 0.041329 0.082257
vn -0.219413 0.975600 0.007941
vn -0.219413 0.975600 0.007941
vn -0.219413 0.975600 0.007941
vn -0.004518 0.999722 -0.023122
vn -0.004518 0.999723 -0.023122
vn -0.004518 0.999723 -0.023122
vn 0.994825 0.045617 0.090785
vn 0.994825 0.045617 0.090785
vn 0.994825 0.045617 0.090785
vn 0.127613 0.498166 0.857640
vn 0.127613 0.498166 0.857640
vn 0.127613 0.498166 0.857640
vn 0.050368 0.383959 0.921975
vn 0.050368 0.383959 0.921975
vn 0.050368 0.383959 0.921975
vn -0.191784 -0.000000 -0.981437
vn -0.191784 -0.000000 -0.981437
vn -0.191784 -0.000000 -0.981437
vn -0.191784 0.000000 -0.981437
vn -0.191784 0.000000 -0.981437
vn -0.191784 0.000000 -0.981437
vn -0.148375 0.131761 0.980114
vn -0.148375 0.131761 0.980114
vn -0.148375 0.131761 0.980114
vn -0.161086 0.117019 0.979979
vn -0.161086 0.117019 0.979979
vn -0.161086 0.117019 0.979979
vn 0.068383 0.120714 0.990329
vn 0.068383 0.120714 0.990329
vn 0.068383 0.120714 0.990329
vn 0.060819 0.087055 0.994345
vn 0.060819 0.087055 0.994345
vn 0.060819 0.087055 0.994345
vn 0.705919 0.654868 -0.269863
vn 0.705919 0.654868 -0.269863
vn 0.705919 0.654868 -0.269863
vn -0.113234 0.992986 0.034015
vn -0.113234 0.992986 0.034015
vn -0.113234 0.992986 0.034015
vn 0.017847 0.992620 0.119943
vn 0.017847 0.992620 0.119943
vn 0.017847 0.992620 0.119943
vn -0.583192 0.755524 -0.298446
vn -0.583192 0.755524 -0.298446
vn -0.583192 0.755524 -0.298446
vn 0.000000 -1.000000 0.000000
vn 0.000000 -1.000000 0.000000
vn 0.000000 -1.000000 0.000000
vn 0.000000 -1.000000 0.000000
vn 0.000000 -1.000000 0.000000
vn 0.000000 -1.000000 0.000000
vn 0.300138 0.932549 -0.200675
vn 0.300138 0.932549 -0.200675
vn 0.300138 0.932549 -0.200675
vn -0.022051 0.989089 0.145659
vn -0.022051 0.989089 0.145659
vn -0.022051 0.989089 0.145659
vn -0.072205 0.972230 0.222612
vn -0.072205 0.972230 0.222612
vn -0.072205 0.972230 0.222612
vn -0.995012 -0.010740 -0.099171
vn -0.995013 -0.010740 -0.099171
vn -0.995013 -0.010740 -0.099171
vn -0.272842 0.000000 -0.962059
vn -0.272842 0.000000 -0.962059
vn -0.272842 0.000000 -0.962059
vn -0.272840 0.000000 -0.962059
vn -0.272840 0.000000 -0.962059
vn -0.272840 0.000000 -0.962059
vn -0.791116 0.606678 0.077963
vn -0.791116 0.606678 0.077963
vn -0.791116 0.606678 0.077963
vn -0.784023 0.615660 0.079195
vn -0.784023 0.615660 0.079195
vn -0.784023 0.615660 0.079195
vn -0.838176 0.244867 0.487341
vn -0.838176 0.244867 0.487341
vn -0.838176 0.244867 0.487341
vn -0.854078 0.199971 0.480170
vn -0.854078 0.199971 0.480170
vn -0.854078 0.199971 0.480170
vn -0.363391 0.930072 0.053978
vn -0.363391 0.930072 0.053978
vn -0.363391 0.930072 0.053978
vn -0.405779 0.893465 -0.192519
vn -0.405779 0.893465 -0.192519
vn -0.405779 0.893465 -0.192519
vn -0.604359 0.113610 0.788570
vn -0.604359 0.113610 0.788570
vn -0.604359 0.113610 0.788570
vn -0.612639 0.093713 0.784787
vn -0.612639 0.093713 0.784787
vn -0.612639 0.093713 0.784787
vn -0.190737 0.980683 0.043361
vn -0.190737 0.980683 0.043361
vn -0.190737 0.980683 0.043361
vn -0.366699 0.922066 0.123797
vn -0.366699 0.922066 0.123797
vn -0.366699 0.922066 0.123797
vn -0.784324 0.054107 0.617988
vn -0.784324 0.054107 0.617988
vn -0.784324 0.054107 0.617988
vn -0.788733 0.066181 0.611164
vn -0.788733 0.066181 0.611164
vn -0.788732 0.066181 0.611164
vn -0.000000 -1.000000 -0.000000
vn -0.000000 -1.000000 -0.000000
vn -0.000000 -1.000000 -0.000000
vn -0.000000 -1.000000 0.000000
vn -0.000000 -1.000000 0.000000
vn -0.000000 -1.000000 0.000000
vn 0.621863 0.068301 0.780142
vn 0.621863 0.068301 0.780142
vn 0.621863 0.068301 0.780142
vn 0.627790 0.083800 0.773858
vn 0.627790 0.083800 0.773858
vn 0.627790 0.083800 0.773858
vn 0.150244 0.988078 0.033585
vn 0.150244 0.988078 0.033585
vn 0.150244 0.988078 0.033585
vn 0.189007 0.980588 0.052181
vn 0.189007 0.980588 0.052181
vn 0.189007 0.980588 0.052181
vn 0.528086 0.100686 0.843201
vn 0.528086 0.100686 0.843201
vn 0.528086 0.100686 0.843201
vn 0.519755 0.121826 0.845585
vn 0.519755 0.121826 0.845585
vn 0.519755 0.121826 0.845585
vn 0.355619 0.926970 -0.119419
vn 0.355619 0.926970 -0.119419
vn 0.355619 0.926970 -0.119419
vn 0.282481 0.959111 0.017630
vn 0.282481 0.959111 0.017630
vn 0.282481 0.959111 0.017630
vn 0.662238 0.288062 0.691709
vn 0.662238 0.288062 0.691709
vn 0.662238 0.288062 0.691709
vn 0.635079 0.346811 0.690215
vn 0.635079 0.346811 0.690215
vn 0.635079 0.346811 0.690215
vn 0.607500 0.790045 0.082300
vn 0.607500 0.790045 0.082300
vn 0.607500 0.790045 0.082300
vn 0.668646 0.740205 0.070774
vn 0.668646 0.740205 0.070774
vn 0.668646 0.740205 0.070774
vn 0.191454 0.000000 -0.981502
vn 0.191454 0.000000 -0.981502
vn 0.191454 0.000000 -0.981502
vn 0.191455 0.000000 -0.981502
vn 0.191455 0.000000 -0.981501
vn 0.191455 0.000000 -0.981502
vn 0.000000 -1.000000 0.000000
vn 0.000000 -1.000000 0.000000
vn 0.000000 -1.000000 0.000000
vn 0.000000 -1.000000 -0.000000
vn 0.000000 -1.000000 -0.000000
vn 0.000000 -1.000000 -0.000000
vn 0.089308 0.995897 -0.014595
vn 0.089308 0.995897 -0.014595
vn 0.089308 0.995897 -0.014595
vn -0.005115 0.998861 0.047445
vn -0.005115 0.998861 0.047445
vn -0.005115 0.998861 0.047445
vn 0.071934 0.383446 0.920758
vn 0.071934 0.383446 0.920758
vn 0.071934 0.383446 0.920758
vn 0.035026 0.501965 0.864179
vn 0.035026 0.501965 0.864179
vn 0.035026 0.501965 0.864179
vn -0.002953 0.997337 -0.072866
vn -0.002953 0.997337 -0.072866
vn -0.002953 0.997337 -0.072866
vn -0.210608 0.105517 0.971859
vn -0.210608 0.105517 0.971859
vn -0.210608 0.105517 0.971859
vn -0.219401 0.129989 0.966937
vn -0.219401 0.129989 0.966937
vn -0.219401 0.129989 0.966937
vn -0.055604 0.967912 0.245059
vn -0.055604 0.967912 0.245059
vn -0.055604 0.967912 0.245059
vn 0.217670 0.961214 0.169372
vn 0.217670 0.961214 0.169372
vn 0.217670 0.961214 0.169372
vn -0.380264 0.080665 0.921354
vn -0.380264 0.080665 0.921354
vn -0.380264 0.080665 0.921354
vn -0.399740 0.110909 0.909894
vn -0.399740 0.110909 0.909894
vn -0.399740 0.110909 0.909894
vn -0.000000 -1.000000 0.000000
vn -0.000000 -1.000000 0.000000
vn -0.000000 -1.000000 0.000000
vn -0.000000 -1.000000 0.000000
vn -0.000000 -1.000000 0.000000
vn -0.000000 -1.000000 0.000000
vn 0.107198 0.000000 -0.994238
vn 0.107198 0.000000 -0.994238
vn 0.107198 0.000000 -0.994238
vn 0.107198 0.000000 -0.994238
vn 0.107198 0.000000 -0.994238
vn 0.107198 0.000000 -0.994238
vn -0.005811 0.999810 -0.018621
vn -0.005811 0.999810 -0.018621
vn -0.005811 0.999810 -0.018621
vn -0.001621 0.999795 -0.020167
vn -0.001621 0.999795 -0.020167
vn -0.001621 0.999795 -0.020167
vn 0.276826 0.369422 0.887071
vn 0.276826 0.369422 0.887071
vn 0.276826 0.369422 0.887071
vn 0.276823 0.369419 0.887073
vn 0.276823 0.369419 0.887073
vn 0.276823 0.369419 0.887073
vn -0.057076 0.998360 -0.004394
vn -0.057076 0.998360 -0.004394
vn -0.057076 0.998360 -0.004394
vn 0.014366 0.998836 0.046036
vn 0.014366 0.998836 0.046036
vn 0.014366 0.998836 0.046036
vn 0.351632 0.110995 0.929535
vn 0.351632 0.110995 0.929535
vn 0.351632 0.110995 0.929535
vn 0.347080 0.101228 0.932356
vn 0.347080 0.101228 0.932356
vn 0.347080 0.101228 0.932356
vn 0.038091 0.994188 0.100693
vn 0.038091 0.994188 0.100693
vn 0.038091 0.994188 0.100693
vn 0.004357 0.985842 0.167621
vn 0.004357 0.985842 0.167621
vn 0.004357 0.985842 0.167621
vn 0.025886 0.087187 0.995856
vn 0.025886 0.087187 0.995856
vn 0.025886 0.087187 0.995856
vn 0.025887 0.087187 0.995856
vn 0.025887 0.087187 0.995856
vn 0.025887 0.087187 0.995856
vn 0.000000 -1.000000 0.000000
vn 0.000000 -1.000000 0.000000
vn 0.000000 -1.000000 0.000000
vn 0.000000 -1.000000 0.000000
vn 0.000000 -1.000000 0.000000
vn 0.000000 -1.000000 0.000000
vn -0.080142 0.000000 -0.996784
vn -0.080142 0.000000 -0.996784
vn -0.080142 0.000000 -0.996783
vn -0.080142 0.000000 -0.996784
vn -0.080142 0.000000 -0.996783
vn -0.080142 0.000000 -0.996784
vn 0.067648 0.991371 0.112287
vn 0.067648 0.991370 0.112287
vn 0.067648 0.991371 0.112287
vn 0.984153 -0.019088 -0.176292
vn 0.984153 -0.019088 -0.176292
vn 0.984153 -0.019088 -0.176292
vn -0.468766 0.862948 -0.188625
vn -0.468766 0.862948 -0.188625
vn -0.468766 0.862948 -0.188625
vn -0.999655 -0.003747 -0.025989
vn -0.999655 -0.003747 -0.025989
vn -0.999655 -0.003747 -0.025989
vn 0.999423 -0.004842 -0.033623
vn 0.999423 -0.004842 -0.033623
vn 0.999423 -0.004842 -0.033623
vn 0.991667 0.000000 0.128825
vn 0.991667 0.000000 0.128825
vn 0.991667 0.000000 0.128825
vn -0.993670 0.000000 0.112338
vn -0.993670 0.000000 0.112338
vn -0.993670 0.000000 0.112338
s off
f 1/1/1 7/10/2 3/3/3
f 34/46/4 30/38/5 33/45/6
f 33/45/7 30/38/8 31/41/9
f 6/6/10 5/5/11 8/11/12
f 35/48/13 29/37/14 34/47/15
f 34/47/16 29/37/17 30/39/18
f 31/40/19 32/42/20 33/44/21
f 33/44/22 32/42/23 40/53/24
f 37/50/25 27/35/26 36/49/27
f 36/49/28 27/35/29 28/36/30
f 39/52/31 25/33/32 38/51/33
f 38/51/34 25/33/35 26/34/36
f 6/7/37 8/12/38 11/15/39
f 28/36/40 29/37/41 36/49/42
f 36/49/43 29/37/44 35/48/45
f 7/10/46 1/1/47 12/16/48
f 39/52/49 40/54/50 25/33/51
f 25/33/52 40/54/53 32/43/54
f 6/7/55 10/14/56 15/20/57
f 27/35/58 37/50/59 26/34/60
f 26/34/61 37/50/62 38/51/63
f 16/21/64 1/1/65 14/18/66
f 18/24/67 17/22/68 2/2/69
f 2/2/70 17/22/71 1/1/72
f 2/2/73 3/3/74 18/25/75
f 18/25/76 3/3/77 19/26/78
f 7/10/79 20/28/80 3/3/81
f 3/3/82 20/28/83 19/27/84
f 21/29/85 20/28/86 12/16/87
f 12/16/88 20/28/89 7/10/90
f 9/17/91 22/30/92 12/16/93
f 12/16/94 22/30/95 21/29/96
f 22/30/97 9/17/98 23/31/99
f 23/31/100 9/17/101 16/21/102
f 24/32/103 23/31/104 14/18/105
f 14/18/106 23/31/107 16/21/108
f 1/1/109 17/23/110 14/18/111
f 14/18/112 17/23/113 24/32/114
f 25/33/115 13/19/116 26/34/117
f 26/34/118 13/19/119 15/20/120
f 27/35/121 26/34/122 10/14/123
f 10/14/124 26/34/125 15/20/126
f 28/36/127 27/35/128 11/15/129
f 11/15/130 27/35/131 10/14/132
f 8/12/133 29/37/134 11/15/135
f 11/15/136 29/37/137 28/36/138
f 30/39/139 29/37/140 5/8/141
f 5/8/142 29/37/143 8/12/144
f 30/38/145 5/5/146 31/41/147
f 31/41/148 5/5/149 4/4/150
f 6/13/151 32/42/152 4/9/153
f 4/9/154 32/42/155 31/40/156
f 25/33/157 32/43/158 13/19/159
f 13/19/160 32/43/161 6/7/162
f 42/57/163 34/46/164 41/56/165
f 41/56/166 34/46/167 33/45/168
f 42/58/169 43/59/170 34/47/171
f 34/47/172 43/59/173 35/48/174
f 44/60/175 35/48/176 43/59/177
f 44/60/178 45/61/179 36/49/180
f 36/49/181 45/61/182 37/50/183
f 37/50/184 45/61/185 38/51/186
f 38/51/187 45/61/188 46/62/189
f 46/62/190 47/63/191 38/51/192
f 38/51/193 47/63/194 39/52/195
f 48/65/196 40/54/197 47/63/198
f 47/63/199 40/54/200 39/52/201
f 33/44/202 40/53/203 41/55/204
f 41/55/205 40/53/206 48/64/207
f 19/26/208 42/57/209 18/25/210
f 18/25/211 42/57/212 41/56/213
f 20/28/214 43/59/215 19/27/216
f 19/27/217 43/59/218 42/58/219
f 44/60/220 43/59/221 21/29/222
f 21/29/223 43/59/224 20/28/225
f 22/30/226 45/61/227 21/29/228
f 21/29/229 45/61/230 44/60/231
f 45/61/232 22/30/233 46/62/234
f 46/62/235 22/30/236 23/31/237
f 24/32/238 47/63/239 23/31/240
f 23/31/241 47/63/242 46/62/243
f 24/32/244 17/23/245 47/63/246
f 47/63/247 17/23/248 48/65/249
f 41/55/250 48/64/251 18/24/252
f 18/24/253 48/64/254 17/22/255
f 36/49/256 35/48/257 44/60/258
f 6/7/259 15/20/260 13/19/261
f 9/17/262 1/1/263 16/21/264
f 12/16/265 1/1/266 9/17/267
f 6/7/268 11/15/269 10/14/270
f 4/4/271 5/5/272 6/6/273
f 1/1/274 3/3/275 2/2/276
