# This file uses centimeters as units for non-parametric coordinates.

v -85.102081 78.310417 0.000000
v 0.000000 78.310417 0.000000
v -85.102081 78.310417 -74.684525
v -9.923267 78.310417 -74.684525
v -85.102081 57.668556 0.000000
v 0.000000 57.668556 0.000000
v 0.000000 57.668739 -74.684525
v -85.102081 57.668739 -74.684525
v -75.803207 51.950283 -8.160371
v -9.298867 51.950283 -8.160371
v -9.298867 51.950596 -66.524147
v -75.803207 51.950596 -66.524147
v -75.803207 33.919415 -8.160371
v -9.298867 33.919415 -8.160371
v -9.298867 33.919407 -66.524147
v -75.803207 33.919407 -66.524147
v -83.302948 25.902838 1.821035
v 0.000000 25.902838 0.000000
v -3.591347 25.902838 -74.170464
v -85.102081 25.902838 -74.684525
v -85.102081 14.253664 0.000000
v 0.000000 14.253664 0.000000
v 0.000000 14.253496 -74.684525
v -85.102081 14.253496 -74.684525
v 0.000000 -0.000131 -74.684525
v 0.000000 -0.000006 0.000000
v -85.102081 -0.000006 0.000000
v -85.102081 -0.000131 -74.684525
v 5.335021 -0.000131 -79.366478
v 5.335021 -0.000006 4.681754
v 5.335021 14.253496 -79.366478
v 5.335021 14.253664 -1.119414
v -90.436729 -0.000006 4.681754
v -90.436729 14.253664 4.681754
v -90.436729 -0.000131 -79.366478
v -80.493919 83.712006 -5.354700
v -3.051588 83.712006 -8.422331
v -15.100435 83.712006 -71.287079
v -79.043106 83.712006 -68.934937
v -68.637154 83.712006 -15.760354
v -16.539246 83.712006 -17.733330
v -17.359085 83.712006 -59.450417
v -66.742577 83.712006 -59.654594
v -63.009960 78.541214 -19.387882
v -22.092503 78.541214 -19.387882
v -22.092503 78.541214 -55.296642
v -63.009960 78.541214 -55.296642
v -48.297150 -13.125807 -32.299393
v -36.804932 -13.125807 -32.299393
v -36.804932 -13.125807 -42.384941
v -48.297150 -13.125807 -42.384941
v -60.324711 83.712006 -3.397262
v -25.805676 83.712006 -3.397262
v -42.763111 83.712006 -15.233916
v -42.672684 78.310417 0.000000
v 0.000000 78.310417 -62.746155
v -3.871423 83.712006 -63.631092
v 5.335021 8.695394 4.681754
v -1.131296 14.253664 4.681754
v -84.513077 14.253496 -79.366478
v -90.436729 6.777791 -79.366478
v -90.436729 14.253500 -72.671417
v 0.000000 -0.000119 -46.816658
v 5.335021 -0.000077 -63.379036
v 5.335021 -0.000113 -35.414516
v 5.335063 4.401121 -51.226261
v -41.735680 -0.000006 4.681754
v -75.596970 -0.000006 4.681754
v -60.698963 -0.000006 0.000000
v -62.162910 9.275115 4.681796
vt 0.835441 0.460833
vt 0.835441 0.460833
vt 0.835441 0.460833
vt 0.835441 0.460833
vt 0.835441 0.460833
vt 0.835441 0.460833
vt 0.835441 0.460833
vt 0.835441 0.460833
vt 0.835441 0.460833
vt 0.835441 0.460833
vt 0.835441 0.460833
vt 0.835441 0.460833
vt 0.832523 0.414661
vt 0.832523 0.414661
vt 0.832523 0.414661
vt 0.832523 0.414661
vt 0.832523 0.414661
vt 0.832523 0.414661
vt 0.835441 0.460833
vt 0.835441 0.460833
vt 0.835441 0.460833
vt 0.835441 0.460833
vt 0.835441 0.460833
vt 0.835441 0.460833
vt 0.835441 0.460833
vt 0.835441 0.460833
vt 0.835441 0.460833
vt 0.835441 0.460833
vt 0.835441 0.460833
vt 0.835441 0.460833
vt 0.853225 0.513199
vt 0.853225 0.513199
vt 0.835441 0.460833
vt 0.853225 0.513199
vt 0.835441 0.460833
vt 0.853225 0.513199
vt 0.853225 0.513199
vt 0.853225 0.513199
vt 0.853225 0.513199
vt 0.853225 0.513199
vt 0.853225 0.513199
vt 0.853225 0.513199
vt 0.853225 0.513199
vt 0.853225 0.513199
vt 0.853225 0.513199
vt 0.853225 0.513199
vt 0.853225 0.513199
vt 0.853225 0.513199
vt 0.853225 0.513199
vt 0.853225 0.513199
vt 0.835441 0.460833
vt 0.835441 0.460833
vt 0.835441 0.460833
vt 0.835441 0.460833
vt 0.835441 0.460833
vt 0.835441 0.460833
vt 0.835441 0.460833
vt 0.835441 0.460833
vt 0.832523 0.414661
vt 0.832523 0.414661
vt 0.832523 0.414661
vt 0.832523 0.414661
vt 0.835441 0.371911
vt 0.832523 0.414661
vt 0.832523 0.414661
vt 0.832523 0.414661
vt 0.832523 0.414661
vt 0.832523 0.414661
vt 0.832523 0.414661
vt 0.835441 0.371911
vt 0.832523 0.414661
vt 0.835441 0.371911
vt 0.835441 0.460833
vt 0.835441 0.460833
vt 0.832523 0.414661
vt 0.832523 0.414661
vt 0.835441 0.371911
vt 0.835441 0.460833
vt 0.835441 0.460833
vt 0.832523 0.414661
vt 0.835441 0.460833
vt 0.835441 0.460833
vt 0.832523 0.414661
vt 0.835441 0.460833
vt 0.835441 0.460833
vt 0.832523 0.414661
vt 0.835441 0.460833
vt 0.835441 0.460833
vt 0.835441 0.460833
vt 0.835441 0.460833
vt 0.835441 0.460833
vt 0.835441 0.460833
vt 0.835441 0.460833
vt 0.835441 0.460833
vt 0.835441 0.460833
vt 0.835441 0.460833
vt 0.835441 0.460833
vt 0.835441 0.460833
vt 0.835441 0.460833
vt 0.835441 0.460833
vt 0.835441 0.460833
vt 0.835441 0.460833
vt 0.835441 0.460833
vt 0.835441 0.460833
vt 0.835441 0.460833
vt 0.835441 0.460833
vt 0.835441 0.460833
vt 0.835441 0.460833
vt 0.835441 0.460833
vt 0.835441 0.460833
vt 0.835441 0.460833
vt 0.835441 0.460833
vt 0.835441 0.460833
vt 0.835441 0.460833
vt 0.835441 0.460833
vt 0.835441 0.460833
vt 0.835441 0.460833
vt 0.835441 0.460833
vt 0.835441 0.460833
vt 0.835441 0.460833
vt 0.853225 0.513199
vt 0.853225 0.513199
vt 0.853225 0.513199
vt 0.853225 0.513199
vt 0.853225 0.513199
vt 0.853225 0.513199
vt 0.853225 0.513199
vt 0.853225 0.513199
vt 0.853225 0.513199
vt 0.853225 0.513199
vt 0.853225 0.513199
vt 0.835441 0.460833
vt 0.853225 0.513199
vt 0.853225 0.513199
vt 0.853225 0.513199
vt 0.853225 0.513199
vt 0.853225 0.513199
vt 0.853225 0.513199
vt 0.853225 0.513199
vt 0.853225 0.513199
vt 0.835441 0.460833
vt 0.835441 0.460833
vt 0.853225 0.513199
vt 0.853225 0.513199
vt 0.853225 0.513199
vt 0.853225 0.513199
vt 0.853225 0.513199
vt 0.835441 0.460833
vt 0.835441 0.460833
vt 0.853225 0.513199
vt 0.835441 0.460833
vt 0.853225 0.513199
vt 0.853225 0.513199
vt 0.853225 0.513199
vt 0.835441 0.460833
vt 0.835441 0.460833
vt 0.835441 0.460833
vt 0.835441 0.460833
vt 0.835441 0.460833
vt 0.835441 0.460833
vt 0.835441 0.460833
vt 0.835441 0.460833
vt 0.835441 0.460833
vt 0.835441 0.460833
vt 0.832523 0.414661
vt 0.832523 0.414661
vt 0.835441 0.460833
vt 0.832523 0.414661
vt 0.832523 0.414661
vt 0.835441 0.460833
vt 0.832523 0.414661
vt 0.832523 0.414661
vt 0.832523 0.414661
vt 0.832523 0.414661
vt 0.835441 0.460833
vt 0.835441 0.460833
vt 0.832523 0.414661
vt 0.835441 0.460833
vt 0.835441 0.460833
vt 0.832523 0.414661
vt 0.835441 0.460833
vt 0.835441 0.460833
vt 0.835441 0.460833
vt 0.835441 0.460833
vt 0.835441 0.460833
vt 0.835441 0.460833
vt 0.835441 0.460833
vt 0.835441 0.460833
vt 0.835441 0.460833
vt 0.835441 0.460833
vt 0.835441 0.460833
vt 0.835441 0.460833
vt 0.835441 0.460833
vt 0.835441 0.460833
vt 0.835441 0.460833
vt 0.835441 0.460833
vt 0.835441 0.460833
vt 0.835441 0.460833
vt 0.835441 0.460833
vt 0.835441 0.460833
vt 0.835441 0.460833
vt 0.835441 0.460833
vt 0.835441 0.460833
vt 0.835441 0.460833
vt 0.835441 0.460833
vt 0.835441 0.460833
vt 0.835441 0.460833
vt 0.853225 0.513199
vt 0.853225 0.513199
vt 0.853225 0.513199
vt 0.853225 0.513199
vt 0.853225 0.513199
vt 0.853225 0.513199
vt 0.853225 0.513199
vt 0.853225 0.513199
vt 0.853225 0.513199
vt 0.853225 0.513199
vt 0.853225 0.513199
vt 0.853225 0.513199
vt 0.853225 0.513199
vt 0.853225 0.513199
vt 0.853225 0.513199
vt 0.853225 0.513199
vt 0.853225 0.513199
vt 0.853225 0.513199
vt 0.853225 0.513199
vt 0.853225 0.513199
vt 0.853225 0.513199
vt 0.853225 0.513199
vt 0.853225 0.513199
vt 0.853225 0.513199
vn 0.000000 0.000000 1.000000
vn 0.000000 0.000000 1.000000
vn 0.000000 0.000000 1.000000
vn 0.000000 0.000000 1.000000
vn 0.000000 0.000000 1.000000
vn 0.000000 0.000000 1.000000
vn 0.000000 0.000000 1.000000
vn 0.000000 0.000000 1.000000
vn 0.000000 0.000000 1.000000
vn 0.000000 1.000000 0.000000
vn 0.000000 1.000000 0.000000
vn 0.000000 1.000000 0.000000
vn 0.000000 1.000000 0.000000
vn 0.000000 1.000000 0.000000
vn 0.000000 1.000000 0.000000
vn 0.000000 0.000000 -1.000000
vn 0.000000 0.000000 -1.000000
vn 0.000000 0.000000 -1.000000
vn 0.000000 0.000000 -1.000000
vn 0.000000 0.000000 -1.000000
vn 0.000000 0.000000 -1.000000
vn 1.000000 0.000000 0.000000
vn 1.000000 0.000000 0.000000
vn 1.000000 0.000000 0.000000
vn 1.000000 0.000000 0.000000
vn 1.000000 0.000000 0.000000
vn 1.000000 0.000000 0.000000
vn -1.000000 0.000000 0.000000
vn -1.000000 0.000000 0.000000
vn -1.000000 0.000000 0.000000
vn -1.000000 0.000000 0.000000
vn -1.000000 0.000000 0.000000
vn -1.000000 0.000000 0.000000
vn 0.000000 -0.818949 0.573867
vn 0.000000 -0.818949 0.573867
vn 0.000000 -0.818949 0.573867
vn 0.000000 -0.818948 0.573868
vn 0.000000 -0.818948 0.573868
vn 0.000000 -0.818948 0.573868
vn 0.523827 -0.851824 -0.000005
vn 0.523827 -0.851824 -0.000005
vn 0.523827 -0.851825 -0.000005
vn 0.523815 -0.851832 -0.000002
vn 0.523815 -0.851832 -0.000002
vn 0.523815 -0.851832 -0.000002
vn 0.000000 -0.818954 -0.573859
vn 0.000000 -0.818954 -0.573859
vn 0.000000 -0.818954 -0.573859
vn 0.000000 -0.818955 -0.573858
vn 0.000000 -0.818955 -0.573858
vn 0.000000 -0.818955 -0.573858
vn -0.523813 -0.851833 -0.000005
vn -0.523813 -0.851833 -0.000005
vn -0.523813 -0.851833 -0.000005
vn -0.523825 -0.851826 -0.000002
vn -0.523825 -0.851826 -0.000002
vn -0.523825 -0.851826 -0.000002
vn 0.000000 0.000000 1.000000
vn 0.000000 0.000000 1.000000
vn 0.000000 0.000000 1.000000
vn 0.000000 0.000000 1.000000
vn 0.000000 0.000000 1.000000
vn 0.000000 0.000000 1.000000
vn 1.000000 0.000000 0.000000
vn 1.000000 0.000000 0.000000
vn 1.000000 0.000000 0.000000
vn 1.000000 0.000000 0.000000
vn 1.000000 0.000000 0.000000
vn 1.000000 0.000000 0.000000
vn 0.000000 0.000000 -1.000000
vn 0.000000 0.000000 -1.000000
vn 0.000000 0.000000 -1.000000
vn 0.000000 0.000000 -1.000000
vn 0.000000 0.000000 -1.000000
vn 0.000000 0.000000 -1.000000
vn -1.000000 0.000000 0.000000
vn -1.000000 0.000000 0.000000
vn -1.000000 0.000000 0.000000
vn -1.000000 0.000000 0.000000
vn -1.000000 0.000000 0.000000
vn -1.000000 0.000000 0.000000
vn 0.015125 0.721845 0.691890
vn 0.015125 0.721845 0.691890
vn 0.015125 0.721845 0.691890
vn 0.000000 0.779669 0.626192
vn 0.000000 0.779669 0.626192
vn 0.000000 0.779669 0.626192
vn 0.668762 0.742771 -0.032382
vn 0.668762 0.742771 -0.032382
vn 0.668762 0.742771 -0.032382
vn 0.814626 0.579986 -0.000000
vn 0.814626 0.579986 -0.000000
vn 0.814626 0.579986 -0.000000
vn 0.000000 0.690199 -0.723620
vn 0.000000 0.690199 -0.723620
vn 0.000000 0.690199 -0.723620
vn 0.004436 0.710826 -0.703354
vn 0.004436 0.710826 -0.703354
vn 0.004436 0.710826 -0.703354
vn -0.719553 0.694231 0.016921
vn -0.719553 0.694231 0.016921
vn -0.719553 0.694231 0.016921
vn -0.652954 0.757398 -0.000000
vn -0.652954 0.757398 -0.000000
vn -0.652954 0.757398 -0.000000
vn 0.000000 -0.154447 0.988001
vn 0.000000 -0.154447 0.988001
vn 0.000000 -0.154447 0.988001
vn 0.021855 0.000000 0.999761
vn 0.021855 0.000000 0.999761
vn 0.021855 0.000000 0.999761
vn 0.955619 0.294605 -0.000001
vn 0.955619 0.294605 -0.000001
vn 0.955619 0.294605 -0.000001
vn 0.998830 0.000000 -0.048364
vn 0.998830 0.000000 -0.048364
vn 0.998830 0.000000 -0.048364
vn 0.006307 0.000000 -0.999980
vn 0.006307 0.000000 -0.999980
vn 0.006307 0.000000 -0.999980
vn 0.000000 0.044085 -0.999028
vn 0.000000 0.044085 -0.999028
vn 0.000000 0.044085 -0.999028
vn -1.000000 0.000000 0.000000
vn -1.000000 0.000000 0.000000
vn -1.000000 0.000000 0.000000
vn -0.988557 0.149043 0.023247
vn -0.988558 0.149043 0.023247
vn -0.988558 0.149043 0.023247
vn 1.000000 -0.000003 -0.000002
vn 1.000000 -0.000003 -0.000002
vn 1.000000 -0.000003 -0.000002
vn 1.000000 0.000000 0.000000
vn 1.000000 0.000000 0.000000
vn 1.000000 0.000000 0.000000
vn 0.000000 0.000008 1.000000
vn 0.000000 0.000008 1.000000
vn 0.000000 0.000008 1.000000
vn -0.270620 0.642247 -0.717136
vn -0.270620 0.642247 -0.717136
vn -0.270620 0.642247 -0.717136
vn -0.779989 0.618053 -0.098125
vn -0.779989 0.618053 -0.098125
vn -0.779989 0.618053 -0.098125
vn -0.000004 -1.000000 0.000002
vn -0.000004 -1.000000 0.000002
vn -0.000004 -1.000000 0.000002
vn -0.000002 -1.000000 0.000003
vn -0.000002 -1.000000 0.000003
vn -0.000002 -1.000000 0.000003
vn -0.000000 1.000000 -0.000002
vn -0.000000 1.000000 -0.000002
vn -0.000000 1.000000 -0.000002
vn -0.000002 1.000000 -0.000002
vn -0.000002 1.000000 -0.000002
vn -0.000002 1.000000 -0.000002
vn 0.000000 -1.000000 0.000000
vn 0.000000 -1.000000 0.000000
vn 0.000000 -1.000000 0.000000
vn 0.000000 -1.000000 -0.000000
vn 0.000000 -1.000000 -0.000000
vn 0.000000 -1.000000 -0.000000
vn 0.000000 1.000000 0.000000
vn 0.000000 1.000000 0.000000
vn 0.000000 1.000000 0.000000
vn 0.000000 1.000000 0.000000
vn 0.000000 1.000000 0.000000
vn 0.000000 1.000000 0.000000
vn -0.000001 -1.000000 0.000002
vn -0.000001 -1.000000 0.000002
vn -0.000001 -1.000000 0.000002
vn 0.000001 -1.000000 0.000001
vn 0.000001 -1.000000 0.000001
vn 0.000001 -1.000000 0.000001
vn 0.000000 -1.000000 0.000000
vn 0.000000 -1.000000 0.000000
vn 0.000000 -1.000000 0.000000
vn 0.000000 -1.000000 0.000000
vn 0.000000 -1.000000 0.000000
vn 0.000000 -1.000000 0.000000
vn 0.000000 0.532393 0.846497
vn 0.000000 0.532393 0.846497
vn 0.000000 0.532393 0.846497
vn 0.112049 0.854412 0.507372
vn 0.112049 0.854412 0.507372
vn 0.112049 0.854412 0.507372
vn 0.870665 0.491876 0.000000
vn 0.870665 0.491876 0.000000
vn 0.870665 0.491876 0.000000
vn 0.813674 0.581196 -0.012083
vn 0.813674 0.581196 -0.012083
vn 0.813674 0.581196 -0.012083
vn -0.031615 0.510261 -0.859438
vn -0.031615 0.510262 -0.859438
vn -0.031615 0.510261 -0.859438
vn 0.000000 0.728819 -0.684707
vn 0.000000 0.728819 -0.684707
vn 0.000000 0.728819 -0.684707
vn -0.665452 0.746440 0.000000
vn -0.665452 0.746440 0.000000
vn -0.665452 0.746440 0.000000
vn -0.769176 0.638795 -0.017552
vn -0.769176 0.638795 -0.017552
vn -0.769176 0.638796 -0.017552
vn 0.000000 1.000000 0.000000
vn 0.000000 1.000000 0.000000
vn 0.000000 1.000000 0.000000
vn 0.000000 1.000000 0.000000
vn 0.000000 1.000000 0.000000
vn 0.000000 1.000000 0.000000
vn 0.000000 1.000000 0.000000
vn 0.000000 1.000000 0.000000
vn 0.000000 1.000000 0.000000
vn 0.000000 1.000000 -0.000000
vn 0.000000 1.000000 -0.000000
vn 0.000000 1.000000 -0.000000
vn 0.000000 1.000000 0.000000
vn 0.000000 1.000000 0.000000
vn 0.000000 1.000000 0.000000
vn 0.000000 1.000000 0.000000
vn 0.000000 1.000000 0.000000
vn 0.000000 1.000000 0.000000
vn 0.000000 1.000000 -0.000000
vn 0.000000 1.000000 -0.000000
vn 0.000000 1.000000 -0.000000
vn 0.000000 1.000000 0.000000
vn 0.000000 1.000000 0.000000
vn 0.000000 1.000000 0.000000
vn -0.087465 0.387574 -0.917680
vn -0.087465 0.387574 -0.917680
vn -0.087465 0.387574 -0.917680
vn 0.000000 0.626287 -0.779592
vn 0.000000 0.626287 -0.779592
vn 0.000000 0.626287 -0.779592
vn 0.016480 0.586189 -0.810007
vn 0.016480 0.586189 -0.810007
vn 0.016480 0.586189 -0.810007
vn -0.731757 0.681414 0.014381
vn -0.731757 0.681414 0.014381
vn -0.731757 0.681414 0.014381
vn -0.681455 0.731860 0.000000
vn -0.681455 0.731860 0.000000
vn -0.681455 0.731860 0.000000
vn -0.003217 0.628054 0.778163
vn -0.003217 0.628054 0.778163
vn -0.003217 0.628054 0.778163
vn 0.000000 0.644447 0.764649
vn 0.000000 0.644447 0.764649
vn 0.000000 0.644447 0.764649
vn 0.796365 0.603839 0.034373
vn 0.796365 0.603839 0.034373
vn 0.796365 0.603839 0.034373
vn 0.676615 0.736337 0.000000
vn 0.676615 0.736337 0.000000
vn 0.676615 0.736337 0.000000
vn 0.000000 0.139476 -0.990226
vn 0.000000 0.139476 -0.990225
vn 0.000000 0.139476 -0.990226
vn 0.000000 0.139475 -0.990226
vn 0.000000 0.139475 -0.990226
vn 0.000000 0.139475 -0.990226
vn -0.987364 0.158470 0.000000
vn -0.987364 0.158471 0.000000
vn -0.987364 0.158470 0.000000
vn -0.987364 0.158471 0.000000
vn -0.987364 0.158471 0.000000
vn -0.987364 0.158471 0.000000
vn 0.000000 0.139478 0.990225
vn 0.000000 0.139478 0.990225
vn 0.000000 0.139478 0.990225
vn 0.000000 0.139478 0.990225
vn 0.000000 0.139478 0.990225
vn 0.000000 0.139478 0.990225
vn 0.987363 0.158475 0.000000
vn 0.987363 0.158475 0.000000
vn 0.987363 0.158475 0.000000
vn 0.987363 0.158475 0.000000
vn 0.987363 0.158475 0.000000
vn 0.987363 0.158475 0.000000
vn 0.000000 1.000000 0.000000
vn 0.000000 1.000000 0.000000
vn 0.000000 1.000000 0.000000
vn 0.000000 1.000000 0.000000
vn 0.000000 1.000000 0.000000
vn 0.000000 1.000000 0.000000
vn 0.219001 0.920035 0.324922
vn 0.219001 0.920035 0.324922
vn 0.219001 0.920035 0.324922
vn 0.000000 0.532393 0.846497
vn 0.000000 0.532393 0.846497
vn 0.000000 0.532393 0.846497
vn -0.065987 0.730312 0.679919
vn -0.065987 0.730312 0.679919
vn -0.065987 0.730312 0.679919
vn -0.227969 0.917261 0.326591
vn -0.227969 0.917261 0.326591
vn -0.227969 0.917261 0.326591
vn 0.721309 0.346762 -0.599558
vn 0.721309 0.346762 -0.599558
vn 0.721309 0.346762 -0.599558
vn 0.702219 0.407668 -0.583691
vn 0.702219 0.407668 -0.583691
vn 0.702219 0.407668 -0.583691
vn 0.386645 0.727265 -0.567091
vn 0.386645 0.727265 -0.567091
vn 0.386645 0.727265 -0.567091
vn 0.000000 1.000000 0.000001
vn 0.000000 1.000000 0.000001
vn 0.000000 1.000000 0.000001
vn 0.527348 0.613500 0.587812
vn 0.527348 0.613500 0.587812
vn 0.527348 0.613500 0.587812
vn 0.000000 1.000000 0.000000
vn 0.000000 1.000000 0.000000
vn 0.000000 1.000000 0.000000
vn 0.000000 1.000000 -0.000000
vn 0.000000 1.000000 -0.000000
vn 0.000000 1.000000 -0.000000
vn 0.000000 1.000000 0.000000
vn 0.000000 1.000000 0.000000
vn 0.000000 1.000000 0.000000
vn 0.000000 0.000000 -1.000000
vn 0.000000 0.000000 -1.000000
vn 0.000000 0.000000 -1.000000
vn 0.000000 0.000000 -1.000000
vn 0.000000 0.000000 -1.000000
vn 0.000000 0.000000 -1.000000
vn -0.000000 0.000000 -1.000000
vn -0.000000 0.000000 -1.000000
vn -0.000000 0.000000 -1.000000
vn -1.000000 0.000000 0.000000
vn -1.000000 0.000000 0.000000
vn -1.000000 0.000000 0.000000
vn -1.000000 0.000000 0.000000
vn -1.000000 0.000000 0.000000
vn -1.000000 0.000000 0.000000
vn -1.000000 0.000000 0.000000
vn -1.000000 0.000000 0.000000
vn -1.000000 0.000000 0.000000
vn -0.000000 1.000000 -0.000002
vn -0.000000 1.000000 -0.000002
vn -0.000000 1.000000 -0.000002
vn -0.000002 1.000000 -0.000002
vn -0.000002 1.000000 -0.000002
vn -0.000002 1.000000 -0.000002
vn 0.000009 -1.000000 0.000000
vn 0.000009 -1.000000 0.000000
vn 0.000009 -1.000000 0.000000
vn 0.000003 -1.000000 0.000003
vn 0.000003 -1.000000 0.000003
vn 0.000003 -1.000000 0.000003
vn 0.726457 -0.646144 0.234002
vn 0.726457 -0.646144 0.234002
vn 0.726457 -0.646144 0.234002
vn 0.497240 -0.835837 -0.232656
vn 0.497240 -0.835837 -0.232656
vn 0.497240 -0.835837 -0.232656
vn 1.000000 0.000000 0.000000
vn 1.000000 0.000000 0.000000
vn 1.000000 0.000000 0.000000
vn 1.000000 -0.000005 0.000001
vn 1.000000 -0.000005 0.000001
vn 1.000000 -0.000005 0.000001
vn 1.000000 0.000001 0.000001
vn 1.000000 0.000001 0.000001
vn 1.000000 0.000001 0.000001
vn 1.000000 0.000004 -0.000000
vn 1.000000 0.000004 -0.000000
vn 1.000000 0.000004 -0.000000
vn 0.000000 -1.000000 0.000000
vn 0.000000 -1.000000 0.000000
vn 0.000000 -1.000000 0.000000
vn 0.000000 -1.000000 0.000000
vn 0.000000 -1.000000 0.000000
vn 0.000000 -1.000000 0.000000
vn -0.211967 -0.466834 0.858566
vn -0.211967 -0.466834 0.858566
vn -0.211967 -0.466834 0.858566
vn 0.000000 0.000000 1.000000
vn 0.000000 0.000000 1.000000
vn 0.000000 0.000000 1.000000
vn -0.000002 -0.000002 1.000000
vn -0.000002 -0.000002 1.000000
vn -0.000002 -0.000002 1.000000
vn 0.000001 -0.000003 1.000000
vn 0.000001 -0.000003 1.000000
vn 0.000001 -0.000003 1.000000
vn 0.000000 0.000000 1.000000
vn 0.000000 0.000000 1.000000
vn 0.000000 0.000000 1.000000
vn 0.000000 0.000000 1.000000
vn 0.000000 0.000000 1.000000
vn 0.000000 0.000000 1.000000
vn 0.274992 -0.398301 0.875063
vn 0.274992 -0.398301 0.875063
vn 0.274992 -0.398301 0.875063
vn 0.000000 -1.000000 0.000002
vn 0.000000 -1.000000 0.000002
vn 0.000000 -1.000000 0.000002
vn 0.000000 -1.000000 0.000002
vn 0.000000 -1.000000 0.000002
vn 0.000000 -1.000000 0.000002
vn -0.000000 -1.000000 0.000002
vn -0.000000 -1.000000 0.000002
vn -0.000000 -1.000000 0.000002
vn 0.000000 -1.000000 0.000000
vn 0.000000 -1.000000 0.000000
vn 0.000000 -1.000000 0.000000
s off
f 5/189/1 6/185/2 1/118/3
f 1/118/4 6/185/5 55/202/6
f 6/185/7 2/116/8 55/202/9
f 48/63/10 49/77/11 51/70/12
f 51/70/13 49/77/14 50/72/15
f 3/111/16 4/113/17 8/191/18
f 8/191/19 4/113/20 7/194/21
f 7/193/22 56/205/23 6/186/24
f 6/186/25 56/205/26 2/115/27
f 8/192/28 5/188/29 3/6/30
f 3/6/31 5/188/32 1/119/33
f 9/179/34 10/175/35 5/190/36
f 5/190/37 10/175/38 6/8/39
f 10/176/40 11/183/41 6/187/42
f 6/187/43 11/183/44 7/10/45
f 8/12/46 7/9/47 12/181/48
f 12/181/49 7/9/50 11/184/51
f 12/182/52 9/178/53 8/11/54
f 8/11/55 9/178/56 5/7/57
f 13/169/58 14/165/59 9/180/60
f 9/180/61 14/165/62 10/14/63
f 14/166/64 15/173/65 10/177/66
f 10/177/67 15/173/68 11/16/69
f 12/18/70 11/15/71 16/171/72
f 16/171/73 11/15/74 15/174/75
f 16/172/76 13/168/77 12/17/78
f 12/17/79 13/168/80 9/13/81
f 18/155/82 14/20/83 17/159/84
f 17/159/85 14/20/86 13/170/87
f 18/156/88 19/163/89 14/167/90
f 14/167/91 19/163/92 15/22/93
f 15/21/94 19/164/95 16/24/96
f 16/24/97 19/164/98 20/161/99
f 17/158/100 13/19/101 20/162/102
f 20/162/103 13/19/104 16/23/105
f 21/142/106 22/148/107 17/160/108
f 17/160/109 22/148/110 18/26/111
f 23/151/112 19/28/113 22/149/114
f 22/149/115 19/28/116 18/157/117
f 20/30/118 19/27/119 24/132/120
f 24/132/121 19/27/122 23/33/123
f 24/35/124 21/141/125 20/29/126
f 20/29/127 21/141/128 17/25/129
f 66/223/130 64/220/131 31/43/132
f 31/43/133 64/220/134 29/123/135
f 34/130/136 70/230/137 59/211/138
f 61/214/139 62/217/140 24/127/141
f 24/128/142 60/213/143 61/215/144
f 63/218/145 65/221/146 26/38/147
f 26/38/148 65/221/149 30/145/150
f 22/150/151 32/138/152 23/34/153
f 23/34/154 32/138/155 31/125/156
f 69/229/157 26/153/158 67/225/159
f 67/225/160 26/153/161 30/146/162
f 22/32/163 21/143/164 59/210/165
f 59/210/166 21/143/167 34/129/168
f 28/40/169 27/147/170 35/121/171
f 35/121/172 27/147/173 33/136/174
f 25/37/175 28/137/176 29/49/177
f 29/49/178 28/137/179 35/122/180
f 55/201/181 2/117/182 53/198/183
f 53/198/184 2/117/185 37/106/186
f 2/2/187 56/204/188 37/105/189
f 37/105/190 56/204/191 57/207/192
f 38/102/193 4/4/194 39/100/195
f 39/100/196 4/4/197 3/112/198
f 3/3/199 1/120/200 39/99/201
f 39/99/202 1/120/203 36/109/204
f 36/51/205 52/195/206 40/96/207
f 40/96/208 52/195/209 54/200/210
f 37/52/211 57/206/212 41/93/213
f 41/93/214 57/206/215 42/91/216
f 42/90/217 38/53/218 43/88/219
f 43/88/220 38/53/221 39/101/222
f 36/110/223 40/97/224 39/54/225
f 39/54/226 40/97/227 43/87/228
f 41/95/229 45/82/230 54/199/231
f 45/82/232 44/84/233 54/199/234
f 40/55/235 54/199/236 44/84/237
f 42/92/238 46/79/239 41/56/240
f 41/56/241 46/79/242 45/81/243
f 42/57/244 43/89/245 46/78/246
f 46/78/247 43/89/248 47/74/249
f 43/58/250 40/98/251 47/73/252
f 47/73/253 40/98/254 44/85/255
f 44/59/256 45/83/257 48/67/258
f 48/67/259 45/83/260 49/76/261
f 45/60/262 46/80/263 49/64/264
f 49/64/265 46/80/266 50/71/267
f 46/61/268 47/75/269 50/65/270
f 50/65/271 47/75/272 51/69/273
f 47/62/274 44/86/275 51/66/276
f 51/66/277 44/86/278 48/68/279
f 54/200/280 53/197/281 41/94/282
f 41/94/283 53/197/284 37/107/285
f 54/200/286 52/195/287 55/203/288
f 55/201/289 52/196/290 1/1/291
f 1/1/292 52/196/293 36/108/294
f 54/200/295 55/203/296 53/197/297
f 56/205/298 7/193/299 4/5/300
f 56/204/301 4/114/302 57/207/303
f 57/207/304 4/114/305 38/103/306
f 42/91/307 57/206/308 38/104/309
f 59/211/310 58/208/311 32/140/312
f 22/32/313 59/210/314 32/44/315
f 24/36/316 23/152/317 60/212/318
f 60/212/319 23/152/320 31/126/321
f 31/48/322 29/124/323 60/213/324
f 35/50/325 61/215/326 29/124/327
f 61/215/328 60/213/329 29/124/330
f 35/47/331 33/45/332 61/214/333
f 61/214/334 33/45/335 62/217/336
f 33/45/337 34/131/338 62/217/339
f 24/133/340 62/216/341 21/31/342
f 21/31/343 62/216/344 34/46/345
f 63/218/346 25/154/347 64/219/348
f 64/219/349 25/154/350 29/42/351
f 66/224/352 63/218/353 64/219/354
f 65/221/355 63/218/356 66/224/357
f 30/144/358 65/222/359 58/209/360
f 58/209/361 65/222/362 66/223/363
f 58/209/364 66/223/365 32/139/366
f 32/139/367 66/223/368 31/43/369
f 69/229/370 68/227/371 27/39/372
f 27/39/373 68/227/374 33/135/375
f 70/231/376 69/229/377 67/225/378
f 33/134/379 68/228/380 34/130/381
f 34/130/382 68/228/383 70/230/384
f 70/230/385 67/226/386 59/211/387
f 30/41/388 58/208/389 67/226/390
f 59/211/391 67/226/392 58/208/393
f 68/227/394 69/229/395 70/231/396
f 26/153/397 69/229/398 63/218/399
f 27/147/400 28/137/401 69/229/402
f 69/229/403 28/137/404 63/218/405
f 63/218/406 28/137/407 25/154/408
