# This file uses centimeters as units for non-parametric coordinates.

v -0.289488 0.000000 0.000000
v 300.000000 0.000000 0.000000
v -0.289488 0.000000 -300.000000
v 300.000000 0.000000 -300.000000
v -0.289488 0.000000 -225.000046
vt 0.562389 0.779598
vt 0.562389 0.779598
vt 0.562389 0.779598
vt 0.562389 0.779598
vt 0.562389 0.779598
vn 0.000000 1.000000 0.000000
vn 0.000000 1.000000 0.000000
vn 0.000000 1.000000 0.000000
vn 0.000000 1.000000 0.000000
vn 0.000000 1.000000 0.000000
vn 0.000000 1.000000 0.000000
vn 0.000000 1.000000 0.000000
vn 0.000000 1.000000 0.000000
vn 0.000000 1.000000 0.000000
s off
f 1/3/1 2/4/2 5/5/3
f 4/2/4 3/1/5 2/4/6
f 5/5/7 2/4/8 3/1/9
