# This file uses centimeters as units for non-parametric coordinates.

v -0.289488 0.000000 0.000000
v 300.000000 0.000000 0.000000
v -0.289488 0.000000 -300.000000
v 300.000000 0.000000 -300.000000
v 218.044800 0.000000 -300.000000
v 218.044800 0.000000 0.000000
v 145.266678 0.000000 -300.000000
v 145.266678 0.000000 0.000000
v 72.488647 0.000000 -300.000000
v 72.488647 0.000000 0.000000
v 300.000000 0.000000 -75.000000
v 218.044800 0.000000 -75.000000
v 145.266678 3.167957 -75.000000
v 72.488647 0.000000 -75.000000
v -0.289488 0.000000 -75.000000
v 300.000000 0.000000 -150.000000
v 218.044800 9.573566 -150.000000
v 145.266678 9.573566 -169.306946
v 72.488647 3.167957 -150.000000
v -0.289488 0.000000 -150.000000
v 300.000000 0.000000 -225.000000
v 218.044800 3.167957 -225.000000
v 145.266678 0.000000 -225.000000
v 72.488647 3.768802 -225.000000
v -0.289488 0.000000 -225.000046
vt 0.040716 0.376901
vt 0.040716 0.376901
vt 0.040716 0.376900
vt 0.040716 0.376900
vt 0.040716 0.376901
vt 0.040716 0.376900
vt 0.040716 0.376900
vt 0.040716 0.376900
vt 0.040716 0.376900
vt 0.040716 0.376900
vt 0.040716 0.376901
vt 0.040716 0.376901
vt 0.040716 0.376900
vt 0.040716 0.376900
vt 0.040716 0.376901
vt 0.040716 0.376900
vt 0.040716 0.376900
vt 0.040716 0.376900
vt 0.040716 0.376900
vt 0.040716 0.376900
vt 0.040716 0.376900
vt 0.040716 0.376900
vt 0.040716 0.376900
vt 0.040716 0.376900
vt 0.040716 0.376900
vn 0.000000 1.000000 0.000000
vn 0.000000 1.000000 0.000000
vn 0.000000 1.000000 0.000000
vn 0.000000 1.000000 0.000000
vn 0.000000 1.000000 0.000000
vn 0.000000 1.000000 0.000000
vn 0.043449 0.998166 0.042162
vn 0.043449 0.998166 0.042162
vn 0.043449 0.998166 0.042162
vn 0.000000 1.000000 0.000000
vn 0.000000 1.000000 0.000000
vn 0.000000 1.000000 0.000000
vn -0.043488 0.999054 0.000000
vn -0.043488 0.999054 0.000000
vn -0.043488 0.999054 0.000000
vn 0.000000 0.999109 0.042202
vn 0.000000 0.999109 0.042202
vn 0.000000 0.999109 0.042202
vn 0.000000 1.000000 0.000000
vn 0.000000 1.000000 0.000000
vn 0.000000 1.000000 0.000000
vn 0.000000 1.000000 0.000000
vn 0.000000 1.000000 0.000000
vn 0.000000 1.000000 0.000000
vn 0.115104 0.985358 0.125779
vn 0.115104 0.985358 0.125779
vn 0.115104 0.985358 0.125779
vn 0.000000 1.000000 0.000000
vn 0.000000 1.000000 0.000000
vn 0.000000 1.000000 0.000000
vn -0.017975 0.997540 0.067756
vn -0.017975 0.997540 0.067756
vn -0.017975 0.997540 0.067756
vn 0.043138 0.991028 0.126502
vn 0.043138 0.991028 0.126502
vn 0.043138 0.991028 0.126502
vn -0.043449 0.998166 0.042162
vn -0.043449 0.998166 0.042162
vn -0.043449 0.998166 0.042162
vn -0.069666 0.995277 0.067602
vn -0.069666 0.995277 0.067602
vn -0.069666 0.995277 0.067602
vn -0.043488 0.999054 0.000000
vn -0.043488 0.999054 0.000000
vn -0.043488 0.999054 0.000000
vn 0.000000 0.999109 0.042202
vn 0.000000 0.999109 0.042202
vn 0.000000 0.999109 0.042202
vn 0.115610 0.989692 -0.084528
vn 0.115611 0.989691 -0.084528
vn 0.115610 0.989691 -0.084528
vn 0.038626 0.999254 0.000000
vn 0.038626 0.999254 0.000000
vn 0.038626 0.999254 0.000000
vn -0.042860 0.984639 -0.169258
vn -0.042860 0.984639 -0.169258
vn -0.042860 0.984639 -0.169258
vn 0.022570 0.996119 -0.085077
vn 0.022570 0.996119 -0.085077
vn 0.022570 0.996119 -0.085077
vn -0.085573 0.996300 0.007982
vn -0.085573 0.996300 0.007982
vn -0.085573 0.996300 0.007982
vn 0.050970 0.984264 -0.169194
vn 0.050970 0.984264 -0.169194
vn 0.050970 0.984264 -0.169194
vn -0.051716 0.998662 0.000000
vn -0.051716 0.998662 0.000000
vn -0.051716 0.998662 0.000000
vn -0.043486 0.999022 0.008003
vn -0.043486 0.999022 0.008003
vn -0.043486 0.999022 0.008003
vn 0.000000 0.999109 -0.042202
vn 0.000000 0.999109 -0.042202
vn 0.000000 0.999109 -0.042202
vn 0.038626 0.999254 0.000000
vn 0.038626 0.999254 0.000000
vn 0.038626 0.999254 0.000000
vn 0.000000 1.000000 0.000000
vn 0.000000 1.000000 0.000000
vn 0.000000 1.000000 0.000000
vn -0.043449 0.998166 -0.042162
vn -0.043449 0.998166 -0.042162
vn -0.043449 0.998166 -0.042162
vn 0.051651 0.997407 -0.050120
vn 0.051651 0.997407 -0.050120
vn 0.051651 0.997407 -0.050120
vn 0.000000 1.000000 0.000000
vn 0.000000 1.000000 0.000000
vn 0.000000 1.000000 0.000000
vn 0.000000 1.000000 0.000000
vn 0.000000 1.000000 0.000000
vn 0.000000 1.000000 0.000000
vn -0.051650 0.997407 -0.050120
vn -0.051650 0.997407 -0.050120
vn -0.051650 0.997407 -0.050120
s off
f 12/12/1 6/6/2 11/11/3
f 11/11/4 6/6/5 2/4/6
f 13/13/7 8/8/8 12/12/9
f 12/12/10 8/8/11 6/6/12
f 14/14/13 10/10/14 13/13/15
f 13/13/16 10/10/17 8/8/18
f 15/15/19 1/3/20 14/14/21
f 14/14/22 1/3/23 10/10/24
f 17/17/25 12/12/26 16/16/27
f 16/16/28 12/12/29 11/11/30
f 18/18/31 13/13/32 17/17/33
f 17/17/34 13/13/35 12/12/36
f 14/14/37 13/13/38 19/19/39
f 19/19/40 13/13/41 18/18/42
f 20/20/43 15/15/44 19/19/45
f 19/19/46 15/15/47 14/14/48
f 17/17/49 16/16/50 22/22/51
f 22/22/52 16/16/53 21/21/54
f 23/23/55 18/18/56 22/22/57
f 22/22/58 18/18/59 17/17/60
f 19/19/61 18/18/62 24/24/63
f 24/24/64 18/18/65 23/23/66
f 25/25/67 20/20/68 24/24/69
f 24/24/70 20/20/71 19/19/72
f 5/5/73 22/22/74 4/2/75
f 4/2/76 22/22/77 21/21/78
f 7/7/79 23/23/80 5/5/81
f 5/5/82 23/23/83 22/22/84
f 24/24/85 23/23/86 9/9/87
f 9/9/88 23/23/89 7/7/90
f 3/1/91 25/25/92 9/9/93
f 9/9/94 25/25/95 24/24/96
