# This file uses centimeters as units for non-parametric coordinates.

v -22.579248 -93.310562 -50.000000
v 22.579248 -93.310562 -50.000000
v -16.038654 93.310562 -3.622246
v -22.579248 86.770027 -2.062416
v -16.038654 87.005501 4.657364
v 22.579248 86.770027 -2.062416
v 16.038654 93.310562 -3.622246
v 16.038654 87.005501 4.657364
v -22.579248 -93.310562 43.459511
v -16.038654 -93.310562 50.000000
v 22.579248 -93.310562 43.459511
v 16.038654 -93.310562 50.000000
v -22.579248 86.770027 -50.000000
v -16.038654 93.310562 -50.000000
v 22.579248 86.770027 -50.000000
v 16.038654 93.310562 -50.000000
v -16.038654 -3.152531 27.328682
v 16.038654 -3.152531 27.328682
v 22.579248 -3.270268 -50.000000
v -22.579248 -3.270268 -50.000000
v -22.579248 -3.270268 20.698547
v 16.038654 41.926479 15.993023
v 22.579248 41.749874 9.318066
v 22.579248 41.749874 -50.000000
v -22.579248 41.749874 -50.000000
v -22.579248 41.749874 9.318066
v -16.038654 75.880791 7.454807
v -8.386612 41.926479 15.993023
v -16.038654 14.374640 22.921263
v -18.348316 41.864117 13.635916
v 22.579248 11.461405 16.974581
v 19.806818 -3.220361 23.508938
v 22.579248 -34.936993 28.703463
v 22.579248 -3.270268 14.634960
vt 0.448400 0.363648
vt 0.448400 0.363648
vt 0.448400 0.363648
vt 0.448400 0.363648
vt 0.448400 0.363648
vt 0.448400 0.363648
vt 0.448400 0.363648
vt 0.448400 0.363648
vt 0.448400 0.363648
vt 0.448400 0.363648
vt 0.448400 0.363648
vt 0.448400 0.363648
vt 0.448400 0.363648
vt 0.448400 0.363648
vt 0.448400 0.363648
vt 0.448400 0.363648
vt 0.448400 0.363648
vt 0.448400 0.363648
vt 0.448400 0.363648
vt 0.448400 0.363648
vt 0.448400 0.363648
vt 0.448400 0.363648
vt 0.448400 0.363648
vt 0.448400 0.363648
vt 0.448400 0.363648
vt 0.448400 0.363648
vt 0.448400 0.363648
vt 0.448400 0.363648
vt 0.448400 0.363648
vt 0.448400 0.363648
vt 0.448400 0.363648
vt 0.448400 0.363648
vt 0.448400 0.363648
vt 0.448400 0.363648
vn 0.000000 -1.000000 0.000000
vn 0.000000 -1.000000 0.000000
vn 0.000000 -1.000000 0.000000
vn 0.000000 -1.000000 -0.000001
vn 0.000000 -1.000000 -0.000001
vn 0.000000 -1.000000 -0.000001
vn 0.000000 -1.000000 0.000000
vn 0.000000 -1.000000 0.000000
vn 0.000000 -1.000000 0.000000
vn 0.000000 -1.000000 0.000005
vn 0.000000 -1.000000 0.000005
vn 0.000000 -1.000000 0.000005
vn 1.000000 0.000000 0.000000
vn 1.000000 0.000000 0.000000
vn 1.000000 0.000000 0.000000
vn 1.000000 -0.000000 0.000000
vn 1.000000 -0.000000 0.000000
vn 1.000000 -0.000000 0.000000
vn -1.000000 -0.000000 0.000000
vn -1.000000 -0.000000 0.000000
vn -1.000000 -0.000000 0.000000
vn -1.000000 0.000000 0.000000
vn -1.000000 0.000000 0.000000
vn -1.000000 0.000000 0.000000
vn 0.000000 0.000000 -1.000000
vn 0.000000 0.000000 -1.000000
vn 0.000000 0.000000 -1.000000
vn 0.000000 0.000000 -1.000000
vn 0.000000 0.000000 -1.000000
vn 0.000000 0.000000 -1.000000
vn -0.000000 0.000000 -1.000000
vn -0.000000 0.000000 -1.000000
vn -0.000000 0.000000 -1.000000
vn 0.000000 0.000000 -1.000000
vn 0.000000 0.000000 -1.000000
vn 0.000000 0.000000 -1.000000
vn 0.000000 0.243870 0.969808
vn 0.000000 0.243870 0.969808
vn 0.000000 0.243870 0.969808
vn 0.000000 0.243870 0.969808
vn 0.000000 0.243870 0.969808
vn 0.000000 0.243870 0.969808
vn 0.000000 0.243870 0.969808
vn 0.000000 0.243870 0.969808
vn 0.000000 0.243870 0.969808
vn 0.000000 1.000000 0.000000
vn 0.000000 1.000000 0.000000
vn 0.000000 1.000000 0.000000
vn 0.000000 1.000000 0.000000
vn 0.000000 1.000000 0.000000
vn 0.000000 1.000000 0.000000
vn -0.707104 0.707110 0.000000
vn -0.707104 0.707110 0.000000
vn -0.707104 0.707110 0.000000
vn -0.707103 0.707110 0.000000
vn -0.707104 0.707110 0.000000
vn -0.707103 0.707110 0.000000
vn -0.708828 0.172873 0.683869
vn -0.708828 0.172873 0.683870
vn -0.708828 0.172873 0.683870
vn -0.705801 0.172760 0.687022
vn -0.705801 0.172760 0.687022
vn -0.705801 0.172760 0.687022
vn -0.705801 0.172760 0.687022
vn -0.705801 0.172760 0.687022
vn -0.705801 0.172760 0.687022
vn 0.000000 0.795581 0.605847
vn 0.000000 0.795581 0.605847
vn 0.000000 0.795581 0.605847
vn 0.000000 0.795580 0.605848
vn 0.000000 0.795580 0.605848
vn 0.000000 0.795580 0.605848
vn 0.707104 0.707110 0.000000
vn 0.707104 0.707110 0.000000
vn 0.707104 0.707110 0.000000
vn 0.707104 0.707110 0.000000
vn 0.707103 0.707110 0.000000
vn 0.707103 0.707110 0.000000
vn 0.708828 0.172873 0.683869
vn 0.708828 0.172873 0.683869
vn 0.708828 0.172873 0.683869
vn 0.705801 0.172760 0.687022
vn 0.705801 0.172760 0.687022
vn 0.705801 0.172760 0.687022
vn -0.545629 0.666718 0.507717
vn -0.545629 0.666718 0.507717
vn -0.545629 0.666718 0.507717
vn 0.545629 0.666718 0.507717
vn 0.545629 0.666718 0.507717
vn 0.545629 0.666718 0.507717
vn 0.000000 0.243870 0.969808
vn 0.000000 0.243870 0.969808
vn 0.000000 0.243870 0.969808
vn 0.000000 0.243870 0.969808
vn 0.000000 0.243870 0.969808
vn 0.000000 0.243870 0.969808
vn 0.946480 0.131043 0.294965
vn 0.946480 0.131043 0.294965
vn 0.946480 0.131043 0.294965
vn 0.000000 0.000000 -1.000000
vn 0.000000 0.000000 -1.000000
vn 0.000000 0.000000 -1.000000
vn 0.000000 0.000000 -1.000000
vn 0.000000 0.000000 -1.000000
vn 0.000000 0.000000 -1.000000
vn -1.000000 0.000000 0.000000
vn -1.000000 0.000000 0.000000
vn -1.000000 0.000000 0.000000
vn -1.000000 0.000000 0.000000
vn -1.000000 0.000000 0.000000
vn -1.000000 0.000000 0.000000
vn -0.702533 0.174410 0.689948
vn -0.702533 0.174410 0.689948
vn -0.702533 0.174410 0.689948
vn -0.696181 0.175066 0.696193
vn -0.696181 0.175066 0.696193
vn -0.696181 0.175066 0.696193
vn 0.000000 0.243870 0.969808
vn 0.000000 0.243870 0.969808
vn 0.000000 0.243870 0.969808
vn 0.000000 0.243870 0.969808
vn 0.000000 0.243870 0.969808
vn 0.000000 0.243870 0.969808
vn 0.000000 0.243870 0.969808
vn 0.000000 0.243870 0.969808
vn 0.000000 0.243870 0.969808
vn 0.953355 -0.047346 0.298116
vn 0.953355 -0.047346 0.298116
vn 0.953355 -0.047346 0.298116
vn 0.000000 0.000000 -1.000000
vn 0.000000 0.000000 -1.000000
vn 0.000000 0.000000 -1.000000
vn 0.000000 0.000000 -1.000000
vn 0.000000 0.000000 -1.000000
vn 0.000000 0.000000 -1.000000
vn -1.000000 0.000000 0.000000
vn -1.000000 0.000000 0.000000
vn -1.000000 0.000000 0.000000
vn -1.000000 0.000000 0.000000
vn -1.000000 0.000000 0.000000
vn -1.000000 0.000000 0.000000
vn -0.705702 0.173639 0.686902
vn -0.705702 0.173639 0.686902
vn -0.705702 0.173639 0.686902
vn -0.703172 0.173801 0.689451
vn -0.703172 0.173801 0.689451
vn -0.703172 0.173801 0.689451
vn -0.702636 0.173525 0.690066
vn -0.702636 0.173525 0.690066
vn -0.702636 0.173525 0.690066
vn -0.227228 0.189018 0.955322
vn -0.227228 0.189018 0.955322
vn -0.227228 0.189018 0.955322
vn -0.221742 0.295275 0.929324
vn -0.221742 0.295275 0.929324
vn -0.221742 0.295275 0.929324
vn 0.705702 0.173640 0.686902
vn 0.705702 0.173640 0.686902
vn 0.705702 0.173640 0.686902
vn 0.702636 0.173526 0.690066
vn 0.702636 0.173526 0.690066
vn 0.702636 0.173525 0.690066
vn 0.704301 0.173387 0.688401
vn 0.704301 0.173387 0.688402
vn 0.704301 0.173387 0.688402
vn 0.696181 0.175066 0.696193
vn 0.696181 0.175066 0.696193
vn 0.696181 0.175066 0.696193
vn 0.702533 0.174409 0.689949
vn 0.702533 0.174409 0.689949
vn 0.702532 0.174409 0.689949
vn 0.702533 0.174409 0.689948
vn 0.702533 0.174409 0.689948
vn 0.702533 0.174409 0.689948
vn 1.000000 0.000000 0.000000
vn 1.000000 0.000000 0.000000
vn 1.000000 0.000000 0.000000
vn 1.000000 0.000000 0.000000
vn 1.000000 0.000000 0.000000
vn 1.000000 0.000000 0.000000
vn 1.000000 -0.000000 0.000000
vn 1.000000 -0.000000 0.000000
vn 1.000000 -0.000000 0.000000
vn 1.000000 0.000000 0.000000
vn 1.000000 0.000000 0.000000
vn 1.000000 0.000000 0.000000
vn 1.000000 -0.000000 0.000000
vn 1.000000 -0.000000 0.000000
vn 1.000000 -0.000000 0.000000
vn 1.000000 0.000001 0.000000
vn 1.000000 0.000001 0.000000
vn 1.000000 0.000001 0.000000
s off
f 1/1/1 2/6/2 9/2/3
f 9/2/4 2/6/5 10/8/6
f 2/6/7 11/13/8 10/8/9
f 11/13/10 12/3/11 10/8/12
f 15/5/13 6/12/14 24/24/15
f 24/24/16 6/12/17 23/23/18
f 26/26/19 4/14/20 25/25/21
f 25/25/22 4/14/23 13/7/24
f 24/24/25 25/25/26 15/5/27
f 15/5/28 25/25/29 16/11/30
f 25/25/31 13/7/32 16/11/33
f 13/7/34 14/4/35 16/11/36
f 22/22/37 8/16/38 28/28/39
f 5/15/40 27/27/41 8/16/42
f 8/16/43 27/27/44 28/28/45
f 14/4/46 3/9/47 16/11/48
f 16/11/49 3/9/50 7/10/51
f 4/14/52 3/9/53 13/7/54
f 13/7/55 3/9/56 14/4/57
f 4/14/58 26/26/59 5/15/60
f 5/15/61 26/26/62 27/27/63
f 26/26/64 30/30/65 27/27/66
f 3/9/67 5/15/68 7/10/69
f 7/10/70 5/15/71 8/16/72
f 6/12/73 15/5/74 7/10/75
f 7/10/76 15/5/77 16/11/78
f 6/12/79 8/16/80 23/23/81
f 23/23/82 8/16/83 22/22/84
f 3/9/85 4/14/86 5/15/87
f 6/12/88 7/10/89 8/16/90
f 12/3/91 18/18/92 10/8/93
f 10/8/94 18/18/95 17/17/96
f 33/33/97 34/34/98 32/32/99
f 20/20/100 19/19/101 1/1/102
f 1/1/103 19/19/104 2/6/105
f 9/2/106 21/21/107 1/1/108
f 1/1/109 21/21/110 20/20/111
f 21/21/112 9/2/113 17/17/114
f 17/17/115 9/2/116 10/8/117
f 18/18/118 22/22/119 17/17/120
f 17/17/121 22/22/122 29/29/123
f 22/22/124 28/28/125 29/29/126
f 34/34/127 31/31/128 32/32/129
f 25/25/130 24/24/131 20/20/132
f 20/20/133 24/24/134 19/19/135
f 21/21/136 26/26/137 20/20/138
f 20/20/139 26/26/140 25/25/141
f 26/26/142 21/21/143 30/30/144
f 30/30/145 21/21/146 29/29/147
f 29/29/148 21/21/149 17/17/150
f 28/28/151 27/27/152 30/30/153
f 29/29/154 28/28/155 30/30/156
f 23/23/157 22/22/158 31/31/159
f 18/18/160 32/32/161 22/22/162
f 22/22/163 32/32/164 31/31/165
f 12/3/166 11/13/167 18/18/168
f 32/32/169 18/18/170 33/33/171
f 33/33/172 18/18/173 11/13/174
f 11/13/175 2/6/176 33/33/177
f 19/19/178 34/34/179 2/6/180
f 34/34/181 33/33/182 2/6/183
f 24/24/184 23/23/185 19/19/186
f 23/23/187 31/31/188 19/19/189
f 31/31/190 34/34/191 19/19/192
