# This file uses centimeters as units for non-parametric coordinates.

v -0.289488 0.000000 0.000000
v 300.000000 0.000000 0.000000
v -0.289488 0.000000 -300.000000
v 300.000000 0.000000 -300.000000
v 218.044800 0.000000 -300.000000
v 218.044800 0.000000 0.000000
v 145.266678 0.000000 -300.000000
v 145.266678 0.000000 0.000000
v 72.488647 0.000000 -300.000000
v 72.488647 0.000000 0.000000
v 300.000000 0.000000 -75.000000
v 218.044800 0.000000 -75.000000
v 145.266678 9.367871 -75.000000
v 72.488647 0.000000 -75.000000
v -0.289488 0.000000 -75.000000
v 300.000000 0.000000 -150.000000
v 218.044800 0.000000 -150.000000
v 145.266678 0.000000 -150.000000
v 72.488647 9.367871 -150.000000
v -0.289488 0.000000 -150.000000
v 300.000000 0.000000 -225.000000
v 218.044800 9.367871 -225.000000
v 145.266678 0.000000 -225.000000
v 72.488647 0.000000 -225.000000
v -0.289488 0.000000 -225.000046
vt 0.040716 0.376901
vt 0.040716 0.376901
vt 0.040716 0.376900
vt 0.040716 0.376900
vt 0.040716 0.376901
vt 0.040716 0.376900
vt 0.040716 0.376900
vt 0.040716 0.376900
vt 0.040716 0.376900
vt 0.040716 0.376900
vt 0.040716 0.376901
vt 0.040716 0.376901
vt 0.040716 0.376900
vt 0.040716 0.376900
vt 0.040716 0.376901
vt 0.040716 0.376900
vt 0.040716 0.376900
vt 0.040716 0.376900
vt 0.040716 0.376900
vt 0.040716 0.376900
vt 0.040716 0.376900
vt 0.040716 0.376900
vt 0.040716 0.376900
vt 0.040716 0.376900
vt 0.040716 0.376900
vn 0.000000 1.000000 0.000000
vn 0.000000 1.000000 0.000000
vn 0.000000 1.000000 0.000000
vn 0.000000 1.000000 0.000000
vn 0.000000 1.000000 0.000000
vn 0.000000 1.000000 0.000000
vn 0.126696 0.984293 0.122943
vn 0.126696 0.984293 0.122943
vn 0.126697 0.984293 0.122943
vn 0.000000 1.000000 0.000000
vn 0.000000 1.000000 0.000000
vn 0.000000 1.000000 0.000000
vn 0.000000 1.000000 0.000000
vn 0.000000 1.000000 0.000000
vn 0.000000 1.000000 0.000000
vn -0.126697 0.984293 0.122943
vn -0.126697 0.984293 0.122943
vn -0.126697 0.984293 0.122943
vn 0.000000 1.000000 0.000000
vn 0.000000 1.000000 0.000000
vn 0.000000 1.000000 0.000000
vn 0.000000 1.000000 0.000000
vn 0.000000 1.000000 0.000000
vn 0.000000 1.000000 0.000000
vn 0.000000 1.000000 0.000000
vn 0.000000 1.000000 0.000000
vn 0.000000 1.000000 0.000000
vn 0.000000 1.000000 0.000000
vn 0.000000 1.000000 0.000000
vn 0.000000 1.000000 0.000000
vn 0.126696 0.984293 -0.122943
vn 0.126697 0.984293 -0.122943
vn 0.126696 0.984293 -0.122943
vn 0.000000 1.000000 0.000000
vn 0.000000 1.000000 0.000000
vn 0.000000 1.000000 0.000000
vn 0.126697 0.984293 0.122943
vn 0.126697 0.984293 0.122943
vn 0.126697 0.984293 0.122943
vn -0.126697 0.984293 -0.122943
vn -0.126697 0.984293 -0.122943
vn -0.126697 0.984293 -0.122943
vn 0.000000 1.000000 0.000000
vn 0.000000 1.000000 0.000000
vn 0.000000 1.000000 0.000000
vn -0.126696 0.984293 0.122943
vn -0.126696 0.984293 0.122943
vn -0.126696 0.984293 0.122943
vn 0.112701 0.985968 0.123152
vn 0.112701 0.985968 0.123152
vn 0.112701 0.985968 0.123152
vn 0.000000 1.000000 0.000000
vn 0.000000 1.000000 0.000000
vn 0.000000 1.000000 0.000000
vn 0.000000 1.000000 0.000000
vn 0.000000 1.000000 0.000000
vn 0.000000 1.000000 0.000000
vn -0.126696 0.984293 0.122943
vn -0.126696 0.984293 0.122943
vn -0.126696 0.984293 0.122943
vn 0.126697 0.984293 -0.122943
vn 0.126697 0.984293 -0.122943
vn 0.126697 0.984293 -0.122943
vn 0.000000 1.000000 0.000000
vn 0.000000 1.000000 0.000000
vn 0.000000 1.000000 0.000000
vn 0.000000 1.000000 0.000000
vn 0.000000 1.000000 0.000000
vn 0.000000 1.000000 0.000000
vn -0.126696 0.984293 -0.122943
vn -0.126696 0.984293 -0.122943
vn -0.126696 0.984293 -0.122943
vn 0.112701 0.985968 -0.123152
vn 0.112701 0.985968 -0.123152
vn 0.112701 0.985968 -0.123152
vn 0.000000 1.000000 0.000000
vn 0.000000 1.000000 0.000000
vn 0.000000 1.000000 0.000000
vn 0.000000 1.000000 0.000000
vn 0.000000 1.000000 0.000000
vn 0.000000 1.000000 0.000000
vn -0.126696 0.984293 -0.122943
vn -0.126696 0.984293 -0.122943
vn -0.126696 0.984293 -0.122943
vn 0.000000 1.000000 0.000000
vn 0.000000 1.000000 0.000000
vn 0.000000 1.000000 0.000000
vn 0.000000 1.000000 0.000000
vn 0.000000 1.000000 0.000000
vn 0.000000 1.000000 0.000000
vn 0.000000 1.000000 0.000000
vn 0.000000 1.000000 0.000000
vn 0.000000 1.000000 0.000000
vn 0.000000 1.000000 0.000000
vn 0.000000 1.000000 0.000000
vn 0.000000 1.000000 0.000000
s off
f 12/12/1 6/6/2 11/11/3
f 11/11/4 6/6/5 2/4/6
f 13/13/7 8/8/8 12/12/9
f 12/12/10 8/8/11 6/6/12
f 10/10/13 8/8/14 14/14/15
f 14/14/16 8/8/17 13/13/18
f 15/15/19 1/3/20 14/14/21
f 14/14/22 1/3/23 10/10/24
f 17/17/25 12/12/26 16/16/27
f 16/16/28 12/12/29 11/11/30
f 13/13/31 12/12/32 18/18/33
f 18/18/34 12/12/35 17/17/36
f 19/19/37 14/14/38 18/18/39
f 18/18/40 14/14/41 13/13/42
f 15/15/43 14/14/44 20/20/45
f 20/20/46 14/14/47 19/19/48
f 22/22/49 17/17/50 21/21/51
f 21/21/52 17/17/53 16/16/54
f 18/18/55 17/17/56 23/23/57
f 23/23/58 17/17/59 22/22/60
f 19/19/61 18/18/62 24/24/63
f 24/24/64 18/18/65 23/23/66
f 25/25/67 20/20/68 24/24/69
f 24/24/70 20/20/71 19/19/72
f 22/22/73 21/21/74 5/5/75
f 5/5/76 21/21/77 4/2/78
f 7/7/79 23/23/80 5/5/81
f 5/5/82 23/23/83 22/22/84
f 9/9/85 24/24/86 7/7/87
f 7/7/88 24/24/89 23/23/90
f 3/1/91 25/25/92 9/9/93
f 9/9/94 25/25/95 24/24/96
