# This file uses centimeters as units for non-parametric coordinates.

v -25.895302 64.300888 4.562084
v 25.895287 64.300888 4.562084
v -25.895302 64.300888 -4.562084
v 25.895287 64.300888 -4.562084
v -0.000008 64.300880 4.562084
v -0.000008 64.300880 -4.562084
v 22.425972 77.248528 -4.562085
v 12.205777 84.315254 -4.562085
v -0.000008 90.196175 -4.562085
v -9.750610 81.223663 -4.562085
v -22.425980 77.248528 -4.562085
v 12.403955 84.015892 4.562085
v -0.000008 90.196175 4.562085
v -11.084388 81.486374 4.562085
v -22.425980 77.248528 4.562085
v -0.000008 13.079199 -4.562084
v 25.895287 13.079199 -4.562084
v 25.895287 13.079199 4.562084
v -0.000008 13.079199 4.562084
v -25.895302 13.079199 4.562084
v -25.895302 13.079199 -4.562084
v 29.074623 13.079199 6.296937
v -0.000008 13.079199 6.296937
v -0.000008 -0.000001 6.296937
v 29.074623 -0.000001 6.296937
v -0.000008 0.000000 -6.296937
v -0.000008 13.079199 -6.296937
v 29.074623 13.079199 -6.296937
v 29.074623 0.000000 -6.296937
v -29.074638 0.000000 -6.296937
v -29.074638 0.000000 6.296937
v -29.074623 13.079199 6.296937
v -29.074623 13.079199 -6.296937
v 13.816628 72.277916 4.562085
v -14.813164 78.397530 -4.562116
v 25.895287 43.089531 -4.562084
v 25.895287 26.685371 -4.562084
v 25.895317 35.382465 0.275158
v 15.815697 33.360611 -4.562116
v -25.895302 47.911686 4.562084
v -25.895302 58.187267 4.562084
v -25.895325 51.476269 0.294813
v -21.933800 54.650074 4.562116
v -16.724937 82.949585 -4.562085
v -17.922630 13.079199 6.296936
v -6.487137 13.079199 4.562084
v -9.077888 4.917260 6.296901
v 19.130278 81.983223 -4.562085
v 12.947639 90.195900 -2.883630
v 12.947639 90.195900 2.883630
v -0.000008 93.665207 -2.883630
v -0.000008 93.665207 2.883630
v -12.947647 90.195900 -2.883630
v -12.947647 90.195900 2.883630
v -16.635780 86.507820 -0.670764
v -16.724937 86.418617 -4.562085
v -19.252174 83.526894 -4.562085
v -19.252174 83.526894 4.562085
vt 0.444114 0.377525
vt 0.444114 0.377525
vt 0.444114 0.377525
vt 0.444114 0.377525
vt 0.444114 0.377525
vt 0.444114 0.377525
vt 0.444114 0.377525
vt 0.444114 0.377525
vt 0.444114 0.377525
vt 0.444114 0.377525
vt 0.444114 0.377525
vt 0.444114 0.377525
vt 0.444114 0.377525
vt 0.444114 0.377525
vt 0.444114 0.377525
vt 0.444114 0.377525
vt 0.444114 0.377525
vt 0.444114 0.377525
vt 0.444114 0.377525
vt 0.563812 0.779114
vt 0.563812 0.779114
vt 0.563812 0.779114
vt 0.563797 0.779114
vt 0.563797 0.779114
vt 0.563797 0.779114
vt 0.563797 0.779114
vt 0.444114 0.377525
vt 0.444114 0.377525
vt 0.444114 0.377525
vt 0.444114 0.377525
vt 0.444114 0.377525
vt 0.444114 0.377525
vt 0.444114 0.377525
vt 0.444114 0.377525
vt 0.444114 0.377525
vt 0.444114 0.377525
vt 0.444114 0.377525
vt 0.444114 0.377525
vt 0.444114 0.377525
vt 0.444114 0.377525
vt 0.444114 0.377525
vt 0.444114 0.377525
vt 0.444114 0.377525
vt 0.444114 0.377525
vt 0.444114 0.377525
vt 0.444114 0.377525
vt 0.444114 0.377525
vt 0.444114 0.377525
vt 0.444114 0.377525
vt 0.444114 0.377525
vt 0.444114 0.377525
vt 0.444114 0.377525
vt 0.444114 0.377525
vt 0.444114 0.377525
vt 0.444114 0.377525
vt 0.444114 0.377525
vt 0.444114 0.377525
vt 0.444114 0.377525
vt 0.444114 0.377525
vt 0.444114 0.377525
vt 0.444114 0.377525
vt 0.444114 0.377525
vt 0.444114 0.377525
vt 0.444114 0.377525
vt 0.444114 0.377525
vt 0.444114 0.377525
vt 0.444114 0.377525
vt 0.563797 0.779114
vt 0.444113 0.377525
vt 0.444113 0.377525
vt 0.444114 0.377525
vt 0.444114 0.377525
vt 0.444113 0.377525
vt 0.444114 0.377525
vt 0.444114 0.377525
vt 0.444114 0.377525
vt 0.444114 0.377525
vt 0.444113 0.377525
vt 0.563797 0.779114
vt 0.444114 0.377525
vt 0.444113 0.377525
vt 0.444114 0.377525
vt 0.444114 0.377525
vt 0.444114 0.377525
vt 0.563797 0.779114
vt 0.563797 0.779114
vt 0.563812 0.779114
vt 0.563812 0.779114
vt 0.563812 0.779114
vt 0.563797 0.779114
vt 0.563797 0.779114
vt 0.563797 0.779114
vt 0.563797 0.779114
vt 0.563797 0.779114
vt 0.563797 0.779114
vt 0.563797 0.779114
vn 0.000000 0.000000 1.000000
vn 0.000000 0.000000 1.000000
vn 0.000000 0.000000 1.000000
vn 0.000000 0.000000 1.000000
vn 0.000000 0.000000 1.000000
vn 0.000000 0.000000 1.000000
vn 0.000000 0.000000 -1.000000
vn 0.000000 0.000000 -1.000000
vn 0.000000 0.000000 -1.000000
vn 0.000000 0.000000 -1.000000
vn 0.000000 0.000000 -1.000000
vn 0.000000 0.000000 -1.000000
vn 0.000000 -1.000000 -0.000000
vn 0.000000 -1.000000 -0.000000
vn 0.000000 -1.000000 -0.000000
vn 0.000000 -1.000000 -0.000000
vn 0.000000 -1.000000 -0.000000
vn 0.000000 -1.000000 -0.000000
vn 1.000000 0.000000 0.000000
vn 1.000000 0.000000 0.000000
vn 1.000000 0.000000 0.000000
vn 1.000000 0.000000 0.000000
vn 1.000000 0.000000 0.000000
vn 1.000000 0.000000 0.000000
vn -1.000000 0.000001 0.000000
vn -1.000000 0.000001 0.000000
vn -1.000000 0.000001 0.000000
vn -1.000000 0.000001 0.000000
vn -1.000000 0.000001 0.000000
vn -1.000000 0.000001 0.000000
vn 0.000000 0.000007 1.000000
vn 0.000000 0.000007 1.000000
vn 0.000000 0.000007 1.000000
vn 0.000000 -1.000000 0.000000
vn 0.000000 -1.000000 0.000000
vn 0.000000 -1.000000 0.000000
vn -0.000000 -1.000000 -0.000000
vn -0.000000 -1.000000 -0.000000
vn -0.000000 -1.000000 -0.000000
vn 0.000000 0.000000 -1.000000
vn 0.000000 0.000000 -1.000000
vn 0.000000 0.000000 -1.000000
vn 0.000000 0.000000 -1.000000
vn 0.000000 0.000000 -1.000000
vn 0.000000 0.000000 -1.000000
vn 0.798918 0.601439 0.000000
vn 0.798918 0.601439 0.000000
vn 0.798918 0.601439 0.000000
vn 0.258819 0.965926 0.000000
vn 0.258819 0.965926 0.000000
vn 0.258819 0.965926 0.000000
vn 0.258819 0.965926 0.000000
vn 0.258819 0.965926 0.000000
vn 0.258819 0.965926 0.000000
vn -0.258819 0.965926 0.000000
vn -0.258819 0.965926 0.000000
vn -0.258819 0.965926 0.000000
vn -0.258819 0.965926 0.000000
vn -0.258819 0.965926 0.000000
vn -0.258819 0.965926 0.000000
vn -0.707102 0.707112 0.000000
vn -0.707102 0.707112 0.000000
vn -0.707102 0.707112 0.000000
vn -0.965926 0.258820 0.000000
vn -0.965926 0.258820 0.000000
vn -0.965926 0.258820 0.000000
vn -0.965926 0.258820 0.000000
vn -0.965926 0.258820 0.000000
vn -0.965926 0.258820 0.000000
vn 0.965926 0.258820 0.000000
vn 0.965926 0.258820 0.000000
vn 0.965926 0.258820 0.000000
vn -0.000000 -0.000000 -1.000000
vn -0.000000 -0.000000 -1.000000
vn -0.000000 -0.000000 -1.000000
vn 0.000000 -0.000000 -1.000000
vn 0.000000 -0.000000 -1.000000
vn 0.000000 -0.000000 -1.000000
vn 0.000000 -0.000000 -1.000000
vn 0.000000 -0.000000 -1.000000
vn 0.000000 -0.000000 -1.000000
vn 0.000005 0.000003 -1.000000
vn 0.000005 0.000003 -1.000000
vn 0.000005 0.000003 -1.000000
vn 0.000000 -0.000000 -1.000000
vn 0.000000 -0.000000 -1.000000
vn 0.000000 -0.000000 -1.000000
vn 0.000000 -0.000000 -1.000000
vn 0.000000 -0.000000 -1.000000
vn 0.000000 -0.000000 -1.000000
vn -0.000000 -0.000000 1.000000
vn -0.000000 -0.000000 1.000000
vn -0.000000 -0.000000 1.000000
vn 0.000000 -0.000000 1.000000
vn 0.000000 -0.000000 1.000000
vn 0.000000 -0.000000 1.000000
vn 0.000000 -0.000000 1.000000
vn 0.000000 -0.000000 1.000000
vn 0.000000 -0.000000 1.000000
vn 0.000000 -0.000000 1.000000
vn 0.000000 -0.000000 1.000000
vn 0.000000 -0.000000 1.000000
vn 0.000000 -0.000000 1.000000
vn 0.000000 -0.000000 1.000000
vn 0.000000 -0.000000 1.000000
vn -0.000000 -0.000000 1.000000
vn -0.000000 -0.000000 1.000000
vn -0.000000 -0.000000 1.000000
vn 0.000000 -0.000002 -1.000000
vn 0.000000 -0.000002 -1.000000
vn 0.000000 -0.000002 -1.000000
vn 0.000003 0.000000 -1.000000
vn 0.000003 0.000000 -1.000000
vn 0.000003 0.000000 -1.000000
vn 0.306417 0.462685 -0.831884
vn 0.306417 0.462685 -0.831884
vn 0.306417 0.462685 -0.831884
vn 0.000000 0.000000 1.000000
vn 0.000000 0.000000 1.000000
vn 0.000000 0.000000 1.000000
vn 0.000000 0.000000 1.000000
vn 0.000000 0.000000 1.000000
vn 0.000000 0.000000 1.000000
vn 0.000000 0.000000 1.000000
vn 0.000000 0.000000 1.000000
vn 0.000000 0.000000 1.000000
vn -0.000004 -0.000002 1.000000
vn -0.000004 -0.000002 1.000000
vn -0.000004 -0.000002 1.000000
vn -1.000000 0.000002 0.000002
vn -1.000000 0.000002 0.000002
vn -1.000000 0.000002 0.000002
vn -1.000000 0.000000 0.000000
vn -1.000000 0.000000 0.000000
vn -1.000000 0.000000 0.000000
vn 0.000000 0.000000 -1.000000
vn 0.000000 0.000000 -1.000000
vn 0.000000 0.000000 -1.000000
vn 0.000000 0.000000 -1.000000
vn 0.000000 0.000000 -1.000000
vn 0.000000 0.000000 -1.000000
vn 0.000000 1.000000 0.000000
vn 0.000000 1.000000 0.000000
vn 0.000000 1.000000 0.000000
vn 0.000000 1.000000 -0.000001
vn 0.000000 1.000000 -0.000001
vn 0.000000 1.000000 -0.000001
vn 0.000000 1.000000 0.000000
vn 0.000000 1.000000 0.000000
vn 0.000000 1.000000 0.000000
vn 0.000000 1.000000 0.000000
vn 0.000000 1.000000 0.000000
vn 0.000000 1.000000 0.000000
vn 0.000000 1.000000 0.000000
vn 0.000000 1.000000 0.000000
vn 0.000000 1.000000 0.000000
vn 0.000000 1.000000 0.000000
vn 0.000000 1.000000 0.000000
vn 0.000000 1.000000 0.000000
vn 0.000000 1.000000 0.000000
vn 0.000000 1.000000 0.000000
vn 0.000000 1.000000 0.000000
vn 0.000000 1.000000 0.000000
vn 0.000000 1.000000 0.000000
vn 0.000000 1.000000 0.000000
vn 0.000000 1.000000 0.000000
vn 0.000000 1.000000 0.000000
vn 0.000000 1.000000 0.000000
vn 0.000000 1.000000 0.000000
vn 0.000000 1.000000 0.000000
vn 0.000000 1.000000 0.000000
vn 0.000000 1.000000 0.000000
vn 0.000000 1.000000 0.000000
vn 0.000000 1.000000 0.000000
vn 0.000000 1.000000 0.000000
vn 0.000000 1.000000 0.000000
vn 0.000000 1.000000 0.000000
vn 0.394662 0.597590 0.697946
vn 0.394662 0.597590 0.697946
vn 0.394662 0.597590 0.697946
vn 0.701371 0.084411 0.707781
vn 0.701371 0.084411 0.707781
vn 0.701371 0.084411 0.707781
vn 0.000002 0.000008 -1.000000
vn 0.000002 0.000008 -1.000000
vn 0.000002 0.000008 -1.000000
vn -0.707104 0.707109 -0.000006
vn -0.707104 0.707109 -0.000006
vn -0.707104 0.707109 -0.000006
vn 1.000000 0.000002 -0.000004
vn 1.000000 0.000002 -0.000004
vn 1.000000 0.000002 -0.000004
vn 1.000000 0.000000 0.000000
vn 1.000000 0.000000 0.000000
vn 1.000000 0.000000 0.000000
vn -0.432078 -0.483901 0.761018
vn -0.432078 -0.483901 0.761018
vn -0.432078 -0.483901 0.761018
vn -0.793851 0.466704 0.389856
vn -0.793851 0.466704 0.389856
vn -0.793851 0.466704 0.389856
vn -0.000005 0.000005 -1.000000
vn -0.000005 0.000005 -1.000000
vn -0.000005 0.000005 -1.000000
vn -0.752965 0.658057 0.002169
vn -0.752965 0.658057 0.002169
vn -0.752965 0.658057 0.002169
vn 0.456521 -0.472974 -0.753581
vn 0.456521 -0.472974 -0.753581
vn 0.456521 -0.472974 -0.753581
vn 0.000000 1.000000 0.000000
vn 0.000000 1.000000 0.000000
vn 0.000000 1.000000 0.000000
vn 0.148049 0.160430 0.975881
vn 0.148049 0.160430 0.975881
vn 0.148049 0.160430 0.975881
vn -0.248304 0.276165 0.928482
vn -0.248304 0.276165 0.928482
vn -0.248304 0.276165 0.928482
vn -0.000004 0.000000 1.000000
vn -0.000004 0.000000 1.000000
vn -0.000004 0.000000 1.000000
vn 0.000002 -0.000002 1.000000
vn 0.000002 -0.000002 1.000000
vn 0.000002 -0.000002 1.000000
vn 0.000000 -0.000000 1.000000
vn 0.000000 -0.000000 1.000000
vn 0.000000 -0.000000 1.000000
vn -0.000000 0.000000 1.000000
vn -0.000000 0.000000 1.000000
vn -0.000000 0.000000 1.000000
vn -0.000002 0.000007 1.000000
vn -0.000002 0.000007 1.000000
vn -0.000002 0.000007 1.000000
vn 0.000000 -0.000001 1.000000
vn 0.000000 -0.000001 1.000000
vn 0.000000 -0.000001 1.000000
vn 0.000002 0.000000 1.000000
vn 0.000002 0.000000 1.000000
vn 0.000002 0.000000 1.000000
vn -1.000000 0.000000 0.000000
vn -1.000000 0.000000 0.000000
vn -1.000000 0.000000 0.000000
vn -1.000000 -0.000001 0.000004
vn -1.000000 -0.000001 0.000004
vn -1.000000 -0.000001 0.000004
vn -1.000000 0.000000 -0.000005
vn -1.000000 0.000000 -0.000005
vn -1.000000 0.000000 -0.000005
vn 0.000000 0.000001 -1.000000
vn 0.000000 0.000001 -1.000000
vn 0.000000 0.000001 -1.000000
vn 0.000003 0.000000 -1.000000
vn 0.000003 0.000000 -1.000000
vn 0.000003 0.000000 -1.000000
vn -0.000002 0.000000 -1.000000
vn -0.000002 0.000000 -1.000000
vn -0.000002 0.000000 -1.000000
vn -0.000003 -0.000006 -1.000000
vn -0.000003 -0.000006 -1.000000
vn -0.000003 -0.000006 -1.000000
vn -0.751566 0.659658 0.000000
vn -0.751566 0.659658 0.000000
vn -0.751566 0.659658 0.000000
vn -0.722208 0.690913 0.032484
vn -0.722208 0.690913 0.032484
vn -0.722208 0.690913 0.032484
vn 1.000000 0.000000 0.000000
vn 1.000000 0.000000 0.000000
vn 1.000000 0.000000 0.000000
vn 1.000000 -0.000002 -0.000003
vn 1.000000 -0.000002 -0.000003
vn 1.000000 -0.000002 -0.000003
vn 1.000000 0.000000 0.000007
vn 1.000000 0.000000 0.000007
vn 1.000000 0.000000 0.000007
vn 0.000000 0.000000 -1.000000
vn 0.000000 0.000000 -1.000000
vn 0.000000 0.000000 -1.000000
vn 0.088584 0.263032 -0.960712
vn 0.088584 0.263032 -0.960712
vn 0.088584 0.263032 -0.960712
vn 0.740561 0.515484 0.431100
vn 0.740561 0.515484 0.431100
vn 0.740561 0.515484 0.431100
vn 0.810985 0.085835 0.578736
vn 0.810985 0.085835 0.578736
vn 0.810985 0.085835 0.578736
vn 0.124218 0.257812 -0.958177
vn 0.124218 0.257812 -0.958177
vn 0.124218 0.257812 -0.958177
vn 0.115915 0.432600 -0.894103
vn 0.115915 0.432600 -0.894103
vn 0.115915 0.432600 -0.894103
vn 0.124486 0.249847 0.960250
vn 0.124486 0.249847 0.960250
vn 0.124486 0.249847 0.960250
vn 0.115915 0.432600 0.894103
vn 0.115915 0.432600 0.894103
vn 0.115915 0.432600 0.894103
vn -0.127324 0.138366 -0.982163
vn -0.127324 0.138366 -0.982163
vn -0.127324 0.138366 -0.982163
vn -0.115915 0.432602 -0.894102
vn -0.115915 0.432602 -0.894102
vn -0.115915 0.432602 -0.894102
vn -0.126875 0.161465 0.978689
vn -0.126875 0.161465 0.978689
vn -0.126875 0.161465 0.978689
vn -0.115915 0.432602 0.894102
vn -0.115915 0.432602 0.894102
vn -0.115915 0.432602 0.894102
vn 0.049674 0.200729 -0.978387
vn 0.049674 0.200729 -0.978387
vn 0.049674 0.200729 -0.978387
vn 0.406069 0.000000 -0.913843
vn 0.406069 0.000000 -0.913843
vn 0.406069 0.000000 -0.913843
vn -0.000000 0.000000 -1.000000
vn -0.000000 0.000000 -1.000000
vn -0.000000 0.000000 -1.000000
vn 0.000000 0.000000 -1.000000
vn 0.000000 0.000000 -1.000000
vn 0.000000 0.000000 -1.000000
vn -0.892450 0.451147 0.000000
vn -0.892450 0.451147 0.000000
vn -0.892450 0.451147 0.000000
vn -0.892450 0.451147 0.000000
vn -0.892450 0.451147 0.000000
vn -0.892450 0.451147 0.000000
vn 0.000000 0.000000 1.000000
vn 0.000000 0.000000 1.000000
vn 0.000000 0.000000 1.000000
vn 0.049779 0.199256 0.978682
vn 0.049779 0.199256 0.978682
vn 0.049779 0.199256 0.978682
s off
f 22/58/1 23/59/2 25/2/3
f 25/2/4 23/59/5 24/16/6
f 26/18/7 27/60/8 29/8/9
f 29/8/10 27/60/11 28/61/12
f 24/17/13 26/18/14 25/10/15
f 25/10/16 26/18/17 29/8/18
f 25/2/19 29/11/20 22/58/21
f 22/58/22 29/11/23 28/62/24
f 30/13/25 31/1/26 33/64/27
f 33/64/28 31/1/29 32/63/30
f 31/1/31 24/16/32 47/84/33
f 30/7/34 26/18/35 31/9/36
f 31/9/37 26/18/38 24/17/39
f 33/65/40 27/60/41 30/7/42
f 30/7/43 27/60/44 26/18/45
f 48/20/46 49/21/47 50/22/48
f 49/21/49 51/23/50 50/22/51
f 50/22/52 51/23/53 52/24/54
f 51/23/55 53/25/56 52/24/57
f 52/24/58 53/25/59 54/26/60
f 53/25/61 55/68/62 54/26/63
f 11/27/64 3/29/65 15/28/66
f 15/28/67 3/29/68 1/30/69
f 4/31/70 7/32/71 2/33/72
f 8/34/73 7/35/74 6/36/75
f 9/37/76 8/34/77 6/36/78
f 10/38/79 9/37/80 6/36/81
f 6/36/82 35/67/83 10/38/84
f 3/40/85 11/39/86 6/36/87
f 7/35/88 4/41/89 6/36/90
f 34/66/91 12/43/92 5/44/93
f 12/43/94 13/45/95 5/44/96
f 13/45/97 14/46/98 5/44/99
f 14/46/100 15/47/101 5/44/102
f 15/47/103 1/48/104 5/44/105
f 2/49/106 34/66/107 5/44/108
f 16/50/109 39/74/110 17/51/111
f 17/51/112 39/74/113 37/71/114
f 39/81/115 38/73/116 37/72/117
f 5/15/118 19/54/119 2/4/120
f 2/4/121 19/54/122 18/53/123
f 20/55/124 46/83/125 40/75/126
f 40/75/127 46/83/128 43/78/129
f 42/77/130 41/76/131 3/14/132
f 3/14/133 41/76/134 1/3/135
f 3/5/136 6/19/137 21/57/138
f 21/57/139 6/19/140 16/50/141
f 19/54/142 23/59/143 18/53/144
f 18/53/145 23/59/146 22/58/147
f 16/50/148 17/51/149 27/60/150
f 27/60/151 17/51/152 28/61/153
f 17/52/154 18/53/155 28/62/156
f 28/62/157 18/53/158 22/58/159
f 20/55/160 21/56/161 32/63/162
f 32/63/163 21/56/164 33/64/165
f 46/83/166 20/55/167 45/82/168
f 45/82/169 20/55/170 32/63/171
f 16/50/172 27/60/173 21/57/174
f 21/57/175 27/60/176 33/65/177
f 2/49/178 7/42/179 34/66/180
f 7/42/181 12/43/182 34/66/183
f 35/67/184 44/80/185 10/38/186
f 53/25/187 56/79/188 55/68/189
f 38/73/190 36/70/191 2/4/192
f 2/4/193 36/70/194 4/12/195
f 41/76/196 42/77/197 43/78/198
f 43/78/199 42/77/200 40/75/201
f 11/39/202 44/80/203 35/67/204
f 55/68/205 56/79/206 57/85/207
f 36/70/208 38/73/209 39/81/210
f 19/54/211 46/83/212 23/59/213
f 47/84/214 46/83/215 45/82/216
f 23/59/217 46/83/218 47/84/219
f 47/84/220 24/16/221 23/59/222
f 47/84/223 45/82/224 31/1/225
f 31/1/226 45/82/227 32/63/228
f 1/3/229 41/76/230 5/15/231
f 43/78/232 5/15/233 41/76/234
f 46/83/235 19/54/236 43/78/237
f 43/78/238 19/54/239 5/15/240
f 20/55/241 40/75/242 21/56/243
f 21/56/244 40/75/245 42/77/246
f 21/56/247 42/77/248 3/14/249
f 6/19/250 4/6/251 39/74/252
f 39/74/253 4/6/254 36/69/255
f 39/74/256 16/50/257 6/19/258
f 11/39/259 35/67/260 6/36/261
f 58/86/262 55/68/263 57/85/264
f 54/26/265 55/68/266 58/86/267
f 17/52/268 37/72/269 18/53/270
f 18/53/271 37/72/272 38/73/273
f 18/53/274 38/73/275 2/4/276
f 7/87/277 8/88/278 48/20/279
f 48/20/280 8/88/281 49/21/282
f 7/87/283 48/20/284 12/89/285
f 12/89/286 48/20/287 50/22/288
f 8/88/289 9/90/290 49/21/291
f 49/21/292 9/90/293 51/23/294
f 12/89/295 50/22/296 13/91/297
f 13/91/298 50/22/299 52/24/300
f 10/92/301 53/25/302 9/90/303
f 9/90/304 53/25/305 51/23/306
f 14/93/307 13/91/308 54/26/309
f 54/26/310 13/91/311 52/24/312
f 10/92/313 44/94/314 53/25/315
f 53/25/316 44/94/317 56/79/318
f 11/95/319 57/85/320 44/94/321
f 44/94/322 57/85/323 56/79/324
f 11/95/325 15/96/326 57/85/327
f 57/85/328 15/96/329 58/86/330
f 15/96/331 14/93/332 58/86/333
f 58/86/334 14/93/335 54/26/336
