# This file uses centimeters as units for non-parametric coordinates.

v -10.448527 0.004995 -10.419941
v 10.391306 0.000000 -10.419941
v -10.388851 248.812393 -10.419941
v 10.451006 248.807373 -10.419941
v -10.388851 248.812393 10.419941
v 10.451006 248.807373 10.419941
v -10.448527 0.004995 10.419941
v 10.391306 0.000000 10.419941
v -10.399747 203.260193 -10.419941
v 10.440016 203.255127 -10.419941
v 10.440063 203.255142 10.419941
v -10.399771 203.260132 10.419941
v -10.404110 185.262619 -10.419941
v 10.435747 185.257614 -10.419941
v 10.435772 185.257538 10.419941
v -10.404085 185.262558 10.419941
v -10.439968 35.737576 -10.419941
v 10.399890 35.732594 -10.419941
v 10.399889 35.732651 10.419941
v -10.439968 35.737648 10.419941
v 10.404515 55.137707 10.419941
v 10.404539 55.137646 -10.419941
v -10.435319 55.142628 -10.419941
v -10.435320 55.142715 10.419941
v -13.004518 186.810303 -13.020754
v 13.036943 186.804047 -13.020754
v 13.040518 201.707504 -13.020754
v -13.000941 201.713791 -13.020754
v 13.036942 186.803986 13.020754
v 13.040518 201.707504 9.044027
v -13.000941 201.713776 13.020754
v -13.004519 186.810226 13.020754
v -13.040472 36.906372 -13.020754
v 13.000989 36.900120 -13.020754
v 13.005066 53.968906 -13.020754
v 13.000965 36.900131 13.020754
v 13.005066 53.968964 13.020754
v -13.036394 53.975208 13.020754
v -13.040495 36.906372 13.020754
v 10.416914 106.685165 -10.419941
v 2.303410 139.583755 -10.419941
v 10.428524 155.101852 -1.122808
v -10.423636 103.812454 10.419941
v -10.428118 85.030754 4.653502
v -10.430647 74.497787 10.419941
v -5.105639 82.145172 10.419941
v 13.038635 193.888535 13.020754
v 8.277941 201.708633 13.020754
v -13.036394 53.975151 -9.791565
v -13.037992 47.245441 -13.020754
v -8.281969 53.973984 -13.020754
vt 0.991106 0.409427
vt 0.991106 0.409427
vt 0.991106 0.409427
vt 0.991106 0.409427
vt 0.991106 0.409427
vt 0.991106 0.409427
vt 0.991106 0.409427
vt 0.991106 0.409427
vt 0.991106 0.409427
vt 0.991106 0.409427
vt 0.991106 0.409427
vt 0.991106 0.409427
vt 0.991106 0.409427
vt 0.991106 0.409427
vt 0.447036 0.375047
vt 0.447036 0.375047
vt 0.447036 0.375047
vt 0.447036 0.375047
vt 0.991106 0.409427
vt 0.447036 0.375047
vt 0.991106 0.409427
vt 0.991106 0.409427
vt 0.991106 0.409427
vt 0.991106 0.409427
vt 0.447036 0.375047
vt 0.991106 0.409427
vt 0.447036 0.375047
vt 0.447036 0.375047
vt 0.447036 0.375047
vt 0.991106 0.409427
vt 0.447036 0.375047
vt 0.991106 0.409427
vt 0.991106 0.409427
vt 0.447036 0.375047
vt 0.447036 0.375047
vt 0.447036 0.375047
vt 0.991106 0.409427
vt 0.447036 0.375047
vt 0.447036 0.375047
vt 0.447036 0.375047
vt 0.447036 0.375047
vt 0.447036 0.375047
vt 0.447036 0.375047
vt 0.447036 0.375047
vt 0.447036 0.375047
vt 0.447036 0.375047
vt 0.447036 0.375047
vt 0.447036 0.375047
vt 0.447036 0.375047
vt 0.447036 0.375047
vt 0.447036 0.375047
vt 0.447036 0.375047
vt 0.447036 0.375047
vt 0.447036 0.375047
vt 0.447036 0.375047
vt 0.447036 0.375047
vt 0.447036 0.375047
vt 0.447036 0.375047
vt 0.447036 0.375047
vt 0.447036 0.375047
vt 0.447036 0.375047
vt 0.991106 0.409427
vt 0.991106 0.409427
vt 0.991106 0.409427
vt 0.991106 0.409427
vt 0.991106 0.409427
vt 0.991106 0.409427
vt 0.991106 0.409427
vt 0.991106 0.409427
vt 0.991106 0.409427
vt 0.991106 0.409427
vt 0.447036 0.375047
vt 0.447036 0.375047
vt 0.447036 0.375047
vt 0.447036 0.375047
vt 0.447036 0.375047
vt 0.447036 0.375047
vt 0.447036 0.375047
vt 0.447036 0.375047
vt 0.447036 0.375047
vt 0.447036 0.375047
vt 0.991106 0.409427
vt 0.447036 0.375047
vt 0.447036 0.375047
vt 0.447036 0.375047
vt 0.447036 0.375047
vt 0.447036 0.375047
vt 0.447036 0.375047
vt 0.447036 0.375047
vt 0.447036 0.375047
vt 0.447036 0.375047
vt 0.447036 0.375047
vt 0.447036 0.375047
vt 0.991106 0.409427
vt 0.991106 0.409427
vt 0.447036 0.375047
vt 0.447036 0.375047
vt 0.447036 0.375047
vt 0.447036 0.375047
vt 0.447036 0.375047
vt 0.447036 0.375047
vt 0.447036 0.375047
vt 0.447036 0.375047
vt 0.447036 0.375047
vt 0.447036 0.375047
vt 0.447036 0.375047
vt 0.447036 0.375047
vt 0.447036 0.375047
vt 0.991106 0.409427
vt 0.447036 0.375047
vt 0.447036 0.375047
vt 0.447036 0.375047
vt 0.447036 0.375047
vt 0.991106 0.409427
vt 0.447036 0.375047
vt 0.447036 0.375047
vt 0.447036 0.375047
vt 0.447036 0.375047
vt 0.991106 0.409427
vt 0.447036 0.375047
vt 0.447036 0.375047
vt 0.447036 0.375047
vt 0.991106 0.409427
vt 0.447036 0.375047
vt 0.991106 0.409427
vt 0.447036 0.375047
vt 0.991106 0.409427
vt 0.447036 0.375047
vt 0.991106 0.409427
vt 0.447036 0.375047
vt 0.447036 0.375047
vt 0.447036 0.375047
vt 0.447036 0.375047
vt 0.447036 0.375047
vt 0.447036 0.375047
vt 0.447036 0.375047
vt 0.447036 0.375047
vt 0.447036 0.375047
vt 0.991106 0.409427
vt 0.447036 0.375047
vt 0.447036 0.375047
vt 0.447036 0.375047
vt 0.991106 0.409427
vt 0.447036 0.375047
vt 0.447036 0.375047
vt 0.447036 0.375047
vt 0.447036 0.375047
vt 0.447036 0.375047
vt 0.447036 0.375047
vt 0.447036 0.375047
vt 0.447036 0.375047
vt 0.447036 0.375047
vt 0.991106 0.409427
vt 0.447036 0.375047
vt 0.991106 0.409427
vt 0.447036 0.375047
vt 0.447036 0.375047
vt 0.447036 0.375047
vt 0.447036 0.375047
vt 0.447036 0.375047
vn 0.000000 0.000000 -1.000000
vn 0.000000 0.000000 -1.000000
vn 0.000000 0.000000 -1.000000
vn 0.000000 0.000000 -1.000000
vn 0.000000 0.000000 -1.000000
vn 0.000000 0.000000 -1.000000
vn 0.000241 1.000000 0.000000
vn 0.000241 1.000000 0.000000
vn 0.000241 1.000000 0.000000
vn 0.000241 1.000000 0.000000
vn 0.000241 1.000000 0.000000
vn 0.000241 1.000000 0.000000
vn -0.000000 0.000000 1.000000
vn -0.000000 0.000000 1.000000
vn -0.000000 0.000000 1.000000
vn 0.000000 0.000000 1.000000
vn 0.000000 0.000000 1.000000
vn 0.000000 0.000000 1.000000
vn -0.000240 -1.000000 0.000000
vn -0.000240 -1.000000 0.000000
vn -0.000240 -1.000000 0.000000
vn -0.000240 -1.000000 0.000000
vn -0.000240 -1.000000 0.000000
vn -0.000240 -1.000000 0.000000
vn 1.000000 -0.000241 -0.000002
vn 1.000000 -0.000241 -0.000002
vn 1.000000 -0.000241 -0.000002
vn 1.000000 -0.000240 0.000000
vn 1.000000 -0.000240 0.000000
vn 1.000000 -0.000240 0.000000
vn -1.000000 0.000240 -0.000001
vn -1.000000 0.000240 -0.000001
vn -1.000000 0.000240 -0.000001
vn -1.000000 0.000239 0.000000
vn -1.000000 0.000239 0.000000
vn -1.000000 0.000239 0.000000
vn 0.000000 0.000000 -1.000000
vn 0.000000 0.000000 -1.000000
vn 0.000000 0.000000 -1.000000
vn -0.000000 0.000000 -1.000000
vn -0.000000 0.000000 -1.000000
vn -0.000000 0.000000 -1.000000
vn 0.597138 0.363524 0.715036
vn 0.597138 0.363524 0.715036
vn 0.597138 0.363524 0.715036
vn -1.000000 0.000240 -0.000000
vn -1.000000 0.000240 -0.000000
vn -1.000000 0.000240 -0.000000
vn -1.000000 0.000240 0.000000
vn -1.000000 0.000240 0.000000
vn -1.000000 0.000240 0.000000
vn -0.596343 0.421521 -0.683150
vn -0.596343 0.421521 -0.683150
vn -0.596343 0.421521 -0.683150
vn 1.000000 -0.000239 0.000001
vn 1.000000 -0.000239 0.000001
vn 1.000000 -0.000239 0.000001
vn 1.000000 -0.000240 0.000000
vn 1.000000 -0.000240 0.000000
vn 1.000000 -0.000240 0.000000
vn 0.000000 0.000000 1.000000
vn 0.000000 0.000000 1.000000
vn 0.000000 0.000000 1.000000
vn -0.000000 0.000000 1.000000
vn -0.000000 0.000000 1.000000
vn -0.000000 0.000000 1.000000
vn -0.380943 0.400068 -0.833563
vn -0.380943 0.400068 -0.833563
vn -0.380943 0.400068 -0.833563
vn 0.000000 0.000000 -1.000000
vn 0.000000 0.000000 -1.000000
vn 0.000000 0.000000 -1.000000
vn 0.000000 0.000000 -1.000000
vn 0.000000 0.000000 -1.000000
vn 0.000000 0.000000 -1.000000
vn 1.000000 -0.000240 0.000000
vn 1.000000 -0.000240 0.000000
vn 1.000000 -0.000240 0.000000
vn 1.000000 -0.000240 0.000000
vn 1.000000 -0.000240 0.000000
vn 1.000000 -0.000240 0.000000
vn -0.000000 0.000000 1.000000
vn -0.000000 0.000000 1.000000
vn -0.000000 0.000000 1.000000
vn 0.000000 0.000000 1.000000
vn 0.000000 0.000000 1.000000
vn 0.000000 0.000000 1.000000
vn -1.000000 0.000239 0.000000
vn -1.000000 0.000239 0.000000
vn -1.000000 0.000239 0.000000
vn -1.000000 0.000240 -0.000000
vn -1.000000 0.000240 -0.000000
vn -1.000000 0.000240 -0.000000
vn 1.000000 -0.000240 0.000001
vn 1.000000 -0.000240 0.000001
vn 1.000000 -0.000240 0.000001
vn 1.000000 -0.000240 0.000001
vn 1.000000 -0.000240 0.000001
vn 1.000000 -0.000240 0.000001
vn 0.000000 0.000000 -1.000000
vn 0.000000 0.000000 -1.000000
vn 0.000000 0.000000 -1.000000
vn -0.766842 -0.188213 0.613619
vn -0.766843 -0.188213 0.613619
vn -0.766843 -0.188213 0.613619
vn -0.000206 -0.859443 -0.511232
vn -0.000206 -0.859443 -0.511232
vn -0.000206 -0.859443 -0.511232
vn -0.000206 -0.859446 -0.511227
vn -0.000206 -0.859446 -0.511227
vn -0.000206 -0.859446 -0.511227
vn 0.000209 0.859452 -0.511216
vn 0.000209 0.859452 -0.511216
vn 0.000209 0.859452 -0.511216
vn 0.000207 0.859442 -0.511234
vn 0.000207 0.859442 -0.511234
vn 0.000207 0.859441 -0.511234
vn 0.511018 -0.859570 -0.000003
vn 0.511018 -0.859570 -0.000003
vn 0.511018 -0.859570 -0.000003
vn 0.511029 -0.859563 -0.000002
vn 0.511029 -0.859563 -0.000002
vn 0.511029 -0.859563 -0.000002
vn 0.596235 0.367104 0.713960
vn 0.596235 0.367104 0.713960
vn 0.596235 0.367104 0.713960
vn -0.000207 -0.859439 0.511238
vn -0.000207 -0.859439 0.511238
vn -0.000207 -0.859439 0.511238
vn -0.000206 -0.859446 0.511227
vn -0.000206 -0.859446 0.511227
vn -0.000206 -0.859446 0.511227
vn -0.511434 -0.859322 -0.000001
vn -0.511434 -0.859322 -0.000001
vn -0.511434 -0.859322 -0.000001
vn -0.511439 -0.859320 -0.000004
vn -0.511439 -0.859320 -0.000004
vn -0.511439 -0.859320 -0.000004
vn -0.511015 0.859572 0.000003
vn -0.511015 0.859572 0.000003
vn -0.511015 0.859572 0.000003
vn -0.511005 0.859578 0.000000
vn -0.511005 0.859578 0.000000
vn -0.511005 0.859578 0.000000
vn -0.000218 -0.912210 -0.409722
vn -0.000218 -0.912210 -0.409722
vn -0.000218 -0.912210 -0.409722
vn -0.000219 -0.912212 -0.409720
vn -0.000219 -0.912211 -0.409720
vn -0.000219 -0.912212 -0.409720
vn 0.409501 -0.912310 0.000002
vn 0.409501 -0.912310 0.000002
vn 0.409501 -0.912310 0.000002
vn 0.409488 -0.912316 0.000001
vn 0.409488 -0.912316 0.000001
vn 0.409488 -0.912316 0.000001
vn 0.409928 0.912118 -0.000002
vn 0.409928 0.912118 -0.000002
vn 0.409928 0.912118 -0.000002
vn 0.409926 0.912119 -0.000002
vn 0.409926 0.912119 -0.000002
vn 0.409926 0.912119 -0.000002
vn 0.000219 0.912214 0.409714
vn 0.000219 0.912214 0.409714
vn 0.000219 0.912214 0.409714
vn 0.000219 0.912215 0.409712
vn 0.000219 0.912215 0.409712
vn 0.000219 0.912215 0.409712
vn -0.000219 -0.912218 0.409705
vn -0.000219 -0.912218 0.409705
vn -0.000219 -0.912218 0.409705
vn -0.000219 -0.912219 0.409703
vn -0.000219 -0.912219 0.409703
vn -0.000219 -0.912219 0.409703
vn -0.409921 -0.912121 0.000003
vn -0.409921 -0.912121 0.000003
vn -0.409921 -0.912121 0.000003
vn -0.409947 -0.912109 -0.000000
vn -0.409947 -0.912109 -0.000000
vn -0.409947 -0.912109 -0.000000
vn 0.856129 -0.152436 -0.493769
vn 0.856129 -0.152436 -0.493768
vn 0.856129 -0.152436 -0.493769
vn 0.000000 0.000000 -1.000000
vn 0.000000 0.000000 -1.000000
vn 0.000000 0.000000 -1.000000
vn -0.000000 0.000000 -1.000000
vn -0.000000 0.000000 -1.000000
vn -0.000000 0.000000 -1.000000
vn 0.000000 0.000000 -1.000000
vn 0.000000 0.000000 -1.000000
vn 0.000000 0.000000 -1.000000
vn 1.000000 -0.000240 -0.000001
vn 1.000000 -0.000240 -0.000001
vn 1.000000 -0.000240 -0.000001
vn 1.000000 -0.000240 -0.000000
vn 1.000000 -0.000240 -0.000000
vn 1.000000 -0.000240 -0.000000
vn 0.607060 0.149714 -0.780425
vn 0.607060 0.149714 -0.780425
vn 0.607060 0.149714 -0.780425
vn 0.000000 0.000000 1.000000
vn 0.000000 0.000000 1.000000
vn 0.000000 0.000000 1.000000
vn -1.000000 0.000240 0.000002
vn -1.000000 0.000240 0.000002
vn -1.000000 0.000240 0.000002
vn -0.567828 0.395389 0.721968
vn -0.567828 0.395389 0.721968
vn -0.567828 0.395389 0.721968
vn -0.000000 0.000000 1.000000
vn -0.000000 0.000000 1.000000
vn -0.000000 0.000000 1.000000
vn 0.000000 0.000000 1.000000
vn 0.000000 0.000000 1.000000
vn 0.000000 0.000000 1.000000
vn -0.000000 0.000000 1.000000
vn -0.000000 0.000000 1.000000
vn -0.000000 0.000000 1.000000
vn 0.000000 0.000000 1.000000
vn 0.000000 0.000000 1.000000
vn 0.000000 0.000000 1.000000
vn -1.000000 0.000239 -0.000002
vn -1.000000 0.000239 -0.000002
vn -1.000000 0.000239 -0.000002
vn -1.000000 0.000240 0.000001
vn -1.000000 0.000240 0.000001
vn -1.000000 0.000240 0.000001
vn -1.000000 0.000242 -0.000000
vn -1.000000 0.000242 -0.000000
vn -1.000000 0.000242 -0.000000
vn -1.000000 0.000241 0.000001
vn -1.000000 0.000241 0.000001
vn -1.000000 0.000241 0.000001
vn 0.511422 0.859330 -0.000002
vn 0.511422 0.859330 -0.000002
vn 0.511422 0.859330 -0.000002
vn 0.511412 0.859336 0.000000
vn 0.511412 0.859336 0.000000
vn 0.511412 0.859336 0.000000
vn 1.000000 -0.000240 0.000000
vn 1.000000 -0.000240 0.000000
vn 1.000000 -0.000240 0.000000
vn 1.000000 -0.000239 0.000001
vn 1.000000 -0.000239 0.000001
vn 1.000000 -0.000239 0.000001
vn 1.000000 -0.000241 0.000000
vn 1.000000 -0.000241 0.000000
vn 1.000000 -0.000241 0.000000
vn 0.000000 0.000000 1.000000
vn 0.000000 0.000000 1.000000
vn 0.000000 0.000000 1.000000
vn 0.000000 0.000000 1.000000
vn 0.000000 0.000000 1.000000
vn 0.000000 0.000000 1.000000
vn 0.000000 0.000000 1.000000
vn 0.000000 0.000000 1.000000
vn 0.000000 0.000000 1.000000
vn 0.000208 0.859456 0.511209
vn 0.000208 0.859456 0.511209
vn 0.000208 0.859456 0.511209
vn 0.000206 0.859446 0.511227
vn 0.000206 0.859446 0.511227
vn 0.000206 0.859446 0.511227
vn -0.409488 0.912315 -0.000004
vn -0.409488 0.912315 -0.000004
vn -0.409488 0.912315 -0.000004
vn -0.409498 0.912311 -0.000002
vn -0.409498 0.912311 -0.000002
vn -0.409498 0.912311 -0.000002
vn -1.000000 0.000240 -0.000001
vn -1.000000 0.000240 -0.000001
vn -1.000000 0.000240 -0.000001
vn -1.000000 0.000240 -0.000001
vn -1.000000 0.000240 -0.000001
vn -1.000000 0.000240 -0.000001
vn -1.000000 0.000238 -0.000000
vn -1.000000 0.000238 -0.000000
vn -1.000000 0.000238 -0.000000
vn 0.000000 0.000000 -1.000000
vn 0.000000 0.000000 -1.000000
vn 0.000000 0.000000 -1.000000
vn 0.000000 0.000000 -1.000000
vn 0.000000 0.000000 -1.000000
vn 0.000000 0.000000 -1.000000
vn -0.000000 0.000000 -1.000000
vn -0.000000 0.000000 -1.000000
vn -0.000000 0.000000 -1.000000
vn 0.000218 0.912215 -0.409712
vn 0.000218 0.912215 -0.409712
vn 0.000218 0.912215 -0.409712
vn 0.000218 0.912214 -0.409714
vn 0.000218 0.912214 -0.409714
vn 0.000218 0.912214 -0.409714
s off
f 9/153/1 3/3/2 10/155/3
f 10/155/4 3/3/5 4/4/6
f 3/3/7 5/5/8 4/4/9
f 4/4/10 5/5/11 6/6/12
f 5/5/13 12/143/14 6/6/15
f 6/6/16 12/143/17 11/95/18
f 7/7/19 1/9/20 8/8/21
f 8/8/22 1/9/23 2/10/24
f 10/155/25 4/4/26 11/94/27
f 11/94/28 4/4/29 6/12/30
f 12/19/31 5/14/32 9/153/33
f 9/153/34 5/14/35 3/3/36
f 25/136/37 28/132/38 26/149/39
f 26/149/40 28/132/41 27/145/42
f 47/97/43 30/46/44 48/92/45
f 32/135/46 31/98/47 25/39/48
f 25/39/49 31/98/50 28/133/51
f 50/86/52 23/36/53 51/79/54
f 34/122/55 35/53/56 36/107/57
f 36/107/58 35/53/59 37/55/60
f 38/56/61 39/102/62 37/57/63
f 37/57/64 39/102/65 36/108/66
f 49/88/67 23/80/68 50/85/69
f 1/1/70 17/129/71 2/2/72
f 2/2/73 17/129/74 18/127/75
f 2/2/76 18/127/77 8/11/78
f 8/11/79 18/127/80 19/30/81
f 20/32/82 7/7/83 19/123/84
f 19/123/85 7/7/86 8/8/87
f 7/13/88 20/109/89 1/1/90
f 1/1/91 20/109/92 17/129/93
f 22/125/94 40/62/95 21/119/96
f 21/119/97 40/62/98 42/64/99
f 13/21/100 14/22/101 41/63/102
f 43/66/103 44/68/104 46/71/105
f 13/160/106 25/137/107 14/157/108
f 14/157/109 25/137/110 26/148/111
f 10/16/112 27/146/113 9/154/114
f 9/154/115 27/146/116 28/131/117
f 14/158/118 26/40/119 15/151/120
f 15/151/121 26/40/122 29/43/123
f 48/93/124 30/142/125 11/17/126
f 15/152/127 29/100/128 16/140/129
f 16/140/130 29/100/131 32/48/132
f 16/25/133 32/49/134 13/159/135
f 13/159/136 32/49/137 25/138/138
f 9/15/139 28/42/140 12/144/141
f 12/144/142 28/42/143 31/50/144
f 17/27/145 33/105/146 18/128/147
f 18/128/148 33/105/149 34/120/150
f 18/28/151 34/52/152 19/124/153
f 19/124/154 34/52/155 36/54/156
f 21/34/157 37/111/158 22/126/159
f 22/126/160 37/111/161 35/117/162
f 24/38/163 38/89/164 21/118/165
f 21/118/166 38/89/167 37/112/168
f 19/29/169 36/58/170 20/110/171
f 20/110/172 36/58/173 39/59/174
f 20/31/175 39/60/176 17/130/177
f 17/130/178 39/60/179 33/106/180
f 14/22/181 42/64/182 41/63/183
f 41/63/184 40/62/185 23/82/186
f 23/82/187 40/62/188 22/125/189
f 23/82/190 13/21/191 41/63/192
f 42/64/193 14/22/194 15/24/195
f 42/64/196 15/24/197 21/119/198
f 42/64/199 40/62/200 41/63/201
f 46/71/202 21/33/203 15/23/204
f 44/67/205 13/21/206 23/82/207
f 44/68/208 45/70/209 46/71/210
f 45/70/211 24/114/212 46/71/213
f 46/71/214 24/114/215 21/33/216
f 16/26/217 43/66/218 15/23/219
f 15/23/220 43/66/221 46/71/222
f 44/67/223 43/65/224 13/21/225
f 13/21/226 43/65/227 16/139/228
f 24/37/229 45/69/230 23/82/231
f 23/82/232 45/69/233 44/67/234
f 11/18/235 30/141/236 10/156/237
f 10/156/238 30/141/239 27/147/240
f 26/150/241 27/41/242 29/101/243
f 29/101/244 27/41/245 47/73/246
f 27/41/247 30/44/248 47/73/249
f 31/99/250 32/134/251 48/91/252
f 48/91/253 32/134/254 47/72/255
f 32/134/256 29/47/257 47/72/258
f 31/45/259 48/74/260 12/20/261
f 12/20/262 48/74/263 11/96/264
f 23/81/265 49/87/266 24/113/267
f 24/113/268 49/87/269 38/90/270
f 39/103/271 38/61/272 33/51/273
f 33/51/274 38/61/275 50/84/276
f 38/61/277 49/75/278 50/84/279
f 33/104/280 50/76/281 34/121/282
f 50/76/283 51/78/284 34/121/285
f 51/78/286 35/115/287 34/121/288
f 35/116/289 51/77/290 22/35/291
f 22/35/292 51/77/293 23/83/294
